<svg width="24" height="24" xmlns="http://www.w3.org/2000/svg"><path fill-rule="evenodd" clip-rule="evenodd" d="m22.5,0h-21C.675,0,0,.675,0,1.5v21c0,.825.675,1.5,1.5,1.5h21c.825,0,1.5-.675,1.5-1.5v-21c0-.825-.675-1.5-1.5-1.5z" fill="#2d327d"/><path fill-rule="evenodd" clip-rule="evenodd" d="m10.3275,4.05752c.4425-.7575,1.41-1.02,2.175-.585.7575.435,1.02,1.41.585,2.175-.435.7575-1.41,1.02-2.175.585-.7575-.435-1.02-1.41-.585-2.175z" fill="#fff"/><path fill-rule="evenodd" clip-rule="evenodd" d="m4.98751,20.6251c-.1125.4275-.5475.675-.975.5625s-.6825-.5475-.5625-.9675c0,0,2.0625-7.71,2.0775-7.8075.0225-.0825.045-.1425.09-.2175.015-.03,2.895-5.01754,2.895-5.01754.4425-.765,1.4175-1.02,2.17499-.585.2475.15.4425.345.5775.5775l3.195,5.53504c.1725.3075.075.6975-.2325.87s-.6975.075-.87-.2325l-.3075.18v.0075l1.3425,7.5975-.4425.075-1.32-7.5075-1.485-2.565.6975-.405-.8475-1.47004L8.70001,13.2376l1.76999,3.06c.0825.1425.12.285.12.45v3.6675c0,.4425-.3525.795-.79499.795-.4425,0-.795-.3525-.795-.795v-3.48l-2.0625-3.5775-1.95,7.2675zm8.11499-7.7175-.99-1.7175-.3075.18.99,1.7175.3075-.18z" fill="#fff"/></svg>