<svg width="24" height="24" xmlns="http://www.w3.org/2000/svg"><path fill-rule="evenodd" clip-rule="evenodd" d="m22.5,0h-21C.675,0,0,.675,0,1.5v21c0,.825.675,1.5,1.5,1.5h21c.825,0,1.5-.675,1.5-1.5v-21c0-.825-.675-1.5-1.5-1.5z" fill="#2d327d"/><path fill-rule="evenodd" clip-rule="evenodd" d="m15.915,6.42756c1.68,2.1675,1.275,5.28004-.885,6.96004-.825.6375-1.29,1.635-1.2525,2.6775.03.765-.15,1.5225-.5175,2.19-.195.3525-.4725.645-.81.8625-1.125.72-2.61751.39-3.33751-.735-.1425-.225-.075-.5175.1425-.66.225-.1425.5175-.075.66.1425.43501.6825,1.34251.8775,2.01751.4425.2025-.1275.375-.315.4875-.525.285-.5175.4275-1.1025.3975-1.6875-.0525-1.35.555-2.6475,1.62-3.4725,1.7475-1.35,2.07-3.87004.72-5.61754-1.35-1.74751-3.87-2.07-5.61751-.72-.915.705-1.4775,1.77-1.545,2.9175-.015.2625-.24.465-.51.45-.2625-.015-.465-.24-.45-.5025.09-1.425.7875-2.745,1.9125-3.615,2.18251-1.6725,5.29501-1.275,6.96751.8925z" fill="#fff"/><path fill-rule="evenodd" clip-rule="evenodd" d="m14.6475,7.40995c1.1325,1.4625.8625,3.56995-.6,4.70255-.0975.0749-.1875.1499-.2775.2325-.1575.1425-.405.1274-.5475-.03-.1425-.1575-.1275-.405.03-.5475.105-.09.21-.18.3225-.27,1.125-.8701,1.335-2.49005.465-3.62255-.87-1.125-2.49-1.335-3.6225-.465-.2775.21-.5025.48-.675.78-.105.1875-.3375.255-.525.15s-.255-.3375-.15-.525c.2175-.39.5175-.7425.8775-1.0125,1.4625-1.125,3.57-.8625,4.7025.6075z" fill="#fff"/><path fill-rule="evenodd" clip-rule="evenodd" d="m9.8175,14.1825c-1.0725-.5175-1.9425-1.38-2.46-2.46L3,16.0875V21l6.8175-6.8175z" fill="#fff"/><path fill-rule="evenodd" clip-rule="evenodd" d="m15.21,3.8775c1.0275.5775,1.8825,1.425,2.46,2.46l1.62-1.62L21,3h-4.92l-.87.8775z" fill="#fff"/></svg>