<svg width="36" height="36" xmlns="http://www.w3.org/2000/svg"><path fill-rule="evenodd" clip-rule="evenodd" d="m3.25,18C3.25,9.8538,9.8538,3.25,18,3.25S32.75,9.8538,32.75,18,26.1462,32.75,18,32.75c-6.0205,0-11.44458-3.6146-13.75-8.8048V28.5h-1v-5.75H9v1H5.25979c2.19584,4.7129,7.19311,8,12.74021,8,7.5939,0,13.75-6.1561,13.75-13.75S25.5939,4.25,18,4.25,4.25,10.4061,4.25,18h-1zm11-10.25h-.3772l-.1036.36264-3,10.49996-.1821.6374h6.053l-1.3804,6.9019-.4323,2.1616L16.15,26.55l9.6-12.8h-6.191l2.6382-5.27639L22.559,7.75H14.25zm-2.3371,10.5,2.7143-9.5h6.3138l-3,6h5.809l-7.0774,9.4365,1.0677-5.3384.1196-.5981h-5.947z"/></svg>