<svg width="36" height="36" xmlns="http://www.w3.org/2000/svg"><path fill-rule="evenodd" clip-rule="evenodd" d="m18,3.25C9.8538,3.25,3.25,9.8538,3.25,18h1c0-7.5939,6.1561-13.75,13.75-13.75S31.75,10.4061,31.75,18,25.5939,31.75,18,31.75c-5.5471,0-10.54437-3.2871-12.74021-8H9v-1H3.25v5.75h1v-4.5548C6.55542,29.1354,11.9795,32.75,18,32.75c8.1462,0,14.75-6.6038,14.75-14.75S26.1462,3.25,18,3.25zm.0223,9.9996c1.8474-.0824,6.1621.6956,8.8768,4.7635-1.4166,2.2876-4.9217,4.8191-8.8887,4.7371v-.0001h-.0103c-3.7109,0-6.9754-1.886-8.90764-4.75,1.93224-2.864,5.19674-4.75,8.90764-4.75h.0111l.0111-.0005zm9.8872,4.484c-2.9454-4.6762-7.7928-5.5745-9.9205-5.4835-4.1796.0038-7.8373,2.1964-9.91631,5.4827l-.1691.2673.1691.2673c2.07991,3.2878,5.74011,5.4809,9.92221,5.4827,4.524.0912,8.4646-2.8707,9.9287-5.5073l.1437-.2588-.1578-.2504zM16.25,18c0-.9665.7835-1.75,1.75-1.75s1.75.7835,1.75,1.75-.7835,1.75-1.75,1.75-1.75-.7835-1.75-1.75zM18,15.25c-1.5188,0-2.75,1.2312-2.75,2.75s1.2312,2.75,2.75,2.75,2.75-1.2312,2.75-2.75-1.2312-2.75-2.75-2.75z"/></svg>