<svg width="24" height="24" xmlns="http://www.w3.org/2000/svg"><path fill-rule="evenodd" clip-rule="evenodd" d="m22.5,0h-21C.675,0,0,.675,0,1.5v21c0,.825.675,1.5,1.5,1.5h21c.825,0,1.5-.675,1.5-1.5v-21c0-.825-.675-1.5-1.5-1.5z" fill="#2d327d"/><path fill-rule="evenodd" clip-rule="evenodd" d="m19.8075,15.3075c-.585-.585-1.4625-.66-1.9575-.165-.3375.3375-1.0875,1.0875-1.515,1.515l-3.585-2.625V7.5c0-.4875-.2325-.96-.6675-1.245C11.8275,6.0825,11.535,6,11.25,6c-.0075,0-.0075,0-.015,0H7.87497c-.1875,0-.36.0975-.4575.24l-1.8,2.565-.1425-.105c-.165-.12-.405-.09-.525.0825-.12.165-.09.405.0825.525l.1575.1125-.0075.0075c-.18.255-.12.6075.135.78.0975.0675.21.105.3225.105.1725,0,.345-.0825.45-.2325l.795.585.42-.6225-.78-.57,1.6425-2.3475h1.53l-2.6925,4.0425c-.075.1125-.1275.225-.1725.3525v.0075l-2.835,8.4825c-.1275.39.0825.8175.4725.945.075.03.1575.0375.24.0375.315,0,.6075-.195.7125-.51l2.4975-7.485,1.08,3.6075v3.645c0,.4125.3375.75.75.75.41253,0,.75003-.3375.75003-.75v-3.7875c0-.0075,0-.0225,0-.03s0-.0075,0-.015,0-.015,0-.0225,0-.015-.0075-.0225v-.0075c0-.0075-.0075-.0225-.0075-.03-.0075-.015-.0075-.03-.015-.0525L9.44997,12.9c.015-.0225.03-.045.045-.0675L11.625,9.645v3.57l-1.2975-.9525-.42003.6225,1.71003,1.2525v.4875c0,.3075.255.5625.5625.5625.21,0,.39-.1125.4875-.2775l3.105,2.28c-.12.09-.255.18-.36.2325l-.8325.4125c-.1875.09-.435.3-.5625.465l-2.025,2.7h9v-4.5l-1.185-1.1925z" fill="#fff"/><path fill-rule="evenodd" clip-rule="evenodd" d="m13.5,6.75c.825,0,1.5-.675,1.5-1.5s-.675-1.5-1.5-1.5-1.5.675-1.5,1.5.675,1.5,1.5,1.5z" fill="#fff"/></svg>