<svg width="24" height="24" xmlns="http://www.w3.org/2000/svg"><path fill-rule="evenodd" clip-rule="evenodd" d="m16.5,5.99951H13v1h2.5657l-1.3333,2H8.64979l-.11969.32913-.64373,1.77026C7.60119,11.0342,7.30452,11,7,11c-2.20614,0-4,1.7939-4,4s1.79386,4,4,4,4-1.7939,4-4c0-1.5487-.884-2.8942-2.17409-3.5586l.5243-1.44189h4.82789l.7254,1.59519c-1.1412.7052-1.9025,1.9677-1.9025,3.4053,0,2.206,1.7927,4,4,4,2.2061,0,4-1.7939,4-4s-1.7939-4-4-4c-.4135,0-.8124.0629-1.1877.1798l-.7431-1.63422,1.8458-2.76872.5183-.77735H16.5zM14.001,15c0-1.0326.5243-1.9451,1.3209-2.4851l1.2239,2.6916.9104-.414-1.2245-2.6926c.2456-.0652.5034-.0999.7693-.0999,1.6538,0,3,1.3461,3,3s-1.3462,3-3,3c-1.6548,0-3-1.346-3-3zm-6.46008-2.9511L6.5301,14.8286l.9398.3418,1.0105-2.7789C9.38713,12.9082,10,13.8841,10,15c0,1.6539-1.34614,3-3,3s-3-1.3461-3-3,1.34614-3,3-3c.18462,0,.36541.0168.54092.0489zM7.2085,8h2.792V7h-2.792v1z"/></svg>