<svg width="24" height="24" xmlns="http://www.w3.org/2000/svg"><path fill-rule="evenodd" clip-rule="evenodd" d="m6.99902,2H21.999v3h-.998v17.001h-1V5H9v17.001H8V5H6.99902V2zm1,1v1H20.999V3H7.99902zM2,7h5v6H5v9H4v-9H2V7zm1,1v4h3V8H3zm12.5,0c-.2769,0-.5.22314-.5.5,0,.27618.2235.5.5.5.2759,0,.5-.22414.5-.5,0-.27653-.2238-.5-.5-.5zm-1.5.5c0-.82914.6709-1.5,1.5-1.5.8278,0,1.5.67053,1.5,1.5,0,.82814-.6719,1.5-1.5,1.5-.8295,0-1.5-.67218-1.5-1.5zm-.5,2.4995H13v6h1v5h3v-5h1v-6h-4.5zm1,5H14v-4h3v4h-1v5h-1v-5h-.5z"/></svg>