<svg width="36" height="36" xmlns="http://www.w3.org/2000/svg"><path fill-rule="evenodd" clip-rule="evenodd" d="m9.25,6.25049h9.7071l.1465.14644,7.5,7.49997.1464.1465v15.7071H9.25V6.25049zm1,1V28.7505h15.5v-14h-7.5V7.25049h-8zm9,.70711,5.7929,5.7929H19.25V7.9576zm-3.0257,6.134-.511-1.5323-.444,1.553-3,10.4925-.1823.6375h11.8032l-.1551-.6212-1.5-6.0075-.2743-1.0986-.6271.9429-2.4332,3.6582-2.6762-8.0245zM13.413,24.2423l2.3737-8.3021,2.489,7.4632.2797.8389H13.413zm9.1968,0h-3.9224l.4789-.7201,2.3729-3.5677,1.0706,4.2878z"/></svg>