<svg width="24" height="24" xmlns="http://www.w3.org/2000/svg"><path fill-rule="evenodd" clip-rule="evenodd" d="m22.5,0h-21C.675,0,0,.675,0,1.5v21c0,.825.675,1.5,1.5,1.5h21c.825,0,1.5-.675,1.5-1.5v-21c0-.825-.675-1.5-1.5-1.5z" fill="#237f52"/><path fill-rule="evenodd" clip-rule="evenodd" d="m6.18011,5.70002-.0075-2.6175,5.27999.0075.06,1.5225.96,1.065-6.29249.0225z" fill="#fff"/><path fill-rule="evenodd" clip-rule="evenodd" d="m8.82,9.63002c-2.5875,0-2.6325-3.3525-2.6325-3.39v-.0675l5.355-.0225v.075c-.0075.03-.1425,3.405-2.7225,3.405z" fill="#fff"/><path fill-rule="evenodd" clip-rule="evenodd" d="m12.09,20.985H5.65503V10.1625H19.845c.63,0,1.1475.5175,1.1475,1.1475s-.5175,1.1475-1.1475,1.1475H12.09v8.5275z" fill="#fff"/><path fill-rule="evenodd" clip-rule="evenodd" d="m5.11505,20.985h-2.1225v-8.1375c0-2.2125,2.0175-2.64,2.04-2.64l.0825-.015V20.985z" fill="#fff"/><path fill-rule="evenodd" clip-rule="evenodd" d="m14.4976,7.97252-.3825-.24.0825-.1275c.285-.42.4425-.9075.4425-1.41,0-.51-.1575-1.0125-.4575-1.44l-.09-.12.3825-.24.075.1125c.3525.5025.54,1.0875.54,1.6875,0,.5925-.18,1.17-.5175,1.6575l-.075.12z" fill="#fff"/><path fill-rule="evenodd" clip-rule="evenodd" d="m15.4051,8.45247-.3675-.2625.09-.12c.435-.5475.6675-1.2075.6675-1.8975,0-.6825-.225-1.335-.6525-1.8825l-.09-.12.3675-.2625.0825.105c.4875.6225.75,1.3725.75,2.1525,0,.7875-.2625,1.5375-.7575,2.1675l-.09.12z" fill="#fff"/><path fill-rule="evenodd" clip-rule="evenodd" d="m16.3576,8.91747-.36-.27.0975-.1125c.5625-.6675.8625-1.47.8625-2.325s-.315-1.695-.885-2.355l-.0975-.1125.36-.2775.09.105c.6375.7425.99,1.68.99,2.64s-.33,1.86-.96,2.61l-.0975.0975z" fill="#fff"/></svg>