<svg width="24" height="24" xmlns="http://www.w3.org/2000/svg"><path fill-rule="evenodd" clip-rule="evenodd" d="m6.02242,9c.06442-.71491.26565-1.39036.57729-2h1.67972c-.14677.6381-.23864,1.30824-.26863,2H6.02242zm1.9884,1h-1.9884c.06442.7149.26565,1.3904.57729,2h1.67983c-.1468-.6381-.2387-1.3082-.26872-2zm1.29764,2c-.16092-.6291-.26338-1.2999-.29662-2H11v2H9.30846zM12,12v-2h1.9882c-.0333.7001-.1357,1.3709-.2967,2H12zm-2.37407,1H11v1.9776c-.1012-.0091-.2016-.021-.3012-.0355-.4272-.5537-.79204-1.2093-1.07287-1.9421zM12,13v1.9776c.1012-.0091.2016-.021.3012-.0355.4272-.5537.792-1.2093,1.0729-1.9421H12zm0-6v2h1.9882c-.0332-.70013-.1356-1.37086-.2965-2H12zm-1,2V7H9.30834c-.16089.62914-.26331,1.29987-.29653,2H11zm2.3743-3H12V4.02242c.1014.00913.2019.02102.3016.03557.4271.55367.7919,1.20922,1.0727,1.94201zM11,6V4.02242c-.1014.00913-.2019.02102-.3016.03557C10.2713,4.61166,9.9065,5.26721,9.62574,6H11zm-2.43708,7H7.25716c.52956.6412,1.20166,1.1604,1.9678,1.5089-.25803-.4681-.48036-.9736-.66204-1.5089zm.66167-8.50873C8.45861,4.83981,7.78663,5.35889,7.25716,6h1.3056c.18162-.53527.40388-1.04063.66183-1.50873zM14.9892,9c-.03-.69176-.1219-1.3619-.2686-2h1.6797c.3116.60964.5129,1.28509.5773,2h-1.9884zm0,1c-.03.6918-.1219,1.3619-.2687,2h1.6798c.3116-.6096.5129-1.2851.5773-2h-1.9884zm-.5521,3c-.1817.5353-.404,1.0408-.6621,1.5089.7662-.3485,1.4383-.8677,1.9678-1.5089h-1.3057zM13.7754,4.49127c.258.46809.4802.97347.6618,1.50873h1.3056c-.5294-.64112-1.2014-1.16019-1.9674-1.50873zM11.5,3C7.91015,3,5,5.91015,5,9.5,5,13.0899,7.91015,16,11.5,16c3.5899,0,6.5-2.9101,6.5-6.5C18,5.91015,15.0899,3,11.5,3zM8,20H6c0,.5523.44771,1,1,1s1-.4477,1-1zm-3,0H4v-1H3v1H2v-3h1v1h1v-1h16v1h1v-1h1v3h-1v-1h-1v1h-1c0,1.1046-.8954,2-2,2s-2-.8954-2-2H9c0,1.1046-.89543,2-2,2s-2-.8954-2-2zm12,1c-.5523,0-1-.4477-1-1h2c0,.5523-.4477,1-1,1zM5,18v1h14v-1H5z"/></svg>