<svg width="36" height="36" xmlns="http://www.w3.org/2000/svg"><path fill-rule="evenodd" clip-rule="evenodd" d="m4.75,12.25h26.5v9.0088h1.7515v1H31.25V23.75h-3.026c.017.0822.026.1673.026.2544,0,.6901-.5599,1.25-1.25,1.25s-1.25-.5599-1.25-1.25c0-.0871.009-.1722.026-.2544H10.224c.017.0822.026.1673.026.2544,0,.6901-.55986,1.25-1.25,1.25s-1.25-.5599-1.25-1.25c0-.0871.00897-.1722.02603-.2544H4.75v-1.4912H2.99707v-1H4.75V12.25zm1,1v9.5h6.5v-9.5h-6.5zm7.5,0v9.5h9.5v-9.5h-9.5zm17,9.5h-6.5v-9.5h6.5v9.5zM9,23.7544c-.13721,0-.25.113-.25.25,0,.1379.11214.25.25.25s.25-.1121.25-.25c0-.137-.11279-.25-.25-.25zm17.75.25c0-.137.1128-.25.25-.25s.25.113.25.25c0,.1379-.1121.25-.25.25s-.25-.1121-.25-.25z"/></svg>