<svg width="59" height="20" xmlns="http://www.w3.org/2000/svg"><path fill-rule="evenodd" clip-rule="evenodd" d="m2,0C.89543,0,0,.895431,0,2v16c0,1.1046.895431,2,2,2h55c1.1046,0,2-.8954,2-2V2c0-1.104569-.8954-2-2-2H2z" fill="#eb0000"/><path fill-rule="evenodd" clip-rule="evenodd" d="m9.85575,9.60503h5.17315l-1.041,4.97707c-.6987.4359-1.4535.774-2.2435,1.0049-.8772.2729-1.79037.4117-2.70878.4114-1.42997,0-2.52611-.3244-3.2884-.9732-1.04094-.8863-1.56141-2.1707-1.56141-3.8535-.0026-1.1162.22564-2.22091.6703-3.24414.47198-1.16411,1.26537-2.16882,2.2869-2.89601,1.02729-.69757,2.24547-1.05708,3.48559-1.02864,1.3353,0,2.4065.31123,3.2135.93368.807.62246,1.3419,1.52977,1.6047,2.72194l-2.2159.2532c-.1477-.58191-.4781-1.10068-.9424-1.47965-.4744-.34526-1.0506-.52079-1.6363-.4985-1.60262-.02651-3.05.9575-3.61959,2.46082-.36857.86765-.55384,1.8026-.54412,2.7457,0,.9759.2208,1.6972.66241,2.1641.44161.4668,1.08825.7002,1.93992.7002.53037-.0028,1.05808-.0759,1.56928-.2176.4794-.1236.9446-.2973,1.3879-.5182l.3549-1.725H9.45357l.40218-1.93857zm5.60245,6.19557,2.4131-11.59988h8.5719l-.4022,1.93859h-6.1904l-.552,2.6349h5.9854l-.4022,1.93859h-5.9854l-.7255,3.1492h6.7267l-.4101,1.9386h-9.0293zM24.5541,15.8006h3.0755l1.5929-1.8041c.5606-.6162,1.0896-1.2606,1.5851-1.9306.1472.4009.4468,1.0629.8989,1.986l.8675,1.7487h2.6812l-2.8468-5.4913,5.2914-6.10858h-2.9887l-1.8217,2.06519c-.4363.50113-.9752,1.14469-1.6166,1.93068-.029-.0736-.0632-.145-.1025-.21364-.4784-.99171-.736-1.52713-.7728-1.60626l-1.1277-2.17597h-2.484l2.8704,5.72873-5.1021,5.87115z" fill="#fff"/></svg>