<svg width="24" height="24" xmlns="http://www.w3.org/2000/svg"><path fill-rule="evenodd" clip-rule="evenodd" d="m11.9999,7V2h-1v5h1zm6.808-1.22865c-.5851-.58511-1.535-.58666-2.1208-.00226l-5.6859,5.54411.0012-1.81097V9.5019c0-.82982-.6715-1.502-1.501-1.502-.41662,0-.76151.16002-1.01778.43866-.2387.25955-.378.59661-.46558.93155L6.01866,16.3624l-.07823.2736.19528.207,4.95499,5.252.2051.2174.2887-.0777-.1301-.4828c.1301.4828.1303.4827.1305.4827l.0004-.0001.001-.0003.0025-.0007.0069-.0019.0213-.0062c.0174-.0052.0414-.0126.0716-.0224.0603-.0197.1453-.0493.2522-.0911.2138-.0835.5153-.2157.8821-.4146.734-.3981,1.728-1.0628,2.803-2.1378,1.0384-1.0384,1.6573-1.6563,2.0164-2.0144.1796-.1791.2942-.2932.3639-.3625l.0732-.0728.016-.0159.0037-.0036.0024-.0024c.5871-.5856.5865-1.5375.0004-2.1236-.1382-.1382-.2967-.2438-.466-.3169.3284-.5734.2483-1.3176-.2405-1.8076l-.0009-.0009c-.1376-.1372-.2951-.2423-.4633-.3153.3246-.5726.2433-1.3134-.2438-1.8018l-.0009-.0009c-.1239-.1236-.264-.2211-.4134-.2925l2.5348-2.53388v-.00007c.5863-.58626.5863-1.53684,0-2.1231zM12.3461,20.8183c-.3167.1717-.5733.2848-.7504.3548l-4.53734-4.8093,1.92277-6.72444.00014.00004.00308-.01185c.06751-.26004.15198-.42144.23532-.51206.06724-.07311.14534-.11559.28173-.11559.27642,0,.5008.22364.501.50167v.00033l-.002,2.9977-.0008,1.187.8499-.8287,6.538-6.37501v.00003l.0049-.00492c.1944-.19488.5125-.19554.7084.00045.1958.19574.1958.51316,0,.7089l-3.4827,3.48145c-.0188.017-.0372.0345-.0553.0525l-.0002.0002-1.7707,1.7728-.0003.0002.7073.707.0002-.0002,1.8032-1.8025c.1966-.1652.491-.156.6776.0297.1947.1957.1947.5131,0,.7088l-.0005.0005-.6368.6343c-.0245.0215-.0484.0439-.0718.0672l.0021.0021-1.0634,1.0592.7057.7086,1.1044-1.1001c.1965-.1572.4846-.1454.6683.0374.1948.1958.1947.5135-.0004.7092l-.0001.0001-1.0619,1.0609-.0002.0001-.0003.0004.7064.7078.0004-.0004.3536-.3526.001-.001c.1944-.1949.5125-.1955.7084.0005.196.1959.1954.514.0005.7084l-.0039.0039-.0165.0163-.0739.0735c-.0701.0696-.185.1841-.3648.3634-.3596.3586-.9788.9767-2.0174,2.0153-1.0019,1.002-1.9169,1.6103-2.5727,1.966zm4.0698-17.54095-2,3-.832-.5547,2-3,.832.5547zm-6.99999,2.4453-2-3-.83205.5547,2,3,.83205-.5547z"/></svg>