<svg width="24" height="24" xmlns="http://www.w3.org/2000/svg"><path fill-rule="evenodd" clip-rule="evenodd" d="m16.0001,3H2.00005V2H16.0001v1zm3.1082,2.28533c-.4189-.66473-.7846-1.07409-1.418-1.22544-.2802-.06693-.5896-.07762-.9266-.07641-.1468.00053-.3079.00353-.481.00676l-.0885.00165c-.2085.00381-.438.00753-.6945.00789h-2.4996V10h-1V4H2.00005v1h9.00005v7H6.00005v1h6.00005v-1h1v.9998h6c1.3145.0006,2.2941-.4222,2.7369-1.2545.4356-.8186.236-1.8212-.3096-2.71939V9.0259l-.0024-.00387-2.3147-3.73357-.002-.00313zm-3.6075-.28555c.2653-.00037.5016-.00421.7117-.00806l.0901-.00167c.1737-.00324.326-.00608.4647-.00658.3303-.00118.5359.01208.6905.04904.236.05639.4189.17444.8035.78446l2.3125,3.72997c.4534.74716.481,1.35166.2804,1.72866-.1934.3635-.7137.7248-1.8539.7242h-5.0002V4.99978h1.5007zM15.0001,6h2.2311l.1403.268,1.5715,3,.3834.732h-4.3263V6zm1,1v2h1.6736l-1.0476-2h-.626zM4.42459,13.3188l3.58275,2.5028c.03483-.424.19468-.8483.49399-1.185C8.85086,14.2434,9.36437,14,10.0001,14h2.1178l.0084.0003c1.6425.0555,3.2003.9366,4.3907,2.0741l.0004.0004,5.3271,5.0628.9074.8624h-9.2078l-.1462-.145L12.5363,21H8.61124l-.14169-.1248L2.5514,15.662c-.63733-.5202-.73708-1.458-.22119-2.1008.5147-.6414,1.44874-.748,2.09438-.2424zm4.13869,4.111L3.83962,14.13l-.01364-.0095-.01297-.0104c-.21536-.1729-.53007-.1384-.7029.077-.17284.2153-.13837.53.07699.7029l.00894.0072.00861.0075L8.98887,20h3.95933l.1462.1451L13.956,21h6.2921l-4.4206-4.2013-.001-.001C14.746,15.7651,13.4132,15.0472,12.1007,15h-2.1006c-.36438,0-.60089.1317-.75136.301-.15866.1785-.24871.4306-.24871.699,0,.2685.09005.5206.24871.6991.15047.1693.38698.3009.75136.3009H12l.0001.5L12,18h-1.9999c-.59916,0-1.08974-.2161-1.43682-.5702z"/></svg>