<svg width="24" height="24" xmlns="http://www.w3.org/2000/svg"><path fill-rule="evenodd" clip-rule="evenodd" d="m22.5,0h-21C.675,0,0,.675,0,1.5v21c0,.825.675,1.5,1.5,1.5h21c.825,0,1.5-.675,1.5-1.5v-21c0-.825-.675-1.5-1.5-1.5z" fill="#2d327d"/><path fill-rule="evenodd" clip-rule="evenodd" d="m9.01501,6.46489,1.64249-1.6425-1.88249-1.8825c-.0675-.0675-.165-.1125-.2625-.1125s-.195.0375-.27.1125l-1.1175,1.11c-.0675.0675-.1125.165-.1125.2625s.0375.195.1125.2625l1.89,1.89z" fill="#fff"/><path fill-rule="evenodd" clip-rule="evenodd" d="m12.75,7.49989-1.8525-1.86L9.84,6.70489l.795.795h-3.51c-1.035,0-1.875.84-1.875,1.875v1.12501h1.5V9.37489c0-.2025.1725-.375.375-.375H16.5v-1.5h-3.75z" fill="#fff"/><path fill-rule="evenodd" clip-rule="evenodd" d="m8.7375,12h-5.475C3.12,12,3,12.12,3,12.2625V19.5c0,.825.675,1.5,1.5,1.5h3c.825,0,1.5-.675,1.5-1.5v-7.2375C9,12.12,8.88,12,8.7375,12zm-.4125,3.6c-.36.1725-.7575.2625-1.1625.2625S6.36,15.7725,6,15.6s-.7575-.2625-1.1625-.2625-.8025.09-1.1625.2625v-.75c.36-.1725.7575-.2625,1.1625-.2625s.8025.09,1.1625.2625.7575.2625,1.1625.2625.8025-.09,1.1625-.2625v.75zm-1.1625-1.1625c.405,0,.8025-.09,1.1625-.2625v-.75c-.36.1725-.7575.2625-1.1625.2625S6.36,13.5975,6,13.425s-.7575-.2625-1.1625-.2625-.8025.09-1.1625.2625v.75c.36-.1725.7575-.2625,1.1625-.2625s.8025.09,1.1625.2625.7575.2625,1.1625.2625z" fill="#fff"/></svg>