<svg width="59" height="20" xmlns="http://www.w3.org/2000/svg"><path fill-rule="evenodd" clip-rule="evenodd" d="m2,0C.89543,0,0,.895431,0,2v16c0,1.1046.895431,2,2,2h55c1.1046,0,2-.8954,2-2V2c0-1.104569-.8954-2-2-2H2z" fill="#eb0000"/><path d="m44.6652,13.7433V15.8h-8.3013c-.0027-.6116.1-1.2191.3036-1.7956.1862-.5419.4768-1.0418.8553-1.4712.3054-.3366.639-.6463.9972-.9256.381-.3006,1.1392-.8517,2.2744-1.65316.4476-.28587.8401-.65028,1.1589-1.07578.2238-.3427.3392-.74524.3311-1.15488.0196-.45301-.1406-.89533-.4454-1.23008-.3054-.31734-.7314-.48862-1.1707-.47071-1.1878,0-1.8001.85697-1.8368,2.5709h-2.2153v-.25312c0-1.40273.3916-2.48906,1.1746-3.25898.762-.74883,1.7474-1.12325,2.9563-1.12325.9776-.03274,1.9334.29352,2.6883.91758.7831.66446,1.1746,1.55827,1.1746,2.68145.018.93249-.3173,1.83711-.9381,2.53123-.1747.203-.3673.3896-.5755.5576-.1787.1399-.6491.4761-1.4111,1.0086-.7253.5063-1.2443.8939-1.5571,1.1629-.3211.2778-.6129.5879-.871.9254h5.408zm8.6954-9.50795v1.96172c-.063.06855-.2496.28216-.5597.64082-.4889.5794-.9194,1.20604-1.285,1.8707-.3971.68878-.7296,1.41301-.9933,2.16351-.5281,1.5926-.8332,3.2511-.9066,4.9279h-2.3808c.0325-.98.1848-1.9523.4532-2.8951.2991-1.0937.6962-2.1581,1.1865-3.1799.7201-1.49766,1.4506-2.61296,2.1916-3.3459H45.627V4.23535h7.7336zm-44.14065-.0354h4.05625L8.25821,15.8h-4.073L9.21995,4.19995zM25.9805,12.3662c.3666,0,.6985-.2172.8463-.5537l3.2923-7.61255h-14.135L10.9661,15.8h4.0383l3.7988-8.69045h5.9937l-1.2014,2.77546-5.2259-.01902L22.5865,15.8h4.5973l-3.1239-3.4338h1.9206z" fill="#fff"/></svg>