<svg width="48" height="48" xmlns="http://www.w3.org/2000/svg"><path fill-rule="evenodd" clip-rule="evenodd" d="m21.4999,5.66699.4.53303L30.9059,18.2l-.6235.7474-.2764-.1382v2.8096l-.0533.106L29,23.6188v4.1546l11.9678-.7722.0644.9979-30.7336,1.9831-2.38178,3.9632L40.9707,32.001l.0587.9983L8.50003,34.9128v2.0561l32.46977-1.9678.0605.9981-3.0283.1836v2.8173h-1v-2.7567l-13.001.7879v2.9684h-1v-2.9078L10,37.8799V41h-.99997v-3.0595l-.96975.0587-.53025.0322v-3.0598l-.47063.0277-.94615.0556.48823-.8123,3.005-5,.13494-.2245.26142-.0169,4.03256-.2602v-5.1234l-.952-1.8928L13,21.6188v-2.8096l-.2764.1382-.6236-.7473,9-11.99995.3999-.53316zM15.0054,28.6765l1.0006-.0646v-4.9714l-1.0006.2502v4.7858zm2.0006-.1291L21,28.2896v-4.7895h-3.994v5.0473zM22,28.2251l4-.2581v-4.4669h-4v4.725zm5-.3226,1-.0645v-3.9475l-1-.25v4.262zm.1782-5.2482,1.0549.2637.6088-1.2101-1.0687-.5322-.595,1.4786zm-.3828-1.7276-.6331,1.5734H22v-1.9713l4.7954.3979zm1.2106-.7522,1,.498v-2.3633l-1-.5v2.3653zm-1-2.8653v2.6316L22,19.5254V16.552l4.3647.4365.6413.3207zM21,22.5001v-1.9709l-4.7893.3975.6331,1.5734H21zm0-2.9743v-2.9732l-4.3587.4359L16,17.3092v2.6316l5-.415zm-7-1.2166,1-.5v2.3652l-1,.498v-2.3632zm.1642,3.3986,1.0687-.5322.595,1.4787-1.055.2637-.6087-1.2102zm7.336-14.3745-7.3293,9.7724,2.1055-1.0528.0823-.0411.0916-.0092,5-.5.0248-.0025h.0559l.0248.0025,5,.5.0915.0092.0823.0411,2.1043,1.0521-7.3337-9.7717z"/></svg>