<svg width="36" height="36" xmlns="http://www.w3.org/2000/svg"><path fill-rule="evenodd" clip-rule="evenodd" d="m5.75,12.7495c0-1.3798,1.12014-2.5,2.5-2.5h19.5c1.3799,0,2.5,1.1202,2.5,2.5v10.5c0,1.3799-1.1201,2.5-2.5,2.5H8.25c-1.37986,0-2.5-1.1201-2.5-2.5v-10.5zm2.5-3.49999c-1.93214,0-3.5,1.56789-3.5,3.49999v10.5c0,1.9322,1.56786,3.5,3.5,3.5h19.5c1.9321,0,3.5-1.5678,3.5-3.5v-10.5c0-1.9321-1.5679-3.49999-3.5-3.49999H8.25zm17,4.25149v1.75H27v1h-1.75v1.75h-1v-1.75H22.5v-1h1.75v-1.75h1zm-12.5,4.7492c-1.3799,0-2.5-1.1201-2.5-2.5,0-1.3812,1.12-2.5,2.5-2.5s2.5,1.1188,2.5,2.5c0,1.3799-1.1201,2.5-2.5,2.5zm2.1711.2449c.8094-.6412,1.3289-1.6327,1.3289-2.7449,0-1.9338-1.568-3.5-3.5-3.5s-3.5,1.5662-3.5,3.5c0,1.1128.52,2.1047,1.3301,2.7459-.8566.4113-1.53236.9646-2.00961,1.6814-.56354.8465-.82049,1.8763-.82049,3.0727v.5h10v-.5c0-1.1963-.2569-2.2279-.8203-3.0752-.4769-.7173-1.1522-1.2707-2.0086-1.6799zm-2.1711.7551h-1.404c-.8988.3658-1.52958.8603-1.94311,1.4815-.35746.5369-.57354,1.2-.63481,2.0185h7.96382c-.0612-.8192-.2774-1.4838-.635-2.0216-.4135-.6219-1.0441-1.1162-1.942-1.4784H12.75z"/></svg>