<svg width="24" height="24" xmlns="http://www.w3.org/2000/svg"><path fill-rule="evenodd" clip-rule="evenodd" d="m7.9976,5.5c-.27618,0-.5.22347-.5.5,0,.27586.22414.5.5.5s.5-.22414.5-.5c0-.27653-.22382-.5-.5-.5zm-1.5.5c0-.82947.67218-1.5,1.5-1.5s1.5.67053,1.5,1.5c0,.82814-.67186,1.5-1.5,1.5s-1.5-.67186-1.5-1.5zm6.7436.52649C13.8151,5.8584,14.6402,5.5,15.5,5.5h3c1.6553,0,3,1.34599,3,3,0,1.654-1.3447,3-3,3h-1.6391l-6.1018,6.9732C10.1859,19.1419,9.35948,19.5,8.5,19.5h-4c-1.65414,0-3-1.3459-3-3,0-1.6553,1.34599-3,3-3h1.9981V8.4995h3v2.3039l3.7431-4.27691zM8.4981,11.9461V9.4995h-1v3.5892l1-1.1426zM15.5,6.5c-.5813,0-1.1254.24087-1.5014.67945l-.0033.00386v-.00002L7.74126,14.3293,7.59185,14.5H4.5c-1.10199,0-2,.8973-2,2,0,1.1019.89814,2,2,2h4c.58159,0,1.12635-.2411,1.5011-.6791l.0036-.0042,6.253-7.146.1494-.1707H18.5c1.1027,0,2-.89801,2-2s-.8973-2-2-2h-3z"/></svg>