<svg width="36" height="36" xmlns="http://www.w3.org/2000/svg"><path fill-rule="evenodd" clip-rule="evenodd" d="m7.75,13.5091C7.75,7.84362,12.3386,3.25,18,3.25s10.25,4.59362,10.25,10.2591v.0045c-.0153,1.7064-.5519,3.224-1.3675,4.6538l-.0046.0079-.0048.0078-8.4205,13.5804-.4249.6853-.4249-.6853L9.1823,18.1831l-.00407-.0066h.00005c-.83215-1.3895-1.35873-2.8777-1.4279-4.6478L7.75,13.5189v-.0098zm1.00001-.0097c.0631,1.5717.52702,2.8947,1.28419,4.16l7.9935,12.8918,7.9906-12.8872c.754-1.3237,1.218-2.671,1.2317-4.1572C27.2487,8.39375,23.1074,4.25,18,4.25c-5.1049,0-9.24472,4.13974-9.24999,9.2494zM18,13.8674c-.1118,0-.2024.0906-.2024.2024s.0906.2024.2024.2024.2024-.0906.2024-.2024-.0906-.2024-.2024-.2024zm-1.2024.2024c0-.664.5383-1.2024,1.2024-1.2024.664,0,1.2024.5384,1.2024,1.2024,0,.6641-.5384,1.2024-1.2024,1.2024-.6641,0-1.2024-.5383-1.2024-1.2024zM16.5,9.25h-.309l-.1382.27639L15.441,10.75H12.25v7h11.5v-7h-3.191l-.6118-1.22361L19.809,9.25H16.5zm-.3028,2.2236.6118-1.2236h2.382l.75,1.5h2.809v5h-9.5v-5h2.809l.1382-.2764z"/></svg>