<svg width="24" height="24" xmlns="http://www.w3.org/2000/svg"><path fill-rule="evenodd" clip-rule="evenodd" d="m16.501,2.99976c-.7305,0-1.5.78522-1.5,2,0,1.21477.7695,2,1.5,2,.7296,0,1.5-.7854,1.5-2s-.7704-2-1.5-2zm-2.5,2c0-1.54723,1.0205-3,2.5-3,1.4784,0,2.5,1.4526,2.5,3,0,.61393-.1608,1.21295-.4472,1.71224,1.4981,1.09828,2.4472,3.3257,2.4472,5.7874v.5H12v-.5c0-2.4617.9499-4.68897,2.448-5.78724-.2863-.49935-.447-1.09844-.447-1.7124zm2.5,3c.5408,0,1.0205-.1944,1.4114-.51671,1.095.77362,1.9541,2.44195,2.0742,4.51635h-6.9722c.1202-2.07412.9799-3.74242,2.0749-4.51617.3909.3222.8706.51653,1.4117.51653zM3.49951,2.00024h-.5v7h8.99999v-2.9196l.8236-.69924.4136-.35111-.3836-.3836-.8536-.85355v-1.7929H3.49951zm.5,6v-5h6.99999v1.20711l.1465.14645.6164.61639-.5865.4979-.1764.14976v2.38239H3.99951zm6.00001-4.02099h-5.021v1h5.021v-1zm-5.021,2h3.021v1h-3.021v-1zM12,20.4994c0-2.4617-.9491-4.6891-2.44716-5.7874C9.83919,14.2127,10,13.6137,10,13.0002c0-1.5474-1.02162-3-2.5-3s-2.5,1.4526-2.5,3c0,.6136.16084,1.2126.44726,1.712C3.94925,15.8109,3,18.0374,3,20.4994v.5h9v-.5zm-1.0144-.5c-.1201-2.0743-.9792-3.7426-2.07402-4.5162-.39093.3225-.87067.517-1.41158.517-.54085,0-1.02054-.1945-1.41145-.5169-1.09507.7743-1.95402,2.442-2.07416,4.5161h6.97121zM7.5,11.0002c-.72962,0-1.5.7854-1.5,2,0,1.2138.77049,2,1.5,2s1.5-.7862,1.5-2c0-1.2146-.77038-2-1.5-2zM18,9.68724l-1-.937h.75L19,10.0002l-1.25,1.25H17l1-.938h-1.187v.938h-.625v-.938H15l1,.938h-.75l-1.25-1.25,1.25-1.24996H16l-1,.937h1.188v-.937h.625v.937H18z"/></svg>