<svg width="36" height="36" xmlns="http://www.w3.org/2000/svg"><path fill-rule="evenodd" clip-rule="evenodd" d="m8.25,3.24854h-.5V6.2795c-1.11769.15076-2.08847.86876-2.55156,1.90766-.36408.81417-.68718,1.44812-.96738,1.99794h-.00002c-.14112.2769-.27136.5324-.39047.7789-.34456.7129-.59057,1.3408-.59057,2.0485v16.689c0,1.6898,1.38704,3.0485,3.086,3.0485h6.828c1.6973,0,3.086-1.3585,3.086-3.0485v-16.689c0-.7077-.246-1.3356-.5906-2.0485-.1191-.2465-.2493-.502-.3904-.7789-.2803-.54985-.6034-1.18388-.9676-1.9982-.4642-1.03829-1.4336-1.75659-2.5514-1.9074V3.24854h-3.5zM5.19844,8.18716l.00012-.00026.45644.2041-.45671-.20352.00015-.00032zm2.9789-.93713h3.14536c.8981.00494,1.7038.53533,2.0659,1.34506v.00001c.373.83426.7218,1.5192,1.0082,2.0816v.0001c.1362.2675.2584.5073.3623.7223.3334.69.4909,1.1451.4909,1.6134v16.689c0,1.124-.9273,2.0485-2.086,2.0485H6.336c-1.16004,0-2.086-.9243-2.086-2.0485V28.25h6v-13h-6v-2.2375c0-.4683.15749-.9234.49093-1.6134.10391-.215.22604-.4548.36229-.7224.2864-.5624.63518-1.24735,1.00822-2.0816l.00027-.00058c.36043-.80884,1.16707-1.33954,2.06563-1.34449zM10.75,6.25V4.24854h-2V6.25h2zm-6.5,21v-11h5v11h-5zm18.2556-7.5002c.4731.0004.8288.051,1.123.1375.2973.0873.5094.2053.681.3026l.0136.0077c.1643.0931.2793.1583.4369.2091.07.0225.1524.0433.2533.0595.1224-2.3367,1.047-3.6621,2.0422-4.3927.5223-.3834,1.0437-.5879,1.4349-.6968.196-.0546.3612-.0857.4803-.1033.0596-.0089.1079-.0144.143-.0178.0085-.0008.0162-.0015.0232-.0021.0073-.0006.0138-.0011.0194-.0015l.0135-.0009.0047-.0003.0019-.0001h.0008c.0003,0,.0007-.0001.026.4993.0252.4994.0256.4993.0259.4993h.0013l.0008-.0001s-.0008.0001-.0024.0002l-.0194.0016c-.0191.0019-.0504.0054-.092.0115-.0835.0124-.2076.0355-.3588.0776-.3032.0844-.7078.2433-1.1113.5395-.7219.5299-1.5129,1.5525-1.6322,3.5817.0879-.0153.1613-.0342.2244-.0546.1574-.0507.2722-.1158.4362-.2089l.014-.0079c.1715-.0973.3836-.2153.681-.3026.2943-.0865.6502-.1371,1.1236-.1375.6684-.0147,1.7714-.0283,2.6912.6713.9464.7198,1.5644,2.0777,1.5644,4.4727,0,2.2242-.3697,4.1482-1.067,5.536-.6983,1.3897-1.7754,2.32-3.183,2.32h-.0094v-.0001c-.9204-.0172-1.5058-.2155-1.9728-.4116-.0846-.0356-.1611-.0687-.2316-.0992l-.0006-.0003c-.3196-.1384-.5159-.2234-.7856-.2382-.2697.0148-.466.0998-.7856.2382l-.0006.0003c-.0705.0305-.147.0636-.2316.0992-.467.1961-1.0524.3944-1.9728.4116l-.0094.0002v-.0001c-1.4076,0-2.4847-.9303-3.183-2.32-.6973-1.3878-1.067-3.3118-1.067-5.536,0-2.3949.6175-3.7528,1.5638-4.4727.9197-.6996,2.0227-.686,2.6918-.6713zm-2.0864,1.4672c-.5897.4487-1.1692,1.4277-1.1692,3.6768,0,2.1318.3571,3.8859.9606,5.087.6016,1.1973,1.3978,1.7671,2.2849,1.769.7581-.0148,1.2156-.1725,1.5994-.3337.0577-.0242.117-.0503.1781-.0773.3344-.1473.7236-.3187,1.2065-.3385l.0205-.0009.0205.0009c.4829.0198.8721.1912,1.2065.3385.0611.027.1204.0531.1781.0773.3838.1612.8413.3189,1.5994.3337.8871-.0019,1.6833-.5717,2.2849-1.769.6035-1.2011.9606-2.9552.9606-5.087,0-2.249-.5798-3.228-1.1697-3.6767-.6141-.4671-1.3826-.4826-2.0692-.4674L28.5,20.75v-.0002c-.405,0-.6641.0431-.8474.097-.1814.0532-.3105.1228-.4695.2129l-.0301.0172c-.1544.0878-.3492.1987-.6067.2816-.2778.0896-.6077.1413-1.0463.1413s-.7686-.0517-1.0464-.1412c-.2578-.083-.4526-.1939-.6072-.2817l-.03-.0171c-.1591-.0902-.2883-.1598-.4697-.2131-.1833-.0538-.4421-.0969-.8467-.0969h-.0111v-.0001c-.6874-.0152-1.4558.0004-2.0697.4673z"/></svg>