<svg width="24" height="24" xmlns="http://www.w3.org/2000/svg"><path fill-rule="evenodd" clip-rule="evenodd" d="m7.00002,6.00049c-2.20914,0-4,1.79086-4,4.00001,0,1.93,1.36696,3.5408,3.18554,3.917L2.5659,20.2519,2.13843,21H21.8531l-.4168-.7443-7-12.5-.4077-.72795-.4497.70272-2.5075,3.91793-.2935-.3425c.1418-.4074.2221-.8459.2221-1.3054,0-2.20925-1.79193-4.00001-3.99998-4.00001zM9.97651,10.371c.01548-.1215.02349-.2451.02349-.3705,0-1.65678-1.34403-3.00001-2.99998-3.00001-1.65686,0-3,1.34314-3,3.00001,0,1.5614,1.1929,2.8443,2.71708,2.9868l1.8488-3.23537.35201-.61602.46174.53869.59686.6964zM5.72639,20l4.78201-7.4719-1.42627-1.664L3.86161,20h1.86478zM20.147,20H6.91365l4.05045-6.3289.9371.9371,2-1,.7452.7452.2886.2885.3405-.2249,1.2738-.8413L20.147,20zM13.9714,8.97225,11.516,12.8088l.5827.5826,2-1,.2548.2549.7114.7114.9945-.6569-2.088-3.72855z"/></svg>