<svg width="48" height="48" xmlns="http://www.w3.org/2000/svg"><path fill-rule="evenodd" clip-rule="evenodd" d="m9.5,8c0-1.42386,1.0761-2.5,2.5-2.5s2.5,1.07614,2.5,2.5-1.0761,2.5-2.5,2.5S9.5,9.42386,9.5,8zM12,4.5c-1.9761,0-3.5,1.52386-3.5,3.5s1.5239,3.5,3.5,3.5c.6806,0,1.3076-.1808,1.8371-.4985l5.2933,7.2708C17.5151,19.6386,16.5,21.6848,16.5,24c0,1.9284.7043,3.6723,1.8733,4.9922l-4.5661,4.4538c-.7652-.5958-1.7369-.9459-2.8074-.9459-2.53353,0-4.50004,1.9612-4.50004,4.496,0,2.5346,1.96528,4.504,4.50004,4.504,2.5338,0,4.512-1.9675,4.512-4.504,0-1.0943-.3684-2.0811-.9906-2.8496l4.5642-4.452C20.3957,30.8229,22.1092,31.5,24,31.5c2.8638,0,5.322-1.5534,6.5881-3.8755l4.1396,1.9164c-.1481.4546-.2277.9448-.2277,1.4591,0,2.5471,1.9529,4.5,4.5,4.5s4.5-1.9529,4.5-4.5-1.9529-4.5-4.5-4.5c-1.668,0-3.0811.8374-3.8579,2.1307l-4.1356-1.9145c.3204-.8398.4955-1.7551.4955-2.7162,0-1.4989-.4257-2.8851-1.1645-4.047l5.096-3.5494c.6344.6784,1.5422,1.0964,2.566,1.0964,1.9601,0,3.519-1.5328,3.519-3.5,0-1.965-1.5567-3.51-3.519-3.51-1.9653,0-3.5,1.549-3.5,3.51,0,.5726.1308,1.1089.3647,1.5815l-5.1192,3.5656C28.3754,17.5265,26.3207,16.509,24,16.509c-1.5049,0-2.8976.4279-4.0642,1.1706l-5.3251-7.3145C15.1671,9.74844,15.5,8.92362,15.5,8c0-1.97614-1.5239-3.5-3.5-3.5zm25.9995,6.99c-1.4087,0-2.5,1.0969-2.5,2.51,0,1.4108,1.0892,2.5,2.5,2.5,1.4159,0,2.519-1.0932,2.519-2.5,0-1.409-1.1053-2.51-2.519-2.51zM24,17.509c-3.6327,0-6.5,2.86-6.5,6.491,0,3.6319,2.8681,6.5,6.5,6.5,3.632,0,6.502-2.8683,6.502-6.5,0-3.6308-2.8691-6.491-6.502-6.491zM35.5,31c0-1.9949,1.5051-3.5,3.5-3.5s3.5,1.5051,3.5,3.5-1.5051,3.5-3.5,3.5-3.5-1.5051-3.5-3.5zm-24.5002,2.5001c-1.98256,0-3.50004,1.5148-3.50004,3.496,0,1.9835,1.51871,3.504,3.50004,3.504,1.9841,0,3.512-1.5224,3.512-3.504,0-1.9793-1.5266-3.496-3.512-3.496z"/></svg>