<svg width="24" height="24" xmlns="http://www.w3.org/2000/svg"><path fill-rule="evenodd" clip-rule="evenodd" d="m22.5,0h-21C.675,0,0,.675,0,1.5v21c0,.825.675,1.5,1.5,1.5h21c.825,0,1.5-.675,1.5-1.5v-21c0-.825-.675-1.5-1.5-1.5z" fill="#2d327d"/><path fill-rule="evenodd" clip-rule="evenodd" d="m10.125,6.18752-.75-.75-.75.75h-1.29c-.36.795-1.155,1.35-2.085,1.35-1.26,0-2.2875-1.0275-2.2875-2.2875S3.99,2.96252,5.25,2.96252c.93,0,1.725.555,2.085,1.35h4.29l.9375.9375-.9375.9375-.75-.75-.75.75zm-6.75-.9375c0,.4125.3375.75.75.75s.75-.3375.75-.75-.3375-.75-.75-.75-.75.3375-.75.75z" fill="#fff"/><path fill-rule="evenodd" clip-rule="evenodd" d="m21,12.4875V11.25l-9-4.125L3,11.25v1.2375l9-4.125,9,4.125z" fill="#fff"/><path fill-rule="evenodd" clip-rule="evenodd" d="m10.26,12.945-1.5825.555c-.0375.015-.075.015-.105.015-.1125,0-.21-.0525-.27-.1425l-.3525-.525c-.03-.045-.045-.0975-.045-.1425,0-.1425.12-.2625.2625-.2625h2.0175c.1425,0,.2625.12.2625.2625-.0075.105-.0825.2025-.1875.24z" fill="#fff"/><path fill-rule="evenodd" clip-rule="evenodd" d="m15.81,12.96h-2.295v-.525h2.295c.1425,0,.2625.12.2625.2625-.0075.1425-.12.2625-.2625.2625z" fill="#fff"/><path fill-rule="evenodd" clip-rule="evenodd" d="m15.81,13.815h-.33c-.1425,0-.2625-.12-.2625-.2625s.12-.2625.2625-.2625h.33c.1425,0,.2625.12.2625.2625-.0075.1425-.12.2625-.2625.2625z" fill="#fff"/><path fill-rule="evenodd" clip-rule="evenodd" d="m4.125,17.7825c0-1.7775,1.44-3.2175,3.2175-3.2175.51,0,1.0125.1275,1.4775.36l.63-1.0125h5.115l.63,1.0125c.4575-.2325.96-.3525,1.47-.3525,1.7775,0,3.2175,1.44,3.2175,3.2175s-1.44,3.2175-3.2175,3.2175-3.2175-1.44-3.2175-3.2175c0-1.0125.48-1.9725,1.2975-2.58l-.3525-.57-1.7175,2.5575c.1125.15.18.33.18.525,0,.4725-.3825.855-.855.855-.33,0-.63-.195-.7725-.495h-.6825C10.395,19.7325,9.0075,21,7.3425,21,5.565,21,4.125,19.56,4.125,17.7825zm10.8975-2.1375c-.66.51-1.05,1.2975-1.05,2.1375,0,1.485,1.2,2.6925,2.685,2.7,1.485,0,2.6925-1.2075,2.6925-2.6925s-1.2075-2.6925-2.6925-2.6925c-.4125,0-.825.0975-1.1925.2775l1.425,2.265c.0225.045.0375.09.0375.1425,0,.1425-.12.2625-.2625.2625-.09,0-.18-.0525-.225-.1275l-1.4175-2.2725zm-3.255,1.2525-1.6575-2.46h3.78l-1.6575,2.46c-.075-.0225-.1575-.03-.2325-.03-.0825,0-.1575.0075-.2325.03zm-2.5125-1.695c.75.5625,1.2225,1.4175,1.29,2.355V17.55h.615c.0225-.1275.0825-.255.165-.36l-1.7175-2.5575-.3525.57zm-.2775.45c.6.4575.9825,1.155,1.0425,1.905H7.7925l1.185-1.905zm-4.3275,2.13c0,1.485,1.2075,2.6925,2.6925,2.6925,1.3725,0,2.52-1.035,2.6775-2.4H7.7775c-.0975.15-.2625.2325-.435.2325-.2925,0-.525-.2325-.525-.525s.2325-.525.525-.525h.015l1.1775-1.89c-.3675-.18-.78-.2775-1.1925-.2775-1.485,0-2.6925,1.2075-2.6925,2.6925z" fill="#fff"/></svg>