<svg width="24" height="24" xmlns="http://www.w3.org/2000/svg"><path fill-rule="evenodd" clip-rule="evenodd" d="m22.5,0h-21C.675,0,0,.675,0,1.5v21c0,.825.675,1.5,1.5,1.5h21c.825,0,1.5-.675,1.5-1.5v-21c0-.825-.675-1.5-1.5-1.5z" fill="#2d327d"/><path fill-rule="evenodd" clip-rule="evenodd" d="m10.125,6.18752-.75-.75-.75.75h-1.29c-.36.795-1.155,1.35-2.085,1.35-1.26,0-2.2875-1.0275-2.2875-2.2875S3.99,2.96252,5.25,2.96252c.93,0,1.725.555,2.085,1.35h4.29l.9375.9375-.9375.9375-.75-.75-.75.75zm-6.75-.9375c0,.4125.3375.75.75.75s.75-.3375.75-.75-.3375-.75-.75-.75-.75.3375-.75.75z" fill="#fff"/><path fill-rule="evenodd" clip-rule="evenodd" d="m21,12.4875V11.25l-9-4.125L3,11.25v1.2375l9-4.125,9,4.125z" fill="#fff"/><path fill-rule="evenodd" clip-rule="evenodd" d="m13.74,12.945,1.5825.555c.0375.015.075.015.105.015.1125,0,.21-.0525.27-.1425l.3525-.525c.03-.045.045-.0975.045-.1425,0-.1425-.12-.2625-.2625-.2625H13.815c-.1425,0-.2625.12-.2625.2625.0075.105.0825.2025.1875.24z" fill="#fff"/><path fill-rule="evenodd" clip-rule="evenodd" d="m8.19,12.96h2.295v-.525H8.19c-.1425,0-.2625.12-.2625.2625.0075.1425.12.2625.2625.2625z" fill="#fff"/><path fill-rule="evenodd" clip-rule="evenodd" d="m8.19,13.815h.33c.1425,0,.2625-.12.2625-.2625s-.12-.2625-.2625-.2625h-.33c-.1425,0-.2625.12-.2625.2625.0075.1425.12.2625.2625.2625z" fill="#fff"/><path fill-rule="evenodd" clip-rule="evenodd" d="m15.1875,14.9175c.4575-.2325.96-.3525,1.47-.3525,1.7775,0,3.2175,1.44,3.225,3.21,0,1.7775-1.44,3.2175-3.2175,3.2175-1.665,0-3.0525-1.26-3.2025-2.9175H12.78c-.1425.3-.4425.495-.7725.495-.4725,0-.855-.3825-.855-.855,0-.1875.06-.375.18-.525L9.615,14.6325l-.3525.57c.8175.6075,1.2975,1.56,1.2975,2.58C10.56,19.56,9.12,21,7.3425,21S4.125,19.56,4.125,17.7825s1.44-3.2175,3.2175-3.2175c.51,0,1.0125.12,1.47.3525l.63-1.0125h5.115l.63,1.0125zM7.335,20.475c1.485,0,2.6925-1.2075,2.6925-2.6925,0-.8325-.3825-1.6275-1.05-2.1375L7.56,17.9175c-.0525.0825-.135.1275-.225.1275-.1425,0-.2625-.12-.2625-.2625,0-.0525.015-.0975.0375-.1425l1.4175-2.2725c-.375-.18-.78-.2775-1.1925-.2775-1.485,0-2.6925,1.2075-2.6925,2.6925S5.85,20.475,7.335,20.475zm4.8975-3.5775c-.075-.0225-.1575-.03-.2325-.03-.0825,0-.1575.0075-.2325.03l-1.6575-2.46h3.78l-1.6575,2.46zm.6075.66h.615c.0675-.9375.5325-1.8,1.29-2.3475l-.3525-.57-1.7175,2.5575c.0825.105.1425.225.165.36zm2.1825-1.905,1.185,1.905H13.98c.06-.7575.4425-1.4475,1.0425-1.905zM13.98,18.0825c.15,1.3575,1.305,2.3925,2.6775,2.3925,1.485,0,2.6925-1.2075,2.6925-2.685,0-1.485-1.2075-2.6925-2.6925-2.6925-.4125,0-.825.0975-1.1925.2775l1.1775,1.89h.015c.2925,0,.525.2325.525.525s-.2325.525-.525.525c-.1725,0-.3375-.09-.435-.2325H13.98z" fill="#fff"/></svg>