<svg width="59" height="20" xmlns="http://www.w3.org/2000/svg"><path fill-rule="evenodd" clip-rule="evenodd" d="m2,0C.89543,0,0,.895431,0,2v16c0,1.1046.895431,2,2,2h55c1.1046,0,2-.8954,2-2V2c0-1.104569-.8954-2-2-2H2z" fill="#eb0000"/><path fill-rule="evenodd" clip-rule="evenodd" d="m7.00182,9.37836h.7448c1.2758,0,2.1272-.08,2.55438-.2402.427-.1602.7632-.4164,1.009-.7688.2456-.3524.3684-.7394.3684-1.1612,0-.2828-.063-.515-.1884-.6966-.1254-.1814-.3014-.3136-.5284-.3964s-.7326-.1242-1.51738-.1242h-1.7298l-.7126,3.3874zm-1.3374,6.42224h-2.4182l2.4584-11.73944h4.77258c.8488,0,1.5202.1002,2.014.3004.4936.2.8848.5312,1.1732.9928.2882.4618.4324,1.013.4324,1.6536,0,.5926-.115,1.1692-.3444,1.7298-.2298.5606-.5114,1.009-.8448,1.34524-.3338.3364-.6928.5914-1.077.7648-.3844.1736-.9024.3056-1.5536.3964-.37918.0534-1.08898.08-2.12998.08h-1.5456l-.937,4.4764z" fill="#fff"/><path fill-rule="evenodd" clip-rule="evenodd" d="m13.6023,15.8006,2.4504-11.73944h8.7044l-.4084,1.9618h-6.286l-.5606,2.6666h6.078l-.4084,1.96204h-6.078l-.7368,3.187h6.8308l-.4164,1.962h-9.169z" fill="#fff"/></svg>