<svg width="22" height="16" xmlns="http://www.w3.org/2000/svg"><path fill-rule="evenodd" clip-rule="evenodd" d="m10.05,9.1018v4.4996H6.55005V15h8.39855v-1.3986L11.45,13.6V9.1018c.931-.1218,1.7934-.4648,2.3436-1.0094.5516-.546.8904-1.1102,1.0038-1.6982.0952-.5866.1526-1.0108.1526-1.2726V1H6.55005v4.1216c0,.3024.056.7266.1708,1.2936.0938.5656.4368,1.1298.9856,1.6758.5502.546,1.4154.889,2.34355,1.0108zm-7.6153,3.8329c.23011.4112.52057.8815.87013,1.4146v.0013h1.27124c-.42375-.713-.72678-1.2574-.90785-1.6321s-.43884-.9821-.77079-1.8245c-.33322-.8387-.49919-1.78177-.49919-2.82039,0-1.01599.15214-1.91503.45266-2.69462.30304-.78085.56332-1.39447.78085-1.84085.21754-.44764.53314-1.03484.94432-1.75911h-1.2725c-.74941,1.17316-1.32028,2.2319-1.71259,3.17495C1.19867,5.89578,1,6.93188,1,8.05475c0,1.20962.18232,2.22185.54446,3.03915.36213.8161.65888,1.4297.89024,1.8408zm17.6515-8.10897c-.4225-.95563-.9795-1.97162-1.6686-3.04796v.00377h-1.2687c.4124.70289.7092,1.24358.899,1.62332.1849.38099.3886.8412.6061,1.37937.2163.53817.3797,1.08012.4904,1.62332.1094.5432.1635,1.08765.1635,1.63211,0,1.01598-.156,1.92886-.4628,2.73864-.3093.811-.5532,1.397-.7356,1.7604-.181.3608-.5029.9682-.9606,1.8131h1.2687c.459-.7129.7871-1.246.9808-1.5969.1924-.352.4627-.9342.8072-1.7515.3446-.8161.5181-1.79938.5181-2.94865,0-1.19705-.2138-2.27339-.6375-3.22902z"/></svg>