<svg width="24" height="24" xmlns="http://www.w3.org/2000/svg"><path fill-rule="evenodd" clip-rule="evenodd" d="m22.5,0h-21C.675,0,0,.675,0,1.5v21c0,.825.675,1.5,1.5,1.5h21c.825,0,1.5-.675,1.5-1.5v-21c0-.825-.675-1.5-1.5-1.5z" fill="#2d327d"/><path fill-rule="evenodd" clip-rule="evenodd" d="m9.9825,9.33749c0-.9825.795-1.785,1.785-1.785.9825,0,1.785.795,1.785,1.785,0,.98251-.795,1.78501-1.785,1.78501-.99-.0075-1.785-.8025-1.785-1.78501z" fill="#fff"/><path fill-rule="evenodd" clip-rule="evenodd" d="m9,21.0975c-.06,0-.345-.06-.345-.3525,0-.255.2175-.3525.345-.3525h1.1325V12.705H9c-.06,0-.345-.06-.345-.3525,0-.255.2175-.3525.345-.3525h4.3425v8.3925h1.125c.1275,0,.345.0975.345.3525,0,.3-.285.3525-.345.3525H9z" fill="#fff"/><path fill-rule="evenodd" clip-rule="evenodd" d="m4.965,3v.4125h-.6825V5.25H3.795V3.4125h-.6825V3H4.965z" fill="#fff"/><path fill-rule="evenodd" clip-rule="evenodd" d="m6.33001,3.76502c-.1575-.1575-.3525-.24-.6-.24-.27,0-.48.09-.645.2625-.1425.165-.2175.3675-.2175.6225s.075.465.225.63c.15.1725.36.255.6225.255.2475,0,.45-.0825.6-.2325.165-.165.2475-.3825.2475-.66,0-.2625-.0825-.48-.2325-.6375zm-.9075.2475c.075-.0975.165-.1425.285-.1425.135,0,.2325.0525.2925.15001.0675.08999.105.22499.105.39,0,.18-.0375.31499-.1125.41249-.0675.0825-.165.1275-.2775.1275-.12,0-.2175-.0525-.2925-.1425-.0675-.09-.105-.225-.105-.3975s.0375-.3.105-.3975z" fill="#fff"/><path fill-rule="evenodd" clip-rule="evenodd" d="m8.3775,3.57001v1.68H7.95v-.2475c-.1275.195-.3075.2925-.53999.2925-.2025,0-.3525-.0675-.45751-.2025-.0375-.0525-.0675-.1125-.0825-.1875s-.0225-.165-.0225-.2775v-1.0575H7.29v.9225c0,.0975,0,.165.0075.2025s.015.075.0375.105c.045.075.1275.1125.24.1125.1425,0,.24-.06.3075-.1875.03-.06.045-.1725.045-.33v-.825h.45z" fill="#fff"/><path fill-rule="evenodd" clip-rule="evenodd" d="m9.76499,3.53997v.435c-.075-.015-.12749-.0225-.1725-.0225-.165,0-.285.0675-.36749.21-.04501.075-.0675.21-.0675.39v.6975H8.715v-1.68h.4275v.3075c.12-.225.3-.345.525-.345.03,0,.06.0075.09749.0075z" fill="#fff"/><path fill-rule="evenodd" clip-rule="evenodd" d="m10.425,3.405V3h-.44999v.405h.44999zm0,1.845V3.57h-.44999v1.68h.44999z" fill="#fff"/><path fill-rule="evenodd" clip-rule="evenodd" d="m12.15,4.05753h-.42c-.0075-.06001-.0225-.09751-.045-.1275-.045-.06-.135-.09-.255-.09-.0825,0-.1425.015-.18.045-.045.03-.0675.0675-.0675.12s.0225.0975.075.12c.0525.02249.1575.05249.33.08999.2175.045.375.09751.465.165.1125.075.1725.195.1725.3525,0,.18-.0675.315-.21.42-.135.0975-.3225.1425-.5475.1425-.2775,0-.4875-.0675-.615-.21-.09-.0975-.135-.225-.15-.3825h.4275c.0075.075.03.135.06.1725.06.0675.15.105.285.105.09,0,.165-.015.2175-.0525s.0825-.08999.0825-.15c0-.06-.0225-.0975-.0675-.12749-.045-.03-.1425-.06001-.2925-.09751-.1425-.0375-.2475-.06-.3075-.0825-.06-.02249-.1125-.04499-.165-.0675-.06-.0375-.1125-.0825-.1425-.15-.0375-.0675-.0525-.135-.0525-.2175,0-.1725.075-.3075.2175-.3975.12-.075.285-.1125.495-.1125.2775,0,.48.0675.6.21.0375.07501.075.18751.09.32251z" fill="#fff"/><path fill-rule="evenodd" clip-rule="evenodd" d="m13.3725,3.56249v.315h-.33v.7875c0,.0975.0075.1575.0225.18.0225.0375.0825.0525.1725.0525.0375,0,.0825,0,.135-.0075v.36c-.0975.015-.195.015-.2775.015-.1275,0-.225-.015-.2925-.045-.105-.045-.165-.1275-.195-.255-.0075-.0525-.015-.1575-.015-.3225v-.7575h-.27v-.315h.27v-.39h.4425v.39h.3375v-.0075z" fill="#fff"/></svg>