<svg width="24" height="24" xmlns="http://www.w3.org/2000/svg"><path fill-rule="evenodd" clip-rule="evenodd" d="m22.5,0h-21C.675,0,0,.675,0,1.5v21c0,.825.675,1.5,1.5,1.5h21c.825,0,1.5-.675,1.5-1.5v-21c0-.825-.675-1.5-1.5-1.5z" fill="#2d327d"/><path fill-rule="evenodd" clip-rule="evenodd" d="m20.4375,3.03003H17.985c-.33,0-.5925.2625-.5925.5925v5.8575c0,.33.2625.59247.5925.59247h2.4525c.33,0,.5925-.26247.5925-.59247v-5.8575c0-.33-.2625-.5925-.5925-.5925zm-1.23,6.6975c-.1425,0-.2475-.12-.2475-.27,0-.1425.12-.2625.255-.2625.1425,0,.2475.12.2475.27s-.1125.27-.255.2625zm-1.335-.975H20.55v-5.0625h-2.6775v5.0625z" fill="#fff"/><path fill-rule="evenodd" clip-rule="evenodd" d="m6.1125,15.5325h.7125c.405,0,.57-.1875.57-.435,0-.21-.105-.36-.2925-.3975v-.0075c.1425-.06.225-.1725.225-.33,0-.2625-.18-.3825-.4575-.3825h-.7575v1.5525zm.2775-.705h.48c.165,0,.2625.09.2625.24,0,.1575-.0975.2475-.2625.2475h-.48v-.4875zm.4425-.63H6.39v.4275h.4425c.1275,0,.225-.075.225-.2175,0-.15-.075-.21-.225-.21z" fill="#fff"/><path fill-rule="evenodd" clip-rule="evenodd" d="m8.59501,15.5325h-.24v-.1575h-.0075c-.06.1125-.195.1875-.3225.1875-.2925,0-.42-.15-.42-.4425v-.7125h.2475v.69c0,.195.0825.27.2175.27.21,0,.2775-.135.2775-.3075v-.6525h.2475v1.125z" fill="#fff"/><path fill-rule="evenodd" clip-rule="evenodd" d="m9.04501,15.1726c.015.1425.12.195.255.195.09,0,.255-.0225.2475-.15s-.1875-.1425-.3675-.1875c-.18-.0375-.36-.105-.36-.33,0-.2475.2625-.3225.4725-.3225.2325,0,.4425.0975.4725.345h-.2625c-.0225-.12-.12-.15-.225-.15-.075,0-.2025.015-.2025.1125,0,.12.18.1425.3675.18.18.045.36.105.36.33,0,.27-.27.3675-.5025.3675-.285,0-.495-.1275-.495-.39h.24z" fill="#fff"/><path fill-rule="evenodd" clip-rule="evenodd" d="m10.2375,13.98h-.24749v.2325h.24749V13.98zm0,.4275h-.24749v1.125h.24749v-1.125z" fill="#fff"/><path fill-rule="evenodd" clip-rule="evenodd" d="m10.5075,14.4076h.2325v.165l.0075.0075c.075-.1275.2025-.2025.3525-.2025.24,0,.3975.1275.3975.3825v.7725H11.25v-.705c-.0075-.1725-.075-.255-.2175-.255-.165,0-.27.1275-.27.2925v.66h-.2475l-.0075-1.1175z" fill="#fff"/><path fill-rule="evenodd" clip-rule="evenodd" d="m12.2475,14.37c.3525,0,.5775.3225.5325.66h-.8325c0,.1725.0975.33.3.33.15,0,.2325-.06.2775-.1875h.24c-.0525.2475-.2625.3825-.51.3825-.3525,0-.5475-.2475-.5475-.5925,0-.3225.2025-.5925.54-.5925zm0,.2025c-.165,0-.285.135-.2925.3h.5775c-.015-.1575-.12-.3-.285-.3z" fill="#fff"/><path fill-rule="evenodd" clip-rule="evenodd" d="m13.155,15.1726c.015.1425.12.195.255.195.09,0,.255-.0225.2475-.15s-.1875-.1425-.3675-.1875c-.18-.0375-.36-.105-.36-.33,0-.2475.2625-.3225.4725-.3225.2325,0,.4425.0975.4725.345h-.2625c-.0225-.12-.12-.15-.225-.15-.075,0-.2025.015-.2025.1125,0,.12.18.1425.3675.18.18.045.36.105.36.33,0,.27-.27.3675-.5025.3675-.285,0-.495-.1275-.495-.39h.24z" fill="#fff"/><path fill-rule="evenodd" clip-rule="evenodd" d="m14.28,15.1726c.015.1425.12.195.255.195.09,0,.255-.0225.2475-.15s-.1875-.1425-.3675-.1875c-.18-.0375-.36-.105-.36-.33,0-.2475.2625-.3225.4725-.3225.2325,0,.4425.0975.4725.345h-.2625c-.0225-.12-.12-.15-.225-.15-.075,0-.2025.015-.2025.1125,0,.12.18.1425.3675.18.18.045.36.105.36.33,0,.27-.27.3675-.5025.3675-.285,0-.495-.1275-.495-.39h.24z" fill="#fff"/><path fill-rule="evenodd" clip-rule="evenodd" d="m16.74,18.1276,1.38,2.3925s-.0225.495-.2325.495h-14.64c-.18174,0-.23319-.3583-.24541-.4435L3,20.5576l1.41-2.415v-6.6525c0-.1875.15-.3375.3375-.3375h11.655c.1875,0,.3375.15.3375.3375v6.6375zm-.4275-6.5475H4.845v6.45h11.4675v-6.45zM12.7575,20.5126H8.58c-.0675,0-.105-.0525-.0825-.1125l.195-.6c.0225-.06.09-.1125.1575-.1125h3.675c.0675,0,.135.0525.1575.12l.1725.6c.015.0525-.03.105-.0975.105zm-8.415-1.1175,12.51-.0075c.0675,0,.0975-.0525.0675-.105l-.39-.7125c-.03-.06-.1125-.105-.18-.105H4.8525c-.0675,0-.15.045-.18.105l-.39.72c-.0375.06-.0075.105.06.105z" fill="#fff"/></svg>