<svg width="24" height="24" xmlns="http://www.w3.org/2000/svg"><path fill-rule="evenodd" clip-rule="evenodd" d="m22.5,0h-21C.675,0,0,.675,0,1.5v21c0,.825.675,1.5,1.5,1.5h21c.825,0,1.5-.675,1.5-1.5v-21c0-.825-.675-1.5-1.5-1.5z" fill="#2d327d"/><path fill-rule="evenodd" clip-rule="evenodd" d="m3.4125,21h17.175c.27,0,.45-.2775.345-.525-.945-2.16-2.6625-3.915-4.7925-4.9125-.1125-.0525-.24-.045-.345.015-1.11.615-2.4075.9675-3.795.9675s-2.685-.3525-3.795-.9675c-.105-.06-.2325-.0675-.345-.015-2.13,1.005-3.8475,2.7525-4.7925,4.9125-.1125.2475.075.525.345.525z" fill="#fff"/><path fill-rule="evenodd" clip-rule="evenodd" d="m18,3c1.6575,0,3,1.3425,3,3,0,1.3575-.9,2.4975-2.13,2.8725.0375.255.0525.51.0525.7725,0,3.5325-3.0975,6.39-6.9225,6.39s-6.9225-2.865-6.9225-6.39c0-.2625.0225-.5175.0525-.7725C3.9,8.4975,3,7.3575,3,6,3,4.3425,4.3425,3,6,3c.975,0,1.845.465,2.3925,1.1925C9.4425,3.6,10.68,3.255,12,3.255s2.5575.345,3.6075.9375C16.155,3.465,17.025,3,18,3zm-9.735,7.1775c0,.435.3525.795.795.795s.8025-.3525.795-.795c0-.435-.36-.795-.795-.795s-.795.3525-.795.795zm4.485,3.8475c-.2775,0-.5475-.0675-.75-.18-.2025.1125-.4725.18-.75.18-.6375,0-1.1325-.465-1.1325-.8625,0-.09.075-.165.165-.165s.165.075.165.165c0,.21.345.5325.8025.5325.2175,0,.4275-.0525.585-.135v-.96c-.435-.0525-.765-.33-.765-.6525,0-.3675.42-.6675.93-.6675.5175,0,.93.3.93.6675,0,.33-.33.6-.765.6525v.96c.15.0825.36.135.585.135.4575,0,.8025-.3225.8025-.5325,0-.09.075-.165.165-.165s.165.075.165.165c0,.3975-.495.8625-1.1325.8625zm1.395-3.8475c0,.435.3525.795.795.795.435,0,.795-.36.795-.795s-.3525-.795-.795-.795c-.435,0-.795.3525-.795.795z" fill="#fff"/></svg>