<svg width="48" height="48" xmlns="http://www.w3.org/2000/svg"><path fill-rule="evenodd" clip-rule="evenodd" d="m24,4v8h1V4h-1zm-8.3536,11.3536-5-5,.7072-.70715,5,4.99995-.7072.7072zM16,23.504C16,18.8087,19.7658,15,24.4685,15,29.1754,15,33,18.8162,33,23.5071,33,28.2008,29.2247,32,24.5204,32,19.8134,32,16,28.1949,16,23.504zM24.4685,14C19.2074,14,15,18.2625,15,23.504,15,28.7498,19.2637,33,24.5204,33,29.7798,33,34,28.7502,34,23.5071,34,18.2613,29.7252,14,24.4685,14zM5,24h8v-1H5v1zm27.6464-9.3536,5-4.99995.7072.70715-5,5-.7072-.7072zM44,23h-8v1h8v-1zM24,43v-8h1v8h-1zm-12.6503-5.6426,5-4.8936-.6994-.7147-5,4.8936.6994.7147zm22.0039-5.711,5,5-.7072.7072-5-5,.7072-.7072zm-3.352-7.6869c-.2168,2.671-2.3657,4.8218-5.0426,5.0422l.082.9966c3.1641-.2605,5.7009-2.798,5.9574-5.9578l-.9968-.081z"/></svg>