<svg width="36" height="36" xmlns="http://www.w3.org/2000/svg"><path fill-rule="evenodd" clip-rule="evenodd" d="m24.9571,11.75H30v-1h-4.25l-.5-.5V6h-1v5.0429l-2,2V9h-1v5.0429l-.4265.4265C19.2765,13.0889,17.2361,12.25,15,12.25c-4.8331,0-8.75,3.9169-8.75,8.75,0,4.8316,3.9168,8.75,8.75,8.75,4.8316,0,8.75-3.9184,8.75-8.75,0-2.2365-.839-4.2768-2.2193-5.8236l.4264-.4264H27v-1h-4.0429l2-2zM15,13.25c1.9599,0,3.7502.7277,5.1151,1.9278l-2.484,2.484c-.7237-.571-1.6375-.9118-2.6311-.9118-2.3476,0-4.25,1.9024-4.25,4.25s1.9024,4.25,4.25,4.25,4.25-1.9024,4.25-4.25c0-.9936-.3408-1.9074-.9118-2.6311l2.4841-2.484C22.0222,17.2496,22.75,19.0397,22.75,21c0,4.2794-3.4706,7.75-7.75,7.75-4.2808,0-7.75-3.4706-7.75-7.75,0-4.2809,3.4691-7.75,7.75-7.75zm0,4.5c.7172,0,1.38.2321,1.9175.6254l-1.4607,1.4607c-.1415-.0556-.2956-.0861-.4568-.0861-.6901,0-1.25.5599-1.25,1.25s.5599,1.25,1.25,1.25,1.25-.5599,1.25-1.25c0-.1612-.0305-.3153-.0861-.4568l1.4607-1.4607c.3933.5375.6254,1.2003.6254,1.9175,0,1.7954-1.4546,3.25-3.25,3.25s-3.25-1.4546-3.25-3.25,1.4546-3.25,3.25-3.25zM14.75,21c0-.0689.028-.1314.0733-.1767l.3534.3534c-.0453.0453-.1078.0733-.1767.0733-.1379,0-.25-.1121-.25-.25z"/></svg>