<svg width="24" height="24" xmlns="http://www.w3.org/2000/svg"><path fill-rule="evenodd" clip-rule="evenodd" d="m11.796,3.097L11,2.51245v5.29384l-3-1V10.5c0,1.9331,1.56686,3.5,3.5,3.5,1.9644,0,3.3249-1.5959,3.4965-3.4386.0016-.0106.0037-.0249.0061-.0428.0051-.0373.0116-.0902.0184-.1573.0135-.134.0279-.3249.0327-.56106.0097-.47166-.0186-1.1285-.1702-1.87617-.3038-1.49933-1.1062-3.37201-3.0875-4.82707zm2.2116,7.3155-.0008.0052v.0004l-.0001.0003-.003.018-.0017.0192C13.8728,11.9058,12.8436,13,11.5,13,10.1191,13,9,11.8809,9,10.5V8.19371l2.3419.78063L12,9.19371V4.57833c1.1629,1.14163,1.6816,2.4495,1.9035,3.54435.134.66121.1589,1.24268.1504,1.65711-.0042.20684-.0167.37091-.0279.48121-.0055.055-.0107.0966-.0143.1231l-.0041.0284zM9.5,15h-.6099l.11961.5981.99999,5,.0804.4019h2.8198l.0804-.4019,1-5L14.1099,15H9.5zm1.4099,5-.8-4h2.7802l-.8,4h-1.1802z"/></svg>