<svg width="24" height="24" xmlns="http://www.w3.org/2000/svg"><path fill-rule="evenodd" clip-rule="evenodd" d="m22.5,0h-21C.675,0,0,.675,0,1.5v21c0,.825.675,1.5,1.5,1.5h21c.825,0,1.5-.675,1.5-1.5v-21c0-.825-.675-1.5-1.5-1.5z" fill="#2d327d"/><path fill-rule="evenodd" clip-rule="evenodd" d="m15.225,5.43755-6.46501-1.1325c-.33-.06-.57749-.345-.57749-.6825,0-.3825.3075-.6975.68999-.6975.0375,0,.08251,0,.12.0075l6.46501,1.1325c.33.06.5775.345.5775.6825,0,.3825-.3075.69-.69.69-.045.0075-.0825.0075-.12,0z" fill="#fff"/><path fill-rule="evenodd" clip-rule="evenodd" d="m21,7.51505-18-3.15v-.69l18,3.1575v.6825z" fill="#fff"/><path fill-rule="evenodd" clip-rule="evenodd" d="m3,12c0-.4125.3375-.75.75-.75l3.7125.0075,2.775-5.24249,1.05.18L8.61,11.25h6.7425l-2.49-4.77748,1.305.22499,2.37,4.55249H20.25c.4125,0,.75.3375.75.75v8.25c0,.4125-.3375.75-.75.75H3.75c-.4125,0-.75-.3375-.75-.75V12zm12.2475.375v3.75c0,.21.1725.375.375.375h4.2525c.21,0,.375-.165.375-.375v-3.75c0-.21-.165-.375-.375-.375h-4.2525c-.21,0-.375.165-.375.375zm-5.745,3.75v-3.75c0-.21.165-.375.375-.375H14.13c.21,0,.375.165.375.375v3.75c0,.21-.165.375-.375.375H9.8775c-.21,0-.375-.165-.375-.375zM3.75,12.375v3.75c0,.21.165.375.375.375h4.2525c.21,0,.375-.165.375-.375v-3.75c0-.21-.165-.375-.375-.375H4.125c-.21,0-.375.165-.375.375z" fill="#fff"/></svg>