<svg width="24" height="24" xmlns="http://www.w3.org/2000/svg"><path fill-rule="evenodd" clip-rule="evenodd" d="m9.50004,6.00024c0-.55214.44786-1,.99996-1,.5522,0,1,.44786,1,1,0,.55215-.4478,1-1,1-.5521,0-.99996-.44785-.99996-1zM15.2924,18.9998l1.8541,1.854.7071-.7071L5.35359,7.64669l-.70711.70711,2.82597,2.826c-.90216.823-1.47314,2.0075-1.47314,3.3207,0,2.4752,2.02593,4.5,4.49999,4.5,1.315,0,2.4962-.5739,3.3179-1.476L15,18.7074v.2924h.2924zm-2.1833-2.1833-4.92864-4.9287c-.72481.6441-1.18115,1.5792-1.18115,2.6127,0,1.9227,1.57806,3.5,3.49999,3.5,1.0334,0,1.9659-.458,2.6098-1.184zM15.5,12.9998h-2v1H15v1.5h1v-2.5h-.5zM11,8.00024v2.49996h-1V8.00024h1z"/></svg>