<svg width="24" height="24" viewBox="0,0,24,24" xmlns="http://www.w3.org/2000/svg"><path fill-rule="evenodd" clip-rule="evenodd" d="m4,2h16v20H4V2zm1,1v18h14V3H5zm13,2h-5v1h5V5zm0,2h-5v1h5V7zm-5,2h5v1h-5V9zm4,4H6v1h11v-1zM6,15h11v1H6v-1zm2.02002,3.01h-2v1h2v-1zm1.99998,0h2v1h-2v-1zM16.02,18.01h-2v1h2v-1zM8.25,6c0-.64151.41727-1,.75-1s.75.35849.75,1S9.33273,7,9,7s-.75-.35849-.75-1zM9,4c-1.04798,0-1.75.98466-1.75,2,0,.48635.16107.96566.44408,1.33308-.46753.3618-.8589.81601-1.14826,1.33686-.39926.71867-.5882,1.53516-.54519,2.35626l.99863-.0524c-.03319-.6335.11261-1.26363.42072-1.81822.27526-.49547.67014-.91279,1.14728-1.21472C8.70352,7.97932,8.84813,8,9,8c.14447,0,.28236-.01871.41274-.05364.47494.29836.86976.71031,1.14796,1.20011.3161.55677.4687,1.19153.44,1.83113l.999.0448c.0371-.8278-.1603-1.64921-.5695-2.36973-.2888-.50864-.6749-.95241-1.1337-1.3074.2888-.36898.4535-.85353.4535-1.34527,0-1.01534-.702-2-1.75-2z"/></svg>