<svg width="24" height="24" viewBox="0,0,24,24" xmlns="http://www.w3.org/2000/svg"><path fill-rule="evenodd" clip-rule="evenodd" d="m4,12c0-4.41386,3.58614-8,8-8,4.4139,0,8,3.58614,8,8,0,.2783-.0186.5605-.0473.8386l.9946.1029c.0313-.302.0527-.6198.0527-.9415,0-4.96614-4.0339-9-9-9-4.96614,0-9,4.03386-9,9,0,4.9661,4.03386,9,9,9,1.439,0,2.8054-.3387,4.0136-.9428l-.4472-.8944C14.4946,19.6987,13.281,20,12,20c-4.41386,0-8-3.5861-8-8zm13.916-.7774L17.5,11.5l-.416-.2774.416-.624.416.624zM17.5,11.5c-.416-.2774-.4161-.2773-.4161-.2772l-.0002.0002-.0004.0007-.0014.0021-.005.0076-.0182.0276c-.0156.024-.0381.0588-.0665.1034-.0567.0892-.1372.2179-.2334.3784-.1923.3203-.4489.7693-.706,1.2836C15.5508,14.0303,15,15.3726,15,16.5c0,1.3761,1.1239,2.5,2.5,2.5s2.5-1.1239,2.5-2.5c0-1.1274-.5508-2.4697-1.0528-3.4736-.2571-.5143-.5137-.9633-.706-1.2836-.0962-.1605-.1767-.2892-.2334-.3784-.0284-.0446-.0509-.0794-.0665-.1034l-.0182-.0276-.005-.0076-.0014-.0021-.0004-.0007-.0002-.0002c0-.0001-.0001-.0002-.4161.2772zm0,.9537c-.1637.2807-.3584.6312-.5528,1.0199C16.4492,14.4697,16,15.6274,16,16.5c0,.8239.6761,1.5,1.5,1.5s1.5-.6761,1.5-1.5c0-.8726-.4492-2.0303-.9472-3.0264-.1944-.3887-.3891-.7392-.5528-1.0199zm-10.44943,2.849C7.88598,13.3571,9.7815,12,12.06,12c1.1408,0,2.1992.3405,3.0722.9372l-.5643.8256C13.8609,13.2795,12.9992,13,12.06,13c-1.8615,0-3.40596,1.1029-4.09055,2.6973l-.91888-.3946zM8,9c0-.55228.44772-1,1-1s1,.44772,1,1-.44772,1-1,1-1-.44772-1-1zm7-1c-.5523,0-1,.44772-1,1s.4477,1,1,1,1-.44772,1-1-.4477-1-1-1z"/></svg>