<svg width="48" height="48" viewBox="0,0,48,48" xmlns="http://www.w3.org/2000/svg"><path fill-rule="evenodd" clip-rule="evenodd" d="m20.318,3.32779c.8439-.84392,1.9885-1.31802,3.182-1.31802s2.3381.4741,3.182,1.31802C27.5259,4.1717,28,5.31629,28,6.50977h-.5l.5.00648c-.0094.72227-.2049,1.42993-.5676,2.05459l-.0086.01474-.0095.01411-3.5,5.18001-.4179.6185-.4129-.6218-3.44-5.18003-.0072-.01075.0002-.00009c-.3879-.61804-.6071-1.32684-.6361-2.05592L19,6.51969v-.00992c0-1.19348.4741-2.33807,1.318-3.18198zM27,6.50651c-.0009-.92708-.3695-1.81601-1.0251-2.47162-.6564-.65638-1.5466-1.02512-2.4749-1.02512s-1.8185.36874-2.4749,1.02512c-.654.65403-1.0225,1.54025-1.0251,2.46492.0235.54911.189,1.08277.4802,1.54892l3.0234,4.55267,3.0722-4.54694c.2706-.4715.4166-1.00424.4242-1.54795zM2,17h17.7711L9.03354,44.82l.93292.36,11.00004-28.5.2624-.68H2v1zm24.5-1h-.7289l.2624.68,11,28.5.933-.36L27.2289,17H46v-1H26.5zM23,45v-5h1v5h-1zm0-13v5h1v-5h-1zm0-3v-5h1v5h-1zm0-13v5h1v-5h-1zm-1-9.5c0-.82843.6716-1.5,1.5-1.5s1.5.67157,1.5,1.5S24.3284,8,23.5,8,22,7.32843,22,6.5zM23.5,4C22.1193,4,21,5.11929,21,6.5S22.1193,9,23.5,9,26,7.88071,26,6.5,24.8807,4,23.5,4z"/></svg>