<svg width="36" height="36" viewBox="0,0,36,36" xmlns="http://www.w3.org/2000/svg"><path fill-rule="evenodd" clip-rule="evenodd" d="m7.74854,7.75H13.25v1.5472c.1776-.22072.3764-.41515.5944-.58504.9741-.75898,2.2362-.94934,3.4056-.94934h7.5c1.1038,0,2,.89403,2,2,0,.36938-.1003.71548-.275,1.01248.9995.1116,1.775.9579,1.775,1.9875,0,.597-.2615,1.1332-.6765,1.4998.415.3663.6765.9024.6765,1.5002,0,.597-.2615,1.1332-.6765,1.4998.415.3663.6765.9024.6765,1.5002,0,1.1038-.894,2-2,2h-4.5158l1.888,4.7948.0028.0072c.0834.2218.125.4571.125.698,0,1.1038-.894,2-2,2-.5545,0-1.0569-.2268-1.4195-.5914l-.0076-.0077-.0073-.008-6.2863-6.8929H12.25v-.0008H7.74854V7.75zM12.25,12.7361v7.0259H8.74854V8.75H12.25v3.9861zm1,7.0267h1.2207l.1487.1631,6.427,7.0472c.1828.1804.4306.2897.7036.2897.553,0,1-.4478,1-1,0-.1238-.021-.2384-.0598-.3427l-2.1554-5.4741-.269-.6832H26.25c.553,0,1-.4478,1-1,0-.5533-.4466-1-1-1v-.0007H24v-1h2.25v.0007c.553,0,1-.4478,1-1,0-.5533-.4466-1-1-1v-.0007H24v-1h2.25v.0007c.553,0,1-.4478,1-1,0-.5533-.4466-1-1-1h-1.5v-.0007H24v-1h.75v.0007c.5519,0,1-.4481,1-.99998,0-.55303-.4478-1-1-1h-7.5c-1.0926,0-2.0805.18464-2.7909.73816-.6818.53122-1.2041,1.48022-1.2091,3.23632v7.0255z"/></svg>