<svg width="24" height="24" xmlns="http://www.w3.org/2000/svg"><path fill-rule="evenodd" clip-rule="evenodd" d="m22.5,0h-21C.675,0,0,.675,0,1.5v21c0,.825.675,1.5,1.5,1.5h21c.825,0,1.5-.675,1.5-1.5v-21c0-.825-.675-1.5-1.5-1.5z" fill="#2d327d"/><path fill-rule="evenodd" clip-rule="evenodd" d="m11.625,4.0874v.225c0,3,2.4375,5.4375,5.4375,5.4375h.75v-1.125h-.75c-2.3775,0-4.3125-1.935-4.3125-4.3125v-.225h-1.125z" fill="#fff"/><path fill-rule="evenodd" clip-rule="evenodd" d="m17.8125,6.3749h-.75c-1.14,0-2.0625-.9225-2.0625-2.0625v-.225h-1.125v.225c0,1.7625,1.425,3.1875,3.1875,3.1875h.75c1.14,0,2.0625.9225,2.0625,2.0625v.1875H21v-.1875c0-1.7625-1.425-3.1875-3.1875-3.1875z" fill="#fff"/><path fill-rule="evenodd" clip-rule="evenodd" d="m19.875,10.875H21v2.25h-1.125v-2.25z" fill="#fff"/><path fill-rule="evenodd" clip-rule="evenodd" d="m21.0525,19.9724-6.8475-6.8475H18.6v-2.25h-6.645L3.70496,2.63245l-1.0575,1.0575,7.185,7.18495h-6.8325v2.25h9.08254l7.905,7.9125,1.065-1.065z" fill="#fff"/><path fill-rule="evenodd" clip-rule="evenodd" d="m3.70496,2.63245-1.0575,1.0575L19.9875,21.0374l1.065-1.065L3.70496,2.63245z" fill="#eb0000"/></svg>