<svg width="36" height="36" xmlns="http://www.w3.org/2000/svg"><path fill-rule="evenodd" clip-rule="evenodd" d="m3.75,7.75h-.5v17.5h13.5v5H10.5v1h15v-1h-6.25v-5h13.5V7.75h-29zm14,17.5h.5v5h-.5v-5zm3.4495-1h4.0896c.2956-.7763.4609-1.6168.4609-2.5,0-2.4275-1.2129-4.5523-3.0703-5.8063l-1.7645,3.0562c.8129.6409,1.3348,1.6346,1.3348,2.7501,0,.9793-.4022,1.8647-1.0505,2.5zm5.1503,0H31.75V8.75H4.25v15.5h6.9002c-.2083-.6343-.3413-1.304-.3847-2H7.5v-1h3.2651c.0667-1.0974.3515-2.1329.8119-3.0641L8.75732,16.558l.5-.866,2.81838,1.6272c.5898-.8902,1.3533-1.6537,2.2435-2.2435l-1.6272-2.8184.866-.5,1.6279,2.8197c.9312-.4604,1.9666-.7452,3.0641-.8119V10.5h1v3.2651c1.0975.0667,2.1329.3515,3.0641.8119l1.6279-2.8197.866.5-1.6272,2.8184c.8902.5898,1.6537,1.3533,2.2435,2.2435l2.8184-1.6272.5.866-2.8197,1.628c.4604.9311.7452,1.9666.8119,3.064H30v1h-3.2655c-.0434.696-.1764,1.3657-.3847,2zm-14.1389,0h4.0896c-.5359-.5251-.9037-1.2212-1.0151-2h-3.5176c.0499.7012.2038,1.3716.4431,2zM18.75,24.25c1.3807,0,2.5-1.1193,2.5-2.5s-1.1193-2.5-2.5-2.5-2.5,1.1193-2.5,2.5,1.1193,2.5,2.5,2.5zm0-6c-1.7632,0-3.2219,1.3039-3.4646,3h-3.5181c.2533-3.6516,3.2626-6.5,6.9827-6.5,1.1008,0,2.1394.2494,3.0628.6953l-1.7632,3.0539c-.4018-.1608-.8404-.2492-1.2996-.2492z"/></svg>