<svg width="26" height="16" xmlns="http://www.w3.org/2000/svg"><path fill-rule="evenodd" clip-rule="evenodd" d="m19.1615,6.67768h-1.101l.74-3.44h.981c1.06,0,2.341.06,2.341,1.4,0,1.641-1.541,2.04-2.961,2.04zm-1.421,6.12202h-.96l.841-4.04102h.899c1.501,0,2.861.22,2.861,1.68102,0,2.16-1.921,2.36-3.641,2.36zm2.961-11.76302h-4.141l-2.921,13.96302h3.982c2.08,0,6.56-.32,6.56-4.321,0-1.50002-.68-2.70002-2.24-2.94002v-.04c1.62-.26,2.98-1.621,2.98-3.321,0-2.541-2.04-3.341-4.22-3.341zM6.9614,6.99801h-1.02l.78-3.761h1.16c1.14,0,2.401,0,2.401,1.461,0,1.84-1.82,2.3-3.321,2.3zm.68-5.961h-3.301L1.4204,15h2.8l1.221-5.80099h1.06c1.29013,0,1.4276.74923,1.63534,1.88139.03702.2018.07627.4156.12466.6396l.68,3.28h2.941l-1.34-5.62099c-.18-.761-.661-1.24-1.42-1.28v-.04c2.28-.04,4.08-1.321,4.08-3.721,0-3.302-2.9118-3.30147-5.47049-3.30101-.03022,0-.06039.00001-.09051.00001z"/></svg>