<svg width="29" height="16" xmlns="http://www.w3.org/2000/svg"><path fill-rule="evenodd" clip-rule="evenodd" d="m8.83633,2.99681c1.019,0,2.07997.301,2.89997.721l.66-2.301C11.2563.956814,9.99633.796814,8.77533.796814c-2.682,0-5.201,1.279996-5.201,4.220996,0,2.04103,1.43273,2.84217,2.72644,3.56558,1.06487.59545,2.03556,1.13823,2.03556,2.27641,0,1.5-1.321,2.18-2.66201,2.18-1.2,0-2.33999-.461-3.41999-.961l-.721,2.381c1.26.46,2.641.78,3.98.78,3.061,0,5.74297-1.24,5.74297-4.661,0-2.20545-1.53779-3.1124-2.86562-3.89551-1.00877-.59494-1.89635-1.11841-1.89635-2.08548,0-1.2,1.34-1.601,2.342-1.601zm9.95877-1.9597h-2.801l-2.92,13.96299h2.801l1.279-6.12099h5.641l-1.28,6.12099h2.801l2.92-13.96299h-2.801l-1.179,5.641h-5.641l1.18-5.641z"/></svg>