<svg width="29" height="16" xmlns="http://www.w3.org/2000/svg"><path fill-rule="evenodd" clip-rule="evenodd" d="m21.1811,6.99801h-1.02l.78-3.761h1.16c1.14,0,2.401,0,2.401,1.461,0,1.84-1.82,2.3-3.321,2.3zm.68-5.961h-3.301L15.6401,15h2.8l1.221-5.80099h1.06c1.2902,0,1.4276.74923,1.6354,1.88139.037.2018.0762.4156.1246.6396l.68,3.28h2.941l-1.34-5.62099c-.18-.761-.661-1.24-1.42-1.28v-.04c2.28-.04,4.08-1.321,4.08-3.721,0-3.302-2.9118-3.30147-5.4705-3.30101-.0302,0-.0603.00001-.0905.00001zM9.44188,5.83811l-2.021-4.801h-3.021l3.061,6.381L.999878,15.0001H4.48088l4.361-5.60199h.04l2.14002,5.60199h3.06l-3.24-7.30199,5.781-6.661h-3.301l-3.84002,4.801h-.04z"/></svg>