<svg width="24" height="24" xmlns="http://www.w3.org/2000/svg"><path fill-rule="evenodd" clip-rule="evenodd" d="m22.5,0h-21C.675,0,0,.675,0,1.5v21c0,.825.675,1.5,1.5,1.5h21c.825,0,1.5-.675,1.5-1.5v-21c0-.825-.675-1.5-1.5-1.5z" fill="#2d327d"/><path fill-rule="evenodd" clip-rule="evenodd" d="m7.5,3v3.75h5.25v1.5H15V9h-2.25v.75H15v.75h-2.25v6h3.75V3h-9zM15,6h-.45V4.53h-.525V4.2c.1125,0,.2025-.015.27-.0375s.135-.0525.1875-.0975c.0825-.06.1425-.1725.165-.3225H15V6z" fill="#fff"/><path fill-rule="evenodd" clip-rule="evenodd" d="m3,7.5V21h9V7.5H3zm7.5,7.5h-6v-.75h6V15zm0-1.5h-6v-.75h6v.75zm0-3H8.88c0-.12.0225-.24.06-.3525s.0975-.2025.165-.285c.0525-.06.12-.12.195-.18s.225-.165.4425-.3225c.105-.075.18-.1425.225-.21s.0675-.1425.0675-.225c0-.0975-.03-.18-.09-.24s-.135-.09-.225-.09c-.2325,0-.3525.165-.36.5025h-.435V9.045c0-.27.075-.4875.2325-.63.15-.1425.3375-.2175.5775-.2175.21,0,.3825.06.525.18.15.1275.2325.3.2325.525,0,.1875-.06.3525-.18.495-.0375.045-.075.0825-.1125.105-.0375.03-.1275.09-.2775.195-.1425.0975-.24.1725-.3075.225-.06.0525-.12.1125-.1725.18H10.5V10.5z" fill="#fff"/></svg>