<svg width="24" height="24" viewBox="0,0,24,24" xmlns="http://www.w3.org/2000/svg"><path fill-rule="evenodd" clip-rule="evenodd" d="m17.4282,4.0258.5245-1.03801-1.1141.33353c-.6089.18228-1.1746.47274-1.6692,1.01977-.3996.4419-.7329,1.02924-1.0164,1.81153-1.3548-.47105-3.0088-.0846-3.9445,1.43763-1.51593-.71889-3.43066.3254-3.52265,2.17629-.48122.1281-.86969.43136-1.14398.81476-.3601.5033-.53437,1.1536-.50666,1.7908.02786.6407.26202,1.3032.76361,1.8086.50781.5116,1.24743.8196,2.20141.8196h6.99997c.9765,0,1.7409-.3045,2.2717-.8073.5266-.4988.7869-1.1589.8191-1.8053.0046-.0927.0045-.1857-.0002-.2784.6561.0124,1.4154-.1291,2.1338-.4162,1.0824-.4325,2.1688-1.2331,2.7316-2.48822l.5202-1.16019-1.1711.49509c-1.8896.7988-3.3995.25835-4.2934-.74421-.9192-1.03099-1.1985-2.55284-.5837-3.76977zm.4077,7.0653c.5127.0616,1.2577-.023,2.0177-.3266.5183-.2071,1.0137-.5045,1.4236-.89585-1.6685.25085-3.0825-.36542-4.0117-1.40759-.8816-.98885-1.3212-2.36139-1.1167-3.67939-.0819.06897-.161.14529-.2377.23012-.3069.33935-.5982.83996-.8637,1.61103.3835.2824.7104.65049.9426,1.09399.3182.60752.4473,1.33467.3227,2.1388.4956.11096.9056.37719,1.2064.73929.1263.1521.232.3191.3168.4962zm-6.9782-2.58894c.6352-1.43991,1.9488-1.77451,2.997-1.39429.53.19224.9839.5658,1.2495,1.07287.2623.50088.3581,1.16523.1168,1.97716l-.1992.67.6984-.028c.4665-.0186.8041.1624,1.0297.434.2347.2825.3632.6841.3423,1.1041-.0207.4161-.1868.8248-.508,1.129-.3171.3003-.8219.5333-1.584.5333H8.00023c-.72952,0-1.19927-.2295-1.49164-.5241-.2986-.3008-.45544-.7133-.47433-1.1476-.01904-.4378.10418-.8625.3209-1.1655.21058-.2943.4969-.4628.84507-.4628h.56329l-.06682-.5593c-.17941-1.50177,1.41934-2.2462,2.3867-1.45385l.5088.41675.2655-.60174zM7.05278,17.7764l1-2,.89443.4472-1,2-.89443-.4472zm7.00002-2-1,2,.8944.4472,1-2-.8944-.4472zm-6.00002,4,2.00002-4,.8944.4472-1.99999,4-.89443-.4472zM12.1026,15.7764l-2,4,.8944.4472,2-4-.8944-.4472z"/></svg>