<svg width="48" height="48" viewBox="0,0,48,48" xmlns="http://www.w3.org/2000/svg"><path fill-rule="evenodd" clip-rule="evenodd" d="m15.8501,15.5571,2.6312,2.6313c-.6726.6394-1.2299,1.392-1.6457,2.2249-.4975.9964-.7814,2.0858-.8336,3.1983s.1285,2.2237.5304,3.2623c.402,1.0387,1.0164,1.982,1.8039,2.7695.7876.7875,1.7309,1.402,2.7695,1.8039,1.0387.402,2.1499.5827,3.2624.5305s2.2018-.3362,3.1983-.8336c.8328-.4158,1.5855-.9731,2.2249-1.6458l2.7543,2.7543c-2.6323,1.692-5.678,2.64-8.8131,2.7373-4.2734-.0025-8.0857-2.0989-11.0494-4.5245-2.73626-2.2394-4.70407-4.7233-5.58366-5.9727,1.31337-1.8619,4.43956-6.1366,8.75056-8.9357zm-.7222-.7222L2.64648,2.35353l.70711-.70711L46.3536,44.6464l-.7071.7071L33.2684,32.9754c-2.8279,1.8656-6.1211,2.9107-9.5128,3.0143l-.0077.0003h-.0076c-4.6035,0-8.6384-2.2526-11.6905-4.7506-3.05633-2.5015-5.18015-5.2918-5.97416-6.47l-.19217-.2852.19752-.2814.00771-.011c.49168-.7007,1.35807-1.9353,2.54472-3.3589l-2.28803-1.9526.64914-.7607,2.28861,1.9531c.81576-.9305,1.75456-1.9121,2.80286-2.8587l-1.9728-2.2657.7542-.6567,1.972,2.2649c.7187-.6054,1.4827-1.1873,2.2885-1.7216zM17.7303,20.8599c.3676-.7363.8616-1.4009,1.4584-1.9642l3.6364,3.6365c-.0632.0991-.1439.1868-.239.2585-.1699.128-.3766.1979-.5894.1993h-.0007c-.1684.0013-.3341-.0412-.4811-.1233-.1469-.0822-.2699-.2011-.357-.3452l-.5354-.8865-.3612.9706c-.3421.9195-.3336,1.9328.0241,2.8463s1.0394,1.6633,1.9149,2.106,1.8834.5473,2.8312.2939c.7486-.2002,1.4183-.6127,1.9316-1.1816l2.1209,2.1209c-.5632.5968-1.2279,1.0908-1.9642,1.4584-.8719.4353-1.8251.6837-2.7985.7294-.9735.0456-1.9457-.1124-2.8545-.4642-.9089-.3517-1.7343-.8893-2.4233-1.5784-.6891-.6891-1.2267-1.5145-1.5785-2.4233-.3517-.9088-.5098-1.8811-.4641-2.8545.0457-.9735.2941-1.9267.7294-2.7986zm5.4576,2.7294c.1321-.0995.2503-.2144.3527-.3416l2.7142,2.7141c-.3889.4462-.9039.7694-1.4816.9239-.7102.19-1.4656.1116-2.1216-.2202-.6561-.3318-1.167-.8936-1.435-1.5782-.1694-.4325-.2343-.8948-.1945-1.3504l.0048.0026c.2982.1668.6347.253.9763.2505l-.0033-.5.004.5c.4275-.003.8426-.1434,1.184-.4007zm17.5777-5.581-2.2269,2.0042c-.8325-.8999-1.7873-1.8474-2.8452-2.7631l-.0278-.024,1.9179-2.2948-.7672-.6413-1.9179,2.2946c-1.02-.8248-2.1292-1.6109-3.312-2.2921l1.4232-2.6234-.879-.4768-1.4222,2.6215c-1.2066-.6205-2.4818-1.1223-3.8102-1.4412l.5914-2.92275-.9802-.19833-.5911,2.92158c-.7099-.1185-1.4334-.1824-2.1684-.1824v-.0001l-.0059.0001c-.6477.0077-1.2924.0587-1.93.1522l-.5421-2.94281-.9834.18116.5417,2.94065c-1.139.248-2.2475.6333-3.3005,1.1499l.4405.8978c1.8011-.8836,3.7766-1.3547,5.7827-1.3789,4.2558.0011,8.1877,2.3336,11.2861,5.0155,2.8531,2.4697,4.9409,5.1848,5.8465,6.4747-1.7681,2.3658-3.8508,4.4799-6.1908,6.2838l.6105.792c2.5085-1.9338,4.7301-4.2135,6.5985-6.7711l.2076-.2842-.1976-.2914c-.456-.6724-1.3908-1.9595-2.7053-3.4542l2.226-2.0035-.6689-.7433zm-19.5677-.4192c1.2882-.5551,2.7134-.7105,4.0908-.446,1.3775.2646,2.6438.9368,3.6346,1.9297.9909.9928,1.6606,2.2604,1.9223,3.6385.2617,1.378.1035,2.8029-.4543,4.0898l.9175.3977c.6375-1.4708.8184-3.0993.5192-4.6742-.2991-1.5748-1.0645-3.0235-2.1969-4.1582-1.1323-1.1347-2.5795-1.903-4.1538-2.2053-1.5742-.3024-3.203-.1248-4.6752.5097l.3958.9183zm3.1093,3.438c.677.0725,1.3087.3745,1.7901.8559.4814.4815.7835,1.1132.8559,1.7902l.9944-.1064c-.0968-.9042-.5002-1.7479-1.1432-2.3909-.6429-.6429-1.4867-1.0463-2.3908-1.1431l-.1064.9943z"/></svg>