<svg width="36" height="36" viewBox="0,0,36,36" xmlns="http://www.w3.org/2000/svg"><path fill-rule="evenodd" clip-rule="evenodd" d="m24,4.25H3v-1h21v1zm4.4509,3.8113c-.62-.98377-1.1229-1.52501-1.9737-1.7283-.3888-.09291-.827-.10959-1.3308-.10778-.2182.00078-.4576.00525-.7174.0101l-.1332.00247c-.3132.00573-.6591.01133-1.0462.01189H19.75V15.25h-2v-9H3v1h13.75v11H9v1h8.75v-1.5h2v1.4997h8.75c1.9283.0009,3.2828-.6179,3.8848-1.7492.5946-1.1176.3381-2.5221-.4575-3.8318h.0001l-.0024-.0039-3.4721-5.60038-.002-.00312zM19.75,16.75v-.5h-2v.5h2zm3.5007-9.50032c.3958-.00057.7486-.0063,1.0635-.01206l.1346-.0025c.2605-.00485.4911-.00915.7011-.00991.4972-.00178.8315.01747,1.0949.0804.4533.10833.7734.3582,1.3591,1.28732l.001.00155,3.4689,5.59522c.7034,1.1588.7878,2.1652.4281,2.8411-.3525.6625-1.2478,1.2197-3.0017,1.2189H20.75V7.24968h2.5007zM22.75,9.25h2.9454l.1404.268,2.3571,4.5.3834.732H22.75v-5.5zm1,1v3.5h3.1737l-1.8334-3.5H23.75zM6.4879,20.1792l5.7693,4.0303c-.0048-.0699-.0072-.1398-.0072-.2094,0-.6691.2224-1.3545.6888-1.8791.4745-.5338,1.1755-.8709,2.0612-.8709h3.1725l.0085.0002c2.3818.0805,4.663,1.3615,6.4217,3.0421l.0006.0006,7.9911,7.5946.9075.8624H20.419l-.1462-.145-1.3655-1.3549h-5.8961l-.1417-.1249-8.88085-7.8231c-.85291-.6929-.98722-1.9456-.29843-2.8039.68764-.8568,1.93664-.9978,2.79768-.319zm11.6676,2.0709H15c-.6143,0-1.0383.2254-1.3138.5353-.2837.3191-.4362.7587-.4362,1.2147,0,.4559.1525.8955.4362,1.2146.2755.31.6995.5354,1.3138.5354h3v1h-3c-.8447,0-1.5214-.3067-1.9939-.7981l-.0002.0003-7.10336-4.9622-.01364-.0095-.01297-.0104c-.43073-.3457-1.06013-.2768-1.40581.1539-.34568.4308-.27674,1.0602.15399,1.4058l.00894.0072.00861.0076,8.74714,7.7054h5.9305l.1462.145L20.831,31.75h10.1671l-7.0847-6.7331-.001-.001c-1.6488-1.5759-3.7052-2.6937-5.7569-2.7658z"/></svg>