<svg width="24" height="24" viewBox="0,0,24,24" xmlns="http://www.w3.org/2000/svg"><path fill-rule="evenodd" clip-rule="evenodd" d="m5.5,2H5v20h15V2H5.5zM6,21V3h13v18H6zm2-5h9v-1H8v1zm9,2H8v-1h9v1zm-8.8807-5.9883V7.01465H7v4.99705h1.1193zm.98592-4.99705h2.07018c.3484,0,.6231.02099.8226.06347.2005.042.3809.1167.5423.22364.4461.2915.6697.73144.6697,1.31933,0,.52198-.1845.93213-.5544,1.23047-.1564.12744-.3358.21924-.5363.27544-.201.0556-.4492.0834-.7439.0834h-1.1509v1.8013H9.10522V7.01465zm1.11928.92285v1.41504h1c.2973,0,.5113-.05127.6421-.15381.1614-.12744.2421-.31543.2421-.56396,0-.25049-.0937-.4375-.2807-.56055-.1358-.09131-.3569-.13672-.6631-.13672h-.9404zm6.0702,4.0742L18,7.01465h-1.1619l-1.172,3.74265-1.1538-3.74265h-1.172l1.6802,4.99705h1.2742z"/></svg>