<svg width="48" height="48" viewBox="0,0,48,48" xmlns="http://www.w3.org/2000/svg"><path fill-rule="evenodd" clip-rule="evenodd" d="m12.191,5H9V4h17v1h-3.25L20.5,8h4c1.4587,0,2.8576.57946,3.8891,1.61091C29.4205,10.6424,30,12.0413,30,13.5V38h-3v1.5c0,.172-.0295.3409-.0858.5H35v-6h4v-7h-1v-7.44h6V27h-1v7h3v1H36v6H2v-1h5.08579C7.02953,39.8409,7,39.672,7,39.5V38H4V13.5c0-1.4587.57946-2.8576,1.61091-3.88909C6.64236,8.57946,8.04131,8,9.5,8h4.191l-1.5-3zM42,26.5V34h-2v-8h-1v-5.44h4V26h-1v.5zM24.0858,40c-.0563-.1591-.0858-.328-.0858-.5V38H10v1.5c0,.172-.02953.3409-.08579.5H24.0858zM8.5,40c.13261,0,.25979-.0527.35355-.1464C8.94732,39.7598,9,39.6326,9,39.5V38H8v1.5c0,.1326.05268.2598.14645.3536.09376.0937.22094.1464.35355.1464zm17,0c.1326,0,.2598-.0527.3536-.1464.0937-.0938.1464-.221.1464-.3536V38h-1v1.5c0,.1326.0527.2598.1464.3536.0938.0937.221.1464.3536.1464zM13.309,5H21.5l-2.25,3h-4.441l-1.5-3zm-6.99098,5.318C7.16193,9.47411,8.30653,9,9.5,9h15c1.1935,0,2.3381.47411,3.182,1.318C28.5259,11.1619,29,12.3065,29,13.5v10.635l-12,3.84-12-3.84V13.5c0-1.1935.47411-2.3381,1.31802-3.182zM5,25.185V37h24V25.185l-11.8476,3.7912L17,29.025l-.1524-.0488L5,25.185zM8.46,31c-.25405,0-.46.2059-.46.46v.08c0,.2541.20595.46.46.46h3.08c.2541,0,.46-.2059.46-.46v-.08c0-.2541-.2059-.46-.46-.46H8.46zM7,31.46c0-.8063.65367-1.46,1.46-1.46h3.08c.8063,0,1.46.6537,1.46,1.46v.08c0,.8063-.6537,1.46-1.46,1.46H8.46C7.65367,33,7,32.3463,7,31.54v-.08zm15,0c0-.2541.2059-.46.46-.46h3.08c.2541,0,.46.2059.46.46v.08c0,.2541-.2059.46-.46.46h-3.08c-.2541,0-.46-.2059-.46-.46v-.08zm.46-1.46c-.8063,0-1.46.6537-1.46,1.46v.08c0,.8063.6537,1.46,1.46,1.46h3.08c.8063,0,1.46-.6537,1.46-1.46v-.08c0-.8063-.6537-1.46-1.46-1.46h-3.08zM8,14.5c0-.2761.22386-.5.5-.5h17c.2761,0,.5.2239.5.5v8c0,.2761-.2239.5-.5.5h-17c-.27614,0-.5-.2239-.5-.5v-8zm.5-1.5c-.82843,0-1.5.6716-1.5,1.5v8c0,.8284.67157,1.5,1.5,1.5h17c.8284,0,1.5-.6716,1.5-1.5v-8c0-.8284-.6716-1.5-1.5-1.5h-17zM7,36v-1h2v1H7zm20,0v-1h-2v1h2zm-6-24h-7v-1h7v1zm19,4c0-.5523.4477-1,1-1s1,.4477,1,1-.4477,1-1,1-1-.4477-1-1zm1-2c-1.1046,0-2,.8954-2,2s.8954,2,2,2,2-.8954,2-2-.8954-2-2-2z"/></svg>