<svg width="48" height="48" viewBox="0,0,48,48" xmlns="http://www.w3.org/2000/svg"><path fill-rule="evenodd" clip-rule="evenodd" d="m17.5672,12.8361C18.6483,9.96945,21.1513,8,24,8c2.8488,0,5.3518,1.96953,6.4328,4.8363-1.2305-.4666-2.3791-1.1307-3.3999-1.9679-.2202-.1913-.4935-.3111-.7835-.3437-.288-.0323-.5789.0231-.8348.1587-.4425.2084-.9256.3166-1.4148.3166s-.9723-.1082-1.4148-.3166c-.2558-.1356-.5468-.191-.8348-.1587-.29.0326-.5632.1524-.7835.3437-1.0207.8371-2.1691,1.5011-3.3995,1.9677zm-.3513,1.1801C17.075,14.6488,17,15.3131,17,16c0,4.4789,3.191,8,7,8s7-3.5211,7-8c0-.6868-.075-1.3511-.2158-1.9837-1.6016-.5054-3.0925-1.3129-4.3917-2.3799l-.0066-.0054-.0064-.0056c-.0676-.0595-.152-.0968-.2415-.1069-.0896-.01-.1801.0077-.2593.0507l-.012.0065-.0122.0059c-.5795.2754-1.2131.4184-1.8547.4184s-1.2752-.143-1.8547-.4184l-.0122-.0059-.012-.0065c-.0792-.043-.1697-.0607-.2593-.0507-.0895.0101-.1739.0474-.2415.1069l-.0064.0056-.0066.0054c-1.2991,1.0669-2.7898,1.8744-4.3912,2.3798zM24,7c-4.4753,0-8,4.0901-8,9,0,2.4536.8802,4.7025,2.3194,6.3385C12.2646,25.2916,8,32.7945,8,41.5v.5h32v-.5c0-8.7051-4.2459-16.2092-10.3188-19.1622C31.12,20.7019,32,18.4533,32,16c0-4.9099-3.5247-9-8-9zM9.00486,41C9.16672,32.6771,13.3575,25.7318,19,23.1223v4.1867l2.5168-1.2584,1.0444,1.1562C22.223,27.4305,22,27.8142,22,28.25v.5c0,.3909.1794.7398.4604.9691l-.9566,7.7194-.03.2424L24,40.2071l2.5249-2.5249-.0283-.2407-.9135-7.7596c.2559-.2289.4169-.5616.4169-.9319v-.5c0-.4358-.2231-.8196-.5612-1.0433l1.0444-1.1561L29,27.309v-4.1873c5.66,2.6088,9.834,9.5539,9.9952,17.8783H9.00486zM28,23.7992c-.6076.3955-1.267.7038-1.9656.909L28,25.691v-1.8918zm-3.6362,1.1917C24.2433,24.997,24.122,25,24,25s-.2433-.003-.3638-.0091l-1.1911.5956L23.722,27h.5559l1.2769-1.4136-1.191-.5955zm-2.3982-.2827c-.6986-.2052-1.358-.5135-1.9656-.909v1.8918l1.9656-.9828zM26,15.5c0-.2761.2239-.5.5-.5s.5.2239.5.5-.2239.5-.5.5-.5-.2239-.5-.5zm.5-1.5c-.8284,0-1.5.6716-1.5,1.5s.6716,1.5,1.5,1.5,1.5-.6716,1.5-1.5-.6716-1.5-1.5-1.5zm-3.8416,6.6833c-.4166-.2083-.779-.5107-1.0584-.8833l.8-.6c.1863.2484.4279.45.7056.5889.2777.1388.5839.2111.8944.2111s.6167-.0723.8944-.2111c.2777-.1389.5193-.3405.7056-.5889l.8.6c-.2794.3726-.6418.675-1.0584.8833C24.9251,20.8916,24.4657,21,24,21s-.9251-.1084-1.3416-.3167zM23.4332,30l-.907,7.3191L24,38.7929l1.4751-1.4751L24.6136,30h-1.1804zM23,28.25c0-.1381.1119-.25.25-.25h1.5c.1381,0,.25.1119.25.25v.5c0,.1381-.1119.25-.25.25h-1.5c-.1381,0-.25-.1119-.25-.25v-.5zM21.5,15c-.2761,0-.5.2239-.5.5s.2239.5.5.5.5-.2239.5-.5-.2239-.5-.5-.5zm-1.5.5c0-.8284.6716-1.5,1.5-1.5s1.5.6716,1.5,1.5-.6716,1.5-1.5,1.5-1.5-.6716-1.5-1.5z"/></svg>