<svg width="36" height="36" xmlns="http://www.w3.org/2000/svg"><path fill-rule="evenodd" clip-rule="evenodd" d="m3.25,4.55615,14,4.66667,13.3419-4.4473.6581-.21937V28.1102l-.3419.114L17.25,32.7769,3.59189,28.2242,3.25,28.1102V4.55615zm1,1.38743V27.3895l12.5,4.1667v-21.446L4.25,5.94358zm13.5,4.16662v21.446l12.5-4.1667V5.94358l-12.5,4.16662zM14.8419,13.9742l-9.00001-3,.31622-.9487,8.99999,3-.3162.9487zM19.6581,13.9742l9-3-.3162-.9487-9,3,.3162.9487zm0,4.5,9-3-.3162-.9487-9,3,.3162.9487zm9,1.4993-9,3-.3162-.9487,9-3,.3162.9487zm-9,7.5,9-3-.3162-.9487-9,3,.3162.9487zM5.84189,15.4742l9.00001,3,.3162-.9487-8.99999-3-.31622.9487zm9.00001,7.5-9.00001-3,.31622-.9487,8.99999,3-.3162.9487zm-9.00001,1.4993,9.00001,3,.3162-.9487-8.99999-3-.31622.9487z"/></svg>