<svg width="24" height="24" xmlns="http://www.w3.org/2000/svg"><path fill-rule="evenodd" clip-rule="evenodd" d="m20,5.08492c.427.15047.765.48862.9157.91508H22v2h-.9998L21,8.50025l-.0001.1179-.0527.10546-1,1.99999L19.809,11h-5.923c-.1747,1.0725-.5191,1.8856-.969,2.4947-.512.6931-1.1404,1.0944-1.7461,1.3169-.6003.2205-1.17277.2637-1.58737.2538-.05214-.0013-.10205-.0034-.14948-.0061l-.43443,3.4759c-.01816.8136-.6832,1.4658-1.49962,1.4658h-2c-.82782,0-1.5-.6705-1.5-1.5v-.0311l.00386-.0309.92969-7.4384-.43305.0004H4.5c-.82814,0-1.5-.6719-1.5-1.5V7H2V6h1.08542c.20602-.58247.76174-1,1.41458-1H19V4h1v1.08492zM12.871,11h-2.87c0,.5526.4479,1,1,1v1c-.4748,0-.9112-.1655-1.25432-.4421l-.18825,1.5063c.01601.0006.03237.0011.04906.0015.32871.0079.76871-.0275,1.21871-.1928.4446-.1633.9041-.4548,1.2864-.9724.3193-.4322.5985-1.0408.7584-1.9005zM4.5,6c-.27586,0-.5.22414-.5.5V8h16.0002l.0008-1.5v-.00025C20.0009,6.22368,19.7774,6,19.501,6H4.5zM4,9.501V9h15.691l-.5,1H9.0586l-.05474.438-1,8.001L8,18.4699v.0311c0,.2765-.22382.5-.5.5h-2c-.26752,0-.4859-.2097-.49934-.4741l.99548-7.9649.07031-.56257L5.4995,10,4.5,10.001c-.27586,0-.5-.22414-.5-.5z"/></svg>