<svg width="48" height="48" viewBox="0,0,48,48" xmlns="http://www.w3.org/2000/svg"><path fill-rule="evenodd" clip-rule="evenodd" d="m12.1081,4.35c.1218-.07306.3088-.15734.5729-.24621.6151-.20692,1.5319-.40112,2.6971-.56692C17.7008,3.20632,20.9261,3,24.5,3s6.7992.20632,9.1219.53687c1.1652.1658,2.082.36,2.6971.56692.2641.08887.4511.17314.5729.24621-.1218.07306-.3088.15734-.5729.24621-.6151.20692-1.5319.40112-2.6971.56692C31.2992,5.49368,28.0739,5.7,24.5,5.7s-6.7992-.20632-9.1219-.53687c-1.1652-.1658-2.082-.36-2.6971-.56692-.2641-.08887-.4511-.17315-.5729-.24621zm24.915-.09739.0023-.0033.0013-.00141c.0001.00001,0,.00022-.0003.00065-.0005.00073-.0016.00209-.0033.00406zm-25.0462,0c-.0028-.00311-.0038-.00469-.0036-.00471.0002-.00001.0016.00155.0036.00471zm3.2603-1.70577C17.6195,2.20781,20.8942,2,24.5,2s6.8805.20781,9.2628.54684c1.1874.16898,2.1744.37342,2.875.60916.3471.11676.6538.25087.8836.41067.2111.14686.4786.40199.4786.78333v7.0701c0,.0497-.0026.0987-.0077.1469l-.0023.0392c-.0061.1029-.0153.2539-.0274.4467-.0244.3857-.0608.9387-.1092,1.609-.0968,1.3402-.2416,3.1511-.4335,5.0313-.1917,1.8785-.4313,3.8342-.7184,5.4614-.1435.8132-.3004,1.5527-.4714,2.1633-.167.5963-.3608,1.1205-.5982,1.4654l-.0005.0008c-.8629,1.2493-1.7484,2.2921-2.6314,3.1601v3.2416l8.3169,4.0037.0121.0058.0119.0065c1.1066.6084,2.0299,1.5024,2.6735,2.5889.6435,1.0865.9839,2.3258.9856,3.5886V46h-1v-1.6193c-.0014-1.084-.2936-2.1477-.846-3.0804-.5502-.9288-1.3385-1.6937-2.2833-2.2158l-8.0731-3.8863c-.5839,1.6048-1.6226,3.0101-2.9947,4.0408-1.3957,1.0482-3.0676,1.657-4.8029,1.7554V46h-1v-5.0056c-1.7353-.0984-3.4072-.7072-4.8029-1.7554-1.3721-1.0307-2.4108-2.436-2.9948-4.0408l-8.07303,3.8863c-.94477.5221-1.73305,1.287-2.28323,2.2158-.55238.9326-.84454,1.9962-.84604,3.08V46H4v-1.6207c.00168-1.2628.34206-2.5021.98565-3.5886s1.56683-1.9805,2.6735-2.5889l.01182-.0065.01215-.0058L16,34.1858v-3.2033c-.8942-.8757-1.7904-1.9312-2.6621-3.1994-.2388-.3455-.433-.8697-.5996-1.4653-.171-.6109-.3271-1.3506-.4694-2.1639-.2848-1.6274-.5203-3.5833-.7077-5.4619-.1875-1.8803-.3276-3.6912-.4208-5.0315-.0466-.6703-.0815-1.2233-.1047-1.6089-.0117-.1929-.0204-.3439-.0262-.4468l-.0027-.0478c-.0045-.045-.0068-.0906-.0068-.1369V4.35c0-.38134.2675-.63647.4786-.78333.2298-.1598.5365-.29391.8836-.41067.7006-.23574,1.6876-.44018,2.875-.60916zM17,34.4278c.4801,1.601,1.4602,3.007,2.7977,4.0116,1.3561,1.0185,3.0063,1.5692,4.7023,1.5692s3.3462-.5507,4.7023-1.5692c1.3375-1.0046,2.3176-2.4106,2.7977-4.0116v-2.5716c-2.9685,2.5041-5.7992,3.1437-7.52,3.1437-1.7125,0-4.5303-.6336-7.48-3.1093v2.5372zM36.6378,5.544c.1267-.04262.248-.08756.3622-.13522v5.99692l-.0015.0254-.0026.0455c-.0137.0953-.0641.2154-.1884.3633-.1523.1813-.3956.3789-.74.583-.6887.408-1.6954.7916-2.9209,1.1205-2.4444.6562-5.6504,1.0667-8.6466,1.0667-2.9953,0-6.2012-.4178-8.6459-1.0777-1.2257-.3309-2.2329-.7155-2.9222-1.1225-.3448-.2037-.5884-.4004-.7408-.5803-.126-.1486-.1749-.2672-.1875-.3588l-.0022-.0383L12,11.4064V5.40878c.1142.04766.2355.0926.3622.13522.7006.23574,1.6876.44018,2.875.60916C17.6195,6.49219,20.8942,6.7,24.5,6.7s6.8805-.20781,9.2628-.54684c1.1874-.16898,2.1744-.37342,2.875-.60916zm-.0606,7.7392c.1093-.0647.2144-.1315.3147-.2005-.0111.1601-.0231.3295-.0359.5071-.0964,1.3342-.2403,3.1346-.4309,5.0019-.1908,1.8689-.4275,3.797-.7084,5.3891-.1406.7966-.2908,1.5007-.4495,2.0674-.1627.5808-.3213.9678-.4588,1.1679-3.931,5.691-8.2504,6.7838-10.3284,6.7838-2.0785,0-6.4073-1.0932-10.3179-6.7832l-.0011-.0015c-.1381-.1995-.2971-.5859-.4597-1.1669-.1585-.5664-.308-1.2703-.4474-2.0668-.2786-1.5919-.5112-3.5198-.6976-5.3887-.1862-1.8672-.3255-3.6675-.4183-5.0016-.0128-.1841-.0247-.3592-.0357-.5244.1022.0702.2095.1382.3211.2041.7998.4724,1.9044.8853,3.17,1.2269.1661.0449.3354.0886.5077.1312.4219,1.201,1.5402,2.1155,2.9552,2.733,1.5411.6725,3.5274,1.038,5.6637,1.038,2.1361,0,4.0333-.3654,5.4786-1.0436,1.327-.6227,2.3248-1.5374,2.7054-2.7182.1703-.0419.3377-.0849.5019-.1289,1.2657-.3398,2.3709-.7519,3.1713-1.2261zm-17.121,3.1623c-.9695-.4231-1.6723-.9501-2.088-1.5347,2.2021.4394,4.7337.6993,7.1318.6993,2.4152,0,4.9663-.259,7.1799-.7005-.3721.5934-1.0095,1.1208-1.906,1.5415-1.2772.5993-3.02.9489-5.0539.9489-2.0337,0-3.8774-.3496-5.2638-.9545zM27.6666,19.2528c.2467-.1648.5367-.2528.8334-.2528.3978,0,.7794.158,1.0607.4393S30,20.1022,30,20.5c0,.2967-.088.5867-.2528.8334-.1648.2466-.3991.4389-.6732.5524-.2741.1136-.5757.1433-.8666.0854-.291-.0579-.5583-.2008-.7681-.4105-.2097-.2098-.3526-.4771-.4105-.7681-.0579-.2909-.0281-.5925.0854-.8666s.3058-.5084.5524-.6732zM28.5,20c-.0989,0-.1956.0293-.2778.0843-.0822.0549-.1463.133-.1841.2244-.0379.0913-.0478.1919-.0285.2888.0193.097.0669.1861.1368.2561.07.0699.1591.1175.2561.1368.0969.0193.1975.0094.2888-.0285.0914-.0378.1695-.1019.2244-.1841.055-.0822.0843-.1789.0843-.2778,0-.1326-.0527-.2598-.1464-.3536C28.7598,20.0527,28.6326,20,28.5,20zm-8-1c-.2967,0-.5867.088-.8334.2528-.2466.1648-.4389.3991-.5524.6732-.1136.2741-.1433.5757-.0854.8666.0579.291.2008.5583.4105.7681.2098.2097.4771.3526.7681.4105.2909.0579.5925.0282.8666-.0854.2741-.1135.5084-.3058.6732-.5524.1648-.2467.2528-.5367.2528-.8334,0-.3978-.158-.7794-.4393-1.0607S20.8978,19,20.5,19zm-.2778,1.0843c.0822-.055.1789-.0843.2778-.0843.1326,0,.2598.0527.3536.1464.0937.0938.1464.221.1464.3536,0,.0989-.0293.1956-.0843.2778-.0549.0822-.133.1463-.2244.1841-.0913.0379-.1919.0478-.2888.0285-.097-.0193-.1861-.0669-.2561-.1368-.0699-.07-.1175-.1591-.1368-.2561-.0193-.0969-.0094-.1975.0285-.2888.0378-.0914.1019-.1695.1841-.2244zM21.51,9.88,23.5,8h-1.49l-2.49,2.5,2.49,2.5h1.49l-1.99-1.87h2.37V13h1.24v-1.87h2.37L25.5,13h1.49l2.49-2.5L26.99,8H25.5l1.99,1.88h-2.37V8h-1.24v1.88h-2.37zm3.042,18.1206c1.8715.0823,3.7036-.5541,5.1211-1.7788l.6538.7566c-1.6054,1.3871-3.6788,2.11-5.7981,2.0221-2.0076.0734-3.9766-.5667-5.5574-1.807l.6173-.7868c1.3996,1.0982,3.1441,1.6631,4.9218,1.5938l.0208-.0008.0207.0009zM31,42h8v4h-8v-4zm1,1v2h6v-2h-6z"/></svg>