<svg width="36" height="36" viewBox="0,0,36,36" xmlns="http://www.w3.org/2000/svg"><path fill-rule="evenodd" clip-rule="evenodd" d="m16.25,13.5c0-2.5917.8086-4.91971,2.093-6.58944C19.627,5.24138,21.3662,4.25,23.25,4.25s3.623.99138,4.907,2.66056C29.4414,8.58029,30.25,10.9083,30.25,13.5s-.8086,4.9197-2.093,6.5894c-1.284,1.6692-3.0232,2.6606-4.907,2.6606s-3.623-.9914-4.907-2.6606c-1.2844-1.6697-2.093-3.9977-2.093-6.5894zm7-10.25c-2.2583,0-4.2691,1.19123-5.6996,3.05085-.307.39906-.5882.82981-.8405,1.28789-1.1398-.84721-2.522-1.31878-3.9529-1.33869V6.25h-.007c-2.2573,0-4.26808,1.19121-5.69878,3.05073C5.6209,11.1597,4.75,13.7067,4.75,16.5s.8709,5.3403,2.30122,7.1993c1.32417,1.721,3.14528,2.8696,5.19878,3.0311V33h1v-6.2942c1.3165-.1613,2.5735-.654,3.6517-1.4354,1.0231-.7415,1.8494-1.7169,2.4123-2.8409,1.0189.7377,2.1842,1.2025,3.436,1.3009V33h1v-9.2696c2.0544-.1614,3.8756-1.31,5.1996-3.0313,1.4301-1.859,2.3004-4.406,2.3004-7.1991s-.8703-5.34007-2.3004-7.19915C27.5191,4.44123,25.5083,3.25,23.25,3.25zm-4.7298,18.5227c-.4908,1.0689-1.2497,1.9954-2.2054,2.688-1.0477.7593-2.2891,1.2063-3.5802,1.2893-1.8768-.0054-3.61003-.9958-4.89082-2.6605C6.5591,21.4197,5.75,19.0917,5.75,16.5s.8091-4.9197,2.09378-6.58948C9.12729,8.24232,10.8652,7.25122,12.7465,7.25c1.2809.0186,2.5159.46166,3.5137,1.25416C15.6148,9.98632,15.25,11.6916,15.25,13.5c0,2.7931.8703,5.3401,2.3004,7.1991.2989.3887.6232.7481.9698,1.0736zm-.1443-9.8485c.4189-2.73092,1.9189-5.03092,3.9992-5.56831l.2501.96821c-1.5198.39261-2.8698,2.20261-3.2609,4.7517l-.9884-.1516zm-6.4971-2.53927C9.79577,9.9057,8.29489,12.193,7.8759,14.9242l.98844.1516c.391-2.5488,1.74016-4.3415,3.25706-4.7207l-.2426-.97017z"/></svg>