<svg width="24" height="24" viewBox="0,0,24,24" xmlns="http://www.w3.org/2000/svg"><path fill-rule="evenodd" clip-rule="evenodd" d="m22,4H6v1h1v5h1V5h12v16H8v-3H7v3H6v-4.0513c.08912.0193.17942.0338.27052.0433.36367.0378.73123-.0045,1.07675-.1241s.66061-.3135.92304-.5681.46582-.5637.59584-.9055c.13001-.3417.18347-.7078.15663-1.0725-.02685-.3646-.13336-.7189-.31202-1.0379-.17866-.3191-.42512-.595-.72201-.8084-.15589-.1121-.32369-.2055-.49993-.2787.00651-.0632.01019-.1267.01101-.1904h.00004V12c0-.5304-.21071-1.0391-.58579-1.4142C6.53901,10.2107,6.0303,10,5.49987,10s-1.03914.2107-1.41421.5858c-.37508.3751-.58579.8838-.58579,1.4142h-.00004l.00008.0064c.00081.0637.0045.1272.01101.1904-.17624.0732-.34404.1666-.49993.2787-.29689.2134-.54335.4893-.72201.8084-.17866.319-.28517.6733-.31202,1.0379-.02684.3647.02662.7308.15663,1.0725.13001.3418.33341.6509.59584.9055s.57751.4485.92304.5681c.34552.1196.71308.1619,1.07675.1241.09119-.0095.18158-.024.27078-.0434V21H2v1h19V5h1V4zM10.5,6H10v4h8V6h-7.5zm.5,3V7h6v2h-6zm-1,2h8v4h-8v-4zm1,1v2h6v-2h-6zm-.5,4H10v4h8v-4h-7.5zm6.5,3h-6v-2h6v2zM6.43077,12.3669l.4691.1731-.09259.4914c.21559.0406.41965.128.59778.256.17813.1281.32601.2937.43321.4851.10719.1914.1711.404.1872.6228.01611.2188-.01597.4384-.09397.6435-.07801.205-.20004.3905-.3575.5432-.15746.1528-.34651.2691-.55383.3409-.20731.0718-.42785.0972-.64605.0744-.2182-.0227-.42876-.093-.61684-.2059l-.25741-.1546-.25741.1546c-.18808.1129-.39864.1832-.61684.2059-.21821.0228-.43874-.0026-.64605-.0744-.20732-.0718-.39637-.1881-.55383-.3409-.15746-.1527-.27949-.3382-.3575-.5432-.078-.2051-.11008-.4247-.09398-.6435.01611-.2188.08002-.4314.18721-.6228.1072-.1914.25507-.357.43321-.4851.17813-.128.38219-.2154.59778-.256l.58122-.1096-.20472-.5549c-.04375-.1186-.0671-.2437-.06909-.3701.00084-.264.1061-.5171.29289-.7039.18754-.1875.44189-.2929.70711-.2929s.51957.1054.70711.2929c.18679.1868.29205.4399.29288.7039-.00198.1264-.02533.2515-.06909.3701z"/></svg>