<svg width="24" height="24" viewBox="0,0,24,24" xmlns="http://www.w3.org/2000/svg"><path fill-rule="evenodd" clip-rule="evenodd" d="m7.92031,3.99371c-.26262-.04247-.53158-.02195-.78472.05985-.25315.0818-.48325.22255-.67136.41067-.18812.18811-.32887.41821-.41067.67136-.0818.25314-.10232.5221-.05985.78472l.0064.03965v2.04015h6.05039c.0973-.47672.3325-.91857.6817-1.26776.4689-.46884,1.1048-.73223,1.7678-.73223s1.2989.26339,1.7678.73223c.3492.34919.5844.79104.6817,1.26776h1.0506V5.95996l.0064-.03965c.0425-.26262.022-.53158-.0598-.78472-.0818-.25315-.2226-.48325-.4107-.67136-.1881-.18812-.4182-.32887-.6714-.41067-.2531-.0818-.5221-.10232-.7847-.05985l-.0396.00641H7.95996l-.03965-.00641zm7.99389,4.0064c-.0739-.20895-.1938-.40095-.3535-.56065-.2813-.28131-.6629-.43934-1.0607-.43934s-.7794.15803-1.0607.43934c-.1597.1597-.2796.3517-.3535.56065h2.8284zM18.0001,9.00011H6.00011v3.99999H18.0001V9.00011zm1,4.49999V8.00011H20v-1h-.9999v-.96192c.0591-.40566.0243-.81966-.1019-1.21009-.1305-.40383-.355-.77089-.6551-1.07098s-.6671-.52462-1.071-.65511c-.3904-.12617-.8044-.16094-1.2101-.10189H8.03819c-.40566-.05905-.81966-.02428-1.21009.10189-.40383.13049-.77089.35502-1.07098.65511s-.52462.66715-.65511,1.07098c-.12617.39043-.16094.80443-.1019,1.21009v.96192H4v1h1.00011v5.49999H5v2.5h4v-2h6v2h4v-2h.0001v-.5zM6,15.0001v-1h2v1H6zm10,0v-1h2v1h-2zm-9-4c0-.5523.44772-1,1-1s1,.4477,1,1-.44772,1-1,1-1-.4477-1-1zm8,0c0-.5523.4477-1,1-1s1,.4477,1,1-.4477,1-1,1-1-.4477-1-1zm-1,7v-1h-1.5c-.663,0-1.2989.2634-1.7678.7322-.3492.3492-.5844.7911-.6817,1.2678H7v1h3.0505c.0973.4767.3325.9186.6817,1.2678.4689.4688,1.1048.7322,1.7678.7322H14v-1h2v-1h-2v-1h2v-1h-2zm-2.5607.4394c.2813-.2813.6629-.4394,1.0607-.4394h.5v3h-.5c-.3978,0-.7794-.158-1.0607-.4393S11,19.8979,11,19.5001s.158-.7793.4393-1.0606z"/></svg>