<svg width="48" height="48" viewBox="0,0,48,48" xmlns="http://www.w3.org/2000/svg"><path fill-rule="evenodd" clip-rule="evenodd" d="m3,24C3,12.402,12.402,3,24,3s21,9.402,21,21-9.402,21-21,21S3,35.598,3,24zM24,2C11.8497,2,2,11.8497,2,24s9.8497,22,22,22,22-9.8497,22-22S36.1503,2,24,2zm-6.13,12.33c-.7723,1.4684-1.1513,3.1117-1.1,4.77l1.34.02c-.0373-1.3443.2365-2.679.8-3.9.4856-.9632,1.2447-1.7617,2.1822-2.2954.9375-.5336,2.0116-.7788,3.0878-.7046.7585-.0414,1.5176.07,2.2322.3277s1.3702.6564,1.9278,1.1723c.4712.4498.8449.9918,1.0978,1.5922s.3796,1.2464.3722,1.8978c-.0204,1.2971-.4945,2.5461-1.34,3.53-.7272.8468-1.5088,1.6451-2.34,2.39-.9509.7959-1.7358,1.7711-2.31,2.87-.3754,1.2332-.5311,2.5229-.46,3.81h1.37c-.032-1.0072.0587-2.0146.27-3,.1237-.4572.3304-.8877.61-1.27.444-.549.9287-1.0637,1.45-1.54.9641-.858,1.8726-1.7765,2.72-2.75.9426-1.1658,1.4547-2.6208,1.45-4.12.0101-.7815-.139-1.5569-.4381-2.2789-.2992-.7221-.7421-1.3757-1.3019-1.9211-.7009-.6634-1.5298-1.1768-2.4359-1.5086-.9062-.3319-1.8706-.4753-2.8341-.4214-1.3037-.0222-2.5924.2802-3.75.88-1.0817.5533-1.9835,1.4031-2.6,2.45zM24.77,37v-3.4H23.3V37h1.47z"/></svg>