<svg width="36" height="36" viewBox="0,0,36,36" xmlns="http://www.w3.org/2000/svg"><path fill-rule="evenodd" clip-rule="evenodd" d="m18,4.25C10.4056,4.25,4.25,10.4056,4.25,18S10.4056,31.75,18,31.75,31.75,25.5944,31.75,18,25.5944,4.25,18,4.25zM3.25,18C3.25,9.85336,9.85336,3.25,18,3.25c8.1466,0,14.75,6.60336,14.75,14.75,0,8.1466-6.6034,14.75-14.75,14.75C9.85336,32.75,3.25,26.1466,3.25,18zm15.4024,6.1267c.822-.006,1.494-.264,2.019-.7694.5235-.507.7845-1.1551.7845-1.9485,0-.813-.225-1.4566-.6795-1.9275-.453-.471-1.1595-.795-2.124-.972v5.6174zm-1.167-12.7005c-.687.021-1.2255.1665-1.614.435-.6945.4815-1.0425,1.1746-1.0425,2.0821,0,.708.2175,1.2675.6495,1.677.432.4125,1.0995.6945,2.007.8505v-5.0446zm-4.7265,9.3015h1.8045c0,2.1541.975,3.2865,2.922,3.399v-5.8725c-1.083-.183-1.9965-.513-2.7405-.987-1.1325-.7155-1.6995-1.7745-1.6995-3.1755,0-1.197.402-2.172,1.2045-2.9265.8055-.7545,1.8825-1.1625,3.2355-1.22695v-1.9005h1.167v1.9005c1.3455.10645,2.3655.50395,3.0585,1.18945.7515.7365,1.119,1.707,1.104,2.91h-1.7835c-.1125-1.677-.906-2.5455-2.379-2.601v5.3205c.894.2265,1.5105.4005,1.854.5205s.6645.2761.9615.4665c1.182.765,1.773,1.9291,1.773,3.4935,0,1.614-.6585,2.844-1.9755,3.6855-.63.405-1.5015.6375-2.613.702v2.337h-1.167v-2.337c-1.593-.099-2.7765-.5745-3.5475-1.4235-.7935-.8775-1.1865-2.0354-1.179-3.474zm.5412-13.49325C10.087,8.6388,7.6437,11.4416,6.69302,14.8669l.96357.2674c.87032-3.1357,3.10701-5.6999,6.04401-6.98355l-.4005-.9163z"/></svg>