<svg width="59" height="20" viewBox="0,0,59,20" xmlns="http://www.w3.org/2000/svg"><path fill-rule="evenodd" clip-rule="evenodd" d="m2,0C.89543,0,0,.895431,0,2v16c0,1.1046.895431,2,2,2h55c1.1046,0,2-.8954,2-2V2c0-1.104569-.8954-2-2-2H2z" fill="#eb0000"/><path fill-rule="evenodd" clip-rule="evenodd" d="m8.12901,15.7325c.11368.0467.23566.0697.35848.0675H21.1237l-4.0776-3.507H9.1839l1.7924-1.776h7.9312l1.7924-1.77596h-7.9331l1.7475-1.79845h7.9313l2.711-2.74263H12.6548c-.2969-.01153-.5913.05843-.8514.20233l-.2222.17984-.2707.2248L4.50132,11.6635c-.19595.1501-.31229.3822-.31553.6295-.00398.2022.08823.3942.24832.517l.44623.3822,2.55413,2.0458.40328.3372c.07739.0829.17967.1381.29126.1573zm15.28189.0225.3342.045h11.9417l3.4951-3.507H24.6861l5.2651-5.35041H42.677l2.6886-2.74263H27.3093l-7.261,7.41864c-.1364.1257-.2596.2651-.3678.4159-.0433.087-.0632.1838-.0579.281-.0066.1752.0581.3456.1793.4721l.3379.2697,2.4197,2.0907.3137.2923c.1133.0834.2325.1585.3566.2248.0896.0449.1493.0749.1811.0899z" fill="#fff"/></svg>