<svg width="24" height="24" viewBox="0,0,24,24" xmlns="http://www.w3.org/2000/svg"><path fill-rule="evenodd" clip-rule="evenodd" d="m2,2h20.0001v2.20711l-.1464.14644-.8536.85356V22.0003H3V5.20711l-.85355-.85356L2,4.20711V2zm1,1v.79289l.85355.85356L4,4.79289V21.0003h2V9h11.9981L18,9.49808l.0441,11.50222h1.956V4.79289l.1465-.14644.8535-.85356V3H3zm14.0441,18.0003L17.0019,10H7v11.0003h1.80743c-.03755-.1251-.07768-.265-.11863-.4176-.17717-.6604-.37248-1.5692-.43783-2.5494-.12841-1.9262.24091-4.3383,2.52523-5.4805l.7021-.3511.0214.7847.004.15c.0201.7554.0456,1.717.1635,2.5905.0629.4656.1497.887.2678,1.227.1215.3497.2573.5575.3815.6591l.0011.0013c.0074.0084.0422.0484.2189-.0486.1974-.1085.4343-.3269.6779-.6104.2366-.2752.4503-.5767.6067-.8132.0776-.1173.1398-.2167.1824-.2862.0212-.0348.0374-.0619.0481-.08l.0119-.0201.0026-.0046.0004-.0007.0001-.0001v-.0001l.5415-.9404.363,1.0229L14.4998,16c.4713-.1672.4713-.1671.4713-.167l.0002.0004.0013.0039.0036.0101.0124.0363c.0106.0312.0255.0763.0439.1336.0366.1147.0869.2788.1426.4804.1111.402.2453.9582.3351,1.5704.0894.6094.1375,1.292.0668,1.9411-.0364.3344-.1057.6721-.2243.9911h1.6914zm-2.7976,0H9.85529c-.05555-.1699-.12652-.4005-.20064-.6767-.16658-.6209-.34625-1.4621-.4059-2.3569-.10297-1.5446.15431-3.0993,1.27765-4.0602.0225.6124.062,1.3036.1498,1.9541.0674.4989.1654.9932.3142,1.4215.1454.4185.3586.8315.6928,1.1049.4539.3713.9686.2562,1.3347.0551.3572-.1962.6881-.5246.9549-.8349.1229-.1431.239-.2903.3448-.4322.0741.3066.148.6621.2032,1.0382.0825.5624.1203,1.1533.0621,1.6877-.0481.4411-.1581.8135-.3364,1.0994z"/></svg>