<svg width="48" height="48" viewBox="0,0,48,48" xmlns="http://www.w3.org/2000/svg"><path fill-rule="evenodd" clip-rule="evenodd" d="m14.9314,11.6395c1.5168-.3772,2.962-.6398,4.0685-.6398,2.1988,0,3.4756.6638,4.2564,1.382.3442.3166.5789.6321.7436.8683.1646-.2362.3993-.5517.7435-.8683.7808-.7182,2.0576-1.382,4.2565-1.382,1.1065,0,2.5516.2626,4.0685.6398,1.5258.3794,3.1592.8838,4.6554,1.3862,1.4971.5026,2.8623,1.005,3.853,1.3816.4955.1883.8977.3454,1.1763.4554.1393.0551.2478.0984.3216.128l.0842.0339.0217.0088.0057.0023.0014.0006.0004.0001c.0001.0001.0002.0001-.1883.4632.2752.4175.2752.4175.275.4176l-.0004.0003-.0015.001-.0056.0036-.0214.0141-.0829.054c-.0728.0471-.1799.1162-.3184.2044-.2771.1764-.6799.4296-1.1848.7376-1.0094.6158-2.4281,1.4517-4.0658,2.3325-3.1411,1.6893-7.1313,3.5676-10.5941,4.3524v2.8827c.4179-.3138.9372-.4998,1.5-.4998,1.3807,0,2.4999,1.1192,2.5,2.4998.4179-.3138.9372-.4998,1.5-.4998,1.3807,0,2.4999,1.1192,2.5,2.4998.4179-.3138.9372-.4998,1.5-.4998,1.3808,0,2.5,1.1193,2.5,2.5v6.0006c0,1.4995-.0454,3.7083-1.0527,5.723l-.8945-.4472c.8917-1.7834.9472-3.7765.9472-5.2758V32.5c0-.8284-.6715-1.5-1.5-1.5-.8284,0-1.5.6716-1.5,1.5V40h-1v-9.5c0-.8284-.6715-1.5-1.5-1.5-.8284,0-1.5.6716-1.5,1.5V38h-1v-9.5c0-.8284-.6715-1.5-1.5-1.5-.8284,0-1.5.6716-1.5,1.5V36h-1V18.5c0-.8284-.6715-1.5-1.5-1.5-.8284,0-1.5.6716-1.5,1.5V38h-1v-3.5c0-.8284-.6715-1.5-1.5-1.5-.8284,0-1.5.6716-1.5,1.5h-1c0-1.3807,1.1193-2.5,2.5-2.5.5628,0,1.0822.186,1.5.4998v-8.684c-3.512-.5867-7.7424-2.5111-11.1072-4.2909-1.7611-.9316-3.30151-1.8326-4.40172-2.5006-.55026-.3342-.99082-.6103-1.29427-.8032-.15174-.0965-.26922-.1721-.34902-.2239l-.09103-.0592-.02353-.0154-.00613-.004-.00163-.0011-.00046-.0003c-.00013-.0001-.00022-.0002.27503-.4176-.1885-.4631-.18843-.4631-.18832-.4632l.0004-.0001.00148-.0006.00562-.0023.02174-.0088.08423-.0339c.07379-.0296.18223-.0729.32155-.128.27863-.11.68083-.2671,1.17634-.4554.9907-.3766,2.35591-.879,3.85302-1.3816,1.4961-.5024,3.1295-1.0068,4.6554-1.3862zm-9.93146,3.8601-.27525.4174-.79256-.5226.87931-.3579.1885.4631zM21.9999,22.801V18.5c0-.0134.0001-.0269.0004-.0402-4.296-.1499-8.4869-.7462-11.643-1.3147-.94828-.1709-1.80403-.3394-2.54216-.4927.98498.5834,2.20026,1.2772,3.54506,1.9885,3.3052,1.7483,7.3343,3.5711,10.6397,4.1601zm.2229-5.3344C22.6161,16.6015,23.4877,16,24.4999,16c.9963,0,1.8565.5828,2.2582,1.426,4.1156-.1963,8.0892-.7841,11.0649-1.3312,1.4337-.2636,2.6338-.5173,3.5042-.7125l-.1057-.0403c-.9823-.3734-2.3347-.871-3.816-1.3683-1.4823-.4977-3.0881-.9932-4.5784-1.3638-1.4993-.3728-2.8474-.6102-3.8272-.6102-1.9739,0-3.0014.5862-3.5795,1.118-.297.2732-.4929.5477-.6489.7746l-.0279.0407c-.0646.0945-.1373.2007-.2051.2812-.0404.0481-.0986.1111-.1738.1647-.0769.0548-.2017.1208-.3648.1208s-.2879-.066-.3649-.1208c-.0752-.0536-.1333-.1166-.1738-.1647-.0678-.0805-.1404-.1867-.2051-.2812l-.0279-.0407c-.156-.2269-.3519-.5014-.6488-.7746-.5782-.5318-1.6057-1.118-3.5795-1.118-.9799,0-2.3279.2374-3.8272.6102-1.4904.3706-3.0962.8661-4.5784,1.3638-1.48131.4973-2.8337.9949-3.816,1.3683l-.10635.0405c.94193.2114,2.27013.4915,3.86265.7784,3.1755.5721,7.392,1.1693,11.6882,1.3057zm4.7757.9488c.001.0281.0014.0563.0014.0846v4.0904c3.2714-.7814,7.0605-2.5608,10.1204-4.2064,1.1544-.6209,2.199-1.2194,3.0653-1.7325-.6434.1336-1.3762.2787-2.1818.4268-2.9556.5434-6.899,1.1291-11.0053,1.3371zM18.4999,34.5h.5v5.8996c0,1.4551.2803,2.424.9081,3.3103l-.8161.578c-.7759-1.0954-1.092-2.2815-1.092-3.8883V34.5h.5zm24.4999-19.0004.1885-.4631.8794.358-.7927.5226-.2752-.4175z"/></svg>