<svg width="24" height="24" viewBox="0,0,24,24" xmlns="http://www.w3.org/2000/svg"><path fill-rule="evenodd" clip-rule="evenodd" d="m12,4.00806c-3.31414,0-6,2.68585-6,6.00004v.0098l.00038.0098c.04078,1.0392.35052,1.9131.83703,2.7229h-.00012l.00632.01,4.74999,7.499.4224.6669.4224-.6669,4.75-7.499.0062-.0098.0058-.0101c.4721-.8281.7906-1.7198.7996-2.7282v-.0044c0-3.31424-2.6869-6.00004-6-6.00004zM7.69161,12.2306c-.41011-.6841-.65694-1.392-.6916-2.23236C7.0053,7.2409,9.24142,5.00806,12,5.00806c2.7602,0,4.9988,2.237,5,4.99774-.0074.7871-.2526,1.5078-.6627,2.2297l-4.3213,6.8222-4.32439-6.8271zm3.14039.9725v-2.466h1.527c.57,0,.944.038,1.122.115.457.191.686.571.686,1.139,0,.505-.17.853-.509,1.044-.199.112-.586.168-1.161.168h-1.665zm0-3.21302v-2.179h1.583c.446,0,.745.03.897.091.182.073.323.196.423.369.101.172.152.38.152.622,0,.243-.059.455-.175.637s-.273.305-.468.369c-.196.061-.499.091-.911.091h-1.501zm1.704-2.983H9.99902v7.00102H12.929c.474,0,.857-.085,1.147-.254.618-.365.928-.963.928-1.796,0-.635-.222-1.119-.664-1.451-.13-.099-.313-.184-.548-.254.29-.124.518-.31902.684-.58402.165-.265.248-.568.248-.91,0-.322-.076-.62-.227-.893s-.356-.481-.615-.625c-.281-.156-.731-.234-1.346-.234z"/></svg>