<svg width="24" height="24" viewBox="0,0,24,24" xmlns="http://www.w3.org/2000/svg"><path fill-rule="evenodd" clip-rule="evenodd" d="m4.60652,4.99072H4v1h.60652c1.13664,0,2.24767.25384,3.23955.7795l1.43709.76161c-.74339,1.26431-.36233,3.03127,1.06404,3.67737l.0314.014,2.5172,1.1045c1.0178.4466,2.1171.6772,3.2286.6772h3.4859l.3811.202c.6203.3287,1.0086.9741,1.0086,1.6774,0,.0357-.0009.0712-.0026.1064H7v1h13.6869c-.3708.6003-1.034,1-1.7901,1H2v1h1.05001c.07499.3695.23145.7093.44981,1H2v1h20v-1h-8.4863c.2183-.2907.3748-.6305.4498-1h4.9333c1.7144,0,3.1032-1.3914,3.1032-3.1064,0-1.0731-.5925-2.0587-1.5403-2.561L8.31434,5.88664c-1.14859-.60872-2.42264-.89592-3.70782-.89592zm6.15328,5.30758c-.8209-.37186-1.11027-1.47373-.5918-2.29753l7.5554,4.00413h-1.599c-.9731,0-1.9357-.2019-2.8268-.5929l-2.5172-1.1045-.0206-.0092zM10.0988,17.9907c.206.5826.7616,1,1.4147,1s1.2087-.4174,1.4146-1h-2.8293zm-1.03531,0h-1.1135c-.07499.3695-.23145.7093-.44981,1H9.5133c-.21836-.2907-.37482-.6305-.44981-1zM4.08535,17.9907c.20592.5826.76154,1,1.41465,1s1.20873-.4174,1.41465-1h-2.8293zM3,5.99072H2v-1h1v1zm0,8.99998H2v1h1v-1zm1,0h2v1H4v-1zm.9996-2.999H3v1h1.9996v-1zM6,10.9911c0-.5525-.44789-1.00038-1.0004-1.00038v-1C6.10439,8.99072,7,9.88633,7,10.9911c0,1.1048-.89561,2.0004-2.0004,2.0004v-1c.55251,0,1.0004-.4479,1.0004-1.0004zM2,9.99072h2v-1H2v1z"/></svg>