<svg width="48" height="48" viewBox="0,0,48,48" xmlns="http://www.w3.org/2000/svg"><path fill-rule="evenodd" clip-rule="evenodd" d="m7.08008,8.12H38.0801v6h3v20.5c0,1.1935-.4741,2.3381-1.318,3.182-.844.8439-1.9885,1.318-3.182,1.318h-25c-1.1935,0-2.33809-.4741-3.182-1.318-.84392-.8439-1.31802-1.9885-1.31802-3.182V8.12zm31.00002,7v20.5h-1V9.12H8.08008v25.5c0,.9283.36875,1.8185,1.02512,2.4749.65638.6564,1.5466,1.0251,2.4749,1.0251h25c.9282,0,1.8185-.3687,2.4749-1.0251.6563-.6564,1.0251-1.5466,1.0251-2.4749v-19.5h-2zm-28,1h10v7h-10v-7zM11.0801,17.12v5h8v-5h-8zm11.5,8h-.5v7h12v-7h-11.5zm.5,6v-5h10v5h-10zm11-10h-12v-1h12v1zm-12-4h12v-1h-12v1zm12-4h-24v-1h24v1zm-24,13h10v-1h-10v1zM20.0801,30.12h-10v-1h10v1zm-10,4v1h24v-1h-24z"/></svg>