<svg width="36" height="36" viewBox="0,0,36,36" xmlns="http://www.w3.org/2000/svg"><path fill-rule="evenodd" clip-rule="evenodd" d="m33,4.25h-1.75v23H33v1H16.25V33h-1v-4.75H13.5v-1h16.75v-23h-5v2h1.5v5.5h-11.5v-5.5h1.5v-2H13.5v-1H33v1zm-15.25,0v2h6.5v-2h-6.5zM7.25,24c0-.1381.11193-.25.25-.25s.25.1119.25.25-.11193.25-.25.25-.25-.1119-.25-.25zm.25-1.25c-.69036,0-1.25.5596-1.25,1.25s.55964,1.25,1.25,1.25,1.25-.5596,1.25-1.25-.55964-1.25-1.25-1.25zm-4.5-3h7.75v-5.5c0-.8982-.3332-1.492-.86063-1.8786C9.33873,11.9677,8.52013,11.75,7.5,11.75H3v-1h1.07644l.58333-3.5H3v-1h4.5v1H5.67356l-.58333,3.5H7.5c1.13987,0,2.19627.2398,2.9806.8149.8076.5921,1.2694,1.4983,1.2694,2.6851v14H9.00827l.85714,2H12v1h-1.706l.6656,1.553-.9192.394-.83438-1.947H3v-1h5.77744l-.85714-2H3v-1h7.75v-6.5H3v-1zm13.25-9v-3.5h9.5v3.5h-9.5z"/></svg>