<svg width="24" height="24" viewBox="0,0,24,24" xmlns="http://www.w3.org/2000/svg"><path fill-rule="evenodd" clip-rule="evenodd" d="m22,3h-1v15h1v1H11v3h-1v-3H9v-1h11V3h-3v1h1v4h-8V4h1V3H9V2h13v1zM12,3v1h4V3h-4zM5,15c-.55228,0-1,.4477-1,1s.44772,1,1,1,1-.4477,1-1-.44772-1-1-1zm-3-2h5V9.5c0-.55067-.20071-.89445-.50563-1.11801C6.16623,8.14141,5.66013,8,5,8H2V7h.57644l.33333-2H2V4h3v1H3.92356l-.33333,2H5c.77987,0,1.52377.16359,2.08563.57551C7.6707,8.00446,8,8.66067,8,9.5V19H6.25827l.42857,1H8v1h-.88459l.34416.803-.91914.394L6.02744,21H2v-1h3.59887l-.42857-1H2v-1h5v-4H2v-1zm9-6V5h6v2h-6z"/></svg>