<svg width="36" height="36" viewBox="0,0,36,36" xmlns="http://www.w3.org/2000/svg"><path fill-rule="evenodd" clip-rule="evenodd" d="m12.25,3.25h11.5v6h1c1.1046,0,2,.8954,2,2v5.5h1.5v2.5h-1.5v5.5c0,1.1046-.8954,2-2,2h-1v6h-11.5v-6h-1c-1.1046,0-2-.8954-2-2v-13.5c0-1.1046.8954-2,2-2h1v-6zm14.5,15v-.5h.5v.5h-.5zm-13.5,8.5v5h9.5v-5h-9.5zm9.5-22.5v5h-9.5v-5h9.5zm-11.5,6c-.5523,0-1,.4477-1,1v13.5c0,.5523.4477,1,1,1h13.5c.5523,0,1-.4477,1-1v-13.5c0-.5523-.4477-1-1-1h-13.5zm6.5,3.25v4.7472l4.8072-.0272.0056,1-5.31.03-.5028.0028V13.5h1z"/></svg>