<svg width="24" height="24" viewBox="0,0,24,24" xmlns="http://www.w3.org/2000/svg"><path fill-rule="evenodd" clip-rule="evenodd" d="m2.5,2H2v20h20V2H2.5zM3,21V3h18v18H3zm5.4761-10.5136c-1.46029.7442-2.47097,2.2644-2.47097,4.0135,0,2.4741,2.02585,4.5,4.49997,4.5,1.7952,0,3.3513-1.0657,4.0721-2.5903l-.9041-.4274c-.5632,1.1913-1.7772,2.0177-3.168,2.0177-1.92183,0-3.49997-1.5782-3.49997-3.5,0-1.355.78332-2.5407,1.92502-3.1225l-.45405-.891zM10,13.4998V7.99976h1v5.00004h5v6h-1v-5h-5v-.5zm.5-8.49956c-.55214,0-1,.44786-1,1,0,.55215.44786,1,1,1,.5521,0,1-.44785,1-1,0-.55214-.4479-1-1-1z"/></svg>