<svg width="24" height="24" viewBox="0,0,24,24" xmlns="http://www.w3.org/2000/svg"><path fill-rule="evenodd" clip-rule="evenodd" d="m1.90015,11.9998c0-3.41135,1.03687-5.91275,2.39466-7.79277l.81068.58549C3.86328,6.5125,2.90015,8.81111,2.90015,11.9998c0,3.1827.95943,5.387,2.21258,7.2175l-.82517.5649c-1.34685-1.9674-2.38741-4.3651-2.38741-7.7824zm4.10205,2.4976c0-1.7479,1.01059-3.2693,2.47124-4.0126l.45351.8913c-1.14134.5807-1.92475,1.7673-1.92475,3.1213,0,1.9237,1.57798,3.5,3.5,3.5,1.391,0,2.6048-.8255,3.168-2.0167l.904.4274c-.7209,1.5249-2.277,2.5893-4.072,2.5893-2.47398,0-4.5-2.0237-4.5-4.5zm15.8984-2.4976c0-3.4174-1.0406-5.81411-2.3884-7.78251l-.8251.56498c1.2541,1.83159,2.2135,4.03488,2.2135,7.21753,0,3.1886-.9631,5.4872-2.2062,7.2071l.8104.5858c1.3589-1.8801,2.3958-4.3816,2.3958-7.7929zM10,13.4998V7.99978h1v5.00002h5v6h-1v-5h-5v-.5zm.5-8.49954c-.55214,0-1,.44786-1,1,0,.55215.44786,1,1,1,.5521,0,1-.44785,1-1,0-.55214-.4479-1-1-1z"/></svg>