<svg width="48" height="48" viewBox="0,0,48,48" xmlns="http://www.w3.org/2000/svg"><path fill-rule="evenodd" clip-rule="evenodd" d="m17.4897,18.4896C19.0837,16.8955,21.2457,16,23.5001,16c2.2543,0,4.4163.8955,6.0104,2.4896,1.594,1.594,2.4895,3.7559,2.4896,6.0102-.0036,1.5519-.4271,3.074-1.2256,4.4049-.7773,1.2956-1.882,2.3629-3.2019,3.0953h-2.5725v-3.7597l2.3123-1.8499-.6247-.7808-2.5,2-.1876.1501V32h-1v-4.2403l-.1877-.1501-2.5-2-.6247.7808,2.3124,1.8499V32h-2.5685c-1.3052-.7506-2.3978-1.8227-3.1732-3.115-.7966-1.3277-1.2305-2.8413-1.2583-4.3894.0011-2.2527.8965-4.413,2.4896-6.006zm.5104,13.7679c-1.0434-.7691-1.928-1.7394-2.5992-2.858-.8875-1.4793-1.3706-3.1659-1.4007-4.8908L14,24.5h.0001c0-2.5196,1.0009-4.9359,2.7825-6.7175S20.9805,15,23.5001,15c2.5195,0,4.9359,1.0009,6.7175,2.7825s2.7825,4.1979,2.7825,6.7175v.0011c-.0038,1.7328-.4766,3.4322-1.3681,4.9181-.6755,1.1259-1.5725,2.0974-2.6319,2.8583v6.7772l-.3348.1172-3.6652,1.2828V42h-3v-1.5453l-3.6652-1.2828-.3348-.1172v-6.7972zm1,1.7425v-1h9v1h-2v1h2v1h-2v1h2v1.3453l-3.6652,1.2828-.3348.1172V41h-1v-1.2547l-.3348-.1172-3.6652-1.2828V37h2v-1h-2v-1h2v-1h-2z"/></svg>