<svg width="48" height="48" viewBox="0,0,48,48" xmlns="http://www.w3.org/2000/svg"><path fill-rule="evenodd" clip-rule="evenodd" d="m22.8888,2.33706C23.2177,2.1173,23.6044,2,23.9999,2c.5305,0,1.0392.21071,1.4143.58579.375.37507.5857.88378.5857,1.41421,0,.39556-.1173.78224-.337,1.11114-.2007.3004-.4787.54027-.8038.69492l2.7157,3.58473,1.9781-1.72755c-.0395-.03214-.0774-.06636-.1136-.10258-.2098-.20978-.3527-.47705-.4105-.76802-.0579-.29098-.0282-.59258.0853-.86666.1136-.27409.3058-.50836.5525-.67318.2467-.16483.5367-.2528.8333-.2528.3979,0,.7794.15804,1.0607.43934.2813.28131.4393.66284.4393,1.06066,0,.29667-.0879.58668-.2528.83335-.0937.14029-.2099.26298-.3431.3636l2.0418,2.04185,2.2361-2.98147c-.087-.05665-.1684-.12248-.2426-.19667-.2098-.20978-.3527-.47705-.4105-.76802-.0579-.29098-.0282-.59258.0853-.86666.1136-.27409.3058-.50836.5525-.67318.2467-.16483.5367-.2528.8333-.2528.3979,0,.7794.15804,1.0607.43934.2813.28131.4393.66284.4393,1.06066,0,.29667-.0879.58668-.2528.83335-.1648.24668-.399.43894-.6731.55247-.0245.01013-.0492.0196-.0741.02839V17.986c2.057,2.4434,3.3867,5.4169,3.8354,8.5817.4575,3.2264-.0197,6.5164-1.3751,9.4798-1.3554,2.9635-3.5321,5.4762-6.2721,7.2401-2.74,1.764-5.9284,2.7053-9.1871,2.7124h-.0022c-3.2587-.0071-6.447-.9484-9.187-2.7124-2.74-1.7639-4.91675-4.2766-6.27216-7.2401-1.35541-2.9634-1.83264-6.2534-1.37512-9.4798.44877-3.1648,1.77846-6.1383,3.83538-8.5817V6.91421c-.21-.07427-.4018-.19473-.5606-.35355-.2098-.20978-.3527-.47705-.4105-.76802-.05792-.29098-.0282-.59258.0853-.86666.1136-.27409.3058-.50836.5525-.67318.2467-.16483.5367-.2528.8333-.2528.3979,0,.7794.15804,1.0607.43934s.4393.66283.4393,1.06066c0,.29667-.0879.58668-.2528.83335-.1134.16973-.2596.3137-.4292.42398L14.554,9.7388l2.0419-2.04185c-.0551-.0416-.1074-.0871-.1566-.13629-.2098-.20978-.3527-.47705-.4105-.76802-.0579-.29098-.0282-.59258.0853-.86666.1136-.27409.3058-.50836.5525-.67318.2467-.16483.5367-.2528.8333-.2528.3979,0,.7794.15804,1.0607.43934.2813.28131.4393.66284.4393,1.06066,0,.29667-.0879.58668-.2528.83335-.0849.12717-.1883.23987-.3062.33478l1.9851,1.76676,2.7184-3.6271c-.2063-.09766-.3955-.23044-.5587-.39358-.2797-.2797-.4702-.63607-.5473-1.02403-.0772-.38796-.0376-.7901.1138-1.15555s.4077-.67781.7366-.89757zM11.9999,8v10h24V8l-2.4459,3.2612-.4076-.4076-2.6696-2.66959-2.648,2.31259-.4037.3526-.3237-.4273-3.0993-4.09105L20.9,10.4699l-.3262.4352-.4063-.3616-2.6476-2.35637-2.6664,2.66647-.4077.4076L11.9999,8zm-.5371,11c-1.76449,2.2273-2.90815,4.8869-3.30819,7.7081-.43067,3.0371.01856,6.1339,1.29443,8.9235,1.27586,2.7895,3.32486,5.1548,5.90406,6.8152,2.5789,1.6603,5.5797,2.5463,8.6468,2.5532,3.0671-.0069,6.068-.8929,8.6468-2.5532,2.5793-1.6604,4.6282-4.0257,5.9041-6.8152,1.2759-2.7896,1.7251-5.8864,1.2944-8.9235-.4-2.8212-1.5437-5.4808-3.3081-7.7081H11.4628zM23.9999,3c-.1977,0-.3911.05865-.5555.16853-.1645.10988-.2927.26606-.3683.44879-.0757.18272-.0955.38379-.0569.57777.0385.19398.1338.37216.2736.51202.1399.13985.3181.23509.512.27368.194.03858.3951.01878.5778-.05691s.3389-.20386.4488-.36831.1685-.35779.1685-.55557c0-.26522-.1053-.51957-.2929-.70711C24.5195,3.10536,24.2652,3,23.9999,3zM11.2222,5.08427C11.3044,5.02932,11.401,5,11.4999,5c.1326,0,.2598.05268.3536.14645s.1464.22094.1464.35355c0,.09889-.0293.19556-.0842.27779-.055.08222-.1331.14631-.2244.18415-.0914.03784-.1919.04775-.2889.02845-.097-.01929-.1861-.06691-.256-.13684-.0699-.06992-.1176-.15901-.1369-.256-.0192-.097-.0093-.19753.0285-.28889.0378-.09137.1019-.16945.1842-.22439zM17.4999,6c-.0989,0-.1955.02932-.2777.08427-.0823.05494-.1464.13302-.1842.22439-.0378.09136-.0477.19189-.0285.28889.0193.09699.067.18608.1369.256.0699.06993.159.11755.256.13684.097.0193.1975.00939.2889-.02845.0913-.03784.1694-.10193.2244-.18415.0549-.08223.0842-.1789.0842-.27779,0-.13261-.0526-.25979-.1464-.35355C17.7597,6.05268,17.6325,6,17.4999,6zm0,18c-.2966,0-.5866.088-.8333.2528s-.4389.3991-.5525.6732c-.1135.2741-.1432.5757-.0853.8666.0578.291.2007.5583.4105.7681.2098.2097.477.3526.768.4105s.5926.0282.8667-.0854c.2741-.1135.5083-.3058.6731-.5524.1649-.2467.2528-.5367.2528-.8334,0-.3978-.158-.7794-.4393-1.0607S17.8978,24,17.4999,24zm-.2777,1.0843c.0822-.055.1788-.0843.2777-.0843.1326,0,.2598.0527.3536.1464.0938.0938.1464.221.1464.3536,0,.0989-.0293.1956-.0842.2778-.055.0822-.1331.1463-.2244.1841-.0914.0379-.1919.0478-.2889.0285s-.1861-.0669-.256-.1368c-.0699-.07-.1176-.1591-.1369-.2561-.0192-.0969-.0093-.1975.0285-.2888.0378-.0914.1019-.1695.1842-.2244zm-1.6053,9.2371c.9658,1.1512,2.1721,2.0769,3.534,2.712s2.8463.9642,4.349.9642,2.9872-.3291,4.3491-.9642,2.5681-1.5608,3.534-2.712l-.7661-.6428c-.872,1.0394-1.961,1.8751-3.1906,2.4485-1.2295.5734-2.5697.8705-3.9264.8705-1.3566,0-2.6968-.2971-3.9264-.8705-1.2295-.5734-2.3185-1.4091-3.1905-2.4485l-.7661.6428zm14.0497-10.0686c.2467-.1648.5367-.2528.8333-.2528.3979,0,.7794.158,1.0607.4393s.4393.6629.4393,1.0607c0,.2967-.0879.5867-.2528.8334-.1648.2466-.399.4389-.6731.5524-.2741.1136-.5757.1433-.8667.0854s-.5582-.2008-.768-.4105c-.2098-.2098-.3527-.4771-.4105-.7681-.0579-.2909-.0282-.5925.0853-.8666.1136-.2741.3058-.5084.5525-.6732zm.8333.7472c-.0989,0-.1955.0293-.2777.0843-.0823.0549-.1464.133-.1842.2244-.0378.0913-.0477.1919-.0285.2888.0193.097.067.1861.1369.2561.0699.0699.159.1175.256.1368s.1975.0094.2889-.0285c.0913-.0378.1694-.1019.2244-.1841.0549-.0822.0842-.1789.0842-.2778,0-.1326-.0526-.2598-.1464-.3536-.0938-.0937-.221-.1464-.3536-.1464zm6-20c-.0989,0-.1955.02932-.2777.08427-.0823.05494-.1464.13302-.1842.22439-.0378.09136-.0477.1919-.0285.28889.0193.09699.067.18608.1369.256.0699.06993.159.11755.256.13684.097.0193.1975.00939.2889-.02845.0913-.03784.1694-.10193.2244-.18415.0549-.08223.0842-.1789.0842-.27779,0-.13261-.0526-.25979-.1464-.35355C36.7597,5.05268,36.6325,5,36.4999,5zm-6.2777,1.08427C30.3044,6.02932,30.401,6,30.4999,6c.1326,0,.2598.05268.3536.14645.0938.09376.1464.22094.1464.35355,0,.09889-.0293.19556-.0842.27779-.055.08222-.1331.14631-.2244.18415-.0914.03784-.1919.04775-.2889.02845-.097-.01929-.1861-.06691-.256-.13684-.0699-.06992-.1176-.15901-.1369-.256-.0192-.097-.0093-.19753.0285-.28889.0378-.09137.1019-.16945.1842-.22439z"/></svg>