<svg width="48" height="48" viewBox="0,0,48,48" xmlns="http://www.w3.org/2000/svg"><path fill-rule="evenodd" clip-rule="evenodd" d="m23.9436,8.00001-.0154-.0001-.0153.00084c-.9588.05244-1.8927.32477-2.7295.7959-.6391.35985-1.2084.8283-1.6832,1.38275-.4748-.55445-1.0441-1.0229-1.6832-1.38275-.8367-.47113-1.7706-.74346-2.7295-.7959l-.0151-.00083-.0151.00009c-1.054.00611-2.0884.28523-3.0025.81014-.914.52492-1.6764,1.27775-2.21289,2.18505-.53648.9073-.8287,1.9381-.84819,2.9919-.01947,1.0527.23386,2.0925.7353,3.0182.25634.4883.57888.9388.95848,1.3389l-.0001.0001.0082.0082,8.45,8.5.3536.3557,8.8546-8.8546.0104-.0105.0099-.0111c.3597-.4051.6628-.857.901-1.3436.4967-.9239.7468-1.9603.7261-3.0091-.0208-1.0523-.3135-2.0813-.8497-2.987-.5362-.9056-1.2976-1.65718-2.2101-2.18152-.9126-.52435-1.9453-.80365-2.9978-.81077zM12.5528,9.67733c.7599-.43636,1.6192-.66956,2.4952-.67723.8004.04609,1.5797.27452,2.2784.66792.7031.39588,1.3056.94818,1.7611,1.61418l.4127.6036.4127-.6036c.4555-.666,1.0581-1.2183,1.7612-1.61418.6986-.39336,1.4778-.62179,2.2781-.6679.8746.00854,1.7324.24188,2.491.67772.7629.43836,1.3995,1.06676,1.8478,1.82396s.693,1.6175.7104,2.4973c.0174.8797-.1932,1.7491-.6112,2.5234l-.0049.0091-.0045.0093c-.1969.404-.4475.7794-.7448,1.1163l-8.1347,8.1347-8.0923-8.1402c-.3152-.3329-.5831-.7077-.7959-1.1138v-.0001l-.0034-.0062c-.4202-.7746-.63244-1.6449-.61615-2.526.01625-.8811.26065-1.7429.70915-2.5015.4485-.7585,1.086-1.3879,1.8501-1.82677zM16.7077,32.388l-8.66789-5.8557c-.51755-.3845-1.16384-.5543-1.80388-.4736-.64442.0813-1.2319.4102-1.63805.9171s-.59908,1.1519-.53795,1.7986c.06114.6466.37154,1.2441.86549,1.6658l.00036.0004,12.25002,10.44.1401.1194h7.9771l1.8535,1.8536L27.293,43h16.6872l-1.1769-.8976-10.6528-8.1245c-.1089-.0894-.219-.1804-.3305-.2725l-.0004-.0004c-1.9825-1.6383-4.411-3.6451-8.0914-3.7049V30h-4.2281c-.8785,0-1.5836.2898-2.0713.768-.4548.4459-.6942,1.0306-.7211,1.62zm-9.2375-5.0337,9.6644,6.529c.0853.1232.1834.2401.2942.3487.4877.4782,1.1928.768,2.0713.768h4v-1h-4c-.6515,0-1.0939-.2102-1.3712-.482-.2814-.2759-.4238-.6448-.4238-1.018s.1424-.7421.4238-1.018c.2773-.2718.7197-.482,1.3712-.482h4.2159c3.3185.0554,5.4962,1.8512,7.5044,3.5074l.0023.0019c.1004.0828.2004.1652.3001.2471l.0069.0057.0072.0055L41.02,42H27.7072l-2-2h-8.0229L5.57478,29.6798l-.00024-.0002c-.29623-.2531-.48238-.6115-.51905-.9994-.03668-.3879.07908-.775.32277-1.0791s.59618-.5015.98283-.5503c.38665-.0487.77711.0549,1.08869.289l.01003.0075.01039.007z"/></svg>