<svg width="24" height="24" viewBox="0,0,24,24" xmlns="http://www.w3.org/2000/svg"><path fill-rule="evenodd" clip-rule="evenodd" d="m5,4c0-.57386.42614-1,1-1s1,.42614,1,1-.42614,1-1,1-1-.42614-1-1zm1-2c-1.12614,0-2,.87386-2,2s.87386,2,2,2c.30345,0,.58858-.06345.84323-.17818L9.23016,9.1009C8.46982,9.82528,8,10.8509,8,12c0,.9408.31497,1.7997.84661,2.4784l-1.96873,1.92C6.48474,16.1453,6.01245,16,5.5,16,4.09552,16,3,17.0922,3,18.498,3,19.9037,4.09437,21,5.5,21c1.40483,0,2.506-1.0945,2.506-2.502,0-.523-.15216-1.0021-.4154-1.3979l1.96732-1.9186C10.2308,15.6961,11.0759,16,12,16c1.4418,0,2.6918-.7398,3.3953-1.8656l1.6711.7734c-.0435.189-.0664.3872-.0664.5922,0,1.4121,1.0879,2.5,2.5,2.5s2.5-1.0879,2.5-2.5S20.9121,13,19.5,13c-.8419,0-1.5686.3867-2.0181.9982l-1.668-.772c.1216-.3855.1871-.7973.1871-1.2262,0-.712-.1805-1.3765-.4987-1.9514l2.1895-1.52486c.3485.29807.8039.47626,1.308.47626,1.1157,0,2.01-.87552,2.01-2,0-1.12232-.8921-2.005-2.01-2.005-1.1224,0-2,.88704-2,2.005,0,.24802.0431.48426.1224.70178L14.911,9.24182c-.7264-.76521-1.7575-1.23779-2.911-1.23779-.7168,0-1.3861.18245-1.9644.50416L7.62044,5.19034C7.86023,4.86042,8,4.45039,8,4c0-1.12614-.87386-2-2-2zm12.9998,3.995c-.5657,0-1,.43495-1,1.005,0,.56785.4321,1,1,1,.5722,0,1.01-.43649,1.01-1,0-.56569-.44-1.005-1.01-1.005zM12,9.00403c-1.6786,0-3,1.31887-3,2.99597,0,1.6779,1.3221,3,3,3,1.678,0,3.001-1.3223,3.001-3,0-1.6769-1.3222-2.99597-3.001-2.99597zM18,15.5c0-.8599.6401-1.5,1.5-1.5s1.5.6401,1.5,1.5-.6401,1.5-1.5,1.5-1.5-.6401-1.5-1.5zM5.5,17c-.85352,0-1.5.6458-1.5,1.498C4,19.3524,4.64763,20,5.5,20c.85517,0,1.506-.6495,1.506-1.502C7.006,17.6476,6.35632,17,5.5,17z"/></svg>