<svg width="48" height="48" viewBox="0,0,48,48" xmlns="http://www.w3.org/2000/svg"><path fill-rule="evenodd" clip-rule="evenodd" d="m6,10h25v6h10v19h-6v4.6134l-.8322-.7397L29.8099,35H18v-6h-.8099l-4.3579,3.8737L12,33.6134V29H6V10zm25,10v-3h9v17h-6v3.3866l-3.6678-3.2603L30.1901,34H19v-5h18v-1h-6v-3h5v-1h-5v-3h6v-1h-6zM7,11v17h6v3.3866l3.6678-3.2603L16.8099,28H30V11H7zm8.38,6.57c-.0202-.7361.1558-1.4643.51-2.11.2816-.4621.6869-.8362,1.17-1.08.5184-.258,1.091-.3883,1.67-.38.4287-.0232.8577.0401,1.2614.1862.4037.146.7739.3718,1.0886.6638.258.2517.4614.5538.5973.8877.1359.3338.2015.692.1927,1.0523.0124.6589-.2031,1.3018-.61,1.82-.3683.4429-.7694.8574-1.2,1.24-.2257.205-.4332.4292-.62.67-.1148.1879-.196.3943-.24.61-.0744.3922-.1079.791-.1,1.19h-.9c-.0209-.5742.05-1.1481.21-1.7.087-.2293.2121-.4423.37-.63.15-.18.53-.58,1.15-1.19.2897-.2407.5276-.5375.6995-.8727.1718-.3351.274-.7016.3005-1.0773.006-.5108-.1836-1.0045-.53-1.38-.2155-.2148-.4738-.3819-.758-.4904-.2843-.1086-.5882-.1561-.892-.1396-.4035-.0184-.8041.0757-1.1573.2717-.3531.196-.6449.4862-.8427.8383-.2463.5044-.3729,1.0588-.37,1.62h-1zm3.83,5.92V25h-1.14v-1.51h1.14z"/></svg>