<svg width="59" height="20" viewBox="0,0,59,20" xmlns="http://www.w3.org/2000/svg"><g clip-path="url(#a)"><path fill-rule="evenodd" clip-rule="evenodd" d="m2.20019,0C1.09563,0,.200195.895431.200195,2v16c0,1.1046.895435,2,2.000005,2h55c1.1046,0,2-.8954,2-2V2c0-1.104569-.8954-2-2-2H2.20019z"/><path d="m4.18612,11.9488c-.03239,2.8597,2.36424,4.1271,4.9228,4.1271,3.14158,0,4.80948-1.5924,4.80948-3.7209,0-2.63223-2.591-3.16842-3.433-3.37965-2.89866-.74742-3.44924-.86116-3.44924-1.75482,0-.9749.93923-1.31611,1.7489-1.31611,1.21451,0,2.20234.35746,2.28324,1.75482h2.4614c0-2.68098-2.2185-3.73712-4.63129-3.73712-2.08895,0-4.32365,1.13738-4.32365,3.50964,0,2.17728,1.7327,2.84344,3.44921,3.29844,1.70031.4549,3.43303.6662,3.43303,1.9173,0,1.1861-1.3603,1.4461-2.25091,1.4461-1.36025,0-2.55857-.6012-2.55857-2.1448h-2.4614zm11.12258,3.8509h2.3804V8.03295h.0324l4.8095,7.76675h2.5423V4.19834h-2.3804v7.78296h-.0324l-4.8256-7.78296h-2.5262V15.7997zM38.9092,4.23486V6.2915h-4.6434l-.4966,2.60245c.5569-.59053,1.2692-.88594,2.1363-.88594.8514,0,1.5925.22939,2.2232.68818.9355.69092,1.4032,1.74021,1.4032,3.14821,0,1.3817-.4993,2.4759-1.4978,3.2827-.7779.6329-1.7081.9493-2.7908.9493-1.2193,0-2.1994-.3283-2.9406-.9849-.7408-.6564-1.1325-1.5437-1.1745-2.6617h2.2626c.0366.4061.168.7514.394,1.0362.3521.4483.8409.6724,1.4665.6724.6042,0,1.0825-.2188,1.4346-.6566.3416-.4271.5125-.9464.5125-1.5583,0-.6644-.1787-1.1957-.5361-1.5939-.3573-.39806-.8331-.59718-1.427-.59718-.7252,0-1.2901.32708-1.6948.98088l-2.0577-.0317,1.0959-6.44674h6.3305z" fill="#ffde15"/></g><defs><clipPath id="a"><path fill="#fff" d="m0,0h59v20H0z"/></clipPath></defs></svg>