<svg width="36" height="36" xmlns="http://www.w3.org/2000/svg"><path fill-rule="evenodd" clip-rule="evenodd" d="m16.75,6.26V3h1v3.26c2.66.12,5.08,1.18,6.92,2.87l2.31-2.31.71.71L25.37,9.83c1.68,1.84,2.75,4.26,2.86,6.92H31.5v1h-3.26c-.12,2.66-1.18,5.08-2.87,6.92l2.31,2.31-.71.71-2.31-2.31c-1.84,1.68-4.26,2.75-6.92,2.87V31.5h-1v-3.26c-2.66-.12-5.08-1.18-6.92-2.87l-2.31,2.31-.71-.71,2.31-2.31c-1.68-1.84-2.75-4.26-2.87-6.92H3v-1h3.26c.12-2.66,1.18-5.08,2.86-6.92L6.82,7.53l.71-.71,2.31,2.31C11.67,7.44,14.09,6.38,16.75,6.26zm.5.99c-5.52,0-10,4.48-10,10s4.48,10,10,10,10-4.48,10-10-4.48-10-10-10zm-8,10c0-4.42,3.58-8,8-8s8,3.58,8,8c0,4.42-3.58,8-8,8s-8-3.58-8-8zm1.02-.5h3.52c.08-.59.32-1.14.66-1.6l-2.49-2.49c-.96,1.11-1.58,2.53-1.69,4.08zm2.4-4.79,2.49,2.49c.46-.34,1-.58,1.6-.66v-3.52c-1.56.11-2.97.73-4.08,1.69zM17.75,10.27v3.52c.59.08,1.14.32,1.6.66l2.49-2.49c-1.11-.96-2.53-1.58-4.08-1.69zm4.79,2.4-2.49,2.49c.34.46.58,1,.66,1.6h3.52c-.11-1.56-.73-2.97-1.69-4.08zm1.69,5.08h-3.52c-.08.59-.32,1.14-.66,1.6l2.49,2.49c.96-1.11,1.58-2.53,1.69-4.08zm-2.4,4.79-2.49-2.49c-.46.34-1,.58-1.6.66v3.52c1.56-.11,2.97-.73,4.08-1.69zM16.75,24.23v-3.52c-.59-.08-1.14-.32-1.6-.66L12.67,22.54c1.11.96,2.53,1.58,4.08,1.69zm-4.79-2.4,2.49-2.49c-.34-.46-.58-1-.66-1.6h-3.52c.11,1.56.73,2.97,1.69,4.08zM17.25,14.75c-1.38,0-2.5,1.12-2.5,2.5s1.12,2.5,2.5,2.5,2.5-1.12,2.5-2.5-1.12-2.5-2.5-2.5z"/></svg>