<svg width="24" height="24" xmlns="http://www.w3.org/2000/svg"><path fill-rule="evenodd" clip-rule="evenodd" d="m12,5.5c0-.28.22-.5.5-.5s.5.22.5.5-.22.5-.5.5-.5-.22-.5-.5zm.5-1.5c-.83,0-1.5.67-1.5,1.5,0,.23.05.45.15.65L6.15,11.15C5.95,11.05,5.73,11,5.5,11c-.83,0-1.5.67-1.5,1.5S4.67,14,5.5,14c.23,0,.45-.05.65-.15l5,5c-.09.2-.15.42-.15.65,0,.83.67,1.5,1.5,1.5s1.5-.67,1.5-1.5c0-.23-.05-.45-.15-.65l5-5c.2.09.42.15.65.15.83,0,1.5-.67,1.5-1.5s-.67-1.5-1.5-1.5c-.23,0-.45.05-.65.15l-5-5C13.95,5.95,14,5.73,14,5.5c0-.83-.67-1.5-1.5-1.5zm5.59,9H14.95c-.2.98-.97,1.75-1.95,1.95v3.14c.05.02.1.04.15.06l5-5c-.02-.05-.04-.1-.06-.15zm0-1H14.95c-.2-.98-.97-1.75-1.95-1.95V6.91c.05-.02.1-.04.15-.06l5,5c-.02.05-.04.1-.06.15zm-8.04,1c.2.98.97,1.75,1.95,1.95v3.14c-.05.02-.1.04-.15.06l-5-5c.02-.05.04-.1.06-.15h3.14zm-3.2-1.15c.02.05.04.1.06.15h3.14c.2-.98.97-1.75,1.95-1.95V6.91c-.05-.02-.1-.04-.15-.06L6.85,11.85zM12.5,11c-.83,0-1.5.67-1.5,1.5s.67,1.5,1.5,1.5,1.5-.67,1.5-1.5-.67-1.5-1.5-1.5zm7,1c-.28,0-.5.22-.5.5s.22.5.5.5.5-.22.5-.5-.22-.5-.5-.5zM12,19.5c0-.28.22-.5.5-.5s.5.22.5.5-.22.5-.5.5-.5-.22-.5-.5zM5.5,12c-.28,0-.5.22-.5.5s.22.5.5.5.5-.22.5-.5-.22-.5-.5-.5z"/></svg>