<svg width="24" height="24" xmlns="http://www.w3.org/2000/svg"><path fill-rule="evenodd" clip-rule="evenodd" d="m2.5,3H2v14h8v2H7v1h9v-1h-3v-2h8V3H2.5zM12,17h-1v2h1v-2zm-9-1V4h17v12H3zm6.21-3.78C9.09,12.4,9,12.67,9,13s.09.6.21.78c.12.18.23.22.29.22s.17-.03.29-.22C9.91,13.6,10,13.33,10,13s-.09-.6-.21-.78C9.67,12.03,9.56,12,9.5,12s-.17.03-.29.22zm-.83-.55C8.62,11.3,9,11,9.5,11s.88.3,1.12.66c.24.36.38.84.38,1.34s-.13.97-.38,1.34c-.24.36-.63.66-1.12.66s-.88-.3-1.12-.66C8.13,13.97,8,13.5,8,13s.13-.97.38-1.34zM13,7c0-.33.09-.6.21-.78C13.33,6.03,13.44,6,13.5,6s.17.03.29.22C13.91,6.4,14,6.67,14,7s-.09.6-.21.78C13.67,7.97,13.56,8,13.5,8s-.17-.03-.29-.22C13.09,7.6,13,7.33,13,7zm.5-2c-.5,0-.88.3-1.12.66C12.13,6.03,12,6.5,12,7s.13.97.38,1.34C12.62,8.7,13,9,13.5,9s.88-.3,1.12-.66C14.87,7.97,15,7.5,15,7s-.13-.97-.38-1.34C14.38,5.3,14,5,13.5,5zM6,5v4H5V5h1zm4,4V5H9v4h1zm7,6h1v-4h-1v4zM6,11v4H5v-4h1zm12-2V5h-1v4h1zm-4,6h-1v-4h1v4z"/></svg>