<svg width="36" height="36" xmlns="http://www.w3.org/2000/svg"><path fill-rule="evenodd" clip-rule="evenodd" d="m3.25,18C3.25,9.85,9.85,3.25,18,3.25S32.75,9.85,32.75,18c0,6.02-3.61,11.44-8.8,13.75H28.5v1h-5.75V27h1v3.74c4.71-2.2,8-7.19,8-12.74,0-7.59-6.16-13.75-13.75-13.75S4.25,10.41,4.25,18,10.41,31.75,18,31.75v1C9.85,32.75,3.25,26.15,3.25,18zm16.44-7.13-.39-.32-1.26,1.53-3.52.91-.86-.44-3.57,2.51,1.33.43-2.52,2.64-1.38,4.78,3.1-.74.06-.03.66-.36,2.03,1.84.17.15,3.64-.39,1.59-1.63,2.35,3.07,1.79-3.6,4.08,1.01-.25-2.09,1.54.04-.2-3.95-2.03-1.46-.53.95-.93-.27.67-1.88-4.2-1.54-1.37-1.14zm-7.2,3.91-.18-.06,1.44-1.01.66.34,4.21-1.08.1-.13.72-.88,1.11.93,3.43,1.26-.69,1.95,2.71.78.37-.66.73.53.12,2.4-1.62-.04.22,1.8-3.45-.85-1.43,2.88-2.07-2.71-2.15,2.19-2.84.3-2.39-2.17-1.22.67-1.29.31.84-2.89,3.44-3.61-.76-.25z"/></svg>