<svg width="36" height="36" xmlns="http://www.w3.org/2000/svg"><path fill-rule="evenodd" clip-rule="evenodd" d="m9.75,5.75c-1.38,0-2.5,1.12-2.5,2.5v17.05c.64-.65,1.52-1.05,2.5-1.05h19V5.75H9.75zm-3.5,22V8.25c0-1.93,1.57-3.5,3.5-3.5h20v20.5H9.75c-1.38,0-2.5,1.12-2.5,2.5,0,1.38,1.12,2.5,2.5,2.5H9.75l20.25,0,0,1-20.25,0H9.75c-1.93,0-3.5-1.57-3.5-3.5zM30,28.25H10.5v-1H30v1zM16.25,15c0-.97.78-1.75,1.75-1.75s1.75.78,1.75,1.75-.78,1.75-1.75,1.75-1.75-.78-1.75-1.75zm3.33,2.25c.71-.5,1.17-1.32,1.17-2.25,0-1.52-1.23-2.75-2.75-2.75-.97,0-1.75-.78-1.75-1.75s.78-1.75,1.75-1.75,1.75.78,1.75,1.75h1c0-1.52-1.23-2.75-2.75-2.75s-2.75,1.23-2.75,2.75c0,.93.46,1.75,1.17,2.25-.71.5-1.17,1.32-1.17,2.25,0,1.52,1.23,2.75,2.75,2.75.97,0,1.75.78,1.75,1.75s-.78,1.75-1.75,1.75-1.75-.78-1.75-1.75h-1c0,1.52,1.23,2.75,2.75,2.75s2.75-1.23,2.75-2.75c0-.93-.46-1.75-1.17-2.25z"/></svg>