<svg width="36" height="36" xmlns="http://www.w3.org/2000/svg"><path fill-rule="evenodd" clip-rule="evenodd" d="m20.56,9.25H21c.37,0,.7.12.94.38.23.25.31.57.31.87v3c0,.35-.12.68-.36.92-.24.23-.57.33-.89.33h-3.1c-.2.43-.45.82-.73,1.18.9.48,1.7,1.06,2.41,1.71l-.68.74c-.72-.66-1.53-1.24-2.47-1.69-.81.67-1.82,1.08-2.93,1.08-1.12,0-2.12-.4-2.94-1.08-3.75,1.8-6.15,5.87-6.31,10.58H16.5v1H3.25v-.5c0-5.11,2.47-9.7,6.58-11.83-.48-.6-.85-1.32-1.08-2.11v.94H6c-.33,0-.64-.15-.86-.36-.22-.21-.39-.53-.39-.89v-2.99c0-.36.17-.67.39-.89.22-.21.53-.37.86-.37h.31c1.92-8.08,12.7-7.81,14.25,0zm-1.02,0H18.25v.94c-.64-2.26-2.47-3.94-4.75-3.94S9.39,7.93,8.75,10.19v-.94H7.34c1.81-6.77,10.73-6.45,12.2,0zM9.5,12c0-2.71,1.83-4.75,4-4.75S17.5,9.29,17.5,12c0,.62-.1,1.21-.27,1.75H13.5v1h3.27c-.73,1.23-1.94,2-3.27,2-2.17,0-4-2.04-4-4.75zm-3.75-1.49c0-.05.02-.11.09-.18.07-.06.13-.08.16-.08h1.75v3.5H6c-.03,0-.1-.02-.17-.08-.06-.06-.08-.12-.08-.17v-2.99zm13.5,3.24H21c.12,0,.17-.03.19-.06.02-.02.06-.07.06-.2v-3c0-.12-.03-.18-.05-.2-.01-.01-.05-.05-.2-.05h-1.75v3.5zm-1,6h14.5v10h-6v2H30v1h-9v-1h3.25v-2h-6v-10zm7,12h.5v-2h-.5v2zm-6-11v8h12.5v-8h-12.5z"/></svg>