<svg width="48" height="48" xmlns="http://www.w3.org/2000/svg"><path fill-rule="evenodd" clip-rule="evenodd" d="m18,8.5v-.61L7,10.07v23.93H5v7h1v-2h15v2h1v-7h-2v-16h3v23h1v-3h12v3h1v-2h5v2h1v-21h-2v-3h-4v-5h-1.64l-1-3h-8.72l-1,3H23v5h-4v17h-1V8.5zM17,34V9.11L8,10.89v23.11h1v-1h1v1h2v-1h1v1h2v-1h1v1H17zm4,4v-3H6v3h15zm-12-25v2h1v-2H9zm28,5v2h3v-2h-3zm5,3v17h-5v-17h5zm-16.31-9h8.61l-.67-2h-7.28l-.67,2zm-1.69,25h12v-24H24v24zm-12-22v-2h1v2h-1zm3-2v2h1v-2h-1zM9,19v-2h1v2H9zm3-2v2h1v-2h-1zm3,2v-2h1v2h-1zm-6,2v2h1v-2H9zm3,2v-2h1v2h-1zm3-2v2h1v-2h-1zM9,27v-2h1v2H9zm3-2v2h1v-2h-1zm3,2v-2h1v2h-1zm-6,2v2h1v-2H9zm3,2v-2h1v2h-1zm3-2v2h1v-2h-1zm10-13v-2h1v2h-1zm3-2v2h1v-2h-1zm3,2v-2h1v2h-1zm-5,2h-1v2h1v-2zm2,0h1v2h-1v-2zm4,0h-1v2h1v-2zm-7,4h1v2h-1v-2zM29,22h-1v2h1v-2zm2,0h1v2h-1v-2zm-5,4h-1v2h1v-2zm2,0h1v2h-1v-2zm4,0h-1v2h1v-2zm-7,4h1v2h-1v-2zM29,30h-1v2h1v-2zm2,0h1v2h-1v-2zm3-16v2h1v-2h-1zm0,4h1v2h-1v-2zm1,4h-1v2h1v-2zm-1,4h1v2h-1v-2zM35,30h-1v2h1v-2zm-10,6v-2h1v2h-1zM28,34v2h1v-2h-1zm3,2v-2h1v2h-1zm3-2v2h1v-2h-1zm5-12h-1v2h1v-2zm-1,4h1v2h-1v-2zM39,30h-1v2h1v-2zm1-8h1v2h-1v-2zm1,4h-1v2h1v-2zM40,30h1v2h-1v-2zm-2,4v2h1v-2h-1zm2,2v-2h1v2h-1z"/></svg>