<svg width="36" height="36" xmlns="http://www.w3.org/2000/svg"><path fill-rule="evenodd" clip-rule="evenodd" d="m3.25,18C3.25,9.85,9.85,3.25,18,3.25S32.75,9.85,32.75,18,26.15,32.75,18,32.75c-6.02,0-11.44-3.61-13.75-8.8V28.5h-1v-5.75H9v1H5.26c2.2,4.71,7.19,8,12.74,8,7.59,0,13.75-6.16,13.75-13.75S25.59,4.25,18,4.25,4.25,10.41,4.25,18h-1zM20.25,7.75c-1.65,0-2.93,1.34-3.35,3.02C15.05,10.99,13.75,12.89,13.75,15c0,1.19.42,2.32,1.11,3.11-2.46,1.3-4.11,4.51-4.11,8.14v.5h13v-.5c0-.86-.09-1.7-.27-2.5h3.27v-.5c0-3.63-1.65-6.84-4.11-8.14.7-.79,1.11-1.92,1.11-3.11,0-2.24-1.47-4.25-3.5-4.25zm2.96,15h2.53c-.15-3.37-1.83-6.05-3.95-6.93-.36.22-.76.36-1.19.41-.18.72-.51,1.37-.96,1.88,1.62.86,2.9,2.54,3.57,4.64zm-4.42-3.93c-.46.27-.98.43-1.54.43s-1.09-.16-1.54-.43c-2.12.88-3.79,3.56-3.95,6.93h10.98c-.15-3.37-1.83-6.05-3.95-6.93zM20.75,15c0-1.98-1.15-3.79-2.83-4.17.38-1.27,1.33-2.08,2.33-2.08,1.28,0,2.5,1.35,2.5,3.25,0,1.66-.92,2.89-2,3.18,0-.06,0-.12,0-.18zm-3.5-3.25c-1.28,0-2.5,1.35-2.5,3.25s1.22,3.25,2.5,3.25,2.5-1.35,2.5-3.25-1.22-3.25-2.5-3.25z"/></svg>