<svg width="36" height="36" xmlns="http://www.w3.org/2000/svg"><path fill-rule="evenodd" clip-rule="evenodd" d="m20.11,6.37-.39-.32-1.58,1.92-4.71,1.21-1.09-.56-.25.17,8.01,11.67,1.68.54-3.43,3.6-1.72,5.96,3.77-.91.06-.03.96-.53,2.74,2.48.17.15,4.64-.49,2.16-2.21,3.03,3.96,2.29-4.6,5.23,1.29-.33-2.69,2.03.05-.25-4.93-2.45-1.77-.67,1.19-1.49-.43.88-2.47-5.37-1.97L20.11,6.37zm-1.29,2.36,1.04-1.27,1.55,1.3,4.61,1.69-.9,2.54,3.28.94.51-.9,1.15.83.17,3.37-2.11-.05.29,2.4-4.6-1.14-1.93,3.88-2.75-3.6-2.72,2.78-3.83.41-3.1-2.81-1.52.84-1.97.47,1.18-4.08,4.36-4.57-1.28-.42,2.21-1.55.89.46,5.39-1.39.1-.13zM4.25,28.25v1.75h-1v-4.5h1v1.75h2v-1.5h23.5v1.5h2v-1.75h1v4.5h-1v-1.75h-2v1.5h-1.5v.25c0,1.52-1.23,2.75-2.75,2.75s-2.75-1.23-2.75-2.75v-.25h-9.5v.25c0,1.52-1.23,2.75-2.75,2.75-1.52,0-2.75-1.23-2.75-2.75v-.25h-1.5v-1.5h-2zm4.5,1.5h3.5v.25c0,.97-.78,1.75-1.75,1.75s-1.75-.78-1.75-1.75v-.25zm18.5,0h-3.5v.25c0,.97.78,1.75,1.75,1.75s1.75-.78,1.75-1.75v-.25zm-20-2v-1h21.5v2H7.25v-1z"/></svg>