<svg width="36" height="36" xmlns="http://www.w3.org/2000/svg"><path fill-rule="evenodd" clip-rule="evenodd" d="m10.25,12c0-4.28,3.47-7.75,7.75-7.75s7.75,3.47,7.75,7.75c0,4.28-3.47,7.75-7.75,7.75s-7.75-3.47-7.75-7.75zM18,3.25c-4.83,0-8.75,3.92-8.75,8.75,0,2.8,1.32,5.3,3.37,6.9l5.59,30.14,5.41-1.8,1.75,3.51,5.24-10.49,5.26,10.51,1.75-3.51,5.41,1.8-7.04-11.26C25.43,17.3,26.75,14.81,26.75,12c0-4.83-3.92-8.75-8.75-8.75zm-.8,17.46c-1.37-.12-2.65-.56-3.76-1.25l-5.53,8.84,3.59-1.2,1.25,2.49,4.45-8.89zm5.35-1.24c-1.11.68-2.39,1.12-3.76,1.24l4.46,8.92,1.25-2.49,3.59,1.2-5.54-8.86zm.3-10.12-6.35,6.35-3.35-3.35.71-.71L16.5,14.29l5.65-5.65.71.71z"/></svg>