<svg width="24" height="24" xmlns="http://www.w3.org/2000/svg"><path fill-rule="evenodd" clip-rule="evenodd" d="m4.06,5.67C3.32,6.08,3,6.57,3,7s.32.92,1.06,1.33C4.79,8.73,5.83,9,7,9s2.21-.27,2.94-.67C10.68,7.92,11,7.43,11,7s-.32-.92-1.06-1.33C9.21,5.27,8.17,5,7,5s-2.21.27-2.94.67zM12,7c0-.95-.69-1.71-1.58-2.2C9.52,4.29,8.31,4,7,4s-2.52.29-3.42.8C2.69,5.29,2,6.05,2,7v12c0,.95.69,1.71,1.58,2.2C4.48,21.71,5.69,22,7,22c1.17,0,2.31-.1,3.22-.55l-.45-.89C9.09,20.9,8.15,21,7,21c-1.17,0-2.21-.27-2.94-.67C3.32,19.92,3,19.43,3,19v-1.18c.18.14.37.27.58.38C4.48,18.71,5.69,19,7,19c1.17,0,2.31-.1,3.22-.55l-.45-.89C9.09,17.9,8.15,18,7,18c-1.17,0-2.21-.27-2.94-.67C3.32,16.92,3,16.43,3,16v-1.18c.18.14.37.27.58.38C4.48,15.71,5.69,16,7,16c1.17,0,2.31-.1,3.22-.55l-.45-.89C9.09,14.9,8.15,15,7,15c-1.17,0-2.21-.27-2.94-.67C3.32,13.92,3,13.43,3,13v-1.18c.18.14.37.27.58.38C4.48,12.71,5.69,13,7,13c1.17,0,2.31-.1,3.22-.55l-.45-.89C9.09,11.9,8.15,12,7,12c-1.17,0-2.21-.27-2.94-.67C3.32,10.92,3,10.43,3,10V8.82c.18.14.37.27.58.38C4.48,9.71,5.69,10,7,10s2.52-.29,3.42-.8c.2-.11.4-.24.58-.38V10h1V7zm1.06,4.67C12.32,12.08,12,12.57,12,13s.32.92,1.06,1.33C13.79,14.73,14.83,15,16,15s2.21-.27,2.94-.67C19.68,13.92,20,13.43,20,13s-.32-.92-1.06-1.33C18.21,11.27,17.17,11,16,11s-2.21.27-2.94.67zm6.36,3.54c.2-.11.4-.24.58-.38V16c0,.43-.32.92-1.06,1.33C18.21,17.73,17.17,18,16,18s-2.21-.27-2.94-.67C12.32,16.92,12,16.43,12,16v-1.18c.18.14.37.27.58.38C13.48,15.71,14.69,16,16,16s2.52-.29,3.42-.8zM21,13v6c0,.95-.69,1.71-1.58,2.2C18.52,21.71,17.31,22,16,22s-2.52-.29-3.42-.8C11.69,20.71,11,19.95,11,19v-6c0-.95.69-1.71,1.58-2.2C13.48,10.29,14.69,10,16,10s2.52.29,3.42.8C20.31,11.29,21,12.05,21,13zm-1.58,5.2c.2-.11.4-.24.58-.38V19c0,.43-.32.92-1.06,1.33C18.21,20.73,17.17,21,16,21s-2.21-.27-2.94-.67C12.32,19.92,12,19.43,12,19v-1.18c.18.14.37.27.58.38C13.48,18.71,14.69,19,16,19s2.52-.29,3.42-.8z"/></svg>