<svg width="24" height="24" xmlns="http://www.w3.org/2000/svg"><path fill-rule="evenodd" clip-rule="evenodd" d="m8,2.5v-.61l-6,1.2V22h1v-4h4v4h1v-2h7v2h1v-2h5V22h1V8h-6V4H8v-1.5zm8,6.5v10h5V9h-5zM7,4.5V17H3V3.91l4-.8v1.39zm8,14.5H8V5h7V19zM6,5H4v1h2v-1zm8,2h-1v2h1v-2zM18,13h-1v-2h1v2zm0,2v2h-1v-2h1zm2,2v-2h-1v2h1zM20,13h-1v-2h1v2zm-6,4v-2h-1v2h1zM14,13h-1v-2h1v2zm-2,2v2h-1v-2h1zM12,11h-1v2h1v-2zm0-2h-1v-2h1v2zm-2,8v-2H9v2h1zM10,13H9v-2h1v2zm0-6H9v2h1v-2zm-6,1h2v1H4v-1zM4,11h2v1H4v-1zm2,3H4v1h2v-1z"/></svg>