<svg width="24" height="24" xmlns="http://www.w3.org/2000/svg"><path fill-rule="evenodd" clip-rule="evenodd" d="m6.02,9c.06-.71.27-1.39.58-2h1.68c-.15.64-.24,1.31-.27,2H6.02zm1.99,1h-1.99c.06.71.27,1.39.58,2h1.68c-.15-.64-.24-1.31-.27-2zm1.3,2c-.16-.63-.26-1.3-.3-2H11v2H9.31zM12,12v-2h1.99c-.03.7-.14,1.37-.3,2H12zm-2.37,1H11v1.98c-.1-.01-.2-.02-.3-.04-.43-.55-.79-1.21-1.07-1.94zM12,13v1.98c.1-.01.2-.02.3-.04.43-.55.79-1.21,1.07-1.94H12zm0-6v2h1.99c-.03-.7-.14-1.37-.3-2H12zm-1,2V7H9.31c-.16.63-.26,1.3-.3,2H11zm2.37-3H12V4.02c.1.01.2.02.3.04.43.55.79,1.21,1.07,1.94zM11,6V4.02c-.1.01-.2.02-.3.04C10.27,4.61,9.91,5.27,9.63,6H11zm-2.44,7H7.26c.53.64,1.2,1.16,1.97,1.51-.26-.47-.48-.97-.66-1.51zm.66-8.51C8.46,4.84,7.79,5.36,7.26,6h1.31c.18-.54.4-1.04.66-1.51zM14.99,9c-.03-.69-.12-1.36-.27-2h1.68c.31.61.51,1.29.58,2h-1.99zm0,1c-.03.69-.12,1.36-.27,2h1.68c.31-.61.51-1.29.58-2h-1.99zm-.55,3c-.18.54-.4,1.04-.66,1.51.77-.35,1.44-.87,1.97-1.51h-1.31zm-.66-8.51c.26.47.48.97.66,1.51h1.31c-.53-.64-1.2-1.16-1.97-1.51zM11.5,3C7.91,3,5,5.91,5,9.5,5,13.09,7.91,16,11.5,16c3.59,0,6.5-2.91,6.5-6.5C18,5.91,15.09,3,11.5,3zM8,20H6c0,.55.45,1,1,1s1-.45,1-1zm-3,0H4v-1H3v1H2v-3h1v1h1v-1h16v1h1v-1h1v3h-1v-1h-1v1h-1c0,1.1-.9,2-2,2s-2-.9-2-2H9c0,1.1-.9,2-2,2s-2-.9-2-2zm12,1c-.55,0-1-.45-1-1h2c0,.55-.45,1-1,1zM5,18v1h14v-1H5z"/></svg>