<svg width="48" height="48" xmlns="http://www.w3.org/2000/svg"><path fill-rule="evenodd" clip-rule="evenodd" d="m9.5,5H9v3h2v9.62h1V8h30v33H12v-3.43c1.19-.49,2.19-1.36,2.83-2.46.51.37,1.13.59,1.8.59,1.69,0,3.06-1.37,3.06-3.05,0-.19-.02-.38-.05-.57,1.31-.84,2.18-2.32,2.18-3.99,0-2.62-2.13-4.75-4.75-4.75-.38,0-.76.05-1.12.13-.19-2.74-2.47-4.9-5.25-4.9-2.91,0-5.27,2.36-5.27,5.27,0,1.31.48,2.52,1.28,3.44-1.63,1.03-2.71,2.84-2.71,4.91,0,3.21,2.6,5.81,5.81,5.81.41,0,.81-.04,1.19-.12V41H4v1h40v-1h-1V8h2V5H9.5zM12,36.47v-4.24l3.77-2.82-.6-.8L12,30.99v-3.56h-1v5.79l-1.01-1.01-.71.71L11,34.64v2.21c-.38.1-.78.15-1.19.15-2.66,0-4.81-2.15-4.81-4.81,0-1.92,1.12-3.57,2.74-4.34l.68-.32-.56-.5c-.88-.78-1.43-1.92-1.43-3.19,0-2.36,1.91-4.27,4.27-4.27,2.36,0,4.27,1.91,4.27,4.27,0,.09,0,.19-.01.28l-.05.8.74-.3c.44-.18.92-.28,1.42-.28,2.07,0,3.75,1.68,3.75,3.75,0,1.43-.81,2.68-1.99,3.31l-.37.2.13.4c.07.2.11.42.11.65,0,1.13-.92,2.05-2.06,2.05-.63,0-1.19-.28-1.57-.73l-.52-.62-.32.74c-.44,1.03-1.23,1.87-2.22,2.38zM10,7V6h34v1H10zm22,24h7L77.98,69H32V31zm1,1v5h4.98l.02-5H33zm-.5-11H32v7h6.98l.02-7H32.5zm.5,6v-5h5l-.02,5H33zm-5-5H17v-1h12l-.04,7h-5.97v-1h4.98l.03-5zM21.95,32h6.05l-.03,5H15v1h13.96l.04-7H21.95v1zM32.5,11H32v7h6.98l.02-7H32.5zm.5,6v-5h5l-.02,5H33zm-18-6h14l-.04,7H15v-7zm1,1v5h11.97l.03-5H16z"/></svg>