<svg width="24" height="24" xmlns="http://www.w3.org/2000/svg"><path fill-rule="evenodd" clip-rule="evenodd" d="m12,2C6.47715,2,2,6.47715,2,12h1c0-4.97056,4.02944-9,9-9,4.9706,0,9,4.02944,9,9,0,4.9706-4.0294,9-9,9-3.54,0-6.73674-2.0445-8.22742-5H6v-1H2v4h1v-2.319C4.70796,19.8497,8.17713,22,12,22c5.5228,0,10-4.4772,10-10,0-5.52285-4.4772-10-10-10zm.0223,6.9995c1.1793-.0526,3.9399.44105,5.711,3.0121-.9517,1.4559-3.1958,3.0408-5.723,2.9885V15H12c-2.37542,0-4.47028-1.1868-5.73626-3C7.52972,10.1868,9.62458,9,12,9h.0111l.0112-.0005zM18.7473,11.7335c-2.0034-3.1806-5.2986-3.7947-6.7583-3.73349-2.84474.00383-5.33365,1.49684-6.74809,3.73269L5.0718,12l.16911.2673C6.65632,14.5047,9.14765,15.9982,11.9948,16c3.0837.0615,5.7641-1.952,6.7666-3.7573l.1437-.2587-.1578-.2505zM11,12c0-.5523.4477-1,1-1s1,.4477,1,1-.4477,1-1,1-1-.4477-1-1zm1-2c-1.1046,0-2,.8954-2,2s.8954,2,2,2,2-.8954,2-2-.8954-2-2-2z"/></svg>