<svg width="36" height="36" xmlns="http://www.w3.org/2000/svg"><path fill-rule="evenodd" clip-rule="evenodd" d="m17.6047,3.77332-.356-.35981-.3554.36041-5.763,5.844.712.70218,4.9078-4.97679V16.7515l-11.41875-.0007,4.39728-4.3972-.70711-.7072-5.25,5.25-.35355.3536.35355.3536,5.25,5.25.70711-.7072-4.39562-4.3956,11.41709.0007v11.4029l-4.9205-4.9728-.7108.7033,5.7795,5.841.356.3599.3555-.3605,5.763-5.8455-.7122-.7021-4.9105,4.9809V17.7515l11.4157.0007-4.3943,4.3942.7071.7072,5.6036-5.6036-5.6036-5.6036-.7071.7072,4.3987,4.3986-11.4201-.0007V5.342l4.9233,4.9757.7108-.70338-5.7795-5.841z"/></svg>