<svg width="29" height="16" xmlns="http://www.w3.org/2000/svg"><path fill-rule="evenodd" clip-rule="evenodd" d="m23.9229,2.99787c1.5,0,2.56.38,3.2.82l.7-2.34c-1.221-.499995-2.7-.680995-4.1-.680995-4.942,0-8.002,3.321005-8.002,7.822005,0,3.78102,2.02,6.62102,6.241,6.62102,1.06,0,2.14-.099,3.161-.38l.439-2.68c-.799.48-1.759.86-2.94.86-2.461,0-3.98-2.081-3.98-4.42102,0-3.28001,2.179-5.62101,5.281-5.62101zM5.94062,1.0376h-2.8l1.84001,13.962h3.341l7.80197-13.962h-3.041l-5.80098,10.862h-.04l-1.301-10.862z"/></svg>