<svg width="26" height="16" xmlns="http://www.w3.org/2000/svg"><path fill-rule="evenodd" clip-rule="evenodd" d="m3.77833,11.5449c-.067-.255-.106-.521-.106-.798,0-1.72402,1.402-3.25602,3.125-3.25602.343,0,.673.064.983.174l-1.683,2.46002,1.932-1.18202.561-.841c.119.089.228.19.334.292l1.024-.626c-.218-.231-.457-.443-.72-.624l.93897-1.409.735,1.448.819-.501-.594-1.17h2.503l1.411-.862h-4.353l-.438-.862h1.317v-.862H7.25533v.862h1.924l.534,1.052-1.279,1.867c-.501-.211-1.045-.332-1.612-.332-2.321,0-4.312,1.992-4.312,4.31302,0,.509.102,1.003.276,1.463l.992-.606zm19.94597-.798c0-1.72402-1.402-3.25602-3.127-3.25602-.355,0-.697.068-1.017.188l1.744,3.24202-.964.508-1.685-3.22202c-.731.608-1.205,1.54-1.205,2.54002,0,1.723,1.403,3.127,3.127,3.127,1.725,0,3.127-1.404,3.127-3.127zm1.211-.059c0,2.321-1.991,4.312-4.312,4.312-2.324,0-4.313-1.991-4.313-4.312,0-1.41302.738-2.69702,1.836-3.49102l-.322-.618-3.712,4.97202h-3.07c-.417,1.93-2.19097,3.449-4.21997,3.449-1.052,0-2.036-.413-2.797-1.076l.994-.608c.504.351,1.118.558,1.778.558,1.446,0,2.688-.989,3.045-2.323h-1.943l1.408-.863h.615c-.002-.121-.014-.242-.03-.358l1.10897-.68002c.087.334.133.68202.133,1.03802h1.547l-.799-1.57702.819-.502.974,1.91302,3.479-4.63902,1.099-.671.797,1.479c.491-.201,1.022-.316,1.573-.316,2.321,0,4.312,1.992,4.312,4.31302zm-8.552-6.86102.846-.518-.67-1.246h-2.406v.863h1.761l.469.901zm6.119-1.722L1.73733,14.8159l-.673-1.104L21.8263.999878l.676,1.105002z"/></svg>