<svg width="27" height="16" xmlns="http://www.w3.org/2000/svg"><path fill-rule="evenodd" clip-rule="evenodd" d="m20.2818,6.67768h-1.101l.74-3.44h.981c1.06,0,2.341.06,2.341,1.4,0,1.641-1.541,2.04-2.961,2.04zm-1.421,6.12202h-.96l.841-4.04102h.899c1.501,0,2.861.22,2.861,1.68102,0,2.16-1.921,2.36-3.641,2.36zm2.961-11.76302h-4.141l-2.921,13.96302h3.982c2.08,0,6.56-.32,6.56-4.321,0-1.50002-.68-2.70002-2.24-2.94002v-.04c1.62-.26,2.98-1.621,2.98-3.321,0-2.541-2.04-3.341-4.22-3.341zM3.14087,1.0368l3.28,8.182-1.22,5.781h2.801l1.22-5.781,6.76203-8.182h-3.261l-4.54103,5.862-2.08-5.862h-2.961z"/></svg>