<svg width="24" height="24" viewBox="0,0,24,24" xmlns="http://www.w3.org/2000/svg"><path fill-rule="evenodd" clip-rule="evenodd" d="m22.5,0h-21C.675,0,0,.675,0,1.5v21c0,.825.675,1.5,1.5,1.5h21c.825,0,1.5-.675,1.5-1.5v-21c0-.825-.675-1.5-1.5-1.5z" fill="#2d327d"/><path fill-rule="evenodd" clip-rule="evenodd" d="m6.26251,5.63245c-.7275,0-1.3125-.585-1.3125-1.3125s.585-1.3125,1.3125-1.3125,1.3125.5925,1.3125,1.3125c0,.7275-.585,1.3125-1.3125,1.3125z" fill="#fff"/><path fill-rule="evenodd" clip-rule="evenodd" d="m4.94998,16.2075V8.58749l-.825,1.0875V12.375c0,.27-.2175.4875-.4875.4875s-.4875-.2175-.4875-.4875V9.29249c0-.165.0525-.3225.15-.45l1.575-2.0775c.285-.375.7275-.5925,1.1925-.5925.825,0,1.5.67499,1.5,1.49999V12.945l1.545,1.545c.1425.1425.2175.33.2175.5325v4.245c0,.3825-.3075.69-.69.69s-.69-.3075-.69-.69v-3.765l-1.5-1.5v2.235c0,.1425-.045.285-.12.405l-2.385,3.6825c-.1275.195-.345.315-.585.315-.3825,0-.69-.3075-.69-.69,0-.135.0375-.2625.1125-.375l2.1675-3.3675z" fill="#fff"/><path fill-rule="evenodd" clip-rule="evenodd" d="m9.27746,11.6024c-.06,0-.12-.0075-.1725-.03l-.9-.3225v-1.08l1.2375.45c.2025.075.3375.2625.3375.4725.0075.285-.2175.51-.5025.51z" fill="#fff"/><path fill-rule="evenodd" clip-rule="evenodd" d="m17.5875,18.225H14.175v1.3875h-3.4125V21H6.67499v-.675h3.41251v-1.3875H13.5V17.55h3.4125v-1.3875H21v.675h-3.4125v1.3875z" fill="#fff"/></svg>