<svg width="24" height="24" viewBox="0,0,24,24" xmlns="http://www.w3.org/2000/svg"><path fill-rule="evenodd" clip-rule="evenodd" d="m22.5,0h-21C.675,0,0,.675,0,1.5v21c0,.825.675,1.5,1.5,1.5h21c.825,0,1.5-.675,1.5-1.5v-21c0-.825-.675-1.5-1.5-1.5z" fill="#2d327d"/><path fill-rule="evenodd" clip-rule="evenodd" d="m9.61499,18.81c0,1.3125,1.06501,2.3775,2.37751,2.3775S14.37,20.1225,14.37,18.81v-2.3775H9.61499V18.81z" fill="#fff"/><path fill-rule="evenodd" clip-rule="evenodd" d="m21.195,20.13-6.66-6.66.72-2.9775c.075-.3.075-.62246.0075-.92246l-1.215-5.61c-.1425-.6675-.735-1.14-1.4175-1.14h-1.275c-.6825,0-1.2675.4725-1.41746,1.14l-.8775,4.0425-5.2125-5.2125-1.0575,1.0575,5.9175,5.9175c-.03.35996.0075.72746.225,1.13996.3225.6075,1.02,1.9275,1.02,1.9275L12.9825,14.04,20.13,21.1875,21.195,20.13z" fill="#fff"/><path fill-rule="evenodd" clip-rule="evenodd" d="m3.84754,2.79004-1.0575,1.0575L20.13,21.195l1.065-1.065L3.84754,2.79004z" fill="#eb0000"/></svg>