<svg width="36" height="36" viewBox="0,0,36,36" xmlns="http://www.w3.org/2000/svg"><path fill-rule="evenodd" clip-rule="evenodd" d="m24.1798,14.9844c.7925.1178,1.4308.5139,1.8794,1.0751.5552.6945.8007,1.6149.7391,2.5189-.0618.9075-.4349,1.8297-1.1582,2.5268-.7287.7024-1.7807,1.1454-3.1399,1.1454h-10.5c-1.3749,0-2.41684-.4423-3.12471-1.1555-.70163-.707-1.03354-1.6383-1.07309-2.5477-.0394-.906.20925-1.825.71355-2.5299.41623-.5818,1.01426-1.0239,1.75755-1.1673.0073-2.8023,2.9424-4.3592,5.1347-3.1337,1.3286-2.36779,3.8027-2.95414,5.8-2.22963,1.0638.38588,2.0005,1.14513,2.5552,2.20443.4814.9192.6622,2.0394.4164,3.2931zm-3.3126-4.5575c-1.6857-.61145-3.7993-.0643-4.8096,2.2256l-.2654.6017-.5089-.4167c-1.6278-1.3334-4.2821-.069-3.9867,2.4038l.0669.5593h-.5633c-.6158,0-1.11618.3029-1.47095.7988-.36093.5045-.55852,1.198-.5278,1.9045.03058.7031.28517,1.3843.78381,1.8867.49244.4962,1.26454.86,2.41494.86h10.5c1.1315,0,1.9249-.3632,2.446-.8654.5266-.5076.8077-1.1886.8544-1.8748.047-.6898-.1446-1.3537-.5225-1.8265-.3676-.4599-.9299-.7648-1.7079-.7337l-.6985.028.1992-.67c.3789-1.2744.233-2.3388-.1933-3.1529-.4297-.8204-1.1617-1.4205-2.0104-1.7284zm6.1223,14.8233H7.5v-1h19.4895v1zM9,28.2502h16.4895v-1H9v1z"/></svg>