<svg width="24" height="24" viewBox="0,0,24,24" xmlns="http://www.w3.org/2000/svg"><path fill-rule="evenodd" clip-rule="evenodd" d="m6.00911,4.00024h6.69779l.1465.14645,5,5,.1464.14645V20.0002H5.99951l.0093-15.50026.0003-.4997zm.9994,1-.0084,13.99996h9.99969v-9h-4.9997V5.00024H7.00851zm5.99159.70735,3.2926,3.29265h-3.2926V5.70759zM9.80954,16.4327l.96396-1.43h-.727l-.60196.962-.595-.962h-.767l.976,1.43-1.058,1.568h.749l.668-1.042.65596,1.042h.788l-1.05196-1.568zm6.19446-.5413h-.624c-.012-.146-.066-.258-.163-.336-.096-.078-.232-.115-.405-.115-.155,0-.275.029-.36.09-.086.062-.128.146-.128.256,0,.099.041.169.123.212.079.045.281.106.603.186.341.084.576.17.708.256.241.158.362.379.362.662,0,.31-.121.555-.365.734-.214.159-.505.237-.871.237-.407,0-.724-.094-.949-.28-.226-.185-.343-.451-.351-.793h.651c.01.166.053.289.13.371.12.129.301.192.543.192.164,0,.294-.031.39-.096.108-.074.162-.174.162-.301s-.076-.22-.227-.279c-.083-.033-.281-.092-.591-.178-.195-.054-.346-.105-.455-.152-.11-.049-.198-.102-.263-.16-.153-.137-.23-.326-.23-.567,0-.287.12-.515.36-.683.203-.145.468-.217.793-.217.286,0,.525.057.718.17.277.164.423.426.439.791zm-2.7208,2.1095v-.554h-1.467v-2.444h-.654v2.998h2.121z"/></svg>