<svg width="36" height="36" viewBox="0,0,36,36" xmlns="http://www.w3.org/2000/svg"><path fill-rule="evenodd" clip-rule="evenodd" d="m19.25,4.5003v3.26098c1.6356.07203,3.1748.4958,4.5443,1.19815l1.7125-2.89213.8604.5095-1.7048,2.87926c1.0787.68444,2.0282,1.55194,2.8057,2.55984l2.774-1.5714.4929.87-2.6903,1.5241c.9979,1.573,1.6067,3.4209,1.6943,5.4117H33v1h-3.261c-.0683,1.5515-.4533,3.0164-1.0925,4.332l2.6066,1.6636-.538.843-2.5475-1.626c-.9075,1.5004-2.164,2.7629-3.6596,3.6775l1.4321,2.6727-.8815.4723-1.4268-2.6629c-1.3283.6537-2.8105,1.0476-4.3818,1.1168v3.2602h-1v-3.2602c-1.6132-.071-3.1325-.4843-4.4877-1.1696l-1.5858,2.7998-.8701-.4929,1.585-2.7985c-1.6133-1.0107-2.94124-2.429-3.84321-4.1142l-2.75722,1.5607-.49259-.8703,2.81782-1.5949c-.49703-1.1768-.79579-2.4602-.85521-3.8091H4.5v-1h3.26098c.06963-1.5812.46798-3.0722,1.12896-4.407l-2.89566-1.7146.50949-.8604,2.8707,1.6997c.85163-1.3847,2.00183-2.5631,3.36323-3.44781l-1.5405-2.72127.8702-.49264,1.533,2.70789c1.3957-.73506,2.9719-1.17901,4.6496-1.25289V4.5003h1zm-4.9942,23.198c1.3486.6737,2.8742,1.052,4.4942,1.052,5.3866,0,9.7305-4.1825,9.9879-9.5h-5.0116c-.2439,2.558-2.3446,4.5-4.9763,4.5-.7241,0-1.4079-.147-2.024-.4134l-2.4702,4.3614zm1.5973-4.8493-2.4683,4.3579c-2.7933-1.767-4.6348-4.8827-4.6348-8.4566,0-3.5089,1.7743-6.5754,4.4814-8.358l2.4727,4.3679c-1.1946.9062-1.9541,2.3444-1.9541,3.9901,0,1.7132.823,3.2013,2.1031,4.0987zM16.5586,14.2398l-2.4652-4.35478c1.3879-.7254,2.9712-1.13472,4.6566-1.13472,5.3867,0,9.7305,4.1812,9.9879,9.5h-5.0116c-.2439-2.558-2.3446-4.5-4.9763-4.5-.7903,0-1.5328.1751-2.1914.4895zM14.75,18.7503c0-2.2484,1.7516-4,4-4s4,1.7516,4,4-1.7516,4-4,4-4-1.7516-4-4z"/></svg>