<svg width="59" height="20" viewBox="0,0,59,20" xmlns="http://www.w3.org/2000/svg"><path fill-rule="evenodd" clip-rule="evenodd" d="m2,0C.89543,0,0,.895431,0,2v16c0,1.1046.895431,2,2,2h55c1.1046,0,2-.8954,2-2V2c0-1.104569-.8954-2-2-2H2z" fill="#eb0000"/><path d="m44.3484,4.23547v1.96172c-.0631.06856-.2497.2821-.5599.64063-.4888.57947-.9193,1.20617-1.2849,1.87089-.397.68872-.7296,1.41289-.9933,2.16329-.5281,1.5927-.8332,3.2512-.9067,4.9281h-2.3808c.0326-.98.1848-1.9523.4534-2.8951.2989-1.0937.696-2.158,1.1864-3.17988.72-1.49765,1.4505-2.61302,2.1916-3.34609h-5.4396V4.23547h7.7338zM9.22072,4.19995h4.05608L8.25878,15.8H4.18579L9.22072,4.19995zm6.72758,0h14.3949l-1.4906,3.44547H18.5724l-2.0413,4.70908h10.2847L25.3259,15.8h-14.395l5.0174-11.60005z" fill="#fff"/></svg>