<svg width="24" height="24" viewBox="0,0,24,24" xmlns="http://www.w3.org/2000/svg"><path fill-rule="evenodd" clip-rule="evenodd" d="m6.29293,8.00028L2.89648,4.60384l.70711-.70711,3.39645,3.39645v-3.2929h1v5h-5v-1h3.29289zM11.5,10.0003c-1.3978,0-2.49996,1.1021-2.49996,2.5,0,1.3978,1.10216,2.5,2.49996,2.5,1.3979,0,2.5-1.1022,2.5-2.5,0-1.3979-1.1021-2.5-2.5-2.5zm-3.49996,2.5c0-1.9502,1.54986-3.50002,3.49996-3.50002,1.9502,0,3.5,1.54982,3.5,3.50002,0,1.9501-1.5498,3.5-3.5,3.5-1.9501,0-3.49996-1.5499-3.49996-3.5zM15,8.50028v-4.5h1v3.29289l3.3965-3.39644.7071.70711-3.3965,3.39644H20v1h-5v-.5zm0,7.49952h5v1h-3.2929l3.3965,3.3964-.7071.7071L16,17.7069v3.2929h-1v-5zm-11.99996,0h5v5h-1v-3.2929l-3.39645,3.3964-.70711-.7071,3.39645-3.3964H3.00004v-1z"/></svg>