<svg width="24" height="24" viewBox="0,0,24,24" xmlns="http://www.w3.org/2000/svg"><path fill-rule="evenodd" clip-rule="evenodd" d="m22.5,0h-21C.675,0,0,.675,0,1.5v21c0,.825.675,1.5,1.5,1.5h21c.825,0,1.5-.675,1.5-1.5v-21c0-.825-.675-1.5-1.5-1.5z" fill="#2d327d"/><path fill-rule="evenodd" clip-rule="evenodd" d="m21,12c0-2.03251-.8475-3.86251-2.1975-5.17501-.1425-.135-.36-.135-.51-.0075-.165.1425-.1725.3975-.015.5475C19.4925,8.53499,20.25,10.185,20.25,12s-.75,3.4575-1.965,4.6275c-.1575.15-.15.405.015.5475.1425.1275.3675.1275.51-.0075C20.16,15.8625,21,14.0325,21,12z" fill="#fff"/><path fill-rule="evenodd" clip-rule="evenodd" d="m18.6,12.0074c0-1.515-.645-2.88745-1.68-3.84745-.1425-.135-.36-.135-.51-.0075-.165.15-.165.405,0,.5625.885.825,1.44,1.99495,1.44,3.29245s-.555,2.4675-1.4325,3.285c-.165.15-.165.4125,0,.555.1425.1275.3675.12.51-.0075,1.0275-.96,1.6725-2.325,1.6725-3.8325z" fill="#fff"/><path fill-rule="evenodd" clip-rule="evenodd" d="m16.2,12.0075c0-1.0125-.45-1.9275-1.1625-2.5425-.1425-.12-.3525-.12-.495,0-.1725.15-.165.4125.0075.5625.5475.48.9,1.185.9,1.9725,0,.78-.345,1.485-.885,1.965-.1725.15-.1725.4125-.0075.5625.1425.1275.3525.1275.495,0,.705-.6075,1.1475-1.515,1.1475-2.52z" fill="#fff"/><path fill-rule="evenodd" clip-rule="evenodd" d="m3.48,9.52503c-.1275,0-.2475.0525-.3375.1425S3,9.87753,3,10.005v3.99c0,.2625.2175.48.48.48h2.445V9.52502l-2.445.00001z" fill="#fff"/><path fill-rule="evenodd" clip-rule="evenodd" d="m10.8,6.255c-.1725-.075-.375-.045-.51.075L6.675,9.525v4.95l3.6075,3.195c.09.0825.2025.12.315.12.0675,0,.135-.015.195-.045.1725-.075.285-.2475.285-.435V6.69c0-.1875-.105-.36-.2775-.435z" fill="#fff"/></svg>