<svg width="24" height="24" viewBox="0,0,24,24" xmlns="http://www.w3.org/2000/svg"><path fill-rule="evenodd" clip-rule="evenodd" d="m22.5,0h-21C.675,0,0,.675,0,1.5v21c0,.825.675,1.5,1.5,1.5h21c.825,0,1.5-.675,1.5-1.5v-21c0-.825-.675-1.5-1.5-1.5z" fill="#2d327d"/><path fill-rule="evenodd" clip-rule="evenodd" d="m5.535,9.66005c.06.06.1425.09.225.09.1725,0,.315-.1425.315-.315,0-.0825-.03-.165-.09-.225l-.3375-.3375.135-.135.915.915c.0675.06.15.0975.24.0975.1875,0,.3375-.15.3375-.3375,0-.09-.0375-.1725-.0975-.24l-.915-.915.135-.135,1.53,1.53c.06.06.15.0975.24.0975.1875,0,.3375-.15.3375-.3375,0-.09-.0375-.1725-.0975-.24l-1.53-1.53.135-.135L9.15,9.64505c.0675.0675.1575.105.255.105.195,0,.3525-.1575.3525-.36,0-.0975-.0375-.1875-.105-.255l-3.015-3.015c-.06-.06-.0975-.15-.0975-.24,0-.1875.15-.3375.3375-.3375H8.07c.2475,0,.45-.2025.45-.45,0-.0225,0-.045-.0075-.0675-.015-.09-.09-.1575-.1875-.1575H3v2.625h.375l2.16,2.1675z" fill="#fff"/><path fill-rule="evenodd" clip-rule="evenodd" d="m14.25,18.45V13.2c0-.6225-.5025-1.125-1.125-1.125H10.5V11.4c0-.495-.405-.9-.9-.9H7.65c-.495,0-.9.405-.9.9v.675H4.125C3.5025,12.075,3,12.5775,3,13.2v5.25c0,.6225.5025,1.125,1.125,1.125h9c.6225,0,1.125-.5025,1.125-1.125zm-6.825-7.275h2.4v.9h-2.4v-.9zm3.7125,5.4375c.165,0,.3-.135.3-.3l.015-2.595c0-.075-.03-.15-.09-.21l-.6225-.6225c-.0375-.03-.0825-.0525-.135-.0525h-.285v.375h-.375v-.375H9.66c-.0525,0-.0975.015-.135.0525l-.6225.6225c-.06.0525-.09.1275-.09.21v2.595c0,.165.135.3.3.3h2.025z" fill="#fff"/><path fill-rule="evenodd" clip-rule="evenodd" d="m9.75,20.3251H21v.675H9.75v-.675z" fill="#fff"/></svg>