<svg width="36" height="36" viewBox="0,0,36,36" xmlns="http://www.w3.org/2000/svg"><path fill-rule="evenodd" clip-rule="evenodd" d="m8.25,4.75h9v1h-1.9798l-2.1019,3.20897-.1907.29103h4.4862c1.0208,0,1.871.21593,2.4607.7804.5946.5691.8248,1.3961.8248,2.3866V26.75H19.25v2h3.5015v-4.5H26.5V20h-.75v-4.75h4V20H29v4.25h2.5v1h-7.7485v4.5H4.5v-1h1.75v-2H4.74927V12.417c0-.9907.23067-1.8177.82566-2.3867C6.165,9.46593,7.01545,9.25,8.03627,9.25h4.48613l-.1907-.29103L10.2298,5.75H8.25v-1zm4.5,3.02249L11.4252,5.75h2.6496L12.75,7.77249zM6.26611,10.753c-.31702.3032-.51684.8097-.51684,1.664v5.833H19.7493v-5.833c0-.8545-.1996-1.361-.5163-1.6642-.3215-.3077-.864-.5028-1.7692-.5028H8.03627c-.90519,0-1.44823.1951-1.77016.503zM19.7493,19.25H5.74927v6.5H19.7493v-6.5zm-1.4993,9.5v-2h-11v2h11zm9.4971-15.4993c-.137,0-.25.1128-.25.25s.113.25.25.25c.1378,0,.25-.1121.25-.25,0-.1378-.1122-.25-.25-.25zm-1.25.25c0-.6908.562-1.25,1.25-1.25.6901,0,1.25.5599,1.25,1.25,0,.6902-.5599,1.25-1.25,1.25-.688,0-1.25-.5592-1.25-1.25zM15,12.2507h-4.5v1H15v-1zM16.25,22.5c0-.1379.1121-.25.25-.25.137,0,.25.1128.25.25s-.113.25-.25.25c-.1379,0-.25-.1121-.25-.25zm.25-1.25c-.6901,0-1.25.5599-1.25,1.25s.5599,1.25,1.25,1.25c.688,0,1.25-.5592,1.25-1.25s-.562-1.25-1.25-1.25zm-7.5,1c-.13786,0-.25.1121-.25.25s.11214.25.25.25c.13701,0,.25-.1128.25-.25s-.11299-.25-.25-.25zm-1.25.25c0-.6901.55986-1.25,1.25-1.25.68799,0,1.25.5592,1.25,1.25S9.68799,23.75,9,23.75c-.69014,0-1.25-.5599-1.25-1.25zM27,19h-.25v-2.75h2V19H28v4.5h-.5V19H27z"/></svg>