<svg width="36" height="36" viewBox="0,0,36,36" xmlns="http://www.w3.org/2000/svg"><path fill-rule="evenodd" clip-rule="evenodd" d="m6.25,3.25h23.5v29.5001H6.25V3.25zm1,1v6.5h21.5v-6.5H7.25zm21.5,7.5H7.25v20.0001h21.5V11.75zM11.751,22.3858c-.0007.038-.001.0761-.001.1142,0,3.4518,2.7982,6.25,6.25,6.25,3.0555,0,5.5989-2.1926,6.1426-5.0902-.5224-.1657-.8476-.5268-1.0968-.8035l-.0194-.0215c-.3408-.3781-.5455-.5848-.9808-.5848-.4352,0-.6399.2067-.9808.5848l-.0194.0215c-.334.371-.8048.8937-1.7041.8937-.8986,0-1.3688-.5231-1.7022-.8939l-.0195-.0216c-.3404-.3783-.5445-.5845-.9783-.5845-.4318,0-.635.2056-.9749.5841l-.0195.0217c-.3325.3707-.802.8942-1.6993.8942-.8981,0-1.3681-.5232-1.7011-.894l-.0195-.0217c-.1786-.1986-.3196-.3498-.476-.4485zm12.498.2296c-.158-.0989-.2999-.2507-.4798-.4502l-.0194-.0215c-.334-.371-.8048-.8937-1.7042-.8937s-1.3701.5227-1.7042.8937l-.0193.0215c-.3409.3781-.5456.5848-.9808.5848-.4339,0-.638-.2062-.9784-.5845l-.0194-.0216c-.3335-.3708-.8037-.8939-1.7022-.8939-.8974,0-1.3669.5235-1.6994.8942l-.0195.0217c-.3399.3785-.5431.5841-.9748.5841-.4331,0-.6368-.206-.977-.5843l-.0195-.0217c-.2483-.2764-.5727-.6375-1.0938-.8035C12.4009,18.4428,14.9444,16.25,18,16.25c3.4518,0,6.25,2.7982,6.25,6.25,0,.0386-.0004.077-.001.1154zM10.5,7.25c-.1381,0-.25.11193-.25.25s.1119.25.25.25.25-.11193.25-.25-.1119-.25-.25-.25zm-1.25.25c0-.69036.55964-1.25,1.25-1.25.6904,0,1.25.55964,1.25,1.25s-.5596,1.25-1.25,1.25c-.69036,0-1.25-.55964-1.25-1.25zm13.2507-.25h4.5v-1h-4.5v1zM19.5,7.25H15v-1h4.5v1zm-1.5,8c-4.0041,0-7.25,3.2459-7.25,7.25s3.2459,7.25,7.25,7.25,7.25-3.2459,7.25-7.25-3.2459-7.25-7.25-7.25z"/></svg>