<svg width="48" height="48" viewBox="0,0,48,48" xmlns="http://www.w3.org/2000/svg"><path fill-rule="evenodd" clip-rule="evenodd" d="m26,12h8l-4.9182,6.5576,1.9239,4.022C31.9309,22.2058,32.9419,22,34.001,22c4.4192,0,8,3.5819,8,8,0,4.4191-3.5809,8-8,8-4.4181,0-8-3.5808-8-8,0-3.0033,1.6551-5.6202,4.1029-6.9882L28.1849,19h-9.3436l-1.4655,3.7451C20.107,24.0181,22,26.7881,22,30c0,4.4192-3.5819,8-8,8s-8-3.5808-8-8c0-4.4181,3.58186-8,8-8,.8526,0,1.6741.1334,2.4446.3804l1.5898-4.0626L18.1587,18H28.25L32,13h-6v-1zm7.5499,18.2158-3.0134-6.2997C28.4247,25.1213,27.001,27.3945,27.001,30c0,3.8668,3.1341,7,7,7,3.8668,0,7-3.1331,7-7,0-3.8659-3.1332-7-7-7-.9046,0-1.769.1716-2.5627.484l3.0138,6.3002-.9022.4316zM16.0793,23.314l-2.5449,6.5038.9312.3644,2.5449-6.5035C19.3697,24.8043,21,27.2119,21,30c0,3.8668-3.1341,7-7,7s-7-3.1332-7-7c0-3.8659,3.1341-7,7-7,.724,0,1.4224.1099,2.0793.314zM15,15h5v-1h-5v1z"/></svg>