<svg width="36" height="36" viewBox="0,0,36,36" xmlns="http://www.w3.org/2000/svg"><path fill-rule="evenodd" clip-rule="evenodd" d="m24.1315,15.0134c.7915.1172,1.4294.511,1.8781,1.0697.5556.6916.8015,1.6087.7398,2.5096-.0619.9044-.4355,1.823-1.159,2.5171-.7289.6993-1.7806,1.14-3.1391,1.14h-10.5c-1.3738,0-2.41534-.4401-3.12326-1.1501-.70187-.704-1.03426-1.6317-1.07396-2.538-.03955-.9028.20924-1.8184.7138-2.5206.41639-.5794,1.01419-1.0192,1.75672-1.1619.0079-2.7951,2.9461-4.3367,5.135-3.1184,1.3292-2.35801,3.8033-2.94035,5.799-2.21974,1.0633.38395,2.0003,1.13964,2.5555,2.19484.4814.9149.6624,2.0299.4174,3.2775zm-3.3125-4.5318c-1.6875-.60927-3.8011-.0632-4.8106,2.2143l-.2654.5988-.5077-.4139c-1.6324-1.3309-4.2821-.0655-3.9876,2.3894l.0672.5596h-.5636c-.6168,0-1.11711.3019-1.47134.7949-.36042.5016-.55761,1.1909-.52684,1.8932.03061.6987.28482,1.376.78309,1.8757.49219.4937,1.26439.8562,2.41509.8562h10.5c1.1322,0,1.9259-.3618,2.4468-.8616.5263-.505.807-1.182.8537-1.8638.0469-.6854-.1444-1.3452-.5218-1.8151-.3673-.4572-.9298-.7611-1.7087-.7299l-.6994.028.2003-.6707c.3786-1.2675.2328-2.3257-.1931-3.1352-.4292-.8159-1.161-1.4133-2.0101-1.7199z"/></svg>