<svg width="24" height="24" viewBox="0,0,24,24" xmlns="http://www.w3.org/2000/svg"><path fill-rule="evenodd" clip-rule="evenodd" d="m22.5,0h-21C.675,0,0,.675,0,1.5v21c0,.825.675,1.5,1.5,1.5h21c.825,0,1.5-.675,1.5-1.5v-21c0-.825-.675-1.5-1.5-1.5z" fill="#2d327d"/><path fill-rule="evenodd" clip-rule="evenodd" d="m4.07998,9.12004c-.01499-.0225-.03-.0525-.04499-.075-.33001-.57-.66001-1.1325-.99-1.7025-.06001-.105-.0675-.21,0-.315.1725-.2925.345-.5925.5175-.8925.0075-.0075.0075-.015.015-.0225-.18-.105-.3525-.21-.5325-.315v-.0075h.03,1.68c.015,0,.03,0,.045.0225.285.495.5775.99.8625,1.4775,0,.0075.0075.0075.015.0225-.1875-.105-.36-.21-.54-.315-.0075.015-.015.0225-.0225.03-.32251.5625-.645,1.1175-.96751,1.68-.0675.12-.0975.2475-.06.3825,0,.015,0,.0225-.0075.03,0,0,0-.0075,0,0z" fill="#fff"/><path fill-rule="evenodd" clip-rule="evenodd" d="m9.07497,4.0725c.18-.105.3525-.2025.54-.3075-.0075.015-.0075.0225-.015.03-.2775.4875-.5625.975-.84,1.4625-.0075.015-.015.0225-.0375.0225-.57,0-1.14,0-1.71.0075-.0075,0-.0075,0-.0225,0,.18-.105.36-.21.5325-.315-.0075-.015-.015-.0225-.0225-.0375-.315-.555-.6375-1.11-.9525-1.665-.075-.1275-.1725-.2175-.315-.255-.0075,0-.0075-.0075-.015-.0075.015,0,.03,0,.0375,0,.645,0,1.29,0,1.935-.0075.06,0,.12,0,.1725.0075.0825.015.135.0675.18.135.1725.3075.345.6075.525.915,0,0,0,.0075.0075.015z" fill="#fff"/><path fill-rule="evenodd" clip-rule="evenodd" d="m7.88251,9.94496V10.56h-.0075c-.0075-.0075-.0075-.015-.015-.0225-.2775-.4875-.5625-.97504-.84-1.46254-.0075-.015-.015-.0225,0-.045.285-.495.57-.9975.855-1.4925,0,0,.0075-.0075.0075-.015,0,.21,0,.4125,0,.6225.015,0,.03,0,.0375,0,.645,0,1.29,0,1.9275,0,.1425,0,.26999-.045.37499-.1425,0,0,.0075-.0075.015-.015-.0075.015-.015.03-.0225.0375-.32249.5625-.64499,1.125-.96749,1.6875-.03.0525-.06.0975-.0975.1425-.0525.06-.12.0825-.195.0825-.1725,0-.345,0-.5175,0s-.345,0-.5175,0c-.0075.0075-.0225.0075-.0375.0075z" fill="#fff"/><path fill-rule="evenodd" clip-rule="evenodd" d="m6.5925,8.15259v1.785H6.555c-.4125,0-.8325.0075-1.245,0-.375-.015-.66-.1875-.8175-.5325-.0675-.15-.105-.3075-.075-.4725.0075-.0525.0225-.0975.045-.1425.1125-.2025.2325-.405.3525-.6075.0075-.0225.0225-.0225.045-.0225.57,0,1.1325,0,1.7025,0,.0075-.0075.015-.0075.03-.0075z" fill="#fff"/><path fill-rule="evenodd" clip-rule="evenodd" d="m8.19751,6.31511c.51-.3,1.0275-.5925,1.5375-.8925.0075.015.015.0225.0225.03.21.36.42749.7125.62249,1.0725.1425.255.165.5325.045.8025-.0825.1875-.21.3375-.39.4425-.07499.045-.15749.0675-.23999.0675-.225,0-.4575,0-.6825,0-.015,0-.03,0-.0375-.0225-.285-.495-.57-.99-.855-1.4925-.015.0075-.015,0-.0225-.0075z" fill="#fff"/><path fill-rule="evenodd" clip-rule="evenodd" d="m4.26001,4.77009c.0525-.0975.105-.1875.1575-.285.1575-.2775.315-.555.4725-.8325.1425-.24.3525-.3825.63-.4275.2175-.03.42.0075.615.1125.075.045.135.0975.1725.1725.1125.195.225.3975.345.5925.0075.015.015.03,0,.045-.285.495-.5625.99-.8475,1.485,0,.0075-.0075.015-.015.0225-.5025-.2925-1.02-.585-1.53-.885z" fill="#fff"/><path fill-rule="evenodd" clip-rule="evenodd" d="m20.9475,5.7224c.105-.18.045-.405-.135-.51l-1.785-1.035c-.18-.105-.405-.045-.51.135l-.465.81,2.4375,1.41.4575-.81z" fill="#fff"/><path fill-rule="evenodd" clip-rule="evenodd" d="m11.115,13.7624c-.03.0375-.0525.075-.075.12,0,0-2.08503,3.6075-2.10003,3.6375-.2325.405-.0975.9225.3075,1.155.2475.1425.5475.1425.78753.03.045-.345.06-.7425.0375-1.1625l.7425-.0375c.0375.7125-.015,1.35-.1425,1.8375.1425.18.315.345.525.465s.435.195.6675.225c.36-.36.885-.72,1.5225-1.0425l.3375.66c-.375.1875-.72.405-.99.615.0225.27.165.525.42.6675.405.2325.9225.0975,1.155-.3075.015-.03,2.1-3.6375,2.1-3.6375.0225-.0375.045-.0825.06-.12.1425-.2625.2475-.5175.3225-.765l-5.1675-2.985c-.1875.18-.3525.3975-.51.645z" fill="#fff"/><path fill-rule="evenodd" clip-rule="evenodd" d="m18.6675,12.4125L13.86,9.63745c-.2175,1.14005-.795,2.17505-1.665,2.93255l4.7625,2.7525c.225-1.14.825-2.1525,1.71-2.91z" fill="#fff"/><path fill-rule="evenodd" clip-rule="evenodd" d="m19.575,11.3474c.03-.0375.0525-.075.075-.12,1.17-2.025-.285-2.7975.075-3.8175.015-.03.0225-.06.0375-.09.105.06.2475.0225.3075-.0825.0075-.0225.0225-.0375.0225-.06l-2.415-1.4025c-.015.015-.03.03-.0375.0525-.06.105-.0225.2475.0825.3075-.0225.03-.0375.0525-.06.0825-.705.8175-2.1-.0525-3.27,1.9725-.0225.0375-.045.0825-.0675.1275-.105.195-.1875.3825-.2625.57L19.2,11.8499c.135-.15.255-.315.375-.5025z" fill="#fff"/></svg>