<svg width="36" height="36" viewBox="0,0,36,36" xmlns="http://www.w3.org/2000/svg"><path fill-rule="evenodd" clip-rule="evenodd" d="m13.0273,7.08412-.7773-.51823v5.31801l.7339-.3883c1.4979-.7927,3.2029-1.2455,5.0161-1.2455s3.5182.4528,5.0161,1.2455l.7339.3883V6.56589l-.7774.51823-1.9089,1.27263L19.8536,7.1466,19.5,6.79304l-.3536.35356L18,8.29304,16.8536,7.1466,16.5,6.79304l-.3536.35356-1.2101,1.21015-1.909-1.27263zm.2227,3.17108V8.43441l1.4726.98176.3186.21238c-.6183.16135-1.2168.37185-1.7912.62665zm4.3014-.99657c-.8461.03205-1.6689.15431-2.4596.35685l.2618-.26178L16.5,8.20726l1.0514,1.05137zm3.3568.35685c-.7907-.20254-1.6135-.3248-2.4596-.35685L19.5,8.20726,20.6464,9.3537l.2618.26178zm1.8418.63972c-.5744-.2548-1.1729-.4653-1.7912-.62665l.3186-.21238,1.4726-.98176v1.82079zM18,13.25c-4.2809,0-7.75,3.4691-7.75,7.75,0,4.2794,3.4692,7.75,7.75,7.75,4.2794,0,7.75-3.4706,7.75-7.75,0-4.2808-3.4706-7.75-7.75-7.75zM9.25,21c0-4.8331,3.9169-8.75,8.75-8.75,4.8316,0,8.75,3.9168,8.75,8.75,0,4.8316-3.9184,8.75-8.75,8.75-4.8332,0-8.75-3.9184-8.75-8.75zM15,19.25c-.1379,0-.25.1121-.25.25s.1121.25.25.25.25-.1121.25-.25-.1121-.25-.25-.25zm-1.25.25c0-.6901.5599-1.25,1.25-1.25s1.25.5599,1.25,1.25-.5599,1.25-1.25,1.25-1.25-.5599-1.25-1.25zm7,0c0-.1379.1121-.25.25-.25s.25.1121.25.25-.1121.25-.25.25-.25-.1121-.25-.25zm.25-1.25c-.6901,0-1.25.5599-1.25,1.25s.5599,1.25,1.25,1.25,1.25-.5599,1.25-1.25-.5599-1.25-1.25-1.25zm-2.9995,8.5c-1.9537,0-3.6722-.9792-4.7103-2.4634l.8195-.5732c.8609,1.2308,2.2804,2.0366,3.8908,2.0366,1.6089,0,3.0298-.8059,3.889-2.0363l.8199.5726c-1.0368,1.4846-2.7569,2.4637-4.7089,2.4637z"/></svg>