<svg width="36" height="36" viewBox="0,0,36,36" xmlns="http://www.w3.org/2000/svg"><path fill-rule="evenodd" clip-rule="evenodd" d="m3.25,3.25h29.5002v2.95711l-.1465.14644-1.3535,1.35356V32.7504H4.75V7.70711L3.39645,6.35355,3.25,6.20711V3.25zm1,1v1.54289l1.35355,1.35356.14645.14644V31.7504h3.5V13.75h17.4981l.0019.4981.0671,17.5023h3.4331V7.29289l.1464-.14644,1.3536-1.35356V4.25H4.25zm21.5671,27.5004L25.7519,14.75H10.25v17.0004h3.3001c-.081-.2544-.1766-.5727-.2754-.9412-.2631-.9806-.5522-2.3269-.6488-3.7759-.1909-2.8637.3659-6.3383,3.6503-7.9805l.7021-.3511.0213.7847.0061.2273c.03,1.1308.0686,2.5859.2474,3.91.0954.7069.2284,1.3571.4133,1.8891.1883.5418.4113.9049.65,1.1002.119.0974.2814.1344.6087-.0454.3361-.1846.7149-.5398,1.0861-.9717.3642-.4236.6912-.8853.929-1.2448.1183-.1789.2132-.3305.2783-.4369.0325-.0531.0574-.0949.0741-.1229l.0185-.0316.0044-.0075.0009-.0016.0001-.0001v-.0001l.5415-.9405.363,1.0229L21.7498,24c.4712-.1672.4712-.1671.4713-.1669l.0001.0004.0005.0012.0014.004.0049.0142.0181.0528c.0154.0456.0374.1118.0645.1965.0541.1692.1286.4122.2111.7109.1649.5963.3635,1.4201.4962,2.3253.1324.9024.202,1.9033.0991,2.8484-.0666.6109-.2073,1.2176-.4634,1.7636h3.1635zm-4.313,0h-6.9014l-.028-.0833c-.0881-.2645-.2082-.6474-.3342-1.117-.2525-.9412-.5259-2.2199-.6168-3.5834-.1671-2.5056.2853-5.1258,2.3996-6.604.0308,1.0256.0847,2.2532.2388,3.3948.0999.7401.2442,1.4633.4597,2.0836.2122.6105.5126,1.1787.9614,1.5459.5684.4651,1.2186.3344,1.7233.0571.4959-.2724.9687-.7376,1.3631-1.1963.3091-.3596.5893-.7382.8162-1.0663.1513.5592.325,1.2992.4427,2.102.1255.8554.1848,1.7646.0943,2.595-.0807.7412-.2768,1.384-.6187,1.8719z"/></svg>