<svg width="36" height="36" viewBox="0,0,36,36" xmlns="http://www.w3.org/2000/svg"><path fill-rule="evenodd" clip-rule="evenodd" d="m26.3013,6.09424.3021.30211,4.5,4.49995.3021.3022-.2513.3455-12,16.5-.3441.4732-.4138-.4137-.5666-.5667-.2801.0484c-.3289.0566-.7799.134-1.2683.2168-.8664.1471-1.8563.3124-2.4894.4096-.2409.3591-.5486.8239-.8117,1.2228-.1548.2348-.2939.4463-.3942.599l-.1186.1806-.0321.049-.0083.0127-.0022.0032-.0005.0008-.0001.0002v.0001l-.4182-.2741.4181.2741-.337.5142-.8984-.8984-1.90953,1.273-.12684.0846H4.30908l.52186-.7828,2.77305-4.1596-.49209-.492-.43669-.4367.51802-.3363.27223.4194-.27221-.4194h.00006l.00023-.0002.00093-.0006.00364-.0024.01423-.0092.05447-.0353.19884-.1289c.16713-.1082.39631-.2564.64444-.4164.40305-.2598.8594-.5528,1.18049-.7553.08996-.5736.25168-1.5423.39816-2.4101.08435-.4997.16394-.9677.22245-1.3108l.0523-.3062-.56716-.5671-.41376-.4138.47322-.3442L25.9558,6.34553l.3455-.25129zM10.8301,20.5373c-.0466.2743-.0999.5887-.1553.9167-.1688,1.0003-.3555,2.1201-.4304,2.62l-.0343.2288-.1966.122c-.29782.1848-.8651.5486-1.36155.8687-.14063.0907-.27519.1776-.39576.2555l3.66911,3.6691.2201-.3342c.3101-.4702.685-1.0364.9403-1.414l.1235-.1826.218-.0321c.5905-.0868,1.7098-.2733,2.6869-.4391.3047-.0517.5949-.1013.8499-.145l-6.1339-6.1338zm-2.49995,6.4999-2.13947,3.2092h2.65675l1.61517-1.0768-2.13245-2.1324zm2.18705-8.2271,8.1725,8.1725,11.4045-15.6813-3.8958-3.89574L10.5172,18.8101zM16.8534,21.3535l9-9-.7071-.7072-9,9,.7071.7072z"/></svg>