<svg width="24" height="24" viewBox="0,0,24,24" xmlns="http://www.w3.org/2000/svg"><path fill-rule="evenodd" clip-rule="evenodd" d="m22.5,0h-21C.675,0,0,.675,0,1.5v21c0,.825.675,1.5,1.5,1.5h21c.825,0,1.5-.675,1.5-1.5v-21c0-.825-.675-1.5-1.5-1.5z" fill="#2d327d"/><path fill-rule="evenodd" clip-rule="evenodd" d="m9.00751,6.46501L10.65,4.82251,8.77501,2.94001c-.0675-.0675-.165-.1125-.2625-.1125s-.195.0375-.27.1125l-1.1175,1.11c-.0675.06751-.1125.165-.1125.2625,0,.09751.0375.195.1125.2625l1.8825,1.89z" fill="#fff"/><path fill-rule="evenodd" clip-rule="evenodd" d="m12.75,7.50001-1.86-1.86-1.0575,1.065.795.795H7.125c-1.035,0-1.875.84-1.875,1.875V10.5h1.5V9.37501c0-.20249.1725-.375.375-.375H16.5v-1.5h-3.75z" fill="#fff"/><path fill-rule="evenodd" clip-rule="evenodd" d="m8.99999,14.2951,1.50751-1.5075-.79501-.795-.7125.7125v-.4425c0-.15-.12-.2625-.2625-.2625h-5.475c-.1425,0-.2625.12-.2625.2625v.4425l-.7125-.7125-.795.795,1.5075,1.5075v4.41l-1.5075,1.5075.795.795.8625-.8625c.24.5025.7575.855,1.35.855h3c.5925,0,1.11-.345,1.35-.855l.8625.8625.79501-.795-1.50751-1.5075v-4.41zm-3,1.305c-.05999-.03-.11999-.0525-.17998-.075h-.00002l-.9375-.9375c.39.0075.765.0975,1.1175.2625.2025.0975.42.165.645.21l-.57.57c-.03-.0075-.0525-.015-.075-.03zm1.4475.2475c.3-.03.6-.1125.8775-.2475v-.63l-.8775.8775zm-2.61-2.685c.405,0,.8025.09,1.1625.2625s.7575.2625,1.1625.2625c.375,0,.7425-.0825,1.08-.225l-.975.975h-.105c-.405,0-.8025-.09-1.1625-.2625s-.7575-.2625-1.1625-.2625c-.195,0-.3825.0225-.57.06l-.5625-.5625c.3525-.165.7425-.2475,1.1325-.2475zm-1.1625,2.445c.1425-.075.3-.1275.4575-.1725l-.4575-.4575v.63z" fill="#fff"/><path fill-rule="evenodd" clip-rule="evenodd" d="m5.99999,15.7051-3.7125-3.7125-.795.795,3.7125,3.7125-3.7125,3.7125.795.795,3.7125-3.7125,3.7125,3.7125.79501-.795-3.71251-3.7125,3.71251-3.7125-.79501-.795-3.7125,3.7125z" fill="#eb0000"/></svg>