<svg width="59" height="20" viewBox="0,0,59,20" xmlns="http://www.w3.org/2000/svg"><path fill-rule="evenodd" clip-rule="evenodd" d="m2,0C.89543,0,0,.895431,0,2v16c0,1.1046.895431,2,2,2h55c1.1046,0,2-.8954,2-2V2c0-1.104569-.8954-2-2-2H2z" fill="#eb0000"/><path d="m36.6083,7.89789c-.0041-.84803.2398-1.67863.7016-2.38887.7147-1.0336,1.7895-1.5504,3.2244-1.5504,1.1037,0,1.9945.28209,2.6725.84629.714.5763,1.1192,1.45386,1.0958,2.37304.0139.53213-.1361,1.05561-.4296,1.49903-.2762.41163-.6878.71267-1.1629.8504.5902.12304,1.114.46123,1.4702.94922.3688.5182.5584,1.1432.5401,1.7797.0288,1.0802-.4358,2.1144-1.2614,2.8082-.7778.675-1.7606,1.0125-2.9484,1.0125-1.2877,0-2.3086-.3718-3.0627-1.1154-.7542-.7436-1.1313-1.7482-1.1313-3.0137v-.1504h2.2153c0,.7119.1682,1.2616.5045,1.6492.364.3997.8883.6133,1.4269.5814.6149,0,1.0879-.1819,1.419-.5457.3021-.3356.4656-.774.4573-1.2261.0229-.5169-.1922-1.0156-.5834-1.3526-.3206-.2742-.8146-.4113-1.4821-.4113-.187-.0001-.3739.0104-.5597.0316V8.82328c.1366.01074.268.01601.3942.01582,1.3244,0,1.9866-.49304,1.9866-1.47911.0151-.3962-.1434-.77918-.4336-1.04824-.3155-.27594-.725-.41903-1.1431-.39941-.4723-.02845-.9325.15738-1.2535.50625-.2944.3375-.452.8306-.473,1.47929l-2.1837.00001zm16.4606-3.66254V6.292h-4.6433l-.4967,2.60254c.5527-.58894,1.3307-.91156,2.1364-.88594.7957-.01745,1.5756.22394,2.2232.68809.9354.69101,1.4031,1.74041,1.4032,3.14821,0,1.3817-.4993,2.4759-1.4978,3.2828-.7895.637-1.778.9732-2.7908.9493-1.2193,0-2.1995-.3284-2.9405-.985-.741-.6564-1.1326-1.5437-1.1746-2.6617h2.2625c.0256.3771.1628.738.3942,1.0363.3624.424.8903.6692,1.4469.6723.5567.003,1.0872-.2365,1.4542-.6565.3471-.4433.5285-.9948.5124-1.5584.0291-.5803-.1625-1.15-.5361-1.5939-.3641-.40111-.8866-.61975-1.4269-.59709-.7024-.01334-1.3546.36409-1.6949.98089l-2.0576-.0317,1.0958-6.44684,6.3304-.00001zm-43.84896-.0354h4.05626L8.2582,15.8H4.18521L9.21994,4.19995zM25.9805,12.3662c.3665,0,.6985-.2172.8463-.5537l3.2923-7.61255h-14.135L10.9661,15.8h4.0383l3.7988-8.69045h5.9937l-1.2014,2.77546-5.2259-.01902L22.5865,15.8h4.5973l-3.1239-3.4338h1.9206z" fill="#fff"/></svg>