<svg width="36" height="36" viewBox="0,0,36,36" xmlns="http://www.w3.org/2000/svg"><path fill-rule="evenodd" clip-rule="evenodd" d="m11.0314,9.85588c1.2075-.35335,2.36-.60606,3.2185-.60606,1.6497,0,2.6234.39735,3.2348.84728.2256.166.392.3323.5152.4679.1232-.1356.2895-.3019.5152-.4679.6114-.44993,1.585-.84728,3.2348-.84728.8585,0,2.011.25271,3.2185.60606,1.2202.35712,2.5431.83132,3.7606,1.30272,1.2186.4718,2.3379.9433,3.1522,1.2966.4073.1768.7387.3241.9686.4274.1149.0517.2045.0923.2655.1202l.0697.0318.0181.0083.0047.0022.0012.0006.0003.0001c.0001.0001.0002.0001-.2092.4536l.2094-.4535.7993.3691-.7265.4974-.2819-.4119c.2819.4119.2819.4119.2818.412l-.0005.0003-.0014.001-.0052.0036-.0201.0136-.0776.0525c-.068.0458-.1679.1127-.2967.1978-.2576.1703-.6307.4137-1.0948.7074-.9278.5871-2.221,1.3762-3.6819,2.1836-2.7428,1.5158-6.1548,3.1413-8.8541,3.56v.8856c.2942-.1701.6357-.2675,1-.2675,1.0286,0,1.8759.7765,1.9875,1.7753.2971-.1749.6435-.2752,1.0132-.2752,1.0285,0,1.8757.7763,1.9875,1.7749.297-.1746.643-.2748,1.0125-.2748,1.1046,0,2,.8954,2,2L28.25,31.5l-1-.0001.0006-5.2493v-.0001c0-.5522-.4477-.9999-1-.9999s-1,.4477-1,1h-.0001L25.2502,30l-1-.0001.0004-5.2494v-.0001c0-.5522-.4477-.9999-1-.9999s-1,.4477-1,1h-.0008l-.0001,3.7494h-1l.0002-5.2495c0-.5523-.4477-1-1-1-.5516,0-.999.4466-1,.998v3.7515h-1v-11.25c0-.5523-.4477-1-1-1s-1,.4477-1,1v12.75h-1v-2.2493c0-.5523-.4477-1-1-1s-1,.4477-1,1l.0002,5.2493h-1l-.0002-5.2493c0-1.1046.8954-2,2-2,.3643,0,.7058.0974,1,.2675v-4.2093c-2.6513-.7368-5.70968-2.2893-8.12128-3.6652-1.26954-.7243-2.37095-1.4062-3.15514-1.9071-.39221-.2505-.70538-.456-.9209-.5991-.10776-.0715-.19113-.1275-.24779-.1657l-.06465-.0438-.01676-.0114-.00439-.003-.00119-.0008-.00034-.0003c-.0001,0-.00017-.0001.28242-.4126-.20963-.4539-.20957-.4539-.20947-.454l.00034-.0001.00124-.0006.00469-.0022.01803-.0083.0697-.0318c.06101-.0279.15059-.0685.26554-.1202.22988-.1033.5613-.2506.96862-.4274.81429-.3533,1.93357-.8248,3.1522-1.2966,1.21746-.4714,2.54039-.9456,3.76063-1.30272zM2.99988,13.4998l-.28259.4125-.72608-.4974.79904-.369.20963.4539zm25.36802-1.4087c1.1585.4485,2.2276.8974,3.025,1.2424-.783.1587-1.8352.3597-3.0629.5636-2.6121.4337-6.0063.8782-9.2902.9595-.3281-.6562-1.0064-1.1067-1.7899-1.1067-.7601,0-1.4211.4239-1.7595,1.0483-3.0544-.1681-6.08819-.6-8.39166-.9978-.98397-.1699-1.83314-.3334-2.49181-.467.79744-.345,1.86653-.7938,3.0249-1.2423,1.20384-.4661,2.49777-.9294,3.68037-1.2755,1.1953-.3497,2.2314-.5658,2.9377-.5658,1.4798,0,2.2343.3527,2.6421.6527.2086.1536.3455.3068.4589.4388l.0199.0232c.0476.0557.1093.128.1675.1833.0523.0497.2151.202.4616.202s.4092-.1523.4615-.202c.0582-.0553.12-.1276.1675-.1833l.0199-.0232c.1135-.132.2503-.2852.4589-.4388.4078-.3,1.1624-.6527,2.6422-.6527.7063,0,1.7424.2161,2.9376.5658,1.1826.3461,2.4766.8094,3.6804,1.2755zM5.53162,14.5333c.61166.3767,1.32076.8014,2.09255,1.2417,2.31762,1.3223,5.16333,2.7644,7.62573,3.4935v-3.4824c-3.044-.1779-6.04324-.6068-8.32135-1.0003-.50278-.0868-.97083-.172-1.39693-.2525zm13.71828,5.0859v-3.7679c3.2912-.0946,6.6582-.5384,9.2439-.9677.7237-.1202,1.3873-.2394,1.9719-.3498-.8062.4961-1.7811,1.075-2.8454,1.6632-2.698,1.4911-5.8953,2.9987-8.3704,3.4222zm-1.4774-8.7962c-.0106.01-.0094.0068.0024-.0024l-.0024.0024zm.4523-.0024c.0118.0092.013.0124.0025.0024l-.0025-.0024z"/></svg>