<svg width="48" height="48" viewBox="0,0,48,48" xmlns="http://www.w3.org/2000/svg"><path fill-rule="evenodd" clip-rule="evenodd" d="m28.4732,8.16248-11,32.00002-.9456-.3251,11-32,.9456.32508zm-.1724,4.90222C34.4874,16.3637,39.8526,21.0111,44,26.6628v1.5082l-5.395-1.1599-.5122-.1101-.0861.5167-.597,3.5822h-7.0803c-.7728-.6253-1.7569-1-2.8285-1s-2.0557.3747-2.8286,1h-2.6724v1h1.7588c-.4786.7151-.7578,1.575-.7578,2.5,0,.5264.0904,1.0316.2564,1.501h-3.2579v1h3.76c.8074,1.2054,2.1818,1.999,3.7415,1.999s2.9341-.7936,3.7415-1.999l10.2575-.001,1.0674-.0001-.6834-.8199-1.8166-2.18h2.4326c1.622,0,2.5362-.5482,3.025-1.2.2358-.3143.3539-.6289.4132-.8662.0297-.1189.0451-.22.0531-.2946.004-.0373.0062-.0682.0074-.0917l.0006-.0154.0005-.0142.0002-.0105v-.0066c0-.0004,0-.0008-.5-.0008h.5V28.601l-.3949-.0849L45,28.386v-2.0493l-.0958-.1316c-4.2495-5.8331-9.7652-10.6273-16.1329-14.0228l-.4705.8824zm10.4648,20.9352h-1.8559l.097-.5822.2363-1.4178h-6c.4787.7151.7579,1.575.7579,2.5,0,.5263-.0904,1.0315-.2564,1.501L40.4324,36l-1.6668-2.0001zm6.2343-4.591v2.0862l-.0001.0023-.0007.0118-.0005.0059-.0017.0175c-.0037.0349-.0118.09-.0289.1586-.0345.1377-.1038.3231-.2431.5087-.2612.3483-.847.8-2.225.8h-4.4098l.8169-4.901,6.0929,1.31zM28.7385,15.0605l-.5243-.2846-.1886.5659-2,6-.2194.6581h11.8933l-.8445-.8519c-2.3934-2.4148-5.1287-4.4652-8.1165-6.0875zm-1.5449,5.9394,1.5903-4.7708c2.3445,1.327,4.522,2.9285,6.4853,4.7708h-8.0756zm.3073,10c-1.9329,0-3.5,1.5672-3.5,3.5,0,1.9329,1.5671,3.5,3.5,3.5,1.9328,0,3.5-1.5671,3.5-3.5,0-1.9328-1.5672-3.5-3.5-3.5zm-13.0011,3.9999v.0001c.7407,0,1.4152.0348,2.0391.0965l-.0983.9951c-.5883-.0581-1.2279-.0914-1.9347-.0916-2.4419.0604-4.86097.4942-7.17028,1.2898l-.32571-.9455c2.40877-.8298,4.93159-1.2819,7.47759-1.3441l.0123-.0003zm4.6399-17.9999c-1.1922,0-2.2185.8412-2.4523,2.01l-.0001.0005-.1988.9993-.0001.0003c-.271,1.3533.6061,2.6709,1.96,2.9412.1617.0325.3267.0487.4903.0487h2.061v-1h-2.061c-.0981,0-.197-.0097-.2932-.0291l-.001-.0002c-.8117-.1619-1.3383-.952-1.1755-1.7644l.0001-.0007.1989-.9995.0001-.0002c.1403-.7011.7559-1.2059,1.4716-1.2059h3.86v-1h-3.86zM12.5001,11h-.5v7h2.3901l-.8,4H1.76758l.26695.6822,4.5,11.5.17966.4591.46161-.1732C11.0847,33.0015,13.2487,33,17.5001,33v-1h-.0123c-4.1009,0-6.3998,0-10.20038,1.362L3.23272,23H14.41l.0804-.4019,1-5L15.6101,17h-2.61v-5h12v-1h-12.5z"/></svg>