<svg width="23" height="16" viewBox="0,0,23,16" xmlns="http://www.w3.org/2000/svg"><path d="m0,1h22.9v14H0V1zm1.26,12.73h20.38V2.27H1.26v11.46zM3,3.54999h2.75c1.57,0,2.63.7,2.63,2.32.02254.49568-.13999.98205-.45601,1.3646s-.76296.63396-1.25399.7054v.06c.33.06.7.21,1,1L8.82,12.35H7.08l-.87-2.86001c-.05719-.2733-.21105-.51681-.43332-.6858-.22227-.169-.49804-.25216-.77668-.2342h-.38V12.35H3V3.54999zm2.27,3.83c.19012.02659.38379.00973.56645-.04931.18266-.05903.34957-.1587.48817-.29153.13859-.13282.24528-.29533.31203-.47532s.09183-.37277.07335-.56384c0-1-.53-1.26-1.44-1.26h-.65v2.6l.65.04zM14.64,12c-.6302.2765-1.3119.4162-2,.41-2.09,0-3-1.5-3-3.24998,0-1.94,1-3.45,2.68-3.45,1.4,0,2.59.82,2.59,3.47v.31H11.2c0,1.10998.45,1.77998,1.66,1.77998.6097.0409,1.2135-.1403,1.7-.51l.08,1.24zm-1.19-3.49998c0-1.15-.38-1.73-1.08-1.73s-1.17.87-1.17,1.73h2.25zM16,10.84c.5087.252,1.0632.3983,1.63.43.57,0,1-.14,1-.65,0-.25-.13-.49-.7-.82001l-.64-.37c-.66-.4-1.37-.81-1.37-1.83.0557-.54071.3218-1.03782.7409-1.38396.4192-.34614.9576-.51354,1.4991-.46604.5566-.0062,1.1105.07824,1.64.25l-.09,1.21c-.4334-.18516-.8988-.28368-1.37-.29-.63,0-.9.24-.9.63s.28.54.73.83l.77.5c.81.51,1.21.88,1.21,1.64001,0,1.19-1,1.91-2.42,1.91-.6133.0004-1.2222-.1045-1.8-.31l.07-1.28z"/></svg>