<svg width="24" height="24" viewBox="0,0,24,24" xmlns="http://www.w3.org/2000/svg"><path fill-rule="evenodd" clip-rule="evenodd" d="m22.5,0h-21C.7,0,0,.7,0,1.5v21c0,.8.7,1.5,1.5,1.5h21c.8,0,1.5-.7,1.5-1.5v-21c0-.8-.7-1.5-1.5-1.5z" fill="#2d327d"/><path fill-rule="evenodd" clip-rule="evenodd" d="m16.7,9.80005V21h-2.5v-4.9H9.70001V21h-2.5V9.80005h2.5V14H14.3V9.80005h2.4z" fill="#fff"/><path fill-rule="evenodd" clip-rule="evenodd" d="m4.8,3.70002h-.5c0-.1-.1-.2-.1-.3,0,0-.1-.1-.3-.1-.1,0-.2,0-.3.1s0,.1,0,.2,0,.1.1.2c.1,0,.2.1.4.1s.4.1.5.2c.2.1.3.3.3.5s-.1.4-.3.5c-.1.1-.4.2-.6.2-.3,0-.5-.1-.7-.2-.2-.2-.3-.3-.3-.6h.5c0,.1,0,.2.1.3s.2.1.4.1c.1,0,.2,0,.3-.1s.1-.1.1-.2-.1-.1-.2-.2c0,0-.2-.1-.4-.1-.1,0-.3-.1-.3-.1s-.2-.1-.3-.2-.1-.2-.1-.4.1-.4.3-.5c.1-.1.3-.2.5-.2s.4,0,.5.1c.3.2.4.4.4.7z" fill="#fff"/><path fill-rule="evenodd" clip-rule="evenodd" d="m6.64998,4.85c.025-.05.05-.1.05-.15h-.5c0,.1,0,.2-.1.2,0,.1-.1.1-.2.1s-.3-.1-.3-.3v-.2h1.2c0-.2,0-.4-.1-.5l-.3-.3c-.1-.1-.3-.2-.5-.2s-.4.1-.6.3c-.1.1-.2.4-.2.6,0,.11716.03431.2.06274.26863.0201.04853.03726.08995.03726.13137,0,.1.1.2.1.2.2.2.4.3.6.3.3,0,.5-.1.7-.3,0-.05.025-.1.05-.15zm-.45-.85c.1,0,.1.1.1.2h-.7c0-.05.025-.075.05-.1s.05-.05.05-.1c0-.1.1-.1.2-.1h.2s.1,0,.1.1z" fill="#fff"/><path fill-rule="evenodd" clip-rule="evenodd" d="m7.89999,3.60007v.3h-.4v.8c0,.1,0,.2,0,.2s.1.1.2.1h.1v.4c-.1,0-.2,0-.3,0s-.2,0-.3,0c0-.2-.1-.3-.1-.4s0-.2,0-.3v-.8h-.3v-.3h.3v-.4h.4v.4h.4z" fill="#fff"/><path fill-rule="evenodd" clip-rule="evenodd" d="m9.1,3.60007v.3h-.4v.8c0,.1,0,.2,0,.2s.1.1.2.1H9v.4c-.1,0-.2,0-.3,0s-.2,0-.3,0c0-.2-.1-.3-.1-.4s0-.2,0-.3v-.8H8v-.3h.3v-.4h.4v.4h.4z" fill="#fff"/><path fill-rule="evenodd" clip-rule="evenodd" d="m10.7,3.7c-.2-.1-.4-.2-.6-.2-.29999,0-.49999.1-.69999.3-.02087.04174-.04174.07913-.0617.11489-.07568.13557-.1383.24772-.1383.48511,0,.3.1.5.2.6.2.2.4.3.69999.2.2,0,.5,0,.6-.2s.2-.4.2-.7c0-.2-.1-.4-.2-.6zm-.99999.3c.1-.1.2-.1.29999-.1.2,0,.3,0,.3.2.1.1.1.2.1.4s0,.3-.1.4-.2.1-.3.1c-.09999,0-.19999-.1-.19999-.2-.1-.1-.1-.2-.1-.4V4z" fill="#fff"/><path fill-rule="evenodd" clip-rule="evenodd" d="m12.2,3.5V4H12c-.2,0-.3.1-.4.2,0,.1-.1.2-.1.4v.7H11V3.6h.4v.3c.1-.2.3-.3.5-.3.3-.1.3-.1.3-.1z" fill="#fff"/><path fill-rule="evenodd" clip-rule="evenodd" d="m13.85,4.85c.025-.05.05-.1.05-.15h-.4c0,.1,0,.2-.1.2-.0575.0575-.082.08194-.1114.09233C13.2669,5,13.2425,5,13.2,5c-.2,0-.3-.1-.4-.3v-.2H14c0-.2,0-.3-.2-.5,0-.1-.1-.2-.2-.3s-.3-.2-.5-.2-.4.1-.6.3c-.1.1-.2.4-.2.6,0,.11716.0343.2.0627.26863.0201.04853.0373.08995.0373.13137.05.05.075.1.1.15s.05.1.1.15c.2.1.4.2.6.2s.5-.1.6-.3c0-.05.025-.1.05-.15zM13.4,4c.1,0,.1.1.1.2l-.7.1c0-.1,0-.2.1-.3,0-.1.1-.1.2-.1h.2s.1,0,.1.1z" fill="#fff"/></svg>