<svg width="24" height="24" viewBox="0,0,24,24" xmlns="http://www.w3.org/2000/svg"><path fill-rule="evenodd" clip-rule="evenodd" d="m5.4638,3.4638C5.18329,3.74432,5,4.21504,5,5v4.00049h14V5c0-.78496-.1833-1.25568-.4638-1.5362C18.2557,3.18329,17.785,3,17,3H7c-.78496,0-1.25568.18329-1.5362.4638zM5,14v-3.9995h14V14H5zM4.7567,2.7567C5.29968,2.21371,6.07896,2,7,2h10c.921,0,1.7003.21371,2.2433.7567C19.7863,3.29968,20,4.07896,20,5v2h1v2h-1v7.9995h-3.999V15H8v1.9995H4V9H3V7h1V5c0-.92104.21371-1.70032.7567-2.2433zM17.001,15H19v.9995h-1.999V15zM5,15.9995V15h2v.9995H5zM17,4H7v1h10V4zM7,11c-.55214,0-1,.4479-1,1s.44786,1,1,1,1-.4479,1-1-.44786-1-1-1zm9,1c0-.5521.4479-1,1-1s1,.4479,1,1-.4479,1-1,1-1-.4479-1-1zM5.97746,19.9995l1.01611-.9936-.69914-.715-1.894,1.852-.36678.3587.36794.3575,1.896,1.842.69682-.7173-1.01316-.9843H10v-1H5.97746zm12.04624.9912-1.0168.9942.6992.715,1.894-1.852.3669-.3587-.3682-.3575-1.897-1.842-.6966.7175,1.0129.9835H14v1h4.0237z"/></svg>