<svg width="24" height="24" viewBox="0,0,24,24" xmlns="http://www.w3.org/2000/svg"><path fill-rule="evenodd" clip-rule="evenodd" d="m22.5,0h-21C.675,0,0,.675,0,1.5v21c0,.825.675,1.5,1.5,1.5h21c.825,0,1.5-.675,1.5-1.5v-21c0-.825-.675-1.5-1.5-1.5z" fill="#2d327d"/><path fill-rule="evenodd" clip-rule="evenodd" d="m10.5,3v7.5h8.25v2.925H21V3H10.5z" fill="#fff"/><path fill-rule="evenodd" clip-rule="evenodd" d="m9.96749,13.425c-.3-.9-1.1475-1.5-2.0925-1.5s-1.7925.6075-2.1,1.5h-2.7825V8.3925c0-.09.015-.18.0375-.27l.5025-2.0175c.1275-.5025.5775-.855,1.095-.855h4.7475v5.925H18v2.25h-.9075c-.3-.9-1.1475-1.5-2.0925-1.5s-1.785.6-2.0925,1.5H9.96749zM3.94499,7.56c-.0075.03-.0075.06-.0075.09,0,.21.165.375.375.375h2.0625c.21,0,.375-.165.375-.375V6.3c0-.21-.165-.375-.375-.375h-1.4925c-.3075,0-.5775.21-.6525.51l-.285,1.125z" fill="#fff"/><path fill-rule="evenodd" clip-rule="evenodd" d="m3,16.2h18v1.125H3V16.2z" fill="#fff"/><path fill-rule="evenodd" clip-rule="evenodd" d="m3,20.325h18V21H3v-.675z" fill="#fff"/><path fill-rule="evenodd" clip-rule="evenodd" d="m13.32,14.1525c0-.93.7575-1.6875,1.6875-1.6875s1.6875.7575,1.6875,1.6875-.7575,1.6875-1.6875,1.6875-1.6875-.7575-1.6875-1.6875zm.75,0c0,.5175.42.9375.9375.9375s.9375-.42.9375-.9375-.42-.9375-.9375-.9375-.9375.42-.9375.9375z" fill="#fff"/><path fill-rule="evenodd" clip-rule="evenodd" d="m6.12749,14.1525c0-.93.7575-1.6875,1.6875-1.6875s1.6875.75,1.6875,1.6875c0,.93-.7575,1.6875-1.6875,1.6875s-1.6875-.7575-1.6875-1.6875zm.75,0c0,.5175.42.9375.9375.9375s.9375-.42.9375-.9375-.42-.9375-.9375-.9375-.9375.42-.9375.9375z" fill="#fff"/><path fill-rule="evenodd" clip-rule="evenodd" d="m19.515,18.7726c0-.6-.4875-1.0875-1.0875-1.0875s-1.0875.4875-1.0875,1.0875.4875,1.0875,1.0875,1.0875,1.0875-.4875,1.0875-1.0875z" fill="#fff"/><path fill-rule="evenodd" clip-rule="evenodd" d="m16.605,18.7726c0-.6-.4875-1.0875-1.0875-1.0875s-1.0875.4875-1.0875,1.0875.4875,1.0875,1.0875,1.0875,1.0875-.4875,1.0875-1.0875z" fill="#fff"/><path fill-rule="evenodd" clip-rule="evenodd" d="m9.58499,18.7726c0-.6-.4875-1.0875-1.0875-1.0875s-1.0875.4875-1.0875,1.0875.4875,1.0875,1.0875,1.0875,1.0875-.4875,1.0875-1.0875z" fill="#fff"/><path fill-rule="evenodd" clip-rule="evenodd" d="m6.675,18.7726c0-.6-.4875-1.0875-1.0875-1.0875S4.5,18.1726,4.5,18.7726s.4875,1.0875,1.0875,1.0875,1.0875-.4875,1.0875-1.0875z" fill="#fff"/></svg>