<svg width="36" height="36" viewBox="0,0,36,36" xmlns="http://www.w3.org/2000/svg"><path fill-rule="evenodd" clip-rule="evenodd" d="m20.5608,9.24984H21c.3687,0,.702.12044.9383.37947.2292.25118.3117.57199.3117.87049v3c0,.3522-.1166.6789-.3641.9165-.2442.2343-.5654.3335-.8859.3335h-3.1014c-.1999.4266-.4456.8218-.7307,1.176.9037.4766,1.699,1.0581,2.4062,1.7053l-.675.7377c-.721-.6597-1.534-1.2389-2.4658-1.6948-.8123.6744-1.8183,1.0758-2.9334,1.0758-1.1162,0-2.1229-.4022-2.9356-1.0777-3.75383,1.7988-6.14743,5.8664-6.30591,10.5778H16.5v1H3.25v-.5c0-5.1084,2.46653-9.6996,6.57855-11.8284-.48346-.6019-.85332-1.322-1.07855-2.1131v.9414H6c-.33059,0-.63739-.1487-.85691-.3586-.22264-.2128-.39309-.5251-.39309-.8914v-2.9911c0-.3611.16647-.67393.386-.88942.21722-.21324.52536-.36944.864-.36944h.30803c1.91643-8.08058,12.69927-7.8124,14.25277,0zm-1.0227,0H18.25v.94156c-.6436-2.26069-2.4683-3.94156-4.7501-3.94156S9.39359,7.93068,8.75,10.1913v-.94146H7.33925c1.80787-6.77323,10.73155-6.45316,12.19885,0zM9.5,11.9998c0-2.71188,1.8346-4.74996,3.9999-4.74996S17.5,9.28795,17.5,11.9998c0,.6247-.0973,1.2136-.2736,1.75H13.5v1h3.2728c-.7315,1.2272-1.9395,2-3.2729,2-2.1653,0-3.9999-2.038-3.9999-4.75zm-3.75-1.4911c0-.0473.02354-.114.08651-.1758.06528-.0641.13215-.0831.16349-.0831h1.75v3.5H6c-.03304,0-.10124-.0196-.16581-.0813-.06145-.0588-.08419-.1216-.08419-.1687v-2.9911zm13.5,3.2411H21c.1186,0,.1724-.0348.1934-.055.0177-.017.0566-.0653.0566-.195v-3c0-.1242-.0339-.1784-.0504-.1965-.0094-.0103-.0511-.0535-.1996-.0535h-1.75v3.5zM18.25,19.7498h14.5v10h-6v2H30v1h-9v-1h3.25v-2h-6v-10zm7,12h.5v-2h-.5v2zm-6-11v8h12.5v-8h-12.5z"/></svg>