<svg width="36" height="36" viewBox="0,0,36,36" xmlns="http://www.w3.org/2000/svg"><path fill-rule="evenodd" clip-rule="evenodd" d="m24.75,9.24902H19.5v.99998h4.3157l-2.3333,3.5h-8.3326l-.1197.3292-1.0424,2.8666c-.4747-.1272-.9734-.195-1.4877-.195-3.17114,0-5.75,2.5788-5.75,5.75,0,3.1711,2.57886,5.75,5.75,5.75,3.1711,0,5.75-2.5789,5.75-5.75,0-2.3043-1.3617-4.2959-3.3228-5.2125l.923-2.5383h7.5779l1.2476,2.7436c-1.7451.9882-2.9242,2.8622-2.9242,5.0072,0,3.171,2.5772,5.75,5.75,5.75,3.1711,0,5.75-2.5789,5.75-5.75,0-3.1712-2.5789-5.75-5.75-5.75-.6716,0-1.3166.1155-1.916.3278l-1.2653-2.7825,2.8458-4.2687.5183-.77738H24.75zM20.7515,22.4998c0-1.7403.9403-3.2651,2.3401-4.0924l1.9547,4.2986.9104-.4139-1.9553-4.2998c.4717-.1573.9761-.2425,1.5001-.2425,2.6188,0,4.75,2.1311,4.75,4.75,0,2.6188-2.1312,4.75-4.75,4.75-2.6203,0-4.75-2.1311-4.75-4.75zm-9.1072-4.6107-1.6142,4.4391.9398.3417,1.6139-4.4381c1.5774.7734,2.6662,2.3961,2.6662,4.268,0,2.6188-2.1311,4.75-4.75,4.75-2.61886,0-4.75-2.1312-4.75-4.75,0-2.6189,2.13114-4.75,4.75-4.75.3944,0,.7777.0483,1.1443.1393zm-.8316-6.1393h4.188v-1h-4.188v1z"/></svg>