<svg width="36" height="36" viewBox="0,0,36,36" xmlns="http://www.w3.org/2000/svg"><path fill-rule="evenodd" clip-rule="evenodd" d="m18.0004,8.74872c.7301,0,1.3882.28734,1.931.77916l.025.02296c.0624.05745.1231.11764.1819.18045.675.72091,1.1112,1.78691,1.1112,3.02091,0,.0761-.0047.1488-.0119.2269-.0038.0387-.0081.079-.0128.1222v.0001l-.0084.0785-.0092.086.0005.0001-.0001.0011-.0011-.0001c-.2077,2.0563-1.5699,3.4847-3.2061,3.4847-.6604,0-1.2609-.2342-1.7707-.6414.0113-.1128.0207-.2363.0207-.3601,0-1.1999-.3485-2.3009-.9484-3.1661-.0124-.0179-.0249-.0356-.0374-.0533-.1355-.1899-.2834-.3682-.4425-.5331.2851-1.9285,1.6037-3.24898,3.1783-3.24898zm4.2293,4.36048c.5101.4079,1.1109.6423,1.7704.6423,1.7757,0,3.25-1.6813,3.25-3.99997,0-2.32046-1.4746-4.00299-3.25-4.00299-1.573,0-2.893,1.3217-3.1783,3.25027.0147.01527.0294.03066.0439.04615.8653.92134,1.3844,2.24044,1.3844,3.70654,0,.1052-.0071.2119-.0161.3116l-.0043.0461zM18.0004,17.7517c1.0015,0,1.8805-.3755,2.5742-.9971,3.2236,1.987,4.7456,5.0716,5.1314,8.9953h-5.5352c-.78-2.7877-2.3293-5.1023-4.9254-6.752.3692-.5213.6457-1.1315.8108-1.7923.5711.344,1.2272.5461,1.9442.5461zm4.0555-3.5471c-.1647.6603-.4405,1.2701-.8087,1.7912,2.5968,1.6499,4.1448,3.9656,4.9241,6.754h5.5346c-.3854-3.9234-1.9024-7.0016-5.1258-8.9895-.6968.6189-1.5783.9912-2.58.9912-.7167,0-1.3729-.2024-1.9442-.5469zm5.2003-1.2008c.6311-.8857.9939-2.0312.9939-3.25227,0-2.68353-1.7504-5.00299-4.25-5.00299-2.0283,0-3.5545,1.54151-4.0563,3.54663-.5711-.34418-1.227-.54645-1.9434-.54645-2.0293,0-3.5545,1.54-4.0561,3.54468-.5713-.3441-1.2274-.5463-1.9446-.5463-2.49801,0-4.25004,2.3193-4.25004,5.003,0,1.2106.35692,2.3469.9782,3.2294-3.47627,2.2113-5.40354,5.7699-5.47776,10.262l-.0084.5083h17.5452l-.0381-.5355c-.0607-.8524-.1704-1.6751-.3349-2.4644h6.373l-.0381-.5355c-.0607-.8523-.1703-1.6752-.3346-2.4646h6.3726l-.0381-.5355c-.3092-4.3453-1.8861-7.9166-5.4925-10.2105zM13.9073,12.5039c-.538-.4781-1.1871-.7568-1.9076-.7568-1.7741,0-3.25004,1.6826-3.25004,4.003,0,2.3184,1.47564,4,3.25004,4,.4705,0,.9182-.1179,1.3224-.3347l.035-.0418.0163.0136c.9532-.5359,1.6543-1.6276,1.8225-3.0183l.0107-.1034c.0054-.0516.0107-.0989.0157-.1432l.0001-.0006c.0035-.0315.0069-.0615.01-.0905.0101-.099.0171-.1876.0171-.2805,0-1.0296-.3037-1.9423-.7964-2.6351-.1493-.2099-.3159-.3996-.4967-.5664l-.0491-.0453zm-1.9076,8.2462c.0696,0,.1386-.0018.207-.0054l-.1479.1763.1319.2875.4869,1.0612-.6666,1.3819-.657-1.4289.4945-1.0013.1492-.3022-.1533-.1721c.0514.002.1032.003.1553.003zm-2.60116-1.0108c.19309.1739.40057.3288.62106.4619l.783.8796-.4508.9128-.1055.2137.0996.2166,1.2,2.61.4434.9645.4612-.9562,1.23-2.55.1022-.2119-.0981-.2138-.4531-.9875.7327-.8732c.2155-.1299.4184-.2807.6076-.4498,3.2238,1.9871,4.7482,5.0705,5.1342,8.9938H4.26697c.20222-3.9899,2.00396-7.0782,5.13157-9.0105zM21,22.25h1.5v-1H21v1z"/></svg>