<svg width="24" height="24" viewBox="0,0,24,24" xmlns="http://www.w3.org/2000/svg"><path fill-rule="evenodd" clip-rule="evenodd" d="m11,4.5002c0-.27686.2232-.5.5-.5.2769,0,.5.22314.5.5,0,.27618-.2234.5-.5.5-.2765,0-.5-.22382-.5-.5zm1.888.56995c.0722-.17576.112-.36823.112-.56995,0-.82914-.6708-1.5-1.5-1.5-.8291,0-1.5.67086-1.5,1.5,0,.20172.0398.39419.1121.56995-1.64794.16899-3.20757.64775-4.44873,1.47544-1.48327.98913-2.49916,2.47226-2.64519,4.45461H2.00003v1H21v-1h-1.0181c-.1461-1.98235-1.162-3.46548-2.6452-4.45461-1.2412-.82769-2.8008-1.30645-4.4487-1.47544zM11.5,6.0002c-2.01262,0-3.90705.46058-5.28182,1.37736-1.23105.82095-2.05606,2.01084-2.19675,3.62264H18.9786c-.1407-1.6118-.9657-2.80169-2.1967-3.62264C15.4071,6.46078,13.5127,6.0002,11.5,6.0002zm-3.49753,9.8201-3.57765-2.5017c-.64514-.5042-1.57978-.3999-2.0954.2424l-.00009.0001c-.51543.6424-.415,1.5807.22221,2.1009l5.91726,5.2132L8.61049,21h3.92591l.8618.855.1462.145h8.857l-.8463-.8523-5.028-5.064.0001-.0001-.0082-.0079c-1.1882-1.1433-2.7494-2.0444-4.4002-2.0756V14h-2.1185c-.63292,0-1.14541.244-1.49567.6352-.30074.336-.46434.7601-.50216,1.1851zM3.8398,14.1298l4.69769,3.2848-5.42817-3.2277c.17266-.215.48813-.2498.70455-.0766l.01265.0102.01328.0093zm4.69769,3.2848L3.10923,14.187c-.17185.2143-.13792.5297.0781.7031l.00893.0072.00859.0075L8.98816,20h3.96014l.1462.145.8618.855h6.043l-4.1777-4.2076C14.7378,15.751,13.4085,15.0263,12.1044,15h-2.1041c-.35953,0-.59729.131-.75063.3023-.16133.1802-.25364.4337-.25574.7016-.00209.2679.08606.518.24349.6949.1493.1678.38809.3012.76288.3012h2v1h-2c-.61312,0-1.11301-.2209-1.46281-.5854z"/></svg>