<svg width="48" height="48" viewBox="0,0,48,48" xmlns="http://www.w3.org/2000/svg"><path fill-rule="evenodd" clip-rule="evenodd" d="m26.0001,2v10h-1V2h1zm8.916,2.27735-4,5.99995-.8321-.55465,4-6,.8321.5547zm-14,5.4453-4-6-.8321.5547,4,5.99995.8321-.55465zm14.0392,2.10075c-.1971,0-.3923.0389-.5744.1144s-.3475.1861-.4868.3256l-.0002.0002-8.4776,8.4775-.0024.0025-3.5576,3.6075-.856.868v-7.7062c-.0223-.4016-.2-.779-.4956-1.0522-.2984-.2757-.6931-.4233-1.0992-.4109l-.0076.0002h-.0076c-.4152,0-.704.144-.9317.3919-.244.2658-.4391.6764-.5843,1.2336l-.0001.0005-3.5771,13.8772,9.6393,9.6394c.068-.0246.1464-.0539.2345-.0884.37-.1451.9124-.3827,1.5857-.7485,1.3463-.7315,3.2176-1.9763,5.2818-4.0209,2.1002-2.0802,3.3505-3.3155,4.0758-4.0308.3627-.3577.5942-.5854.7351-.7238l.1486-.1458.0329-.0322.0074-.0072c.1406-.1394.2522-.3053.3283-.4881.0762-.1828.1154-.3789.1154-.5769s-.0392-.3941-.1154-.5769c-.0761-.1828-.1877-.3487-.3283-.4881l-.0004-.0004c-.281-.2794-.6612-.4362-1.0575-.4362s-.7765.1568-1.0575.4362l-.0001-.0001-1.409,1.4091-.7071-.7072,2.12-2.12c.1394-.1393.25-.3048.3254-.4869.0754-.1822.1143-.3774.1143-.5745s-.0389-.3923-.1143-.5744c-.0754-.1822-.186-.3477-.3254-.487-.1394-.1394-.3049-.25-.487-.3254-.1821-.0755-.3773-.1143-.5745-.1143-.1971,0-.3923.0388-.5744.1143-.1821.0754-.3476.186-.487.3254l-2.12,2.12v-.0001h-.0001l-.7071-.7071,2.83-2.83c.1394-.1394.25-.3048.3254-.487.0755-.1821.1143-.3773.1143-.5744s-.0388-.3923-.1143-.5745c-.0754-.1821-.186-.3476-.3254-.487-.1394-.1393-.3049-.2499-.487-.3254-.1821-.0754-.3773-.1142-.5744-.1142-.1972,0-.3924.0388-.5745.1142-.104.0431-.2026.0977-.294.1625l-2.3112,2.3314-.0252-.025-.6866.6865-.7071-.7071,2.83-2.83c.0765-.0765.1577-.1478.2431-.2135l6.7956-6.8549.0042-.0043h.0001c.1417-.1395.2542-.3059.3311-.4894.0768-.1835.1164-.3804.1164-.5793s-.0396-.3958-.1164-.5793c-.0769-.1835-.1894-.3499-.3311-.4895l-.003-.0028c-.1393-.1395-.3047-.2501-.4868-.3256s-.3773-.1144-.5744-.1144zm-1.9372,12.4652c.0131-.0286.0257-.0574.0377-.0865.1257-.3034.1904-.6287.1904-.9571,0-.3285-.0647-.6537-.1904-.9571-.1257-.3035-.3099-.5792-.5422-.8115-.2322-.2322-.508-.4164-.8114-.5421-.1888-.0782-.386-.1328-.5872-.1629l5.6084-5.6574c.2351-.2321.4219-.5086.5496-.8135.128-.3058.194-.634.194-.9655s-.066-.6597-.194-.9655c-.1278-.3052-.3149-.582-.5504-.8143-.2319-.2318-.5071-.4157-.8099-.5412-.3035-.1258-.6289-.1906-.9574-.1906s-.6539.0648-.9574.1906c-.3034.1258-.579.3101-.8112.5424l-.0001.0002-8.4799,8.4798-.0024.0025-2.704,2.742v-5.293l-.0006-.0121c-.0323-.6676-.3254-1.2958-.8163-1.7495-.489-.4519-1.1353-.6946-1.8007-.6763-.6912.0019-1.2449.2627-1.6607.7156-.4009.4366-.6508,1.0258-.8156,1.6584l-.0003.0012-3.4594,13.4206c-.39-.1434-.8449-.0585-1.158.2546l-1.9799,1.9799c-.42962.4296-.42962,1.1261,0,1.5557l10.4651,10.4651c.4296.4296,1.1261.4296,1.5557.0001l1.9799-1.9799c.2988-.2989.3898-.7269.2728-1.1044.4035-.1603.9667-.4104,1.6517-.7826,1.4237-.7735,3.3724-2.0737,5.5082-4.1891,2.0998-2.0798,3.3495-3.3145,4.0742-4.0292.3623-.3573.5933-.5846.7336-.7224l.1475-.1447.0323-.0315.0073-.0073.0018-.0016.0004-.0004v-.0001h.0001l.003-.003c.2343-.2324.4203-.5089.5472-.8136.1269-.3046.1923-.6314.1923-.9614s-.0654-.6568-.1923-.9614c-.1268-.3045-.3127-.5809-.5468-.8132-.4315-.4289-1.0031-.6845-1.6068-.7221.0139-.0301.0272-.0605.0399-.0912.1257-.3034.1904-.6286.1904-.9571,0-.3284-.0647-.6537-.1904-.9571-.1257-.3035-.31-.5792-.5422-.8115-.2323-.2322-.508-.4164-.8114-.5421-.2563-.1062-.5281-.1688-.8042-.1857zm-19.8319,7.5679-.049-.049c-.0391-.039-.1024-.039-.1414,0l-1.9799,1.9799c-.0391.0391-.0391.1024,0,.1415L21.481,44.394c.0391.0391.1024.0391.1415,0l1.9799-1.9799c.0228-.0228.0323-.0541.0284-.0838l-.0304.0082-.2047-.206-10.01-10.07-.2006-.2018.0011-.0042z"/></svg>