<svg width="24" height="24" viewBox="0,0,24,24" xmlns="http://www.w3.org/2000/svg"><path fill-rule="evenodd" clip-rule="evenodd" d="m12,3.99976h1v-1h-3v1h1v2.00073h.5c4.1419,0,7.5,3.35814,7.5,7.50001,0,4.1418-3.3581,7.5-7.5,7.5-4.14186,0-7.5-3.3582-7.5-7.5v-.494H3v.494c0,4.6941,3.80586,8.5,8.5,8.5,4.6941,0,8.5-3.8059,8.5-8.5,0-4.52631-3.5386-8.22671-8-8.48555V3.99976zm-.5931,13.29114,5-7-.8138-.58127-4.6569,6.51967-2.58265-2.5826-.7071.7071,2.99995,3,.4174.4174.3431-.4803zM10.0417,6.12615l-.96602.259-.25897-.96589.966-.259.25899.96589zM7.31701,7.25503l.866-.5-.50002-.86602-.866.5.50002.86602zm-.76669.58804-.707.707-.70711-.70711.707-.707.70711.70711zM4.75479,10.1828l.5-.86604-.86602-.50001-.5.866.86602.50005zm-.36964.8929-.259.966-.96589-.259.259-.966.96589.259z"/></svg>