<svg width="36" height="36" viewBox="0,0,36,36" xmlns="http://www.w3.org/2000/svg"><path fill-rule="evenodd" clip-rule="evenodd" d="m6,8.75h3.25v15H27v-1H10.25v-2h16.3604l.1139-.3419,3-9,.2194-.6581H10.25v-3H6v1zm4.25,3v8h15.6396l2.6667-8H10.25zm4,15c-.5523,0-1,.4477-1,1s.4477,1,1,1,1-.4477,1-1-.4477-1-1-1zm-2,1c0-1.1046.8954-2,2-2,1.1045,0,2,.8954,2,2s-.8955,2-2,2c-1.1046,0-2-.8954-2-2zm10,0c0-.5523.4477-1,1-1s1,.4477,1,1-.4477,1-1,1-1-.4477-1-1zm1-2c-1.1046,0-2,.8954-2,2s.8954,2,2,2,2-.8954,2-2-.8954-2-2-2z"/></svg>