<svg width="59" height="20" viewBox="0,0,59,20" xmlns="http://www.w3.org/2000/svg"><path fill-rule="evenodd" clip-rule="evenodd" d="m2,0C.89543,0,0,.895431,0,2v16c0,1.1046.895431,2,2,2h55c1.1046,0,2-.8954,2-2V2c0-1.104569-.8954-2-2-2H2z"/><path d="m4.18636,11.9488c-.03239,2.8597,2.36424,4.1271,4.92281,4.1271,3.14153,0,4.80943-1.5924,4.80943-3.7209,0-2.63223-2.5909-3.16842-3.433-3.37965-2.89862-.74742-3.44919-.86116-3.44919-1.75482,0-.9749.93922-1.31611,1.74889-1.31611,1.21451,0,2.2023.35746,2.2833,1.75482H13.53c0-2.68098-2.2185-3.73712-4.63134-3.73712-2.08896,0-4.32365,1.13738-4.32365,3.50964,0,2.17728,1.7327,2.84344,3.4492,3.29844,1.70031.4549,3.43299.6662,3.43299,1.9173,0,1.1861-1.3602,1.4461-2.25087,1.4461-1.36025,0-2.55856-.6012-2.55856-2.1448H4.18636zm11.12254,3.8509h2.3805V8.03295h.0324l4.8094,7.76675h2.5424V4.19834h-2.3804v7.78296h-.0324l-4.8257-7.78296h-2.5262V15.7997zm24.1759-2.0568v2.0566h-8.3012c0-.6275.101-1.2261.3035-1.7956.2022-.5695.4874-1.06.8553-1.4713.2838-.3164.616-.6249.9972-.9255.3811-.3006,1.1391-.8515,2.2743-1.65319.552-.38487.9382-.74356,1.159-1.07579.2207-.33222.3311-.71709.3311-1.15488,0-.50625-.1486-.91621-.4454-1.22998-.2971-.31377-.6873-.4707-1.1708-.4707-1.1878,0-1.8.85703-1.8368,2.5708h-2.2151v-.25313c0-1.40273.3914-2.48896,1.1745-3.25898.7621-.74873,1.7474-1.12324,2.9564-1.12324,1.0721,0,1.9681.30586,2.6881.91758.7831.66445,1.1746,1.5583,1.1746,2.68154,0,.98086-.3126,1.82461-.9381,2.53127-.2049.2321-.3969.4179-.5755.5576-.1787.1398-.649.476-1.4111,1.0086-.7253.5062-1.2444.8938-1.557,1.1628-.3126.2689-.603.5774-.8711.9255h5.4081zM44.3648,3.95801c.8777,0,1.6503.26894,2.3177.80683.6622.53789,1.1432,1.36582,1.4426,2.48379.226.8543.3391,1.78252.3391,2.78437,0,1.6611-.2943,3.027-.883,4.0975-.3468.6222-.8002,1.1022-1.3598,1.4396-.5598.3374-1.1839.5063-1.8724.5063-.9407,0-1.7449-.2848-2.4123-.8543-1.1878-1.0125-1.7817-2.7421-1.7817-5.1891,0-1.74022.3101-3.13759.9303-4.19237.3521-.60117.8132-1.06514,1.3836-1.39219.5701-.32695,1.2021-.49043,1.8959-.49043zm-.0868,1.95381c-.7568,0-1.2719.43779-1.5452,1.31308-.2155.6961-.3231,1.67178-.3231,2.9268,0,1.1074.1104,1.9961.3311,2.6657.2838.8701.8094,1.3052,1.5767,1.3052.6359,0,1.1089-.3374,1.419-1.0125.3101-.675.465-1.7059.465-3.0929,0-1.18126-.1101-2.11203-.3309-2.7923-.2838-.87529-.8148-1.31309-1.5926-1.31309v.00001z" fill="#ffde15"/></svg>