<svg width="59" height="20" viewBox="0,0,59,20" xmlns="http://www.w3.org/2000/svg"><path fill-rule="evenodd" clip-rule="evenodd" d="m2,0C.89543,0,0,.895431,0,2v16c0,1.1046.895431,2,2,2h55c1.1046,0,2-.8954,2-2V2c0-1.104569-.8954-2-2-2H2z"/><path d="m4.18612,11.9488c-.03239,2.8597,2.36424,4.1271,4.9228,4.1271,3.14158,0,4.80948-1.5924,4.80948-3.7209,0-2.63223-2.591-3.16842-3.433-3.37965-2.89866-.74742-3.44924-.86116-3.44924-1.75482,0-.9749.93923-1.31611,1.7489-1.31611,1.21451,0,2.20234.35746,2.28324,1.75482h2.4614c0-2.68098-2.2185-3.73712-4.63129-3.73712-2.08895,0-4.32365,1.13738-4.32365,3.50964,0,2.17728,1.7327,2.84344,3.44921,3.29844,1.70031.4549,3.43303.6662,3.43303,1.9173,0,1.1861-1.3603,1.4461-2.25091,1.4461-1.36025,0-2.55857-.6012-2.55857-2.1448h-2.4614zm11.12258,3.8509h2.3804V8.03295h.0324l4.8095,7.76675h2.5423V4.19834h-2.3804v7.78296h-.0324l-4.8256-7.78296h-2.5262V15.7997zM31.3803,12.8965h2.1759c.1787.8966.6962,1.3447,1.5529,1.3447.4835,0,.8763-.1647,1.1786-.4944.3023-.3295.5347-.8424.6979-1.5385.1049-.443.1812-.9465.2285-1.5108-.3521.4957-.7134.8477-1.084,1.0559-.3705.2084-.8213.3125-1.3519.3125-.8464,0-1.5821-.2478-2.2074-.7435-.4364-.3481-.7766-.799-1.0209-1.35267-.2445-.55371-.3666-1.15489-.3666-1.80352,0-1.30244.4441-2.35723,1.3323-3.16406.762-.6961,1.6765-1.04414,2.7434-1.04414.6569,0,1.2639.14765,1.8212.44297.5569.29541,1.0246.71464,1.403,1.25771.6675.96504,1.0013,2.32041,1.0013,4.06582,0,1.61369-.2943,2.99009-.8829,4.12909-.7674,1.4819-1.9289,2.2228-3.4845,2.2228-1.0354,0-1.8909-.2874-2.5661-.8622-.6753-.5747-1.0655-1.3474-1.1707-2.3177zm3.8314-6.98469c-.494,0-.912.20303-1.2534.60909-.3418.41132-.5125.93339-.5125,1.56621,0,.51152.1234.96504.3704,1.36054.3364.54317.8094.81475,1.419.81475.5521,0,.9935-.2215,1.3245-.66446.31-.4165.4652-.9123.4652-1.48711,0-.60634-.1604-1.1205-.4808-1.54248-.3366-.43769-.7806-.65654-1.3324-.65654z" fill="#ffde15"/></svg>