<svg width="24" height="24" viewBox="0,0,24,24" xmlns="http://www.w3.org/2000/svg"><path fill-rule="evenodd" clip-rule="evenodd" d="m11.5166,1.96027-.0167-.00055-.0167.00055c-.6795.0227-1.3223.31373-1.78771.80938-.46431.49449-.71426,1.15242-.69548,1.83034.0054.43855.12607.86799.34994,1.2452l.00019.00031,1.72996,2.91.4311.72503.4292-.72612,1.72-2.91v.00001l.002-.00354c.2192-.37779.3355-.80637.3375-1.24304.0182-.67716-.2317-1.33423-.6955-1.82819-.4654-.49565-1.1083-.78668-1.7878-.80938zm-1.0921,1.49389c.2805-.29873.6665-.47579,1.0754-.4938.409.01801.795.19507,1.0755.4938.2843.30279.437.7059.4247,1.12106H13l-.0001.01389c-.0004.26282-.0699.52089-.2015.74837l-1.2897,2.18198L10.2099,5.3348v-.00003c-.1348-.22714-.2073-.48585-.21-.74997h.00009l-.00028-.00958c-.01227-.41516.14049-.81827.42479-1.12106zM2,9.99999h7.12037l-.13178.60621-2.5,11.5-.97718-.2124L7.87963,11H2V9.99999zm12.5,0h-.6204l.1318.60621,2.5,11.5.9772-.2124L15.1204,11H21V9.99999h-6.5zM12,13v-2h-1v2h1zm0,4v-2h-1v2h1zm0,2v2h-1v-2h1z"/></svg>