<svg width="48" height="48" viewBox="0,0,48,48" xmlns="http://www.w3.org/2000/svg"><path fill-rule="evenodd" clip-rule="evenodd" d="m3.08008,8.12012H45.0801v7.99998h-.5c-1.7239,0-3.3772.6848-4.5962,1.9038s-1.9038,2.8723-1.9038,4.5962.6848,3.3772,1.9038,4.5962,2.8723,1.9038,4.5962,1.9038h.5v9H3.08008V8.12012zm1,1V37.1201H44.0801v-7.0167c-1.8065-.1206-3.5151-.8918-4.8033-2.18-1.4065-1.4065-2.1967-3.3142-2.1967-5.3033s.7902-3.8968,2.1967-5.3033c1.2882-1.2882,2.9968-2.0594,4.8033-2.18V9.12012H4.08008zM25.0801,15.1201v-3h-1v3h-11v-3h-1v3H8.08008v18.9488l.49875.0012,19.99997.05.5013.0013V15.1201h-4zm-16.00002,1v2H28.0801v-2H9.08008zm0,16.9513V19.1201H28.0801v13.9988l-19.00002-.0475zm10.52982-2.9513v-8h-.74c-.0687.399-.2611.7664-.55,1.05-.5094.3224-1.1087.4731-1.71.43v.72h2v5.8h1zM32.0801,10.1201v2h1v-2h-1zm0,5v-2h1v2h-1zm0,1v2h1v-2h-1zm0,5v-2h1v2h-1zm0,1v2h1v-2h-1zm0,5v-2h1v2h-1zm0,1v2h1v-2h-1zm0,5v-2h1v2h-1zm0,1v2h1v-2h-1z"/></svg>