<svg width="36" height="36" viewBox="0,0,36,36" xmlns="http://www.w3.org/2000/svg"><path fill-rule="evenodd" clip-rule="evenodd" d="m19.2499,7.49955v-4.5h-1v4.5h1zM13.8534,8.646l-3-3-.7071.7071,3,3,.7071-.7071zm13.5-2.2929-3,3-.7071-.7071,3-3,.7071.7071zM13.2499,17.2495c0-3.0373,2.4626-5.5,5.5-5.5,3.0373,0,5.5,2.4627,5.5,5.5v8.5h-11v-8.5zm-1,8.5v-8.5c0-3.5896,2.9103-6.5,6.5-6.5,3.5896,0,6.5,2.9104,6.5,6.5v8.5h2.8603l.114.3419,1.5,4.5.2194.6581H7.55615l.21937-.6581,1.5-4.5.11397-.3419h2.86041zm4-9.25v7.5h-1v-7.5h1zm-7.30632,13.75,1.16662-3.5h17.2793l1.1667,3.5H8.94358z"/></svg>