<svg width="48" height="48" xmlns="http://www.w3.org/2000/svg"><path fill-rule="evenodd" clip-rule="evenodd" d="m9.5,11H9v17.02C8.83,28.01,8.67,28,8.5,28H8v7H7v5h9v-1.99c1.3.05,2.46.26,3.59.48l.18.04c1.05.21,2.11.41,3.23.46V40h18v-3.5H41c0-3.59-2.91-6.5-6.5-6.5h-5c-2.16,0-3.89-1.6-5.15-4H25v-1h-1.13c-.28-.64-.53-1.31-.75-2H24v-1h-1.17c-.18-.67-.33-1.34-.45-2H23v-1h-.78C22.07,17.93,22,16.91,22,16v-5H9.5zm13.28,14c-.27-.65-.5-1.32-.71-2H20v-1h1.8c-.17-.67-.31-1.34-.43-2H19v-1h2.21C21.07,17.93,21,16.91,21,16H10v12.15c3.27.66,5.76,3.45,5.98,6.86,1.41.04,2.65.28,3.8.5l.15.03C21.17,35.78,22.29,36,23.5,36h16.48c-.25-2.8-2.61-5-5.48-5h-5c-2.88,0-4.93-2.25-6.27-5H21v-1h1.78zM40,37H23.5c-1.31,0-2.52-.24-3.73-.47l-.18-.04C18.31,36.24,17.01,36,15.5,36H8v3h7v-2h.5c1.62,0,3,.26,4.28.51l.15.03C21.17,37.78,22.29,38,23.5,38h.5v1h16v-2zM9,35v-5.98c3.19.24,5.74,2.79,5.98,5.98H9zm1-20h11v-3H10v3z"/></svg>