<svg width="24" height="24" xmlns="http://www.w3.org/2000/svg"><path fill-rule="evenodd" clip-rule="evenodd" d="m12.21,4.65c-.34.33-.59.79-.68,1.4,1.71.29,2.94,1.98,2.97,3.9C15.62,9.67,16.5,8.49,16.5,7c0-1.71-1.15-3-2.5-3-.74,0-1.36.24-1.79.65zm-.69-.72c-.55.53-.9,1.25-.99,2.11C8.76,6.3,7.5,8.04,7.5,10c0,.92.28,1.8.76,2.49-2.76,1.42-4.26,4.82-4.26,8.01v.5H18v-.5c0-.83-.1-1.68-.31-2.5h3.31v-.5c0-3.19-1.56-6.52-4.31-7.94.51-.71.81-1.62.81-2.56,0-2.09-1.45-4-3.5-4-.96,0-1.84.31-2.48.93zm4.44,6.4c-.45.35-.98.58-1.57.65-.13.57-.36,1.09-.67,1.54,1.74.9,2.99,2.57,3.67,4.48h2.59c-.16-2.88-1.67-5.63-4.02-6.68zM11,7c-1.31,0-2.5,1.27-2.5,3,0,1.73,1.19,3,2.5,3,1.31,0,2.5-1.27,2.5-3,0-1.73-1.19-3-2.5-3zM8.97,13.26c-2.34,1.05-3.8,3.85-3.96,6.74H16.99c-.15-2.89-1.64-5.67-3.98-6.72-.56.45-1.25.72-2.01.72-.77,0-1.47-.28-2.03-.74z"/></svg>