<svg width="36" height="36" xmlns="http://www.w3.org/2000/svg"><path fill-rule="evenodd" clip-rule="evenodd" d="m18,4.25C10.41,4.25,4.25,10.41,4.25,18S10.41,31.75,18,31.75,31.75,25.59,31.75,18,25.59,4.25,18,4.25zM3.25,18C3.25,9.85,9.85,3.25,18,3.25S32.75,9.85,32.75,18,26.15,32.75,18,32.75,3.25,26.15,3.25,18zm12.73-8.57,1.24.41-.82,1.22.83.55.76-1.14.76,1.14.83-.55-.82-1.22,1.24-.41-.32-.95L18.5,8.89V7.68h-1v1.2l-1.2-.4-.32.95zm7.24,2.88-1.24-.41.32-.95,1.2.4V10.15h1v1.2l1.2-.4.32.95-1.24.41.82,1.22-.83.55-.76-1.14-.76,1.14-.83-.55.82-1.22zm1.01,5.54,1.24.41-.82,1.22.83.55.76-1.14.76,1.14.83-.55-.82-1.22,1.24-.41-.32-.95-1.2.4v-1.2h-1v1.2l-1.2-.4-.32.95zm-1.01,6.37-1.24-.41.32-.95,1.2.4v-1.2h1v1.2l1.2-.4.32.95-1.24.41.82,1.22-.83.55-.76-1.14-.76,1.14-.83-.55.82-1.22zM15.98,26.27l1.24.41-.82,1.22.83.55.76-1.14.76,1.14.83-.55-.82-1.22,1.24-.41-.32-.95-1.2.4v-1.2h-1v1.2l-1.2-.4-.32.95zm-4.76-2.05-1.24-.41.32-.95,1.2.4v-1.2h1v1.2l1.2-.4.32.95-1.24.41.82,1.22-.83.55-.76-1.14-.76,1.14-.83-.55.82-1.22zm-3.49-6.37,1.24.41-.82,1.22.83.55.76-1.14.76,1.14.83-.55-.82-1.22,1.24-.41-.32-.95-1.2.4v-1.2h-1v1.2l-1.2-.4-.32.95zm3.49-5.54-1.24-.41.32-.95,1.2.4V10.15h1v1.2l1.2-.4.32.95-1.24.41.82,1.22-.83.55-.76-1.14-.76,1.14-.83-.55.82-1.22z"/></svg>