<svg width="36" height="36" xmlns="http://www.w3.org/2000/svg"><path fill-rule="evenodd" clip-rule="evenodd" d="m24.13,15.01c.79.12,1.43.51,1.88,1.07.56.69.8,1.61.74,2.51-.06.9-.44,1.82-1.16,2.52-.73.7-1.78,1.14-3.14,1.14h-10.5c-1.37,0-2.42-.44-3.12-1.15-.7-.7-1.03-1.63-1.07-2.54-.04-.9.21-1.82.71-2.52.42-.58,1.01-1.02,1.76-1.16.01-2.8,2.95-4.34,5.14-3.12,1.33-2.36,3.8-2.94,5.8-2.22,1.06.38,2,1.14,2.56,2.19.48.91.66,2.03.42,3.28zm-3.31-4.53c-1.69-.61-3.8-.06-4.81,2.21l-.27.6-.51-.41c-1.63-1.33-4.28-.07-3.99,2.39l.07.56h-.56c-.62,0-1.12.3-1.47.79-.36.5-.56,1.19-.53,1.89.03.7.28,1.38.78,1.88.49.49,1.26.86,2.42.86h10.5c1.13,0,1.93-.36,2.45-.86.53-.51.81-1.18.85-1.86.05-.69-.14-1.35-.52-1.82-.37-.46-.93-.76-1.71-.73l-.7.03.2-.67c.38-1.27.23-2.33-.19-3.14-.43-.82-1.16-1.41-2.01-1.72z"/></svg>