<svg width="36" height="36" xmlns="http://www.w3.org/2000/svg"><path fill-rule="evenodd" clip-rule="evenodd" d="m14.59,8.08-.59,1.61c-1.12,3.09-.08,6.91,2.36,9.62,2.42,2.69,6.16,4.21,10.36,2.79l2-.68-1.48,1.5c-2.75,2.78-5.69,3.89-8.41,3.78-2.71-.1-5.14-1.4-6.87-3.29-1.73-1.89-2.78-4.41-2.71-6.99.07-2.6,1.27-5.22,3.97-7.29l1.36-1.05zM25.06,23.53c-3.83.57-7.18-1.04-9.44-3.55-2.23-2.48-3.44-5.89-2.96-9.01-1.63,1.68-2.35,3.6-2.4,5.48-.06,2.3.87,4.57,2.45,6.29,1.57,1.72,3.76,2.88,6.16,2.97,1.95.07,4.08-.55,6.19-2.18z"/></svg>