<svg width="36" height="36" xmlns="http://www.w3.org/2000/svg"><path fill-rule="evenodd" clip-rule="evenodd" d="m17.25,3.25h-.5v4.52C14.22,8.03,12.25,10.16,12.25,12.75v4.46l-3,1.2V22.75H4.75v9H3v1h28.5v-1h-1.75v-9h-4.5v-4.34L22.25,17.21V12.75c0-2.59-1.97-4.72-4.5-4.98V5.75h3V3.25h-3.5zm7,19.5v-2H10.25v2h14zm-15,1H5.75v8H9.25v-8zm1,0h2v8h-2v-8zm3,0v8h2l0-4v0c0-1.1.9-2,2-2,1.1,0,2,.9,2,2v0l0,4h2l0-8h-8zm9,0h2v8h-2l0-8zm3,0h3.5v8h-3.5v-8zM19.75,4.75h-2V4.25h2v.5zM18.25,31.75h-2l0-4v0c0-.55.45-1,1-1s1,.45,1,1v0l0,4zm6-12.66v.66H10.25v-.66l7-2.8,7,2.8zM21.25,16.81V13.25h-8v3.56l4-1.6,4,1.6zm-4-8.06c2.04,0,3.72,1.53,3.97,3.5h-7.94c.25-1.97,1.93-3.5,3.97-3.5z"/></svg>