<svg width="24" height="24" xmlns="http://www.w3.org/2000/svg"><path fill-rule="evenodd" clip-rule="evenodd" d="m12,6c-1.31,0-2.5,1.27-2.5,3,0,1.73,1.19,3,2.5,3s2.5-1.27,2.5-3c0-1.73-1.19-3-2.5-3zM8.5,9c0-2.13,1.5-4,3.5-4,2,0,3.5,1.87,3.5,4,0,.93-.28,1.81-.77,2.5C17.53,12.89,19,16.35,19,19.5v.5H5v-.5c0-3.13,1.47-6.6,4.27-8C8.78,10.81,8.5,9.93,8.5,9zm3.69,3.99c-.06,0-.12.01-.19.01-.06,0-.12,0-.19-.01l.19.22.19-.22zm-2.25-.7c-2.33,1.04-3.77,3.86-3.92,6.7h5.28l-.85-.85,1.01-4.03-1.52-1.83zm2.77,6.7h5.28c-.15-2.86-1.59-5.68-3.92-6.7l-1.52,1.83,1.01,4.03-.85.85zm-.26-1.15L12,16.06l-.45,1.79.45.45.45-.45z"/></svg>