<svg width="24" height="24" xmlns="http://www.w3.org/2000/svg"><path fill-rule="evenodd" clip-rule="evenodd" d="m7,8c0-2.76,2.24-5,5-5,2.76,0,5,2.24,5,5,0,2.76-2.24,5-5,5-2.76,0-5-2.24-5-5zm5-6c-3.31,0-6,2.69-6,6,0,1.78.77,3.37,2,4.47v9.73l2.5-2.5,2.5,2.5v-4l.5-.5,2.5,2.5V12.47c1.23-1.1,2-2.7,2-4.47,0-3.31-2.69-6-6-6zm3,11.2c-.61.35-1.28.6-2,.72v2.88l.5-.5,1.5,1.5v-4.6zm-6,6.6v-6.6c.88.51,1.91.8,3,.8v5.79l-1.5-1.5-1.5,1.5zM9,8c0-1.66,1.34-3,3-3s3,1.34,3,3-1.34,3-3,3-3-1.34-3-3zm3-4c-2.21,0-4,1.79-4,4,0,2.21,1.79,4,4,4,2.21,0,4-1.79,4-4,0-2.21-1.79-4-4-4z"/></svg>