<svg width="36" height="36" xmlns="http://www.w3.org/2000/svg"><path fill-rule="evenodd" clip-rule="evenodd" d="m4.75,17.25c0-6.9,5.6-12.5,12.5-12.5s12.5,5.6,12.5,12.5-5.6,12.5-12.5,12.5-12.5-5.6-12.5-12.5zm23.99-.46c-.07-1.8-.56-3.5-1.37-5h-2.67c.43,1.56.68,3.25.71,5h3.32zm-4.32,0c-.04-1.77-.3-3.45-.75-5H17.75v5h6.67zM16.75,16.79h-6.67c.04-1.77.3-3.45.75-5H16.75v5zm1-6h5.6c-.45-1.26-1.02-2.41-1.69-3.42-.24-.37-.5-.71-.77-1.04-.99-.33-2.04-.53-3.14-.58v5.03zm-1-5.03v5.03h-5.6c.45-1.26,1.02-2.42,1.7-3.43.24-.36.5-.71.76-1.03.99-.33,2.04-.53,3.14-.58zm0,12.03v5h-5.89c-.46-1.54-.73-3.23-.77-5h6.67zm1,5v-5h6.67c-.05,1.77-.32,3.46-.77,5H17.75zm-1,1h-5.57c.44,1.23,1,2.35,1.66,3.33.24.36.5.71.77,1.04.99.33,2.04.53,3.14.58v-4.95zm1,4.95v-4.95h5.57c-.45,1.24-1.02,2.38-1.69,3.37-.24.35-.48.68-.74,1-.99.33-2.04.53-3.14.58zM25.42,17.79c-.04,1.76-.3,3.44-.73,5h2.64c.82-1.5,1.33-3.19,1.41-5h-3.32zm-1.04,6c-.44,1.31-1.02,2.52-1.7,3.6,1.61-.86,3-2.1,4.03-3.6h-2.33zm.03-13h2.36c-1.04-1.54-2.45-2.8-4.09-3.69.7,1.1,1.28,2.34,1.73,3.69zm-15.33,6c.04-1.75.29-3.44.71-5H7.12c-.81,1.5-1.3,3.2-1.37,5h3.32zm1.02-6c.45-1.34,1.03-2.59,1.73-3.69-1.64.88-3.05,2.15-4.09,3.69h2.36zm-1.01,7c.04,1.76.3,3.44.73,5H7.17c-.82-1.5-1.33-3.19-1.41-5h3.32zm1.04,6H7.79c1.04,1.5,2.42,2.74,4.04,3.6-.68-1.08-1.26-2.29-1.7-3.6z"/></svg>