<svg width="36" height="36" xmlns="http://www.w3.org/2000/svg"><path fill-rule="evenodd" clip-rule="evenodd" d="m15.25,4.75h5.5v1.85c1.94.54,3.32,1.65,4.26,2.95C26.32,11.37,26.75,13.55,26.75,15v9c0,.55.17,1.37.66,2.05C27.88,26.7,28.66,27.25,30,27.25v1h-7.78c-.12.95-.58,1.68-1.27,2.18-.79.57-1.84.82-2.94.82s-2.15-.25-2.94-.82c-.69-.5-1.16-1.24-1.27-2.18H6v-1c.54,0,1.37-.17,2.05-.66C8.7,26.12,9.25,25.34,9.25,24v-9c0-1.46.43-3.63,1.74-5.45.94-1.3,2.31-2.41,4.26-2.95V4.75zm1,1.63C16.79,6.3,17.38,6.25,18,6.25s1.21.05,1.75.14V5.75h-3.5v.63zM14.79,28.25c.11.61.42,1.06.85,1.37.57.41,1.39.63,2.36.63s1.79-.22,2.36-.63c.43-.31.74-.76.85-1.37h-6.42zM10.25,15c0-1.3.39-3.25,1.56-4.86C12.95,8.55,14.86,7.25,18,7.25s5.05,1.3,6.19,2.89C25.36,11.75,25.75,13.71,25.75,15v9c0,.71.21,1.75.84,2.64.16.22.34.43.55.61H8.84C9.65,26.58,10.25,25.54,10.25,24v-9z"/></svg>