<svg width="36" height="36" xmlns="http://www.w3.org/2000/svg"><path fill-rule="evenodd" clip-rule="evenodd" d="m3.25,6.25h29.5v7h-.5c-2.27,0-4,1.73-4,4,0,2.27,1.73,4,4,4h.5v7H3.25V6.25zm1,1V27.25h27.5v-5.02c-2.58-.24-4.5-2.32-4.5-4.98s1.92-4.74,4.5-4.98V7.25H4.25zm20,.74v-.49h1v.49h-1zm0,1.95v-.98h1v.98h-1zm0,1.95v-.98h1v.98h-1zm0,1.95v-.98h1v.98h-1zm0,1.95v-.98h1v.98h-1zm0,1.95v-.98h1v.98h-1zm0,1.95v-.98h1v.98h-1zM24.25,21.64v-.98h1v.98h-1zm0,1.95v-.98h1v.98h-1zm0,1.95v-.98h1v.98h-1zm0,1.46v-.49h1v.49h-1zM13.97,10.33,13.5,9.05l-2,5.45H6.1l4.11,3.36-2.22,5.92L13.5,20.1l5.49,3.66-2.2-6.04,4.17-3.22h-5.47l-1.53-4.17zm-1.65,4.84L13.5,11.95l1.3,3.55h3.23l-2.43,1.88,1.4,3.86L13.5,18.9l-3.49,2.33,1.38-3.68-2.49-2.04h3.3l.12-.33z"/></svg>