<svg width="36" height="36" xmlns="http://www.w3.org/2000/svg"><path fill-rule="evenodd" clip-rule="evenodd" d="m7.25,6c0-1,.75-1.75,1.75-1.75s1.75.75,1.75,1.75S10,7.75,9,7.75,7.25,7,7.25,6zM9,3.25C7.45,3.25,6.25,4.45,6.25,6S7.45,8.75,9,8.75c.49,0,.95-.12,1.34-.33l3.84,5.27C12.99,14.73,12.25,16.27,12.25,18c0,1.43.51,2.74,1.36,3.74l-3.26,3.18c-.58-.42-1.3-.67-2.09-.67-1.97,0-3.5,1.53-3.5,3.5,0,1.97,1.53,3.5,3.5,3.5,1.97,0,3.51-1.53,3.51-3.5,0-.81-.26-1.54-.7-2.13l3.26-3.18c.99.82,2.27,1.31,3.68,1.31,2.15,0,4.01-1.15,4.99-2.87l2.9,1.34c-.09.32-.14.67-.14,1.03,0,1.98,1.52,3.5,3.5,3.5s3.5-1.52,3.5-3.5-1.52-3.5-3.5-3.5c-1.26,0-2.33.61-2.94,1.56l-2.9-1.34c.22-.61.34-1.28.34-1.97,0-1.11-.3-2.13-.83-3l3.64-2.53c.49.49,1.18.78,1.94.78,1.54,0,2.77-1.2,2.77-2.75,0-1.54-1.23-2.76-2.77-2.76-1.54,0-2.75,1.22-2.75,2.76,0,.41.09.8.24,1.14l-3.66,2.55c-1.05-1.19-2.59-1.94-4.33-1.94-1.11,0-2.14.3-3.02.84l-3.87-5.31C11.51,7.31,11.75,6.69,11.75,6c0-1.55-1.2-2.75-2.75-2.75zm19.5,5.49c-.99,0-1.75.77-1.75,1.76,0,.99.76,1.75,1.75,1.75.99,0,1.77-.76,1.77-1.75,0-.99-.77-1.76-1.77-1.76zM18,13.26c-2.66,0-4.75,2.09-4.75,4.74,0,2.65,2.1,4.75,4.75,4.75,2.66,0,4.75-2.1,4.75-4.75,0-2.65-2.1-4.74-4.75-4.74zm8.75,9.99c0-1.43,1.07-2.5,2.5-2.5s2.5,1.07,2.5,2.5-1.07,2.5-2.5,2.5-2.5-1.07-2.5-2.5zm-18.5,2c-1.42,0-2.5,1.08-2.5,2.5,0,1.42,1.08,2.5,2.5,2.5,1.42,0,2.51-1.09,2.51-2.5,0-1.41-1.09-2.5-2.51-2.5z"/></svg>