<svg width="24" height="24" xmlns="http://www.w3.org/2000/svg"><path fill-rule="evenodd" clip-rule="evenodd" d="m6.92,4.01c2.28-.38,4.14.83,5.08,1.75.94-.92,2.81-2.13,5.08-1.75C20.37,4.56,22,7.31,22,10c0,1.86-.94,3.59-1.39,4.41.27.29.63.7.89,1.16.18.32.33.7.34,1.1.01.42-.13.84-.48,1.19-.73.73-1.64.5-2.2.22-.27-.13-.5-.3-.67-.43-.06.05-.14.1-.22.16-.35.24-.85.57-1.47.89C15.57,19.34,13.86,20,12,20s-3.57-.66-4.8-1.31c-.62-.32-1.12-.65-1.47-.89-.08-.06-.15-.11-.22-.16-.17.13-.4.29-.67.43-.56.28-1.47.52-2.2-.22-.35-.35-.49-.77-.48-1.19.01-.4.16-.78.34-1.1.25-.46.61-.87.89-1.16C2.94,13.59,2,11.86,2,10,2,7.31,3.63,4.56,6.92,4.01zM18.85,16.65l-.32-.32-.35.29,0,0,0,0-.02.02c-.02.02-.05.04-.09.07-.08.06-.21.16-.37.27-.32.22-.79.53-1.36.83C15.18,18.41,13.64,19,12,19s-3.18-.59-4.33-1.19c-.57-.3-1.04-.6-1.36-.83-.16-.11-.29-.21-.37-.27-.04-.03-.07-.06-.09-.07l-.03-.02,0,0,0,0,0,0h0l-.35-.29-.32.32,0,0,0,0,0,0,0,0-.01.01c-.01.01-.02.02-.04.04-.04.03-.09.08-.16.14-.14.11-.33.25-.54.35-.44.22-.78.23-1.05-.03-.15-.15-.19-.3-.19-.45,0-.18.07-.39.21-.64.27-.49.72-.95.98-1.2l.25-.25-.16-.32c-.05-.11-.12-.23-.2-.38C3.79,13.05,3,11.58,3,10,3,7.69,4.37,5.44,7.08,4.99c2.15-.36,3.92,1.06,4.53,1.82L12,7.3l.39-.49c.61-.76,2.38-2.18,4.53-1.82C19.63,5.44,21,7.69,21,10c0,1.58-.79,3.05-1.25,3.9v0c-.08.14-.15.27-.2.38l-.16.32.25.25c.26.26.71.71.98,1.2.14.24.21.46.21.64,0,.16-.04.3-.19.45-.27.27-.61.25-1.05.03-.21-.1-.4-.24-.54-.35-.07-.06-.12-.1-.16-.14-.02-.02-.03-.03-.04-.04l-.01-.01zM6.78,8.42c.64-.42,1.15-.43,1.51-.31.23.07.42.21.56.34L6.17,11.13c-.1-.31-.17-.69-.17-1.06,0-.67.21-1.27.78-1.65zm3.17-.14c-.22-.45-.7-.92-1.36-1.13-.68-.22-1.5-.14-2.37.44C5.29,8.21,5,9.19,5,10.06c0,.86.28,1.7.57,2.19l.33.55,4.21-4.21-.16-.32zm7.83-.69c-.86-.58-1.69-.65-2.37-.44-.65.21-1.13.68-1.36,1.13l-.16.32,4.21,4.21.33-.55c.3-.49.57-1.33.57-2.19,0-.87-.29-1.86-1.22-2.48zm.06,3.54-2.68-2.68c.14-.14.33-.27.56-.34.36-.12.87-.11,1.51.31.57.38.78.98.78,1.65,0,.38-.07.75-.17,1.06zm-5.5-.5-.33-.29-4.62,4.04.17.35C7.97,15.55,9.4,17,12,17c2.6,0,4.03-1.45,4.45-2.28l.17-.35-4.29-3.75zM12,16c-1.82,0-2.89-.83-3.35-1.41l3.35-2.93,3.35,2.93C14.89,15.17,13.82,16,12,16z"/></svg>