<svg width="48" height="48" xmlns="http://www.w3.org/2000/svg"><path fill-rule="evenodd" clip-rule="evenodd" d="m17.5,3C9.49,3,3,9.49,3,17.5,3,25.51,9.49,32,17.5,32,25.51,32,32,25.51,32,17.5,32,9.49,25.51,3,17.5,3zM2,17.5C2,8.94,8.94,2,17.5,2,26.06,2,33,8.94,33,17.5c0,4.1-1.59,7.83-4.19,10.6l3.87,3.87,1.06-1.06L45.41,42.59c.78.78.78,2.05,0,2.83-.78.78-2.05.78-2.83,0L30.91,33.74l1.06-1.06-3.87-3.87C25.33,31.41,21.6,33,17.5,33,8.94,33,2,26.06,2,17.5zm3,0C5,10.6,10.6,5,17.5,5S30,10.6,30,17.5,24.4,30,17.5,30,5,24.4,5,17.5zM17.5,4C10.04,4,4,10.04,4,17.5S10.04,31,17.5,31,31,24.96,31,17.5,24.96,4,17.5,4zm25.79,40.71L32.32,33.74l1.41-1.41,10.97,10.97c.39.39.39,1.02,0,1.41-.39.39-1.02.39-1.41,0zM18,18h8v-1h-8V9h-1v8H9v1h8v8h1v-8z"/></svg>