<svg width="48" height="48" xmlns="http://www.w3.org/2000/svg"><path fill-rule="evenodd" clip-rule="evenodd" d="m16.5,3.92,1.36,4.08h4.07l-3.34,2.67.33.99,5.59,7.33h-2.99l6.18,7.94.33-5.95h4.97v-3.5c0-1.38,1.12-2.5,2.5-2.5,1.38,0,2.5,1.12,2.5,2.5v0l0,3.5h4.98l1.06,19H26.97l.17-2.99H17v3h-1v-3H2.48l7-9h-5l7-9H8.49l5.59-7.33.33-1-3.34-2.67h4.07l1.36-4.08zM37,21.99l0,3,1,0,0-3h4.03l.94,17h-14.94l.94-17h4.03v3h1v-3h3zm0-1,0-3.5v0c0-.83-.67-1.5-1.5-1.5-.83,0-1.5.67-1.5,1.5v3.5h3zm-9.5,7.01h.14l-.27,4.94-3.84-4.94h3.98zm-5.39-.19,5.17,6.65-.09,1.54H4.52l7-9H6.52l7-9h-3.01l2.6-3.4-.12.35,3.51-2.81,3.51,2.81-.12-.35,2.6,3.4h-3.01l7,9h-5l.63.81zM16.5,7.08l-.64,1.92h-1.94l1.66,1.33-.57,1.72,1.49-1.19,1.49,1.19-.57-1.72,1.66-1.33h-1.94l-.64-1.92z"/></svg>