<svg width="48" height="48" xmlns="http://www.w3.org/2000/svg"><path fill-rule="evenodd" clip-rule="evenodd" d="m13.5,11c-.83,0-1.5.67-1.5,1.5s.67,1.5,1.5,1.5,1.5-.67,1.5-1.5-.67-1.5-1.5-1.5zm-2.5,1.5c0-1.38,1.12-2.5,2.5-2.5s2.5,1.12,2.5,2.5-1.12,2.5-2.5,2.5-2.5-1.12-2.5-2.5zm0,25.5v2h1V38h3v2h1V38h2.05l-1.1-11h-6.91L8.94,38h2.05zm-.92-21h6.85l2.07,12.42-.99.16L16.07,18h-5.15L8.99,29.58l-.99-.16L10.07,17zm-.02,20,.9-9h5.1l.9,9h-6.9zm15.45-26c-.83,0-1.5.67-1.5,1.5s.67,1.5,1.5,1.5c.83,0,1.5-.67,1.5-1.5s-.67-1.5-1.5-1.5zm-2.5,1.5c0-1.38,1.12-2.5,2.5-2.5,1.38,0,2.5,1.12,2.5,2.5s-1.12,2.5-2.5,2.5c-1.38,0-2.5-1.12-2.5-2.5zm0,27.5V28h-1V29.5h-1V17h9v12.5h-1v-1.5h-1v12h-1V28h-3v12h-1zm6-22v9h-7V18h7zM35,20.5c0-.83.67-1.5,1.5-1.5.83,0,1.5.67,1.5,1.5,0,.83-.67,1.5-1.5,1.5-.83,0-1.5-.67-1.5-1.5zm1.5-2.5c-1.38,0-2.5,1.12-2.5,2.5s1.12,2.5,2.5,2.5c1.38,0,2.5-1.12,2.5-2.5,0-1.38-1.12-2.5-2.5-2.5zm-2.5,15v7h1v-7h3v7h1v-7h.83l.17,1.55.99-.11L39.95,25h-6.89l-1.05,9.44.99.11.17-1.55h.83zm5.72-1L39.05,26h-5.1l-.67,6h6.44z"/></svg>