<svg width="36" height="36" xmlns="http://www.w3.org/2000/svg"><path fill-rule="evenodd" clip-rule="evenodd" d="m8.75,5.25c0-.55.45-1,1-1,.55,0,1,.45,1,1v2.5h-2v-2.5zm-1,2.5v-2.5c0-1.1.9-2,2-2s2,.9,2,2v2.5h12.5v-2.5c0-1.1.9-2,2-2s2,.9,2,2v2.5h4.5v7h-4.5v5h4.5v7h-4.5V32.75h-4v-6h-12.5V32.75h-4v-6h-4.5v-7h4.5V14.75h-4.5v-7h4.5zm19.5-2.5v2.5h-2v-2.5c0-.55.45-1,1-1s1,.45,1,1zm0,14.5V14.75h-2v5h2zM11.75,14.75h12.5v5h-12.5V14.75zm-3,5V14.75h2v5h-2zM4.25,8.75v5h3.79l5-5H4.25zm10.21,0-5,5H21.54l5-5H14.46zm17.29,5h-8.79l5-5H31.75v5zm-4.5,13V31.75h-2v-5h2zm-18.5,0V31.75h2v-5h-2zm-4.5-6v4.29l4.29-4.29H4.25zm9.79,5H4.96l5-5h9.09l-5,5zm6.41-5-5,5h9.09l5-5h-9.09zm10.5,0-5,5H31.75v-5h-.79z"/></svg>