<svg width="48" height="48" fill="none" xmlns="http://www.w3.org/2000/svg"><path fill-rule="evenodd" clip-rule="evenodd" d="m12.51,32c0-.83-.67-1.5-1.5-1.5s-1.5.67-1.5,1.5.67,1.5,1.5,1.5,1.5-.67,1.5-1.5z" stroke="#000"/><path d="m15.51,26.5H4.01m6-18H4m4.01,9h-4m3-9-2,6h5.99c3.01,0,4.51,1.48,4.51,4.37V37.5H4.01m7,0,3,5.5m1-2.5H4" stroke="#000"/><path fill-rule="evenodd" clip-rule="evenodd" d="m43.51,4.5h-23.5c-.82,0-1.5.68-1.5,1.5v1.5h25v-3zm-20,9h10V9.5h-10v4z" stroke="#000"/><path d="m25.51,7.5v2m6-2v2" stroke="#000"/><path fill-rule="evenodd" clip-rule="evenodd" d="m18.51,37.5h25v-2h-25v2zm21-2h2V7.5h-2V35.5z" stroke="#000"/><path d="m20.51,37.5V43" stroke="#000"/></svg>