<svg width="24" height="24" xmlns="http://www.w3.org/2000/svg"><path fill-rule="evenodd" clip-rule="evenodd" d="m6,4.5C6,3.67,6.67,3,7.5,3S9,3.67,9,4.5,8.33,6,7.5,6,6,5.33,6,4.5zM7.5,2C6.12,2,5,3.12,5,4.5S6.12,7,7.5,7,10,5.88,10,4.5,8.88,2,7.5,2zM4.03,13.42C3.43,13.23,3,12.66,3,12H2c0,1.22.87,2.23,2.02,2.45C4.17,16.43,5.32,18.16,7,19.33V22h3v-1.31c.79.2,1.63.31,2.5.31.52,0,1.02-.05,1.5-.12V22h3v-2.08c1.35-.7,2.48-1.7,3.18-2.92H22v-5h-1.36c-.34-.94-.91-1.78-1.64-2.5V6h-.5c-1.33,0-2.41,1.05-2.49,2.36l1,.06c.03-.62.44-1.13.99-1.33v2.85l.16.15c.79.73,1.36,1.6,1.64,2.56l.1.36H21v3h-1.42l-.14.27c-.62,1.2-1.73,2.21-3.15,2.89L16,19.29V21h-1v-1.34l-.6.13C13.78,19.92,13.15,20,12.5,20c-1.01,0-1.97-.16-2.84-.45L9,19.33V21H8v-2.2l-.23-.15C6.06,17.53,5,15.85,5,14c0-2.16,1.45-4.11,3.71-5.17l-.43-.9c-2.33,1.1-4.02,3.11-4.26,5.5zM12.5,7c-.83,0-1.5.67-1.5,1.5s.67,1.5,1.5,1.5S14,9.33,14,8.5,13.33,7,12.5,7zM10,8.5C10,7.12,11.12,6,12.5,6S15,7.12,15,8.5c0,.64-.24,1.23-.64,1.67.45.08.88.19,1.3.33l-.31.95c-.88-.29-1.84-.45-2.84-.45s-1.97.16-2.84.45l-.31-.95c.42-.14.85-.25,1.3-.33C10.24,9.73,10,9.14,10,8.5zm8,4.5h-1v-1h1v1z"/></svg>