<svg width="48" height="48" fill="none" xmlns="http://www.w3.org/2000/svg"><path fill-rule="evenodd" clip-rule="evenodd" d="m2.5,23.5c0-11.6,9.4-21,21-21s21,9.4,21,21c0,11.6-9.4,21-21,21s-21-9.4-21-21z" stroke="#000"/><path d="m33,23.5h-9.5V9m0-6.5v4.5m0-4.5v1.5m-2.2-1.38.16,1.49m-2.33-1.15.31,1.47m-2.44-.9.46,1.43m-2.52-.64.61,1.37M13,5.31l.75,1.3m-2.59-.1.88,1.21m-2.59.17,1,1.12m-2.56.44,1.12,1M6.51,11.16l1.21.88M5.31,13l1.3.75m-2.3,1.21,1.37.61m-2.16,1.44,1.43.46M2.96,19.13l1.47.31m-1.81,1.86,1.49.16M2.5,23.5H4m-1.38,2.2,1.49-.16m-1.15,2.33,1.47-.31M3.53,29.99l1.43-.46M4.32,32.04l1.37-.61m-.37,2.57,1.3-.75m-.1,2.59,1.21-.88M7.89,37.55l1.12-1m.44,2.56,1-1.11m.7,2.5.88-1.21M13,41.69l.75-1.3m1.21,2.3.61-1.37m1.44,2.16.46-1.43m1.66,2,.31-1.47m1.86,1.81.16-1.49M23.5,44.5v-1.5m2.2,1.38-.16-1.49m2.33,1.15-.31-1.47m2.44.9-.46-1.43m2.52.64-.61-1.37M34,41.69l-.75-1.3M35.84,40.49l-.88-1.21m2.59-.17-1-1.11m2.56-.44-1.12-1m2.5-.71-1.21-.88m2.41-.96-1.3-.75m2.3-1.21-1.37-.61M43.47,29.99l-1.43-.46m2-1.66-1.47-.31m1.81-1.86-1.49-.16M44.5,23.5H43m1.38-2.2-1.49.16m1.15-2.33-1.47.31m.9-2.44-1.43.46m.64-2.52-1.37.61m.37-2.57-1.3.75m.1-2.59-1.21.88m-.17-2.59-1.12,1m-.44-2.56-1,1.12m-.7-2.5-.88,1.21M34,5.31l-.75,1.3m-1.21-2.3-.61,1.37M29.99,3.53l-.46,1.43m-1.66-2-.31,1.47m-1.86-1.81-.16,1.49M13,5.31l2.25,3.9M5.31,13l3.9,2.25M2.5,23.5H7m-1.69,10.5,3.9-2.25M13,41.69l2.25-3.9m8.25,6.71v-4.5M34,41.69l-2.25-3.9m9.94-3.79-3.9-2.25m6.71-8.25H40m1.69-10.5-3.9,2.25M34,5.31l-2.25,3.9" stroke="#000"/></svg>