<svg width="48" height="48" xmlns="http://www.w3.org/2000/svg"><path fill-rule="evenodd" clip-rule="evenodd" d="m23.78,8.08-.28.42-.28-.42.28-.18.28.18zM36.67,26.04c-.61.81-1.3,1.54-1.98,2.2,1.57.68,2.99,1.67,4.18,2.91l.31.32-.28.34c-1.88,2.31-7.29,5.05-14.87,1.5l.01,6.69-1,0-.01-6.71c-7.6,3.58-13.03.83-14.91-1.48l-.28-.34.31-.32c1.19-1.24,2.61-2.23,4.18-2.91-.68-.66-1.37-1.4-1.98-2.2-1.19-1.56-2.15-3.41-2.33-5.49l-.03-.35.32-.15c1.95-.9,4.32-.91,6.16-.71.93.1,1.74.25,2.31.38.13.03.24.06.35.08.38-3.73,1.67-6.5,2.98-8.4.77-1.13,1.55-1.95,2.13-2.5.29-.27.54-.47.71-.61.09-.07.16-.12.21-.15.02-.02.04-.03.06-.04l.02-.01,0,0,0,0c0,0,0,0,.28.42.28-.42.28-.42.28-.42l0,0,.01,0,.02.01c.01.01.03.02.06.04.05.04.12.09.21.15.17.14.42.34.71.61.59.54,1.36,1.37,2.13,2.5,1.31,1.9,2.6,4.67,2.98,8.4.1-.03.22-.05.35-.08.58-.13,1.39-.28,2.31-.38,1.84-.2,4.21-.19,6.16.71l.32.15-.03.35c-.19,2.08-1.14,3.93-2.33,5.49zm-3.85,3.85c.34-.28.7-.58,1.06-.9,1.47.57,2.81,1.44,3.94,2.53-1.87,1.91-6.78,4.16-13.8.68l0-1.44,5.76-3.84-.55-.83-5.21,3.47-.01-6.56-1,0,.01,6.57-5.23-3.49-.55.83,5.79,3.86,0,1.41c-7.03,3.5-11.96,1.25-13.83-.67,1.13-1.1,2.47-1.96,3.94-2.53.36.32.72.62,1.06.9l.63-.78c-1.19-.97-2.56-2.21-3.68-3.68-1.05-1.38-1.86-2.93-2.09-4.62,1.64-.65,3.63-.66,5.3-.48.88.1,1.65.24,2.2.36.19.04.35.08.49.12-.02.39-.03.78-.03,1.19h1c0-4.64,1.46-7.92,2.91-10.03.73-1.06,1.45-1.83,1.99-2.33.24-.23.45-.4.6-.52.15.12.36.29.6.52.54.5,1.26,1.27,1.99,2.33,1.45,2.11,2.91,5.39,2.91,10.03h1c0-.41-.01-.8-.03-1.19.13-.03.3-.07.49-.12.55-.12,1.32-.27,2.2-.36,1.67-.18,3.66-.17,5.3.48-.24,1.69-1.04,3.24-2.09,4.62-1.12,1.47-2.5,2.72-3.68,3.68l.63.78z"/></svg>