<svg width="36" height="36" xmlns="http://www.w3.org/2000/svg"><path fill-rule="evenodd" clip-rule="evenodd" d="m26.75,8.25v-1.21l-6.74,6.74L9.71,15.25l-.02,0c-.04,0-.1,0-.18,0-.16-.01-.38-.02-.65-.04-.54-.05-1.26-.16-1.96-.37-.71-.22-1.38-.54-1.87-.99-.47-.44-.78-1.02-.78-1.83h-1c0,1.1.44,1.94,1.09,2.56.64.6,1.47.98,2.26,1.22.79.24,1.58.36,2.16.41.18.02.34.03.48.04v13.76h1V16.18l10.24-1.46L25.75,9.46v2l4.29,4.29L27.75,18.04,54,34.58l-2,2v-6.59h1V18.96l1-1,1.5,1.5,3.71-3.71L54.5,11.04V8.25zm-11,13-.01,0c-1.07.01-1.79.71-2.27,1.56-.48.85-.76,1.95-.94,3-.18,1.06-.25,2.11-.28,2.89-.01.39-.02.72-.02.95,0,.11,0,.21,0,.27l0,.07,0,.02,0,.01,0,0v0c0,0,0,0,.5-.01l.5-.02,0,0v0l0,0,0-.08c0-.06,0-.14,0-.25,0-.22,0-.53.02-.91.03-.76.1-1.76.26-2.76.17-1.01.43-1.97.82-2.67.39-.7.85-1.04,1.41-1.05H21.25v7.75h1V21.25h-6.5zm9-8.25c-.69,0-1.25.56-1.25,1.25s.56,1.25,1.25,1.25,1.25-.56,1.25-1.25-.56-1.25-1.25-1.25zM24.5,14.25c0-.14.11-.25.25-.25s.25.11.25.25-.11.25-.25.25-.25-.11-.25-.25z"/></svg>