<svg width="36" height="36" xmlns="http://www.w3.org/2000/svg"><path fill-rule="evenodd" clip-rule="evenodd" d="m6.43,6.41C6,6.82,5.75,7.34,5.75,7.8v1.45h24.5V7.8c0-.13-.05-.33-.18-.58-.13-.24-.31-.49-.53-.72C29.08,6.03,28.57,5.75,28.2,5.75H7.8c-.42,0-.94.24-1.37.66zM8.56,15.25l-2.5-5H29.94l-2.5,5H8.56zm.05,1-2.67,8H30.06l-2.67-8H8.61zM5.75,28.2v-2.95h24.5v2.8c0,.43-.24.99-.66,1.46-.42.46-.93.74-1.39.74H7.8c-.5,0-1.01-.24-1.41-.64C5.99,29.21,5.75,28.69,5.75,28.2zM5.73,5.69C6.28,5.15,7.04,4.75,7.8,4.75h20.4c.78,0,1.54.51,2.07,1.07.28.29.52.61.69.94.17.32.29.69.29,1.04v2.07l-2.96,5.92,2.96,8.88V28.05c0,.75-.38,1.54-.91,2.13-.53.59-1.29,1.07-2.14,1.07H7.8c-.81,0-1.57-.39-2.12-.94C5.13,29.76,4.75,29,4.75,28.2v-3.53l2.96-8.88,4.75,9.87V7.8c0-.81.43-1.57.98-2.11zM24,28.25h3v-1h-3v1z"/></svg>