<svg width="36" height="36" xmlns="http://www.w3.org/2000/svg"><path fill-rule="evenodd" clip-rule="evenodd" d="m18.25,10.5V6h1v4.5h-1zm-8.95-.62,3.4,3.39.71-.71-3.4-3.39-.71.71zM18.75,13.25c-3.05,0-5.5,2.45-5.5,5.5,0,1.29.39,2.53,1.1,3.44l-.79.61c-.86-1.11-1.3-2.58-1.3-4.06,0-3.6,2.9-6.5,6.5-6.5,3.6,0,6.5,2.9,6.5,6.5,0,1.55-.58,2.95-1.46,4.06l-.78-.62c.76-.95,1.24-2.14,1.24-3.43,0-3.05-2.45-5.5-5.5-5.5zm-8.25,6H6v-1h4.5v1zm17.13-9.94-3.4,3.38.7.71,3.4-3.38-.7-.71zM27,18.25h4.5v1H27v-1zm-19.5,7h20.99v-1H7.5v1z"/></svg>