<svg width="36" height="36" xmlns="http://www.w3.org/2000/svg"><path fill-rule="evenodd" clip-rule="evenodd" d="m24.25,6V3h1v3h-1zm-2.28,3.84c.74.43,1.38,1.05,1.8,1.85.48.92.66,2.04.42,3.29.79.12,1.42.52,1.86,1.08.1.12.18.25.26.39,1.45-.59,2.45-1.99,2.45-3.7,0-2.26-1.74-4-4-4-1.1,0-2.07.41-2.78,1.09zm4.7,7.55c.09.39.12.79.09,1.2-.07.91-.45,1.82-1.16,2.52-.72.7-1.76,1.15-3.09,1.15h-10.5c-1.37,0-2.42-.44-3.12-1.16-.7-.71-1.03-1.64-1.07-2.55-.04-.91.21-1.83.71-2.53.42-.58,1.01-1.02,1.76-1.17.01-2.8,2.94-4.36,5.13-3.13,1.28-2.28,3.63-2.91,5.58-2.3C21.9,8.38,23.24,7.75,24.75,7.75c2.81,0,5,2.19,5,5,0,2.13-1.25,3.9-3.09,4.64zm-10.61-4.73c1.01-2.29,3.12-2.84,4.81-2.23.85.31,1.58.91,2.01,1.73.43.81.57,1.88.19,3.15l-.2.67.7-.03c.78-.03,1.33.27,1.69.73.37.47.55,1.13.5,1.83-.05.69-.34,1.37-.86,1.88-.52.5-1.29.86-2.39.86h-10.5c-1.15,0-1.92-.36-2.41-.86-.5-.5-.75-1.18-.78-1.89-.03-.71.17-1.4.53-1.9.35-.5.86-.8,1.47-.8h.56l-.07-.56c-.3-2.47,2.36-3.74,3.99-2.4l.51.42.27-.6zm1.34-6.48,2.16,2.08.69-.72-2.16-2.08-.69.72zM31.46,20.27l-2.12-2.12.71-.71,2.12,2.12-.71.71zm3.04-8.02h-3v1h3v-1zM29.17,7.6l2.12-2.12.71.71-2.12,2.12-.71-.71zM14.75,25.5c0-.14.11-.25.25-.25.14,0,.25.11.25.25s-.11.25-.25.25c-.14,0-.25-.11-.25-.25zm.25-1.25c-.69,0-1.25.56-1.25,1.25s.56,1.25,1.25,1.25c.69,0,1.25-.56,1.25-1.25s-.56-1.25-1.25-1.25zm6,1c-.14,0-.25.11-.25.25s.11.25.25.25c.14,0,.25-.11.25-.25s-.11-.25-.25-.25zm-1.25.25c0-.69.56-1.25,1.25-1.25.69,0,1.25.56,1.25,1.25s-.56,1.25-1.25,1.25c-.69,0-1.25-.56-1.25-1.25zm-2,4.5c0-.14.11-.25.25-.25.14,0,.25.11.25.25s-.11.25-.25.25c-.14,0-.25-.11-.25-.25zm.25-1.25c-.69,0-1.25.56-1.25,1.25s.56,1.25,1.25,1.25c.69,0,1.25-.56,1.25-1.25s-.56-1.25-1.25-1.25z"/></svg>