<svg width="48" height="48" xmlns="http://www.w3.org/2000/svg"><path fill-rule="evenodd" clip-rule="evenodd" d="m4,4h40v40H4V4zm1,1v31h1.23l7.16-11.25,8.61,7.09,10.08-10.13L41.77,36H43V5H5zm0,38v-6h38v6H5zm29.59-15.8-2.66-3.92-3.71,3.73,1.28,1.28,2-2,2,2,1.09-1.09zM35.16,28.05,33.5,29.71l-2-2-2,2-1.99-1.99L19.26,36h21.29l-5.4-7.95zm-21.54-1.8,7.66,6.31L17.85,36H7.41l6.21-9.75zM13,14.5c0-1.38,1.12-2.5,2.5-2.5s2.5,1.12,2.5,2.5S16.88,17,15.5,17,13,15.88,13,14.5zm2.5-3.5c-1.93,0-3.5,1.57-3.5,3.5s1.57,3.5,3.5,3.5,3.5-1.57,3.5-3.5S17.43,11,15.5,11zM11,15H8v-1h3v1zM9.54,9.17l2.28,2.28.71-.71-2.28-2.28-.71.71zM15,10V7h1v3h-1zm5.81-1.44-2.26,2.24.7.71,2.26-2.24-.7-.71zM20,14h3v1h-3v-1zm1.52,5.74-2.27-2.26-.71.71,2.27,2.26.71-.71zM15,22v-3h1v3h-1zm-3.2-4.45-2.26,2.26.71.71,2.26-2.26-.71-.71z"/></svg>