<svg width="36" height="36" xmlns="http://www.w3.org/2000/svg"><path fill-rule="evenodd" clip-rule="evenodd" d="m18,5.75c-3.48,0-6.25,2.77-6.25,6.25,0,3.48,2.77,6.25,6.25,6.25s6.25-2.77,6.25-6.25c0-3.48-2.77-6.25-6.25-6.25zM10.75,12c0-4.04,3.21-7.25,7.25-7.25s7.25,3.21,7.25,7.25c0,2.44-1.18,4.58-3,5.89V28.41L18,32.66l-4.25-4.25V17.89c-1.82-1.31-3-3.45-3-5.89zm4,6.5v9.5l3.25,3.25,3.25-3.25V25.25h-3.26v-1H21.25v-2H18v-1h3.25v-2.75c-.97.48-2.08.75-3.25.75s-2.28-.27-3.25-.75zm3.26-8.25c-1.02,0-1.76.74-1.76,1.72,0,1,.76,1.78,1.76,1.78.99,0,1.74-.78,1.74-1.78,0-.98-.73-1.72-1.74-1.72zM15.25,11.97c0-1.55,1.21-2.72,2.76-2.72,1.56,0,2.74,1.17,2.74,2.72,0,1.52-1.17,2.78-2.74,2.78-1.57,0-2.76-1.26-2.76-2.78z"/></svg>