<svg width="24" height="24" xmlns="http://www.w3.org/2000/svg"><path fill-rule="evenodd" clip-rule="evenodd" d="m10,14h4v-4h-4v4zm-1,1H15V9H9v6zm2-2h2v-2h-2v2zM7,4H10v-1H7v1zm0,2v-1h-2v1l1,0v2h1v-1h2v-1H11v-1H9v0h-1v1h-1v0zm0,3h-2v-2h-1v-1h-1v2h1v1h1v1h2v-1zm5-4h1v-2h-1v1h-1v1h1v0zM20,7h1v-1h-1v1zm-2,5h1v-1h-1v1h-2v1h2v-1zM4,4l2-.01v-1h-3v2.01h1v-1zM18,13v2h1v-1h1v1h1v-2h-3zm-5-8v2h1v-1l3,0v-1h1v-1h-1v-1h-1v2h-1v-1h-1v1h-1zM16,7v2h1v0h1v-1h-1v-1h-1zm1,14h1v-2h-1v2zm3-1h-1v1h1v0h1v-2h-1v1zm0-15h1v-2h-1v0h-2v1h2v1zm0,10h-1v3h-1v1h2v-1h1v-1h-1v-2zm0-3h1v-2h-1v2zm-3-5h2v-1h-2v1zM19,8v2h1v-1l1,0v-1h-2zM11,21h2v-1h-2v1zM10,8h1v0h1v-2h-1v1h-1v1zm0,11h-1v1h1v0h1v-2h-1v1zM15,19h-1v2h1v0h1v-1h-1v-1zm-7-4-2,0v1h1v1h2v-1h-1v-1zM10,17h2v-1h-2v1zm6-6h2v-1h-2v1zM3,18h1v-1h-1v1zm2-5h1v-1h-1v1zm2-4h1v-1h-1v1zM14,8h1v-1h-1v1zM4,12h1v-1h-1v1zm-1-1h1V9h-1v2zm0,3h1v-2h-1v2zm2,4h2v-1h-2v1zm0-4h-1v1l-1,0v1h2v-2zm2,5v0h-1v1h1v1h1v-2h1v-1h-2v1zm-3,0h-1v2h1v0h2v-1h-2v-1zm2-5h2v-1h-2v1zm0-2h2v-1h-2v1zM17,17h1v-1h-1v1zm-3,0h1v2h2v-1h-1v-2h1v-2h-1v2l-3,0v1h-1v2h1v-1h1v-1z"/></svg>