<svg width="36" height="36" xmlns="http://www.w3.org/2000/svg"><path fill-rule="evenodd" clip-rule="evenodd" d="m17.25,3.25c-3.26,0-6.15.29-7.79.73l.26.97c1.52-.41,4.3-.7,7.53-.7,2.47,0,4.69.17,6.28.43.8.13,1.42.29,1.83.45.11.04.19.08.26.12-.07.04-.15.08-.26.12-.41.16-1.03.32-1.83.45-1.59.27-3.82.43-6.28.43-2.16,0-4.12-.13-5.65-.34l-.14.99c1.58.22,3.6.35,5.79.35,2.5,0,4.78-.17,6.45-.45.83-.14,1.53-.31,2.03-.5l.02-.01v7.96c0,.26-.22.64-.94,1.06-.69.4-1.71.76-2.98,1.01l.2.98c.28-.06.55-.12.82-.19-.09.09-.18.18-.29.28l.66.75c.49-.42.89-.92,1.1-1.5.37-.15.7-.3,1-.47.79-.46,1.44-1.1,1.44-1.92V5.25c0-.32-.2-.55-.37-.69-.18-.14-.41-.26-.66-.36-.5-.2-1.2-.37-2.03-.5-1.66-.28-3.94-.45-6.45-.45zm8.53,1.89,0,0c0,0,0,0,0,0l0,0zM4.85,4.15l24,24-.71.71-2.65-2.65c-.35,1.07-.95,2.36-1.92,3.24-2.08,1.88-3.82,3.26-6.32,3.26-2.5,0-4.24-1.36-6.32-3.26-1.02-.93-1.62-2.3-1.97-3.38-.18-.55-.29-1.05-.36-1.41-.04-.18-.06-.33-.08-.43-.01-.05-.01-.09-.02-.12l0-.03,0-.01,0,0,0,0c0,0,0,0,.5-.06l-.5.06,0-.01h0l-.74-6.83.99-.11.74,6.82,0,0,0,.02c0,.02.01.06.02.1.01.09.04.22.07.39.07.33.17.79.33,1.3.33,1.03.86,2.2,1.69,2.94l0,0c2.08,1.91,3.57,3,5.65,3,2.08,0,3.56-1.11,5.65-3l0,0c.93-.85,1.48-2.21,1.79-3.3l-5.57-5.57c-.59.1-1.21.17-1.87.17-1.77,0-3.4-.37-4.66-.99-1.15-.56-2.05-1.37-2.4-2.37-.61-.24-1.14-.52-1.54-.84-.51-.4-.9-.93-.9-1.56V8.46L4.15,4.85l.71-.71zm6.77,12.96c.33.37.8.71,1.41,1.01,1.1.54,2.58.88,4.22.88.34,0,.67-.02.99-.06l-1.2-1.2c-2.02-.01-3.9-.25-5.42-.64zM8.75,9.46l7.27,7.27c-1.95-.09-3.67-.39-4.97-.82-.79-.26-1.38-.56-1.78-.87-.4-.31-.52-.58-.52-.77V9.46zM14.82,26.56c.63.35,1.48.69,2.44.69s1.81-.34,2.44-.69c.31-.17.56-.35.73-.48.08-.06.15-.12.19-.15.02-.02.04-.03.05-.04l.01-.01,0,0c0,0,0,0,.34.37s.34.37.34.37l0,0,0,0,0,0-.01.01-.02.02c-.02.01-.04.03-.06.06-.05.05-.13.11-.23.19-.2.15-.49.35-.85.55-.71.4-1.74.81-2.92.81s-2.21-.41-2.92-.81c-.36-.2-.65-.4-.85-.55-.1-.08-.18-.14-.23-.19-.03-.02-.05-.04-.06-.06l-.02-.02-.01-.01,0,0,0,0,0,0c0,0,0,0,.34-.37s.34-.37.34-.37l0,0,.01.01c.01.01.02.02.05.04.04.04.11.09.19.15.17.13.42.3.73.48zm11.54-5.77.39-3.57-.99-.11-.39,3.57.99.11zM19.31,14.19l1.54-1.44H18l-1.5-1.5V9H18v2.25h2.85l-2.4-2.25h1.8l3,3-3.09,3.09-.85-.9zM16.05,9l-1,.93-.8-.93h1.8zm-1.8,12.75c-.62,0-1.13.5-1.13,1.13s.5,1.13,1.13,1.13,1.13-.5,1.13-1.13-.5-1.13-1.13-1.13zm4.88,1.13c0-.62.5-1.13,1.13-1.13s1.13.5,1.13,1.13-.5,1.13-1.13,1.13-1.13-.5-1.13-1.13z"/></svg>