<svg width="36" height="36" xmlns="http://www.w3.org/2000/svg"><path fill-rule="evenodd" clip-rule="evenodd" d="m15.75,4.75h-.5v3h-9V31.25h14.5v-3h9V4.75h-14zm4.5,3h-4v-2h12.5V27.25h-8v-6.5H27v-1h-6.25v-2H27v-1h-6.25V7.75h-.5zm-.5,20v2.5H7.25V8.75h12.5V27.75zm7.21-20.35v6.1h-1.22V9.5h-1.44v-.89c.3-.01.54-.04.73-.09.19-.05.36-.14.52-.26.23-.17.38-.47.45-.87h.96zm-8.98,8.02v1.09h-4.4c0-.33.05-.65.16-.95.11-.3.26-.56.45-.78.15-.17.33-.33.53-.49.2-.16.6-.45,1.2-.87.29-.2.5-.39.61-.57.12-.18.18-.38.18-.61,0-.27-.08-.48-.24-.65-.16-.17-.36-.25-.62-.25-.63,0-.95.45-.97,1.36h-1.17v-.13c0-.74.21-1.31.62-1.72.4-.4.93-.59,1.57-.59.57,0,1.04.16,1.42.48.41.35.62.82.62,1.42,0,.52-.17.96-.5,1.34-.11.12-.21.22-.3.29s-.34.25-.75.53c-.38.27-.66.47-.83.61-.17.14-.32.3-.46.49h2.86zM18,20.75H9v-1h9v1zm-9,3h9v-1H9v1z"/></svg>