<svg width="36" height="36" xmlns="http://www.w3.org/2000/svg"><path fill-rule="evenodd" clip-rule="evenodd" d="m3.25,3.25h14.81L14.75,9.87v2.39c7.34.26,13.23,6.16,13.49,13.49H32.75v7H3.25V3.25zm1,7h9.5v3h.5c7.01,0,12.73,5.55,12.99,12.5H24v1h7.75v5H4.25v-5h9.25v-1H4.25v-15.5zm9.69-1H4.25v-5h12.19l-2.5,5zm4.81,16c-.55,0-1,.45-1,1s.45,1,1,1c.55,0,1-.45,1-1s-.45-1-1-1zm-1.02-.72c.3-.18.65-.28,1.02-.28,1.11,0,2,.89,2,2s-.89,2-2,2c-1.1,0-2-.89-2-2,0-.37.1-.72.28-1.02l-3.68-3.68c-.58.44-1.31.7-2.1.7-1.93,0-3.5-1.57-3.5-3.5s1.57-3.5,3.5-3.5c1.93,0,3.5,1.57,3.5,3.5,0,.79-.26,1.51-.7,2.1l3.68,3.68zM8.75,18.75c0-1.38,1.12-2.5,2.5-2.5,1.38,0,2.5,1.12,2.5,2.5s-1.12,2.5-2.5,2.5c-1.38,0-2.5-1.12-2.5-2.5zm20.79,2.73-.51-1.41.94-.34.51,1.41-.94.34zm-1.81-3.88.75,1.3.87-.5-.75-1.3-.87.5zm-.74-1.06-.96-1.15.77-.64.96,1.15-.77.64zm-3.03-3.03,1.15.96.64-.77-1.15-.96-.64.77z"/></svg>