<svg width="24" height="24" xmlns="http://www.w3.org/2000/svg"><path fill-rule="evenodd" clip-rule="evenodd" d="m18,5.5V4.29L13.26,9.03l-6.8.97h0c-.03,0-.06,0-.11,0-.1,0-.25-.01-.42-.03-.35-.03-.82-.1-1.28-.24-.46-.14-.88-.34-1.18-.62C3.18,8.84,3,8.49,3,8.01H2c0,.79.32,1.39.78,1.83.45.43,1.03.69,1.57.85.54.17,1.08.24,1.47.28.06.01.12.01.17.01v9.02h1v-9.07l6.74-.96L17,6.71v1l2.79,2.79L18.5,11.79l-1-1-1.5,1.5v7.71h1v-7.29l.5-.5,1,1,2.71-2.71L18,7.29V5.5zm-7.5,8.5h-.01c-.8.01-1.32.53-1.66,1.13-.33.59-.52,1.34-.64,2.05-.12.71-.17,1.42-.19,1.95-.01.26-.01.48-.01.64,0,.08,0,.14,0,.18l0,.05,0,.02,0,0c0,0,0,0,.5-.02.5-.02.5-.02.5-.02l0,0,0,0,0-.05c0-.04,0-.09,0-.17,0-.14,0-.35.01-.6.02-.5.06-1.16.17-1.82.11-.67.28-1.29.53-1.73.24-.44.51-.61.79-.62H14v5h1v-6h-4.5zm6-5.5c-.55,0-1,.45-1,1,0,.55.45,1,1,1s1-.45,1-1c0-.55-.45-1-1-1z"/></svg>