<svg width="36" height="36" xmlns="http://www.w3.org/2000/svg"><path fill-rule="evenodd" clip-rule="evenodd" d="m7.75,10.25v3.5H6v1h1.75v3.5H6v1h1.75v3.5H6v1h1.75v3.5H6v1h1.75V31.5h1v-2.91L22.92,7.02l-.84-.55L20.26,9.25h-.76v1h.1l-2.3,3.5H16.25v-3.5H18v-1h-1.75V6h-1v3.25H10.5v1h4.75v3.5H10.5v1h4.75v2.12l-.9,1.37H10.5v1h3.19l-2.3,3.5h-.89v1h.24L8.75,26.77V6h-1v3.25H6v1h1.75zm8.5,5.1v-.6h.4l-.4.6zm0,13.97v2.18h-1v-3.25H12v-1h4.49l2.46-3.5H15v-1h4.65l2.46-3.5H18v-1h4.81l2.46-3.5H21v-1h4.97l2.46-3.5H24v-1h5.13l1.96-2.79.82.57L30.35,9.25H31.5v1h-1.85l-2.46,3.5H28.5v1h-2.01l-2.46,3.5H25.5v1h-2.17l-2.46,3.5H22.5v1h-2.33l-2.46,3.5H19.5v1h-2.5l-.76,1.07z"/></svg>