<svg width="36" height="36" xmlns="http://www.w3.org/2000/svg"><path fill-rule="evenodd" clip-rule="evenodd" d="m17.75,5.75h1.75v-1H15v1h1.75v3h.5c6.35,0,11.5,5.15,11.5,11.5,0,6.35-5.15,11.5-11.5,11.5s-11.5-5.15-11.5-11.5v-.74h-1v.74c0,6.9,5.6,12.5,12.5,12.5s12.5-5.6,12.5-12.5c0-6.74-5.33-12.23-12-12.49V5.75zm-.84,20.04,7.5-10.5-.81-.58-7.16,10.02-4.08-4.08-.71.71,4.92,4.92.34-.48zM15,8.95l-1.45.39-.26-.97,1.45-.39.26.97zm-4.15,1.72,1.3-.75-.5-.87-1.3.75.5.87zm-1.2.92-1.06,1.06-.71-.71,1.06-1.06.71.71zM6.92,15.15l.75-1.3-.87-.5-.75,1.3.87.5zm-.58,1.4-.39,1.45-.97-.26.39-1.45.97.26z"/></svg>