<svg width="36" height="36" xmlns="http://www.w3.org/2000/svg"><path fill-rule="evenodd" clip-rule="evenodd" d="m17.75,10.5V3h-1v7.5h1zm10.29-1.67c-.78-.78-2.05-.78-2.83,0l-8.95,8.73,0-3.31v0c0-1.11-.9-2-2-2-.55,0-1.01.21-1.34.58-.32.35-.51.81-.64,1.29l9.19,24.89,7.83,8.3.29-.08-.13-.48c.13.48.13.48.13.48l0,0,0,0,.04-.01c.02-.01.06-.02.1-.03.09-.03.21-.07.37-.13.31-.12.75-.32,1.3-.61,1.08-.59,2.55-1.57,4.15-3.16,1.56-1.56,2.49-2.48,3.02-3.02.27-.27.44-.44.55-.54l.14-.14,0,0,0,0c.78-.78.78-2.05,0-2.83-.26-.26-.58-.44-.91-.52.63-.79.58-1.94-.15-2.66l0,0c-.26-.26-.57-.43-.91-.52.62-.79.57-1.93-.15-2.66l0,0c-.26-.26-.57-.43-.9-.52l4.08-4.08v0c.78-.78.78-2.05,0-2.83zM17.46,32c-.05.02-.09.03-.13.05l-7.02-7.44,2.92-10.22,0,0,0-.01c.11-.41.25-.7.41-.87.15-.16.33-.25.61-.25.55,0,1,.45,1,1l0,5.68L25.91,9.55v0l0,0c.39-.39,1.02-.39,1.42,0,.39.39.39,1.03,0,1.42l-5.23,5.23c-.03.02-.05.05-.08.07l0,0-2.66,2.66,0,0,.71.71,0,0,2.71-2.71c.39-.34.99-.32,1.36.05.39.39.39,1.03,0,1.42l-.96.96c-.03.03-.07.06-.1.09l0,0-1.6,1.59.71.71,1.67-1.66c.39-.32.98-.3,1.35.07.39.39.39,1.03,0,1.42l-1.59,1.59.71.71,0,0,.53-.53,0,0c.39-.39,1.02-.39,1.42,0,.39.39.39,1.03,0,1.42l0,0-.14.14c-.11.1-.28.28-.55.54-.54.54-1.47,1.46-3.03,3.02-1.52,1.52-2.91,2.45-3.92,2.99-.5.27-.91.45-1.18.56zm6.96-27.23-3,4.5-.83-.55,3-4.5.83.55zM13.92,8.72l-3-4.5-.83.55,3,4.5.83-.55z"/></svg>