<svg width="48" height="48" xmlns="http://www.w3.org/2000/svg"><path fill-rule="evenodd" clip-rule="evenodd" d="m13,10.37C9.53,11.44,7,14.68,7,18.5c0,3.82,2.53,7.06,6,8.13v-4.38c-1.21-.81-2-2.18-2-3.74s.79-2.93,2-3.74v-4.38zm1,3.88c.47-.17.97-.26,1.5-.26.53,0,1.03.09,1.5.26V10.06C16.51,10.02,16.02,10,15.5,10c-.51,0-1.01.05-1.5.13v4.12zm4,.5c1.08.72,1.82,1.89,1.97,3.24h6.03v-4.83c-2.42-1.38-4.94-2.57-8-3v4.59zM19.97,19c-.15,1.35-.9,2.52-1.97,3.24v4.59c3.06-.43,5.58-1.62,8-3V19h-6.03zm-2.97,3.74c-.47.17-.97.26-1.5.26-.53,0-1.03-.09-1.5-.26v4.12c.49.09.99.13,1.5.13.52,0,1.01-.02,1.5-.06v-4.2zm10,.5V19h8.1c-2.52.87-4.7,2.19-6.86,3.5l-.12.07c-.37.23-.75.45-1.12.67zM41,19v-1c-5.04,0-8.6-2.15-12.3-4.39l-.06-.03C24.92,11.32,21.05,9,15.5,9,10.25,9,6,13.25,6,18.5c0,5.25,4.25,9.5,9.5,9.5,5.55,0,9.42-2.32,13.14-4.57l.06-.03C32.4,21.15,35.96,19,41,19zm-14-1h8.1c-2.52-.87-4.7-2.19-6.86-3.5l-.12-.07c-.37-.23-.75-.45-1.12-.67V18zM32.5,39c2.77,0,4.91-.45,6.36-1.6C40.34,36.24,41,34.44,41,32h-1c0,2.26-.6,3.71-1.76,4.62C37.06,37.55,35.21,38,32.5,38h-1.5v-5H34v-1H6v1h3V38H6v1h26.5zm-2.5-6h-6V38h6v-5zm-7,0V38h-6v-5h6zM16,33H10V38h6v-5zM12,18.5c0-1.93,1.57-3.5,3.5-3.5s3.5,1.57,3.5,3.5S17.43,22,15.5,22,12,20.43,12,18.5z"/></svg>