<svg width="24" height="24" xmlns="http://www.w3.org/2000/svg"><path fill-rule="evenodd" clip-rule="evenodd" d="m10.08,4.91-.59,1.61c-.72,1.99-.06,4.47,1.54,6.24,1.58,1.75,4,2.74,6.73,1.81l2-.68-1.48,1.5c-1.86,1.88-3.86,2.64-5.73,2.57-1.86-.07-3.52-.96-4.69-2.25-1.18-1.29-1.9-3.01-1.85-4.78.05-1.78.88-3.58,2.71-4.99l1.36-1.05zm6.02,11.01c-2.35.14-4.39-.92-5.81-2.49-1.39-1.55-2.2-3.63-2.07-5.62-.82.99-1.18,2.09-1.21,3.16-.04,1.48.57,2.96,1.59,4.08,1.02,1.12,2.44,1.86,3.99,1.92,1.1.04,2.3-.26,3.51-1.05z"/></svg>