<svg width="36" height="36" xmlns="http://www.w3.org/2000/svg"><path fill-rule="evenodd" clip-rule="evenodd" d="m18,8.75c-2.14,0-4,2.05-4,4.75s1.86,4.75,4,4.75,4-2.05,4-4.75-1.86-4.75-4-4.75zm-5,4.75c0-3.1,2.17-5.75,5-5.75s5,2.65,5,5.75c0,1.46-.48,2.82-1.29,3.85,4.25,1.94,6.54,7.13,6.54,11.9v.5H7.75v-.5c0-4.75,2.28-9.95,6.54-11.9C13.48,16.32,13,14.96,13,13.5zm5.88,5.66c-.28.06-.58.09-.88.09-.3,0-.59-.03-.88-.09l.88,1.06.88-1.05zm-3.9-1.02c-3.8,1.57-6.06,6.13-6.21,10.61h8.78l-1.6-1.6,1.51-6.03-2.48-2.98zm3.49,10.61h8.78c-.16-4.51-2.42-9.05-6.22-10.61l-2.48,2.98,1.44,5.75.07.27-1.6,1.6zm.49-1.9L18,23.06l-.95,3.79.95.95.95-.95z"/></svg>