<svg width="36" height="36" xmlns="http://www.w3.org/2000/svg"><path fill-rule="evenodd" clip-rule="evenodd" d="m5.25,7.75h-.5V28.25h21.05l5.52-10.25L25.8,7.75H5.25zm.5,19.5V8.75h19.45l4.98,9.25-4.98,9.25H5.75zm6-13.75c0-.98.77-1.75,1.75-1.75s1.75.77,1.75,1.75c0,.98-.77,1.75-1.75,1.75s-1.75-.77-1.75-1.75zm1.75-2.75c-1.54,0-2.75,1.21-2.75,2.75,0,1.54,1.21,2.75,2.75,2.75s2.75-1.21,2.75-2.75c0-1.54-1.21-2.75-2.75-2.75zm4.25,11.75c0-.99.77-1.75,1.75-1.75s1.75.76,1.75,1.75c0,.98-.77,1.75-1.75,1.75s-1.75-.77-1.75-1.75zm1.75-2.75c-1.54,0-2.75,1.21-2.75,2.75,0,1.54,1.21,2.75,2.75,2.75s2.75-1.21,2.75-2.75c0-1.54-1.21-2.75-2.75-2.75zm-9.35,3.9,12-12,.71.71-12,12-.71-.71z"/></svg>