<svg width="36" height="36" xmlns="http://www.w3.org/2000/svg"><path fill-rule="evenodd" clip-rule="evenodd" d="m17.75,8.25c0-.55.45-1,1-1s1,.45,1,1-.45,1-1,1-1-.45-1-1zm1-2c-1.1,0-2,.9-2,2,0,.37.1.72.28,1.02L9.27,17.03c-.3-.18-.65-.28-1.02-.28-1.1,0-2,.9-2,2s.9,2,2,2c.37,0,.72-.1,1.02-.28l7.76,7.76c-.18.3-.28.65-.28,1.02,0,1.1.9,2,2,2s2-.9,2-2c0-.37-.1-.72-.28-1.02l7.76-7.76c.3.18.65.28,1.02.28,1.1,0,2-.9,2-2s-.9-2-2-2c-.37,0-.72.1-1.02.28l-7.76-7.76c.18-.3.28-.65.28-1.02,0-1.1-.9-2-2-2zm8.56,13h-5.1c-.22,1.53-1.43,2.75-2.97,2.96v5.1c.18.05.36.12.52.21l7.76-7.76c-.09-.16-.17-.33-.21-.52zm0-1h-5.1c-.22-1.53-1.43-2.75-2.96-2.96V10.19c.18-.05.36-.12.52-.21l7.76,7.76c-.09.16-.17.33-.21.52zm-12.03,1c.22,1.53,1.43,2.75,2.96,2.97v5.1c-.18.05-.36.12-.52.21L9.97,19.77c.09-.16.17-.33.21-.52h5.1zm-5.1-1h5.1c.22-1.53,1.43-2.74,2.96-2.96V10.19c-.18-.05-.36-.12-.52-.21L9.97,17.73c.09.16.17.33.21.52zM18.75,16.25c-1.38,0-2.5,1.12-2.5,2.5s1.12,2.5,2.5,2.5,2.5-1.12,2.5-2.5-1.12-2.5-2.5-2.5zm10.5,1.5c-.55,0-1,.45-1,1s.45,1,1,1,1-.45,1-1-.45-1-1-1zm-11.5,11.5c0-.55.45-1,1-1s1,.45,1,1-.45,1-1,1-1-.45-1-1zm-9.5-11.5c-.55,0-1,.45-1,1s.45,1,1,1,1-.45,1-1-.45-1-1-1z"/></svg>