<svg width="36" height="36" xmlns="http://www.w3.org/2000/svg"><path fill-rule="evenodd" clip-rule="evenodd" d="m13.25,5.25c0-.52.48-1,1-1s1,.48,1,1-.48,1-1,1-1-.48-1-1zm1-2c-1.08,0-2,.92-2,2s.92,2,2,2,2-.92,2-2-.92-2-2-2zm-1.71,6h3.52l1.62,3.24L19.9,15.45l-.8.6-2.28-3.04L16.25,11.87v5.23l1.5,2.25V22.75h3.5v-4.5h6v-4.5H33v1h-4.75v4.5h-6v4.5h-6v4.5h-6v4.5H3v-1h6.25v-4.5h1.61l1.39-5.56V10.96l-2,2V16.5h-1v-3.96L12.54,9.25zm.71,7.5v-6.5h2v6.5h-2zm0,1v4.06L11.89,27.25H15.25v-4.5h1.5v-3.1L15.48,17.75H13.25z"/></svg>