<svg width="36" height="36" xmlns="http://www.w3.org/2000/svg"><path fill-rule="evenodd" clip-rule="evenodd" d="m8.25,4.75h9v1h-1.98l-2.29,3.5h4.49c1.02,0,1.87.22,2.46.78.59.57.82,1.4.82,2.39V26.75H19.25v2h3.5v-4.5H26.5V20h-.75v-4.75h4V20H29v4.25h2.5v1h-7.75v4.5H4.5v-1h1.75v-2H4.75V12.42c0-.99.23-1.82.83-2.39C6.17,9.47,7.02,9.25,8.04,9.25h4.49l-2.29-3.5H8.25v-1zm4.5,3.02L11.43,5.75h2.65L12.75,7.77zM6.27,10.75c-.32.3-.52.81-.52,1.66v5.83H19.75v-5.83c0-.85-.2-1.36-.52-1.66-.32-.31-.86-.5-1.77-.5H8.04c-.91,0-1.45.2-1.77.5zM19.75,19.25H5.75v6.5H19.75v-6.5zm-1.5,9.5v-2h-11v2h11zm9.5-15.5c-.14,0-.25.11-.25.25s.11.25.25.25c.14,0,.25-.11.25-.25,0-.14-.11-.25-.25-.25zm-1.25.25c0-.69.56-1.25,1.25-1.25.69,0,1.25.56,1.25,1.25,0,.69-.56,1.25-1.25,1.25-.69,0-1.25-.56-1.25-1.25zM15,12.25h-4.5v1H15v-1zM16.25,22.5c0-.14.11-.25.25-.25.14,0,.25.11.25.25s-.11.25-.25.25c-.14,0-.25-.11-.25-.25zm.25-1.25c-.69,0-1.25.56-1.25,1.25s.56,1.25,1.25,1.25c.69,0,1.25-.56,1.25-1.25s-.56-1.25-1.25-1.25zm-7.5,1c-.14,0-.25.11-.25.25s.11.25.25.25c.14,0,.25-.11.25-.25s-.11-.25-.25-.25zm-1.25.25c0-.69.56-1.25,1.25-1.25.69,0,1.25.56,1.25,1.25S9.69,23.75,9,23.75c-.69,0-1.25-.56-1.25-1.25zM27,19h-.25v-2.75h2V19H28v4.5h-.5V19H27z"/></svg>