<svg width="36" height="36" xmlns="http://www.w3.org/2000/svg"><path fill-rule="evenodd" clip-rule="evenodd" d="m24.14,8.29c1.65-.81,3.7-.72,5.37.09l.01,0,.01,0c1.07.57,2.01,1.61,2.31,2.93.31,1.35-.07,2.91-1.46,4.46l-.01.01-2.25,2.25c-.67.76-.99,1.33-1.16,1.95-.18.64-.2,1.38-.2,2.51h-1c0-1.11.02-1.98.24-2.77.22-.82.65-1.52,1.39-2.36l.01-.01,2.25-2.25c1.21-1.35,1.44-2.59,1.22-3.56-.23-.99-.94-1.81-1.79-2.27-1.42-.69-3.14-.75-4.48-.09-1.31.64-2.33,2-2.33,4.31h-1c0-2.65,1.2-4.38,2.89-5.21zM9.25,20.25v-8.25h1v7.75h7.5v8.75h-1v-7.75H9.25v-.5zm-6,1.5c0-2.52,1.46-4.72,3.57-5.8l.45.89c-1.79.91-3.02,2.78-3.02,4.91,0,3.02,2.48,5.5,5.5,5.5,2.19,0,4.09-1.3,4.98-3.17l.9.43c-1.04,2.2-3.29,3.74-5.88,3.74-3.57,0-6.5-2.93-6.5-6.5zm22.57,3.75v3h1v-3h-1zM9.5,9c0-.14.11-.25.25-.25s.25.11.25.25-.11.25-.25.25-.25-.11-.25-.25zm.25-1.25c-.69,0-1.25.56-1.25,1.25s.56,1.25,1.25,1.25c.69,0,1.25-.56,1.25-1.25s-.56-1.25-1.25-1.25z"/></svg>