<svg width="48" height="48" xmlns="http://www.w3.org/2000/svg"><path fill-rule="evenodd" clip-rule="evenodd" d="m30.5,6C28.6,6,27,7.6,27,9.5c0,1.9,1.6,3.5,3.5,3.5S34,11.4,34,9.5C34,7.6,32.4,6,30.5,6zM28,9.5C28,8.15,29.15,7,30.5,7S33,8.15,33,9.5c0,1.35-1.15,2.5-2.5,2.5S28,10.85,28,9.5zM10.5,16C9.14,16,8,17.14,8,18.5S9.14,21,10.5,21c1.36,0,2.5-1.14,2.5-2.5S11.86,16,10.5,16zM9,18.5c0-.81.69-1.5,1.5-1.5.81,0,1.5.69,1.5,1.5s-.69,1.5-1.5,1.5c-.81,0-1.5-.69-1.5-1.5zM7.29,22h5.33l5.5,3h1.85l1.47-6.34.22-.16L27.33,14h6.37l5.42,5.12,5.76,1.61,0,0c.88.25,1.34,1.19,1.04,2.03v.01l-.04.1c-.31.69-1.08,1.06-1.81.87l0,0-6.17-1.6-.12-.03L34,18.64v7.71l4,6V43h-3v-9.33L30.75,28h-.31l-.94,7.81-7.07,7.05-2.3-2.3,6.24-6.21L27,26.48v-7.95l-2.53,1.98-1.47,6.06C22.96,27.36,22.31,28,21.5,28h-4.12l-4.38-2.19v4.61L17.19,43h-3.05l-3.5-10h-.19l-.47,4.7-4.01,4.9-2.31-2.31,3.36-3.99.48-4.78v-5.31L6,27.71V30.5c0,.83-.67,1.5-1.5,1.5S3,31.33,3,30.5v-4.21L7.29,22zm15,3.23,1.29-5.3L28,16.47v10.05l-.67,8.27-5.79,5.77.89.89,6.12-6.1L29.56,27H31.25L36,33.33V42h1v-9.35l-4-6V16.36l5.26,4.84,6.05,1.57,0,0c.26.07.54-.06.65-.31l0,0c.14-.31-.03-.67-.35-.76l0,0-6-1.68L33.3,15h-5.63l-5.34,4.24L21,25h.5c.29,0,.56.08.79.23zM7.71,23,4,26.71V30.5c0,.28.22.5.5.5s.5-.22.5-.5v-3.21l3.5-3.5v7.77l-.52,5.14-2.97,3.53.88.88,3.12-3.81L9.55,32h1.81l3.5,10h.95l-3.81-11.42V24.19L17.62,27h3.88c.28,0,.5-.22.5-.5s-.22-.5-.5-.5h-3.63l-5.5-3H7.71z"/></svg>