<svg width="24" height="24" xmlns="http://www.w3.org/2000/svg"><path fill-rule="evenodd" clip-rule="evenodd" d="m1.9,12c0-3.41,1.04-5.91,2.39-7.79l.81.59C3.86,6.51,2.9,8.81,2.9,12c0,3.18.96,5.39,2.21,7.22l-.83.56c-1.35-1.97-2.39-4.37-2.39-7.78zm4.1,2.5c0-1.75,1.01-3.27,2.47-4.01l.45.89c-1.14.58-1.92,1.77-1.92,3.12,0,1.92,1.58,3.5,3.5,3.5,1.39,0,2.6-.83,3.17-2.02l.9.43c-.72,1.52-2.28,2.59-4.07,2.59-2.47,0-4.5-2.02-4.5-4.5zm15.9-2.5c0-3.42-1.04-5.81-2.39-7.78l-.83.56c1.25,1.83,2.21,4.03,2.21,7.22,0,3.19-.96,5.49-2.21,7.21l.81.59c1.36-1.88,2.4-4.38,2.4-7.79zM10,13.5V8h1v5h5v6h-1v-5h-5v-.5zm.5-8.5c-.55,0-1,.45-1,1,0,.55.45,1,1,1,.55,0,1-.45,1-1,0-.55-.45-1-1-1z"/></svg>