<svg width="24" height="24" xmlns="http://www.w3.org/2000/svg"><path fill-rule="evenodd" clip-rule="evenodd" d="m21,6H3V5H21v1zm0,13H3v-1H21v1zM6.96,11.16l3.14-3.16H7.88l-3.14,3.31V8h-1.75v8h1.75v-2.58l1.01-1.01,2.43,3.59h2.2l-3.43-4.84zm2.39.94h1.54v-1.54h.88v1.54h1.55v.88h-1.55v1.54h-.88v-1.54H9.35v-.88zm6.35-.53V9.37h1.74c.51,0,.89.09,1.12.26.24.17.36.45.36.83,0,.39-.14.68-.42.88-.22.15-.6.23-1.13.23h-1.67zm2.13-3.57h-3.88v8h1.75v-3.15h1.57c.56,0,.95.11,1.19.33.23.22.37.61.41,1.17.04.64.08,1.04.11,1.22.03.18.07.32.13.43h1.82l-.08-.09c-.11-.14-.18-.48-.24-1.03-.07-.76-.13-1.24-.17-1.45-.04-.21-.13-.41-.26-.61-.2-.31-.48-.5-.83-.59.4-.15.71-.4.94-.74.22-.35.34-.75.34-1.22,0-.41-.09-.78-.27-1.11-.18-.33-.44-.59-.78-.79-.41-.24-1-.36-1.76-.36z"/></svg>