<svg width="24" height="24" xmlns="http://www.w3.org/2000/svg"><path fill-rule="evenodd" clip-rule="evenodd" d="m8,2h8v1h-1.73l-1.33,2H16c1.66,0,3,1.34,3,3v10h-2.19l.5,1H18v1h-.19l.5,1H19v1H5v-1h.69l.5-1H6v-1h.69l.5-1H5V8c0-1.66,1.34-3,3-3h3.07L9.73,3H8V2zm4,2.6L13.07,3h-2.13L12,4.6zM10,8V7h4v1h-4zM6.81,21l.5-1H16.69l.5,1H6.81zm9.38-2-.5-1H8.31l-.5,1H16.19zM6,13v4h12V13H6zm12-1V8c0-1.1-.9-2-2-2H8c-1.1,0-2,.9-2,2V12h12zm-4,3c0-.55.45-1,1-1s1,.45,1,1c0,.55-.45,1-1,1s-1-.45-1-1zm-5-1c-.55,0-1,.45-1,1,0,.55.45,1,1,1s1-.45,1-1c0-.55-.45-1-1-1z"/></svg>