<svg width="48" height="48" xmlns="http://www.w3.org/2000/svg"><path fill-rule="evenodd" clip-rule="evenodd" d="m24.89,8.51-.37-.42-.37.42C17.62,15.87,16.09,23.6,16.2,29.48c.01.75.05,1.47.11,2.16-2.11,1.16-2.93,3-3.21,4.54-.15.8-.15,1.54-.11,2.06.02.27.04.48.07.63.01.08.02.14.03.18,0,.02.01.04.01.05l0,.02,0,0,0,0c0,0,0,0,.49-.1l-.49.11.18.85.64-.59c1.17-1.08,2.33-1.71,3.43-2.03.15.54.3.98.41,1.31.08.24.15.42.2.55.02.06.04.11.06.14l.02.04.01.01,0,0c0,0,0,0,.46-.2l-.46.2.28.65.52-.48,0,0v0l0,0,0,0,.01-.01c.01-.01.02-.02.05-.04.04-.04.1-.09.19-.15.17-.13.41-.32.72-.52.63-.41,1.52-.91,2.59-1.23.5-.15,1.03-.27,1.59-.33V40h1v-2.73c1.6.06,3.38.67,5.17,2.32l.52.48.28-.65-.46-.2c.46.2.46.2.46.2l0,0,0,0,0-.01.02-.04c.01-.03.03-.08.06-.14.05-.13.12-.31.2-.55.12-.33.26-.77.41-1.29,1.08.33,2.22.95,3.37,2.01l.64.59.18-.86-.49-.11c.49.11.49.1.49.1l0,0,0,0,0,0,0-.01c0-.01.01-.03.01-.05.01-.04.02-.1.03-.18.02-.15.05-.37.07-.63.04-.52.04-1.25-.11-2.05-.27-1.53-1.07-3.36-3.15-4.53.06-.7.1-1.43.12-2.19.11-5.88-1.42-13.6-7.94-20.96zM14.09,36.36c.22-1.24.83-2.64,2.34-3.62.17,1.41.42,2.65.67,3.66-1.02.3-2.07.82-3.12,1.64-.02-.45-.01-1.04.11-1.68zm20.89,1.68c-1.03-.8-2.05-1.32-3.06-1.62.25-1,.5-2.23.67-3.64,1.47.98,2.07,2.38,2.28,3.6.11.63.12,1.21.1,1.66zM25,36.27c1.65.05,3.47.62,5.3,2.1l.01-.03c.16-.45.37-1.11.59-1.96.43-1.68.88-4.08.93-6.93.08-4.33-.76-9.7-3.96-15.17-2.78,1.3-5.45.5-6.69-.03-3.21,5.48-4.05,10.85-3.98,15.19.05,2.84.5,5.24.93,6.93.22.84.43,1.51.59,1.96l.02.05c.15-.11.33-.24.53-.37.68-.45,1.66-.99,2.85-1.35.58-.18,1.22-.31,1.89-.37V32h1v4.27zm-3.3-22.86c1.15.46,3.35,1.05,5.64.03-.8-1.28-1.74-2.56-2.83-3.83-1.08,1.26-2.01,2.53-2.81,3.8zM22,22.5c0-1.38,1.12-2.5,2.5-2.5s2.5,1.12,2.5,2.5S25.88,25,24.5,25,22,23.88,22,22.5zm2.5-3.5c-1.93,0-3.5,1.57-3.5,3.5s1.57,3.5,3.5,3.5,3.5-1.57,3.5-3.5S26.43,19,24.5,19z"/></svg>