<svg width="24" height="24" xmlns="http://www.w3.org/2000/svg"><path fill-rule="evenodd" clip-rule="evenodd" d="m16.31,9.86c.41.1.76.31,1.03.6.39.42.6.98.64,1.54.09,1.11-.47,2.41-1.81,2.85l-.31-.95c.8-.26,1.19-1.05,1.13-1.82-.03-.38-.17-.72-.38-.94-.2-.22-.49-.36-.89-.34l-.7.03.2-.67c.24-.81.15-1.48-.12-1.98-.27-.51-.72-.88-1.25-1.07-1.05-.38-2.36-.05-3,1.39l-.27.6-.51-.42c-.97-.79-2.57-.05-2.39,1.45l.07.56h-.56c-.59,0-1.08.53-1.16,1.34-.08.77.27,1.55,1.12,1.84l-.32.95c-1.4-.47-1.91-1.77-1.79-2.88.09-.93.65-1.92,1.64-2.17.09-1.85,2.01-2.89,3.52-2.17.95-1.54,2.62-1.92,3.99-1.42.75.27,1.4.8,1.79,1.55.32.61.45,1.34.32,2.14zm-7.64,2.52,1.62,1.62H8.01v1h2.29l-1.62,1.62.71.71L11,15.72v2.28h1V15.71l1.62,1.62.71-.71-1.62-1.62h2.31v-1h-2.29l1.62-1.62-.71-.71L12,13.31v-2.31h-1v2.29l-1.62-1.62-.71.71z"/></svg>