<svg width="24" height="24" xmlns="http://www.w3.org/2000/svg"><path fill-rule="evenodd" clip-rule="evenodd" d="m15.67,2,6.62,4.41-2.4,4.81-2.24-.9v.76h-1V8.85l2.76,1.1L21,6.75,15.61,3.16c-.02.01-.04.02-.06.03-.21.1-.5.23-.85.36-.69.26-1.63.53-2.55.53-.92,0-1.86-.27-2.55-.53-.35-.13-.64-.26-.85-.36-.02-.01-.04-.02-.06-.03l-5.39,3.59,1.6,3.19,2.72-1.09.51,10.22h1.02v1H7.17l-.49-9.78-2.28.91L2,6.41,8.62,2l.26.14,0,0,0,0,0,0,0,0,.02.01c.01.01.03.02.06.03.05.03.12.06.22.11.19.09.46.21.78.33.65.24,1.45.47,2.2.47.74,0,1.55-.23,2.2-.47.32-.12.59-.24.77-.33.09-.04.17-.08.22-.11.02-.01.04-.02.06-.03l.01-.01,0,0h0l0,0,0,0,0,0L15.67,2zm-4.91,10.08H16.04l.09.38v0l0,0v0l0,0,0,.02c0,.02.01.04.02.07.02.07.05.16.08.29.08.25.19.6.35,1.03.32.85.82,1.95,1.53,2.99.54.79,1.17,1.17,1.84,1.57.16.09.32.19.48.29.41.26.82.57,1.14,1.03.32.47.52,1.04.56,1.8l.03.53h-4.53c-.01,0-.02,0-.02,0-.32,0-.82,0-1.43-.38-.6-.37-1.25-1.08-1.98-2.38l0,0c-.32-.58-.69-1.02-1.06-1.33v4.09h-2.39l-.1-.38.48-.12c-.48.12-.48.12-.48.12l0,0,0,0,0,0,0-.01-.01-.04c-.01-.04-.02-.09-.04-.16-.03-.14-.07-.34-.12-.59-.09-.51-.2-1.22-.28-2.09-.15-1.72-.15-4.03.45-6.35l.1-.38zM11.54,21.08h.6V17.37c-.08-.03-.15-.06-.22-.09-.3-.11-.58-.16-.79-.18.01.58.03,1.13.08,1.63.07.83.18,1.51.26,1.99.03.14.05.26.07.36zm-.4-4.99c.29.03.67.09,1.1.25.92.32,2.02,1.02,2.83,2.5.69,1.23,1.24,1.77,1.63,2.02.37.23.64.23.91.23l.02,0h3.43c-.07-.33-.18-.57-.31-.76-.2-.29-.49-.52-.86-.76-.12-.08-.26-.16-.4-.24-.68-.41-1.54-.92-2.21-1.9l0,0c-.77-1.12-1.3-2.3-1.64-3.19-.17-.45-.3-.83-.38-1.09-.01-.02-.01-.04-.02-.05h-3.73c-.23,1.03-.35,2.05-.39,3.01z"/></svg>