<svg width="24" height="24" xmlns="http://www.w3.org/2000/svg"><path fill-rule="evenodd" clip-rule="evenodd" d="m10.5,4.5H10V6H8c-.92,0-1.7.21-2.24.76C5.21,7.3,5,8.08,5,9v1H4v1h1v8h4V17h6l0,2H19v-8h1v-1h-1V9c0-.92-.21-1.7-.76-2.24C17.7,6.21,16.92,6,16,6h-2V4.5h-3.5zM13,6v-.5h-2V6h2zM6.46,7.46C6.18,7.74,6,8.22,6,9v2h6.05C12.28,9.86,13.29,9,14.5,9s2.22.86,2.45,2H18V9c0-.78-.18-1.26-.46-1.54C17.26,7.18,16.79,7,16,7H8c-.78,0-1.26.18-1.54.46zM18,12H6V16h12v-4zm-12,6V17h2v1H6zm10,0L16,17H18v1h-2zm-.09-7C15.71,10.42,15.15,10,14.5,10s-1.21.42-1.41,1h2.83zM7,14c0-.55.45-1,1-1s1,.45,1,1c0,.55-.45,1-1,1s-1-.45-1-1zm9-1c-.55,0-1,.45-1,1,0,.55.45,1,1,1s1-.45,1-1c0-.55-.45-1-1-1z"/></svg>