<svg width="24" height="24" xmlns="http://www.w3.org/2000/svg"><path fill-rule="evenodd" clip-rule="evenodd" d="m2,4h20v5h-.5c-1.42,0-2.5,1.08-2.5,2.5,0,1.42,1.08,2.5,2.5,2.5h.5v5H2V4zm1,1V18h13v-.46h1v.46h4v-3.03c-1.73-.23-3-1.66-3-3.47,0-1.81,1.27-3.23,3-3.47V5h-4v.46h-1v-.46H3zm1.98,4.92c0-1.58,1.18-2.92,2.73-2.92.69,0,1.31.27,1.78.71.47-.44,1.09-.71,1.78-.71,1.21,0,2.2.82,2.57,1.93l-1.03.12c-.29-.64-.88-1.04-1.54-1.04-.55,0-1.05.29-1.37.76l-.41.6-.41-.6c-.32-.47-.82-.76-1.37-.76-.89,0-1.68.76-1.73,1.81,0,.04,0,.07,0,.11,0,.34.08.66.22.94.08.16.17.3.28.42l3.02,3.29,3-3.27c.09-.11.24-.33.28-.4.15-.28.23-.62.23-.97,0-.24-.04-.47-.11-.68v0c-.02-.07-.05-.14-.08-.2l1.03-.12c.1.31.16.65.16.99,0,.52-.13,1.01-.35,1.44l0,0c-.08.16-.3.46-.38.56l-.01.02-3.77,4.1-3.77-4.1,0,0c-.17-.2-.31-.41-.42-.64l0,0c-.21-.41-.32-.89-.32-1.39zm7.84-.88-6.83.77,6.83-.77v0zM16,6.39v.93h1v-.93h-1zm0,1.86v.93h1v-.93h-1zm0,1.86v.93h1v-.93h-1zm0,1.86v.93h1v-.93h-1zm0,1.86v.93h1v-.93h-1zM16,15.68v.93h1v-.93h-1z"/></svg>