<svg width="24" height="24" xmlns="http://www.w3.org/2000/svg"><path fill-rule="evenodd" clip-rule="evenodd" d="m15.44,17.15,3.2,3.2.71-.71L4.35,4.65l-.71.71,2.81,2.81C4.76,9.49,3.56,11.05,3.09,11.71l-.2.28.19.29c.39.58,1.49,1.99,3.03,3.27,1.54,1.27,3.59,2.45,5.88,2.45,1.24,0,2.4-.34,3.44-.85zm-.75-.75-.85-.85c-.55.3-1.16.45-1.84.45-2.21,0-4-1.79-4-4,0-.68.15-1.29.45-1.84l-1.28-1.28C5.75,9.97,4.67,11.27,4.12,12c.47.63,1.4,1.75,2.64,2.77,1.46,1.21,3.29,2.22,5.25,2.22.94,0,1.84-.23,2.69-.6zm-1.6-1.6-3.89-3.89c-.13.33-.2.69-.2,1.09,0,1.66,1.34,3,3,3,.4,0,.76-.07,1.09-.2zM11.02,8.13c.3-.08.63-.13.98-.13,2.21,0,4,1.79,4,4,0,.35-.06.68-.13.98l-.97-.24c.06-.25.1-.49.1-.73,0-1.66-1.34-3-3-3-.24,0-.48.04-.73.1l-.24-.97zM9.36,6.5c.82-.31,1.7-.5,2.64-.5,2.29,0,4.34,1.18,5.88,2.45,1.55,1.27,2.64,2.69,3.03,3.27l.19.29-.2.28c-.43.61-1.47,1.95-2.93,3.18l-.64-.76c1.18-.99,2.07-2.07,2.55-2.71-.47-.63-1.4-1.75-2.64-2.77-1.46-1.21-3.29-2.22-5.25-2.22-.79,0-1.55.17-2.29.44l-.35-.94z"/></svg>