<svg width="24" height="24" xmlns="http://www.w3.org/2000/svg"><path fill-rule="evenodd" clip-rule="evenodd" d="m12,4.01c-3.31,0-6,2.69-6,6v.01l0,.01c.04,1.04.35,1.91.84,2.72h0l5.18,8.18,5.18-8.18.01-.01c.47-.83.79-1.72.8-2.73v0c0-3.31-2.69-6-6-6zM7.69,12.23c-.41-.68-.66-1.39-.69-2.23C7.01,7.24,9.24,5.01,12,5.01c2.76,0,5,2.24,5,5-.01.79-.25,1.51-.66,2.23l-4.32,6.82-4.32-6.83zm3.14.97v-2.47h1.53c.57,0,.94.04,1.12.12.46.19.69.57.69,1.14,0,.51-.17.85-.51,1.04-.2.11-.59.17-1.16.17h-1.67zm0-3.21v-2.18h1.58c.45,0,.75.03.9.09.18.07.32.2.42.37.1.17.15.38.15.62,0,.24-.06.46-.18.64s-.27.31-.47.37c-.2.06-.5.09-.91.09h-1.5zm1.7-2.98H10v7H12.93c.47,0,.86-.09,1.15-.25.62-.37.93-.96.93-1.8,0-.64-.22-1.12-.66-1.45-.13-.1-.31-.18-.55-.25.29-.12.52-.32.68-.58.17-.27.25-.57.25-.91,0-.32-.08-.62-.23-.89s-.36-.48-.62-.63c-.28-.16-.73-.23-1.35-.23z"/></svg>