<svg width="24" height="24" xmlns="http://www.w3.org/2000/svg"><path fill-rule="evenodd" clip-rule="evenodd" d="m16,2v2h1V2h-1zm-.01,5.72c-.26-.49-.63-.89-1.07-1.18C15.35,6.2,15.89,6,16.5,6,17.91,6,19,7.09,19,8.5c0,1.02-.56,1.86-1.4,2.26-.03-.05-.07-.1-.11-.15-.29-.37-.69-.64-1.18-.75.12-.8,0-1.53-.32-2.14zm2.01,4.69c.02-.24.01-.48-.03-.71C19.18,11.15,20,9.94,20,8.5,20,6.53,18.47,5,16.5,5c-1.02,0-1.92.41-2.56,1.09-1.31-.36-2.84.06-3.73,1.5-1.52-.72-3.43.33-3.52,2.18-.48.13-.87.43-1.14.81-.36.5-.53,1.15-.51,1.79.03.64.26,1.3.76,1.81.51.51,1.25.82,2.2.82h7c.93,0,1.66-.31,2.17-.81.51-.49.77-1.15.82-1.79zm-4.14-5.29c-1.05-.38-2.36-.05-3,1.39l-.27.6-.51-.42c-.97-.79-2.57-.05-2.39,1.45l.07.56h-.56c-.35,0-.63.17-.85.46-.22.3-.34.73-.32,1.17.02.43.18.85.47,1.15.29.29.76.52,1.49.52h7c.69,0,1.17-.23,1.48-.53.32-.31.49-.72.53-1.15.03-.43-.08-.83-.3-1.1-.2-.26-.52-.44-.99-.42l-.7.03.2-.67c.24-.81.15-1.48-.12-1.98-.27-.51-.72-.88-1.25-1.07zm-.93-1.48-1.44-1.39.69-.72,1.44,1.39-.69.72zm6.52,6.59,1.41,1.41.71-.71-1.41-1.41-.71.71zM21,8h2v1h-2V8zm-.26-4.46-1.41,1.41.71.71,1.41-1.41-.71-.71z"/></svg>