<svg width="36" height="36" xmlns="http://www.w3.org/2000/svg"><path fill-rule="evenodd" clip-rule="evenodd" d="m9.52,6.52C9.03,7.01,8.75,7.79,8.75,9v6.25h18.5V9c0-1.21-.28-1.99-.77-2.48S25.21,5.75,24,5.75H12c-1.21,0-1.99.28-2.48.77zM8.75,24.25v-8h18.5V24.25H8.75zm.06-18.44C9.56,5.06,10.65,4.75,12,4.75h12c1.35,0,2.44.31,3.19,1.06C27.94,6.56,28.25,7.65,28.25,9v3.25h1.5v2.5h-1.5v13.5h-5.5V25.25H13.25v3h-5.5V14.75h-1.5v-2.5h1.5V9c0-1.35.31-2.44,1.06-3.19zM28.25,13.75h.5v-.5h-.5v.5zm-4.5,11.5H27.25v2h-3.5V25.25zm-15,0h3.5v2h-3.5V25.25zm-1-12v.5h-.5v-.5h.5zM24,7.75H12v1h12v-1zM5.78,24.88c-.74.37-1.36.78-1.8,1.24-.44.47-.73,1.01-.73,1.62,0,.85.54,1.57,1.32,2.14.78.58,1.88,1.09,3.19,1.51,2.64.84,6.25,1.35,10.24,1.35,3.99,0,7.6-.51,10.24-1.35,1.31-.42,2.41-.92,3.19-1.51.77-.58,1.32-1.3,1.32-2.14,0-.61-.29-1.16-.73-1.62-.44-.46-1.06-.88-1.8-1.24l-.44.9c.68.34,1.19.69,1.52,1.03.33.35.46.66.46.93,0,.39-.25.85-.91,1.34-.66.49-1.64.96-2.9,1.35-2.51.8-6.02,1.3-9.94,1.3-3.91,0-7.42-.5-9.94-1.3-1.26-.4-2.24-.86-2.9-1.36-.67-.5-.91-.96-.91-1.34,0-.28.13-.59.46-.93.33-.35.84-.7,1.52-1.04l-.44-.9zM12,19.75c-.69,0-1.25.56-1.25,1.25,0,.69.56,1.25,1.25,1.25s1.25-.56,1.25-1.25c0-.69-.56-1.25-1.25-1.25zm-.25,1.25c0-.14.11-.25.25-.25s.25.11.25.25c0,.14-.11.25-.25.25s-.25-.11-.25-.25zm11,0c0-.69.56-1.25,1.25-1.25s1.25.56,1.25,1.25c0,.69-.56,1.25-1.25,1.25s-1.25-.56-1.25-1.25zm1.25-.25c-.14,0-.25.11-.25.25,0,.14.11.25.25.25s.25-.11.25-.25c0-.14-.11-.25-.25-.25z"/></svg>