<svg width="24" height="24" xmlns="http://www.w3.org/2000/svg"><path fill-rule="evenodd" clip-rule="evenodd" d="m13.52,4.12-.39-.32L12.01,5.16l-3.03.78-.76-.39-.25.17,4.97,7.84,1.18.38,4.02,10.46-1.24,4.29,2.82-.68.06-.03.53-.29,1.74,1.57.17.15,3.23-.34,1.35-1.38,2.06,2.7,1.59-3.18,3.59.89-.22-1.84,1.34.03-.18-3.54-1.85-1.34-.47.84-.7-.2.58-1.64-3.71-1.36-1.18-.99zM7.22,7.51l-.03-.01,1.12-.78.56.29,3.71-.96.69-.84.93.78,2.94,1.08-.61,1.71,2.48.71.31-.55.55.4.1,1.99-.84-.02-.58-.01.19,1.55-2.96-.73-1.23,2.47-1.79-2.34-1.91,1.95-2.42.26,6.33,12.52-1.1.61-1.01.24.69-2.4,3.06-3.21-.76-.25zM3,19v1H2v-3h1v1h1v-1h16v1h1v-1h1v3h-1v-1h-1v1h-1c0,1.1-.9,2-2,2s-2-.9-2-2H9c0,1.1-.9,2-2,2s-2-.9-2-2H4v-1H3zm4,2c-.55,0-1-.45-1-1h2c0,.55-.45,1-1,1zm9-1c0,.55.45,1,1,1s1-.45,1-1h-2zm-11-1.5v-.5h14v1H5v-.5z"/></svg>