<svg width="36" height="36" xmlns="http://www.w3.org/2000/svg"><path fill-rule="evenodd" clip-rule="evenodd" d="m15.5,8.25c0-1.38,1.12-2.5,2.5-2.5,1.38,0,2.5,1.12,2.5,2.5,0,1.38-1.12,2.5-2.5,2.5-1.38,0-2.5-1.12-2.5-2.5zm4.95,2.5c.65-.64,1.05-1.52,1.05-2.5,0-1.93-1.57-3.5-3.5-3.5-1.93,0-3.5,1.57-3.5,3.5,0,.98.4,1.86,1.05,2.5H7.82l-3.15,20.5H31.33l-3.15-20.5h-7.73zM18,11.75H8.68l-2.85,18.5H30.17l-2.85-18.5H18zm-.25,6.27-3.36,3.39,3.67,5.18h-2.36l-2.6-3.84-1.08,1.08v2.77h-1.87v-8.57h1.87v3.54l3.36-3.54h2.37zm8.19,8.57v-4.62h-3.6v1.37h1.9c-.02.58-.22,1.04-.59,1.4-.38.35-.86.53-1.45.53-.82,0-1.43-.31-1.85-.92-.34-.5-.51-1.18-.51-2.03,0-.87.18-1.56.54-2.07.41-.59,1-.88,1.76-.88.5,0,.91.13,1.24.39s.54.62.63,1.08h1.81c-.08-.74-.38-1.39-.91-1.93-.71-.73-1.62-1.09-2.75-1.09-1.22,0-2.21.41-2.98,1.22-.82.86-1.23,1.96-1.23,3.31,0,1.19.32,2.19.94,2.99.76.97,1.79,1.45,3.1,1.45,1.07,0,1.93-.4,2.56-1.18l.19.98h1.2z"/></svg>