<svg width="24" height="24" xmlns="http://www.w3.org/2000/svg"><path fill-rule="evenodd" clip-rule="evenodd" d="m4.5,7,15,0c.83,0,1.5.67,1.5,1.5h0v7.5h1v1h-1v1h-1c0,1.1-.9,2-2,2s-2-.89-2-2h-8c0,1.1-.9,2-2,2s-2-.89-2-2H3l0-1H2v-1h1L3,8.5v0c0-.83.67-1.5,1.5-1.5h0zM18,19c-.55,0-1-.45-1-1h2c0,.55-.45,1-1,1zm-12,0c-.55,0-1-.45-1-1h2c0,.55-.45,1-1,1zM19.5,8l-15,0H4.5c-.28,0-.5.22-.5.5v0l0,8.5H5V13h4v4h11V8.5h0c0-.28-.22-.5-.5-.5zm-11.5,9V14h-2v3h2zM5.5,9h-.5v3H19V9H5.5zm.5,2V10H18v1H6zM10,13H19v3H10v-3zM11,14v1H18v-1h-7z"/></svg>