<svg width="36" height="36" xmlns="http://www.w3.org/2000/svg"><path fill-rule="evenodd" clip-rule="evenodd" d="m19.75,9.75c0-3.59,2.91-6.5,6.5-6.5.96,0,1.86.22,2.67.58l.66.3-4.33,4.33v2.29h2.29l4.33-4.33.3.66c.37.81.58,1.71.58,2.67,0,3.59-2.91,6.5-6.5,6.5-.83,0-1.62-.17-2.34-.45l-8.1,8.1c.28.73.45,1.51.45,2.35,0,3.59-2.91,6.5-6.5,6.5-.96,0-1.85-.22-2.67-.58l-.66-.3,4.32-4.32v-2.29H8.46l-4.32,4.32-.3-.66c-.37-.81-.58-1.71-.58-2.67,0-3.59,2.91-6.5,6.5-6.5.83,0,1.62.16,2.35.45l8.1-8.1c-.28-.73-.45-1.51-.45-2.34zm6.5-5.5c-3.04,0-5.5,2.46-5.5,5.5,0,.8.18,1.56.5,2.25l.14.32-9.07,9.07-.32-.14c-.69-.31-1.45-.49-2.26-.49-3.04,0-5.5,2.46-5.5,5.5,0,.54.08,1.06.23,1.56l3.56-3.56h3.71v3.71L8.19,31.52c.5.15,1.02.23,1.56.23,3.04,0,5.5-2.46,5.5-5.5,0-.8-.18-1.56-.49-2.26l-.14-.32,9.07-9.07.31.14c.7.31,1.45.5,2.25.5,3.04,0,5.5-2.46,5.5-5.5,0-.54-.08-1.06-.23-1.56l-3.56,3.56h-3.71V8.04l3.56-3.56c-.5-.15-1.02-.23-1.56-.23z"/></svg>