<svg width="24" height="24" xmlns="http://www.w3.org/2000/svg"><path fill-rule="evenodd" clip-rule="evenodd" d="m9,5.5c0-1.38,1.12-2.5,2.5-2.5s2.5,1.12,2.5,2.5v1.5h-5V5.5zm-1,2.5v2h1V8h5v2h1V8h2.04L17.96,20H5.04l.92-12H8zm0-1V5.5c0-1.93,1.57-3.5,3.5-3.5,1.93,0,3.5,1.57,3.5,3.5v1.5h2.96l1.08,14H3.96L5.04,7H8zm3,10v-5h1v5h-1zm.5-7c-.2,0-.39.01-.59.04l.13.99c.15-.02.3-.03.46-.03s.31.01.46.03l.13-.99c-.19-.03-.39-.04-.59-.04zM14.24,10.93c-.31-.24-.65-.44-1.02-.59l-.38.92c.28.12.55.27.79.46l.61-.79zm-4.46-.59c-.37.15-.71.35-1.02.59l.61.79c.24-.19.51-.34.79-.46l-.38-.92zm5.88,2.44c-.15-.37-.35-.71-.59-1.02l-.79.61c.19.24.34.51.46.79l.92-.38zM7.93,11.76c-.24.31-.44.65-.59,1.02l.92.38c.12-.28.27-.55.46-.79L7.93,11.76zm8.07,2.74c0-.2-.01-.39-.04-.59l-.99.13c.02.15.03.3.03.46,0,.16-.01.31-.03.46l.99.13c.03-.19.04-.39.04-.59zm-8.96-.59c-.03.19-.04.39-.04.59,0,.2.01.39.04.59l.99-.13c-.02-.15-.03-.3-.03-.46,0-.16.01-.31.03-.46l-.99-.13zM15.07,17.24c.24-.31.44-.65.59-1.02l-.92-.38c-.12.28-.27.55-.46.79l.79.61zm-7.73-1.02c.15.37.35.71.59,1.02l.79-.61c-.19-.24-.34-.51-.46-.79l-.92.38zm5.88,2.44c.37-.15.71-.35,1.02-.59l-.61-.79c-.24.19-.51.34-.79.46l.38.92zm-4.46-.59c.31.24.65.44,1.02.59l.38-.92c-.28-.12-.55-.27-.79-.46l-.61.79zm2.15.89c.19.03.39.04.59.04s.39-.01.59-.04l-.13-.99c-.15.02-.3.03-.46.03s-.31-.01-.46-.03l-.13.99z"/></svg>