<svg width="48" height="48" xmlns="http://www.w3.org/2000/svg"><path fill-rule="evenodd" clip-rule="evenodd" d="m19.81,7.13C21.31,6.72,22.88,6.5,24.5,6.5c1.62,0,3.19.22,4.69.63l-4.69,3.4-4.69-3.4zm-1.19.37c-3.2,1.14-5.97,3.18-8,5.82l2.05,6.32,4.74,1.87L24,16.75v-5.33l-5.37-3.9zM9.91,14.34c-1.71,2.57-2.75,5.62-2.89,8.9l4.68-3.4L9.91,14.34zM6.02,24.85l0,.35.01-.01C6.65,34.85,14.68,42.5,24.5,42.5c9.82,0,17.85-7.65,18.46-17.31l.01.01,0-.33C42.99,24.58,43,24.29,43,24,43,13.78,34.72,5.5,24.5,5.5S6,13.78,6,24V24c0,.28.01.57.02.85zm35.96-1.6c-.14-3.29-1.19-6.34-2.9-8.92l-1.79,5.51,4.69,3.41zm-3.62-9.93c-2.03-2.63-4.8-4.67-7.99-5.81L25,11.41v5.33l6.57,4.78,4.73-1.87,2.06-6.33zm3.63,11.17-5.36-3.89-4.73,1.87-2.52,7.75,2.92,3.69h6.63c1.85-2.69,2.97-5.93,3.06-9.42zm-3.81,10.42h-5.76l-1.78,5.49c2.99-1.12,5.59-3.04,7.55-5.49zM29.46,40.79l2.04-6.28-2.92-3.69h-8.17l-2.91,3.68,2.04,6.29c1.57.46,3.23.71,4.95.71,1.72,0,3.39-.25,4.96-.71zm-11.09-.39-1.79-5.5h-5.77c1.96,2.46,4.56,4.38,7.56,5.5zm-8.3-6.5c-1.85-2.69-2.97-5.93-3.06-9.42l5.35-3.89,4.74,1.87,2.52,7.75-2.91,3.69h-6.64zm8.02-11.62,2.45,7.54h7.93l2.45-7.54L24.5,17.62l-6.41,4.66z"/></svg>