<svg width="36" height="36" xmlns="http://www.w3.org/2000/svg"><path fill-rule="evenodd" clip-rule="evenodd" d="m27.75,5.75c-2.21,0-4,1.79-4,4,0,2.21,1.79,4,4,4s4-1.79,4-4c0-2.21-1.79-4-4-4zm-5,4c0-2.76,2.24-5,5-5s5,2.24,5,5c0,2.76-2.24,5-5,5s-5-2.24-5-5zM8,12.02c4.54-2.62,10.35-1.07,12.98,3.48l.25.43-7.82,4.51L19.06,31.75H33v1H3v-1h14.94l-5.4-10.8-7.77,4.48-.25-.43c-2.62-4.54-1.07-10.35,3.48-12.98m.5.87h0,0c-.81.47-1.51,1.05-2.1,1.71-.1.55-.12,1.15-.09,1.76.11,1.78.74,3.89,1.86,5.95l-3.03,1.75c-1.59-3.17-1.02-6.92,1.25-9.46m2.64,7.22,6.92-3.99c-1.17-1.89-2.57-3.37-3.91-4.26-1.47-.97-2.72-1.15-3.55-.68m8.32,4.43c-1.23-2-2.73-3.61-4.22-4.59-.52-.34-1.05-.62-1.57-.81,3.34-.69,6.87.69,8.82,3.65l-3.02,1.75zm-7.78,4.49c-1.06-1.96-1.63-3.91-1.73-5.51-.11-1.76.36-2.94,1.19-3.41l-.25-.43,0,0,0,0,.25.43"/></svg>