<svg width="36" height="36" xmlns="http://www.w3.org/2000/svg"><path fill-rule="evenodd" clip-rule="evenodd" d="m29.75,7.81c.7.18,1.26.73,1.44,1.44H32.75v2.5h-1.5l0,1.12L29.56,16.25h-8.94c-.25,1.68-.76,2.93-1.44,3.84-.74,1-1.64,1.57-2.5,1.89-.86.32-1.69.38-2.29.37-.17,0-.32-.01-.45-.03l-.68,5.46c-.02,1.09-.91,1.97-2,1.97h-3c-1.1,0-2-.89-2-2v-.03l1.43-11.47-.93,0H6.75c-1.1,0-2-.9-2-2V10.25H3v-1h1.81c.22-.86,1.01-1.5,1.94-1.5h22V6h1v1.81zm2,2.94h-.5l0-.5h.5v.5zm-12.15,5.5h-4.91l-.03.25h.09c0,.97.78,1.75,1.75,1.75v1c-.82,0-1.56-.36-2.07-.94l-.38,3.02c.1.01.22.02.35.02.51.01,1.21-.04,1.92-.3.71-.26,1.44-.72,2.04-1.54.54-.73,1-1.77,1.23-3.25zM6.75,8.75c-.55,0-1,.45-1,1v2.5h24.5l0-2.5v0c0-.55-.45-1-1-1H6.75zm-1,5.5V13.25h24.19l-1,2H13.81l-1.55,12.44,0,.03v.03c0,.55-.45,1-1,1h-3c-.54,0-.98-.43-1-.97l8.82,15.25-2.07,0c-.55,0-1-.45-1-1z"/></svg>