<svg width="48" height="48" xmlns="http://www.w3.org/2000/svg"><path fill-rule="evenodd" clip-rule="evenodd" d="m17.4,3.51C18.71,3.18,20.08,3,21.5,3c2.52,0,4.91.56,7.04,1.57l-.23,2.74.54.83-1.73.4-4.87-2.97-.25.14,18.84,7.4-.07.08,17.02,9.77.17.95,1.55-.34-.72,2.24,1.75,1.04,3.33-2.3.27-.83.65.5,1.31.35-1.1,1.23-2.33,1.57-1.26,1.26-2.35-.56-1.43,1.14-3.41,1.1-.42,1.59-1.18-.29-1.46,2.24,1.32,1.95,1.68-.15.97-1.16,1.49-.61,1.2.07,1.05,1.73-.33.57.03.98,2.03-.62-1.7-2.8.72-.16,1.01,1.35.58,2.59.84-.03.64-1.25.85,1.66H24.04l.62.59.69-.73-.91-.86h-1.07l-1.11-2.17-.73.06-.47.93-.27-1.22-1.52-2.04-1.96.44-1.62-.09-1.93.79-.87,1.03-.68.06-.62-.91.71-1.09,1.45.36.53-2.02,3.06-.98,1.19-.95,2.42.58,1.59-1.58,2.35-1.58,2.26-2.54-2.69-.72-1.61-1.25-.6,1.86-2.52,1.74-.51-.31,1.01-3.14-1.65.36.93-1.22,2.72-1.46,4.73,2.89,3.52-.81-1.13-1.74.16-1.99c4.68,2.6,7.96,7.42,8.44,13.03l1-.08C38.18,9.04,30.66,2,21.5,2,11.84,2,4,9.84,4,19.5,4,29.17,11.84,37,21.5,37c.93,0,1.84-.07,2.73-.21l-.15-.99c-.84.13-1.7.2-2.57.2-6.07,0-11.37-3.27-14.23-8.15l1.12-1.41,2.61-.82.41-1.17,1.46.81,2.99.25-.67,1.43,3.67,1.73,1.45-.3.32-.63,2.14.64,1.19.12.1-1-1.1-.11-2.85-.85-.47.95-.65.13-2.46-1.16.86-1.83-4.21-.35-2.31-1.29-.64,1.81-2.42.76L6.75,26.9C5.63,24.67,5,22.16,5,19.5c0-3.44,1.05-6.64,2.86-9.28l4.14-.22,2.94-1.93,2.45-4.56zm-1.36.41c-2.94,1.03-5.5,2.87-7.41,5.25l3.05-.16,2.51-1.64,1.86-3.45zM41.34,44l-.55-1H29.21l-.55,1h12.68zm1.14,0-.55-1H43v-1h-1.61l-.55-1H44V27.77C44,25.69,42.31,24,40.23,24h-4.33l1.88-3H40v-1H30v1h2.22l1.88,3h-4.33C27.69,24,26,25.69,26,27.77V41h3.16l-.55,1H27v1h1.07l-.55,1H26v1h.98l-.41.76.88.48L28.12,45h13.77l.68,1.24.88-.48L43.02,45H44v-1h-1.52zm-9.08-23L35,23.56,36.6,21h-3.2zm-3.11,20-.55,1h10.5l-.55-1h-9.41zM32,27l6,0v1L32,28v-1zm-5,7.14V40h16v-5.86H27zm16-1v-5.37C43,26.24,41.76,25,40.23,25H29.77C28.24,25,27,26.24,27,27.77v5.37h16zM38,37c0-.55.45-1,1-1s1,.45,1,1-.45,1-1,1-1-.45-1-1zm-7-1c-.55,0-1,.45-1,1s.45,1,1,1,1-.45,1-1-.45-1-1-1zM15.75,12.14l-.23-.18-2.9,1.24.93,1.06-.76,1.83,1.55-.03,3.19-2.52-1.78-1.4zm-1.25,1.7-.23-.26,1.09-.47.55.43-1.46,1.16.26-.63-.2-.23zm-2.62-.82,1.17,1.4-1.53,1.25-1.02-1.34,1.39-1.32z"/></svg>