<svg width="36" height="36" xmlns="http://www.w3.org/2000/svg"><path fill-rule="evenodd" clip-rule="evenodd" d="m25.92,5.93.65-1.29-1.31.61c-.73.34-1.51.74-2.23,1.49-.63.65-1.19,1.54-1.65,2.82-.06-.02-.12-.05-.17-.07-2-.72-4.47-.14-5.8,2.23-2.19-1.23-5.13.33-5.13,3.13-.74.14-1.34.59-1.76,1.17-.5.7-.75,1.62-.71,2.53.04.91.37,1.84,1.07,2.55.71.71,1.75,1.16,3.12,1.16h10.5c1.34,0,2.38-.44,3.1-1.15.72-.7,1.09-1.62,1.16-2.52.02-.23.01-.46-.01-.69,1.02.09,2.28-.11,3.49-.59,1.58-.63,3.15-1.8,3.96-3.6l.52-1.16-1.17.5c-2.93,1.24-5.31.4-6.72-1.18-1.44-1.61-1.89-4.01-.91-5.93zm.59,10.93c.83.16,2.1.04,3.37-.47,1.03-.41,2.02-1.06,2.74-1.97-2.74.68-5.06-.23-6.53-1.88-1.38-1.55-2.01-3.73-1.53-5.76-.28.19-.55.4-.81.67-.54.55-1.05,1.35-1.47,2.6.61.41,1.13.97,1.49,1.66.48.92.66,2.04.42,3.29.79.12,1.43.51,1.87,1.08.19.24.34.51.46.79zm-10.45-4.2c1.01-2.29,3.12-2.84,4.81-2.23.85.31,1.58.91,2.01,1.73.43.81.57,1.88.19,3.15l-.2.67.7-.03c.78-.03,1.33.27,1.69.73.37.47.56,1.13.5,1.83-.05.69-.34,1.37-.86,1.88-.52.5-1.3.86-2.41.86h-10.5c-1.15,0-1.92-.36-2.41-.86-.5-.5-.75-1.18-.78-1.89-.03-.71.17-1.4.53-1.9.35-.5.86-.8,1.47-.8h.56l-.07-.56c-.3-2.47,2.36-3.74,3.99-2.4l.51.42.27-.6z"/></svg>