<svg width="48" height="48" xmlns="http://www.w3.org/2000/svg"><path fill-rule="evenodd" clip-rule="evenodd" d="m4,19.84c0-2.67.93-5.89,3.03-8.43C9.12,8.88,12.39,7,17.15,7c6.08,0,9.28,2.51,10.97,5.18,1.72,2.7,1.94,5.62,1.94,6.41,0,1.77-.34,3.46-1.22,5.08-.55-.41-1.05-.83-1.5-1.26-1.33-1.28-2.12-2.59-2.16-3.89-.05-1.31-.4-3-1.6-4.37-1.21-1.38-3.22-2.36-6.4-2.36-3.21,0-5.36,1.17-6.69,2.81-1.32,1.62-1.8,3.65-1.8,5.32h.5c-.5,0-.5,0-.5,0v0l0,0,0,.01c0,.01,0,.03,0,.05,0,.05,0,.11.01.2.01.17.02.41.05.72.06.61.18,1.45.42,2.42.44,1.75,1.28,3.91,2.9,5.73-1.82.73-3.5,1.33-4.66,1.71C5.08,27.07,4,22.96,4,19.84zm28.44,6.08c-.98-.52-1.91-1.08-2.77-1.66,1.01-1.82,1.4-3.72,1.4-5.67,0-.75-.16-3.02-1.28-5.44.15-.04.33-.09.54-.14.65-.15,1.54-.3,2.53-.3.98,0,2.32.2,3.41,1.03,1.06.81,1.97,2.29,1.97,5.02,0,2.43-.9,5.76-2.57,8.73-1.08-.48-2.17-1.01-3.23-1.58zm-3.47-14.28c.13.2.25.4.36.6.19-.06.46-.13.78-.21.7-.16,1.67-.33,2.75-.33,1.09,0,2.69.22,4.02,1.24,1.36,1.04,2.36,2.84,2.36,5.82,0,2.61-.94,6.06-2.65,9.13,1.72.73,3.34,1.33,4.63,1.77,1.89-3.48,2.78-7.28,2.78-10.48,0-4.61-1.49-7.63-3.58-9.51-2.11-1.89-4.9-2.68-7.6-2.68-2.06,0-4.66.41-6.92,1.41,1.33.94,2.34,2.06,3.08,3.23zM45,19.19c0,3.32-.91,7.22-2.81,10.8.24.08.46.15.66.21,2,.62,2.83,2.3,2.56,3.83-.27,1.53-1.61,2.83-3.69,2.74-.47-.02-1.17-.17-2.02-.41-.54-.15-1.15-.35-1.82-.59-3.36,3.16-7.97,5.24-13.91,5.24-5.06,0-9.14-1.6-12.31-4.03-.34.12-.66.23-.98.34-.79.25-1.52.45-2.15.57-.63.12-1.2.17-1.65.12-2.32-.27-3.59-1.68-3.68-3.26-.09-1.55.98-3.09,2.9-3.56.09-.02.2-.05.33-.09C4.09,27.29,3,23.09,3,19.84c0-2.88.99-6.33,3.26-9.07C8.54,8.01,12.1,6,17.15,6c3.28,0,5.8.7,7.73,1.78,2.55-1.28,5.59-1.78,7.93-1.78,2.88,0,5.93.84,8.27,2.93,2.35,2.1,3.92,5.42,3.92,10.26zm-8.38,16.11c.06.02.13.05.19.07-3.14,2.79-7.39,4.63-12.85,4.63-4.57,0-8.27-1.36-11.19-3.45,1.03-.4,2.11-.87,3.2-1.39.63-.29,1.26-.6,1.89-.93,1.65.64,3.85,1,5.98,1,3.19,0,5.99-.89,8.06-2.04,1.67.83,3.29,1.54,4.74,2.1zm-5.83-2.66c-.65-.35-1.31-.71-1.96-1.09-1.14-.67-2.26-1.39-3.33-2.16-1.58,1.36-3.93,2.86-6.43,4.21,1.39.41,3.08.64,4.76.64,2.7,0,5.1-.68,6.97-1.6zm-9.19-6.65c.9.98,1.95,1.91,3.08,2.78-2.15,1.8-5.69,3.86-9.15,5.48-1.85.87-3.65,1.6-5.18,2.09-.76.25-1.45.43-2.03.54-.59.11-1.04.14-1.35.11-1.95-.23-2.74-1.32-2.8-2.33-.06-1.03.65-2.17,2.14-2.54.98-.24,3.94-1.23,7.05-2.53,2.87-1.2,5.97-2.69,7.76-4.14.15.18.31.36.47.53zM18.35,18.97c0,2.03.84,3.95,2.16,5.71-1.64,1.33-4.58,2.77-7.46,3.98-1.63-1.7-2.48-3.82-2.91-5.56-.23-.91-.34-1.71-.4-2.27-.03-.28-.04-.51-.05-.66,0-.08-.01-.14-.01-.17l0-.04,0-.01,0,0v0c0-1.5.44-3.29,1.58-4.69,1.13-1.38,2.98-2.44,5.92-2.44.95,0,1.78.09,2.49.26-.83,1.64-1.31,3.6-1.31,5.92zm2.29-5.63c-.8,1.52-1.29,3.37-1.29,5.63,0,2.19,1.14,4.34,2.99,6.34,1.85,2,4.36,3.83,7,5.37,2.63,1.54,5.37,2.8,7.64,3.68,1.14.44,2.16.78,2.98,1.02.84.24,1.45.36,1.79.38,1.58.07,2.48-.88,2.66-1.91.18-1.03-.35-2.23-1.88-2.7-2.1-.65-6.59-2.2-10.58-4.35-2-1.07-3.89-2.31-5.31-3.67-1.41-1.35-2.41-2.89-2.47-4.57-.04-1.18-.36-2.62-1.35-3.75-.51-.58-1.21-1.1-2.19-1.47zM17.75,9.5c0,.14-.11.25-.25.25s-.25-.11-.25-.25.11-.25.25-.25.25.11.25.25zm-.25-.75c-.41,0-.75.34-.75.75,0,.41.34.75.75.75s.75-.34.75-.75c0-.41-.34-.75-.75-.75zm7,4c.14,0,.25-.11.25-.25s-.11-.25-.25-.25-.25.11-.25.25.11.25.25.25zm-.75-.25c0-.41.34-.75.75-.75s.75.34.75.75-.34.75-.75.75-.75-.34-.75-.75zm4,6c0,.14-.11.25-.25.25s-.25-.11-.25-.25.11-.25.25-.25.25.11.25.25zM27.5,17.75c-.41,0-.75.34-.75.75s.34.75.75.75.75-.34.75-.75-.34-.75-.75-.75zm-6,1c.14,0,.25-.11.25-.25s-.11-.25-.25-.25-.25.11-.25.25.11.25.25.25zm-.75-.25c0-.41.34-.75.75-.75s.75.34.75.75-.34.75-.75.75-.75-.34-.75-.75zm-13-3c0,.14-.11.25-.25.25s-.25-.11-.25-.25.11-.25.25-.25.25.11.25.25zm-.25-.75c-.41,0-.75.34-.75.75s.34.75.75.75.75-.34.75-.75-.34-.75-.75-.75zm-1,10c.14,0,.25-.11.25-.25s-.11-.25-.25-.25-.25.11-.25.25.11.25.25.25zM5.75,24.5c0-.41.34-.75.75-.75s.75.34.75.75-.34.75-.75.75-.75-.34-.75-.75zm7.75,8.75c0,.14-.11.25-.25.25s-.25-.11-.25-.25.11-.25.25-.25.25.11.25.25zm-.25-.75c-.41,0-.75.34-.75.75s.34.75.75.75.75-.34.75-.75-.34-.75-.75-.75zm-7,2c.14,0,.25-.11.25-.25s-.11-.25-.25-.25-.25.11-.25.25.11.25.25.25zM5.5,34.25c0-.41.34-.75.75-.75s.75.34.75.75-.34.75-.75.75-.75-.34-.75-.75zm13.25-4.75c0,.14-.11.25-.25.25s-.25-.11-.25-.25.11-.25.25-.25.25.11.25.25zm-.25-.75c-.41,0-.75.34-.75.75s.34.75.75.75.75-.34.75-.75-.34-.75-.75-.75zm6-4c.14,0,.25-.11.25-.25s-.11-.25-.25-.25-.25.11-.25.25.11.25.25.25zm-.75-.25c0-.41.34-.75.75-.75s.75.34.75.75-.34.75-.75.75-.75-.34-.75-.75zm6,4c0,.14-.11.25-.25.25s-.25-.11-.25-.25.11-.25.25-.25.25.11.25.25zm-.25-.75c-.41,0-.75.34-.75.75s.34.75.75.75.75-.34.75-.75-.34-.75-.75-.75zm-10,9c.14,0,.25-.11.25-.25s-.11-.25-.25-.25-.25.11-.25.25.11.25.25.25zm-.75-.25c0-.41.34-.75.75-.75s.75.34.75.75-.34.75-.75.75-.75-.34-.75-.75zm12-27c0,.14-.11.25-.25.25s-.25-.11-.25-.25.11-.25.25-.25.25.11.25.25zm-.25-.75c-.41,0-.75.34-.75.75,0,.41.34.75.75.75s.75-.34.75-.75c0-.41-.34-.75-.75-.75zm7,2c.14,0,.25-.11.25-.25s-.11-.25-.25-.25-.25.11-.25.25.11.25.25.25zm-.75-.25c0-.41.34-.75.75-.75s.75.34.75.75-.34.75-.75.75-.75-.34-.75-.75zm4,5c0,.14-.11.25-.25.25s-.25-.11-.25-.25.11-.25.25-.25.25.11.25.25zm-.25-.75c-.41,0-.75.34-.75.75s.34.75.75.75.75-.34.75-.75-.34-.75-.75-.75zm1,7c.14,0,.25-.11.25-.25s-.11-.25-.25-.25-.25.11-.25.25.11.25.25.25zM40.75,21.5c0-.41.34-.75.75-.75s.75.34.75.75-.34.75-.75.75-.75-.34-.75-.75zm0,5c0,.14-.11.25-.25.25s-.25-.11-.25-.25.11-.25.25-.25.25.11.25.25zm-.25-.75c-.41,0-.75.34-.75.75s.34.75.75.75.75-.34.75-.75-.34-.75-.75-.75zm-4,5c.14,0,.25-.11.25-.25s-.11-.25-.25-.25-.25.11-.25.25.11.25.25.25zm-.75-.25c0-.41.34-.75.75-.75s.75.34.75.75-.34.75-.75.75-.75-.34-.75-.75zm5,3c0,.14-.11.25-.25.25s-.25-.11-.25-.25.11-.25.25-.25.25.11.25.25zM40.5,32.75c-.41,0-.75.34-.75.75s.34.75.75.75.75-.34.75-.75-.34-.75-.75-.75zM26.5,37.75c.14,0,.25-.11.25-.25s-.11-.25-.25-.25-.25.11-.25.25.11.25.25.25zm-.75-.25c0-.41.34-.75.75-.75s.75.34.75.75-.34.75-.75.75-.75-.34-.75-.75zm7-1c0,.14-.11.25-.25.25s-.25-.11-.25-.25.11-.25.25-.25.25.11.25.25zm-.25-.75c-.41,0-.75.34-.75.75s.34.75.75.75.75-.34.75-.75-.34-.75-.75-.75z"/></svg>