<svg width="48" height="48" xmlns="http://www.w3.org/2000/svg"><path fill-rule="evenodd" clip-rule="evenodd" d="m19,4h-.21L15,7.79V33.21L18.79,37H22v5.99h1V37h2v5.99h1V37h3.21L33,33.21V7.79L29.21,4H19zm-3,4.21L19.21,5h9.59L32,8.21V32.79L28.79,36h-9.59L16,32.79V8.21zM20,6h-.21L17,8.79V32.21L19.79,35h8.41L31,32.21V8.79L28.21,6H20zm-2,3.21L20.21,7h7.59L30,9.21V31.79L27.79,34h-7.59L18,31.79V9.21zM24,26c-1.1,0-2,.9-2,2s.9,2,2,2,2-.9,2-2-.9-2-2-2zm-3,2c0-1.66,1.34-3,3-3s3,1.34,3,3-1.34,3-3,3-3-1.34-3-3zm3-11c-1.66,0-3,1.34-3,3s1.34,3,3,3,3-1.34,3-3-1.34-3-3-3zm0-7c-1.1,0-2,.9-2,2s.9,2,2,2,2-.9,2-2-.9-2-2-2zm-3,2c0-1.66,1.34-3,3-3s3,1.34,3,3-1.34,3-3,3-3-1.34-3-3zm14,8h2v-1h-2v1zm-23.65-6.35,2,2-.71.71-2-2,.71-.71zm24,2.71,2-2-.71-.71-2,2,.71.71zM11,19h2v1h-2v-1zm1.65,3.65-2,2,.71.71,2-2-.71-.71zm24,2.71-2-2,.71-.71,2,2-.71.71zM10,19H9v1h1v-1zm29,1h-1v-1h1v1z"/></svg>