<svg width="36" height="36" xmlns="http://www.w3.org/2000/svg"><path fill-rule="evenodd" clip-rule="evenodd" d="m27.94,7.49c-4.47-1.82-7.17-2.76-9.91-2.76-2.74.01-5.46.96-9.97,2.75l-.32.13V28.25h7v-4.49h6.5v4.49h7V7.61l-.31-.13zM8.75,27.25V8.29c4.34-1.72,6.83-2.55,9.28-2.56,2.45-.01,4.92.81,9.22,2.55V27.25h-5v-4.49h-8.5v4.49h-5zM18,8.75c-2.65,0-4.75,2.1-4.75,4.75,0,2.65,2.1,4.75,4.75,4.75s4.75-2.1,4.75-4.75c0-2.65-2.1-4.75-4.75-4.75zm-5.75,4.75c0-3.21,2.54-5.75,5.75-5.75s5.75,2.54,5.75,5.75c0,3.21-2.54,5.75-5.75,5.75s-5.75-2.54-5.75-5.75zm6.1.35,2.25-2.25-.71-.71L18,12.79l-1.15-1.15-.71.71L18,14.21l.35-.35zM5.78,24.88c-.74.37-1.36.78-1.8,1.24-.44.47-.73,1.01-.73,1.62,0,.85.54,1.57,1.32,2.14.78.58,1.88,1.09,3.19,1.51,2.64.84,6.25,1.35,10.24,1.35,3.99,0,7.6-.51,10.24-1.35,1.31-.42,2.41-.92,3.19-1.51.77-.58,1.32-1.3,1.32-2.14,0-.61-.29-1.16-.73-1.62-.44-.46-1.06-.88-1.8-1.24l-.44.9c.68.34,1.19.69,1.52,1.03.33.35.46.66.46.93,0,.39-.25.85-.91,1.34-.66.49-1.64.96-2.9,1.36-2.51.8-6.02,1.3-9.94,1.3-3.91,0-7.42-.5-9.94-1.3-1.26-.4-2.24-.86-2.9-1.36-.67-.5-.91-.96-.91-1.34,0-.28.13-.59.46-.93.33-.35.84-.7,1.52-1.04l-.44-.9z"/></svg>