<svg width="36" height="36" xmlns="http://www.w3.org/2000/svg"><path fill-rule="evenodd" clip-rule="evenodd" d="m23.49,3.29,9.62,6.41-3.4,6.81-3.49-1.4v1.51h-1v-2.99l4.01,1.6,2.6-5.19-8.39-5.59c-.06.03-.14.07-.22.11-.31.15-.74.34-1.26.53-1.02.38-2.4.78-3.74.78-1.34,0-2.71-.4-3.74-.78-.52-.19-.95-.39-1.26-.53-.08-.04-.16-.08-.22-.11L4.61,10.05l2.6,5.19,3.97-1.59.76,15.22h1.77v1h-2.73l-.74-14.78-3.53,1.41L3.32,9.7,12.94,3.29l.27.14,0,0v0l0,0,0,0,0,0,.02.01c.02.01.05.03.09.04.08.04.19.1.33.16.29.14.7.32,1.18.5.98.37,2.23.72,3.39.72,1.16,0,2.41-.35,3.39-.72.48-.18.89-.36,1.18-.5.14-.07.26-.12.33-.16.04-.02.07-.03.09-.04l.02-.01,0,0,0,0,0,0,0,0v0l.27-.14zM16.33,18.38h7.53l.09.38v0l0,.01.01.03c.01.03.02.06.03.11.03.1.07.25.13.44.12.38.29.92.54,1.56.49,1.28,1.25,2.95,2.33,4.53.84,1.23,1.85,1.84,2.86,2.44.23.14.46.28.69.43.6.39,1.19.83,1.64,1.48.45.65.73,1.47.79,2.58l.03.53h-6.53-.03c-.46,0-1.17,0-2.02-.53-.85-.53-1.8-1.55-2.88-3.48l0,0c-.61-1.12-1.34-1.88-2.06-2.39v6.4h-3.14l-.1-.38.48-.12c-.48.12-.48.12-.48.12l0,0,0,0,0,0-.02-.08c-.01-.05-.03-.13-.05-.23-.05-.2-.11-.5-.18-.88-.14-.75-.3-1.82-.41-3.11-.22-2.56-.22-6,.66-9.45l.1-.38zm.79,13.5c-.04-.19-.09-.44-.15-.75-.13-.73-.29-1.76-.4-3.01-.07-.83-.12-1.76-.12-2.74.03,0,.07,0,.1.01.35.03.85.11,1.42.31.16.06.33.12.5.2v5.98h-1.35zM16.46,24.37c.05,0,.11.01.17.01.42.04,1.01.13,1.66.36,1.32.46,2.93,1.48,4.11,3.64,1.04,1.86,1.89,2.71,2.54,3.11.61.38,1.08.38,1.5.38h5.48c-.1-.67-.3-1.15-.56-1.54-.33-.48-.79-.84-1.36-1.2-.19-.12-.4-.25-.62-.38-1.02-.61-2.25-1.34-3.22-2.77l0,0c-1.14-1.66-1.93-3.41-2.43-4.74-.25-.66-.44-1.23-.56-1.62-.03-.1-.05-.18-.08-.26h-5.98c-.41,1.71-.59,3.41-.64,5z"/></svg>