<svg width="36" height="36" xmlns="http://www.w3.org/2000/svg"><path fill-rule="evenodd" clip-rule="evenodd" d="m5.75,18C5.75,11.16,11.16,5.75,18,5.75S30.25,11.16,30.25,18c0,6.84-5.41,12.25-12.25,12.25s-12.25-5.41-12.25-12.25zM18,4.75c-7.4,0-13.25,5.85-13.25,13.25,0,7.4,5.85,13.25,13.25,13.25s13.25-5.85,13.25-13.25c0-7.4-5.85-13.25-13.25-13.25zM13.5,12.25c-.69,0-1.25.56-1.25,1.25s.56,1.25,1.25,1.25,1.25-.56,1.25-1.25-.56-1.25-1.25-1.25zm-.25,1.25c0-.14.11-.25.25-.25s.25.11.25.25-.11.25-.25.25-.25-.11-.25-.25zm8,0c0-.69.56-1.25,1.25-1.25s1.25.56,1.25,1.25-.56,1.25-1.25,1.25-1.25-.56-1.25-1.25zm1.25-.25c-.14,0-.25.11-.25.25s.11.25.25.25.25-.11.25-.25-.11-.25-.25-.25zm-12,5H10v.5c0,4.46,3.54,8,8,8s8-3.54,8-8v-.5H10.5zm7.5,7.5c-3.74,0-6.73-2.83-6.98-6.5h13.97c-.25,3.67-3.24,6.5-6.98,6.5z"/></svg>