<svg width="24" height="24" fill="none" xmlns="http://www.w3.org/2000/svg"><path d="m8.36,15.84c.77,1.96.79,4.96-.42,5.56-1.15.57-3.55-1.42-4.09-4.47m7.62-3.75c.52-.64,1.1-1.23,1.73-1.75.24-.2.35-.51.27-.82l-1.98-7.52c-.11-.43-.56-.7-.98-.56C6.73,3.75,3.75,6.74,2.54,10.53c-.14.43.13.88.57.99l7.56,1.94c.3.08.61-.03.8-.27zm1.74-3.58c.12.45.62.66,1.02.44.37-.2.75-.37,1.16-.5.24-.08.43-.27.49-.52l1.1-4.79c.08-.37-.13-.76-.49-.85-1.37-.37-2.8-.45-4.2-.22-.41.07-.65.49-.55.89M9.17,13.08c.45.11.67.62.45,1.03-.2.37-.36.76-.48,1.17-.08.25-.26.44-.51.5l-4.75,1.15c-.37.09-.75-.12-.85-.48-.38-1.37-.48-2.81-.26-4.22.06-.41.48-.66.88-.56M16.97,4.27c3.02.51,4.99,2.9,4.44,4.06-.58,1.22-3.53,1.26-5.48.51" stroke="#000" stroke-miterlimit="10"/></svg>