<svg width="24" height="24" xmlns="http://www.w3.org/2000/svg"><path fill-rule="evenodd" clip-rule="evenodd" d="m14.99,5.5c0-.26.24-.5.5-.5.26,0,.5.24.5.5s-.24.5-.5.5c-.26,0-.5-.24-.5-.5zm.5-1.5c-.81,0-1.5.69-1.5,1.5s.69,1.5,1.5,1.5c.81,0,1.5-.69,1.5-1.5s-.69-1.5-1.5-1.5zM7,6h5v1H7V6zm7.5,2h-.15l-3.28,2.19-1.05,3.68.96.27.95-3.32,1.84-1.23L12.89,14h.11v2.29l-2.85,2.85.71.71,3.15-3.15V14h1.29l1.66,1.66-.94,4.23.98.22,1.06-4.77-2.01-2,.77-3.82,1.41,1.41,2.6,1.04.37-.93-2.4-.96,16.71,8H14.5zM14.11,13l.8-4h.98l-.8,4h-.98zM5,9v1h4V9H5zm-2,4h5v1H3v-1zm7,3H5v1h5v-1z"/></svg>