<svg width="36" height="36" xmlns="http://www.w3.org/2000/svg"><path fill-rule="evenodd" clip-rule="evenodd" d="m25.5,5.75h4.04l-5.9,5.9.71.71L30.25,6.46v4.04h1V4.75H25.5v1zM3,14.75h.52v-1H3v1zm1.56,0h1.04v-1H4.56v1zm2.08,0H7.69v-1H6.65v1zm2.08,0h1.04v-1H8.73v1zm2.08,0h1.04v-1h-1.04v1zm2.08,0h1.04v-1h-1.04v1zm2.08,0h1.04v-1h-1.04v1zM17.06,14.75h1.04v-1h-1.04v1zm2.08,0h1.04v-1h-1.04v1zm2.08,0h.02v.02h1v-1.02H21.23v1zM21.25,15.81v1.04h1v-1.04h-1zm0,2.08v1.04h1v-1.04h-1zm0,2.08v1.04h1v-1.04h-1zm0,2.08v1.04h1v-1.04h-1zM21.25,24.15v1.04h1v-1.04h-1zm0,2.08v1.04h1v-1.04h-1zm0,2.08v1.04h1v-1.04h-1zM21.25,30.4v1.04h1v-1.04h-1zm0,2.08v.52h1v-.52h-1z"/></svg>