<svg width="36" height="36" xmlns="http://www.w3.org/2000/svg"><path fill-rule="evenodd" clip-rule="evenodd" d="m24.18,15.1c.68.11,1.24.43,1.66.89.54.59.83,1.38.9,2.18.12,1.6-.67,3.43-2.55,4.06l-.31-.95c1.34-.44,1.96-1.77,1.87-3.03-.05-.63-.27-1.19-.64-1.58-.35-.38-.86-.63-1.54-.6l-.7.03.2-.67c.75-2.54-.53-4.32-2.21-4.94-1.69-.62-3.81-.07-4.83,2.25l-.27.61-.51-.42c-1.63-1.34-4.3-.08-4,2.43l.07.56h-.56c-1.07,0-1.87.97-1.99,2.26-.12,1.26.44,2.57,1.86,3.05l-.32.95c-1.97-.67-2.69-2.5-2.53-4.1.14-1.4.99-2.83,2.46-3.11.01-2.82,2.95-4.4,5.15-3.16,1.33-2.39,3.81-2.98,5.82-2.25,2.01.73,3.52,2.79,2.98,5.55zM16.54,25.5h1.32v-1.26h-1.32v1.26zm-1.64-7.86c-.27.41-.42.99-.45,1.74h1.05c.09-1.32.67-1.98,1.76-1.98.53,0,.92.17,1.19.5.23.27.34.61.34,1.01,0,.22-.04.43-.12.64-.09.25-.29.52-.59.83-.47.48-.77.8-.91.97-.14.17-.24.37-.31.59-.1.3-.16.76-.17,1.37h1.04c0-.35.02-.63.06-.85.04-.22.1-.4.19-.55.09-.15.26-.33.49-.55.53-.51.86-.86,1-1.04.31-.42.47-.91.47-1.49,0-.7-.23-1.26-.68-1.69-.49-.46-1.15-.69-1.97-.69-.51,0-.98.1-1.39.31-.41.21-.74.5-.99.88z"/></svg>