<svg width="48" height="48" xmlns="http://www.w3.org/2000/svg"><path fill-rule="evenodd" clip-rule="evenodd" d="m3,17.5C3,9.49,9.49,3,17.5,3,25.51,3,32,9.49,32,17.5,32,25.51,25.51,32,17.5,32,9.49,32,3,25.51,3,17.5zM17.5,2C8.94,2,2,8.94,2,17.5,2,26.06,8.94,33,17.5,33c4.1,0,7.83-1.59,10.6-4.19l3.87,3.87-1.06,1.06,11.68,11.68c.78.78,2.05.78,2.83,0,.78-.78.78-2.05,0-2.83L33.74,30.91,32.68,31.97,28.81,28.1C31.41,25.33,33,21.6,33,17.5,33,8.94,26.06,2,17.5,2zm0,3C10.6,5,5,10.6,5,17.5S10.6,30,17.5,30,30,24.4,30,17.5,24.4,5,17.5,5zM4,17.5C4,10.04,10.04,4,17.5,4S31,10.04,31,17.5,24.96,31,17.5,31,4,24.96,4,17.5zm28.32,16.24,10.97,10.97c.39.39,1.02.39,1.41,0,.39-.39.39-1.02,0-1.41L33.74,32.32l-1.41,1.41zM26,18H9v-1h17v1z"/></svg>