<svg width="36" height="36" xmlns="http://www.w3.org/2000/svg"><path fill-rule="evenodd" clip-rule="evenodd" d="m12.93,3.25h4.69l3.75,12H30c.87,0,1.57.3,2.06.82.48.52.69,1.21.69,1.93,0,.72-.22,1.41-.69,1.93-.48.52-1.19.82-2.06.82h0l-8.63,0-3.75,12h-4.68l1.5-12H9.31l-1.5,3H3.74l2.46-5.75,3.74,12.25H7.81l1.5,3h5.12l12.93,3.25zm1.13,1L15.57,16.25H8.69l-1.5-3H5.26l2.04,4.75-2.04,4.75h1.93l1.5-3h6.88l-1.5,12h2.82l3.75-12H21l9,0c.63,0,1.05-.21,1.32-.5.27-.3.43-.73.43-1.25,0-.52-.16-.96-.43-1.25-.27-.29-.69-.5-1.32-.5h-9.37l-3.75-12h-2.82z"/></svg>