<svg width="24" height="24" xmlns="http://www.w3.org/2000/svg"><path fill-rule="evenodd" clip-rule="evenodd" d="m12.01,7v-3.02h1v3.02h-1zm-5.97-.33,2.28,2.28.71-.71-2.28-2.28-.71.71zM12.5,9c-1.93,0-3.47,1.56-3.47,3.5,0,1.93,1.56,3.5,3.5,3.5C14.45,15.99,16,14.43,16,12.5,16,10.57,14.43,9,12.5,9zm-4.47,3.5C8.03,10.02,10.01,8,12.5,8c2.48,0,4.5,2.02,4.5,4.5,0,2.48-1.99,4.49-4.48,4.49-2.48,0-4.5-2.01-4.5-4.5zM7,13H4v-1h3v1zm11.3-6.95-2.26,2.24.7.71,2.26-2.24-.7-.71zM17.99,12H21v1h-3.01v-1zm1.03,6.24-2.27-2.26-.71.71,2.27,2.26.71-.71zM12,21v-3h1v3h-1zm-3.7-4.95-2.26,2.26.71.71,2.26-2.26-.71-.71z"/></svg>