<svg width="24" height="24" xmlns="http://www.w3.org/2000/svg"><path fill-rule="evenodd" clip-rule="evenodd" d="m13.45,4L19,7v2h-1V7.6l-4-2.16v7.77l.67.76-.75.66-.48-.55-4.93,3.94L3,14V4.02l5.48,3.95,4.96-3.97zM13,13.16V5.64l-4,3.2v7.52l4-3.2zM4,5.98l4,2.88v7.56l-4-2.92V5.98zm11,7.21c0-1.73,1.31-3.19,3-3.19,1.69,0,3,1.46,3,3.19v0h0c0,.54-.16,1.01-.39,1.44l-.01.01-2.59,4.41-2.59-4.41,0,0c-.24-.43-.39-.89-.41-1.44l0-.01v-.01zm1-.01c.01.37.11.67.28.98l1.72,2.93,1.72-2.92c.17-.33.27-.64.27-.97,0-1.24-.93-2.19-2-2.19-1.07,0-1.99.94-2,2.18zM18,12c-.55,0-1,.45-1,1,0,.56.46,1,1,1,.56,0,1-.46,1-1,0-.55-.45-1-1-1z"/></svg>