<svg width="24" height="24" xmlns="http://www.w3.org/2000/svg"><path fill-rule="evenodd" clip-rule="evenodd" d="m4,6c0-.1.07-.3.45-.56.37-.26.93-.51,1.67-.72C7.59,4.28,9.67,4,12,4c2.33,0,4.41.28,5.88.71.74.22,1.3.47,1.67.72C19.93,5.7,20,5.9,20,6s-.07.3-.45.56c-.37.26-.93.51-1.67.72C16.41,7.72,14.33,8,12,8c-2.33,0-4.41-.28-5.88-.71-.74-.22-1.3-.47-1.67-.72C4.07,6.3,4,6.1,4,6zM3,6c0-.59.4-1.05.88-1.38.49-.34,1.17-.63,1.96-.86C7.43,3.28,9.6,3,12,3c2.4,0,4.57.28,6.17.75.79.23,1.47.52,1.96.86C20.6,4.95,21,5.41,21,6v12c0,.66-.42,1.15-.95,1.51-.53.36-1.26.64-2.08.85-1.65.43-3.82.64-5.97.64-2.15,0-4.32-.21-5.97-.64-.82-.21-1.55-.49-2.08-.85C3.42,19.15,3,18.66,3,18V6zm1,9.56V18c0,.18.11.41.51.68.4.27,1,.51,1.77.71,1.54.4,3.62.61,5.72.61,2.1,0,4.18-.21,5.72-.61.77-.2,1.38-.45,1.77-.71C19.89,18.41,20,18.18,20,18v-2.44c-.53.34-1.23.61-2.03.82-1.65.43-3.82.64-5.97.64-2.15,0-4.32-.21-5.97-.64-.8-.21-1.5-.48-2.03-.82zm16-1.55c0,.18-.11.41-.51.68-.4.27-1,.51-1.77.72-1.54.4-3.62.61-5.72.61-2.1,0-4.18-.21-5.72-.61-.77-.2-1.38-.45-1.77-.72C4.11,14.42,4,14.19,4,14.01v-2.47c.53.34,1.23.61,2.03.82,1.65.43,3.82.64,5.97.64,2.15,0,4.32-.21,5.97-.64.8-.21,1.5-.48,2.03-.82v2.47zm0-6.54V10c0,.18-.11.41-.51.68-.4.27-1,.51-1.77.72-1.54.4-3.62.61-5.72.61-2.1,0-4.18-.21-5.72-.61-.77-.2-1.38-.45-1.77-.72C4.11,10.41,4,10.18,4,10V7.47c.48.31,1.11.57,1.83.78C7.43,8.72,9.6,9,12,9c2.4,0,4.57-.28,6.17-.75.73-.21,1.36-.48,1.83-.78z"/></svg>