<svg width="48" height="48" xmlns="http://www.w3.org/2000/svg"><path fill-rule="evenodd" clip-rule="evenodd" d="m11.08,12.96C10.3,13.52,10,14.05,10,14.5s.3.98,1.08,1.54c.77.55,1.91,1.07,3.37,1.52C17.37,18.44,21.44,19,26,19s8.63-.56,11.55-1.44c1.46-.44,2.61-.96,3.37-1.52C41.7,15.48,42,14.95,42,14.5s-.3-.98-1.08-1.54c-.77-.55-1.91-1.07-3.37-1.52C34.63,10.56,30.56,10,26,10s-8.63.56-11.55,1.44c-1.46.44-2.61.96-3.37,1.52zm-.59-.81C9.61,12.78,9,13.57,9,14.5v.76c-.84.39-1.54.82-2.05,1.31C6.37,17.11,6,17.75,6,18.47l0,.03H6v4c0,1.07.66,1.93,1.63,2.61.4.28.86.53,1.37.76v6.63c0,1.08.66,1.96,1.63,2.65.97.69,2.32,1.24,3.89,1.68,3.15.87,7.33,1.3,11.48,1.3s8.33-.43,11.48-1.3c1.57-.43,2.92-.99,3.89-1.68C42.34,34.46,43,33.58,43,32.5v-7.77c.01-.07.01-.15.01-.22,0-.72-.38-1.36-.95-1.91-.39-.37-.89-.71-1.47-1.02.28-.15.54-.31.78-.47C42.34,20.43,43,19.57,43,18.5v-4c0-.93-.61-1.72-1.49-2.35-.89-.64-2.15-1.2-3.67-1.66C34.8,9.56,30.63,9,26,9s-8.8.56-11.84,1.49c-1.52.46-2.77,1.02-3.67,1.66zM10,32.5v0c0,.63.37,1.24,1.21,1.84.68.49,1.63.92,2.79,1.29v-2.95c-1.35-.41-2.51-.91-3.37-1.53-.23-.16-.44-.34-.63-.52V32.5zm5,.46v2.97c2.51.67,5.69,1.06,9,1.17v-3c-3.26-.11-6.43-.49-9-1.14zm11,4.17c-.33,0-.67,0-1-.01v-3c.33.01.67.01,1,.01,3.14,0,6.29-.25,9-.74v2.98c-2.67.5-5.83.76-9,.76zM36,33.19v2.98c.42-.09.82-.19,1.21-.3,1.52-.42,2.75-.94,3.58-1.53C41.63,33.74,42,33.13,42,32.5v-1.87c-.19.18-.4.36-.63.52-.97.69-2.32,1.24-3.89,1.68-.47.13-.96.25-1.48.36zm-26-4.69c0,.63.37,1.24,1.21,1.84.83.59,2.06,1.11,3.58,1.53.07.02.14.04.21.06v-3.17c-1.15-.3-2.16-.66-3.02-1.05-.8-.37-1.48-.79-1.98-1.25v2.06zm32-2.03V28.5c0,.63-.37,1.24-1.21,1.84-.83.59-2.06,1.11-3.58,1.53-.07.02-.14.04-.21.06V28.76c.29-.08.58-.16.85-.24,1.52-.46,2.77-1.02,3.67-1.66.17-.12.33-.25.48-.39zm-17,6.66c-3.23-.05-6.4-.38-9-.96v-3.17c2.54.58,5.63.94,9,1v3.13zm1-3.12V33.13c3.58,0,7.13-.32,10-.96v-3.16c-2.79.63-6.24,1-9.99,1H26zM42,24.5h.01c0-.35-.18-.75-.64-1.18-.33-.31-.79-.63-1.38-.92v.1c0,1.07-.66,1.93-1.63,2.61-.97.67-2.32,1.22-3.89,1.64-3.15.85-7.32,1.27-11.47,1.27-3.42,0-6.86-.29-9.72-.86.76.29,1.64.56,2.62.79,2.76.66,6.26,1.05,10.11,1.05,4.56,0,8.63-.56,11.55-1.44,1.46-.44,2.61-.96,3.37-1.52.69-.5,1-.97,1.07-1.38V24.5zM7,20.42V22.5c0,.6.37,1.2,1.2,1.79.69.48,1.64.9,2.8,1.27v-3.12c-1.44-.45-2.65-.99-3.51-1.61-.18-.13-.34-.26-.49-.4zm14,6.56c-3.31-.11-6.49-.5-9-1.15v-3.12c2.47.65,5.58,1.09,9,1.21v3.05zm1-3.03V27.01c.33.01.67.01,1,.01,3.17,0,6.33-.25,9-.74v-2.56c-1.92.2-3.96.3-6,.3-.16,0-.33,0-.49,0l0,0c-.15,0-.72-.01-1.27-.02l-.19,0h0c-.49-.01-.93-.02-1.05-.02-.34,0-.67,0-1-.01zm12.21,1.82c-.39.11-.79.2-1.21.3V23.6c1.62-.21,3.14-.49,4.47-.85.54-.15,1.05-.3,1.53-.48v.23c0,.6-.37,1.2-1.2,1.79-.83.58-2.06,1.09-3.58,1.5zM7.63,17.3c.33-.31.79-.62,1.37-.92V18.5c0,1.07.66,1.93,1.63,2.61.16.11.34.22.52.33-1.32-.42-2.36-.91-3.07-1.42C7.3,19.45,7,18.92,7,18.47c0-.35.18-.75.63-1.18zm2.86-.44c-.18-.13-.34-.26-.49-.4V18.5c0,.6.37,1.2,1.2,1.79.83.58,2.06,1.09,3.58,1.5.07.02.14.04.21.06V18.75c-.29-.08-.57-.16-.84-.24-1.52-.46-2.77-1.02-3.67-1.66zM16,19v3.08c2.6.57,5.77.88,9,.93v-3.02c-3.37-.06-6.46-.42-9-.99zm20,3.08c-2.87.63-6.43.94-10,.94V20c3.75,0,7.21-.37,10-1v3.08zM37,18.75v3.09c.07-.02.14-.04.21-.06,1.52-.41,2.75-.92,3.58-1.5C41.63,19.7,42,19.1,42,18.5v-2.05c-.15.14-.32.27-.49.4-.89.64-2.15,1.2-3.67,1.66-.27.08-.55.16-.84.24zM26,12c3.84,0,6.89.38,9.17.89,2.29.51,3.77,1.14,4.49,1.61l.55-.83c-.86-.57-2.48-1.23-4.83-1.75C33.03,11.39,29.9,11,26,11c-2.07,0-3.92.11-5.55.29-4.52.5-7.42,1.55-8.67,2.38l.55.83c1.06-.7,3.78-1.73,8.23-2.22h0C22.15,12.11,23.97,12,26,12z"/></svg>