<svg width="24" height="24" xmlns="http://www.w3.org/2000/svg"><path fill-rule="evenodd" clip-rule="evenodd" d="m12,2.01c-3.31,0-6,2.69-6,6v.01l0,.01c.04,1.04.35,1.91.84,2.72l0,0L12.02,18.93l5.18-8.17.01-.01c.47-.83.79-1.72.8-2.73v0c0-3.31-2.69-6-6-6zM7.69,10.24c-.41-.68-.66-1.39-.69-2.23C7.01,5.25,9.24,3.01,12,3.01c2.76,0,5,2.24,5,5-.01.79-.25,1.51-.66,2.23l-4.32,6.82-4.32-6.83zm1.05,4.94c-1.87.21-3.5.6-4.68,1.12-.59.26-1.09.56-1.45.91-.36.35-.62.78-.62,1.29,0,.64.41,1.16.94,1.56.54.4,1.29.75,2.18,1.03,1.78.56,4.21.91,6.88.91,2.67,0,5.1-.34,6.88-.91.89-.28,1.64-.63,2.18-1.03.53-.4.94-.92.94-1.56,0-.5-.25-.93-.61-1.28-.36-.35-.85-.65-1.43-.91-1.16-.52-2.77-.91-4.62-1.13l-.12.99c1.79.21,3.29.58,4.33,1.05.52.23.9.47,1.14.71.24.23.31.42.31.56,0,.18-.12.44-.54.76-.42.31-1.05.61-1.88.88-1.66.53-3.98.86-6.57.86-2.6,0-4.92-.33-6.57-.86-.83-.26-1.47-.57-1.88-.88-.43-.32-.54-.58-.54-.76,0-.14.07-.33.31-.57.25-.24.63-.48,1.16-.71,1.05-.47,2.57-.84,4.39-1.04l-.11-.99zM14,6V5l12.5,5v.5l0-.5h0c-1.21,0-2.22.86-2.45,2H8v1h2.05c.23,1.14,1.24,2,2.45,2H14V9h1.5V8H14V7h1.5V6H14zm-1.5,0L13,6V9h-.5c-.83,0-1.5-.67-1.5-1.5,0-.83.67-1.5,1.5-1.5h0z"/></svg>