<svg width="48" height="48" fill="none" xmlns="http://www.w3.org/2000/svg"><path d="m12,27.5h12m-12,4h12m-12,6h7m8.5-14H36m-8.5,4H36m-8.5,6H31m-3.5,4h12v-31H23L20.5,9v1.5m-9.5,0L8.5,13v28.5h19V10.5L11,10.5z" stroke="#000" stroke-miterlimit="10"/><path fill-rule="evenodd" clip-rule="evenodd" d="m36.03,18.57V10h-.8c-.16.54-.37.92-.65,1.13-.41.3-1.02.46-1.83.46v.77h2.16v6.21h1.11zm-12.02,3.7v-.95h-4.39c.09-.38.27-.69.52-.95.25-.26.71-.6,1.39-1.01.86-.53,1.46-.97,1.79-1.34.51-.55.76-1.2.76-1.95,0-.39-.07-.76-.21-1.1-.14-.34-.34-.63-.6-.85-.48-.41-1.09-.62-1.85-.62-.82,0-1.47.25-1.95.74-.25.26-.45.58-.59.96s-.21.78-.21,1.2c0,.04,0,.12.01.22h1.03c.03-.73.18-1.29.46-1.66s.68-.56,1.21-.56c.61,0,1.06.23,1.37.7.18.28.28.61.28.98,0,.49-.16.93-.49,1.31-.22.27-.74.66-1.54,1.17-.55.35-.96.64-1.22.86-.26.22-.48.46-.66.71-.4.56-.62,1.27-.66,2.11h5.57z" fill="#000"/></svg>