<svg width="24" height="24" viewBox="0,0,24,24" xmlns="http://www.w3.org/2000/svg"><path fill-rule="evenodd" clip-rule="evenodd" d="m22.5,0h-21C.675,0,0,.675,0,1.5v21c0,.825.675,1.5,1.5,1.5h21c.825,0,1.5-.675,1.5-1.5v-21c0-.825-.675-1.5-1.5-1.5z" fill="#2d327d"/><path fill-rule="evenodd" clip-rule="evenodd" d="m7.78497,4.48499c0-.825-.675-1.5-1.5-1.5s-1.5.675-1.5,1.5.675,1.5,1.5,1.5c.8325,0,1.5-.6675,1.5-1.5z" fill="#fff"/><path fill-rule="evenodd" clip-rule="evenodd" d="m3,7.875v5.0925c0,.2925.24.5325.5325.5325s.5325-.24.5325-.5325V8.625h.465v11.61c0,.4275.345.765.7725.765s.765-.345.765-.765v-6.75h.4875v6.75c0,.4275.345.765.7725.765s.765-.345.765-.765V8.625h.465v4.3425c0,.2925.24.5325.5325.5325s.5325-.24.5325-.5325V7.875c0-.825-.675-1.5-1.5-1.5H4.5c-.825,0-1.5.675-1.5,1.5z" fill="#fff"/></svg>