<svg width="24" height="24" viewBox="0,0,24,24" xmlns="http://www.w3.org/2000/svg"><path fill-rule="evenodd" clip-rule="evenodd" d="m22.5,0h-21C.675,0,0,.675,0,1.5v21c0,.825.675,1.5,1.5,1.5h21c.825,0,1.5-.675,1.5-1.5v-21c0-.825-.675-1.5-1.5-1.5z" fill="#2d327d"/><path fill-rule="evenodd" clip-rule="evenodd" d="m13.9875,11.7975,1.8075.63c.0375.015.0825.0225.12.0225.1275,0,.24-.06.3075-.165l.405-.6c.03-.0525.0525-.105.0525-.165,0-.165-.135-.3-.3-.3h-2.3025c-.165,0-.3.135-.3.3.0075.12.09.2325.21.2775z" fill="#fff"/><path fill-rule="evenodd" clip-rule="evenodd" d="m7.65001,11.8125H10.275v-.6H7.65001c-.165,0-.3.135-.3.3s.135.3.3.3z" fill="#fff"/><path fill-rule="evenodd" clip-rule="evenodd" d="m7.64999,12.7874h.375c.165,0,.3-.135.3-.3s-.135-.3-.3-.3h-.375c-.165,0-.3.135-.3.3s.135.3.3.3z" fill="#fff"/><path fill-rule="evenodd" clip-rule="evenodd" d="m15.645,14.0549c.5175-.2625,1.095-.405,1.68-.405,2.025,0,3.675,1.6425,3.675,3.675,0,2.025-1.6425,3.675-3.675,3.675-1.8975,0-3.4875-1.4475-3.66-3.3375h-.78c-.165.345-.5025.5625-.885.5625-.54,0-.975-.435-.975-.975,0-.2175.075-.4275.21-.6l-1.965-2.925-.405.645c.9375.6975,1.485,1.7925,1.485,2.955,0,2.025-1.65,3.675-3.675,3.675-2.0325,0-3.675-1.65-3.675-3.675,0-2.0325,1.6425-3.675,3.675-3.675.585,0,1.1625.135,1.68.405l.72-1.155h5.85l.72,1.155zm-8.97,6.345c1.695,0,3.075-1.38,3.075-3.075,0-.96-.4425-1.86-1.2-2.4375l-1.62,2.595c-.0525.09-.15.1425-.255.1425-.165,0-.3-.135-.3-.3,0-.0525.015-.1125.045-.1575l1.62-2.6025c-.4275-.21-.8925-.315-1.365-.315-1.695,0-3.075,1.38-3.075,3.075s1.38,3.075,3.075,3.075zm5.595-4.0875c-.09-.0225-.18-.0375-.27-.0375s-.18.015-.27.0375l-1.89-2.8125h4.32l-1.89,2.8125zM12.9525,17.0624h.705c.075-1.0725.615-2.055,1.4775-2.6925l-.405-.645-1.965,2.925c.09.12.1575.2625.1875.4125zm2.4975-2.175,1.3575,2.175h-2.55c.075-.8625.51-1.65,1.1925-2.175zm-1.185,2.775c.1725,1.56,1.4925,2.7375,3.06,2.7375,1.695,0,3.075-1.38,3.075-3.075s-1.38-3.075-3.075-3.075c-.4725,0-.945.105-1.365.315l1.3425,2.16h.0225c.33,0,.6.27.6.6s-.27.6-.6.6c-.195,0-.3825-.0975-.495-.2625h-2.565z" fill="#fff"/><path fill-rule="evenodd" clip-rule="evenodd" d="m4.59,4.83v.4125H3V3h.4875v1.83H4.59z" fill="#fff"/><path fill-rule="evenodd" clip-rule="evenodd" d="m6.225,3.76502c-.1575-.1575-.3525-.24-.6-.24-.27,0-.4875.09-.645.2625-.1425.165-.2175.3675-.2175.6225s.075.465.225.63c.15.1725.36.255.6225.255.2475,0,.45-.0825.6-.2325.165-.165.2475-.3825.2475-.66,0-.2625-.0825-.48-.2325-.6375zm-.9075.2475c.075-.0975.165-.1425.285-.1425.1275,0,.225.0525.2925.15001.0675.08999.105.22499.105.39,0,.18-.0375.31499-.1125.41249-.0675.0825-.165.1275-.2775.1275-.12,0-.2175-.0525-.2925-.1425-.0675-.09-.105-.225-.105-.3975s.0375-.3.105-.3975z" fill="#fff"/><path fill-rule="evenodd" clip-rule="evenodd" d="m8.29499,4.60502c-.0225.165-.07499.3075-.16499.42-.1425.18-.3525.27-.615.27-.27,0-.4875-.09-.6375-.2775-.1275-.1575-.195-.3525-.195-.5925,0-.2925.0825-.5175.25499-.6825.15-.1425.34501-.2175.5775-.2175.2175,0,.3975.06.53251.1725.135.1125.21749.27.2325.465h-.435c-.015-.09-.0525-.1575-.1125-.21-.06001-.0525-.1275-.075-.2175-.075-.1275,0-.2175.045-.285.1425-.06751.0975-.105.225-.105.3975,0,.15.03.27.0825.36.0675.1125.165.165.3.165.195,0,.315-.1125.345-.3375h.44249z" fill="#fff"/><path fill-rule="evenodd" clip-rule="evenodd" d="m9.63,5.25004h.4575c-.0106-.03178-.0195-.06355-.0276-.0922-.009-.0322-.017-.06045-.0249-.0803-.0075-.06-.0075-.15-.0075-.27v-.345c.0075-.2025.0075-.315.0075-.3375,0-.1275-.015-.2175-.03-.27s-.0525-.105-.1125-.1575c-.1275-.105-.315-.1575-.5775-.1575-.23249,0-.4125.045-.54.1425-.1275.09-.195.2325-.21.42h.42001c.01499-.0975.0525-.1575.0975-.195s.12-.0525.225-.0525c.19499,0,.2925.0675.2925.2175,0,.0675-.0225.1125-.0675.135s-.15.045-.33.0675c-.21.03-.3525.06-.4275.09-.1875.0825-.285.225-.285.435,0,.165.0525.2925.165.3825.09749.0825.23249.12.405.12.21749,0,.3975-.075.54-.2175,0,.045.00749.0975.02999.165zm-.345-.7275c.15001-.015.255-.045.31501-.0825l-.00001.18c0,.0525-.0075.0975-.015.135-.00243.00487-.00486.00993-.00736.01513-.0129.02684-.0275.05724-.05264.08237-.075.09-.18.135-.315.135-.0825,0-.1425-.0225-.1875-.06s-.0675-.0975-.0675-.165c0-.0825.03001-.1425.0975-.18.05251-.0225.12751-.045.2325-.06z" fill="#fff"/><path fill-rule="evenodd" clip-rule="evenodd" d="m11.2875,3.56255v.315H10.95v.7875c0,.0975.0075.1575.0225.18.0225.0375.0825.0525.1725.0525.0375,0,.0825,0,.135-.0075v.36c-.0975.015-.195.015-.2775.015-.1275,0-.225-.015-.2925-.045-.105-.045-.165-.1275-.195-.255-.0075-.0525-.015-.1575-.015-.3225v-.7575h-.27v-.315h.27v-.39h.4425v.39h.345v-.0075z" fill="#fff"/><path fill-rule="evenodd" clip-rule="evenodd" d="m11.985,3.405V3h-.4425v.405h.4425zm0,1.845V3.57h-.4425v1.68h.4425z" fill="#fff"/><path fill-rule="evenodd" clip-rule="evenodd" d="m13.7475,3.76502c-.1575-.1575-.3525-.24-.6-.24-.27,0-.48.09-.645.2625-.1425.165-.2175.3675-.2175.6225s.075.465.225.63c.15.1725.36.255.6225.255.2475,0,.45-.0825.6-.2325.165-.165.2475-.3825.2475-.66,0-.2625-.0825-.48-.2325-.6375zm-.9075.2475c.075-.0975.165-.1425.285-.1425.1275,0,.2325.0525.2925.15001.0675.08999.105.225.105.39,0,.18-.0375.31499-.1125.4125-.0675.0825-.165.1275-.2775.1275-.12,0-.2175-.05251-.2925-.14251-.0675-.09-.105-.225-.105-.3975s.0375-.3.105-.3975z" fill="#fff"/><path fill-rule="evenodd" clip-rule="evenodd" d="m14.6925,3.56996v.2325c.0525-.075.0975-.1275.1425-.1575.1125-.0825.2475-.1275.3975-.1275.135,0,.255.0375.3525.105.075.0525.1275.1275.1575.21s.045.2025.045.36v1.0575h-.4425v-.96c0-.105-.0075-.1875-.03-.24-.015-.045-.045-.0825-.09-.105-.045-.03-.105-.045-.165-.045-.0675,0-.1275.015-.1875.0525-.0525.03-.0975.075-.12.135-.03.06-.045.165-.045.3v.8625h-.4425v-1.68h.4275z" fill="#fff"/></svg>