<svg width="24" height="24" viewBox="0,0,24,24" xmlns="http://www.w3.org/2000/svg"><path fill-rule="evenodd" clip-rule="evenodd" d="m22.5,0h-21C.675,0,0,.675,0,1.5v21c0,.825.675,1.5,1.5,1.5h21c.825,0,1.5-.675,1.5-1.5v-21c0-.825-.675-1.5-1.5-1.5z" fill="#2d327d"/><path fill-rule="evenodd" clip-rule="evenodd" d="m10.8524,4.18494c0-.7275-.585-1.3125-1.31248-1.3125-.7275,0-1.3125.585-1.3125,1.3125s.585,1.3125,1.3125,1.3125c.72748,0,1.31248-.5925,1.31248-1.3125z" fill="#fff"/><path fill-rule="evenodd" clip-rule="evenodd" d="m20.0925,19.0125h1.0125v.5925h-.4125l.36.36-1.0575,1.0575-1.4175-1.4175H10.395v1.26H5.12996v-.6h4.665v-1.26h8.18254l-6.84-6.84v5.5725c0,.375-.3075.675-.675.675-.375,0-.67504-.3-.67504-.675V12.045h-.4275l-2.655,2.655v1.905c0,.375-.3075.675-.675.675-.375,0-.675-.3-.675-.675v-2.4525l2.655-2.655V9.05996l-.4125-.4125v2.46004c0,.255-.21.465-.465.465s-.465-.21-.465-.465V7.70996l-2.5125-2.5125V16.4325l.9075-.9075v.8475l-.9075.9075v.615h2.85V14.85l.6-.6v4.245h-3.45v2.4h-1.05V4.16996l-.4575-.4575.4575-.4575v-.3675h.3675l.24-.24.24.24h3.6525v2.7075c-.0525.0075-.105.0225-.1575.045-.04016.01148-.07594.02734-.11404.04424-.0117.00519-.02362.01047-.03596.01576h-.0075c-.0525.0225-.0975.045-.1425.075h-.0075c-.03.015-.06.03667-.09.05833-.015.01084-.03.02167-.045.03167v-2.3925h-2.4525l2.6325,2.6325c.2175-.165.495-.27.795-.27H11.16c.7275,0,1.3125.585,1.3125,1.3125V11.4l7.62,7.6125zm-8.55-11.21254H11.13V10.05l.4125.4125V7.79996z" fill="#fff"/><path fill-rule="evenodd" clip-rule="evenodd" d="m3.70496,2.63245-1.0575,1.0575L19.9875,21.0374l1.065-1.065L3.70496,2.63245z" fill="#eb0000"/></svg>