<svg width="37" height="38" viewBox="0,0,37,38" xmlns="http://www.w3.org/2000/svg"><path fill-rule="evenodd" clip-rule="evenodd" d="m.658114.219372L0,0v31.0541l.341886.114L18.5,37.2208l18.1581-6.0527.3419-.114V0l-.6581.219372L18.5,6.16667.658114.219372zM1,30.3333V1.38743l17,5.66666V36L1,30.3333zM19,36V7.05409l17-5.66666V30.3333L19,36zM3.34189,8.16805,15.3419,12.1681l.3162-.9487L3.65811,7.21937l-.31622.94868zM21.6581,12.1681l12-4.00005-.3162-.94868-12,4.00003.3162.9487zm-6.3162,6-12.00001-4,.31622-.9487,11.99999,4-.3162.9487zM3.34189,20.1681l12.00001,4,.3162-.9487-11.99999-4-.31622.9487zm12.00001,10-12.00001-4,.31622-.9487,11.99999,4-.3162.9487zM34,13.6937V13l-.6581.2194-12,4L21,17.3333v13.0541l.6581-.2193,12-4,.3419-.114V13.6937zM22,29V18.0541l11-3.6667v10.9459L22,29z"/></svg>