<svg width="24" height="24" viewBox="0,0,24,24" xmlns="http://www.w3.org/2000/svg"><path fill-rule="evenodd" clip-rule="evenodd" d="m4,12c0-4.41828,3.58172-8,8-8,4.4183,0,8,3.58172,8,8,0,4.4183-3.5817,8-8,8-4.41828,0-8-3.5817-8-8zm8-9c-4.97056,0-9,4.02944-9,9,0,4.9706,4.02944,9,9,9,4.9706,0,9-4.0294,9-9,0-4.97056-4.0294-9-9-9zm-4.14645,8.3536L9,10.2071l1.1464,1.1465.7072-.7072L9.70711,9.5,10.8536,8.35355l-.7072-.7071L9,8.79289,7.85355,7.64645l-.7071.7071L8.29289,9.5,7.14645,10.6464l.7071.7072zm6.00005,0L15,10.2071l1.1464,1.1465.7072-.7072L15.7071,9.5l1.1465-1.14645-.7072-.7071L15,8.79289,13.8536,7.64645l-.7072.7071L14.2929,9.5l-1.1465,1.1464.7072.7072zM12.06,12c-2.2785,0-4.17402,1.3571-5.00943,3.3027l.91888.3946C8.65404,14.1029,10.1985,13,12.06,13s3.406,1.1029,4.0906,2.6973l.9188-.3946C16.234,13.3571,14.3385,12,12.06,12z"/></svg>