<svg width="29" height="16" viewBox="0,0,29,16" xmlns="http://www.w3.org/2000/svg"><path fill-rule="evenodd" clip-rule="evenodd" d="m6.52202,6.65576h-1.101l.74-3.44901h.981c1.06,0,2.341.06016,2.341,1.40367,0,1.6453-1.541,2.04534-2.961,2.04534zM5.10099,12.7938h-.96l.841-4.05159h.899c1.501,0,2.861.22058,2.861,1.68539,0,2.1657-1.921,2.3662-3.641,2.3662zM8.062,1H3.921L1,14.9996h3.982c2.08,0,6.56-.3209,6.56-4.3323,0-1.50397-.68-2.70712-2.24-2.94775v-.0401c1.62-.26068,2.98-1.62525,2.98-3.3297C12.282,1.8021,10.242,1,8.062,1zm9.9788,5.49578,1.18-5.49535h-2.8L13.4198,15h2.801l1.521-7.1206L21.6218,15h3.341l-4.501-7.62191,7.062-6.37766h-3.902l-5.541,5.49535h-.04z"/></svg>