<svg width="24" height="24" viewBox="0,0,24,24" xmlns="http://www.w3.org/2000/svg"><path fill-rule="evenodd" clip-rule="evenodd" d="m14,6.06634V4.99951l-.8199.68256L8.00012,9.99434H4v3.99896h3.9998l5.1799,4.322.8203.6844V6.06634zM8.5009,10.8786,13,7.13317V16.863l-4.49867-3.7536-.13913-.1161H5v-1.999h3.36188l.13902-.1157zm10.0346,6.5971-2.266-1.401-.5258.8505,2.266,1.401.5258-.8505zM15.7437,7.07477l2.266-1.401.5258.85056-2.266,1.401-.5258-.85056zm3.7395,1.54855-3.597.892.2407.97058,3.597-.89198-.2407-.9706zm-.0009,6.75468-3.596-.893.241-.9705,3.596.893-.241.9705zm.5178-3.8781h-3.993v1h3.993v-1z"/></svg>