<svg width="36" height="36" viewBox="0,0,36,36" xmlns="http://www.w3.org/2000/svg"><path fill-rule="evenodd" clip-rule="evenodd" d="m7.76172,10.2972c.15755-.0312.32076-.0477.48828-.0477h.4875v-.99999H8.25c-.23312,0-.4614.0229-.68257.0667l.19429.98099zm1.95078-.0477h.975v-.99999h-.975v.99999zm1.95,0h.975v-.99999h-.975v.99999zm1.95,0h.975v-.99999h-.975v.99999zM15.5625,10.2495h.975v-.99999h-.975v.99999zm1.95,0h.975v-.99999h-.975v.99999zm1.95,0h.975v-.99999h-.975v.99999zm1.95,0h.975v-.99999h-.975v.99999zM23.3625,10.2495h.975v-.99999h-.975v.99999zm1.95,0h.975v-.99999h-.975v.99999zm1.95,0h.4875c.1675,0,.3307.0165.4883.0477l.1943-.98099c-.2212-.0438-.4495-.0667-.6826-.0667h-.4875v.99999zM6.17104,11.3611c.18273-.2728.41778-.5078.6906-.6905l-.55647-.83091c-.38133.25541-.7096.58371-.96499.96501l.83086.5564zm22.96736-.6905c.2728.1827.5078.4177.6906.6906l.8308-.5565c-.2554-.3813-.5836-.7096-.965-.96501l-.5564.83091zM5.75,12.7495c0-.1675.01644-.3307.04764-.4883l-.98094-.1943c-.04381.2212-.0667.4495-.0667.6826v.525h1v-.525zm24.4524-.4883c.0312.1576.0476.3208.0476.4883v.525h1v-.525c0-.2331-.0229-.4614-.0667-.6826l-.9809.1943zM5.75,15.3745v-1.05h-1v1.05h1zm24.5-1.05v1.05h1v-1.05h-1zm0,2.1v1.05h1v-1.05h-1zM5.75,17.4745v-1.05h-1v1.05h1zm24.5,1.05v1.05h1v-1.05h-1zm-24.5,1.05v-1.05h-1v1.05h1zm0,2.1v-1.05h-1v1.05h1zm24.5-1.05v1.05h1v-1.05h-1zM5.75,23.2495v-.525h-1v.525c0,.2331.02289.4614.0667.6826l.98094-.1943c-.0312-.1576-.04764-.3208-.04764-.4883zm24.5-.525v.525c0,.1675-.0164.3307-.0476.4883l.9809.1943c.0438-.2212.0667-.4495.0667-.6826v-.525h-1zM6.86164,25.3285c-.27282-.1828-.50787-.4178-.6906-.6906l-.83086.5564c.25539.3814.58366.7096.96499.965l.55647-.8308zm22.96736-.6906c-.1828.2728-.4178.5078-.6906.6906l.5564.8308c.3814-.2554.7096-.5836.965-.965l-.8308-.5564zM8.25,25.7495c-.16752,0-.33073-.0164-.48829-.0476l-.19428.9809c.22117.0438.44945.0667.68257.0667h.4875v-1H8.25zm19.9883-.0476c-.1576.0312-.3208.0476-.4883.0476h-.4875v1h.4875c.2331,0,.4614-.0229.6826-.0667l-.1943-.9809zm-17.5508.0476h-.975v1h.975v-1zm1.95,0h-.975v1h.975v-1zm1.95,0h-.975v1h.975v-1zM16.5375,25.7495h-.975v1h.975v-1zm1.95,1v-1h-.975v1h.975zm1.95-1h-.975v1h.975v-1zm1.95,0h-.975v1h.975v-1zm1.95,0h-.975v1h.975v-1zm1.95,0h-.975v1h.975v-1zM25.25,15.251v-1.75h-1v1.75H22.5v1h1.75v1.75h1v-1.75H27v-1h-1.75zM15,16.2495H9v-1h6v1zm-6,3.0007h9v-1H9v1zm7.5,2.9993H9v-1h7.5v1z"/></svg>