<svg width="24" height="24" viewBox="0,0,24,24" xmlns="http://www.w3.org/2000/svg"><path fill-rule="evenodd" clip-rule="evenodd" d="m2,3.99976h20v5h-.5c-1.4239,0-2.5,1.07614-2.5,2.50004,0,1.4238,1.0761,2.5,2.5,2.5h.5v5H2V3.99976zm1,1V17.9998h13v-.4643h1v.4643h4v-3.0333c-1.7274-.2327-3-1.6609-3-3.4667,0-1.80593,1.2726-3.23411,3-3.4668V4.99976h-4v.46428h-1v-.46428H3zm13,2.32142v-.92857h1v.92857h-1zm0,1.85715v-.92857h1v.92857h-1zm0,1.85717v-.9286h1v.9286h-1zm0,1.8571v-.9286h1v.9286h-1zM16,14.7498v-.9286h1v.9286h-1zm0,1.8571v-.9286h1v.9286h-1zM9.46944,6.82763,9,5.54734,8.53056,6.82763,7.55078,9.49976H3.5993l1.08408.88694,1.92261,1.5731-1.07415,2.8644-.5443,1.4515,1.28981-.8599L9,13.6007l2.7227,1.8151,1.268.8454-.5208-1.4323-1.0752-2.9568,1.911-1.4767,1.1591-.89564h-4.0156l-.97976-2.67213zm-1.1,3.34427L9,8.45217l.63056,1.71973.12022.3279h1.78442l-1.0409.8043-.289.2233.1248.3432.6792,1.8677-1.73195-1.1546L9,12.3988l-.27735.1849-1.71019,1.1402.6557-1.7486.12585-.3356-.27739-.2269-1.11592-.913h1.84852l.12022-.3279z"/></svg>