<svg width="36" height="36" viewBox="0,0,36,36" xmlns="http://www.w3.org/2000/svg"><path fill-rule="evenodd" clip-rule="evenodd" d="m31.3135,8.43184-5.5092,5.72056c.0482.1002.0989.2037.1518.3101.2888.5809.6325,1.229.9875,1.8986l.0001.0003.0001.0001.0005.0009c.1621.3058.3266.6161.4893.9264.5133.9789,1.0085,1.9583,1.3214,2.7485.1552.3923.2768.7652.3266,1.0819.0249.1584.036.3271.0118.4891-.0244.1633-.0907.3555-.2521.5066-.0995.0933-.1928.184-.2849.2737l-.0074.0072c-.0931.0906-.1867.1817-.2784.2662-.1796.1657-.3798.3333-.607.4498-.2397.123-.5086.1887-.8126.1533-.0433-.005-.0864-.012-.1294-.0208-.0875.3246-.2709.6122-.5465.7985-.2654.1794-.5962.2448-.9373.1516-.3195-.0873-.6075-.3015-.8567-.6049-1.2641-1.2065-2.7302-2.1818-4.3317-2.8813l.4002-.9164c1.719.7508,3.2917,1.7993,4.6459,3.0972l.0238.0229.0206.0257c.1677.2097.2971.2746.3614.2921.0523.0143.0833.0052.1138-.0154.0862-.0583.2187-.2781.1462-.6064l-.2612-1.1818,1.0191.6529c.2148.1376.3561.1822.4473.1928.0799.0093.1509-.0037.2408-.0498.1024-.0525.2217-.1442.3854-.2952.0801-.0738.1641-.1554.2588-.2476l.0095-.0092c.0761-.0741.1582-.154.2456-.2368.0012-.0317-.001-.083-.0129-.1586-.0325-.2072-.122-.499-.2685-.8692-.2909-.7346-.7625-1.6706-1.2772-2.6523-.1575-.3004-.3192-.6052-.4799-.9084-.3585-.6761-.7126-1.3441-1.0074-1.937-.2142-.431-.4027-.8332-.5426-1.1808-.1325-.329-.241-.6547-.2658-.923-.0502-.3855-.1885-.7544-.4042-1.078-.2174-.326-.5074-.5972-.8474-.7922l-.4096-.2349.2112-.4224,1.0818-2.16363c-.0703.01612-.1425.03451-.216.05549-.6034.1724-1.189.49068-1.4714,1.05535l-.1888.37769-.404-.12297c-1.7161-.52239-3.5369-.59928-5.2908-.22343-1.754.37585-3.3834,1.1921-4.7348,2.3718l-.008.007-.0001-.0001c-2.21638,1.8532-3.61369,4.5759-4.48695,7.5162-.82062,2.7631-1.16706,5.6801-1.30978,8.1622,5.37013.6802,9.58223,1.3775,14.85183,2.6471-1.2132-1.8413-2.138-3.3406-2.7747-5.0285-.7604-2.016-1.1011-4.2723-1.1011-7.6806h1c0,3.3417.3345,5.4659,1.0367,7.3276.7068,1.8737,1.7946,3.5106,3.3752,5.8888l.0045.0068.7144,1.0749-1.2521-.313c-5.9756-1.4939-10.455-2.2408-16.44071-2.989l-.45995-.0575.02257-.4629c.12754-2.6168.47032-5.816,1.37453-8.8606.90261-3.0392,2.37755-5.9678,4.80006-7.9953,1.4784-1.28941,3.2606-2.18165,5.1788-2.5927,1.7932-.38426,3.6502-.33622,5.418.13766.4987-.68931,1.2614-1.03359,1.8719-1.20802.363-.10371.6974-.15497.9405-.18056.1221-.01285.2227-.01938.2942-.02271.0358-.00167.0645-.00253.085-.00298l.0246-.00042.0075-.00006L24.7478,7h.0014c.0001,0,.0003,0,.0003.5V7h.809l-.3618.72361-1.3031,2.60629c.1275.098.2481.2045.361.3189l6.4879-3.01718,2.4299-1.12998-1.8589,1.9302zm-2.5792,1.23652-3.3629,3.49194c-.0792-.2176-.1165-.366-.1236-.4518l-.0009-.0107-.0014-.0106c-.054-.4266-.1853-.8388-.3865-1.2167l3.8753-1.80214zM20.7493,13.5c0-.1381.112-.25.25-.25.1381,0,.25.1119.25.25s-.1119.25-.25.25c-.138,0-.25-.1119-.25-.25zm.25-1.25c-.6903,0-1.25.5596-1.25,1.25s.5597,1.25,1.25,1.25c.6904,0,1.25-.5596,1.25-1.25s-.5596-1.25-1.25-1.25z"/></svg>