<svg width="24" height="24" viewBox="0,0,24,24" xmlns="http://www.w3.org/2000/svg"><path fill-rule="evenodd" clip-rule="evenodd" d="m22.8546,3.80664-1.8589,1.9302-3.5921,3.7299c.0162.03306.0328.06665.0497.10073.1916.38534.4191.81433.6552,1.25973l.0003.0004.0006.0012c.1082.204.2181.4114.3273.6197.3419.6521.676,1.3123.8882,1.8484.105.2652.1914.5273.2275.7567.018.1147.0276.2456.0081.3765-.0198.1323-.0754.3003-.219.4348-.0651.061-.1263.1205-.188.1806l-.0046.0045c-.0618.0601-.1258.1224-.1888.1805-.1225.1129-.2694.2374-.4417.3257-.1726.0885-.3691.1402-.5899.1239-.0779.1938-.2056.3652-.3851.4865-.2161.1461-.4866.199-.7621.1238-.2527-.0691-.4698-.234-.6494-.4503-.827-.7877-1.7856-1.4247-2.8323-1.8819l.4002-.9164c1.1639.5084,2.2289,1.2184,3.1459,2.0972l.0238.0229.0206.0257c.0476.0596.086.094.1126.1136.0014-.0036.0027-.0074.0041-.0116.0144-.0439.0211-.1074.0047-.1817l-.2612-1.1818,1.0191.6529c.1304.0835.2003.1002.2275.1033.0159.0019.0303.002.0652-.0159.0476-.0244.1136-.0729.22-.171.0515-.0475.1059-.1003.1693-.162l.0067-.0065.0008-.0008c.0338-.0329.0698-.0679.1076-.1042l-.002-.0129c-.0188-.1199-.0731-.301-.1693-.544-.1903-.4805-.5008-1.0973-.8441-1.7522-.1041-.1985-.2113-.4007-.3182-.6023l-.0001-.0001v-.0001c-.2395-.4517-.4774-.9003-.6749-1.2977-.1436-.28877-.2714-.56143-.3671-.79904-.0884-.21948-.1687-.45458-.1882-.65891-.0305-.23064-.1135-.45127-.2425-.6449-.1307-.19593-.3049-.35888-.5092-.47604l-.4096-.23495.2112-.42237.5469-1.09387c-.2873.11582-.5268.28972-.6525.54109l-.1889.37769-.4039-.12297c-1.117-.34002-2.3021-.39007-3.4438-.14543-1.14165.24464-2.20223.77591-3.0818,1.54376l-.00802.00701-.00007-.00009C6.37755,9.09001,5.45914,10.8705,4.88195,12.814c-.52515,1.7682-.75716,3.6353-.85729,5.2483,3.37252.4302,6.07384.8758,9.35644,1.651-.6991-1.0751-1.2473-2.0019-1.6366-3.0341-.5167-1.3697-.7448-2.8959-.7448-5.1792h1c0,2.2167.222,3.6108.6804,4.8263.4636,1.2291,1.1779,2.3049,2.236,3.8969l.7143,1.0749-1.252-.313c-3.9757-.9939-6.95507-1.4908-10.94074-1.989l-.45995-.0575.02256-.4629c.08535-1.7511.31491-3.8987.92306-5.9464.60655-2.0424,1.60261-4.02883,3.25154-5.40946,1.00667-.87762,2.21998-1.4849,3.52593-1.76474,1.1849-.2539,2.4106-.23068,3.5821.06565.3619-.44175.8711-.66342,1.2669-.77651.2536-.07246.4865-.10809.6554-.12587.085-.00895.1553-.01353.2058-.01588.0253-.00117.0458-.0018.0607-.00213l.0183-.0003.006-.00005L16.4981,4.5h.0012c.0002,0,.0004,0,.0004.5v-.5h.809l-.3618.72361-.809,1.61803c.0221.01901.0439.0384.0653.05817l4.2215-1.96319,2.4299-1.12998zm-4.4381,3.16672L16.997,8.44735l-.0013-.01018c-.0312-.2461-.0984-.48547-.1988-.71062l1.6196-.75319zM13.9995,8c-.5523,0-1,.44771-1,1,0,.55228.4477,1,1,1s1-.44772,1-1c0-.55229-.4477-1-1-1z"/></svg>