<svg width="24" height="24" xmlns="http://www.w3.org/2000/svg"><path fill-rule="evenodd" clip-rule="evenodd" d="m22.5,0h-21C.675,0,0,.675,0,1.5v21c0,.825.675,1.5,1.5,1.5h21c.825,0,1.5-.675,1.5-1.5v-21c0-.825-.675-1.5-1.5-1.5z" fill="#2d327d"/><path fill-rule="evenodd" clip-rule="evenodd" d="m18.345,18.4499v3.15H5.175c0-.9675.1575-1.8825.4725-2.7525s.7725-1.62,1.365-2.25c.45-.48.975-.9525,1.575-1.41s1.8075-1.2975,3.615-2.535c.8775-.6,1.485-1.155,1.8375-1.6575s.525-1.08749.525-1.75499c0-.7725-.2325-1.4025-.705-1.8825s-1.0875-.72-1.86-.72c-1.8825,0-2.8575,1.3125-2.9175,3.92999H5.565v-.39c0-2.14499.6225-3.80249,1.8675-4.97999,1.2075-1.1475,2.775-1.725,4.7025-1.725,1.6875,0,3.105.465,4.2525,1.4025,1.245,1.02,1.8675,2.385,1.8675,4.1025,0,1.49999-.495,2.79749-1.485,3.87749-.3225.3525-.63.6375-.9075.8475-.2775.2175-1.0275.7275-2.2425,1.5375-1.17.795-1.995,1.3875-2.4825,1.7925-.4875.3975-.945.87-1.3725,1.41l8.58.0075z" fill="#fff"/></svg>