<svg width="48" height="48" xmlns="http://www.w3.org/2000/svg"><path fill-rule="evenodd" clip-rule="evenodd" d="m21.5,5c-.7467,0-1.397.40903-1.7405,1.01431C18.7683,6.13309,18,6.97682,18,8c0,.9823.7079,1.79883,1.6416,1.96791.3563.32979.834.53209,1.3584.53209.4732,0,.9079-.1645,1.25-.4388.3421.2743.7768.4388,1.25.4388.364,0,.7058-.0976,1-.2677.2942.1701.636.2677,1,.2677.5645,0,1.074-.234,1.4372-.60929.1739.07043.3639.10929.5628.10929.3842,0,.7346-.14443,1-.38195.2654.23752.6158.38195,1,.38195.8284,0,1.5-.67157,1.5-1.5S30.3284,7,29.5,7c-.3842,0-.7346.14443-1,.38195C28.2346,7.14443,27.8842,7,27.5,7c-.1988,0-.3889.03886-.5627.10926-.1743-.18013-.3823-.32766-.6142-.43244C26.0094,5.98321,25.3117,5.5,24.5,5.5c-.4901,0-.9387.17617-1.2862.46844C22.8637,5.38809,22.2272,5,21.5,5zM28,8.5c0-.27614-.2239-.5-.5-.5-.1333,0-.2535.05153-.3436.13675L26.7726,8.5l.3838.36325C27.2465,8.94847,27.3667,9,27.5,9c.2761,0,.5-.22386.5-.5zm1,0c0,.27614.2239.5.5.5s.5-.22386.5-.5-.2239-.5-.5-.5-.5.22386-.5.5zm-8.4438-1.83182C20.6933,6.2783,21.0648,6,21.5,6c.5523,0,1,.44772,1,1,0,.0195-.0006.03881-.0016.05793l-.0426.75148.7092-.25206c.0146-.0052.0294-.01006.0443-.01458l.2559-.07756.0776-.25591c.1245-.411.5067-.7093.9572-.7093s.8327.2983.9572.7093l.0776.25591.2559.07756c.2498.07572.4596.24765.5847.47333l.2684.4839-.2684.4839c-.1712.30886-.4995.5161-.8754.5161-.2564,0-.4893-.09587-.6665-.25451L24.5,8.94703l-.3335.29846c-.1772.15864-.4101.25451-.6665.25451-.3473,0-.6536-.17667-.8336-.44739l-.4164-.62622-.4164.62622c-.18.27072-.4863.44739-.8336.44739-.2977,0-.5645-.12944-.7484-.33675l-.1334-.15037-.2004-.01618C19.4042,8.95521,19,8.52456,19,8c0-.55228.4477-1,1-1,.0191,0,.038.00053.0568.00157l.3749.02083.1245-.35422zm7.9448,4.32592h-.5v3h-8v-2.9926l-.4996-.0004-7-.006-.5004-.0004v8.0004h.0002v2.9989h2.2665c.3455.598.9918,1.0006,1.7328,1.0006.7399,0,1.3863-.4023,1.7322-1h2.5358c.3457.5977.9918,1,1.7325,1,.7399,0,1.3863-.4023,1.7322-1h2.5355c.346.5977.9924,1,1.7323,1,.7402,0,1.3867-.4026,1.7326-1.0006h4.2827l-.3071-.7007-1.7073-3.8954-.0009-2.9039-.0002-.4999h-.9998v-3h-2.5zm1.5,9.9999h2.4852l-1.3118-2.993H13.0012v2.993h.9993c.0003-1.1049.8951-1.9994,2-1.9994,1.1039,0,2,.8947,2,2h2.0005c0-1.1051.8948-2,2-2,1.1039,0,2,.8947,2,2h2c0-1.1053.8961-2,2-2,1.1037,0,1.9996.8943,2,1.9994zm1.0008-3.993H13.001v-5.0055l6,.0052v2.9934h12.0001l.0007,2.0069zm-1.0008-3.0069v-2h-1v2h1zm13.9985,10.0064H5.99951v-1H43.9995v1zm-30.999,5.0005c0-1.6573,1.344-3,3-3,1.6571,0,3,1.3428,3,3v12.5h1.0005v-12.5c0-1.6572,1.3428-3,3-3,1.6571,0,3,1.3428,3,3v6.0178c.3218-.3808.6556-.7499,1.001-1.1067V29.001c0-1.6572,1.3428-3,3-3,1.656,0,3,1.3427,3,3v.5131C36.2471,27.8882,39.9718,27.001,44,27.001v1c-9.8614,0-17.7736,5.5151-21.032,14.176l-.1219.324H6v-13.5c0-1.6573,1.34399-3,3-3,1.6571,0,3,1.3428,3,3v12.5h1.0005v-12.5zm5,12.5v-12.5c0-1.1049-.8952-2-2-2-1.104,0-2,.8952-2,2v12.5h4zM32.002,30.047v-1.046c0-1.1048-.8961-2-2-2-1.1049,0-2,.8951-2,2v3.9409c1.2168-1.108,2.5558-2.0778,4-2.8949zm-7.001,6.2462V29.001c0-1.1049-.8952-2-2-2-1.1049,0-2,.8951-2,2v12.5h1.1555c.7423-1.8912,1.6995-3.6348,2.8445-5.2078zM7,29.001c0-1.1048.89601-2,2-2,1.1049,0,2,.8951,2,2v12.5H7v-12.5zm14.001-8.0064c0-.5528.4471-1,1-1,.5521,0,1,.4474,1,1,0,.5519-.4482,1-1,1-.5527,0-1-.4479-1-1zm-5.0005-1c-.5529,0-1,.4472-1,1,0,.5521.4473,1,1,1,.5518,0,1-.4481,1-1,0-.5526-.4479-1-1-1zm11.0005,1c0-.5526.4479-1,1-1s1,.4474,1,1c0,.5519-.4482,1-1,1-.5519,0-1-.4481-1-1z"/></svg>