<svg width="36" height="36" xmlns="http://www.w3.org/2000/svg"><path fill-rule="evenodd" clip-rule="evenodd" d="m18,4.75c-1.5188,0-2.75,1.23122-2.75,2.75v.25H10.5c-1.51877,0-2.74998,1.23122-2.74998,2.75v9h1v-4.75H16.75v1.3509c0,.9108.7384,1.6491,1.6492,1.6491h3.7017c.9108,0,1.6491-.7383,1.6491-1.6491V14.75h8v7.75c0,.9665-.7835,1.75-1.75,1.75h-1.4964v1H30c1.5188,0,2.75-1.2312,2.75-2.75v-12c0-1.51878-1.2312-2.75-2.75-2.75h-4.75V7.5c0-1.51878-1.2312-2.75-2.75-2.75H18zm6.25,3V7.5c0-.9665-.7835-1.75-1.75-1.75H18c-.9665,0-1.75.7835-1.75,1.75v.25h8zm-13.75,1c-.96648,0-1.74998.7835-1.74998,1.75v3.25H16.75v-1.3509c0-.9108.7384-1.6491,1.6492-1.6491h3.7017c.9108,0,1.6491.7383,1.6491,1.6491V13.75h8V10.5c0-.9665-.7835-1.75-1.75-1.75H10.5zm7.8992,3c-.3586,0-.6492.2906-.6492.6491V13.75h5v-1.3509c0-.3585-.2906-.6491-.6491-.6491h-3.7017zm4.3508,4.3509V14.75h-5v1.3509c0,.3585.2906.6491.6492.6491h3.7017c.3585,0,.6491-.2906.6491-.6491zm-10.4927,8.1086-5.76935-4.0303c-.86104-.6788-2.11003-.5378-2.79767.319-.6888.8583-.55449,2.111.29843,2.8039l8.88089,7.8231.1417.1249h5.8961l1.3655,1.3549.1462.145h13.0828l-.9074-.8624-7.9912-7.5946-.0006-.0006c-1.7586-1.6806-4.0399-2.9616-6.4217-3.0421l-.0084-.0002h-3.1725c-.8857,0-1.5867.3371-2.0613.8709-.4663.5246-.6888,1.21-.6888,1.8791,0,.0696.0024.1395.0073.2094zm5.8978-1.9594h.0004c2.0518.0721,4.1081,1.1899,5.7569,2.7658l.001.001,7.0847,6.7331H20.831l-1.3655-1.3549-.1462-.145h-5.9304l-8.74719-7.7054-.0086-.0076-.00895-.0072c-.43072-.3456-.49966-.975-.15399-1.4058.34568-.4307.97508-.4996,1.40581-.1539l.01298.0104.01364.0095,7.1034,4.9622.0002-.0003c.4725.4914,1.1492.7981,1.9939.7981h3v-1h-3c-.6144,0-1.0384-.2254-1.3139-.5354-.2836-.3191-.4362-.7587-.4362-1.2146,0-.456.1526-.8956.4362-1.2147.2755-.3099.6995-.5353,1.3139-.5353h3.155z"/></svg>