<svg width="24" height="24" xmlns="http://www.w3.org/2000/svg"><path fill-rule="evenodd" clip-rule="evenodd" d="m22.5,0h-21C.675,0,0,.675,0,1.5v21c0,.825.675,1.5,1.5,1.5h21c.825,0,1.5-.675,1.5-1.5v-21c0-.825-.675-1.5-1.5-1.5z" fill="#2d327d"/><path fill-rule="evenodd" clip-rule="evenodd" d="m7.42502,11.7826c.03-1.11.3075-2.04004.825-2.79004.84-1.2075,2.09248-1.8075,3.77248-1.8075,1.29,0,2.3325.33,3.1275.99.855.71251,1.2825,1.635,1.2825,2.76754,0,.675-.165,1.26-.5025,1.7475s-.7875.8175-1.3575.99c.7275.165,1.2975.5325,1.7175,1.11.42.57.63,1.2675.63,2.0775,0,1.335-.495,2.43-1.4775,3.2775-.9075.7875-2.0625,1.185-3.45,1.185-1.5075,0-2.69998-.435-3.58498-1.305s-1.3275-2.04-1.3275-3.5175c0-.03,0-.09,0-.1725h2.595c0,.8325.195,1.47.59248,1.9275.39.45.9525.675,1.6725.675s1.275-.21,1.6575-.6375c.36-.3975.5325-.8775.5325-1.4325,0-.6675-.225-1.1925-.6825-1.575-.375-.3225-.9525-.48-1.7325-.48-.225,0-.4425.015-.6525.0375v-1.9875c.1575.015.315.015.465.015,1.5525,0,2.325-.5775,2.325-1.725,0-.5025-.1725-.915-.51-1.22254-.3375-.3075-.7875-.465-1.335-.465-.63,0-1.125.195-1.47.59254-.345.3975-.5325.9675-.55498,1.725h-2.5575z" fill="#fff"/><path fill-rule="evenodd" clip-rule="evenodd" d="m3,3h1.0125c.2175,0,.3825.03.4875.0825.0975.0525.18.1275.225.225.045.0825.0675.1725.0675.2625,0,.105-.0225.195-.075.2775s-.1275.1425-.225.1875c.0825.03.15.06.195.09.1425.105.2175.2625.2175.465,0,.12-.03.2325-.0825.3225s-.1275.1725-.2325.2325c-.12.0675-.2775.105-.48.105H3V3zm.495.3825v.525h.45c.105,0,.18-.015.2325-.0375.09-.045.135-.12.135-.225,0-.09-.03-.15749-.0825-.195-.0525-.03749-.15-.06-.285-.06-.0075-.0075-.45-.0075-.45-.0075zm0,1.4775v-.615h.465c.135,0,.225.015.285.0375.105.045.1575.135.1575.27,0,.1125-.0375.195-.1125.2475-.06.0375-.1575.06-.3.06h-.495z" fill="#fff"/><path fill-rule="evenodd" clip-rule="evenodd" d="m5.64001,3.405V3h-.4425v.405h.4425zm0,1.845V3.57h-.4425v1.68h.4425z" fill="#fff"/><path fill-rule="evenodd" clip-rule="evenodd" d="m6.41999,3.56996v.2325c.0525-.075.0975-.1275.1425-.1575.1125-.08249.2475-.1275.3975-.1275.135,0,.255.0375.3525.105.075.0525.1275.1275.1575.21s.045.2025.045.36v1.0575h-.4425v-.96c0-.105-.0075-.1875-.03-.24-.015-.045-.045-.0825-.09-.105-.045-.03-.105-.045-.165-.045-.0675,0-.1275.015-.1875.0525s-.0975.075-.12.13501c-.03.05999-.045.16499-.045.3v.86249h-.4425v-1.68h.4275z" fill="#fff"/><path fill-rule="evenodd" clip-rule="evenodd" d="m8.92497,5.25004h.4575c-.03-.0675-.045-.1125-.0525-.1725s-.0075-.15-.0075-.27v-.345c.0075-.2025.0075-.315.0075-.3375,0-.1275-.015-.2175-.03-.27s-.0525-.105-.1125-.1575c-.1275-.105-.315-.1575-.5775-.1575-.2325,0-.4125.045-.54.1425-.1275.09-.195.2325-.21.42h.42c.015-.0975.0525-.1575.0975-.195s.12-.0525.225-.0525c.195,0,.2925.0675.2925.2175,0,.0675-.0225.1125-.0675.135s-.15.045-.33.0675c-.21.03-.3525.06-.4275.09-.1875.0825-.285.225-.285.435,0,.165.0525.2925.165.3825.0975.0825.2325.12.405.12.2175,0,.3975-.075.54-.2175,0,.045.0075.0975.03.165zm-.3525-.7275c.15-.015.255-.045.315-.0825v.18c0,.0525,0,.105-.015.135-.00243.00487-.00487.00993-.00737.01513-.01289.02684-.0275.05724-.05263.08237-.075.09-.18.13501-.315.13501-.0825,0-.1425-.02251-.1875-.06001s-.0675-.0975-.0675-.16499c0-.08251.03-.14251.0975-.18001.0525-.0225.1275-.045.2325-.06z" fill="#fff"/><path fill-rule="evenodd" clip-rule="evenodd" d="m10.7175,3.53997v.435c-.075-.015-.1275-.0225-.1725-.0225-.165,0-.285.0675-.3675.21001-.045.075-.0675.20999-.0675.38999v.6975h-.44252v-1.68h.42752v.3075c.12-.225.3-.345.525-.345.0225,0,.06.0075.0975.0075z" fill="#fff"/><path fill-rule="evenodd" clip-rule="evenodd" d="m11.37,3.405V3h-.4425v.405h.4425zm0,1.845V3.57h-.4425v1.68h.4425z" fill="#fff"/><path fill-rule="evenodd" clip-rule="evenodd" d="m13.1325,3.76502c-.1575-.1575-.3525-.24-.6-.24-.27,0-.4875.09-.645.2625-.1425.165-.2175.3675-.2175.6225s.075.465.225.63c.15.17251.36.255.6225.255.2475,0,.45-.08249.6-.23249.165-.16501.2475-.38251.2475-.66001,0-.2625-.0825-.48-.2325-.6375zm-.9075.24751c.075-.09751.165-.14251.285-.14251.1275,0,.2325.0525.2925.15001.0675.08999.105.225.105.39,0,.18-.0375.31499-.1125.4125-.0675.0825-.165.1275-.2775.1275-.12,0-.2175-.05251-.2925-.14251-.0675-.09-.105-.225-.105-.3975,0-.17249.0375-.3.105-.39749z" fill="#fff"/></svg>