<svg width="24" height="24" xmlns="http://www.w3.org/2000/svg"><path fill-rule="evenodd" clip-rule="evenodd" d="m22.5,0h-21C.675,0,0,.675,0,1.5v21c0,.825.675,1.5,1.5,1.5h21c.825,0,1.5-.675,1.5-1.5v-21c0-.825-.675-1.5-1.5-1.5z" fill="#2d327d"/><path fill-rule="evenodd" clip-rule="evenodd" d="m9.48751,13.7551c-.63-.2175-1.11001-.57-1.4475-1.0575-.3375-.495-.5025-1.0875-.5025-1.7925,0-1.17004.48-2.10004,1.44-2.79754.8475-.615,1.85999-.9225,3.02999-.9225,1.3275,0,2.415.3675,3.255,1.095.8025.69,1.2,1.5375,1.2,2.55754,0,.705-.1725,1.3125-.51,1.815s-.8175.87-1.44,1.095c.4875.1425.885.3225,1.1925.5475.855.6225,1.2825,1.53,1.2825,2.7225,0,1.3725-.525,2.4675-1.575,3.2775-.885.6825-2.025,1.0275-3.4125,1.0275-1.5075,0-2.7075-.375-3.6-1.125-.92999-.78-1.395-1.8075-1.395-3.075,0-1.185.4125-2.1075,1.2375-2.76.375-.285.7875-.4875,1.24501-.6075zm2.45999,1.0125c-.6675,0-1.2075.2025-1.6275.615s-.62999.93-.62999,1.575c0,.66.21,1.1925.64499,1.605.4275.4125.9825.615,1.665.615.7725,0,1.3575-.225,1.7475-.6825.375-.435.5625-.945.5625-1.515,0-.6525-.2175-1.185-.645-1.605-.42-.3975-.99-.6075-1.7175-.6075zm-1.41-4.99504c.3675-.33.84-.495,1.4325-.495.6375,0,1.125.1575,1.485.4725.36.31504.54.75004.54,1.31254,0,.57-.1725,1.0275-.5325,1.3575-.3525.33-.84.495-1.455.495s-1.1025-.165-1.47-.5025-.54749-.78-.54749-1.3425c0-.5325.18749-.9675.54749-1.29754z" fill="#fff"/><path fill-rule="evenodd" clip-rule="evenodd" d="m5.03249,3-.75,2.25h-.555L2.99249,3h.51l.5025,1.68751L4.51499,3h.5175z" fill="#fff"/><path fill-rule="evenodd" clip-rule="evenodd" d="m6.47251,3.76502c-.1575-.1575-.3525-.24-.6-.24-.27,0-.4875.09-.645.2625-.1425.165-.2175.3675-.2175.6225s.075.465.225.63c.15.17251.36.255.6225.255.2475,0,.45-.08249.6-.23249.165-.16501.2475-.38251.2475-.66001,0-.2625-.0825-.48-.2325-.6375zm-.9075.24751c.075-.09751.165-.14251.285-.14251.1275,0,.2325.0525.2925.15001.0675.08999.105.225.105.39,0,.18-.0375.31499-.1125.4125-.0675.0825-.165.1275-.2775.1275-.12,0-.2175-.05251-.2925-.14251-.0675-.09-.105-.225-.105-.3975,0-.17249.0375-.3.105-.39749z" fill="#fff"/><path fill-rule="evenodd" clip-rule="evenodd" d="m7.4475,3.405V3H7.005v.405h.4425zm0,1.845V3.57H7.005v1.68h.4425z" fill="#fff"/><path fill-rule="evenodd" clip-rule="evenodd" d="m9.19498,4.98747c.06-.08251.105-.16501.1275-.26251h-.435c-.03.075-.075.135-.1275.1725s-.12.0525-.2025.0525c-.1725,0-.285-.0675-.345-.2175-.0225-.0525-.03-.12-.0375-.2025h1.1775c0-.2025-.015-.3675-.0675-.495s-.12-.24-.225-.33c-.1425-.1275-.315-.1875-.5175-.1875-.2475,0-.45.09-.6075.2775-.1425.165-.21.36751-.21.615,0,.12.015.2475.06.36.045.105.0975.2025.1725.2775.15.1575.3525.24001.6.24001.2775,0,.4875-.09752.6375-.3zm-.30073-.76501c.00026.00248.0005.00498.00073.0075v-.0075h-.00073zm0,0c-.00815-.0791-.02996-.1441-.05177-.195-.03-.0525-.0675-.0975-.12-.1275-.05251-.03-.1125-.045-.1725-.045-.0975,0-.18.03-.2475.0975-.06751.0675-.105.1575-.1125.27h.70427z" fill="#fff"/></svg>