<svg width="29" height="16" xmlns="http://www.w3.org/2000/svg"><path fill-rule="evenodd" clip-rule="evenodd" d="m10.9422,2.997c1.46,0,2.801.301,3.881,1.001l.7-2.421c-1.461-.56-3.1-.780003-4.661-.780003C5.82122.796997,2.48022,3.937,2.48022,9.039c0,4.32,2.74,6.201,6.842,6.201,1.35898,0,2.91998-.28,3.73998-.62l1.601-7.622H9.00222l-.46,2.201h2.95998l-.781,3.7c-.319.141-.73998.141-1.37898.141-2.381,0-3.941-1.821-3.941-4.081,0-3.301,2.14-5.962,5.54098-5.962zm10.4587,4.00101h-1.02l.78-3.761h1.16c1.14,0,2.401,0,2.401,1.461,0,1.84-1.82,2.3-3.321,2.3zm.68-5.961h-3.301L15.8599,15h2.8l1.221-5.80099h1.06c1.2902,0,1.4276.74923,1.6354,1.88139.037.2018.0762.4156.1246.6396l.68,3.28h2.941l-1.34-5.62099c-.18-.761-.661-1.24-1.42-1.28v-.04c2.28-.04,4.08-1.321,4.08-3.721,0-3.302-2.9118-3.30147-5.4705-3.30101-.0302,0-.0604.00001-.0905.00001z"/></svg>