<svg width="59" height="20" xmlns="http://www.w3.org/2000/svg"><path fill-rule="evenodd" clip-rule="evenodd" d="m2,0C.89543,0,0,.895431,0,2v16c0,1.1046.895431,2,2,2h55c1.1046,0,2-.8954,2-2V2c0-1.104569-.8954-2-2-2H2z" fill="#eb0000"/><path fill-rule="evenodd" clip-rule="evenodd" d="m23.1928,6.66014c-.2119-.12753-.4302-.24397-.654-.34887-.2933-.12336-.5948-.22606-.9023-.30733-.5141-.12878-1.0432-.18745-1.5729-.17444-1.3687,0-2.489.45408-3.361,1.36225-.872.90816-1.308,2.06551-1.308,3.47205,0,1.0965.3091,1.9548.9272,2.575s1.4791.9303,2.5828.9303c.3025.0136.6051-.0257.8941-.1163l.6457-3.0733H17.994l.3808-1.82745h4.6855l-1.3245,6.32945c-.2208.0775-.4194.1412-.596.1911-.1766.0498-.4747.1162-.8941.1993-.5523.0937-1.1122.1354-1.6722.1246-1.8212,0-3.2092-.4458-4.164-1.3373-.9548-.8916-1.4321-2.1791-1.4321-3.8625,0-2.08212.6319-3.73509,1.8957-4.95888,1.2638-1.2238,2.9664-1.8357,5.1077-1.83571.6549-.0035,1.3087.0521,1.9537.16613.6235.11506,1.2378.27609,1.8378.48177l-.5795,2.01013zM4.58315,4.20145h8.92405l-.3808,1.8274H9.86471L7.76202,15.7971H5.34475l2.10269-9.76824H4.18579l.39736-1.82741zm23.12955,0h-2.3179L26.918,15.7971h2.765l6.4571-11.59565h-2.5166l-4.8346,9.02075-1.0762-9.02075z" fill="#fff"/></svg>