<svg width="24" height="24" xmlns="http://www.w3.org/2000/svg"><path fill-rule="evenodd" clip-rule="evenodd" d="m22.5,0h-21C.675,0,0,.675,0,1.5v21c0,.825.675,1.5,1.5,1.5h21c.825,0,1.5-.675,1.5-1.5v-21c0-.825-.675-1.5-1.5-1.5z" fill="#2d327d"/><path fill-rule="evenodd" clip-rule="evenodd" d="m21,8.25h-.75c-.21,0-.375.165-.375.375v1.5c0,.2025.165.375.375.375H21v2.25h-.75c-.21,0-.375.1725-.375.375v1.5c0,.21.165.375.375.375H21v4.575c-.3675,0-.7425-.0375-1.11-.1125l-2.52-.5325c-.2925-.0375-.5775-.06-.87-.0675-.2925.0075-.5775.03-.87.0675l-2.52.5325c-.3675.075-.735.1125-1.11.1125s-.7425-.0375-1.11-.1125L8.37,18.93c-.2925-.0375-.5775-.06-.87-.0675-.2925.0075-.585.03-.87.0675l-1.605.3375L2.775,15h9.0375l.375-2.25H10.875V10.5h4.6125l.375-2.25h-.525c-.21,0-.375-.165-.375-.375s.165-.375.375-.375H21v.75zM15.15,15c.21,0,.375-.1725.375-.375v-1.5c0-.21-.1725-.375-.375-.375h-1.965c-.18,0-.3375.135-.3675.315l-.2475,1.5c-.0075.0225-.0075.0375-.0075.06,0,.2025.165.375.375.375H15.15zm4.05-.375c0,.2025-.165.375-.375.375h-2.25c-.21,0-.375-.1725-.375-.375v-1.5c0-.2025.165-.375.375-.375h2.25c.21,0,.375.165.375.375v1.5zm-.375-4.125c.21,0,.375-.165.375-.375v-1.5c0-.21-.165-.375-.375-.375H16.86c-.18,0-.3375.135-.3675.315l-.2475,1.5c-.0075.0225-.0075.0375-.0075.06,0,.2025.1725.375.375.375h2.2125z" fill="#fff"/><path fill-rule="evenodd" clip-rule="evenodd" d="m17.25,19.635c-.2475-.03-.5025-.0525-.75-.0525-.2475.0075-.5025.0225-.75.0525l-2.49.525c-.4125.09-.8325.1275-1.26.1275-.42,0-.84-.045-1.26-.1275l-2.49-.525c-.2475-.03-.5025-.0525-.75-.0525-.2475.0075-.5025.0225-.75.0525l-2.49.525c-.4125.09-.8325.1275-1.26.1275V21c.4725,0,.9375-.045,1.4025-.1425l2.46-.5175c.21-.0225.42-.0375.63-.045.21.0075.42.0225.63.045l2.46.5175c.465.0975.93.1425,1.4025.1425s.945-.045,1.4025-.1425l2.46-.5175c.21-.0225.42-.0375.63-.045.21.0075.42.0225.63.045l2.46.5175c.465.0975.93.1425,1.4025.1425v-.7125c-.42,0-.8475-.045-1.26-.1275l-2.46-.525z" fill="#fff"/></svg>