<svg width="24" height="24" xmlns="http://www.w3.org/2000/svg"><path fill-rule="evenodd" clip-rule="evenodd" d="m22.5,0h-21C.675,0,0,.675,0,1.5v21c0,.825.675,1.5,1.5,1.5h21c.825,0,1.5-.675,1.5-1.5v-21c0-.825-.675-1.5-1.5-1.5z" fill="#2d327d"/><path fill-rule="evenodd" clip-rule="evenodd" d="m20.625,17.145c.21,0,.375-.165.375-.375V8.01752c0-.375-.255-.705-.6225-.8025l-16.35-4.17c-.0675-.015-.135-.0225-.2025-.0225-.4575,0-.825.3675-.825.825v8.60998c0,.1725.12.3225.285.3675l17.25,4.3125c.015,0,.03.0019.045.0038.015.0018.03.0037.045.0037zM7.3125,5.02502v4.5c0,.21-.165.375-.375.375H4.125c-.21,0-.375-.165-.375-.375v-4.5c0-.21.165-.375.375-.375h2.8125c.21,0,.375.165.375.375zm4.3125,5.60248V6.12752c0-.21-.165-.375-.375-.375H8.4375c-.21,0-.375.165-.375.375v4.49998c0,.21.165.375.375.375H11.25c.21,0,.375-.165.375-.375zm4.3125-3.40498v4.49998c0,.21-.165.375-.375.375H12.75c-.21,0-.375-.165-.375-.375V7.22252c0-.21.165-.375.375-.375h2.8125c.21,0,.375.1725.375.375zM20.25,12.825V8.32502c0-.21-.165-.375-.375-.375h-2.8125c-.21,0-.375.165-.375.375V12.825c0,.21.165.375.375.375h2.8125c.21,0,.375-.165.375-.375z" fill="#fff"/><path fill-rule="evenodd" clip-rule="evenodd" d="m3,15.7275,18,4.5V21L3,16.5v-.7725z" fill="#fff"/><path fill-rule="evenodd" clip-rule="evenodd" d="m16.8225,17.4c0,.6-.4875,1.0875-1.0875,1.0875S14.6475,18,14.6475,17.4s.4875-1.0875,1.0875-1.0875,1.0875.4875,1.0875,1.0875z" fill="#fff"/><path fill-rule="evenodd" clip-rule="evenodd" d="m19.53,18.135c0,.6-.4875,1.0875-1.0875,1.0875s-1.0875-.4875-1.0875-1.0875.4875-1.0875,1.0875-1.0875,1.0875.48,1.0875,1.0875z" fill="#fff"/><path fill-rule="evenodd" clip-rule="evenodd" d="m9.3825,15.54c0,.6-.4875,1.0875-1.0875,1.0875S7.2075,16.14,7.2075,15.54s.4875-1.0875,1.0875-1.0875,1.0875.4875,1.0875,1.0875z" fill="#fff"/><path fill-rule="evenodd" clip-rule="evenodd" d="m6.6225,14.8575c0,.6-.4875,1.0875-1.0875,1.0875s-1.0875-.4875-1.0875-1.0875S4.935,13.77,5.535,13.77c.6.0075,1.0875.4875,1.0875,1.0875z" fill="#fff"/></svg>