<svg width="24" height="24" xmlns="http://www.w3.org/2000/svg"><path fill-rule="evenodd" clip-rule="evenodd" d="m22.5,0h-21C.675,0,0,.675,0,1.5v21c0,.825.675,1.5,1.5,1.5h21c.825,0,1.5-.675,1.5-1.5v-21c0-.825-.675-1.5-1.5-1.5z" fill="#2d327d"/><path fill-rule="evenodd" clip-rule="evenodd" d="m5.25,18.5325c0-.7725-.63-1.41-1.41-1.41-.3075,0-.6.0975-.8475.285v2.25c.24.18.54.285.8475.285.78,0,1.41-.63,1.41-1.41z" fill="#fff"/><path fill-rule="evenodd" clip-rule="evenodd" d="m20.67,10.1325-2.25-2.24999c-.21-.21001-.495-.33-.795-.33h-6.4875c-.3,0-.585.12-.795.33L7.7325,10.5l-4.3875.3675c-.195.015-.345.18-.345.375v2.3325c0,.21.165.375.375.375h.4125v-.4275c0-1.245,1.005-2.25,2.25-2.25s2.25,1.005,2.25,2.25v.4275H15.75v-.4275c0-1.245,1.005-2.25,2.25-2.25s2.25,1.005,2.25,2.25v.4275h.375c.21,0,.375-.165.375-.375v-2.64c0-.3-.12-.585-.33-.8025zm-6.7575.0525c0,.21-.165.375-.375.375h-4.26c-.1275,0-.225-.0975-.225-.225,0-.06.0225-.12.0675-.1575l1.7925-1.7925c.0675-.06749.165-.1125.2625-.1125h2.3625c.21,0,.375.165.375.375v1.5375zM15,10.56h4.485c.1275,0,.225-.105.225-.225,0-.06-.0225-.1125-.0675-.1575L17.85,8.385c-.0675-.07499-.165-.1125-.2625-.1125H15c-.21,0-.375.165-.375.375v1.5375c0,.21.165.375.375.375z" fill="#fff"/><path fill-rule="evenodd" clip-rule="evenodd" d="m3,15.6h18v1.1625H3V15.6z" fill="#fff"/><path fill-rule="evenodd" clip-rule="evenodd" d="m3,20.2875h18V21H3v-.7125z" fill="#fff"/><path fill-rule="evenodd" clip-rule="evenodd" d="m8.8125,18.525c0-.78-.63-1.41-1.4025-1.41-.78,0-1.41.63-1.41,1.41s.63,1.41,1.41,1.41c.7725,0,1.4025-.63,1.4025-1.41z" fill="#fff"/><path fill-rule="evenodd" clip-rule="evenodd" d="m16.08,18.525c0-.78-.63-1.41-1.4025-1.41s-1.41.63-1.41,1.41.63,1.41,1.41,1.41c.7725,0,1.4025-.63,1.4025-1.41z" fill="#fff"/><path fill-rule="evenodd" clip-rule="evenodd" d="m19.6875,18.525c0-.78-.63-1.41-1.4025-1.41s-1.4025.63-1.4025,1.41.63,1.41,1.4025,1.41,1.4025-.63,1.4025-1.41z" fill="#fff"/><path fill-rule="evenodd" clip-rule="evenodd" d="m18.0075,11.7975c.9375,0,1.7025.765,1.7025,1.71s-.765,1.71-1.7025,1.7025c-.945,0-1.71-.7575-1.71-1.7025s.765-1.71,1.71-1.71zM18,12.57c-.5175,0-.9375.42-.9375.9375s.42.9375.9375.9375.9375-.42.9375-.9375-.42-.9375-.9375-.9375z" fill="#fff"/><path fill-rule="evenodd" clip-rule="evenodd" d="m6.045,11.7975c.945,0,1.71.765,1.71,1.71s-.765,1.71-1.71,1.7025c-.9375,0-1.7025-.7575-1.7025-1.7025s.7575-1.71,1.7025-1.71zm.0075.7725c-.5175,0-.9375.42-.9375.9375s.42.9375.9375.9375.9375-.42.9375-.9375-.42-.9375-.9375-.9375z" fill="#fff"/></svg>