<svg width="24" height="24" xmlns="http://www.w3.org/2000/svg"><path fill-rule="evenodd" clip-rule="evenodd" d="m22.5,0h-21C.675,0,0,.675,0,1.5v21c0,.825.675,1.5,1.5,1.5h21c.825,0,1.5-.675,1.5-1.5v-21c0-.825-.675-1.5-1.5-1.5z" fill="#2d327d"/><path fill-rule="evenodd" clip-rule="evenodd" d="m3,3v.375L21,4.95v-.375L3,3z" fill="#fff"/><path fill-rule="evenodd" clip-rule="evenodd" d="m11.31,17.82-3.7725-.33c.24.8775,1.0425,1.4775,1.95,1.4775.7725,0,1.485-.4425,1.8225-1.1475z" fill="#fff"/><path fill-rule="evenodd" clip-rule="evenodd" d="m11.6325,4.44751,3.9375,2.7525-2.3475,1.2975,7.77.6825v.675l-3.7875-.33h-.03c-.195,0-.36.15-.375.345l-.2625,2.99249v.03c0,.195.15.36.345.375l4.1175.36v4.29l-17.715-1.56c-.195-.015-.345-.18-.345-.375v-.03l.6375-7.31999c.045-.5025.4725-.8925.975-.8925.015,0,.02813.00187.04125.00375.01313.00187.02625.00375.04125.00375l4.71.4125-2.07-1.6875,4.3575-2.025zm-5.325,7.51499L6.57,8.97001v-.03c0-.195-.15-.36-.345-.375l-1.605-.1425h-.03c-.195,0-.36.15-.375.345L3.9525,11.76v.03c0,.195.15.36.345.375l1.605.1425h.03c.195,0,.36-.15.375-.345zM8.385,9.24001,8.01,13.5c-.0225.2925-.27.51-.5625.51-.3075,0-.5625-.255-.5625-.5625v-.0525l.375-4.25999c.0225-.2925.27-.51.5625-.51.3075,0,.5625.255.5625.5625.0075.0225.0075.0375,0,.0525zM9.81,13.6575l.375-4.25999v-.0525c0-.3075-.255-.5625-.5625-.5625-.2925,0-.54.2175-.5625.51l-.375,4.25999v.0525c0,.3075.255.5625.5625.5625.2925,0,.54-.2175.5625-.51zM8.535,6.63001l3.03-1.41,2.7375,1.9125-2.265,1.26-1.485-.1275-2.0175-1.635zm7.5975,3.15c0-.195-.15-.36-.345-.375l-4.5225-.405h-.03c-.195,0-.36.15-.375.345l-.2625,2.99249v.03c0,.195.15.36.345.375l4.5225.3975h.03c.195,0,.36-.15.375-.345l.2625-2.98499v-.03z" fill="#fff"/><path fill-rule="evenodd" clip-rule="evenodd" d="m15.7875,18.21-3.7725-.33c.24.8775,1.0425,1.4775,1.95,1.4775.78,0,1.4925-.4425,1.8225-1.1475z" fill="#fff"/><path fill-rule="evenodd" clip-rule="evenodd" d="m3,19.425L21,21v-.6375l-18-1.575v.6375z" fill="#fff"/></svg>