<svg width="24" height="24" xmlns="http://www.w3.org/2000/svg"><path fill-rule="evenodd" clip-rule="evenodd" d="m22.5,0h-21C.675,0,0,.675,0,1.5v21c0,.825.675,1.5,1.5,1.5h21c.825,0,1.5-.675,1.5-1.5v-21c0-.825-.675-1.5-1.5-1.5z" fill="#2d327d"/><path fill-rule="evenodd" clip-rule="evenodd" d="m8.775,5.43749,6.465-1.1325c.33-.06.5775-.345.5775-.6825,0-.3825-.3075-.6975-.69-.6975-.0375,0-.0825,0-.12.0075l-6.465,1.1325c-.33.06-.5775.345-.5775.6825,0,.3825.3075.69.69.69.045.0075.0825.0075.12,0z" fill="#fff"/><path fill-rule="evenodd" clip-rule="evenodd" d="m3,7.51499,18-3.15v-.69L3,6.83249v.6825z" fill="#fff"/><path fill-rule="evenodd" clip-rule="evenodd" d="m16.5375,11.25H20.25c.4125,0,.75.3375.75.75v8.25c0,.4125-.3375.75-.75.75H3.75c-.4125,0-.75-.3375-.75-.75V12c0-.4125.3375-.75.75-.75h3.7125l2.37-4.55999,1.305-.225-2.49,4.77749H15.39l-2.6775-5.05499,1.05-.18,2.775,5.24249zm-8.16,5.25c.21,0,.375-.165.375-.375v-3.75c0-.21-.165-.375-.375-.375H4.125c-.21,0-.375.165-.375.375v3.75c0,.21.165.375.375.375h4.2525zm6.12-.375c0,.21-.165.375-.375.375H9.87c-.21,0-.375-.165-.375-.375v-3.75c0-.21.165-.375.375-.375h4.2525c.21,0,.375.165.375.375v3.75zM19.875,16.5c.21,0,.375-.165.375-.375v-3.75c0-.21-.165-.375-.375-.375h-4.2525c-.21,0-.375.165-.375.375v3.75c0,.21.165.375.375.375h4.2525z" fill="#fff"/></svg>