<svg width="24" height="24" xmlns="http://www.w3.org/2000/svg"><path fill-rule="evenodd" clip-rule="evenodd" d="m22.5,0h-21C.675,0,0,.675,0,1.5v21c0,.825.675,1.5,1.5,1.5h21c.825,0,1.5-.675,1.5-1.5v-21c0-.825-.675-1.5-1.5-1.5z" fill="#2d327d"/><path fill-rule="evenodd" clip-rule="evenodd" d="m13.5825,4.18503c.0675-.0675.105-.15.105-.2475,0-.195-.1575-.345-.345-.345-.09,0-.18.0375-.2475.105L9.21,7.57503H6.12c-.555,0-1.0425.36-1.2.8925L3.03,14.67c-.015.06-.0225.1125-.0225.1725V17.55c0,.21.165.375.375.375h17.625V13.5H17.37c-.21,0-.375-.165-.375-.375V8.62503c0-.21.165-.375.375-.375H21v-.675H10.1925l3.39-3.39zM6.75,14.625c0,.21-.165.375-.375.375H4.1625c-.21,0-.375-.165-.375-.375,0-.0375.0075-.075.015-.1125l1.815-5.93997c.075-.24.2925-.3975.54-.3975h.0375c.3075,0,.5625.255.5625.5625L6.75,14.625zm1.26.45c.3075,0,.5625-.255.5625-.5625V8.73753c0-.3075-.255-.5625-.5625-.5625s-.5625.255-.5625.5625v5.77497c0,.3075.255.5625.5625.5625zm3.0525-6.44997c0-.21.165-.375.375-.375h4.5c.21,0,.375.165.375.375V13.125c0,.21-.165.375-.375.375h-4.5c-.21,0-.375-.165-.375-.375V8.62503zm-.675,5.88747V8.73753c0-.3075-.2475-.5625-.5625-.5625-.3075,0-.5625.255-.5625.5625v5.77497c0,.3075.255.5625.5625.5625s.5625-.255.5625-.5625z" fill="#fff"/><path fill-rule="evenodd" clip-rule="evenodd" d="m11.655,18.675h-3.78c.3075.7725,1.0575,1.2751,1.89,1.2751s1.575-.5026,1.89-1.2751z" fill="#fff"/><path fill-rule="evenodd" clip-rule="evenodd" d="m16.155,18.675h-3.78c.3075.7725,1.0575,1.2751,1.89,1.2751s1.575-.5026,1.89-1.2751z" fill="#fff"/><path fill-rule="evenodd" clip-rule="evenodd" d="m3,20.325h18V21H3v-.675z" fill="#fff"/><path fill-rule="evenodd" clip-rule="evenodd" d="m3,3.00001h18v.3375H3v-.3375z" fill="#fff"/></svg>