<svg width="24" height="24" xmlns="http://www.w3.org/2000/svg"><path fill-rule="evenodd" clip-rule="evenodd" d="m5.5,4H5v4H4v1h1v3H4v1h1v3H4v1h1v3h14V4H5.5zM6,17v2h12V5H6v3h1v1H6v3h1v1H6v3h1v1H6zm6-8.9997c-.449,0-1,.51072-1,1.5,0,.4668.1359.8582.3317,1.1207.1934.2593.4301.3793.6683.3793.4517,0,1-.5043,1-1.49,0-.46753-.136-.86206-.3326-1.12731-.1944-.26233-.4312-.38269-.6674-.38269zm-2,1.5c0-1.25072.747-2.5,2-2.5.6148,0,1.128.32464,1.4708.78731C13.8115,8.24736,14,8.85782,14,9.5103c0,.37775-.068.7538-.1972,1.095,1.3431.9242,2.1977,2.8062,2.1977,4.8951v.5H8.00049v-.5c0-2.0889.8531-3.97,2.19621-4.8944C10.0682,10.2687,10,9.8924,10,9.5003zm.7317,1.9527c-.89041.635-1.59162,1.9276-1.71269,3.5474h5.96289c-.121-1.6164-.8207-2.908-1.7087-3.5444-.3278.3345-.758.5443-1.2732.5443-.5026,0-.9382-.2155-1.2683-.5473z"/></svg>