<svg width="24" height="24" xmlns="http://www.w3.org/2000/svg"><path fill-rule="evenodd" clip-rule="evenodd" d="m4,12.0002c0-4.47078,3.5301-7.99996,8-7.99996s8,3.52918,8,7.99996c0,4.4699-3.5301,8-8,8-4.46986,0-8-3.5301-8-8zm8-8.99996c-5.0221,0-9,3.97682-9,8.99996,0,5.0222,3.97786,9,9,9,5.0221,0,9-3.9778,9-9,0-5.02314-3.9779-8.99996-9-8.99996zM9,8c-.55214,0-1,.44786-1,1s.44786,1,1,1,1-.44786,1-1-.44786-1-1-1zm5,1c0-.55214.4479-1,1-1s1,.44786,1,1-.4479,1-1,1-1-.44786-1-1zm-7,3.0002h-.5v.5c0,3.0682,2.43186,5.5,5.5,5.5,3.0681,0,5.5-2.4318,5.5-5.5v-.5H7zm5,5c-2.34664,0-4.23068-1.7262-4.47351-4h8.94701c-.2428,2.2738-2.1269,4-4.4735,4z"/></svg>