<svg width="36" height="36" xmlns="http://www.w3.org/2000/svg"><path fill-rule="evenodd" clip-rule="evenodd" d="m13.8536,5.64555L13.5,5.29199l-.3535.35356L2.64648,16.1455l.70711.7072,1.39645-1.3965v12.7929H11.735v-6h3.5v6h7.015v-4.5H24c.672,0,1.075.1655,1.3187.4109.2457.2475.4149.662.4313,1.345v1.4951l.0001.0334c.0005.3761.0014,1.0167.2242,1.5699.1197.2971.3115.5925.6189.8112.3099.2205.6971.3345,1.1568.3345.4584,0,.8454-.1104,1.1561-.3267.3092-.2152.5028-.5076.6236-.8045.2265-.5571.2227-1.2072.2205-1.5986l-.0002-.0215v-4.7842c1.6956-.2428,3-1.7021,3-3.4645v-2h-1.5v-3.25h-1v3.25h-2v-3.25h-1v3.25h-1.5v2c0,1.7624,1.3045,3.2217,3,3.4645v4.7883c.0024.4259-.0031.8861-.1467,1.2393-.0666.1638-.1546.2812-.2686.3605-.1125.0783-.29.1474-.5847.1474-.2902,0-.4653-.0697-.5771-.1493-.1142-.0813-.2034-.2021-.271-.37-.145-.36-.1511-.8221-.1519-1.2314v-1.4993h.0002l-.0003-.0114c-.0188-.8243-.2259-1.5331-.7216-2.0323-.4985-.5021-1.2032-.7063-2.0283-.7063h-1.75v-7.2929l1.3965,1.3965.7071-.7072-10.5-10.49995zM21.25,14.4562,13.5,6.70621,5.75004,14.4562v12.7929H10.735v-6h5.5v6h5.015V14.4562zm5.5,4.2929v-1h5v1c0,1.3799-1.1201,2.5-2.5,2.5-1.3798,0-2.5-1.1201-2.5-2.5z"/></svg>