<svg width="24" height="24" xmlns="http://www.w3.org/2000/svg"><path fill-rule="evenodd" clip-rule="evenodd" d="m12.3281,3.00026C7.1465,2.99074,3.00945,7.02886,3,12.0012l-1-.0019c.01055-5.55164,4.6235-10.00952,10.3299-9.99904,3.5297.00646,6.782,1.70021,8.6701,4.52257V4.00024h1v5h-5v-1h3.7075c-1.5578-3.07685-4.7934-4.99342-8.3794-4.99998l.0009-.5-.0009.5zM21,11.9983c-.0199,4.9827-4.126,9.021-9.2902,9.0019-3.51556-.0129-6.79709-1.9854-8.37969-5.0004H7v-1H2v5h1v-2.6057c1.9012,2.8188,5.20275,4.5932,8.7062,4.6061,5.6978.021,10.2717-4.4447,10.2938-9.998l-1-.0039zm-11.86083.3862v.047h-.731l-.363.835h1.169c.392,2.511,1.60203,3.766,3.63003,3.766.861,0,1.627-.166,2.296-.498.047-.023.172-.093.377-.209v-1.341c-.73.395-1.244.646-1.545.755-.3.107-.644.161-1.032.161-.469,0-.873-.108-1.21-.323-.324-.207-.602-.545-.834-1.017-.192-.4-.328-.831-.41-1.294h3.199l.375-.835h-3.67l-.0001-.0028c-.004-.1286-.0069-.2247-.0069-.2872,0-.125.005-.312.014-.559h4.033l.376-.835h-4.293c.041-.256.112-.534.212-.835.401-1.217,1.123-1.825,2.167-1.825.569,0,1.127.155,1.674.465.225.13.541.33.951.599l.485-1.091c-.924-.714-1.955-1.071-3.09-1.071-1.608,0-2.716.828-3.32203,2.485-.146.395-.257.82-.335,1.273h-.847l-.363.835h1.115l-.007.048c-.01.251-.014.41-.014.478v.276z"/></svg>