<svg width="28" height="16" xmlns="http://www.w3.org/2000/svg"><path fill-rule="evenodd" clip-rule="evenodd" d="m22.3815,3.13334c1.5,0,2.56.36929,3.201.7948l.699-2.26807c-1.22-.4856-2.7-.66007-4.1-.66007-4.941,0-8.002,3.21891-8.002,7.58156,0,3.66474,2.02,6.41844,6.242,6.41844,1.059,0,2.14-.0979,3.16-.3683l.44-2.5986c-.8.4652-1.76.8345-2.94.8345-2.461,0-3.981-2.017-3.981-4.28604,0-3.17918,2.18-5.44822,5.281-5.44822zM6.541,7.01097h-1.02l.78-3.64539h1.16c1.14,0,2.401,0,2.401,1.41609,0,1.78344-1.82,2.2293-3.321,2.2293zm.68-5.77774H3.92L1,14.767h2.8l1.221-5.62267h1.06c1.29013,0,1.4276.7262,1.63535,1.82357.03701.1955.07626.4028.12465.6199l.68,3.1792h2.941l-1.34-5.4482c-.18-.73761-.661-1.20189-1.42-1.24066v-.03877c2.28-.03877,4.08-1.28039,4.08-3.60662,0-3.20049-2.91181-3.19998-5.47049-3.19953-.03022,0-.06039.00001-.09051.00001z"/></svg>