<svg width="24" height="24" xmlns="http://www.w3.org/2000/svg"><path fill-rule="evenodd" clip-rule="evenodd" d="m22.5,0h-21C.675,0,0,.675,0,1.5v21c0,.825.675,1.5,1.5,1.5h21c.825,0,1.5-.675,1.5-1.5v-21c0-.825-.675-1.5-1.5-1.5z" fill="#2d327d"/><path fill-rule="evenodd" clip-rule="evenodd" d="m4.035,16.7925c.42,0,.765-.3375.765-.765,0-.42-.345-.765-.765-.765s-.765.345-.765.765c0,.4275.3375.765.765.765z" fill="#fff"/><path fill-rule="evenodd" clip-rule="evenodd" d="m9.5925,16.7925c.42,0,.765-.3375.765-.765,0-.42-.345-.765-.765-.765s-.765.345-.765.765c0,.4275.345.765.765.765z" fill="#fff"/><path fill-rule="evenodd" clip-rule="evenodd" d="m3.9975,8.67746c.42,0,.765-.345.765-.765s-.345-.765-.765-.765-.765.345-.765.765.3375.765.765.765z" fill="#fff"/><path fill-rule="evenodd" clip-rule="evenodd" d="m9.56999,8.67746c.42,0,.76501-.345.76501-.765s-.34501-.765-.76501-.765-.765.345-.765.765.3375.765.765.765z" fill="#fff"/><path fill-rule="evenodd" clip-rule="evenodd" d="m7.845,21.1725.6375.4275L4.9575,3.87746H4.95l-.03-.0975c-.0375-.1125-.0825-.1725-.2025-.375-.1275-.21-.3075-.4125-.5775-.5625-.27-.1575-.6225-.195-.6225-.195s-.15.0975-.09.1275c.06.0375.615.4275.7425.6225s.24.5925.24.5925l.0675-.015-.0675.015,1.515,7.56754-.1575.03-.1875.165-.18.1275-.0975.3375-.075.51-.555.81-.48.09.1725.87,2.0625-.405" fill="#fff"/><path fill-rule="evenodd" clip-rule="evenodd" d="m9.98249,13.41-.1725-.87-.48.0975-.8175-.54-.2625-.45-.2175-.27-.21-.0525-.24-.0825-.1275.0225-1.5075-7.57502s-.0375-.405.0075-.6375.4125-.8025.4575-.8625c.045-.0525-.1275-.0825-.1275-.0825s-.3075.1725-.5025.42-.285.5025-.3225.7425-.06.3075-.045.4275l.0075.1125,3.525,17.72252.4275-.645-1.41-7.0875,2.0175-.39z" fill="#fff"/></svg>