<svg width="24" height="24" viewBox="0,0,24,24" xmlns="http://www.w3.org/2000/svg"><path fill-rule="evenodd" clip-rule="evenodd" d="m5,12.5c0-3.97438,3.09115-7.22661,7-7.48326v7.77196l.25.1443,6.4813,3.7421C17.385,18.6803,15.0965,20,12.5,20,8.35814,20,5,16.6419,5,12.5zm15,0c0,1.1879-.2762,2.3113-.7679,3.3095L13.5,12.5l5.7321-3.30952C19.7238,10.1887,20,11.3121,20,12.5zm-1.2687-4.17508C17.4721,6.44948,15.3887,5.17366,13,5.01641V11.634l5.7313-3.30908zm-6.6745-4.31318C12.2061,4.00312,12.3535,4,12.5,4,17.1941,4,21,7.80586,21,12.5c0,4.6941-3.8059,8.5-8.5,8.5C7.80586,21,4,17.1941,4,12.5c0-4.54599,3.56804-8.25788,8.0568-8.48826z"/></svg>