<svg width="24" height="24" viewBox="0,0,24,24" xmlns="http://www.w3.org/2000/svg"><path fill-rule="evenodd" clip-rule="evenodd" d="m16.3124,9.85602c.4911.11245.8905.38208,1.176.75258.3883.5039.5431,1.1616.4892,1.796-.0542.6378-.3218,1.2881-.8259,1.782-.5107.5003-1.2368.8132-2.1516.8132v-1c.6743,0,1.1426-.2247,1.4518-.5275.3156-.3092.4932-.7277.5293-1.1524.0363-.4281-.0735-.8266-.2849-1.1009-.1999-.2594-.5116-.4382-.9762-.4196l-.6984.0279.1991-.67c.2414-.81191.1456-1.47626-.1167-1.97714-.2656-.50707-.7195-.88062-1.2495-1.07287-1.0482-.38022-2.3618-.04562-2.997,1.39429l-.2656.60197-.5089-.4171c-.9662-.79203-2.56594-.0479-2.38651,1.45395l.06682.5594h-.56329c-.34818,0-.6345.1684-.84507.4628-.21672.3029-.33994.7276-.3209,1.1654.01888.4343.17572.8468.47432,1.1477.29237.2946.76213.5241,1.49165.5241v1c-.95398,0-1.6936-.308-2.20142-.8197-.50159-.5054-.73575-1.1679-.76361-1.8086-.02771-.6372.14657-1.2875.50666-1.7908.2743-.3834.66277-.68665,1.144-.81474.09211-1.85072,2.00727-2.89517,3.52275-2.17638.9455-1.53821,2.6246-1.91661,3.9871-1.42235.745.27025,1.4036.80294,1.7943,1.549.3183.60777.4474,1.33526.3225,2.13979zm-5.0195,3.14388h2.9142l-.8535.8536-1.6465,1.6464h2.3664l-1.0885.8876-3.33005,2.715-3.16906,2.5837,2.45309-3.2712,1.06112-1.4151H7.29289l.85356-.8535,2.99995-3,.1465-.1465zM9.79289,15.9999h-.08578l1.99999-2h.0858l-1.6465,1.6465-.35351.3535zm6.70711-.5c-.5521,0-1,.4479-1,1,0,.5522.4479,1,1,1s1-.4478,1-1c0-.5521-.4479-1-1-1zm-3,3c0-.5521.4479-1,1-1s1,.4479,1,1c0,.5522-.4479,1-1,1s-1-.4478-1-1zm-8-2c-.55214,0-1,.4479-1,1,0,.5522.44786,1,1,1s1-.4478,1-1c0-.5521-.44786-1-1-1z"/></svg>