<svg width="48" height="48" viewBox="0,0,48,48" xmlns="http://www.w3.org/2000/svg"><path fill-rule="evenodd" clip-rule="evenodd" d="m31.9329,8.21116c-.2617.49771-.3574,1.15785-.1165,1.96504l.2002.6705-.6992-.0279c-.466-.0186-.7901.1609-1.0018.4246-.2218.2764-.3402.6735-.3114,1.0947.0286.4176.2002.8287.518,1.1339.3125.2999.7982.5279,1.5148.5279h6.9965c.7296,0,1.1993-.2287,1.4913-.5217.2981-.2991.4544-.709.4733-1.1402.019-.4349-.1039-.8569-.3201-1.1579-.21-.2924-.4961-.4604-.8449-.4604h-.5635l.0671-.5596c.1786-1.48807-1.4155-2.23582-2.3859-1.44425l-.5078.41419-.2654-.59913c-.6343-1.43172-1.9471-1.76611-2.9962-1.38712-.53.19148-.9834.56334-1.2485,1.06737zm4.8933-.5914c-.9456-1.53233-2.6239-1.90802-3.9846-1.41648-.7443.2689-1.4029.79912-1.7938,1.54246-.318.60487-.4473,1.32879-.3232,2.12918-.4922.11128-.8961.37778-1.1888.74258-.3999.4981-.5728,1.1524-.5292,1.7889.0438.64.3082,1.2927.8231,1.787.5204.4995,1.2642.8065,2.2073.8065h6.9965c.9529,0,1.6919-.3064,2.1996-.8159.5017-.5034.7361-1.1636.764-1.8024.0278-.6352-.1467-1.2833-.5069-1.7848-.2743-.3819-.6624-.68354-1.1426-.81108-.0926-1.84609-2.0088-2.87995-3.5214-2.16596zM22.3741,33.7626c.7912.1174,1.4288.5114,1.8772,1.0701.0437.0544.0854.1102.1252.1672h10.3407c2.2018,0,3.729-.6968,4.7208-1.6921.9978-1.0014,1.4961-2.3475,1.5559-3.715.0599-1.3712-.3231-2.7295-1.0437-3.7327-.7144-.9946-1.7492-1.6309-3.034-1.6309h-.5636l.0671-.5595c.5846-4.8717-4.7027-7.4298-7.9832-4.754l-.5078.4142-.2654-.5991c-1.9461-4.3931-6.0575-5.4678-9.3368-4.2831-1.6451.5943-3.0714,1.7554-3.9104,3.3509-.8357,1.5892-1.1063,3.6429-.3843,6.0614l.2001.6704-.6991-.0278c-2.0273-.0808-3.3983.9857-4.06784,2.4735-.57385,1.2752-.62807,2.8593-.0982,4.2808,1.04094-1.1553,2.80174-1.547,4.23944-.7469,1.3285-2.358,3.8014-2.9406,5.7964-2.2199,1.0629.384,1.9995,1.1397,2.5544,2.1949.4811.915.6621,2.03.4171,3.2776zM8.727,32.2856c-.9227-1.8236-.95193-3.9911-.17395-5.7198.745-1.6555,2.23475-2.9085,4.35015-3.0535-.5699-2.3839-.2623-4.4865.6278-6.1791.9648-1.8348,2.5964-3.1543,4.4558-3.8261,3.5846-1.2949,8.0509-.1888,10.3255,4.2616,3.8561-2.5245,9.3904.302,9.1447,5.491,1.4044.1602,2.5315.9396,3.3054,2.017.8646,1.2038,1.2992,2.7882,1.2305,4.3597-.0688,1.5751-.6452,3.1716-1.8466,4.3773-1.2074,1.2117-3.004,1.9862-5.4291,1.9862h-9.8675c.1251.4311.172.8889.141,1.3426-.0619.9045-.4353,1.8231-1.1584,2.5173-.7286.6993-1.7799,1.1401-3.1378,1.1401H10.1997c-1.37351,0-2.4147-.4401-3.12234-1.1502-.70158-.7041-1.03371-1.6319-1.0733-2.5382-.03944-.9027.20931-1.8183.71367-2.5205.41617-.5794,1.01367-1.0192,1.75583-1.162.0014-.4888.09244-.9393.25344-1.3434zm10.3358-3.055c-1.6862-.6092-3.7987-.0633-4.8077,2.2146l-.2655.5991-.5077-.4142c-1.6305-1.3299-4.27975-.0649-3.9852,2.3899l.06715.5595h-.56358c-.61621,0-1.11621.3019-1.47035.7949-.36031.5017-.5575,1.1911-.52681,1.8935.03053.6988.28459,1.3761.7826,1.8759.49195.4937,1.26374.8561,2.41399.8561h10.4948c1.1315,0,1.9246-.3618,2.4453-.8615.526-.505.8066-1.1822.8532-1.8641.0469-.6856-.1442-1.3456-.5215-1.8156-.3671-.4574-.9292-.7612-1.7076-.7302l-.6992.0278.2002-.6705c.3784-1.2675.2327-2.3258-.193-3.1354-.4291-.8158-1.1604-1.4132-2.0091-1.7198z"/></svg>