<svg width="36" height="36" viewBox="0,0,36,36" xmlns="http://www.w3.org/2000/svg"><path fill-rule="evenodd" clip-rule="evenodd" d="m5.75,18c0-6.7589,5.4911-12.25,12.25-12.25S30.25,11.2411,30.25,18c0,.4283-.0286.8605-.0723,1.2836l.9946.1028c.0463-.4469.0777-.9147.0777-1.3864,0-7.3111-5.9389-13.25-13.25-13.25S4.75,10.6889,4.75,18,10.6889,31.25,18,31.25c2.119,0,4.1304-.4987,5.9086-1.3878l-.4472-.8944C21.8196,29.7887,19.961,30.25,18,30.25,11.2411,30.25,5.75,24.7589,5.75,18zm20.916-1.0274-.416.2774-.416-.2774.416-.624.416.624zm-.416.2774c-.416-.2774-.4161-.2773-.4161-.2772l-.0008.0012-.002.0029-.0071.0108-.0265.0404c-.0229.0352-.0562.0866-.0982.1527-.0842.1322-.2037.3234-.3468.562-.286.4766-.6676,1.1443-1.0497,1.9086-.752,1.5039-1.5528,3.4712-1.5528,5.0986,0,1.9261,1.5739,3.5,3.5,3.5s3.5-1.5739,3.5-3.5c0-1.6274-.8008-3.5947-1.5528-5.0986-.3821-.7643-.7637-1.432-1.0497-1.9086-.1431-.2386-.2626-.4298-.3468-.562-.042-.0661-.0753-.1175-.0982-.1527l-.0265-.0404-.0071-.0108-.002-.0029-.0008-.0012c0-.0001-.0001-.0002-.4161.2772zm0,.9408-.04.0664c-.2765.4609-.6449,1.1057-1.0128,1.8414-.748,1.4961-1.4472,3.2788-1.4472,4.6514,0,1.3739,1.1261,2.5,2.5,2.5s2.5-1.1261,2.5-2.5c0-1.3726-.6992-3.1553-1.4472-4.6514-.3679-.7357-.7363-1.3805-1.0128-1.8414l-.04-.0664zm-15.4444,4.8619C12.021,20.2221,14.7765,18.25,18.09,18.25c1.6608,0,3.1992.4955,4.4672,1.3622l-.5643.8256c-1.102-.7533-2.4437-1.1878-3.9029-1.1878-2.8965,0-5.301,1.7179-6.3655,4.1973l-.9189-.3946zM13.5,13.25c-.1381,0-.25.1119-.25.25s.1119.25.25.25.25-.1119.25-.25-.1119-.25-.25-.25zm-1.25.25c0-.6904.5596-1.25,1.25-1.25s1.25.5596,1.25,1.25-.5596,1.25-1.25,1.25-1.25-.5596-1.25-1.25zm10,0c0-.1381.1119-.25.25-.25s.25.1119.25.25-.1119.25-.25.25-.25-.1119-.25-.25zm.25-1.25c-.6904,0-1.25.5596-1.25,1.25s.5596,1.25,1.25,1.25,1.25-.5596,1.25-1.25-.5596-1.25-1.25-1.25z"/></svg>