<svg width="16" height="16" viewBox="0,0,16,16" xmlns="http://www.w3.org/2000/svg"><rect width="16" height="16" rx="2" fill="#eb0000"/><path fill-rule="evenodd" clip-rule="evenodd" d="m8.08139,2c-.81783,0-1.48057.66274-1.48057,1.47991,0,.81782.66274,1.47991,1.48057,1.47991.81716,0,1.47991-.66209,1.47991-1.47991C9.5613,2.66274,8.89855,2,8.08139,2zM6.72343,12.6649h-.92917c-.16237,0-.29426.1319-.29426.2936,0,.1624.13189.2936.29426.2936l.92917.0013,2.66688-.0013h.90469c.1623,0,.2936-.1312.2936-.2936,0-.1617-.1313-.2936-.2936-.2936h-.90469V5.68884H5.79426c-.16237,0-.29426.13122-.29426.29359s.13189.2936.29426.2936h.92917v6.38887z" fill="#fff"/></svg>