<svg width="59" height="20" viewBox="0,0,59,20" xmlns="http://www.w3.org/2000/svg"><path fill-rule="evenodd" clip-rule="evenodd" d="m2,0C.89543,0,0,.895431,0,2v16c0,1.1046.895431,2,2,2h55c1.1046,0,2-.8954,2-2V2c0-1.104569-.8954-2-2-2H2z" fill="#eb0000"/><path d="m9.25126,4.19995h4.06994L8.28619,15.8H4.19934L9.25126,4.19995zM26.0686,12.3662c.3678,0,.7008-.2172.8492-.5537l3.3034-7.61255H16.0383L11.0032,15.7999h4.0521l3.8117-8.69036h6.014L23.6755,9.885l-5.2436-.01902,4.2312,5.93392h4.6128l-3.1345-3.4337h1.9272zm18.8604-1.163v1.9537h-1.4555v2.642h-2.2543v-2.642h-4.825v-2.1672l4.9437-6.75508h2.1356v6.96858h1.4555zm-3.6623.0238V6.92407L38.2926,11.227h2.9741zm12.2841-6.99238v1.96172c-.0633.06855-.2505.28203-.5617.64062-.4324.4957-.8621,1.11934-1.2892,1.8707-.4272.75137-.7594,1.47264-.9967,2.16324-.5011,1.4397-.8042,3.0825-.9097,4.928h-2.3887c.0158-.8701.1674-1.8352.4549-2.8949.2873-1.06.6841-2.12,1.1904-3.17993.7223-1.49746,1.4554-2.61289,2.1989-3.34589h-5.4578V4.23462h7.7596z" fill="#fff"/></svg>