<svg width="59" height="20" viewBox="0,0,59,20" xmlns="http://www.w3.org/2000/svg"><g clip-path="url(#a)"><path fill-rule="evenodd" clip-rule="evenodd" d="m1.80029,0C.695723,0-.199707.895431-.199707,2v16c0,1.1046.895431,2,1.999997,2H56.8003c1.1046,0,2-.8954,2-2V2c0-1.104569-.8954-2-2-2H1.80029z"/><path d="m4.18612,11.9488c-.03239,2.8597,2.36424,4.1271,4.9228,4.1271,3.14158,0,4.80948-1.5924,4.80948-3.7209,0-2.63223-2.591-3.16842-3.433-3.37965-2.89866-.74742-3.44924-.86116-3.44924-1.75482,0-.9749.93923-1.31611,1.7489-1.31611,1.21451,0,2.20234.35746,2.28324,1.75482h2.4614c0-2.68098-2.2185-3.73712-4.63129-3.73712-2.08895,0-4.32365,1.13738-4.32365,3.50964,0,2.17728,1.7327,2.84344,3.44921,3.29844,1.70031.4549,3.43303.6662,3.43303,1.9173,0,1.1861-1.3603,1.4461-2.25091,1.4461-1.36025,0-2.55857-.6012-2.55857-2.1448h-2.4614zm11.12258,3.8509h2.3804V8.03295h.0324l4.8095,7.76675h2.5423V4.19834h-2.3804v7.78296h-.0324l-4.8256-7.78296h-2.5262V15.7997zM31.4278,7.89727c.0262-.94922.2602-1.74541.7017-2.38887.7146-1.0335,1.7894-1.55039,3.2242-1.55039,1.1037,0,1.9944.28213,2.6726.84638.7303.61182,1.0957,1.40284,1.0957,2.37305,0,.58018-.1433,1.07969-.4296,1.49902-.2865.41914-.6741.70274-1.1629.8503.6202.14238,1.1103.45879,1.4703.94924.3599.4904.5401,1.0837.5401,1.7798,0,1.1443-.4206,2.0803-1.2613,2.8081-.7781.6751-1.7609,1.0125-2.9486,1.0125-1.2877,0-2.3086-.3718-3.0627-1.1154-.7541-.7435-1.1313-1.7481-1.1313-3.0137v-.1503h2.2153c0,.7119.1682,1.2617.5046,1.6492.3363.3877.8119.5814,1.427.5814.6147,0,1.0877-.1819,1.419-.5458.3046-.3427.457-.7514.457-1.226,0-.5696-.1944-1.0204-.5832-1.3527-.3207-.2741-.8148-.4113-1.482-.4113-.1892,0-.3759.0106-.5599.0316V8.82275c.1367.01065.2681.01582.3942.01582,1.3244,0,1.9866-.49306,1.9866-1.4792,0-.43232-.1446-.78173-.4334-1.04814-.2893-.26621-.6702-.39941-1.1432-.39941-.5414,0-.9593.16884-1.2534.50625-.2945.3375-.4522.83056-.473,1.4792h-2.1838z" fill="#ffde15"/></g><defs><clipPath id="a"><path fill="#fff" d="m0,0h59v20H0z"/></clipPath></defs></svg>