<svg width="59" height="20" viewBox="0,0,59,20" xmlns="http://www.w3.org/2000/svg"><g clip-path="url(#a)"><path fill-rule="evenodd" clip-rule="evenodd" d="m1.6001,0C.495528,0-.399902.895431-.399902,2v16c0,1.1046.89543,2,2.000002,2h55c1.1046,0,2-.8954,2-2V2c0-1.104569-.8954-2-2-2h-55z"/><path d="m4.18612,11.9488c-.03239,2.8597,2.36424,4.1271,4.9228,4.1271,3.14158,0,4.80948-1.5924,4.80948-3.7209,0-2.63223-2.591-3.16842-3.433-3.37965-2.89866-.74742-3.44924-.86116-3.44924-1.75482,0-.9749.93923-1.31611,1.7489-1.31611,1.21451,0,2.20234.35746,2.28324,1.75482h2.4614c0-2.68098-2.2185-3.73712-4.63129-3.73712-2.08895,0-4.32365,1.13738-4.32365,3.50964,0,2.17728,1.7327,2.84344,3.44921,3.29844,1.70031.4549,3.43303.6662,3.43303,1.9173,0,1.1861-1.3603,1.4461-2.25091,1.4461-1.36025,0-2.55857-.6012-2.55857-2.1448h-2.4614zm11.12258,3.8509h2.3804V8.03295h.0324l4.8095,7.76675h2.5423V4.19834h-2.3804v7.78296h-.0324l-4.8256-7.78296h-2.5262V15.7997zM39.2008,4.23487v1.96171c-.063.06856-.2497.28213-.5598.64073-.4309.4957-.8592,1.11923-1.2849,1.8708-.4257.75136-.7568,1.47259-.9933,2.16339-.4993,1.4396-.8016,3.0823-.9067,4.928h-2.3806c.0156-.8701.1666-1.8351.4532-2.8951.2865-1.06.682-2.1199,1.1866-3.17989.7198-1.49765,1.4505-2.61299,2.1914-3.34599h-5.4394V4.23486h7.7335v.00001z" fill="#ffde15"/></g><defs><clipPath id="a"><path fill="#fff" d="m0,0h59v20H0z"/></clipPath></defs></svg>