<svg width="36" height="36" viewBox="0,0,36,36" xmlns="http://www.w3.org/2000/svg"><path fill-rule="evenodd" clip-rule="evenodd" d="m17.2666,3.19025-.0167-.00055-.0167.00055c-.9532.03184-1.8549.44008-2.5077,1.13534-.6518.69409-1.0024,1.61777-.9755,2.56937.0072.61464.1762,1.21657.4899,1.74521l.0002.00031,2.595,4.36502.431.725.4292-.7261,2.58-4.36501v.00001l.0021-.00354c.3073-.52971.4702-1.13074.4725-1.74304.0262-.95085-.3244-1.87366-.9756-2.56723-.6528-.69526-1.5545-1.1035-2.5077-1.13534zM15.4545,5.0101c.4679-.49834,1.1128-.79262,1.7954-.81979.6826.02717,1.3275.32145,1.7954.81979.4717.50239.7252,1.17125.7048,1.8601h-.0002v.01389c-.0008.43842-.1168.86891-.3365,1.2483l-2.1498,3.63701-2.1637-3.63962-.0001-.00008c-.2246-.37856-.3454-.80973-.3499-1.24992h.0001l-.0003-.00958c-.0204-.68885.233-1.35771.7048-1.8601zM3,15.25h10.3704l-.1318.6062-3.75001,17.25-.97718-.2124L12.1296,16.25H3v-1zm18.75,0h-.6204l.1318.6062,3.75,17.25.9772-.2124L22.3704,16.25H31.5v-1h-9.75zm-4,4.25v-3h-1v3h1zm0,6v-3h-1v3h1zm0,3v3h-1v-3h1z"/></svg>