<svg width="24" height="24" viewBox="0,0,24,24" xmlns="http://www.w3.org/2000/svg"><path fill-rule="evenodd" clip-rule="evenodd" d="m20.646,21.3538-1.3541-1.354H2V4.99979h2.29192L2.64596,3.35384l.70711-.70711L21.3531,20.6467l-.7071.7071zM16.7922,17.5l1.4997,1.4998H17V18.5h-1v.4998H3V5.99979h2.29192L16.2922,17H16v.5h.7922zM21.5,4.99979H9v1h12v3.03412c-1.7151.23671-3,1.67779-3,3.46589,0,1.7891,1.285,3.2293,3,3.4659v2.0341h1v-3h-.5c-1.4069,0-2.5-1.0931-2.5-2.5,0-1.406,1.0933-2.50001,2.5-2.50001h.5v-5h-.5zM16,6.59927v-.5819h1v.5819h-1zm0,2.32758V7.76306h1v1.16379h-1zm0,2.32755v-1.1638h1v1.1638h-1zm0,1.7457v-.5819h1v.5819h-1z"/></svg>