<svg width="36" height="36" viewBox="0,0,36,36" xmlns="http://www.w3.org/2000/svg"><path fill-rule="evenodd" clip-rule="evenodd" d="m8.25,3.25h-.5v29.5h22V3.25H8.25zm.5,28.5V4.25h20v27.5h-20zm3.25-8h13.5v-1H12v1zm13.5,3H12v-1h13.5v1zm-13.3211-8.7324V10.522H10.5v7.4956h1.6789zm1.4789-7.4956h3.1053c.5226,0,.9346.0315,1.2338.0952.3008.063.5715.175.8136.3354.6691.4373,1.0045,1.0972,1.0045,1.979,0,.783-.2767,1.3982-.8316,1.8457-.2346.1912-.5038.3289-.8045.4131-.3015.0835-.6737.1253-1.1158.1253h-1.7263v2.7019h-1.679V10.522zm1.679,1.3842v2.1226h1.5c.4458,0,.7669-.0769.9631-.2307.2421-.1912.3632-.4731.3632-.846,0-.3757-.1406-.6562-.4211-.8408-.2037-.1369-.5353-.2051-.9947-.2051h-1.4105zm9.1053,6.1114L27,10.522h-1.7429l-1.7579,5.614-1.7308-5.614h-1.7579l2.5203,7.4956h1.9113z"/></svg>