<svg width="48" height="48" viewBox="0,0,48,48" xmlns="http://www.w3.org/2000/svg"><path fill-rule="evenodd" clip-rule="evenodd" d="m17.5672,12.8361C18.6483,9.96946,21.1513,8,24,8c2.8488,0,5.3518,1.96954,6.4328,4.8363-1.2305-.4666-2.3791-1.1307-3.3999-1.9679-.2202-.1913-.4935-.3111-.7835-.3437-.288-.0323-.5789.0231-.8348.1587-.4425.2085-.9256.3166-1.4148.3166s-.9723-.1081-1.4148-.3166c-.2558-.1356-.5468-.191-.8348-.1587-.29.0326-.5632.1524-.7835.3437-1.0207.8371-2.1691,1.5011-3.3995,1.9677zm-.3513,1.1801C17.075,14.6488,17,15.3131,17,16c0,4.4789,3.191,8,7,8s7-3.5211,7-8c0-.6868-.075-1.3511-.2158-1.9837-1.6016-.5054-3.0925-1.3129-4.3917-2.3799l-.0066-.0054-.0064-.0056c-.0676-.0595-.152-.0968-.2415-.1069-.0896-.01-.1801.0077-.2593.0507l-.012.0065-.0122.0059c-.5795.2754-1.2131.4184-1.8547.4184s-1.2752-.143-1.8547-.4184l-.0122-.0059-.012-.0065c-.0792-.043-.1697-.0607-.2593-.0507-.0895.0101-.1739.0474-.2415.1069l-.0064.0056-.0066.0054c-1.2991,1.0669-2.7898,1.8744-4.3912,2.3798zM24,7c-4.4753,0-8,4.0901-8,9,0,2.4536.8802,4.7025,2.3194,6.3385C12.2646,25.2916,8,32.7945,8,41.5v.5h32v-.5c0-8.7051-4.2459-16.2092-10.3188-19.1622C31.12,20.7019,32,18.4533,32,16c0-4.9099-3.5247-9-8-9zM9.00486,41c.16252-8.3569,4.38694-15.3249,10.06444-17.9095C20.4205,24.2836,22.127,25,24,25c1.8731,0,3.5797-.7165,4.9311-1.9098,5.695,2.584,9.9022,9.5516,10.0641,17.9098H9.00486zM26.5,15c-.2761,0-.5.2239-.5.5s.2239.5.5.5.5-.2239.5-.5-.2239-.5-.5-.5zm-1.5.5c0-.8284.6716-1.5,1.5-1.5s1.5.6716,1.5,1.5-.6716,1.5-1.5,1.5-1.5-.6716-1.5-1.5zm-3.4,4.3c.2794.3726.6418.675,1.0584.8833.4165.2083.8759.3167,1.3416.3167s.9251-.1084,1.3416-.3167c.4166-.2083.779-.5107,1.0584-.8833l-.8-.6c-.1863.2484-.4279.45-.7056.5889C24.6167,19.9277,24.3105,20,24,20s-.6167-.0723-.8944-.2111c-.2777-.1389-.5193-.3405-.7056-.5889l-.8.6zM22,31h-3v-1h-1v1h-1v1h5v-1zm-1-15.5c0-.2761.2239-.5.5-.5s.5.2239.5.5-.2239.5-.5.5-.5-.2239-.5-.5zm.5-1.5c-.8284,0-1.5.6716-1.5,1.5s.6716,1.5,1.5,1.5,1.5-.6716,1.5-1.5-.6716-1.5-1.5-1.5z"/></svg>