<svg width="48" height="48" viewBox="0,0,48,48" xmlns="http://www.w3.org/2000/svg"><path fill-rule="evenodd" clip-rule="evenodd" d="m2.64648,2.35355,9.41012,9.41015c-2.98172,1.4466-5.68368,3.4137-7.97783,5.8106l.72242.6914c2.29208-2.3947,5.00636-4.3445,8.00551-5.7519l3.7965,3.7965c-3.0997,1.1465-5.8982,2.9914-8.1761,5.3958l.72595.6878c2.27855-2.4051,5.10315-4.2231,8.23255-5.3012l4.1232,4.1232c-3.3283.5476-6.3978,2.1686-8.7315,4.6301l.7257.688c2.3513-2.4801,5.5012-4.0481,8.8921-4.4318l5.978,5.978c-.2039-.1066-.412-.2058-.6239-.2975-1.1805-.5106-2.4531-.774-3.7394-.774h-.0195c-1.2863,0-2.5589.2634-3.7395.774-1.1805.5106-2.244,1.2576-3.1249,2.1949l.7287.6848.0092-.0097.0104.0097c.7873-.8378,1.7379-1.5054,2.7931-1.9618,1.0523-.4551,2.1864-.6906,3.3327-.6919,1.1464.0013,2.2805.2368,3.3327.6919,1.0553.4564,2.0059,1.124,2.7932,1.9618l.0104-.0097.0092.0097.4175-.3924,15.0835,15.0836.7071-.7072L3.35359,1.64645l-.70711.7071zM15.1657,11.4718c4.8224-1.69325,10.0317-1.95576,14.9999-.7559,4.9683,1.1998,9.4836,3.8108,13.0017,7.5183l.7254-.6884c-3.6509-3.8474-8.3366-6.5569-13.4923-7.80198-5.1558-1.24511-10.5616-.97269-15.566.78438l.3313.9436zM24.0003,16c2.7796-.002,5.5303.5641,8.0833,1.6635s4.8543,2.7089,6.7628,4.7298l.7271-.6866c-2.0021-2.1199-4.4163-3.8084-7.0944-4.9617S26.9155,14.9979,23.9996,15c-1.4086.0009-2.8138.138-4.196.4094l.1927.9812c1.3189-.2589,2.6598-.3898,4.004-.3906zm1.6419,5.0927c3.661.385,7.0634,2.0678,9.5912,4.744l-.727.6866c-2.3638-2.5025-5.5453-4.0761-8.9688-4.436l.1046-.9946zM21.5,36.5c0-1.3807,1.1193-2.5,2.5-2.5,1.3808,0,2.5,1.1193,2.5,2.5S25.3808,39,24,39c-1.3807,0-2.5-1.1193-2.5-2.5zM24,33c-1.933,0-3.5,1.567-3.5,3.5S22.067,40,24,40s3.5-1.567,3.5-3.5S25.933,33,24,33z"/></svg>