<svg width="24" height="24" xmlns="http://www.w3.org/2000/svg"><path fill-rule="evenodd" clip-rule="evenodd" d="m16.0001,4V2h1v2h-1zm-1.0757,2.53638c.4366.29206.809.69017,1.0658,1.18041.3182.60772.4473,1.33514.3225,2.13959.4919.11216.8933.38112,1.1818.74992.0383.0489.0744.0993.1083.151C18.4379,10.3619,19,9.51914,19,8.5,19,7.08514,17.9149,6,16.5,6c-.6088,0-1.1526.20005-1.5756.53638zm3.0418,5.15452c.0413.2338.0522.4738.0336.7109-.0499.6394-.3161,1.2916-.8246,1.7865-.5147.5009-1.2482.812-2.1748.812H8.00036c-.95398,0-1.69361-.308-2.20142-.8196-.50159-.5054-.73575-1.168-.76361-1.8087-.02771-.6371.14656-1.2874.50666-1.7907.27429-.3834.66276-.68668,1.14398-.81478.09199-1.85089,2.00672-2.89518,3.52273-2.17629.8872-1.44348,2.4204-1.86566,3.7319-1.50382C14.5767,5.40968,15.4839,5,16.5,5,18.4671,5,20,6.53286,20,8.5c0,1.43574-.8181,2.6458-2.0338,3.1909zm-7.1084-3.18876c.6353-1.43991,1.9489-1.77452,2.9971-1.39429.5299.19224.9838.5658,1.2494,1.07287.2623.50088.3582,1.16523.1168,1.97708l-.1992.6701.6984-.028c.465-.0186.7818.1607.9866.4226.2158.2758.3293.6749.296,1.1014-.0331.423-.2084.8396-.5251,1.1478-.3106.3022-.786.5286-1.4774.5286H8.00036c-.72953,0-1.19928-.2295-1.49165-.5241-.2986-.3008-.45544-.7133-.47433-1.1476-.01904-.4378.10419-.8626.3209-1.1655.21058-.2943.4969-.4628.84508-.4628h.56328l-.06682-.5593c-.17941-1.50179,1.41935-2.24622,2.38668-1.45388l.5088.41676.2655-.60174zm.6248-4.26385,1.441,1.386.6932-.72072-1.441-1.386-.6932.72072zm9.3709,9.39301-1.414-1.414.7071-.7071,1.414,1.414-.7071.7071zM23.0001,8h-2v1h2V8zm-3.6719-3.05088,1.414-1.414.7071.70711-1.414,1.414-.7071-.70711zM10.0001,16c-.55213,0-.99998.4479-.99998,1s.44785,1,.99998,1c.5522,0,1-.4479,1-1s-.4478-1-1-1zm3,1c0-.5521.4479-1,1-1,.5522,0,1,.4479,1,1s-.4478,1-1,1c-.5521,0-1-.4479-1-1zm-1,2c-.5521,0-1,.4479-1,1s.4479,1,1,1c.5522,0,1-.4479,1-1s-.4478-1-1-1z"/></svg>