<svg width="59" height="20" xmlns="http://www.w3.org/2000/svg"><path fill-rule="evenodd" clip-rule="evenodd" d="m2,0C.89543,0,0,.895431,0,2v16c0,1.1046.895431,2,2,2h55c1.1046,0,2-.8954,2-2V2c0-1.104569-.8954-2-2-2H2z" fill="#eb0000"/><path fill-rule="evenodd" clip-rule="evenodd" d="m18.855,6.51131c-.3451-.21671-.7184-.38443-1.1093-.49838-.48-.13111-.9762-.19265-1.4735-.18274-1.3025,0-2.3677.4264-3.1955,1.27919S11.835,9.06415,11.835,10.4153c0,1.1075.309,2.0102.9271,2.7079.604.6917,1.4848,1.0757,2.4008,1.0466.3803.0023.7592-.048,1.1258-.1495.4448-.1396.8724-.3291,1.2749-.5648l-.3643,2.2261c-.1545.0332-.3697.0775-.6457.1329-.2759.0553-.5491.0996-.8195.1329-.3603.0377-.7224.0543-1.0845.0498-1.6336,0-2.914-.4818-3.8411-1.4453-.92721-.9635-1.3908-2.3036-1.3908-4.0203,0-1.98246.6071-3.56621,1.8212-4.75125,1.2142-1.18503,2.8478-1.77756,4.9008-1.77756.5683-.00997,1.1363.03173,1.6971.1246.436.08306.734.14951.894.19935.1601.04984.3946.13013.7037.24089l-.5795,1.94368zM6.61962,4.20214h2.41727L6.60306,15.7979H4.18579L6.61962,4.20214zm21.47398,0h-6.8048L18.855,15.7978h6.8876l.3973-1.8273h-4.5696l.6788-3.2562h4.0564l.3642-1.82736h-4.0398l.5961-2.8574h4.5199l.3477-1.8274z" fill="#fff"/></svg>