<svg width="24" height="24" xmlns="http://www.w3.org/2000/svg"><path fill-rule="evenodd" clip-rule="evenodd" d="m20,1.90088V15.5c0,1.933-1.567,3.5-3.5,3.5S13,17.433,13,15.5,14.567,12,16.5,12c.9794,0,1.8648.4022,2.5,1.0505V6.09908L9,7.91727V18.5C9,20.433,7.433,22,5.5,22S2,20.433,2,18.5,3.567,15,5.5,15c.97934,0,1.86474.4022,2.5,1.0505V4.0827l.41056-.07465,11.00004-2L20,1.90088zm-11,5,10-1.81819v-1.9836L9,4.91727v1.98361zM5.5,16C6.88071,16,8,17.1193,8,18.5S6.88071,21,5.5,21,3,19.8807,3,18.5,4.11929,16,5.5,16zm8.5-.5c0-1.3807,1.1193-2.5,2.5-2.5s2.5,1.1193,2.5,2.5S17.8807,18,16.5,18,14,16.8807,14,15.5z"/></svg>