<svg width="24" height="24" xmlns="http://www.w3.org/2000/svg"><path fill-rule="evenodd" clip-rule="evenodd" d="m22.5,0h-21C.675,0,0,.675,0,1.5v21c0,.825.675,1.5,1.5,1.5h21c.825,0,1.5-.675,1.5-1.5v-21c0-.825-.675-1.5-1.5-1.5z" fill="#2d327d"/><path fill-rule="evenodd" clip-rule="evenodd" d="m21.075,20.9325h-18v-.3h18v.3z" fill="#fff"/><path fill-rule="evenodd" clip-rule="evenodd" d="m11.91,10.8524c-.165,0-.3.135-.3.3v.93c0,.0525.0375.09.09.09h.42c.0525,0,.09-.0375.09-.09v-.93c0-.165-.135-.3-.3-.3z" fill="#fff"/><path fill-rule="evenodd" clip-rule="evenodd" d="m13.5975,12.6225c-.015-.165-.165-.3-.33-.3H12.225c-.0525,0-.09.0375-.09.09v7.59c0,.0525.0375.09.09.09h1.035c.165,0,.315-.135.33-.3,0,0,.1575-1.41.1575-3.585.0075-2.175-.15-3.585-.15-3.585z" fill="#fff"/><path fill-rule="evenodd" clip-rule="evenodd" d="m11.595,12.3225H10.56c-.165,0-.315.135-.33.3,0,0-.1575,1.41-.1575,3.585s.1575,3.585.1575,3.585c.015.165.1725.3.33.3h1.035c.0525,0,.09-.0375.09-.09v-7.59c0-.045-.0375-.09-.09-.09z" fill="#fff"/><path fill-rule="evenodd" clip-rule="evenodd" d="m9.45,2.93994h1.5525c.2625,0,.48.21.4725.48v3.735c0,.0975-.015.255-.045.3525L9.135,15.7874l-.3825,1.3875c-.0675.255-.345.465-.6075.465h-4.59c-.2625,0-.48-.2175-.48-.48v-1.14c0-.2625.2175-.48.48-.48H6.57c.0975,0,.2475.0225.345.0525l.255.09c.045.015.09.0075.12-.015.0375-.0225.0525-.0675.0525-.1125v-.27c0-.0975.03-.255.06-.345l.195-.57.2325-.6825c.0375-.0975-.0225-.1725-.12-.1725H3.855c-.0975,0-.18-.075-.18-.165v-.5175c0-.2025.2175-.3675.48-.3675h3.9075c.105,0,.21-.075.24-.1725l1.62-4.78496c.0375-.0975.06-.255.06-.3525v-.135c0-.0975-.06-.2325-.135-.3l-.7425-.66c-.075-.0675-.135-.2025-.135-.3v-2.34c0-.2625.2175-.48.48-.48zm1.755,4.5075c.015-.075.0375-.2175.0375-.2925v-3.735c0-.135-.105-.24-.24-.24H9.45c-.135,0-.24.105-.24.24v2.3325c0,.03.03.0975.0525.12l.7425.66c.1275.1125.2175.315.2175.48v.135c0,.1275-.03.3075-.0675.4275l-1.62,4.78496c-.0675.195-.2625.3375-.465.3375H4.155c-.15,0-.24.0825-.24.1275v.4425H7.71c.1275,0,.24.0525.3075.15s.0825.2175.045.3375l-.165.4875-.2625.7725c-.0225.0675-.045.195-.045.27v.27c0,.1275-.0525.24-.15.3075s-.2175.0825-.3375.045l-.255-.0825c-.075-.0225-.2025-.045-.27-.045H3.555c-.135,0-.24.105-.24.24v1.14c0,.135.105.24.24.24h4.59c.15,0,.33-.135.375-.285l2.685-9.66746z" fill="#fff"/><path fill-rule="evenodd" clip-rule="evenodd" d="m12.5025,6.98246v-3.735c0-.2625.2175-.48.465-.48H14.52c.2625,0,.48.2175.48.48v2.34c0,.0975-.06.2325-.135.3l-.7425.66c-.075.0675-.135.2025-.135.3v.135c0,.0975.03.2625.06.3525l1.62,4.78504c.0375.0975.1425.1725.24.1725h3.915c.2625,0,.48.165.48.3675v.5175c0,.09-.0825.165-.18.165h-3.855c-.0975,0-.15.075-.12.1725l.2325.6825.195.57c.03.09.06.2475.06.345v.27c0,.0525.0225.09.0525.1125s.075.03.12.015l.255-.09c.0975-.03.2475-.0525.345-.0525H20.43c.2625,0,.48.2175.48.48v1.14c0,.2625-.2175.48-.48.48h-4.59c-.2625,0-.54-.21-.6075-.465L14.85,15.615,12.5475,7.33496c-.0225-.0975-.045-.255-.045-.3525zm2.0325-3.975c.135,0,.24.105.24.24l-.24-.24zm.24.24v2.34-2.34zm0,2.34c0,.03-.03.0975-.0525.12l.0525-.12zm-.795.78c-.1275.1125-.2175.315-.2175.48l.2175-.48zm-.2175.48v.135-.135zm0,.135c0,.1275.03.3075.0675.4275l-.0675-.4275zm.0675.4275,1.62,4.78504-1.62-4.78504zm1.62,4.78504c.0675.1875.2625.3375.465.3375l-.465-.3375zm4.38.3375c.15,0,.24.0825.24.1275l-.24-.1275zm.24.1275v.36-.36zm0,.36v.0825V13.02zm-3.795.0825c-.1275,0-.24.0525-.3075.15l.3075-.15zm-.3075.15c-.0675.0975-.0825.2175-.045.3375l.045-.3375zM16.35,14.85c.0225.0675.045.2025.045.27l-.045-.27zm.045.27v.27-.27zm0,.27c0,.1275.0525.24.15.3075l-.15-.3075zm.15.3075c.0975.0675.2175.0825.3375.045l-.3375-.045zm.5925-.045c.075-.0225.2025-.045.27-.045l-.27.045zM20.43,15.6075c.135,0,.24.105.24.24l-.24-.24zm.24.24v1.14-1.14zm0,1.14c0,.135-.105.24-.24.24l.24-.24zm-4.83.24c-.1575,0-.3375-.135-.375-.285l.375.285zm-.375-.285L12.78,7.27496l2.685,9.66754zM12.78,7.27496c-.0225-.075-.0375-.21-.0375-.2925l.0375.2925zm-.0375-.2925v-3.735,3.735z" fill="#fff"/></svg>