<svg width="59" height="20" viewBox="0,0,59,20" xmlns="http://www.w3.org/2000/svg"><path fill-rule="evenodd" clip-rule="evenodd" d="m2,0C.89543,0,0,.895431,0,2v16c0,1.1046.895431,2,2,2h55c1.1046,0,2-.8954,2-2V2c0-1.104569-.8954-2-2-2H2z" fill="#eb0000"/><path fill-rule="evenodd" clip-rule="evenodd" d="m4.18579,15.8L6.60678,4.20003h3.95082c.6005-.01309,1.2011.01334,1.798.07913.508.05911.9989.22059,1.4432.47476.3828.22523.6944.55437.899.94952.2075.40619.3131.85708.3075,1.31351.0133.60239-.1755,1.19179-.5362,1.67353-.429.51981-1.0073.89421-1.6561,1.07217.5459.13295,1.0342.43975,1.3919.87435.3271.4002.5043.9027.5008,1.4203-.0023.7042-.2077,1.3926-.5915,1.9822-.3833.616-.9564,1.0896-1.6324,1.3491-.694.2743-1.6429.4114-2.84682.4114H4.18579zm3.8168-6.91566h1.81377c.59144.02507,1.18344-.03353,1.75854-.17408.6334-.17767,1.0717-.75646,1.0725-1.41637.0104-.26591-.0797-.52594-.2523-.72797-.1911-.20235-.4433-.33585-.7176-.3798-.4165-.04317-.8354-.05903-1.2539-.04747H8.57827l-.57568,2.74569zM9.24858,13.9326H6.95376l.63088-3.0305h2.83896c.6624,0,1.1356.1253,1.4195.3758.2779.2372.4343.5875.4258.9535-.0025.3243-.1059.6396-.2957.902-.193.2817-.4687.496-.7886.6133-.3286.1239-.9739.1859-1.93602.1859zM15.34,15.8l2.4131-11.59997h8.572l-.4021,1.9386h-6.1905l-.552,2.63493h5.9854l-.4022,1.93864h-5.9854l-.7255,3.1492h6.7267L24.3694,15.8H15.34zm9.096,0h3.0755l1.593-1.8041c.5606-.6162,1.0896-1.2606,1.585-1.9307.1472.4009.4469,1.063.899,1.9861L32.456,15.8h2.6812l-2.8468-5.4914,5.2915-6.10857h-2.9888l-1.8217,2.06521c-.4363.50113-.9752,1.1447-1.6166,1.9307-.029-.0736-.0633-.145-.1025-.21365-.4784-.99172-.736-1.52714-.7728-1.60627l-1.1277-2.17599h-2.4841l2.8705,5.72879L24.436,15.8z" fill="#fff"/></svg>