<svg width="48" height="48" viewBox="0,0,48,48" xmlns="http://www.w3.org/2000/svg"><path fill-rule="evenodd" clip-rule="evenodd" d="m19.7274,3.34661c.3741-.06959.7519-.12903,1.1329-.178l.1043.99023.9945-.10472-.1042-.98884c.3789-.03008.7607-.04986,1.1451-.05906v3.99402h1V3.00622c.3844.0092.7662.02898,1.1451.05906l-.1042.98884.9945.10472.1043-.99023c.381.04897.7588.10841,1.1329.178l-.2075.97561.9782.20802.2077-.97671c.3733.08858.7427.18738,1.1079.29607l-.3091.95038.951.30922.3092-.95081c.3617.12735.7188.26457,1.071.41132l-.4058.91286.9138.4062.4053-.91184c.346.16455.6866.3385,1.0216.52153L31.317,8.95967l.866.5001,1.4999-2.59713.0001.00009.4985-.86345c.3266.19974.6472.40836.9614.62553l-.5855.80513.8088.58809.5852-.80478c.3036.23245.6005.47319.8904.72189l-.6655.73908.7431.66915.6653-.73888c.2779.26278.5483.53325.8111.81107l-.7389.66534.6691.7432.7392-.6656c.2486.2898.4893.5867.7217.8902l-.8054.5852.5878.809.8061-.5856c.2172.3142.4258.6348.6256.9614l-.8636.4985-2.5979,1.5.5001.8661,2.5979-1.5.8643-.4991c.1829.3349.3568.6754.5213,1.0212l-.9118.406.4068.9136.9123-.4062c.1467.3521.2839.7092.4113,1.071l-.9505.3086.3089.9511.9504-.3086c.1088.3653.2076.7348.2962,1.1083l-.9767.2078.208.9781.9756-.2075c.0696.3741.129.7517.178,1.1327l-.9902.1043.1048.9945.9887-.1042c.0301.379.0499.7609.0591,1.1453H40v1h3.994c-.0092.3844-.029.7662-.059,1.1451l-.9888-.1041-.1048.9945.9902.1043c-.049.381-.1084.7587-.178,1.1329l-.9756-.2075-.208.9781.9767.2077c-.0886.3734-.1875.7429-.2962,1.1081l-.9501-.3092-.3095.9509.9508.3094c-.1273.3615-.2644.7183-.4111,1.0702l-.9125-.4063-.4068.9136.9121.4061c-.1646.3462-.3387.687-.5218,1.0222l-.8641-.499-2.5979-1.5-.5001.8661,2.5979,1.5.8634.4984c-.1997.3265-.4082.6469-.6253.9609l-.8064-.5852-.5874.8094.8053.5844c-.2325.3037-.4733.6007-.7221.8907l-.7389-.6654-.6691.7432.7387.6651c-.2627.2777-.533.548-.8107.8107l-.6656-.7385-.7429.6694.6656.7385c-.29.2487-.5869.4895-.8905.722l-.5852-.8054-.809.5878.5856.806c-.3142.2173-.6348.4259-.9614.6257l-.4985-.8633-1.5-2.5979-.866.5,1.5,2.5979.4989.8641c-.3349.1831-.6755.357-1.0215.5215l-.4054-.9126-.9139.406.406.9139c-.3521.1467-.7092.284-1.0709.4113l-.3094-.9516-.951.3092.3093.9512c-.3652.1088-.7346.2076-1.108.2962l-.2078-.9776-.9782.2079.2076.9766c-.3742.0696-.7519.1291-1.133.1781l-.1042-.9912-.9946.1047.1042.9898c-.3789.0301-.7607.0499-1.1451.0591v-3.9941h-1v3.9941c-.3844-.0092-.7662-.029-1.1451-.0591l.1042-.9898-.9946-.1047-.1042.9912c-.3811-.049-.7588-.1085-1.133-.1781l.2076-.9766-.9782-.2079-.2078.9776c-.3735-.0886-.743-.1875-1.1083-.2963l.3087-.9514-.9512-.3086-.3086.9512c-.3617-.1273-.7187-.2645-1.0707-.4113l.4065-.9135-.9137-.4065-.4061.9128c-.3459-.1645-.6865-.3385-1.0214-.5215l.4989-.8641,1.5-2.5979-.866-.5-1.5,2.5979-.4985.8633c-.3266-.1997-.6471-.4084-.9613-.6256l.5851-.8063-.8093-.5874-.5844.8053c-.3036-.2325-.6006-.4733-.8905-.7221l.6656-.7385-.7429-.6694-.66563.7385c-.27762-.2626-.5479-.5328-.8105-.8105l.73895-.6653-.66915-.7432-.73917.6656c-.24889-.2901-.48981-.5872-.72242-.891l.80469-.5845-.58766-.8091-.80546.585c-.21707-.314-.42559-.6344-.62524-.9608l.86327-.4984,2.598-1.5-.50001-.8661-2.598,1.5-.86407.4989c-.18311-.3351-.35713-.6758-.52174-1.022l.91302-.4062-.4065-.9136-.91374.4065c-.14669-.352-.28385-.7089-.41115-1.0705l.95115-.3092-.30922-.951-.95075.3091c-.10872-.3652-.20753-.7346-.29613-1.108l.97666-.2077-.20803-.9781-.97557.2075c-.0696-.3742-.12904-.7519-.17802-1.1329l.99118-.1043-.10465-.9945-.98986.1041c-.03009-.3788-.04987-.7606-.05907-1.1451H7v-1H3.00598c.0092-.3845.02899-.7663.05908-1.1453l.98985.1042.10465-.9946-.99117-.1043c.04897-.3809.10839-.7585.17796-1.1326l.97562.2075L4.53,18.957l-.97673-.2078c.08861-.3734.18745-.743.29619-1.1083l.95106.3086.30862-.9512-.95088-.3085c.1274-.3618.26466-.719.41146-1.0712l.91346.4064.4065-.9136-.91271-.4061c.16446-.3458.33832-.6863.52125-1.021l.86425.499,2.598,1.5.50001-.8661-2.598-1.5-.86348-.4985c.19975-.3266.40837-.6471.62555-.9613l.80515.5854.58809-.8088-.8048-.5852c.2325-.3036.4733-.6006.72206-.8906l.73942.6659.66915-.7432-.7392-.66558c.26273-.27775.53314-.54816.81089-.81087l.66539.73892.7431-.66915-.6655-.73913c.2899-.24871.5868-.48946.8904-.72192l.5844.80464.8091-.58765-.585-.80542c.3142-.21715.6347-.42575.9613-.62546l.4985.86345.0001-.00009,1.4999,2.59713.866-.5001-1.9989-3.46121c.3349-.18301.6755-.35694,1.0215-.52147l.4061.91206.9135-.40675-.4063-.91253c.3521-.14674.7091-.28394,1.0708-.41128l.3084.95041.9512-.30862-.3084-.95059c.3652-.10873.7347-.20755,1.1081-.29616l.2077.97671.9782-.20802-.2075-.97561zM23.5,2.00024C11.6259,2.00024,2,11.6251,2,23.5002c0,11.8742,9.6259,21.5,21.5,21.5s21.5-9.6258,21.5-21.5c0-11.8751-9.6259-21.49996-21.5-21.49996zm.5,7V23.0002h9v1H23V9.00024h1z"/></svg>