<svg width="36" height="36" viewBox="0,0,36,36" xmlns="http://www.w3.org/2000/svg"><path fill-rule="evenodd" clip-rule="evenodd" d="m9.7433,6.25h-.50014l.00014.50013.006,22.49997.00013.4999H26.7494l-.0031-15.5091v-.2072l-.1466-.1464-7.497-7.49099L18.9563,6.25h-9.213zm.5059,22.5-.0058-21.5h8.0065v7.5006l.5006-.0006,6.9959-.0084.0028,14.0084h-15.5zM25.04,13.7424l-5.7901-5.78539v5.79239l5.7901-.007zM11.9999,20.75h4.5v-1h-4.5v1zm4.5,4.5h-4.5v-1h4.5v1zm3.3535-3.8964,4.5-4.5-.7071-.7072-4.1464,4.1465-1.1465-1.1465-.7071.7072,1.5,1.5.3536.3535.3535-.3535zm4.5,0-4.8535,4.8535-.3536-.3535-1.5-1.5.7071-.7072,1.1465,1.1465,4.1464-4.1465.7071.7072z"/></svg>