<svg width="24" height="24" viewBox="0,0,24,24" xmlns="http://www.w3.org/2000/svg"><path fill-rule="evenodd" clip-rule="evenodd" d="m22.5,0h-21C.675,0,0,.675,0,1.5v21c0,.825.675,1.5,1.5,1.5h21c.825,0,1.5-.675,1.5-1.5v-21c0-.825-.675-1.5-1.5-1.5z" fill="#237f52"/><path fill-rule="evenodd" clip-rule="evenodd" d="m5.88004,16.3051,1.9275-1.935v1.215l-2.415,2.415-2.415-2.415v-1.215l1.935,1.935v-4.59h.9675v4.59z" fill="#fff"/><path fill-rule="evenodd" clip-rule="evenodd" d="m19.8301,3v2.8875c0,.405-.33.735-.735.735H9.72758c-.405,0-.735-.33-.735-.735v-2.88h-1.1625V11.82c0,1.005.7725,1.815,1.755,1.89v-1.17c-.3375-.0675-.5925-.3675-.5925-.72V8.5275c0-.405.33-.735.735-.735h9.37502c.405,0,.735.33.735.735V11.82c0,.36-.2625.66-.6075.7275v1.17c.99-.0675,1.77-.885,1.77-1.8975V3h-1.17z" fill="#fff"/><path fill-rule="evenodd" clip-rule="evenodd" d="m18.1726,11.2201c-.435,0-.78.3525-.78.78v2.0475h-.315v-2.9925c0-.435-.3525-.78-.78-.78-.435,0-.78.3525-.78.78v2.3775h-.315v-3c0-.43501-.3525-.78001-.78-.78001-.435,0-.78.35251-.78.78001v2.3625h-.315v-2.025c0-.435-.3525-.78001-.78-.78001-.435,0-.78.35251-.78.78001v3.93h-.315v-2.01c0-.495-.315-.9375-.78-1.1025-.06-.0225-.1275-.03-.195-.03-.3225,0-.58502.2625-.58502.585v3.7725c0,.39.0825.795.21002,1.11.1275.315,1.38,3.3225,1.38,3.3225h6.4875l.8025-1.9425c.135-.345.195-.7125.195-1.1025,0-.0525,0-5.295,0-5.295-.015-.435-.3675-.7875-.795-.7875z" fill="#fff"/></svg>