<svg width="24" height="24" viewBox="0,0,24,24" xmlns="http://www.w3.org/2000/svg"><path fill-rule="evenodd" clip-rule="evenodd" d="m22.5,0h-21C.675,0,0,.675,0,1.5v21c0,.825.675,1.5,1.5,1.5h21c.825,0,1.5-.675,1.5-1.5v-21c0-.825-.675-1.5-1.5-1.5z" fill="#2d327d"/><path fill-rule="evenodd" clip-rule="evenodd" d="m18.8475,7.37245c1.245,0,2.25,1.005,2.25,2.25L21.09,18.6224c0,.3975-.105.78-.2925,1.1025l.2475.2475-1.0575,1.0575-.315-.315c-.255.0975-.5325.1575-.825.1575H5.34746c-1.245,0-2.25-1.0125-2.25-2.25V9.62245c0-1.245,1.005-2.25,2.25-2.25h.9825l-3.6825-3.6825,1.0575-1.0575,4.7475,4.74h.87v-.9375c0-.7275.585-1.3125,1.31254-1.3125h2.925c.7275,0,1.3125.585,1.3125,1.3125v.9375h3.975zm-5.025-1.2h-3.45v1.2h3.45v-1.2z" fill="#fff"/><path fill-rule="evenodd" clip-rule="evenodd" d="m3.70496,2.63245-1.0575,1.0575L19.9875,21.0374l1.065-1.065L3.70496,2.63245z" fill="#eb0000"/></svg>