<svg width="36" height="36" viewBox="0,0,36,36" xmlns="http://www.w3.org/2000/svg"><path fill-rule="evenodd" clip-rule="evenodd" d="m18.2559,7.76135c-2.0486.0903-3.9481.7399-5.5547,1.79637l.5495.83558c1.5771-1.0372,3.4636-1.64281,5.4988-1.64281,5.5393,0,10,4.46061,10,10.00001,0,2.0351-.6057,3.9216-1.6428,5.4988l.8355.5494c1.0565-1.6066,1.7061-3.5062,1.7964-5.5548h3.2598v-1h-3.2603c-.2557-5.6871-4.7952-10.22649-10.4822-10.48206V4.50049h-1v3.26086zM4.5,18.2505h3.26179c.11827-2.6662,1.17815-5.0822,2.85851-6.9228L7.25925,7.96685l.70708-.70713L30.2413,29.5332l-.707.7071-3.3605-3.3602c-1.8393,1.6784-4.2535,2.7393-6.9179,2.8589v3.2608h-1v-3.2603c-5.6947-.25-10.2414-4.7951-10.49409-10.489H4.5v-1zm20.9658,7.9217-2.4861-2.486c-1.1368.9748-2.6149,1.5634-4.229,1.5634-3.5895,0-6.5-2.9103-6.5-6.4985,0-1.6153.5885-3.0933,1.5631-4.2301l-2.4855-2.4854c-1.6041,1.773-2.57757,4.1255-2.57757,6.7147,0,5.5394,4.46067,10,9.99997,10,2.5892,0,4.9419-.9747,6.7151-2.5781zM14.5234,15.2305c-.7954.9541-1.2727,2.1808-1.2727,3.5206,0,3.0357,2.4626,5.4985,5.5,5.4985,1.3386,0,2.5653-.4774,3.5194-1.2729l-7.7467-7.7462zm4.2272-1.9796c-.8027,0-1.5623.1806-2.2555.494l-.412-.9111c.8127-.3676,1.7122-.5829,2.6675-.5829,3.5895,0,6.5,2.9087,6.5,6.5,0,.9559-.2172,1.8539-.5844,2.666l-.9112-.4121c.3138-.6939.4956-1.4519.4956-2.2539,0-3.0388-2.4626-5.5-5.5-5.5z"/></svg>