<svg width="24" height="24" viewBox="0,0,24,24" xmlns="http://www.w3.org/2000/svg"><path fill-rule="evenodd" clip-rule="evenodd" d="m22.5,0h-21C.675,0,0,.675,0,1.5v21c0,.825.675,1.5,1.5,1.5h21c.825,0,1.5-.675,1.5-1.5v-21c0-.825-.675-1.5-1.5-1.5z" fill="#2d327d"/><path fill-rule="evenodd" clip-rule="evenodd" d="m19.1475,3H6s1.845,2.7375,1.845,11.5425h2.385c.045-.5475.4125-1.0275.9375-1.215.09-.03.1875-.045.285-.045.4725,0,.855.3825.855.855v.405h8.6775C21.015,5.7375,19.1475,3,19.1475,3z" fill="#fff"/><path fill-rule="evenodd" clip-rule="evenodd" d="m4.82251,21-1.5075-1.5075c-.1275-.1275-.195-.3-.195-.4725,0-.18.0675-.345.195-.4725l.21-.21,1.98,1.98.225-.225L3.30751,17.67c-.1275-.1275-.195-.2925-.195-.4725s.0675-.345.195-.4725l.21-.21,2.895,2.895.225-.225-3.345-3.345c-.1275-.1275-.195-.2925-.195-.4725,0-.1725.0675-.345.195-.4725l.21-.21,3.8175,3.8175.225-.225-4.335-4.3275c-.1275-.1275-.2025-.3075-.2025-.4875,0-.3825.3075-.69.69-.69.18,0,.36.075.4875.2025l4.1175,4.11c.135.1425.33.2175.525.2175H10.005c.285,0,.5175-.2325.5175-.5175v-2.1075c0-.4725.3-.8925.7425-1.05.06-.0225.12-.03.1875-.03.3075,0,.555.2475.555.555V21H4.82251z" fill="#fff"/></svg>