<svg width="36" height="36" viewBox="0,0,36,36" xmlns="http://www.w3.org/2000/svg"><path fill-rule="evenodd" clip-rule="evenodd" d="m29.7501,3.15088V23.25H29.75c0,2.7614-2.2386,5-5,5s-5-2.2386-5-5,2.2386-5,5-5c1.6356,0,3.0878.7854,4.0001,1.9996V8.84908L13.25,11.6673V27.75c0,2.7614-2.2386,5-5,5-2.76142,0-5-2.2386-5-5s2.23858-5,5-5c1.6356,0,3.0878.7853,4,1.9995V6.3327l.4106-.07465,16.5-3,.5895-.10717zM13.25,10.6509l15.5001-2.81822V4.34909L13.25,7.16727v3.48363zm-5,13.0991c2.2091,0,4,1.7908,4,4,0,2.2091-1.7909,4-4,4-2.20914,0-4-1.7909-4-4,0-2.2092,1.79086-4,4-4zm12.5-.5c0-2.2092,1.7909-4,4-4s4,1.7908,4,4c0,2.2091-1.7909,4-4,4s-4-1.7909-4-4z"/></svg>