<svg width="27" height="16" viewBox="0,0,27,16" xmlns="http://www.w3.org/2000/svg"><path fill-rule="evenodd" clip-rule="evenodd" d="m8.302,3.13252c1.019,0,2.08.29177,2.9.69889l.66-2.23043C10.722,1.15509,9.462,1,8.241,1,5.56,1,3.04,2.24074,3.04,5.09153c0,1.97842,1.43273,2.75499,2.72645,3.45621C6.83132,9.12493,7.802,9.65106,7.802,10.7543c0,1.454-1.321,2.1132-2.662,2.1132-1.2,0-2.34-.4469-3.42-.9315L1,14.2439C2.26,14.6898,3.64,15,4.98,15c3.061,0,5.742-1.202,5.742-4.518,0-2.13786-1.53749-3.01699-2.86504-3.77608C6.84839,6.12923,5.961,5.62182,5.961,4.68441c0-1.16319,1.34-1.55189,2.341-1.55189zm8.8192,9.50238h-1.301l2.001-9.26971h.96c2.52,0,4.221,1.14477,4.221,3.25888,0,3.72323-1.84,6.01083-5.881,6.01083zm2.56-11.40227h-4.201l-2.94,13.53477h4.701c7.041,0,8.682-4.615,8.682-7.75661,0-4.69251-3.321-5.77816-6.242-5.77816z"/></svg>