<svg width="36" height="36" viewBox="0,0,36,36" xmlns="http://www.w3.org/2000/svg"><path fill-rule="evenodd" clip-rule="evenodd" d="m7.25,5.75c-.82843,0-1.5.67157-1.5,1.5v2h24.5v-2c0-.82843-.6716-1.5-1.5-1.5H7.25zm1.30902,9.5-2.5-5H29.941l-2.5,5H8.55902zm.05136,1-2.66667,8H30.0563l-2.6667-8H8.61038zM5.75,28.75v-3.5h24.5v3.5c0,.8284-.6716,1.5-1.5,1.5H7.25c-.82843,0-1.5-.6716-1.5-1.5zm-1-21.5c0-1.38071,1.11929-2.5,2.5-2.5h21.5c1.3807,0,2.5,1.11929,2.5,2.5v2.61803l-.0528.10558-2.9074,5.81479,2.9345,8.8035.0257.077V28.75c0,1.3807-1.1193,2.5-2.5,2.5H7.25c-1.38071,0-2.5-1.1193-2.5-2.5v-4.0811l.02566-.077,2.93451-8.8035L4.80279,9.97361,4.75,9.86803V7.25zm19.25,21h3v-1h-3v1z"/></svg>