<svg width="24" height="24" viewBox="0,0,24,24" xmlns="http://www.w3.org/2000/svg"><path fill-rule="evenodd" clip-rule="evenodd" d="m22.5,0h-21C.675,0,0,.675,0,1.5v21c0,.825.675,1.5,1.5,1.5h21c.825,0,1.5-.675,1.5-1.5v-21c0-.825-.675-1.5-1.5-1.5z" fill="#2d327d"/><path fill-rule="evenodd" clip-rule="evenodd" d="m20.25,17.0625-2.235,1.68L15.78,17.22,21,11.25l-1.3125-.75-8.1825,3.8025L6.6825,11.01c-.585-.39-1.2675-.6-1.9725-.6-.345,0-.69.0525-1.02.15-.4425.135-.75.5475-.75,1.0125,0,.21.06.4125.18.585.3.4575.69.8475,1.14,1.155l9.315,6.3525,5.175,1.3425,2.4375-3.2475-.9375-.6975z" fill="#fff"/><path fill-rule="evenodd" clip-rule="evenodd" d="m5.21251,4.38001c-.015.2325-.0975.435-.2325.6-.18.2175-.4425.3225-.7725.3225-.3525,0-.63-.1275-.8325-.375-.1725-.2175-.255-.48-.255-.8025,0-.3375.0975-.615.3-.84s.465-.3375.8025-.3375c.3075,0,.5625.105.75.3075.135.1425.21.3075.225.5025h-.4875c-.03-.1275-.0825-.225-.1725-.2925s-.195-.105-.33-.105c-.21,0-.375.09-.48.27-.0825.135-.12.3-.12.5025s.045.375.1275.51c.105.1725.2625.2625.4725.2625.15,0,.2625-.045.3525-.1275s.1425-.2175.165-.3825l.4875-.015z" fill="#fff"/><path fill-rule="evenodd" clip-rule="evenodd" d="m5.95501,3v.8025c.0525-.09.12-.1575.21-.21s.1875-.075.3-.075c.225,0,.3825.0825.48.24.06.09.0825.2325.0825.4275V5.25h-.4425v-.99c0-.12-.015-.21-.0525-.255-.0525-.0675-.1275-.105-.2325-.105-.1425,0-.24.06-.3.1875-.015.0375-.03.0825-.0375.1275s-.0075.12-.0075.2175v.825h-.4425V3h.4425z" fill="#fff"/><path fill-rule="evenodd" clip-rule="evenodd" d="m8.76001,4.98746c.06-.0825.105-.165.1275-.2625h-.4275c-.03.075-.075.135-.1275.1725s-.12.0525-.2025.0525c-.1725,0-.285-.0675-.345-.2175-.0225-.0525-.03-.12-.0375-.2025h1.17c0-.2025-.015-.3675-.0675-.495s-.12-.24-.225-.33c-.1425-.1275-.315-.1875-.5175-.1875-.2475,0-.45.09-.6075.2775-.1425.165-.21.3675-.21.615,0,.12.015.2475.06.36.045.105.0975.2025.1725.2775.15.1575.3525.24.6.24.2775,0,.4875-.09751.6375-.3zm-.30073-.765c.00026.00248.0005.00498.00073.0075v-.0075h-.00073zm0,0c-.00814-.0791-.02996-.1441-.05177-.195-.03-.0525-.0675-.0975-.12-.1275s-.1125-.045-.1725-.045c-.0975,0-.18.03-.2475.0975s-.105.1575-.1125.27h.70427z" fill="#fff"/><path fill-rule="evenodd" clip-rule="evenodd" d="m10.74,4.60502c-.0225.165-.075.3075-.165.42-.1425.18-.3525.27-.615.27-.27,0-.4875-.09-.6375-.2775-.1275-.1575-.195-.3525-.195-.5925,0-.2925.0825-.5175.255-.6825.15-.1425.345-.2175.5775-.2175.2175,0,.3975.06.5325.1725s.2175.27.2325.465h-.435c-.015-.09-.0525-.1575-.1125-.21s-.1275-.075-.2175-.075c-.1275,0-.2175.045-.285.1425s-.105.225-.105.3975c0,.15.03.27.0825.36.0675.1125.165.165.3.165.195,0,.315-.1125.345-.3375h.4425z" fill="#fff"/><path fill-rule="evenodd" clip-rule="evenodd" d="m12.57,3.57-.615.6225.6825,1.0575h-.54l-.45-.7425-.18.1725v.57h-.4425V3h.4425v1.17l.57-.6h.5325z" fill="#fff"/><path fill-rule="evenodd" clip-rule="evenodd" d="m13.5525,4.2075v.3975h-.855v-.3975h.855z" fill="#fff"/><path fill-rule="evenodd" clip-rule="evenodd" d="m14.3925,3.405V3H13.95v.405h.4425zm0,1.845V3.57H13.95v1.68h.4425z" fill="#fff"/><path fill-rule="evenodd" clip-rule="evenodd" d="m15.1725,3.56996v.2325c.0525-.075.0975-.1275.1425-.1575.1125-.0825.2475-.1275.3975-.1275.135,0,.255.0375.3525.105.075.0525.1275.1275.1575.21s.045.2025.045.36v1.0575h-.4425v-.96c0-.105-.0075-.1875-.03-.24-.015-.045-.045-.0825-.09-.105-.045-.03-.105-.045-.165-.045-.0675,0-.1275.015-.1875.0525-.0525.03-.0975.075-.12.135-.03.06-.045.165-.045.3v.8625h-.4425v-1.68h.4275z" fill="#fff"/></svg>