<svg width="24" height="24" viewBox="0,0,24,24" xmlns="http://www.w3.org/2000/svg"><path fill-rule="evenodd" clip-rule="evenodd" d="m2.5,2.99976H2V12.9998h3v3.0281l.85355-.8536L8,13.0279V20h8.0019l2.1445,2.1446.8536.8535V20h3V10h-6V2.99976H2.5zM15,10V3.99976H3v8.00004h3v1.6138l2-2V10h7zm6,9h-3v1.5839l-1.4374-1.4375L16.4161,19H9v-8h12v8zM4,6h10v1H4V6zm8,2H4v1h8V8zm8,5v1H10v-1h10zm0,3v-1H10v1h10zM2,19.5V15h1v4h2.08537l-.91402-.914.70711-.7071,1.768,1.768.35365.3536-.35375.3536-1.768,1.767-.70691-.7073L5.08574,20H2v-.5zM18.9137,5H22v4h-1V6h-2.0859l.914.91399-.7071.70711-1.768-1.768-.3537-.35366.3538-.35355,1.768-1.767.7069.70731L18.9137,5z"/></svg>