<svg width="24" height="24" viewBox="0,0,24,24" xmlns="http://www.w3.org/2000/svg"><path fill-rule="evenodd" clip-rule="evenodd" d="m22.5,0h-21C.675,0,0,.675,0,1.5v21c0,.825.675,1.5,1.5,1.5h21c.825,0,1.5-.675,1.5-1.5v-21c0-.825-.675-1.5-1.5-1.5z" fill="#2d327d"/><path fill-rule="evenodd" clip-rule="evenodd" d="m21.7575,19.2299-8.91-15.42749c-.18-.3-.48-.5175-.8475-.5175-.36,0-.6675.225-.8475.5175L2.24995,19.2374c-.1725.3075-.21.675-.03.99.18.3075.5325.465.8775.4725H20.91c.3525-.0075.69-.1575.87-.4725.18-.3075.1425-.69-.0225-.9975z" fill="#fff"/><path fill-rule="evenodd" clip-rule="evenodd" d="m11.1525,3.80241c.18-.2925.4875-.5175.8475-.5175.3675,0,.6675.2175.8475.5175L21.75,19.2374c.165.3.21.6825.03.99-.18.315-.5175.465-.87.4725H3.09745c-.345-.0075-.6975-.165-.8775-.4725-.18-.315-.1425-.6825.03-.99L11.1525,3.80241zm9.375,15.69749L12,4.73991,3.47995,19.4999H20.5275z" fill="#eb0000"/><path fill-rule="evenodd" clip-rule="evenodd" d="m15.4049,14.4824v1.1025c0,.0675.0525.1125.1125.1125.0675,0,.1125-.0525.1125-.1125v-.9375h.105v2.5125c0,.09.075.165.165.165s.165-.075.165-.165v-1.4625h.105v1.4625c0,.09.075.165.165.165s.165-.075.165-.165v-2.5125h.105v.9375c0,.0675.0525.1125.1125.1125.0675,0,.1125-.0525.1125-.1125v-1.1025c0-.18-.1425-.3225-.3225-.3225h-.7875c-.165,0-.315.1425-.315.3225z"/><path fill-rule="evenodd" clip-rule="evenodd" d="m16.4399,13.7474c0-.18-.1425-.3225-.3225-.3225s-.3225.1425-.3225.3225.1425.3225.3225.3225c.18.0075.3225-.1425.3225-.3225z"/><path fill-rule="evenodd" clip-rule="evenodd" d="m15,17.625h-2.25v1.5h.375V18H15v-.375z" fill="#eb0000"/><path d="m15,17.625V18h3.375v-.375z"/><path fill-rule="evenodd" clip-rule="evenodd" d="m12.75,11.9999v.1575l.1575-.1575H12.75z" fill="#eb0000"/><path fill-rule="evenodd" clip-rule="evenodd" d="m13.2525,11.9998-.5025.5025v.1575l.66-.66h-.1575z" fill="#eb0000"/><path fill-rule="evenodd" clip-rule="evenodd" d="m13.7475,11.9998-.9975.9975v.165l1.1625-1.1625h-.165z" fill="#eb0000"/><path fill-rule="evenodd" clip-rule="evenodd" d="m14.7525,11.9998L12.75,14.0023v.1575l2.16-2.16h-.1575z" fill="#eb0000"/><path fill-rule="evenodd" clip-rule="evenodd" d="m15,12.2473-2.25,2.25v.165l2.25-2.25v-.165z" fill="#eb0000"/><path fill-rule="evenodd" clip-rule="evenodd" d="m15,12.7498-2.25,2.25v.1575l2.25-2.25v-.1575z" fill="#eb0000"/><path fill-rule="evenodd" clip-rule="evenodd" d="m15,13.2524-2.25,2.25v.1575l2.25-2.25v-.1575z" fill="#eb0000"/><path fill-rule="evenodd" clip-rule="evenodd" d="m15,13.7473-2.25,2.25v.165l2.25-2.25v-.165z" fill="#eb0000"/><path fill-rule="evenodd" clip-rule="evenodd" d="m15,14.2498-2.25,2.25v.1575l2.25-2.25v-.1575z" fill="#eb0000"/><path fill-rule="evenodd" clip-rule="evenodd" d="m15,14.7524-2.25,2.25v.1575l2.25-2.25v-.1575z" fill="#eb0000"/><path fill-rule="evenodd" clip-rule="evenodd" d="m14.9999,15.2473-2.0025,2.0025h.165l1.8375-1.8375v-.165z" fill="#eb0000"/><path fill-rule="evenodd" clip-rule="evenodd" d="m15,15.7498-1.5,1.5h.1575L15,15.9073v-.1575z" fill="#eb0000"/><path fill-rule="evenodd" clip-rule="evenodd" d="m15,16.2525-.9975.9975h.1575l.84-.84v-.1575z" fill="#eb0000"/><path fill-rule="evenodd" clip-rule="evenodd" d="m15,16.7473-.5025.5025h.165L15,16.9123v-.165z" fill="#eb0000"/><path fill-rule="evenodd" clip-rule="evenodd" d="m14.25,11.9998-1.5,1.5v.1575l1.6575-1.6575H14.25z" fill="#eb0000"/><path d="m11.25,18.5249v.6h.375v-.6zm-2.625,0v.6H9v-.6z"/><path fill-rule="evenodd" clip-rule="evenodd" d="m12.27,12.645-.54-.54c-.06-.06-.1725-.105-.255-.105h-2.7c-.0825,0-.195.045-.255.105l-.54.54c-.06.06-.105.1725-.105.255v4.575c0,.0825.03.21.0675.285l.24.48c.0375.075.135.135.2175.135h3.45c.0825,0,.18-.06.2175-.135l.24-.48c.0375-.075.0675-.2025.0675-.285V12.9c0-.0825-.045-.195-.105-.255zm-2.52-.195h.75v.3h-.75v-.3zm-1.5,4.05H9v-.3h-.75v.3zm3.75,0h-.75v-.3H12v.3zM8.25,15H12v-1.875H8.25V15z"/><path fill-rule="evenodd" clip-rule="evenodd" d="m11.1149,10.875H9.12743c-.075,0-.135.06-.135.135s.06.135.135.135h.8625v.7125h.26247v-.7125h.8625c.075,0,.135-.06.135-.135s-.06-.135-.135-.135z"/></svg>