<svg width="24" height="24" viewBox="0,0,24,24" xmlns="http://www.w3.org/2000/svg"><path fill-rule="evenodd" clip-rule="evenodd" d="m2,12C2,6.47715,6.47715,2,12,2c5.5228,0,10,4.47715,10,10,0,3.8229-2.1503,7.292-5.319,9H19v1h-4v-4h1v2.2274C18.9555,18.7367,21,15.54,21,12c0-4.97056-4.0294-9-9-9-4.97056,0-9,4.02944-9,9,0,4.9706,4.02944,9,9,9v1C6.47715,22,2,17.5228,2,12zm11.2351-4.8839-.3874-.32328-.3198.39036-.5892.71942-2.23344.57587-.33707-.17255-.26841-.13741L8.853,8.3418,7.18305,9.51452l-.81962.57558.95178.3089-1.43818,1.5083-.08452.0887-.03398.1177-.7389,2.5586-.2385.8259.83578-.201,1.46406-.3521.06556-.0158.05905-.0326.33394-.1842,1.26623,1.1465.16591.1502.22257-.0237,2.15967-.2297.1789-.019.1257-.1286.8413-.8605,1.1226,1.4678.4872.637.3575-.7178.8973-1.8017,2.118.5235.704.174-.0877-.7198-.0879-.7219.4771.0115.5389.013-.0274-.5383-.108-2.1155-.0122-.2395-.1944-.1404-.9187-.6634-.4554-.3288-.2739.4903-.1057.1893-.3219-.0919.2756-.77676.1654-.46614-.4643-.17045-2.4617-.90373-.8891-.74192zM9.13593,9.93861l-.55857-.18129.60357-.42385.23757.12162.16892.08647.18376-.04738,2.57552-.66408.1584-.04083.1036-.12651.3731-.45558.5684.47422.0666.05558.0814.02989,2.0788.76316-.2883.81237-.1781.5018.512.1462,1.2146.3469.3807.1087.1931-.3457.025-.0446.2689.1943.0683,1.3376-.5167-.0125-.5783-.014.0699.5743.0702.5763-1.8029-.4456-.3889-.0961-.1786.3586-.7184,1.4424-.9862-1.2895-.3509-.4588-.4038.413-1.1193,1.1447-1.75828.1871-1.36491-1.2358-.26459-.2396-.31253.1724-.58742.3241-.5627.1353.46642-1.6151,1.90215-1.9949.54849-.57529z"/></svg>