<svg width="24" height="24" viewBox="0,0,24,24" xmlns="http://www.w3.org/2000/svg"><path fill-rule="evenodd" clip-rule="evenodd" d="m2,4h5v6H5v10.9995H4V10H2V4zm1,1v4h3V5H3zm8,3.99951c-1.10486,0-2,.89514-2,1.99999v2.001h5.0499c.2314-1.1413,1.2408-2.001,2.4501-2.001s2.2187.8597,2.4501,2.001H20v-2.001c0-1.10485-.8951-1.99999-2-1.99999h-7zm6.9149,4.00099c-.2059-.5829-.762-1.001-1.4149-1.001s-1.209.4181-1.4149,1.001h2.8298zM9,17.9995v-3.999h11v3.999H9zm-1-7c0-1.65713,1.34286-2.99999,3-2.99999h7c1.6571,0,3,1.34286,3,2.99999v1.001h1v1h-1v7.999h-3.999v-2H12v2H8v-7.999H7v-1h1v-1.001zm10.001,8v1H20v-1h-1.999zm-9.001,0h2v1H9v-1zm1-3c0-.5505.4472-1,1-1s1,.4495,1,1c0,.5522-.4479,1-1,1s-1-.4478-1-1zm8-1c-.5528,0-1,.4495-1,1,0,.5522.4479,1,1,1s1-.4478,1-1c0-.5505-.4472-1-1-1z"/></svg>