<svg width="24" height="24" viewBox="0,0,24,24" xmlns="http://www.w3.org/2000/svg"><path fill-rule="evenodd" clip-rule="evenodd" d="m6.99999,8c0-2.76142,2.23858-5,5.00001-5,2.7614,0,5,2.23858,5,5,0,2.7614-2.2386,5-5,5-2.76143,0-5.00001-2.2386-5.00001-5zM12,2C8.68629,2,5.99999,4.68629,5.99999,8c0,1.86726.85298,3.5353,2.19054,4.6357l-4.11454,6.5832-.73688,1.1791,1.319-.4397,2.5886-.8629.80607,1.6122.44721.8944.44722-.8944,3.04869-6.0975,3.0569,6.1137.4472.8944.4472-.8944.8061-1.6121,2.5886.8628,1.319.4397-.7369-1.179-4.1212-6.594C17.1442,11.5409,18,9.87038,18,8c0-3.31371-2.6863-6-6-6zm-.7912,11.9483c-.7905-.1041-1.53254-.3622-2.19499-.743l-3.35293,5.3646,1.681-.5603.41139-.1371.19394.3878L8.5,19.3659l2.7088-5.4176zm3.7699-.7387c-.6627.3797-1.4047.6366-2.1951.7397L15.5,19.3821l.5528-1.1055.1939-.3879.4114.1371,1.681.5604-3.3604-5.3766zm.3748-6.85605-4,4.00005L11,10.7071l-.3536-.3535L8.64644,8.35355l.70711-.7071L11,9.29289l3.6464-3.64644.7071.7071z"/></svg>