<svg width="36" height="36" viewBox="0,0,36,36" xmlns="http://www.w3.org/2000/svg"><path fill-rule="evenodd" clip-rule="evenodd" d="m18,4.24951c-7.5944,0-13.75,6.15569-13.75,13.74999,0,7.5944,6.1556,13.75,13.75,13.75s13.75-6.1556,13.75-13.75c0-7.5943-6.1556-13.74999-13.75-13.74999zM3.25,17.9995C3.25,9.85287,9.85336,3.24951,18,3.24951c8.1466,0,14.75,6.60336,14.75,14.74999,0,8.1467-6.6034,14.75-14.75,14.75-8.14664,0-14.75-6.6033-14.75-14.75zm14.75.7071-7.1464,7.1465-.7072-.7071,7.1465-7.1465-7.1465-7.1464.7072-.7071L18,17.2924l7.1464-7.1464.7072.7071-7.1465,7.1464,7.1465,7.1465-.7072.7071L18,18.7066z"/></svg>