<svg width="48" height="48" viewBox="0,0,48,48" xmlns="http://www.w3.org/2000/svg"><path fill-rule="evenodd" clip-rule="evenodd" d="m23.4291,5.6019c-.3-1.13912-1.4941-1.87991-2.6571-1.50431C12.8803,6.64626,6.6466,12.8994,4.09803,20.8268c-.31727.9869.15958,2.0022,1.00546,2.4733-.28947.2747-.49616.6422-.563,1.0765-.45687,2.9686-.26461,6,.54407,8.881.23236.8278.97472,1.3522,1.77526,1.3964.62632,3.0341,2.1205,5.5475,3.77828,7.1965.868.8633,1.7964,1.5051,2.688,1.8528.8856.3454,1.794.4205,2.5563.0443.7748-.3824,1.3052-1.124,1.6527-2.0008.3492-.8811.5358-1.9515.5904-3.0854.0998-2.0752-.2392-4.446-.9286-6.4278.6931-.1728,1.1979-.7103,1.3967-1.3609.2487-.8138.5694-1.5905.9566-2.3196.2465-.4641.289-.9732.1667-1.4331l1.4103.3616c.8138.2087,1.6457-.096,2.1636-.7307,1.0476-1.2837,2.2059-2.4674,3.4776-3.5161.6369-.5251.943-1.3682.7261-2.1921l-.1104-.4194c.4583.1179.964.0702,1.4246-.1833.7204-.3966,1.4887-.7266,2.2943-.9845.6105-.1954,1.1144-.6636,1.3078-1.2994,1.9752.6657,4.3189.972,6.3638.8411,1.1174-.0715,2.1703-.2749,3.0352-.639.8615-.3627,1.5848-.9065,1.9536-1.6863.3618-.7651.2837-1.6715-.0614-2.5559-.3473-.8901-.9844-1.8147-1.8409-2.6771-1.631-1.64204-4.1113-3.11306-7.1093-3.71899-.0104-.8406-.5447-1.63849-1.4092-1.87528-2.8715-.78646-5.8867-.9509-8.8332-.46236-.4002.06635-.741.25224-1.0034.51178l-.0769-.29215zm15.2816,12.3974c-1.9507.1248-4.2052-.1777-6.0707-.8216l1.9435-8.47154c2.7869.56969,5.0791,1.93844,6.5681,3.43754.786.7913,1.3333,1.604,1.6188,2.3358.2878.7376.291,1.3378.089,1.7649-.2253.4764-.7044.8834-1.4376,1.1921-.73.3073-1.6644.4958-2.7111.5628zM6.716,23.7863l.00003-.0001,11.38467,2.9193c.5757.1718.8573.8307.5663,1.3785-.4179.7869-.7628,1.623-1.0297,2.4965-.1081.3536-.3685.6067-.688.6842l-9.74899,2.3649c-.50771.1232-1.0208-.1714-1.15296-.6423-.77059-2.7453-.95341-5.6327-.51849-8.4586.08074-.5246.6332-.8844,1.18714-.7424zm11.5959,1.9403-.0002.0007L5.86044,22.5344c-.62898-.1612-.99886-.8153-.8104-1.4015C7.50055,13.5105,13.4952,7.49851,21.0793,5.04919c.5707-.18432,1.2163.1751,1.3827.80733l.5144,1.95383.0053.02053.0001-.00003,2.9994,11.39185h-.0001l.0068.0252v.0001l.5396,2.0493c.1114.4233-.0404.8733-.3953,1.166-1.3267,1.094-2.5308,2.3253-3.6162,3.6554-.2863.3509-.7262.5005-1.1404.3942l-3.0103-.7719c-.0177-.005-.0355-.0098-.0534-.0144zm-6.9686,15.4149c-1.51224-1.5042-2.90195-3.8239-3.49386-6.6404l8.37076-2.0305c.667,1.873,1.0019,4.1579.9064,6.1427-.0512,1.0648-.2252,2.0184-.5212,2.7651-.2976.7511-.6967,1.241-1.1656,1.4724-.4186.2066-1.0126.2086-1.7504-.0791-.732-.2855-1.5483-.8367-2.3461-1.6302zm16.9832-21.5776c-.5398.2971-1.2049.0188-1.3736-.5781L23.945,7.56165v-.00012c-.1386-.55957.2188-1.1083.728-1.19273,2.8022-.46462,5.6715-.30848,8.4054.44031.4642.12714.7674.64034.6483,1.15979l-2.256,9.8338c-.0748.3258-.3252.5892-.6725.7004-.8658.2772-1.6936.6325-2.4717,1.0608zm1.8678-10.15297c-.7728-.1094-1.5523-.16488-2.3315-.16488v-1c1.013,0,2.0255.08837,3.0242.26183l.5197.09028-.118.51413-.2476,1.07971-.9747-.22352.1279-.55755zM8.60592,30.0592c-.15857-1.0655-.21674-2.1455-.17269-3.2171l-.99916-.0411c-.05431,1.3214.03812,2.6539.27409,3.96l.09432.5222.51562-.1252,1.21973-.296-.23582-.9717-.69609.1689zM20.3143,7.53576c-.8587.34349-2.2589,1.00601-3.7002,1.88773-1.4363.87861-2.9475,1.99561-3.9982,3.25641l.7682.6402c.9493-1.1392,2.3548-2.1889,3.7519-3.0436,1.392-.85159,2.7418-1.48908,3.5497-1.81226l-.3714-.92848z"/></svg>