<svg width="24" height="24" viewBox="0,0,24,24" xmlns="http://www.w3.org/2000/svg"><path fill-rule="evenodd" clip-rule="evenodd" d="m22.5,0h-21C.675,0,0,.675,0,1.5v21c0,.825.675,1.5,1.5,1.5h21c.825,0,1.5-.675,1.5-1.5v-21c0-.825-.675-1.5-1.5-1.5z" fill="#237f52"/><path fill-rule="evenodd" clip-rule="evenodd" d="m17.9776,12.18c-.18-.255-.3975-.4125-.3975-.4125l-.735-.435-1.185-.69c-.0525-.015-.0975-.0225-.1425-.0225-.1275,0-.225.06-.2925.165-.03.0525-.045.1425-.0525.1575-.06.255.105.555.3225.69l.96.57.3.18-2.1375,3.705c.5025.315.5475.3075.5625.3075.2025.105.3975.2175.6225.2175l2.0025.0075,3.195,1.8975v-3.42l-1.7325-1.02c-.0001.015-1.185-1.7475-1.29-1.8975z" fill="#fff"/><path fill-rule="evenodd" clip-rule="evenodd" d="m20.64,18.57v.63c0,.135-.1125.2475-.2475.2475H3.6075c-.135,0-.2475-.1125-.2475-.2475V6.6075c0-.135.1125-.2475.2475-.2475h16.785c.135,0,.2475.1125.2475.2475v8.0475l.36.21V6.6075C21,6.27,20.73,6,20.3925,6H3.6075C3.27,6,3,6.27,3,6.6075V19.2c0,.3375.27.6075.6075.6075h16.785c.3375,0,.6075-.27.6075-.6075v-.42l-.1125-.0675L20.64,18.57z" fill="#fff"/><path fill-rule="evenodd" clip-rule="evenodd" d="m19.2676,14.0924s-1.185-1.7625-1.29-1.905c-.18-.255-.3975-.4125-.3975-.4125l-.735-.435-1.185-.69c-.0525-.015-.0975-.0225-.1425-.0225-.1275,0-.225.06-.2925.165-.03.0525-.045.1425-.0525.1575-.06.255.105.555.3225.69l.96.57.3.18-2.1375,3.705c.5025.315.5475.3075.5625.3075.2025.105.3975.2175.6225.2175l2.0025.0075,2.835,1.6875.36.21v-3.42l-.36-.21-1.3725-.8025z" fill="#fff"/><path fill-rule="evenodd" clip-rule="evenodd" d="m16.83,11.0775.3075.18.705-1.23,1.4175.81.855-1.47753-2.64-1.515-2.265.6675,1.4325.8325-.6975,1.22253.885.51z" fill="#fff"/><path fill-rule="evenodd" clip-rule="evenodd" d="m15.8325,12.0825-.1875-.1125c.0225.1425,0,.2925-.075.42-.09.15-.24.255-.405.2925.03.0375.0525.075.075.12.0825.18.0675.3975-.03.5625-.105.18-.2925.2925-.5025.3075,0,.0075.0075.015.0075.015.0825.18.0675.39-.03.5625-.105.18-.3.2925-.5025.3075.0075.015.015.03.0225.045.0825.18.0675.39-.03.57-.1125.1875-.315.3075-.54.3075-.1125,0-.2175-.03-.315-.09l-.105-.06-.2925.5025.8775.51.3375.195,2.325-4.0875-.63-.3675z" fill="#fff"/><path fill-rule="evenodd" clip-rule="evenodd" d="m8.29498,8.31748h-2.2575v-.35999h2.175l1.3125-.66,1.44002.38249-.0975.345-1.30502-.345-1.2675.6375z" fill="#fff"/><path fill-rule="evenodd" clip-rule="evenodd" d="m14.55,9.18002-.795-.8625h-.7275v-.36h.885l.9.9825-.2625.24z" fill="#fff"/><path fill-rule="evenodd" clip-rule="evenodd" d="m7.96496,9.33006-.135-.3375,1.5675-.63.74254.3.7575-.3525.15.33-.9.4125-.75004-.3-1.4325.5775z" fill="#fff"/><path fill-rule="evenodd" clip-rule="evenodd" d="m11.19,13.4025-.6375-1.725L11.49,10.47l.1725-1.33499.3525.0525-.18,1.42499-.8775,1.125.57,1.5375-.3375.1275z" fill="#fff"/><path fill-rule="evenodd" clip-rule="evenodd" d="m14.34,13.59-.105-.06-.015-.0075-.1875-.1125-.5475-.33c-.0675-.0375-.1425-.06-.21-.06-.135,0-.27.0675-.345.195-.075.12-.075.2625-.0225.3825.03.075.09.135.1575.18l.555.33.1875.1125.0225.015.105.06c.0675.0375.135.0525.2025.0525.1425,0,.2775-.075.3525-.2025.0675-.12.075-.255.0225-.3675-.0375-.075-.0975-.1425-.1725-.1875z" fill="#fff"/><path fill-rule="evenodd" clip-rule="evenodd" d="m14.0625,13.17-.1875-.1125-.555-.33c-.075-.045-.1275-.1125-.1575-.18-.0525-.12-.045-.2625.0225-.3825.075-.1275.21-.195.345-.195.075,0,.15.0225.21.06l.5475.33.45.27.12.0675c.075.045.135.1125.165.1875.0525.1125.045.255-.0225.3675-.075.1275-.21.2025-.3525.2025-.0675,0-.1425-.015-.2025-.0525l-.1125-.0675-.27-.165z" fill="#fff"/><path fill-rule="evenodd" clip-rule="evenodd" d="m14.82,12.4274-.06-.0375-.1875-.1125-.555-.33c-.075-.045-.1275-.1125-.1575-.18-.0525-.12-.045-.2625.0225-.3825.075-.1275.21-.195.345-.195.075,0,.15.0225.21.06l.5475.33.1875.1125.0525.03c.0075.0075.015.015.0225.015.06.045.1125.105.1425.1725.0525.1125.045.255-.0225.3675-.075.1275-.21.2025-.3525.2025-.06,0-.1125-.015-.1725-.0375,0-.0075-.0075-.0075-.0225-.015z" fill="#fff"/><path fill-rule="evenodd" clip-rule="evenodd" d="m13.9725,15.0674c-.075.1275-.21.2025-.3525.2025-.0675,0-.1425-.015-.2025-.0525l-.105-.0675-.015-.0075-.1875-.1125-.1425-.0825c-.075-.045-.1275-.1125-.1575-.18-.0525-.12-.045-.2625.0225-.3825.075-.1275.21-.195.345-.195.075,0,.15.0225.21.06l.135.0825.1875.1125h.0075l.1125.0675c.075.045.135.1125.165.1875.0525.1125.045.2475-.0225.3675z" fill="#fff"/><path fill-rule="evenodd" clip-rule="evenodd" d="m12.5925,8.13746c0-.3375-.2775-.615-.615-.615s-.615.2775-.615.615.2775.615.615.615c.3375.0075.615-.27.615-.615z" fill="#eb0000"/></svg>