<svg width="24" height="24" viewBox="0,0,24,24" xmlns="http://www.w3.org/2000/svg"><path fill-rule="evenodd" clip-rule="evenodd" d="m13,3.0002v2.01615c1.0005.06487,1.9456.32314,2.7985.73812l1.0626-1.79452.8605.50949-1.0551,1.78194c.6393.42541,1.2087.9466,1.688,1.54361l1.7248-.97704.4929.8701-1.6429.93066c.6.99679.9745,2.14689,1.0546,3.38149H22v1h-2.0162c-.0614.9466-.2959,1.8436-.6726,2.6599l1.6139,1.03-.538.843-1.5561-.9932c-.5826.9152-1.3586,1.6936-2.2719,2.279l.8812,1.6445-.8814.4722-.876-1.6348c-.8224.3829-1.7274.6213-2.6829.6832v2.0157h-1V19.984c-.9846-.0638-1.9155-.315-2.75767-.7185l-.97963,1.7296-.87013-.4928.97895-1.7284c-.99218-.6516-1.81809-1.5327-2.40413-2.5698l-1.69131.9573-.49259-.8702,1.75061-.9909c-.28632-.7175-.46544-1.4907-.51794-2.3001H3v-1h2.01615c.06253-.9645.30477-1.8774.69385-2.70593L3.91127,8.22924l.50949-.86048,1.77431,1.05058c.54262-.84032,1.24905-1.56348,2.07527-2.12545l-.95057-1.67917L8.19,4.12208l.94315,1.66606C10.0038,5.35346,10.9727,5.08296,12,5.01635V3.0002h1zM9.73661,18.3928c.83699.39,1.77309.6074,2.76339.6074,3.4425,0,6.229-2.6269,6.4814-6h-3.0155c-.2366,1.715-1.6768,3-3.4659,3-.4524,0-.8825-.0822-1.2765-.2327l-1.48689,2.6253zm.61419-3.1134-1.48517,2.6221C7.13253,16.7383,6,14.7603,6,12.5002c0-2.2167,1.08879-4.16133,2.76495-5.33259l1.48915,2.63056C9.48389,10.4358,9,11.4023,9,12.5002c0,1.1431.52458,2.1438,1.3508,2.7792zM11.1092,9.27886,9.62667,6.65993C10.4914,6.23707,11.4661,6.0002,12.5,6.0002c3.4425,0,6.2291,2.62608,6.4814,6h-3.0155c-.2366-1.715-1.6768-3-3.4659-3-.4965,0-.9662.09898-1.3908.27866zM10,12.5002c0-1.4069,1.0931-2.5,2.5-2.5s2.5,1.0931,2.5,2.5-1.0931,2.5-2.5,2.5-2.5-1.0931-2.5-2.5z"/></svg>