<svg width="24" height="24" viewBox="0,0,24,24" xmlns="http://www.w3.org/2000/svg"><path fill-rule="evenodd" clip-rule="evenodd" d="m21.9998,6.00012v7.99398l-.2572.1428-8.099,4.5-.0105.0059-.2323-.4429c.2322.4428.2321.4428.2319.4429l-.0003.0002-.0005.0003-.0048.0024-.0093.0047c-.0073.0037-.0169.0084-.0286.014-.0235.0111-.0558.0259-.0962.0429-.0807.0341-.1946.0778-.3364.1209-.2828.0861-.6828.1717-1.1568.1717-.4737,0-.8734-.0857-1.1561-.1717-.1418-.0431-.2555-.0868-.3362-.1209-.0404-.017-.0727-.0318-.0962-.0429-.0118-.0056-.0213-.0103-.0286-.014l-.0093-.0047-.0034-.0017-.0013-.0007-.0006-.0003-.0003-.0002c-.0001-.0001-.0003-.0001.232-.4429l-.2323.4428-.0106-.0056v-.0001l-8.09997-4.5-.25717-.1429V6.00027l.74275.41249,2.51317,1.39569,3.69605-1.16253.01436-.00452.0146-.00364c1.15051-.28713,2.18011-.05295,3.07351.59427.8886-.60836,1.8556-.94461,2.897-.60868.0008.00027.0017.00054.0025.00082l3.7906,1.18454,2.5126-1.39591.7429-.41268zm-10.7713,1.8837c-.6034-.35957-1.25647-.45944-1.99157-.27931L5.35078,8.82684l-.20495.06447L4.958,8.787,2.99976,7.69948v5.70622l7.83354,4.3519.0073.0036c.011.0052.0299.0139.0561.025.0524.0221.1334.0535.2381.0853.2103.064.5106.1284.865.1284.3549,0,.6554-.0644.8659-.1284.1047-.0319.1857-.0632.2382-.0853.0261-.0111.045-.0198.056-.025l.0073-.0036,4.9756-2.7645-3.4993-3.6328-4.2187,2.0866-.0012.0006c-.81363.4071-1.65903.1864-2.13582-.3821-.48732-.581-.5329-1.4546.07826-2.1861l.00744-.0089.00784-.0085c.19898-.2169.39658-.4349.59287-.6515.77039-.85,1.52061-1.67774,2.25431-2.32658zm7.8188,6.60668,1.9525-1.0848V7.69964l-1.9572,1.08732-.1874.10409-.2046-.06393-4.0048-1.2515v-.00003c-.7425-.24028-1.5147.03842-2.4619.8084-.7717.62731-1.564,1.50084-2.4461,2.47341-.19888.2193-.40233.4436-.61113.6713-.30502.3711-.23542.7001-.07269.8941.17423.2078.51572.3341.92273.1301l.00237-.0012,4.54902-2.25.3279-.1622.2539.2635,3.9374,4.0875z"/></svg>