<svg width="24" height="24" viewBox="0,0,24,24" xmlns="http://www.w3.org/2000/svg"><path fill-rule="evenodd" clip-rule="evenodd" d="m22.5,0h-21C.675,0,0,.675,0,1.5v21c0,.825.675,1.5,1.5,1.5h21c.825,0,1.5-.675,1.5-1.5v-21c0-.825-.675-1.5-1.5-1.5z" fill="#2d327d"/><path fill-rule="evenodd" clip-rule="evenodd" d="m11.2726,18.9975V21H3.17261c0-.6075.0975-1.1925.2925-1.7475s.4725-1.0275.8325-1.4325c.2775-.3074.6-.6074.975-.9.375-.2925,1.11-.825,2.22-1.605.54-.375.915-.72,1.1325-1.0425.2175-.3224.3225-.6975.3225-1.125,0-.495-.1425-.8925-.435-1.1925-.2925-.3075-.6675-.4575-1.14-.4575-1.155,0-1.755.8325-1.7925,2.4975h-2.16v-.2475c0-1.365.3825-2.4225,1.1475-3.165.7425-.72745,1.7025-1.09495,2.8875-1.09495,1.0425,0,1.92.3,2.62499.89245.765.645,1.1475,1.515,1.1475,2.61,0,.9525-.3075,1.7775-.915,2.46-.2025.225-.38999.405-.56249.54s-.63.465-1.38.9825c-.705.4951-1.215.8701-1.5225,1.1325-.3075.2625-.585.5625-.8475.9l5.27249-.0075z" fill="#fff"/><path fill-rule="evenodd" clip-rule="evenodd" d="m20.8201,18.9975V21h-8.1c0-.6075.0975-1.1925.2925-1.7475s.4725-1.0275.8325-1.4325c.2775-.3074.6-.6074.975-.9.375-.2925,1.11-.825,2.22-1.605.54-.375.915-.72,1.1325-1.0425.2175-.3224.3225-.6975.3225-1.125,0-.495-.1425-.8925-.435-1.1925-.2925-.3075-.6675-.4575-1.14-.4575-1.155,0-1.755.8325-1.7925,2.4975h-2.16v-.2475c0-1.365.3825-2.4225,1.1475-3.165.7425-.72745,1.7025-1.09495,2.8875-1.09495,1.0425,0,1.92.3,2.625.89245.765.645,1.1475,1.515,1.1475,2.61,0,.9525-.3075,1.7775-.915,2.46-.2025.225-.39.405-.5625.54s-.63.465-1.38.9825c-.705.4951-1.215.8701-1.5225,1.1325-.3075.2625-.585.5625-.8475.9l5.2725-.0075z" fill="#fff"/><path fill-rule="evenodd" clip-rule="evenodd" d="m5.03255,3-.75,2.25h-.555L2.99255,3h.51l.5025,1.68751L4.51505,3h.5175z" fill="#fff"/><path fill-rule="evenodd" clip-rule="evenodd" d="m6.47251,3.76502c-.1575-.1575-.3525-.24-.6-.24-.27,0-.4875.09-.645.2625-.1425.165-.2175.3675-.2175.6225s.075.465.225.63c.15.17251.36.255.6225.255.2475,0,.45-.08249.6-.23249.165-.16501.2475-.38251.2475-.66001,0-.2625-.0825-.48-.2325-.6375zm-.9075.24751c.075-.09751.165-.14251.285-.14251.1275,0,.2325.0525.2925.15001.0675.08999.105.225.105.39,0,.18-.0375.31499-.1125.4125-.0675.0825-.165.1275-.2775.1275-.12,0-.2175-.05251-.2925-.14251-.0675-.09-.105-.225-.105-.3975,0-.17249.0375-.3.105-.39749z" fill="#fff"/><path fill-rule="evenodd" clip-rule="evenodd" d="m7.4475,3.405V3H7.005v.405h.4425zm0,1.845V3.57H7.005v1.68h.4425z" fill="#fff"/><path fill-rule="evenodd" clip-rule="evenodd" d="m9.1951,4.98747c.06-.08251.105-.16501.1275-.26251h-.435c-.03.075-.075.135-.1275.1725s-.12.0525-.2025.0525c-.1725,0-.285-.0675-.345-.2175-.0225-.0525-.03-.12-.0375-.2025h1.1775c0-.2025-.015-.3675-.0675-.495s-.12-.24-.225-.33c-.1425-.1275-.315-.1875-.5175-.1875-.2475,0-.45.09-.6075.2775-.1425.165-.21.36751-.21.615,0,.12.015.2475.06.36.045.105.0975.2025.1725.2775.15.1575.3525.24001.6.24001.2775,0,.4875-.09752.6375-.3zm-.30073-.76501c.00026.00248.0005.00498.00073.0075v-.0075h-.00073zm0,0c-.00814-.0791-.02996-.1441-.05177-.195-.03-.0525-.0675-.0975-.12-.1275s-.1125-.045-.1725-.045c-.0975,0-.18.03-.2475.0975s-.105.1575-.1125.27h.70427z" fill="#fff"/></svg>