<svg width="30" height="16" viewBox="0,0,30,16" xmlns="http://www.w3.org/2000/svg"><path fill-rule="evenodd" clip-rule="evenodd" d="m9.461,3.13349c1.461,0,2.801.2908,3.881.96933l.701-2.34578C12.582,1.21422,10.942,1,9.382,1,4.34,1,1,4.04466,1,8.9892,1,13.1777,3.74,15,7.841,15c1.36,0,2.92-.2714,3.741-.601l1.6-7.3882H7.521l-.46,2.13349h2.961l-.781,3.58651c-.32.1367-.74.1367-1.38.1367-2.38,0-3.941-1.7642-3.941-3.95585,0-3.19878,2.141-5.77816,5.541-5.77816zm9.7395,3.41262,1.18-5.31289h-2.8L14.5795,14.767h2.801l1.521-6.88322,3.88,6.88322h3.341l-4.501-7.36789,7.062-6.16589h-3.902l-5.541,5.31289h-.04z"/></svg>