<svg width="36" height="36" viewBox="0,0,36,36" xmlns="http://www.w3.org/2000/svg"><path fill-rule="evenodd" clip-rule="evenodd" d="m8.99993,7.25c-.96736,0-1.75.78264-1.75,1.75s.78264,1.75,1.75,1.75c.96607,0,1.74997-.78286,1.74997-1.75S9.966,7.25,8.99993,7.25zM6.24993,9c0-1.51964,1.23035-2.75,2.75-2.75,1.51797,0,2.74997,1.23014,2.74997,2.75,0,1.5199-1.232,2.75-2.74997,2.75-1.51965,0-2.75-1.2304-2.75-2.75zm3.85017,18.25L4.21982,11.0791l-.93979.3418,6,16.5.11968.3291H20.9999v-1H10.1001zm-1.53816-13.5h-.7095l.23863.6682,3.75003,10.5.1185.3318h9.7967l3.7351,7.291.89-.456-3.8745-7.563-.1393-.272h-9.7033l-3.39286-9.5h1.94366l2.1285,5.6902.1215.3248h6.0033v-1h-5.3097l-2.1285-5.6902-.1215-.3248H8.56194zm8.18506-7.5h14.5v10h-14.5v-10zm1,8.2073v.7927h12.5v-2.2959l-2.497-2.497-4.5,4.5-.3536-.3535-2.6466-2.6467-2.5028,2.5004zm0-1.4136,2.1496-2.1474.3536-.3532,2.9998,2.9998,4.1464-4.14645.3536-.35356.3535.35356,2.1435,2.14345V7.25h-12.5v5.7937z"/></svg>