<svg width="24" height="24" viewBox="0,0,24,24" xmlns="http://www.w3.org/2000/svg"><path fill-rule="evenodd" clip-rule="evenodd" d="m12.0002,1.91906.4744,1.42303,1.886,5.65811h6.5969l-1.1503.89468-4.2177,3.28042,1.8834,5.4609.4795,1.3903-1.2275-.81-4.7247-3.1173-4.7246,3.1173-1.22753.81.47949-1.3903,1.88339-5.4609L4.19327,9.89488,3.04297,9.0002h6.59689l1.88604-5.65811.4743-1.42303zm0,3.16228-1.5256,4.57697-.114.34189H5.95751l3.3497,2.6053.28232.2196-.11662.3381-1.5205,4.4087,3.77249-2.489.2753-.1817.2754.1817,3.7725,2.489-1.5205-4.4087-.1167-.3381.2824-.2196,3.3497-2.6053h-4.4031l-.114-.34189-1.5257-4.57697z"/></svg>