<svg width="24" height="24" viewBox="0,0,24,24" xmlns="http://www.w3.org/2000/svg"><path fill-rule="evenodd" clip-rule="evenodd" d="m5.12294,5.83022L3.14627,3.85355l.70711-.7071L18.8534,18.1464l-.7071.7072-4.4588-4.4588c-.5194-.2478-1.0859-.3944-1.687-.3944-1.1401,0-2.16312.4818-2.89317,1.252l-.72575-.688c.90795-.9578,2.18892-1.564,3.61892-1.564.1017,0,.2026.0033.3024.0097l-1.8296-1.8296c-1.37661.3092-2.6007,1.0199-3.53907,2.0084l-.72525-.6884c.93457-.9845,2.1174-1.7282,3.44732-2.1369L8.10046,8.80774c-1.27142.54043-2.41009,1.32756-3.34537,2.31316l-.72537-.6884c.94033-.99087,2.06496-1.79762,3.3137-2.38181L5.8589,6.56618c-1.222.65824-2.33149,1.495-3.27624,2.49017l-.72524-.6885c.95278-1.00363,2.05712-1.85462,3.26552-2.53763zM11.9998,17c-.552,0-1,.4474-1,1,0,.5519.4482,1,1,1,.5519,0,1-.4481,1-1,0-.5526-.4479-1-1-1zm-1.99997,1c0-1.1054.89607-2,1.99997-2,1.104,0,2,.8946,2,2,0,1.1041-.8958,2-2,2-1.1041,0-1.99997-.8959-1.99997-2zM7.17171,4.87691C8.67588,4.321,10.2964,3.9999,12,3.9999c3.9969,0,7.5929,1.68426,10.1425,4.36759l-.7249.68882C19.0472,6.56164,15.7092,4.9999,12,4.9999c-1.5764,0-3.07979.2969-4.48163.815l-.34666-.93799zM12.0004,7.0004c-.813,0-1.602.09233-2.36012.25861l.21422.97678c.6918-.15172,1.4089-.23539,2.1459-.23539,2.8533,0,5.4212,1.19986,7.2444,3.1203l.7252-.6886c-2.0028-2.10956-4.829-3.4317-7.9696-3.4317zm.4957,4.0297c1.7978.126,3.4061.9245,4.5757,2.1538l.7245-.6892c-1.3364-1.4047-3.176-2.3182-5.2303-2.4622l-.0699.9976z"/></svg>