<svg width="36" height="36" xmlns="http://www.w3.org/2000/svg"><path fill-rule="evenodd" clip-rule="evenodd" d="m3.25,6.24951h29.5v6.99999h-.5c-2.2739,0-4,1.7262-4,4,0,2.2739,1.7261,4,4,4h.5v7H3.25V6.24951zm1,1v3.50069h8.0322l.1482.2241,2.8383,4.2879H18c1.5156,0,2.7435,1.2239,2.75,2.738v4.25h-3.2999c-.455.8903-1.381,1.4993-2.4501,1.4993-1.0694,0-1.9956-.6093-2.4505-1.5H6.95068c-.45484.8909-1.38111,1.5004-2.45068,1.5004-.085,0-.16836-.0045-.25-.0127v3.5123h27.5v-5.023c-2.5785-.2395-4.5-2.32-4.5-4.977s1.9215-4.7375,4.5-4.977V7.24951H4.25zm0,11.01309v-6.5124h7.4948l2.8383,4.288.1482.224H18c.9674,0,1.75.7827,1.75,1.75v3.238h-2.0113c.0075-.0825.0113-.1662.0113-.2507,0-1.5179-1.2301-2.75-2.75-2.75s-2.75,1.2321-2.75,2.75c0,.0843.0038.1677.0112.25H7.23884c.00739-.0822.01116-.1655.01116-.2496,0-1.5179-1.23014-2.75-2.75-2.75-.085,0-.16836.0044-.25.0127zm0,4.4662V19.271c.08312-.0138.16639-.0211.25-.0211.96714,0,1.75.7839,1.75,1.75,0,.9673-.78264,1.75-1.75,1.75-.08361,0-.16688-.0073-.25-.0211zm9-1.7293c0-.9661.7829-1.75,1.75-1.75s1.75.7839,1.75,1.75c0,.9674-.7826,1.75-1.75,1.75s-1.75-.7826-1.75-1.75zm-3.0127-6.2566H9v-1h1.7747l.1483.2241,1.494,2.2575-.834.5519-1.3457-2.0335zM24.25,7.49951v.4875h1v-.4875h-1zm0,1.4625v.975h1v-.975h-1zm0,1.94999v.975h1v-.975h-1zm0,1.95v.975h1v-.975h-1zm0,1.95v.975h1v-.975h-1zm0,1.95v.975h1v-.975h-1zm0,1.95v.975h1v-.975h-1zm0,1.95v.975h1v-.975h-1zm0,1.95v.975h1v-.975h-1zm0,1.95v.975h1v-.975h-1zM24.25,26.512v.4875h1v-.4875h-1z"/></svg>