<svg width="26" height="16" xmlns="http://www.w3.org/2000/svg"><path fill-rule="evenodd" clip-rule="evenodd" d="m6.52202,6.65636h-1.101l.74-3.45036h.981c1.06,0,2.34.06016,2.34,1.40381,0,1.64547-1.54,2.04655-2.96,2.04655zM5.10099,12.794h-.96l.84-4.051h.9c1.5,0,2.861.2196,2.861,1.6846,0,2.1659-1.921,2.3664-3.641,2.3664zM8.062,1H3.921L1,15h3.981c2.081,0,6.562-.3209,6.562-4.3318,0-1.50504-.681-2.70831-2.241-2.94896v-.04011c1.62-.26071,2.981-1.62441,2.981-3.32904C12.283,1.80218,10.242,1,8.062,1zm10.6797,5.65636h-1.1l.74-3.45036h.98c1.06,0,2.341.06016,2.341,1.40381,0,1.64547-1.54,2.04655-2.961,2.04655zm-1.42,6.13764h-.96l.84-4.051h.9c1.5,0,2.86.2196,2.86,1.6846,0,2.1659-1.92,2.3664-3.64,2.3664zM20.2827,1h-4.142l-2.921,14h3.982c2.08,0,6.561-.3209,6.561-4.3318,0-1.50504-.681-2.70831-2.24-2.94896v-.04011c1.62-.26071,2.98-1.62441,2.98-3.32904C24.5027,1.80218,22.4617,1,20.2827,1z"/></svg>