<svg width="21" height="16" xmlns="http://www.w3.org/2000/svg"><path fill-rule="evenodd" clip-rule="evenodd" d="m12.0347,7.44934c-.3037-1.72469-1.9457-2.87629-3.66785-2.57222-1.24671.22019-2.19307,1.1432-2.50546,2.29035H1v1.66507h4.8621c.42362,1.56606,1.97806,2.57756,3.60438,2.29036,1.72202-.3042,2.87182-1.94886,2.56822-3.67356zM8.64172,6.43857c.86102-.15208,1.68218.42372,1.83388,1.28607.1519.86242-.423,1.68473-1.28407,1.83681-.86101.15207-1.68213-.42372-1.83389-1.28615-.15184-.86235.42306-1.68466,1.28408-1.83673zm9.11918.67887H12.5v1.66507h5.2609v1.41009L20,7.94998,17.7609,5.70736v1.41008z"/></svg>