<svg width="24" height="24" xmlns="http://www.w3.org/2000/svg"><path fill-rule="evenodd" clip-rule="evenodd" d="m22.5,0h-21C.675,0,0,.675,0,1.5v21c0,.825.675,1.5,1.5,1.5h21c.825,0,1.5-.675,1.5-1.5v-21c0-.825-.675-1.5-1.5-1.5z" fill="#2d327d"/><path fill-rule="evenodd" clip-rule="evenodd" d="m6.12741,18.5549c-.675,0-1.2225.5475-1.2225,1.215,0,.675.5475,1.2225,1.2225,1.2225s1.215-.5475,1.215-1.2225-.5475-1.215-1.215-1.215z" fill="#fff"/><path fill-rule="evenodd" clip-rule="evenodd" d="m18.9375,17.8574,2.115,2.115-1.0575,1.065-1.0275-1.0275c-.105.5625-.6.9825-1.1925.9825-.675,0-1.2225-.5475-1.2225-1.2225,0-.5925.42-1.08.9825-1.1925l-.5775-.5775H4.87496V8.24995h-1.5c-.21,0-.375-.165-.375-.375s.165-.375.375-.375h1.875c.21,0,.375.1725.375.375v9.37495H16.2075l-.5625-.5625H7.68746c-.825,0-1.5-.675-1.5-1.5v-4.6875c0-.82495.675-1.49995,1.5-1.49995h.27l-5.31-5.31,1.0575-1.0575L10.08,8.99995h.42v-.75c0-.4125.3375-.75.75-.75h2.625c.4125,0,.75.3375.75.75v.75h2.8125c.825,0,1.5.675,1.5,1.49995v4.6875c0,.7275-.5175,1.335-1.2,1.47l.5925.5925h.6075v.6075zM13.875,8.24995H11.25v.75h2.625v-.75z" fill="#fff"/><path fill-rule="evenodd" clip-rule="evenodd" d="m3.70496,2.63245-1.0575,1.0575L19.9875,21.0374l1.065-1.065L3.70496,2.63245z" fill="#eb0000"/></svg>