<svg width="36" height="36" xmlns="http://www.w3.org/2000/svg"><path fill-rule="evenodd" clip-rule="evenodd" d="m18.2823,4.83735L18,4.64417l-.2823.19318L3.46766,14.5873,2.86455,15l.60311.4127,3.83059,2.6209L3.47266,20.584l-.61597.4106.61097.4181,14.25004,9.75.2823.1931.2823-.1931,14.25-9.75.611-.4181-4.4415-2.961,3.8305-2.6209L33.1355,15l-.6032-.4127-14.25-9.74995zm9.5298,13.80495-9.5298,6.5204L18,25.3558l-.2823-.1931-9.52977-6.5204-3.54461,2.3631L18,30.1442l13.3567-9.1388-3.5446-2.3631zM18,24.1442,4.63546,15,18,5.85583,31.3646,15,18,24.1442z"/></svg>