<svg width="24" height="24" xmlns="http://www.w3.org/2000/svg"><path fill-rule="evenodd" clip-rule="evenodd" d="m5,5.5c0-.28.22-.5.5-.5.28,0,.5.22.5.5,0,.28-.22.5-.5.5s-.5-.22-.5-.5zm.5-1.5c-.83,0-1.5.67-1.5,1.5,0,.83.67,1.5,1.5,1.5s1.5-.67,1.5-1.5c0-.83-.67-1.5-1.5-1.5zm-2,4h-.5v6h1v6h3v-6h1V8h-4.5zm1,5h-.5V9h3v4h-1v6h-1v-6h-.5zm12.5,6v-3h1v3h-1zm-1,.5v-3.5h-2.16l2.29-8h2.75l2.29,8H19v4h-3v-.5zm1-14c0-.28.22-.5.5-.5.28,0,.5.22.5.5,0,.28-.22.5-.5.5-.28,0-.5-.22-.5-.5zm.5-1.5c-.83,0-1.5.67-1.5,1.5,0,.83.67,1.5,1.5,1.5.83,0,1.5-.67,1.5-1.5,0-.83-.67-1.5-1.5-1.5zm-.62,5-1.71,6h4.67l-1.71-6h-1.25zM11,4V20h1V4h-1z"/></svg>