<svg width="24" height="24" xmlns="http://www.w3.org/2000/svg"><path fill-rule="evenodd" clip-rule="evenodd" d="m12,5.5c0-.26.24-.5.5-.5.26,0,.5.24.5.5s-.24.5-.5.5c-.26,0-.5-.24-.5-.5zm.5-1.5c-.81,0-1.5.69-1.5,1.5s.69,1.5,1.5,1.5c.81,0,1.5-.69,1.5-1.5s-.69-1.5-1.5-1.5zM7,6.5h-.36l-.86,2.57L4.35,7.65l-.71.71,1.88,1.88.46,3.68-2.43,4.86.89.45,2.57-5.14-.34-2.7.89.89.9,2.69-1.91,3.81.89.45,2.09-4.19-.4-1.19,3.03,3.03-.59,1.76-3.81,1.91.45.89,4.19-2.09,1-3,1.91-.96L17.24,13h1.47l1.86,3.25.87-.5L19.29,12h-2.53l-2.08,2.6-2.09,1.04-.06.18-1.99-1.99,1-5L9.21,6.5H7zM10.29,9l-2.29,2.29L6.71,10l2.29-2.29L10.29,9zM7.79,7.5l-.65.65L7.36,7.5h.43zm2.39,3.02L8.71,12l.99.99.49-2.46zm8.28,5.16-1.06,2.64-3.13,2.09-.55-.83,2.87-1.91.94-2.36.93.37z"/></svg>