<svg width="24" height="24" xmlns="http://www.w3.org/2000/svg"><path fill-rule="evenodd" clip-rule="evenodd" d="m9.47,6.57.59-1.61L8.7,6c-1.84,1.41-2.67,3.21-2.71,4.99-.05,1.77.67,3.49,1.85,4.78C9.01,17.07,10.67,17.95,12.53,18.02c1.87.07,3.87-.69,5.73-2.57l1.48-1.5-2,.68c-1.04.35-2.03.43-2.95.29.75-.76,1.21-1.83,1.21-2.92,0-2.18-1.82-4-4-4-1.08,0-2.05.44-2.76,1.11-.12-.87-.06-1.75.23-2.54zm.06,3.73c.31.9.81,1.77,1.48,2.52.71.79,1.59,1.42,2.59,1.79.84-.55,1.4-1.56,1.4-2.61,0-1.62-1.38-3-3-3-1.03,0-1.93.53-2.47,1.3zm.74,3.19c1.41,1.57,3.46,2.62,5.81,2.49-1.21.79-2.41,1.1-3.51,1.05-1.56-.06-2.97-.8-3.99-1.92-1.02-1.12-1.63-2.6-1.59-4.08.03-1.07.39-2.16,1.21-3.16-.13,1.99.68,4.08,2.07,5.62z"/></svg>