<svg width="24" height="24" xmlns="http://www.w3.org/2000/svg"><path fill-rule="evenodd" clip-rule="evenodd" d="m7.78,2.7c.81-.47,1.81-.05,2.26.72l0,0,1.76,3.04c0,0,0,0,0,0,.45.78.31,1.85-.5,2.32,0,0,0,0,0,0L9.34,9.9c0,.01,0,.02.01.03l0,0c.36,1,.83,2.03,1.43,3.06M7.78,2.7c0,0,0,0,0,0l0,0zm0,0-1.71.98h0l0,0c-.13.08-.23.17-.29.25-1.1.99-1.43,2.75-1.22,4.7.21,2,1,4.33,2.32,6.61h0c1.31,2.28,2.94,4.13,4.56,5.31,1.58,1.16,3.28,1.76,4.68,1.3.11-.02.24-.06.37-.14l1.7-.98c.8-.47.95-1.53.5-2.31v0l-1.76-3.04c-.45-.78-1.44-1.19-2.26-.72h0l-1.95,1.13c-.01,0-.01-.01-.02-.02-.69-.81-1.34-1.74-1.94-2.76M9.17,3.92c-.24-.42-.66-.49-.89-.36l-1.71.98,0,0c0,0,0,0,0,0,0,0-.02.01-.06.06l-.02.03-.03.02c-.74.65-1.11,2-.91,3.87.2,1.83.93,4.04,2.19,6.22,1.26,2.18,2.8,3.91,4.29,5,1.52,1.11,2.87,1.47,3.8,1.15l.03-.01.03-.01c.05-.01.07-.02.08-.02l0,0h0l1.7-.98c0,0,0,0,0,0,.23-.13.37-.54.14-.95l-1.76-3.04,0,0c-.24-.42-.66-.49-.89-.36l-1.97,1.14c0,0,0,0,0,0-.44.26-.97.1-1.26-.25l0,0c-.73-.86-1.42-1.83-2.04-2.91l0,0c-.62-1.08-1.12-2.16-1.5-3.22m.77-6.35c0,0,0,0,0,0l0,0zm0,0,1.76,3.04v0c.24.42.09.82-.14.95l0,0L8.82,9.05c0,0,0,0,0,0-.44.25-.57.79-.41,1.22"/></svg>