<svg width="24" height="24" xmlns="http://www.w3.org/2000/svg"><path fill-rule="evenodd" clip-rule="evenodd" d="m18.5,4c-1.38,0-2.5,1.12-2.5,2.5s1.12,2.5,2.5,2.5c1.38,0,2.5-1.12,2.5-2.5s-1.12-2.5-2.5-2.5zm-3.5,2.5c0-1.93,1.57-3.5,3.5-3.5,1.93,0,3.5,1.57,3.5,3.5s-1.57,3.5-3.5,3.5c-1.93,0-3.5-1.57-3.5-3.5zM5.25,7.87c3.11-1.8,7.08-.73,8.88,2.38l.25.43-5.22,3.01L12.81,21h9.19v1H2v-1h9.69l-3.4-6.8,3.12,17.18-.25-.43c-1.79-3.11-.73-7.08,2.38-8.88M5.75,8.74c0,0,0,0,0,0l0,0c0,0,0,0,0,0-.47.27-.78.97-.71,2.12.06,1,.41,2.22,1.05,3.46l4.31-2.49c-.75-1.18-1.63-2.09-2.47-2.64-.96-.64-1.72-.71-2.19-.45zm2.19-.71c.19.09.37.2.55.32.98.65,1.97,1.69,2.78,2.97l1.72-.99c-1.17-1.66-3.12-2.5-5.05-2.3zM5.23,14.81c-.71-1.35-1.11-2.72-1.18-3.9-.01-.21-.01-.43,0-.63-1.13,1.57-1.38,3.69-.53,5.52l1.72-.99z"/></svg>