<svg width="36" height="36" xmlns="http://www.w3.org/2000/svg"><path fill-rule="evenodd" clip-rule="evenodd" d="m14.33,3.25h-.21l-1.87,1.87V27.88l1.87,1.87H16.75V33h1v-3.25h.5V33h1v-3.25h2.63l1.87-1.87V5.12L21.88,3.25h-7.56zm-1.08,2.28L14.53,4.25h6.94l1.28,1.28V27.47L21.47,28.75h-6.94l-1.28-1.28V5.53zM18,7.25c-.97,0-1.75.78-1.75,1.75s.78,1.75,1.75,1.75c.97,0,1.75-.78,1.75-1.75S18.97,7.25,18,7.25zM15.25,9c0-1.52,1.23-2.75,2.75-2.75,1.52,0,2.75,1.23,2.75,2.75,0,1.52-1.23,2.75-2.75,2.75-1.52,0-2.75-1.23-2.75-2.75zM18,13.75c-1.52,0-2.75,1.23-2.75,2.75s1.23,2.75,2.75,2.75c1.52,0,2.75-1.23,2.75-2.75s-1.23-2.75-2.75-2.75zm0,8.5c-.97,0-1.75.78-1.75,1.75s.78,1.75,1.75,1.75c.97,0,1.75-.78,1.75-1.75s-.78-1.75-1.75-1.75zM15.25,24c0-1.52,1.23-2.75,2.75-2.75,1.52,0,2.75,1.23,2.75,2.75s-1.23,2.75-2.75,2.75c-1.52,0-2.75-1.23-2.75-2.75zm10.25-6.25h3v-1h-3v1zm-15,0h-3v-1h3v1zm-6,0H6v-1H4.5v1zm4.85,3.6-3,3-.71-.71,3-3,.71.71zm21,2.29-3-3-.71.71,3,3,.71-.71zm-24-13.5,3,3-.71.71-3-3,.71-.71zM31.5,17.75H30v-1h1.5v1zm-4.15-3.9,3-3-.71-.71-3,3,.71.71z"/></svg>