<svg width="24" height="24" xmlns="http://www.w3.org/2000/svg"><path fill-rule="evenodd" clip-rule="evenodd" d="m12,7V2h-1v5h1zm6.81-1.23c-.59-.59-1.54-.59-2.12,0l-5.69,5.54,0-1.81V9.5c0-.83-.67-1.5-1.5-1.5-.42,0-.76.16-1.02.44-.24.26-.38.6-.47.93l5.94,16.64,5.36,5.68.29-.08-.13-.48c.13.48.13.48.13.48l0,0,0,0,.01,0,.02-.01c.02-.01.04-.01.07-.02.06-.02.15-.05.25-.09.21-.08.52-.22.88-.41.73-.4,1.73-1.06,2.8-2.14,1.04-1.04,1.66-1.66,2.02-2.01.18-.18.29-.29.36-.36l.09-.09,0,0,0,0c.59-.59.59-1.54,0-2.12-.14-.14-.3-.24-.47-.32.33-.57.25-1.32-.24-1.81l0,0c-.14-.14-.3-.24-.46-.32.32-.57.24-1.31-.24-1.8l0,0c-.12-.12-.26-.22-.41-.29l2.53-2.53v0c.59-.59.59-1.54,0-2.12zM12.35,20.82c-.32.17-.57.28-.75.35l-4.54-4.81,1.92-6.72,0,0,0-.01c.07-.26.15-.42.24-.51.07-.07.15-.12.28-.12.28,0,.5.22.5.5v0l0,4.18,7.39-7.2v0l0,0c.19-.19.51-.2.71,0,.2.2.2.51,0,.71l-3.48,3.48c-.02.02-.04.03-.06.05l0,0-1.77,1.77,0,0,.71.71,1.8-1.8c.2-.17.49-.16.68.03.19.2.19.51,0,.71l-.64.63c-.02.02-.05.04-.07.07l0,0-1.06,1.06.71.71,1.1-1.1c.2-.16.48-.15.67.04.19.2.19.51,0,.71l-1.06,1.06,0,0,0,0,.71.71,0,0,.35-.35,0,0c.19-.19.51-.2.71,0,.2.2.2.51,0,.71l-.09.09c-.07.07-.19.18-.36.36-.36.36-.98.98-2.02,2.02-1,1-1.92,1.61-2.57,1.97zm4.07-17.54-2,3-.83-.55,2-3,.83.55zm-7,2.45-2-3-.83.55,2,3,.83-.55z"/></svg>