<svg width="24" height="24" xmlns="http://www.w3.org/2000/svg"><path fill-rule="evenodd" clip-rule="evenodd" d="m17.49,10.61c-.29-.37-.69-.64-1.18-.75.12-.8,0-1.53-.32-2.14-.39-.75-1.05-1.28-1.79-1.55-1.36-.49-3.04-.12-3.99,1.42-1.52-.72-3.43.33-3.52,2.18-.48.13-.87.43-1.14.81-.36.5-.53,1.15-.51,1.79.03.64.26,1.3.76,1.81.51.51,1.25.82,2.2.82h7c.93,0,1.66-.31,2.17-.81.51-.49.77-1.15.82-1.79.05-.64-.11-1.29-.5-1.8zm-6.64-2.1c.64-1.44,1.95-1.77,3-1.39.53.19.98.57,1.25,1.07.26.5.36,1.17.12,1.98l-.2.67.7-.03c.47-.02.78.16.99.42.22.28.33.67.3,1.1-.03.42-.21.84-.53,1.15-.31.3-.79.53-1.48.53H8c-.73,0-1.2-.23-1.49-.52-.3-.3-.46-.71-.47-1.15-.02-.44.1-.86.32-1.17.21-.29.5-.46.85-.46h.56l-.07-.56c-.18-1.5,1.42-2.25,2.39-1.45l.51.42.27-.6zM13.5,17.5c-.55,0-1,.45-1,1,0,.55.45,1,1,1s1-.45,1-1c0-.55-.45-1-1-1zm1-1c0-.55.45-1,1-1s1,.45,1,1c0,.55-.45,1-1,1s-1-.45-1-1zm-3-1c-.55,0-1,.45-1,1,0,.55.45,1,1,1s1-.45,1-1c0-.55-.45-1-1-1zm-5,1c0-.55.45-1,1-1,.55,0,1,.45,1,1,0,.55-.45,1-1,1-.55,0-1-.45-1-1zm3,1c-.55,0-1,.45-1,1,0,.55.45,1,1,1,.55,0,1-.45,1-1,0-.55-.45-1-1-1z"/></svg>