<svg width="36" height="36" xmlns="http://www.w3.org/2000/svg"><path fill-rule="evenodd" clip-rule="evenodd" d="m26.44,4.89-.52,1.04c-.97,1.93-.53,4.32.91,5.93,1.41,1.58,3.79,2.42,6.72,1.18l1.17-.5-.52,1.16c-.81,1.81-2.38,2.97-3.96,3.6-1.21.48-2.48.68-3.5.58.02.23.02.46.01.69-.07.91-.45,1.82-1.16,2.52-.72.7-1.76,1.15-3.09,1.15h-10.5c-1.37,0-2.42-.44-3.12-1.16-.7-.71-1.03-1.64-1.07-2.55-.04-.91.21-1.83.71-2.53.42-.58,1.01-1.02,1.76-1.17.01-2.8,2.94-4.36,5.13-3.13,1.33-2.37,3.8-2.95,5.8-2.23.06.02.12.04.17.07.44-1.27.95-2.2,1.56-2.87.7-.78,1.51-1.19,2.39-1.46l1.11-.33zm3.43,11.49c-1.28.51-2.55.63-3.38.47-.11-.28-.26-.55-.45-.79-.44-.56-1.07-.96-1.86-1.08.25-1.25.07-2.37-.42-3.29-.36-.69-.88-1.25-1.49-1.66.42-1.28.89-2.11,1.41-2.68.28-.31.59-.55.92-.74-.55,2.07.07,4.33,1.49,5.92,1.47,1.65,3.79,2.57,6.53,1.88-.72.91-1.71,1.56-2.74,1.97zm-9.01-5.95c-1.69-.61-3.8-.06-4.81,2.23l-.27.6-.51-.42c-1.63-1.33-4.28-.07-3.99,2.4l.07.56h-.56c-.62,0-1.12.3-1.47.8-.36.5-.56,1.2-.53,1.9.03.7.29,1.38.78,1.89.49.5,1.26.86,2.41.86h10.5c1.1,0,1.87-.36,2.39-.86.52-.51.81-1.19.86-1.88.05-.69-.13-1.36-.5-1.83-.36-.46-.91-.76-1.69-.73l-.7.03.2-.67c.38-1.27.23-2.34-.19-3.15-.43-.82-1.16-1.42-2.01-1.73zM14.75,25.5c0-.14.11-.25.25-.25.14,0,.25.11.25.25,0,.14-.11.25-.25.25-.14,0-.25-.11-.25-.25zm.25-1.25c-.69,0-1.25.56-1.25,1.25,0,.69.56,1.25,1.25,1.25.69,0,1.25-.56,1.25-1.25,0-.69-.56-1.25-1.25-1.25zm6,1c-.14,0-.25.11-.25.25,0,.14.11.25.25.25.14,0,.25-.11.25-.25,0-.14-.11-.25-.25-.25zm-1.25.25c0-.69.56-1.25,1.25-1.25.69,0,1.25.56,1.25,1.25,0,.69-.56,1.25-1.25,1.25-.69,0-1.25-.56-1.25-1.25zm-2,4.5c0-.14.11-.25.25-.25.14,0,.25.11.25.25,0,.14-.11.25-.25.25-.14,0-.25-.11-.25-.25zm.25-1.25c-.69,0-1.25.56-1.25,1.25,0,.69.56,1.25,1.25,1.25.69,0,1.25-.56,1.25-1.25,0-.69-.56-1.25-1.25-1.25z"/></svg>