<svg width="24" height="24" xmlns="http://www.w3.org/2000/svg"><path fill-rule="evenodd" clip-rule="evenodd" d="m12,4c-4.44,0-8,3.56-8,8,0,4.44,3.56,8,8,8,4.44,0,8-3.56,8-8,0-4.44-3.56-8-8-8zm-9,8c0-4.99,4.01-9,9-9,4.99,0,9,4.01,9,9,0,4.99-4.01,9-9,9-4.99,0-9-4.01-9-9zm8.12,5.99h1.73v-1.67h-1.73v1.67zM8.98,7.58c-.35.55-.55,1.31-.59,2.31h1.38c.11-1.75.88-2.63,2.31-2.63.69,0,1.21.22,1.56.67.29.36.44.81.44,1.35,0,.29-.05.57-.15.85-.12.33-.38.69-.78,1.1-.61.63-1.01,1.06-1.19,1.29-.18.23-.32.49-.41.78-.13.4-.21,1-.22,1.82h1.36c0-.46.03-.83.08-1.12.05-.29.13-.53.25-.73.12-.2.33-.44.64-.73.69-.67,1.12-1.13,1.31-1.39.41-.55.61-1.21.61-1.97,0-.92-.3-1.67-.9-2.23-.64-.61-1.5-.92-2.59-.92-.67,0-1.28.14-1.82.41-.54.27-.97.66-1.3,1.16z"/></svg>