<svg width="36" height="36" xmlns="http://www.w3.org/2000/svg"><path fill-rule="evenodd" clip-rule="evenodd" d="m24.18,14.99c.67.11,1.23.42,1.66.88.54.58.83,1.37.9,2.17.12,1.59-.67,3.41-2.55,4.02l-.31-.95c1.34-.44,1.96-1.75,1.86-2.99-.05-.62-.27-1.18-.63-1.56-.35-.38-.85-.62-1.53-.59l-.7.03.2-.67c.38-1.27.23-2.34-.19-3.15-.43-.82-1.16-1.42-2.01-1.73-1.69-.61-3.8-.06-4.81,2.23l-.27.6-.51-.42c-1.63-1.33-4.28-.07-3.99,2.4l.07.56h-.56c-1.06,0-1.86.96-1.99,2.23-.12,1.24.43,2.54,1.85,3.02l-.32.95c-1.96-.67-2.68-2.48-2.52-4.06.14-1.39.99-2.81,2.45-3.08.01-2.8,2.94-4.36,5.13-3.13,1.33-2.37,3.8-2.95,5.8-2.23,1.06.39,2,1.15,2.56,2.2.48.92.66,2.04.42,3.3zm-11,3.4,2.86,2.86h-4.02v1h4.04l-2.86,2.86.71.71,2.84-2.84v4.02h1V22.96l2.86,2.86.71-.71-2.86-2.86h4.06v-1h-4.04l2.86-2.86-.71-.71-2.88,2.88v-4.06h-1v4.04l-2.86-2.86-.71.71z"/></svg>