<svg width="24" height="24" xmlns="http://www.w3.org/2000/svg"><path fill-rule="evenodd" clip-rule="evenodd" d="m7.5,3C6.67,3,6,3.67,6,4.5V21h10V4.5c0-.83-.67-1.5-1.5-1.5h-7zM5,4.5V21H4v1h14v-1h-1v-6c.42,0,.64.1.76.22.12.12.23.35.24.78v1.02c0,.25,0,.7.16,1.1.09.22.23.45.47.61.24.17.53.25.87.25.33,0,.63-.08.87-.25.24-.17.39-.39.47-.61.16-.4.16-.86.16-1.12L21,17v-3.05c1.14-.23,2-1.24,2-2.45V10h-1V8h-1v2h-1V8h-1v2h-1v1.5c0,1.21.86,2.22,2,2.45v3.05c0,.29,0,.56-.09.76-.04.09-.08.14-.12.17-.04.03-.13.07-.29.07-.17,0-.25-.04-.29-.07-.04-.03-.09-.08-.12-.17-.08-.21-.09-.48-.09-.76V16h0l0-.01c-.01-.57-.16-1.09-.53-1.47C18.1,14.14,17.58,14,17,14V4.5C17,3.12,15.88,2,14.5,2h-7C6.12,2,5,3.12,5,4.5zm2.5.5H7v5h8V5H7.5zM8,9V6h6v3H8zm11,2.5V11h3v.5c0,.83-.67,1.5-1.5,1.5s-1.5-.67-1.5-1.5z"/></svg>