<svg width="24" height="24" xmlns="http://www.w3.org/2000/svg"><path fill-rule="evenodd" clip-rule="evenodd" d="m4.26,3.02c.34-.6.99-1.02,1.74-1.02.52,0,.99.2,1.35.52l-.67.74c-.18-.16-.41-.26-.67-.26-.46,0-.84.31-.96.74l-.15.54-.52-.21c-.12-.05-.24-.07-.37-.07-.55,0-1,.45-1,1h-1c0-1.11.89-2,2-2,.09,0,.18.01.26.02zM2.5,7H2v14h19V8.46l-5,4V8.46l-5,4V8.46L6,12.46V7H2.5zm.5,13v-12h2v6.54l5-4v4l5-4v4l5-4v9.46H3zM5.5,16H5v2h3v-2H5.5zm4.5,0h3v2h-3v-2zm5.5,0H15v2h3v-2h-2.5zM9,3c-.75,0-1.39.41-1.74,1.02C7.18,4.01,7.09,4,7,4c-1.11,0-2,.89-2,2h1c0-.55.45-1,1-1,.13,0,.25.03.37.07l.52.21.15-.54c.12-.43.5-.74.96-.74.55,0,1,.45,1,1h1c0-1.11-.89-2-2-2z"/></svg>