<svg width="24" height="24" xmlns="http://www.w3.org/2000/svg"><path fill-rule="evenodd" clip-rule="evenodd" d="m10.5,3H10v2H4V21h10v-2h6V3h-9.5zm3,2H11v-1h8V18h-5v-4h4v-1h-4v-1h4v-1h-4V5h-.5zM13,18.5v1.5H5V6h8V18.5zm4.97-13.57v4.07h-.81v-2.66h-.96v-.59c.2-.01.36-.03.49-.06.13-.04.24-.09.34-.17.15-.12.25-.31.3-.58h.64zm-5.99,5.34V11H9.06c0-.22.04-.43.11-.63.07-.2.17-.37.3-.52.1-.11.22-.22.35-.33.13-.11.4-.3.8-.58.2-.14.33-.26.41-.38.08-.12.12-.25.12-.41,0-.18-.05-.32-.16-.43-.11-.11-.24-.17-.41-.17-.42,0-.64.3-.65.9h-.78v-.09c0-.49.14-.88.41-1.15.27-.26.62-.4,1.04-.4.38,0,.7.11.95.32.28.23.41.55.41.94,0,.34-.11.64-.33.89-.07.08-.14.15-.2.2s-.23.17-.5.36c-.26.18-.44.32-.55.41-.11.09-.21.2-.31.33h1.91zM12,14H6v-1h6v1zm-6,2h6v-1H6v1z"/></svg>