<svg width="36" height="36" xmlns="http://www.w3.org/2000/svg"><path fill-rule="evenodd" clip-rule="evenodd" d="m9,7.25c-.97,0-1.75.78-1.75,1.75s.78,1.75,1.75,1.75c.97,0,1.75-.78,1.75-1.75S9.97,7.25,9,7.25zM6.25,9c0-1.52,1.23-2.75,2.75-2.75,1.52,0,2.75,1.23,2.75,2.75,0,1.52-1.23,2.75-2.75,2.75-1.52,0-2.75-1.23-2.75-2.75zm3.85,18.25L4.22,11.08l-.94.34L9.4,28.25H21v-1H10.1zm-1.54-13.5h-.71l4.11,11.5h9.8l3.74,7.29.89-.46-4.01-7.84h-9.7l-3.39-9.5h1.94l2.25,6.02h6v-1h-5.31l-2.25-6.02H8.56zm8.19-7.5h14.5v10h-14.5v-10zm1,8.21v.79h12.5v-2.3l-2.5-2.5-4.5,4.5-3-3-2.5,2.5zm0-1.41,2.5-2.5,3,3,4.5-4.5,2.5,2.5V7.25h-12.5v5.79z"/></svg>