<svg width="36" height="36" xmlns="http://www.w3.org/2000/svg"><path fill-rule="evenodd" clip-rule="evenodd" d="m16.25,6.75c0-.55.45-1,1-1s1,.45,1,1c0,.55-.45,1-1,1s-1-.45-1-1zm2.69,1.07c.2-.31.31-.68.31-1.07,0-1.11-.89-2-2-2s-2,.89-2,2c0,.39.11.76.31,1.07-2.58.21-5.01.93-6.93,2.21-2.22,1.48-3.72,3.72-3.87,6.72H3v1h28.5v-1h-1.76c-.15-3.01-1.65-5.24-3.87-6.72-1.91-1.27-4.35-1.99-6.93-2.21zM17.25,8.75c-3.05,0-5.95.7-8.06,2.11-1.97,1.32-3.28,3.25-3.42,5.89H28.74c-.15-2.64-1.45-4.58-3.42-5.89-2.11-1.41-5.01-2.11-8.06-2.11zm-5,15.46-5.76-4.03c-.86-.68-2.11-.54-2.8.32l0,0c-.69.86-.55,2.11.3,2.8l9.02,7.95H18.91l1.51,1.5h12.58l-8.39-8.45v0l-.01-.01c-1.76-1.69-4.04-3-6.43-3.04V21.25h-3.17c-.88,0-1.58.34-2.06.87-.47.52-.7,1.21-.7,1.88,0,.07,0,.14.01.21zM5.9,20.99l7.07,4.94-8.5-4.81c.35-.43.98-.5,1.41-.15l.01.01.01.01zM12.97,25.93,4.47,21.12c-.34.43-.28,1.06.16,1.41l.01.01L13.39,30.25h5.93l1.51,1.5h9.77l-6.69-6.74c-1.65-1.59-3.71-2.72-5.75-2.76h-3.16c-.61,0-1.03.22-1.31.54-.29.32-.44.76-.45,1.22,0,.46.15.89.43,1.21.27.31.7.54,1.33.54h3v1h-3c-.87,0-1.55-.31-2.03-.82z"/></svg>