<svg width="24" height="24" xmlns="http://www.w3.org/2000/svg"><path fill-rule="evenodd" clip-rule="evenodd" d="m12,4c-.55,0-1,.45-1,1v2h2V5c0-.55-.45-1-1-1zm-2,1c0-1.11.89-2,2-2s2,.89,2,2v1h5.5C20.88,6,22,7.12,22,8.5v9c0,1.38-1.12,2.5-2.5,2.5h-15C3.12,20,2,18.88,2,17.5v-9C2,7.12,3.12,6,4.5,6H10V5zm4,2.5V7h5.5c.83,0,1.5.67,1.5,1.5v9c0,.83-.67,1.5-1.5,1.5h-6.57c-.23-1.85-1.09-3.46-2.35-4.32C10.85,14.18,11,13.6,11,13c0-1.55-1.02-3-2.5-3S6,11.45,6,13c0,.6.15,1.18.43,1.68-1.24.86-2.1,2.44-2.34,4.27C3.46,18.76,3,18.18,3,17.5v-9C3,7.67,3.67,7,4.5,7H10v1h4v-.5zM5.08,19h6.83c-.23-1.62-1-2.9-1.97-3.54C9.55,15.79,9.06,16,8.5,16c-.56,0-1.05-.21-1.44-.54-.97.64-1.74,1.92-1.97,3.54zM13,13h4v-1h-4v1zm6,2h-6v-1h6v1zM7,13c0-1.21.77-2,1.5-2s1.5.79,1.5,2-.77,2-1.5,2S7,14.21,7,13z"/></svg>