<svg width="24" height="24" xmlns="http://www.w3.org/2000/svg"><path fill-rule="evenodd" clip-rule="evenodd" d="m2.5,4H2V19h20v-5h-.5c-1.42,0-2.5-1.08-2.5-2.5,0-1.42,1.08-2.5,2.5-2.5h.5v-5H2.5zM3,18V5h13v.46h1v-.46h4V8.03c-1.73.23-3,1.66-3,3.47,0,1.81,1.27,3.23,3,3.47v3.03h-4v-.46h-1v.46H3zM4.5,7H4v9.97l11,.03V7h-2v-1h-1v1H7v-1H6v1H4.5zM5,15.98V10h9v6l-9-.02zm9-6.98H5v-1h9v1zM9,13H8v-1h1v-1h1v4H9v-2zm7-6.61v.93h1v-.93h-1zm0,1.86v.93h1v-.93h-1zm0,1.86v.93h1v-.93h-1zm0,1.86v.93h1v-.93h-1zm0,1.86v.93h1v-.93h-1zM16,15.68v.93h1v-.93h-1z"/></svg>