<svg width="24" height="24" xmlns="http://www.w3.org/2000/svg"><path fill-rule="evenodd" clip-rule="evenodd" d="m10.5,3H10v1.28c-.71.21-1.31.54-1.81.94l.63.78C9.54,5.42,10.57,5,12,5c2.04,0,3.26.84,3.99,1.85C16.74,7.9,17,9.16,17,10v5h1v-5c0-1-.29-2.48-1.19-3.73C16.18,5.4,15.27,4.66,14,4.28V3h-3.5zM13,4.06V4h-.94c.33,0,.64.02.94.06zm-1.06-.06H11v.06c.3-.04.61-.06.94-.06zM7.14,8.84c-.1.43-.14.83-.14,1.16v6c0,.87-.28,1.53-.7,2h9.99L7.14,8.84zm-.81-.81C6.09,8.75,6,9.44,6,10v6c0,.84-.34,1.31-.73,1.59-.42.3-.93.41-1.27.41v1h5.04c.11.61.43,1.09.89,1.42.57.41,1.31.58,2.06.58.76,0,1.5-.17,2.06-.58.47-.34.78-.82.89-1.42h2.34l1.35,1.35.71-.71L4.35,4.65l-.71.71,2.67,2.67zM13.92,19h.01c-.09.27-.25.46-.45.61-.34.25-.85.39-1.47.39-.63,0-1.14-.14-1.47-.39-.21-.15-.37-.35-.45-.61h3.84z"/></svg>