<svg width="36" height="36" xmlns="http://www.w3.org/2000/svg"><path fill-rule="evenodd" clip-rule="evenodd" d="m8.25,6.25h-.5v6H6v1h1.75v5H6v1h1.75v5H6v1h1.75v4.5h20.5V6.25h-20zm.5,19v3.5h18.5V7.25H8.75v5h1.75v1H8.75v5h1.75v1H8.75v5h1.75v1H8.75zM18,11.75c-.87,0-1.75.95-1.75,2.5,0,.75.22,1.39.55,1.83.33.44.75.67,1.2.67.88,0,1.75-.94,1.75-2.49,0-.75-.22-1.39-.55-1.84-.33-.44-.75-.68-1.2-.68zm-2.75,2.5c0-1.81,1.07-3.5,2.75-3.5.83,0,1.53.44,2.01,1.08.48.64.74,1.5.74,2.44,0,.62-.12,1.22-.35,1.74,2.02,1.28,3.35,4.08,3.35,7.25v.5h-11.5v-.5c0-3.17,1.33-5.96,3.35-7.25-.23-.52-.35-1.12-.35-1.75zm.89,2.6c-1.55.99-2.74,3.19-2.87,5.9h9.48c-.13-2.71-1.32-4.9-2.87-5.9-.47.55-1.11.9-1.87.9-.75,0-1.39-.35-1.87-.9z"/></svg>