<svg width="48" height="48" xmlns="http://www.w3.org/2000/svg"><path fill-rule="evenodd" clip-rule="evenodd" d="m28.47,8.16-11,32-.95-.33,11-32,.95.33zm-.17,4.9C34.49,16.36,39.85,21.01,44,26.66v1.51l-5.91-1.27-.68,4.1h-7.08c-.77-.63-1.76-1-2.83-1s-2.06.37-2.83,1h-2.67v1h1.76c-.48.72-.76,1.58-.76,2.5,0,.53.09,1.03.26,1.5h-3.26v1h3.76c.81,1.21,2.18,2,3.74,2s2.93-.79,3.74-2l11.32,0-2.5-3h2.43c1.62,0,2.54-.55,3.03-1.2.24-.31.35-.63.41-.87.03-.12.05-.22.05-.29,0-.04.01-.07.01-.09l0-.01,0-.02,0-.01v-.01c0,0,0,0-.5,0h.5V28.6L45,28.39v-2.05l-.1-.13c-4.25-5.83-9.77-10.63-16.13-14.02l-.47.88zm10.46,20.94h-1.86l.33-2h-6c.48.72.76,1.58.76,2.5,0,.53-.09,1.03-.26,1.5L40.43,36l-1.67-2zm6.23-4.59v2.09l0,0,0,.01c0,.01,0,.01,0,.02,0,.03-.01.09-.03.16-.03.14-.1.32-.24.51-.26.35-.85.8-2.23.8h-4.41l.82-4.9,6.09,1.31zM28.74,15.06l-.52-.28-2.41,7.22h11.89l-.84-.85c-2.39-2.41-5.13-4.47-8.12-6.09zm-1.54,5.94,1.59-4.77c2.34,1.33,4.52,2.93,6.49,4.77h-8.08zm.31,10c-1.93,0-3.5,1.57-3.5,3.5,0,1.93,1.57,3.5,3.5,3.5,1.93,0,3.5-1.57,3.5-3.5,0-1.93-1.57-3.5-3.5-3.5zm-13,4v0c.74,0,1.42.03,2.04.1l-.1,1c-.59-.06-1.23-.09-1.93-.09-2.44.06-4.86.49-7.17,1.29l-.33-.95c2.41-.83,4.93-1.28,7.48-1.34l.01,0zm4.64-18c-1.19,0-2.22.84-2.45,2.01l-.2,1,0,0c-.27,1.35.61,2.67,1.96,2.94.16.03.33.05.49.05h2.06v-1h-2.06c-.1,0-.2-.01-.29-.03l0,0c-.81-.16-1.34-.95-1.18-1.76l0,0,.2-1,0,0c.14-.7.76-1.21,1.47-1.21h3.86v-1h-3.86zM12.5,11h-.5v7h2.39l-.8,4H1.77l4.95,12.64.46-.17C11.08,33,13.25,33,17.5,33v-1h-.01c-4.1,0-6.4,0-10.2,1.36L3.23,23H14.41l1.2-6h-2.61v-5h12v-1h-12.5z"/></svg>