<svg width="24" height="24" xmlns="http://www.w3.org/2000/svg"><path fill-rule="evenodd" clip-rule="evenodd" d="m11.5,4v1.5h1V4h-1zm4.01.81-.7,1.29.88.48.7-1.29-.88-.48zM12,8c-2.22,0-4,1.78-4,4,0,1.46.83,2.76,2.04,3.5h3.94C15.15,14.86,16,13.47,16,12c0-2.22-1.78-4-4-4zm-5,4c0,1.62.81,3.06,2,4v2.46l2,.7V20h2v-.85l2-.7v-2.43c1.21-.9,2-2.43,2-4.03,0-2.78-2.22-5-5-5-2.78,0-5,2.22-5,5zm3,4.5v1.25l2,.7,2-.7V16.5h-4zm7.32-8.28,1.28-.71.48.88-1.28.71-.48-.88zM18.5,12.5l1.5,0,0-1-1.5,0,0,1zm.12,3.99-1.3-.69.47-.88,1.3.69-.47.88zm-13.32-.02,1.31-.78-.51-.86-1.31.78.51.86zM5.5,12.5H4v-1h1.5v1zm-.66-4.09,1.28.82.54-.84-1.28-.82-.54.84zm3.48-1.83-.71-1.29.88-.48.71,1.29-.88.48z"/></svg>