<svg width="36" height="36" xmlns="http://www.w3.org/2000/svg"><path fill-rule="evenodd" clip-rule="evenodd" d="m26.04,16.07c-.44-.56-1.07-.96-1.86-1.08.25-1.25.07-2.37-.42-3.29-.55-1.06-1.49-1.82-2.56-2.2-2-.72-4.47-.14-5.8,2.23-2.19-1.23-5.13.33-5.13,3.13-.74.14-1.34.59-1.76,1.17-.5.7-.75,1.62-.71,2.53.04.91.37,1.84,1.07,2.55.71.71,1.75,1.16,3.12,1.16h10.5c1.32,0,2.35-.45,3.07-1.15.71-.7,1.09-1.61,1.16-2.52.07-.9-.15-1.82-.69-2.52zm-9.98-3.41c1.01-2.29,3.12-2.84,4.81-2.23.85.31,1.58.91,2.01,1.73.43.81.57,1.88.19,3.15l-.2.67.7-.03c.78-.03,1.33.27,1.68.73.36.47.54,1.13.49,1.83-.06.69-.34,1.37-.87,1.88-.52.5-1.29.86-2.37.86h-10.5c-1.15,0-1.92-.36-2.41-.86-.5-.5-.75-1.18-.78-1.89-.03-.71.17-1.4.53-1.9.35-.5.86-.8,1.47-.8h.56l-.07-.56c-.3-2.47,2.36-3.74,3.99-2.4l.51.42.27-.6zM10.5,25.5H9v-1.5h1.5v1.5zm1.5,0h-1.5v1.5H9v1.5h1.5v-1.5h1.5v1.5h1.5v-1.5h-1.5v-1.5zm0,0v-1.5h1.5v1.5h-1.5zm3,6h1.5v1.5h-1.5v1.5h1.5v-1.5h1.5v1.5h1.5v-1.5h-1.5v-1.5h1.5v-1.5h-1.5v1.5h-1.5v-1.5h-1.5v1.5zm7.5-6h-1.5v-1.5h1.5v1.5zm1.5,0h-1.5v1.5h-1.5v1.5h1.5v-1.5h1.5v1.5h1.5v-1.5h-1.5v-1.5zm0,0v-1.5h1.5v1.5h-1.5z"/></svg>