<svg width="36" height="36" xmlns="http://www.w3.org/2000/svg"><path fill-rule="evenodd" clip-rule="evenodd" d="m14.25,3.25h-.5v1.5h-9v28h26.5v-28h-9v-1.5h-8zm.5,2.5v.5h6.5v-2h-6.5v1.5zm7.5,0v1.5h-8.5v-1.5h-8v26h24.5v-26h-8zm-5.29,19.42h1.9V23.35h-1.9v1.83zM14.6,13.75c-.39.6-.6,1.44-.64,2.53h1.51c.12-1.92.97-2.88,2.53-2.88.76,0,1.33.24,1.71.73.32.4.48.89.48,1.48,0,.32-.06.63-.17.93-.13.36-.42.76-.85,1.2-.67.69-1.11,1.16-1.31,1.42-.2.25-.35.54-.45.85-.15.43-.23,1.1-.24,2h1.49c0-.5.03-.91.09-1.23.05-.32.14-.58.28-.8.13-.21.36-.48.7-.8.76-.74,1.23-1.25,1.43-1.52.45-.6.67-1.32.67-2.16,0-1.01-.33-1.83-.98-2.45-.7-.67-1.65-1.01-2.84-1.01-.74,0-1.4.15-2,.45-.59.3-1.07.72-1.43,1.27z"/></svg>