<svg width="36" height="36" xmlns="http://www.w3.org/2000/svg"><path fill-rule="evenodd" clip-rule="evenodd" d="m5.25,7.75h-.5v14.5h4.5v4.08l4.08-4.08h.42v4.5h8.92l4.08,4.08V26.75h4.5v-14.5h-7.5v-4.5H5.25zm18.5,5.5v3.5h4.75v1h-4.75v2H27v1h-3.25v1.5h-9v3.5h8.33l2.67,2.67V25.75h4.5v-12.5h-6.5zm-18,8V8.75h17v12.5h-9.83L10.25,23.92V21.25h-4.5zm7.49-2.31h1.27v-1.22h-1.27v1.22zm-1.57-7.62c-.26.4-.4.96-.43,1.69h1.01c.08-1.28.65-1.92,1.69-1.92.5,0,.89.16,1.14.49.21.27.32.59.32.99,0,.21-.04.42-.11.62-.09.24-.28.51-.57.8-.45.46-.74.78-.87.94-.13.17-.23.36-.3.57-.1.29-.15.73-.16,1.33h1c0-.34.02-.61.06-.82.04-.21.1-.39.18-.53.09-.14.24-.32.47-.54.5-.49.82-.83.96-1.01.3-.4.44-.88.44-1.44,0-.68-.22-1.22-.66-1.64-.47-.45-1.1-.67-1.89-.67-.49,0-.93.1-1.33.3-.4.2-.71.48-.95.85z"/></svg>