<svg width="24" height="24" xmlns="http://www.w3.org/2000/svg"><path fill-rule="evenodd" clip-rule="evenodd" d="m17.49,10.61c-.29-.37-.69-.64-1.18-.75.12-.8,0-1.53-.32-2.14-.39-.75-1.05-1.28-1.79-1.55-1.36-.49-3.04-.12-3.99,1.42-1.52-.72-3.43.33-3.52,2.18-.48.13-.87.43-1.14.81-.36.5-.53,1.15-.51,1.79.03.64.26,1.3.76,1.81.41.41.96.69,1.66.78l-.41.81.45.22c-.45-.22-.45-.22-.45-.22l0,0,0,0,0,0,0,0,0,.01-.02.04c-.01.03-.04.07-.06.13-.05.11-.12.26-.18.42-.07.17-.14.35-.19.54-.05.18-.1.39-.1.58,0,.55.45,1,1,1,.55,0,1-.45,1-1,0-.19-.05-.4-.1-.58-.05-.19-.12-.38-.19-.54-.07-.17-.13-.32-.18-.42-.02-.05-.05-.1-.06-.13l-.02-.04,0-.01,0,0,0,0,0,0,0,0c0,0,0,0-.45.22l.45-.22-.4-.8c.15.02.3.02.45.02h3.44l-.39.78.45.22c-.45-.22-.45-.22-.45-.22v0l0,0,0,0,0,0,0,.01-.02.04c-.01.03-.04.07-.06.13-.05.11-.12.26-.18.42-.07.17-.14.35-.19.54-.05.18-.1.39-.1.58,0,.55.45,1,1,1s1-.45,1-1c0-.19-.05-.4-.1-.58-.05-.19-.12-.38-.19-.54-.07-.17-.13-.32-.18-.42-.02-.05-.05-.1-.06-.13l-.02-.05,0,0,0,0,0,0v0c0,0,0,0-.45.22l.45-.22-.39-.78h3.44c.16,0,.31-.01.45-.03l-.4.8.45.22c-.45-.22-.45-.22-.45-.22v0l0,0,0,0,0,0,0,.01-.02.04c-.01.03-.04.07-.06.13-.05.11-.12.26-.18.42-.07.17-.14.35-.19.54-.05.18-.1.39-.1.58,0,.55.45,1,1,1s1-.45,1-1c0-.19-.05-.4-.1-.58-.05-.19-.12-.38-.19-.54-.07-.17-.13-.32-.18-.42-.02-.05-.05-.1-.06-.13l-.02-.05,0,0,0,0,0,0v0c0,0,0,0-.45.22l.45-.22-.41-.81c.67-.1,1.21-.38,1.62-.77.51-.49.77-1.15.83-1.78.05-.64-.11-1.29-.5-1.8zm-6.63-2.11c.64-1.44,1.95-1.77,3-1.39.53.19.98.57,1.25,1.07.26.5.36,1.17.12,1.98l-.2.67.7-.03c.46-.02.78.16.98.42.21.27.32.67.29,1.1-.03.42-.21.84-.53,1.15-.31.3-.78.53-1.46.53H8c-.73,0-1.2-.23-1.49-.52-.3-.3-.46-.71-.47-1.15-.02-.44.1-.86.32-1.17.21-.29.5-.46.85-.46h.56l-.07-.56c-.18-1.5,1.42-2.25,2.39-1.45l.51.42.27-.6zm2.2,9.27c0,0,0,0,.45.22.45-.22.45-.22.45-.22v0l0,0,0,0,0,0,0,.01.02.04c.01.03.04.07.06.13.05.11.12.26.18.42.07.17.14.35.19.54.05.18.1.39.1.58,0,.55-.45,1-1,1s-1-.45-1-1c0-.19.05-.4.1-.58.05-.19.12-.38.19-.54.07-.17.13-.32.18-.42.02-.05.05-.1.06-.13l.02-.05,0,0,0,0,0,0v0zM13.5,18l-.45-.22.45-.89.45.89-.45.22zm-4.45-.22.45.22c-.45-.22-.45-.22-.45-.22l0,0,0,0,0,0,0,0,0,.01-.02.04c-.01.03-.04.07-.06.13-.05.11-.12.26-.18.42-.07.17-.14.35-.19.54-.05.18-.1.39-.1.58,0,.55.45,1,1,1,.55,0,1-.45,1-1,0-.19-.05-.4-.1-.58-.05-.19-.12-.38-.19-.54-.07-.17-.13-.32-.18-.42-.02-.05-.05-.1-.06-.13l-.02-.04,0-.01,0,0,0,0,0,0,0,0c0,0,0,0-.45.22l.45-.22-.45-.89-.45.89z"/></svg>