<svg width="36" height="36" xmlns="http://www.w3.org/2000/svg"><path fill-rule="evenodd" clip-rule="evenodd" d="m8.25,9.25h-.5v14.5h20.5V9.25h-20zm.5,7.25v-6.25h18.5v12.5H8.75V16.5zm15,13.5v-.25h3.5V30c0,.97-.78,1.75-1.75,1.75s-1.75-.78-1.75-1.75zm-1,0v-.25h-9.5V30c0,1.52-1.23,2.75-2.75,2.75-1.52,0-2.75-1.23-2.75-2.75v-.25h-1.5v-1.5h-2V30h-1v-4.5h1v1.75h2v-1.5h23.5v1.5h2V25.5h1V30h-1v-1.75h-2v1.5h-1.5V30c0,1.52-1.23,2.75-2.75,2.75s-2.75-1.23-2.75-2.75zm-14-.25V30c0,.97.78,1.75,1.75,1.75s1.75-.78,1.75-1.75v-.25h-3.5zm-1.5-1h21.5v-2H7.25v2z"/></svg>