<svg width="36" height="36" xmlns="http://www.w3.org/2000/svg"><path fill-rule="evenodd" clip-rule="evenodd" d="m25.06,12.25H25.5c.37,0,.7.12.94.38.23.25.31.57.31.87v3c0,.35-.12.68-.36.92-.24.23-.57.33-.89.33h-3.1c-.2.43-.45.82-.73,1.17,4.58,2.39,6.58,7.31,6.58,11.82v.5H7.75v-.5c0-5.11,2.47-9.7,6.58-11.83-.48-.6-.85-1.32-1.08-2.11v.94H10.5c-.33,0-.64-.15-.86-.36-.22-.21-.39-.52-.39-.89v-2.99c0-.36.17-.67.39-.89.22-.21.53-.37.86-.37h.31c1.92-8.08,12.7-7.81,14.25,0zm-1.02,0H22.75v.94c-.64-2.26-2.47-3.94-4.75-3.94s-4.11,1.68-4.75,3.94V12.25h-1.41c1.81-6.77,10.73-6.45,12.2,0zM18,10.25c-2.17,0-4,2.04-4,4.75,0,2.71,1.83,4.75,4,4.75,1.33,0,2.54-.77,3.27-2H18v-1h3.73C21.9,16.21,22,15.62,22,15c0-2.71-1.83-4.75-4-4.75zm0,10.5c1.12,0,2.12-.4,2.93-1.08,4.18,2.03,6.16,6.38,6.31,10.58H8.76c.16-4.71,2.55-8.78,6.31-10.58.81.68,1.82,1.08,2.94,1.08zm-7.75-7.24c0-.05.02-.11.09-.18.06-.06.13-.08.16-.08h1.75v3.5H10.5c-.03,0-.1-.02-.17-.08-.06-.06-.08-.12-.08-.17v-2.99zm13.5,3.24h1.75c.12,0,.17-.04.19-.06.02-.02.06-.07.06-.19v-3c0-.12-.03-.18-.05-.2-.01-.01-.05-.05-.2-.05h-1.75v3.5z"/></svg>