<svg width="24" height="24" xmlns="http://www.w3.org/2000/svg"><path fill-rule="evenodd" clip-rule="evenodd" d="m3.53,3c-.14,0-.28.06-.38.16S3,3.39,3,3.53V6h4.69l1.5-3H3.53zM13.69,6H8.81L10.31,3h4.88l-1.5,3zm2.62-3-1.5,3H21V3.53c0-.14-.06-.28-.16-.38C20.74,3.06,20.61,3,20.47,3H16.31zM2.45,2.45C2.74,2.16,3.13,2,3.53,2H20.47c.41,0,.8.16,1.08.45.29.29.45.68.45,1.08V7H2V3.53c0-.41.16-.8.45-1.08zM3,21.03V8.03H2V22.03h20V8.03h-1V21.03H3zm6.74-10.47L9,10.16v7.68L16.04,14,9.74,10.56zM13.96,14,10,16.16v-4.32L13.96,14z"/></svg>