<svg width="48" height="48" xmlns="http://www.w3.org/2000/svg"><path fill-rule="evenodd" clip-rule="evenodd" d="m14.95,4.54c.46-1.27,1.88-1.87,3.11-1.36C30.29,8.2,40.01,18.09,44.83,30.46c.48,1.24-.13,2.66-1.4,3.1L40.13,34.7c-.83.29-1.72.08-2.34-.48L5.71,44.89l-.16-.47.16.47c-1.63.54-3.16-1.04-2.58-2.65L14.4,10.39c-.7-.62-.97-1.63-.64-2.55L14.95,4.54zm.34,6.34-5.15,14.54,2.22,2.22-.71.71-1.88-1.88-2.32,6.55C9.46,33.24,11.02,34.94,11.02,37c0,2.21-1.79,4-4,4-.8,0-1.55-.24-2.17-.64l-.79,2.22-.47-.17.47.17c-.3.84.5,1.64,1.33,1.37l8.61-2.86V38h1v2.75l9.85-3.27c-.53-.68-.85-1.53-.85-2.46,0-2.22,1.79-4.01,4-4.01,2.21,0,4,1.8,4,4.01,0,.03,0,.06,0,.09l5.21-1.73c-3.98-10.14-11.93-18.28-21.92-22.48zm15.68,24.55c.02-.14.04-.29.04-.43,0-1.67-1.35-3.01-3-3.01s-3,1.35-3,3.01c0,.83.34,1.58.88,2.12l5.08-1.69zM5.2,39.38c.51.39,1.14.62,1.82.62,1.66,0,3-1.34,3-3,0-1.63-1.3-2.96-2.92-3l-1.91,5.38zM17.68,4.1c-.72-.3-1.53.06-1.79.78l-1.19,3.3c-.24.68.08,1.42.73,1.69C25.79,14.14,34.03,22.53,38.14,33c.26.65.99.99,1.67.75l3.3-1.14c.72-.25,1.09-1.06.8-1.79C39.18,18.71,29.65,9.02,17.68,4.1zM16,19.5c0-1.38,1.12-2.5,2.5-2.5s2.5,1.12,2.5,2.5-1.12,2.5-2.5,2.5-2.5-1.12-2.5-2.5zm2.5-3.5c-1.93,0-3.5,1.57-3.5,3.5s1.57,3.5,3.5,3.5,3.5-1.57,3.5-3.5-1.57-3.5-3.5-3.5zm-3.5,14.5c0-1.38,1.12-2.5,2.5-2.5s2.5,1.12,2.5,2.5-1.12,2.5-2.5,2.5-2.5-1.12-2.5-2.5zm2.5-3.5c-1.93,0-3.5,1.57-3.5,3.5s1.57,3.5,3.5,3.5,3.5-1.57,3.5-3.5-1.57-3.5-3.5-3.5zm12.5,2h-4v-1h4v1zm-6.42-5.72,2,3,.83-.55-2-3-.83.55z"/></svg>