<svg width="24" height="24" xmlns="http://www.w3.org/2000/svg"><path fill-rule="evenodd" clip-rule="evenodd" d="m13.27,5.25,1.73,1.53,4.08,1.58-.65,1.94.89.27.52-.99,2,1.53.2,4.04-1.51-.04.25,2.16-3.97-1.04-1.76,3.73-2.29-3.17-1.53,1.66-3.57.4-2.13-2.04-.68.4-3.04.77,1.31-4.78.03-.11,2.48-2.75-1.28-.44,3.46-2.57.84.46,3.41-.93,1.24-1.6zM6.44,9.56l.92.32-3.33,3.69-.82,3.01,1.24-.32,1.21-.7,2.34,2.24,2.74-.31,2.11-2.28,2.01,2.79,1.39-2.95,3.36.88-.21-1.85,1.58.04-.12-2.5-.69-.53-.35.67-2.66-.8.68-2.01,14.47,7.64-1.06-.94-.79,1.02-4.12,1.12-.64-.34L6.44,9.56z"/></svg>