<svg width="24" height="24" xmlns="http://www.w3.org/2000/svg"><path fill-rule="evenodd" clip-rule="evenodd" d="m3,3v3h1v-2h1v-1h-2v0zM3,8h2v-1H3v1zm7-3H9v-1H10v1zm1,0h1v-2h-1v2zM6,3h3v1h-2v1h-2v-1h1v-1zM13,5h2V4h1v1h1v-2h-2v1h-2v1zM4,17H3v-2h1v2zm-1-6h1V10h1V9H4v1H3v1zM4,13H3v-1h1V11h1v1H4v1zM5,14H4v-1h1v1zM11,17h6v-6h-6v6zm1-1h4v-4h-4v4zm3-1h-2v-2h2v2zm-8-3h2v-1H10v-1H9v1h-2v1zM14,10V10h-1v0h-1v-1h1V8h1v2zM21,13h-1v1h-2v1h2V14h1v-1zM20,11h1v1h-1v1h-2v-1h2V11zm-9-2v-1h2v-1h-3v0h0v1h-1v1h2zM16,9h-1V7h1v2h1v1h-1V9zm4,8h1v-2h-1v2zM9,8h-1v2h-1V7h2v1zM12,21h1v-1h-1v1zm-4,0h-1v-2h1v2zm2-4h-1V17h-1v1h1v1h2v-1h-1l0-1zm4,2h-2v-1h2v1zm6,2h1v-1h-1v1zm-12-6h-1v-1h1V13H10v1H8v1zm-1,2h1V16H10v-1H8v1h-1v1zM21,9h-1v-1h-1v-1h2v2zM9,21H11v-1H9v1zM20,19h-1V18h-1v2h1v1h-2v-2h-1v1h-1v1h-1v-2h1v-1l3,0V16h1v2h1v1zm-2-8V9l-1,0v-1h2v2h1v1l-2,0z"/></svg>