<svg width="36" height="36" xmlns="http://www.w3.org/2000/svg"><path fill-rule="evenodd" clip-rule="evenodd" d="m18,4.25C10.41,4.25,4.25,10.41,4.25,18S10.41,31.75,18,31.75,31.75,25.59,31.75,18,25.59,4.25,18,4.25zM3.25,18C3.25,9.85,9.85,3.25,18,3.25c8.15,0,14.75,6.6,14.75,14.75,0,8.15-6.6,14.75-14.75,14.75C9.85,32.75,3.25,26.15,3.25,18zm15.4,6.13c.82-.01,1.49-.26,2.02-.77.52-.51.78-1.16.78-1.95,0-.81-.23-1.46-.68-1.93-.45-.47-1.16-.8-2.12-.97v5.62zm-1.17-12.7c-.69.02-1.23.17-1.61.44-.69.48-1.04,1.17-1.04,2.08,0,.71.22,1.27.65,1.68.43.41,1.1.69,2.01.85v-5.04zm-4.73,9.3h1.8c0,2.15.98,3.29,2.92,3.4v-5.87c-1.08-.18-2-.51-2.74-.99-1.13-.72-1.7-1.77-1.7-3.18,0-1.2.4-2.17,1.2-2.93.81-.75,1.88-1.16,3.24-1.23v-1.9h1.17v1.9c1.35.11,2.37.5,3.06,1.19.75.74,1.12,1.71,1.1,2.91h-1.78c-.11-1.68-.91-2.55-2.38-2.6v5.32c.89.23,1.51.4,1.85.52s.66.28.96.47c1.18.77,1.77,1.93,1.77,3.49,0,1.61-.66,2.84-1.98,3.69-.63.41-1.5.64-2.61.7v2.34h-1.17v-2.34c-1.59-.1-2.78-.57-3.55-1.42-.79-.88-1.19-2.04-1.18-3.47zm.54-13.49C10.09,8.64,7.64,11.44,6.69,14.87l.96.27c.87-3.14,3.11-5.7,6.04-6.98l-.4-.92z"/></svg>