<svg width="24" height="24" xmlns="http://www.w3.org/2000/svg"><path fill-rule="evenodd" clip-rule="evenodd" d="m11.98,3.01c-3.31,0-6,2.69-6,6v.01l0,.01c.04,1.04.35,1.91.84,2.72H6.82l5.18,8.18,5.18-8.17.01-.01c.47-.83.79-1.72.8-2.73V9.01c0-3.31-2.69-6-6-6zM7.68,11.24c-.41-.69-.66-1.39-.69-2.23.01-2.76,2.24-4.99,5-4.99,2.76,0,5,2.24,5,5-.01.79-.25,1.51-.66,2.23l-4.32,6.82L7.68,11.24zm1.32-2.23c0-1.66,1.34-3,3-3,1.66,0,3,1.34,3,3,0,1.66-1.34,3-3,3-1.66,0-3-1.34-3-3zm3-4c-2.21,0-4,1.79-4,4,0,2.21,1.79,4,4,4,2.21,0,4-1.79,4-4,0-2.21-1.79-4-4-4z"/></svg>