<svg width="36" height="36" xmlns="http://www.w3.org/2000/svg"><path fill-rule="evenodd" clip-rule="evenodd" d="m7.25,7.75V6h-1v1.75H3.25V29.75h29.5V7.75h-3V6h-1v1.75H7.25zM25.75,15v-3.2c-1.15.23-2,1.23-2,2.45,0,1.4,1.1,2.5,2.5,2.5,1.4,0,2.5-1.1,2.5-2.5,0-1.23-.85-2.23-2-2.45v3.2h-1zm-3-.75c0-1.95,1.55-3.5,3.5-3.5,1.95,0,3.5,1.55,3.5,3.5,0,1.95-1.55,3.5-3.5,3.5-1.95,0-3.5-1.55-3.5-3.5zM4.25,28.75V8.75h27.5V28.75H4.25zM21,11.75H6v-1h15v1zm-15,3h15v-1H6v1zm15,3H6v-1h15v1zM6,20.75h15v-1H6v1zm15,3H6v-1h15v1zm-15,3h15v-1H6v1z"/></svg>