<svg width="36" height="36" xmlns="http://www.w3.org/2000/svg"><path fill-rule="evenodd" clip-rule="evenodd" d="m18,6.25c-4.83,0-8.75,3.92-8.75,8.75v.01l0,.01c.06,1.51.51,2.78,1.22,3.97l0,0,.01.01,7.55,11.92,7.56-11.93.01-.01c.69-1.22,1.15-2.51,1.17-3.97v-.01c0-4.83-3.92-8.75-8.75-8.75zM11.32,18.47c-.63-1.06-1.02-2.16-1.07-3.48.01-4.28,3.47-7.74,7.75-7.74,4.28,0,7.75,3.47,7.75,7.75-.01,1.24-.4,2.36-1.03,3.47l-6.7,10.57-6.7-10.58zm6.65-8.12,1.79,4.83h-3.59l1.8-4.83zm4.9,9.16-4.09-10.51h-1.55l-4.11,10.51h1.46l1.2-3.21h4.39l1.17,3.21h1.54z"/></svg>