<svg width="24" height="24" xmlns="http://www.w3.org/2000/svg"><path fill-rule="evenodd" clip-rule="evenodd" d="m14.21,5v-3h1v3h-1zm-3.5-2.21,9.71,9.71-.35.35-.35-.35.35.35v0l0,0-.01.01-.2.2c-.15.15-.4.4-.79.79l-.17.17-.24-.03c-2.87-.33-4.3-.3-5.17-.05-.74.21-1.09.57-1.67,1.16h0c-.08.08-.16.16-.24.24l-.35.35-.54-.54-.01-.01-.01-.01-.66-.66-.01-.01-.01-.01-.01-.01-.01-.01-.01-.01-.01-.01-.01-.01-.01-.01-.01-.01-.01-.01-.01-.01-.01-.01-.01-.01-.01-.01-.01-.01-.01-.01-.01-.01-.01-.01-.01-.01-.01-.01-.01-.01-.01-.01-.01-.01-.01-.01-.01-.01-.01-.01-.01-.01-.01-.01-.01-.01-.01-.01-.01-.01-.02-.02-.01-.01-.01-.01-.01-.01-.02-.02-.01-.01-.03-.03-.01-.01-.03-.03-.01-.01-.05-.05-.01-.01-.42-.42-.01-.01-.07-.07-.01-.01-.04-.04-.01-.01-.03-.03-.01-.01-.02-.02-.01-.01-.02-.02-.01-.01-.02-.02-.01-.01-.01-.01-.01-.01-.01-.01-.01-.01-.01-.01-.01-.01-.01-.01-.01-.01-.01-.01-.01-.01-.01-.01-.01-.01-.01-.01-.01-.01-.01-.01-.01-.01-.01-.01-.01-.01-.01-.01-.01-.01-.01-.01-.01-.01-.01-.01-.01-.01-.01-.01-.01-.01-.01-.01-.01-.01-.01-.01-.02-.02-.01-.01-.02-.02-.01-.01-.01-.01-.1-.1-.01-.01-.02-.02-.01-.01-.02-.02-.01-.01-.01-.01-.01-.01-.01-.01-.01-.01-.01-.01-.01-.01-.01-.01-.01-.01-.01-.01-.01-.01-.01-.01-.01-.01-.01-.01-.01-.01-.01-.01-.01-.01-.01-.01-.02-.02-.01-.01-.01-.01-.06-.06-.01-.01-.02-.02-.01-.01-.02-.02-.01-.01-.01-.01-.01-.01-.01-.01-.01-.01-.01-.01-.01-.01-.01-.01-.01-.01-.01-.01-.01-.01-.01-.01-.02-.02-.01-.01-.01-.01-.06-.06-.01-.01-.02-.02-.01-.01-.01-.01-.01-.01-.01-.01-.01-.01-.01-.01-.01-.01-.01-.01-.01-.01-.01-.01-.01-.01-.01-.01-.01-.01-.01-.01-.01-.01-.06-.06-.01-.01-.35-.35.35-.35c.08-.08.16-.16.24-.24.59-.58.95-.94,1.16-1.67.25-.87.29-2.3-.05-5.18l-.03-.24,1.52-1.52zm8.29,9.71-8.29-8.29-.48.48c.31,2.72.29,4.27-.01,5.33-.27.93-.76,1.46-1.3,1.99l0,0,.01.01.01.01.02.02.01.01.02.02.01.01.02.02.05.05.01.01.02.02.01.01.01.01.01.01.01.01.01.01.01.01.01.01.01.01.01.01.01.01.01.01.01.01.01.01.01.01.01.01.01.01.01.01.01.01.02.02.01.01.02.02.01.01.02.02.01.01.01.01.06.06.01.01.02.02.01.01.02.02.01.01.02.02.01.01.01.01.01.01.01.01.01.01.01.01.01.01.01.01.01.01.01.01.01.01.01.01.01.01.01.01.01.01.01.01.01.01.01.01.01.01.01.01.01.01.01.01.01.01.01.01.01.01.01.01.01.01.01.01.01.01.01.01.02.02.01.01.02.02.01.01.03.03.01.01.04.04.01.01.02.02.01.01.02.02.01.01.01.01.01.01.01.01.01.01.01.01.01.01.01.01.02.02.01.01.07.07.01.01.29.29.01.01.05.05.01.01.03.03.01.01.02.02.01.01.02.02.01.01.02.02.01.01.05.05.01.01.14.14.01.01.01.01.01.01.04.04.01.01.03.03.01.01.08.08.01.01.03.03.01.01.02.02.01.01.01.01.01.01.02.02.01.01.01.01.01.01.01.01.01.01.01.01.01.01.05.05.01.01.02.02.01.01.06.06.01.01.02.02.01.01.03.03.01.01,0,0c.53-.54,1.06-1.03,1.99-1.3,1.06-.3,2.61-.32,5.33-.01l.48-.48zm-12.29.29L13.41,19.5l-2.71,2.71-3-3-1,1L3,16.5l3.71-3.71zM4.41,16.5l2.29,2.29,1-1,3,3L12,19.5,6.71,14.21,4.41,16.5zM18.85,3.65l-3,3,.71.71,3-3-.71-.71zm2.35,4.35h-3v1h3v-1z"/></svg>