<svg width="36" height="36" xmlns="http://www.w3.org/2000/svg"><path fill-rule="evenodd" clip-rule="evenodd" d="m23.99,4.76c-4.01,0-7.25,3.25-7.25,7.25v.01l0,.01c.02.56.11,1.08.25,1.58l.96-.28c-.12-.42-.19-.86-.21-1.33.01-3.45,2.8-6.24,6.25-6.24,3.45,0,6.25,2.8,6.25,6.25-.01.99-.32,1.9-.83,2.8L24.01,23.33l-1.12-1.76-.84.54,1.96,3.09,6.25-9.87.01-.01.01-.01c.57-1,.96-2.08.97-3.29v0c0-4-3.25-7.25-7.25-7.25zm.01,5.49c-.97,0-1.75.78-1.75,1.75,0,.97.78,1.75,1.75,1.75.97,0,1.75-.78,1.75-1.75,0-.97-.78-1.75-1.75-1.75zm-2.75,1.75c0-1.52,1.23-2.75,2.75-2.75,1.52,0,2.75,1.23,2.75,2.75,0,1.52-1.23,2.75-2.75,2.75-1.52,0-2.75-1.23-2.75-2.75zM7.5,16.5h-1.5v1.49h-1.51v-3h1.5v0h1.51V16.5zm-1.51,14.99h-1.5v-3h1.51v1.5h1.5v1.51h-1.51v-.01zm4.5-3v-1.5H7.5v-1.5h-.01v-1.49h1.5v2.99h7.5v-2.99h1.5v1.49h-1.5v1.5h-3v1.5h3v1.51h1.5v1.5h1.51v-.01h1.5v-3h-1.51v1.5h-1.49v-1.5h-1.51v-1.5h3v-1.5h1.5v-1.5h-2.99V22.49h2.99v-1.5h-1.49v-1.5h-1.51V18h.01v-1.5h1.49v1.49h1.51v-3h-1.5v0h-1.51v1.5h-1.5v1.5h-1.5v1.5h-1.49v-1.5h-1.51v-1.5H8.99v1.5h-1.5v1.5h-1.5v1.5h-1.5v1.51h1.51v-1.51h2.99v1.5h-1.5v1.5h-3v1.5h1.5v1.51h1.5v1.49h3zm0,0h1.51v1.5h2.99v1.5h-3v-1.49h-1.49v1.5H8.99v-1.51h1.5v-1.5zM9,19.49h2.99v-1.5H9v1.5zm7.49,3h1.5v-3h-1.5v3zm-4.5-6h3v-1.5h-3v1.5zm0,7.51h1.51v-1.51h-1.51v1.51zm3,1.49h-4.5v-4.5h4.5v4.5z"/></svg>