<svg width="36" height="36" xmlns="http://www.w3.org/2000/svg"><path fill-rule="evenodd" clip-rule="evenodd" d="m4.25,15.75c0-3.87,1.91-7.3,4.85-9.38l1.39.87h2.53l.73-2.81c.65-.11,1.32-.17,2-.17,1.98,0,3.85.5,5.48,1.39L19.81,6.66,18.74,8.37,15.32,7.76,12.68,10.54,9.14,12.03,8.1,13.62l4.22,1.32,5.24-.99.6.3.86,2.41.94-.34-1-2.78-1.26-.64-5.33,1.01-2.72-.85.15-.23,3.45-1.45,2.41-2.54,3.56.63,1.33-2.12,1.6-1.16c2.4,1.62,4.17,4.12,4.82,7.03l.98-.22C26.7,7.43,21.71,3.25,15.75,3.25c-6.9,0-12.5,5.6-12.5,12.5,0,6.9,5.6,12.5,12.5,12.5.27,0,.53-.01.8-.03l-.06-1c-.24.02-.49.02-.73.02-4.68,0-8.71-2.8-10.5-6.81l1.82-2.43,2.2-.54,3.64,1.26,1.2,2,2.78-.93.96.31.31-.95-1.27-.42-2.33.78-.98-1.63-4.26-1.47-2.84.69-1.66,2.22c-.37-1.13-.57-2.33-.57-3.59zm6.53-9.51-.75-.47c.82-.47,1.69-.84,2.62-1.1l-.4,1.56h-1.47zm19.23,9.01h-7.5v1h3.25v2h-3.19c-1.55,0-2.81,1.26-2.81,2.81V29.75h2.01l-1.23,3.06.93.37,1.37-3.44h6.82l1.37,3.44.93-.37L30.74,29.75h2.01v-8.69c0-1.55-1.26-2.81-2.81-2.81h-3.19v-2h3.25v-1zm-9.25,13.5v-5h11v5h-11zm11-7.69V22.75h-11v-1.69c0-1,.81-1.81,1.81-1.81h7.38c1,0,1.81.81,1.81,1.81zm-8,5.19c0-.14.11-.25.25-.25.14,0,.25.11.25.25s-.11.25-.25.25c-.14,0-.25-.11-.25-.25zm.25-1.25c-.69,0-1.25.56-1.25,1.25s.56,1.25,1.25,1.25c.69,0,1.25-.56,1.25-1.25s-.56-1.25-1.25-1.25zm4.5,1c-.14,0-.25.11-.25.25s.11.25.25.25c.14,0,.25-.11.25-.25s-.11-.25-.25-.25zm-1.25.25c0-.69.56-1.25,1.25-1.25.69,0,1.25.56,1.25,1.25s-.56,1.25-1.25,1.25c-.69,0-1.25-.56-1.25-1.25z"/></svg>