<svg width="36" height="36" xmlns="http://www.w3.org/2000/svg"><path fill-rule="evenodd" clip-rule="evenodd" d="m3.1,18c0-5.06,1.54-8.76,3.54-11.54l.81.59C5.56,9.66,4.1,13.16,4.1,18c0,4.83,1.46,8.19,3.36,10.97l-.83.56C4.64,26.62,3.1,23.07,3.1,18zm6.15,3.75c0-2.52,1.46-4.72,3.57-5.8l.45.89c-1.79.91-3.02,2.78-3.02,4.9,0,3.02,2.48,5.5,5.5,5.5,2.19,0,4.09-1.3,4.98-3.17l.9.43c-1.04,2.2-3.29,3.74-5.88,3.74-3.57,0-6.5-2.92-6.5-6.5zm23.35-3.75c0-5.07-1.54-8.61-3.54-11.53l-.83.56c1.9,2.78,3.36,6.13,3.36,10.97,0,4.84-1.46,8.34-3.36,10.96l.81.59c2.01-2.78,3.55-6.48,3.55-11.54zM15.25,20.25v-8.25h1v7.75h7.5v8.75h-1v-7.75h-7.5v-.5zm.25-11.25c0-.14.11-.25.25-.25.14,0,.25.11.25.25,0,.14-.11.25-.25.25-.14,0-.25-.11-.25-.25zm.25-1.25c-.69,0-1.25.56-1.25,1.25,0,.69.56,1.25,1.25,1.25.69,0,1.25-.56,1.25-1.25,0-.69-.56-1.25-1.25-1.25z"/></svg>