<svg width="24" height="24" xmlns="http://www.w3.org/2000/svg"><path fill-rule="evenodd" clip-rule="evenodd" d="m11.5,3.98,7.64,2.18-1.28,3.84H16.49c-1.24,1.51-3,2.5-4.99,2.5-1.99,0-3.75-.99-4.99-2.5H5.14L3.86,6.16l7.64-2.18zM5.86,9H17.14l.72-2.16-6.36-1.82L5.14,6.84l.72,2.16zm2.02,1c1.01.94,2.27,1.5,3.62,1.5s2.61-.56,3.62-1.5H7.88zm2.62-3c0-.55.45-1,1-1,.55,0,1,.45,1,1s-.45,1-1,1c-.55,0-1-.45-1-1zm6.94,8.7c-.13.61-.29,1.21-.52,1.57l0,0c-1.95,3.03-4.19,3.73-5.43,3.73-1.24,0-3.47-.7-5.43-3.73l0,0c-.23-.36-.4-.96-.52-1.57-.13-.63-.24-1.37-.32-2.05-.08-.69-.14-1.34-.18-1.83-.02-.24-.03-.44-.04-.58,0-.07-.01-.12-.01-.16l0-.06,0,0,0,0c0,0,0,0,.5-.03l.5-.03v0l0,0,0,.05c0,.04.01.09.01.16.01.13.02.33.04.57.04.47.1,1.11.18,1.79.08.68.18,1.38.3,1.97.13.62.26,1.04.38,1.23,1.79,2.77,3.73,3.27,4.59,3.27.86,0,2.8-.5,4.59-3.27.12-.19.26-.61.38-1.23.12-.59.22-1.29.3-1.97.08-.67.14-1.31.18-1.79.02-.24.03-.43.04-.56,0-.07.01-.12.01-.16l0-.05,0,0v0l.5.03c.5.03.5.03.5.03v0l0,0,0,.05c0,.04-.01.09-.01.16-.01.14-.02.34-.04.58-.04.48-.1,1.13-.18,1.82-.08.69-.19,1.42-.32,2.05zm-7.94-1.5c.11,0,.2-.09.2-.2s-.09-.2-.2-.2c-.11,0-.2.09-.2.2s.09.2.2.2zm-.8-.2c0-.44.36-.8.8-.8.44,0,.8.36.8.8,0,.44-.36.8-.8.8-.44,0-.8-.36-.8-.8zm4.8.2c.11,0,.2-.09.2-.2s-.09-.2-.2-.2c-.11,0-.2.09-.2.2s.09.2.2.2zm-.8-.2c0-.44.36-.8.8-.8s.8.36.8.8c0,.44-.36.8-.8.8-.44,0-.8-.36-.8-.8zm-1.2,3c.98,0,1.77-.35,2.19-.79l.73.68c-.65.7-1.74,1.11-2.92,1.11-1.11,0-2.14-.37-2.8-.98l.69-.73c.43.41,1.19.71,2.11.71z"/></svg>