<svg width="48" height="48" xmlns="http://www.w3.org/2000/svg"><path fill-rule="evenodd" clip-rule="evenodd" d="m3,4.74V2H2v44h1v-7.49l5.68-1.75,0,0c2.43-.75,5-.97,7.52-.65s4.95,1.18,7.12,2.51v0c2.23,1.37,4.73,2.27,7.33,2.63,2.59.36,5.44.19,7.78-.56.98-.31,2.79-.91,4.35-1.42.78-.26,1.5-.5,2.02-.67l.85-.28,0,0,0,0,0,0-.16-.47.16.47L46,38.21V4.43l-.66.22.16.47c-.16-.47-.16-.47-.16-.47l0,0,0,0-.85.28c-.52.17-1.24.41-2.02.67-1.56.51-3.37,1.11-4.34,1.42-2.17.69-4.87.86-7.34.52-2.46-.34-4.82-1.19-6.94-2.49-2.29-1.41-4.85-2.31-7.52-2.65-2.67-.34-5.37-.11-7.94.69l0,0L3,4.74zM3,5.79v31.67l5.39-1.66c2.57-.79,5.28-1.02,7.94-.69,2.67.34,5.23,1.24,7.52,2.65,2.12,1.3,4.48,2.15,6.94,2.49,2.47.34,5.17.18,7.34-.52.98-.31,2.78-.9,4.34-1.42.78-.26,1.5-.5,2.02-.67l.51-.17V5.82l-.2.06c-.52.17-1.24.41-2.02.67-1.56.51-3.37,1.11-4.35,1.42-2.34.75-5.19.91-7.78.56-2.6-.36-5.09-1.25-7.33-2.63V5.9c-2.17-1.33-4.59-2.19-7.12-2.51l.06-.5-.06.5c-2.52-.32-5.09-.1-7.52.65L3,5.79zm19.6,5.54.62.21-.42.63.83.55.37-.55.37.55.83-.55-.42-.63.62-.21-.32-.95-.58.19v-.57h-1v.57l-.58-.19-.32.95zm5.9,1.68-.62-.21.32-.95.58.19v-.57h1v.57l.58-.19.32.95-.62.21.42.63-.83.55-.37-.55-.37.55-.83-.55.42-.63zm3.23,3.64.62.21-.42.63.83.55.37-.55.37.55.83-.55-.42-.63.62-.21-.32-.95-.58.19v-.57h-1v.57l-.58-.19-.32.95zm2.03,5.46-.62-.21.32-.95.58.19v-.57h1v.57l.58-.19.32.95-.62.21.42.63-.83.55-.37-.55-.37.55-.83-.55.42-.63zm-2.03,5.05.62.21-.42.63.83.55.37-.55.37.55.83-.55-.42-.63.62-.21-.32-.95-.58.19v-.57h-1v.57l-.58-.19-.32.95zM28.5,31.21l-.62-.21.32-.95.58.19v-.57h1v.57l.58-.19.32.95-.62.21.42.63-.83.55-.37-.55-.37.55-.83-.55.42-.63zm-5.86,1.2.62.21-.42.63.83.55.37-.55.37.55.83-.55-.42-.63.62-.21-.32-.95-.58.19v-.57h-1v.57l-.58-.19-.32.95zm-4.64-1.2-.62-.21.32-.95.58.19v-.57h1v.57l.58-.19.32.95-.62.21.42.63-.83.55-.37-.55-.37.55-.83-.55.42-.63zm-4.47-4.05.62.21-.42.63.83.55.37-.55.37.55.83-.55-.42-.63.62-.21-.32-.95-.58.19v-.57h-1v.57l-.58-.19-.32.95zm-.79-5.05-.62-.21.32-.95.58.19v-.57h1v.57l.58-.19.32.95-.62.21.42.63-.83.55-.37-.55-.37.55-.83-.55.42-.63zm.79-5.46.62.21-.42.63.83.55.37-.55.37.55.83-.55-.42-.63.62-.21-.32-.95-.58.19v-.57h-1v.57l-.58-.19-.32.95zm4.47-3.64-.62-.21.32-.95.58.19v-.57h1v.57l.58-.19.32.95-.62.21.42.63-.83.55-.37-.55-.37.55-.83-.55.42-.63z"/></svg>