<svg width="48" height="48" xmlns="http://www.w3.org/2000/svg"><path fill-rule="evenodd" clip-rule="evenodd" d="m24,10c-7.56,0-14.37,3.18-19.2,8.27l-.73-.69C9.09,12.31,16.15,9,24,9c7.85,0,14.91,3.31,19.92,8.58l-.73.69C38.37,13.18,31.56,10,24,10zM9.15,22.4C12.89,18.46,18.15,16,24,16c5.85,0,11.12,2.46,14.85,6.4l.73-.69C35.66,17.59,30.14,15,24,15c-6.14,0-11.66,2.59-15.58,6.71l.73.69zm4.36,4.14c2.64-2.78,6.37-4.53,10.51-4.53,4.13,0,7.85,1.74,10.5,4.51l.72-.69c-2.82-2.97-6.8-4.83-11.22-4.83-4.43,0-8.41,1.87-11.23,4.84l.73.69zM17.85,30.66C19.4,29.03,21.58,28,24,28c2.42,0,4.6,1.03,6.15,2.66l.73-.69C29.15,28.15,26.71,27,24,27c-2.71,0-5.15,1.15-6.87,2.97l.73.69zM21.5,36.5c0-1.38,1.12-2.5,2.5-2.5,1.38,0,2.5,1.12,2.5,2.5S25.38,39,24,39c-1.38,0-2.5-1.12-2.5-2.5zM24,33c-1.93,0-3.5,1.57-3.5,3.5S22.07,40,24,40s3.5-1.57,3.5-3.5S25.93,33,24,33z"/></svg>