<svg width="36" height="36" xmlns="http://www.w3.org/2000/svg"><path fill-rule="evenodd" clip-rule="evenodd" d="m18.26,7.76c-2.05.09-3.95.74-5.55,1.8l.55.84c1.58-1.04,3.46-1.64,5.5-1.64,5.54,0,10,4.46,10,10,0,2.04-.61,3.92-1.64,5.5l.84.55c1.06-1.61,1.71-3.51,1.8-5.55h3.26v-1h-3.26c-.26-5.69-4.8-10.23-10.48-10.48V4.5h-1v3.26zM4.5,18.25h3.26c.12-2.67,1.18-5.08,2.86-6.92L7.26,7.97l.71-.71L30.24,29.53l-.71.71-3.36-3.36c-1.84,1.68-4.25,2.74-6.92,2.86v3.26h-1v-3.26c-5.69-.25-10.24-4.8-10.49-10.49H4.5v-1zm20.97,7.92-2.49-2.49c-1.14.97-2.61,1.56-4.23,1.56-3.59,0-6.5-2.91-6.5-6.5,0-1.62.59-3.09,1.56-4.23l-2.49-2.49c-1.6,1.77-2.58,4.13-2.58,6.71,0,5.54,4.46,10,10,10,2.59,0,4.94-.97,6.72-2.58zM14.52,15.23c-.8.95-1.27,2.18-1.27,3.52,0,3.04,2.46,5.5,5.5,5.5,1.34,0,2.57-.48,3.52-1.27l-7.75-7.75zm4.23-1.98c-.8,0-1.56.18-2.26.49l-.41-.91c.81-.37,1.71-.58,2.67-.58,3.59,0,6.5,2.91,6.5,6.5,0,.96-.22,1.85-.58,2.67l-.91-.41c.31-.69.5-1.45.5-2.25,0-3.04-2.46-5.5-5.5-5.5z"/></svg>