<svg width="24" height="24" xmlns="http://www.w3.org/2000/svg"><path fill-rule="evenodd" clip-rule="evenodd" d="m5,2h14v20H5V2zm1,1v18h12V3H6zm10,13H8v-1h8v1zm-8,2h8v-1H8v1zm4.04-6.3c-.02-.02-.1-.14-.15-.66-.04-.47-.07-.73-.09-.83-.03-.13-.08-.25-.16-.36-.07-.11-.16-.2-.27-.27.14-.09.26-.2.35-.33.16-.24.24-.52.23-.81,0-.24-.05-.48-.16-.7-.11-.21-.28-.38-.48-.5-.31-.17-.66-.25-1.01-.23H8v5.01h.92V9.97h1.09c.23-.02.47.02.68.12.17.11.27.4.29.85.02.38.03.59.05.69.02.11.06.22.12.31l.05.06h1.12l-.28-.32zM10.75,9.04c-.09.05-.18.08-.28.09-.17.02-.35.03-.53.03H8.92V7.84h1.19c.16,0,.33.01.49.04.09.02.18.07.25.13.12.12.18.3.17.47.02.22-.09.44-.28.55zm3.53,1.71,1.26-3.75.98,0-1.79,5.01h-.92l-.04-.1-1.75-4.91h1.01l1.25,3.75z"/></svg>