<svg width="24" height="24" xmlns="http://www.w3.org/2000/svg"><path fill-rule="evenodd" clip-rule="evenodd" d="m17.5,10.6c-.29-.37-.7-.63-1.19-.75.12-.8,0-1.53-.32-2.14-.39-.75-1.05-1.28-1.79-1.55-1.36-.49-3.04-.12-3.99,1.42-1.52-.72-3.43.33-3.52,2.18-.48.13-.87.43-1.14.81-.36.5-.53,1.15-.51,1.79.03.64.26,1.3.76,1.81.51.51,1.25.82,2.2.82h7c.94,0,1.69-.31,2.21-.81.51-.5.78-1.15.82-1.79.04-.64-.13-1.29-.53-1.79zm-6.65-2.1c.64-1.44,1.95-1.77,3-1.39.53.19.98.57,1.25,1.07.26.5.36,1.17.12,1.98l-.2.67.7-.03c.47-.02.79.16,1,.43.22.28.34.68.31,1.1-.03.42-.2.83-.52,1.14-.31.3-.8.53-1.52.53H8c-.73,0-1.2-.23-1.49-.52-.3-.3-.46-.71-.47-1.15-.02-.44.1-.86.32-1.17.21-.29.5-.46.85-.46h.56l-.07-.56c-.18-1.5,1.42-2.25,2.39-1.45l.51.42.27-.6zM5,17h12.99v-1H5v1zm12.99,4H5v-1h12.99v1zm-11.99-2h10.99v-1H6v1z"/></svg>