<svg width="24" height="24" xmlns="http://www.w3.org/2000/svg"><path fill-rule="evenodd" clip-rule="evenodd" d="m8.51,6.86c-.41.63-.64,1.53-.68,2.69h1.6c.13-2.04,1.03-3.06,2.69-3.06.8,0,1.41.26,1.82.77.34.42.51.95.51,1.57,0,.34-.06.67-.18.99-.14.38-.44.81-.9,1.28-.72.73-1.18,1.23-1.39,1.5-.21.27-.37.57-.48.91-.16.46-.24,1.17-.25,2.12h1.59c0-.54.03-.97.09-1.31.06-.34.15-.62.29-.84.14-.23.39-.51.74-.85.8-.78,1.31-1.32,1.52-1.61.47-.64.71-1.41.71-2.29,0-1.08-.35-1.94-1.05-2.6-.75-.72-1.75-1.07-3.01-1.07-.78,0-1.49.16-2.12.48-.63.32-1.13.77-1.51,1.35zM13.03,18.98h-2.02v-1.94h2.02v1.94z"/></svg>