<svg width="36" height="36" xmlns="http://www.w3.org/2000/svg"><path fill-rule="evenodd" clip-rule="evenodd" d="m32.75,9.43V20.84l-12.41,6.89-.01.01-.23-.43c.23.43.23.43.23.43l0,0,0,0,0,0-.01.01c-.01,0-.01.01-.02.01-.01,0-.01.01-.02.01-.03.02-.08.04-.13.06-.11.05-.28.11-.48.17-.41.12-.98.25-1.66.25-.68,0-1.26-.12-1.66-.25-.2-.06-.37-.12-.48-.17-.06-.02-.1-.04-.13-.06-.02-.01-.03-.01-.04-.02l-.01-.01,0,0,0,0,0,0,0,0c0,0,0,0,.23-.44l-.23.44-.01-.01,0,0L3.25,20.84V9.43l4.61,2.56,5.66-1.78.01,0c1.71-.43,3.23-.05,4.54.96,1.34-.96,2.76-1.47,4.27-.98,0,0,0,0,0,0l5.79,1.81,4.61-2.56zM17.26,11.8c-1.04-.72-2.18-.95-3.47-.63l-6.04,1.9-3.5-1.94v9.13l11.88,6.6.02.01c.02.01.05.02.09.04.09.04.22.09.38.14.33.1.81.2,1.37.2.56,0,1.04-.1,1.37-.2.17-.05.3-.1.38-.14.04-.02.07-.03.09-.04l.02-.01,7.75-4.31-5.6-5.82-6.49,3.21c0,0,0,0,0,0-1.12.56-2.26.25-2.9-.51-.65-.78-.72-1.95.12-2.96l.01-.01.01-.01c.3-.33.6-.66.9-.98,1.24-1.37,2.44-2.69,3.61-3.68zm11.27,10.25,3.23-1.79v-9.13L28.26,13.07l-6.21-1.94c-1.24-.4-2.49.09-3.93,1.26-1.17.95-2.38,2.28-3.7,3.74-.3.33-.6.66-.91,1-.54.65-.44,1.28-.11,1.67.34.4.98.61,1.69.26l0,0,7.15-3.54,6.29,6.53z"/></svg>