<svg width="24" height="24" xmlns="http://www.w3.org/2000/svg"><path fill-rule="evenodd" clip-rule="evenodd" d="m16.84,8H17c.28,0,.55.09.75.31.19.21.25.46.25.69V11c0,.27-.09.54-.29.73-.2.19-.46.27-.71.27h-1.96c-.1.2-.21.39-.34.56,3,1.66,4.3,4.94,4.3,7.94v.5H5v-.5c0-3.38,1.6-6.45,4.3-7.94-.13-.18-.24-.36-.34-.56H7c-.27,0-.51-.12-.69-.29C6.14,11.55,6,11.3,6,11V9.01c0-.29.13-.54.31-.71.17-.17.42-.29.69-.29h.07c1.39-5.38,8.61-5.22,9.77,0zm-1.03,0c-1.06-3.86-6.43-4.07-7.7,0H8.96c.59-1.18,1.69-2,3.04-2s2.45.82,3.04,2h.78zM12,7c-1.33,0-2.5,1.26-2.5,3C9.5,11.74,10.67,13,12,13c.73,0,1.4-.38,1.87-1H12v-1h2.36c.09-.31.14-.64.14-1,0-1.74-1.17-3-2.5-3zM12,14c.75,0,1.43-.26,1.98-.69,2.6,1.31,3.87,4.02,4.01,6.69H6.01c.15-2.98,1.67-5.52,4.01-6.69.55.43,1.23.69,1.98.69zm-5-3.01V9.02c0,0,0-.01.01-.01,0,0,.01-.01.01-.01l0,0H8V11h-.98l0,0c0,0-.01,0-.01-.01,0,0,0,0,0-.01zM16,11h1V9h-1V11z"/></svg>