<svg width="24" height="24" xmlns="http://www.w3.org/2000/svg"><path fill-rule="evenodd" clip-rule="evenodd" d="m17.95,2.99-.52,1.04c-.61,1.22-.34,2.74.58,3.77.89,1,2.4,1.54,4.29.74l1.17-.5-.52,1.16c-.56,1.26-1.65,2.06-2.73,2.49-.74.3-1.52.44-2.19.41,0,.1,0,.19-.01.29-.04.64-.31,1.3-.82,1.79-.52.5-1.26.81-2.21.81v-1c.71,0,1.2-.23,1.51-.53.32-.31.49-.72.52-1.14.03-.42-.09-.82-.31-1.1-.21-.27-.53-.44-1-.43l-.7.03.2-.67c.24-.81.15-1.48-.12-1.98-.27-.51-.72-.88-1.25-1.07-1.05-.38-2.36-.05-3,1.39l-.27.6-.51-.42c-.97-.79-2.57-.05-2.39,1.45l.07.56h-.56c-.35,0-.63.17-.85.46-.22.3-.34.73-.32,1.17.02.43.18.85.47,1.15.29.29.76.52,1.49.52v1c-.95,0-1.69-.31-2.2-.82-.5-.51-.74-1.17-.76-1.81-.03-.64.15-1.29.51-1.79.27-.38.66-.69,1.14-.81.09-1.85,2.01-2.9,3.52-2.18.94-1.52,2.59-1.91,3.94-1.44.28-.78.62-1.37,1.02-1.81.49-.55,1.06-.84,1.67-1.02l1.11-.33zm1.9,7.78c-.78.31-1.54.39-2.06.32-.08-.17-.18-.34-.3-.48-.29-.37-.7-.63-1.19-.75.12-.8,0-1.53-.32-2.14-.23-.44-.56-.81-.94-1.09.27-.77.56-1.27.86-1.61.08-.08.16-.16.24-.23-.2,1.32.24,2.69,1.12,3.68.93,1.04,2.34,1.66,4.01,1.41-.41.39-.91.69-1.42.9zM11.5,13h-.21l-4,4h2.71l-3.51,4.69L14.07,15.5h-2.37l2.5-2.5H11.5zm-1.79,3h.09l2-2h-.09l-2,2z"/></svg>