<svg width="24" height="24" xmlns="http://www.w3.org/2000/svg"><path fill-rule="evenodd" clip-rule="evenodd" d="m9.55,2h-.21l-1.34,1.34V18.66L9.34,20H11v2h2v-2h1.66l1.34-1.34V3.34L14.66,2H9.55zm-.55,1.76L9.76,3h4.49l.76.76V18.24L14.24,19H9.76l-.76-.76V3.76zM12,5c-.55,0-1,.45-1,1s.45,1,1,1c.55,0,1-.45,1-1s-.45-1-1-1zm-2,1c0-1.11.9-2,2-2,1.11,0,2,.89,2,2s-.89,2-2,2c-1.1,0-2-.89-2-2zm2,3c-1.1,0-2,.89-2,2,0,1.11.9,2,2,2,1.11,0,2-.89,2-2,0-1.11-.89-2-2-2zm0,6c-.55,0-1,.45-1,1s.45,1,1,1c.55,0,1-.45,1-1s-.45-1-1-1zm-2,1c0-1.1.9-2,2-2,1.11,0,2,.9,2,2s-.89,2-2,2c-1.1,0-2-.9-2-2zm7-4h2v-1h-2v1zM7,12H5v-1h2v1zm-4,0h1v-1H3v1zm3.35,2.35-2,2-.71-.71,2-2,.71.71zm14,1.29-2-2-.71.71,2,2,.71-.71zM4.35,6.65l2,2-.71.71-2-2,.71-.71zM21,12h-1v-1h1v1zm-2.65-2.65,2-2-.71-.71-2,2,.71.71z"/></svg>