<svg width="48" height="48" fill="none" xmlns="http://www.w3.org/2000/svg"><path d="m19.3,32.5c-2.8-1.6-4.8-4.6-4.8-8,0-5,4-9,9-9s9,4,9,9c0,3.4-2,6.6-4.8,8" stroke="#000"/><path fill-rule="evenodd" clip-rule="evenodd" d="m28.5,32.5v6.2l-4,1.4v1.4h-2v-1.4l-4-1.4v-6.2h10z" stroke="#000"/><path d="m27,26-2.5,2v4.5M20,26l2.5,2v4.5m6,2H26m-7.5,2H21m7.5,0H26m-7.5-2H21m16-10,3,.01M7,24.5h3M23.5,8v3m11.69,6.75,2.6-1.49M9.21,32.75l2.6-1.5m18.44-18.44,1.51-2.59m3.44,21.03,2.59,1.51M9.21,16.25l2.6,1.5m3.44-7.54,1.5,2.6" stroke="#000"/></svg>