<svg width="36" height="36" xmlns="http://www.w3.org/2000/svg"><path fill-rule="evenodd" clip-rule="evenodd" d="m13.25,9.04c0-.99.81-1.79,1.81-1.79h4.39c1,0,1.81.81,1.81,1.79v.21h-8V9.04zm-1,.21V9.04c0-1.54,1.26-2.79,2.81-2.79h4.39c1.55,0,2.81,1.25,2.81,2.79v.21h6.21c1.54,0,2.79,1.25,2.79,2.8v16.04c0,1.54-1.25,2.79-2.79,2.79H6.04c-1.54,0-2.8-1.25-2.8-2.79V12.04c0-1.54,1.25-2.8,2.8-2.8h6.21zM4.25,12.04c0-.99.8-1.8,1.8-1.8H28.46c.99,0,1.79.8,1.79,1.8V16.75h-9.5v-1.35c0-.91-.74-1.65-1.65-1.65h-3.7c-.91,0-1.65.74-1.65,1.65V16.75H4.25v-4.71zM13.75,17.75H4.25v10.33c0,.99.8,1.79,1.8,1.79H28.46c.99,0,1.79-.8,1.79-1.79V17.75h-9.5v1.35c0,.91-.74,1.65-1.65,1.65h-3.7c-.91,0-1.65-.74-1.65-1.65V17.75zm6,0v1.35c0,.36-.29.65-.65.65h-3.7c-.36,0-.65-.29-.65-.65V17.75h5zm0-1h-5v-1.35c0-.36.29-.65.65-.65h3.7c.36,0,.65.29.65.65V16.75z"/></svg>