<svg width="24" height="24" xmlns="http://www.w3.org/2000/svg"><path fill-rule="evenodd" clip-rule="evenodd" d="m12.33,3C7.15,2.99,3.01,7.03,3,12l-1,0c.01-5.55,4.62-10.01,10.33-10,3.53.01,6.78,1.7,8.67,4.52V4h1v5h-5v-1h3.71c-1.56-3.08-4.79-4.99-8.38-5l0-.5,0,.5zM21,12c-.02,4.98-4.13,9.02-9.29,9-3.52-.01-6.8-1.99-8.38-5H7v-1H2v5h1v-2.61c1.9,2.82,5.2,4.59,8.71,4.61,5.7.02,10.27-4.44,10.29-10l-1,0zm-11.86.39v.05h-.73l-.36.84h1.17c.39,2.51,1.6,3.77,3.63,3.77.86,0,1.63-.17,2.3-.5.05-.02.17-.09.38-.21v-1.34c-.73.4-1.24.65-1.55.76-.3.11-.64.16-1.03.16-.47,0-.87-.11-1.21-.32-.32-.21-.6-.55-.83-1.02-.19-.4-.33-.83-.41-1.29h3.2l.38-.84h-3.67l0,0c0-.13-.01-.22-.01-.29,0-.13.01-.31.01-.56h4.03l.38-.84h-4.29c.04-.26.11-.53.21-.84.4-1.22,1.12-1.83,2.17-1.83.57,0,1.13.16,1.67.47.23.13.54.33.95.6l.49-1.09c-.92-.71-1.96-1.07-3.09-1.07-1.61,0-2.72.83-3.32,2.49-.15.4-.26.82-.34,1.27h-.85l-.36.84h1.12l-.01.05c-.01.25-.01.41-.01.48v.28z"/></svg>