<svg width="24" height="24" xmlns="http://www.w3.org/2000/svg"><path fill-rule="evenodd" clip-rule="evenodd" d="m16,2v2h1V2h-1zm-.01,5.72c-.26-.49-.63-.89-1.07-1.18C15.35,6.2,15.89,6,16.5,6c1.41,0,2.5,1.09,2.5,2.5,0,1.02-.56,1.86-1.4,2.26-.03-.05-.07-.1-.11-.15-.29-.37-.69-.64-1.18-.75.12-.8,0-1.53-.32-2.14zm2.01,4.69c.02-.24.01-.48-.03-.71,1.22-.55,2.03-1.76,2.03-3.19,0-1.97-1.53-3.5-3.5-3.5-1.02,0-1.92.41-2.56,1.09-1.31-.36-2.84.06-3.73,1.5-1.52-.72-3.43.33-3.52,2.18-.48.13-.87.43-1.14.81-.36.5-.53,1.15-.51,1.79.03.64.26,1.3.76,1.81.51.51,1.25.82,2.2.82h7c.93,0,1.66-.31,2.17-.81.51-.49.77-1.15.82-1.79zm-7.14-3.9c.64-1.44,1.95-1.77,3-1.39.53.19.98.57,1.25,1.07.26.5.36,1.17.12,1.98l-.2.67.7-.03c.47-.02.78.16.99.42.22.28.33.67.3,1.1-.03.42-.21.84-.53,1.15-.31.3-.79.53-1.48.53H8c-.73,0-1.2-.23-1.49-.52-.3-.3-.46-.71-.47-1.15-.02-.44.1-.86.32-1.17.21-.29.5-.46.85-.46h.56l-.07-.56c-.18-1.5,1.42-2.25,2.39-1.45l.51.42.27-.6zM7.05,17.78l1-2,.89.45-1,2-.89-.45zm6,0,1-2,.89.45-1,2-.89-.45zm-3-2-2,4,.89.45,2-4-.89-.45zm.05,4,2-4,.89.45-2,4-.89-.45zM12.92,5.62l-1.44-1.39.69-.72,1.44,1.39-.69.72zM19.44,12.22l1.41,1.41.71-.71-1.41-1.41-.71.71zM21,8h2v1h-2V8zm-.26-4.46-1.41,1.41.71.71,1.41-1.41-.71-.71z"/></svg>