<svg width="24" height="24" xmlns="http://www.w3.org/2000/svg"><path fill-rule="evenodd" clip-rule="evenodd" d="m6,3.5c0-.28.22-.5.5-.5s.5.22.5.5V5H6V3.5zM5,5V3.5C5,2.67,5.67,2,6.5,2S8,2.67,8,3.5V5h8V3.5c0-.83.67-1.5,1.5-1.5s1.5.67,1.5,1.5V5h3v5h-3v3h3v5h-3V22h-3v-4H8V22H5v-4H2v-5h3V10H2V5h3zm13-1.5V5h-1V3.5c0-.28.22-.5.5-.5s.5.22.5.5zm0,9.5V10h-1v3h1zM8,10h8v3H8V10zm-2,3V10h1v3H6zM3,6v3h2.29l3-3H3zm6.71,0-3,3h7.59l3-3H9.71zM21,9h-5.29l3-3H21v3zm-3,9V21h-1v-3h1zM6,18V21h1v-3H6zm-3-4v2.29l2.29-2.29H3zm6.29,3H3.71l3-3h5.59l-3,3zM13.71,14l-3,3h5.59l3-3h-5.59zm7,0-3,3H21v-3h-.29z"/></svg>