<svg width="24" height="24" xmlns="http://www.w3.org/2000/svg"><path fill-rule="evenodd" clip-rule="evenodd" d="m5,4c0-.57.43-1,1-1s1,.43,1,1-.43,1-1,1-1-.43-1-1zm1-2c-1.13,0-2,.87-2,2s.87,2,2,2c.3,0,.59-.06.84-.18L9.23,9.1C8.47,9.83,8,10.85,8,12c0,.94.31,1.8.85,2.48l-1.97,1.92C6.48,16.15,6.01,16,5.5,16,4.1,16,3,17.09,3,18.5,3,19.9,4.09,21,5.5,21c1.4,0,2.51-1.09,2.51-2.5,0-.52-.15-1-.42-1.4l1.97-1.92C10.23,15.7,11.08,16,12,16c1.44,0,2.69-.74,3.4-1.87l1.67.77c-.04.19-.07.39-.07.59,0,1.41,1.09,2.5,2.5,2.5s2.5-1.09,2.5-2.5S20.91,13,19.5,13c-.84,0-1.57.39-2.02,1l-1.67-.77c.12-.39.19-.8.19-1.23,0-.71-.18-1.38-.5-1.95l2.19-1.52c.35.3.8.48,1.31.48,1.12,0,2.01-.88,2.01-2,0-1.12-.89-2.01-2.01-2.01-1.12,0-2,.89-2,2.01,0,.25.04.48.12.7L14.91,9.24c-.73-.77-1.76-1.24-2.91-1.24-.72,0-1.39.18-1.96.5L7.62,5.19C7.86,4.86,8,4.45,8,4c0-1.13-.87-2-2-2zm13,4c-.57,0-1,.43-1,1,0,.57.43,1,1,1,.57,0,1.01-.44,1.01-1,0-.57-.44-1-1.01-1zM12,9c-1.68,0-3,1.32-3,3,0,1.68,1.32,3,3,3,1.68,0,3-1.32,3-3,0-1.68-1.32-3-3-3zM18,15.5c0-.86.64-1.5,1.5-1.5s1.5.64,1.5,1.5-.64,1.5-1.5,1.5-1.5-.64-1.5-1.5zM5.5,17c-.85,0-1.5.65-1.5,1.5C4,19.35,4.65,20,5.5,20c.86,0,1.51-.65,1.51-1.5C7.01,17.65,6.36,17,5.5,17z"/></svg>