<svg width="48" height="48" fill="none" xmlns="http://www.w3.org/2000/svg"><path d="m24.5,7.5v-5m-3.5,0h7" stroke="#000"/><path fill-rule="evenodd" clip-rule="evenodd" d="m5.5,26.5c0-10.49,8.51-19,19-19,10.49,0,19,8.51,19,19,0,10.49-8.51,19-19,19-10.49,0-19-8.51-19-19z" stroke="#000"/><path d="m23,10.5h1.5c8.84,0,16,7.16,16,16,0,8.84-7.16,16-16,16-8.84,0-16-7.16-16-16v-.5m5.5,2,6,7,14-15m5.34-5.34L41,13l-4-4-1.8,1.8m-16.29.63,1.93-.52m-5.64,2.48,1.73-1m-4.81,3.85,1.42-1.41M9.89,19.8l1-1.73m-2.24,5.74.52-1.93" stroke="#000"/></svg>