<svg width="36" height="36" xmlns="http://www.w3.org/2000/svg"><path fill-rule="evenodd" clip-rule="evenodd" d="m18,10.25c.73,0,1.38.29,1.93.77l.03.03c.06.06.12.12.18.18.67.72,1.11,1.79,1.11,3.02,0,.08,0,.15-.01.23,0,.04-.01.08-.01.12l-.02.16,0,0,0,0,0,0c-.21,2.06-1.57,3.48-3.21,3.48-1.61,0-2.95-1.38-3.2-3.38l-.01-.11c-.01-.05-.01-.1-.02-.14v0c-.02-.14-.03-.25-.03-.37,0-1.34.52-2.48,1.29-3.2l.05-.05c.54-.48,1.19-.76,1.91-.76zm-3.26,7.22c-.36-.52-.63-1.12-.79-1.77-.57.34-1.23.55-1.94.55-1.01,0-1.91-.38-2.61-1.02-3.14,1.93-4.93,5.01-5.13,9.01h5.46c.77-2.86,2.48-5.17,5.01-6.77zm-5.24,7.77c-.15.8-.23,1.63-.25,2.5l-.01.51H26.79l-.04-.54c-.06-.85-.17-1.68-.34-2.47h6.37l-.04-.54c-.31-4.34-1.91-7.91-5.49-10.21.63-.89.99-2.03.99-3.25,0-2.68-1.75-5-4.25-5-2.03,0-3.55,1.54-4.06,3.55-.57-.34-1.23-.55-1.94-.55-.72,0-1.37.2-1.94.55-.5-2-2.03-3.55-4.06-3.55-2.5,0-4.25,2.32-4.25,5,0,1.21.36,2.34.97,3.22-3.49,2.21-5.4,5.76-5.47,10.26l-.01.51h6.25zM24,16.25c1,0,1.88-.37,2.58-.99,3.21,1.99,4.74,5.08,5.13,8.99h-5.54c-.78-2.78-2.34-5.1-4.92-6.75.37-.52.65-1.13.81-1.8.57.34,1.23.55,1.94.55zm-1.77-1.64c.51.41,1.11.64,1.77.64,1.78,0,3.25-1.68,3.25-4,0-2.32-1.47-4-3.25-4-1.57,0-2.89,1.32-3.18,3.25.01.02.03.03.04.05.87.92,1.38,2.24,1.38,3.71,0,.11-.01.21-.02.31l0,.05zm-4.23,4.64c-1.01,0-1.9-.38-2.6-1.02-3.14,1.93-4.94,5.01-5.14,9.02h15.44c-.39-3.91-1.92-7-5.14-8.99-.69.62-1.57.99-2.57.99zM12,7.25c-1.77,0-3.25,1.68-3.25,4,0,2.32,1.48,4,3.25,4,.66,0,1.26-.23,1.77-.64-.01-.11-.02-.24-.02-.36,0-1.49.54-2.83,1.43-3.75-.28-1.93-1.6-3.25-3.18-3.25z"/></svg>