<svg width="36" height="36" xmlns="http://www.w3.org/2000/svg"><path fill-rule="evenodd" clip-rule="evenodd" d="m18,6.26c-4.83,0-8.75,3.92-8.75,8.75v.01l0,.01c.06,1.51.51,2.78,1.22,3.97l0,0,7.55,11.93,7.55-11.93.01-.01c.69-1.22,1.15-2.51,1.17-3.97v0c0-4.83-3.92-8.75-8.75-8.75zM11.32,18.48c-.64-1.06-1.02-2.16-1.07-3.47.01-4.28,3.47-7.74,7.75-7.74,4.28,0,7.75,3.47,7.75,7.75-.01,1.24-.4,2.36-1.03,3.47L18.02,29.05,11.32,18.48zm4.92,1.33v-3.7h2.29c.86,0,1.42.06,1.68.17.69.29,1.03.86,1.03,1.71,0,.76-.26,1.28-.76,1.57-.3.17-.88.25-1.74.25H16.25zm0-4.82v-3.27h2.37c.67,0,1.12.05,1.35.14.27.11.48.29.63.55.15.26.23.57.23.93,0,.36-.09.68-.26.96s-.41.46-.7.55c-.29.09-.75.14-1.37.14H16.25zm2.56-4.47h-3.81v10.5h4.39c.71,0,1.29-.13,1.72-.38.93-.55,1.39-1.44,1.39-2.69,0-.95-.33-1.68-1-2.18-.2-.15-.47-.28-.82-.38.44-.19.78-.48,1.03-.88.25-.4.37-.85.37-1.37,0-.48-.11-.93-.34-1.34s-.53-.72-.92-.94c-.42-.23-1.1-.35-2.02-.35z"/></svg>