<svg width="24" height="24" xmlns="http://www.w3.org/2000/svg"><path fill-rule="evenodd" clip-rule="evenodd" d="m2,12C2,6.48,6.48,2,12,2c5.52,0,10,4.48,10,10,0,3.82-2.15,7.29-5.32,9H19v1h-4v-4h1v2.23C18.96,18.74,21,15.54,21,12c0-4.97-4.03-9-9-9-4.97,0-9,4.03-9,9,0,4.97,4.03,9,9,9v1C6.48,22,2,17.52,2,12zm11.24-4.88-.39-.32-.91,1.11-2.23.58-.61-.31L8.85,8.34l6.36,10.09.95.31-1.52,1.6L13.63,23.84l2.37-.57.06-.03.33-.18,1.27,1.15.17.15,2.56-.27.97-.99,1.61,2.1,1.25-2.52,2.82.7-.18-1.44,1.02.02-.15-2.89-1.57-1.13-.38.68-.32-.09.44-1.24-2.93-1.07-.89-.74zM9.14,9.94l-.56-.18.6-.42.41.21,2.92-.75.48-.58.64.53,2.16.79-.47,1.31,2.11.6.22-.39.27.19.07,1.34-.52-.01-.58-.01.14,1.15-2.19-.54-.9,1.8-1.34-1.75-1.52,1.56-1.76.19-1.63-1.48-.9.5-.56.14.47-1.62,2.45-2.57z"/></svg>