<svg width="48" height="48" fill="none" xmlns="http://www.w3.org/2000/svg"><path d="m32,35.5,4,7m-24,0,4-7m20,3H12m26,4H10" stroke="#000"/><path fill-rule="evenodd" clip-rule="evenodd" d="m17.5,30c0-.83-.67-1.5-1.5-1.5s-1.5.67-1.5,1.5c0,.83.67,1.5,1.5,1.5s1.5-.67,1.5-1.5zm16,0c0-.83-.67-1.5-1.5-1.5s-1.5.67-1.5,1.5c0,.83.67,1.5,1.5,1.5s1.5-.67,1.5-1.5z" stroke="#000"/><path d="m28,14.5h-8m17.5,10h-27M32,5.5H16" stroke="#000"/><path fill-rule="evenodd" clip-rule="evenodd" d="m37.5,35.5h-27v-19c0-2.76,2.33-5,5.19-5h16.62c2.87,0,5.19,2.24,5.19,5v19z" stroke="#000"/><path d="m20,5.5,4,6m4-6-4,6" stroke="#000"/><path fill-rule="evenodd" clip-rule="evenodd" d="m24.72,28,1.44,1.5h-1.72v-1.5h-.9v1.5h-1.72l1.45-1.5h-1.08l-1.81,2,1.81,2h1.08l-1.45-1.5h1.72v1.5h.9v-1.5h1.72l-1.44,1.5h1.08l1.81-2-1.81-2h-1.08z" fill="#000"/></svg>