<svg width="48" height="48" xmlns="http://www.w3.org/2000/svg"><path fill-rule="evenodd" clip-rule="evenodd" d="m32.17,7.21c-1.53-.57-3.21.06-4.02,1.41-1.02-.46-2.26-.18-2.98.74l0,0c-.32.41-.5.91-.53,1.43-.48.13-.86.43-1.13.81-.36.5-.53,1.15-.51,1.78.03.64.26,1.3.76,1.8.51.51,1.25.82,2.2.82h.88l-4.79,8.39-1.18-.98c.76-4.21-1.95-8.3-6.16-9.23-4.32-.95-8.58,1.79-9.53,6.1v0c-.85,3.86,1.26,7.73,4.88,9.15l-5.42,9.56H43.4L29.22,16h3.74c.94,0,1.69-.31,2.21-.81.51-.49.78-1.15.82-1.79.04-.64-.13-1.29-.53-1.79-.29-.36-.69-.62-1.17-.74.26-1.54-.6-3.1-2.12-3.67l0,0zm-4.17,8.79h.04l4.67,7.58-1.28,1.28-2.94-1.96-2.97,1.98-1.78-1.43,4.26-7.45zm.83-6.49c.45-1.2,1.79-1.81,2.99-1.36,1.21.45,1.82,1.79,1.37,3l-.26.7.75-.03c.47-.02.79.16,1,.42.22.28.34.67.31,1.09-.03.42-.2.83-.52,1.13-.31.3-.8.53-1.51.53h-7c-.73,0-1.2-.23-1.49-.52-.3-.3-.45-.71-.47-1.14-.02-.43.1-.86.32-1.16.21-.29.5-.46.84-.46h.59l-.1-.58c-.07-.41.04-.83.3-1.16.51-.65,1.45-.76,2.1-.25l.54.42.24-.64zM14.5,15.16c3.5.77,5.81,4.02,5.47,7.49l-4.11-3.43-5.3,9.33c-3.25-1.2-5.15-4.63-4.4-8.06.83-3.78,4.56-6.17,8.34-5.34zm7.05,10.11-1.98,3.48.87.5,2.81-4.91,2.23,1.79,3.03-2.02,3.06,2.04,1.69-1.69,8.35,13.55h-7.59l-3.8-4h-6.06l-5.32-3.72-4.41,7.72H6.36l9.78-17.23,5.41,4.51zm8.23,9.72,2.85,3H15.58l3.59-6.28,4.68,3.28h5.94z"/></svg>