<svg width="36" height="36" xmlns="http://www.w3.org/2000/svg"><path fill-rule="evenodd" clip-rule="evenodd" d="m30.95,31.51.2.2.2-.2h.16v-.16l.35-.35-.35-.35v-.02l-1.5-1.5v.02l-.64-.64h.02l-1.5-1.5h-.02l-1.5-1.5h.02l-.88-.88v.02l-.64-.64h.02l-.89-.89v.02l-1.5-1.5v-.02l-1.5-1.5v.02l-1.5-1.5v-.02l-2.12-2.12h-.02l-1.5-1.5h.02l-1.5-1.5h-.02l-3-3h.02L8.38,7.5h-.02L6.86,6l.02,0-1.51-1.51h-.02l-.35-.35-.35.35h-.16v.16l-.2.2.2.2v2.45h1.5v-.95l1.5,1.5v.94l.95,0,.55.55v2.45h1.5v1.5h1.5v-.95l1.5,1.5v8.44h8.44l1.5,1.5-3.95,0v1.5h-1.5v3h1.5v-1.5h1.5v-1.5h1.5v3h3v-1.5h-1.5V24.56l3,3v.95h.95l1.5,1.5h-.95v1.5h1.5v0h.95zM20.44,21l-1.5-1.5h-2.44V17.06l-1.5-1.5v5.44h5.44zm-9-9-.95-.95v.95h.95zm-.95-6.62v-.89h4.5v1.5H11.11l-.62-.62zM21,15.88v-.88h-.88l-1.5-1.5h3.88v3.88l-1.5-1.5zm-7.5-8.38v0h-.87l1.5,1.5h2.38V7.5h1.5v0h1.5v3h1.5v-1.5l4.5,0v-1.5h1.5v-1.5h-1.5v-1.5h-1.5v3h-1.5v-1.5h-1.5v1.5h-1.5v-3h-1.5v1.5h-1.5v1.5h-3zm-7.5,3V9h-1.5v3h1.5v1.5h1.5v1.5h3v-1.5H7.5v-3h-1.5zm24,0h1.5V9h-1.5v1.5zm-3,7.5v1.5h-2.38l-.62-.62v-.88h3v-1.5h1.5v1.5h-1.5zm1.5,3v1.5H30v2.37l-1.5-1.5v-.87h-.87l-.63-.63v-2.37h4.5v3h-1.5v-1.5h-1.5zm-3-9h1.5v1.5h-1.5v0h-1.5v-3h1.5v1.5zm0,19.51h1.5v-3h-1.5v3zm4.5-24h1.5v-3h-1.5v0h-3v1.5h3v1.5zm1.5,18.87-.88-.88h.88v.88zm-1.5-8.37h1.5v-3h-1.5v-1.5l1.5,0v-1.5h-3v3h1.5v3zm-1.5-7.5h-3v-1.5h3v1.5zm-12,21v-1.5h3v1.5h-3zm1.5-19.5v-3h-1.5v1.5h-.88l1.5,1.5h.87zm-4.5,16.5h1.5V27.01h1.5v3h-1.5v0h-1.5v-1.5zM22.5,28.51h-1.5v3h1.5v0h1.5v-1.5h-1.5v-1.5zm-10.5-6v1.5h1.5v1.5h-3v-1.5H9v-1.5l3,0zm6,3v-1.5h-3v1.5h3zm9-9h-3v-1.5h3v1.5zm-22.5,10.5h1.5v-1.5h-1.5v1.5zm4.5-7.5h-1.5v-1.5h1.5V16.51h3v1.5H9v1.5zm-3-1.5h1.5v-1.5h-1.5v-3h-1.5v3h1.5v1.5zm0,0h-1.5v3h1.5v1.5l-1.5,0v1.5h3v-3h-1.5v-3zM22.5,12h-1.5v-1.5h1.5v1.5zm-12,15H7.5v-1.5h3v1.5zm0,1.5v-1.5h3v1.5h-1.5v3h-1.5V30.01H9v-1.5h1.5v0zm-4.5,0h-1.5v3h1.5v0h3v-1.5h-3v-1.5zm6-7.5H9v-1.5h3v1.5z"/></svg>