<svg width="24" height="24" xmlns="http://www.w3.org/2000/svg"><path fill-rule="evenodd" clip-rule="evenodd" d="m12,2h4.43l-2.36,3.55.82,1.81-.91.41-.8-1.77H8.32l-.26.58C9.23,7.28,10,8.55,10,10c0,2.21-1.79,4-4,4s-4-1.79-4-4c0-2.21,1.79-4,4-4,.4,0,.79.06,1.16.17l.52-1.17h5.56l1.33-2H12v-1zM5.54,9.8l1.2-2.7C6.51,7.03,6.26,7,6,7c-1.65,0-3,1.35-3,3,0,1.65,1.35,3,3,3s3-1.35,3-3c0-1.04-.53-1.96-1.34-2.5L6.46,10.2l-.91-.41zM3.65,19.65,18.65,4.65l.71.71L4.35,20.35l-.71-.71zM17,9h1c.92,0,1.7.21,2.24.76.54.54.76,1.32.76,2.24v1h1v1h-1v8h-4v-2H11v2H7v-3h13v-4h-8v-1h2.05c.23-1.14,1.24-2,2.45-2s2.22.86,2.45,2H20v-2c0-.78-.18-1.26-.46-1.54-.28-.28-.75-.46-1.54-.46h-1v-1zm1,11H20v1h-2v-1zm-10,1v-1h2v1H8zm8.5-8c.65,0,1.21.42,1.41,1h-2.83c.21-.58.76-1,1.41-1zm.5,4c0-.55.45-1,1-1s1,.45,1,1c0,.55-.45,1-1,1s-1-.45-1-1zm-7-1c-.55,0-1,.45-1,1,0,.55.45,1,1,1,.55,0,1-.45,1-1,0-.55-.45-1-1-1zM6.21,4h2.79v-1h-2.79v1z"/></svg>