<svg width="48" height="48" fill="none" xmlns="http://www.w3.org/2000/svg"><path fill-rule="evenodd" clip-rule="evenodd" d="m20,29.5c0-.83-.67-1.5-1.5-1.5s-1.5.67-1.5,1.5c0,.83.67,1.5,1.5,1.5s1.5-.67,1.5-1.5zm10-10.49c0-.83-.67-1.5-1.5-1.5s-1.5.67-1.5,1.5.67,1.5,1.5,1.5,1.5-.67,1.5-1.5z" stroke="#000"/><path d="m19.56,28.44,7.88-8.37" stroke="#000"/><path fill-rule="evenodd" clip-rule="evenodd" d="m26.74,11.18-2.04,2.64-7.6,2.07-1.49-.81-4.93,3.66,2.23.76-5.86,6.5-2.18,7.98,4.32-1.1,1.91-1.11,4.51,4.32,6.37-.72,3.67-3.97,4.35,6.01,3.17-6.74,7.39,1.93-.47-4.04,3.11.08-.32-6.6-2.71-2.07-.88,1.67-3.58-1.08,1.34-3.99-7.5-2.91-2.82-2.49z" stroke="#000"/></svg>