<svg width="36" height="36" xmlns="http://www.w3.org/2000/svg"><path fill-rule="evenodd" clip-rule="evenodd" d="m7.75,7.75H13.25v1.55c.18-.22.38-.42.59-.59.97-.76,2.24-.95,3.41-.95h7.5c1.1,0,2,.89,2,2,0,.37-.1.72-.28,1.01,1,.11,1.78.96,1.78,1.99,0,.6-.26,1.13-.68,1.5.42.37.68.9.68,1.5,0,.6-.26,1.13-.68,1.5.42.37.68.9.68,1.5,0,1.1-.89,2-2,2h-4.52l1.89,4.79,0,.01c.08.22.13.46.13.7,0,1.1-.89,2-2,2-.55,0-1.06-.23-1.42-.59l-.01-.01-6.29-6.9H12.25v0H7.75V7.75zM12.25,12.74v.03,7H8.75V8.75H12.25v3.99zm1,7.03h1.22l6.58,7.21c.18.18.43.29.7.29.55,0,1-.45,1-1,0-.12-.02-.24-.06-.34l-2.42-6.16H26.25c.55,0,1-.45,1-1,0-.55-.45-1-1-1v0H24v-1h2.25v0c.55,0,1-.45,1-1,0-.55-.45-1-1-1v0H24v-1h2.25v0c.55,0,1-.45,1-1,0-.55-.45-1-1-1h-1.5v0H24v-1h.75v0c.55,0,1-.45,1-1,0-.55-.45-1-1-1h-7.5c-1.09,0-2.08.18-2.79.74-.68.53-1.2,1.48-1.21,3.24v7.03z"/></svg>