<svg width="36" height="36" xmlns="http://www.w3.org/2000/svg"><path fill-rule="evenodd" clip-rule="evenodd" d="m10.42,6.26C13.87,5.68,16.69,7.63,18,9c1.31-1.36,4.13-3.31,7.58-2.74C30.37,7.06,32.75,11.06,32.75,15c0,2.73-1.38,5.26-2.05,6.5l-.09.16c.41.42,1.01,1.08,1.42,1.82.25.46.46.98.47,1.53.02.57-.17,1.12-.65,1.6-.99.98-2.2.69-3.01.28-.42-.21-.78-.47-1.03-.67-.03-.02-.06-.05-.08-.07-.13.1-.29.21-.48.35-.52.36-1.26.84-2.17,1.32C23.26,28.77,20.74,29.75,18,29.75s-5.26-.98-7.08-1.93c-.91-.48-1.66-.96-2.17-1.32-.19-.13-.35-.25-.48-.35-.03.02-.05.04-.08.07-.25.2-.61.46-1.03.67-.81.41-2.03.7-3.01-.28-.48-.48-.67-1.03-.65-1.6.01-.55.22-1.07.47-1.53.41-.74,1.01-1.4,1.42-1.82l-.09-.16C4.63,20.26,3.25,17.73,3.25,15c0-3.94,2.38-7.94,7.17-8.74zm17.69,18.89,0,0-.32-.32-.35.29v0l0,0h0l0,0-.04.03c-.03.03-.08.06-.14.11-.13.1-.32.24-.56.41-.49.34-1.2.8-2.07,1.26C22.87,27.85,20.51,28.75,18,28.75s-4.87-.9-6.61-1.82c-.87-.46-1.58-.91-2.07-1.26-.25-.17-.44-.31-.56-.41-.06-.05-.11-.09-.14-.11l-.04-.03,0,0h0l0,0,0,0-.35-.29-.32.32,0,0,0,0,0,0,0,0-.02.02c-.01.01-.04.03-.06.06-.06.05-.14.13-.25.21-.22.17-.52.39-.85.55-.69.34-1.35.42-1.86-.09-.27-.27-.37-.56-.36-.86.01-.32.13-.69.35-1.07.43-.77,1.13-1.48,1.51-1.86l.25-.25-.16-.32c-.08-.15-.17-.34-.29-.55l0,0C5.47,19.71,4.25,17.44,4.25,15c0-3.56,2.12-7.06,6.33-7.76,3.35-.56,6.08,1.64,7.03,2.82l.39.49.39-.49c.94-1.18,3.68-3.38,7.03-2.82C29.63,7.94,31.75,11.44,31.75,15c0,2.44-1.22,4.71-1.91,5.98-.11.21-.21.39-.29.55l-.16.32.25.25c.38.38,1.08,1.08,1.51,1.86.21.39.34.75.35,1.07.01.3-.08.59-.36.86-.52.52-1.17.44-1.86.09-.33-.17-.63-.38-.85-.55-.11-.09-.19-.16-.25-.21-.03-.03-.05-.05-.06-.06l-.02-.01zM10.03,12.42c1.01-.67,1.85-.7,2.48-.5.49.16.87.46,1.11.77l-4.47,4.47c-.22-.56-.39-1.3-.39-2.05,0-1.05.34-2.05,1.28-2.68zm4.67.11c-.31-.62-.97-1.27-1.89-1.57-.94-.3-2.1-.2-3.34.62-1.31.87-1.72,2.25-1.72,3.51,0,1.25.4,2.46.82,3.16l.33.55,5.96-5.96-.16-.32zm11.83-.94c-1.24-.83-2.4-.92-3.34-.62-.91.29-1.58.95-1.89,1.57l-.16.32,5.96,5.96.33-.55c.42-.7.82-1.92.82-3.16,0-1.26-.41-2.64-1.72-3.51zm.33,5.56-4.47-4.47c.24-.31.62-.61,1.11-.77.62-.2,1.47-.17,2.48.5.94.63,1.28,1.62,1.28,2.68,0,.75-.18,1.49-.39,2.05zM18.33,16.12l-.33-.29L11.38,21.63l.17.35c.58,1.16,2.65,3.28,6.45,3.28s5.87-2.11,6.45-3.28l.17-.35-6.29-5.5zm-.33,8.13c-3.01,0-4.72-1.48-5.36-2.4l5.36-4.69,5.36,4.69c-.64.92-2.34,2.4-5.36,2.4z"/></svg>