<svg width="36" height="36" xmlns="http://www.w3.org/2000/svg"><path fill-rule="evenodd" clip-rule="evenodd" d="m12,3.25h12v1h-2.73l-2.33,3.5H24c2.35,0,4.25,1.9,4.25,4.25v14.75h-3.44l1,2H27v1h-.69l1,2H28.5v1h-21v-1h1.19l1-2H9v-1h1.19l1-2H7.75v-14.75c0-2.35,1.9-4.25,4.25-4.25h5.07L14.73,4.25H12v-1zm6,4.1L20.07,4.25h-4.13L18,7.35zM15,11.75v-1h6v1h-6zM9.81,31.75l1-2h14.38l1,2H9.81zm14.88-3-1-2H12.31l-1,2h13.38zM8.75,19.25v6.5h18.5V19.25H8.75zm18.5-1v-6.25c0-1.79-1.45-3.25-3.25-3.25H12c-1.8,0-3.25,1.46-3.25,3.25V18.25h18.5zm-6,4.25c0-.69.56-1.25,1.25-1.25s1.25.56,1.25,1.25c0,.69-.56,1.25-1.25,1.25s-1.25-.56-1.25-1.25zm1.25-.25c-.14,0-.25.11-.25.25,0,.14.11.25.25.25s.25-.11.25-.25c0-.14-.11-.25-.25-.25zm-9-1c-.69,0-1.25.56-1.25,1.25,0,.69.56,1.25,1.25,1.25s1.25-.56,1.25-1.25c0-.69-.56-1.25-1.25-1.25zm-.25,1.25c0-.14.11-.25.25-.25s.25.11.25.25c0,.14-.11.25-.25.25s-.25-.11-.25-.25z"/></svg>