<svg width="24" height="24" xmlns="http://www.w3.org/2000/svg"><path fill-rule="evenodd" clip-rule="evenodd" d="m13,3v2.02c1,.06,1.95.32,2.8.74l1.06-1.79.86.51-1.06,1.78c.64.43,1.21.95,1.69,1.54l1.72-.98.49.87-1.64.93c.6,1,.97,2.15,1.05,3.38H22v1h-2.02c-.06.95-.3,1.84-.67,2.66l1.61,1.03-.54.84-1.56-.99c-.58.92-1.36,1.69-2.27,2.28l.88,1.64-.88.47-.88-1.63c-.82.38-1.73.62-2.68.68v2.02h-1V19.98c-.98-.06-1.92-.32-2.76-.72l-.98,1.73-.87-.49.98-1.73c-.99-.65-1.82-1.53-2.4-2.57l-1.69.96-.49-.87,1.75-.99c-.29-.72-.47-1.49-.52-2.3H3v-1h2.02c.06-.96.3-1.88.69-2.71L3.91,8.23l.51-.86,1.77,1.05c.54-.84,1.25-1.56,2.08-2.13l-.95-1.68L8.19,4.12l.94,1.67C10,5.35,10.97,5.08,12,5.02V3h1zM9.74,18.39c.84.39,1.77.61,2.76.61,3.44,0,6.23-2.63,6.48-6h-3.02c-.24,1.72-1.68,3-3.47,3-.45,0-.88-.08-1.28-.23l-1.49,2.63zm.61-3.11-1.49,2.62C7.13,16.74,6,14.76,6,12.5c0-2.22,1.09-4.16,2.76-5.33l1.49,2.63C9.48,10.44,9,11.4,9,12.5c0,1.14.52,2.14,1.35,2.78zM11.11,9.28,9.63,6.66C10.49,6.24,11.47,6,12.5,6c3.44,0,6.23,2.63,6.48,6h-3.02c-.24-1.72-1.68-3-3.47-3-.5,0-.97.1-1.39.28zM10,12.5c0-1.41,1.09-2.5,2.5-2.5s2.5,1.09,2.5,2.5-1.09,2.5-2.5,2.5-2.5-1.09-2.5-2.5z"/></svg>