<svg width="36" height="36" xmlns="http://www.w3.org/2000/svg"><path fill-rule="evenodd" clip-rule="evenodd" d="m18,8.75c.73,0,1.39.29,1.93.78l.03.02c.06.06.12.12.18.18.68.72,1.11,1.79,1.11,3.02,0,.08,0,.15-.01.23,0,.04-.01.08-.01.12v0l-.02.16,0,0,0,0,0,0c-.21,2.06-1.57,3.48-3.21,3.48-.66,0-1.26-.23-1.77-.64.01-.11.02-.24.02-.36,0-1.2-.35-2.3-.95-3.17-.01-.02-.02-.04-.04-.05-.14-.19-.28-.37-.44-.53.29-1.93,1.6-3.25,3.18-3.25zm4.23,4.36c.51.41,1.11.64,1.77.64,1.78,0,3.25-1.68,3.25-4,0-2.32-1.47-4-3.25-4-1.57,0-2.89,1.32-3.18,3.25.01.02.03.03.04.05.87.92,1.38,2.24,1.38,3.71,0,.11-.01.21-.02.31l0,.05zM18,17.75c1,0,1.88-.38,2.57-1,3.22,1.99,4.75,5.07,5.13,9h-5.54c-.78-2.79-2.33-5.1-4.93-6.75.37-.52.65-1.13.81-1.79.57.34,1.23.55,1.94.55zm4.06-3.55c-.16.66-.44,1.27-.81,1.79,2.6,1.65,4.14,3.97,4.92,6.75h5.53c-.39-3.92-1.9-7-5.13-8.99-.7.62-1.58.99-2.58.99-.72,0-1.37-.2-1.94-.55zm5.2-1.2c.63-.89.99-2.03.99-3.25,0-2.68-1.75-5-4.25-5-2.03,0-3.55,1.54-4.06,3.55-.57-.34-1.23-.55-1.94-.55-2.03,0-3.55,1.54-4.06,3.54-.57-.34-1.23-.55-1.94-.55-2.5,0-4.25,2.32-4.25,5,0,1.21.36,2.35.98,3.23-3.48,2.21-5.4,5.77-5.48,10.26l-.01.51h17.55l-.04-.54c-.06-.85-.17-1.68-.33-2.46h6.37l-.04-.54c-.06-.85-.17-1.68-.33-2.46h6.37l-.04-.54c-.31-4.35-1.89-7.92-5.49-10.21zM13.91,12.5c-.54-.48-1.19-.76-1.91-.76-1.77,0-3.25,1.68-3.25,4,0,2.32,1.48,4,3.25,4,1.61,0,2.95-1.38,3.2-3.38l.01-.1c.01-.05.01-.1.02-.14v0c0-.03.01-.06.01-.09.01-.1.02-.19.02-.28,0-1.03-.3-1.94-.8-2.64-.15-.21-.32-.4-.5-.57l-.05-.05zM4.27,28.75c.2-3.99,2-7.08,5.13-9.01.7.63,1.59,1.01,2.6,1.01,1,0,1.88-.37,2.57-.99,3.22,1.99,4.75,5.07,5.13,8.99H4.27z"/></svg>