<svg width="36" height="36" xmlns="http://www.w3.org/2000/svg"><path fill-rule="evenodd" clip-rule="evenodd" d="m16.75,6V30h1V6h-1zm-9.5,2.25c0-.55.45-1,1-1,.55,0,1,.45,1,1,0,.55-.45,1-1,1s-1-.45-1-1zm1-2c-1.1,0-2,.89-2,2,0,1.1.9,2,2,2s2-.9,2-2c0-1.11-.9-2-2-2zm-3,6h-.5v8.5H6.25v9h4v-9h1.5v-8.5H5.25zm.5,7.5v-6.5h5v6.5H9.25v9h-2v-9h-1.5zm19.5,9v-5h2v5h-2zm-1,.5v-5.5h-3.16l3.29-11.5h3.75l3.29,11.5H28.25v6h-4v-.5zm1-21c0-.55.45-1,1-1,.55,0,1,.45,1,1,0,.55-.45,1-1,1-.55,0-1-.45-1-1zm1-2c-1.1,0-2,.89-2,2,0,1.1.9,2,2,2,1.11,0,2-.9,2-2,0-1.11-.89-2-2-2zm-1.12,7-2.71,9.5h7.67l-2.71-9.5h-2.25z"/></svg>