<svg width="24" height="24" xmlns="http://www.w3.org/2000/svg"><path fill-rule="evenodd" clip-rule="evenodd" d="m2,4h20v5h-.5c-1.42,0-2.5,1.08-2.5,2.5,0,1.42,1.08,2.5,2.5,2.5h.5v5H2V4zm1,1V18h13v-.46h1v.46h4v-3.03c-1.73-.23-3-1.66-3-3.47,0-1.81,1.27-3.23,3-3.47V5h-4v.46h-1v-.46H3zm4,2c-.55,0-1,.45-1,1,0,.55.45,1,1,1,.55,0,1-.45,1-1,0-.55-.45-1-1-1zM5,8c0-1.11.9-2,2-2,1.11,0,2,.89,2,2,0,1.11-.89,2-2,2-1.1,0-2-.89-2-2zM10,15c0-.55.45-1,1-1,.55,0,1,.45,1,1,0,.55-.45,1-1,1-.55,0-1-.45-1-1zm1-2c-1.11,0-2,.9-2,2,0,1.11.89,2,2,2,1.1,0,2-.89,2-2,0-1.1-.9-2-2-2zm2.85-5.65L4.85,16.35l-.71-.71,9-9,.71.71zM16,6.39v.93h1v-.93h-1zm0,1.86v.93h1v-.93h-1zm0,1.86v.93h1v-.93h-1zm0,1.86v.93h1v-.93h-1zm0,1.86v.93h1v-.93h-1zM16,15.68v.93h1v-.93h-1z"/></svg>