<svg width="24" height="24" xmlns="http://www.w3.org/2000/svg"><path fill-rule="evenodd" clip-rule="evenodd" d="m18,12.04c1.7.24,3,1.7,3,3.46V20h-7v-4.5c0-1.76,1.3-3.22,3-3.46V3h1v9.04zM2.86,11h1.19c.23-1.14,1.24-2,2.45-2,1.21,0,2.22.86,2.45,2h5.19l-.16.62L11.89,20H5.11l-2.25-9zm3.64-1c.65,0,1.21.42,1.41,1H5.09c.21-.58.76-1,1.41-1zm-2.36,2,1.75,7h5.22l1-4H9v-1h3.36l.5-2H4.14zm11.86,7v-2h1v2h1v-3h1v3h1v-3.5c0-1.38-1.12-2.5-2.5-2.5-1.38,0-2.5,1.12-2.5,2.5V19h1zM10,8.5c0-.28.22-.5.5-.5.28,0,.5.22.5.5s-.22.5-.5.5c-.28,0-.5-.22-.5-.5zM10.5,7c-.83,0-1.5.67-1.5,1.5S9.67,10,10.5,10c.83,0,1.5-.67,1.5-1.5s-.67-1.5-1.5-1.5zM5,7c0-.55.45-1,1-1,.55,0,1,.45,1,1s-.45,1-1,1c-.55,0-1-.45-1-1z"/></svg>