<svg width="24" height="24" xmlns="http://www.w3.org/2000/svg"><path fill-rule="evenodd" clip-rule="evenodd" d="m4,2c-1.11,0-2,.89-2,2v18h4V4c0-1.11-.89-2-2-2zM3,15v-4c0-.55.45-1,1-1s1,.45,1,1v4H3zm1-6c.36,0,.71.1,1,.27V4c0-.55-.45-1-1-1s-1,.45-1,1v5.27C3.29,9.1,3.64,9,4,9zm-1,7v5h2v-5H3zM9,2c-1.11,0-2,.89-2,2v18h4V4c0-1.11-.89-2-2-2zm1,7.27V4c0-.55-.45-1-1-1s-1,.45-1,1v5.27C8.29,9.1,8.64,9,9,9s.71.1,1,.27zM8,11c0-.55.45-1,1-1s1,.45,1,1v4H8v-4zm0,10v-5h2v5H8zm6.47-18.17L17.5,11.05l3.03-8.23.94.35-.48,1.3.64.21L20.32,8.63l-.76-.25L18.03,12.5l2.72,7.39,1.09-.36.32.95-1.06.35.37,1-.94.35-.38-1.03-.99.33-.32-.95.96-.32L17.5,13.95l-2.31,6.26.96.32-.32.95-.99-.33-.38,1.03-.94-.35.37-1-1.06-.35.32-.95,1.09.36,2.72-7.39-1.52-4.12-.76.25-1.32-3.95.64-.21-.48-1.3.94-.35z"/></svg>