<svg width="24" height="24" xmlns="http://www.w3.org/2000/svg"><path fill-rule="evenodd" clip-rule="evenodd" d="m13.88,5.35-.4-.35-1.24,1.6-3.41.93-.84-.46L4.53,9.64l1.28.44-2.48,2.75-1.34,4.9,3.04-.77.68-.4,2.13,2.04,3.57-.4,1.53-1.66,2.29,3.17,1.76-3.73,3.97,1.04-.25-2.16,1.51.04-.2-4.04-2-1.53-.52.99-.89-.27.65-1.94-4.08-1.58L13.88,5.35zM6.85,9.38l-.21-.07,1.42-1.06.64.34L12.83,7.47l.79-1.02,1.06.94,3.36,1.3-.68,2.01,2.66.8.35-.67.69.53.12,2.5-1.58-.04.21,1.85-3.36-.88-1.39,2.95-2.01-2.79-2.11,2.28-2.74.31-2.34-2.24-1.21.7-1.24.32.82-3.01,3.33-3.69-.72-.25zM9.21,13.75c.09,0,.18.01.26.03l3.78-3.78c-.02-.09-.04-.17-.04-.27,0-.55.45-1,1-1s1,.45,1,1c0,.55-.45,1-1,1-.09,0-.17-.01-.25-.03l-3.78,3.78c.02.08.03.17.03.26,0,.55-.45,1-1,1-.55,0-1-.45-1-1s.45-1,1-1z"/></svg>