<svg width="24" height="24" xmlns="http://www.w3.org/2000/svg"><path fill-rule="evenodd" clip-rule="evenodd" d="m11.9,2.77c-.26-.57-.9-.92-1.55-.71C6.42,3.33,3.33,6.44,2.06,10.38c-.16.5.01,1.01.37,1.33-.08.13-.13.27-.16.44-.23,1.48-.13,3,.27,4.43.13.45.49.75.9.84.34,1.45,1.06,2.65,1.87,3.46.44.44.92.77,1.4.96.47.18.99.24,1.45.01.46-.23.75-.65.93-1.11.18-.46.28-1.02.3-1.59.05-.96-.1-2.05-.39-2.99.3-.15.51-.43.61-.74.12-.38.27-.74.45-1.08.08-.15.13-.32.14-.48l.34.09c.5.13,1-.06,1.32-.44.5-.61,1.05-1.18,1.66-1.68.35-.29.53-.73.47-1.19.16-.01.33-.06.49-.15.34-.19.7-.34,1.07-.46.29-.09.55-.29.7-.56.94.29,2.02.41,2.97.35.56-.04,1.11-.14,1.56-.33.45-.19.87-.49,1.08-.95.22-.46.16-.98-.02-1.45-.19-.47-.52-.95-.95-1.39-.8-.8-1.98-1.52-3.41-1.84-.08-.43-.39-.82-.85-.95-1.43-.39-2.94-.48-4.41-.23-.11.02-.21.05-.31.09zm5.45,2.08L16.51,8.51c.83.25,1.8.37,2.64.32.49-.03.92-.12,1.24-.25.32-.14.5-.3.57-.45.06-.12.08-.34-.05-.66-.12-.32-.37-.68-.73-1.05-.65-.65-1.63-1.26-2.82-1.55zM3.52,12.14l0,0,5.54,1.42c.12.04.19.18.12.3-.21.4-.39.82-.52,1.26-.03.1-.09.14-.15.16l-4.75,1.15c-.12.03-.23-.05-.25-.13-.37-1.3-.45-2.67-.25-4.01.01-.09.13-.19.26-.15zm5.78.45c.01,0,.02.01.03.01l1.46.38c.1.03.21-.01.29-.11.54-.66,1.14-1.27,1.8-1.82.1-.08.14-.2.11-.3l-.27-1.01,0,0-1.71-6.51c-.05-.18-.22-.26-.35-.21C7.04,4.18,4.18,7.05,3.01,10.68c-.04.14.04.31.21.36l6.07,1.56,0,0zm-3.28,7.58c-.66-.66-1.27-1.65-1.58-2.86l3.6-.87c.26.84.4,1.82.36,2.68-.02.5-.1.94-.23,1.26-.13.33-.29.51-.44.58-.12.06-.32.08-.65-.05-.32-.12-.68-.37-1.06-.74zM13.68,9.48l0,0c.04.13.18.19.3.13.39-.22.81-.4,1.25-.54.09-.03.14-.09.16-.15l1.1-4.79c.03-.13-.05-.24-.13-.26-1.3-.36-2.66-.43-3.99-.21-.05.01-.09.04-.12.09-.03.05-.04.12-.03.18h0l1.46,5.55z"/></svg>