<svg width="24" height="24" xmlns="http://www.w3.org/2000/svg"><path fill-rule="evenodd" clip-rule="evenodd" d="m15.99,3.01c-2.76,0-5,2.24-5,5v.01l0,.01c.01.39.08.75.17,1.09l.96-.28c-.08-.26-.12-.54-.14-.84.01-2.2,1.79-3.99,4-3.99,2.21,0,4,1.79,4,4-.01.62-.2,1.2-.53,1.78l-3.46,5.46-.6-.95-.84.54,1.45,2.28,4.31-6.8.01-.01.01-.01c.39-.69.66-1.43.67-2.28v0c0-2.76-2.24-5-5-5zm.01,3.99c-.55,0-1,.45-1,1,0,.55.45,1,1,1,.55,0,1-.45,1-1s-.45-1-1-1zm-2,1c0-1.11.89-2,2-2,1.1,0,2,.89,2,2s-.9,2-2,2c-1.11,0-2-.89-2-2zM5,11h-1v.99h-1.01V9.99h1v0h1.01v1.01zm-1.01,9.99h-1v-2h1.01v1h1v1.01h-1.01v-.01zm3-2v-1h-1.99v-1h-.01v-.99h1v1.99h5v-1.99h1v.99h-1v1H8.99v1h2v1.01h1v1h1.01v-.01h1v-2h-1.01v1h-.99v-1h-1.01v-1h2v-1h1v-1h-1.99v-1h1.99v-1h-.99v-1h-1.01v-.99h.01v-1h.99v.99h1.01V9.99h-1v0h-1.01v1h-1v1h-1v1h-.99v-1h-1.01v-1h-2v1h-1v1h-1v1h-1v1.01h1.01v-1.01h1.99v1h-1v1h-2v1h1v1.01h1v.99h2zm0,0h1.01v1h1.99v1h-2v-.99h-.99v1h-1.01v-1.01h1v-1zm-.99-6h1.99v-1h-1.99v1zm4.99,2h1V12.99h-1v2zM7.99,10.99h2v-1h-2v1zm0,5.01h1.01v-1.01h-1.01v1.01zm2,.99h-3v-3h3v3z"/></svg>