<svg width="24" height="24" xmlns="http://www.w3.org/2000/svg"><path fill-rule="evenodd" clip-rule="evenodd" d="m10.19,4.51c.56-.26,1.17-.43,1.81-.48V2h1v2.02c.64.06,1.25.22,1.81.48l1.01-1.75.87.5-1.01,1.75c.51.36.96.81,1.32,1.32l1.75-1.01.5.87-1.75,1.01c.26.56.43,1.17.48,1.81h2.02v1h-2.02c-.06.64-.23,1.25-.48,1.81l1.75,1.01-.5.87-1.75-1.01c-.36.51-.81.96-1.32,1.32l1.01,1.75-.87.5-1.01-1.75c-.56.26-1.17.43-1.81.48V17h-1v-2.02c-.64-.06-1.25-.23-1.81-.48l-1.01,1.75-.87-.5,1.01-1.75c-.51-.36-.96-.81-1.32-1.32L6.25,13.68l-.5-.87,1.75-1.01C7.25,11.25,7.08,10.64,7.02,10H5V9h2.02c.06-.64.22-1.25.48-1.81L5.75,6.18l.5-.87L8.01,6.33c.36-.51.81-.96,1.32-1.32L8.32,3.25l.87-.5,1.01,1.75zM12.5,5c2.32,0,4.22,1.75,4.47,4h-2.02c-.23-1.14-1.24-2-2.45-2-.28,0-.54.05-.79.13l-1.01-1.75C11.25,5.13,11.86,5,12.5,5zm-1.66,2.63-1.01-1.75C8.72,6.7,8,8.01,8,9.5c0,1.49.72,2.8,1.83,3.62l1.01-1.75c-.52-.46-.84-1.13-.84-1.87,0-.74.33-1.41.84-1.87zm.87,4.24-1.01,1.75c.55.24,1.16.38,1.8.38,2.32,0,4.22-1.75,4.47-4h-2.02c-.23,1.14-1.24,2-2.45,2-.28,0-.54-.05-.79-.13zm-9.76,4.18c.01,0,.03,0,.05-.01V14h1v2.02c.64.06,1.25.22,1.81.48l1.01-1.75.87.5L5.68,17c.51.36.96.81,1.32,1.32l1.75-1.01.5.87-1.75,1.01c.26.56.42,1.17.48,1.81h2.02v1h-2.05c0,.02,0,.04-.01.05L7.45,22H4.95c-.01.04-.02.08-.03.12l-.97-.24c.03-.14.05-.26.05-.38,0-.85-.65-1.5-1.5-1.5-.12,0-.24.02-.38.05l-.24-.97c.19-.05.39-.08.62-.08,1.23,0,2.23.85,2.45,2H6.97c-.25-2.26-2.14-4-4.47-4-.08,0-.14.01-.23.02h0c-.06.01-.13.02-.22.03l-.1-1zm16.23-1.3,1.01,1.75c.56-.26,1.17-.42,1.81-.48V14h1v2.02l.04,0c.02,0,.04.01.05.01l.01,0-.01,0c-.01,0-.03-.01-.05-.01l-.09,1c-.01,0-.02,0-.02,0-.14-.01-.28-.02-.43-.02-.64,0-1.25.13-1.81.37l1.01,1.75c.25-.08.52-.12.79-.12.23,0,.44.04.62.08l-.24.97c-.14-.03-.26-.05-.38-.05-.85,0-1.5.65-1.5,1.5,0,.12.02.24.05.38l-.97.24c-.05-.19-.08-.39-.08-.62,0-.76.32-1.42.84-1.88l-1.01-1.75c-1.11.82-1.83,2.13-1.83,3.63,0,.08.01.14.02.23.01.06.02.13.03.23l-1,.1c0-.01,0-.03-.01-.05h-2.05v-1h2.02c.06-.64.22-1.25.48-1.81l-1.75-1.01.5-.87,1.75,1.01c.36-.51.81-.96,1.32-1.32l-1.01-1.75.87-.5zM11,9.5c0-.83.67-1.5,1.5-1.5s1.5.67,1.5,1.5c0,.83-.67,1.5-1.5,1.5s-1.5-.67-1.5-1.5z"/></svg>