<svg width="24" height="24" xmlns="http://www.w3.org/2000/svg"><path fill-rule="evenodd" clip-rule="evenodd" d="m6,5c-.55,0-1,.45-1,1s.45,1,1,1c.55,0,1-.45,1-1s-.45-1-1-1zm-2,1c0-1.11.89-2,2-2,1.1,0,2,.89,2,2s-.9,2-2,2c-1.11,0-2-.89-2-2zm2.85,12L2.97,7.33l-.94.34L6.15,19h7.85v-1H6.85zM5.71,9h-.71l2.86,8h6.55l2.44,4.77.89-.46L15.01,16H8.56l-2.14-6h.94l1.5,4.01h4.12v-1H9.55l-1.5-4.01H5.71zM11,4h10v7h-10V4zm1,5.71V10h3.29l-1.79-1.79L12,9.71zm0-1.41,1.5-1.5L15.5,8.79l3-3,1.5,1.5V5h-8v3.29zm8,.41-1.5-1.5-2.79,2.79h4.29V8.71z"/></svg>