<svg width="36" height="36" xmlns="http://www.w3.org/2000/svg"><path fill-rule="evenodd" clip-rule="evenodd" d="m24.76,3.25c-1.92,0-3.48,1.55-3.5,3.46L15.25,7.84v2.33l6.29,1.21c-.18.42-.28.89-.28,1.38,0,1.93,1.57,3.5,3.5,3.5,1.77,0,3.24-1.32,3.47-3.03,1.71-.23,3.03-1.69,3.03-3.47,0-1.77-1.32-3.24-3.03-3.47C28,4.57,26.53,3.25,24.76,3.25zm-2.5,3.5c0-1.38,1.12-2.5,2.5-2.5,1.38,0,2.5,1.12,2.5,2.5v.5h.5c1.38,0,2.5,1.12,2.5,2.5,0,1.38-1.12,2.5-2.5,2.5h-.5v.5c0,1.38-1.12,2.5-2.5,2.5-1.38,0-2.5-1.12-2.5-2.5,0-.54.17-1.03.47-1.45l.45-.63L16.25,9.34v-.67l6.09-1.14-.05-.46c-.01-.06-.01-.11-.02-.15-.01-.07-.01-.11-.01-.16zM9.25,6.25h4v4h-1.5v2h.62c2.14,0,3.87,1.73,3.88,3.87v0l0,16.63H6.25L6.25,16.12v0c0-2.14,1.73-3.88,3.87-3.88h.63V10.25h-1.5v-4zm1,1v2h2v-2h-2zm-3,8.87v0c0-1.59,1.29-2.87,2.87-2.87h2.25c1.59,0,2.88,1.29,2.88,2.88v0l0,.63H7.25l0-.63zM7.25,17.75l.01,11h8l0-11H7.25zm.01,14,0-2h8l0,2H7.25z"/></svg>