<svg width="24" height="24" xmlns="http://www.w3.org/2000/svg"><path fill-rule="evenodd" clip-rule="evenodd" d="m20.4,21,.25.25.25-.25h.1v-.1l.35-.35L3.45,2.65l-.35.35h-.11v.11l-.25.25.25.25v1.4h1v-.4l1,1v.39l.39,0,.61.61v1.4h1v1h-2v-2h-1v-1h-1v2h1v1h1v1h2v-1h1v-.39l1,1v5.39h5.39l1,1-2.4,0v1h-1v2h1v-1h1v-1h1v2h2v-1h-1v-1.39l2,2v.39h.39l1,1h-.39v1h1v0h.4zm-7-7.01-1-1h-1.39v-1.39l-1-1v3.39h3.39zM7.39,8l-.39-.39v.39H7.39zm-.39-4.42v-.59h3v1H7.41l-.41-.41zm7,7v-.59h-.59l-1-1h2.59v2.59l-1-1zM9,5v0h-.58l1,1h1.59v-1h1v0h1v2h1v-1l3,0v-1h1v-1h-1v-1h-1v2h-1v-1h-1v1h-1v-2h-1v1h-1v1H9zm11,2h1v-1h-1v1zm-2,5v1h-1.59l-.42-.42v-.59h2v-1h1v1h-1zm1,2v1H20v1.58l-1-1v-.58h-.58l-.42-.42v-1.58h3v2h-1v-1h-1zM17,8h1v1h-1v0h-1v-2h1v1zm0,13h1v-2h-1v2zm3-16h1v-2h-1v0h-2v1h2v1zm1,12.58-.58-.58h.58v.58zm-1-5.58h1v-2h-1v-1l1,0v-1h-2v2h1v2zm-1-5h-2v-1h2v1zm-8,14v-1h2v1h-2zm1-13v-2h-1v1h-.59l1,1h.58zM9,19h1v-1h1v2H10v0h-1v-1zm6,0h-1v2h1v0h1v-1h-1v-1zm-9-3v-1l2,0v1h1v1h-2v-1h-1zm4,0v1h2v-1h-2zm8-5h-2v-1h2v1zm-15,7h1v-1h-1v1zm3-5h-1v-1h1v-1h2v1h-2v1zM4,12h1v-1h-1V9h-1V11h1v1zm0,0h-1v2h1v1l-1,0v1h2v-2h-1V12zM15,8h-1v-1h1v1zM7,18h-2v-1h2v1zm0,1v-1h2v1h-1v2h-1v-1h-1v-1h1v0zm-3,1h2v1h-2v0h-1v-2h1v1zm4-6h-2v-1h2v1z"/></svg>