<svg width="36" height="36" xmlns="http://www.w3.org/2000/svg"><path fill-rule="evenodd" clip-rule="evenodd" d="m12,8c-.55,0-1,.45-1,1,0,.55.45,1,1,1s1-.45,1-1c0-.55-.45-1-1-1zm-2,1c0-1.11.9-2,2-2s2,.89,2,2c0,1.1-.9,2-2,2s-2-.9-2-2zm10.05.95C20.86,9.01,22.03,8.5,23.25,8.5h4.5c2.34,0,4.25,1.91,4.25,4.25S30.09,17,27.75,17h-2.57l-9.23,10.55C15.14,28.49,13.97,29,12.75,29h-6c-2.34,0-4.25-1.91-4.25-4.25,0-2.34,1.91-4.25,4.25-4.25h3.25v-7.5h4v3.87l6.05-6.91c0,0,0,0,0,0zm-7.05,8.06v-4.01h-2v6.3l2-2.29zM23.25,9.5c-.94,0-1.83.39-2.44,1.11L11.27,21.5H6.75c-1.79,0-3.25,1.46-3.25,3.25C3.5,26.54,4.96,28,6.75,28h6c.94,0,1.83-.39,2.44-1.11l0,0L24.72,16H27.75c1.79,0,3.25-1.46,3.25-3.25S29.54,9.5,27.75,9.5h-4.5z"/></svg>