<svg width="24" height="24" xmlns="http://www.w3.org/2000/svg"><path fill-rule="evenodd" clip-rule="evenodd" d="m13.22,6.7-2.75-2.7h2.04l3.49,3.5-3.49,3.5h-2.04l2.75-2.69H9.81v2.69h-1.61V8.31h-3.39l2.74,2.69h-2.04l-3.5-3.5,3.5-3.5h2.04l-2.74,2.7h3.39v-2.7h1.61v2.7h3.41zM8,15.82l-3.58-2.5c-.65-.5-1.58-.4-2.09.24-.52.64-.42,1.58.22,2.1l6.06,5.34h3.93l1.01,1h8.86l-5.87-5.92h0l-.01-.01c-1.19-1.14-2.75-2.04-4.4-2.08l0,0h-2.12c-.63,0-1.15.24-1.5.64-.3.34-.46.76-.5,1.18zm-4.16-1.69,4.69,3.28c.35.37.85.59,1.47.59h2v-1h-2c-.37,0-.61-.13-.76-.3-.16-.18-.25-.43-.24-.69,0-.27.09-.52.26-.7.15-.17.39-.3.75-.3h2.1c1.3.03,2.63.75,3.72,1.79l4.18,4.21h-6.04l-1.01-1H8.99l-5.78-5.1-.01-.01-.01-.01c-.22-.17-.25-.49-.08-.7l0,0c.17-.22.49-.25.7-.08l.01.01.01.01z"/></svg>