<svg width="36" height="36" xmlns="http://www.w3.org/2000/svg"><path fill-rule="evenodd" clip-rule="evenodd" d="m14.75,12c0-1.91,1.22-3.25,2.5-3.25s2.5,1.34,2.5,3.25-1.22,3.25-2.5,3.25-2.5-1.34-2.5-3.25zm2.5-4.25c-2.03,0-3.5,2.01-3.5,4.25,0,1.07.34,2.1.92,2.87-.64.59-1.18,1.39-1.58,2.33-.23-.31-.48-.59-.74-.84.57-.77.91-1.79.91-2.86,0-2.24-1.47-4.25-3.5-4.25-2.03,0-3.5,2.01-3.5,4.25,0,1.07.34,2.09.91,2.86-1.39,1.28-2.29,3.52-2.39,6.04-.09.07-.18.13-.27.2C3.76,23.19,3.25,23.91,3.25,24.75s.51,1.56,1.25,2.14c.75.59,1.79,1.1,3.04,1.51,2.51.84,5.94,1.34,9.7,1.34s7.2-.51,9.7-1.34c1.25-.42,2.3-.92,3.04-1.51.74-.58,1.25-1.3,1.25-2.14s-.51-1.56-1.25-2.14c-.08-.07-.17-.13-.27-.2-.1-2.52-1-4.77-2.39-6.05.57-.77.91-1.79.91-2.86,0-2.24-1.47-4.25-3.5-4.25s-3.5,2.01-3.5,4.25c0,1.07.34,2.09.91,2.86-.27.25-.52.53-.74.84-.4-.94-.94-1.74-1.58-2.33.58-.77.92-1.79.92-2.87,0-2.24-1.47-4.25-3.5-4.25zm4.58,10.65c.15.53.25,1.08.32,1.66,1.81.23,3.44.59,4.8,1.04.63.21,1.22.45,1.73.7-.21-2.07-1-3.77-2.04-4.72-.54.42-1.18.67-1.9.67-.72,0-1.36-.25-1.9-.67-.37.34-.72.79-1.02,1.32zM5.81,21.8c.52-.26,1.1-.49,1.73-.7,1.36-.45,2.99-.81,4.8-1.04.07-.57.17-1.13.32-1.65-.3-.53-.65-.98-1.02-1.32-.54.42-1.18.67-1.89.67-.71,0-1.36-.25-1.89-.67-1.04.94-1.83,2.64-2.04,4.71zm7.56-1.86c1.23-.12,2.54-.19,3.88-.19s2.65.06,3.88.19c-.26-1.91-1.02-3.46-1.99-4.35-.53.42-1.18.66-1.89.66-.71,0-1.35-.25-1.89-.66-.97.89-1.73,2.44-1.99,4.35zM4.25,24.75c0-.4.24-.87.87-1.36.62-.49,1.55-.95,2.74-1.35C10.24,21.25,13.56,20.75,17.25,20.75s7.01.5,9.39,1.29c1.19.4,2.12.86,2.74,1.35.63.49.87.96.87,1.36s-.24.87-.87,1.36c-.62.49-1.55.95-2.74,1.35-2.38.79-5.7,1.29-9.39,1.29s-7.01-.5-9.39-1.29c-1.19-.4-2.12-.86-2.74-1.35-.63-.49-.87-.96-.87-1.36zm18-11.25c0-1.91,1.22-3.25,2.5-3.25s2.5,1.34,2.5,3.25-1.22,3.25-2.5,3.25-2.5-1.34-2.5-3.25zm-12.5-3.25c-1.28,0-2.5,1.34-2.5,3.25s1.22,3.25,2.5,3.25c1.28,0,2.5-1.34,2.5-3.25s-1.22-3.25-2.5-3.25z"/></svg>