<svg width="24" height="24" xmlns="http://www.w3.org/2000/svg"><path fill-rule="evenodd" clip-rule="evenodd" d="m4.4,4.39C4.14,4.65,4,4.95,4,5.2V6h16v-.8c0-.05-.02-.16-.1-.31-.08-.14-.19-.3-.32-.44C19.28,4.15,18.98,4,18.8,4H5.2c-.23,0-.53.13-.8.39zM5.81,10l-1.5-3H19.69l-1.5,3H5.81zm.05,1-1.67,5H19.81l-1.67-5H5.86zM4,18.8V17h16v1.7c0,.24-.13.57-.39.86-.26.29-.56.44-.81.44H5.2c-.28,0-.58-.14-.82-.38C4.13,19.38,4,19.07,4,18.8zM3.7,3.68C4.09,3.3,4.64,3,5.2,3h13.6c.59,0,1.13.38,1.5.76.19.2.36.43.49.67.12.23.22.5.22.77v1.42l-1.96,3.92L21,16.42V18.7c0,.55-.28,1.11-.65,1.53-.37.42-.92.77-1.55.77H5.2c-.6,0-1.14-.28-1.53-.67C3.28,19.93,3,19.39,3,18.8v-2.38l1.96-5.88,3,6.62V5.2c0-.6.31-1.14.7-1.52zM16,19h2v-1h-2v1z"/></svg>