<svg width="24" height="24" xmlns="http://www.w3.org/2000/svg"><path fill-rule="evenodd" clip-rule="evenodd" d="m2,12C2,6.48,6.48,2,12,2c5.52,0,10,4.48,10,10,0,5.52-4.48,10-10,10-3.82,0-7.29-2.15-9-5.32V19H2v-4h4v1H3.77C5.26,18.96,8.46,21,12,21c4.97,0,9-4.03,9-9,0-4.97-4.03-9-9-9-4.97,0-9,4.03-9,9H2zm11.5-7c-1.16,0-2.05.91-2.37,2.03C9.86,7.25,9,8.58,9,10c0,.75.24,1.48.65,2.03C8.04,12.99,7,15.13,7,17.5v.5h9v-.5c0-.51-.05-1.02-.14-1.5h2.14v-.5c0-2.37-1.04-4.51-2.65-5.47.42-.55.65-1.28.65-2.03,0-1.55-1.02-3-2.5-3zm2.09,10h1.39c-.14-2.08-1.18-3.69-2.44-4.26-.21.11-.43.19-.68.23-.11.39-.29.75-.52,1.06,1.01.6,1.8,1.67,2.25,2.97zm-3.05-2.26c-.31.17-.66.27-1.04.27s-.73-.1-1.04-.27c-1.26.57-2.3,2.19-2.44,4.26h6.97c-.14-2.08-1.18-3.69-2.44-4.26zm1.46-2.85c-.04-1.26-.76-2.43-1.84-2.78C12.42,6.4,12.97,6,13.5,6c.73,0,1.5.79,1.5,2,0,.94-.46,1.62-1,1.88zM11.5,8c-.73,0-1.5.79-1.5,2,0,1.21.77,2,1.5,2s1.5-.79,1.5-2c0-1.21-.77-2-1.5-2z"/></svg>