<svg width="36" height="36" xmlns="http://www.w3.org/2000/svg"><path fill-rule="evenodd" clip-rule="evenodd" d="m18,3.27c-4.83,0-8.75,3.92-8.75,8.75v.01l0,.01c.06,1.51.51,2.78,1.22,3.97h0l7.55,11.92,7.55-11.92.01-.01c.69-1.22,1.15-2.51,1.17-3.97v0c0-4.83-3.92-8.75-8.75-8.75zM11.32,15.49c-.64-1.06-1.02-2.16-1.07-3.48.01-4.28,3.47-7.74,7.75-7.74,4.28,0,7.75,3.47,7.75,7.75-.01,1.24-.4,2.36-1.03,3.47l-6.7,10.57-6.7-10.58zm1.82,7.53c-2.79.32-5.21.9-6.94,1.67-.87.38-1.59.82-2.1,1.32-.51.5-.85,1.09-.85,1.75,0,.85.54,1.57,1.32,2.14.78.58,1.88,1.09,3.19,1.51,2.64.84,6.25,1.35,10.24,1.35,3.99,0,7.6-.51,10.24-1.35,1.31-.42,2.41-.92,3.19-1.51.77-.58,1.32-1.3,1.32-2.14,0-.66-.33-1.25-.84-1.74-.51-.49-1.22-.93-2.07-1.31-1.71-.76-4.1-1.35-6.86-1.67l-.12.99c2.7.31,4.98.88,6.56,1.59.79.35,1.39.73,1.78,1.11.39.38.54.72.54,1.02,0,.39-.25.85-.91,1.34-.66.49-1.64.96-2.9,1.36-2.51.8-6.02,1.3-9.94,1.3-3.91,0-7.42-.5-9.94-1.3-1.26-.4-2.24-.86-2.9-1.36-.67-.5-.91-.96-.91-1.34,0-.3.15-.65.55-1.03.4-.38,1-.77,1.81-1.12,1.61-.71,3.92-1.28,6.65-1.59l-.11-.99zM20.75,9.25V7.75l-2,0v.5l0-.5h0m2,2.5h2.5v-1h-2.5m0,1v2h2.5v1h-2.5v1.5h-2c-1.76,0-3.22-1.3-3.46-3h-3.29v-1h3.29c.24-1.69,1.7-3,3.46-3m0,1,1,0V13.75h-1c-1.38,0-2.5-1.12-2.5-2.5,0-1.38,1.12-2.5,2.5-2.5h0z"/></svg>