<svg width="24" height="24" xmlns="http://www.w3.org/2000/svg"><path fill-rule="evenodd" clip-rule="evenodd" d="m3.5,5H3v10h3v2.96L8.96,15H9v3h6.04L18,20.96V18h3V8h-5V5H3.5zM16,9v2h3v1h-3v1h2v1h-2v1h-6v2h5.46L17,18.54V17h3V9h-4zM4,14V6h11v8H8.54L7,15.54V14H4zm4.83-1.37h.84v-.81h-.84v.81zM7.78,7.55c-.17.27-.27.64-.28,1.13h.67c.06-.85.43-1.28,1.13-1.28.34,0,.59.11.76.32.14.18.22.4.22.66,0,.14-.03.28-.07.41-.06.16-.19.34-.38.54-.3.31-.49.52-.58.63-.09.11-.15.24-.2.38-.07.19-.1.49-.11.89h.66c0-.22.01-.41.04-.55.02-.14.07-.26.12-.35.06-.1.16-.21.31-.36.34-.33.55-.55.64-.68.2-.27.3-.59.3-.96,0-.45-.15-.81-.44-1.09-.31-.3-.73-.45-1.26-.45-.33,0-.62.07-.89.2-.26.13-.48.32-.63.57z"/></svg>