<svg width="36" height="36" xmlns="http://www.w3.org/2000/svg"><path fill-rule="evenodd" clip-rule="evenodd" d="m11.64,4.4c.86-.1,1.73-.15,2.61-.15,4.36,0,8.43,1.2,11.93,3.27l.51-.86c-3.65-2.16-7.89-3.41-12.44-3.41-.92,0-1.83.06-2.72.16l.11.99zM6.2,7.82c2.49-1.01,5.2-1.57,8.05-1.57,6.31,0,11.97,2.74,15.9,7.07l-.74.67c-3.75-4.13-9.15-6.74-15.16-6.74-2.72,0-5.3.54-7.67,1.5l-.37-.93zm8.05,2.43c-3.31,0-6.39.93-9.03,2.53l-.52-.86c2.79-1.69,6.05-2.67,9.55-2.67,6.87,0,12.84,3.75,16.03,9.3l-.87.5c-3.02-5.25-8.68-8.8-15.17-8.8zM5.27,20.57c2.11-2.63,5.34-4.32,8.98-4.32,6.32,0,11.45,5.1,11.5,11.41l1-.01c-.05-6.86-5.62-12.41-12.5-12.41-3.95,0-7.47,1.84-9.76,4.7l.78.62zm-1.09-4.59C6.89,13.66,10.4,12.25,14.25,12.25c7.05,0,12.99,4.71,14.87,11.16l-.96.28C26.4,17.66,20.84,13.25,14.25,13.25c-3.6,0-6.88,1.32-9.42,3.49l-.65-.76zM8.76,27.67c.04-3,2.48-5.42,5.49-5.42,3.04,0,5.5,2.46,5.5,5.5v4.04h1V27.75c0-3.59-2.91-6.5-6.5-6.5-3.56,0-6.44,2.86-6.49,6.41l1,.01zM5.6,23.84c1.49-3.29,4.8-5.58,8.65-5.58,5.25,0,9.5,4.25,9.5,9.5v2.65h-1v-2.65c0-4.69-3.81-8.5-8.5-8.5-3.44,0-6.4,2.05-7.74,5l-.91-.41zm8.65.41c-1.93,0-3.5,1.57-3.5,3.5v2.64h1V27.75c0-1.38,1.12-2.5,2.5-2.5,1.38,0,2.5,1.12,2.5,2.5v4.5h1v-4.5c0-1.93-1.57-3.5-3.5-3.5zm-.5,7.25v-4.5h1v4.5h-1z"/></svg>