<svg width="24" height="24" xmlns="http://www.w3.org/2000/svg"><path fill-rule="evenodd" clip-rule="evenodd" d="m16.31,9.86c.49.11.89.38,1.18.75.39.5.54,1.16.49,1.8-.05.64-.32,1.29-.83,1.78-.51.5-1.24.81-2.15.81v-1c.67,0,1.14-.22,1.45-.53.32-.31.49-.73.53-1.15.04-.43-.07-.83-.28-1.1-.2-.26-.51-.44-.98-.42l-.7.03.2-.67c.24-.81.15-1.48-.12-1.98-.27-.51-.72-.88-1.25-1.07-1.05-.38-2.36-.05-3,1.39l-.27.6-.51-.42c-.97-.79-2.57-.05-2.39,1.45l.07.56h-.56c-.35,0-.63.17-.85.46-.22.3-.34.73-.32,1.17.02.43.18.85.47,1.15.29.29.76.52,1.49.52v1c-.95,0-1.69-.31-2.2-.82-.5-.51-.74-1.17-.76-1.81-.03-.64.15-1.29.51-1.79.27-.38.66-.69,1.14-.81.09-1.85,2.01-2.9,3.52-2.18.95-1.54,2.62-1.92,3.99-1.42.75.27,1.4.8,1.79,1.55.32.61.45,1.34.32,2.14zm-5.02,3.14h2.91l-2.5,2.5h2.37l-7.59,6.19,3.51-4.69H7.29l4-4zm-1.5,3h-.09l2-2h.09l-2,2zm6.71-.5c-.55,0-1,.45-1,1,0,.55.45,1,1,1s1-.45,1-1c0-.55-.45-1-1-1zm-3,3c0-.55.45-1,1-1s1,.45,1,1c0,.55-.45,1-1,1s-1-.45-1-1zm-8-2c-.55,0-1,.45-1,1,0,.55.45,1,1,1s1-.45,1-1c0-.55-.45-1-1-1z"/></svg>