<svg width="36" height="36" xmlns="http://www.w3.org/2000/svg"><path fill-rule="evenodd" clip-rule="evenodd" d="m24,4.33c-.92,0-1.75.83-1.75,1.75s.83,1.75,1.75,1.75c.92,0,1.75-.83,1.75-1.75s-.83-1.75-1.75-1.75zm-2.75,1.75c0-1.48,1.27-2.75,2.75-2.75,1.48,0,2.75,1.27,2.75,2.75s-1.27,2.75-2.75,2.75c-1.48,0-2.75-1.27-2.75-2.75zm1,5.67v8h3.5v-8h-3.5zm-1,.71v7.79h0v5.92l-3.65,5.03.81.59,3.85-5.3V20.75h3.73l2.77,4.23V33h1v-8.31l-3-4.58v-7.2l2.15,3.22,3.85,2.31.51-.86-3.65-2.19L26.52,10.75H21.54l-4.79,4.79v.21l0,4h-3.13l-3-1.5H5.79L3.25,20.79V25.5h1v-4.29L6.21,19.25H6.25v9.08L4.1,31.2l.8.6,2.35-3.13V25.25h2.9l2.88,7.92.94-.34L11,24.66V19.56l2.38,1.19h3.37V21h1l0-5.04,3.5-3.5zM8.25,13.25c-.52,0-1,.48-1,1s.48,1,1,1,1-.48,1-1-.48-1-1-1zm-2,1c0-1.08.92-2,2-2s2,.92,2,2-.92,2-2,2-2-.92-2-2zm1,10v-5H10v5H7.25z"/></svg>