<svg width="36" height="36" xmlns="http://www.w3.org/2000/svg"><path fill-rule="evenodd" clip-rule="evenodd" d="m9.75,4.25c-1.34,0-2.5,1.4-2.5,3.25,0,.65.14,1.25.4,1.76l0,0c.46.93,1.23,1.49,2.1,1.49.87,0,1.64-.56,2.1-1.49.25-.51.4-1.12.4-1.76,0-1.85-1.16-3.25-2.5-3.25zM12.29,10.43c-.61.79-1.49,1.32-2.54,1.32-1.04,0-1.92-.53-2.54-1.31-2.08,1.16-2.87,3.52-2.95,6.31H15.25c-.08-2.8-.88-5.17-2.96-6.32zm-5.6-.85c-.29-.63-.44-1.34-.44-2.09,0-2.16,1.39-4.25,3.5-4.25,2.11,0,3.5,2.09,3.5,4.25,0,.74-.16,1.45-.44,2.08,2.66,1.5,3.45,4.58,3.45,7.68v.5H3.25v-.5c0-3.08.77-6.17,3.44-7.67zM24.64,6.56c1.4,1.88,2.2,4.48,2.16,7.65l2.85-2.81.7.71-4.11,4.05-4.09-4.04.7-.71,2.95,2.91c.06-3.06-.7-5.47-1.96-7.16-1.4-1.88-3.46-2.89-5.85-2.88l0-1c2.7-.01,5.06,1.15,6.65,3.28zm1.61,12.69c-1.34,0-2.5,1.4-2.5,3.25,0,.76.2,1.46.54,2.02.47.77,1.17,1.23,1.96,1.23.78,0,1.49-.46,1.96-1.23.34-.56.54-1.27.54-2.02,0-1.85-1.16-3.25-2.5-3.25zM28.77,25.47c-.61.77-1.49,1.28-2.52,1.28-1.03,0-1.9-.52-2.52-1.28-1.83,1.31-2.85,3.75-2.97,6.29h10.98c-.12-2.55-1.15-4.98-2.98-6.29zm-5.56-.85c-.3-.63-.46-1.36-.46-2.11,0-2.16,1.39-4.25,3.5-4.25s3.5,2.09,3.5,4.25c0,.75-.16,1.48-.46,2.11,2.34,1.63,3.46,4.7,3.46,7.64v.5h-13v-.5c0-2.93,1.12-6.01,3.46-7.64zM9.75,19.8l4.1,4.04-.7.71-2.96-2.91c-.06,3.06.7,5.49,1.96,7.2,1.41,1.89,3.46,2.92,5.85,2.91l0,1c-2.7.01-5.06-1.17-6.65-3.32-1.4-1.89-2.2-4.51-2.16-7.68l-2.84,2.81-.7-.71,4.1-4.05z"/></svg>