<svg width="24" height="24" xmlns="http://www.w3.org/2000/svg"><path fill-rule="evenodd" clip-rule="evenodd" d="m16.02,5.38c1.15-.57,2.57-.5,3.73.06l.01,0,.01,0c.75.4,1.41,1.13,1.62,2.07.22.96-.05,2.05-1.01,3.12l-.01.01-1.5,1.5c-.43.49-.63.85-.74,1.23-.11.4-.13.87-.13,1.63h-1c0-.74.01-1.34.16-1.89.16-.58.46-1.07.96-1.64l.01-.01,1.5-1.5c.77-.87.9-1.64.77-2.22-.14-.61-.58-1.11-1.11-1.4-.91-.44-2-.47-2.84-.06C15.65,6.67,15,7.52,15,9h-1c0-1.83.83-3.04,2.02-3.62zM6,13.5V8h1v5h5v6h-1v-5H6v-.5zm-4,1c0-1.75,1.01-3.27,2.47-4.01l.45.89c-1.14.58-1.92,1.77-1.92,3.12,0,1.92,1.58,3.5,3.5,3.5,1.39,0,2.6-.83,3.17-2.02l.9.43c-.72,1.53-2.28,2.59-4.07,2.59-2.48,0-4.5-2.03-4.5-4.5zm15.05,2.5v2h1v-2h-1zM6.5,5c-.55,0-1,.45-1,1s.45,1,1,1,1-.45,1-1-.45-1-1-1z"/></svg>