<svg width="48" height="48" xmlns="http://www.w3.org/2000/svg"><path fill-rule="evenodd" clip-rule="evenodd" d="m11,12.5c0-.83.67-1.5,1.5-1.5s1.5.67,1.5,1.5-.67,1.5-1.5,1.5-1.5-.67-1.5-1.5zm1.5-2.5c-1.38,0-2.5,1.12-2.5,2.5s1.12,2.5,2.5,2.5,2.5-1.12,2.5-2.5S13.88,10,12.5,10zm11,1c-.83,0-1.5.67-1.5,1.5s.67,1.5,1.5,1.5,1.5-.67,1.5-1.5-.67-1.5-1.5-1.5zM21,12.5c0-1.38,1.12-2.5,2.5-2.5s2.5,1.12,2.5,2.5S24.88,15,23.5,15,21,13.88,21,12.5zM35.5,11c-.83,0-1.5.67-1.5,1.5s.67,1.5,1.5,1.5,1.5-.67,1.5-1.5-.67-1.5-1.5-1.5zM33,12.5c0-1.38,1.12-2.5,2.5-2.5s2.5,1.12,2.5,2.5S36.88,15,35.5,15,33,13.88,33,12.5zM33,38v2h1V38h3v2h1V38h2.05l-1.1-11h-6.91L30.95,38H33zm-.92-21h6.85l2.07,12.42-.99.16L38.08,18h-5.15l-1.93,11.58-.99-.16L32.08,17zm-.02,20,.9-9h5.1l.9,9h-6.9zm-10.05,3V28h3v12h1V28H27V29.5h1V17h-9v12.5h1v-1.5h1v12h1zM27,18v9h-7V18h7zM11,28v12h-1V28H9V29.5H8V17h9v12.5h-1v-1.5h-1v12h-1V28h-3zm5-1V18H9v9h7z"/></svg>