<svg width="36" height="36" xmlns="http://www.w3.org/2000/svg"><path fill-rule="evenodd" clip-rule="evenodd" d="m23.7634,11.6912c-.4181-.7984-1.0531-1.4263-1.796-1.85242C22.6764,9.16147,23.649,8.75,24.75,8.75c2.2604,0,4,1.7396,4,4,0,1.6951-.9775,3.0916-2.4106,3.6882-.0798-.1335-.1689-.2614-.2674-.3823-.4551-.5589-1.0981-.9543-1.8922-1.0718.2458-1.2536.065-2.3738-.4164-3.2929zm3.0768,6.8827c.0243-.4087-.0149-.8201-.117-1.2122,1.8028-.75,3.0268-2.5091,3.0268-4.6117,0-2.81264-2.1874-5-5-5-1.5108,0-2.8491.6317-3.7596,1.66348-1.9564-.60671-4.3015.0204-5.5822,2.30282-2.1923-1.2254-5.1274.3315-5.1347,3.1338-.7433.1433-1.34132.5855-1.75756,1.1673-.50429.7048-.75295,1.6239-.71355,2.5298.03955.9095.37146,1.8407,1.0731,2.5477.70786.7132,1.74981,1.1556,3.12471,1.1556h10.5c1.3837,0,2.4498-.441,3.1853-1.1441.7305-.6983,1.1007-1.6228,1.1547-2.5325zm-5.973-8.1471c-1.6857-.61152-3.7993-.0644-4.8096,2.2255l-.2654.6017-.5089-.4167c-1.6278-1.3334-4.2821-.0689-3.9867,2.4039l.0669.5593h-.5633c-.6158,0-1.11618.3028-1.47096.7987-.36092.5045-.55852,1.198-.52779,1.9045.03057.7031.28516,1.3843.78381,1.8867.49244.4962,1.26454.8601,2.41494.8601h10.5c1.1625,0,1.9695-.3653,2.4943-.8669.5297-.5064.8068-1.185.8475-1.869.0409-.6878-.1588-1.3525-.5454-1.8273-.377-.4629-.948-.7684-1.7264-.7372l-.6985.0279.1992-.67c.3789-1.2744.233-2.3387-.1934-3.1529-.4296-.8204-1.1616-1.4205-2.0103-1.7283zM23,24.75c0-.1379.1121-.25.25-.25.1378,0,.25.1121.25.25s-.1122.25-.25.25c-.1379,0-.25-.1121-.25-.25zm.25-1.25c-.6901,0-1.25.5599-1.25,1.25S22.5599,26,23.25,26s1.25-.5599,1.25-1.25-.5599-1.25-1.25-1.25zm-6,1c-.1379,0-.25.1121-.25.25s.1121.25.25.25.25-.1121.25-.25-.1121-.25-.25-.25zm-1.25.25c0-.6901.5599-1.25,1.25-1.25s1.25.5599,1.25,1.25S17.9401,26,17.25,26,16,25.4401,16,24.75zm-5,0c0-.1379.1121-.25.25-.25s.25.1121.25.25-.1121.25-.25.25-.25-.1121-.25-.25zm.25-1.25c-.6901,0-1.25001.5599-1.25001,1.25S10.5599,26,11.25,26s1.25-.5599,1.25-1.25-.5599-1.25-1.25-1.25zm9,4c-.1379,0-.25.1121-.25.25s.1121.25.25.25.25-.1121.25-.25-.1121-.25-.25-.25zm-1.25.25c0-.6901.5599-1.25,1.25-1.25s1.25.5599,1.25,1.25S20.9401,29,20.25,29,19,28.4401,19,27.75zm-5,0c0-.1379.1121-.25.25-.25s.25.1121.25.25-.1121.25-.25.25-.25-.1121-.25-.25zm.25-1.25c-.6901,0-1.25.5599-1.25,1.25S13.5599,29,14.25,29s1.25-.5599,1.25-1.25-.5599-1.25-1.25-1.25z"/></svg>