<svg width="36" height="36" xmlns="http://www.w3.org/2000/svg"><path fill-rule="evenodd" clip-rule="evenodd" d="m3.25,6.24951h29.5v6.99999h-.5c-2.2739,0-4,1.7262-4,4,0,2.2739,1.7261,4,4,4h.5v7H3.25V6.24951zm1,1V27.2495h27.5v-5.023c-2.5785-.2395-4.5-2.32-4.5-4.977s1.9215-4.7375,4.5-4.977V7.24951H4.25zm20,.7375v-.4875h1v.4875h-1zm0,1.95v-.975h1v.975h-1zM24.25,11.887v-.975h1v.975h-1zm0,1.95v-.975h1v.975h-1zm0,1.95v-.975h1v.975h-1zm0,1.95v-.975h1v.975h-1zm0,1.95v-.975h1v.975h-1zM24.25,21.637v-.975h1v.975h-1zm0,1.95v-.975h1v.975h-1zm0,1.95v-.975h1v.975h-1zm0,1.4625v-.4875h1v.4875h-1zM13.9694,10.3274,13.5,9.0471l-.4694,1.2803-1.5298,4.1721H6.0993l1.08408.887,3.02262,2.473-1.67416,4.4644-.5443,1.4515,1.28981-.8599L13.5,20.1004l5.4907,3.6605-.5208-1.4323-1.6752-4.6067,3.011-2.3267,1.1591-.8957h-5.4656l-1.5298-4.1721zm-1.65,4.8442L13.5,11.9519l1.1806,3.2197.1202.3279h3.2344l-2.1409,1.6544-.289.2233.1248.3432,1.2792,3.5177-3.232-2.1546-.2773-.1849-.2773.1849-3.2102,2.1401,1.2557-3.3485.1258-.3356-.2774-.227-2.2159-1.813h3.2985l.1202-.3279z"/></svg>