<svg width="48" height="48" xmlns="http://www.w3.org/2000/svg"><path fill-rule="evenodd" clip-rule="evenodd" d="m7.42859,9.97411c.10493-.00062.23218.06329.36862.20219l-.37292-1.20218H3.42434c-.47444.0012-.84675.29797-1.04968.49437-.11234.10873-.20215.21566-.26369.29479-.03109.03998-.05578.07391-.07334.09882-.0088.01248-.01586.02278-.02109.03053l-.00648.00968-.0022.00334-.00084.00128-.00035.00055-.00016.00024c-.00008.00012-.00015.00023.4191.27268.41924.2725.41917.2726.41911.2727l.0005-.0007.00984-.0143c.00962-.0136.02495-.0348.04527-.0609.04129-.0531.09987-.1225.16979-.1901.16128-.1561.28879-.21259.35636-.21298h.88112l4.3412,2.17058-1.47679,1.846H6v1h6.999c2.033,0,4.0351.4978,5.832,1.45l.2699.1431-.0286.0404c-1.4654,2.0722-.8811,5.159,1.5109,6.2424.017.0077.0341.0154.0512.0229h.0001l4.4381,1.9474c1.7462.7662,3.6324,1.1618,5.5392,1.1618h6.255l3.1735,1.6818C41.2457,28.3193,42,29.5732,42,30.9393l-.0001.028H12.9793v1h28.8893c-.4544,1.74-2.0352,3.0234-3.9146,3.0234H7v1h3.0265c.0306.2814.087.555.167.8184H3.99768v1h6.63922c.2703.4512.6173.8511,1.0231,1.1816H2v1h12.2088c.0963.0062.1934.0093.2913.0093s.195-.0031.2913-.0093h10.4185c.0963.0062.1934.0093.2913.0093s.195-.0031.2913-.0093H46v-1H28.3413c.4058-.3305.7528-.7304,1.0231-1.1816h8.3537l-.2492-.6734-.4235-1.145h.9086c2.7874,0,5.046-2.2622,5.046-5.0514,0-1.736-.9585-3.33-2.4915-4.1424L19.2992,15.5571c-1.941-1.0286-4.1039-1.5664-6.3002-1.5664H8.45264l1.3634-1.7042.38636-.483L6.54367,9.97412h.88194v.00001l.00298-.00002zM35.9792,35.9907h-6.0045c-.0305.2814-.0869.555-.1669.8184h6.4741l-.3027-.8184zm-10.7348,3h.5136c1.6496-.1196,2.9821-1.3825,3.2091-3h-6.9318c.227,1.6175,1.5595,2.8804,3.2091,3zm-4.0498-2.1816c-.08-.2634-.1364-.537-.167-.8184h-2.054c-.0305.2814-.0869.555-.1669.8184h2.3879zM21.638,37.8091h-3.2747c-.2703.4512-.6173.8511-1.0231,1.1816h5.3209c-.4058-.3305-.7528-.7304-1.0231-1.1816zm-3.672-1.8184h-6.9318c.227,1.6175,1.5595,2.8804,3.2091,3h.5136c1.6496-.1196,2.9821-1.3825,3.2091-3zm2.0258-18.9348-.103.1457c-1.1544,1.6323-.6341,3.9655,1.107,4.7541l.0405.0181,4.4381,1.9474c1.6195.7106,3.3689,1.0775,5.1374,1.0775h4.368l-14.988-7.9428zM2,34.9907v1h4v-1H2zm0-20h3v-1H2v1zm4,15.9766v1H4v-1h2zm6,0H8v1h4v-1zM3,19.9907h10.3179c1.6569,0,3,1.3432,3,3,0,1.6569-1.3431,3-3,3H5v-1h2v-4H3v-1zm8.6195,5H8v-4h5.3179c1.1046,0,2,.8954,2,2s-.8954,2-2,2h-1.6984zm-9.6195,1h2v-1H2v1z"/></svg>