<svg width="24" height="24" xmlns="http://www.w3.org/2000/svg"><path fill-rule="evenodd" clip-rule="evenodd" d="m12,1.99951h4.4343l-.5183.77735-1.8459,2.76883.8222,1.81005-.9105.41354-.8039-1.76977H8.32494l-.25651.57713C9.2255,7.2783,10,8.5499,10,9.99951c0,2.20719-1.79395,3.99999-4,3.99999s-4-1.7928-4-3.99999c0-2.20614,1.79386-4,4-4,.40147,0,.78928.05941,1.15511.16989l.51995-1.16989h5.55734l1.3333-2H12v-1zM5.54309,9.79644l1.2015-2.70336C6.50641,7.032,6.25692,6.99951,6,6.99951c-1.65386,0-3,1.34614-3,3,0,1.65479,1.34605,2.99999,3,2.99999s3-1.3452,3-2.99999c0-1.04148-.53382-1.96094-1.34215-2.49904L6.45691,10.2026l-.91382-.40616zM3.64645,19.646,18.6464,4.64596l.7072.70711L4.35355,20.3531l-.7071-.7071zM17,8.99951h1c.9212,0,1.7004.21404,2.2434.75713.5429.54306.7566,1.32226.7566,2.24286v1.001h1v1h-1v7.999h-3.999v-2H11v2H7v-3h13v-3.999h-8v-1h2.0499c.2314-1.1413,1.2408-2.001,2.4501-2.001s2.2187.8597,2.4501,2.001H20v-2.001c0-.7844-.1833-1.2552-.4639-1.5359-.2805-.2806-.7513-.46409-1.5361-.46409h-1v-1zm1.001,10.99999H20v1h-1.999v-1zm-10.001,1v-1h2v1H8zm8.5-8c.6529,0,1.209.4181,1.4149,1.001h-2.8298c.2059-.5829.762-1.001,1.4149-1.001zm.5,4c0-.5505.4472-1,1-1s1,.4495,1,1c0,.5522-.4479,1-1,1s-1-.4478-1-1zm-7-1c-.55214,0-1,.4479-1,1,0,.5522.44786,1,1,1,.5521,0,1-.4478,1-1,0-.5521-.4479-1-1-1zM6.2085,3.99951h2.792v-1h-2.792v1z"/></svg>