<svg width="24" height="24" xmlns="http://www.w3.org/2000/svg"><path fill-rule="evenodd" clip-rule="evenodd" d="m8.9999,5.49976c0-1.38086,1.1191-2.5,2.5-2.5s2.5,1.11914,2.5,2.5v1.50048h-5V5.49976zm-1,2.50048v1.99952h1V8.00024h5v1.99952h1V8.00024h2.037L17.96,20.0002H5.03984l.92308-11.99996H7.9999zm0-1V5.49976c0-1.93315,1.56686-3.5,3.5-3.5,1.9331,0,3.5,1.56685,3.5,3.5v1.50048h2.963l.0355.46166,1,13,.0414.5383H3.95996L5.00137,7.4619l.03551-.46166H7.9999zm3,9.99996v-5h1v5h-1zm.5-7.00044c-.1988,0-.3947.01294-.5871.03804l.1294.9916c.1495-.0195.3023-.0296.4577-.0296s.3082.0101.4577.0296l.1294-.9916c-.1924-.0251-.3883-.03804-.5871-.03804zM14.2397,10.9298c-.3095-.2379-.651-.4365-1.0171-.5883l-.3831.9237c.2842.1179.5498.2723.7908.4575l.6094-.7929zm-4.46247-.5883c-.3661.1518-.7076.3504-1.01709.5883l.60934.7929c.241-.1852.50657-.3396.79082-.4575l-.38307-.9237zm5.88097,2.4356c-.1518-.3661-.3505-.7076-.5883-1.0171l-.7929.6093c.1852.241.3396.5066.4575.7909l.9237-.3831zM7.9299,11.76c-.23784.3095-.43647.651-.5883,1.0171l.92371.3831c.11789-.2843.27229-.5499.4575-.7909L7.9299,11.76zm8.07,2.7398c0-.1988-.0129-.3948-.038-.5872l-.9916.1294c.0195.1496.0296.3024.0296.4578,0,.1553-.0101.3081-.0296.4577l.9916.1294c.0251-.1924.038-.3884.038-.5871zm-8.96198-.5872c-.0251.1924-.03802.3884-.03802.5872,0,.1987.01292.3947.03802.5871l.99159-.1294c-.01951-.1496-.02961-.3024-.02961-.4577,0-.1554.0101-.3082.02961-.4578l-.99159-.1294zM15.0699,17.2395c.2378-.3095.4365-.651.5883-1.0171l-.9237-.3831c-.1179.2843-.2723.5499-.4575.7909l.7929.6093zm-7.7283-1.0171c.15183.3661.35046.7076.5883,1.0171l.79291-.6093c-.18521-.241-.33961-.5066-.4575-.7909l-.92371.3831zm5.881,2.4357c.3661-.1519.7076-.3505,1.0171-.5883l-.6094-.793c-.241.1853-.5066.3397-.7908.4575l.3831.9238zm-4.46246-.5883c.30949.2378.65099.4364,1.01709.5883l.38307-.9238c-.28424-.1178-.54982-.2722-.79082-.4575l-.60934.793zm2.15266.8919c.1924.0251.3883.0381.5871.0381s.3947-.013.5871-.0381l-.1294-.9916c-.1495.0196-.3023.0297-.4577.0297s-.3082-.0101-.4577-.0297l-.1294.9916z"/></svg>