<svg width="36" height="36" xmlns="http://www.w3.org/2000/svg"><path fill-rule="evenodd" clip-rule="evenodd" d="m17.9999,3.27197c-4.8332,0-8.75002,3.91686-8.75002,8.75003v.0098l.00038.0098c.05928,1.5106.50845,2.7825,1.22004,3.9669h-.0001l.0063.0101,7.125,11.247.4224.6667.4224-.6667,7.125-11.247.0062-.0099.0057-.0101c.6937-1.2166,1.1537-2.5123,1.1667-3.9722v-.0044c0-4.83323-3.9184-8.75003-8.75-8.75003zM11.3245,15.4885c-.6351-1.0585-1.0214-2.1644-1.0746-3.4763.0053-4.27638,3.4724-7.74023,7.75-7.74023,4.2786,0,7.7487,3.46796,7.75,7.74773-.0115,1.2385-.3981,2.3632-1.0297,3.4736l-6.6963,10.5704-6.6994-10.5752zm1.8218,7.5269c-2.7916.3161-5.209.8992-6.94398,1.6654-.86611.3826-1.58763.8218-2.10011,1.317-.51329.496-.8527,1.0856-.8527,1.7519,0,.8474.54437,1.5668,1.31587,2.1439.78089.584,1.87975,1.0903,3.1947,1.5075,2.63572.836,6.25152,1.3486,10.23942,1.3486,3.9886,0,7.6045-.5126,10.24-1.3487,1.3149-.4171,2.4136-.9234,3.1944-1.5075.7714-.577,1.3156-1.2964,1.3156-2.1438,0-.6612-.3344-1.247-.8411-1.7404-.5057-.4925-1.2177-.9296-2.0724-1.3107-1.7119-.7633-4.0979-1.3466-6.8556-1.668l-.1158.9932c2.6993.3146,4.9769.8804,6.5642,1.5881.7949.3545,1.3915.7335,1.7819,1.1138.3895.3793.5388.723.5388,1.024,0,.3856-.2491.8452-.9146,1.3431-.6562.4909-1.6381.9554-2.8978,1.3551-2.5136.7974-6.0227,1.3018-9.9376,1.3018-3.9141,0-7.4233-.5044-9.93705-1.3018-1.25981-.3997-2.24182-.8642-2.89812-1.3551-.66569-.4979-.91482-.9575-.91482-1.3431,0-.3034.15166-.6502.5476-1.0328.39676-.3834,1.00264-.7651,1.80922-1.1213,1.61039-.7113,3.91957-1.2771,6.65247-1.5866l-.1125-.9936zM20.7499,9.25V7.7495l-2.003.002v.5l-.0005-.5h.0002m2.0033,2.4985h2.5v-1h-2.5m0,1v2h2.5v1h-2.5v1.5h-2c-1.7624,0-3.2217-1.3045-3.4645-3h-3.2855v-1h3.2854c.2424-1.6949,1.6987-2.99825,3.4611-2.9985m.001,1,1.0025-.001V13.75h-1c-1.3799,0-2.5-1.1201-2.5-2.5,0-1.38018,1.1174-2.4985,2.497-2.4985h.0005z"/></svg>