<svg width="36" height="36" xmlns="http://www.w3.org/2000/svg"><path fill-rule="evenodd" clip-rule="evenodd" d="m26.75,8.24955v-1.2071l-.8536.85355-5.8821,5.8821L9.70904,15.2503l-.02221-.0001c-.04019-.0003-.1006-.0013-.17833-.0038-.15559-.0051-.37982-.0164-.64962-.0416-.54215-.0505-1.25616-.1555-1.96301-.3711-.7115-.217-1.38087-.5356-1.86582-.9917-.471-.443-.78005-1.0247-.78005-1.8282h-1c0,1.103.44095,1.9416,1.09495,2.5567.64005.6019,1.47068.9792,2.25918,1.2197.79315.2419,1.57914.356,2.16199.4103.18177.017.34497.0282.48388.0356v13.7635h1V16.1832l10.0707-1.4387.165-.0235.1179-.1179L25.75,9.45666v2.00004l4.2929,4.2929L27.75,18.0424,54,34.5848l-2,2v-6.5852h1V18.9567l1-1,1.5,1.5,3.7071-3.7071-.3535-.3536L26.75,11.0424V8.24955zm-11,12.99995-.0069.0001c-1.0659.0148-1.7927.711-2.2696,1.564-.4753.8501-.7604,1.9466-.9356,2.9954-.1767,1.0573-.2482,2.1077-.276,2.8901-.0139.3922-.0168.7192-.0163.9489.0002.1149.0014.2056.0024.2681l.0015.072.0005.0192.0001.0052.0001.0015v.0005c0,.0002,0,.0003.4998-.0149l.4998-.0152-.0001-.0001v-.0007l-.0001-.0037-.0004-.016-.0013-.0652c-.001-.0577-.0021-.1434-.0023-.2529-.0005-.2192.0023-.5335.0157-.9113.0269-.7574.0959-1.7611.2629-2.7607.1684-1.008.4302-1.9712.8221-2.6722.3896-.6968.8495-1.043,1.4074-1.0521H21.25v7.7501h1v-8.7501h-6.5zm9-8.2492c-.6901,0-1.25.5599-1.25,1.25s.5599,1.25,1.25,1.25,1.25-.5599,1.25-1.25-.5599-1.25-1.25-1.25zM24.5,14.2503c0-.1379.1121-.25.25-.25s.25.1121.25.25-.1121.25-.25.25-.25-.1121-.25-.25z"/></svg>