<svg width="36" height="36" xmlns="http://www.w3.org/2000/svg"><path fill-rule="evenodd" clip-rule="evenodd" d="m19.9367,8.23618.3996.35263,2.0271,1.78899,5.4925,2.1323.4449.1727-.1518.4524-.8306,2.4753,1.7759.5359.4618-.8759.2759-.5232.47.3591,2.0145,1.539.1846.1411.0112.2321.237,4.9035.026.5375-.538-.0136-1.739-.0439.3659,3.1586-.7071-.1847-5.0945-1.3306-2.1839,4.6316-.3613.766-.4962-.6864-2.8716-3.9719-2.3139,2.5048-.1264.1368-.1852.0208-4.7355.531-.2324.0261-.169-.1618-3.08358-2.9512-1.09219.6356-.06049.0352-.06783.0173L3.0415,26.6067l.22609-.8277,1.62-5.931.03135-.1148.07967-.0884,3.8478-4.2666-.93897-.3226-.89731-.3084.76159-.5658,3.65998-2.7195.2557-.19.2803.1514.9339.5049,5.2915-1.4424,1.4171-1.8284.3265-.42122zm.1374,1.45504-1.193,1.53928-.1024.1321-.1613.044-5.646,1.539-.1931.0526-.1761-.0951-.8298-.4486-2.64269,1.9637.75719.2601.7155.2459-.5067.5619-4.27479,4.7401-1.36257,4.9885,2.31056-.5873,1.35701-.7898.32531-.1894.27192.2603,3.18656,3.0497,4.3179-.4841,2.6021-2.8167.4145-.4487.3579.4951,2.7333,3.7806,1.9998-4.241.177-.3754.4016.1049,4.7889,1.2508-.264-2.2785-.0662-.5719.5756.0146,1.7764.0449-.1998-4.1339-1.3598-1.0388-.3782.7173-.1922.3646-.3945-.1191-2.664-.804-.4936-.149.164-.4887.8427-2.5116-5.1306-1.9918-.0831-.0322-.0668-.059-1.6945-1.49538z"/></svg>