<svg width="24" height="24" xmlns="http://www.w3.org/2000/svg"><path fill-rule="evenodd" clip-rule="evenodd" d="m2.6499,7.6493,3.5-3.5.35356-.35355L10.357,7.6493l-.7071.70711L7.00346,5.70996V16.5029c0,1.3808,1.11914,2.5,2.5,2.5,1.37994,0,2.50004-1.1193,2.50004-2.5V7.50185c0-1.93203,1.5667-3.5,3.5-3.5,1.9332,0,3.5,1.56797,3.5,3.5V18.2953l2.6459-2.646.7071.7071-3.5,3.5-.3535.3536-3.8536-3.8536.7071-.7071,2.647,2.6469V7.50185c0-1.37996-1.1193-2.5-2.5-2.5-1.3808,0-2.5,1.12004-2.5,2.5v9.00105c0,1.9332-1.568,3.5-3.50004,3.5-1.93315,0-3.5-1.5669-3.5-3.5V5.70996L3.35701,8.35641,2.6499,7.6493z"/></svg>