<svg width="36" height="36" xmlns="http://www.w3.org/2000/svg"><path fill-rule="evenodd" clip-rule="evenodd" d="m26.4439,4.8877-.5245,1.038c-.9744,1.92843-.5263,4.3205.9121,5.9338,1.413,1.5848,3.7924,2.4195,6.724,1.1802l1.1711-.4951-.5202,1.1602c-.8103,1.8071-2.3797,2.9702-3.9621,3.6025-1.1935.4768-2.4491.6731-3.4618.5882.0233.2259.027.4546.0113.6822-.0627.9073-.4361,1.8292-1.1586,2.5262-.728.7024-1.7785,1.1456-3.135,1.1456v-1c1.1282,0,1.9201-.363,2.4407-.8653.5263-.5077.8079-1.1889.8553-1.8754.0476-.69-.1431-1.3538-.5201-1.8264-.3666-.4596-.928-.7644-1.7059-.7333l-.6985.028.1992-.6701c.3789-1.2743.233-2.3387-.1934-3.1529-.4296-.8203-1.1616-1.4204-2.0103-1.7283-1.6857-.61147-3.7993-.0644-4.8096,2.2255l-.2655.602-.5089-.4171c-1.6263-1.333-4.282-.0689-3.9866,2.404l.0669.5593h-.5633c-.6158,0-1.11618.3029-1.47096.7988-.36092.5044-.55852,1.1979-.52779,1.9045.03057.703.28516,1.3843.78381,1.8867.49244.4961,1.26454.86,2.41494.86v1c-1.3749,0-2.41685-.4424-3.12471-1.1556-.70164-.7069-1.03355-1.6382-1.0731-2.5477-.0394-.9059.20926-1.8249.71355-2.5298.41624-.5818,1.01427-1.0239,1.75756-1.1673.0075-2.8021,2.9434-4.3592,5.1348-3.1339,1.3285-2.36764,3.8026-2.95395,5.7999-2.22946.0579.02101.1155.04313.1726.06635.4362-1.27455.9483-2.19784,1.5589-2.87303.7041-.77873,1.5089-1.19405,2.3901-1.45784l1.1141-.33352zm3.4294,11.491c-1.2625.5044-2.5208.6261-3.3499.4758-.1179-.2857-.273-.5543-.4656-.7957-.4479-.5615-1.0857-.9577-1.878-1.0755.2458-1.2537.065-2.3739-.4164-3.2931-.3591-.6857-.8782-1.2457-1.4883-1.66.4207-1.2771.8925-2.11229,1.4063-2.68045.2829-.31292.5861-.55316.9155-.74334-.5483,2.07298.0747,4.33319,1.4882,5.91859,1.4697,1.6484,3.7866,2.5674,6.53,1.8832-.7202.9065-1.7074,1.5572-2.7418,1.9705zM17.25,19.7498h-.2071l-.1465.1464-4.5,4.5-.8535.8536h3.9572l-4.3447,5.7938,3.169-2.5838,4.995-4.0725,1.0886-.8875h-3.4509l2.8964-2.8965.8536-.8535H17.25zm-.35,5.2999.4124-.5499h.2866l-.7374.6012.0384-.0513zm-2.9429-.7999h.8358l.6035-.6036,2.8965-2.8964h-.8358l-3.5,3.5z"/></svg>