<svg width="24" height="24" xmlns="http://www.w3.org/2000/svg"><path fill-rule="evenodd" clip-rule="evenodd" d="m1.85645,8.36769C4.40609,5.68435,8.00212,4.0001,11.9999,4.0001c3.9968,0,7.5929,1.68426,10.1425,4.36759l-.725.68882c-2.3703-2.49467-5.7083-4.05641-9.4175-4.05641-3.7102,0-7.04816,1.56175-9.41852,4.05641l-.72493-.68882zM11.9998,16.9997c-.5527,0-1,.4479-1,1s.4473,1,1,1c.5526,0,1-.4479,1-1s-.4474-1-1-1zm-2.00004,1c0-1.1039.89464-2,2.00004-2,1.1053,0,2,.8961,2,2s-.8947,2-2,2c-1.1054,0-2.00004-.8961-2.00004-2zM12,7.0001c-3.14075,0-5.96684,1.32321-7.96954,3.4317l.72505.6886C6.57881,9.20089,9.14673,8.0001,12,8.0001c2.8532,0,5.4212,1.20079,7.2445,3.1203l.725-.6886C17.9668,8.32331,15.1407,7.0001,12,7.0001zm-5.79134,5.5003c1.45572-1.5336,3.51185-2.4968,5.79664-2.4968,2.2825,0,4.3355.96,5.7913,2.4904l-.7246.6892c-1.2762-1.3416-3.0712-2.1796-5.0667-2.1796-1.9972,0-3.7951.8408-5.07138,2.1852l-.72526-.6884zM11.9997,12.9999c-1.4304,0-2.71004.6075-3.61852,1.5636l.72494.6888c.73152-.7699,1.75398-1.2524,2.89358-1.2524,1.1388,0,2.163.4827,2.8933,1.2522l.7253-.6884c-.9077-.9565-2.1895-1.5638-3.6186-1.5638z"/></svg>