<svg width="24" height="24" xmlns="http://www.w3.org/2000/svg"><path fill-rule="evenodd" clip-rule="evenodd" d="m12.9799,4.9997h-2v-1h2v1zM6.76303,8.73182C7.94059,7.11302,9.70747,5.9997,11.9999,5.9997c2.2926,0,4.057,1.11351,5.2332,2.73234,1.1676,1.60696,1.7615,3.71376,1.7668,5.76636l.0012.5013H4.99987v-.5c0-2.0536.59413-4.1608,1.76316-5.76788zm-.75029,5.26788H17.9858c-.0917-1.7092-.628-3.3949-1.5617-4.67984-1.0162-1.39867-2.4968-2.32016-4.4242-2.32016-1.9276,0-3.41075.92168-4.42819,2.32038-.93484,1.28512-1.47109,2.97082-1.55897,4.67962zm-.65292,2H4.9983l-.99,3h15.9863l-.8907-2.6588-.1143-.3412H5.35982zm.03152,2,.33-1H18.27l.335,1H5.39134z"/></svg>