<svg width="36" height="36" xmlns="http://www.w3.org/2000/svg"><path fill-rule="evenodd" clip-rule="evenodd" d="m8.25,6.25h-.5v6H6v1h1.75v5H6v1h1.75v5H6v1h1.75v4.5h20.5V6.25h-20zm.5,19v3.5h18.5V7.25H8.75v5h1.75v1H8.75v5h1.75v1H8.75v5h1.75v1H8.75zM18,11.7504c-.8745,0-1.75.9508-1.75,2.5001,0,.7465.217,1.3879.5471,1.8304.3277.4394.752.6696,1.2029.6696.8772,0,1.75-.9393,1.75-2.4851,0-.7475-.2172-1.3933-.548-1.8398-.3287-.4435-.7531-.6752-1.202-.6752zm-2.75,2.5001c0-1.8108,1.0715-3.5001,2.75-3.5001.8276,0,1.5282.4359,2.0054,1.0799.475.641.7446,1.5027.7446,2.4351,0,.6162-.1239,1.2158-.3532,1.739,2.0212,1.2827,3.3539,4.0798,3.3539,7.2462v.5h-11.5v-.5c0-3.1675,1.3314-5.9639,3.3538-7.2463-.2297-.5197-.3545-1.1198-.3545-1.7538zm.885,2.6019c-1.5523.9906-2.7411,3.1859-2.8722,5.8982h9.4759c-.1312-2.7085-1.3188-4.9031-2.8682-5.8953-.469.5487-1.1074.8952-1.8705.8952-.7486,0-1.3946-.3541-1.865-.8981z"/></svg>