<svg width="24" height="24" xmlns="http://www.w3.org/2000/svg"><path fill-rule="evenodd" clip-rule="evenodd" d="m13.876,5.35288-.3996-.35264-.3264.42122-.9106,1.17487-3.40958.92939-.56389-.30481-.28025-.15149-.25571.19001-2.44,1.813-.76158.56588.8973.30832.38747.13317-2.39629,2.6571-.07968.0884-.03135.1147-1.08,3.954-.22608.8278.8316-.2114,2.14-.544.06783-.0173.06049-.0352.6197-.3607,1.96508,1.8808.16898.1617.23245-.026,3.15701-.354.1851-.0208.1264-.1368,1.4045-1.5203,1.7951,2.4829.4962.6864.3612-.7661,1.397-2.9626,3.2624.8521.7071.1847-.084-.726-.1658-1.431.9674.0244.5381.0136-.026-.5376-.158-3.269-.0112-.2321-.1847-.1411-1.343-1.02596-.47-.35906-.2758.5232-.2438.46242-.8879-.268.499-1.48719.1518-.45244-.4449-.17271-3.6339-1.41075L13.876,5.35288zM6.85365,9.3799l-.20569-.07068,1.42271-1.05711.45975.24851.1761.09519.19315-.05265,3.76403-1.026.1613-.04396.1024-.13214.6865-.88578.9964.87937.0668.05897.0831.03225,3.2721,1.27029-.5112,1.52354-.1639.4888.4935.1489,1.776.536.3946.1191.1922-.3646.1601-.3038.6884.5259.1208,2.4993-1.005-.0254-.5755-.0145.0662.5719.1479,1.277-2.9569-.7723-.4015-.1049-.1771.3754-1.2127,2.572-1.6568-2.2917-.3579-.495-.4146.4487-1.6926,1.8321-2.73939.3072-2.06802-1.9793-.27192-.2602-.3253.1893-.88451.5148-1.24057.3154.82257-3.0115,2.82332-3.1307.50671-.56184-.71554-.24586zM9.20988,13.75c.08965,0,.17655.0118.25922.0339l3.7768-3.7768c-.0235-.08507-.036-.17463-.036-.26713,0-.55228.4477-1,1-1s1,.44772,1,1c0,.55233-.4477,1.00003-1,1.00003-.0867,0-.1707-.011-.2509-.0318l-3.7829,3.783c.022.0825.0338.1693.0338.2588,0,.5523-.44773,1-1.00002,1-.55228,0-1-.4477-1-1s.44772-1,1-1z"/></svg>