<svg width="48" height="48" xmlns="http://www.w3.org/2000/svg"><path fill-rule="evenodd" clip-rule="evenodd" d="m30.3737,13.5627c2.2212,1.9252,3.6264,4.7672,3.6264,7.9374v2c0,1.8801-.4942,3.6449-1.3598,5.1714,3.4347.8532,7.0193-1.0099,8.2529-4.3979l1.3689-3.7589c0-.0001.0001-.0001.0001-.0001,1.0574-2.9054.083-6.1609-2.3969-8.0079-2.9702-2.212-7.1182-1.7157-9.4916,1.056zm.8048,17.099c-.6335.6789-1.3559,1.2737-2.1487,1.7658,1.2096,1.5178,2.85,2.6197,4.6915,3.1721-1.2732-1.3842-2.1544-3.0894-2.5428-4.9379zm-3.7446,2.5765c-1.215.4913-2.5428.7619-3.9338.7619-1.4248,0-2.7834-.2838-4.0222-.7979.973,2.9611,2.4347,5.4351,4.0966,7.2155,1.8679,2.001,3.9438,3.0823,5.8351,3.0823h2.591v-2h-.931c-.5264,0-1.1215-.3141-1.6456-.7565-.5446-.4598-1.0883-1.1204-1.5099-1.9457-.7264-1.4218-1.0917-3.3353-.4802-5.5596zm-9.501-.8338c-.7981-.5-1.5241-1.1044-2.1591-1.7939-.3821,1.8676-1.2668,3.5921-2.5516,4.9894,1.8509-.5553,3.4987-1.6666,4.7107-3.1955zm-3.5733-3.7331c-.8654-1.5264-1.3595-3.2911-1.3595-5.1712v-2c0-3.1704,1.405-6.0125,3.6263-7.9377-2.3726-2.7714-6.5214-3.2677-9.49154-1.0557M17.4129,12.9435c-2.7071-3.19577-7.46929-3.77544-10.87536-1.2388h-.00002c-2.83411,2.1109-3.94773,5.8314-2.73918,9.152l1.36799,3.759.00007.0002c1.44949,3.978,5.7339,6.1168,9.7544,4.9394.0023.0032.0045.0064.0068.0096-.2874,2.5679-1.6128,4.9105-3.6728,6.4807l-1.42339,1.085,1.77959-.1901c2.6757-.2859,5.1243-1.5875,6.8565-3.6125,1.0121,3.1644,2.5684,5.8357,4.376,7.7721C24.82,43.2174,27.1419,44.5,29.4096,44.5h1.7246c.1727.2987.4954.5.8664.5.5521,0,1-.4479,1-1v-3c0-.5522-.4479-1-1-1-.371,0-.6937.2013-.8664.5h-.0646c-.1731,0-.5406-.1324-1.0005-.5206-.4393-.3709-.901-.9251-1.2645-1.6366-.6371-1.2471-.9717-2.9749-.3488-5.0392,1.7331,2.0405,4.1914,3.349,6.877,3.6369l1.7803.1909-1.4238-1.0856c-2.0412-1.5563-3.3629-3.8693-3.6673-6.4105.0191-.0266.0381-.0532.057-.0799,4.0211,1.1771,8.3053-.9616,9.7538-4.9396l1.369-3.759v-.0001c1.2086-3.3206.095-7.0411-2.7391-9.152h-.0001c-3.4062-2.53676-8.1676-1.95688-10.8754,1.2391-1.7171-1.2239-3.8182-1.9437-6.0871-1.9437-2.2692,0-4.3702.7197-6.0872,1.9434zm-3.0533,15.7278c-3.4339.8536-7.0189-1.0094-8.25356-4.3976-.00002-.0001-.00004-.0001-.00007-.0002l-1.36793-3.7588c-1.05745-2.9054-.08308-6.1609,2.39679-8.008m16.36527-.5066c-5.2469,0-9.5,4.2531-9.5,9.5v2c0,5.2468,4.2531,9.5,9.5,9.5,5.2459,0,9.5-4.2532,9.5-9.5v-2c0-5.2468-4.2541-9.5-9.5-9.5zm-5.5,11c-.5527,0-1,.4479-1,1,0,.5528.4471,1,1,1,.5521,0,1-.4474,1-1,0-.5519-.4482-1-1-1zm-2,1c0-1.1039.8946-2,2-2,1.1041,0,2,.8958,2,2,0,1.1053-.8961,2-2,2-1.1052,0-2-.8949-2-2zm13.001-1c-.5527,0-1,.4479-1,1,0,.5528.4471,1,1,1,.5521,0,1-.4474,1-1,0-.5519-.4482-1-1-1zm-2,1c0-1.1039.8946-2,2-2,1.1041,0,2,.8958,2,2,0,1.1053-.8961,2-2,2-1.1052,0-2-.8949-2-2z"/></svg>