<svg width="48" height="48" xmlns="http://www.w3.org/2000/svg"><path fill-rule="evenodd" clip-rule="evenodd" d="m19,4h-.2071l-.1465.14645-3.5,3.5L15,7.79289V33.2071l.1464.1465,3.5,3.5.1465.1464H22v5.994h1V37h2v5.994h1V37h3.2071l.1465-.1464,3.5-3.5L33,33.2071V7.79289l-.1464-.14644-3.5-3.5L29.2071,4H19zm-3,4.20711L19.2071,5h9.5858L32,8.20711V32.7929L28.7929,36h-9.5858L16,32.7929V8.20711zM20,6h-.2071l-.1465.14645-2.5,2.5L17,8.79289V32.2071l.1464.1465,2.5,2.5.1465.1464h8.4142l.1465-.1464,2.5-2.5L31,32.2071V8.79289l-.1464-.14644-2.5-2.5L28.2071,6H20zm-2,3.20711L20.2071,7h7.5858L30,9.20711V31.7929L27.7929,34h-7.5858L18,31.7929V9.20711zM24,26c-1.1049,0-2,.8951-2,2s.8951,2,2,2,2-.8951,2-2-.8951-2-2-2zm-3,2c0-1.6571,1.3429-3,3-3s3,1.3429,3,3-1.3429,3-3,3-3-1.3429-3-3zm3-11c-1.6571,0-3,1.3429-3,3s1.3429,3,3,3,3-1.3429,3-3-1.3429-3-3-3zm0-7c-1.1049,0-2,.8951-2,2s.8951,2,2,2,2-.8951,2-2-.8951-2-2-2zm-3,2c0-1.6571,1.3429-3,3-3s3,1.3429,3,3-1.3429,3-3,3-3-1.3429-3-3zm14,8h2v-1h-2v1zm-23.6464-6.3536,2,2-.7072.7072-2-2,.7072-.7072zm24,2.7072,2-2-.7072-.7072-2,2,.7072.7072zM11,19h2v1h-2v-1zm1.6464,3.6464-2,2,.7072.7072,2-2-.7072-.7072zm24,2.7072-2-2,.7072-.7072,2,2-.7072.7072zM10,19H9v1h1v-1zm29,1h-1v-1h1v1z"/></svg>