<svg width="24" height="24" xmlns="http://www.w3.org/2000/svg"><path fill-rule="evenodd" clip-rule="evenodd" d="m2,3.99976h20v5h-.5c-1.4239,0-2.5,1.07614-2.5,2.50004,0,1.4238,1.0761,2.5,2.5,2.5h.5v5H2V3.99976zm1,1V17.9998h13v-.4643h1v.4643h4v-3.0333c-1.7274-.2327-3-1.6609-3-3.4667,0-1.80593,1.2726-3.23411,3-3.4668V4.99976h-4v.46428h-1v-.46428H3zm3.99707,1.99755c-.55207,0-1,.44736-1,1,0,.55265.44793,1,1,1,.55286,0,1-.44714,1-1,0-.55285-.44714-1-1-1zm-2,1c0-1.10536.89608-2,2-2,1.10514,0,2,.89486,2,2,0,1.10515-.89486,2-2,2-1.10392,0-2-.89464-2-2zM10,14.9998c0-.5521.4474-1,1-1,.5519,0,1,.4481,1,1,0,.5526-.4479,1-1,1-.5529,0-1-.4472-1-1zm1-2c-1.10536,0-2,.896-2,2,0,1.1051.89486,2,2,2,1.1039,0,2-.8947,2-2,0-1.1042-.8959-2-2-2zm2.8536-5.64649L4.85355,16.3533l-.7071-.7071,8.99995-9,.7072.70711zM16,6.39261v.92857h1v-.92857h-1zm0,1.85715v.92857h1v-.92857h-1zm0,1.85714v.9286h1v-.9286h-1zm0,1.8571v.9286h1v-.9286h-1zm0,1.8572v.9286h1v-.9286h-1zM16,15.6783v.9286h1v-.9286h-1z"/></svg>