<svg width="30" height="16" xmlns="http://www.w3.org/2000/svg"><path fill-rule="evenodd" clip-rule="evenodd" d="m8.2418,13.0396c-2.021,0-2.941-1.62-2.941-3.44099,0-2.82,1.681-6.601,4.941-6.601,2.02,0,2.981,1.56,2.981,3.421,0,2.781-1.78,6.62099-4.981,6.62099zm5.561-.14c1.501-1.68,2.341-3.90099,2.341-6.18099,0-3.721-2.041-5.921003-5.822-5.921003-2.28,0-4.221.860003-5.741,2.600003-1.42,1.661-2.2,3.821-2.2,6.042,0,3.31999,2.06,5.80099,5.501,5.80099,2.34,0,4.461-.72,5.921-2.341zm8.6996-6.22088h-1.101l.74-3.441h.981c1.06,0,2.341.06,2.341,1.4,0,1.641-1.541,2.041-2.961,2.041zm-1.421,6.12098h-.96l.841-4.03998h.899c1.501,0,2.861.219,2.861,1.67998,0,2.16-1.921,2.36-3.641,2.36zm2.961-11.76198h-4.141l-2.921,13.96198h3.982c2.08,0,6.56-.32,6.56-4.32,0-1.50098-.68-2.70098-2.24-2.94098v-.04c1.62-.26,2.98-1.62,2.98-3.32,0-2.541-2.04-3.341-4.22-3.341z"/></svg>