<svg width="21" height="16" xmlns="http://www.w3.org/2000/svg"><path fill-rule="evenodd" clip-rule="evenodd" d="m12.0347,7.44928c-.3037-1.72469-1.9457-2.87629-3.66785-2.57222-1.24671.22019-2.19307,1.1432-2.50546,2.29035H1v1.66507h4.8621C6.28572,10.3985,7.84016,11.41,9.46648,11.1228c1.72202-.3041,2.87182-1.94882,2.56822-3.67352zM8.64172,6.43851c.86102-.15208,1.68218.42372,1.83388,1.28606.1519.86243-.423,1.68474-1.28407,1.83682-.86101.15207-1.68213-.42373-1.83389-1.28615-.15184-.86235.42306-1.68466,1.28408-1.83673zm9.11918.67887H12.5v1.66507h5.2609v1.41005L20,7.94992,17.7609,5.7073v1.41008z"/></svg>