<svg width="36" height="36" xmlns="http://www.w3.org/2000/svg"><path fill-rule="evenodd" clip-rule="evenodd" d="m18.49,4.25C10.59,4.24,4.26,10.4,4.25,18l-1,0c.02-8.18,6.82-14.76,15.24-14.75,5.51.01,10.56,2.81,13.26,7.4V6h1v7.25H25.5v-1h5.96c-.02-.04-.04-.08-.06-.12-2.33-4.85-7.35-7.87-12.91-7.88zM31.75,18c-.03,7.62-6.31,13.78-14.19,13.75-5.5-.02-10.63-3.18-12.97-7.99l0-.01H10.5v-1H3.25v7.25h1v-4.77c2.71,4.58,7.84,7.5,13.31,7.52,8.41.03,15.16-6.56,15.19-14.75l-1,0zm-18.04.58v.07h-1.1l-.54,1.25h1.75c.59,3.77,2.4,5.65,5.45,5.65,1.29,0,2.44-.25,3.44-.75.07-.03.26-.14.57-.31v-2.01c-1.1.59-1.87.97-2.32,1.13-.45.16-.97.24-1.55.24-.7,0-1.31-.16-1.81-.48-.49-.31-.9-.82-1.25-1.53-.29-.6-.49-1.25-.62-1.94h4.8l.56-1.25h-5.51l0,0c-.01-.19-.01-.34-.01-.43,0-.19.01-.47.02-.84h6.05l.56-1.25h-6.44c.06-.38.17-.8.32-1.25.6-1.83,1.68-2.74,3.25-2.74.85,0,1.69.23,2.51.7.34.2.81.5,1.43.9l.73-1.64c-1.39-1.07-2.93-1.61-4.64-1.61-2.41,0-4.07,1.24-4.98,3.73-.22.59-.39,1.23-.5,1.91h-1.27l-.54,1.25h1.67l-.01.07c-.02.38-.02.62-.02.72v.41z"/></svg>