<svg width="36" height="36" xmlns="http://www.w3.org/2000/svg"><path fill-rule="evenodd" clip-rule="evenodd" d="m18,4.75c-1.52,0-2.75,1.23-2.75,2.75v.25H10.5c-1.52,0-2.75,1.23-2.75,2.75v9h1v-4.75H16.75v1.35c0,.91.74,1.65,1.65,1.65h3.7c.91,0,1.65-.74,1.65-1.65V14.75h8v7.75c0,.97-.78,1.75-1.75,1.75h-1.5v1H30c1.52,0,2.75-1.23,2.75-2.75v-12c0-1.52-1.23-2.75-2.75-2.75h-4.75V7.5c0-1.52-1.23-2.75-2.75-2.75H18zm6.25,3V7.5c0-.97-.78-1.75-1.75-1.75H18c-.97,0-1.75.78-1.75,1.75v.25h8zm-13.75,1c-.97,0-1.75.78-1.75,1.75v3.25H16.75v-1.35c0-.91.74-1.65,1.65-1.65h3.7c.91,0,1.65.74,1.65,1.65V13.75h8V10.5c0-.97-.78-1.75-1.75-1.75H10.5zm7.9,3c-.36,0-.65.29-.65.65V13.75h5v-1.35c0-.36-.29-.65-.65-.65h-3.7zm4.35,4.35V14.75h-5v1.35c0,.36.29.65.65.65h3.7c.36,0,.65-.29.65-.65zm-10.49,8.11-5.77-4.03c-.86-.68-2.11-.54-2.8.32-.69.86-.55,2.11.3,2.8l9.02,7.95h5.9l1.51,1.5h13.08l-8.9-8.46,0,0c-1.76-1.68-4.04-2.96-6.42-3.04l-.01,0h-3.17c-.89,0-1.59.34-2.06.87-.47.52-.69,1.21-.69,1.88,0,.07,0,.14.01.21zm5.9-1.96h0c2.05.07,4.11,1.19,5.76,2.77l0,0,7.08,6.73H20.83l-1.51-1.5h-5.93l-8.76-7.71-.01-.01c-.43-.35-.5-.98-.15-1.41.35-.43.98-.5,1.41-.15l.01.01,7.12,4.97,0,0c.47.49,1.15.8,1.99.8h3v-1h-3c-.61,0-1.04-.23-1.31-.54-.28-.32-.44-.76-.44-1.21,0-.46.15-.9.44-1.21.28-.31.7-.54,1.31-.54h3.16z"/></svg>