<svg width="24" height="24" xmlns="http://www.w3.org/2000/svg"><path fill-rule="evenodd" clip-rule="evenodd" d="m12,6c.44,0,.84.17,1.17.48l.02.01c.04.04.08.07.11.11.42.45.7,1.12.7,1.9,0,.05,0,.09-.01.14,0,.02,0,.05-.01.07l-.01.12,0,0,0,0,0,0c-.13,1.31-.99,2.17-1.97,2.17-.37,0-.71-.12-1.01-.34,0-.05.01-.11.01-.16,0-.83-.24-1.6-.66-2.2-.01-.02-.02-.03-.04-.05-.08-.11-.16-.21-.25-.3.2-1.18,1.02-1.94,1.94-1.94zm0,6c.67,0,1.26-.23,1.73-.62,1.97,1.26,2.94,3.18,3.22,5.62h-3.38c-.53-1.79-1.53-3.29-3.18-4.38.17-.27.31-.58.41-.9.36.18.76.28,1.19.28zm2.81-2.28c-.1.32-.24.62-.41.9,1.65,1.09,2.65,2.6,3.18,4.38h3.38c-.28-2.45-1.24-4.36-3.22-5.62-.48.39-1.07.62-1.74.62-.43,0-.83-.1-1.19-.28zm3.6-1.1c.38-.6.6-1.34.6-2.12,0-1.85-1.21-3.5-3-3.5-1.38,0-2.41.99-2.81,2.28-.36-.18-.76-.28-1.19-.28-1.38,0-2.41.99-2.81,2.28-.36-.18-.76-.28-1.19-.28-1.79,0-3,1.65-3,3.5,0,.77.21,1.51.59,2.1-2.28,1.51-3.54,3.9-3.59,6.89l-.01.51h12.05l-.04-.54c-.04-.5-.1-.99-.19-1.46h4.22l-.04-.54c-.04-.5-.1-.99-.19-1.46h4.22l-.04-.54c-.2-2.88-1.24-5.28-3.6-6.84zm-4.34-2.68c.59.65.94,1.56.94,2.56,0,.05,0,.11-.01.16.3.22.64.34,1.01.34,1.06,0,2-1.01,2-2.5,0-1.49-.94-2.5-2-2.5-.92,0-1.74.76-1.94,1.95zM9.16,8.46c-.33-.29-.73-.46-1.16-.46-1.06,0-2,1.02-2,2.5,0,1.49.94,2.5,2,2.5.96,0,1.81-.83,1.97-2.11l.01-.07c0-.04.01-.07.01-.1l.01-.05c.01-.06.01-.11.01-.17,0-.65-.19-1.23-.5-1.66-.09-.13-.2-.25-.31-.35l-.03-.03zM3.02,19c.17-2.48,1.3-4.4,3.23-5.63.48.4,1.07.63,1.75.63.67,0,1.26-.23,1.73-.62,1.97,1.26,2.94,3.18,3.22,5.62H3.02z"/></svg>