<svg width="24" height="24" xmlns="http://www.w3.org/2000/svg"><path fill-rule="evenodd" clip-rule="evenodd" d="m7.62,3.06c.29-.83,1.23-1.29,2.07-.94C15.28,4.49,19.71,9.09,21.9,14.82c.32.85-.16,1.78-.99,2.05l-2.64.88c-.54.18-1.08.06-1.48-.26L3.51,21.94h0c-.92.31-1.75-.59-1.44-1.48l0-.01,0,0L6.92,7.24c-.32-.42-.44-.99-.24-1.53l.94-2.65zM7.76,7.84l-.7,1.9c.58.43.96,1.12.96,1.9,0,1.29-1.04,2.35-2.33,2.35-.06,0-.12,0-.18-.01l-2.5,6.81c-.04.13.08.23.18.2l0,0,1.8-.6c-.01-.09-.02-.18-.02-.28.01-1.16.95-2.11,2.11-2.11.78,0,1.46.44,1.82,1.08l7.29-2.44c-1.59-3.91-4.63-7.07-8.43-8.8zm.16,11.56c-.2-.25-.5-.4-.84-.4-.58,0-1.07.46-1.1,1.06l1.94-.65zm-2.05-6.43.82-2.23c.2.24.33.55.33.89,0,.69-.5,1.25-1.14,1.34zM9.3,3.04c-.27-.12-.62.03-.74.35l-.94,2.65c-.11.31.04.67.37.81,4.17,1.84,7.49,5.28,9.18,9.56.14.34.48.5.78.4l2.64-.88c.32-.1.48-.45.37-.75C18.88,9.7,14.64,5.31,9.3,3.04zM11,14c-.55,0-1,.45-1,1s.45,1,1,1,1-.45,1-1-.45-1-1-1zm-2,1c0-1.1.9-2,2-2,1.1,0,2,.9,2,2s-.9,2-2,2c-1.1,0-2-.9-2-2z"/></svg>