<svg width="36" height="36" xmlns="http://www.w3.org/2000/svg"><path fill-rule="evenodd" clip-rule="evenodd" d="m17.5,6v2.25h1V6h-1zm5.98,1.34-1.05,1.93.88.48,1.05-1.93-.88-.48zM18,11.75c-3.47,0-6.25,2.78-6.25,6.25,0,2.3,1.33,4.36,3.24,5.5h6.04c1.87-.99,3.22-3.18,3.22-5.5,0-3.47-2.78-6.25-6.25-6.25zM10.75,18c0,2.39,1.22,4.51,3,5.87v3.63l3,1.05V29.75h2.5v-1.2l3-1.05v-3.59c1.8-1.3,3-3.55,3-5.92,0-4.03-3.22-7.25-7.25-7.25s-7.25,3.22-7.25,7.25zm4,6.5v2.3l3,1.05v.9h.5v-.9l3-1.05V24.5h-6.5zm11.35-11.95,1.92-1.06.48.88-1.92,1.06-.48-.88zM27.75,18.5l2.25.01,0-1-2.25-.01,0,1zm.3,6.01-1.95-1.04.47-.88,1.95,1.04-.47.88zm-20.23-.02,1.97-1.17-.51-.86-1.97,1.17.51.86zM8.25,18.5H6v-1h2.25v1zm-.86-6.09,1.92,1.24.54-.84-1.92-1.24-.54.84zm5.3-2.65-1.06-1.93.88-.48,1.06,1.93-.88.48z"/></svg>