<svg width="36" height="36" xmlns="http://www.w3.org/2000/svg"><path fill-rule="evenodd" clip-rule="evenodd" d="m12.75,7.25c-1.47,0-2.5,1.03-2.5,2.5,0,1.47,1.03,2.5,2.5,2.5s2.5-1.03,2.5-2.5c0-1.47-1.03-2.5-2.5-2.5zm-9.75,3h6.28c.22,1.76,1.62,3,3.47,3s3.25-1.24,3.47-3H33v-1H16.22c-.22-1.76-1.62-3-3.47-3s-3.25,1.24-3.47,3H3v1zm20.25,6c-1.42,0-2.5,1.08-2.5,2.5,0,1.42,1.08,2.5,2.5,2.5s2.5-1.08,2.5-2.5c0-1.42-1.08-2.5-2.5-2.5zm-3.47,2c.23-1.72,1.66-3,3.47-3s3.23,1.28,3.47,3H33v1h-6.28c-.23,1.72-1.66,3-3.47,3s-3.23-1.28-3.47-3H3v-1h16.78zM10.25,27.75c0-1.44,1.05-2.5,2.5-2.5s2.5,1.06,2.5,2.5c0,1.45-1.05,2.5-2.5,2.5s-2.5-1.05-2.5-2.5zm2.5-3.5c-1.83,0-3.24,1.26-3.47,3H3v1h6.28c.23,1.74,1.64,3,3.47,3s3.24-1.26,3.47-3H33v-1H16.22c-.23-1.74-1.64-3-3.47-3z"/></svg>