<svg width="36" height="36" xmlns="http://www.w3.org/2000/svg"><path fill-rule="evenodd" clip-rule="evenodd" d="m10.25,10.5c0-1.8,1.45-3.25,3.25-3.25h9c1.8,0,3.25,1.45,3.25,3.25v6.25l-15.5,0V10.5zm0,7.25v6.5h15.5v-6.5l-15.5,0zM13.5,6.25c-2.35,0-4.25,1.9-4.25,4.25v3.25h-1.5v2.5h1.5v12h5.5v-3h6.5v3H26.75v-12h1.5v-2.5h-1.5v-3.25c0-2.35-1.9-4.25-4.25-4.25h-9zM22.25,27.25v-2H25.75v2h-3.5zm4.5-12.5v.5h.5v-.5h-.5zm-13,10.5h-3.5v2h3.5v-2zm-4.5-10v-.5h-.5v.5h.5zm4.25,4.5c-.69,0-1.25.56-1.25,1.25,0,.69.56,1.25,1.25,1.25s1.25-.56,1.25-1.25c0-.69-.56-1.25-1.25-1.25zM13.25,21c0-.14.11-.25.25-.25s.25.11.25.25c0,.14-.11.25-.25.25s-.25-.11-.25-.25zm8,0c0-.69.56-1.25,1.25-1.25s1.25.56,1.25,1.25c0,.69-.56,1.25-1.25,1.25s-1.25-.56-1.25-1.25zm1.25-.25c-.14,0-.25.11-.25.25,0,.14.11.25.25.25s.25-.11.25-.25c0-.14-.11-.25-.25-.25zm6.25,1.75h1v-3h-1v3zm4,1.5h-1v-6h1v6zm-26.5-4.5v3h1v-3h-1zm-3,4.5v-6h1v6h-1zM22.5,9.25l-9,0,0,1,9,0,0-1z"/></svg>