<svg width="48" height="48" xmlns="http://www.w3.org/2000/svg"><path fill-rule="evenodd" clip-rule="evenodd" d="m31.93,8.21c-.26.5-.36,1.16-.12,1.97l.2.67-.7-.03c-.47-.02-.79.16-1,.42-.22.28-.34.67-.31,1.09.03.42.2.83.52,1.13.31.3.8.53,1.51.53h7c.73,0,1.2-.23,1.49-.52.3-.3.45-.71.47-1.14.02-.43-.1-.86-.32-1.16-.21-.29-.5-.46-.84-.46h-.56l.07-.56c.18-1.49-1.42-2.24-2.39-1.44l-.51.41-.27-.6c-.63-1.43-1.95-1.77-3-1.39-.53.19-.98.56-1.25,1.07zm4.89-.59c-.95-1.53-2.62-1.91-3.98-1.42-.74.27-1.4.8-1.79,1.54-.32.6-.45,1.33-.32,2.13-.49.11-.9.38-1.19.74-.4.5-.57,1.15-.53,1.79.04.64.31,1.29.82,1.79.52.5,1.26.81,2.21.81h7c.95,0,1.69-.31,2.2-.82.5-.5.74-1.16.76-1.8.03-.64-.15-1.28-.51-1.78-.27-.38-.66-.68-1.14-.81-.09-1.85-2.01-2.88-3.52-2.17zM22.37,33.76c.79.12,1.43.51,1.88,1.07.04.05.09.11.13.17h10.34c2.2,0,3.73-.7,4.72-1.69,1-1,1.5-2.35,1.56-3.72.06-1.37-.32-2.73-1.04-3.73-.71-.99-1.75-1.63-3.03-1.63h-.56l.07-.56c.58-4.87-4.7-7.43-7.98-4.75l-.51.41-.27-.6c-1.95-4.39-6.06-5.47-9.34-4.28-1.65.59-3.07,1.76-3.91,3.35-.84,1.59-1.11,3.64-.38,6.06l.2.67-.7-.03c-2.03-.08-3.4.99-4.07,2.47-.57,1.28-.63,2.86-.1,4.28,1.04-1.16,2.8-1.55,4.24-.75,1.33-2.36,3.8-2.94,5.8-2.22,1.06.38,2,1.14,2.55,2.19.48.92.66,2.03.42,3.28zM8.73,32.29c-.92-1.82-.95-3.99-.17-5.72.75-1.66,2.23-2.91,4.35-3.05-.57-2.38-.26-4.49.63-6.18.96-1.83,2.6-3.15,4.46-3.83,3.58-1.29,8.05-.19,10.33,4.26,3.86-2.52,9.39.3,9.14,5.49,1.4.16,2.53.94,3.31,2.02.86,1.2,1.3,2.79,1.23,4.36-.07,1.58-.65,3.17-1.85,4.38-1.21,1.21-3,1.99-5.43,1.99h-9.87c.13.43.17.89.14,1.34-.06.9-.44,1.82-1.16,2.52-.73.7-1.78,1.14-3.14,1.14H10.2c-1.37,0-2.41-.44-3.12-1.15-.7-.7-1.03-1.63-1.07-2.54-.04-.9.21-1.82.71-2.52.42-.58,1.01-1.02,1.76-1.16,0-.49.09-.94.25-1.34zm10.34-3.06c-1.69-.61-3.8-.06-4.81,2.21l-.27.6-.51-.41c-1.63-1.33-4.28-.06-3.99,2.39l.07.56h-.56c-.62,0-1.12.3-1.47.79-.36.5-.56,1.19-.53,1.89.03.7.28,1.38.78,1.88.49.49,1.26.86,2.41.86h10.49c1.13,0,1.92-.36,2.45-.86.53-.51.81-1.18.85-1.86.05-.69-.14-1.35-.52-1.82-.37-.46-.93-.76-1.71-.73l-.7.03.2-.67c.38-1.27.23-2.33-.19-3.14-.43-.82-1.16-1.41-2.01-1.72z"/></svg>