<svg width="24" height="24" xmlns="http://www.w3.org/2000/svg"><path fill-rule="evenodd" clip-rule="evenodd" d="m17.95,2.99-.52,1.04c-.61,1.22-.34,2.74.58,3.77.89,1,2.4,1.54,4.29.74l1.17-.5-.52,1.16c-.56,1.26-1.65,2.06-2.73,2.49-.72.29-1.48.43-2.13.42,0,.09,0,.19,0,.28-.03.65-.29,1.31-.82,1.81-.53.5-1.3.81-2.27.81H8c-.95,0-1.69-.31-2.2-.82-.5-.51-.74-1.17-.76-1.81-.03-.64.15-1.29.51-1.79.27-.38.66-.69,1.14-.81.09-1.85,2.01-2.9,3.52-2.18.94-1.52,2.59-1.91,3.94-1.44.28-.78.62-1.37,1.02-1.81.49-.55,1.06-.84,1.67-1.02l1.11-.33zm1.9,7.78c-.76.3-1.51.39-2.02.33-.08-.18-.19-.34-.32-.5-.3-.36-.71-.63-1.21-.74.12-.8,0-1.53-.32-2.14-.23-.44-.56-.81-.94-1.09.27-.77.56-1.27.86-1.61.08-.08.16-.16.24-.23-.2,1.32.24,2.69,1.12,3.68.93,1.04,2.34,1.66,4.01,1.41-.41.39-.91.69-1.42.9zm-6-3.66c-1.05-.38-2.36-.05-3,1.39l-.27.6-.51-.42c-.97-.79-2.57-.05-2.39,1.45l.07.56h-.56c-.35,0-.63.17-.85.46-.22.3-.34.73-.32,1.17.02.43.18.85.47,1.15.29.29.76.52,1.49.52h7c.76,0,1.27-.23,1.58-.53.32-.3.49-.71.51-1.13.02-.42-.11-.82-.34-1.1-.23-.27-.56-.45-1.03-.43l-.7.03.2-.67c.24-.81.15-1.48-.12-1.98-.27-.51-.72-.88-1.25-1.07zM15.5,15.5c-.55,0-1,.45-1,1,0,.55.45,1,1,1s1-.45,1-1c0-.55-.45-1-1-1zm-5,1c0-.55.45-1,1-1s1,.45,1,1c0,.55-.45,1-1,1s-1-.45-1-1zm-3-1c-.55,0-1,.45-1,1,0,.55.45,1,1,1,.55,0,1-.45,1-1,0-.55-.45-1-1-1zm5,3c0-.55.45-1,1-1s1,.45,1,1c0,.55-.45,1-1,1s-1-.45-1-1zm-3-1c-.55,0-1,.45-1,1,0,.55.45,1,1,1,.55,0,1-.45,1-1,0-.55-.45-1-1-1z"/></svg>