<svg width="48" height="48" xmlns="http://www.w3.org/2000/svg"><path fill-rule="evenodd" clip-rule="evenodd" d="m35.81,36.52,9.84,9.84.71-.71L3.35,2.65l-.71.71,9.84,9.84C9.61,16.24,8.11,20.1,7.99,24H3v1h4.99c.12,4.05,1.74,8.06,4.84,11.17,3.1,3.1,7.12,4.72,11.17,4.84V46h1v-4.99c3.9-.12,7.76-1.61,10.81-4.49zm-.71-.71-4.25-4.25c-3.74,3.37-9.47,3.26-13.07-.34-3.6-3.6-3.72-9.34-.34-13.07l-4.25-4.25c-5.72,6.09-5.6,15.61.35,21.56,5.95,5.95,15.47,6.07,21.56.35zM18.15,18.85c-2.98,3.35-2.87,8.45.34,11.66,3.21,3.21,8.31,3.33,11.66.34L18.15,18.85zM24,8.01c-3.32.1-6.37,1.19-8.91,2.96l.57.82c2.51-1.75,5.54-2.78,8.84-2.78,8.58,0,15.5,6.91,15.5,15.5,0,3.3-1.04,6.33-2.79,8.84l.82.57c1.77-2.54,2.86-5.59,2.96-8.91h5.01v-1h-5.01C40.73,15.26,33.74,8.27,25,8.01V3h-1v5.01zm-3.75,8.02c1.28-.64,2.71-1.03,4.25-1.03,5.26,0,9.5,4.24,9.5,9.5,0,1.54-.38,2.98-1.03,4.25l-.89-.45c.58-1.15.92-2.43.92-3.8,0-4.71-3.79-8.5-8.5-8.5-1.37,0-2.65.34-3.8.92l-.45-.89z"/></svg>