<svg width="36" height="36" xmlns="http://www.w3.org/2000/svg"><path fill-rule="evenodd" clip-rule="evenodd" d="m3.25,11.25c0-1.93,1.57-3.5,3.5-3.5h22.5c1.93,0,3.5,1.57,3.5,3.5v15c0,1.93-1.57,3.5-3.5,3.5H6.75c-1.93,0-3.5-1.57-3.5-3.5v-15zm3.5-2.5c-1.38,0-2.5,1.12-2.5,2.5v15c0,1.38,1.12,2.5,2.5,2.5h22.5c1.38,0,2.5-1.12,2.5-2.5v-15c0-1.38-1.12-2.5-2.5-2.5H6.75zM12,18v-7.5h-1.35c-.11.5-.32.86-.64,1.07-.22.15-.46.25-.73.32-.27.07-.61.1-1.03.11v1.09h2.03V18H12zm9.29,2.08c-.49-.39-1.09-.58-1.82-.58-.82,0-1.49.24-2,.71-.53.48-.8,1.17-.8,2.06v.16h1.5c.03-1.09.44-1.63,1.25-1.63.33,0,.59.1.79.3.2.2.3.46.3.78,0,.28-.07.52-.23.73-.15.21-.41.44-.78.68-.77.51-1.28.86-1.54,1.05-.26.19-.48.39-.68.59-.25.26-.44.57-.58.93-.14.36-.21.74-.21,1.14h5.63v-1.3h-3.66c.18-.22.38-.42.59-.59.21-.17.56-.42,1.06-.74.52-.34.83-.55.96-.64.12-.09.25-.2.39-.35.43-.45.64-.98.64-1.6,0-.71-.27-1.28-.8-1.7zm-11.92,5.75,12-13.5-.75-.66-12,13.5.75.66z"/></svg>