<svg width="36" height="36" xmlns="http://www.w3.org/2000/svg"><path fill-rule="evenodd" clip-rule="evenodd" d="m7.25,11.25c0-3.87,3.13-7,7-7,3.87,0,7,3.13,7,7,0,3.87-3.13,7-7,7-3.87,0-7-3.13-7-7zM14.25,3.25c-4.42,0-8,3.58-8,8,0,4.42,3.58,8,8,8,4.42,0,8-3.58,8-8,0-4.42-3.58-8-8-8zm.5,13.25v-4.75h4.75v-1h-4.75V6h-1v4.75H9v1H13.75v4.75h1zm-2.5,7.7-5.76-4.02c-.86-.68-2.11-.54-2.8.32-.69.86-.55,2.11.3,2.8l9.02,7.95h5.9l1.51,1.5h12.58l-8.39-8.45,0,0-.01-.01c-1.76-1.69-4.04-3-6.43-3.04v0h-3.17c-.88,0-1.58.34-2.06.87-.47.52-.7,1.21-.7,1.88,0,.07,0,.14.01.21zM5.9,20.99l7.06,4.93c.48.51,1.17.83,2.04.83h3v-1h-3c-.63,0-1.06-.23-1.33-.54-.28-.32-.43-.76-.43-1.21,0-.46.16-.9.45-1.22.28-.31.7-.54,1.31-.54h3.16c2.04.04,4.1,1.17,5.75,2.76l6.69,6.74h-9.77l-1.51-1.5h-5.93l-8.75-7.71-.01-.01-.01-.01c-.43-.35-.5-.98-.15-1.41l0,0c.35-.43.97-.5,1.41-.15l.01.01.01.01z"/></svg>