<svg width="36" height="36" xmlns="http://www.w3.org/2000/svg"><path fill-rule="evenodd" clip-rule="evenodd" d="m11.75,6v7.25H4.5v-1h5.54L4.52,6.73l.71-.71L10.75,11.54V6h1zm5.5,8.75c-2.23,0-4,1.77-4,4,0,2.23,1.77,4,4,4s4-1.77,4-4c0-2.23-1.77-4-4-4zm-5,4c0-2.79,2.21-5,5-5s5,2.21,5,5c0,2.79-2.21,5-5,5s-5-2.21-5-5zm10.5-6V6h1v5.54l5.52-5.52.71.71-5.52,5.52H30v1h-7.25v-.5zM22.75,24.25H30v1h-5.54l5.52,5.52-.71.71L23.75,25.96v5.54h-1v-7.25zm-18.25,0h7.25v7.25h-1v-5.54l-5.52,5.52-.71-.71,5.52-5.52H4.5v-1z"/></svg>