<svg width="36" height="36" xmlns="http://www.w3.org/2000/svg"><path fill-rule="evenodd" clip-rule="evenodd" d="m18.14,6.79c-.61.58-1.03,1.41-1.12,2.49,2.57.3,4.48,2.81,4.48,5.72,0,.07,0,.14,0,.21,1.97-.29,3.5-2.26,3.5-4.71,0-2.66-1.8-4.75-4-4.75-1.17,0-2.16.38-2.86,1.04zm-.69-.72c-.82.78-1.33,1.88-1.43,3.21-2.59.28-4.52,2.8-4.52,5.72,0,1.45.48,2.8,1.27,3.83-4.2,1.99-6.52,7.09-6.52,11.92v.5H26.75v-.5c0-1.34-.18-2.7-.53-4h5.03v-.5c0-4.83-2.41-9.83-6.6-11.81.85-1.05,1.35-2.45,1.35-3.94,0-3.04-2.1-5.75-5-5.75-1.38,0-2.64.45-3.55,1.32zm6.45,9.13c-.71.58-1.56.96-2.52,1.04-.19.99-.6,1.9-1.18,2.63,2.73,1.29,4.68,3.89,5.71,6.88h4.33c-.16-4.53-2.54-8.95-6.34-10.55zm-7.4-4.95c-2.14,0-4,2.05-4,4.75,0,2.7,1.86,4.75,4,4.75s4-2.05,4-4.75c0-2.7-1.86-4.75-4-4.75zM13.5,19.6c-3.78,1.61-6.08,6.1-6.24,10.65h18.48c-.16-4.54-2.49-9.01-6.27-10.62-.82.7-1.84,1.12-2.97,1.12-1.14,0-2.18-.43-3-1.15z"/></svg>