<svg width="36" height="36" xmlns="http://www.w3.org/2000/svg"><path fill-rule="evenodd" clip-rule="evenodd" d="m11.25,4.25c-1.38,0-2.5,1.12-2.5,2.5v25h15.5v-25c0-1.38-1.12-2.5-2.5-2.5h-10.5zm-3.5,2.5v25H6v1h21v-1h-1.75v-9.5h.25c.67,0,1.08.17,1.32.41.25.25.41.66.43,1.35v1.5l0,.03c0,.38,0,1.02.22,1.57.12.3.31.59.62.81.31.22.7.33,1.16.33.46,0,.85-.11,1.16-.33.31-.22.5-.51.62-.8.23-.56.22-1.21.22-1.6l0-.02v-4.78c1.7-.24,3-1.7,3-3.46v-2h-1.5V12h-1v3.25h-2V12h-1v3.25h-1.5v2c0,1.76,1.3,3.22,3,3.46v4.79c0,.43,0,.89-.15,1.24-.07.16-.15.28-.27.36-.11.08-.29.15-.58.15-.29,0-.47-.07-.58-.15-.11-.08-.2-.2-.27-.37-.14-.36-.15-.82-.15-1.23V24h0l0-.01c-.02-.82-.23-1.53-.72-2.03-.5-.5-1.2-.71-2.03-.71h-.25V6.75c0-1.93-1.57-3.5-3.5-3.5h-10.5c-1.93,0-3.5,1.57-3.5,3.5zm3.5,1h-.5v7h11.5v-7h-11zm.5,6v-5h9.5v5h-9.5zm16.5,3.5v-1h5v1c0,1.38-1.12,2.5-2.5,2.5s-2.5-1.12-2.5-2.5z"/></svg>