<svg width="24" height="24" xmlns="http://www.w3.org/2000/svg"><path fill-rule="evenodd" clip-rule="evenodd" d="m9.5,2H9v1H3v19h18V3h-6V2H9.5zm.5,1.5V3h4v1h-4v-.5zM9,4H4v17h16V4h-5v1H9V4zm2.3,12.78h1.27v-1.22h-1.27v1.22zM9.74,9.17c-.26.4-.4.96-.43,1.69h1.01c.08-1.28.65-1.92,1.69-1.92.5,0,.89.16,1.14.49.21.27.32.59.32.98,0,.21-.04.42-.11.62-.09.24-.28.51-.57.8-.45.46-.74.78-.87.94-.13.17-.23.36-.3.57-.1.29-.15.73-.16,1.33h1c0-.34.02-.61.06-.82.04-.21.1-.39.18-.53.09-.14.24-.32.47-.54.5-.49.82-.83.96-1.01.3-.4.45-.88.45-1.44,0-.68-.22-1.22-.66-1.63-.47-.45-1.1-.67-1.89-.67-.49,0-.94.1-1.33.3-.4.2-.71.48-.95.85z"/></svg>