<svg width="24" height="24" xmlns="http://www.w3.org/2000/svg"><path fill-rule="evenodd" clip-rule="evenodd" d="m5.48,3h-.5v.5c0,3.04,2.06,5.63,4.22,6.93.47.29.81.87.81,1.57,0,.7-.35,1.28-.81,1.57-2.15,1.3-4.22,3.89-4.22,6.93v.5H19.02v-.5c0-3.04-2.06-5.63-4.22-6.93-.47-.29-.81-.87-.81-1.57,0-.7.35-1.28.81-1.57,2.15-1.3,4.22-3.89,4.22-6.93v-.5H5.48zm4.24,6.58c-1.82-1.1-3.5-3.19-3.71-5.58H17.99c-.21,2.39-1.89,4.48-3.72,5.58v0l0,0c-.78.48-1.29,1.4-1.29,2.42s.51,1.94,1.29,2.42l0,0c1.82,1.1,3.51,3.19,3.72,5.58H6.01c.21-2.39,1.89-4.48,3.71-5.58h0l0,0c.78-.48,1.29-1.4,1.29-2.42,0-1.02-.51-1.94-1.29-2.42l0,0,0,0zm-.26-2.58H8.19l.93.87c.35.33.73.61,1.11.85l0,0,.01,0c.54.33.99.93,1.3,1.62l.46,1.01.46-1.01c.31-.69.75-1.28,1.29-1.61.39-.24.78-.53,1.13-.86l.93-.87H9.46zm2.53,2.1c-.28-.42-.62-.8-1.03-1.1h2.07c-.41.29-.75.68-1.03,1.1z"/></svg>