<svg width="36" height="36" xmlns="http://www.w3.org/2000/svg"><path fill-rule="evenodd" clip-rule="evenodd" d="m20.2,6.3L28.25,10.65v2.85h-1v-2.25l-6.5-3.51V19.91l1.07,1.21-.75.66-.88-1-7.43,5.94L4.75,20.88V6.52l7.98,5.75,7.46-5.97zM19.75,19.86V7.94l-6.5,5.2V25.06l6.5-5.2zm-14-11.38,6.5,4.68v11.96l-6.5-4.75V8.48zM22.76,19.78c0-2.47,1.87-4.53,4.24-4.53,2.38,0,4.25,2.06,4.25,4.53v0c-.01.76-.23,1.43-.56,2.05l-.01.01-3.67,6.24-3.67-6.23-.01-.01h0c-.34-.61-.56-1.27-.58-2.05l0-.01v-.01zm1-.01c.02.6.18,1.1.45,1.58l2.8,4.76,2.8-4.75c.27-.52.43-1.03.44-1.58,0-1.99-1.49-3.53-3.25-3.53-1.75,0-3.24,1.54-3.24,3.52zm2.99-.27c0-.13.12-.25.25-.25s.25.12.25.25c0,.14-.12.25-.24.25-.14,0-.26-.12-.26-.25zm.25-1.25c-.69,0-1.25.56-1.25,1.25,0,.69.58,1.25,1.26,1.25.69,0,1.24-.57,1.24-1.25,0-.69-.56-1.25-1.25-1.25z"/></svg>