<svg width="36" height="36" xmlns="http://www.w3.org/2000/svg"><path fill-rule="evenodd" clip-rule="evenodd" d="m22.25,9.25h3v22h-14.5v-13.5h-1.5v-7h1.5v-1.5h10.5V4.5h1v4.75zm-11.5,2.5v5h-.5v-5h.5zm1-1.5v20h12.5v-20h-12.5zm10.75,11v1h-9v-1h9zm-9,3v1h9v-1h-9zm9,3v1h-9v-1h9zM16.25,15c0-.42.2-.86.54-1.21S17.58,13.25,18,13.25s.86.2,1.21.54S19.75,14.58,19.75,15c0,.42-.2.86-.54,1.21-.34.34-.78.54-1.2.54-.42,0-.86-.2-1.21-.55-.34-.34-.55-.78-.55-1.2zM18,12.25c-.73,0-1.42.34-1.91.84-.49.49-.84,1.18-.84,1.91,0,.73.35,1.42.84,1.91.49.49,1.18.84,1.91.84.73,0,1.42-.34,1.91-.84.49-.49.84-1.18.84-1.91,0-.73-.34-1.42-.84-1.91-.49-.49-1.18-.84-1.91-.84z"/></svg>