<svg width="24" height="24" xmlns="http://www.w3.org/2000/svg"><path fill-rule="evenodd" clip-rule="evenodd" d="m19,3.5c0-.28.22-.5.5-.5s.5.22.5.5-.22.5-.5.5-.5-.22-.5-.5zm.5-1.5c-.83,0-1.5.67-1.5,1.5,0,.32.1.62.27.86L14.92,9.06C14.78,9.02,14.64,9,14.5,9c-.45,0-.85.2-1.13.51l-2.37-.95C11,8.54,11,8.52,11,8.5,11,7.67,10.33,7,9.5,7,8.67,7,8,7.67,8,8.5c0,.17.03.34.08.49L5.29,11.23C5.06,11.08,4.79,11,4.5,11c-.83,0-1.5.67-1.5,1.5,0,.83.67,1.5,1.5,1.5S6,13.33,6,12.5c0-.17-.03-.34-.08-.49l2.79-2.23C8.94,9.92,9.21,10,9.5,10c.45,0,.85-.2,1.13-.51l2.37.95c0,.02,0,.04,0,.06,0,.83.67,1.5,1.5,1.5s1.5-.67,1.5-1.5c0-.32-.1-.62-.27-.86l3.36-4.7C19.22,4.98,19.36,5,19.5,5c.83,0,1.5-.67,1.5-1.5S20.33,2,19.5,2zM4,12.5c0-.28.22-.5.5-.5s.5.22.5.5c0,.28-.22.5-.5.5s-.5-.22-.5-.5zm4,.5h3V21h2v-6h3V21h2V9h3V22H3v-5h3V21h2v-8zM10,21v-7H9V21h1zm5,0v-5h-1V21h1zm5-11V21h-1V10h1zM5,18V21H4v-3h1zM9.5,8c-.28,0-.5.22-.5.5s.22.5.5.5.5-.22.5-.5S9.78,8,9.5,8zm4.5,2.5c0-.28.22-.5.5-.5s.5.22.5.5-.22.5-.5.5-.5-.22-.5-.5z"/></svg>