<svg width="36" height="36" xmlns="http://www.w3.org/2000/svg"><path fill-rule="evenodd" clip-rule="evenodd" d="m9.25,12.02c0-4.83,3.92-8.75,8.75-8.75,4.83,0,8.75,3.92,8.75,8.75v0c-.01,1.46-.47,2.76-1.17,3.97l-.01.01L18.02,27.93,10.47,16.01h0c-.71-1.18-1.16-2.45-1.22-3.97L9.25,12.03v-.01zm1.68,2.73c.12.25.25.49.4.74l6.7,10.58,6.7-10.57c.14-.25.27-.5.39-.76h-3.67l-1.13-2.24-2.41,6.43-2.25-9-1.81,4.82h-2.92zm-.39-1h2.61l2.69-7.18,2.25,9,2.09-5.57,1.88,3.73h3.43c.16-.55.26-1.12.26-1.72,0-4.28-3.47-7.75-7.75-7.75-4.28,0-7.74,3.46-7.75,7.74.03.62.12,1.19.29,1.74zM6.2,24.68c1.73-.77,4.15-1.35,6.94-1.67l.11.99c-2.73.31-5.04.88-6.65,1.59-.81.36-1.41.74-1.81,1.12-.4.38-.55.73-.55,1.03,0,.39.25.85.91,1.34.66.49,1.64.96,2.9,1.36,2.51.8,6.02,1.3,9.94,1.3,3.91,0,7.42-.5,9.94-1.3,1.26-.4,2.24-.86,2.9-1.36.67-.5.91-.96.91-1.34,0-.3-.15-.64-.54-1.02-.39-.38-.99-.76-1.78-1.11-1.59-.71-3.86-1.27-6.56-1.59l.12-.99c2.76.32,5.14.9,6.86,1.67.85.38,1.57.82,2.07,1.31.51.49.84,1.08.84,1.74,0,.85-.54,1.57-1.32,2.14-.78.58-1.88,1.09-3.19,1.51-2.64.84-6.25,1.35-10.24,1.35-3.99,0-7.6-.51-10.24-1.35-1.31-.42-2.41-.92-3.19-1.51C3.79,29.32,3.25,28.6,3.25,27.75c0-.67.34-1.26.85-1.75.51-.5,1.23-.93,2.1-1.32z"/></svg>