<svg width="48" height="48" xmlns="http://www.w3.org/2000/svg"><path fill-rule="evenodd" clip-rule="evenodd" d="m23.43,5.6c-.3-1.14-1.49-1.88-2.66-1.5C12.88,6.65,6.65,12.9,4.1,20.83c-.32.99.16,2,1.01,2.47-.29.27-.5.64-.56,1.08-.46,2.97-.26,6,.54,8.88.23.83.97,1.35,1.78,1.4.63,3.03,2.12,5.55,3.78,7.2.87.86,1.8,1.51,2.69,1.85.89.35,1.79.42,2.56.04.77-.38,1.31-1.12,1.65-2,.35-.88.54-1.95.59-3.09.1-2.08-.24-4.45-.93-6.43.69-.17,1.2-.71,1.4-1.36.25-.81.57-1.59.96-2.32.25-.46.29-.97.17-1.43l1.41.36c.81.21,1.65-.1,2.16-.73,1.05-1.28,2.21-2.47,3.48-3.52.64-.53.94-1.37.73-2.19l-.11-.42c.46.12.96.07,1.42-.18.72-.4,1.49-.73,2.29-.98.61-.2,1.11-.66,1.31-1.3,1.98.67,4.32.97,6.36.84,1.12-.07,2.17-.27,3.04-.64.86-.36,1.58-.91,1.95-1.69.36-.77.28-1.67-.06-2.56-.35-.89-.98-1.81-1.84-2.68-1.63-1.64-4.11-3.11-7.11-3.72-.01-.84-.54-1.64-1.41-1.88-2.87-.79-5.89-.95-8.83-.46-.4.07-.74.25-1,.51l-.08-.29zm15.28,12.4c-1.95.12-4.21-.18-6.07-.82l1.94-8.47c2.79.57,5.08,1.94,6.57,3.44.79.79,1.33,1.6,1.62,2.34.29.74.29,1.34.09,1.76-.23.48-.7.88-1.44,1.19-.73.31-1.66.5-2.71.56zM6.72,23.79l0,0,11.38,2.92c.58.17.86.83.57,1.38-.42.79-.76,1.62-1.03,2.5-.11.35-.37.61-.69.68l-9.75,2.36c-.51.12-1.02-.17-1.15-.64-.77-2.75-.95-5.63-.52-8.46.08-.52.63-.88,1.19-.74zm11.6,1.94,0,0L5.86,22.53c-.63-.16-1-.82-.81-1.4C7.5,13.51,13.5,7.5,21.08,5.05c.57-.18,1.22.18,1.38.81l.51,1.95.01.02,0,0L25.98,19.22h0l.01.03,0,0,.54,2.05c.11.42-.04.87-.4,1.17-1.33,1.09-2.53,2.33-3.62,3.66-.29.35-.73.5-1.14.39l-3.01-.77c-.02-.01-.04-.01-.05-.01zM11.34,41.14c-1.51-1.5-2.9-3.82-3.49-6.64L16.22,32.47c.67,1.87,1,4.16.91,6.14-.05,1.06-.23,2.02-.52,2.77-.3.75-.7,1.24-1.17,1.47-.42.21-1.01.21-1.75-.08-.73-.29-1.55-.84-2.35-1.63zm16.98-21.58c-.54.3-1.2.02-1.37-.58L23.94,7.56v0c-.14-.56.22-1.11.73-1.19,2.8-.46,5.67-.31,8.41.44.46.13.77.64.65,1.16l-2.26,9.83c-.07.33-.33.59-.67.7-.87.28-1.69.63-2.47,1.06zM30.19,9.41c-.77-.11-1.55-.16-2.33-.16v-1c1.01,0,2.03.09,3.02.26l.52.09-.37,1.59-.97-.22.13-.56zM8.61,30.06c-.16-1.07-.22-2.15-.17-3.22l-1-.04c-.05,1.32.04,2.65.27,3.96l.09.52,1.74-.42-.24-.97-.7.17zM20.31,7.54c-.86.34-2.26,1.01-3.7,1.89-1.44.88-2.95,2-4,3.26l.77.64c.95-1.14,2.35-2.19,3.75-3.04,1.39-.85,2.74-1.49,3.55-1.81l-.37-.93z"/></svg>