<svg width="36" height="36" xmlns="http://www.w3.org/2000/svg"><path fill-rule="evenodd" clip-rule="evenodd" d="m2.97,12.72C6.75,8.75,12.08,6.25,18,6.25c5.92,0,11.25,2.5,15.03,6.47l-.72.69c-3.6-3.79-8.67-6.16-14.31-6.16-5.64,0-10.71,2.37-14.31,6.16l-.72-.69zM18,25.25c-.97,0-1.75.78-1.75,1.75,0,.97.78,1.75,1.75,1.75s1.75-.78,1.75-1.75c0-.97-.78-1.75-1.75-1.75zm-2.75,1.75c0-1.52,1.23-2.75,2.75-2.75s2.75,1.23,2.75,2.75c0,1.52-1.23,2.75-2.75,2.75s-2.75-1.23-2.75-2.75zm2.75-16.25c-4.64,0-8.81,1.95-11.77,5.07l.73.69c2.78-2.93,6.7-4.76,11.05-4.76,4.35,0,8.27,1.83,11.05,4.76l.73-.69c-2.96-3.12-7.13-5.07-11.77-5.07zm-8.51,8.17c2.14-2.25,5.16-3.67,8.51-3.67,3.35,0,6.37,1.41,8.51,3.66l-.72.69c-1.96-2.06-4.72-3.35-7.78-3.35-3.07,0-5.83,1.29-7.79,3.36l-.73-.69zm8.51.83c-2.07,0-3.93.88-5.25,2.27l.72.69c1.14-1.2,2.74-1.96,4.52-1.96,1.78,0,3.38.76,4.52,1.96l.73-.69c-1.32-1.39-3.18-2.27-5.25-2.27z"/></svg>