<svg width="24" height="24" xmlns="http://www.w3.org/2000/svg"><path fill-rule="evenodd" clip-rule="evenodd" d="m5,2h3v5c1.11,0,2,.9,2,2v3H4v4h4v1H4v4h4v1H3V9c0-1.1.89-2,2-2V2zm4,7v2H4V9c0-.55.45-1,1-1h1V3h1v5h1c.55,0,1,.45,1,1zm3,8c0-.55.45-1,1-1s1,.45,1,1-.45,1-1,1-1-.45-1-1zm1-2c-1.11,0-2,.9-2,2s.89,2,2,2,2-.9,2-2-.89-2-2-2zm4.5,3c-.28,0-.5.22-.5.5s.22.5.5.5.5-.22.5-.5-.22-.5-.5-.5zm-1.5.5c0-.83.67-1.5,1.5-1.5s1.5.67,1.5,1.5-.67,1.5-1.5,1.5-1.5-.67-1.5-1.5zM9.5,13H9v9h13v-3.06l-.25-.14C21.3,18.53,21,18.05,21,17.5s.3-1.03.75-1.29L22,16.06V13h-4v1c0,.55-.45,1-1,1s-1-.45-1-1v-1H9.5zm.5,8v-7h5c0,1.1.89,2,2,2s2-.9,2-2h2v1.51c-.6.45-1,1.17-1,1.99s.4,1.54,1,1.99V21H10z"/></svg>