<svg width="48" height="48" xmlns="http://www.w3.org/2000/svg"><path fill-rule="evenodd" clip-rule="evenodd" d="m23.18,3.93c-4.75,0-8.66,3.63-8.66,8.17,0,.39.03.78.09,1.16C10.9,13.81,8,16.82,8,20.53c0,4.12,3.54,7.4,7.84,7.4H23v7.18l-1.51-1.44c.79-1.17.67-2.77-.37-3.8-.34-.34-.85-.54-1.34-.66-.5-.12-1.06-.19-1.57-.22-.51-.03-.99-.03-1.34-.02-.17,0-.32.01-.42.01-.05,0-.09,0-.12.01l-.03,0-.01,0,0,0h0c0,0,0,0,.04.5l-.04-.5-.45.03-.01.45.5.01c-.5-.01-.5-.01-.5-.01v0l0,0,0,.04c0,.03,0,.06,0,.11,0,.1,0,.23,0,.4.01.33.03.79.08,1.28.05.49.14,1.02.28,1.51.14.47.34.96.68,1.29,1.07,1.07,2.74,1.16,3.92.28L23,36.5V43h-9v1h19v-1h-9V27.93h9.79c3.4,0,6.21-2.6,6.21-5.87,0-1.83-.89-3.45-2.26-4.52.4-.71.63-1.52.63-2.38,0-2.85-2.44-5.1-5.39-5.1-.48,0-.95.07-1.38.18-.89-3.63-4.32-6.31-8.4-6.31zM20.75,32.97l-1.4-1.34-.69.72,1.4,1.34c-.77.48-1.8.39-2.47-.28-.15-.15-.3-.45-.43-.86-.12-.41-.2-.88-.25-1.34-.05-.45-.07-.88-.08-1.2l0-.04.06,0c.33-.01.78-.01,1.25.02.48.03.97.09,1.39.19.44.11.73.25.87.39.65.65.76,1.63.33,2.39zM24,26.93h9.79C36.7,26.93,39,24.73,39,22.07c0-1.63-.87-3.08-2.21-3.97l-.43-.28.29-.42c.45-.65.71-1.41.71-2.23,0-2.24-1.94-4.1-4.39-4.1-.56,0-1.09.11-1.59.29l-.56.2-.1-.59c-.58-3.4-3.7-6.04-7.53-6.04-4.26,0-7.66,3.24-7.66,7.17,0,.51.06,1,.17,1.48l.13.56-.57.05C11.72,14.48,9,17.22,9,20.53c0,3.51,3.03,6.4,6.84,6.4H23v-5.71l-5.29-3.82.59-.81L23,19.99V11h1v12.77l6.63-7.12.73.68L24,25.24v1.69z"/></svg>