<svg width="24" height="24" xmlns="http://www.w3.org/2000/svg"><path fill-rule="evenodd" clip-rule="evenodd" d="m11.5,2c-2.18,0-4.12.19-5.24.49l.26.97c.99-.27,2.83-.46,4.98-.46,1.64,0,3.11.11,4.16.29.4.07.72.14.96.21-.25.07-.57.15-.96.21-1.05.18-2.52.29-4.16.29-1.43,0-2.74-.09-3.75-.22l-.14.99c1.06.15,2.42.23,3.88.23,1.68,0,3.2-.11,4.32-.3.45-.08.85-.17,1.18-.27v5.07c0,.08-.07.29-.54.56-.44.25-1.1.49-1.94.66l.2.98c.12-.02.23-.05.34-.08l.52.6c.32-.28.59-.61.75-1,.23-.09.43-.19.62-.3.54-.31,1.04-.78,1.04-1.43v-6c0-.29-.18-.48-.31-.59-.14-.11-.31-.2-.48-.27-.35-.14-.83-.25-1.39-.35-1.12-.19-2.65-.3-4.32-.3zm5.57,1.31,0,0,0,0c0,0,0,0,0,0zM3.35,2.65l16,16-.71.71-1.58-1.58c-.25.67-.64,1.43-1.24,1.98-1.38,1.25-2.59,2.22-4.33,2.22-1.74,0-2.94-.95-4.33-2.22-.71-.65-1.12-1.59-1.36-2.33-.12-.37-.2-.71-.25-.95-.02-.12-.04-.22-.05-.29-.01-.04-.01-.06-.01-.08l0-.03,0,0,0,0c0,0,0,0,.5-.06l-.5.06,0-.01h0l-.5-4.55.99-.11.49,4.54h0l0,.02c0,.01.01.04.01.07.01.06.02.14.05.25.04.22.11.52.22.85.22.68.56,1.42,1.08,1.89l0,0C9.24,20.28,10.18,20.97,11.5,20.97c1.32,0,2.26-.69,3.66-1.96l0,0c.56-.51.91-1.33,1.12-2.03l-2.16-2.16c.08.12.13.27.13.42,0,.41-.34.75-.75.75s-.75-.34-.75-.75.34-.75.75-.75c.16,0,.3.05.42.13l-1.23-1.23c-.37.06-.77.1-1.19.1-1.2,0-2.31-.25-3.18-.67-.76-.37-1.39-.91-1.66-1.6-.39-.16-.73-.34-1-.56-.36-.28-.66-.68-.66-1.17V5.71L2.65,3.35l.71-.71zm5.04,9.07c.11.07.24.14.37.21.71.35,1.66.57,2.74.57.1,0,.19,0,.29-.01l-.49-.49c-1.05-.01-2.04-.11-2.9-.28zM6,6.71l4.25,4.25c-1.11-.08-2.08-.27-2.83-.52-.51-.17-.89-.36-1.13-.55-.25-.19-.28-.33-.28-.39V6.71zM9.96,17.56c.4.23.94.44,1.54.44s1.14-.21,1.54-.44c.2-.11.36-.22.47-.3.05-.04.09-.07.12-.1.01-.01.02-.02.03-.02l0,0c0,0,0,0,.34.37s.34.37.34.37l0,0,0,0,0,0-.02.02c-.01.01-.03.02-.05.04-.04.03-.09.08-.16.13-.14.11-.34.24-.58.38-.49.27-1.2.56-2.03.56s-1.54-.29-2.03-.56c-.25-.14-.45-.28-.58-.38-.07-.05-.12-.1-.16-.13-.02-.02-.03-.03-.05-.04l-.02-.02,0,0,0,0,0,0c0,0,0,0,.34-.37s.34-.37.34-.37l0,0c.01,0,.01.01.03.02.03.02.07.06.12.1.11.08.27.19.46.3zm7.78-3.68.26-2.38-.99-.11-.26,2.38.99.11zM12.88,9.46l1.02-.96H12l-1-1v-1.5h1v1.5h1.9l-1.6-1.5h1.2l2,2-2.06,2.06-.56-.6zM10.7,6l-.66.62-.54-.62H10.7zM9.5,14.5c-.41,0-.75.34-.75.75s.34.75.75.75.75-.34.75-.75-.34-.75-.75-.75z"/></svg>