<svg width="36" height="36" xmlns="http://www.w3.org/2000/svg"><path fill-rule="evenodd" clip-rule="evenodd" d="m3.25,4.56,14,4.67,14-4.67V28.11l-14,4.67-14-4.67V4.56zm1,1.39V27.39l12.5,4.17v-21.45L4.25,5.94zm13.5,4.17v21.45l12.5-4.17V5.94l-12.5,4.17zM14.84,13.97l-9-3,.32-.95,9,3-.32.95zM19.66,13.97l9-3-.32-.95-9,3,.32.95zm0,4.5,9-3-.32-.95-9,3,.32.95zm9,1.5-9,3-.32-.95,9-3,.32.95zm-9,7.5,9-3-.32-.95-9,3,.32.95zM5.84,15.47l9,3,.32-.95-9-3-.32.95zm9,7.5-9-3,.32-.95,9,3-.32.95zm-9,1.5,9,3,.32-.95-9-3-.32.95z"/></svg>