<svg width="36" height="36" xmlns="http://www.w3.org/2000/svg"><path fill-rule="evenodd" clip-rule="evenodd" d="m22.41,9.32v0l-.3,1.72,4.92.87.3-1.72v0c.24-1.36-.67-2.66-2.03-2.9-1.36-.24-2.66.67-2.9,2.03zm5.61,2.76.3-1.72c.34-1.9-.93-3.72-2.84-4.05-1.9-.34-3.72.94-4.06,2.84l-.3,1.72-4.39-.77L12.12,27.05l18.81,3.32,1.47-17.51-4.39-.77zm-1.16.81-.56,3.2.98.17.56-3.2,3.49.62-1.3,15.51L13.38,26.25l4.08-15.02,3.49.62-.56,3.2.98.17.56-3.2,4.92.87zM3,15.25h9v1H3v-1zm3,3h6v1H6v-1zm4.5,3h-3v1h3v-1z"/></svg>