<svg width="24" height="24" xmlns="http://www.w3.org/2000/svg"><path fill-rule="evenodd" clip-rule="evenodd" d="m7.78,3.1c.57-.06,1.14-.1,1.72-.1,2.88,0,5.56.79,7.87,2.16l.51-.86c-2.46-1.45-5.32-2.3-8.38-2.3-.62,0-1.23.04-1.83.11l.11.99zM4.07,5.06c1.68-.68,3.51-1.06,5.43-1.06,4.26,0,8.07,1.85,10.73,4.77l-.74.67c-2.47-2.72-6.02-4.44-9.98-4.44-1.79,0-3.49.36-5.05.99l-.37-.93zM9.5,7c-2.17,0-4.2.61-5.93,1.66l-.52-.86C4.93,6.67,7.14,6,9.5,6c4.64,0,8.68,2.53,10.83,6.28l-.87.5c-1.99-3.45-5.7-5.78-9.97-5.78zM3.64,13.82c1.38-1.72,3.49-2.82,5.86-2.82,4.12,0,7.47,3.33,7.5,7.44l1-.01c-.03-4.66-3.82-8.44-8.5-8.44-2.69,0-5.08,1.25-6.64,3.2l.78.62zm-.97-3.29C4.51,8.96,6.89,8,9.5,8c4.78,0,8.8,3.19,10.07,7.56l-.96.28C17.46,11.89,13.82,9,9.5,9c-2.36,0-4.51.86-6.17,2.29l-.65-.76zm3.33,7.92C6.03,16.54,7.59,15,9.5,15c1.93,0,3.5,1.57,3.5,3.5v2.7h1V18.5c0-2.49-2.01-4.5-4.5-4.5-2.46,0-4.46,1.98-4.49,4.44l1,.01zm-2.42-2.63c1.02-2.25,3.28-3.82,5.92-3.82,3.59,0,6.5,2.91,6.5,6.5v1.76h-1v-1.76c0-3.04-2.46-5.5-5.5-5.5-2.23,0-4.14,1.33-5.01,3.23l-.91-.41zM9.5,16C8.12,16,7,17.12,7,18.5v1.76h1V18.5c0-.83.67-1.5,1.5-1.5.83,0,1.5.67,1.5,1.5v3h1v-3c0-1.38-1.12-2.5-2.5-2.5zM9,21l0-3H10v3H9z"/></svg>