<svg width="36" height="36" xmlns="http://www.w3.org/2000/svg"><path fill-rule="evenodd" clip-rule="evenodd" d="m18.15,7.27c.03,0,.06,0,.1,0v11.78l10.2,5.89C26.41,28.13,22.83,30.25,18.75,30.25c-6.35,0-11.5-5.15-11.5-11.5,0-6.15,4.83-11.17,10.9-11.48l0,0zM30.25,18.75c0,1.92-.47,3.72-1.3,5.31L19.75,18.75l9.2-5.31c.83,1.59,1.3,3.4,1.3,5.31zm-1.8-6.18c-1.96-3.07-5.33-5.15-9.2-5.31V17.88l9.2-5.31zM18.1,6.27c.22-.01.43-.02.65-.02,6.9,0,12.5,5.6,12.5,12.5s-5.6,12.5-12.5,12.5-12.5-5.6-12.5-12.5c0-6.69,5.25-12.14,11.85-12.48z"/></svg>