<svg width="36" height="36" xmlns="http://www.w3.org/2000/svg"><path fill-rule="evenodd" clip-rule="evenodd" d="m18,9.25c-3.35,0-6.33,1.69-8.61,3.56-2.28,1.87-3.9,3.97-4.55,4.9l-.2.28.19.29c.58.86,2.2,2.96,4.5,4.85,2.29,1.89,5.31,3.62,8.67,3.62,3.35,0,6.33-1.69,8.61-3.56,2.28-1.87,3.9-3.97,4.55-4.9l.2-.28-.19-.29c-.58-.86-2.2-2.96-4.5-4.85-2.29-1.89-5.31-3.62-8.67-3.62zM9.97,22.36c-1.98-1.63-3.44-3.43-4.11-4.35.72-.99,2.19-2.8,4.17-4.42,2.19-1.8,4.95-3.33,7.97-3.33,3.02,0,5.82,1.57,8.03,3.39,1.98,1.63,3.44,3.43,4.11,4.35-.72.99-2.19,2.8-4.17,4.42-2.19,1.8-4.95,3.33-7.97,3.33-3.02,0-5.82-1.57-8.03-3.39zm8.03-10.11c-3.18,0-5.75,2.57-5.75,5.75,0,3.18,2.57,5.75,5.75,5.75,3.18,0,5.75-2.57,5.75-5.75,0-3.18-2.57-5.75-5.75-5.75zm-4.75,5.75c0-2.62,2.13-4.75,4.75-4.75,2.62,0,4.75,2.13,4.75,4.75,0,2.62-2.13,4.75-4.75,4.75-2.62,0-4.75-2.13-4.75-4.75z"/></svg>