<svg width="36" height="36" xmlns="http://www.w3.org/2000/svg"><path fill-rule="evenodd" clip-rule="evenodd" d="m22.24,8.25c0-.52.48-1,1-1,.52,0,1,.48,1,1s-.48,1-1,1c-.52,0-1-.48-1-1zm1-2c-1.08,0-2,.92-2,2s.92,2,2,2c1.08,0,2-.92,2-2s-.92-2-2-2zM10.5,9.25H18v1h-7.5v-1zm11.25,3h-.15l-4.78,3.19-1.55,5.43.96.27,1.45-5.07,3.34-2.23-1.38,6.92h.11v3.79l-4.35,4.35.71.71,4.65-4.65V20.75h2.29l2.66,2.66-1.44,6.48.98.22,1.56-7.02-3.01-3,1.27-6.32,2.41,2.41,3.85,1.54.37-.93-3.65-1.46L24.96,12.25h-3.21zm-.89,7.5,1.3-6.5h1.98l-1.3,6.5h-1.98zM7.5,13.75v1h6v-1h-6zm-3,6H12v1H4.5v-1zm10.5,4.5H7.5v1H15v-1z"/></svg>