<svg width="36" height="36" xmlns="http://www.w3.org/2000/svg"><path fill-rule="evenodd" clip-rule="evenodd" d="m29.75,7.75,0-4.75-1,0,0,4.75H27.25V10.75h-1.5v16h3l0,5H25.5v1H33v-1h-3.25l0-5H32.75v-16h-1.5V7.75h-1.5zm-13.91-2.31c1.58-1.58,4.15-1.58,5.73,0,1.58,1.58,1.58,4.15,0,5.73l-4.85,4.85-5.73-5.73,4.85-4.85,0,0zm-5.55,5.55-4.85,4.85h0c-1.58,1.58-1.58,4.15,0,5.73.94.94,2.21,1.32,3.43,1.15l.17-.03c.69-.13,1.35-.43,1.91-.91.08-.07.15-.13.22-.21l1.65-1.65,0,0,3.19-3.19-5.73-5.73zM22.27,11.87l-7.88,7.88c3.52.08,6.36,2.96,6.36,6.5,0,3.59-2.91,6.5-6.5,6.5s-6.5-2.91-6.5-6.5c0-.89.19-1.73.52-2.5-1.28-.01-2.56-.5-3.54-1.48-1.97-1.97-1.97-5.17,0-7.14h0L15.13,4.73l0,0c1.97-1.97,5.17-1.97,7.14,0,1.97,1.97,1.97,5.17,0,7.14zM13.31,20.83l-.7.7-.73.73,0,0c-.09.09-.17.17-.26.25-.64.56-1.39.92-2.17,1.1-.36.65-.6,1.37-.67,2.13H19.73c-.25-2.8-2.61-5-5.48-5-.32,0-.63.03-.94.08zm6.42,5.92H8.77c.25,2.8,2.61,5,5.48,5s5.22-2.2,5.48-5zM30.25,8.75V10.75h-2V8.75h2zM26.75,23.75v2h5v-14h-5v2H30v1h-3.25V16.75H30v1h-3.25v2H30v1h-3.25v2H30v1h-3.25z"/></svg>