<svg width="36" height="36" xmlns="http://www.w3.org/2000/svg"><path fill-rule="evenodd" clip-rule="evenodd" d="m3.25,6.25h29.5v7h-.5c-2.27,0-4,1.73-4,4,0,2.27,1.73,4,4,4h.5v7H3.25V6.25zm1,1V27.25h27.5v-5.02c-2.58-.24-4.5-2.32-4.5-4.98s1.92-4.74,4.5-4.98V7.25H4.25zm3.46,7.64c0-2.26,1.68-4.13,3.85-4.13,1.06,0,1.99.45,2.68,1.17.68-.72,1.62-1.17,2.67-1.17,1.69,0,3.09,1.15,3.62,2.72l-1.02.11c-.45-1.1-1.45-1.84-2.59-1.84-.92,0-1.74.48-2.26,1.25l-.41.6-.41-.6c-.53-.77-1.34-1.25-2.26-1.25-1.51,0-2.79,1.3-2.84,3.02,0,.04,0,.07,0,.11,0,.56.13,1.07.35,1.52.13.26.28.49.45.69l4.72,5.13,4.7-5.11c.13-.17.37-.52.44-.65.24-.46.38-1,.38-1.58,0-.39-.06-.76-.18-1.09l0,0c-.02-.07-.05-.14-.08-.2l1.02-.11c.15.44.23.92.23,1.41,0,.74-.18,1.44-.49,2.04l0,0c-.12.22-.42.65-.54.81l-.01.02-5.47,5.95-5.46-5.95h0c-.24-.27-.44-.58-.6-.9l0,0c-.29-.59-.46-1.26-.46-1.97zm11.79-1.3L8.72,14.77l10.78-1.19v0zM24.25,7.5v.49h1v-.49h-1zm0,1.46v.98h1v-.98h-1zm0,1.95v.98h1v-.98h-1zm0,1.95v.98h1v-.98h-1zm0,1.95v.98h1v-.98h-1zm0,1.95v.98h1v-.98h-1zm0,1.95v.98h1v-.98h-1zm0,1.95v.98h1v-.98h-1zm0,1.95v.98h1v-.98h-1zm0,1.95v.98h1v-.98h-1zM24.25,26.51v.49h1v-.49h-1z"/></svg>