<svg width="36" height="36" xmlns="http://www.w3.org/2000/svg"><path fill-rule="evenodd" clip-rule="evenodd" d="m5.75,12.75c0-1.38,1.12-2.5,2.5-2.5h19.5c1.38,0,2.5,1.12,2.5,2.5v10.5c0,1.38-1.12,2.5-2.5,2.5H8.25c-1.38,0-2.5-1.12-2.5-2.5v-10.5zm2.5-3.5c-1.93,0-3.5,1.57-3.5,3.5v10.5c0,1.93,1.57,3.5,3.5,3.5h19.5c1.93,0,3.5-1.57,3.5-3.5v-10.5c0-1.93-1.57-3.5-3.5-3.5H8.25zm17,4.25v1.75H27v1h-1.75v1.75h-1v-1.75H22.5v-1h1.75v-1.75h1zM12.75,18.25c-1.38,0-2.5-1.12-2.5-2.5,0-1.38,1.12-2.5,2.5-2.5s2.5,1.12,2.5,2.5c0,1.38-1.12,2.5-2.5,2.5zm2.17.24c.81-.64,1.33-1.63,1.33-2.74,0-1.93-1.57-3.5-3.5-3.5s-3.5,1.57-3.5,3.5c0,1.11.52,2.1,1.33,2.75-.86.41-1.53.96-2.01,1.68-.56.85-.82,1.88-.82,3.07v.5h10v-.5c0-1.2-.26-2.23-.82-3.08-.48-.72-1.15-1.27-2.01-1.68zm-2.17.76h-1.4c-.9.37-1.53.86-1.94,1.48-.36.54-.57,1.2-.63,2.02h7.96c-.06-.82-.28-1.48-.64-2.02-.41-.62-1.04-1.12-1.94-1.48H12.75z"/></svg>