<svg width="36" height="36" xmlns="http://www.w3.org/2000/svg"><path fill-rule="evenodd" clip-rule="evenodd" d="m24.18,14.98c.79.12,1.42.52,1.86,1.08.55.7.78,1.62.71,2.52-.07.91-.45,1.82-1.16,2.52-.72.7-1.76,1.15-3.09,1.15h-10.5c-1.37,0-2.42-.44-3.12-1.16-.7-.71-1.03-1.64-1.07-2.55-.04-.91.21-1.83.71-2.53.42-.58,1.01-1.02,1.76-1.17.01-2.8,2.94-4.36,5.13-3.13,1.33-2.37,3.8-2.95,5.8-2.23,1.06.39,2,1.15,2.56,2.2.48.92.66,2.04.42,3.29zm-3.31-4.56c-1.69-.61-3.8-.06-4.81,2.23l-.27.6-.51-.42c-1.63-1.33-4.28-.07-3.99,2.4l.07.56h-.56c-.62,0-1.12.3-1.47.8-.36.5-.56,1.2-.53,1.9.03.7.29,1.38.78,1.89.49.5,1.26.86,2.41.86h10.5c1.1,0,1.87-.36,2.39-.86.52-.51.81-1.19.86-1.88.05-.69-.13-1.36-.5-1.83-.36-.46-.91-.76-1.69-.73l-.7.03.2-.67c.38-1.27.23-2.34-.19-3.15-.43-.82-1.16-1.42-2.01-1.73zM25.5,25.25c-.14,0-.25.11-.25.25,0,.14.11.25.25.25.14,0,.25-.11.25-.25,0-.14-.11-.25-.25-.25zm-1.25.25c0-.69.56-1.25,1.25-1.25s1.25.56,1.25,1.25c0,.69-.56,1.25-1.25,1.25s-1.25-.56-1.25-1.25zm-5,0c0-.14.11-.25.25-.25s.25.11.25.25c0,.14-.11.25-.25.25s-.25-.11-.25-.25zm.25-1.25c-.69,0-1.25.56-1.25,1.25,0,.69.56,1.25,1.25,1.25s1.25-.56,1.25-1.25c0-.69-.56-1.25-1.25-1.25zm3,5.5c-.14,0-.25.11-.25.25,0,.14.11.25.25.25.14,0,.25-.11.25-.25,0-.14-.11-.25-.25-.25zm-1.25.25c0-.69.56-1.25,1.25-1.25s1.25.56,1.25,1.25c0,.69-.56,1.25-1.25,1.25s-1.25-.56-1.25-1.25zM9.3,23.78l-1.5,3,.89.45,1.5-3-.89-.45zm4.5,3,1.5-3,.89.45-1.5,3-.89-.45zM12.3,23.78l-3,6,.89.45,3-6-.89-.45z"/></svg>