<svg width="36" height="36" xmlns="http://www.w3.org/2000/svg"><path fill-rule="evenodd" clip-rule="evenodd" d="m3.75,4.75h-.5v20.5h12v3.5H10.5v1H24v-1h-4.75v-3.5h12V4.75H3.75zm14.5,20.5h-2v3.5h2v-3.5zm-14-1V5.75h26v18.5h-26zm9.36-6.06c-.21.31-.36.78-.36,1.31s.15,1,.36,1.31c.21.32.45.44.64.44s.43-.12.64-.44c.21-.31.36-.78.36-1.31s-.15-1-.36-1.31c-.21-.32-.45-.44-.64-.44s-.43.12-.64.44zm-.83-.55c.33-.5.84-.88,1.48-.88s1.15.39,1.48.88c.33.5.52,1.16.52,1.87s-.19,1.37-.52,1.87c-.33.5-.84.88-1.48.88s-1.15-.39-1.48-.88c-.33-.5-.52-1.16-.52-1.87s.19-1.37.52-1.87zM19.25,10.5c0-.54.15-1,.36-1.31.21-.32.45-.44.64-.44s.43.12.64.44c.21.31.36.78.36,1.31,0,.54-.15,1-.36,1.31-.21.32-.45.44-.64.44s-.43-.12-.64-.44c-.21-.31-.36-.78-.36-1.31zm1-2.75c-.63,0-1.15.39-1.48.88-.33.5-.52,1.16-.52,1.87,0,.71.19,1.37.52,1.87.33.5.84.88,1.48.88s1.15-.39,1.48-.88c.33-.5.52-1.16.52-1.87,0-.71-.19-1.37-.52-1.87C21.4,8.14,20.88,7.75,20.25,7.75zM8.75,7.5v6h-1v-6h1zm6,6v-6h-1v6h1zm11,9h1v-6h-1v6zm-17-6v6h-1v-6h1zm18-3v-6h-1v6h1zm-6,3v6h-1v-6h1z"/></svg>