<svg width="24" height="24" xmlns="http://www.w3.org/2000/svg"><path fill-rule="evenodd" clip-rule="evenodd" d="m22,6v7.99l-8.37,4.65-.23-.44c.23.44.23.44.23.44l0,0,0,0,0,0-.01,0c-.01,0-.02.01-.03.01-.02.01-.06.03-.1.04-.08.03-.19.08-.34.12-.28.09-.68.17-1.16.17-.47,0-.87-.09-1.16-.17-.14-.04-.26-.09-.34-.12-.04-.02-.07-.03-.1-.04-.01-.01-.02-.01-.03-.01l-.01,0,0,0,0,0,0,0,0,0c0,0,0,0,.23-.44l-.23.44-.01-.01v0l-8.36-4.64V6l3.26,1.81L8.97,6.64l.01,0c1.15-.29,2.18-.05,3.07.59.89-.61,1.86-.94,2.9-.61,0,0,0,0,0,0l3.79,1.18,3.26-1.81zm-10.77,1.88c-.6-.36-1.26-.46-1.99-.28l5.15,8.89,3,7.7v5.71l7.83,4.35.01,0c.01.01.03.01.06.03.05.02.13.05.24.09.21.06.51.13.87.13.35,0,.66-.06.87-.13.1-.03.19-.06.24-.09.03-.01.05-.02.06-.03l.01,0,4.98-2.76-3.5-3.63-4.22,2.09c-.81.41-1.66.19-2.14-.38-.49-.58-.53-1.45.08-2.19l.01-.01.01-.01c.2-.22.4-.43.59-.65.77-.85,1.52-1.68,2.25-2.33zm7.82,6.61,1.95-1.08V7.7l-2.14,1.19-4.21-1.32v0c-.74-.24-1.51.04-2.46.81-.77.63-1.56,1.5-2.45,2.47-.2.22-.4.44-.61.67-.31.37-.24.7-.07.89.17.21.52.33.92.13l0,0,4.88-2.41,4.19,4.35z"/></svg>