<svg width="48" height="48" xmlns="http://www.w3.org/2000/svg"><path fill-rule="evenodd" clip-rule="evenodd" d="m24.5,4C13.18,4,4,13.18,4,24.5S13.18,45,24.5,45,45,35.82,45,24.5,35.82,4,24.5,4zM3,24.5C3,12.63,12.63,3,24.5,3S46,12.63,46,24.5,36.37,46,24.5,46,3,36.37,3,24.5zM24.5,11c-1.38,0-2.5,1.12-2.5,2.5s1.12,2.5,2.5,2.5,2.5-1.12,2.5-2.5S25.88,11,24.5,11zM21,13.5c0-1.93,1.57-3.5,3.5-3.5s3.5,1.57,3.5,3.5S26.43,17,24.5,17,21,15.43,21,13.5zM19.5,19c-.83,0-1.5.67-1.5,1.5s.67,1.5,1.5,1.5H22v14h-2.5c-.83,0-1.5.67-1.5,1.5s.67,1.5,1.5,1.5h11c.83,0,1.5-.67,1.5-1.5s-.67-1.5-1.5-1.5H28V19h-8.5zm-.5,1.5c0-.28.22-.5.5-.5H27v17h3.5c.28,0,.5.22.5.5s-.22.5-.5.5h-11c-.28,0-.5-.22-.5-.5s.22-.5.5-.5H23V21h-3.5c-.28,0-.5-.22-.5-.5z"/></svg>