<svg width="48" height="48" fill="none" xmlns="http://www.w3.org/2000/svg"><path fill-rule="evenodd" clip-rule="evenodd" d="m17,16h-.9l1.2,1.13h-1.43V16h-.75v1.13H13.7L14.9,16H14l-1.5,1.5L14,19h.9l-1.2-1.13h1.43V19h.75l.06-1.18,1.37.06L16.1,19h.9l1.5-1.5L17,16z" fill="#000"/><path d="m18.83,25.52c5.04,2.89,7.25,8.07,7.67,13.98h-22c.1-6.05,2.8-11.22,7.63-14M26.56,12.24c.3-2.97,2.31-5.25,4.94-5.25,2.85,0,5,2.67,5,6,0,3.34-2.15,6-5,6-1.18,0-2.23-.48-3.06-1.25m-1.88-5.51c1.19,1.09,1.94,2.8,1.94,4.76M26.56,12.24c-.84-.77-1.88-1.25-3.06-1.25-1.18,0-2.23.48-3.06,1.25-.24.22-.46.47-.67.74m6.79-.74c1.19,1.09,1.94,2.8,1.94,4.76m0,0c0,.26-.04.51-.06.76m.06-.75c0,.26-.04.51-.06.76m0,0c-.3,2.97-2.31,5.25-4.94,5.25-1.18,0-2.21-.42-3.04-1.19l2.05,2.19-.97,1.79,2.04,3.75,1.96-3.75-1.03-1.79,1.98-2.15m.35-.34c5.04,2.89,7.25,8.1,7.67,14h-8.65m8.99-17.99c5.04,2.89,7.24,8.09,7.66,13.99h-8.62M26.68,11.49s1.69-.29,3.17-1.65c.54-.49,1.36-.45,1.85.08,1.13,1.24,3,2.96,4.8,2.96.39,3.25,2.93,5.49,4.38,6.64.38.3.27.83-.23.99l-1.66.6M20.5,13.5c0,.55-2.24,1-5,1-2.76,0-5-.45-5-1m10,0c0-.55-2.24-1-5-1-2.76,0-5,.45-5,1m10,0v6m-10-6v6m0,0c0,.55,2.24,1,5,1,2.76,0,5-.45,5-1m-10,0V21c0,3.34,2.15,6,5,6s5-2.67,5-6v-1.5m-9,.6s.5,1.4,4,1.4l4-1.4" stroke="#000"/></svg>