<svg width="36" height="36" xmlns="http://www.w3.org/2000/svg"><path fill-rule="evenodd" clip-rule="evenodd" d="m7.75,13.51C7.75,7.84,12.34,3.25,18,3.25s10.25,4.59,10.25,10.26v0c-.02,1.71-.55,3.22-1.37,4.65l0,.01,0,.01-8.85,14.27-.42-.69L26.78,49.94h0c-.83-1.39-1.36-2.88-1.43-4.65L7.75,13.52v-.01zm1-.01c.06,1.57.53,2.89,1.28,4.16l7.99,12.89,7.99-12.89c.75-1.32,1.22-2.67,1.23-4.16C27.25,8.39,23.11,4.25,18,4.25c-5.1,0-9.24,4.14-9.25,9.25zM18,13.87c-.11,0-.2.09-.2.2s.09.2.2.2.2-.09.2-.2-.09-.2-.2-.2zm-1.2.2c0-.66.54-1.2,1.2-1.2.66,0,1.2.54,1.2,1.2,0,.66-.54,1.2-1.2,1.2-.66,0-1.2-.54-1.2-1.2zM16.5,9.25h-.31l-.75,1.5H12.25v7h11.5v-7h-3.19l-.75-1.5H16.5zm-.3,2.22.61-1.22h2.38l.75,1.5h2.81v5h-9.5v-5h2.81l.14-.28z"/></svg>