<svg width="36" height="36" xmlns="http://www.w3.org/2000/svg"><path fill-rule="evenodd" clip-rule="evenodd" d="m15.75,8.75c-.14,0-.25.11-.25.25s.11.25.25.25c.14,0,.25-.11.25-.25s-.11-.25-.25-.25zm-1.25.25c0-.69.56-1.25,1.25-1.25.69,0,1.25.56,1.25,1.25s-.56,1.25-1.25,1.25c-.69,0-1.25-.56-1.25-1.25zm8.79,19.5,2.6,2.6.71-.71-18.75-18.75-.71.71,4.43,4.43c-1.42,1.19-2.33,2.98-2.33,4.97,0,3.57,2.93,6.5,6.5,6.5,1.99,0,3.77-.91,4.96-2.33l2.04,2.04v.54h.54zm-3.29-3.29-7.72-7.72c-1.24,1.01-2.04,2.55-2.04,4.26,0,3.02,2.48,5.5,5.5,5.5,1.71,0,3.24-.8,4.25-2.04zM23.25,19.75h-3v1h2.5v2.5h1v-3.5h-.5zm-7-7.75v3.75h-1v-3.75h1z"/></svg>