<svg width="24" height="24" xmlns="http://www.w3.org/2000/svg"><path fill-rule="evenodd" clip-rule="evenodd" d="m8.78,4.58L8,4.07v4.13l.73-.39C9.71,7.29,10.82,7,12,7s2.29.29,3.27.81L16,8.2V4.07L14.06,5.36,13,4.29l-1,1-1-1L9.94,5.36,8.78,4.58zM11,5.71l.32.32c-.25.02-.5.05-.74.1L11,5.71zm-2,.23.64.42c-.22.07-.43.14-.64.23v-.65zm4.42.19c-.24-.04-.49-.08-.74-.1L13,5.71l.42.42zM15,6.58c-.21-.08-.42-.16-.64-.23L15,5.93v.65zM12,9c-2.76,0-5,2.24-5,5,0,2.76,2.24,5,5,5,2.76,0,5-2.24,5-5,0-2.76-2.24-5-5-5zm-6,5c0-3.31,2.69-6,6-6,3.31,0,6,2.69,6,6,0,3.31-2.69,6-6,6-3.31,0-6-2.69-6-6zm3-1c0-.55.45-1,1-1,.55,0,1,.45,1,1s-.45,1-1,1c-.55,0-1-.45-1-1zm5-1c-.55,0-1,.45-1,1s.45,1,1,1,1-.45,1-1-.45-1-1-1zm-2,6c-1.36,0-2.56-.68-3.28-1.71l.82-.57C10.09,16.49,10.98,17,12,17c1.02,0,1.91-.51,2.46-1.29l.82.57C14.56,17.32,13.36,18,12,18z"/></svg>