<svg width="24" height="24" xmlns="http://www.w3.org/2000/svg"><path fill-rule="evenodd" clip-rule="evenodd" d="m12,2.97,6.08,2.03L15,6.03v1.92c.32.61.5,1.31.5,2.05,0,.95-.3,1.85-.81,2.56,2.68,1.37,4.31,4.53,4.31,7.94v.5l-14-.01v-.5c0-3.71,1.71-6.66,4.31-7.94-.33-.45-.57-.99-.7-1.56H5.4L7,8.12V5.36l-1.08-.36L12,2.97zm-1.96,10.35c-2.23.95-3.88,3.37-4.03,6.67l11.98,0c-.16-3.05-1.73-5.66-4.03-6.68-.55.43-1.22.68-1.97.68-.74,0-1.4-.25-1.95-.68zm-.25-4.72c1.26.79,2.94.95,4.42,0,.19.42.29.89.29,1.4,0,1.71-1.19,3-2.51,3-1.32,0-2.49-1.29-2.49-3,0-.51.11-.98.29-1.4zM9,7.75v.19c-.2.37-.34.79-.42,1.22L8,8.12V5.69l1,.33v1.72zm1-1.39v1.16c1.08.87,2.67,1.07,4,0V6.36l-2,.66-2-.66zM9.08,5,12,5.97l2.92-.97L12,4.03l-2.92.97zM7.5,9.28l.4.72h-.8L7.5,9.28z"/></svg>