<svg width="48" height="48" xmlns="http://www.w3.org/2000/svg"><path fill-rule="evenodd" clip-rule="evenodd" d="m21.5,5c-.75,0-1.4.41-1.74,1.01C18.77,6.13,18,6.98,18,8c0,.98.71,1.8,1.64,1.97.36.33.83.53,1.36.53.47,0,.91-.16,1.25-.44.34.27.78.44,1.25.44.36,0,.71-.1,1-.27.29.17.64.27,1,.27.56,0,1.07-.23,1.44-.61.17.07.36.11.56.11.38,0,.73-.14,1-.38.27.24.62.38,1,.38.83,0,1.5-.67,1.5-1.5S30.33,7,29.5,7c-.38,0-.73.14-1,.38C28.23,7.14,27.88,7,27.5,7c-.2,0-.39.04-.56.11-.17-.18-.38-.33-.61-.43C26.01,5.98,25.31,5.5,24.5,5.5c-.49,0-.94.18-1.29.47C22.86,5.39,22.23,5,21.5,5zM28,8.5c0-.28-.22-.5-.5-.5-.13,0-.25.05-.34.14L26.77,8.5l.38.36C27.25,8.95,27.37,9,27.5,9c.28,0,.5-.22.5-.5zm1,0c0,.28.22.5.5.5s.5-.22.5-.5-.22-.5-.5-.5-.5.22-.5.5zm-8.44-1.83C20.69,6.28,21.06,6,21.5,6c.55,0,1,.45,1,1,0,.02,0,.04,0,.06l-.04.75.71-.25c.01-.01.03-.01.04-.01l.26-.08.08-.26c.12-.41.51-.71.96-.71s.83.3.96.71l.08.26.26.08c.25.08.46.25.58.47l.27.48-.27.48c-.17.31-.5.52-.88.52-.26,0-.49-.1-.67-.25L24.5,8.95l-.33.3c-.18.16-.41.25-.67.25-.35,0-.65-.18-.83-.45l-.42-.63-.42.63c-.18.27-.49.45-.83.45-.3,0-.56-.13-.75-.34l-.13-.15-.2-.02C19.4,8.96,19,8.52,19,8c0-.55.45-1,1-1,.02,0,.04,0,.06,0l.37.02.12-.35zm7.94,4.33h-.5v3h-8v-2.99l-8-.01v8h0v3h2.27c.35.6.99,1,1.73,1,.74,0,1.39-.4,1.73-1h2.54c.35.6.99,1,1.73,1,.74,0,1.39-.4,1.73-1h2.54c.35.6.99,1,1.73,1,.74,0,1.39-.4,1.73-1h4.28l-2.01-4.6,0-3.4h-1v-3h-2.5zm1.5,10h2.49l-1.31-2.99H13v2.99h1c0-1.1.9-2,2-2,1.1,0,2,.89,2,2h2c0-1.11.89-2,2-2,1.1,0,2,.89,2,2h2c0-1.11.9-2,2-2,1.1,0,2,.89,2,2zm1-3.99H13v-5.01l6,.01v2.99h12l0,2.01zm-1-3.01v-2h-1v2h1zm14,10.01H6v-1H44v1zm-31,5c0-1.66,1.34-3,3-3,1.66,0,3,1.34,3,3v12.5h1v-12.5c0-1.66,1.34-3,3-3,1.66,0,3,1.34,3,3v6.02c.32-.38.66-.75,1-1.11V29c0-1.66,1.34-3,3-3,1.66,0,3,1.34,3,3v.51C36.25,27.89,39.97,27,44,27v1c-9.86,0-17.77,5.52-21.03,14.18l-.12.32H6v-13.5c0-1.66,1.34-3,3-3,1.66,0,3,1.34,3,3v12.5h1v-12.5zm5,12.5v-12.5c0-1.1-.9-2-2-2-1.1,0-2,.9-2,2v12.5h4zM32,30.05v-1.05c0-1.1-.9-2-2-2-1.1,0-2,.9-2,2v3.94c1.22-1.11,2.56-2.08,4-2.89zm-7,6.25V29c0-1.1-.9-2-2-2-1.1,0-2,.9-2,2v12.5h1.16c.74-1.89,1.7-3.63,2.84-5.21zM7,29c0-1.1.9-2,2-2,1.1,0,2,.9,2,2v12.5H7v-12.5zm14-8.01c0-.55.45-1,1-1,.55,0,1,.45,1,1,0,.55-.45,1-1,1-.55,0-1-.45-1-1zm-5-1c-.55,0-1,.45-1,1,0,.55.45,1,1,1,.55,0,1-.45,1-1,0-.55-.45-1-1-1zm11,1c0-.55.45-1,1-1s1,.45,1,1c0,.55-.45,1-1,1-.55,0-1-.45-1-1z"/></svg>