<svg width="36" height="36" xmlns="http://www.w3.org/2000/svg"><path fill-rule="evenodd" clip-rule="evenodd" d="m4.75,12.25h26.5v9.01h1.75v1H31.25V23.75h-3.03c.02.08.03.17.03.25,0,.69-.56,1.25-1.25,1.25s-1.25-.56-1.25-1.25c0-.09.01-.17.03-.25H10.22c.02.08.03.17.03.25,0,.69-.56,1.25-1.25,1.25s-1.25-.56-1.25-1.25c0-.09.01-.17.03-.25H4.75v-1.49H3v-1H4.75V12.25zm1,1v9.5h6.5v-9.5h-6.5zm7.5,0v9.5h9.5v-9.5h-9.5zm17,9.5h-6.5v-9.5h6.5v9.5zM9,23.75c-.14,0-.25.11-.25.25,0,.14.11.25.25.25s.25-.11.25-.25c0-.14-.11-.25-.25-.25zm17.75.25c0-.14.11-.25.25-.25s.25.11.25.25c0,.14-.11.25-.25.25s-.25-.11-.25-.25z"/></svg>