<svg width="24" height="24" xmlns="http://www.w3.org/2000/svg"><path fill-rule="evenodd" clip-rule="evenodd" d="m3,6.36c0-1.85,1.5-3.36,3.36-3.36h11.28c1.85,0,3.36,1.5,3.36,3.36v11.28c0,1.86-1.51,3.36-3.36,3.36H6.36c-1.85,0-3.36-1.51-3.36-3.36V6.36zm3.36-4.36C3.95,2,2,3.95,2,6.36v11.28c0,2.41,1.95,4.36,4.36,4.36h11.28c2.41,0,4.36-1.95,4.36-4.36V6.36c0-2.41-1.95-4.36-4.36-4.36H6.36zm9.26,9.32L13.26,9h1.75L18,12l-2.99,3h-1.75l2.35-2.3h-2.92V15h-1.38v-2.3H8.4L10.75,15H9L6,12,9,9h1.75l-2.35,2.32h2.91V9h1.38v2.32h2.92z"/></svg>