<svg width="24" height="24" xmlns="http://www.w3.org/2000/svg"><path fill-rule="evenodd" clip-rule="evenodd" d="m16.31,9.93c.42.1.77.31,1.04.61.39.42.6.99.64,1.56.09,1.12-.47,2.43-1.82,2.87l-.31-.95c.8-.26,1.19-1.06,1.13-1.85-.03-.39-.17-.73-.38-.96-.2-.22-.49-.36-.89-.35l-.7.03.2-.67c.47-1.6-.33-2.71-1.37-3.09-1.05-.38-2.37-.05-3.01,1.41l-.27.61-.51-.42c-.96-.8-2.58-.05-2.4,1.47l.07.56h-.56c-.59,0-1.08.54-1.16,1.35-.08.78.27,1.57,1.13,1.86l-.32.95c-1.4-.48-1.91-1.78-1.8-2.91.09-.93.65-1.93,1.64-2.19.09-1.86,2.01-2.92,3.53-2.2.95-1.55,2.63-1.94,4-1.44,1.37.5,2.41,1.88,2.12,3.73zm-5.29,7.07h.88v-.84h-.88v.84zm-1.09-5.24c-.18.27-.28.66-.3,1.16h.7c.06-.88.45-1.32,1.17-1.32.35,0,.62.11.8.34.15.18.22.41.22.68,0,.14-.03.29-.08.43-.06.16-.2.35-.4.55-.31.32-.52.53-.61.65-.09.12-.16.25-.21.39-.07.2-.11.5-.11.92h.69c0-.23.01-.42.04-.56.03-.14.07-.27.13-.37.06-.1.17-.22.32-.37.35-.34.57-.57.66-.7.21-.28.31-.61.31-.99,0-.46-.15-.84-.46-1.12-.33-.31-.77-.46-1.32-.46-.34,0-.65.07-.93.21-.27.14-.49.33-.66.58z"/></svg>