<svg width="36" height="36" xmlns="http://www.w3.org/2000/svg"><path fill-rule="evenodd" clip-rule="evenodd" d="m20.25,7.5c0,1.24-1.01,2.25-2.25,2.25s-2.25-1.01-2.25-2.25c0-1.24,1.01-2.25,2.25-2.25s2.25,1.01,2.25,2.25zm0,10.5c0,1.24-1.01,2.25-2.25,2.25s-2.25-1.01-2.25-2.25c0-1.24,1.01-2.25,2.25-2.25s2.25,1.01,2.25,2.25zM18,30.75c1.24,0,2.25-1.01,2.25-2.25,0-1.24-1.01-2.25-2.25-2.25s-2.25,1.01-2.25,2.25c0,1.24,1.01,2.25,2.25,2.25z"/><path d="m18,10.25c1.52,0,2.75-1.23,2.75-2.75h-1c0,.97-.78,1.75-1.75,1.75v1zm-2.75-2.75c0,1.52,1.23,2.75,2.75,2.75V9.25c-.97,0-1.75-.78-1.75-1.75h-1zm2.75-2.75c-1.52,0-2.75,1.23-2.75,2.75h1c0-.97.78-1.75,1.75-1.75v-1zm2.75,2.75c0-1.52-1.23-2.75-2.75-2.75v1c.97,0,1.75.78,1.75,1.75h1zM18,20.75c1.52,0,2.75-1.23,2.75-2.75h-1c0,.97-.78,1.75-1.75,1.75v1zm-2.75-2.75c0,1.52,1.23,2.75,2.75,2.75v-1c-.97,0-1.75-.78-1.75-1.75h-1zm2.75-2.75c-1.52,0-2.75,1.23-2.75,2.75h1c0-.97.78-1.75,1.75-1.75v-1zm2.75,2.75c0-1.52-1.23-2.75-2.75-2.75v1c.97,0,1.75.78,1.75,1.75h1zm-1,10.5c0,.97-.78,1.75-1.75,1.75v1c1.52,0,2.75-1.23,2.75-2.75h-1zm-1.75-1.75c.97,0,1.75.78,1.75,1.75h1c0-1.52-1.23-2.75-2.75-2.75v1zm-1.75,1.75c0-.97.78-1.75,1.75-1.75v-1c-1.52,0-2.75,1.23-2.75,2.75h1zm1.75,1.75c-.97,0-1.75-.78-1.75-1.75h-1c0,1.52,1.23,2.75,2.75,2.75v-1z"/></svg>