<svg width="24" height="24" xmlns="http://www.w3.org/2000/svg"><path fill-rule="evenodd" clip-rule="evenodd" d="m5.5,2H5v2.05c-.74.15-1.37.64-1.69,1.34-.24.54-.45.95-.64,1.32l0,0c-.09.19-.18.36-.26.53C2.18,7.72,2,8.16,2,8.68v11.13C2,21.02,3,22,4.22,22h4.55C10,22,11,21.02,11,19.8V8.68c0-.51-.18-.96-.41-1.44-.08-.17-.17-.34-.26-.53l0,0v0c-.19-.36-.4-.78-.64-1.32C9.37,4.69,8.74,4.19,8,4.05V2H5.5zm-.05,3h2.1c.53,0,1.01.32,1.23.8l0,0c.25.56.49,1.03.68,1.4v0l0,0,0,0,0,0c.09.18.17.33.24.47C9.91,8.13,10,8.4,10,8.68v11.13C10,20.46,9.46,21,8.78,21H4.22C3.54,21,3,20.46,3,19.8V19h4v-9H3V8.68c0-.27.09-.55.31-1,.07-.14.15-.3.24-.47.19-.38.43-.84.68-1.4l0,0c.21-.48.69-.79,1.23-.8zM7,4V3H6V4h1zM3,18v-7h3v7H3zm12.01-5c.33,0,.58.04.79.1.22.06.37.15.49.22l0,0c.1.06.16.09.23.12.12-1.48.74-2.35,1.42-2.85.37-.27.74-.41,1.01-.49.14-.04.26-.06.34-.07.04-.01.08-.01.1-.01.01,0,.02,0,.03,0l.01,0,0,0,0,0h0c0,0,0,0,.03.5.03.5.03.5.03.5h0l0,0h0l-.01,0c-.01,0-.03,0-.05.01-.05.01-.13.02-.22.05-.19.05-.44.15-.69.33-.41.3-.88.88-1,2.02.05-.02.1-.05.18-.1l0,0c.12-.07.27-.15.49-.22.21-.06.47-.1.79-.1.44-.01,1.23-.02,1.9.48C21.58,14.01,22,14.97,22,16.6c0,1.5-.25,2.81-.73,3.77-.48.96-1.25,1.64-2.27,1.64h-.01v0c-.64-.01-1.05-.15-1.38-.29-.06-.03-.12-.05-.16-.07l0,0c-.2-.09-.31-.13-.45-.14-.14.01-.24.05-.45.14l0,0,0,0c-.05.02-.1.04-.16.07-.33.14-.74.28-1.38.29L15,22v0c-1.02,0-1.79-.68-2.27-1.64C12.25,19.41,12,18.09,12,16.6c0-1.62.42-2.59,1.11-3.11.66-.5,1.45-.49,1.9-.48zm-1.29,1.28c-.33.25-.71.84-.71,2.32,0,1.41.24,2.55.62,3.32.38.77.87,1.09,1.37,1.09.48-.01.76-.11,1-.21.03-.01.07-.03.11-.05.22-.1.51-.23.87-.24L17,20.5l.02,0c.36.01.65.14.87.24.04.02.08.03.11.05.24.1.53.2,1,.21.5,0,.99-.32,1.37-1.09.39-.77.62-1.91.62-3.32,0-1.48-.38-2.06-.71-2.32-.36-.27-.81-.29-1.27-.28L19,14v0c-.26,0-.41.03-.52.06-.1.03-.17.07-.28.13l-.02.01c-.1.06-.25.14-.43.2-.21.07-.44.1-.75.1s-.54-.04-.75-.1c-.19-.06-.33-.14-.43-.2l-.02-.01c-.1-.06-.18-.1-.28-.13-.1-.03-.26-.06-.52-.06h-.01v0c-.46-.01-.92.01-1.28.28z"/></svg>