<svg width="24" height="24" xmlns="http://www.w3.org/2000/svg"><path fill-rule="evenodd" clip-rule="evenodd" d="m2,7.5C2,6.12,3.12,5,4.5,5h15C20.88,5,22,6.12,22,7.5v10c0,1.38-1.12,2.5-2.5,2.5h-15C3.12,20,2,18.88,2,17.5v-10zM4.5,6C3.67,6,3,6.67,3,7.5v10c0,.83.67,1.5,1.5,1.5h15c.83,0,1.5-.67,1.5-1.5v-10c0-.83-.67-1.5-1.5-1.5h-15zM8,12V7h-.9c-.07.33-.22.57-.43.72-.15.1-.31.17-.49.21-.18.04-.41.07-.69.07v.73h1.35V12H8zm6.19,1.39c-.32-.26-.73-.39-1.21-.39-.55,0-.99.16-1.34.48-.35.32-.53.78-.53,1.38v.11h1c.02-.72.29-1.09.83-1.09.22,0,.39.07.53.2.14.13.2.31.2.52,0,.18-.05.35-.15.49-.1.14-.27.29-.52.46-.51.34-.86.57-1.03.7-.17.13-.32.26-.45.39-.17.17-.3.38-.39.62-.09.24-.14.49-.14.76h3.75v-.87h-2.44c.12-.15.25-.28.39-.39.14-.11.38-.28.7-.49.34-.22.56-.37.64-.43.08-.06.17-.14.26-.24.28-.3.42-.66.42-1.07,0-.48-.18-.85-.53-1.13zm-7.82,3.94,8-9-.75-.66-8,9,.75.66z"/></svg>