<svg width="36" height="36" xmlns="http://www.w3.org/2000/svg"><path fill-rule="evenodd" clip-rule="evenodd" d="m4.25,9.54c0-2.92,2.37-5.29,5.29-5.29h16.92c2.92,0,5.29,2.37,5.29,5.29v16.92c0,2.92-2.37,5.29-5.29,5.29H9.54c-2.92,0-5.29-2.37-5.29-5.29V9.54zm5.29-6.29c-3.47,0-6.29,2.82-6.29,6.29v16.92c0,3.47,2.82,6.29,6.29,6.29h16.92c3.47,0,6.29-2.82,6.29-6.29V9.54c0-3.47-2.82-6.29-6.29-6.29H9.54zm13.89,13.73L19.9,13.5h2.62L27,18l-4.48,4.5h-2.62l3.53-3.45h-4.39V22.5h-2.07v-3.45h-4.36l3.53,3.45h-2.62L9,18l4.51-4.5h2.62l-3.53,3.48h4.36V13.5h2.07v3.48h4.39z"/></svg>