<svg width="24" height="24" xmlns="http://www.w3.org/2000/svg"><path fill-rule="evenodd" clip-rule="evenodd" d="m5.21,7.03c.09-.02.19-.03.29-.03h.46v-1H5.5c-.17,0-.33.02-.49.05l.19.98zm1.69-.03h.93v-1h-.93v1zm1.86,0h.93v-1H8.75v1zm1.86,0h.93v-1h-.93v1zm1.86,0h.93v-1h-.93v1zM14.32,7h.93v-1h-.93v1zm1.86,0h.93v-1h-.93v1zm1.86,0H18.5c.1,0,.2.01.29.03l.19-.98c-.16-.03-.32-.05-.49-.05h-.46v1zm-13.78.67c.11-.16.25-.3.41-.41l-.56-.83c-.27.18-.51.42-.69.69l.83.56zM19.33,7.25c.16.11.31.25.41.41l.83-.56c-.18-.27-.42-.51-.69-.69l-.56.83zM4,8.5c0-.1.01-.2.03-.29l-.98-.19C3.02,8.17,3,8.33,3,8.5v.44h1v-.44zm15.97-.29c.02.09.03.19.03.29v.44h1v-.44c0-.17-.02-.33-.05-.49l-.98.19zM4,10.69v-.88H3v.88h1zm16-.88v.88h1v-.88h-1zM4,12.44v-.88H3v.88h1zm16-.88v.88h1v-.88h-1zm-16,2.63v-.88H3v.88h1zm16-.88v.88h1v-.88h-1zM4,15.5v-.44H3v.44c0,.17.02.33.05.49l.98-.19C4.01,15.7,4,15.6,4,15.5zm16-.44v.44c0,.1-.01.2-.03.29l.98.19c.03-.16.05-.32.05-.49v-.44h-1zM4.67,16.75c-.16-.11-.3-.25-.41-.41l-.83.56c.18.27.42.51.69.69l.56-.83zm15.08-.41c-.11.16-.25.3-.41.41l.56.83c.27-.18.51-.42.69-.69l-.83-.56zM5.5,17c-.1,0-.2-.01-.29-.03l-.19.98c.16.03.32.05.49.05h.46v-1H5.5zm13.29-.03c-.09.02-.19.03-.29.03h-.46v1H18.5c.17,0,.33-.02.49-.05l-.19-.98zm-10.97.03h-.93v1h.93v-1zM9.68,17H8.75v1h.93v-1zm1.86,0h-.93v1h.93v-1zm1.86,0h-.93v1h.93v-1zm1.86,0h-.93v1h.93v-1zm1.86,0h-.93v1h.93v-1zM17,10v-1h-1v1h-1v1h1v1h1v-1h1v-1h-1zm-7,1H6V10h4v1zm-4,2h6v-1H6v1zm5,2H6v-1h5v1z"/></svg>