<svg width="24" height="24" xmlns="http://www.w3.org/2000/svg"><path fill-rule="evenodd" clip-rule="evenodd" d="m16.28,9.88c.49.11.9.38,1.19.74.4.5.57,1.15.53,1.79-.04.64-.31,1.29-.82,1.79-.52.5-1.26.81-2.21.81H7.97c-.95,0-1.69-.31-2.2-.82-.5-.5-.74-1.16-.76-1.8-.03-.64.15-1.28.51-1.78.27-.38.66-.68,1.14-.81.09-1.85,2.01-2.88,3.52-2.17.95-1.53,2.63-1.91,3.99-1.42.74.27,1.4.8,1.79,1.54.32.6.45,1.33.32,2.13zm-2.46-2.73c-1.05-.38-2.36-.04-3,1.39l-.27.6-.51-.41c-.97-.79-2.57-.04-2.39,1.44l.07.56h-.56c-.35,0-.64.17-.85.46-.22.3-.34.72-.32,1.16.02.43.18.84.47,1.14.29.29.76.52,1.49.52h7c.72,0,1.2-.23,1.52-.53.32-.31.49-.72.52-1.13.03-.42-.09-.82-.31-1.09-.21-.26-.54-.44-1-.42l-.7.03.2-.67c.24-.81.15-1.47-.12-1.96-.27-.5-.72-.88-1.25-1.07z"/></svg>