<svg width="24" height="24" xmlns="http://www.w3.org/2000/svg"><path fill-rule="evenodd" clip-rule="evenodd" d="m17.95,2.99-.52,1.04c-.61,1.22-.34,2.74.58,3.77.89,1,2.4,1.54,4.29.74l1.17-.5-.52,1.16c-.56,1.26-1.65,2.06-2.73,2.49-.76.31-1.57.45-2.26.41,0,.1,0,.2-.01.3-.06.64-.33,1.28-.83,1.78-.51.5-1.23.81-2.13.81h-.44l.39.78L14.5,16l-.45-.22.39-.78h-3.88l.39.78L10.5,16l-.45-.22.39-.78H8c-.95,0-1.69-.31-2.2-.82-.5-.51-.74-1.17-.76-1.81-.03-.64.15-1.29.51-1.79.27-.38.66-.69,1.14-.81.09-1.85,2.01-2.9,3.52-2.18.94-1.52,2.59-1.91,3.94-1.44.28-.78.62-1.37,1.02-1.81.49-.55,1.06-.84,1.67-1.02l1.11-.33zM10.5,16c.45-.22.45-.22.45-.22v0l0,0,0,0,0,0,0,.01.02.04c.01.03.04.07.06.13.05.11.12.26.18.42.07.17.14.35.19.54.05.18.1.39.1.58,0,.55-.45,1-1,1-.55,0-1-.45-1-1,0-.19.05-.4.1-.58.05-.19.12-.38.19-.54.07-.17.13-.32.18-.42.02-.05.05-.1.06-.13l.02-.05,0,0,0,0,0,0v0c0,0,0,0,.45.22zm4,0c.45-.22.45-.22.45-.22v0l0,0,0,0,0,0,0,.01.02.04c.01.03.04.07.06.13.05.11.12.26.18.42.07.17.14.35.19.54.05.18.1.39.1.58,0,.55-.45,1-1,1s-1-.45-1-1c0-.19.05-.4.1-.58.05-.19.12-.38.19-.54.07-.17.13-.32.18-.42.02-.05.05-.1.06-.13l.02-.05,0,0,0,0,0,0v0c0,0,0,0,.45.22zm5.35-5.24c-.8.32-1.58.4-2.1.32-.07-.17-.16-.32-.27-.47-.28-.37-.68-.64-1.17-.76.12-.8,0-1.53-.32-2.14-.23-.44-.56-.81-.94-1.09.27-.77.56-1.27.86-1.61.08-.08.16-.16.24-.23-.2,1.32.24,2.69,1.12,3.68.93,1.04,2.34,1.66,4.01,1.41-.41.39-.91.69-1.42.9zm-6-3.66c-1.05-.38-2.36-.05-3,1.39l-.27.6-.51-.42c-.97-.79-2.57-.05-2.39,1.45l.07.56h-.56c-.35,0-.63.17-.85.46-.22.3-.34.73-.32,1.17.02.43.18.85.47,1.15.29.29.76.52,1.49.52h7c.66,0,1.12-.22,1.43-.53.31-.31.49-.73.53-1.16.04-.43-.07-.83-.27-1.1-.2-.26-.5-.44-.97-.42l-.7.03.2-.67c.24-.81.15-1.48-.12-1.98-.27-.51-.72-.88-1.25-1.07zM6.5,16c-.45-.22-.45-.22-.45-.22l0,0,0,0,0,0,0,0,0,.01-.02.04c-.01.03-.04.07-.06.13-.05.11-.12.26-.18.42-.07.17-.14.35-.19.54-.05.18-.1.39-.1.58,0,.55.45,1,1,1,.55,0,1-.45,1-1,0-.19-.05-.4-.1-.58-.05-.19-.12-.38-.19-.54-.07-.17-.13-.32-.18-.42-.02-.05-.05-.1-.06-.13l-.02-.04,0-.01,0,0,0,0,0,0,0,0c0,0,0,0-.45.22zm-.45-.22L6.5,16l.45-.22-.45-.89-.45.89zm6,2c0,0,0,0,.45.22.45-.22.45-.22.45-.22v0l0,0,0,0,0,0,0,.01.02.04c.01.03.04.07.06.13.05.11.12.26.18.42.07.17.14.35.19.54.05.18.1.39.1.58,0,.55-.45,1-1,1s-1-.45-1-1c0-.19.05-.4.1-.58.05-.19.12-.38.19-.54.07-.17.13-.32.18-.42.02-.05.05-.1.06-.13l.02-.05,0,0,0,0,0,0v0zM12.5,18l-.45-.22.45-.89.45.89L12.5,18zm-4.45-.22L8.5,18c-.45-.22-.45-.22-.45-.22l0,0,0,0,0,0,0,0,0,.01-.02.04c-.01.03-.04.07-.06.13-.05.11-.12.26-.18.42-.07.17-.14.35-.19.54-.05.18-.1.39-.1.58,0,.55.45,1,1,1,.55,0,1-.45,1-1,0-.19-.05-.4-.1-.58-.05-.19-.12-.38-.19-.54-.07-.17-.13-.32-.18-.42-.02-.05-.05-.1-.06-.13l-.02-.04,0-.01,0,0,0,0,0,0,0,0c0,0,0,0-.45.22l.45-.22-.45-.89-.45.89z"/></svg>