<svg width="36" height="36" xmlns="http://www.w3.org/2000/svg"><path fill-rule="evenodd" clip-rule="evenodd" d="m31.85,31.15L4.85,4.15l-.71.71.35.35v3.79h1.5v-2.29l4.5,4.5v3.79h1.5v-2.29l2.29,2.29h-.79v1.5h-3v1.5h3v-1.5h1.5v-.79L16.5,17.21V25.5h8.29l1.5,1.5-3.79,0v1.5h-1.5v3h1.5v-1.5h1.5V28.5h1.5v3h3v-1.5h-1.5v-2.29l3,3v.79h.79l.36.36.71-.71zM23.29,24l-1.5-1.5H19.5v-2.29l-1.5-1.5V24h5.29zM4.5,11.99h3v-1.5h-3v1.5zM15,7.5h-1.5v-1.5h1.5v1.5zm1.5,0h1.5v-3h-1.5v3zm6,0h-3v-1.5h3V4.5h3v3h-1.5v-1.5h-1.5v1.5zM4.5,25.5h1.5v-3h-1.5v3zm1.5-9h-1.5v-1.5h1.5V13.5h1.5V15h-1.5v1.5zm-1.5,3h1.5V18h1.5v-1.5h-1.5v1.49h-1.5v1.5zm1.5,1.5h1.5v-1.5h-1.5V21zm25.5-1.5h-1.5v1.5h-3v1.5h3V21h1.5v-1.5zm-1.5-3h1.5V18h-1.5v1.5h-3v-1.5h3V16.5zm-7.5-3H24v1.5h1.5v-1.5H24V10.5h-1.5v3zm9,12h-1.5v-3h1.5v3zM19.5,31.5h-1.5v-1.5h1.5v1.5zm-9,0h1.5v-3h-1.5v3zm3-6h1.5l0,1.5h1.5v1.5h-3v-1.5h-1.5v-1.5h1.5v0zm4.5,3h3v-1.5h-3v1.5zm-7.5-6h1.5V21h3v-1.5h-3v1.5h-1.5v1.5zm1.5,3h-1.5v-1.5h1.5V22.5h3V24h-3v1.5zm18-12h1.5v-3h-3v1.5h1.5v1.5zM16.5,31.5h-3v-1.5h3v1.5zm10.5-15v-3l-1.5,0v-1.5h3v3h1.5v1.5l-3,0zm-4.51,1.49h1.51v1.51l1.5,1.5v-4.5h-4.5l1.5,1.5zM19.5,15h0L18,13.5v0h1.5V12H21v3h-1.5v0zm-3-3v0h3v-1.5h-4.5v0h0l1.5,1.5zm-6-6v0l-1.5-1.5v0h4.5v1.5h-3z"/></svg>