<svg width="48" height="48" fill="none" xmlns="http://www.w3.org/2000/svg"><path d="m23.5,24.5v21.5" stroke="#000"/><path fill-rule="evenodd" clip-rule="evenodd" d="m14.5,22.5c0,1.1.9,2,2,2h14c1.1,0,2-.9,2-2V4.5c0-1.1-.9-2-2-2h-14c-1.1,0-2,.9-2,2V22.5z" stroke="#000"/><path fill-rule="evenodd" clip-rule="evenodd" d="m19.43,7.28v6.14h4.35c.65,0,1.17-.04,1.55-.12.39-.08.73-.21,1.04-.41.89-.55,1.33-1.41,1.33-2.55,0-1.17-.43-2.02-1.29-2.55-.31-.2-.66-.33-1.04-.41-.38-.07-.94-.11-1.67-.11h-4.28zm-1.43-1.23h6c.86,0,1.53.05,2.04.16.51.11.96.3,1.37.58,1.14.76,1.71,1.92,1.71,3.48,0,1.59-.55,2.77-1.66,3.55-.78.55-1.88.83-3.29.83h-4.75v6.39h-1.43V6.05z" fill="#000"/></svg>