<svg width="24" height="24" xmlns="http://www.w3.org/2000/svg"><path fill-rule="evenodd" clip-rule="evenodd" d="m5.46,4.46C5.18,4.74,5,5.22,5,6v5h14V6c0-.78-.18-1.26-.46-1.54C18.26,4.18,17.79,4,17,4H7c-.78,0-1.26.18-1.54.46zM5,18v-6h14V18H5zM4.76,3.76C5.3,3.21,6.08,3,7,3h10c.92,0,1.7.21,2.24.76C19.79,4.3,20,5.08,20,6v3h1v2h-1v10h-4V19H8v2H4V11H3V9h1V6c0-.92.21-1.7.76-2.24zM17,19H19v1h-2V19zM5,20V19h2v1H5zM7,5h10v1H7V5zM6,16c0-.55.45-1,1-1s1,.45,1,1c0,.55-.45,1-1,1s-1-.45-1-1zm11-1c-.55,0-1,.45-1,1,0,.55.45,1,1,1s1-.45,1-1c0-.55-.45-1-1-1zM14.4,14.5l-1.6-1.5h1.2l2,2-2,2h-1.2l1.6-1.5h-1.9V17h-1v-1.5H9.6L11.2,17H10l-2-2,2-2h1.2l-1.6,1.5h1.9V13h1v1.5h1.9z"/></svg>