<svg width="36" height="36" xmlns="http://www.w3.org/2000/svg"><path fill-rule="evenodd" clip-rule="evenodd" d="m21.56,7.5v-4.5h1v4.5h-1zm-5.5-2.96L30.27,18.75l-.35.35-.35-.35.35.35v0l0,0,0,0,0,0-.31.32c-.23.23-.61.61-1.18,1.18l-.17.17-.24-.03c-4.3-.5-6.5-.45-7.86-.06-1.17.34-1.75.92-2.62,1.81l0,0h0l0,0c-.11.12-.23.24-.36.36l-.35.35-.36-.36-.01-.01-.03-.03-.01-.01-.07-.07-.01-.01-.02-.02-.01-.01-.01-.01-.01-.01-.02-.02-.01-.01-.03-.03-.01-.01-.08-.08-.01-.01-.02-.02-.01-.01-.01-.01-.01-.01-.01-.01-.01-.01-.02-.02-.01-.01-.1-.1-.01-.01-.04-.04-.01-.01-.01-.01-.01-.01-.04-.04-.01-.01-.04-.04-.01-.01-.06-.06-.01-.01-.04-.04-.01-.01-.01-.01-.01-.01-.01-.01-.01-.01-.04-.04-.01-.01-.03-.03-.01-.01-.06-.06-.01-.01-.04-.04-.01-.01-.03-.03-.01-.01-.1-.1-.01-.01-.02-.02-.01-.01-.03-.03-.01-.01-.15-.15-.01-.01-.04-.04-.01-.01-.03-.03-.01-.01-.02-.02-.01-.01-.01-.01-.01-.01-.02-.02-.01-.01-.01-.01-.01-.01-.01-.01-.01-.01-.01-.01-.01-.01-.04-.04-.01-.01-.01-.01-.01-.01-.02-.02-.01-.01-.02-.02-.01-.01-.03-.03-.01-.01-.03-.03-.01-.01-.04-.04-.01-.01-.04-.05-.01-.01-.1-.1-.01-.01-.13-.14-.01-.01-.31-.31-.01-.01-.12-.12-.01-.01-.05-.05-.01-.01-.04-.04-.01-.01-.03-.03-.01-.01-.03-.03-.01-.01-.02-.02-.01-.01-.02-.02-.01-.01-.01-.01-.01-.01-.04-.04-.01-.01-.01-.01-.01-.01-.01-.01-.01-.01-.04-.04-.01-.01-.01-.01-.01-.01-.02-.02-.01-.01-.03-.03-.01-.01-.03-.03-.01-.01-.14-.14-.01-.01-.04-.04-.01-.01-.02-.02-.01-.01-.02-.02-.01-.01-.01-.01-.01-.01-.01-.01-.01-.01-.01-.01-.01-.01-.01-.01-.01-.01-.02-.02-.01-.01-.03-.03-.01-.01-.05-.05-.01-.01-.07-.07-.01-.01-.02-.02-.01-.01-.02-.02-.01-.01-.01-.01-.01-.01-.01-.01-.01-.01-.01-.01-.01-.01-.02-.02-.01-.01-.03-.03-.01-.01-.06-.06-.01-.01-.03-.03-.01-.01-.02-.02-.01-.01-.04-.04-.01-.01-.02-.02-.01-.01-.03-.03-.01-.01-.07-.07-.01-.01-.02-.02-.01-.01-.01-.01-.01-.01-.01-.01-.01-.01-.02-.02-.01-.01-.03-.03-.01-.01-.08-.08-.01-.01-.04-.04-.01-.01-.02-.02-.01-.01-.08-.08-.01-.01-.36-.36.35-.35c.13-.13.25-.24.36-.36.89-.87,1.47-1.45,1.81-2.62.39-1.37.44-3.56-.06-7.86l-.03-.24,2.02-2.02zM28.85,18.75,16.06,5.96l-.98.98c.47,4.15.45,6.46,0,8.01-.41,1.43-1.18,2.19-2.07,3.06l.02.02.01.01.04.04.01.01.06.06.01.01.13.13.01.01.06.06.01.01.03.03.01.01.04.03.01.01.01.01.01.01.01.01.01.01.04.04.01.01.13.13.01.01.03.03.01.01.04.04.01.01.04.04.01.01.02.02.01.01.02.02.01.01.04.04.01.01.13.13.01.01.04.04.01.01.12.12.01.01.01.01.01.01.01.01.01.01.08.08.01.01.02.02.01.01.11.11.01.01.05.04.01.01.09.09.01.01.24.24.01.01.2.2.01.01.13.13.01.01.05.05.01.01.04.04.01.01.03.03.01.01.05.05.01.01.1.1.01.01.1.1.01.01.03.03.01.01.03.03.01.01.15.15.01.01.06.06.01.01.18.18.01.01.06.06.01.01.09.09.01.01.01.01.01.01.01.01.01.01.04.04.01.01.11.11.01.01.04.04.01.01.01.01.01.01.21.21c.87-.88,1.63-1.66,3.06-2.07,1.55-.44,3.86-.47,8.01,0,.45-.45.77-.77.98-.98zm-18.79.79,9.71,9.71-3.71,3.71-4.5-4.5-1.5,1.5-5.21-5.21,5.21-5.21zm-3.79,5.21,3.79,3.79,1.5-1.5,4.5,4.5,2.29-2.29-8.29-8.29-3.79,3.79zM28.46,5.65l-4.5,4.5.71.71,4.5-4.5-.71-.71zm3.35,6.6h-4.5v1h4.5v-1z"/></svg>