<svg width="36" height="36" xmlns="http://www.w3.org/2000/svg"><path fill-rule="evenodd" clip-rule="evenodd" d="m7.76,10.3c.16-.03.32-.05.49-.05h.49v-1H8.25c-.23,0-.46.02-.68.07l.19.98zm1.95-.05h.98v-1h-.98v1zm1.95,0h.98v-1h-.98v1zm1.95,0h.98v-1h-.98v1zM15.56,10.25h.98v-1h-.98v1zm1.95,0h.98v-1h-.98v1zm1.95,0h.98v-1h-.98v1zm1.95,0h.98v-1h-.98v1zM23.36,10.25h.98v-1h-.98v1zm1.95,0h.98v-1h-.98v1zm1.95,0h.49c.17,0,.33.02.49.05l.19-.98c-.22-.04-.45-.07-.68-.07h-.49v1zM6.17,11.36c.18-.27.42-.51.69-.69l-.56-.83c-.38.26-.71.58-.96.97l.83.56zm22.97-.69c.27.18.51.42.69.69l.83-.56c-.26-.38-.58-.71-.97-.97l-.56.83zM5.75,12.75c0-.17.02-.33.05-.49l-.98-.19c-.04.22-.07.45-.07.68v.53h1v-.53zm24.45-.49c.03.16.05.32.05.49v.53h1v-.53c0-.23-.02-.46-.07-.68l-.98.19zM5.75,15.37v-1.05h-1v1.05h1zm24.5-1.05v1.05h1v-1.05h-1zm0,2.1v1.05h1v-1.05h-1zM5.75,17.47v-1.05h-1v1.05h1zm24.5,1.05v1.05h1v-1.05h-1zm-24.5,1.05v-1.05h-1v1.05h1zm0,2.1v-1.05h-1v1.05h1zm24.5-1.05v1.05h1v-1.05h-1zM5.75,23.25v-.53h-1v.53c0,.23.02.46.07.68l.98-.19c-.03-.16-.05-.32-.05-.49zm24.5-.52v.53c0,.17-.02.33-.05.49l.98.19c.04-.22.07-.45.07-.68v-.53h-1zM6.86,25.33c-.27-.18-.51-.42-.69-.69l-.83.56c.26.38.58.71.96.97l.56-.83zm22.97-.69c-.18.27-.42.51-.69.69l.56.83c.38-.26.71-.58.97-.97l-.83-.56zM8.25,25.75c-.17,0-.33-.02-.49-.05l-.19.98c.22.04.45.07.68.07h.49v-1H8.25zm19.99-.05c-.16.03-.32.05-.49.05h-.49v1h.49c.23,0,.46-.02.68-.07l-.19-.98zm-17.55.05h-.98v1h.98v-1zm1.95,0h-.98v1h.98v-1zm1.95,0h-.98v1h.98v-1zM16.54,25.75h-.98v1h.98v-1zm1.95,1v-1h-.98v1h.98zm1.95-1h-.98v1h.98v-1zm1.95,0h-.98v1h.98v-1zm1.95,0h-.98v1h.98v-1zm1.95,0h-.98v1h.98v-1zM25.25,15.25v-1.75h-1v1.75H22.5v1h1.75v1.75h1v-1.75H27v-1h-1.75zM15,16.25H9v-1h6v1zm-6,3h9v-1H9v1zm7.5,3H9v-1h7.5v1z"/></svg>