<svg width="24" height="24" xmlns="http://www.w3.org/2000/svg"><path fill-rule="evenodd" clip-rule="evenodd" d="m12,3c-4.97,0-9,4.03-9,9,0,4.97,4.03,9,9,9,4.97,0,9-4.03,9-9,0-4.97-4.03-9-9-9zM2,12C2,6.48,6.48,2,12,2c5.52,0,10,4.48,10,10,0,5.52-4.48,10-10,10C6.48,22,2,17.52,2,12zm10.43,4.08c.55,0,1-.18,1.35-.51.35-.34.52-.77.52-1.3,0-.54-.15-.97-.45-1.29-.3-.31-.77-.53-1.42-.65v3.75zm-.78-8.47c-.46.01-.82.11-1.08.29-.46.32-.69.78-.69,1.39,0,.47.14.85.43,1.12.29.28.73.46,1.34.57v-3.36zm-3.15,6.2h1.2c0,1.44.65,2.19,1.95,2.27v-3.92c-.72-.12-1.33-.34-1.83-.66-.76-.48-1.13-1.18-1.13-2.12,0-.8.27-1.45.8-1.95.54-.5,1.25-.78,2.16-.82v-1.27h.78v1.27c.9.07,1.58.34,2.04.79.5.49.75,1.14.74,1.94h-1.19c-.08-1.12-.6-1.7-1.59-1.73v3.55c.6.15,1.01.27,1.24.35s.44.18.64.31c.79.51,1.18,1.29,1.18,2.33,0,1.08-.44,1.9-1.32,2.46-.42.27-1,.43-1.74.47v1.56h-.78v-1.56c-1.06-.07-1.85-.38-2.36-.95-.53-.59-.79-1.36-.79-2.32zm.29-9.15C6.61,5.63,4.95,7.53,4.3,9.87l.96.27c.57-2.04,2.02-3.71,3.94-4.55l-.4-.92z"/></svg>