<svg width="36" height="36" xmlns="http://www.w3.org/2000/svg"><path fill-rule="evenodd" clip-rule="evenodd" d="m22.25,3.52v-.52h-1v.52h1zm0,2.08V4.56h-1v1.04h1zm0,2.08V6.65h-1V7.69h1zm0,2.08V8.73h-1v1.04h1zm0,2.08v-1.04h-1v1.04h1zM22.25,13.94v-1.04h-1v1.04h1zm0,2.08v-1.04h-1v1.04h1zm0,2.08v-1.04h-1v1.04h1zm0,2.08v-1.04h-1v1.04h1zM22.25,21.75v-.52h-1v.02h-.02v1H22.25v-.5zm-19.25.5h.52v-1H3v1zm1.56,0h1.04v-1H4.56v1zm2.08,0H7.69v-1H6.65v1zm2.08,0h1.04v-1H8.73v1zm2.08,0h1.04v-1h-1.04v1zm2.08,0h1.04v-1h-1.04v1zm2.08,0h1.04v-1h-1.04v1zM17.06,22.25h1.04v-1h-1.04v1zm2.08,0h1.04v-1h-1.04v1zm5.1,2H30v1h-4.04l5.9,5.9-.71.71L25.25,25.96v4.04h-1v-5.75z"/></svg>