<svg width="48" height="48" xmlns="http://www.w3.org/2000/svg"><path fill-rule="evenodd" clip-rule="evenodd" d="m8,12.5c0-.83.67-1.5,1.5-1.5.83,0,1.5.67,1.5,1.5S10.33,14,9.5,14c-.83,0-1.5-.67-1.5-1.5zM9.5,10C8.12,10,7,11.12,7,12.5S8.12,15,9.5,15c1.38,0,2.5-1.12,2.5-2.5S10.88,10,9.5,10zm17,15h-.45l-1.05,9.44.99.11.17-1.55h.83v7h1v-7h3v7h1v-7h.83l.17,1.55.99-.11L32.95,25H26.5zm6.22,7L32.05,26h-5.11l-.67,6h6.44zM7,28v12h1V28h3v12h1V28H13V29.5h1V17H5v12.5h1v-1.5h1zm6-1V18H6v9h7zm16.5-8c-.83,0-1.5.67-1.5,1.5,0,.83.67,1.5,1.5,1.5.83,0,1.5-.67,1.5-1.5,0-.83-.67-1.5-1.5-1.5zM27,20.5c0-1.38,1.12-2.5,2.5-2.5,1.38,0,2.5,1.12,2.5,2.5,0,1.38-1.12,2.5-2.5,2.5-1.38,0-2.5-1.12-2.5-2.5zM36.05,25h6.9l1.05,9.44-.99.11-.17-1.55h-.83v7h-1v-7h-3v7h-1v-7h-.83l-.17,1.55-.99-.11L36.05,25zm6,1,.67,6h-6.44L36.95,26h5.1zm-4.05-5.5c0-.83.67-1.5,1.5-1.5.83,0,1.5.67,1.5,1.5,0,.83-.67,1.5-1.5,1.5-.83,0-1.5-.67-1.5-1.5zm1.5-2.5c-1.38,0-2.5,1.12-2.5,2.5,0,1.38,1.12,2.5,2.5,2.5,1.38,0,2.5-1.12,2.5-2.5,0-1.38-1.12-2.5-2.5-2.5zM16.5,25h-.45l-1.05,9.44.99.11.17-1.55h.83v7h1v-7h3v7h1v-7h.83l.17,1.55.99-.11L22.95,25H16.5zm6.22,7L22.05,26h-5.1l-.67,6h6.44zM19.5,19c-.83,0-1.5.67-1.5,1.5,0,.83.67,1.5,1.5,1.5.83,0,1.5-.67,1.5-1.5,0-.83-.67-1.5-1.5-1.5zM17,20.5c0-1.38,1.12-2.5,2.5-2.5,1.38,0,2.5,1.12,2.5,2.5,0,1.38-1.12,2.5-2.5,2.5-1.38,0-2.5-1.12-2.5-2.5z"/></svg>