<svg width="36" height="36" xmlns="http://www.w3.org/2000/svg"><path fill-rule="evenodd" clip-rule="evenodd" d="m18,5.75c-6.79,0-12.25,5.46-12.25,12.25,0,6.79,5.46,12.25,12.25,12.25s12.25-5.46,12.25-12.25c0-6.79-5.46-12.25-12.25-12.25zm-13.25,12.25c0-7.35,5.9-13.25,13.25-13.25s13.25,5.9,13.25,13.25c0,7.34-5.9,13.25-13.25,13.25s-13.25-5.91-13.25-13.25zm11.94,8.99h2.6v-2.5h-2.6v2.5zM13.47,11.37c-.53.82-.82,1.97-.88,3.46h2.07c.17-2.63,1.32-3.94,3.46-3.94,1.03,0,1.81.33,2.34,1,.44.54.66,1.22.66,2.02,0,.43-.08.86-.23,1.27-.18.49-.57,1.04-1.17,1.65-.92.95-1.52,1.59-1.78,1.93-.27.35-.47.73-.62,1.17-.2.59-.31,1.5-.32,2.73h2.04c0-.69.04-1.25.12-1.68.07-.43.2-.8.38-1.09.18-.29.5-.66.96-1.1,1.03-1.01,1.69-1.7,1.96-2.08.61-.83.91-1.81.91-2.96,0-1.39-.45-2.5-1.35-3.35-.96-.92-2.25-1.38-3.88-1.38-1.01,0-1.92.2-2.73.61-.81.41-1.46.99-1.95,1.74z"/></svg>