<svg width="24" height="24" xmlns="http://www.w3.org/2000/svg"><path fill-rule="evenodd" clip-rule="evenodd" d="m7,6c0-1.72,1.13-3,2.5-3,1.37,0,2.5,1.28,2.5,3s-1.13,3-2.5,3c-1.37,0-2.5-1.28-2.5-3zm2.5-4c-2.08,0-3.5,1.9-3.5,4,0,.99.31,1.93.86,2.65C4.31,10.73,3.09,13.63,3,17.49l-.01.51h7.01v-1H4.02c.18-3.4,1.32-5.86,3.55-7.64C8.11,9.76,8.76,10,9.5,10c.73,0,1.38-.23,1.91-.62,1.01.76,1.73,1.64,2.22,2.59l.89-.46c-.55-1.05-1.33-2.01-2.39-2.84.55-.72.87-1.67.87-2.67,0-2.1-1.42-4-3.5-4zm4.5,13.5c0-1.4,1.1-2.5,2.5-2.5s2.5,1.1,2.5,2.5-1.1,2.5-2.5,2.5-2.5-1.1-2.5-2.5zm2.5-3.5c-1.95,0-3.5,1.55-3.5,3.5,0,.16.01.31.03.46L10,19.05v2.95h2.96l3.07-3.03c.15.02.31.03.47.03,1.95,0,3.5-1.55,3.5-3.5s-1.55-3.5-3.5-3.5zm-1.56,6.64c-.69-.34-1.24-.9-1.58-1.58l-2.36,2.4v1.55h1.54l2.39-2.36zM16.5,15c-.29,0-.5.21-.5.5,0,.29.21.5.5.5.29,0,.5-.21.5-.5,0-.29-.21-.5-.5-.5zm-1.5.5c0-.84.66-1.5,1.5-1.5.84,0,1.5.66,1.5,1.5,0,.84-.66,1.5-1.5,1.5-.84,0-1.5-.66-1.5-1.5z"/></svg>