<svg width="24" height="24" xmlns="http://www.w3.org/2000/svg"><path fill-rule="evenodd" clip-rule="evenodd" d="m13,5.5c0-.26.24-.5.5-.5s.5.24.5.5-.24.5-.5.5-.5-.24-.5-.5zm.5-1.5c-.81,0-1.5.69-1.5,1.5S12.69,7,13.5,7,15,6.31,15,5.5,14.31,4,13.5,4zm-1.21,4h2.52l1.12,2.24,1.47,1.96-.8.6-1.53-2.04L15,10.62v2.85l1,1.91V20h-1v-4.38l-.8-1.53H13v2.44l-.51,3.54-.99-.14L12,16.46V9.71l-1,1V13h-1v-2.71L12.29,8zM13,13.09V9h1v4.09h-1zm-2.93.25-.75,1.85-1.85-.75-1.5,3.71,2.27.93c-.05-.01-.1-.02-.15-.02-.2,0-.39.12-.46.31-.1.26.02.55.28.65.06.02.13.04.19.04.2,0,.39-.12.46-.31.1-.24-.01-.51-.23-.63l.42.17,2.25-5.57-.93-.37zm-2.05,2.4.93.38-.75,1.86-.93-.38.75-1.86zm-1.78,2.56c-.2,0-.39.12-.46.31-.1.26.02.55.28.65.06.03.13.04.19.04.2,0,.39-.12.46-.31.1-.26-.02-.55-.28-.65-.06-.02-.13-.04-.19-.04z"/></svg>