<svg width="36" height="36" xmlns="http://www.w3.org/2000/svg"><path fill-rule="evenodd" clip-rule="evenodd" d="m6.53,4.8c.44-.92,1.38-1.55,2.47-1.55.71,0,1.36.27,1.85.72l-.67.74c-.31-.28-.72-.46-1.18-.46-.8,0-1.48.55-1.68,1.29l-.15.54L6.65,5.88c-.2-.08-.42-.13-.65-.13-.97,0-1.75.78-1.75,1.75h-1c0-1.52,1.23-2.75,2.75-2.75.18,0,.36.02.53.05zM3.75,10.75h-.5v20.5h28V13.21l-7.5,6v-6l-7.5,6v-6l-7.5,6v-8.46h-5zm.5,19.5v-18.5h3.5v9.54l7.5-6v6l7.5-6v6l7.5-6v14.96h-26zm4-6h-.5v2.5h4v-2.5h-3.5zm.5,1.5v-.5h2v.5h-2zm6.5-1.5h4v2.5h-4v-2.5zm1,1v.5h2v-.5h-2zm7-1h-.5v2.5h4v-2.5h-3.5zm.5,1.5v-.5h2v.5h-2zM13.5,4.75c-1.09,0-2.02.64-2.47,1.55-.17-.03-.35-.05-.53-.05-1.52,0-2.75,1.23-2.75,2.75h1c0-.97.78-1.75,1.75-1.75.23,0,.45.05.65.13l.52.21.15-.54c.2-.75.88-1.29,1.68-1.29.97,0,1.75.78,1.75,1.75h1c0-1.52-1.23-2.75-2.75-2.75z"/></svg>