<svg width="36" height="36" xmlns="http://www.w3.org/2000/svg"><path fill-rule="evenodd" clip-rule="evenodd" d="m3.25,6.25h29.5v7h-.5c-2.27,0-4,1.73-4,4,0,2.27,1.73,4,4,4h.5v7H3.25V6.25zm1,1V27.25h27.5v-5.02c-2.58-.24-4.5-2.32-4.5-4.98s1.92-4.74,4.5-4.98V7.25H4.25zm6.25,3c-.97,0-1.75.78-1.75,1.75,0,.97.78,1.75,1.75,1.75.97,0,1.75-.78,1.75-1.75,0-.97-.78-1.75-1.75-1.75zm-2.75,1.75c0-1.52,1.23-2.75,2.75-2.75,1.52,0,2.75,1.23,2.75,2.75,0,1.52-1.23,2.75-2.75,2.75-1.52,0-2.75-1.23-2.75-2.75zM14.75,22.5c0-.97.78-1.75,1.75-1.75.97,0,1.75.78,1.75,1.75,0,.97-.78,1.75-1.75,1.75-.97,0-1.75-.78-1.75-1.75zm1.75-2.75c-1.52,0-2.75,1.23-2.75,2.75,0,1.52,1.23,2.75,2.75,2.75,1.52,0,2.75-1.23,2.75-2.75,0-1.52-1.23-2.75-2.75-2.75zm4.1-8.9-13.5,13.5-.71-.71,13.5-13.5.71.71zM24.25,7.5v.49h1v-.49h-1zm0,1.46v.98h1v-.98h-1zm0,1.95v.98h1v-.98h-1zm0,1.95v.98h1v-.98h-1zm0,1.95v.98h1v-.98h-1zm0,1.95v.98h1v-.98h-1zm0,1.95v.98h1v-.98h-1zm0,1.95v.98h1v-.98h-1zm0,1.95v.98h1v-.98h-1zm0,1.95v.98h1v-.98h-1zM24.25,26.51v.49h1v-.49h-1z"/></svg>