<svg width="36" height="36" xmlns="http://www.w3.org/2000/svg"><path fill-rule="evenodd" clip-rule="evenodd" d="m15.75,7h-.5v2.25H12c-1.35,0-2.44.31-3.19,1.06C8.06,11.06,7.75,12.15,7.75,13.5v1.75H6v1h1.75v12h5.5V25.25h9.5l0,3H28.25V16.25H30v-1h-1.75V13.5c0-1.35-.31-2.44-1.06-3.19C26.44,9.56,25.35,9.25,24,9.25h-3.25V7h-5zm4,2.25V8h-3.5v1.25h3.5zM9.52,11.02C9.03,11.51,8.75,12.29,8.75,13.5v3.25h9.54c.24-1.7,1.7-3,3.46-3s3.22,1.3,3.46,3H27.25V13.5c0-1.21-.28-1.99-.77-2.48S25.21,10.25,24,10.25H12c-1.21,0-1.99.28-2.48.77zM8.75,24.25v-6.5h18.5V24.25H8.75zm15,1H27.25v2h-3.5l0-2zm-15,0h3.5v2h-3.5V25.25zm15.45-8.5c-.23-1.14-1.24-2-2.45-2s-2.22.86-2.45,2h4.9zM10.75,21c0-.69.56-1.25,1.25-1.25s1.25.56,1.25,1.25c0,.69-.56,1.25-1.25,1.25s-1.25-.56-1.25-1.25zm1.25-.25c-.14,0-.25.11-.25.25,0,.14.11.25.25.25s.25-.11.25-.25c0-.14-.11-.25-.25-.25zm12-1c-.69,0-1.25.56-1.25,1.25,0,.69.56,1.25,1.25,1.25s1.25-.56,1.25-1.25c0-.69-.56-1.25-1.25-1.25zm-.25,1.25c0-.14.11-.25.25-.25s.25.11.25.25c0,.14-.11.25-.25.25s-.25-.11-.25-.25z"/></svg>