<svg width="48" height="48" xmlns="http://www.w3.org/2000/svg"><path fill-rule="evenodd" clip-rule="evenodd" d="m12.5,4c-.83,0-1.5.67-1.5,1.5V9h3V5.5c0-.83-.67-1.5-1.5-1.5zM10,5.5V9H4v9h6v8H4v9h6V43h5v-8h18V43h5v-8h6v-9H38V18h6V9h-6V5.5c0-1.38-1.12-2.5-2.5-2.5s-2.5,1.12-2.5,2.5V9H15V5.5C15,4.12,13.88,3,12.5,3S10,4.12,10,5.5zM37,18h-3v8h3V18zm-4,0v8H15V18h18zm4-9V5.5c0-.83-.67-1.5-1.5-1.5s-1.5.67-1.5,1.5V9h3zM11,18v8h3V18h-3zm-6-1v-7h9.79l-7,7H5zm13.79-7h-2.59l-7,7h2.59l7-7zm1.41,0h13.59l-7,7H13.21l7-7zm17.59,0h-2.59l-7,7h2.59l7-7zm1.41,0h3.79v7h-10.79l7-7zM37,35h-3V42h3v-7zM11,42v-7h3V42h-3zm.29-15L5,33.29v-6.29h6.29zm-5.59,7,7-7h2.59l-7,7H5.71zm4,0h8.59l7-7h-8.59l-7,7zm19.59-7h-2.59l-7,7h2.59l7-7zM30.71,27h9.59l-7,7h-9.59l7-7zm12.29,0h-1.29l-7,7h2.59l5.71-5.71v-1.29zm0,2.71-4.29,4.29h4.29V29.71z"/></svg>