<svg width="24" height="24" xmlns="http://www.w3.org/2000/svg"><path fill-rule="evenodd" clip-rule="evenodd" d="m12,5.02c-1.34.09-2.57.52-3.63,1.22l.55.84c1.03-.67,2.25-1.07,3.57-1.07,3.6,0,6.5,2.9,6.5,6.5,0,1.32-.39,2.55-1.07,3.57l.84.55c.69-1.05,1.13-2.29,1.22-3.63h2.02v-1h-2.02c-.25-3.75-3.23-6.73-6.98-6.98V3h-1v2.02zM3,12h2.02c.11-1.7.78-3.24,1.83-4.44L4.72,5.43l.71-.71L20.28,19.57l-.71.71-2.13-2.13c-1.2,1.05-2.74,1.72-4.44,1.83v2.02h-1v-2.02c-3.75-.24-6.74-3.23-6.99-6.98H3v-1zm13.73,5.44-1.42-1.42c-.77.62-1.75.98-2.81.98-2.49,0-4.5-2.01-4.5-4.5,0-1.06.37-2.04.98-2.81L7.56,8.27c-.97,1.14-1.56,2.61-1.56,4.23,0,3.6,2.9,6.5,6.5,6.5,1.62,0,3.1-.59,4.23-1.56zm-7.04-7.04c-.44.58-.7,1.31-.7,2.1,0,1.93,1.57,3.5,3.5,3.5.79,0,1.51-.26,2.1-.7l-4.9-4.9zm2.8-1.4c-.51,0-.99.11-1.44.31l-.41-.91c.56-.25,1.18-.4,1.85-.4,2.49,0,4.5,2.01,4.5,4.5,0,.66-.15,1.28-.4,1.85l-.91-.41c.2-.44.32-.93.32-1.43,0-1.93-1.57-3.5-3.5-3.5z"/></svg>