<svg width="24" height="24" xmlns="http://www.w3.org/2000/svg"><path fill-rule="evenodd" clip-rule="evenodd" d="m20,5.08c.43.15.77.49.92.92H22v2h-1l21,8.62L40.81,19H13.89c-.17,1.07-.52,1.89-.97,2.49-.51.69-1.14,1.09-1.75,1.32-.6.22-1.17.26-1.59.25-.05,0-.1,0-.15-.01l-.43,3.48c-.02.81-.68,1.47-1.5,1.47h-2c-.83,0-1.5-.67-1.5-1.5v-.03l.93-7.47-.43,0H4.5c-.83,0-1.5-.67-1.5-1.5V7H2V6h1.09c.21-.58.76-1,1.41-1H19V4h1v1.08zM12.87,11h-2.87c0,.55.45,1,1,1v1c-.47,0-.91-.17-1.25-.44l-.19,1.51c.02,0,.03,0,.05,0,.33.01.77-.03,1.22-.19.44-.16.9-.45,1.29-.97.32-.43.6-1.04.76-1.9zM4.5,6c-.28,0-.5.22-.5.5V8h16l0-1.5v0C20,6.22,19.78,6,19.5,6H4.5zM4,9.5V9h15.69l-.5,1H9.06L8,18.47v.03c0,.28-.22.5-.5.5h-2c-.27,0-.49-.21-.5-.47l1.07-8.53,4.5,10c-.28,0-.5-.22-.5-.5z"/></svg>