<svg width="24" height="24" xmlns="http://www.w3.org/2000/svg"><path fill-rule="evenodd" clip-rule="evenodd" d="m1.86,8.37C4.41,5.68,8,4,12,4c4,0,7.59,1.68,10.14,4.37l-.72.69c-2.37-2.49-5.71-4.06-9.42-4.06-3.71,0-7.05,1.56-9.42,4.06l-.72-.69zM12,17c-.55,0-1,.45-1,1s.45,1,1,1,1-.45,1-1-.45-1-1-1zm-2,1c0-1.1.89-2,2-2s2,.9,2,2-.89,2-2,2-2-.9-2-2zm2-11c-3.14,0-5.97,1.32-7.97,3.43l.73.69c1.82-1.92,4.39-3.12,7.24-3.12,2.85,0,5.42,1.2,7.24,3.12l.73-.69c-2-2.11-4.83-3.43-7.97-3.43zm-5.79,5.5c1.46-1.53,3.51-2.5,5.8-2.5,2.28,0,4.34.96,5.79,2.49l-.72.69c-1.28-1.34-3.07-2.18-5.07-2.18-2,0-3.8.84-5.07,2.19l-.73-.69zm5.79.5c-1.43,0-2.71.61-3.62,1.56l.72.69c.73-.77,1.75-1.25,2.89-1.25,1.14,0,2.16.48,2.89,1.25l.73-.69c-.91-.96-2.19-1.56-3.62-1.56z"/></svg>