<svg width="24" height="24" xmlns="http://www.w3.org/2000/svg"><path fill-rule="evenodd" clip-rule="evenodd" d="m13,7.5c0-1.96,1.55-3.5,3.5-3.5,1.96,0,3.5,1.54,3.5,3.5,0,1.96-1.54,3.5-3.5,3.5-1.95,0-3.5-1.54-3.5-3.5zm3.5-4.5c-2.51,0-4.5,1.99-4.5,4.5,0,2.51,1.99,4.5,4.5,4.5,2.51,0,4.5-1.99,4.5-4.5,0-2.51-1.99-4.5-4.5-4.5zm.39,5.31,1.9-2.4-.78-.62-1.57,1.98-1.5-1.35-.67.75,2.29,2.05.33-.42zM12,15.01h9V21h-9v-5.99zm1,1V20h7v-3.99h-7zm2-1h3v-1h-3v1zM5.5,6c-.28,0-.5.22-.5.5,0,.28.22.5.5.5s.5-.22.5-.5c0-.28-.22-.5-.5-.5zm-1.5.5c0-.83.67-1.5,1.5-1.5.83,0,1.5.67,1.5,1.5,0,.83-.67,1.5-1.5,1.5s-1.5-.67-1.5-1.5zm-.5,2.5h-.5v6h1v6h3v-6h1V9h-4.5zm1,5h-.5V10h3v4h-1v6h-1v-6h-.5z"/></svg>