<svg width="36" height="36" xmlns="http://www.w3.org/2000/svg"><path fill-rule="evenodd" clip-rule="evenodd" d="m3.75,4.75h-.5V19.25h4.5v4.19l4.5-4.5V29.75h11.86l4.14,4.14V29.75h4.5v-14.5h-9V4.75h-20zm19,10.5V5.75H4.25V18.25h4.5v2.77l3.5-3.5V15.25h10.5zm-9.5,1h18.5v12.5h-4.5v2.73L24.52,28.75H13.25v-12.5zM6,9.25h15v1H6v-1zm12,3H6v1h12v-1zm-3,7.5h15v1H15v-1zm15,3H15v1h15v-1zm-26.75,6.5V22.5h1v6.25h3.98L6.43,26.95l.71-.71,3.01,3.01-3.01,3-.71-.71L8.23,29.75H3.25v-.5zm24.52-21.5H32.75v5.75h-1V8.75h-3.98l1.8,1.8-.71.71-3.01-3.01,3.01-3,.71.71L27.77,7.75z"/></svg>