<svg width="36" height="36" xmlns="http://www.w3.org/2000/svg"><path fill-rule="evenodd" clip-rule="evenodd" d="m11.75,3.75v-.61l-8.5,1.7V33h1v-6.25h6.5v6.25h1v-3.25h11v3.25h1v-3.25h8v3.25h1v-20.75h-9V6.25h-12v-2.5zm12,9.5v15.5h8V13.25h-8zm-13-6.5V25.75h-6.5V5.66l6.5-1.3v2.39zm12,22h-11V7.25h11V28.75zM9,7.75H6v1h3v-1zm11.75,5.75v-3h-1v3h1zm6,3v3h-1v-3h1zm0,6v3h-1v-3h1zm3,3v-3h-1v3h1zm0-9v3h-1v-3h1zm-9,9v-3h-1v3h1zm0-9v3h-1v-3h1zm-3,6v3h-1v-3h1zm0-3v-3h-1v3h1zm0-9v3h-1v-3h1zm-3,15v-3h-1v3h1zm0-9v3h-1v-3h1zm0-3v-3h-1v3h1zM6,12.25h3v1H6v-1zm0,4.5h3v1H6v-1zm3,4.5H6v1h3v-1z"/></svg>