<svg width="24" height="24" xmlns="http://www.w3.org/2000/svg"><path fill-rule="evenodd" clip-rule="evenodd" d="m6,8.01c0-3.31,2.69-6,6-6,3.31,0,6,2.69,6,6v0c-.01,1.01-.33,1.9-.8,2.73l-.01.01-5.18,8.18-5.17-8.17-.01-.01,0,0c-.49-.81-.8-1.68-.84-2.72L6,8.02v-.01zm1.56,1.99c.04.08.09.16.13.24l4.32,6.83,4.32-6.82c.05-.08.09-.17.14-.25h-2.28l-.63-1.24L11.9,13.18l-1.5-6,9.35,10H7.56zm-.4-1h1.5l1.94-5.18,1.5,6,1.34-3.57,1.37,2.74h2.06c.08-.32.13-.64.13-.98,0-2.76-2.24-5-5-5-2.76,0-4.99,2.23-5,4.99.01.35.07.68.15,1zM4.07,16.3c1.18-.52,2.81-.91,4.68-1.12l.11.99c-1.81.21-3.33.58-4.39,1.04-.53.23-.91.48-1.16.72C3.07,18.17,3,18.36,3,18.5c0,.18.12.44.54.76.42.31,1.05.61,1.88.88,1.66.53,3.98.86,6.57.86,2.6,0,4.92-.33,6.57-.86.83-.26,1.47-.57,1.88-.88.43-.32.54-.58.54-.76,0-.14-.07-.33-.31-.56-.24-.23-.62-.48-1.14-.71-1.04-.46-2.54-.84-4.33-1.05l.12-.99c1.85.22,3.46.61,4.62,1.13.58.26,1.07.56,1.43.91.36.35.61.78.61,1.28,0,.64-.41,1.17-.94,1.56-.54.41-1.29.75-2.18,1.03-1.78.56-4.21.91-6.88.91-2.67,0-5.1-.34-6.88-.91-.89-.28-1.64-.63-2.18-1.03C2.41,19.66,2,19.14,2,18.5c0-.5.26-.94.62-1.29.36-.35.86-.65,1.45-.91z"/></svg>