<svg width="36" height="36" xmlns="http://www.w3.org/2000/svg"><path fill-rule="evenodd" clip-rule="evenodd" d="m10.75,10.76H6.25v5.72c-.06,1.1.56,2.08,1.5,2.52v10.72l20.5.03V19.2c.78-.41,1.34-1.19,1.45-2.12.02-.2.03-.41,0-.61v-5.71H25.25V6h-1v4.76h-3.5V6h-1v4.76h-3.5V6h-1v4.76h-3.5V6h-1v4.76zm16.5,8.75c-.2.02-.4.02-.61,0-1.51-.17-2.59-1.53-2.43-3.04v-.34c-.13-.95-.99-1.63-1.95-1.52l0,0c-1,.11-1.66.9-1.55,1.83.03.21.03.43,0,.64-.18,1.52-1.55,2.6-3.06,2.43-1.5-.17-2.59-1.53-2.43-3.03-.02-.94-.79-1.72-1.7-1.71l-.02,0-.02,0c-.06,0-.12,0-.19,0-.93.04-1.65.83-1.61,1.76l0,.03,0,.03c-.1,1.36-1.26,2.71-2.74,2.67-.05,0-.11,0-.17,0v3.49H27.25v-3.22zm0,4.22H8.75v2H27.25v-2zm0,3H8.75v1.99l18.5.03V26.74zM8.69,19.25c0,0,0,0,0,0l.03-.5-.03.5h0zm-1.44-7.48v4.75l0,.02c-.06.89.62,1.66,1.51,1.72l0,0c.04,0,.09,0,.15,0l.01,0,.01,0c.83.03,1.63-.77,1.72-1.72-.05-1.47,1.1-2.71,2.57-2.77l0,0c.09,0,.18,0,.28,0,1.49,0,2.68,1.27,2.69,2.73l0,.03,0,.03c-.11.97.58,1.84,1.55,1.96.97.11,1.84-.58,1.96-1.55l0,0c.02-.13.02-.27,0-.4l0,0c-.18-1.55.94-2.77,2.43-2.94,1.52-.18,2.89.91,3.06,2.43l0,.03v.46l0,.03c-.11.97.58,1.84,1.55,1.96h0c.97.11,1.84-.58,1.96-1.55l0,0c.02-.13.02-.27,0-.4l0-.03v-4.77H7.25z"/></svg>