<svg width="48" height="48" xmlns="http://www.w3.org/2000/svg"><path fill-rule="evenodd" clip-rule="evenodd" d="m18,9H9v1h2.19L12.69,13H9.74c-1.49,0-2.7.38-3.53,1.23-.83.84-1.2,2.06-1.2,3.55V33H8.25l-.83,2h-.92v1H7l-.83,2H5v1H22v-1h-1.17L20,36h.5v-1h-.92l-.83-2h3.25V17.77c0-1.49-.37-2.71-1.2-3.55C19.97,13.38,18.76,13,17.26,13H14.31l1.5-3H18V9zm-3.31,1h-2.38L13.5,12.38l1.19-2.38zM18.5,35l-.83-2H9.33L8.5,35h10zM6,17.77c0-1.34.33-2.26.91-2.85C7.49,14.34,8.4,14,9.74,14h7.53c1.33,0,2.24.34,2.82.93.58.59.91,1.51.91,2.85V24H6v-6.23zm0,14.23H21v-7H6v7zM10,17v-1h7v1h-7zm.5,11c-.28,0-.5.22-.5.5,0,.28.22.5.5.5s.5-.22.5-.5c0-.28-.22-.5-.5-.5zm-1.5.5c0-.83.67-1.5,1.5-1.5.83,0,1.5.67,1.5,1.5,0,.83-.67,1.5-1.5,1.5-.83,0-1.5-.67-1.5-1.5zM7.25,38l.83-2H18.92l.83,2H7.25zM16,28.5c0-.28.22-.5.5-.5.28,0,.5.22.5.5,0,.28-.22.5-.5.5-.28,0-.5-.22-.5-.5zm.5-1.5c-.83,0-1.5.67-1.5,1.5,0,.83.67,1.5,1.5,1.5.83,0,1.5-.67,1.5-1.5,0-.83-.67-1.5-1.5-1.5zM26,12.5c-1.11,0-2,.89-2,2V39h4V14.5c0-1.11-.9-2-2-2zm-1,2c0-.55.45-1,1-1,.55,0,1,.45,1,1V38h-2V14.5zm5,0c0-1.11.9-2,2-2,1.11,0,2,.89,2,2V39h-4V14.5zm2-1c-.55,0-1,.45-1,1V38h2V14.5c0-.55-.45-1-1-1zm6.41,23.63-.96-.17L39.5,26.05l2.05,10.91-.96.17.17.98.97-.17.19.99.98-.18-.18-.98,1-.18-.17-.98-1.01.18-2.52-13.44,1.15-6.1.97.18.56-3-.97-.18.18-.98-.98-.18L39.5,20.63l-1.42-7.55-.98.18.18.98-.97.18.56,3,.97-.18,1.14,6.1-2.52,13.44-1.01-.18-.17.98,1,.18-.18.98.98.18.19-.99.97.17.17-.98z"/></svg>