<svg width="24" height="24" xmlns="http://www.w3.org/2000/svg"><path fill-rule="evenodd" clip-rule="evenodd" d="m5.5,4H5v4H4v1h1v3H4v1h1v3H4v1h1v3h14V4H5.5zM6,17v2h12V5H6v3h1v1H6v3h1v1H6v3h1v1H6zm6-9c-.45,0-1,.51-1,1.5,0,.47.14.86.33,1.12.19.26.43.38.67.38.45,0,1-.5,1-1.49,0-.47-.14-.86-.33-1.13-.19-.26-.43-.38-.67-.38zm-2,1.5c0-1.25.75-2.5,2-2.5.61,0,1.13.32,1.47.79C13.81,8.25,14,8.86,14,9.51c0,.38-.07.75-.2,1.1,1.34.92,2.2,2.81,2.2,4.9v.5H8v-.5c0-2.09.85-3.97,2.2-4.89C10.07,10.27,10,9.89,10,9.5zm.73,1.95c-.89.64-1.59,1.93-1.71,3.55h5.96c-.12-1.62-.82-2.91-1.71-3.54-.33.33-.76.54-1.27.54-.5,0-.94-.22-1.27-.55z"/></svg>