<svg width="24" height="24" xmlns="http://www.w3.org/2000/svg"><path fill-rule="evenodd" clip-rule="evenodd" d="m11.5,2.0079c-3.03714,0-5.5,2.46286-5.5,5.5,0,.20908.01242.41437.03582.6159C3.74073,8.57286,2,10.5753,2,13.0079c0,2.7611,2.23886,5,5,5h4.0002V21H2.00024v1H22.0002v-1h-10v-2.9921H18c2.2091,0,4-1.7909,4-4,0-1.1909-.5237-2.2557-1.3468-2.9861.2214-.4577.3468-.9707.3468-1.5139,0-1.93314-1.5669-3.5-3.5-3.5-.2433,0-.4786.02684-.7045.07525C16.1686,3.74024,14.0452,2.0079,11.5,2.0079zm.5002,15H18c1.6569,0,3-1.3431,3-3,0-1.0127-.5056-1.9066-1.2796-2.451l-.3962-.2787.2659-.4048c.2589-.3943.4099-.8615.4099-1.3655,0-1.38086-1.1191-2.5-2.5-2.5-.3129,0-.6134.06374-.8984.17485l-.5775.22515-.0978-.61206C15.583,4.64885,13.7377,3.0079,11.5,3.0079c-2.48486,0-4.5,2.01514-4.5,4.5,0,.31931.03574.63016.1009.93424l.11868.55384-.56428.04904C4.60635,9.22311,3,10.9216,3,13.0079c0,2.2089,1.79114,4,4,4h4.0002v-3.7676l-2.3123-1.8499.62469-.7808,1.68761,1.3501V9h1v5.6693l2.6238-2.9986.7525.6586-3.3763,3.8586v.82z"/></svg>