<svg width="24" height="24" xmlns="http://www.w3.org/2000/svg"><path fill-rule="evenodd" clip-rule="evenodd" d="m7.33983,3.71405c-.39639-.06607-.71992-.13919-.96484-.21403.24488-.07483.56839-.14792.96479-.21395,1.05125-.1751,2.52246-.28583,4.16022-.28583,1.6378,0,3.109.11073,4.1602.28583.3964.06603.7199.13912.9648.21395-.2449.07484-.5684.14796-.9648.21403-1.0513.17523-2.5225.28619-4.1602.28619s-3.1089-.11096-4.16017-.28619zm8.48477.98639c.4516-.07527.8524-.165,1.1754-.27022v5.07002c0,.05701-.0343.19108-.281.3855-.2411.18996-.6209.38286-1.1348.55416-1.0224.3409-2.4665.5603-4.0842.5603-1.61767,0-3.06181-.2194-4.08424-.5603-.51384-.1713-.89364-.3642-1.13472-.55416C6.03427,9.69132,6,9.55725,6,9.50024V4.43022c.32298.10522.72383.19495,1.17542.27022,1.12048.18677,2.64928.2998,4.32458.2998s3.2041-.11303,4.3246-.2998zM18,9.50024v-6c0-.28731-.1751-.4826-.3061-.58934-.1371-.11174-.3088-.19707-.4822-.26538-.3516-.13858-.8309-.2532-1.3872-.34586-1.1205-.18664-2.6493-.29942-4.3245-.29942-1.67524,0-3.20403.11278-4.32453.29942-.55623.09266-1.03553.20728-1.38718.34586-.17334.06831-.3451.15364-.48222.26538C5.17509,3.01764,5,3.21293,5,3.50024v6c0,.49499.30161.88696.66218,1.17096.26934.2122.61047.3971.99963.556.27248.6854.90222,1.2269,1.65934,1.5994.86606.4261,1.97735.6739,3.17885.6739s2.3128-.2478,3.1788-.674c.7567-.3723,1.3862-.9136,1.6584-1.5989.3896-.1589.731-.344,1.0006-.5564.3606-.284.6622-.67597.6622-1.17096zM8.7626,11.9293c-.13549-.0667-.25934-.1365-.37181-.2087.92331.1793,1.98561.2796,3.10921.2796,1.1235,0,2.1857-.1003,3.1089-.2795-.1124.0721-.2362.1419-.3717.2086-.7085.3486-1.6647.5712-2.7372.5712s-2.02871-.2226-2.7374-.5712zm8.3055-8.62035-.002.00191c.0005-.00048.001-.00087.0013-.00117.0005-.00049.0007-.00074.0007-.00074zm-11.13418.00191c-.00145-.00127-.00208-.00191-.00204-.00191l.00204.00191zM5.49888,16.0621l.49612-.0622c-.49612.0622-.4961.0623-.49609.0625l.00004.0003.0001.0008.00028.0021.00089.0068.00317.0231c.00276.0196.00683.0473.01238.0823.0111.07.02814.1694.05248.2914.04857.2436.12681.5803.24607.9548.23342.7331.64525,1.6805,1.35887,2.3274l.00018.0002C8.55569,21.0034,9.7602,21.9669,11.5,21.9669s2.9452-.9634,4.3268-2.2155c.7136-.6469,1.1255-1.5943,1.3589-2.3274.1192-.3745.1975-.7112.246-.9548.0244-.122.0414-.2214.0525-.2914.0056-.035.0096-.0627.0124-.0823l.0032-.0231.0009-.0068.0002-.0021.0001-.0008.0001-.0003c0-.0002,0-.0003-.4882-.0615l.4883.0612.0009-.0081.495-4.55-.9942-.1081-.4944,4.5446v.0001l-.0021.0152c-.002.0142-.0052.0363-.0098.0654-.0093.0583-.024.1446-.0455.2524-.0432.2162-.1128.5157-.2183.847-.2161.6787-.5612,1.4218-1.0776,1.8899-1.3924,1.2619-2.339,1.9564-3.6552,1.9564-1.3161,0-2.26161-.6944-3.65519-1.9564-.51638-.4681-.86155-1.2112-1.07763-1.8899-.10549-.3313-.17513-.6308-.21824-.847-.0215-.1078-.03626-.1941-.0455-.2524-.00462-.0291-.00785-.0512-.00986-.0654l-.00208-.0152-.00001-.0001-.49442-4.5446-.99414.1081.495,4.55h-.00006l.00101.0081zM11.5,17.9997c-.6004,0-1.14-.2111-1.54187-.4362-.19877-.1113-.3574-.2225-.46497-.3048-.0536-.0409-.09402-.0743-.11987-.0964-.01292-.011-.02215-.0191-.02753-.0239l-.00458-.0042c.00011.0001.00022.0002-.34118.3655s-.34128.3655-.34115.3656l.00027.0002.00063.0006.00156.0015.0043.0039.01336.0121c.01099.0098.02614.0232.04528.0395.03825.0326.0926.0774.16165.1301.13775.1053.33599.2441.58347.3828.49067.2748,1.20103.5637,2.03063.5637s1.54-.2889,2.0306-.5637c.2475-.1387.4458-.2775.5835-.3828.069-.0527.1234-.0975.1616-.1301.0192-.0163.0343-.0297.0453-.0395l.0134-.0121.0043-.0039.0015-.0015.0007-.0006.0003-.0002c.0001-.0001.0002-.0003-.3412-.3656s-.3413-.3654-.3412-.3655l-.0046.0042c-.0053.0048-.0146.0129-.0275.0239-.0258.0221-.0663.0555-.1199.0964-.1075.0823-.2662.1935-.4649.3048-.4019.2251-.9415.4362-1.5419.4362zm2.4008-10.49994-1.601-1.5h1.2l2,2-2,2h-1.2l1.601-1.5h-1.901v1.5h-1v-1.5H9.09976l1.60004,1.5H9.49976l-2-2,2-2h1.20004l-1.60004,1.5h1.90004v-1.5h1v1.5h1.901zm-3.7006,7.70014c0-.4-.3-.8-.8-.8s-.8.3-.8.8c0,.4.3.8.8.8s.8-.3.8-.8zm4,0c0-.4-.3-.8-.8-.8s-.8.3-.8.8c0,.4.3.8.8.8s.8-.3.8-.8z"/></svg>