<svg width="36" height="36" xmlns="http://www.w3.org/2000/svg"><path fill-rule="evenodd" clip-rule="evenodd" d="m16.9824,4.74955h12.6912l.0696.4178,3,18.00005.0531.3188-.269.1794-4.4999,3-.126.0839H19.5v-1h7.7845l1.332-18.64834,26.5176,10.2495H16.15l-1.4151,5.6228-.9698-.244,1.3537-5.3788h-1.8031l.5183-.7773,3-4.5.1484-.22265zM31.7037,23.0129l-3.3822,2.2548,1.1274-15.78361,2.2548,13.52881zm-3.388-17.26335H17.5176l-2.3333,3.5h10.7981l2.3333-3.5zM8.62918,18.387c-.29432-.0864-.65014-.137-1.12355-.1374-.66843-.0148-1.77142-.0284-2.69125.6712C3.86797,19.6406,3.25,20.9985,3.25,23.3936c0,2.2242.3697,4.1481,1.06704,5.5359.69828,1.3898,1.77533,2.32,3.18296,2.32v.0001l.00937-.0001c.92043-.0173,1.50588-.2156,1.97284-.4117.08484-.0357.16152-.0689.23218-.0995.31961-.1384.51591-.2234.78561-.2382.2697.0148.466.0998.7856.2382.0707.0306.1474.0638.2322.0995.467.1961,1.0524.3944,1.9728.4117H13.5c1.4076,0,2.4847-.9302,3.183-2.32.6973-1.3878,1.067-3.3117,1.067-5.5359,0-2.3951-.618-3.753-1.5644-4.4728-.9198-.6996-2.0228-.686-2.6912-.6712-.4734.0004-.8293.051-1.1236.1374-.2974.0874-.5095.2053-.681.3026l-.014.0079c-.164.0931-.2788.1582-.4362.209-.0735.0236-.1608.0454-.269.0619-.1573-1.3929-.9211-2.3061-1.67061-2.8682-.41641-.3123-.83017-.5188-1.13896-.6474-.15507-.0646-.28552-.1104-.37916-.1405-.04687-.015-.08468-.0262-.11192-.0339-.01362-.0039-.02462-.0069-.0328-.0091l-.01014-.0026-.00345-.0009-.00131-.0003-.00055-.0002c-.00024,0-.00048-.0001-.1217.485s-.12143.485-.12163.485l.00169.0004.01737.0048c.01671.0048.04335.0126.07851.0239.07042.0226.17435.0589.30053.1115.25371.1057.58995.2741.92354.5243.562.4215,1.11091,1.0669,1.26032,2.0564-.07721-.0145-.14276-.0317-.19994-.0501-.1574-.0508-.27218-.1159-.43622-.209l-.01392-.0079c-.17159-.0973-.38363-.2152-.68107-.3026zM4.25,23.3936c0-2.249.57978-3.2281,1.16974-3.6768.61405-.467,1.38256-.4826,2.06919-.4674v.0002H7.5c.40503,0,.66405.043.8474.0969.18139.0532.3105.1228.46948.213l.03017.0171c.15437.0879.3491.1987.60667.2817.27779.0895.60768.1413,1.04628.1413s.7685-.0518,1.0463-.1413c.2575-.083.4523-.1938.6067-.2817l.0301-.0171c.159-.0902.2881-.1598.4695-.213.1833-.0539.4424-.0969.8474-.0969v.0001l.0111-.0003c.6866-.0152,1.4551.0004,2.0692.4674.5899.4487,1.1697,1.4278,1.1697,3.6768,0,2.1317-.3571,3.8858-.9606,5.087-.6016,1.1972-1.3978,1.767-2.2849,1.7689-.7581-.0148-1.2156-.1724-1.5994-.3337-.0577-.0242-.117-.0503-.1781-.0772-.3344-.1473-.7236-.3188-1.2065-.3386l-.0205-.0009-.0205.0009c-.4829.0198-.87211.1913-1.20652.3386-.0611.0269-.12038.053-.17806.0772-.38385.1613-.84128.3189-1.59945.3337-.88705-.0019-1.68331-.5717-2.28488-1.7689-.60354-1.2012-.96059-2.9553-.96059-5.087z"/></svg>