<svg width="36" height="36" xmlns="http://www.w3.org/2000/svg"><path fill-rule="evenodd" clip-rule="evenodd" d="m24.2501,3v3h1V3h-1zm-.4864,8.6912c-.4182-.7985-1.0533-1.4264-1.7962-1.85255C22.6764,9.16141,23.6489,8.75,24.7499,8.75c2.2603,0,4,1.7396,4,4,0,1.7088-.9934,3.1142-2.4455,3.7025-.0768-.1358-.1633-.2659-.2596-.389-.4412-.5639-1.0741-.961-1.8648-1.0791.2459-1.2538.065-2.374-.4163-3.2932zm2.9867,6.892c.0314-.4024.0028-.8087-.0869-1.1972,1.8353-.7357,3.0864-2.5104,3.0864-4.636,0-2.81264-2.1874-5-5-5-1.5107,0-2.849.63166-3.7595,1.66339-1.9564-.60655-4.3014.0206-5.582,2.30291-2.1922-1.2254-5.1274.3315-5.1346,3.1338-.74336.1433-1.34138.5855-1.75761,1.1673-.5043.7048-.75295,1.6239-.71355,2.5298.03955.9095.37146,1.8407,1.07309,2.5477.70786.7132,1.74987,1.1556,3.12467,1.1556h10.5c1.3311,0,2.3669-.4455,3.0879-1.1472.7149-.6956,1.0914-1.615,1.1621-2.5201zm-10.6925-5.9309c1.0102-2.2899,3.1238-2.83702,4.8095-2.2255.8487.3078,1.5808.9079,2.0104,1.7283.4264.8142.5722,1.8785.1933,3.1529l-.1991.67.6984-.0279c.7775-.0311,1.3297.2732,1.6868.7296.368.4703.5503,1.1335.4962,1.8256-.0538.6886-.3395,1.3724-.8625,1.8814-.5169.503-1.2946.8638-2.3905.8638h-10.5c-1.1504,0-1.9225-.3639-2.4149-.8601-.49864-.5024-.75323-1.1836-.78381-1.8867-.03073-.7065.16687-1.4.52779-1.9045.35478-.4959.85512-.7987,1.47092-.7987h.5633l-.0668-.5593c-.2954-2.4728,2.3588-3.7373,3.9867-2.4039l.5088.4167.2655-.6017zm-5.2551,14.1241,1.5-3,.8945.4472-1.5,3-.8945-.4472zm9,0,1.5-3,.8945.4472-1.5,3-.8945-.4472zm-4.5-3-3,6,.8945.4472,3-6-.8945-.4472zM15.3775,29.7764l3-6,.8945.4472-3,6-.8945-.4472zm4.1811-21.52014-2.1615-2.079.6932-.72073,2.1615,2.079-.6932.72073zm9.7774,9.89294,2.121,2.121.7071-.7071-2.121-2.121-.7071.7071zm2.1641-5.8992h3v1h-3v-1zM31.29,5.47945l-2.121,2.121.7071.70711,2.121-2.121-.7071-.70711z"/></svg>