<svg width="36" height="36" xmlns="http://www.w3.org/2000/svg"><path fill-rule="evenodd" clip-rule="evenodd" d="m18,4.24902c-.9239,0-1.75.82615-1.75,1.75,0,.92386.8261,1.75,1.75,1.75s1.75-.82614,1.75-1.75c0-.92385-.8261-1.75-1.75-1.75zm-2.75,1.75c0-1.47614,1.2739-2.75,2.75-2.75s2.75,1.27386,2.75,2.75c0,1.47615-1.2739,2.75-2.75,2.75s-2.75-1.27385-2.75-2.75zm0,6.90138-2,3v5.0986h-1v-5.4014l.084-.1259,3-4.5.1484-.2227h5.0352l.1484.2227,2.8981,4.3471,5.0733,1.4495-.2748.9615-5.25-1.5-.1767-.0505-.1019-.1529-2.084-3.126v7.1972l2.916,4.3741.084.1259v8.4014h-1v-8.0986l-2.7676-4.1514H16.25v5.6603l-.0931.1303-3.75,5.25-.8138-.5812,3.6569-5.1196V12.9004zm1-1.1514v8h3.5v-8h-3.5z"/></svg>