<svg width="24" height="24" xmlns="http://www.w3.org/2000/svg"><path fill-rule="evenodd" clip-rule="evenodd" d="m12.0001,2C10.343,2,9.00012,3.34286,9.00012,5v1.95654h-3.9658L3.96289,21.9565H20.0369l-.0383-.5356-1-13.99998-.0332-.46438h-3.9676l.0023-1.95596V5c0-1.65714-1.3428-3-3-3zm1.9966,5.95654-.0036,3.04286,1,.0012.0036-3.04406h3.0376l.9286,12.99996H5.03687l.92857-12.99996h3.03468V11h.99998V7.95654h3.9966zm.0011-1L14.0001,5v-.00017C14,3.89505,13.1049,3,12.0001,3s-2,.89514-2,2v1.95654h3.9977z"/></svg>