<svg width="36" height="36" xmlns="http://www.w3.org/2000/svg"><path fill-rule="evenodd" clip-rule="evenodd" d="m24.1798,14.9837c.7895.1184,1.4187.5161,1.8547,1.0818.5383.6985.7592,1.6203.6828,2.5202-.0768.9035-.4556,1.821-1.1647,2.5157-.7157.701-1.7404,1.1483-3.0524,1.1483v-1c1.0715,0,1.8385-.359,2.3526-.8627.5206-.51.8094-1.1956.868-1.8859.059-.6938-.117-1.3563-.4783-1.8251-.3499-.4539-.8952-.7578-1.6723-.7267l-.6985.0279.1992-.67c.3789-1.2744.233-2.3387-.1933-3.1529-.4297-.8204-1.1617-1.4205-2.0104-1.7283-1.6857-.61152-3.7993-.0644-4.8096,2.2255l-.2655.602-.5089-.4171c-1.6262-1.3331-4.282-.0689-3.9866,2.404l.0669.5593h-.5633c-.6158,0-1.11618.3028-1.47095.7987-.36093.5045-.55852,1.198-.5278,1.9045.03058.7031.28517,1.3843.78381,1.8867.49244.4962,1.26454.8601,2.41494.8601v1c-1.3749,0-2.41684-.4424-3.12471-1.1556-.70163-.707-1.03354-1.6382-1.07309-2.5477-.0394-.9059.20925-1.825.71355-2.5298.41624-.5818,1.01426-1.024,1.75765-1.1673.0074-2.8021,2.9433-4.3592,5.1347-3.1339,1.3285-2.36769,3.8026-2.954,5.7999-2.22951,1.0638.38588,2.0005,1.14511,2.5552,2.20451.4814.9192.6622,2.0395.4164,3.2933zm-7.1369,4.7662h3.6642l-.8535.8536-2.8965,2.8964h3.4509l-1.0885.8876-4.995,4.0725-3.1691,2.5837,2.4531-3.2712,1.8916-2.5226h-3.9572l5.5-5.5zm.2695,4.75-.4124.55-.0384.0512.7374-.6012h-.2866zm-2.5195-.25h-.8358l3.5-3.5h.8358l-3.5,3.5zm9.7071.5c0-.1378.1121-.25.25-.25s.25.1122.25.25c0,.1379-.1121.25-.25.25s-.25-.1121-.25-.25zm.25-1.25c-.6901,0-1.25.5599-1.25,1.25,0,.6902.5599,1.25,1.25,1.25s1.25-.5598,1.25-1.25c0-.6901-.5599-1.25-1.25-1.25zm-3,4c-.1379,0-.25.1122-.25.25,0,.1379.1121.25.25.25s.25-.1121.25-.25c0-.1378-.1121-.25-.25-.25zm-1.25.25c0-.6901.5599-1.25,1.25-1.25s1.25.5599,1.25,1.25c0,.6902-.5599,1.25-1.25,1.25s-1.25-.5598-1.25-1.25zm-12.5-1.5c0-.1378.11214-.25.25-.25s.25.1122.25.25c0,.1379-.11214.25-.25.25s-.25-.1121-.25-.25zm.25-1.25c-.69014,0-1.25.5599-1.25,1.25,0,.6902.55986,1.25,1.25,1.25s1.25-.5598,1.25-1.25c0-.6901-.55986-1.25-1.25-1.25z"/></svg>