<svg width="24" height="24" xmlns="http://www.w3.org/2000/svg"><path fill-rule="evenodd" clip-rule="evenodd" d="m12,2C6.47715,2,2,6.47715,2,12h1c0-4.97056,4.02944-9,9-9,4.9706,0,9,4.02944,9,9,0,4.9706-4.0294,9-9,9-3.54,0-6.73674-2.0445-8.22742-5H6v-1H2v4h1v-2.319C4.70796,19.8497,8.17713,22,12,22c5.5228,0,10-4.4772,10-10,0-5.52285-4.4772-10-10-10zm-6.75909,9.7327C6.65717,9.49398,9.15066,8,12,8c2.8493,0,5.3428,1.49398,6.7591,3.7327l.1691.2673-.1691.2673C17.3428,14.506,14.8493,16,12,16c-2.84934,0-5.34283-1.494-6.75909-3.7327L5.0718,12l.16911-.2673zM12,15c2.3754,0,4.4703-1.1868,5.7363-3C16.4703,10.1868,14.3754,9,12,9c-2.37542,0-4.47028,1.1868-5.73626,3C7.52972,13.8132,9.62458,15,12,15zm0-4c-.5523,0-1,.4477-1,1s.4477,1,1,1,1-.4477,1-1-.4477-1-1-1zm-2,1c0-1.1046.8954-2,2-2s2,.8954,2,2-.8954,2-2,2-2-.8954-2-2z"/></svg>