<svg width="36" height="36" xmlns="http://www.w3.org/2000/svg"><path fill-rule="evenodd" clip-rule="evenodd" d="m4.2478,15.75c0-3.8726,1.9142-7.29815,4.84805-9.38204l1.27095.79373.1215.07591h2.5286l.0969-.37495.6299-2.43863c.6508-.11437,1.3205-.17402,2.0041-.17402,1.9833,0,3.8495.50214,5.4783,1.38624l-1.334.9693-.0784.05694-.0514.08208-1.0208,1.62917-3.1619-.5619-.2648-.04707-.1853.19508-2.45,2.58046-3.39663,1.4322-.14107.0595-.08358.1283-.59359.911-.36008.5526.62932.1974,3.47363,1.0897.1196.0376.1232-.0234,5.1144-.9703.6033.3048.8614,2.4087.9416-.3368-.9958-2.7844-.1781-.09-.9331-.4714-.1517-.0767-.167.0317-5.1582.9786-2.72456-.8548.14993-.2301,3.35193-1.4134.0963-.0406.072-.0758,2.3368-2.46123,3.2292.57385.3321.05902.1791-.28583,1.1484-1.83292,1.5957-1.15944c2.4047,1.61591,4.1659,4.11585,4.8175,7.03435l.976-.2179C26.6999,7.42683,21.7122,3.25,15.7478,3.25c-6.90356,0-12.5,5.59644-12.5,12.5,0,6.9036,5.59644,12.5,12.5,12.5.2675,0,.533-.0084.7964-.025l-.0628-.998c-.2425.0153-.4871.023-.7336.023-4.6818,0-8.71018-2.7977-10.50445-6.8126l1.81702-2.43,2.2029-.5358,3.63983,1.2551.9972,1.6594.2071.3445.3809-.1281,2.3974-.8065.9592.3134.3106-.9505-1.1168-.365-.1576-.0514-.1571.0528-2.1736.7312-.8839-1.4708-.0936-.1559-.1719-.0592-3.9504-1.3622-.13865-.0478-.14252.0346-2.52005.613-.17463.0425-.10763.1439-1.54908,2.0717c-.37008-1.1285-.57024-2.334-.57024-3.5863zm6.5271-9.5124-.7469-.4665c.8152-.46831,1.6934-.8396,2.6185-1.09808l-.4041,1.56458h-1.4675zM30,15.25h-7.5v1h3.25v2h-3.1923c-1.5507,0-2.8077,1.257-2.8077,2.8077V29.75h2.0115l-1.2257,3.0643.9284.3714,1.3743-3.4357h6.823l1.3743,3.4357.9284-.3714L30.7385,29.75H32.75v-8.6923c0-1.5507-1.257-2.8077-2.8077-2.8077H26.75v-2H30v-1zm-9.25,13.5v-5h11v5h-11zm11-7.6923V22.75h-11v-1.6923c0-.9984.8093-1.8077,1.8077-1.8077h7.3846c.9984,0,1.8077.8093,1.8077,1.8077zm-8,5.1923c0-.1381.1119-.25.25-.25s.25.1119.25.25-.1119.25-.25.25-.25-.1119-.25-.25zM24,25c-.6904,0-1.25.5596-1.25,1.25s.5596,1.25,1.25,1.25,1.25-.5596,1.25-1.25S24.6904,25,24,25zm4.5,1c-.1381,0-.25.1119-.25.25s.1119.25.25.25.25-.1119.25-.25-.1119-.25-.25-.25zm-1.25.25c0-.6904.5596-1.25,1.25-1.25s1.25.5596,1.25,1.25-.5596,1.25-1.25,1.25-1.25-.5596-1.25-1.25z"/></svg>