<svg width="36" height="36" xmlns="http://www.w3.org/2000/svg"><path fill-rule="evenodd" clip-rule="evenodd" d="m5.75,18.0004C5.75,11.156,11.1571,5.75037,18,5.75037S30.25,11.156,30.25,18.0004c0,6.8428-5.4071,12.25-12.25,12.25s-12.25-5.4072-12.25-12.25zM18,4.75037c-7.3951,0-13.25,5.85333-13.25,13.25003,0,7.3951,5.8549,13.25,13.25,13.25s13.25-5.8549,13.25-13.25c0-7.3967-5.8549-13.25003-13.25-13.25003zm-.0003,13.49923c-3.3152,0-6.0704,1.9737-7.2887,4.8022l.9184.3956c1.0676-2.4785,3.4724-4.1978,6.3703-4.1978,2.8992,0,5.3026,1.7193,6.3703,4.1978l.9184-.3956c-1.2184-2.8284-3.972-4.8022-7.2887-4.8022zM12.25,13.5c0-.6901.5599-1.25,1.25-1.25s1.25.5599,1.25,1.25-.5599,1.25-1.25,1.25-1.25-.5599-1.25-1.25zm1.25-.25c-.1379,0-.25.1121-.25.25s.1121.25.25.25.25-.1121.25-.25-.1121-.25-.25-.25zm9-1c-.6901,0-1.25.5599-1.25,1.25s.5599,1.25,1.25,1.25,1.25-.5599,1.25-1.25-.5599-1.25-1.25-1.25zm-.25,1.25c0-.1379.1121-.25.25-.25s.25.1121.25.25-.1121.25-.25.25-.25-.1121-.25-.25z"/></svg>