<svg width="59" height="20" xmlns="http://www.w3.org/2000/svg"><path fill-rule="evenodd" clip-rule="evenodd" d="m2,0C.89543,0,0,.895431,0,2v16c0,1.1046.895431,2,2,2h55c1.1046,0,2-.8954,2-2V2c0-1.104569-.8954-2-2-2H2z" fill="#eb0000"/><path d="m9.38756,4.19995h4.04264L8.42906,15.8H4.36978L9.38756,4.19995zM26.0917,12.3662c.3653,0,.6961-.2172.8435-.5537l3.2812-7.61255H16.1289L11.1278,15.8h4.0248l3.786-8.69045h5.9735l-1.1973,2.77546-5.2084-.01902L22.7091,15.8h4.5818l-3.1134-3.4338h1.9142z" fill="#fff"/></svg>