<svg width="24" height="24" xmlns="http://www.w3.org/2000/svg"><path fill-rule="evenodd" clip-rule="evenodd" d="m22.5,0h-21C.675,0,0,.675,0,1.5v21c0,.825.675,1.5,1.5,1.5h21c.825,0,1.5-.675,1.5-1.5v-21c0-.825-.675-1.5-1.5-1.5z" fill="#2d327d"/><path fill-rule="evenodd" clip-rule="evenodd" d="m13.2375,9.5925L6.64501,3h-1.0125l7.09499,7.095.51-.5025z" fill="#fff"/><path fill-rule="evenodd" clip-rule="evenodd" d="m16.125,7.22998-3.2775,3.27752c-.105.105-.1575.24-.1575.3825,0,.3.24.54.5475.54.1425,0,.285-.06.3825-.1575l2.5125-2.50502v-1.5375h-.0075z" fill="#fff"/><path fill-rule="evenodd" clip-rule="evenodd" d="m15.2625,12.6225.5025-.5025-1.23-1.23-.5025.5025,1.23,1.23z" fill="#fff"/><path fill-rule="evenodd" clip-rule="evenodd" d="m20.895,8.58752-2.115-2.115c-.2475-.2475-.5925-.39-.945-.39-.735,0-1.3275.6-1.3275,1.335v4.49998l-1.65,1.65c-.0675.0675-.1125.165-.1125.2625v4.2225c0,.3825.3075.69.69.69s.6975-.3075.6975-.69V14.625l2.925-2.8125c.075-.075.1125-.165.1125-.27V8.34752l.75.75v2.77498c0,.3.24.54.5475.54.3,0,.54-.24.54-.54V8.85752c-.0075-.105-.045-.195-.1125-.27z" fill="#fff"/><path fill-rule="evenodd" clip-rule="evenodd" d="m7.72501,17.295c-.21-.1425-.36-.36-.4125-.6075h-.8625c.045.36.21.69.4725.9375.3975.36.8775.6075,1.4025.735L21,21v-.69L8.82751,17.775c-.39-.0825-.765-.2475-1.1025-.48z" fill="#fff"/><path fill-rule="evenodd" clip-rule="evenodd" d="m18.045,14.4299c0-.3-.24-.5475-.5475-.5475-.3,0-.54.2475-.54.5475s.24.5475.54.5475.5475-.2475.5475-.5475z" fill="#fff"/><path fill-rule="evenodd" clip-rule="evenodd" d="m17.8425,5.83501c.6375,0,1.1625-.5175,1.1625-1.1625s-.5175-1.1625-1.1625-1.1625-1.1625.5175-1.1625,1.1625.5175,1.1625,1.1625,1.1625z" fill="#fff"/></svg>