<svg width="24" height="24" xmlns="http://www.w3.org/2000/svg"><path fill-rule="evenodd" clip-rule="evenodd" d="m13.2682,5.24828.3996.35263,1.3292,1.17303,3.6339,1.41075.4449.17271-.1518.45245-.4991,1.48725.8879.2679.2438-.4624.2759-.52318.47.35906,1.343,1.02602.1846.1411.0112.2321.158,3.269.026.5375-.538-.0136-.9675-.0244.1658,1.4311.0841.726-.7071-.1847-3.2625-.8521-1.3969,2.9626-.3613.766-.4962-.6864-1.7951-2.4829-1.4044,1.5203-.1264.1368-.1852.0208-3.15696.354-.23245.0261-.16899-.1618-1.96508-1.8807-.61969.3606-.06049.0352-.06783.0173-2.97161.7554.22609-.8277,1.08-3.954.03135-.1148.07967-.0884,2.3963-2.6571-.38747-.1331-.89731-.30836.76159-.56588,2.44-1.813.25571-.19.28025.15149.56389.3048,3.40953-.92938.9106-1.17487.3265-.42122zM6.43971,9.55726l.20569.07068.71553.24586-.5067.5619-2.82332,3.1306-.82257,3.0115,1.24056-.3153.88451-.5148.32531-.1894.27192.2603,2.06802,1.9792,2.73944-.3071,1.6926-1.8322.4145-.4487.3579.4951,1.6568,2.2916,1.2128-2.572.177-.3754.4016.1049,2.9569.7723-.148-1.277-.0662-.5719.5756.0146,1.0049.0254-.1208-2.4994-.6883-.5258-.1602.3038-.1922.3646-.3945-.1191-1.776-.536-.4936-.149.164-.4887.5112-1.5236L14.552,7.67391l-.0831-.03225-.0668-.05897-.9964-.87937-.6866.88578-.1024.13213-.1613.04397-3.76398,1.026-.19315.05265-.17611-.0952-.45974-.24851L6.43971,9.55726z"/></svg>