<svg width="24" height="24" xmlns="http://www.w3.org/2000/svg"><path fill-rule="evenodd" clip-rule="evenodd" d="m9,3.5c0-.25686.24314-.5.5-.5s.5.24314.5.5-.24314.5-.5.5S9,3.75686,9,3.5zM9.5,2C8.69086,2,8,2.69086,8,3.5S8.69086,5,9.5,5c.8091,0,1.5-.69086,1.5-1.5S10.3091,2,9.5,2zM8.29289,6H10.809l.1382.27639.9799,1.95968L13.4,10.2l-.8.6-1.5-2-.0271-.03607-.0201-.04032L11,8.61804v2.73056l1,1.5V15h2v-3h4V9h4v1h-3v3h-4v3h-4v3H7v3H2v-1h4v-3h1.10961L8,14.4384V7.70711l-1,1V11H6V8.29289l.14645-.14644,2-2L8.29289,6zM9,11V7h1v4H9zm0,1v2.5616l-.01493.0597L8.14039,18H10v-3h1v-1.8486L10.2324,12H9z"/></svg>