<svg width="36" height="36" xmlns="http://www.w3.org/2000/svg"><path fill-rule="evenodd" clip-rule="evenodd" d="m18.0002,3.25c-2.3476,0-4.25,1.90236-4.25,4.25v3.1848H7.78432l-.03317.4644-1.5,21-.03826.5356H29.7869l-.0383-.5356-1.5-21-.0332-.4644h-5.9689l.0037-3.18422V7.5c0-2.34764-1.9023-4.25-4.25-4.25zm3.2452,8.4348-.0057,4.8146,1,.0012.0057-4.8158h5.0389l1.4286,20H7.28687l1.42857-20h5.03476V16.5h1v-4.8152h6.4952zm.0011-1L21.2502,7.5v-.00017c0-1.79528-1.4547-3.24983-3.25-3.24983s-3.25,1.45464-3.25,3.25v3.1848h6.4963z"/></svg>