<svg width="24" height="24" xmlns="http://www.w3.org/2000/svg"><path fill-rule="evenodd" clip-rule="evenodd" d="m2.5,3.99976H2V18.9998h20v-5h-.5c-1.4239,0-2.5-1.0762-2.5-2.5,0-1.4239,1.0761-2.50004,2.5-2.50004h.5v-5H2.5zM3,17.9998V4.99976h13v.46428h1v-.46428h4V8.033c-1.7274.23269-3,1.66087-3,3.4668,0,1.8058,1.2726,3.234,3,3.4667v3.0333h-4v-.4643h-1v.4643H3zM4.5,6.99976H4v9.97484l.4988.0012,10,.024L15,17.001V6.99976h-2v-1h-1v1H7v-1H6v1H4.5zM5,15.977V9.99976h9v5.99884l-9-.0216zm9-6.97724H5v-1h9v1zM9,12.9998H8v-1h1v-1h1v4H9v-2zm7-6.60719v.92857h1v-.92857h-1zm0,1.85715v.92857h1v-.92857h-1zm0,1.85714v.9286h1v-.9286h-1zm0,1.8571v.9286h1v-.9286h-1zm0,1.8572v.9286h1v-.9286h-1zM16,15.6783v.9286h1v-.9286h-1z"/></svg>