<svg width="24" height="24" xmlns="http://www.w3.org/2000/svg"><path fill-rule="evenodd" clip-rule="evenodd" d="m12.9999,4.9997v-3h-1v3h1zm-3.64648.64645-2-2-.70711.7071,2,2,.70711-.7071zm8.99998-1.2929-2,2-.7071-.7071,2-2,.7071.7071zM8.99987,11.4997c0-1.93286,1.56713-3.5,3.50003-3.5,1.9328,0,3.5,1.56714,3.5,3.5v5.5H8.99987v-5.5zm-1,5.5v-5.5c0-2.48514,2.01483-4.5,4.50003-4.5,2.4851,0,4.5,2.01486,4.5,4.5v5.5h1.8603l.114.3419,1,3,.2194.6581H4.80615l.21937-.6581,1-3,.11397-.3419h1.86038zm3.00003-6v5H9.99987v-5h1.00003zm-4.80632,9,.66667-2H18.1395l.6667,2H6.19358z"/></svg>