<svg width="24" height="24" xmlns="http://www.w3.org/2000/svg"><path fill-rule="evenodd" clip-rule="evenodd" d="m5.5,4C4.67157,4,4,4.67157,4,5.5V6h16v-.5c0-.82843-.6716-1.5-1.5-1.5h-13zm.30902,6-1.5-3H19.691l-1.5,3H5.80902zm.05136,1-1.66667,5H19.8063l-1.6667-5H5.86038zM4,18.5V17h16v1.5c0,.8284-.6716,1.5-1.5,1.5h-13c-.82843,0-1.5-.6716-1.5-1.5zm-1-13C3,4.11929,4.11929,3,5.5,3h13C19.8807,3,21,4.11929,21,5.5v1.11803l-.0528.10558-1.9074,3.81479,1.9345,5.8035.0257.077V18.5c0,1.3807-1.1193,2.5-2.5,2.5h-13C4.11929,21,3,19.8807,3,18.5v-2.0811l.02566-.077,1.93451-5.8035L3.05279,6.72361,3,6.61803V5.5zM16,19h2v-1h-2v1z"/></svg>