<svg width="36" height="36" xmlns="http://www.w3.org/2000/svg"><path fill-rule="evenodd" clip-rule="evenodd" d="m19.47,7.24955h-3v-1h3v1zm-9.1231,5.99525C12.0732,10.8716,14.6526,9.24955,18,9.24955c3.3476,0,5.9233,1.62225,7.6476,3.99545,1.7158,2.3614,2.5947,5.4681,2.6024,8.5033l.0013.5012H7.74999v-.5c0-3.036.87913-6.1432,2.59691-8.5047zm-1.58846,8.0047H27.2403c-.0972-2.694-.9205-5.3782-2.4017-7.4167-1.5644-2.153-3.8562-3.5833-6.8386-3.5833-2.9826,0-5.2782,1.4305-6.8444,3.5836-1.48297,2.0386-2.30624,4.7228-2.39716,7.4164zM8.03992,24.2495H7.6784l-.11329.3434-.99,3-.21671.6566h23.2863l-.2207-.6588-1.005-3-.1143-.3412H8.03992zm-.29848,3,.66-2H27.5851l.67,2H7.74144z"/></svg>