<svg width="24" height="24" viewBox="0,0,24,24" xmlns="http://www.w3.org/2000/svg"><path fill-rule="evenodd" clip-rule="evenodd" d="m18,12.0354c1.6963.2426,3,1.7012,3,3.4646V20h-7v-4.5c0-1.7634,1.3038-3.222,3-3.4646V3h1v9.0354zM2.85962,11h1.19045c.2318-1.14076,1.24101-2,2.44994-2,1.20892,0,2.21813.85924,2.44993,2h5.19046l-.1553.6213-2,8L11.8904,20H5.10962l-.09468-.3787-2-8L2.85962,11zm3.64039-1c.65257,0,1.20839.4177,1.41451,1H5.0855c.20611-.5823.76193-1,1.41451-1zM4.1404,12l1.75,7h5.2192l1-4H9.00001v-1h3.35959l.5-2H4.1404zM16,19v-2h1v2h1v-3h1v3h1v-3.5c0-1.3809-1.1191-2.5-2.5-2.5-1.3808,0-2.5,1.1191-2.5,2.5V19h1zM10,8.5c0-.27586.2242-.5.5-.5.2759,0,.5.22414.5.5s-.2241.5-.5.5c-.2758,0-.5-.22414-.5-.5zm.5-1.5c-.82813,0-1.49999.67186-1.49999,1.5S9.67187,10,10.5,10c.8281,0,1.5-.67186,1.5-1.5S11.3281,7,10.5,7zM5.00001,7c0-.55214.44786-1,1-1s1,.44786,1,1-.44786,1-1,1-1-.44786-1-1z"/></svg>