<svg width="48" height="48" viewBox="0,0,48,48" xmlns="http://www.w3.org/2000/svg"><path fill-rule="evenodd" clip-rule="evenodd" d="m14.5,7c-1.1935,0-2.3381.47411-3.182,1.31802S10,10.3065,10,11.5V18h19.0385c.0006-.0076.0012-.0151.0018-.0227.006-1.0526.4267-2.0609,1.1715-2.8057C30.962,14.4214,31.9794,14,33.0402,14c1.0609,0,2.0783.4214,2.8285,1.1716.7448.7448,1.1655,1.7531,1.1715,2.8057.0006.0076.0012.0151.0018.0227H39v-6.5c0-1.1935-.4741-2.33807-1.318-3.18198S35.6935,7,34.5,7h-20zm21.5402,11c0-.7956-.316-1.5587-.8786-2.1213C34.5989,15.3161,33.8359,15,33.0402,15c-.7956,0-1.5587.3161-2.1213.8787s-.8787,1.3257-.8787,2.1213h6zM9,11.5V13h-.75c-.33152,0-.64946.1317-.88388.3661S7,13.9185,7,14.25v1.5c0,.3315.1317.6495.36612.8839S7.91848,17,8.25,17H9v1.43c0,.0294.00227.0586.00672.0873-.09064.0696-.17689.1458-.25801.2281-.46075.4678-.71898,1.098-.71892,1.7546v10c0,.3978.15803.7794.43934,1.0607.2813.2813.66283.4393,1.06066.4393H10v1.5c0,.3978.158.7794.4393,1.0607S11.1022,35,11.5,35h3c.3978,0,.7794-.158,1.0607-.4393S16,33.8978,16,33.5V32h17v1.5c0,.3978.158.7794.4393,1.0607S34.1022,35,34.5,35h3c.3978,0,.7794-.158,1.0607-.4393S39,33.8978,39,33.5V32h.4998c.3978,0,.7793-.158,1.0606-.4393.2814-.2813.4394-.6629.4394-1.0607v-10c0-.663-.2634-1.2989-.7322-1.7678-.0853-.0852-.1761-.1637-.2716-.235.0027-.0222.004-.0446.004-.0672V17h.75c.3315,0,.6495-.1317.8839-.3661S42,16.0815,42,15.75v-1.5c0-.3315-.1317-.6495-.3661-.8839S41.0815,13,40.75,13H40v-1.5c0-1.4587-.5795-2.85764-1.6109-3.88909C37.3576,6.57946,35.9587,6,34.5,6h-20c-1.4587,0-2.8576.57946-3.8891,1.61091C9.57946,8.64236,9,10.0413,9,11.5zM8.25,14H9v2h-.75c-.06631,0-.12989-.0263-.17678-.0732C8.02634,15.8799,8,15.8163,8,15.75v-1.5c0-.0663.02634-.1299.07322-.1768C8.12011,14.0263,8.1837,14,8.25,14zm1.21114,5.4472c.27564-.2799.65006-.4404,1.04266-.4472h27.996c.3978,0,.7793.158,1.0606.4393.2814.2813.4394.6629.4394,1.0607v10c0,.1326-.0527.2598-.1465.3536-.0937.0937-.2209.1464-.3535.1464H9.52979c-.13261,0-.25979-.0527-.35356-.1464-.09377-.0938-.14644-.221-.14644-.3536V20.4999c-.00005-.3939.15489-.7721.43135-1.0527zM40.75,16H40v-2h.75c.0663,0,.1299.0263.1768.0732S41,14.1837,41,14.25v1.5c0,.0663-.0263.1299-.0732.1768S40.8163,16,40.75,16zM34,33.5V32h4v1.5c0,.1326-.0527.2598-.1464.3536-.0938.0937-.221.1464-.3536.1464h-3c-.1326,0-.2598-.0527-.3536-.1464C34.0527,33.7598,34,33.6326,34,33.5zM15,32h-4v1.5c0,.1326.0527.2598.1464.3536.0938.0937.221.1464.3536.1464h3c.1326,0,.2598-.0527.3536-.1464.0937-.0938.1464-.221.1464-.3536V32zm-3-11c-.5523,0-1,.4477-1,1s.4477,1,1,1h5c.5523,0,1-.4477,1-1s-.4477-1-1-1h-5zm-2,1c0-1.1046.8954-2,2-2h5c1.1046,0,2,.8954,2,2s-.8954,2-2,2h-5c-1.1046,0-2-.8954-2-2zm21,0c0-.5523.4477-1,1-1h5c.5523,0,1,.4477,1,1s-.4477,1-1,1h-5c-.5523,0-1-.4477-1-1zm1-2c-1.1046,0-2,.8954-2,2s.8954,2,2,2h5c1.1046,0,2-.8954,2-2s-.8954-2-2-2h-5zm-13,6h11v4H19v-4zm10,1h-9v2h9v-2zm-18,2h3v-1h-3v1zm28-2h-5v-1h5v1zm-29,0h5v-1h-5v1zm28,2h-3v-1h3v1zm-10.5,6h-3.5028c-1.0583.006-2.0715.4291-2.8198,1.1774-.2478.2478-.46.5247-.6331.8226H18v2h-4v1h4v2h2.5359c.1733.3002.3863.5791.6357.8284C21.9217,43.5786,22.9391,44,24,44h4v-2h3v-1h-3v-3h3v-1h-3v-2h-.5zM19,38h1.1315c-.0847.3229-.1296.6577-.1315.9972V40c0,.3403.0434.6761.127,1H19v-3zm2.8845-1.1155c.5618-.5619,1.3225-.8796,2.117-.8845H27v7h-3c-.7956,0-1.5587-.3161-2.1213-.8787S21,40.7957,21,40v-.9985c.0049-.7945.3226-1.5552.8845-2.117z"/></svg>