<svg width="36" height="36" viewBox="0,0,36,36" xmlns="http://www.w3.org/2000/svg"><path fill-rule="evenodd" clip-rule="evenodd" d="m18,3.24902h6.1843l-.5183.77735L20.8201,8.2952l1.2907,2.8416-.9105.4135-1.2724-2.80128h-7.603l-.5418,1.21923C13.5511,10.95,14.75,12.8369,14.75,14.999c0,3.1728-2.579,5.75-5.75,5.75-3.17105,0-5.75-2.5772-5.75-5.75,0-3.1711,2.57886-5.74998,5.75-5.74998.65429,0,1.2834.10979,1.8698.3119l.6733-1.51497.132-.29693h8.3073l2.3333-3.5H18v-1zM8.54309,14.796l1.91861-4.3169c-.4607-.1493-.95195-.2301-1.4617-.2301-2.61886,0-4.75,2.1312-4.75,4.75,0,2.6203,2.13105,4.75,4.75,4.75,2.6189,0,4.75-2.1297,4.75-4.75,0-1.7543-.9564-3.2898-2.3751-4.1124l-1.91799,4.3155-.91382-.4061zM5.64645,29.6455,28.1464,7.14547l.7072.70711L6.35355,30.3526l-.7071-.7071zM25.5,13.749H27c1.3477,0,2.4394.3134,3.1882,1.0625.7488.749,1.0618,1.8407,1.0618,3.1875v1.7515H33v1h-1.75V32.749h-5.4985v-3H16.25v3h-5.5v-4.25h1v.25h18.5v-6.4985H18v-1h3.2853c.2422-1.6963,1.7018-3.0015,3.4647-3.0015s3.2225,1.3052,3.4647,3.0015H30.25V17.999c0-1.2106-.2825-1.9939-.769-2.4805-.4864-.4866-1.2697-.7695-2.481-.7695h-1.5v-1zm1.2515,16H30.25v2h-3.4985v-2zm-15.0015,0h3.5v2h-3.5v-2zm13-10.5c1.2092,0,2.2189.8602,2.4502,2.0015h-4.9004c.2313-1.1413,1.241-2.0015,2.4502-2.0015zm1,6.25c0-.688.5592-1.25,1.25-1.25s1.25.562,1.25,1.25c0,.6902-.5599,1.25-1.25,1.25s-1.25-.5598-1.25-1.25zm1.25-.25c-.1372,0-.25.113-.25.25,0,.1379.1121.25.25.25s.25-.1121.25-.25c0-.137-.1128-.25-.25-.25zm-12-1c-.6901,0-1.25.5599-1.25,1.25,0,.6902.5599,1.25,1.25,1.25s1.25-.5598,1.25-1.25c0-.6901-.5599-1.25-1.25-1.25zm-.25,1.25c0-.1378.1121-.25.25-.25s.25.1122.25.25c0,.1379-.1121.25-.25.25s-.25-.1121-.25-.25zM9.31274,5.74902h4.18796v-1H9.31274v1z"/></svg>