<svg width="48" height="48" viewBox="0,0,48,48" xmlns="http://www.w3.org/2000/svg"><path fill-rule="evenodd" clip-rule="evenodd" d="m26.44,13.41L20.95,8h4.08L32,15l-6.97,7h-4.08l5.49-5.37h-6.83V22h-3.22v-5.37H9.6L15.09,22h-4.08L4,15l7.01-7h4.08L9.6,13.41h6.79V8h3.22v5.41h6.83zm-9.7323,18.978-8.66789-5.8557c-.51755-.3845-1.16384-.5543-1.80388-.4736-.64442.0813-1.2319.4102-1.63805.9171s-.59908,1.1519-.53795,1.7986c.06114.6466.37154,1.2441.86548,1.6658l.00037.0004,12.25002,10.44.1401.1194h7.9771l1.8535,1.8536L27.293,43h16.6872l-1.1769-.8976-10.6528-8.1245c-.1089-.0894-.219-.1804-.3305-.2725l-.0004-.0004c-1.9825-1.6383-4.411-3.6451-8.0914-3.7049V30h-4.2281c-.8785,0-1.5836.2898-2.0713.768-.4548.4459-.6942,1.0306-.7211,1.62zM7.4702,27.3543l9.6644,6.529c.0853.1232.1834.2401.2942.3487.4877.4782,1.1928.768,2.0713.768h4v-1h-4c-.6515,0-1.0939-.2102-1.3712-.482-.2814-.2759-.4238-.6448-.4238-1.018s.1424-.7421.4238-1.018c.2773-.2718.7197-.482,1.3712-.482h4.2159c3.3185.0554,5.4962,1.8512,7.5044,3.5074l.0023.0019c.1004.0828.2004.1652.3001.2471l.0069.0057.0072.0055L41.02,42H27.7072l-2-2h-8.0229L5.57478,29.6798l-.00024-.0002c-.29623-.2531-.48238-.6115-.51905-.9994-.03668-.3879.07908-.775.32277-1.0791s.59618-.5015.98283-.5503c.38665-.0487.77711.0549,1.08869.289l.01003.0075.01039.007z"/></svg>