<svg width="59" height="20" viewBox="0,0,59,20" xmlns="http://www.w3.org/2000/svg"><path fill-rule="evenodd" clip-rule="evenodd" d="m2,0C.89543,0,0,.895431,0,2v16c0,1.1046.895431,2,2,2h55c1.1046,0,2-.8954,2-2V2c0-1.104569-.8954-2-2-2H2z"/><path d="m4.18612,11.9488c-.03239,2.8597,2.36424,4.1271,4.9228,4.1271,3.14158,0,4.80948-1.5924,4.80948-3.7209,0-2.63223-2.591-3.16842-3.433-3.37965-2.89866-.74742-3.44924-.86116-3.44924-1.75482,0-.9749.93923-1.31611,1.7489-1.31611,1.21451,0,2.20234.35746,2.28324,1.75482h2.4614c0-2.68098-2.2185-3.73712-4.63129-3.73712-2.08895,0-4.32365,1.13738-4.32365,3.50964,0,2.17728,1.7327,2.84344,3.44921,3.29844,1.70031.4549,3.43303.6662,3.43303,1.9173,0,1.1861-1.3603,1.4461-2.25091,1.4461-1.36025,0-2.55857-.6012-2.55857-2.1448h-2.4614zm11.12258,3.8509h2.3804V8.03295h.0324l4.8095,7.76675h2.5423V4.19834h-2.3804v7.78296h-.0324l-4.8256-7.78296h-2.5262V15.7997zM37.1118,4.23486V15.7995h-2.302V8.22949h-2.7119V6.55254c.5622-.01582,1.0208-.07383,1.3756-.17402.3547-.1001.6792-.26368.9735-.49043.4259-.32696.7122-.87803.8594-1.65323h1.8054zm7.2527-.27685c.8777,0,1.6503.26894,2.3178.80683.6622.53789,1.1432,1.36582,1.4425,2.48379.226.8543.3391,1.78252.3391,2.78437,0,1.6611-.2943,3.027-.8829,4.0975-.3469.6222-.8002,1.1022-1.3599,1.4396-.5598.3374-1.1838.5063-1.8723.5063-.9408,0-1.7449-.2848-2.4124-.8543-1.1877-1.0125-1.7816-2.7421-1.7816-5.1891,0-1.74022.3101-3.13759.9302-4.19237.3522-.60117.8133-1.06514,1.3836-1.39219.5702-.32695,1.2022-.49043,1.8959-.49043zm-.0868,1.95381c-.7568,0-1.2718.43779-1.5451,1.31308-.2155.6961-.3231,1.67178-.3231,2.9268,0,1.1074.1103,1.9961.3311,2.6657.2838.8701.8093,1.3052,1.5766,1.3052.636,0,1.109-.3374,1.4191-1.0125.31-.675.465-1.7059.465-3.0929,0-1.18126-.1102-2.11203-.3309-2.7923-.2838-.87529-.8148-1.31309-1.5927-1.31309v.00001z" fill="#ffde15"/></svg>