<svg width="48" height="48" xmlns="http://www.w3.org/2000/svg"><path fill-rule="evenodd" clip-rule="evenodd" d="m7.99905,10c-1.10534,0-1.99997.896-2,1.9999V12l-.001,7.4999V19.5c0,1.7724.7252,3.4633,2.001,4.6829V26H6.99902v12.0038L7.50282,38l9.99998-.076.4962-.0038V26h-1v-1.8173c1.2749-1.2195,2-2.9103,2-4.6827V12c0-1.1039-.8946-2-2-2-1.1053,0-2,.8961-2,2v3.2678c-.2942-.1703-.6357-.2678-1-.2678-.5977,0-1.1338.262-1.5001.6772C12.1323,15.262,11.5961,15,10.999,15c-.3644,0-.7059.0974-.99995.2675V12c0-1.1041-.89586-2-2-2zM15.999,26v-2.2601l.1673-.1491c1.1656-1.0391,1.8327-2.5273,1.8327-4.0908V12c0-.5521-.4473-1-1-1-.5526,0-1,.4479-1,1v7h-1v-2c0-.5519-.4481-1-1-1-.5526,0-1,.4479-1,1v2h-1v-2c0-.5519-.4481-1-1-1-.5526,0-.99995.4479-.99995,1v2h-1v-7c0-.5519-.44815-1-1-1-.55264,0-1,.4479-1,1v.0001l-.001,7.4999v.0001c.00002,1.5634.66717,3.0515,1.83358,4.0906l.16742.1491V26H15.999zM7.99902,36.9962V29H16.999v7.9278l-7.00046.0532V31h-1v5.9886l-.99952.0076zM16.999,28H7.99902v-1H16.999v1zm8.002,2c-1.6569,0-3,1.3431-3,3s1.3431,3,3,3c1.6568,0,3-1.3431,3-3s-1.3432-3-3-3zm0-1c1.1947,0,2.267.5238,3,1.3542V15.0435l.3896-.0882,13.001-2.943.6104-.1381V29.309h-.0118C41.8325,31.3738,40.1071,33,38.002,33c-2.2092,0-4-1.7909-4-4,0-2.2102,1.7909-4,4-4,1.1946,0,2.267.5235,3,1.3538V16.1263L29.001,18.843V33c0,2.2091-1.7909,4-4,4-2.2092,0-4-1.7909-4-4s1.7908-4,4-4zm4-11.1823,12.001-2.7167v-1.9752l-12.001,2.7167v1.9752zM35.002,29c0-1.6578,1.343-3,3-3,1.6569,0,3,1.3422,3,3,0,1.6569-1.3432,3-3,3-1.6569,0-3-1.3431-3-3z"/></svg>