<svg width="24" height="24" xmlns="http://www.w3.org/2000/svg"><path fill-rule="evenodd" clip-rule="evenodd" d="m16.0186,5.37773c1.1536-.56622,2.573-.50034,3.7256.06169l.0081.00399.0081.00428c.7467.39843,1.4087,1.12582,1.6215,2.06518.2178.9616-.0548,2.05376-1.0093,3.12033l-.0092.0104-1.4985,1.4985c-.4331.4934-.6318.8508-.7365,1.2305-.1114.404-.1284.8699-.1284,1.6272h-1c0-.7396.0115-1.3387.1644-1.893.1587-.5755.4577-1.067.9605-1.6376l.0104-.0118.0111-.0111,1.49-1.48998c.7735-.86924.9029-1.6369.7702-2.22253-.1375-.60714-.5774-1.11324-1.1091-1.39958-.9087-.44013-1.9978-.4713-2.8383-.05878C15.6488,6.67318,15,7.51713,15,8.99983h-1c0-1.8253.8322-3.03985,2.0186-3.6221zM6,13.4998V7.99978h1v5.00002h5v6h-1v-5H6v-.5zm-4.00024,1.0011c0-1.7489,1.01052-3.2704,2.47124-4.0136l.45351.8912c-1.14128.5807-1.92475,1.7672-1.92475,3.1224,0,1.9219,1.57722,3.5,3.5,3.5,1.39083,0,2.60464-.8264,3.16684-2.0174l.9043.4268c-.71979,1.525-2.27598,2.5906-4.07114,2.5906-2.47523,0-4.5-2.026-4.5-4.5zm15.04514,2.4969v2h1v-2h-1zM6.5,5.00027c-.55214,0-1,.44786-1,1s.44786,1,1,1,1-.44786,1-1-.44786-1-1-1z"/></svg>