<svg width="36" height="36" xmlns="http://www.w3.org/2000/svg"><path fill-rule="evenodd" clip-rule="evenodd" d="m7.24951,17.9995c0-6.2473,4.50269-10.74996,10.74999-10.74996,4.5952,0,8.8309,2.74182,10.5117,6.50076h-6.0113v1h7.25V7.50032h-1v4.57398c-2.1541-3.46607-6.3152-5.82476-10.7504-5.82476-6.7996,0-11.74999,4.95036-11.74999,11.74996,0,6.8012,4.95039,11.75,11.74999,11.75,5.6961,0,10.1108-3.4753,11.3815-8.6318l-.971-.2393c-1.1563,4.6925-5.1566,7.8711-10.4105,7.8711-6.2474,0-10.74999-4.5011-10.74999-10.75z"/></svg>