<svg width="36" height="36" xmlns="http://www.w3.org/2000/svg"><path fill-rule="evenodd" clip-rule="evenodd" d="m18.1549,7.26566c.0317-.00183.0633-.00348.0951-.00496v11.778l.25.1443,9.9509,5.7453C26.4087,28.128,22.827,30.25,18.75,30.25c-6.3509,0-11.5-5.1491-11.5-11.5,0-6.1509,4.8286-11.17368,10.9015-11.48415l.0034-.00019zM30.25,18.75c0,1.9165-.4689,3.7236-1.2983,5.3128L19.75,18.75l9.2017-5.3128c.8294,1.5892,1.2983,3.3963,1.2983,5.3128zm-1.7991-6.1783c-1.9583-3.06823-5.3322-5.14549-9.2009-5.31102V17.884l9.2009-5.3123zM18.0988,6.26724c.2183-.01262.4347-.01724.6512-.01724,6.9031,0,12.5,5.5969,12.5,12.5s-5.5969,12.5-12.5,12.5-12.5-5.5969-12.5-12.5c0-6.6855,5.2475-12.14439,11.8488-12.48276z"/></svg>