<svg width="24" height="24" xmlns="http://www.w3.org/2000/svg"><path fill-rule="evenodd" clip-rule="evenodd" d="m18.9999,3.1709.3536.3538,2.121,2.122-.7072.70694-1.7674-1.76819-1.7674,1.76819-.7072-.70694,2.121-2.122.3536-.3538zM2.25,3.25h12.5v17.5H2.25V3.25zm1,1v15.5h10.5V4.25H3.25zm13.9827,13.3972,1.7675,1.7674,1.7674-1.7674.7071.7071-2.4745,2.4745-.3536-.3535-2.121-2.121.7071-.7071zM8.49951,6.00024c-.27618,0-.5.22347-.5.5,0,.27586.22414.5.5.5s.5-.22414.5-.5c0-.27653-.22382-.5-.5-.5zm-1.5.5c0-.82947.67219-1.5,1.5-1.5.82782,0,1.5.67053,1.5,1.5,0,.82814-.67186,1.5-1.5,1.5s-1.5-.67186-1.5-1.5zm-.5,2.49951h-.5v6.00005h1v4h3v-4h.99999V8.99975H6.49951zM7.49951,13.9998h-.5V9.99975h3v4.00005h-1v4h-1v-4h-.5z"/></svg>