<svg width="36" height="36" xmlns="http://www.w3.org/2000/svg"><path fill-rule="evenodd" clip-rule="evenodd" d="m18,6.25342c-4.8331,0-8.75,3.91688-8.75,8.74998v.0098l.00038.0098c.05928,1.5108.50849,2.781,1.21832,3.965l-.0002.0001.0066.0104,7.125,11.2485.4224.6667.4224-.6667,7.1265-11.2485.0062-.0098.0058-.0101c.6938-1.217,1.152-2.5124,1.1666-3.9702v-.005c0-4.8332-3.9184-8.74998-8.75-8.74998zM11.3232,18.4686c-.6338-1.0587-1.02-2.1632-1.0732-3.475.0053-4.2763,3.4724-7.74018,7.75-7.74018,4.2786,0,7.7486,3.46788,7.75,7.74748-.0129,1.2376-.3983,2.3624-1.0297,3.4724l-6.6978,10.5718-6.6993-10.5765zm6.6511-8.118,1.7895,4.8255h-3.5865l1.797-4.8255zm4.9019,9.1575-4.092-10.51054h-1.554l-4.11,10.51054h1.461l1.1955-3.2145h4.395l1.167,3.2145h1.5375z"/></svg>