<svg width="24" height="24" xmlns="http://www.w3.org/2000/svg"><path fill-rule="evenodd" clip-rule="evenodd" d="m19,3.5c0-.27618.2235-.5.5-.5s.5.22382.5.5-.2235.5-.5.5-.5-.22382-.5-.5zm.5-1.5c-.8295,0-1.5.67218-1.5,1.5,0,.32002.1002.61678.2711.86044L14.9154,9.0582C14.7835,9.0203,14.6442,9,14.5,9c-.4497,0-.8527.19759-1.1275.51044l-2.3737-.94935C10.9996,8.54082,11,8.52046,11,8.5,11,7.67186,10.3281,7,9.5,7,8.67186,7,8,7.67186,8,8.5c0,.17265.0292.33851.08293.49291L5.29207,11.2261C5.06218,11.0828,4.79072,11,4.5,11c-.82814,0-1.5.6719-1.5,1.5,0,.8295.67218,1.5,1.5,1.5S6,13.3295,6,12.5c0-.1728-.02924-.3387-.08304-.4932l2.7907-2.23305C8.93761,9.91714,9.20917,10,9.5,10c.44909,0,.8522-.19758,1.1272-.51052l2.374.94942c-.0008.0203-.0012.0407-.0012.0611,0,.8278.6705,1.5,1.5,1.5s1.5-.6722,1.5-1.5c0-.32-.1002-.61672-.271-.86036l3.3557-4.69782C19.2165,4.97971,19.3559,5,19.5,5c.8295,0,1.5-.67218,1.5-1.5S20.3295,2,19.5,2zM4,12.5c0-.2759.22414-.5.5-.5s.5.2241.5.5c0,.2765-.22382.5-.5.5s-.5-.2235-.5-.5zm4,.504h3V21h2v-5.996h3V21h2V9.004h3V22H3v-4.996h3V21h2v-7.996zM10,21v-6.996H9V21h1zm5,0v-4.996h-1V21h1zm5-10.996V21h-1V10.004h1zM5,18.004V21H4v-2.996h1zM9.5,8c-.27586,0-.5.22414-.5.5s.22414.5.5.5.5-.22414.5-.5S9.77586,8,9.5,8zm4.5,2.5c0-.2762.2235-.5.5-.5s.5.2238.5.5-.2235.5-.5.5-.5-.2238-.5-.5z"/></svg>