<svg width="36" height="36" xmlns="http://www.w3.org/2000/svg"><path fill-rule="evenodd" clip-rule="evenodd" d="m7.75,3.25h4v7.5H12c1.5199,0,2.75,1.2321,2.75,2.75V18h-1v-.25h-8v6.5H12v1H5.75v6.5H12v1H4.75V13.5c0-1.5179,1.23014-2.75,2.75-2.75h.25v-7.5zm6,10.25v3.25h-8V13.5c0-.9661.78286-1.75,1.75-1.75h1.25v-7.5h2v7.5H12c.9671,0,1.75.7839,1.75,1.75zm4,12c0-.9661.7829-1.75,1.75-1.75s1.75.7839,1.75,1.75-.7829,1.75-1.75,1.75-1.75-.7839-1.75-1.75zm1.75-2.75c-1.5199,0-2.75,1.2321-2.75,2.75s1.2301,2.75,2.75,2.75,2.75-1.2321,2.75-2.75-1.2301-2.75-2.75-2.75zm6.75,4c-.5522,0-1,.447-1,1s.4478,1,1,1,1-.447,1-1-.4478-1-1-1zm-2,1c0-1.106.8962-2,2-2s2,.894,2,2-.8962,2-2,2-2-.894-2-2zm-10-8h-.5v13h19v-4.2027l-.2481-.1447c-.7492-.437-1.2519-1.2351-1.2519-2.1526s.5027-1.7156,1.2519-2.1526l.2481-.1447V19.75h-5.5V21c0,.9661-.7829,1.75-1.75,1.75s-1.75-.7839-1.75-1.75v-1.25h-9.5zm.5,12v-11h8V21c0,1.5179,1.2301,2.75,2.75,2.75s2.75-1.2321,2.75-2.75v-.25h3.5v2.6424c-.8997.6295-1.5,1.6674-1.5,2.8576s.6003,2.2281,1.5,2.8576V31.75h-17z"/></svg>