<svg width="31" height="16" xmlns="http://www.w3.org/2000/svg"><path fill-rule="evenodd" clip-rule="evenodd" d="m10.9418,2.998c1.461,0,2.801.3,3.881,1l.701-2.42c-1.461-.56-3.101-.781003-4.661-.781003C5.82084.796997,2.48083,3.938,2.48083,9.039c0,4.321,2.74001,6.201,6.84101,6.201,1.35996,0,2.91996-.28,3.74096-.62l1.6-7.622H9.00183l-.46,2.201h2.96097l-.781,3.7c-.32.141-.73997.141-1.37996.141-2.38001,0-3.941-1.82-3.941-4.081,0-3.3,2.141-5.961,5.54096-5.961zm9.7395,3.5206,1.18-5.481h-2.8l-3.001,13.962h2.801l1.521-7.101,3.88,7.101h3.341l-4.501-7.601,7.062-6.361h-3.902l-5.541,5.481h-.04z"/></svg>