<svg width="31" height="16" xmlns="http://www.w3.org/2000/svg"><path fill-rule="evenodd" clip-rule="evenodd" d="m10.9418,2.998c1.461,0,2.801.3,3.881,1l.701-2.42c-1.461-.56-3.101-.781003-4.661-.781003C5.82077.796997,2.48077,3.938,2.48077,9.039c0,4.321,2.74,6.201,6.841,6.201,1.36003,0,2.92003-.28,3.74103-.62l1.6-7.622H9.00177l-.46,2.201h2.96103l-.781,3.7c-.32.141-.74003.141-1.38003.141-2.38,0-3.941-1.82-3.941-4.081,0-3.3,2.141-5.961,5.54103-5.961zm12.0606,2.8406-2.021-4.801h-3.021l3.061,6.381-6.462,7.581h3.482l4.361-5.6h.04l2.14,5.6h3.06l-3.24-7.301,5.781-6.661h-3.301l-3.84,4.801h-.04z"/></svg>