<svg width="33" height="16" xmlns="http://www.w3.org/2000/svg"><path fill-rule="evenodd" clip-rule="evenodd" d="m25.7012,7.49799h-1l.9-4.261h.88c1.2,0,2.341.3,2.341,1.721,0,1.74-1.581,2.54-3.121,2.54zM20.3002,15h2.8l1.121-5.30101h1.62c3.121,0,5.901-1.661,5.901-5.041,0-3.481-3.541-3.621-6.121-3.621h-2.36L20.3002,15zM9.20209,1.03711h-4.621l-2.961,13.96299h2.66l2.561-11.56299h.04l1.121,11.56299h2.68001l6.322-11.56299h.039l-2.64,11.56299h2.96l2.981-13.96299h-4.66l-5.502,10.06299h-.04L9.20209,1.03711z"/></svg>