<svg width="26" height="16" xmlns="http://www.w3.org/2000/svg"><path fill-rule="evenodd" clip-rule="evenodd" d="m6.9614,6.99899h-1.02l.78-3.761h1.16c1.14,0,2.401,0,2.401,1.461,0,1.84-1.82,2.3-3.321,2.3zm.68-5.961h-3.301L1.4204,15.001h2.8l1.221-5.80101h1.06c1.29013,0,1.42761.74922,1.63535,1.88141.03701.2017.07626.4156.12465.6396l.68,3.28h2.941l-1.34-5.62101c-.18-.761-.661-1.24-1.42-1.28v-.04c2.28-.04,4.08-1.321,4.08-3.721,0-3.302-2.9118-3.30148-5.47049-3.30102-.03022.00001-.06039.00002-.09051.00002zm17.3609.0001h-8.222l-2.94,13.96301h8.322l.479-2.2h-5.521l.82-3.92101h4.902l.44-2.201h-4.882l.721-3.441h5.461l.42-2.2z"/></svg>