<svg width="25" height="16" xmlns="http://www.w3.org/2000/svg"><path fill-rule="evenodd" clip-rule="evenodd" d="m20.4602,2.99681c1.066,0,2.175.301,3.031.721l.69-2.301c-1.191-.459996-2.508-.619996-3.784-.619996-2.801,0-5.434,1.279996-5.434,4.220996,0,2.04103,1.4965,2.84217,2.8478,3.56558,1.1123.59545,2.1262,1.13823,2.1262,2.27641,0,1.5-1.38,2.18-2.78,2.18-1.254,0-2.445-.461-3.574-.961l-.753,2.381c1.317.46,2.76.78,4.16.78,3.198,0,6-1.24,6-4.661,0-2.20545-1.6069-3.1124-2.9944-3.89551-1.0541-.59494-1.9816-1.11841-1.9816-2.08548,0-1.2,1.401-1.601,2.446-1.601zm-5.9334-1.9597H3.25884l-.502,2.2h4.118l-2.654,11.76299h3.052l2.654-11.76299h4.11796l.482-2.2z"/></svg>