<svg width="36" height="16" xmlns="http://www.w3.org/2000/svg"><path fill-rule="evenodd" clip-rule="evenodd" d="m10.612,14.8602c2.2899,0,4.1772-1.7308,4.4289-3.9508h3.2407l3.8697-4.80095.3271.6235c-1.1099.83888-1.8313,2.16696-1.8313,3.66855,0,2.5388,2.0607,4.5995,4.5995,4.5995,2.5418,0,4.6023-2.0607,4.6023-4.5995,0-2.54176-2.0605-4.59967-4.6023-4.59967-.534,0-1.0429.09515-1.5211.26282L21.0637,1h-3.2352v1.41477h2.3797l.7437,1.41767h-6.2018l-.3748-.71301,1.331.00563V1.70739l-4.9322.01399v1.3896l1.9991.00563.727,1.38132-1.2219,1.7671c-.5144-.20693-1.0764-.32434-1.6663-.32434-2.46352,0-4.4599,1.99638-4.4599,4.45981,0,2.4604,1.99638,4.4597,4.4599,4.4597zm14.6346-7.5998c1.7335,0,3.1401,1.40641,3.1401,3.1401,0,1.7307-1.4066,3.1399-3.1401,3.1399-1.7307,0-3.1371-1.4092-3.1371-3.1399,0-.93671.4166-1.76722,1.068-2.34312l1.5854,3.01412,1.2526-.6599-1.5937-3.02815c.2657-.0727.5369-.12305.8248-.12305zm-12.5405.93949c.3692.35232.6403.79698.797,1.29189h-1.6694l.8724-1.29189zm8.3269-2.95268-3.3554,4.14661-2.1865-4.15215,5.5419.00554zm-6.7834.67394,1.8789,3.57063h-1.1492c-.2041-.98428-.7354-1.84825-1.4707-2.47738l.741-1.09325zm-3.6376,1.4344c.2879,0,.559.05307.822.12859L9.69483,9.99787l.62337.91153h3.2856c-.2434,1.4344-1.4876,2.5332-2.9918,2.5332-1.6778,0-3.04513-1.3645-3.04513-3.0421,0-1.68044,1.36733-3.04495,3.04513-3.04495zM3.30483,14.3494c-.34956-.5332-.64002-1.0035-.87013-1.4146-.23136-.4112-.52811-1.0248-.89024-1.8409C1.18232,10.2766,1,9.2644,1,8.05477c0-1.12286.19867-2.15896.59098-3.10076.39231-.94306.96318-2.0018,1.71259-3.17496h1.2725c-.41118.72427-.72679,1.31148-.94432,1.75912-.21753.44638-.47781,1.05999-.78085,1.84084-.30052.77959-.45266,1.67864-.45266,2.69462,0,1.03862.16597,1.98167.49919,2.82037.33195.8425.58972,1.4498.77079,1.8245s.4841.9192.90785,1.6321H3.30483v-.0012zM34.3628,4.82573c-.4225-.95563-.9795-1.97162-1.6685-3.04796v.00377h-1.2688c.4125.70289.7092,1.24358.8991,1.62331.1848.381.3885.84121.6061,1.37938.2162.53817.3797,1.08011.4903,1.62331.1094.5432.1635,1.08766.1635,1.63212,0,1.01598-.1559,1.92886-.4627,2.73864-.3093.811-.5533,1.397-.7356,1.7604-.1811.3608-.503.9682-.9607,1.8131h1.2688c.4589-.7129.7871-1.246.9807-1.5969.1924-.352.4628-.9342.8073-1.7515.3445-.8161.5181-1.79938.5181-2.94865,0-1.19705-.2138-2.27339-.6376-3.22902z"/></svg>