<svg width="34" height="16" xmlns="http://www.w3.org/2000/svg"><path fill-rule="evenodd" clip-rule="evenodd" d="m5.94062,1.0376h-2.8l.88,13.962h3.46101l4.92097-11.162h.04l.14,11.162h3.501l6.661-13.962h-2.9l-4.942,10.702h-.04l-.06-10.702h-3.761l-4.63998,10.702h-.04l-.421-10.702zM26.9418,6.67872h-1.101l.74-3.441h.981c1.06,0,2.341.06,2.341,1.4,0,1.641-1.541,2.041-2.961,2.041zm-1.421,6.12098h-.96l.841-4.03998h.899c1.501,0,2.861.219,2.861,1.67998,0,2.16-1.921,2.36-3.641,2.36zm2.961-11.76198h-4.141l-2.921,13.96198h3.982c2.08,0,6.56-.32,6.56-4.32,0-1.50098-.68-2.70098-2.24-2.94098v-.04c1.62-.26,2.98-1.62,2.98-3.32,0-2.541-2.04-3.341-4.22-3.341z"/></svg>