<svg width="26" height="16" xmlns="http://www.w3.org/2000/svg"><path fill-rule="evenodd" clip-rule="evenodd" d="m3.30718,14.267c-.35004-.529-.64072-.9991-.87052-1.4071-.23133-.4111-.52809-1.0202-.89335-1.8333C1.18263,10.2149,1,9.20684,1,8.00378c0-1.16679.19632-2.20663.59049-3.12253.39265-.91288.9664-1.95423,1.71669-3.12102H4.581c-.41244.72093-.72747,1.30433-.94662,1.75019-.21763.44435-.47787,1.05495-.78072,1.8318-.30286.77534-.45505,1.66858-.45505,2.6797,0,1.0353.16437,1.96934.49918,2.80518.33329.8358.59049,1.4418.7716,1.8136.18262.3733.48548.9129.91008,1.6248H3.30718v.0015zm6.78152-4.47827L8.18025,7.64105,7.32495,6.6133c-.46113-.63629-.69245-1.35723-.69245-2.1628,0-1.09424.4033-2.12652,1.2099-3.09986l.19936-.21613L8.14069,1,12.9818,6.46216l-.0061-2.06758,3.7423-3.39307.8873.95369-3.3238,3.01522.0015,1.58998,4.1015-3.75882.9146.97938-4.1273,3.75278,1.6162.10428,3.3117-2.99104.9085.93706-3.7256,3.39307-2.1991-.14358,4.1441,4.67477L17.5201,15,13.236,10.1651l-.0929-.34312-.1065.32492L7.72369,15,6.19724,13.3481,10.0887,9.78873zM8.21374,3.47414c-.06088.1451-.10349.28566-.12784.4247-.02283.13754-.03501.27357-.03501.40657,0,.6635.24655,1.27712.74116,1.84389l.50983.57584,1.83392,2.09479,1.0866-.97182L8.36592,3.4681,8.232,3.11292l-.01826.36122zM23.0415,1.76023c.6894,1.07006,1.2479,2.08118,1.6725,3.03185.4231.94915.6362,2.02072.6362,3.2117,0,.58944-.0609,1.17284-.1811,1.75019-.1218.57733-.2938,1.12293-.519,1.63233-.2237.5123-.4322.9416-.627,1.2907-.1933.3491-.522.8781-.9816,1.59h-1.2723c.4246-.7346.7396-1.3149.9451-1.7411.2054-.4263.4626-1.0353.7716-1.8228.3089-.78741.4656-1.69425.4656-2.71595,0-1.02321-.1613-1.94667-.4824-2.77037-.3211-.82371-.5813-1.43129-.7807-1.82274-.2009-.38994-.5068-.93555-.9192-1.63381h1.2723z"/></svg>