<svg width="59" height="20" xmlns="http://www.w3.org/2000/svg"><path fill-rule="evenodd" clip-rule="evenodd" d="m2,0C.89543,0,0,.895431,0,2v16c0,1.1046.895431,2,2,2h55c1.1046,0,2-.8954,2-2V2c0-1.104569-.8954-2-2-2H2z" fill="#212121"/><path fill-rule="evenodd" clip-rule="evenodd" d="m9.10892,16.0759c-2.55856,0-4.95519-1.2674-4.9228-4.1271h2.4614c0,1.5436,1.19831,2.1448,2.55856,2.1448.89062,0,2.25092-.26,2.25092-1.4461,0-1.0678-1.2621-1.3781-2.68905-1.729-.24499-.0602-.49483-.1217-.74399-.1883-1.7165-.455-3.4492-1.12116-3.4492-3.29844,0-2.37226,2.23469-3.50964,4.32365-3.50964,2.41279,0,4.63129,1.05614,4.63129,3.73712h-2.4614c-.0809-1.39736-1.06873-1.75482-2.28324-1.75482-.80968,0-1.7489.34121-1.7489,1.31611,0,.86645.51756.99975,3.19094,1.68828.0839.02162.17.04379.2583.06654.0313.00786.065.01616.1009.02501.9302.229,3.3321.82029,3.3321,3.35464,0,2.1285-1.6679,3.7209-4.80948,3.7209zm8.58018-.2763h-2.3804V4.19834h2.5262l4.8256,7.78296h.0324V4.19834h2.3804V15.7996H22.531l-4.8095-7.76665h-.0324v7.76665z" fill="#efc800"/></svg>