<svg width="24" height="24" xmlns="http://www.w3.org/2000/svg"><path fill-rule="evenodd" clip-rule="evenodd" d="m13,5.5c0-.25686.2431-.5.5-.5s.5.24314.5.5-.2431.5-.5.5-.5-.24314-.5-.5zm.5-1.5c-.8091,0-1.5.69086-1.5,1.5S12.6909,7,13.5,7,15,6.30914,15,5.5,14.3091,4,13.5,4zm-1.2066,4h2.5161l.1382.27639.9798,1.95971,1.473,1.9639-.8.6-1.5-2-.0271-.0361-.0201-.0403L15,10.6171v2.8528l.9428,1.7979.0572.1091V20h-1v-4.3768l-.8024-1.5302H13v2.4426l-.005.0351-.5,3.5-.99-.1414L12,16.4645V9.70759l-.9995.99951V13h-1v-2.7071l.1464-.1465,2-1.99995L12.2934,8zM13,13.093V9h1v4.093h-1zm-2.9281.2549-.74797,1.8518-1.85211-.7549-.18788.4651-1.124,2.782-.18663.4619.46126.1883,1.80663.7375c-.04845-.0147-.09807-.022-.14647-.022-.198,0-.385.118-.464.312-.103.256.021.548.277.652.061.024.125.036.187.036.197,0,.385-.118.463-.313.09776-.2397-.00594-.5121-.23138-.6303l.42484.1734.18795-.4653,2.05996-5.1-.9272-.3745zm-2.04865,2.4016.92615.3775-.74952,1.8556-.92612-.3781.74949-1.855zm-1.78301,2.5591c-.198,0-.385.118-.464.312-.103.256.021.548.277.651.061.025.125.037.187.037.198,0,.385-.118.463-.313.104-.256-.02-.547-.276-.651-.061-.024-.125-.036-.187-.036z"/></svg>