<svg width="24" height="24" xmlns="http://www.w3.org/2000/svg"><path fill-rule="evenodd" clip-rule="evenodd" d="m7,2c0,.44511.21133.93296.53621,1.30425C7.86937,3.68501,8.37264,4,9,4c.5574,0,.93476.45772.96312,1.02497.01362.27233-.06296.51532-.20503.68246C9.62522,5.86375,9.39652,6,9,6,7.94603,6,7,6.80219,7,8h1c0-.60219.45397-1,1-1,.65348,0,1.1748-.23875,1.52-.64493.3361-.39536.4658-.90237.4419-1.38004C10.9152,4.04228,10.2426,3,9,3c-.27264,0-.51937-.13501-.71121-.35425C8.08867,2.41704,8,2.15489,8,2H7zm11.5,10H16V9H5v12h11v-2h3v-7h-.5zM16,18h2v-5h-2v5zM11.5362,3.30425C11.2113,2.93296,11,2.44511,11,2h1c0,.15489.0887.41704.2888.64575C12.4806,2.86499,12.7274,3,13,3c1.2426,0,1.9152,1.04228,1.9619,1.97503.0239.47767-.1058.98468-.4419,1.38004C14.1748,6.76125,13.6535,7,13,7c-.546,0-1,.39781-1,1h-1c0-1.19781.946-2,2-2,.3965,0,.6252-.13625.7581-.29257.1421-.16714.2186-.41013.205-.68246C13.9348,4.45772,13.5574,4,13,4c-.6274,0-1.1306-.31499-1.4638-.69575zM6,20V10h9v10H6z"/></svg>