<svg width="24" height="24" xmlns="http://www.w3.org/2000/svg"><path fill-rule="evenodd" clip-rule="evenodd" d="m16.2803,9.87524c.4924.11116.8964.37756,1.1894.74226.4.498.5731,1.1523.5295,1.7888-.0438.6401-.3084,1.2927-.8235,1.787-.5206.4994-1.2648.8064-2.2082.8064H7.96752c-.95307,0-1.6923-.3064-2.20019-.8158-.50185-.5033-.73647-1.1635-.76445-1.8024-.02783-.6352.14662-1.2833.50702-1.7849.27444-.3819.66271-.68346,1.1432-.81095.09254-1.84697,2.00982-2.87987,3.5231-2.16551.9459-1.53234,2.625-1.90785,3.9861-1.41639.7446.26886,1.4035.79902,1.7946,1.54237.3182.60485.4475,1.32875.3234,2.12912zm-2.4576-2.73093c-1.0499-.3791-2.3635-.04452-2.9981,1.38697l-.2654.59878-.5076-.41388c-.97196-.79241-2.56613-.04404-2.38764,1.44392l.06713.5596h-.56357c-.34918,0-.63547.1681-.84553.4605-.21626.3009-.33912.7228-.32007,1.1576.01889.4312.17533.8409.47358,1.1401.2922.2931.7621.5218,1.49202.5218h6.99998c.7171,0,1.2032-.2281,1.5159-.528.318-.3051.4896-.7163.5182-1.1337.0288-.421-.0896-.818-.3116-1.0943-.2117-.2636-.536-.4431-1.0025-.4244l-.6994.0279.2003-.6706c.2411-.80715.1453-1.46721-.1165-1.96487-.2652-.504-.7188-.8759-1.2492-1.06742z"/></svg>