<svg width="24" height="24" xmlns="http://www.w3.org/2000/svg"><path fill-rule="evenodd" clip-rule="evenodd" d="m21.3536,20.6465L3.35359,2.64648l-.35355.35356-.35356.35355.35356.35355v2.2929h1v-1.2929l2.99951,2.99952v2.29344h1V8.70666l1.29143,1.29142h-.29192v.99902h-2v1h2v-.999h1.00104v-.2909l.9999.9999V17h5.2929l1.0003,1.0003-2.2922.0007v1h-1v2h1v-1h1v-1.003h1v2h2v-1h-1v-1.2899l1.9998,1.9998v.2897h.2897l.356.356.7071-.7071zM15.2929,16,14.29,14.9971H13v-1.29l-1-1V16h3.2929zM3.00004,7.99613h2.001v-1h-2.001v1zm7.00006-2.99707H8.99906v-1h1.00104v1zm1.0009,0h1v-2h-1v2zm4-.00193h-2v-1.001h2v-.99902h2v2h-1v-1h-1v1.00002zM3.00004,17h1v-2h-1v2zm1-6.0019h-1V9.99808h1v-.99804h1.001V10h-1.001v.9981zm-1,1.999h1V12h1.001v-1h-1.001v.9961h-1v1.001zM4.00004,14h1.001v-1h-1.001v1zM21.001,13h-1v.998h-2v1h2V14h1v-1zm-1-2h1v1h-1v.998h-2v-1h2V11zM15,9.00004h1v.99804h1v-1h-1V7.00004h-1v2zM21.001,17h-1v-2h1v2zm-7.999,4.001h-1.001v-1h1.001v1zm-6.00294.0001h1v-2.002h-1v2.002zm2.00049-4.003h1l.00095,1h1v1H8.99955v-.998h-1v-1h1v-.002zm3.00145,2h2.001v-1h-2.001v1zm-5.00194-4h1V14h2.00104v-1H7.99906v.9981h-1v1zm1,2h-1v-1h1V15h2.00104v1H7.99906v.9981zM20.001,8.9976h1v-2h-2v1h1v1zM11.0001,21.001H8.99906v-1h2.00104v1zm7.0009-10.0009V9.00008l-1-.002v-1h2v2h1v1.00002l-2,.002zm-3.0049.996h1.004v1.004l1,1v-3.003h-3.003l.999.999zM13,9.99804h-.002l-.998-.998v-.002h1v-.998h1V10h-1v-.00196zm-2.0005-1.99847v-.001h2v-1h-2.999v.001h-.00095l.99995,1zM6.99955,3.9976v.002l-1-1v-.002h3v1h-2z"/></svg>