<svg width="36" height="36" xmlns="http://www.w3.org/2000/svg"><path fill-rule="evenodd" clip-rule="evenodd" d="m18,3.25C9.8538,3.25,3.25,9.8538,3.25,18h1c0-7.5939,6.1561-13.75,13.75-13.75S31.75,10.4061,31.75,18,25.5939,31.75,18,31.75c-5.5471,0-10.54437-3.2871-12.74021-8H9v-1H3.25v5.75h1v-4.5548C6.55542,29.1354,11.9795,32.75,18,32.75c8.1462,0,14.75-6.6038,14.75-14.75S26.1462,3.25,18,3.25zM8.07263,17.7327C10.1534,14.4436,13.8158,12.25,18,12.25s7.8466,2.1936,9.9274,5.4827l.1691.2673-.1691.2673C25.8466,21.5564,22.1842,23.75,18,23.75s-7.8466-2.1936-9.92737-5.4827L7.90352,18l.16911-.2673zM18,22.75c3.7109,0,6.9753-1.886,8.9076-4.75-1.9323-2.864-5.1967-4.75-8.9076-4.75S11.0247,15.136,9.0924,18c1.9323,2.864,5.1967,4.75,8.9076,4.75zm0-6.5c-.9665,0-1.75.7835-1.75,1.75s.7835,1.75,1.75,1.75,1.75-.7835,1.75-1.75-.7835-1.75-1.75-1.75zM15.25,18c0-1.5188,1.2312-2.75,2.75-2.75s2.75,1.2312,2.75,2.75-1.2312,2.75-2.75,2.75-2.75-1.2312-2.75-2.75z"/></svg>