<svg width="48" height="48" fill="none" xmlns="http://www.w3.org/2000/svg"><path d="m32,35.4995,4,7.001m-24,0,4-7.001m20,3H12m26,4.001H10" stroke="#000"/><path fill-rule="evenodd" clip-rule="evenodd" d="m17.5,29.9995c0-.828-.672-1.5-1.5-1.5s-1.5.672-1.5,1.5c0,.829.672,1.5,1.5,1.5s1.5-.671,1.5-1.5z" stroke="#000"/><path fill-rule="evenodd" clip-rule="evenodd" d="m33.5,29.9995c0-.828-.672-1.5-1.5-1.5s-1.5.672-1.5,1.5c0,.829.672,1.5,1.5,1.5s1.5-.671,1.5-1.5z" stroke="#000"/><path d="m28,14.5005h-8m17.5,9.999h-27M32,5.49951H16" stroke="#000"/><path fill-rule="evenodd" clip-rule="evenodd" d="m37.5,35.4995h-27v-19c0-2.761,2.325-5,5.192-5h16.616c2.868,0,5.192,2.239,5.192,5v19z" stroke="#000"/><path d="m20,5.49951,4,5.99999m4-5.99999-4,5.99999" stroke="#000"/><path fill-rule="evenodd" clip-rule="evenodd" d="m24.7216,28.0005,1.444,1.5h-1.715v-1.5h-.902v1.5h-1.715l1.445-1.5h-1.083l-1.806,2,1.806,2h1.083l-1.445-1.5h1.715v1.5h.902v-1.5h1.715l-1.444,1.5h1.083l1.806-2-1.806-2h-1.083z" fill="#000"/></svg>