<svg width="24" height="24" xmlns="http://www.w3.org/2000/svg"><path fill-rule="evenodd" clip-rule="evenodd" d="m12.0002,2c-1.6571,0-2.99995,1.34286-2.99995,3v1.95654H5.03444L3.96301,21.9565H20.037l-.0383-.5356-1-13.99998-.0331-.46438H14.998l.0022-1.95596V5c0-1.65714-1.3428-3-3-3zm1.9966,5.95654-.0036,3.04286,1,.0012.0036-3.04406h3.0376l.9286,12.99996H5.03699l.92857-12.99996h3.03469V11h.99995V7.95654h3.9966zm.0012-1L14.0002,5v-.00017c0-1.10478-.8952-1.99983-2-1.99983s-2,.89514-2,2v1.95654h3.9978z"/></svg>