<svg width="24" height="24" xmlns="http://www.w3.org/2000/svg"><path fill-rule="evenodd" clip-rule="evenodd" d="m13.0039,5.01677V3.00024h-1v2.01602c-3.7551.24328-6.74245,3.22942-6.98763,6.98394H3v1h2.01628c.24523,3.7537,3.23253,6.7407,6.98762,6.984v2.0156h1v-2.0161c3.7529-.2471,6.7371-3.2347,6.9801-6.9879h2.0149v-1h-2.0155c-.247-3.74985-3.2295-6.73221-6.9795-6.97903zM6,12.5002c0-3.60081,2.89914-6.49996,6.5-6.49996,3.6009,0,6.5,2.89915,6.5,6.49996,0,3.5999-2.8992,6.5-6.5,6.5-3.60081,0-6.5-2.9001-6.5-6.5zm3,0c0-1.9328,1.5671-3.49996,3.5-3.49996S16,10.5674,16,12.5002c0,1.932-1.5672,3.5-3.5,3.5s-3.5-1.568-3.5-3.5zm3.5-4.49996c-2.4851,0-4.5,2.01486-4.5,4.49996,0,2.4841,2.0148,4.5,4.5,4.5s4.5-2.0159,4.5-4.5c0-2.4851-2.0149-4.49996-4.5-4.49996z"/></svg>