<svg width="24" height="24" xmlns="http://www.w3.org/2000/svg"><path fill-rule="evenodd" clip-rule="evenodd" d="m4,6c0-.10056.07091-.29888.44971-.56405.3651-.25558.92677-.50606,1.66795-.72461C7.59352,4.27615,9.66854,4,12,4c2.3315,0,4.4065.27615,5.8823.71134.7412.21855,1.3029.46903,1.668.72461C19.9291,5.70112,20,5.89944,20,6s-.0709.29888-.4497.56405c-.3651.25558-.9268.50606-1.668.72461C16.4065,7.72385,14.3315,8,12,8c-2.33146,0-4.40648-.27615-5.88234-.71134-.74118-.21855-1.30285-.46903-1.66795-.72461C4.07091,6.29888,4,6.10056,4,6zM3,6c0-.59044.40034-1.05012.87623-1.38327.48958-.34272,1.16604-.63087,1.95861-.86457C7.42648,3.28285,9.60146,3,12,3c2.3985,0,4.5735.28285,6.1652.75216.7925.2337,1.469.52185,1.9586.86457C20.5997,4.94988,21,5.40956,21,6v12c0,.6575-.4241,1.1545-.9514,1.5092-.5319.3577-1.2575.6358-2.0783.8505-1.6491.4313-3.82.6416-5.9703.6416-2.15033,0-4.32124-.2103-5.97028-.6416-.82085-.2147-1.54646-.4928-2.0783-.8505C3.42412,19.1545,3,18.6575,3,18V6zm1,9.5564V18c0,.1763.10713.4088.50952.6794.39785.2676,1.00036.5106,1.77326.7128,1.53846.4024,3.61755.6091,5.71722.6091,2.0997,0,4.1788-.2067,5.7172-.6091.7729-.2022,1.3754-.4452,1.7733-.7128C19.8929,18.4088,20,18.1763,20,18v-2.4436c-.527.3434-1.2334.6122-2.0293.8212-1.6492.433-3.8203.6441-5.9707.6441-2.15043,0-4.32152-.2111-5.97074-.6441-.79587-.209-1.50222-.4778-2.02926-.8212zm16-1.5457c0,.1788-.1082.4127-.5103.6842-.3978.2686-1.0002.5125-1.7729.7154-1.5383.404-3.6172.6114-5.7168.6114-2.09957,0-4.17848-.2074-5.71676-.6114-.77278-.2029-1.37518-.4468-1.77297-.7154C4.10824,14.4234,4,14.1895,4,14.0107v-2.465c.52704.3434,1.23339.6122,2.02926.8212,1.64922.433,3.82031.6441,5.97074.6441,2.1504,0,4.3215-.2111,5.9707-.6441.7959-.209,1.5023-.4778,2.0293-.8212v2.465zm0-6.54448V10c0,.1788-.1082.4127-.5103.6842-.3978.2686-1.0002.5125-1.7729.7154-1.5383.404-3.6172.6114-5.7168.6114-2.09957,0-4.17848-.2074-5.71676-.6114-.77278-.2029-1.37518-.4468-1.77297-.7154C4.10824,10.4127,4,10.1788,4,10V7.46622c.47718.30652,1.10706.56702,1.83484.78162C7.42648,8.71715,9.60146,9,12,9c2.3985,0,4.5735-.28285,6.1652-.75216.7277-.2146,1.3576-.4751,1.8348-.78162z"/></svg>