<svg width="36" height="36" xmlns="http://www.w3.org/2000/svg"><path fill-rule="evenodd" clip-rule="evenodd" d="m8.01893,6.51893C7.53254,7.00532,7.25,7.78854,7.25,9v7.7507h21.5V9c0-1.21146-.2825-1.99468-.7689-2.48107S26.7115,5.75,25.5,5.75h-15c-1.21146,0-1.99468.28254-2.48107.76893zM7.25,27.25v-9.4993h21.5V27.25H7.25zm.06182-21.43818C8.06068,5.06296,9.15246,4.75,10.5,4.75h15c1.3475,0,2.4393.31296,3.1882,1.06182C29.437,6.56068,29.75,7.65246,29.75,9v4.75h1.5v2.5h-1.5v14.9993h-5.4985V28.25H11.75v2.9993h-5.5V16.25h-1.5v-2.5h1.5V9c0-1.34754.31296-2.43932,1.06182-3.18818zM29.75,15.25v-.5h.5v.5h-.5zm-23.5-.5h-.5v.5h.5v-.5zm19.0015,13.5H28.75v1.9993h-3.4985V28.25zm-18.0015,0h3.5v1.9993h-3.5V28.25zm3.25-20.5h15v1h-15v-1zM9.25,23.9993c0-.688.55921-1.25,1.25-1.25.6908,0,1.25.562,1.25,1.25,0,.6901-.5599,1.25-1.25,1.25-.69014,0-1.25-.5599-1.25-1.25zm1.25-.25c-.1372,0-.25.113-.25.25,0,.1378.1121.25.25.25s.25-.1122.25-.25c0-.137-.1128-.25-.25-.25zm15-1c-.6908,0-1.25.562-1.25,1.25,0,.6901.5599,1.25,1.25,1.25s1.25-.5599,1.25-1.25c0-.688-.5592-1.25-1.25-1.25zm-.25,1.25c0-.137.1128-.25.25-.25s.25.113.25.25c0,.1378-.1121.25-.25.25s-.25-.1122-.25-.25zM21.6011,21.75l-2.4015-2.25h1.8l3,3-3,3h-1.8l2.4015-2.25h-2.8515v2.25h-1.5v-2.25h-2.85l2.4,2.25h-1.8l-3-3,3-3h1.8l-2.4,2.25h2.85V19.5h1.5v2.25h2.8515z"/></svg>