<svg width="36" height="36" xmlns="http://www.w3.org/2000/svg"><path fill-rule="evenodd" clip-rule="evenodd" d="m24.1379,8.29088c1.6528-.81122,3.7003-.72071,5.3686.09282l.0082.00399.008.00428c1.0673.56943,2.0057,1.6057,2.3062,2.93243.3056,1.349-.068,2.907-1.4564,4.4586l-.0093.0104-2.2485,2.2485c-.6689.7611-.9925,1.3313-1.1632,1.9504-.1775.6436-.2016,1.3757-.2016,2.5073h-1c0-1.1139.0186-1.9792.2375-2.7731.2248-.8151.6488-1.5194,1.3874-2.3575l.0104-.0118,2.2512-2.2512c1.2076-1.3544,1.4376-2.5878,1.2172-3.5607-.2253-.9944-.9414-1.80942-1.7936-2.2668-1.4246-.69167-3.1418-.74742-4.4815-.08991-1.3096.64274-2.3286,2.00131-2.3286,4.31101h-1c0-2.6523,1.2025-4.38146,2.888-5.20872zM9.24988,20.2495v-8.25h1.00002v7.75h7.5v8.75h-1v-7.75H9.24988v-.5zm-6.00037,1.5017c0-2.5249,1.45902-4.7234,3.57025-5.7976l.4535.8912c-1.79177.9117-3.02375,2.7753-3.02375,4.9064,0,3.0209,2.47773,5.5,5.5,5.5,2.18729,0,4.09369-1.2994,4.97639-3.1694l.9043.4268c-1.0403,2.204-3.289,3.7426-5.88069,3.7426-3.57472,0-6.5-2.9269-6.5-6.5zm22.56779,3.7454v3h1v-3h-1zM9.49988,9.00027c0-.13786.11214-.25.25-.25s.25.11214.25.25-.11214.25-.25.25-.25-.11214-.25-.25zm.25-1.25c-.69014,0-1.25.55986-1.25,1.25s.55986,1.25003,1.25,1.25003c.69012,0,1.25002-.55989,1.25002-1.25003s-.5599-1.25-1.25002-1.25z"/></svg>