<svg width="36" height="36" xmlns="http://www.w3.org/2000/svg"><path fill-rule="evenodd" clip-rule="evenodd" d="m24.3535,4.14673,5.25,5.25.3536.35355-.3536.35352-5.25,5.25-.7071-.7071,4.3964-4.3964H11.25c-2.2094,0-4.00005,1.7906-4.00005,4,0,2.2079,1.79075,4,4.00005,4h13.5015c2.76,0,5,2.2382,5,5,0,2.7617-2.24,5-5,5H7.95779l4.39571,4.3957-.7071.7071-5.25-5.25-.35355-.3536.35355-.3535,5.25-5.25.7071.7071-4.39717,4.3972H24.7515c2.2079,0,4-1.7908,4-4,0-2.2093-1.7921-4-4-4H11.25c-2.7618,0-5.00005-2.24-5.00005-5,0-2.7617,2.23836-5.00002,5.00005-5.00002h16.7928l-4.3964-4.39644.7071-.70711z"/></svg>