<svg width="36" height="36" xmlns="http://www.w3.org/2000/svg"><path fill-rule="evenodd" clip-rule="evenodd" d="m24.756,3.25c-1.9197,0-3.4772,1.54525-3.4997,3.45782l-5.5985,1.05076-.4078.07653v2.32779l.4054.0781,5.8856,1.1335c-.1822.4211-.285.8856-.285,1.3755,0,1.9336,1.5664,3.5,3.5,3.5,1.7731,0,3.2397-1.3192,3.4689-3.0311,1.7117-.229,3.0311-1.6943,3.0311-3.4689,0-1.77315-1.3193-3.23972-3.0312-3.46887C27.9955,4.57046,26.5292,3.25,24.756,3.25zm-2.5,3.5c0-1.38002,1.1188-2.5,2.5-2.5,1.3799,0,2.5,1.12014,2.5,2.5v.5h.5c1.3812,0,2.5,1.11998,2.5,2.5,0,1.3814-1.1186,2.5-2.5,2.5h-.5v.5c0,1.3812-1.12,2.5-2.5,2.5-1.3814,0-2.5-1.1186-2.5-2.5,0-.5377.1738-1.0343.4667-1.4454l.4517-.6339L16.25,9.33711v-.67222l5.6342-1.05747.456-.08557-.0513-.46107c-.007-.06306-.0133-.10992-.0185-.14837-.0088-.06569-.0144-.10685-.0144-.16241zM9.25,6.25h4v4h-1.5v1.9978h.6236c2.1406,0,3.8749,1.7342,3.875,3.8748v.0002l.0045,16.1278.0001.5002H6.25334L6.24561,16.123v-.0002c0-2.1407,1.73435-3.875,3.87499-3.875h.6294V10.25h-1.5v-4zm1,1v2h2v-2h-2zm-3.00439,8.8728v-.0003c.00012-1.5882,1.28672-2.8747,2.87499-2.8747h2.253c1.5884,0,2.875,1.2866,2.875,2.875v.0001l.0002.6271H7.2459l-.00029-.6272zM7.24636,17.75l.00512,11.0015h8.00062l-.003-11.0015H7.24636zm.00651,14.0008-.00093-1.9993h8.00046l.0006,1.9993H7.25287z"/></svg>