<svg width="36" height="36" xmlns="http://www.w3.org/2000/svg"><path fill-rule="evenodd" clip-rule="evenodd" d="m14.25,10.2505c-4.69336,0-8.5,3.8066-8.5,8.5,0,4.6948,3.80659,8.5,8.5,8.5,4.6949,0,8.5-3.8052,8.5-8.5,0-4.6934-3.8052-8.5-8.5-8.5zm-9.5,8.5c0-5.2457,4.25436-9.50001,9.5-9.50001,5.0794,0,9.227,3.98671,9.4871,9.00001H31.5v1h-7.7629c-.26,5.0147-4.4077,9-9.4871,9-5.24559,0-9.5-4.2528-9.5-9.5zm9.5-3.9993c-2.2094,0-4,1.7907-4,4,0,2.208,1.7908,4,4,4s4-1.792,4-4c0-2.2093-1.7906-4-4-4zM9.25,18.7512c0-2.7616,2.2384-5,5-5s5,2.2384,5,5c0,2.7601-2.2382,5-5,5s-5-2.2399-5-5z"/></svg>