<svg width="24" height="24" xmlns="http://www.w3.org/2000/svg"><path fill-rule="evenodd" clip-rule="evenodd" d="m17.5514,3.84424.3022.30211,3,3,.3021.30211-.2513.34553-8,11.00001-.3442.4732-.4138-.4137-.3166-.3167-.1017.0175c-.2193.0378-.5201.0894-.8459.1447-.5452.0925-1.16543.1962-1.58976.2622-.15323.229-.33883.5095-.49973.7535-.10318.1564-.19582.2973-.26267.399l-.10039.153-.00554.0084-.0014.0022-.00035.0005-.00009.0001-.00002.0001-.4182-.2741.41819.2741-.337.5142-.43474-.4347-.21165-.2117-1.15956.773-.12684.0846H2.5592l.52187-.7828,1.77303-2.6595-.6673-.6673.51802-.3363.27223.4194c-.27223-.4194-.27222-.4194-.27221-.4194h.00004l.00016-.0001.00062-.0004.00244-.0016.0095-.0062.03635-.0236.13265-.0859c.11148-.0722.26436-.1711.4299-.2778.24274-.1565.51538-.3316.72445-.464.06184-.3896.16249-.9921.25395-1.534.05625-.3332.10933-.6453.14835-.8741l.02036-.1192-.31716-.3171-.41376-.4138.47323-.3442L17.2059,4.09553l.3455-.25129zM7.33049,14.0375c-.01603.0946-.03264.1928-.04954.2929-.11265.6674-.23676,1.4122-.28642,1.7436l-.03429.2288-.19661.122c-.1971.1223-.57401.364-.90527.5776l-.0904.0583,2.15556,2.1556.03438-.0522c.20671-.3134.45714-.6916.62792-.9442l.12344-.1826.21808-.0321c.3915-.0575,1.13576-.1815,1.78756-.2921.085-.0144.1683-.0286.2488-.0424l-3.63321-3.6332zm-1.75023,4.2497L4.4408,19.9964h1.40675l.86514-.5768-1.13243-1.1324zm1.68705-5.7271,5.17249,5.1725,7.4045-10.18125-2.3957-2.39579L7.26731,12.5601zm4.08629,1.7934,6-6.00005-.7072-.7071-6,5.99995.7072.7072z"/></svg>