<svg width="48" height="48" fill="none" xmlns="http://www.w3.org/2000/svg"><path d="m38.5,42.5h-29c-.55229,0-1-.4477-1-1s.44771-1,1-1h29c.5523,0,1,.4477,1,1s-.4477,1-1,1zm0-35h-29c-.55229,0-1-.44771-1-1s.44771-1,1-1h29c.5523,0,1,.44771,1,1s-.4477,1-1,1zM23.9982,24c0-2.7571,1.4295-5.3193,3.6611-6.6988.7956-.4837,1.5875-1.0993,2.3407-1.8012H18c.7576.7059,1.5548,1.3254,2.3571,1.8129,2.2116,1.3668,3.6411,3.93,3.6411,6.6871zm3.6571,9.665c-1.6676-1.0236-3.1145-1.7187-3.6053-3.663H24c-.4918,1.9453-1.9934,2.643-3.6753,3.6748C17.7114,35.2539,14.5356,35.1094,13.5,38.5h21c-1.0361-3.3916-4.2158-3.249-6.8447-4.835zM24,25v1m0,1v1M10.6235,7.5c.4208,5.3793,4.1698,9.9897,8.1515,12.3913,1.2857.7895,2.1688,2.3349,2.1688,4.1083s-.8831,3.3195-2.1688,4.109c-3.9817,2.4017-7.7307,7.0121-8.1515,12.3914m26.7529,0c-.4207-5.3793-4.1698-9.9897-8.1515-12.3914-1.2856-.7895-2.1687-2.3356-2.1687-4.109s.8831-3.3188,2.1687-4.1083c3.9817-2.4016,7.7308-7.012,8.1515-12.3913" stroke="#000" stroke-miterlimit="10"/></svg>