<svg width="36" height="36" xmlns="http://www.w3.org/2000/svg"><path fill-rule="evenodd" clip-rule="evenodd" d="m25.9194,5.9257.5245-1.038-1.1141.33352c-.8812.26379-1.686.67911-2.3901,1.45784-.6107.67531-1.1229,1.59879-1.5591,2.87367-.0571-.02318-.1146-.04527-.1724-.06626-1.9973-.7245-4.4714-.13816-5.8,2.22963-2.1923-1.2255-5.1274.3314-5.1347,3.1338-.7433.1433-1.34132.5854-1.75756,1.1672-.50429.7049-.75295,1.6239-.71355,2.5299.03955.9094.37146,1.8407,1.0731,2.5477.70786.7132,1.74981,1.1556,3.12471,1.1556h10.5c1.4111,0,2.4927-.4389,3.2355-1.1425.7386-.6997,1.1055-1.6269,1.1509-2.5389.0111-.223.0031-.4466-.0239-.6673.9983.0683,2.2195-.13,3.3816-.5943,1.5824-.6323,3.1518-1.7954,3.9621-3.6025l.5202-1.1602-1.1711.4951c-2.9316,1.2393-5.311.4046-6.724-1.1802-1.4384-1.6133-1.8865-4.00537-.9121-5.9338zm.6638,10.9391c.8291.134,2.0576.0063,3.2901-.4861,1.0344-.4133,2.0216-1.064,2.7418-1.9705-2.7434.6842-5.0603-.2348-6.53-1.8832-1.4135-1.5854-2.0365-3.84561-1.4882-5.91859-.3294.19018-.6326.43042-.9155.74334-.5138.56825-.9858,1.40361-1.4065,2.68095.6102.4144,1.1294.9745,1.4885,1.6602.4814.9192.6622,2.0393.4165,3.2929.7958.1171,1.444.5116,1.9063,1.068.204.2457.3699.5202.497.813zm-10.5256-4.2127c1.0103-2.2899,3.1239-2.83704,4.8096-2.2256.8487.3079,1.5807.908,2.0103,1.7284.4264.8141.5723,1.8785.1934,3.1529l-.1992.67.6985-.0279c.7789-.0312,1.3595.2748,1.7468.7409.3963.4771.605,1.1427.5709,1.8283-.034.6818-.3067,1.3576-.8399,1.8627-.529.5011-1.3512.8685-2.5478.8685h-10.5c-1.1504,0-1.9225-.3639-2.41494-.8601-.49865-.5024-.75324-1.1836-.78381-1.8867-.03073-.7065.16687-1.4.52779-1.9045.35478-.4959.85516-.7987,1.47096-.7987h.5633l-.0669-.5594c-.2954-2.4728,2.3589-3.7372,3.9867-2.4038l.5089.4167.2654-.6017zM9.30278,23.7762l-1.5,3,.89443.4472,1.49999-3-.89442-.4472zm4.50002,3,1.5-3,.8944.4472-1.5,3-.8944-.4472zm-4.50002,3,3.00002-6,.8944.4472-3,6-.89442-.4472zM19.25,25.4998c0-.1379.1121-.25.25-.25s.25.1121.25.25c0,.1378-.1121.25-.25.25s-.25-.1122-.25-.25zm.25-1.25c-.6901,0-1.25.5598-1.25,1.25,0,.6901.5599,1.25,1.25,1.25s1.25-.5599,1.25-1.25c0-.6902-.5599-1.25-1.25-1.25zm6,1c-.1379,0-.25.1121-.25.25,0,.1378.1121.25.25.25.1378,0,.25-.1122.25-.25,0-.1379-.1122-.25-.25-.25zm-1.25.25c0-.6902.5599-1.25,1.25-1.25s1.25.5598,1.25,1.25c0,.6901-.5599,1.25-1.25,1.25s-1.25-.5599-1.25-1.25zm-2,4.5c0-.1379.1121-.25.25-.25.1378,0,.25.1121.25.25,0,.1378-.1122.25-.25.25-.1379,0-.25-.1122-.25-.25zm.25-1.25c-.6901,0-1.25.5598-1.25,1.25,0,.6901.5599,1.25,1.25,1.25s1.25-.5599,1.25-1.25c0-.6902-.5599-1.25-1.25-1.25z"/></svg>