<svg width="48" height="48" fill="none" xmlns="http://www.w3.org/2000/svg"><path fill-rule="evenodd" clip-rule="evenodd" d="m2.5,23.5002c0-11.599,9.402-20.99996,21-20.99996s21,9.40096,21,20.99996c0,11.598-9.402,21-21,21s-21-9.402-21-21z" stroke="#000"/><path d="m33,23.5002h-9.5V9.00024m0-6.5v4.5m0-4.5v1.5m-2.1952-1.38476.157,1.491m-2.328-1.14725.312,1.467m-2.4351-.89864.463,1.427m-2.5153-.63892.61,1.37M13,5.31372l.75,1.299m-2.5933-.10173.881,1.213M9.44824,7.8938l1.00396,1.115m-2.55816.43969,1.115,1.00401M6.51074,11.1564l1.213.882M5.31348,13.0002l1.299.75m-2.29705,1.208,1.371.61m-2.1586,1.4427,1.427.463M2.95898,19.134l1.467.312m-1.81075,1.8588,1.492.157M2.5,23.5002H4m-1.38477,2.1952,1.492-.157m-1.14825,2.328,1.467-.312M3.52783,29.9896l1.427-.464M4.31543,32.0411l1.371-.61m-.37295,2.5691,1.299-.75m-.10174,2.5929,1.213-.881M7.89404,37.5521l1.115-1.004m.4392,2.5576,1.00396-1.114m.7045,2.4977.881-1.214M13,41.6867l.75-1.299m1.2084,2.297.61-1.371m1.4423,2.1582.463-1.427m1.6601,1.9963.312-1.468m1.859,1.8119.157-1.492M23.5,44.5002v-1.5m2.1952,1.3849-.157-1.492m2.328,1.1481-.312-1.468m2.4351.8987-.464-1.427m2.5158.6398-.609-1.371M34,41.6867l-.75-1.299M35.8438,40.4894l-.882-1.214m2.5901-.1697-1.004-1.114m2.5586-.4396-1.115-1.004m2.4979-.705-1.214-.881m2.4111-.9619-1.299-.75m2.2972-1.2091-1.37-.61M43.4717,29.9896l-1.426-.464m1.9953-1.6592-1.467-.312m1.8108-1.859-1.491-.157M44.5,23.5002H43m1.3848-2.1954-1.491.157m1.1472-2.3278-1.467.312m.8977-2.4351-1.426.463m.639-2.5157-1.37.61M41.6865,13.0002l-1.299.75m.1019-2.5938-1.214.882m-.1689-2.58991-1.115,1.00401m-.4396-2.5587-1.004,1.115m-.7041-2.49781-.882,1.213M34,5.31372l-.75,1.299m-1.2089-2.29705-.609,1.37M29.9893,3.52759l-.464,1.427m-1.6591-1.99536-.312,1.467m-1.859-1.81075-.157,1.491M13,5.31372l2.25,3.896M5.31348,13.0002l3.897,2.25M2.5,23.5002H7m-1.68652,10.5,3.897-2.25M13,41.6868l2.25-3.897m8.25,6.7104v-4.5M34,41.6868l-2.25-3.897m9.9366-3.7896-3.897-2.25m6.7104-8.25H40m1.6866-10.5-3.897,2.25M34,5.31372l-2.25,3.896" stroke="#000"/></svg>