<svg width="36" height="36" xmlns="http://www.w3.org/2000/svg"><path fill-rule="evenodd" clip-rule="evenodd" d="m26.3014,6.09424.3022.30211,4.5,4.49995.3021.3022-.2513.3455-12,16.5-.3442.4732-.4138-.4137-.5666-.5667-.2801.0484c-.3288.0566-.7798.134-1.2682.2168-.8665.1471-1.8564.3124-2.4895.4096-.2409.3591-.5486.8239-.8116,1.2228-.1549.2348-.294.4463-.3943.599l-.1186.1806-.0321.049-.0083.0127-.0021.0032-.0006.0008-.0001.0002v.0001l-.4182-.2741.4182.2741-.337.5142-.4348-.4347-.4636-.4637-1.90961,1.273-.12684.0846H4.3092l3.29491-4.9424-.49208-.492-.4367-.4367.51802-.3363.27223.4194-.27221-.4194h.00006l.00024-.0002.00092-.0006.00364-.0024.01423-.0092.05447-.0353.19884-.1289c.16713-.1082.39631-.2564.64444-.4164.40305-.2598.8594-.5528,1.18049-.7553.08996-.5736.25168-1.5423.39817-2.4101.08434-.4997.16393-.9677.22244-1.3108l.0523-.3062-.56716-.5671-.41376-.4138.47323-.3442L25.9559,6.34553l.3455-.25129zM10.8303,20.5373c-.0467.2743-.1.5887-.1554.9167-.1688,1.0003-.3554,2.1201-.4303,2.62l-.0343.2288-.1966.122c-.29789.1848-.86518.5486-1.36163.8687-.14063.0907-.27519.1776-.39576.2555l3.66909,3.6691.2202-.3342c.31-.4702.685-1.0364.9402-1.414l.1235-.1826.2181-.0321c.5905-.0868,1.7098-.2733,2.6868-.4391.3047-.0517.595-.1013.8499-.145l-6.1338-6.1338zm-2.50003,6.4999L6.1908,30.2464h2.65676l1.61514-1.0768-2.13243-2.1324zM10.5173,18.8101l8.1725,8.1725,11.4045-15.6813-3.8957-3.89574L10.5173,18.8101zm6.3363,2.5434,9-9-.7072-.7072-9,9,.7072.7072z"/></svg>