<svg width="36" height="36" xmlns="http://www.w3.org/2000/svg"><path fill-rule="evenodd" clip-rule="evenodd" d="m18.2833,4.6778L18,4.48291l-.2834.19489,2.70864,15.0003.59903.4119,3.76302,2.5879-3.7634,2.5883-.59904.412.59905.4119,14.409,9.909.2833.1949.2833-.1949,14.4105-9.909.5992-.412-.5992-.412-3.7644-2.5881,3.7633-2.588.599-.4119-.599-.412-14.409-9.9105zm9.7633,13.9293-9.7633,6.7141L18,25.5161l-.2833-.1949-9.76362-6.7143-3.48009,2.3934,13.52661,9.3022,13.528-9.3021-3.481-2.3933zM18,24.3024,4.47334,15.0002,18,5.69661,31.5266,15.0002,18,24.3024z"/></svg>