<svg width="36" height="36" xmlns="http://www.w3.org/2000/svg"><path fill-rule="evenodd" clip-rule="evenodd" d="m13.2499,8.24951c0-2.20936,1.7906-4,4-4s4,1.79064,4,4v2.50069h-8V8.24951zm-1,3.50069v3.2493h1v-3.2493h8v3.2493h1v-3.2493h3.537l1.4231,18.5H7.28984l1.42308-18.5h3.53698zM12.2499,10.7502V8.24951c0-2.76164,2.2384-5,5-5s5,2.23836,5,5v2.50069h4.463l.0355.4617,1.5,19.5.0414.5383H6.20996l1.54141-20.0383.03551-.4617h4.46302zm4.5,14.75v-7.5h1v7.5h-1zm.5-10.2507c-.1715,0-.3416.0067-.5099.0197l.0774.997c.1426-.011.2869-.0167.4325-.0167s.2899.0057.4325.0167l.0774-.997c-.1683-.013-.3384-.0197-.5099-.0197zm2.4882.4935c-.312-.1294-.6363-.2352-.9706-.3152l-.2327.9725c.2825.0676.5565.157.8202.2664l.3831-.9237zM15.7323,15.4278c-.3343.08-.6586.1858-.9706.3152l.3831.9237c.2637-.1094.5377-.1988.8202-.2664l-.2327-.9725zm5.7392,1.3792c-.2581-.2207-.5338-.4215-.8246-.6001l-.5234.8521c.2462.1512.4795.3212.6982.5081l.6498-.7601zm-7.6186-.6001c-.2908.1786-.5665.3794-.8246.6001l.6498.7601c.2187-.1869.452-.3569.6982-.5081l-.5234-.8521zM22.7925,18.3526c-.1786-.2909-.3794-.5665-.6001-.8247l-.7601.6499c.1869.2186.3569.4519.5081.6981l.8521-.5233zm-10.4851-.8247c-.2207.2582-.4215.5338-.6001.8247l.8521.5233c.1512-.2462.3212-.4795.5081-.6981l-.7601-.6499zm11.2642,2.704c-.08-.3343-.1858-.6586-.3152-.9706l-.9237.3831c.1094.2637.1988.5377.2664.8202l.9725-.2327zm-12.3282-.9706c-.1294.312-.2352.6363-.3152.9706l.9725.2327c.0676-.2825.157-.5565.2664-.8202l-.9237-.3831zm-.4738,1.9783c-.013.1683-.0197.3384-.0197.5099s.0067.3416.0197.51l.997-.0775c-.011-.1426-.0167-.2868-.0167-.4325,0-.1456.0057-.2899.0167-.4325l-.997-.0774zM23.7499,21.7495c0-.1715-.0067-.3416-.0197-.5099l-.997.0774c.011.1426.0167.2869.0167.4325,0,.1457-.0057.2899-.0167.4325l.997.0775c.013-.1684.0197-.3385.0197-.51zM23.2564,24.2377c.1294-.312.2352-.6363.3152-.9706l-.9725-.2327c-.0676.2825-.157.5566-.2664.8203l.9237.383zm-12.3282-.9706c.08.3343.1858.6586.3152.9706l.9237-.383c-.1094-.2637-.1988-.5378-.2664-.8203l-.9725.2327zm.7791,1.8794c.1786.2908.3794.5665.6001.8246l.7601-.6498c-.1869-.2186-.3569-.452-.5081-.6981l-.8521.5233zm10.4851.8246c.2207-.2581.4215-.5338.6001-.8246l-.8521-.5233c-.1512.2461-.3212.4795-.5081.6981l.7601.6498zm-9.1641.7209c.2581.2207.5338.4215.8246.6001l.5234-.8521c-.2462-.1512-.4795-.3212-.6982-.5081l-.6498.7601zm7.6186.6001c.2908-.1786.5665-.3794.8246-.6001l-.6498-.7601c-.2187.1869-.452.3569-.6982.5081l.5234.8521zm-5.8852.4639c.312.1294.6363.2353.9706.3152l.2327-.9725c-.2825-.0676-.5565-.157-.8202-.2664l-.3831.9237zM18.7675,28.0712c.3343-.0799.6586-.1858.9706-.3152l-.3831-.9237c-.2637.1094-.5377.1988-.8202.2664l.2327.9725zm-2.0275.1586c.1683.0131.3384.0197.5099.0197s.3416-.0066.5099-.0197l-.0774-.997c-.1426.0111-.2869.0167-.4325.0167s-.2899-.0056-.4325-.0167l-.0774.997z"/></svg>