<svg width="24" height="24" xmlns="http://www.w3.org/2000/svg"><path fill-rule="evenodd" clip-rule="evenodd" d="m12,1.91906.4743,1.42303,1.8861,5.65811h6.5969l-1.1503.89468-4.2177,3.28042,2.3629,6.8512-1.2276-.81L12,16.0992,7.27536,19.2165l-1.22754.81,2.36288-6.8512,3.04272,9.0002H9.63961l1.88609-5.65811L12,1.91906zm0,3.16228-1.5257,4.57697-.1139.34189H5.95726l3.3497,2.6053.28232.2196-.11661.3381-1.52051,4.4087,3.77244-2.489L12,14.9012l.2754.1817,3.7724,2.489-1.5205-4.4087-.1166-.3381.2823-.2196,3.3497-2.6053h-4.4031l-.1139-.34189L12,5.08134z"/></svg>