<svg width="24" height="24" xmlns="http://www.w3.org/2000/svg"><path fill-rule="evenodd" clip-rule="evenodd" d="m10.5,5.5c0-.82869.672-1.5,1.5-1.5.8281,0,1.5.67131,1.5,1.5,0,.82786-.6721,1.5-1.5,1.5-.8278,0-1.5-.67214-1.5-1.5zM13.9999,7c.314-.4179.5001-.93732.5001-1.5C14.5,4.11869,13.38,3,12,3,10.6201,3,9.50004,4.11869,9.50004,5.5c0,.56268.18614,1.0821.50016,1.5H5.07108l-.06522.42397-2,13.00003L2.91724,21H21.0828l-.0886-.576-2-13.00003L18.929,7h-4.9291zM12,8H5.929L4.08285,20H19.9172L18.0711,8H12zm-.166,4.0107-2.23799,2.258,2.44899,3.453h-1.574l-1.73399-2.563-.719.719v1.844h-1.246v-5.711h1.246v2.363l2.23799-2.363h1.578zm5.461,5.7108v-3.078h-2.398v.914h1.269c-.013.385-.145.696-.396.934-.251.236-.574.355-.967.355-.544,0-.956-.205-1.235-.613-.226-.334-.339-.784-.339-1.352,0-.581.121-1.042.363-1.383.276-.39.667-.585,1.172-.585.333,0,.608.085.826.257s.357.411.42.719h1.207c-.052-.495-.254-.924-.606-1.289-.471-.484-1.082-.727-1.832-.727-.812,0-1.475.271-1.988.813-.547.573-.82,1.309-.82,2.207,0,.791.21,1.457.629,1.996.505.647,1.194.969,2.066.969.716,0,1.285-.264,1.707-.789l.125.652h.797z"/></svg>