<svg width="36" height="36" xmlns="http://www.w3.org/2000/svg"><path fill-rule="evenodd" clip-rule="evenodd" d="m5.51345,9.45445c1.7733-.0562,3.52428.25609,5.16235.88825l-.36.933c-1.39496-.5384-2.87442-.825-4.37367-.8277-1.1446,6.3959,2.94669,12.6043,9.33397,14.0348l-.2186.9758C8.00553,23.8792,3.54034,16.9177,5.04018,9.8504l.0814-.38353.39187-.01242zM34.3513,20.7634c-.7509-.6699-1.5736-1.2526-2.4555-1.7388l-.4827.8758c.6998.3858,1.3593.8372,1.9713,1.349-2.484,4.3172-7.3571,6.7055-12.3135,5.9952l-.1419.9899c5.5049.7888,10.9147-1.955,13.5307-6.8628l.1848-.3467-.2932-.2616zm-8.6669-9.4877c1.3949-.5384,2.8744-.825,4.3736-.8277,1.1446,6.3959-2.9467,12.6043-9.3339,14.0348l.2185.9758c7.052-1.5794,11.5172-8.5409,10.0174-15.6082l-.0814-.38353-.3919-.01242c-1.7733-.0562-3.5243.25609-5.1624.88825l.3601.933z"/></svg>