<svg width="36" height="36" xmlns="http://www.w3.org/2000/svg"><path fill-rule="evenodd" clip-rule="evenodd" d="m8.22607,4.74951h-.5v.5c0,4.45234,3.02593,8.26559,6.20703,10.18459.7776.4781,1.341,1.4371,1.341,2.5654,0,1.128-.5632,2.0873-1.3412,2.5671-3.1809,1.9189-6.20683,5.7306-6.20683,10.1829v.5H28.2741v-.5c0-4.4524-3.0275-8.264-6.2083-10.183-.7777-.4795-1.3397-1.4385-1.3397-2.567,0-1.1287.5622-2.0875,1.3395-2.5654,3.1809-1.9189,6.2085-5.73214,6.2085-10.18459v-.5H8.22607zm6.22523,9.82929c-2.8527-1.7202-5.49487-5.03309-5.71098-8.82929H27.2598c-.2162,3.7961-2.8596,7.10899-5.7124,8.82929l-.0034.0021c-1.0939.6714-1.8179,1.9651-1.8179,3.4186,0,1.4537.724,2.747,1.8174,3.4198l.0039.0024c2.8529,1.7203,5.4962,5.0319,5.7124,8.8278H8.74032c.21611-3.796,2.85818-7.1075,5.71098-8.8278l.0038-.0024c1.0931-.6726,1.819-1.9657,1.819-3.4198,0-1.454-.7259-2.7474-1.8195-3.4186l-.0033-.0021zm-.2556-3.8286h-1.2716l.931.8661c.5146.4787,1.0679.903,1.6322,1.2455l.003.002.0077.0047c.87.5358,1.5634,1.4706,2.0446,2.5343l.4556,1.0073.4556-1.0073c.4799-1.0614,1.1686-1.9934,2.0324-2.5243.5724-.3474,1.1358-.7776,1.6576-1.2617l.9338-.8666h-8.8819zm1.8188,1.2618c-.135-.0817-.27-.1691-.4043-.2618h4.7782c-.1402.0971-.2811.1886-.4221.2741l-.0023.0014c-.8164.5013-1.4684,1.255-1.966,2.0899-.4986-.8353-1.1516-1.5889-1.9677-2.0937l-.0064-.0043-.0094-.0056z"/></svg>