<svg width="48" height="48" fill="none" xmlns="http://www.w3.org/2000/svg"><path fill-rule="evenodd" clip-rule="evenodd" d="m30.5,20.409c0-1.05.836-1.909,1.857-1.909h9.286c1.021,0,1.857.859,1.857,1.909v17.182c0,1.049-.836,1.909-1.857,1.909h-9.286c-1.021,0-1.857-.86-1.857-1.909V20.409z" stroke="#000"/><path d="m36,37.5h2m-7.5-2h13m-8.5-15h4m-10,14H6.493c-1.101,0-1.993-.893-1.993-1.992V31.5H29m0,0H7.49999l-.062-20.997c0-1.106.896-2.003,2.003-2.003H38.496c1.108,0,2.004.897,2.004,2.003V17m-31,14.5v-21h29V17" stroke="#000"/></svg>