<svg width="36" height="36" xmlns="http://www.w3.org/2000/svg"><path fill-rule="evenodd" clip-rule="evenodd" d="m15,21.0001h6v-6h-6v6zm-1.5,1.5h9v-9h-9v9zm3-3h3v-3h-3v3zM10.4985,5.99418H15v-1.5015h-4.5015v1.5015zm0,3.00551v-1.5H7.49854v1.5l1.5.00451v3h1.49996v-1.5h3V9.00119h3v-1.5h-3v.003h-1.5V9.0042h-1.5v-.00451zm0,4.50001H7.50002v-3h-1.5V8.99969h-1.5v3.00001h1.5v1.5h1.4985v1.5h2.99998v-1.5zM17.9993,7.5048h1.5v-3h-1.5v1.497h-1.5v1.5h1.5v.003zM30,10.5047h1.5V9.00322H30v1.50148zm-3,7.5008h1.5v-1.5H27v1.497h-3v1.5h3v-1.497zM5.99854,6.00478l3-.012v-1.5h-4.5v3.012h1.5v-1.5zM27,19.5055v3.0001h1.5v-1.5H30v1.5h1.5v-3.0001H27zM19.4993,7.5048v3h1.5v-1.5l4.5-.003v-1.5h1.5v-1.5h-1.5v-1.497h-1.5v2.997h-1.5v-1.497h-1.5v1.5h-1.5zM24,10.5055v3h1.5v-.003H27v-1.5h-1.5v-1.497H24zm1.5,21.0022H27v-3h-1.5v3zm4.5-1.5049h-1.5v1.5H30v.0045h1.5v-3H30v1.4955zm0-22.49797h1.5v-3H30v-.003h-3v1.5h3v1.503zm0,15.00077h-1.5v4.4969H27v1.5h3v-1.5h1.5v-1.4999H30v-2.997zm0-4.4994h1.5v-3.0015H30v3.0015zm-4.5-7.5045h3V9.00173h-3v1.49997zm3,1.5002v3.003H30v-1.5l1.5-.003v-1.5h-3zm-12,19.5013h3v-1.5015h-3v1.5015zM14.9993,12.002h1.5v.003h1.5V9.00503h-1.5V10.502h-1.5v1.5zm0,16.5008h-1.5v1.5h1.5v.0045h1.5v-3h-1.5v1.4955zm7.5007.0042H21v3h1.5v-.0045H24v-1.5h-1.5V28.507zm-10.5015-6.0043-2.99996.003v1.5h1.49996v1.497h3v-1.5h-1.5v-1.5zM15,25.5032h3v-1.5h-3v1.5zm9-9.0015h3v-1.5h-3v1.5zm-19.50146,10.5h1.5v-1.5h-1.5v1.5zm3-7.5h1.50149v-1.5H7.49854v1.5zm2.99996-6h1.5v-1.5h-1.5v1.5zM21,12.0032h1.5v-1.5015H21v1.5015zM5.99854,18.0017h1.5v-1.5h-1.5v1.5zm-1.5-1.5h1.5v-3h-1.5v3zm0,4.5015h1.5v-3.0015h-1.5v3.0015zm3,6.0015H10.5v-1.5H7.49854v1.5zm0-6.002h-1.5v1.5l-1.5.003v1.5h3v-3.003zm2.99996,7.5001v.0045H8.99854v1.5h1.49996v1.4955h1.5v-2.997h1.5v-1.5h-3v1.497zm-4.49996-.0001h-1.5v3h1.5v.0045h3v-1.5h-3v-1.5045zm3-7.4965h2.99996v-1.5H8.99854v1.5zm0-3h2.99996v-1.5H8.99854v1.5zM25.5,25.5032H27v-1.5h-1.5v1.5zm-4.5-.0004h1.5v3h3v-1.5H24v-2.997h1.5v-3H24v2.997l-4.5.003v1.5H18v3h1.5v-1.5H21v-1.503z"/></svg>