<svg width="36" height="36" xmlns="http://www.w3.org/2000/svg"><path fill-rule="evenodd" clip-rule="evenodd" d="m14.5878,8.08398-.5865,1.61275c-1.1226,3.08727-.0801,6.91057,2.358,9.61967,2.4204,2.6892,6.1561,4.2115,10.3616,2.7859l1.9974-.677-1.4808,1.5016c-2.7459,2.7845-5.6893,3.8859-8.4092,3.7838-2.7101-.1018-5.1379-1.3963-6.8663-3.2917-1.7272-1.894-2.77799-4.4117-2.70851-6.9949.06986-2.5974,1.27211-5.2199,3.97341-7.29477l1.3609-1.04535zM25.0555,23.5339c-3.8275.5699-7.1806-1.0387-9.4395-3.5486-2.2312-2.4791-3.4382-5.8876-2.9648-9.0119-1.6298,1.6799-2.3476,3.6004-2.3981,5.4776-.0617,2.2966.8749,4.5694,2.4478,6.2942,1.5716,1.7234,3.7563,2.8757,6.1649,2.9662,1.9457.073,4.0774-.5455,6.1897-2.1775z"/></svg>