<svg width="48" height="48" fill="none" xmlns="http://www.w3.org/2000/svg"><path d="m43.5,30.9607c0-3.5681-2.6863-6.4607-6-6.4607s-6,2.8926-6,6.4607c.0402,1.108.3454,2.0398.8352,2.9198l5.1818,8.8086,5.1819-8.8086c.4839-.9125.7923-1.8618.8011-2.9198zm-4-.4607c0,1.0929-.886,2-1.9789,2s-2.0211-.9071-2.0211-2,.9071-2,2-2,2,.9071,2,2zm-7-6.5V6.5m-9,32v-28m-9,24.0001V6.54834M5.5,30.5c6.6733,0,2.17118-12,9-12,3.5579,0,3.4914,6,9,6s4.5192-11,9-11,4.7069,5.5,9,5.5M31,35l-7.5,3.5-9-4-8.99997,4L5.5,10.5l9-4,9,4,9-4,9,4V23" stroke="#000" stroke-miterlimit="10"/></svg>