<svg width="24" height="24" xmlns="http://www.w3.org/2000/svg"><path fill-rule="evenodd" clip-rule="evenodd" d="m4,12.0002c0-4.47078,3.5301-7.99996,8-7.99996s8,3.52918,8,7.99996c0,4.4699-3.5301,8-8,8-4.46986,0-8-3.5301-8-8zm8-8.99996c-5.0221,0-9,3.97682-9,8.99996,0,5.0222,3.97786,9,9,9,5.0221,0,9-3.9778,9-9,0-5.02314-3.9779-8.99996-9-8.99996zM6.98753,14.6975c.83742,1.9452,2.73271,3.3023,5.01227,3.3023,2.2806,0,4.1748-1.3572,5.0122-3.3023l-.9185-.3955c-.6866,1.5949-2.2303,2.6978-4.0937,2.6978-1.8625,0-3.4072-1.103-4.09377-2.6978l-.9185.3955zM8,9c0-.55214.44786-1,1-1s1,.44786,1,1-.44786,1-1,1-1-.44786-1-1zm7-1c-.5521,0-1,.44786-1,1s.4479,1,1,1,1-.44786,1-1-.4479-1-1-1z"/></svg>