<svg width="48" height="48" fill="none" xmlns="http://www.w3.org/2000/svg"><path fill-rule="evenodd" clip-rule="evenodd" d="m21.5,4.50024c6.074,0,11,4.926,11,10.99996,0,6.076-4.926,11-11,11s-11-4.924-11-11c0-6.07396,4.926-10.99996,11-10.99996z" stroke="#000"/><path d="m17.9932,34.5198-9.74098-6.579c-.862-.692-2.121-.555-2.812.308-.691.862-.553,2.121.308,2.812l11.85098,10.438h7.885l2.016,2h14.9l-10.056-8.125c-2.075-1.707-4.438-3.812-8.125-3.875h-4.219c-3.063,0-3.063,4,0,4h4M21.5,23.0002V8.00024M14,15.5002h15" stroke="#000"/></svg>