<svg width="36" height="36" xmlns="http://www.w3.org/2000/svg"><path fill-rule="evenodd" clip-rule="evenodd" d="m2.96631,12.7237C6.74595,8.7459,12.0755,6.25015,18.0003,6.25015c5.9233,0,11.2528,2.49576,15.0324,6.47355l-.7249.6889c-3.6004-3.78922-8.6718-6.16245-14.3075-6.16245-5.6372,0-10.7087,2.37325-14.30905,6.16245l-.72494-.6889zM18,25.2496c-.9671,0-1.75.7839-1.75,1.75,0,.966.7829,1.75,1.75,1.75s1.75-.784,1.75-1.75c0-.9661-.7829-1.75-1.75-1.75zm-2.75,1.75c0-1.518,1.2301-2.75,2.75-2.75s2.75,1.232,2.75,2.75c0,1.5179-1.2301,2.75-2.75,2.75s-2.75-1.2321-2.75-2.75zm2.7504-16.2495c-4.6393,0-8.81384,1.9543-11.77304,5.0697l.72505.6887c2.7798-2.9266,6.69619-4.7584,11.04799-4.7584,4.3517,0,8.2682,1.8318,11.048,4.7584l.725-.6887c-2.9592-3.1154-7.1338-5.0697-11.773-5.0697zm-8.50573,8.1726c2.13873-2.2531,5.15833-3.6673,8.51363-3.6673,3.352,0,6.367,1.4095,8.5058,3.6579l-.7246.6892c-1.9592-2.0596-4.7162-3.3471-7.7812-3.3471-3.0677,0-5.8291,1.2918-7.7884,3.3557l-.72523-.6884zm8.50513.8271c-2.0729,0-3.9279.88-5.2464,2.2676l.7249.6889c1.1415-1.2014,2.7394-1.9565,4.5215-1.9565,1.7809,0,3.3816.7552,4.5214,1.9562l.7253-.6883c-1.3172-1.388-3.1755-2.2679-5.2467-2.2679z"/></svg>