<svg width="24" height="24" xmlns="http://www.w3.org/2000/svg"><path fill-rule="evenodd" clip-rule="evenodd" d="m17.9998,12.0354c1.6962.2426,3,1.7012,3,3.4646V20h-7v-4.5c0-1.7634,1.3037-3.222,3-3.4646V3h1v9.0354zM2.85938,11h1.19045c.2318-1.14076,1.24101-2,2.44993-2,1.20893,0,2.21814.85924,2.44994,2h5.1905l-.1554.6213-2,8L11.8902,20H5.10938l-.09469-.3787-2-8L2.85938,11zm3.64038-1c.65258,0,1.2084.4177,1.41451,1H5.08526c.20611-.5823.76193-1,1.4145-1zm-2.35961,2,1.75,7h5.21925l1-4H8.99976v-1h3.35964l.5-2H4.14015zm11.85965,7v-2h1v2h1v-3h1v3h1v-3.5c0-1.3809-1.1192-2.5-2.5-2.5-1.3809,0-2.5,1.1191-2.5,2.5V19h1zM9.99976,8.5c0-.27586.22414-.5.50004-.5.2758,0,.5.22414.5.5s-.2242.5-.5.5c-.2759,0-.50004-.22414-.50004-.5zM10.4998,7c-.82818,0-1.50004.67186-1.50004,1.5S9.67162,10,10.4998,10c.8281,0,1.5-.67186,1.5-1.5s-.6719-1.5-1.5-1.5zM4.99976,7c0-.55214.44786-1,1-1,.55215,0,1,.44786,1,1s-.44785,1-1,1c-.55214,0-1-.44786-1-1z"/></svg>