<svg width="36" height="36" xmlns="http://www.w3.org/2000/svg"><path fill-rule="evenodd" clip-rule="evenodd" d="m13.916,7.22295-3-4.5-.832.5547,3,4.5.832-.5547zm10.5-3.9453-3,4.5-.832-.5547,3-4.5.832.5547zM16.75,3.0003v4.5h1v-4.5h-1zm-5.5,6.25h-.5v4.3463l.0358.0894,1.4686,3.6716V32.75h9.9955V17.3469l1.4643-3.6609.0358-.0894V9.2503h-12.5zm2.0044,8.5h7.9955V31.75h-7.9955V17.7503zm8.1572-1.0003,1.0999-2.7497h-10.523l1.0999,2.7497h8.3232zM11.75,13.0003h11v-2.75h-11v2.75zm3.5,6.7497h4v10h-4v-10zm1,1v8h2v-8h-2zm.5,1.7495v1.5h1v-1.5h-1z"/></svg>