<svg width="36" height="36" xmlns="http://www.w3.org/2000/svg"><path fill-rule="evenodd" clip-rule="evenodd" d="m2.99902,5.74951H13.499v-1H2.99902v1zM16.2498,23.2502c0-3.8593,3.1406-7,7-7,3.8593,0,7,3.1407,7,7,0,3.858-3.1408,7-7,7-3.8593,0-7-3.142-7-7zm7-8c-4.4117,0-8,3.5884-8,8,0,4.4101,3.5882,8,8,8,4.4117,0,8-3.5899,8-8,0-4.4116-3.5884-8-8-8zm-.7508-9.50069h-6v-1h6v1zm-6,4.50069h6v-.99996h-6v.99996zm16.5008,0h-7.5v-.99996h7.5v.99996zm-7.5-4.50069h7.5v-1h-7.5v1zM13.499,10.2502H2.99902v-.99996H13.499v.99996zm-10.49998,4.5H13.499v-1H2.99902v1zm7.49998,4.5H2.99902v-1H10.499v1zm-7.49998,4.4993H10.499v-1H2.99902v1zM10.499,28.2495H2.99902v-1H10.499v1zM22.7498,18.0002v5.75h5.75v-1h-4.75v-4.75h-1z"/></svg>