<svg width="36" height="36" xmlns="http://www.w3.org/2000/svg"><path fill-rule="evenodd" clip-rule="evenodd" d="m17.2502,3.25049c-3.2602,0-6.1469.28673-7.7942.73289l.26142.96522c1.52068-.41185,4.30398-.69811,7.53278-.69811,2.466,0,4.6872.16659,6.2814.43214.8011.13344,1.4203.28812,1.8279.44872.1086.04281.1941.08297.2599.11886-.0658.03586-.1513.07599-.2599.11876-.4076.16056-1.0268.31529-1.8279.44882-1.5942.26573-3.8154.4327-6.2814.4327-2.1558,0-4.1246-.12806-5.6532-.33738l-.1356.99076c1.5824.21668,3.5976.34662,5.7888.34662,2.5036,0,4.7824-.16904,6.4458-.44631.8277-.13796,1.5266-.30648,2.03-.5048l.0242-.0096v7.96002c0,.2585-.2176.6373-.9403,1.0561-.6921.401-1.7142.7555-2.9794,1.0129l.1994.9799c.2814-.0572.5545-.1197.8179-.187-.0872.0926-.1835.1848-.2888.2763l.6558.7549c.4871-.4233.8895-.9229,1.0976-1.497.3696-.1457.7045-.3043.9988-.4748.7904-.4579,1.439-1.0954,1.439-1.9213V5.24976c-.0003-.3215-.1962-.55028-.367-.68948-.1771-.14432-.4078-.26106-.6571-.35929-.5035-.19842-1.2025-.3669-2.0302-.50477-1.6634-.27708-3.9422-.44573-6.4457-.44573zm8.531,1.88684-.0018.00239c.0019-.00211.0027-.00316.0026-.00317l-.0008.00078zM4.85359,4.1462l24.00001,24-.7071.7071-2.6527-2.6527c-.3539,1.0723-.9458,2.3577-1.9216,3.2415-2.075,1.8806-3.8184,3.2585-6.3222,3.2585-2.5027,0-4.2434-1.358-6.3231-3.2594-1.02063-.9256-1.62147-2.2951-1.96717-3.3809-.17544-.551-.29065-1.0468-.36214-1.4052-.03581-.1796-.0608-.3254-.07698-.4274-.00809-.0511-.01398-.0912-.01793-.1192l-.0045-.0327-.00121-.0092-.00036-.0028-.00011-.001-.00005-.0003c-.00001-.0001-.00003-.0003.49609-.0625l-.49612.0622-.00102-.0081h.00007l-.7425-6.825.99413-.1081.74195,6.8199.0004.003.00342.0249c.00319.0226.00825.0571.01541.1023.01433.0903.03703.2231.06999.3884.06604.3311.17264.7896.33433,1.2974.3284,1.0316.8629,2.1973,1.6867,2.9442l.0016.0014c2.084,1.9054,3.5682,2.9981,5.6491,2.9981,2.0803,0,3.5648-1.1091,5.6508-2.9995l.0001-.0001c.9342-.8462,1.4847-2.2119,1.7921-3.3011l-5.5697-5.5697c-.588.0997-1.2092.1707-1.8732.1707-1.7701,0-3.3982-.3655-4.658-.9853-1.1452-.5634-2.05-1.372-2.4041-2.3657-.61116-.2412-1.13642-.5213-1.53998-.8393-.51241-.4037-.89798-.9271-.89798-1.5601V8.45686L4.14648,4.85331l.70711-.70711zm6.77331,12.9633c.333.3668.8035.7121,1.4067,1.0088,1.1024.5424,2.5755.8826,4.2165.8826.3381,0,.6664-.0206.9884-.0556l-1.1956-1.1956c-2.0225-.0149-3.8968-.2487-5.416-.6402zM8.75004,9.45686l7.26506,7.26504c-1.9455-.0908-3.6737-.3924-4.9705-.8247-.7853-.2618-1.38481-.5625-1.77772-.8721-.39861-.314-.51684-.5796-.51684-.7746V9.45686zM14.815,26.5635c.625.3502,1.4771.6863,2.435.6863s1.8101-.3361,2.435-.6863c.3104-.1738.5582-.3475.7271-.4766.0843-.0644.1484-.1173.1903-.1531.0209-.0178.0362-.0313.0457-.0398l.0098-.0089.001-.0008c-.0002,0-.0003.0002.3411.3655s.3413.3654.3412.3655l-.0003.0003-.0007.0006-.0019.0017-.0054.0051-.018.0162c-.0151.0135-.0363.0322-.0635.0554-.0543.0463-.1323.1106-.232.1868-.1991.1521-.4866.3534-.8456.5546-.7138.3999-1.7367.8138-2.9238.8138s-2.2099-.4139-2.9237-.8138c-.3591-.2012-.6465-.4025-.8456-.5546-.0997-.0762-.1777-.1405-.232-.1868-.0272-.0232-.0484-.0419-.0635-.0554l-.018-.0162-.0055-.0051-.0018-.0017-.0007-.0006-.0003-.0003c-.0001-.0001-.0003-.0002.3411-.3655s.3413-.3655.3412-.3655l.001.0008.0098.0089c.0095.0085.0248.022.0457.0398.0419.0358.106.0887.1903.1531.1689.1291.4167.3028.727.4766zm11.5438-5.7688.3885-3.5655-.9942-.1083-.3885,3.5655.9942.1083zM19.3125,14.192l1.5375-1.4415H18l-1.5-1.5V9.00049H18v2.25001h2.85l-2.4-2.25001h1.8l3,3.00001-3.09,3.09-.8475-.8985zM16.05,9.00054l-.996.933-.804-.933h1.8zm-1.8,12.74926c-.621,0-1.125.504-1.125,1.125s.504,1.125,1.125,1.125,1.125-.504,1.125-1.125-.504-1.125-1.125-1.125zm4.875,1.125c0-.621.504-1.125,1.125-1.125s1.125.504,1.125,1.125-.504,1.125-1.125,1.125-1.125-.504-1.125-1.125z"/></svg>