<svg width="36" height="36" xmlns="http://www.w3.org/2000/svg"><path fill-rule="evenodd" clip-rule="evenodd" d="m3.24133,14.2456c0-4.4412,3.56847-7.99545,8.00897-7.99545,2.4113,0,4.5452,1.063,6.0039,2.73095,1.4545-1.66797,3.5835-2.73095,5.9961-2.73095,3.4699,0,6.4044,2.17144,7.5186,5.24355.3121.8582.4814,1.7844.4814,2.7519,0,1.4505-.3804,2.8092-1.0482,3.9798-.2351.4142-.9003,1.2692-1.1677,1.5931l-.0152.0183-.0168.0169-11.3985,11.4-.3536.3536-.3535-.3536L5.48326,19.8387l-.0072-.0072.00008-.0001c-.50244-.5234-.91943-1.1126-1.26663-1.7515-.61816-1.1371-.96818-2.4445-.96818-3.8343zm8.00897-6.99545c-3.89043,0-7.00897,3.10875-7.00897,6.99545,0,1.2203.30697,2.3638.84678,3.3567l.00005.0001c.30897.5686.67386,1.0821,1.10592,1.5329L17.2503,30.193,28.2782,19.1637c.2791-.3399.8725-1.1112,1.0546-1.4326l.0007-.0012c.5833-1.0224.9168-2.2107.9168-3.4843,0-.8502-.1486-1.6609-.4213-2.4105l-.0002-.0005c-.9738-2.6849-3.5383-4.58445-6.5785-4.58445-2.3111,0-4.324,1.11352-5.5939,2.82495l-.4009.5402-.4017-.5396c-1.2744-1.71179-3.2936-2.82555-5.6035-2.82555z"/></svg>