<svg width="36" height="36" xmlns="http://www.w3.org/2000/svg"><path fill-rule="evenodd" clip-rule="evenodd" d="m31.5036,8.75H4.50208v-1H31.5036v1zm0,19.5007H4.50208v-1H31.5036v1zM10.4365,16.7423l4.704-4.746H11.824l-4.70402,4.9665v-4.9665h-2.619v12.0015h2.619v-3.8745l1.5105-1.5105,3.64502,5.385h3.3075l-5.1465-7.2555zm3.5841,1.4145h2.313v-2.313h1.326v2.313h2.3205v1.3244h-2.3205v2.3131h-1.326v-2.3131h-2.313v-1.3244zm9.5178-.7995v-3.3h2.61c.7665,0,1.3275.1305,1.683.3945.357.261.534.678.534,1.2465,0,.5865-.2085,1.0245-.624,1.314-.3285.2295-.8955.345-1.6995.345h-2.5035zm3.1934-5.361h-5.8125v12.0015h2.619v-4.7205h2.355c.8385,0,1.4295.1635,1.7775.489.348.324.555.912.621,1.7595.0645.9525.1185,1.5615.159,1.8225.042.264.1095.48.201.6495h2.733l-.114-.1395c-.1575-.2025-.276-.72-.3525-1.551-.1035-1.134-.189-1.8585-.255-2.175-.066-.318-.1935-.621-.3855-.912-.3015-.459-.717-.756-1.248-.8865.6015-.2235,1.071-.5955,1.4085-1.116.336-.5205.5055-1.1295.5055-1.8315,0-.618-.135-1.173-.4035-1.6665-.2685-.492-.657-.8865-1.1655-1.182-.6135-.36-1.494-.5415-2.643-.5415z"/></svg>