<svg width="24" height="24" xmlns="http://www.w3.org/2000/svg"><path fill-rule="evenodd" clip-rule="evenodd" d="m11.8548,2.39832-.356-.35981-.3554.36041-3.84199,3.896.71203.70216L11,3.96858V11.001l-7.04352-.0004,2.64703-2.64705-.70711-.70711-3.5,3.49996-.35355.3536.35355.3536,3.5,3.5.70711-.7072-2.64587-2.6458L11,12.001v7.0299l-2.99521-3.0271-.71084.7034,3.85295,3.894.3561.3598.3554-.3605,3.842-3.897-.7121-.702L12,19.0326V12.001l7.0414.0004-2.645,2.645.7071.7072L20.9571,11.5,17.1035,7.64644l-.7071.70711,2.6479,2.64785L12,11.001V3.96673l2.997,3.02895.7108-.70336-3.853-3.894z"/></svg>