<svg width="36" height="36" xmlns="http://www.w3.org/2000/svg"><path fill-rule="evenodd" clip-rule="evenodd" d="m9.25,12.0225c0-4.83318,3.9169-8.75004,8.75-8.75004,4.8316,0,8.75,3.9168,8.75,8.75004v.0044c-.013,1.4583-.4729,2.7555-1.1668,3.9709l-.0057.01-.0061.0097-7.125,11.2485-.4224.6669-.4224-.6669-7.125-11.2485-.0063-.01h.0001c-.7115-1.1843-1.16074-2.4547-1.22002-3.9654L9.25,12.0323v-.0098zm1.6781,2.728c.1184.2493.2509.4944.3965.737l6.6994,10.5766,6.6964-10.5719c.1429-.251.2733-.5029.3897-.7567h-3.669l-.1384-.2755-.9866-1.9633-1.8485,4.9294-.5638,1.5034-.3894-1.5577-1.8606-7.44229-1.6862,4.49659-.1217.3244h-2.9178zm-.3884-1h2.6132l2.1284-5.67557.5638-1.50346.3894,1.55775,1.8606,7.44228,1.6862-4.4966.4015-1.0706.5134,1.0217,1.3616,2.7095h3.4307c.164-.5531.256-1.1214.2615-1.7153-.0012-4.27978-3.4714-7.74774-7.75-7.74774-4.2776,0-7.7447,3.46384-7.75,7.74014.0251.62.1246,1.1936.2897,1.7379zM6.20281,24.6806c1.73498-.7663,4.15229-1.3494,6.94389-1.6655l.1126.9937c-2.7329.3094-5.04209.8753-6.65248,1.5865-.80658.3563-1.41246.7379-1.80922,1.1213-.39594.3827-.5476.7294-.5476,1.0329,0,.386.24924.8458.91484,1.3437.65628.4909,1.63826.9554,2.89806,1.355,2.5138.7972,6.023,1.3013,9.9371,1.3013,3.9149,0,7.4241-.5041,9.9377-1.3013,1.2596-.3996,2.2415-.8641,2.8976-1.355.6655-.4979.9147-.9576.9147-1.3437,0-.3011-.1493-.6448-.5388-1.0241-.3904-.3802-.987-.7592-1.7819-1.1137-1.5873-.7078-3.8649-1.2735-6.5642-1.5881l.1158-.9933c2.7577.3214,5.1436.9047,6.8556,1.6681.8547.3811,1.5667.8181,2.0724,1.3106.5067.4935.8411,1.0793.8411,1.7405,0,.8476-.5441,1.5672-1.3156,2.1444-.7808.5842-1.8796,1.0904-3.1944,1.5075-2.6356.8359-6.2514,1.3481-10.24,1.3481-3.9879,0-7.6037-.5122-10.2394-1.3481-1.31495-.417-2.41385-.9233-3.19475-1.5075C3.79426,29.3168,3.25,28.5972,3.25,27.7495c0-.6663.33941-1.256.8527-1.752.51248-.4952,1.234-.9344,2.10011-1.3169z"/></svg>