<svg width="36" height="36" xmlns="http://www.w3.org/2000/svg"><path fill-rule="evenodd" clip-rule="evenodd" d="m19.5383,5.22163-.7326-.70362c-1.3625-1.35857-3.5562-1.35735-4.9173.00369v.00007l.3536.35348-.3536-.35346-.0001.00005-.0002.0002-.0008.00083-.0033.00325-.0128.01282-.0495.04953-.184.1841-.624.62424-1.5993,1.59996.7072.70696,1.5993-1.59995.624-.62425.184-.18409.0496-.04953.0128-.01282.0032-.00326.0008-.00082.0003-.00021v-.00005c.9717-.97168,2.535-.97167,3.5067.00005l-.0001.00008.0073.00699.7323.70333c.9697.97329.9715,2.53882.0024,3.5071l-.0009.00092-4.248,4.26658-.0002.0003c-.9707.9712-2.5628.9713-3.5345-.0004l-.707-.707-.70715.7071.70695.707c1.3622,1.3622,3.5879,1.3624,4.9493-.0001l.0006-.0007,4.2477-4.2663.0005-.0005c1.3632-1.36266,1.3548-3.56372-.0059-4.9245v-.00008l-.0073-.00699zM12.914,9.8778c-1.3622-1.36106-3.58755-1.36106-4.94977,0l-.0002.00019L3.72207,14.1209c-1.36226,1.3623-1.36226,3.5879,0,4.9502l.70701.707.00015.0001c1.36214,1.361,3.58761,1.3612,4.94895-.0001l2.48002-2.48-.7071-.7072-2.48003,2.48c-.97065.9707-2.56318.9709-3.53504-.0001l-.70685-.7069c-.97174-.9717-.97174-2.5641,0-3.5358l.00004-.0001,4.24181-4.2428c.97169-.97086,2.56417-.97093,3.53597-.0002l.0002.0002.7066.7076.7076-.7066-.707-.708-.0004-.0004z"/></svg>