<svg width="36" height="36" xmlns="http://www.w3.org/2000/svg"><path fill-rule="evenodd" clip-rule="evenodd" d="m18,3.66916.4743,1.42303,2.8861,8.65811h9.3469l-1.1503.8947-6.4677,5.0304,3.3629,9.7507-1.2276-.81L18,23.8493l-7.2246,4.7668-1.22758.81.47948-1.3903,2.8834-8.3604L6.44302,14.645l-1.1503-.8947h9.34688l2.8861-8.65811L18,3.66916zm0,3.16228-2.5257,7.57696-.1139.3419H8.20726l5.59974,4.3553.2823.2196-.1166.3381-2.5205,7.3082,6.2724-4.1385L18,22.6513l.2754.1817,6.2724,4.1385-2.5205-7.3082-.1166-.3381.2823-.2196,5.5997-4.3553h-7.1531l-.1139-.3419L18,6.83144z"/></svg>