<svg width="24" height="24" xmlns="http://www.w3.org/2000/svg"><path fill-rule="evenodd" clip-rule="evenodd" d="m14.4996,2,.3905.48807,1.4497,1.81233h4.6604v12.6667l-.1.1333-3.15,4.2H3.00024V8.63374l.1-.13334,3.15-4.2h4.20946l.6499-.81234.3904-.48805.3904.48805.7094.88671,1.5094-1.88671L14.4996,2zm3.8583,4.82315L17.1398,5.3004H19.5l-1.1421,1.52275zm-.6196.82621-3.2387-4.04855-1.2595,1.57435,2.5002,3.12524H17.25l.4883-.65104zM17,9.3004H4.00024v11H17v-11zm1,10.0003,2.0002-2.667V6.30008L18,8.96707V19.3007zM14.4597,8.3004,11.5,4.60079,8.54031,8.3004h5.91939zm-7.20001,0,2.4-3H6.75024l-2.25,3h2.75945zm.74031,4h5v-1H8v1z"/></svg>