<svg width="24" height="24" xmlns="http://www.w3.org/2000/svg"><path fill-rule="evenodd" clip-rule="evenodd" d="m11.4998,2.0079c-3.03719,0-5.50004,2.46286-5.50004,5.5,0,.20908.01242.41437.03582.6159-2.29509.44906-4.03582,2.4515-4.03582,4.8841,0,2.7611,2.23885,5,5,5H11V21H2v1h20v-1H12v-2.9921h5.9998c2.2091,0,4-1.7909,4-4,0-1.1909-.5238-2.2557-1.3469-2.9861.2215-.4577.3469-.9707.3469-1.5139,0-1.93314-1.5669-3.5-3.5-3.5-.2434,0-.4787.02684-.7045.07525-.6269-2.34291-2.7504-4.07525-5.2955-4.07525zm.5002,15h5.9998c1.6568,0,3-1.3431,3-3,0-1.0127-.5057-1.9066-1.2797-2.451l-.3961-.2787.2658-.4048c.259-.3943.41-.8615.41-1.3655,0-1.38086-1.1192-2.5-2.5-2.5-.3129,0-.6134.06374-.8984.17485l-.5775.22515-.0979-.61206c-.3432-2.14699-2.1885-3.78794-4.4262-3.78794-2.4849,0-4.50004,2.01514-4.50004,4.5,0,.31931.03574.63016.1009.93424l.11868.55384-.56429.04904c-2.04895.17809-3.65529,1.87658-3.65529,3.96288,0,2.2089,1.79114,4,4,4H11v-3.7676l-2.31235-1.8499.6247-.7808L11,11.9597V9h1v5.6693l2.6237-2.9986.7526.6586L12,16.1879v.82z"/></svg>