<svg width="24" height="24" xmlns="http://www.w3.org/2000/svg"><path fill-rule="evenodd" clip-rule="evenodd" d="m7,8.0002c0-2.76186,2.23814-5,5-5,2.7609,0,5,2.2382,5,5,0,2.7609-2.2391,5-5,5-2.7618,0-5-2.2391-5-5zm5-6c-3.31414,0-6,2.68586-6,6,0,1.77676.77244,3.3734,2,4.4722v9.7346l.85355-.8535L10.5,19.707l1.6464,1.6465L13,22.207v-4.0002l.5-.5,1.6464,1.6465.8536.8535V12.472c1.2274-1.0987,2-2.69521,2-4.4718,0-3.3142-2.6869-6-6-6zm3,11.197c-.6074.3515-1.2821.5995-2,.72v2.8754l.1464-.1465.3536-.3535.3536.3535L15,17.7926v-4.5954zm-6,6.5956v-6.5953c.88247.5105,1.9071.8027,3,.8027v5.7926l-1.1464-1.1465-.3536-.3535-.3536.3535L9,19.7928zM9,8.0002c0-1.65686,1.3431-3,3-3s3,1.34314,3,3-1.3431,3-3,3-3-1.34314-3-3zm3-4c-2.20914,0-4,1.79086-4,4,0,2.2091,1.79086,4,4,4,2.2091,0,4-1.7909,4-4,0-2.20914-1.7909-4-4-4z"/></svg>