<svg width="36" height="36" xmlns="http://www.w3.org/2000/svg"><path fill-rule="evenodd" clip-rule="evenodd" d="m24.25,3v3h1V3h-1zm-.4866,8.6912c-.4181-.7984-1.0531-1.4263-1.796-1.85242C22.6764,9.16147,23.649,8.75,24.75,8.75c2.2604,0,4,1.7396,4,4,0,1.699-.982,3.0981-2.4205,3.6923-.0789-.1342-.1674-.2627-.2653-.3843-.4511-.5603-1.0913-.9561-1.8844-1.0738.2458-1.2537.065-2.3739-.4164-3.293zm3.0514,6.8853c.0263-.4068-.0099-.8168-.1085-1.2079,1.812-.746,3.0437-2.5095,3.0437-4.6186,0-2.81264-2.1874-5-5-5-1.5108,0-2.8491.6317-3.7596,1.66348-1.9564-.60671-4.3015.0204-5.5822,2.30282-2.1923-1.2254-5.1274.3315-5.1347,3.1338-.7433.1433-1.34132.5855-1.75756,1.1673-.50429.7048-.75295,1.6239-.71355,2.5298.03955.9095.37146,1.8407,1.0731,2.5477.70786.7132,1.74981,1.1556,3.12471,1.1556h10.5c1.3688,0,2.4263-.4423,3.1577-1.1449.7261-.6976,1.0981-1.6207,1.1569-2.5291zm-5.9476-8.1497c-1.6857-.61152-3.7993-.0644-4.8096,2.2255l-.2654.6017-.5089-.4167c-1.6278-1.3334-4.2821-.0689-3.9867,2.4039l.0669.5593h-.5633c-.6158,0-1.11618.3028-1.47096.7987-.36092.5045-.55852,1.198-.52779,1.9045.03057.7031.28516,1.3843.78381,1.8867.49244.4962,1.26454.8601,2.41494.8601h10.5c1.1437,0,1.9424-.364,2.4649-.8661.5278-.5071.8074-1.1871.8517-1.8725.0446-.6889-.1502-1.3532-.5315-1.8267-.3712-.4611-.937-.7663-1.7151-.7351l-.6985.0279.1992-.67c.3789-1.2744.233-2.3387-.1934-3.1529-.4296-.8204-1.1616-1.4205-2.0103-1.7283zm-1.3087-2.17054-2.1615-2.079.6933-.72073,2.1615,2.079-.6933.72073zM29.3359,18.1492l2.121,2.121.7071-.7071-2.121-2.121-.7071.7071zM31.5,12.25h3v1h-3v-1zm-.2101-6.77055-2.121,2.121.7071.70711,2.121-2.121-.7071-.70711zM12.3028,26.7764l1.5-3,.8944.4472-1.5,3-.8944-.4472zm10.5-3-1.5,3,.8944.4472,1.5-3-.8944-.4472zm-9,6,3-6,.8944.4472-3,6-.8944-.4472zm6.0747-6-3,6,.8944.4472,3-6-.8944-.4472z"/></svg>