<svg width="24" height="24" xmlns="http://www.w3.org/2000/svg"><path fill-rule="evenodd" clip-rule="evenodd" d="m1.99951,3.99976h7v-1h-7v1zM11,15.5002c0-2.4808,2.0191-4.5,4.5-4.5s4.5,2.0192,4.5,4.5c0,2.48-2.0192,4.5-4.5,4.5s-4.5-2.02-4.5-4.5zm4.5-5.5c-3.0331,0-5.5,2.4669-5.5,5.5,0,3.0321,2.4668,5.5,5.5,5.5s5.5-2.4679,5.5-5.5c0-3.0331-2.4669-5.5-5.5-5.5zm-.5005-6.00044h-4v-1h4v1zm-4,3.00048h4v-1h-4v1zm11.0005,0h-5v-1h5v1zm-5-3.00048h5v-1h-5v1zM8.99951,7.00024h-7v-1h7v1zm-7,2.99996h7v-.99996h-7v.99996zm5,3h-5v-1h5v1zm-5,2.9996h5v-1h-5v1zm5,3h-5v-1h5v1zM15,12.0002v4h4v-1h-3v-3h-1z"/></svg>