<svg width="36" height="36" xmlns="http://www.w3.org/2000/svg"><path fill-rule="evenodd" clip-rule="evenodd" d="m5.75,18.0004C5.75,11.156,11.1571,5.75037,18,5.75037S30.25,11.156,30.25,18.0004c0,6.8428-5.4071,12.25-12.25,12.25s-12.25-5.4072-12.25-12.25zM18,4.75037c-7.3951,0-13.25,5.85333-13.25,13.25003,0,7.3951,5.8549,13.25,13.25,13.25s13.25-5.8549,13.25-13.25c0-7.3967-5.8549-13.25003-13.25-13.25003zM10.7109,21.9473c1.2184,2.8302,3.9737,4.8023,7.2888,4.8023,3.3166,0,6.0703-1.9721,7.2887-4.8023l-.9185-.3954c-1.0676,2.4799-3.4708,4.1977-6.3702,4.1977-2.898,0-5.3027-1.7179-6.3703-4.1977l-.9185.3954zM12.25,13.5c0-.6901.5599-1.25,1.25-1.25s1.25.5599,1.25,1.25-.5599,1.25-1.25,1.25-1.25-.5599-1.25-1.25zm1.25-.25c-.1379,0-.25.1121-.25.25s.1121.25.25.25.25-.1121.25-.25-.1121-.25-.25-.25zm9-1c-.6901,0-1.25.5599-1.25,1.25s.5599,1.25,1.25,1.25,1.25-.5599,1.25-1.25-.5599-1.25-1.25-1.25zm-.25,1.25c0-.1379.1121-.25.25-.25s.25.1121.25.25-.1121.25-.25.25-.25-.1121-.25-.25z"/></svg>