<svg width="24" height="24" xmlns="http://www.w3.org/2000/svg"><path fill-rule="evenodd" clip-rule="evenodd" d="m6.4638,7.4638C6.18329,7.74432,6,8.21504,6,9v2.0005h6.0499C12.2814,9.85875,13.2909,9,14.5,9s2.2186.85875,2.4501,2.0005H18V9c0-.78496-.1833-1.25568-.4638-1.5362C17.2557,7.18329,16.785,7,16,7H8c-.78496,0-1.25568.18329-1.5362.4638zm9.451,3.5367C15.709,10.4175,15.153,10,14.5,10s-1.209.4175-1.4148,1.0005h2.8296zM18,16v-3.9995H6V16h12zm1,.5v-5.4995h1v-1h-1V9c0-.92104-.2137-1.70032-.7567-2.2433C17.7003,6.21371,16.921,6,16,6H8c-.92104,0-1.70032.21371-2.2433.7567C5.21371,7.29968,5,8.07896,5,9v1.0005H4v1h1v7.999h4V17h6.001v1.9995H19V16.5zM6,17.9995V17h2v.9995H6zm10.001,0V17H18v.9995h-1.999zm-9.001-4c0-.5505.44721-1,1-1s1,.4495,1,1c0,.5522-.44786,1-1,1s-1-.4478-1-1zM15,13.9995c0-.5505.4472-1,1-1s1,.4495,1,1c0,.5522-.4479,1-1,1s-1-.4478-1-1z"/></svg>