<svg width="24" height="24" xmlns="http://www.w3.org/2000/svg"><path fill-rule="evenodd" clip-rule="evenodd" d="m5,7.5c0-.25686.24314-.5.5-.5s.5.24314.5.5-.24314.5-.5.5S5,7.75686,5,7.5zM5.5,6C4.69086,6,4,6.69086,4,7.5S4.69086,9,5.5,9,7,8.30914,7,7.5,6.30914,6,5.5,6zm-1.20711,4h2.51613l.13819.2764.97984,1.9597L9.4,14.2l-.8.6-1.5-2-.02705-.0361-.02016-.0403L7,12.618v2.764l.94721,1.8944L8,17.382v2.8129l13.3509-4.1721L22,15.8199V22H5.5l-.14914-.9772L7,20.5074V17.618L6.19098,16H5v6H4V11.7071l-1,1V15H2v-2.7071l.14645-.1465,2-2L4.29289,10zM5,15v-4h1v4H5zm16,6H8.77631L21,17.1801V21z"/></svg>