<svg width="48" height="48" xmlns="http://www.w3.org/2000/svg"><path fill-rule="evenodd" clip-rule="evenodd" d="m24.5,4C13.1781,4,4,13.1781,4,24.5S13.1781,45,24.5,45,45,35.8219,45,24.5,35.8219,4,24.5,4zM3,24.5C3,12.6259,12.6259,3,24.5,3S46,12.6259,46,24.5,36.3741,46,24.5,46,3,36.3741,3,24.5zM24.5,11c-1.3809,0-2.5,1.1191-2.5,2.5s1.1191,2.5,2.5,2.5,2.5-1.1191,2.5-2.5S25.8809,11,24.5,11zM21,13.5c0-1.9331,1.5669-3.5,3.5-3.5s3.5,1.5669,3.5,3.5S26.4331,17,24.5,17,21,15.4331,21,13.5zM19.5,19c-.8281,0-1.5.6719-1.5,1.5s.6719,1.5,1.5,1.5H22v14h-2.5c-.8278,0-1.5.6705-1.5,1.5s.6722,1.5,1.5,1.5h11c.8291,0,1.5-.6709,1.5-1.5s-.6709-1.5-1.5-1.5H28V19h-8.5zm-.5,1.5c0-.2759.2241-.5.5-.5H27v17h3.5c.2769,0,.5.2231.5.5s-.2231.5-.5.5h-11c-.2762,0-.5-.2235-.5-.5s.2238-.5.5-.5H23V21h-3.5c-.2759,0-.5-.2241-.5-.5z"/></svg>