<svg width="24" height="24" xmlns="http://www.w3.org/2000/svg"><path fill-rule="evenodd" clip-rule="evenodd" d="m1.85669,8.36769C4.40633,5.68435,8.00237,4.0001,12.0002,4.0001c3.9968,0,7.5928,1.68426,10.1424,4.36759l-.7249.68882c-2.3704-2.49467-5.7084-4.05641-9.4175-4.05641-3.71025,0-7.04822,1.56175-9.41857,4.05641l-.72494-.68882zM12,16.9997c-.5526,0-1,.4479-1,1s.4474,1,1,1,1-.4479,1-1-.4474-1-1-1zm-2,1c0-1.1039.8946-2,2-2s2,.8961,2,2-.8946,2-2,2-2-.8961-2-2zm2.0002-10.9996c-3.14071,0-5.96679,1.32321-7.9695,3.4317l.72506.6886c1.82329-1.91951,4.39121-3.1203,7.24444-3.1203,2.8533,0,5.4212,1.20079,7.2445,3.1203l.7251-.6886c-2.0027-2.10849-4.8288-3.4317-7.9696-3.4317zm-5.7913,5.5003c1.45572-1.5336,3.51186-2.4968,5.7966-2.4968,2.2826,0,4.3356.96,5.7913,2.4904l-.7245.6892c-1.2763-1.3416-3.0713-2.1796-5.0668-2.1796-1.9972,0-3.79506.8408-5.07133,2.1852l-.72527-.6884zM11.9999,12.9999c-1.4304,0-2.70999.6075-3.61847,1.5636l.72493.6888c.73153-.7699,1.75394-1.2524,2.89354-1.2524,1.1388,0,2.1631.4827,2.8933,1.2522l.7254-.6884c-.9078-.9565-2.1895-1.5638-3.6187-1.5638z"/></svg>