<svg width="36" height="36" xmlns="http://www.w3.org/2000/svg"><path fill-rule="evenodd" clip-rule="evenodd" d="m28.4999,5.11011.3536.3538,3.1815,3.183-.7073.70694-2.8278-2.8292-2.8279,2.8292-.7073-.70694,3.1815-3.183.3537-.3538zM3.625,5.12512h18.25V30.8751H3.625V5.12512zm1,1V29.8751h16.25V6.12512H4.625zM25.6723,26.6477l2.8279,2.8279,2.828-2.8279.7071.7071-3.1815,3.1815-.3536.3535-3.535-3.535.7071-.7071zM12.7493,8.75049c-.5522,0-1,.44696-1,1,0,.55181.4481,1.00001,1,1.00001.5518,0,1-.4482,1-1.00001,0-.55304-.4478-1-1-1zm-2,1c0-1.10597.8962-2,2-2s2,.89403,2,2c0,1.10411-.8959,2.00001-2,2.00001-1.1042,0-2-.8959-2-2.00001zM9.74927,13.7498h-.5v8.5h1.50003v6h4v-6h1.5v-8.5H9.74927zm.50003,7.5v-6.5h5v6.5h-1.5v6h-2v-6h-1.5z"/></svg>