<svg width="24" height="24" xmlns="http://www.w3.org/2000/svg"><path fill-rule="evenodd" clip-rule="evenodd" d="m12.2075,4.64912c-.3445.32851-.594.79165-.6773,1.39524,1.7132.29205,2.9441,1.97893,2.9694,3.89521C15.6203,9.66634,16.5,8.49118,16.5,6.99976c0-1.70721-1.1527-3-2.5-3-.7425,0-1.3621.23902-1.7925.64936zm-.69-.72373c-.5521.52639-.9017,1.2475-.9934,2.1102C8.76472,6.30359,7.5,8.03846,7.5,9.99976c0,.92464.28112,1.79904.76265,2.49304-2.76141,1.4211-4.26241,4.8187-4.26241,8.0066v.5H18.0002v-.5c0-.8332-.1037-1.6792-.3063-2.4996h3.306v-.5c0-3.1941-1.5556-6.5221-4.3087-7.93563.5133-.71102.8088-1.61877.8088-2.56441,0-2.0928-1.4473-4-3.5-4-.9575,0-1.8379.31098-2.4825.92563zm4.4443,6.39821c-.4486.3472-.9788.58-1.568.6523-.1252.5663-.3568,1.0916-.6726,1.54,1.7404.895,2.9881,2.569,3.6719,4.4839h2.593c-.1583-2.8789-1.6717-5.6292-4.0243-6.6762zM11,6.99976c-1.31131,0-2.5,1.26803-2.5,3,0,1.73194,1.18869,3.00004,2.5,3.00004,1.3113,0,2.5-1.2681,2.5-3.00004,0-1.73197-1.1887-3-2.5-3zM8.96948,13.2622c-2.33746,1.052-3.80327,3.8472-3.956,6.7372H16.9868c-.1547-2.8861-1.6378-5.6678-3.9805-6.7176-.56.4496-1.2468.718-2.0063.718-.7705,0-1.46613-.2762-2.03052-.7376z"/></svg>