<svg width="36" height="36" xmlns="http://www.w3.org/2000/svg"><path fill-rule="evenodd" clip-rule="evenodd" d="m10.4998,9.25098c-3.17567,0-5.75003,2.57432-5.75003,5.75002,0,2.8944,2.13858,5.2893,4.92182,5.6908l-5.60594,9.8104-.42747.748H32.3528l-.4168-.7443-10.5-18.75-.4076-.7279-.4498.7027-3.9425,6.1603-.7541-.8798c.2341-.6239.3678-1.2999.3678-2.0102,0-3.1758-2.576-5.75002-5.75-5.75002zm4.6145,6.86462c.088-.3578.1355-.7306.1355-1.1146,0-2.6233-2.1281-4.75-4.75-4.75-2.62338,0-4.75003,2.1266-4.75003,4.75,0,2.5274,1.97394,4.5938,4.46423,4.7415l2.8517-4.9903.352-.616.4617.5386,1.2349,1.4408zM8.72614,30.2502l7.34696-11.4795-2.4912-2.9064L5.36136,30.2502h3.36478zm21.92056,0H9.91341l6.48949-10.1399,1.498,1.498.3224-.1611,2.6776-1.3389,1.5338,1.5338,2.4757-1.6352,5.7363,10.2433zM20.9712,12.9725l-4.0164,6.2755,1.1436,1.1436,2.6777-1.3388.3223-.1612,1.4662,1.4662,1.8559-1.2257-3.4493-6.1596z"/></svg>