<svg width="36" height="36" xmlns="http://www.w3.org/2000/svg"><path fill-rule="evenodd" clip-rule="evenodd" d="m18.1389,6.79275c-.6094.58103-1.0253,1.41178-1.1188,2.48708,2.5725.30097,4.48,2.81197,4.48,5.71977,0,.0716-.0011.1429-.0034.214,1.9659-.2874,3.5034-2.26,3.5034-4.714,0-2.65717-1.8027-4.74997-4-4.74997-1.1675,0-2.1621.37652-2.8612,1.04312zm-.6901-.72373c-.8214.78325-1.3336,1.87722-1.4315,3.20661-2.5912.28102-4.5172,2.80227-4.5172,5.72397,0,1.4514.4752,2.8039,1.2712,3.8321-4.19856,1.9919-6.52081,7.0915-6.52081,11.9175v.5H26.7505v-.5c0-1.3383-.1808-2.6951-.5315-3.9996h5.031v-.5c0-4.8323-2.4064-9.8295-6.596-11.8134.8475-1.0491,1.3461-2.4529,1.3461-3.9366,0-3.04276-2.0973-5.74997-5-5.74997-1.3825,0-2.6379.44848-3.5513,1.31939zm6.4545,9.12668c-.7084.5816-1.5649.958-2.5197,1.038-.1895.9907-.6024,1.8961-1.181,2.6318,2.7317,1.2949,4.682,3.8949,5.7105,6.8841h4.3278c-.1639-4.5333-2.5444-8.9519-6.3376-10.5539zm-7.4032-4.9461c-2.1398,0-4,2.0516-4,4.75,0,2.6985,1.8602,4.75,4,4.75s4-2.0515,4-4.75c0-2.6984-1.8602-4.75-4-4.75zM13.4973,19.6016c-3.77704,1.6077-6.07992,6.1026-6.2381,10.6476h18.4824c-.1602-4.5408-2.4912-9.0125-6.2738-10.6175-.8214.6993-1.8422,1.1179-2.9677,1.1179-1.1415,0-2.1754-.4307-3.0028-1.148z"/></svg>