<svg width="24" height="24" xmlns="http://www.w3.org/2000/svg"><path fill-rule="evenodd" clip-rule="evenodd" d="m13.0001,4.9997v-3h-1v3h1zm-3.64644.64645-2-2-.7071.7071,2,2,.7071-.7071zm9.00004-1.2929-2,2-.7071-.7071,2-2,.7071.7071zM9.00011,11.4997c0-1.93286,1.56719-3.5,3.49999-3.5,1.9329,0,3.5,1.56714,3.5,3.5v5.5H9.00011v-5.5zm-1,5.5v-5.5c0-2.48514,2.01489-4.5,4.49999-4.5,2.4852,0,4.5,2.01486,4.5,4.5v5.5h1.8604l.114.3419,1,3,.2193.6581H4.8064l1.21937-3.6581.11396-.3419h1.86038zm2.99999-6v5h-1v-5h1zm-4.80628,9,.66667-2H18.1397l.6667,2H6.19382z"/></svg>