<svg width="24" height="24" xmlns="http://www.w3.org/2000/svg"><path fill-rule="evenodd" clip-rule="evenodd" d="m4.40359,4.39073C4.14112,4.64777,4,4.9517,4,5.2V6h16v-.8c0-.05084-.0219-.15584-.1008-.30599-.0755-.14371-.1876-.29852-.3238-.44084C19.2811,4.14587,18.979,4,18.8,4H5.2c-.22631,0-.5325.13228-.79641.39073zM5.80902,10l-1.5-3H19.691l-1.5,3H5.80902zm.05136,1-1.66667,5H19.8063l-1.6667-5H5.86038zM4,18.8V17h16v1.7c0,.235-.1348.5711-.3944.8604-.2591.2888-.5592.4396-.8056.4396H5.2c-.27864,0-.58192-.1369-.82336-.3795C4.13487,19.3776,4,19.0738,4,18.8zM3.70391,3.67627C4.0925,3.29572,4.63631,3,5.2,3h13.6c.585,0,1.1329.38063,1.4976.76158.1933.2018.363.43156.4868.66725.1205.22926.2156.49851.2156.77117v1.41803l-.0528.10558-1.9074,3.81479,1.9345,5.8035.0257.077V18.7c0,.55-.2782,1.1139-.6501,1.5283-.3724.415-.9223.7717-1.5499.7717H5.2c-.59536,0-1.14208-.2821-1.53214-.674C3.27813,19.9344,3,19.3882,3,18.8v-2.3811l.02566-.077,1.93451-5.8035,3,6.61803V5.2c0-.5957.31388-1.14177.70391-1.52373zM16,19h2v-1h-2v1z"/></svg>