<svg width="36" height="36" xmlns="http://www.w3.org/2000/svg"><path fill-rule="evenodd" clip-rule="evenodd" d="m9.74991,4.25037c-1.33536,0-2.5,1.39577-2.5,3.25,0,.6453.14436,1.25256.39768,1.76181l.0003.00062c.45853.925,1.23499,1.4876,2.10202,1.4876.86789,0,1.64309-.5634,2.10189-1.49034.2527-.51065.3981-1.11692.3981-1.75969,0-1.85423-1.1646-3.25-2.49999-3.25zM12.291,10.434c-.6126.7861-1.4942,1.3164-2.54109,1.3164-1.0422,0-1.92238-.5259-2.53533-1.3072-2.08095,1.1558-2.8717,3.5249-2.95369,6.3127H15.2479c-.0829-2.7968-.8839-5.1662-2.9569-6.3219zm-5.59618-.84633c-.28898-.62695-.44491-1.34346-.44491-2.0873,0-2.15978,1.39436-4.25,3.5-4.25,2.10559,0,3.49999,2.09022,3.49999,4.25,0,.74062-.1565,1.45278-.4416,2.0767,2.6621,1.49883,3.4469,4.58123,3.4469,7.67883v.5H3.25366v-.5c0-3.0833.7706-6.1676,3.44116-7.66823zM24.6394,6.55731c1.4048,1.87769,2.1987,4.47919,2.1599,7.64929l2.8496-2.8098.7021.7121-3.759,3.7065-.3515.3466-.3511-.347-3.741-3.6975.703-.7112,2.9461,2.9118c.0594-3.0573-.6963-5.47426-1.9588-7.16175-1.4041-1.87681-3.4627-2.89168-5.849-2.88394l-.0033-.99999c2.6958-.00875,5.0553,1.14935,6.653,3.28489zm1.6105,12.69309c-1.3354,0-2.5,1.3957-2.5,3.25,0,.757.2036,1.4642.5436,2.0227.4703.7702,1.1743,1.2273,1.9564,1.2273.7823,0,1.4866-.4572,1.9569-1.2276.3398-.5583.5431-1.2654.5431-2.0224,0-1.8543-1.1646-3.25-2.5-3.25zM28.7658,25.4655c-.6113.7675-1.4853,1.2849-2.5159,1.2849-1.0303,0-1.9039-.5171-2.5151-1.2843-1.8326,1.3121-2.8516,3.7519-2.9701,6.2888h10.9797c-.1189-2.5476-1.1455-4.9821-2.9786-6.2894zm-5.5568-.8526c-.2956-.6325-.4591-1.3584-.4591-2.1125,0-2.1598,1.3944-4.25,3.5-4.25s3.5,2.0902,3.5,4.25c0,.7538-.1632,1.4795-.4585,2.1118,2.3388,1.6289,3.4647,4.6979,3.4647,7.6427v.5h-13.003v-.5c0-2.93,1.1161-6.0069,3.4559-7.642zM9.74949,19.8002l.35141.3464,3.75,3.696-.702.7122-2.9553-2.9128c-.0594,3.0614.6965,5.4945,1.9603,7.1973,1.4052,1.8934,3.4637,2.9218,5.8472,2.9133l.0036,1c-2.6985.0096-5.0575-1.1665-6.6538-3.3173-1.40342-1.891-2.19724-4.5056-2.15918-7.6783l-2.8404,2.8063-.70282-.7113,3.75-3.705.35099-.3468z"/></svg>