<svg width="48" height="48" fill="none" xmlns="http://www.w3.org/2000/svg"><path fill-rule="evenodd" clip-rule="evenodd" d="m14,22.5c4.142,0,7.5,3.358,7.5,7.5,0,4.143-3.358,7.5-7.5,7.5S6.5,34.143,6.5,30c0-4.142,3.358-7.5,7.5-7.5z" stroke="#000"/><path fill-rule="evenodd" clip-rule="evenodd" d="m34.001,22.5c4.143,0,7.5,3.358,7.5,7.5,0,4.143-3.357,7.5-7.5,7.5-4.142,0-7.5-3.357-7.5-7.5,0-4.142,3.358-7.5,7.5-7.5z" stroke="#000"/><path d="m14,30,4.5-11.5h10l4.5-6h-7M34.001,30,28.5,18.5m-13.5-4h5" stroke="#000"/></svg>