<svg width="48" height="48" fill="none" xmlns="http://www.w3.org/2000/svg"><path fill-rule="evenodd" clip-rule="evenodd" d="m17,16h-.9l1.2,1.125h-1.425V16h-.75v1.125H13.7L14.9,16H14l-1.5,1.5L14,19h.9l-1.2-1.125h1.425V19h.75l.056-1.181,1.369.056L16.1,19h.9l1.5-1.5L17,16z" fill="#000"/><path d="m18.828,25.5244c5.039,2.893,7.251,8.074,7.672,13.976h-22c.099-6.054,2.798-11.216,7.634-14M26.5609,12.244c.3-2.96795,2.312-5.24595,4.939-5.24595,2.849,0,5,2.668,5,6.00395,0,3.335-2.151,6-5,6-1.179,0-2.225-.475-3.061-1.245m-1.878-5.513c1.186,1.094,1.939,2.802,1.939,4.758M26.5609,12.244c-.836-.771-1.8826-1.246-3.0606-1.246-1.179,0-2.225.475-3.061,1.246-.24.222-.463.468-.665.737m6.7866-.737c1.187,1.094,1.939,2.802,1.939,4.758m0,0c0,.259-.035.505-.061.755m.061-.755c0,.259-.036.505-.061.755m0,0c-.301,2.969-2.3106,5.245-4.9386,5.245-1.179,0-2.206-.424-3.043-1.194l2.0456,2.1916-.966,1.791,2.039,3.745,1.961-3.745-1.034-1.791,1.977-2.152m.352-.3437c5.039,2.893,7.247,8.095,7.668,13.996h-8.647m8.9868-17.9882c5.039,2.894,7.239,8.087,7.66,13.988h-8.622M26.6767,11.4907s1.688-.292,3.171-1.64595c.536-.489,1.361-.454,1.85.083,1.129,1.23795,2.998,2.96395,4.801,2.96395.389,3.25,2.9296,5.4943,4.3776,6.6423.375.297.265.83-.231.994l-1.663.599M20.4999,13.5c0,.553-2.238,1-5,1-2.761,0-5-.447-5-1m10,0c0-.552-2.238-1-5-1-2.761,0-5,.448-5,1m10,0v6m-10-6v6m0,0c0,.553,2.239,1,5,1,2.762,0,5-.447,5-1m-10,0V21c0,3.335,2.151,6,5,6s5-2.665,5-6v-1.5m-9,.5997s.5,1.396,4,1.4,4-1.4,4-1.4" stroke="#000"/></svg>