<svg width="48" height="48" xmlns="http://www.w3.org/2000/svg"><path fill-rule="evenodd" clip-rule="evenodd" d="m37.0002,2v3h-1V2h1zm6.5712,3.13635-2.121,2.121-.7071-.7071,2.121-2.121.7071.7071zm-13.4354-.7071,2.121,2.121-.7071.7071-2.121-2.121.7071-.7071zM36.5002,8c-1.9329,0-3.5,1.56714-3.5,3.5,0,1.9329,1.5671,3.5,3.5,3.5,1.9328,0,3.5-1.5671,3.5-3.5,0-1.93286-1.5672-3.5-3.5-3.5zm-4.5,3.5c0-2.48514,2.0148-4.5,4.5-4.5,2.4851,0,4.5,2.01486,4.5,4.5,0,2.4851-2.0149,4.5-4.5,4.5-2.4852,0-4.5-2.0149-4.5-4.5zm-5-.5h3v1h-3v-1zm19,1h-3v-1h3v1zM9.18954,14.5688c6.38796-3.3844,14.35996-1.129,18.00436,5.1832l.25.433-.433.25-10.8147,6.2438L26.7806,44h15.2196v1H5.00017v-1H25.6087L15.3299,27.1789,4.49387,33.435l-.43301.25-.25-.433C.16647,26.9398,2.19841,18.9088,8.32351,15.0688l-.50442-.8742.86616-.4998.50429.874zM6.0053,18.369c-3.24887,3.7933-4.006,9.3144-1.56991,13.9451l3.46119-1.9983c-1.66681-3.045-2.46533-6.2234-2.38851-8.9602.02989-1.065.19375-2.0751.49723-2.9866zm2.75754,11.4467,12.97986-7.4939c-1.7237-2.8284-3.9498-4.9669-6.1747-6.1694-2.3446-1.2673-4.6085-1.4612-6.31504-.4754h-.00008c-1.70656.9853-2.67043,3.0427-2.7452,5.7067-.07096,2.5278.66778,5.5247,2.25516,8.432zm13.84616-7.994,3.4604-1.9978c-2.7915-4.4237-7.95-6.5284-12.8585-5.6134.9403.1931,1.8962.556,2.8326,1.0621,2.4087,1.302,4.7622,3.583,6.5655,6.5491zm6.8199-3.9581,2.121-2.121.7071.7072-2.121,2.121-.7071-.7072zM42.8643,18.5708l-2.121-2.121.7071-.7072,2.121,2.121-.7071.7072zM36.0002,21v-3h1v3h-1z"/></svg>