<svg width="36" height="36" xmlns="http://www.w3.org/2000/svg"><path fill-rule="evenodd" clip-rule="evenodd" d="m8.75,5.25c0-.55232.44768-1,1-1,.5523,0,1,.44768,1,1v2.5h-2v-2.5zm-1,2.5v-2.5c0-1.1046.8954-2,2-2s2,.8954,2,2v2.5h12.5v-2.5c0-1.1046.8954-2,2-2s2,.8954,2,2v2.5h4.5v7h-4.5v5.0015h4.5v7h-4.5V32.75h-4v-5.9985h-12.5V32.75h-4v-5.9985h-4.5v-7h4.5V14.75h-4.5v-7h4.5zm19.5-2.5v2.5h-2v-2.5c0-.55232.4477-1,1-1s1,.44768,1,1zm0,14.5015V14.75h-2v5.0015h2zM11.75,14.75h12.5v5.0015h-12.5V14.75zm-3,5.0015V14.75h2v5.0015h-2zM4.25,8.75v5h3.79289l5.00001-5H4.25zm10.2071,0-4.99999,5H21.5429l5-5H14.4571zm17.2929,5h-8.7929l5-5H31.75v5zm-4.5,13.0015V31.75h-2v-4.9985h2zm-18.5,0V31.75h2v-4.9985h-2zm-4.5-6v4.291l4.29106-4.291H4.25zm9.7914,5H4.95528l5-5h9.08612l-5,5zm6.4142-5-5,5h9.0858l5-5h-9.0858zm10.5,0-5,5H31.75v-5h-.7944z"/></svg>