<svg width="24" height="24" xmlns="http://www.w3.org/2000/svg"><path fill-rule="evenodd" clip-rule="evenodd" d="m17.491,10.6079c-.2868-.3698-.687-.63915-1.1785-.75148.1249-.80449-.0042-1.53195-.3225-2.1397-.3907-.74606-1.0492-1.27875-1.7943-1.549-1.3625-.49427-3.0417-.11585-3.9872,1.42244-1.51593-.71889-3.43066.3254-3.52265,2.17629-.48122.1281-.86969.43135-1.14398.81475-.3601.5033-.53437,1.1536-.50666,1.7908.02786.6407.26202,1.3032.76361,1.8086.50781.5117,1.24743.8196,2.20141.8196h6.99997c.9199,0,1.6492-.3121,2.1616-.8126.5061-.4943.773-1.1455.8254-1.784.0521-.6351-.1058-1.2926-.4962-1.7957zm-6.6333-2.10583c.6352-1.43991,1.9488-1.77452,2.997-1.39429.53.19224.9839.5658,1.2495,1.07287.2623.50088.3581,1.16523.1168,1.97715l-.1992.67.6984-.028c.4648-.0185.7787.1605.9807.421.2133.2749.3247.6737.2896,1.1011-.0347.4239-.2113.8416-.5275,1.1504-.3097.3026-.7811.5279-1.4628.5279H8.00023c-.72952,0-1.19927-.2295-1.49164-.524-.2986-.3009-.45544-.7134-.47433-1.1477-.01904-.4378.10418-.8625.3209-1.1655.21058-.2943.4969-.4628.84507-.4628h.56329l-.06682-.5593c-.17941-1.50176,1.41934-2.24619,2.3867-1.45384l.5088.41675.2655-.60174zM6.99999,16.9999h-1v-1h1v1zm1,0h-1v1h-1v1h1v-1h1v1h1v-1h-1v-1zm0,0v-1h1v1h-1zm2,4H11v1H9.99999v1H11v-1h1v1h1v-1h-1v-1h1v-1h-1v1h-1v-1H9.99999v1zm5.00001-4h-1v-1h1v1zm1,0h-1v1h-1v1h1v-1h1v1h1v-1h-1v-1zm0,0v-1h1v1h-1z"/></svg>