<svg width="24" height="24" xmlns="http://www.w3.org/2000/svg"><path fill-rule="evenodd" clip-rule="evenodd" d="m20.0001,4.9985.0009-2.99886-1-.00028-.0009,2.99914H18V7h-1v11h2.0009l-.0008,3H17v1h5v-1h-1.9999l.0008-3H22V7h-1V4.9985h-.9999zm-9.3227-1.2568c.9887-.98945,2.593-.98967,3.5828.00015.9887.98874.9887,2.59316,0,3.5819l-3.1135,3.11345L7.56413,6.85456,10.6773,3.74188l.0001-.00018zM6.85697,7.56161,3.74328,10.6749h-.00003c-.98971.9897-.9897,2.5931.00003,3.5828.58409.5841,1.38192.8235,2.14121.7182l.10859-.0201c.43007-.0795.84284-.2678,1.19244-.5675.04811-.0414.09503-.0849.14065-.1306l.4896-.4896.54051-.541.1065-.1066.00079-.0002,1.97603-1.976L6.85697,7.56161zm8.11033.46924L9.97306,13.0251C12.2359,13.2615,14,15.1751,14,17.5005c0,2.4851-2.0149,4.5-4.5,4.5-2.48514,0-4.5-2.0149-4.5-4.5,0-.5337.09791-1.041.27029-1.5103-.81416-.0608-1.61131-.4025-2.23412-1.0253-1.38026-1.3803-1.38026-3.6169,0-4.99715l.00003-.00003L9.97002,3.0349l.00018-.00018c1.3794-1.38037,3.617-1.3801,4.9971.00003,1.3792,1.37926,1.3792,3.61684,0,4.9961zM8.95389,14.0442l-.43236.4324-.48781.4883-.00056.0005c-.05857.0585-.11869.1144-.18024.1678-.42827.3731-.9249.6258-1.44577.758-.18191.3437-.31025.7168-.36975,1.1108h6.9274c-.242-1.6968-1.7012-3.0015-3.4648-3.0015-.18587,0-.36766.0151-.54611.0437zm4.01041,3.9578H6.03567c.24329,1.6953,1.70175,2.9985,3.46433,2.9985,1.7626,0,3.221-1.3032,3.4643-2.9985zM20,5.9985V7h-1V5.9985h1zM18,16v1h3V8h-3v.9995h2v1h-2V11h2v1h-2v1h2v1h-2v1h2v1h-2z"/></svg>