<svg width="36" height="36" xmlns="http://www.w3.org/2000/svg"><path fill-rule="evenodd" clip-rule="evenodd" d="m23.2132,25.4207,4.9331,4.9331.7071-.7071L6.35344,7.14673l-.7071.70711,4.42226,4.42226c-2.63343,1.9936-4.51363,4.4209-5.22798,5.436l-.19853.2821.19327.2858c.57855.8554,2.20318,2.9563,4.49894,4.8494,2.2889,1.8874,5.3087,3.6205,8.6652,3.6205,1.8802,0,3.6365-.5355,5.2137-1.3292zm-.7477-.7477-1.6645-1.6645c-.8313.4841-1.7625.7411-2.8011.7411-3.1755,0-5.75-2.5727-5.75-5.7485,0-1.0536.2434-1.9695.7386-2.8051l-2.2057-2.2057c-2.35385,1.7555-4.10587,3.9032-4.9202,5.0134.66822.9265,2.12928,2.7226,4.10789,4.3541,2.21331,1.8251,5.01051,3.3921,8.02901,3.3921,1.5747,0,3.075-.4184,4.466-1.0769zM20.064,22.2715l-6.3401-6.3401c-.3169.6147-.474,1.2861-.474,2.0697,0,2.6232,2.1264,4.7485,4.75,4.7485.7634,0,1.4458-.165,2.0641-.4781zm-3.4701-9.83c.4376-.1097.9064-.1905,1.4057-.1905,3.1755,0,5.75,2.5728,5.75,5.75,0,.4989-.0826.968-.1919,1.4053l-.9702-.2426c.0977-.3907.1621-.7736.1621-1.1627,0-2.6247-2.1266-4.75-4.75-4.75-.3917,0-.7749.0633-1.1623.1605l-.2434-.97zm-2.4604-2.45082c1.2102-.45324,2.5044-.73976,3.8668-.73976,3.3565,0,6.3763,1.73308,8.6653,3.62048,2.2957,1.8931,3.9204,3.994,4.4989,4.8494l.1932.2856-.1983.2821c-.6338.9014-2.1843,2.9009-4.3512,4.7282l-.6447-.7645c1.8757-1.5816,3.2749-3.3035,3.9737-4.2552-.6682-.9265-2.1292-2.7225-4.1078-4.3541-2.2133-1.825-5.0105-3.392-8.0291-3.392-1.2205,0-2.3953.2565-3.5161.6763l-.3507-.93652z"/></svg>