<svg width="36" height="36" xmlns="http://www.w3.org/2000/svg"><path fill-rule="evenodd" clip-rule="evenodd" d="m18,3.24955c-8.14664,0-14.75,6.60336-14.75,14.74995,0,8.1467,6.60336,14.75,14.75,14.75,8.1466,0,14.75-6.6033,14.75-14.75,0-8.14659-6.6034-14.74995-14.75-14.74995zM4.25,17.9995c0-7.5943,6.1556-13.74995,13.75-13.74995S31.75,10.4052,31.75,17.9995c0,7.5944-6.1556,13.75-13.75,13.75s-13.75-6.1556-13.75-13.75zm8.741-9.43731-.741-.40753V27.1334l.7572-.4544,15.746-9.4476-.7622-.4192-15-8.25001zm.259,16.80501V9.84593l13.4968,7.42327L13.25,25.3672z"/></svg>