<svg width="48" height="48" xmlns="http://www.w3.org/2000/svg"><path fill-rule="evenodd" clip-rule="evenodd" d="m4,19.8396c0-2.674.92703-5.8926,3.03101-8.434C9.12197,8.88002,12.3936,6.9995,17.1521,6.9995c6.0833,0,9.2764,2.51445,10.9737,5.1785,1.7208,2.7009,1.9407,5.6174,1.9407,6.4125,0,1.7689-.3415,3.4623-1.2203,5.084-.5472-.4087-1.0518-.8292-1.501-1.2597-1.3341-1.2784-2.1176-2.5856-2.1641-3.8868-.0469-1.3127-.4016-3.0032-1.6004-4.3707-1.212-1.3827-3.2174-2.357-6.4018-2.357-3.212,0-5.3599,1.1694-6.6942,2.8079-1.3193,1.6202-1.80257,3.6481-1.80257,5.3207h.5c-.5,0-.5.0001-.5.0003v.002l.00002.0044.00012.0149c.00013.0126.00039.0306.00089.0536.001.0461.00295.1127.0068.1977.00768.1702.02293.4146.05318.7184.06044.607.18109,1.4537.42231,2.4182.43644,1.745,1.27535,3.9066,2.89515,5.725-1.8155.7301-3.49843,1.3304-4.6621,1.7103C5.07778,27.0714,4,22.9563,4,19.8396zm28.4402,6.0821c-.9753-.5239-1.9135-1.0803-2.7736-1.6638,1.0141-1.8231,1.3999-3.722,1.3999-5.6674,0-.7457-.1622-3.0212-1.2761-5.4408.1507-.0429.3327-.091.5408-.1393.6485-.1502,1.5415-.2993,2.5265-.2993.9793,0,2.3242.2031,3.4143,1.035,1.0647.8126,1.971,2.2902,1.971,5.0229,0,2.4323-.9032,5.7603-2.5694,8.7285-1.0769-.4791-2.1735-1.0065-3.2334-1.5758zm-3.471-14.2811c.1275.2001.2474.4012.36.6025.1943-.0592.4581-.1331.7763-.2068.6993-.1621,1.6706-.3252,2.7522-.3252,1.0873,0,2.6851.2206,4.0209,1.2401,1.3613,1.0388,2.3644,2.8401,2.3644,5.8178,0,2.6078-.9444,6.0607-2.6478,9.1292,1.716.7293,3.3381,1.3278,4.6275,1.7691,1.8868-3.4784,2.7771-7.2832,2.7771-10.4774,0-4.6062-1.485-7.6329-3.5847-9.51349-2.1108-1.89059-4.9033-2.67691-7.6047-2.67691-2.0568,0-4.662.40525-6.9223,1.40843,1.3348.93515,2.3355,2.06247,3.0811,3.23267zM44.9998,19.1899c0,3.3154-.9067,7.2185-2.8145,10.7986.2397.0778.4603.1477.6593.2095,2.002.6213,2.8298,2.2985,2.5639,3.8293-.2657,1.53-1.6098,2.8287-3.6942,2.735-.4651-.021-1.1724-.1709-2.0239-.4143-.5411-.1546-1.1543-.3511-1.8221-.5864-3.3643,3.1572-7.9687,5.2379-13.9119,5.2379-5.0629,0-9.1424-1.604-12.3072-4.0307-.3363.1209-.6638.233-.9804.3352-.78784.2546-1.51561.451-2.15087.5723-.62773.1199-1.19699.1728-1.6549.1187-2.32444-.2747-3.59048-1.6796-3.67809-3.2633-.0859-1.5528.98296-3.0874,2.8975-3.5626.09043-.0225.20085-.0524.32947-.0893C4.09288,27.286,3,23.0907,3,19.8396c0-2.8801.99212-6.3315,3.26074-9.0717C8.54239,8.01197,12.0968,5.9995,17.1521,5.9995c3.2773,0,5.7974.6996,7.7299,1.7781,2.5535-1.2834,5.5882-1.7781,7.9284-1.7781,2.8816,0,5.9338.83788,8.2719,2.932,2.3492,2.1041,3.9175,5.4227,3.9175,10.2584zm-8.3789,16.1105c.0636.0246.1269.0489.1898.0728-3.1446,2.7931-7.3857,4.6263-12.8543,4.6263-4.5686,0-8.2724-1.363-11.1935-3.4502,1.0255-.4032,2.1086-.8726,3.202-1.3861.627-.2944,1.2592-.6042,1.8875-.9254,1.6521.6449,3.8473,1.0021,5.9752,1.0021,3.1896,0,5.9855-.8925,8.0578-2.0361,1.6683.8335,3.2923,1.5394,4.7355,2.0966zm-5.8253-2.6564c-.6546-.3458-1.3115-.7102-1.9626-1.092-1.1377-.6672-2.2613-1.3897-3.3261-2.1611-1.5847,1.3638-3.9299,2.8558-6.4344,4.2064,1.3872.4096,3.0807.6426,4.7551.6426,2.7031,0,5.1031-.6812,6.968-1.5959zm-9.1878-6.649c.9018.9784,1.9474,1.9084,3.0776,2.7816-2.1463,1.797-5.6936,3.8603-9.1455,5.4814-1.8487.8683-3.6532,1.6017-5.1785,2.0945-.76285.2464-1.44877.4304-2.03103.5415-.5898.1127-1.04189.1443-1.34998.1079-1.94591-.23-2.7416-1.3245-2.79697-2.3254-.05708-1.0318.64983-2.167,2.13994-2.5369.97609-.2423,3.93714-1.2348,7.05324-2.5345,2.8722-1.198,5.9663-2.693,7.7575-4.1443.1533.1799.3113.358.4737.5342zM18.3533,18.9734c0,2.0301.837,3.949,2.1558,5.707-1.6405,1.3328-4.5828,2.7749-7.4613,3.9783-1.6311-1.704-2.4764-3.8204-2.9122-5.5629-.22719-.9083-.34073-1.7058-.39738-2.2747-.0283-.2842-.04233-.5106-.04928-.6644-.00348-.0769-.00518-.1356-.00601-.1742l-.00071-.0426-.00008-.0095-.00001-.0018v-.0001c.00006-1.5023.43777-3.2886,1.57807-4.6888,1.1253-1.382,2.9759-2.4394,5.9187-2.4394.9544,0,1.7779.0929,2.4884.2561-.8285,1.6387-1.314,3.5985-1.314,5.917zm2.2889-5.6255c-.8021,1.5195-1.2889,3.3741-1.2889,5.6255,0,2.1941,1.1384,4.3352,2.9898,6.3438,1.8475,2.0043,4.3599,3.8264,6.9958,5.3722,2.6325,1.5438,5.3673,2.7999,7.6422,3.6782,1.1372.439,2.1552.782,2.9841,1.0189.8408.2403,1.4531.3614,1.7941.3768,1.5847.0712,2.4849-.8761,2.664-1.9071.1789-1.0304-.348-2.2292-1.8751-2.7031-2.1008-.652-6.5855-2.204-10.5813-4.3505-1.9964-1.0725-3.8945-2.3058-5.3137-3.6658-1.4115-1.3527-2.4114-2.8913-2.4714-4.5731-.0423-1.1838-.3615-2.6162-1.353-3.7473-.5082-.5797-1.2115-1.1012-2.1866-1.4685zM17.75,9.4995c0,.13807-.1119.25-.25.25s-.25-.11193-.25-.25.1119-.25.25-.25.25.11193.25.25zm-.25-.75c-.4142,0-.75.33578-.75.75,0,.41421.3358.75.75.75s.75-.33579.75-.75c0-.41422-.3358-.75-.75-.75zm7,4c.1381,0,.25-.1119.25-.25s-.1119-.25-.25-.25-.25.1119-.25.25.1119.25.25.25zm-.75-.25c0-.4142.3358-.75.75-.75s.75.3358.75.75-.3358.75-.75.75-.75-.3358-.75-.75zm4,6c0,.1381-.1119.25-.25.25s-.25-.1119-.25-.25.1119-.25.25-.25.25.1119.25.25zM27.5,17.7495c-.4142,0-.75.3358-.75.75s.3358.75.75.75.75-.3358.75-.75-.3358-.75-.75-.75zm-6,1c.1381,0,.25-.1119.25-.25s-.1119-.25-.25-.25-.25.1119-.25.25.1119.25.25.25zm-.75-.25c0-.4142.3358-.75.75-.75s.75.3358.75.75-.3358.75-.75.75-.75-.3358-.75-.75zm-13-3c0,.1381-.11193.25-.25.25s-.25-.1119-.25-.25.11193-.25.25-.25.25.1119.25.25zm-.25-.75c-.41421,0-.75.3358-.75.75s.33579.75.75.75.75-.3358.75-.75-.33579-.75-.75-.75zm-1,10c.13807,0,.25-.1119.25-.25s-.11193-.25-.25-.25-.25.1119-.25.25.11193.25.25.25zM5.75,24.4995c0-.4142.33579-.75.75-.75s.75.3358.75.75-.33579.75-.75.75-.75-.3358-.75-.75zm7.75,8.75c0,.1381-.1119.25-.25.25s-.25-.1119-.25-.25.1119-.25.25-.25.25.1119.25.25zm-.25-.75c-.4142,0-.75.3358-.75.75s.3358.75.75.75.75-.3358.75-.75-.3358-.75-.75-.75zm-7,1.9999c.13807,0,.25-.1119.25-.25s-.11193-.25-.25-.25-.25.1119-.25.25.11193.25.25.25zM5.5,34.2494c0-.4142.33579-.75.75-.75s.75.3358.75.75-.33579.75-.75.75-.75-.3358-.75-.75zm13.25-4.7499c0,.1381-.1119.25-.25.25s-.25-.1119-.25-.25.1119-.25.25-.25.25.1119.25.25zm-.25-.75c-.4142,0-.75.3358-.75.75s.3358.75.75.75.75-.3358.75-.75-.3358-.75-.75-.75zm6-4c.1381,0,.25-.1119.25-.25s-.1119-.25-.25-.25-.25.1119-.25.25.1119.25.25.25zm-.75-.25c0-.4142.3358-.75.75-.75s.75.3358.75.75-.3358.75-.75.75-.75-.3358-.75-.75zm6,4c0,.1381-.1119.25-.25.25s-.25-.1119-.25-.25.1119-.25.25-.25.25.1119.25.25zm-.25-.75c-.4142,0-.75.3358-.75.75s.3358.75.75.75.75-.3358.75-.75-.3358-.75-.75-.75zm-10,9c.1381,0,.25-.1119.25-.25s-.1119-.25-.25-.25-.25.1119-.25.25.1119.25.25.25zm-.75-.25c0-.4142.3358-.75.75-.75s.75.3358.75.75-.3358.75-.75.75-.75-.3358-.75-.75zm12-27c0,.13807-.1119.25-.25.25s-.25-.11193-.25-.25.1119-.25.25-.25.25.11193.25.25zm-.25-.75c-.4142,0-.75.33578-.75.75,0,.41421.3358.75.75.75s.75-.33579.75-.75c0-.41422-.3358-.75-.75-.75zm7,2c.1381,0,.25-.1119.25-.25s-.1119-.25-.25-.25-.25.1119-.25.25.1119.25.25.25zm-.75-.25c0-.4142.3358-.75.75-.75s.75.3358.75.75-.3358.75-.75.75-.75-.3358-.75-.75zm4,5c0,.1381-.1119.25-.25.25s-.25-.1119-.25-.25.1119-.25.25-.25.25.1119.25.25zm-.25-.75c-.4142,0-.75.3358-.75.75s.3358.75.75.75.75-.3358.75-.75-.3358-.75-.75-.75zm1,7c.1381,0,.25-.1119.25-.25s-.1119-.25-.25-.25-.25.1119-.25.25.1119.25.25.25zM40.75,21.4995c0-.4142.3358-.75.75-.75s.75.3358.75.75-.3358.75-.75.75-.75-.3358-.75-.75zm0,5c0,.1381-.1119.25-.25.25s-.25-.1119-.25-.25.1119-.25.25-.25.25.1119.25.25zm-.25-.75c-.4142,0-.75.3358-.75.75s.3358.75.75.75.75-.3358.75-.75-.3358-.75-.75-.75zm-4,4.9999c.1381,0,.25-.1119.25-.25s-.1119-.25-.25-.25-.25.1119-.25.25.1119.25.25.25zm-.75-.25c0-.4142.3358-.75.75-.75s.75.3358.75.75-.3358.75-.75.75-.75-.3358-.75-.75zm5.0005,3.0003c0,.1381-.1119.25-.25.25s-.25-.1119-.25-.25.1119-.25.25-.25.25.1119.25.25zM40.5005,32.7497c-.4142,0-.75.3358-.75.75s.3358.75.75.75.75-.3358.75-.75-.3358-.75-.75-.75zM26.5,37.7495c.1381,0,.25-.1119.25-.25s-.1119-.25-.25-.25-.25.1119-.25.25.1119.25.25.25zm-.75-.25c0-.4142.3358-.75.75-.75s.75.3358.75.75-.3358.75-.75.75-.75-.3358-.75-.75zm7-1c0,.1381-.1119.25-.25.25s-.25-.1119-.25-.25.1119-.25.25-.25.25.1119.25.25zm-.25-.75c-.4142,0-.75.3358-.75.75s.3358.75.75.75.75-.3358.75-.75-.3358-.75-.75-.75z"/></svg>