<svg width="24" height="24" xmlns="http://www.w3.org/2000/svg"><path fill-rule="evenodd" clip-rule="evenodd" d="m11.9358,4.75494-.4379-.77838-.4347.78019L4.85362,15.9024,2.31813,20.2481l-.43874.752H21.1205l-.4386-.7519-.845-1.4487L11.9358,4.75494zm-.1817,6.86376-5.10463,3.115,4.85263-8.71007,5.8408,10.38227-4.9844-4.7233-.2777-.2632-.3267.1993zM11.9484,12.6716l7.0572,6.6876.3739.6409H3.6206l2.03549-3.4887,6.29231-3.8398zM19,7.00205h2.0045v-1H19V4.0001h-1v2.00195h-2.0605v1H18V9.0001h1V7.00205z"/></svg>