<svg width="48" height="48" fill="none" xmlns="http://www.w3.org/2000/svg"><path d="m12,27.5h12m-12,4h12m-12,6h7m8.5-14H36m-8.5,4H36m-8.5,6H31m-3.5,4h12v-31H23L20.5,9v1.5m-9.5,0L8.5,13v28.5h19V10.5037L11,10.5z" stroke="#000" stroke-miterlimit="10"/><path fill-rule="evenodd" clip-rule="evenodd" d="m36.028,18.5664V10h-.7969c-.1562.543-.373.918-.6504,1.125-.4101.3047-1.0195.457-1.8281.457v.7735h2.1621v6.2109h1.1133zm-12.0219,3.6992v-.9492h-4.3887c.0938-.375.2666-.6924.5186-.9521.2519-.2598.7139-.5967,1.3857-1.0108.8594-.5273,1.4571-.9726,1.793-1.3359.5078-.5508.7617-1.2012.7617-1.9512,0-.3906-.0713-.7578-.2139-1.1016-.1425-.3437-.3427-.6269-.6005-.8496-.4766-.4101-1.0918-.6152-1.8457-.6152-.8164,0-1.4668.248-1.9512.7441-.2539.2618-.4512.5821-.5918.961s-.2109.7793-.2109,1.2011c0,.043.0019.1172.0058.2227h1.0254c.0273-.7344.1807-1.2871.46-1.6582s.6826-.5566,1.2099-.5566c.6094,0,1.0645.2343,1.3653.7031.1836.2812.2754.6094.2754.9844,0,.4882-.1641.9257-.4922,1.3125-.2227.2695-.7364.6601-1.5411,1.1718-.5507.3516-.957.6368-1.2187.8555-.2617.2188-.4824.457-.6621.7148-.3984.5626-.6172,1.2657-.6563,2.1094h5.5723z" fill="#000"/></svg>