<svg width="36" height="36" xmlns="http://www.w3.org/2000/svg"><path fill-rule="evenodd" clip-rule="evenodd" d="m30.9502,31.5071.1964.1965.1965-.1965h.157v-.1569l.3536-.3537-.3536-.3537v-.0222l-1.5-1.5v.0222l-.6406-.6406h.0226l-1.5-1.5h-.0226l-1.4999-1.4998h.0227l-.882-.882v.0226l-.6374-.6374h.0222l-.885-.885v.0222l-1.5-1.5v-.0222l-1.5-1.5v.0222l-1.5-1.5v-.0215l-2.1225-2.121h-.02l-1.5008-1.5007h.0223l-1.5-1.5h-.0223l-2.9955-2.9955h.0223L8.37757,7.49959h-.02073L6.85931,6.00206l.01976-.00007-1.5075-1.509h-.02133l-.3465-.34651-.34651.34651h-.15866v.15866l-.20194.20194.20194.20194v2.44946h1.5v-.94946l1.5,1.5v.94406l.9469.00284.5531.5531v2.44857h1.50003v1.4974h1.5v-.946l1.5015,1.5015v8.4426h8.4425l1.5034,1.5034-3.9459.0026v1.5h-1.5v3h1.5v-1.5h1.5v-1.503h1.5v3h3v-1.5h-1.5V24.557l3,3v.9452h.9452l1.5004,1.5004h-.9456v1.5h1.5v.0045h.9501zM20.4426,20.9996l-1.4992-1.4993h-2.4433V17.057l-1.5-1.5v5.4426h5.4425zm-8.9981-8.9981-.9459-.946v.946h.9459zm-.9455-6.62265v-.8865h4.5015v1.5015H11.114l-.615-.615zM21.0001,15.8793v-.879h-.879l-1.5-1.5h3.879v3.879l-1.5-1.5zm-7.5013-8.3778v.003h-.873l1.497,1.497h2.3775V7.5017h1.499v.003h1.5v3h1.5v-1.5l4.5-.003v-1.5h1.5v-1.5h-1.5v-1.497h-1.5v2.997h-1.5v-1.497h-1.5v1.5h-1.5v-3h-1.5v1.497h-1.5v1.4998h-3.0005zm-7.49874,2.9988V9.00033h-1.5v2.99997h1.5v1.5h1.4985v1.5h3.00004v-1.5H7.50006v-3h-1.5zm24.00004.0042h1.5V9.00299h-1.5v1.50151zm-3,7.5003v1.497h-2.3775l-.6225-.6225v-.8775h3v-1.497h1.5v1.5h-1.5zm1.5,3.0006v1.5H30v2.373l-1.5-1.5v-.873h-.8729l-.627-.627v-2.373h4.5v3h-1.5v-1.5h-1.5zm-3-9.0036h1.5v1.5h-1.5v.003h-1.5v-3h1.5v1.497zm0,19.5058h1.5v-3h-1.5v3zm4.5-24.00288h1.5v-3h-1.5v-.003h-3v1.5h3v1.503zm1.4994,18.87378-.876-.876h.876v.876zm-1.4994-8.3725h1.5v-3.0015h-1.5v-1.4997l1.5-.003v-1.5h-3v3.003h1.5v3.0012zm-1.5-7.5045h-3v-1.5h3v1.5zm-12,21.0015v-1.5015h3v1.5015h-3zm1.4992-19.4983v-3h-1.5v1.497h-.8775l1.503,1.503h.8745zm-4.5,16.4978h1.5V27.007h1.5v3h-1.5v-.0045h-1.5v-1.5zM22.5001,28.5069h-1.5v3h1.5v-.0045h1.5v-1.5h-1.5v-1.4955zm-10.5015-6.0043v1.5h1.5v1.5h-3v-1.497H8.99857v-1.5l3.00003-.003zm6.0015,3.0004v-1.5h-3v1.5h3zm9-9.0015h-3v-1.5h3v1.5zm-22.50153,10.5h1.5v-1.5h-1.5v1.5zm4.5015-7.5h-1.5015v-1.5h1.5V16.506h3.00003v1.5H9.00007v1.4955zm-3.0015-1.5h1.5v-1.5h-1.5v-3h-1.5v3h1.5v1.5zm0,0h-1.5v3.0015h1.5v1.4996l-1.5.003v1.5h3v-3.003h-1.5v-3.0011zM22.5001,12.003h-1.5v-1.5015h1.5v1.5015zm-12,15.0015H7.49857v-1.5h3.00153v1.5zm-.0015,1.501v-1.5h3v1.5h-1.5v2.997h-1.5V30.007H8.99857v-1.5h1.50003v-.0015zm-4.50003-.0029h-1.5v3h1.5v.0045h3v-1.5h-3v-1.5045zm6.00003-7.4966H8.99857v-1.5h3.00003v1.5z"/></svg>