<svg width="36" height="36" xmlns="http://www.w3.org/2000/svg"><path fill-rule="evenodd" clip-rule="evenodd" d="m19.7493,9.7506c0-3.58964,2.9103-6.5,6.5-6.5.9558,0,1.855.21712,2.6667.58257l.6605.29734-.5122.51214-3.815,3.81506v2.29289h2.2929l3.815-3.81505.5113-.51125.2979.65879c.3675.81278.5829,1.71222.5829,2.66751,0,3.5896-2.9104,6.5-6.5,6.5-.8319,0-1.6193-.1656-2.344-.449l-8.1033,8.1033c.2843.7262.4473,1.5148.4473,2.3457,0,3.5896-2.9104,6.5-6.50003,6.5-.95599,0-1.85392-.2172-2.66601-.5844l-.65879-.2979.51124-.5113,3.81359-3.8135v-2.2929H8.45637l-3.81355,3.8136-.51124.5112-.2979-.6588c-.36722-.8121-.58441-1.71-.58441-2.666,0-3.5896,2.91036-6.5,6.5-6.5.83093,0,1.61953.1629,2.34563.4472l8.103-8.103c-.2844-.7253-.4486-1.5128-.4486-2.3442zm6.5-5.5c-3.0374,0-5.5,2.46264-5.5,5.5,0,.802.1818,1.5601.4956,2.254l.1424.3151-9.0675,9.0675-.315-.1425c-.6933-.3135-1.4528-.4941-2.25553-.4941-3.03736,0-5.5,2.4626-5.5,5.5,0,.5419.083,1.0637.23363,1.5593l3.41281-3.4129.14645-.1464h3.70714v3.7071L8.19,31.517c.49554.1506,1.01737.2336,1.55927.2336,3.03733,0,5.50003-2.4626,5.50003-5.5,0-.8027-.1807-1.5623-.4941-2.2555l-.1425-.3151,8.823-8.823.2441-.244.3147.1417c.695.3128,1.4533.4959,2.2548.4959,3.0373,0,5.5-2.4626,5.5-5.5,0-.5422-.0824-1.06472-.2325-1.56039l-3.5604,3.56039h-3.7071V8.04349l.1464-.14644,3.4135-3.41344c-.4959-.15008-1.0183-.23301-1.5599-.23301z"/></svg>