<svg width="48" height="48" fill="none" xmlns="http://www.w3.org/2000/svg"><path d="m24.5,7.50024v-5m-3.5,0h7" stroke="#000"/><path fill-rule="evenodd" clip-rule="evenodd" d="m5.5,26.5002c0-10.494,8.506-18.99996,19-18.99996,10.493,0,19,8.50596,19,18.99996,0,10.493-8.507,19-19,19-10.494,0-19-8.507-19-19z" stroke="#000"/><path d="m23,10.5002h1.5c8.837,0,16,7.163,16,16,0,8.836-7.163,16-16,16-8.836,0-16-7.164-16-16v-.5m5.5,2,6,7,14-15m5.3428-5.3432L40.9998,13l-4-4-1.802,1.802m-16.2876.6313,1.932-.518m-5.641,2.4785,1.732-1m-4.8077,3.853,1.415-1.414M9.89355,19.7989l1.00005-1.732m-2.23683,5.7408.518-1.932" stroke="#000"/></svg>