<svg width="48" height="48" fill="none" xmlns="http://www.w3.org/2000/svg"><path fill-rule="evenodd" clip-rule="evenodd" d="m12.5063,32c0-.828-.672-1.5-1.5-1.5s-1.49995.672-1.49995,1.5.67195,1.5,1.49995,1.5,1.5-.672,1.5-1.5z" stroke="#000"/><path d="m15.5063,26.5H4.00635m5.99985-18H4.00024m4.00596,9h-4.004m3.00415-9-2,6h5.98995c3.008,0,4.51,1.477,4.51,4.367V37.5H4.00635m6.99995,0,3,5.5m.9999-2.5H4.00024" stroke="#000"/><path fill-rule="evenodd" clip-rule="evenodd" d="m43.5063,4.5h-23.5c-.822,0-1.5.678-1.5,1.5v1.5h25v-3z" stroke="#000"/><path fill-rule="evenodd" clip-rule="evenodd" d="m23.5061,13.5005h10V9.50049h-10v4.00001z" stroke="#000"/><path d="m25.5054,7.5v2m6.0009-2v2" stroke="#000"/><path fill-rule="evenodd" clip-rule="evenodd" d="m18.5061,37.5005h25v-2h-25v2z" stroke="#000"/><path fill-rule="evenodd" clip-rule="evenodd" d="m39.5061,35.5005h2V7.50049h-2V35.5005z" stroke="#000"/><path d="m20.5063,37.5V43" stroke="#000"/></svg>