<svg width="48" height="48" fill="none" xmlns="http://www.w3.org/2000/svg"><path d="m19.0605,19.7568c.299,2.884,2.312,5.243,4.939,5.243,2.628,0,4.625-2.375,4.94-5.243m-1.879-5.5128c-.836-.771-1.882-1.246-3.061-1.246-1.178,0-2.224.475-3.06,1.246" stroke="#000"/><path fill-rule="evenodd" clip-rule="evenodd" d="m32,8.99805c-2.627,0-4.639,2.27795-4.939,5.24595C28.247,15.338,29,17.046,29,19.002c0,.259-.035.505-.061.755.836.77,1.882,1.245,3.061,1.245,2.849,0,5-2.665,5-6,0-3.336-2.151-6.00395-5-6.00395z" stroke="#000"/><path fill-rule="evenodd" clip-rule="evenodd" d="m20.9395,14.244c-.17-1.669-.527-3.724-1.647-4.598-.86-.671-2.143-1.146-3.292-1.146-1.118,0-2.445.451-3.313,1.166-1.336,1.102-1.687,3.307-1.687,5.336,0,3.335,2.151,6,5,6,1.178,0,2.224-.475,3.06-1.245-.025-.25-.06-.496-.06-.755,0-1.956.752-3.664,1.939-4.758z" stroke="#000"/><path d="m27.0605,14.2441s1.802-.171,3.284-1.524c.536-.49,1.362-.455,1.851.082,1.129,1.238,2.965,2.944,4.768,2.944m-16.0524-1.6954c-.839,0-2.481-2.355-2.481-2.355-.248-.245-.612-.344-.942-.236-1.226.402-2.395.178-3.037-.015-.333-.101-.69-.005-.936.239,0,0-1.356,2.359-2.487,2.359M38.9287,22.6416l2.188-.479c.467-.101.604-.697.229-.994-1.447-1.148-3.985-3.589-4.375-6.84m-17.7637,2.944,2.45-1.287c.226-.118.495-.1.702.05.901.647,3.601,2.167,6.166.387M13.33,35.5001H4.5c.1-6.054,3.151-13.397,7.987-16.182m22.846.2014c5.039,2.893,8.167,10.104,8.167,15.98h-8.823M9,28.5h4m-2.5,0V27" stroke="#000"/><path fill-rule="evenodd" clip-rule="evenodd" d="m27.5995,23.2002-2.6,3.84,1,2-2,4-2-4,1-2-2.599-3.84c-4.836,2.887-7.401,10.05-7.401,16.3h22c0-6.125-2.361-13.3-7.4-16.3z" stroke="#000"/></svg>