<svg width="24" height="24" xmlns="http://www.w3.org/2000/svg"><path fill-rule="evenodd" clip-rule="evenodd" d="m12.0001,2.45581.294.21381c.6111.44432,1.1628.95675,1.6422,1.525,3.3061,3.91592,2.5561,9.58038-1.642,12.63568l-.2942.2141-.2942-.2141c-2.33203-1.6968-3.70582-4.3055-3.70582-7.08028,0-2.77465,1.37373-5.38452,3.70592-7.08039l.2941-.21382zM12,3.70213c-1.9065,1.51671-2.99992,3.72736-2.99992,6.04789,0,2.32048,1.09332,4.53028,3.00012,6.04788,3.4813-2.7677,4.0133-7.59291,1.1718-10.95832l-.0001-.00017c-.3488-.41342-.7414-.79465-1.1719-1.13728zM.98827,13.7185c.51013-.4551,1.06975-.8507,1.66715-1.1806l.4834.8754c-.41551.2295-.81018.4944-1.17914.792,1.64275,2.7422,4.77967,4.2496,7.96965,3.7934l.14157.9899c-3.73918.5348-7.41395-1.3279-9.19101-4.6618l-.18482-.3467.2932-.2616zm22.02363-.0005c-.5099-.4549-1.0686-.8506-1.6675-1.1807l-.4827.8757c.4159.2293.8101.4941,1.1789.7918-1.6428,2.7424-4.7798,4.2505-7.9696,3.7934l-.1419.9899c3.7394.5358,7.4142-1.328,9.1912-4.6618l.1848-.3467-.2932-.2616zM3.67045,6.13651c1.2053-.0382,2.39478.17409,3.50686.60328l-.36005.93293c-.86779-.33491-1.78504-.52049-2.71528-.53905-.66436,4.12713,1.99407,8.10193,6.11862,9.02563l-.2186.9759c-4.79048-1.0729-7.82366-5.8019-6.80482-10.60274l.08139-.38353.39188-.01242zM17.183,7.67272c.8678-.33491,1.7851-.52049,2.7153-.53905.6644,4.12713-1.9941,8.10193-6.1186,9.02563l.2186.9759c4.7905-1.0729,7.8236-5.8019,6.8048-10.60274l-.0814-.38353-.3919-.01242c-1.2053-.0382-2.3947.17409-3.5068.60328l.36.93293z"/></svg>