<svg width="36" height="36" xmlns="http://www.w3.org/2000/svg"><path fill-rule="evenodd" clip-rule="evenodd" d="m4.24805,15.75c0-3.8726,1.9142-7.29815,4.84804-9.38204l1.27091.79373.1216.07591h2.5286l.0968-.37495.6299-2.43863c.6509-.11437,1.3205-.17402,2.0041-.17402,1.9834,0,3.8496.50214,5.4784,1.38624l-1.3341.9693-.0783.05694-.0515.08208-1.0207,1.62917-3.1619-.5619-.2649-.04707-.1852.19508-2.45,2.58046-3.39669,1.4322-.14107.0595-.08358.1283-.59359.911-.36008.5526.62933.1974,3.47358,1.0897.1197.0376.1232-.0234,5.1144-.9703.6032.3048.8614,2.4087.9416-.3368-.9958-2.7844-.1781-.09-.9331-.4714-.1517-.0767-.1669.0317-5.1582.9786-2.72462-.8548.14993-.2301,3.35189-1.4134.0964-.0406.072-.0758,2.3368-2.46123,3.5612.63287.1791-.28583,1.1484-1.83292,1.5957-1.15944c2.4048,1.61591,4.1659,4.11585,4.8176,7.03435l.9759-.2179C26.7001,7.42683,21.7124,3.25,15.748,3.25c-6.90351,0-12.49995,5.59644-12.49995,12.5,0,6.9036,5.59644,12.5,12.49995,12.5.2675,0,.5331-.0084.7965-.025l-.0628-.998c-.2425.0153-.4872.023-.7337.023-4.6818,0-8.71014-2.7977-10.50441-6.8126l1.81702-2.43,2.2029-.5358,3.63979,1.2551.9973,1.6594.207.3445.381-.1281,2.3973-.8065.9593.3134.3106-.9505-1.1169-.365-.1576-.0514-.1571.0528-2.1735.7312-.8839-1.4708-.0937-.1559-.1719-.0592-3.95035-1.3622-.13866-.0478-.14251.0346-2.52006.613-.17463.0425-.10763.1439-1.54908,2.0717c-.37007-1.1285-.57023-2.334-.57023-3.5863zm6.52715-9.5124-.747-.4665c.8153-.46831,1.6934-.8396,2.6186-1.09808l-.4042,1.56458h-1.4674zm19.225,9.0124h-7.5v1h3.25v2h-3.1923c-1.5506,0-2.8077,1.257-2.8077,2.8077V29.75h2.0115l-1.2257,3.0643.9285.3714,1.3743-3.4357h6.8229l1.3743,3.4357.9285-.3714L30.7388,29.75h2.0114v-8.6923c0-1.5507-1.257-2.8077-2.8076-2.8077h-3.1924v-2h3.25v-1zm-9.25,13.5v-5h11v5h-11zm11-7.6923V22.75h-11v-1.6923c0-.9984.8094-1.8077,1.8077-1.8077h7.3847c.9983,0,1.8076.8093,1.8076,1.8077zm-8,5.1923c0-.1381.112-.25.25-.25.1381,0,.25.1119.25.25s-.1119.25-.25.25c-.138,0-.25-.1119-.25-.25zm.25-1.25c-.6903,0-1.25.5596-1.25,1.25s.5597,1.25,1.25,1.25c.6904,0,1.25-.5596,1.25-1.25s-.5596-1.25-1.25-1.25zm4.5,1c-.138,0-.25.1119-.25.25s.112.25.25.25c.1381,0,.25-.1119.25-.25s-.1119-.25-.25-.25zm-1.25.25c0-.6904.5597-1.25,1.25-1.25.6904,0,1.25.5596,1.25,1.25s-.5596,1.25-1.25,1.25c-.6903,0-1.25-.5596-1.25-1.25z"/></svg>