<svg width="24" height="24" xmlns="http://www.w3.org/2000/svg"><path fill-rule="evenodd" clip-rule="evenodd" d="m4.4958,6.99807,15.003-.001c.8295,0,1.5.67218,1.5,1.5h.001v7.50053h.999v1h-.999v1.0005h-1.0012c-.0005,1.1049-.8964,1.999-2,1.999s-1.9995-.8941-2-1.999h-8c-.00054,1.1049-.89641,1.999-2,1.999s-1.99946-.8941-2-1.999H2.99791l-.00022-1.0005H1.9988v-1h.99867L2.9958,8.49818v-.00011c0-.82813.67184-1.49998,1.49997-1.5h.00003zM17.9986,18.9971c-.5517,0-.9995-.4468-1-.999h2c-.0005.5522-.4483.999-1,.999zm-12,0c-.55174,0-.99946-.4468-1-.999h2c-.00054.5522-.44826.999-1,.999zM19.4988,7.99707l-15.00297.001H4.4958c-.27583,0-.49996.2241-.5.49992v.00008l.00189,8.50003H4.9988V12.998h4v4.0001h11.001V8.49707h-.001c0-.27617-.2235-.49998-.5-.5zm-11.5,9.00103V13.998h-2v3.0001h2zM5.499,8.99707h-.5v3.00003H19V8.99707H5.499zm.5,2.00003V9.99707H18v1.00003H5.999zM9.999,12.998H19v3H9.999v-3zM10.999,13.998v1H18v-1h-7.001z"/></svg>