<svg width="24" height="24" xmlns="http://www.w3.org/2000/svg"><path fill-rule="evenodd" clip-rule="evenodd" d="m4,2c-1.10514,0-2,.89486-2,2v18h4V4c0-1.10514-.89486-2-2-2zM3,15v-4c0-.5529.44714-1,1-1s1,.4471,1,1v4H3zm1-6c.36437,0,.70588.09728,1,.26729V4c0-.55286-.44714-1-1-1s-1,.44714-1,1v5.26729C3.29412,9.09728,3.63563,9,4,9zm-1,7v5h2v-5H3zM9,2c-1.10514,0-2,.89486-2,2v18h4V4c0-1.10514-.8949-2-2-2zm1,7.26729V4c0-.55286-.44714-1-1-1s-1,.44714-1,1v5.26729C8.29412,9.09728,8.63563,9,9,9s.70588.09728,1,.26729zM8,11c0-.5529.44714-1,1-1s1,.4471,1,1v4H8v-4zm0,10v-5h2v5H8zm6.4692-18.17285L17.5,11.0537l3.0308-8.22655.9384.3457-.478,1.29741.1669.05572.474.15826-.158.47412-1,3-.1581.47435-.4744-.15812-.2901-.0967L18.0329,12.5l2.7219,7.388,1.0871-.3623.3162.9486-1.0575.3525.3686,1.0003-.9384.3458-.3793-1.0297-.9934.3311-.3162-.9486.9637-.3213L17.5,13.9463l-2.3056,6.2581.9637.3213-.3162.9486-.9934-.3311-.3793,1.0297-.9384-.3458.3686-1.0003-1.0575-.3525.3162-.9486,1.0871.3623,2.7219-7.388-1.5186-4.12211-.2901.0967-.4744.15812-.1581-.47435-1-3-.158-.47412.474-.15826.1669-.05572-.478-1.29741.9384-.3457z"/></svg>