<svg width="48" height="48" xmlns="http://www.w3.org/2000/svg"><path fill-rule="evenodd" clip-rule="evenodd" d="m30.5,6C28.5976,6,27,7.59778,27,9.5c0,1.9022,1.5976,3.5,3.5,3.5S34,11.4022,34,9.5C34,7.59778,32.4024,6,30.5,6zM28,9.5C28,8.15003,29.1499,7,30.5,7S33,8.15003,33,9.5c0,1.35-1.1499,2.5-2.5,2.5S28,10.85,28,9.5zM10.5,16C9.13967,16,8,17.1398,8,18.5S9.13967,21,10.5,21c1.3603,0,2.5-1.1398,2.5-2.5S11.8603,16,10.5,16zM9,18.5c0-.8079.69199-1.5,1.5-1.5.808,0,1.5.6921,1.5,1.5s-.692,1.5-1.5,1.5c-.80801,0-1.5-.6921-1.5-1.5zM7.29289,22h5.33471l.112.0611L18.1276,25h1.8509l1.4266-6.1579.0421-.1817.1508-.1098.0725-.0527,5.5183-4.3892L27.3254,14h6.3735l.1446.1366,5.2707,4.9806,5.7617,1.614.0019.0006c.8754.2491,1.3431,1.1875,1.0369,2.0273v.0105l-.0441.098c-.3119.6922-1.0778,1.0582-1.8123.8662l-.0011-.0003-6.1667-1.5997-.1208-.0314-.0919-.0844L34,18.6385v7.7101l3.9161,5.8741.0839.1259V43h-3v-9.3333L30.75,28h-.3067l-.9215,7.6374-.0208.172-.1227.1222-6.5966,6.5755-.3535.3524-.353-.353-1.5942-1.5941-.3542-.3542.3548-.3535,5.8815-5.8607L27,26.4798v-7.9541l-2.5293,1.978-1.472,6.0622C22.9642,27.3637,22.3065,28,21.5001,28h-4.118l-4.382-2.191v4.6099l3.9744,11.923.2193.6581h-3.0484l-.1172-.3348L10.6454,33h-.1928l-.45496,4.5498-.01503.1503-.09576.1168-3.56718,4.3529-.34991.427-.39036-.3904-1.5942-1.5941-.32437-.3244.29526-.351,3.06204-3.6406.482-4.7816v-5.3076L6,27.7071V30.5c0,.8284-.67157,1.5-1.5,1.5S3,31.3284,3,30.5v-4.2071l.14645-.1465,4-4L7.29289,22zm15.00171,3.2275,1.2453-5.1286.041-.1689.1369-.107,3.4742-2.7169.808-.6318v10.0459l-.0016.0202-.6534,8.068-.0149.1837-.1306.1301-5.6572,5.6373.887.8869,6.1204-6.1007.9539-7.9056L29.5567,27H31.25l4.65,6.2.1.1333V42h1v-9.3486l-4-6V16.3615l.8384.7703,4.4241,4.0654,6.0471,1.5686.0013.0004c.2624.0688.5361-.0618.6478-.309l.0002-.0004c.1392-.3091-.0282-.6697-.3539-.763l-.0009-.0002-5.8785-1.6468-.1188-.0333-.0897-.0847L33.3012,15h-5.6266l-5.3362,4.2444L21.0049,25h.4952c.2918,0,.5641.0833.7945.2275zM7.70711,23,4,26.7071V30.5c0,.2761.22386.5.5.5s.5-.2239.5-.5v-3.2071l.14646-.1465,3.35367-3.3535v7.772l-.00253.0251-.5,4.9601-.01548.1536-.09934.1181-2.86613,3.4077.87948.8795,3.12151-3.8091L9.54763,32h1.80727l.1172.3348L14.8549,42h.9515l-3.7806-11.3419-.0257-.077V24.191l.7236.3618L17.6182,27h3.8819c.2762,0,.5-.2239.5-.5s-.2238-.5-.5-.5h-3.6275l-.1119-.0611L12.3726,23H7.70711z"/></svg>