<svg width="24" height="24" xmlns="http://www.w3.org/2000/svg"><path fill-rule="evenodd" clip-rule="evenodd" d="m11.5,4v1.5h1V4h-1zm4.0063.81136-.702,1.287.8779.47885.702-1.287-.8779-.47885zM12,8c-2.22386,0-4,1.77614-4,4,0,1.4551.83305,2.7641,2.0366,3.5h3.9409C15.1506,14.8613,16,13.4748,16,12c0-2.22386-1.7761-4-4-4zm-5,4c0,1.6193.80974,3.0609,2,3.9952v2.4595l.33482.1172L11,19.1547V20h2v-.8453l1.6652-.5828L15,18.4547v-2.427c1.205-.9048,2-2.4278,2-4.0277,0-2.77614-2.2239-5-5-5-2.77614,0-5,2.22386-5,5zm3,4.5v1.2453l1.6652.5828.3348.1172.3348-.1172L14,17.7453V16.5h-4zm7.3192-8.27908,1.283-.708.4832.87554-1.283.708-.4832-.87554zM18.4987,12.5l1.5.004.0026-1-1.5-.004-.0026,1zm.1196,3.9866-1.299-.693.4707-.8823,1.299.693-.4707.8823zm-13.32002-.0199,1.31-.78-.5116-.8592-1.31.78.5116.8592zM5.5,12.5H4v-1h1.5v1zm-.66063-4.08975,1.281.824.54099-.84103-1.281-.824-.54099.84103zm3.47888-1.82657-.709-1.289.87621-.48194.709,1.289-.87621.48194z"/></svg>