<svg width="24" height="24" xmlns="http://www.w3.org/2000/svg"><path fill-rule="evenodd" clip-rule="evenodd" d="m5.00976,12.0007c.00747-3.86599,3.14726-6.99448,7.01304-6.98701,1.33.00274,2.7935.54245,4.0846,1.41893,1.0377.7044,1.9332,1.60562,2.5398,2.56739H15V10h4.9889l.0011-.49888.01-4.49-1-.00222-.0061,2.75008c-.6391-.81658-1.4424-1.55473-2.3248-2.15373-1.4069-.95502-3.0623-1.5883-4.6443-1.59156h-.0001c-4.4182-.00854-8.0064,3.56697-8.01493,7.98501l.99999.002zm.24976,3.0073,3.74159-.0083-.00222-1-4.49001.01-.49777.0011L4,18.9986l1,.0022.00557-2.5012C6.56568,18.6256,9.27014,20,12,20c4.4183,0,8-3.5817,8-8h-1c0,3.866-3.134,7-7,7-2.81557,0-5.5636-1.6525-6.74048-3.992z"/></svg>