<svg width="36" height="36" xmlns="http://www.w3.org/2000/svg"><path fill-rule="evenodd" clip-rule="evenodd" d="m9.48222,3.25H26.5174l.1484.22265,6,8.99995.1976.2964-.2155.2835-14.25,18.75-.3981.5238-.3981-.5238-14.24997-18.75-.2155-.2835.19756-.2964,6-8.99995L9.48222,3.25zm-4.79815,9,4.89032-7.33548L11.7552,12.25H4.68407zM16.7395,29.0154,4.75783,13.25h7.29467l4.687,15.7654zM31.2418,13.25,19.2601,29.0154,23.9471,13.25h7.2947zm-4.8166-8.33548L31.3156,12.25h-7.0712l2.1808-7.33548zM18.8981,4.25h6.6814l-2.1665,7.2874L18.8981,4.25zm-1.7959,0-4.5152,7.2885L10.4201,4.25h6.6821zm-3.7797,8,4.6776-7.5506,4.678,7.5506h-9.3556zm4.6773,17.4954L22.9039,13.25h-9.8081l4.904,16.4954z"/></svg>