<svg width="24" height="24" xmlns="http://www.w3.org/2000/svg"><path fill-rule="evenodd" clip-rule="evenodd" d="m16,2v2h1V2h-1zm-.0101,5.71679c-.2567-.49019-.629-.88827-1.0656-1.18032C15.3473,6.20009,15.8911,6,16.5,6,17.9149,6,19,7.08514,19,8.5c0,1.01345-.5559,1.8525-1.3833,2.2506-.0348-.0513-.0717-.1013-.1107-.1498-.2944-.3655-.6999-.63321-1.1935-.7448.1248-.8043-.0044-1.53159-.3226-2.13921zm2.0529,4.67831c.0156-.2401.0004-.4825-.0459-.7182C19.1957,11.1254,20,9.92362,20,8.5,20,6.53286,18.4671,5,16.5,5c-1.0161,0-1.9234.40971-2.5595,1.08646-1.3115-.36193-2.8448.06022-3.7321,1.50377-1.51595-.71889-3.43069.3254-3.52268,2.17629-.48121.1281-.86968.43138-1.14398.81478-.36009.5033-.53437,1.1536-.50666,1.7907.02787.6407.26203,1.3033.76361,1.8087.50782.5116,1.24744.8196,2.20142.8196h6.99999c.9501,0,1.6982-.3078,2.2206-.8097.5171-.4968.7805-1.1527.8221-1.7955zm-4.1882-5.28725c-1.0482-.38023-2.3618-.04562-2.997,1.39429l-.2655.60174-.5088-.41676c-.96738-.79234-2.56613-.04791-2.38672,1.45388l.06682.5593h-.56329c-.34817,0-.63449.1685-.84507.4628-.21672.3029-.33994.7277-.3209,1.1655.01889.4343.17573.8468.47432,1.1476.29238.2946.76213.5241,1.49165.5241h6.99999c.7249,0,1.2143-.2296,1.5278-.5309.3189-.3063.4898-.7191.517-1.1389.0274-.4233-.0932-.8235-.3178-1.1025-.2147-.2666-.5413-.4467-1.007-.4281l-.6985.028.1992-.6701c.2414-.81185.1456-1.4762-.1168-1.97708-.2655-.50707-.7194-.88063-1.2494-1.07287zm-.9311-1.48356-1.441-1.386.6932-.72072,1.441,1.386-.6932.72072zm6.5159,6.59301,1.414,1.414.7071-.7071-1.414-1.414-.7071.7071zM21,8h2v1h-2V8zm-.2579-4.46488-1.414,1.414.7071.70711,1.414-1.414-.7071-.70711zM8.05278,17.7764l1-2,.89443.4472-1,2-.89443-.4472zm7.00002-2-1,2,.8944.4472,1-2-.8944-.4472zm-6.00002,4,2.00002-4,.8944.4472-1.99999,4-.89443-.4472zM13.1026,15.7764l-2,4,.8944.4472,2-4-.8944-.4472z"/></svg>