<svg width="59" height="20" xmlns="http://www.w3.org/2000/svg"><path fill-rule="evenodd" clip-rule="evenodd" d="m2,0C.89543,0,0,.895431,0,2v16c0,1.1046.895431,2,2,2h55c1.1046,0,2-.8954,2-2V2c0-1.104569-.8954-2-2-2H2z" fill="#eb0000"/><path d="m36.5753,7.89769c-.004-.84796.2399-1.67847.7017-2.38867.7146-1.0336,1.7894-1.5504,3.2244-1.5504,1.1037,0,1.9945.28209,2.6724.84629.7141.57629,1.1193,1.45386,1.0957,2.37304.0139.5321-.136,1.05555-.4294,1.49903-.2762.41159-.6878.71261-1.1629.8504.5903.12289,1.1141.46112,1.4701.94922.3688.5182.5585,1.1432.5401,1.7797.0288,1.0802-.4357,2.1144-1.2613,2.8082-.7779.675-1.7607,1.0125-2.9484,1.0125-1.2878,0-2.3087-.3718-3.0627-1.1154-.7543-.7436-1.1314-1.7482-1.1313-3.0139v-.1502h2.2151c0,.7119.1682,1.2616.5046,1.6492.364.3997.8883.6133,1.427.5815.6149,0,1.0879-.182,1.419-.5458.302-.3356.4655-.774.4572-1.2261.0229-.5169-.1922-1.0157-.5833-1.3527-.3206-.2741-.8147-.4112-1.4821-.4114-.187,0-.3739.0106-.5597.0317V8.82328c.1367.01074.268.01601.394.01582,1.3244,0,1.9866-.4931,1.9866-1.4793.0152-.39613-.1432-.77906-.4334-1.04805-.3156-.27594-.7251-.41902-1.1432-.39941-.4724-.02841-.9324.15742-1.2534.50625-.2945.3375-.4522.83053-.473,1.4791h-2.1838zM9.22072,4.19995h4.05608L8.25878,15.8H4.18579L9.22072,4.19995zm6.72758,0h14.3949l-1.4906,3.44547H18.5724l-2.0413,4.70908h10.2847L25.3259,15.8h-14.395l5.0174-11.60005z" fill="#fff"/></svg>