<svg width="23" height="16" xmlns="http://www.w3.org/2000/svg"><path fill-rule="evenodd" clip-rule="evenodd" d="m17.8813,3.13252c1.02,0,2.08.29177,2.9.69889l.66-2.23043C20.3013,1.15509,19.0413,1,17.8203,1c-2.68,0-5.201,1.24074-5.201,4.0925,0,1.97777,1.4326,2.75413,2.7263,3.45521,1.0649.57714,2.0357,1.10327,2.0357,2.20659,0,1.454-1.321,2.1132-2.661,2.1132-1.2,0-2.34-.4469-3.42-.9315l-.721,2.3079c1.261.4459,2.641.7561,3.981.7561,3.061,0,5.741-1.202,5.741-4.518,0-2.13765-1.5368-3.01651-2.864-3.77545-1.0085-.57672-1.896-1.08419-1.896-2.02214,0-1.16319,1.34-1.55189,2.34-1.55189zM11.642,1.23304H3.94L1,14.7678h2.8l1.281-5.93329h4.68l.441-2.13252H5.541l.74-3.33643h4.881l.48-2.13252z"/></svg>