<svg width="24" height="24" xmlns="http://www.w3.org/2000/svg"><path fill-rule="evenodd" clip-rule="evenodd" d="m10,8c0-1.2146.7704-2,1.5-2s1.5.7854,1.5,2-.7704,2-1.5,2S10,9.2146,10,8zm1.5-3C10.0216,5,9,6.4526,9,8c0,.68938.20277,1.35995.55837,1.89164-.34277.34296-.637.77016-.87388,1.25766-.07683-.0921-.1567-.1798-.23951-.2627C8.7985,10.3557,9,9.68722,9,9,9,7.4526,7.97838,6,6.5,6S4,7.4526,4,9c0,.68728.20154,1.3559.55511,1.8868-.89065.8883-1.45729,2.3468-1.53874,3.9628-.04064.0296-.08021.0596-.11867.0899C2.3853,15.3434,2,15.8669,2,16.5s.3853,1.1566.8977,1.5605c.51802.4083,1.23663.7541,2.08006,1.0352C6.66985,19.6597,8.97572,20,11.5,20c2.5243,0,4.8301-.3403,6.5222-.9043.8435-.2811,1.5621-.6269,2.0801-1.0352.5124-.4039.8977-.9274.8977-1.5605s-.3853-1.1566-.8977-1.5605c-.038-.0299-.077-.0595-.1172-.0888-.0807-1.6163-.6457-3.0773-1.5386-3.9663C18.7991,10.3538,19,9.68624,19,9c0-1.5474-1.0216-3-2.5-3S14,7.4526,14,9c0,.68639.201,1.3541.5537,1.8847-.0827.0827-.1625.1702-.239.2621-.2368-.4866-.5308-.9129-.873-1.25531C13.7973,9.35983,14,8.68932,14,8c0-1.5474-1.0216-3-2.5-3zm3.2351,7.2875c.0797.2995.1413.6113.1834.9319,1.1649.1559,2.2183.3897,3.1037.6849.3198.1066.6217.2225.9014.3475-.1675-1.1494-.6137-2.0839-1.1719-2.6475-.3592.2493-.7824.3957-1.2517.3957-.4692,0-.8925-.1463-1.2516-.3956-.184.1862-.3572.415-.5133.6831zM4.07826,14.251c.27924-.1248.58044-.2404.8995-.3467.88543-.2952,1.93892-.529,3.10382-.6849.04216-.3197.10363-.6307.18309-.9295-.15615-.2678-.33013-.4968-.51496-.6842C7.39097,11.8542,6.96841,12,6.5,12c-.46824,0-.89066-.1457-1.24932-.394-.55735.5635-1.0042,1.4968-1.17242,2.645zm5.03148-1.1461C9.874,13.0363,10.6753,13,11.5,13s1.6261.0363,2.3905.1049c-.1835-1.0837-.6147-1.9575-1.1458-2.4957C12.387,10.8555,11.9662,11,11.5,11s-.8869-.1444-1.2445-.3907c-.53095.538-.96185,1.4117-1.14576,2.4956zM3,16.5c0-.1954.11832-.4611.51671-.7751.39276-.3096.99209-.6102,1.77728-.8719C6.85915,14.3312,9.05328,14,11.5,14c2.4467,0,4.6409.3312,6.206.853.7852.2617,1.3845.5623,1.7773.8719.3984.314.5167.5797.5167.7751s-.1183.4611-.5167.7751c-.3928.3096-.9921.6102-1.7773.8719-1.5651.5218-3.7593.853-6.206.853-2.44672,0-4.64085-.3312-6.20601-.853-.78519-.2617-1.38452-.5623-1.77728-.8719C3.11832,16.9611,3,16.6954,3,16.5zM15,9c0-1.2146.7704-2,1.5-2s1.5.7854,1.5,2-.7704,2-1.5,2S15,10.2146,15,9zM6.5,7C5.77038,7,5,7.7854,5,9s.77038,2,1.5,2S8,10.2146,8,9,7.22962,7,6.5,7z"/></svg>