<svg width="24" height="24" xmlns="http://www.w3.org/2000/svg"><path fill-rule="evenodd" clip-rule="evenodd" d="m22.5,0h-21C.675,0,0,.675,0,1.5v21c0,.825.675,1.5,1.5,1.5h21c.825,0,1.5-.675,1.5-1.5v-21c0-.825-.675-1.5-1.5-1.5z" fill="#2d327d"/><path fill-rule="evenodd" clip-rule="evenodd" d="m14.4975,16.5076H9.32249c-.15,0-.3-.12-.345-.2625l-2.4975-9.36751c-.0075-.015-.015-.0375-.0225-.06001l-.0525-.2025c-.0525-.20249-.2625-.3225-.465-.26999-.2025.0525-.33.26249-.27.465l2.175,8.16001.5475,2.0475c.0375.1425.195.2625.3375.2625h5.76751c.21,0,.3825-.1725.3825-.3825,0-.2175-.1725-.39-.3825-.39z" fill="#fff"/><path fill-rule="evenodd" clip-rule="evenodd" d="m18.33,19.9876-1.2075-5.085c-.0975-.3525-.465-.63-.8325-.63h-.81c.1575-.36.2475-.7575.2475-1.17,0-1.62-1.3125-2.925-2.925-2.925-.24,0-.4725.03-.6975.0825l-.045-.1575c-.0075-.015-.015-.0375-.015-.0525l-.2025-.77252c-.21-.8025-1.035-1.2825-1.8375-1.0725-.80251.21-1.28251,1.035-1.07251,1.83752l.09.3375h-.0075l.3825,1.44.4875,1.86h.0075l.38251,1.4625c.09.345.465.63.8175.63h4.68l.57,2.415c0,.015.0075.0225.0075.0375s.0075.0225.0075.0375l.495,2.1075c.12.3225.435.5325.7875.5025.42-.0375.735-.4125.6975-.8325-.0075-.0225-.0075-.0375-.0075-.0525z" fill="#fff"/><path fill-rule="evenodd" clip-rule="evenodd" d="m11.37,6.18005c0,.825-.6675,1.5-1.5,1.5-.82501,0-1.5-.6675-1.5-1.5,0-.825.66749-1.5,1.5-1.5.825,0,1.5.675,1.5,1.5z" fill="#fff"/></svg>