<svg width="24" height="24" xmlns="http://www.w3.org/2000/svg"><path fill-rule="evenodd" clip-rule="evenodd" d="m22.5,0h-21C.675,0,0,.675,0,1.5v21c0,.825.675,1.5,1.5,1.5h21c.825,0,1.5-.675,1.5-1.5v-21c0-.825-.675-1.5-1.5-1.5z" fill="#2d327d"/><path fill-rule="evenodd" clip-rule="evenodd" d="m15.6975,6.30005c0,.825-.675,1.5-1.5,1.5s-1.5-.6675-1.5-1.5.6675-1.5,1.5-1.5,1.5.675,1.5,1.5z" fill="#fff"/><path fill-rule="evenodd" clip-rule="evenodd" d="m19.1325,8.25755h-6.18c-.435-.0225-.8625.18-1.1025.5775l-1.155,1.87505c-.2025.33-.4125.675-.63,1.0424l-.43499.705c-1.1475,1.875-.54,3.4125,1.34249,3.4125.1275,0,3.4275,0,3.4275,0l.57,2.4225h-.0075c.0075.0151.0075.0225.0075.0375.0075.0151.0075.0225.0075.0376l.5025,2.1075c.12.3224.435.54.7875.5025.42-.0375.735-.4125.6975-.8325,0-.0151-.0075-.03-.0075-.0451l-1.215-5.0924c-.0975-.3525-.465-.63-.8325-.63h-2.94l2.985-4.91255h4.1625c.3375,0,.6075-.27.6075-.6.0075-.3375-.2625-.6075-.5925-.6075z" fill="#fff"/><path fill="#fff" d="m18.72,10.0725v10.89h.802501v-10.89z"/><path fill-rule="evenodd" clip-rule="evenodd" d="m13.1025,16.5901h-5.175c-.15,0-.3-.12-.345-.2625L5.085,6.9601c-.0075-.015-.015-.0375-.0225-.06L5.01,6.6976c-.0525-.2025-.2625-.3225-.465-.27s-.33.2625-.27.4725l2.175,8.16.5475,2.0475c.0375.1425.195.2625.3375.2625h5.7675c.21,0,.3825-.1725.3825-.3825,0-.2325-.1725-.3975-.3825-.3975z" fill="#fff"/></svg>