<svg width="24" height="24" xmlns="http://www.w3.org/2000/svg"><path fill-rule="evenodd" clip-rule="evenodd" d="m16.3123,9.85868c.413.09816.7623.31092,1.0335.60332.3908.4212.5978.9819.6414,1.5449.0862,1.1142-.4682,2.4122-1.8122,2.8521l-.311-.9504c.801-.2622,1.1861-1.0502,1.1261-1.8245-.0295-.3812-.1671-.7154-.3774-.942-.2006-.2163-.4879-.3589-.8922-.3427l-.6983.0279.199-.6699c.2412-.81187.1452-1.47624-.1173-1.97716-.2657-.50711-.7197-.88069-1.2497-1.07295-1.0484-.38024-2.362-.0456-2.9972,1.39429l-.2656.60197-.5088-.4171c-.96644-.79215-2.56579-.04775-2.38564,1.45375l.06714.5596h-.56358c-.58933,0-1.07832.533-1.15806,1.3373-.07624.7689.26668,1.5483,1.12076,1.8382l-.3214.9469c-1.39692-.4741-1.905-1.7692-1.79448-2.8838.09208-.9287.64965-1.9169,1.6387-2.1744.09261-1.84963,2.00702-2.89285,3.52186-2.17441.9455-1.53823,2.6246-1.91661,3.9872-1.42237.7451.27025,1.4038.80291,1.7946,1.54894.3188.60843.448,1.33688.3226,2.14252zm-7.641,2.51972,1.6215,1.6215H8.01411v1h2.29219l-1.62084,1.6209.70711.7071L11,15.7205v2.2794h1V15.707l1.6213,1.6214.7071-.7071-1.6213-1.6214h2.307v-1h-2.2936l1.6221-1.622-.7071-.7071L12,13.3063v-2.3064h-1v2.2929l-1.62159-1.6215-.70711.7071z"/></svg>