<svg width="36" height="36" xmlns="http://www.w3.org/2000/svg"><path fill-rule="evenodd" clip-rule="evenodd" d="m20.1147,6.36625-.3874-.32328-.3198.39036-1.2554,1.53283-4.71,1.2144-.8236-.42162-.2684-.1374-.2468.17329L8.82766,11.0952l-.81962.5755.95261.3092.7253.2354-3.34844,3.5118-.08452.0886-.03398.1177-1.44938,5.0189-.2385.8259.83578-.201,2.8718-.6907.06557-.0157.05905-.0326.95553-.5272,2.73814,2.4793.1659.1502.2226-.0237,4.2364-.4506.1788-.0191.1258-.1286,2.0385-2.0848,2.5392,3.3202.4872.637.3576-.7178,1.9318-3.8788,4.5285,1.1192.704.1741-.0877-.7199-.2398-1.9682,1.4921.036.5389.0131-.0274-.5384-.2117-4.1496-.0123-.2395-.1944-.1404-1.8021-1.3013-.4554-.3288-.2739.4903-.393.7037-1.4899-.4255.712-2.0061.1654-.46611-.4643-.17046L21.9228,7.875,20.1147,6.36625zm-1.2926,2.36007,1.0393-1.26898,1.4873,1.24104.0666.05558.0815.02989,4.524,1.66085-.7246,2.0418-.178.5018.512.1462,2.3825.6803.3807.1087.1931-.3456.3123-.559,1.1524.8322.172,3.3717-1.5316-.037-.5784-.0139.07.5743.2221,1.8226-4.2135-1.0414-.389-.0962-.1786.3586-1.7528,3.5196-2.403-3.142-.3509-.4588-.4038.413-2.3165,2.3692-3.8349.4079-2.83685-2.5685-.26459-.2396-.31253.1724-1.20901.667-1.97045.4739,1.1769-4.0754,3.81243-3.9983.5485-.5753-.756-.2453-.5287-.1716,2.2093-1.55151.7241.37071.1689.0864.1838-.0473,5.052-1.30264.1584-.04083.1036-.12651zM4.25,28.2502v1.75h-1v-4.5h1v1.75h2v-1.5h23.5v1.5h2v-1.75h1v4.5h-1v-1.75h-2v1.5h-1.5v.25c0,1.5187-1.2312,2.75-2.75,2.75s-2.75-1.2313-2.75-2.75v-.25h-9.5v.25c0,1.5187-1.2312,2.75-2.75,2.75-1.51879,0-2.75-1.2313-2.75-2.75v-.25h-1.5v-1.5h-2zm4.5,1.5h3.5v.25c0,.9665-.7835,1.75-1.75,1.75s-1.75-.7835-1.75-1.75v-.25zm18.5,0h-3.5v.25c0,.9665.7835,1.75,1.75,1.75s1.75-.7835,1.75-1.75v-.25zm-20-2v-1h21.5v2H7.25v-1z"/></svg>