<svg width="48" height="48" xmlns="http://www.w3.org/2000/svg"><path fill-rule="evenodd" clip-rule="evenodd" d="m16.0005,8c-1.2274,0-2.6684.48724-3.6309,1.28007l-.0002.00022c-.7778.64155-1.2395,1.57811-1.5091,2.57561-.2704,1.0008-.3598,2.1074-.3598,3.1461,0,1.5734.4582,3.0398,1.252,4.1802-2.31136,1.5046-4.17268,3.9862-5.48762,6.7887-1.40819,3.0012-2.21356,6.4197-2.26479,9.521l-.00839.5082h8.7599c-.1675,1.1764-.2521,2.3532-.2521,3.5001v.5h23v-.5c0-1.1416-.0803-2.3193-.2433-3.5007H44v-.5c0-3.0201-.8021-6.3663-2.2443-9.3275-.5682-1.1666-1.2391-2.2801-2.0046-3.2936.4403-.0786.8082-.1525,1.1026-.2291.2165-.0562.4115-.1185.5746-.1931.1561-.0714.3305-.1752.4541-.3397.1433-.1908.1843-.4173.1332-.638-.0442-.1911-.1513-.3541-.2546-.4827-.2069-.2577-.5439-.5508-.9419-.8808-.7608-.6305-1.6013-1.6207-2.2502-2.6817C37.9116,16.3585,37.5,15.291,37.5,14.5h-.0156c-.206-3.2951-2.4273-6.00195-5.4843-6.00195-2.6825,0-4.7068,2.09915-5.2993,4.82865-.7825-.5195-1.6962-.8287-2.7013-.8287-.9912,0-1.8938.3012-2.6693.8082-.0852-.5992-.2038-1.2214-.3792-1.8035-.261-.8664-.6689-1.71869-1.3509-2.25088v-.00003C18.6574,8.51629,17.2674,8,16.0005,8zm21.2246,9.0699c-.2386.8682-.6255,1.6602-1.1332,2.3267,1.0785.6957,2.0614,1.5784,2.939,2.5913.6949-.1167,1.2077-.2119,1.5712-.3064.1461-.038.2574-.0732.3407-.1055-.141-.1613-.3865-.3799-.7619-.691-.8597-.7126-1.7691-1.7919-2.4651-2.9299-.1761-.288-.3417-.5849-.4907-.8852zm-15.9466-2.4583-.0001.0001c-.4756.4383-.8784.9901-1.1798,1.6277l1.3259-.6965.0011-.0006c.3916-.2044.8635-.1743,1.2258.0877.418.3,1.2544.8015,2.2718,1.0204.9046.1945,1.9406.1649,2.9731-.422-.3009-.633-.7018-1.181-1.1743-1.6168l-.0002-.0003-.0003.0003c-.7569-.698-1.6855-1.1136-2.722-1.1136-1.0355,0-1.9641.4155-2.721,1.1136zm6.9727,2.5628c-1.2405.6573-2.4853.6801-3.5383.4536-1.1985-.2578-2.1622-.8392-2.6455-1.1863l-.0017-.0013c-.0515-.0372-.1169-.0429-.1768-.0118l-.0004.0002-2.2462,1.1799c-.0925.4422-.1418.9086-.1418,1.3933,0,.1716.0173.3299.0377.5173v.0002c.0064.0586.0131.1201.0196.1858h.0001c.282,2.7196,2.1525,4.7945,4.4417,4.7945,2.2729,0,4.1217-2.0614,4.4371-4.746l.005-.0485c.0063-.0604.0127-.1174.0187-.172.0215-.1932.0397-.356.0397-.5313,0-.6463-.0879-1.2602-.2489-1.8276zm-9.5473,3.4974c-.7831.5202-1.6976.8302-2.7034.8302-1.4225,0-2.6642-.5856-3.606-1.5437-2.1471,1.3618-3.93822,3.6963-5.22432,6.4373-1.27425,2.7158-2.03171,5.7872-2.15486,8.6045h7.89878c.3209-1.7565.8267-3.4927,1.5122-5.1065,1.1972-2.8186,2.9586-5.3002,5.2788-6.8455-.4658-.7015-.8081-1.5123-1.0012-2.3763zm-6.8782-8.555c.2399-.8877.6217-1.6046,1.1799-2.065l5.9793-.0116c.438.3418.7686.954,1.0086,1.7509.1274.423.2233.8772.2978,1.3353-.1839-.1699-.375-.3722-.5591-.5825-.2474-.2826-.4711-.567-.6337-.7819-.081-.1071-.1463-.1961-.191-.2579-.0223-.031-.0395-.055-.0509-.0711l-.0127-.0181-.003-.0042-.0006-.0009-.0001-.0001-.0261-.0375-.0326-.0322c-.3702-.3657-.9266-.5264-1.4489-.3555l-.0003.0001c-1.0877.3567-2.1413.1604-2.7368-.0185-.516-.1563-1.0618-.005-1.4325.3626l-.0478.0475-.0335.0582-.0001.0002-.0003.0004-.0022.0038-.01.0171c-.0091.0155-.0231.0389-.0415.0691-.0368.0605-.0913.148-.1604.2534-.1386.2118-.3332.4916-.5591.7691-.2235.2744-.4661.5319-.705.7193.0512-.3979.1239-.7847.2226-1.15zM18.5005,19.002c0-1.8468.6301-3.5083,1.6797-4.696-.1122-.0698-.2215-.1503-.3259-.2351-.3036-.2465-.6089-.5648-.8745-.8683-.268-.3062-.5072-.6105-.6788-.8372-.086-.1137-.1556-.2087-.204-.2756-.0181-.0251-.0333-.0463-.0452-.0631-.1226-.1043-.2799-.1336-.4079-.0919l-.1558-.4751.1555.4752.0003-.0001c-1.364.4473-2.6482.1958-3.3367-.0112l-.0012-.0004c-.134-.0406-.2825-.0123-.3991.0803l-.0252.0417c-.0418.0685-.1021.1653-.1778.281-.151.2305-.3661.5405-.6205.8528-.2522.3096-.5552.6368-.8838.8908-.1993.1539-.4331.3007-.6901.3888-.0061.1812-.009.3626-.009.5434,0,3.153,2.0127,5.5,4.5,5.5.9521,0,1.814-.3513,2.5351-.9499-.018-.1705-.0351-.3597-.0351-.5501zM16.0005,9c-1.0085,0-2.2213.41467-2.9948,1.0517l5.9792-.0115C18.2076,9.4337,17.0316,9,16.0005,9zm12.2871,14.0417c.4655-.702.8085-1.512,1.0046-2.3722.7839.5216,1.6999.8325,2.7079.8325,1.3259,0,2.4947-.5087,3.41-1.3537,2.2605,1.4094,4.1266,3.7515,5.4465,6.4615,1.3014,2.6721,2.053,5.6643,2.1358,8.3897h-7.8939c-.3046-1.7152-.7849-3.4192-1.4477-5.0131-1.1776-2.8322-2.9458-5.3496-5.3632-6.9447zM29.5001,19.002c0-1.7363-.5577-3.3085-1.4959-4.4773.5544-.1179,1.0662-.4036,1.4977-.6553.0908-.053.179-.1052.2652-.1563h.0001c.2879-.1706.554-.3282.8239-.4575.3459-.1658.642-.2556.9089-.2556.0511,0,.1355.0191.2734.1081.1394.0901.2976.2281.4908.4174.0977.0958.2044.2051.3191.3228l.0002.0001c.3125.3205.6853.7026,1.1017,1.0401.5896.4777,1.2732.8519,1.857,1.1164.3034.1375.5897.2497.8318.3331-.4772,2.4575-2.253,4.164-4.3739,4.164-.9528,0-1.8146-.3511-2.5355-.9493.0184-.1708.0355-.3596.0355-.5507zm7-4c0,.1063-.0023.2116-.0068.3159-.1606-.0607-.3427-.1352-.5383-.2239-.5363-.2429-1.1385-.5759-1.6402-.9825-.3679-.298-.6741-.6121-.9737-.9194-.1255-.1287-.2498-.2562-.377-.3808-.2043-.2002-.4209-.3964-.6481-.5431C32.0873,12.1204,31.8134,12,31.5,12c-.4831,0-.937.1602-1.3411.3538-.3136.1503-.6312.3385-.9255.513-.0804.0477-.159.0943-.2353.1388-.5271.3075-.9515.5142-1.3277.5635.5054-2.4109,2.2397-4.07105,4.3297-4.07105,2.4869,0,4.5,2.34965,4.5,5.50395zM23.9996,25.4998c.5782,0,1.1248-.101,1.6327-.286l-1.0468,1.5461-.164.2422.1308.2617.8882,1.7764-1.441,2.882-1.4409-2.882,1.019-2.038-.164-.2423-1.0448-1.5436c.5079.1835,1.054.2835,1.6308.2835zM13,28h-2v-1h-1v1h-.99997v1H13v-1zm12.5776-.9217,2.1652-3.1979c2.1995,1.4537,3.8583,3.7809,4.9847,6.4899,1.1265,2.7093,1.7061,5.7678,1.7667,8.6299H13.5051c.0644-2.9167.6896-6.0034,1.8416-8.7157,1.1484-2.7035,2.8041-4.9989,4.9112-6.4031l2.1636,3.1968-.981,1.962,2.559,5.118.4473-.8944,2.1118-4.2236-.1118-.2236-.8692-1.7383z"/></svg>