<svg width="36" height="36" xmlns="http://www.w3.org/2000/svg"><path fill-rule="evenodd" clip-rule="evenodd" d="m18.0003,10.2486c.7273,0,1.3833.2852,1.925.7737l.0309.0285c.0624.0575.1231.1177.182.1805.6749.7209,1.1112,1.7869,1.1112,3.0209,0,.0762-.0047.149-.012.2272-.0037.0386-.0081.0788-.0127.1219l-.0083.077-.0094.0876.0006.0001-.0002.0015-.0011-.0001c-.2077,2.0563-1.5698,3.4847-3.206,3.4847-1.6095,0-2.9527-1.3797-3.1957-3.3789l-.0112-.1077c-.0054-.0519-.0108-.0995-.0158-.144v-.0001c-.0157-.1393-.0281-.2491-.0281-.3697,0-1.3408.5166-2.4839,1.2941-3.201l.0504-.0465c.5377-.4774,1.1864-.7556,1.9063-.7556zm-3.2646,7.224c-.3599-.5156-.6299-1.1168-.7922-1.7668-.571.3439-1.227.5459-1.944.5459-1.014,0-1.9053-.382-2.60622-1.0154-3.13742,1.9301-4.92523,5.0106-5.12618,9.0093h5.45762c.77398-2.8641,2.47788-5.172,5.01098-6.773zm-5.23911,7.773c-.14922.7952-.23182,1.6285-.24589,2.4972l-.00822.5081H26.7875l-.0381-.5355c-.0607-.8523-.1712-1.6754-.3368-2.4652h6.3749l-.0381-.5355c-.3086-4.3356-1.9063-7.9149-5.4938-10.2102.6314-.8858.9943-2.0315.9943-3.253,0-2.6835-1.7504-5.00296-4.2499-5.00296-2.0283,0-3.5545,1.54146-4.0563,3.54652-.5711-.3442-1.2271-.54649-1.9434-.54649-.7171,0-1.3731.20209-1.9442.54605-.501-2.00495-2.0273-3.5459-4.0566-3.5459-2.49793,0-4.24996,2.31932-4.24996,5.00298,0,1.2081.35539,2.3421.97419,3.2238-3.48862,2.2099-5.39904,5.7621-5.47339,10.2618l-.0084.5083h6.25465zM24,16.2515c1.0016,0,1.883-.3722,2.5796-.991,3.2066,1.9903,4.7406,5.0782,5.1269,8.9897h-5.5386c-.7837-2.7847-2.3378-5.1001-4.9233-6.7505.3695-.522.6462-1.1332.8113-1.795.5713.3444,1.2274.5468,1.9441.5468zm-1.7704-1.6423c.5101.4079,1.1109.6423,1.7704.6423,1.7757,0,3.2499-1.6813,3.2499-4,0-2.32043-1.4745-4.00296-3.2499-4.00296-1.5731,0-2.8931,1.3217-3.1783,3.25026.0147.0153.0293.0307.0439.0462.8653.9213,1.3844,2.2404,1.3844,3.7065,0,.1052-.0071.2119-.0161.3116l-.0043.0461zm-4.2293,4.6429c-1.0127,0-1.9001-.3835-2.5974-1.017-3.1429,1.9297-4.9356,5.0128-5.1356,9.0158h15.4392c-.3866-3.9147-1.9229-7.0032-5.135-8.9932-.6933.62-1.5712.9944-2.5712.9944zM11.9995,7.24872c-1.774,0-3.24996,1.68267-3.24996,4.00298,0,2.3185,1.47566,4,3.24996,4,.6604,0,1.2608-.2341,1.7706-.6413-.0113-.1126-.0208-.2358-.0208-.3588,0-1.4913.5384-2.8299,1.4287-3.7528-.284-1.92822-1.6039-3.25008-3.1785-3.25008z"/></svg>