<svg width="24" height="24" viewBox="0 0 24 24" fill="none" xmlns="http://www.w3.org/2000/svg">
<path fill-rule="evenodd" clip-rule="evenodd" d="M5 6H5.5H21.5H22V6.5V14.5V15H21.5H20V17.5V18H19.5H2.5H2V17.5V8.5V8H2.5H5V6.5V6ZM21 14H20V8.5V8H19.5H6V7H21V14ZM3 9V17H19V9H3ZM11.8872 13.9905C11.8872 14.3565 11.6592 14.5685 11.2042 14.6245V13.3525C11.4332 13.4235 11.5722 13.4745 11.6212 13.5045C11.7982 13.6085 11.8872 13.7705 11.8872 13.9905ZM10.1942 11.8285C10.1942 11.4895 10.4002 11.3015 10.8122 11.2655V12.3915C10.5812 12.3355 10.4212 12.2655 10.3302 12.1825C10.2392 12.0995 10.1942 11.9815 10.1942 11.8285ZM11.2042 12.4815V11.2745C11.5732 11.3225 11.7622 11.5425 11.7702 11.9355H12.6472C12.6392 11.5205 12.5112 11.1975 12.2652 10.9655C12.0162 10.7335 11.6632 10.6065 11.2042 10.5825V9.99951H10.8122V10.5825C10.5152 10.6025 10.2762 10.6515 10.0972 10.7315C9.84717 10.8435 9.65317 11.0015 9.51717 11.2055C9.38217 11.4095 9.31417 11.6415 9.31417 11.9025C9.31417 12.1385 9.36217 12.3385 9.46017 12.5035C9.55717 12.6685 9.71017 12.8115 9.91917 12.9325C10.0832 13.0265 10.3812 13.1345 10.8122 13.2555V14.6245C10.3472 14.5745 10.1152 14.2935 10.1202 13.7795H9.20117C9.20517 14.3015 9.38717 14.7065 9.74417 14.9935C10.0012 15.1985 10.3572 15.3135 10.8122 15.3395V15.9995H11.2042V15.3425C11.4912 15.3285 11.7282 15.2825 11.9172 15.2055C12.1052 15.1285 12.2782 15.0075 12.4332 14.8415C12.6782 14.5825 12.8002 14.2625 12.8002 13.8805C12.8002 13.5045 12.6812 13.2075 12.4432 12.9905C12.2512 12.8155 11.9242 12.6675 11.4602 12.5465C11.3192 12.5125 11.2342 12.4905 11.2042 12.4815Z" fill="black"/>
</svg>
