<svg width="36" height="36" viewBox="0 0 36 36" fill="none" xmlns="http://www.w3.org/2000/svg">
<path fill-rule="evenodd" clip-rule="evenodd" d="M5.60353 10.1031L10.1035 5.6031L9.39642 4.896L4.89642 9.396L5.60353 10.1031ZM7.24998 17.9996C7.24998 12.0627 12.0631 7.24955 18 7.24955C23.9383 7.24955 28.75 12.0626 28.75 17.9996C28.75 23.9379 23.9383 28.7496 18 28.7496C12.0631 28.7496 7.24998 23.9379 7.24998 17.9996ZM18 6.24955C11.5108 6.24955 6.24998 11.5104 6.24998 17.9996C6.24998 24.4902 11.5109 29.7496 18 29.7496C24.4906 29.7496 29.75 24.4902 29.75 17.9996C29.75 11.5105 24.4907 6.24955 18 6.24955ZM30.3964 10.1031L25.8964 5.6031L26.6035 4.896L31.1035 9.396L30.3964 10.1031ZM16.75 10.5V18.7495V19.2495H17.25H25.5V18.2495H17.75V10.5H16.75Z" fill="black"/>
</svg>
