<svg width="24" height="24" viewBox="0 0 24 24" fill="none" xmlns="http://www.w3.org/2000/svg">
<path fill-rule="evenodd" clip-rule="evenodd" d="M12 4.0002C7.56314 4.0002 4 7.56334 4 12.0002C4 16.4361 7.56318 20.0002 12 20.0002C16.4368 20.0002 20 16.4361 20 12.0002C20 7.56334 16.4369 4.0002 12 4.0002ZM3 12.0002C3 7.01106 7.01086 3.0002 12 3.0002C16.9891 3.0002 21 7.01106 21 12.0002C21 16.9883 16.9892 21.0002 12 21.0002C7.01082 21.0002 3 16.9883 3 12.0002ZM11.124 17.991H12.854V16.325H11.124V17.991ZM8.97801 7.58C8.62501 8.125 8.43001 8.894 8.39301 9.886H9.77101C9.88201 8.135 10.651 7.26 12.077 7.26C12.765 7.26 13.285 7.482 13.638 7.925C13.932 8.288 14.078 8.736 14.078 9.27C14.078 9.558 14.027 9.841 13.926 10.119C13.804 10.445 13.545 10.81 13.149 11.216C12.536 11.846 12.139 12.276 11.96 12.505C11.782 12.735 11.644 12.993 11.548 13.282C11.415 13.677 11.343 14.283 11.332 15.1H12.693C12.693 14.64 12.72 14.267 12.773 13.979C12.821 13.69 12.905 13.449 13.025 13.254C13.146 13.059 13.357 12.815 13.662 12.521C14.351 11.848 14.786 11.387 14.967 11.136C15.373 10.586 15.576 9.929 15.576 9.166C15.576 8.242 15.276 7.498 14.679 6.932C14.038 6.318 13.176 6.011 12.093 6.011C11.42 6.011 10.814 6.147 10.275 6.419C9.73601 6.692 9.30301 7.078 8.97801 7.58Z" fill="black"/>
</svg>
