<svg width="24" height="24" viewBox="0 0 24 24" fill="none" xmlns="http://www.w3.org/2000/svg">
<path fill-rule="evenodd" clip-rule="evenodd" d="M11 4.5002C11 4.22334 11.2231 4.0002 11.5 4.0002C11.7769 4.0002 12 4.22334 12 4.5002C12 4.77638 11.7765 5.0002 11.5 5.0002C11.2235 5.0002 11 4.77638 11 4.5002ZM12.888 5.07015C12.9602 4.89439 13 4.70191 13 4.5002C13 3.67106 12.3291 3.0002 11.5 3.0002C10.6709 3.0002 10 3.67106 10 4.5002C10 4.70191 10.0398 4.89439 10.112 5.07015C8.46413 5.23914 6.9045 5.7179 5.66334 6.54559C4.18007 7.53472 3.16418 9.01785 3.01815 11.0002H2V12.0002H21V11.0002H19.9818C19.8358 9.01785 18.8199 7.53472 17.3367 6.54559C16.0955 5.7179 14.5359 5.23914 12.888 5.07015ZM11.5 6.0002C9.48735 6.0002 7.59292 6.46078 6.21815 7.37756C4.9871 8.1985 4.16209 9.3884 4.0214 11.0002H18.9786C18.8379 9.3884 18.0129 8.1985 16.7818 7.37756C15.4071 6.46078 13.5126 6.0002 11.5 6.0002ZM8.00262 15.8182L4.4247 13.3185C3.77957 12.8144 2.84499 12.9187 2.32939 13.561L2.3293 13.5611C1.81387 14.2035 1.9143 15.1418 2.55151 15.662L8.46877 20.8752L8.61046 21H8.79929H12.5364L13.3982 21.855L13.5444 22H13.7503H21.2003H22.4013L21.5551 21.1477L16.5271 16.0837L16.5272 16.0836L16.519 16.0757C15.3307 14.9324 13.7696 14.0313 12.1188 14.0001L12.1188 14H12.1093H10.0003C9.36735 14 8.85486 14.244 8.5046 14.6352C8.20434 14.9706 8.0408 15.3939 8.00262 15.8182ZM3.83994 14.1299L8.52923 17.4059L3.10929 14.1869C3.28195 13.9719 3.59742 13.9371 3.81384 14.1103L3.82657 14.1205L3.83994 14.1299ZM8.52923 17.4059L3.1092 14.187C2.93735 14.4013 2.97128 14.7167 3.1873 14.8901L3.19623 14.8973L3.20482 14.9048L8.98813 20H12.7423H12.9482L13.0944 20.145L13.9562 21H19.9992L15.8216 16.7924C14.7378 15.751 13.4085 15.0263 12.1044 15H10.0003C9.64074 15 9.40298 15.131 9.24964 15.3023C9.08831 15.4825 8.996 15.736 8.9939 16.0039C8.99181 16.2718 9.07996 16.5219 9.23739 16.6988C9.38669 16.8666 9.62547 17 10.0003 17H12.0003V18H10.0003C9.38233 18 8.8794 17.7756 8.52923 17.4059Z" fill="black"/>
</svg>
