<svg width="48" height="48" viewBox="0 0 48 48" fill="none" xmlns="http://www.w3.org/2000/svg">
<path fill-rule="evenodd" clip-rule="evenodd" d="M38 7.5C38 6.67214 38.6721 6 39.5 6C40.3279 6 41 6.67214 41 7.5C41 8.32786 40.3279 9 39.5 9C38.6721 9 38 8.32786 38 7.5ZM39.5 5C38.1199 5 37 6.11986 37 7.5C37 8.15759 37.2542 8.75609 37.6697 9.20252L30.5171 19.2158C30.2063 19.0771 29.8621 19 29.5 19C28.6442 19 27.8885 19.4306 27.4378 20.0868L21.9515 17.9924C21.9833 17.8332 22 17.6685 22 17.5C22 16.1199 20.8801 15 19.5 15C18.1199 15 17 16.1199 17 17.5C17 17.9104 17.099 18.2978 17.2745 18.6396L11.1005 23.5798C10.6668 23.2179 10.1087 23 9.5 23C8.11986 23 7 24.1199 7 25.5C7 26.8801 8.11986 28 9.5 28C10.8801 28 12 26.8801 12 25.5C12 25.0896 11.901 24.7022 11.7255 24.3604L17.8995 19.4202C18.3332 19.7822 18.8913 20 19.5 20C20.3554 20 21.1109 19.5698 21.5617 18.914L27.0483 21.0086C27.0166 21.1675 27 21.3318 27 21.5C27 22.8801 28.1199 24 29.5 24C30.8801 24 32 22.8801 32 21.5C32 20.8425 31.7458 20.244 31.3304 19.7976L38.4831 9.7843C38.7938 9.92293 39.1379 10 39.5 10C40.8801 10 42 8.88014 42 7.5C42 6.11986 40.8801 5 39.5 5ZM8 25.5C8 24.6721 8.67214 24 9.5 24C10.3279 24 11 24.6721 11 25.5C11 26.3279 10.3279 27 9.5 27C8.67214 27 8 26.3279 8 25.5ZM17 27H17.5H21.5H22V27.5V43H27V31.5V31H27.5H31.5H32V31.5V43H37V19.5V19H37.5H41.5H42V19.5V43.5V44H41.5H7.5H7V43.5V35.5V35H7.5H11.5H12V35.5V43H17V27.5V27ZM31 43V32H28V43H31ZM18 43H21V28H18V43ZM11 36V43H8V36H11ZM19.5 16C18.6721 16 18 16.6721 18 17.5C18 18.3279 18.6721 19 19.5 19C20.3279 19 21 18.3279 21 17.5C21 16.6721 20.3279 16 19.5 16ZM28 21.5C28 20.6721 28.6721 20 29.5 20C30.3279 20 31 20.6721 31 21.5C31 22.3279 30.3279 23 29.5 23C28.6721 23 28 22.3279 28 21.5ZM41 43H38V20H41V43Z" fill="black"/>
</svg>
