<svg width="36" height="36" viewBox="0 0 36 36" fill="none" xmlns="http://www.w3.org/2000/svg">
<path fill-rule="evenodd" clip-rule="evenodd" d="M19.25 4.5003V7.76128C20.8856 7.8333 22.4248 8.25708 23.7943 8.95943L25.5068 6.0673L26.3672 6.57679L24.6624 9.45606C25.7411 10.1405 26.6906 11.0079 27.4681 12.0159L30.2421 10.4445L30.735 11.3145L28.0447 12.8386C29.0426 14.4116 29.6514 16.2595 29.739 18.2503H33V19.2503H29.739C29.6707 20.8018 29.2857 22.2667 28.6465 23.5823L31.2531 25.2459L30.7151 26.0889L28.1676 24.4629C27.2601 25.9633 26.0036 27.2258 24.508 28.1404L25.9401 30.8131L25.0586 31.2854L23.6318 28.6225C22.3035 29.2762 20.8213 29.6701 19.25 29.7393V32.9995H18.25V29.7393C16.6368 29.6683 15.1175 29.255 13.7623 28.5697L12.1765 31.3695L11.3064 30.8766L12.8914 28.0781C11.2781 27.0674 9.95016 25.6491 9.04819 23.9639L6.29097 25.5246L5.79838 24.6543L8.6162 23.0594C8.11917 21.8826 7.82041 20.5992 7.76099 19.2503H4.5V18.2503H7.76098C7.83061 16.6691 8.22896 15.1781 8.88994 13.8433L5.99428 12.1287L6.50377 11.2683L9.37447 12.968C10.2261 11.5833 11.3763 10.4049 12.7377 9.52019L11.1972 6.79892L12.0674 6.30628L13.6004 9.01416C14.9961 8.27911 16.5723 7.83516 18.25 7.76128V4.5003H19.25ZM14.2558 27.6983C15.6044 28.372 17.13 28.7503 18.75 28.7503C24.1366 28.7503 28.4805 24.5678 28.7379 19.2503H23.7263C23.4824 21.8083 21.3817 23.7503 18.75 23.7503C18.0259 23.7503 17.3421 23.6033 16.726 23.3369L14.2558 27.6983ZM15.8531 22.849L13.3848 27.2069C10.5915 25.4399 8.75 22.3241 8.75 18.7503C8.75 15.2414 10.5243 12.1749 13.2314 10.3923L15.7041 14.7602C14.5095 15.6664 13.75 17.1046 13.75 18.7503C13.75 20.4635 14.573 21.9516 15.8531 22.849ZM16.5586 14.2398L14.0934 9.88502C15.4813 9.15961 17.0646 8.7503 18.75 8.7503C24.1367 8.7503 28.4805 12.9315 28.7379 18.2503H23.7263C23.4824 15.6923 21.3817 13.7503 18.75 13.7503C17.9597 13.7503 17.2172 13.9254 16.5586 14.2398ZM14.75 18.7503C14.75 16.5019 16.5016 14.7503 18.75 14.7503C20.9984 14.7503 22.75 16.5019 22.75 18.7503C22.75 20.9987 20.9984 22.7503 18.75 22.7503C16.5016 22.7503 14.75 20.9987 14.75 18.7503Z" fill="black"/>
</svg>
