<svg width="36" height="36" viewBox="0 0 36 36" fill="none" xmlns="http://www.w3.org/2000/svg">
<path fill-rule="evenodd" clip-rule="evenodd" d="M28.25 5.25C28.25 4.69782 28.697 4.25 29.25 4.25C29.803 4.25 30.25 4.69782 30.25 5.25C30.25 5.80218 29.803 6.25 29.25 6.25C28.697 6.25 28.25 5.80218 28.25 5.25ZM29.25 3.25C28.144 3.25 27.25 4.14618 27.25 5.25C27.25 5.73926 27.4256 6.18773 27.7175 6.53545L22.4691 13.883C22.246 13.7971 22.0036 13.75 21.75 13.75C21.0877 13.75 20.5013 14.0714 20.1375 14.5664L16.2339 13.0052C16.2445 12.9216 16.25 12.8364 16.25 12.75C16.25 11.6459 15.3541 10.75 14.25 10.75C13.1459 10.75 12.25 11.6459 12.25 12.75C12.25 13.0418 12.3126 13.319 12.425 13.569L7.94979 17.15C7.61551 16.8988 7.20006 16.75 6.75 16.75C5.64586 16.75 4.75 17.6459 4.75 18.75C4.75 19.856 5.64618 20.75 6.75 20.75C7.85382 20.75 8.75 19.856 8.75 18.75C8.75 18.4581 8.68737 18.1807 8.57482 17.9306L13.0498 14.3498C13.3842 14.601 13.7998 14.75 14.25 14.75C14.9114 14.75 15.498 14.4286 15.8621 13.9335L19.7661 15.4949C19.7555 15.5784 19.75 15.6636 19.75 15.75C19.75 16.8538 20.644 17.75 21.75 17.75C22.856 17.75 23.75 16.8538 23.75 15.75C23.75 15.2608 23.5744 14.8124 23.2825 14.4647L28.531 7.11701C28.7541 7.20291 28.9965 7.25 29.25 7.25C30.356 7.25 31.25 6.35382 31.25 5.25C31.25 4.14618 30.356 3.25 29.25 3.25ZM5.75 18.75C5.75 18.1981 6.19814 17.75 6.75 17.75C7.30186 17.75 7.75 18.1981 7.75 18.75C7.75 19.303 7.30218 19.75 6.75 19.75C6.19782 19.75 5.75 19.303 5.75 18.75ZM12.25 19.756H12.75H15.75H16.25V20.256V31.75H19.75V23.256V22.756H20.25H23.25H23.75V23.256V31.75H27.25V14.256V13.756H27.75H30.75H31.25V14.256V32.25V32.75H30.75H5.25H4.75V32.25V26.256V25.756H5.25H8.25H8.75V26.256V31.75H12.25V20.256V19.756ZM15.25 31.75V20.756H13.25V31.75H15.25ZM22.75 31.75V23.756H20.75V31.75H22.75ZM30.25 14.756V31.75H28.25V14.756H30.25ZM7.75 26.756V31.75H5.75V26.756H7.75ZM14.25 11.75C13.6981 11.75 13.25 12.1981 13.25 12.75C13.25 13.3019 13.6981 13.75 14.25 13.75C14.8019 13.75 15.25 13.3019 15.25 12.75C15.25 12.1981 14.8019 11.75 14.25 11.75ZM20.75 15.75C20.75 15.1978 21.197 14.75 21.75 14.75C22.303 14.75 22.75 15.1978 22.75 15.75C22.75 16.3022 22.303 16.75 21.75 16.75C21.197 16.75 20.75 16.3022 20.75 15.75Z" fill="black"/>
</svg>
