<svg width="36" height="36" viewBox="0 0 36 36" fill="none" xmlns="http://www.w3.org/2000/svg">
<path fill-rule="evenodd" clip-rule="evenodd" d="M6.53272 4.80359C6.97588 3.88835 7.90795 3.25045 9.00037 3.25045C9.7134 3.25045 10.3632 3.52235 10.8519 3.96717L10.1788 4.70673C9.86657 4.42255 9.45433 4.25045 9.00037 4.25045C8.19594 4.25045 7.52124 4.79807 7.31839 5.54499L7.17114 6.08718L6.64971 5.878C6.44664 5.79654 6.22766 5.75045 6.00037 5.75045C5.03301 5.75045 4.25037 6.53309 4.25037 7.50045H3.25037C3.25037 5.98081 4.48072 4.75045 6.00037 4.75045C6.1831 4.75045 6.36112 4.76911 6.53272 4.80359ZM3.75 10.7503H3.25V11.2503V30.7503V31.2503H3.75H30.75H31.25V30.7503V14.2503V13.21L30.4377 13.8599L23.75 19.21V14.2503V13.21L22.9377 13.8599L16.25 19.21V14.2503V13.21L15.4377 13.8599L8.75 19.21V11.2503V10.7503H8.25H3.75ZM4.25 30.2503V11.7503H7.75V20.2503V21.2906L8.56235 20.6407L15.25 15.2906V20.2503V21.2906L16.0623 20.6407L22.75 15.2906V20.2503V21.2906L23.5623 20.6407L30.25 15.2906V30.2503H4.25ZM8.25 24.25H7.75V24.75V26.25V26.75H8.25H11.25H11.75V26.25V24.75V24.25H11.25H8.25ZM8.75 25.75V25.25H10.75V25.75H8.75ZM15.25 24.25H15.75H18.75H19.25V24.75V26.25V26.75H18.75H15.75H15.25V26.25V24.75V24.25ZM16.25 25.25V25.75H18.25V25.25H16.25ZM23.25 24.25H22.75V24.75V26.25V26.75H23.25H26.25H26.75V26.25V24.75V24.25H26.25H23.25ZM23.75 25.75V25.25H25.75V25.75H23.75ZM13.5 4.7503C12.4092 4.7503 11.4759 5.38793 11.0333 6.3036C10.8614 6.26903 10.6831 6.2503 10.5 6.2503C8.98036 6.2503 7.75 7.48066 7.75 9.0003H8.75C8.75 8.03294 9.53264 7.2503 10.5 7.2503C10.7271 7.2503 10.9465 7.29633 11.1518 7.37822L11.6733 7.58625L11.8197 7.04414C12.0211 6.29816 12.6967 5.7503 13.5 5.7503C14.4674 5.7503 15.25 6.53294 15.25 7.5003H16.25C16.25 5.98066 15.0196 4.7503 13.5 4.7503Z" fill="black"/>
</svg>
