<svg width="36" height="36" viewBox="0 0 36 36" fill="none" xmlns="http://www.w3.org/2000/svg">
<path fill-rule="evenodd" clip-rule="evenodd" d="M18.6526 24.1267C19.4746 24.1207 20.1466 23.8627 20.6716 23.3573C21.1951 22.8503 21.4561 22.2022 21.4561 21.4088C21.4561 20.5958 21.2311 19.9522 20.7766 19.4813C20.3236 19.0103 19.6171 18.6863 18.6526 18.5093V24.1267ZM17.4856 11.4263C16.7986 11.4473 16.2601 11.5928 15.8716 11.8613C15.1771 12.3428 14.8291 13.0358 14.8291 13.9433C14.8291 14.6513 15.0466 15.2108 15.4786 15.6203C15.9106 16.0328 16.5781 16.3148 17.4856 16.4708V11.4263ZM12.7591 20.7277H14.5636C14.5636 22.8817 15.5386 24.0142 17.4856 24.1267V18.2542C16.4026 18.0712 15.4891 17.7412 14.7451 17.2672C13.6126 16.5517 13.0456 15.4927 13.0456 14.0917C13.0456 12.8947 13.4476 11.9197 14.2501 11.1652C15.0556 10.4107 16.1326 10.0027 17.4856 9.93825V8.03775H18.6526V9.93825C19.9981 10.0447 21.0181 10.4422 21.7111 11.1277C22.4626 11.8642 22.8301 12.8347 22.8151 14.0377H21.0316C20.9191 12.3607 20.1256 11.4922 18.6526 11.4367V16.7572C19.5466 16.9837 20.1631 17.1577 20.5066 17.2777C20.8501 17.3977 21.1711 17.5537 21.4681 17.7442C22.6501 18.5092 23.2411 19.6732 23.2411 21.2377C23.2411 22.8517 22.5826 24.0817 21.2656 24.9232C20.6356 25.3282 19.7641 25.5607 18.6526 25.6252V27.9622H17.4856V25.6252C15.8926 25.5262 14.7091 25.0507 13.9381 24.2017C13.1446 23.3242 12.7516 22.1662 12.7591 20.7277ZM17.9999 4.24997C10.4055 4.24997 4.24988 10.4056 4.24988 18C4.24988 25.5943 10.4055 31.75 17.9999 31.75C25.5942 31.75 31.7499 25.5943 31.7499 18C31.7499 10.4056 25.5942 4.24997 17.9999 4.24997ZM3.24988 18C3.24988 9.85333 9.85324 3.24997 17.9999 3.24997C26.1465 3.24997 32.7499 9.85333 32.7499 18C32.7499 26.1466 26.1465 32.75 17.9999 32.75C9.85324 32.75 3.24988 26.1466 3.24988 18ZM6.69253 14.8669C7.64322 11.4416 10.0865 8.6388 13.2996 7.23444L13.7001 8.15074C10.7631 9.43439 8.52642 11.9986 7.6561 15.1343L6.69253 14.8669Z" fill="black"/>
</svg>
