<svg width="36" height="36" viewBox="0 0 36 36" fill="none" xmlns="http://www.w3.org/2000/svg">
<path fill-rule="evenodd" clip-rule="evenodd" d="M17.2496 3.26185C12.832 3.26185 9.24963 6.84421 9.24963 11.2619C9.24963 11.6463 9.27854 12.0222 9.33222 12.3897C5.8897 12.9492 3.24963 15.9053 3.24963 19.5119C3.24963 23.5155 6.49599 26.7619 10.4996 26.7619H16.75V31.75H3V32.75H33V31.75H17.75V26.7619H26.9996C30.1753 26.7619 32.7496 24.1875 32.7496 21.0119C32.7496 19.2315 31.9352 17.6466 30.6677 16.5946C31.0378 15.8986 31.2496 15.1057 31.2496 14.2619C31.2496 11.5002 29.0113 9.26185 26.2496 9.26185C25.8185 9.26185 25.4043 9.32103 25.0107 9.42541C24.1809 5.89765 21.0353 3.26185 17.2496 3.26185ZM17.75 25.7619H26.9996C29.623 25.7619 31.7496 23.6352 31.7496 21.0119C31.7496 19.4072 30.948 17.9917 29.724 17.1308L29.3278 16.8522L29.5937 16.4474C30.0077 15.8171 30.2496 15.0689 30.2496 14.2619C30.2496 12.0525 28.459 10.2619 26.2496 10.2619C25.7458 10.2619 25.2642 10.3646 24.8113 10.5412L24.2338 10.7664L24.1359 10.1543C23.6021 6.8158 20.7324 4.26185 17.2496 4.26185C13.3843 4.26185 10.2496 7.39649 10.2496 11.2619C10.2496 11.7597 10.3054 12.2435 10.4065 12.7156L10.5252 13.2694L9.96093 13.3185C6.76148 13.5966 4.24963 16.2495 4.24963 19.5119C4.24963 22.9632 7.04828 25.7619 10.4996 25.7619H16.75V19.7403L13.1877 16.8904L13.8123 16.1096L16.75 18.4597V13.5H17.75V22.6693L22.1237 17.6707L22.8763 18.3293L17.75 24.1879V25.7619Z" fill="black"/>
</svg>
