<svg width="48" height="48" viewBox="0 0 48 48" fill="none" xmlns="http://www.w3.org/2000/svg">
<path fill-rule="evenodd" clip-rule="evenodd" d="M13.4991 2.99963C12.3242 2.99963 11.2442 3.23071 10.4391 3.63298C9.66765 4.01845 9.01267 4.64009 9.00028 5.47453L8.80869 7.63956C8.44479 7.76193 8.10035 7.9003 7.77846 8.05329C6.3964 8.71016 5.34227 9.68307 5.07131 10.899L5.06374 10.933L5.06095 10.9677L3.04716 36.0529C3.01597 36.3621 3 36.6762 3 36.9946C3 42.0195 6.97755 45.9996 11.999 45.9996C17.0175 45.9996 20.9972 42.0225 21 37H27C27.0028 42.0223 30.9793 45.9996 35.999 45.9996C41.0193 45.9996 45 42.0197 45 36.9946C45 36.6785 44.9842 36.3666 44.9535 36.0595L42.9392 10.9677L42.9364 10.933L42.9288 10.899C42.6578 9.68307 41.6037 8.71016 40.2216 8.05329C39.8997 7.9003 39.5553 7.76193 39.1914 7.63956L38.9998 5.47454C38.9874 4.64009 38.3325 4.01845 37.561 3.63298C36.7559 3.23071 35.6759 2.99963 34.501 2.99963C33.3256 2.99963 32.2452 3.2307 31.4397 3.63294C30.6606 4.02204 30 4.65191 30 5.49863V7.95075C29.8077 8.03535 29.6226 8.12496 29.4455 8.21933C28.0244 8.97621 26.9998 10.109 26.9998 11.4978H27V13H21V11.4978H21.0003C21.0003 10.109 19.9757 8.97621 18.5546 8.21933C18.3775 8.12496 18.1924 8.03535 18.0001 7.95075V5.49863C18.0001 4.65191 17.3395 4.02204 16.5604 3.63294C15.7549 3.2307 14.6745 2.99963 13.4991 2.99963ZM27 14H21V33H27V14ZM27 34V36H21V34H27ZM28 36.9946C28 41.4678 31.5304 44.9996 35.999 44.9996C40.4667 44.9996 44 41.4676 44 36.9946C44 36.7807 43.9919 36.5689 43.976 36.3596L43.9744 36.3598L43.9578 36.1535C43.5469 32.0886 40.1833 28.9996 35.999 28.9996C31.5297 28.9996 28 32.5222 28 36.9946ZM28 32.8255V11.4976H27.9998C27.9999 10.6514 28.6327 9.78525 29.9156 9.10193C31.1804 8.42822 32.9712 7.99976 35.0008 7.99976C36.8782 7.99976 38.5512 8.36655 39.7924 8.95647C41.0332 9.54622 41.7588 10.3142 41.9453 11.0847L43.6399 32.1935C42.0583 29.6604 39.2458 27.9996 35.999 27.9996C32.4886 27.9996 29.4877 29.9402 28 32.8255ZM38.0019 5.54271L38.1617 7.34853C37.1928 7.12269 36.1241 6.99976 35.0008 6.99976C33.5442 6.99976 32.1773 7.20646 31 7.57686V5.49863C31 5.22836 31.2234 4.85873 31.8865 4.52758C32.5233 4.20956 33.4434 3.99963 34.501 3.99963C35.5581 3.99963 36.4776 4.20955 37.114 4.52753C37.7766 4.85862 38 5.22822 38 5.49863V5.52071L38.0019 5.54271ZM20.0003 11.4976C20.0002 10.6514 19.3674 9.78525 18.0845 9.10193C16.8197 8.42822 15.0289 7.99976 12.9993 7.99976C11.1219 7.99976 9.44892 8.36655 8.20773 8.95647C6.96689 9.54622 6.24132 10.3142 6.05478 11.0847L4.36033 32.1919C5.94128 29.6597 8.75218 27.9996 11.999 27.9996C15.5091 27.9996 18.5117 29.9407 20 32.8267V11.4976H20.0003ZM20 36.9946C20 32.5224 16.4675 28.9996 11.999 28.9996C7.81611 28.9996 4.45627 32.0852 4.04281 36.1471L4.02574 36.3598L4.02395 36.3596C4.00808 36.5689 4 36.7807 4 36.9946C4 41.4678 7.53045 44.9996 11.999 44.9996C16.4667 44.9996 20 41.4676 20 36.9946ZM12.9993 6.99976C11.876 6.99976 10.8073 7.12269 9.83835 7.34853L9.99815 5.54271L10.0001 5.52071V5.49863C10.0001 5.22822 10.2235 4.85862 10.8861 4.52753C11.5225 4.20955 12.442 3.99963 13.4991 3.99963C14.5567 3.99963 15.4768 4.20956 16.1136 4.52758C16.7767 4.85873 17.0001 5.22836 17.0001 5.49863V7.57686C15.8228 7.20646 14.4559 6.99976 12.9993 6.99976ZM35.999 30.9996C32.6467 30.9996 30 33.6412 30 36.9956C30 40.3508 32.6475 42.9996 35.999 42.9996C39.3517 42.9996 42 40.3507 42 36.9956C42 33.6414 39.3525 30.9996 35.999 30.9996ZM29 36.9956C29 33.088 32.0953 29.9996 35.999 29.9996C39.9035 29.9996 43 33.0879 43 36.9956C43 40.9026 39.9043 43.9996 35.999 43.9996C32.0945 43.9996 29 40.9024 29 36.9956ZM35.999 33.0001C33.7627 33.0001 32 34.7597 32 36.9971H31C31 34.2065 33.2113 32.0001 35.999 32.0001V33.0001ZM11.999 30.9996C8.64669 30.9996 6 33.6412 6 36.9956C6 40.3508 8.64749 42.9996 11.999 42.9996C15.3517 42.9996 18 40.3507 18 36.9956C18 33.6414 15.3525 30.9996 11.999 30.9996ZM5 36.9956C5 33.088 8.09531 29.9996 11.999 29.9996C15.9035 29.9996 19 33.0879 19 36.9956C19 40.9026 15.9043 43.9996 11.999 43.9996C8.09451 43.9996 5 40.9024 5 36.9956ZM8 36.9971C8 34.7597 9.76271 33.0001 11.999 33.0001V32.0001C9.21129 32.0001 7 34.2065 7 36.9971H8Z" fill="black"/>
</svg>
