<svg width="48" height="48" viewBox="0 0 48 48" fill="none" xmlns="http://www.w3.org/2000/svg">
<path fill-rule="evenodd" clip-rule="evenodd" d="M23.1842 3.93271C18.4323 3.93271 14.5263 7.56027 14.5263 12.0994C14.5263 12.4942 14.5582 12.8807 14.6166 13.2578C10.8973 13.8115 8 16.8157 8 20.5327C8 24.6484 11.5407 27.9327 15.8421 27.9327H15.8659H15.8899H15.9141H15.9384H15.9628H15.9874H16.0121H16.037H16.0621H16.0872H16.1126H16.138H16.1637H16.1894H16.2153H16.2414H16.2676H16.2939H16.3204H16.347H16.3738H16.4007H16.4277H16.4549H16.4822H16.5097H16.5373H16.565H16.5929H16.6209H16.649H16.6772H16.7056H16.7342H16.7628H16.7916H16.8205H16.8496H16.8788H16.9081H16.9375H16.9671H16.9967H17.0265H17.0565H17.0865H17.1167H17.147H17.1775H17.208H17.2387H17.2695H17.3004H17.3314H17.3626H17.3938H17.4252H17.4567H17.4883H17.5201H17.5519H17.5839H17.616H17.6481H17.6804H17.7128H17.7454H17.778H17.8107H17.8436H17.8766H17.9096H17.9428H17.9761H18.0095H18.043H18.0765H18.1102H18.1441H18.178H18.212H18.2461H18.2803H18.3146H18.349H18.3835H18.4181H18.4528H18.4876H18.5225H18.5575H18.5926H18.6278H18.663H18.6984H18.7339H18.7694H18.8051H18.8408H18.8766H18.9125H18.9485H18.9846H19.0208H19.0571H19.0934H19.1299H19.1664H19.203H19.2397H19.2764H19.3133H19.3502H19.3872H19.4243H19.4615H19.4987H19.5361H19.5735H19.611H19.6485H19.6862H19.7239H19.7617H19.7995H19.8375H19.8755H19.9136H19.9517H19.9899H20.0282H20.0666H20.105H20.1435H20.1821H20.2207H20.2594H20.2982H20.337H20.3759H20.4148H20.4539H20.493H20.5321H20.5713H20.6106H20.6499H20.6893H20.7287H20.7682H20.8078H20.8474H20.8871H20.9268H20.9666H21.0064H21.0463H21.0862H21.1262H21.1663H21.2064H21.2465H21.2867H21.327H21.3673H21.4076H21.448H21.4884H21.5289H21.5694H21.61H21.6506H21.6913H21.732H21.7727H21.8135H21.8543H21.8952H21.9361H21.977H22.018H22.059H22.1001H22.1412H22.1823H22.2235H22.2647H22.3059H22.3472H22.3885H22.4298H22.4712H22.5125H22.554H22.5954H22.6369H22.6784H22.7199H22.7615H22.8031H22.8447H22.8863H22.928H22.9697H23V35.1174L21.4877 33.6777C22.2765 32.5108 22.1544 30.9118 21.1213 29.8787C20.7788 29.5362 20.2703 29.3413 19.7837 29.2206C19.2816 29.0961 18.7249 29.0324 18.2164 29.001C17.7053 28.9693 17.2281 28.9694 16.8795 28.9772C16.7049 28.9812 16.5615 28.9871 16.4613 28.992C16.4111 28.9945 16.3716 28.9968 16.3443 28.9984L16.3127 29.0004L16.304 29.001L16.3015 29.0012L16.3008 29.0012L16.3005 29.0012C16.3004 29.0012 16.3003 29.0012 16.3356 29.5L16.3003 29.0012L15.8467 29.0333L15.8357 29.4879L16.3356 29.5C15.8357 29.4879 15.8357 29.488 15.8357 29.4881L15.8357 29.4883L15.8357 29.4891L15.8356 29.4915L15.8354 29.4998L15.8349 29.5301C15.8346 29.5562 15.8342 29.5939 15.834 29.6419C15.8338 29.7377 15.8345 29.8746 15.8385 30.0416C15.8465 30.3747 15.8677 30.8312 15.9207 31.3215C15.9734 31.8094 16.059 32.3442 16.2002 32.8288C16.3375 33.3006 16.5447 33.7874 16.8786 34.1213C17.9477 35.1904 19.6229 35.2839 20.7981 34.4019L23 36.498V43H14V44H33V43H24V27.9327H24.0175H24.0596H24.1016H24.1437H24.1858H24.2279H24.27H24.3121H24.3542H24.3963H24.4384H24.4805H24.5226H24.5647H24.6068H24.6489H24.691H24.7331H24.7752H24.8173H24.8594H24.9014H24.9435H24.9856H25.0276H25.0697H25.1117H25.1537H25.1957H25.2377H25.2797H25.3217H25.3637H25.4056H25.4476H25.4895H25.5314H25.5733H25.6152H25.657H25.6989H25.7407H25.7825H25.8243H25.866H25.9078H25.9495H25.9912H26.0329H26.0745H26.1162H26.1578H26.1993H26.2409H26.2824H26.3239H26.3654H26.4068H26.4482H26.4896H26.531H26.5723H26.6136H26.6548H26.696H26.7372H26.7784H26.8195H26.8606H26.9016H26.9426H26.9836H27.0245H27.0654H27.1062H27.1471H27.1878H27.2286H27.2692H27.3099H27.3505H27.391H27.4316H27.472H27.5124H27.5528H27.5931H27.6334H27.6736H27.7138H27.754H27.794H27.8341H27.874H27.914H27.9538H27.9937H28.0334H28.0731H28.1128H28.1524H28.1919H28.2314H28.2708H28.3102H28.3495H28.3887H28.4279H28.467H28.5061H28.5451H28.584H28.6229H28.6617H28.7005H28.7391H28.7777H28.8163H28.8548H28.8932H28.9315H28.9698H29.008H29.0461H29.0842H29.1221H29.1601H29.1979H29.2357H29.2733H29.311H29.3485H29.386H29.4233H29.4606H29.4979H29.535H29.5721H29.6091H29.646H29.6828H29.7195H29.7562H29.7928H29.8293H29.8657H29.902H29.9382H29.9744H30.0104H30.0464H30.0823H30.1181H30.1538H30.1894H30.2249H30.2603H30.2957H30.3309H30.3661H30.4011H30.4361H30.4709H30.5057H30.5404H30.575H30.6094H30.6438H30.6781H30.7123H30.7463H30.7803H30.8142H30.8479H30.8816H30.9152H30.9486H30.982H31.0152H31.0484H31.0814H31.1143H31.1471H31.1798H31.2124H31.2449H31.2773H31.3095H31.3417H31.3737H31.4057H31.4375H31.4692H31.5007H31.5322H31.5635H31.5948H31.6259H31.6569H31.6877H31.7185H31.7491H31.7796H31.81H31.8403H31.8704H31.9005H31.9303H31.9601H31.9898H32.0193H32.0487H32.0779H32.1071H32.1361H32.1649H32.1937H32.2223H32.2508H32.2791H32.3073H32.3354H32.3634H32.3912H32.4189H32.4464H32.4738H32.5011H32.5282H32.5552H32.5821H32.6088H32.6354H32.6618H32.6881H32.7142H32.7402H32.7661H32.7918H32.8174H32.8428H32.8681H32.8932H32.9182H32.9431H32.9678H32.9923H33.0167H33.0409H33.065H33.0889H33.1127H33.1364H33.1598H33.1832H33.2063H33.2293H33.2522H33.2749H33.2974H33.3198H33.342H33.3641H33.386H33.4078H33.4293H33.4508H33.472H33.4931H33.514H33.5348H33.5554H33.5758H33.5961H33.6162H33.6361H33.6559H33.6755H33.6949H33.7142H33.7333H33.7522H33.7709H33.7895C37.1897 27.9327 40 25.3349 40 22.066C40 20.2361 39.1094 18.618 37.7383 17.5488C38.1373 16.84 38.3684 16.0302 38.3684 15.166C38.3684 12.3206 35.9234 10.066 32.9737 10.066C32.4911 10.066 32.0282 10.1314 31.5891 10.2452C30.6949 6.61504 27.2691 3.93271 23.1842 3.93271ZM20.7477 32.9734L19.3447 31.6378L18.6553 32.3622L20.0582 33.6976C19.2862 34.1798 18.2569 34.0853 17.5858 33.4142C17.4315 33.26 17.2826 32.9692 17.1603 32.5493C17.0418 32.1422 16.9643 31.671 16.9149 31.214C16.8657 30.7594 16.8458 30.332 16.8382 30.0175L16.8373 29.9786L16.902 29.977C17.232 29.9696 17.6797 29.9697 18.1546 29.999C18.6322 30.0286 19.1225 30.087 19.543 30.1912C19.9789 30.2994 20.2685 30.4401 20.4142 30.5858C21.061 31.2326 21.1722 32.2122 20.7477 32.9734ZM24 26.9327H24.0175H24.0596H24.1016H24.1437H24.1858H24.2279H24.27H24.3121H24.3542H24.3963H24.4384H24.4805H24.5226H24.5647H24.6068H24.6489H24.691H24.7331H24.7752H24.8173H24.8594H24.9014H24.9435H24.9856H25.0276H25.0697H25.1117H25.1537H25.1957H25.2377H25.2797H25.3217H25.3637H25.4056H25.4476H25.4895H25.5314H25.5733H25.6152H25.657H25.6989H25.7407H25.7825H25.8243H25.866H25.9078H25.9495H25.9912H26.0329H26.0745H26.1162H26.1578H26.1993H26.2409H26.2824H26.3239H26.3654H26.4068H26.4482H26.4896H26.531H26.5723H26.6136H26.6548H26.696H26.7372H26.7784H26.8195H26.8606H26.9016H26.9426H26.9836H27.0245H27.0654H27.1062H27.1471H27.1878H27.2286H27.2692H27.3099H27.3505H27.391H27.4316H27.472H27.5124H27.5528H27.5931H27.6334H27.6736H27.7138H27.754H27.794H27.8341H27.874H27.914H27.9538H27.9937H28.0334H28.0731H28.1128H28.1524H28.1919H28.2314H28.2708H28.3102H28.3495H28.3887H28.4279H28.467H28.5061H28.5451H28.584H28.6229H28.6617H28.7005H28.7391H28.7777H28.8163H28.8548H28.8932H28.9315H28.9698H29.008H29.0461H29.0842H29.1221H29.1601H29.1979H29.2357H29.2733H29.311H29.3485H29.386H29.4233H29.4606H29.4979H29.535H29.5721H29.6091H29.646H29.6828H29.7195H29.7562H29.7928H29.8293H29.8657H29.902H29.9382H29.9744H30.0104H30.0464H30.0823H30.1181H30.1538H30.1894H30.2249H30.2603H30.2957H30.3309H30.3661H30.4011H30.4361H30.4709H30.5057H30.5404H30.575H30.6094H30.6438H30.6781H30.7123H30.7463H30.7803H30.8142H30.8479H30.8816H30.9152H30.9486H30.982H31.0152H31.0484H31.0814H31.1143H31.1471H31.1798H31.2124H31.2449H31.2773H31.3095H31.3417H31.3737H31.4057H31.4375H31.4692H31.5007H31.5322H31.5635H31.5948H31.6259H31.6569H31.6877H31.7185H31.7491H31.7796H31.81H31.8403H31.8704H31.9005H31.9303H31.9601H31.9898H32.0193H32.0487H32.0779H32.1071H32.1361H32.1649H32.1937H32.2223H32.2508H32.2791H32.3073H32.3354H32.3634H32.3912H32.4189H32.4464H32.4738H32.5011H32.5282H32.5552H32.5821H32.6088H32.6354H32.6618H32.6881H32.7142H32.7402H32.7661H32.7918H32.8174H32.8428H32.8681H32.8932H32.9182H32.9431H32.9678H32.9923H33.0167H33.0409H33.065H33.0889H33.1127H33.1364H33.1598H33.1832H33.2063H33.2293H33.2522H33.2749H33.2974H33.3198H33.342H33.3641H33.386H33.4078H33.4293H33.4508H33.472H33.4931H33.514H33.5348H33.5554H33.5758H33.5961H33.6162H33.6361H33.6559H33.6755H33.6949H33.7142H33.7333H33.7522H33.7709H33.7895C36.6969 26.9327 39 24.725 39 22.066C39 20.4354 38.1337 18.9862 36.7898 18.0977L36.3623 17.8151L36.6554 17.3946C37.1057 16.7489 37.3684 15.9857 37.3684 15.166C37.3684 12.9305 35.4305 11.066 32.9737 11.066C32.4157 11.066 31.883 11.1736 31.3829 11.3556L30.8197 11.5605L30.7191 10.9697C30.1402 7.57162 27.0194 4.93271 23.1842 4.93271C18.9252 4.93271 15.5263 8.17015 15.5263 12.0994C15.5263 12.6061 15.5872 13.1009 15.6957 13.5829L15.8222 14.1443L15.2487 14.1911C11.7224 14.4793 9 17.2179 9 20.5327C9 24.0385 12.0336 26.9327 15.8421 26.9327H15.8659H15.8899H15.9141H15.9384H15.9628H15.9874H16.0121H16.037H16.0621H16.0872H16.1126H16.138H16.1637H16.1894H16.2153H16.2414H16.2676H16.2939H16.3204H16.347H16.3738H16.4007H16.4277H16.4549H16.4822H16.5097H16.5373H16.565H16.5929H16.6209H16.649H16.6772H16.7056H16.7342H16.7628H16.7916H16.8205H16.8496H16.8788H16.9081H16.9375H16.9671H16.9967H17.0265H17.0565H17.0865H17.1167H17.147H17.1775H17.208H17.2387H17.2695H17.3004H17.3314H17.3626H17.3938H17.4252H17.4567H17.4883H17.5201H17.5519H17.5839H17.616H17.6481H17.6804H17.7128H17.7454H17.778H17.8107H17.8436H17.8766H17.9096H17.9428H17.9761H18.0095H18.043H18.0765H18.1102H18.1441H18.178H18.212H18.2461H18.2803H18.3146H18.349H18.3835H18.4181H18.4528H18.4876H18.5225H18.5575H18.5926H18.6278H18.663H18.6984H18.7339H18.7694H18.8051H18.8408H18.8766H18.9125H18.9485H18.9846H19.0208H19.0571H19.0934H19.1299H19.1664H19.203H19.2397H19.2764H19.3133H19.3502H19.3872H19.4243H19.4615H19.4987H19.5361H19.5735H19.611H19.6485H19.6862H19.7239H19.7617H19.7995H19.8375H19.8755H19.9136H19.9517H19.9899H20.0282H20.0666H20.105H20.1435H20.1821H20.2207H20.2594H20.2982H20.337H20.3759H20.4148H20.4539H20.493H20.5321H20.5713H20.6106H20.6499H20.6893H20.7287H20.7682H20.8078H20.8474H20.8871H20.9268H20.9666H21.0064H21.0463H21.0862H21.1262H21.1663H21.2064H21.2465H21.2867H21.327H21.3673H21.4076H21.448H21.4884H21.5289H21.5694H21.61H21.6506H21.6913H21.732H21.7727H21.8135H21.8543H21.8952H21.9361H21.977H22.018H22.059H22.1001H22.1412H22.1823H22.2235H22.2647H22.3059H22.3472H22.3885H22.4298H22.4712H22.5125H22.554H22.5954H22.6369H22.6784H22.7199H22.7615H22.8031H22.8447H22.8863H22.928H22.9697H23V21.2263L17.7073 17.4054L18.2927 16.5946L23 19.993V11H24V23.7743L30.6344 16.659L31.3658 17.341L24 25.2407V26.9327Z" fill="black"/>
</svg>
