<svg width="24" height="24" viewBox="0 0 24 24" fill="none" xmlns="http://www.w3.org/2000/svg">
<path fill-rule="evenodd" clip-rule="evenodd" d="M11.4998 2.0079C8.46261 2.0079 5.99976 4.47076 5.99976 7.5079C5.99976 7.71699 6.01218 7.92227 6.03558 8.1238C3.74049 8.57286 1.99976 10.5753 1.99976 13.0079C1.99976 15.769 4.23861 18.0079 6.99976 18.0079H11V21H2V22H22V21H12V18.0079H17.9998C20.2089 18.0079 21.9998 16.217 21.9998 14.0079C21.9998 12.817 21.476 11.7522 20.6529 11.0218C20.8744 10.5641 20.9998 10.0511 20.9998 9.5079C20.9998 7.57476 19.4329 6.0079 17.4998 6.0079C17.2564 6.0079 17.0211 6.03475 16.7953 6.08316C16.1684 3.74024 14.0449 2.0079 11.4998 2.0079ZM12 17.0079H17.9998C19.6566 17.0079 20.9998 15.6648 20.9998 14.0079C20.9998 12.9952 20.4941 12.1013 19.7201 11.5569L19.324 11.2782L19.5898 10.8734C19.8488 10.4791 19.9998 10.0119 19.9998 9.5079C19.9998 8.12705 18.8806 7.0079 17.4998 7.0079C17.1869 7.0079 16.8864 7.07164 16.6014 7.18275L16.0239 7.4079L15.926 6.79584C15.5828 4.64885 13.7375 3.0079 11.4998 3.0079C9.0149 3.0079 6.99976 5.02305 6.99976 7.5079C6.99976 7.82721 7.0355 8.13806 7.10066 8.44214L7.21934 8.99598L6.65505 9.04503C4.6061 9.22312 2.99976 10.9216 2.99976 13.0079C2.99976 15.2168 4.7909 17.0079 6.99976 17.0079H11V13.2403L8.68765 11.3904L9.31235 10.6096L11 11.9597V9H12V14.6693L14.6237 11.6708L15.3763 12.3293L12 16.1879V17.0079Z" fill="black"/>
</svg>
