<svg width="36" height="36" viewBox="0,0,36,36" xmlns="http://www.w3.org/2000/svg"><path fill-rule="evenodd" clip-rule="evenodd" d="m4.25,5.25c0-.55228.44772-1,1-1h25.5c.5523,0,1,.44772,1,1v4.5c0,.5523-.4477,1-1,1H5.25c-.55228,0-1-.4477-1-1v-4.5zm1-2c-1.10457,0-2,.89543-2,2v4.5c0,.9319.63739,1.715,1.5,1.937v15.626c-.86261.222-1.5,1.0051-1.5,1.937v1.5c0,1.1046.89543,2,2,2h25.5c1.1046,0,2-.8954,2-2v-1.5c0-.9319-.6374-1.715-1.5-1.937V11.687c.8626-.222,1.5-1.0051,1.5-1.937v-4.5c0-1.10457-.8954-2-2-2H5.25zm25,24v-15.5h-8v4.5h-1.5V18h-1v-1.75h-3.5V18h-1v-1.75h-1.5v-4.5h-8v15.5h7.8605c-.0637-.056-.1257-.1142-.186-.1745-.752-.752-1.1745-1.772-1.1745-2.8355v-4.49h11.5v1.5h1.285c.4548,0,.891.1807,1.2126.5023.3217.3216.5024.7579.5024,1.2127v.555c0,.4588-.1823.8989-.5068,1.2233-.3244.3244-.7644.5067-1.2232.5067h-1.3993c-.1782.6849-.5362,1.3165-1.0452,1.8255-.0603.0603-.1223.1185-.186.1745H30.25zm-6.5-3h1.27c.1936,0,.3792-.0769.5161-.2138s.2139-.3226.2139-.5162v-.555c0-.1896-.0754-.3715-.2095-.5056s-.3159-.2094-.5055-.2094H23.75v2zm-9.6184,2.1184c.5645.5645,1.3301.8816,2.1284.8816h3.48c.7983,0,1.5639-.3171,2.1284-.8816s.8816-1.3301.8816-2.1284v-3.49h-9.5v3.49c0,.7983.3171,1.5639.8816,2.1284zM16.26,28.25h14.49c.5523,0,1,.4477,1,1v1.5c0,.5523-.4477,1-1,1H5.25c-.55228,0-1-.4477-1-1v-1.5c0-.5523.44772-1,1-1h11.01zm-1.51-16.5v3.5h6.5v-3.5h-6.5zM24,6.25h4.5v1H24v-1z"/></svg>