<svg width="36" height="36" viewBox="0,0,36,36" xmlns="http://www.w3.org/2000/svg"><path fill-rule="evenodd" clip-rule="evenodd" d="m17.2499,3.25h-.4489l-.0482.44627c-.7666,7.09323-2.2268,14.09423-4.3595,20.90253-.8213,2.5552-1.8541,5.0376-3.08749,7.4214l-.37759.7298h6.57168v-.5c0-.663.2634-1.2989.7322-1.7678.4689-.4688,1.1048-.7322,1.7678-.7322s1.2989.2634,1.7678.7322c.4688.4689.7322,1.1048.7322,1.7678v.5h6.5803l-.3884-.7339c-2.8152-5.3193-4.6791-12.3865-5.8392-18.1535-.5789-2.8777-.9805-5.42064-1.2373-7.24374-.1283-.91141-.2205-1.64254-.2805-2.14522-.0299-.25134-.0519-.44553-.0663-.57657-.0072-.06552-.0125-.11524-.016-.14842l-.0039-.03727-.001-.00915-.0002-.00217-.0001-.00048-.4974.05042.4974-.0505-.0456-.4495h-1.9518zm.4479,1h.6041c.0113.0988.0246.21309.04.34211.0607.50899.1537,1.24716.2832,2.16622.0437.31049.0916.64167.1438.99167h-1.5206c.1684-1.16383.3183-2.33064.4495-3.5zm-.599,4.5c-.4139,2.6851-.9269,5.3536-1.538,8h4.8854c-.2082-.921-.3992-1.8213-.574-2.6901-.3953-1.9653-.7086-3.7753-.95-5.3099h-1.8234zm3.5785,9H15.325c-.5256,2.1833-1.118,4.351-1.7767,6.5h8.9122c-.6919-2.172-1.2826-4.3797-1.7832-6.5zM22.7872,25.25H13.233c-.7342,2.2275-1.6261,4.3997-2.6691,6.5h3.9719c.1073-.7434.4519-1.4375.9892-1.9749.6564-.6564,1.5466-1.0251,2.4749-1.0251s1.8185.3687,2.4749,1.0251c.5373.5374.8819,1.2315.9892,1.9749h3.9667c-1.004-2.0095-1.8809-4.2243-2.6435-6.5z" clip-path="url(#a)"/><defs><clipPath id="a"><path fill="#fff" d="m0,0h36v36H0z"/></clipPath></defs></svg>