<svg width="24" height="24" viewBox="0,0,24,24" xmlns="http://www.w3.org/2000/svg"><path fill-rule="evenodd" clip-rule="evenodd" d="m4,2h16v1.99976h2v1h-1V19.9998h1v1H2v-1h1V4.99976H2v-1h2V2zm0,17.9998V5h16v14.9998h-5.005l.005-2.499.001-.501H9v3H4zm9.999-2-.004,2H10v-2h3.999zM19,3v.99976H5V3h14zm-6,5.99976v2.00004h1V5.99976h-1v2h-2v-2h-1v5.00004h1V8.99976h2zM6.5,13.6008l.5-1.601.5,1.601H9l-1.2.799.5,1.6-1.3-.899-1.3.899.5-1.5-1.2-.899h1.5zm5.5-1.601-.5,1.601H10l1.2.899-.5,1.5,1.3-.899,1.3.899-.5-1.6,1.2-.9h-1.5l-.5-1.5zm4.5,1.601.5-1.601.5,1.5H19l-1.2.9.5,1.6-1.3-.899-1.3.899.5-1.5-1.2-.899h1.5z"/></svg>