<svg width="36" height="36" viewBox="0,0,36,36" xmlns="http://www.w3.org/2000/svg"><path fill-rule="evenodd" clip-rule="evenodd" d="m14.25,3.25h-.5v3.34817l-1.7163,2.57448.8321.5547,1.3841-2.07618L16.75,11.4014V13.5h1v-1.75h6.5V21h1v-9.9014l-.0839-.1259L22.25,6.59861V3.25h-8zm3.2676,7.5h6.2982l-2.3334-3.5h-6.2981l2.3333,3.5zm3.7324-4.5h-6.5v-2h6.5v2zm-3.5,12.2071,6.5,6.5V31.75h-6.5V18.4571zm-1-1V31.75h-5V12.4571l5,5zM11.25,32.75h14v-6.7929l5.8965,5.8965.7071-.7072L4.85359,4.14645l-.70711.7071L10.75,11.4571V32.75h.5z"/></svg>