<svg width="24" height="24" viewBox="0,0,24,24" xmlns="http://www.w3.org/2000/svg"><path fill-rule="evenodd" clip-rule="evenodd" d="m20.3977,21.0047.2489.2489.2489-.2489h.1046v-.1046l.3536-.3536L3.45369,2.64648l-.34883.34883h-.1058v.1058l-.25248.25248.25248.25248v1.39724h1v-.39724l1,1v.39364l.39483.00119.60517.60517v1.39664h1v.9975h-1.999v-2h-1v-1h-1v2h1v1h.999v.99999h2v-.99919h1v-.39494l1.001,1.001v5.39263h5.39264l1.0024,1.0024-2.395.0016v1h-1v2h1v-1h1v-1.002h1v2h2v-1h-1v-1.3946l2,2v.3944h.3944l1.0002,1.0002h-.3946v1h1v.003h.3976zm-7.005-7.005-.9995-.9995h-1.3931v-1.3931l-1-1v3.3926h3.3926zM7.394,8.00101l-.39494-.39494v.39494H7.394zm-.39464-4.4151v-.591h3.00104v1.001H7.40936l-.41-.41zm7.00074,7.00029v-.586h-.586l-1-.99999h2.586v2.58599l-1-1zM8.99916,5.00101v.002h-.582l.998.998h1.58504v-.9999h.9994v.002h1v2h1v-1l3-.002v-1h1v-1h-1v-.998h-1v1.998h-1v-.998h-1v1h-1v-2h-1v.998h-1v.9999H8.99916zm11.00094,2.002h1v-1.001h-1v1.001zm-2,5.00019v.998h-1.585l-.415-.415v-.585h2v-.998h1v1h-1zm1,2.0004v1H20v1.582l-1-1v-.582h-.5819l-.418-.418v-1.582h3v2h-1v-1h-1zM17.0001,8.00121h1v1h-1v.002h-1v-2h1v.998zm0,13.00379h1v-2h-1v2zm3-16.00189h1v-2h-1v-.002h-2v1h2v1.002zm.9996,12.58249-.584-.584h.584v.584zm-.9996-5.5816h1v-2.001h-1v-.99979l1-.002v-1h-2v2.00199h1v2.0008zm-1-5.00299h-2v-1h2v1zm-8,14.00099v-1.001h2v1.001h-2zm.9995-12.99889v-2h-1v.998h-.585l1.002,1.002h.583zM8.99956,19.0017h1v-.997h1.00004v2H9.99956v-.003h-1v-1zm6.00054.0029h-1v2h1v-.003h1v-1h-1v-.997zm-9.00104-3.0009v-1l2-.002v1h1v1h-2v-.998h-1zm4.00104-.0017v1h2v-1h-2zm8-5.001h-2v-1h2v1zm-15.00104,7h1v-1h-1v1zm3.001-5h-1.001v-1h1v-.997h2v1h-1.999v.997zM3.99906,12.001h1v-1h-1V9.00101h-1V11.001h1v1zm0,0h-1v2.001h1v.9997l-1,.002v1h2v-2.002h-1V12.001zM15.0001,8.00201h-1v-1.001h1v1.001zM7.00006,18.003h-2.001v-1h2.001v1zm-.001,1.0007v-1h2v1h-1v1.998h-1v-.997h-1v-1h1v-.001zm-3,1.001h2v1h-2v-.003h-1v-2h1v1.003zm4-6.0007h-2v-1h2v1z"/></svg>