<svg width="24" height="24" viewBox="0,0,24,24" xmlns="http://www.w3.org/2000/svg"><path fill-rule="evenodd" clip-rule="evenodd" d="m15,5.5c0-.82843.6716-1.5,1.5-1.5s1.5.67157,1.5,1.5S17.3284,7,16.5,7,15,6.32843,15,5.5zM16.5,3C15.1193,3,14,4.11929,14,5.5c0,.27129.0432.53249.1231.77709L8.25325,9.71783C7.80203,9.27389,7.183,9,6.5,9,5.11929,9,4,10.1193,4,11.5S5.11929,14,6.5,14c.73204,0,1.3906-.3146,1.84782-.8161l5.79788,3.473c-.0943.2634-.1457.5472-.1457.8431,0,1.3807,1.1193,2.5,2.5,2.5s2.5-1.1193,2.5-2.5S17.8807,15,16.5,15c-.7253,0-1.3784.3088-1.8351.8022l-5.80436-3.4768C8.95088,12.067,9,11.7892,9,11.5c0-.3367-.06656-.6578-.18724-.951l5.80554-3.40302C15.0765,7.66943,15.7497,8,16.5,8,17.8807,8,19,6.88071,19,5.5S17.8807,3,16.5,3zm0,13c-.8284,0-1.5.6716-1.5,1.5s.6716,1.5,1.5,1.5,1.5-.6716,1.5-1.5-.6716-1.5-1.5-1.5zM5,11.5c0-.8284.67157-1.5,1.5-1.5s1.5.6716,1.5,1.5S7.32843,13,6.5,13,5,12.3284,5,11.5z"/></svg>