<svg width="48" height="48" viewBox="0,0,48,48" xmlns="http://www.w3.org/2000/svg"><path fill-rule="evenodd" clip-rule="evenodd" d="m18,9.00049H9v1.00001h2.1912L12.691,13H9.73549c-1.49202,0-2.70065.3824-3.53235,1.225-.83053.8414-1.20265,2.0583-1.20265,3.55V33H8.25l-.83333,2h-.91618v1H7l-.83333,2H4.99951v1H21.9995v-1h-1.1662L20,36h.4995v-1h-.9162l-.8333-2h3.2505V17.775c0-1.4917-.3721-2.7086-1.2028-3.55C19.9658,13.3824,18.757,13,17.2645,13H14.309l1.4998-2.9995H18V9.00049zm-3.3093,1.00001h-2.3814L13.5,12.382l1.1907-2.3815zM18.5,35l-.8333-2H9.33333L8.5,35h10zM6.00049,17.775c0-1.3383.33337-2.2589.91435-2.8475C7.49464,14.3401,8.40351,14,9.73549,14h7.52901c1.3325,0,2.2416.3401,2.8215.9275.5811.5886.9145,1.5092.9145,2.8475V24H6.00049v-6.225zm0,14.225H21.0005v-7H6.00049v7zM10,17v-1h7v1h-7zm.5,11c-.2759,0-.5.2241-.5.5,0,.2765.2238.5.5.5s.5-.2235.5-.5c0-.2759-.2241-.5-.5-.5zm-1.5.5c0-.8281.67186-1.5,1.5-1.5.8281,0,1.5.6719,1.5,1.5,0,.8295-.6722,1.5-1.5,1.5-.82782,0-1.5-.6705-1.5-1.5zM7.25,38l.83333-2H18.9167l.8333,2H7.25zM16,28.5c0-.2762.2235-.5.5-.5.2759,0,.5.2241.5.5,0,.2765-.2238.5-.5.5-.2769,0-.5-.2231-.5-.5zm.5-1.5c-.8295,0-1.5.6722-1.5,1.5,0,.8291.6709,1.5,1.5,1.5.8278,0,1.5-.6705,1.5-1.5,0-.8281-.6719-1.5-1.5-1.5zM26,12.5c-1.1051,0-2,.8949-2,2V39h4V14.5c0-1.1054-.8961-2-2-2zm-1,2c0-.5529.4471-1,1-1,.5521,0,1,.4474,1,1V38h-2V14.5zm5,0c0-1.1054.8961-2,2-2,1.1051,0,2,.8949,2,2V39h-4V14.5zm2-1c-.5521,0-1,.4474-1,1V38h2V14.5c0-.5529-.4471-1-1-1zm6.4139,23.625-.9624-.1697L39.5,26.0472l2.0485,10.9081-.9625.1697.1737.9848.9734-.1716.1853.9871.9829-.1846-.1834-.9762.9958-.1757-.1737-.9848-1.0067.1776-2.5246-13.4434,1.145-6.0967.9661.1813.563-3-.9658-.1813.1845-.9822-.9828-.1846L39.5,20.6292l-1.4187-7.5545-.9829.1846.1845.9823-.9652.1812.563,3,.9656-.1812,1.1449,6.0966-2.5246,13.4434-1.0067-.1776-.1737.9848.9958.1757-.1833.9762.9828.1846.1854-.9871.9733.1716.1737-.9848z"/></svg>