<svg width="36" height="36" viewBox="0,0,36,36" xmlns="http://www.w3.org/2000/svg"><path fill-rule="evenodd" clip-rule="evenodd" d="m4.37971,3.25h-.37667l-.10392.36204c-.43238,1.50625-.65099,3.06576-.64942,4.63282-.0667,3.09094.68268,6.14494,2.17265,8.85394,1.4909,2.7107,3.67055,4.9802,6.31895,6.5792l.5168-.856c-2.49772-1.5082-4.55341-3.6485-5.95953-6.2051s-2.1129-5.4389-2.04898-8.35595l.00013.00001-.00001-.01163c-.00183-1.35005.17016-2.69418.51132-3.99933h.48868c5.00239,0,9.48759,1.57295,12.36389,5.06774l.7722-.63548C15.2621,4.88705,10.4473,3.25,5.24971,3.25h-.87zM31.7997,6.67611l-.0661-.44227-.4469.0165c-5.1572.19045-8.8706,1.54243-11.5161,3.5219-2.6454,1.97946-4.1844,4.55746-5.0423,7.13416-.8565,2.5723-1.0374,5.1508-.9666,7.1602.0355,1.006.1342,1.8753.2455,2.5372.0555.3308.1148.613.1718.8369.0259.1014.0531.1986.0818.2867-.9718,1.644-1.8764,3.3303-2.7109,5.0548l.9002.4356c.8222-1.6992,1.7134-3.3606,2.6709-4.9805,5.0017-.2304,8.5975-1.5644,11.1597-3.5027,2.6127-1.9765,4.11-4.5507,4.9397-7.123,1.5635-4.847.7716-9.74346.6016-10.79506-.0096-.05925-.0172-.10629-.0223-.14043zM15.7466,27.2001c4.4878-.3065,7.6729-1.5549,9.9307-3.263,2.4156-1.8274,3.8105-4.2116,4.5914-6.6325,1.3723-4.2544.8353-8.57266.6121-10.03547-4.7629.24332-8.1333,1.52462-10.5111,3.30377-2.4508,1.8339-3.8856,4.2255-4.6926,6.6494-.8086,2.4284-.9839,4.8814-.916,6.8091.0339.9625.1283,1.7881.2322,2.4067l.0105.0615c3.4109-5.5057,7.5865-10.5141,12.4111-14.8707l.6702.7422c-4.8054,4.3392-8.9575,9.3346-12.3385,14.829zM8.5153,8.57619c2.3121,1.44741,4.3781,3.25501,6.1195,5.35461l-.7696.6384c-1.6735-2.0175-3.6587-3.7546-5.8805-5.14539l.5306-.84762z"/></svg>