<svg width="24" height="24" viewBox="0,0,24,24" xmlns="http://www.w3.org/2000/svg"><path fill-rule="evenodd" clip-rule="evenodd" d="m6,3.5c0-.27614.22386-.5.5-.5h12c.2761,0,.5.22386.5.5v17c0,.2761-.2239.5-.5.5h-12c-.27614,0-.5-.2239-.5-.5v-17zM6.5,2C5.67157,2,5,2.67157,5,3.5v17c0,.8284.67157,1.5,1.5,1.5h12c.8284,0,1.5-.6716,1.5-1.5v-17c0-.82843-.6716-1.5-1.5-1.5h-12zm1,2H7v4h11V4H7.5zM8,7V5h9v2H8zm.5,3c-.27614,0-.5.2239-.5.5s.22386.5.5.5.5-.2239.5-.5-.22386-.5-.5-.5zm-1.5.5C7,9.67157,7.67157,9,8.5,9s1.5.67157,1.5,1.5c0,.8284-.67157,1.5-1.5,1.5S7,11.3284,7,10.5zm5,0c0-.2761.2239-.5.5-.5s.5.2239.5.5-.2239.5-.5.5-.5-.2239-.5-.5zm.5-1.5c-.8284,0-1.5.67157-1.5,1.5,0,.8284.6716,1.5,1.5,1.5s1.5-.6716,1.5-1.5c0-.82843-.6716-1.5-1.5-1.5zm4,1c-.2761,0-.5.2239-.5.5s.2239.5.5.5.5-.2239.5-.5-.2239-.5-.5-.5zm-1.5.5c0-.82843.6716-1.5,1.5-1.5s1.5.67157,1.5,1.5c0,.8284-.6716,1.5-1.5,1.5s-1.5-.6716-1.5-1.5zm-7,4c0-.2761.22386-.5.5-.5s.5.2239.5.5-.22386.5-.5.5-.5-.2239-.5-.5zm.5-1.5c-.82843,0-1.5.6716-1.5,1.5S7.67157,16,8.5,16s1.5-.6716,1.5-1.5S9.32843,13,8.5,13zm4,1c-.2761,0-.5.2239-.5.5s.2239.5.5.5.5-.2239.5-.5-.2239-.5-.5-.5zm-1.5.5c0-.8284.6716-1.5,1.5-1.5s1.5.6716,1.5,1.5-.6716,1.5-1.5,1.5-1.5-.6716-1.5-1.5zm-3,4c0-.2761.22386-.5.5-.5s.5.2239.5.5-.22386.5-.5.5-.5-.2239-.5-.5zm.5-1.5c-.82843,0-1.5.6716-1.5,1.5S7.67157,20,8.5,20s1.5-.6716,1.5-1.5S9.32843,17,8.5,17zm4,1c-.2761,0-.5.2239-.5.5s.2239.5.5.5.5-.2239.5-.5-.2239-.5-.5-.5zm-1.5.5c0-.8284.6716-1.5,1.5-1.5s1.5.6716,1.5,1.5-.6716,1.5-1.5,1.5-1.5-.6716-1.5-1.5zm5-4c0-.2761.2239-.5.5-.5s.5.2239.5.5v4c0,.2761-.2239.5-.5.5s-.5-.2239-.5-.5v-4zm.5-1.5c-.8284,0-1.5.6716-1.5,1.5v4c0,.8284.6716,1.5,1.5,1.5s1.5-.6716,1.5-1.5v-4c0-.8284-.6716-1.5-1.5-1.5z"/></svg>