<svg width="36" height="36" viewBox="0,0,36,36" xmlns="http://www.w3.org/2000/svg"><path fill-rule="evenodd" clip-rule="evenodd" d="m10.25,12c0-4.28021,3.4698-7.75,7.75-7.75s7.75,3.46979,7.75,7.75c0,4.2802-3.4698,7.75-7.75,7.75s-7.75-3.4698-7.75-7.75zM18,3.25c-4.8325,0-8.75001,3.91751-8.75001,8.75,0,2.8019,1.31691,5.2962,3.36561,6.8976L6.32599,28.9609l-.73688,1.179,1.319-.4396,4.08859-1.3629,1.3061,2.6121.4472.8945.4472-.8945,4.7967-9.5933,4.8089,9.6177.4472.8944,1.7533-3.5066,4.0886,1.3629,1.319.4397-.7369-1.179-6.2998-10.0797C25.4287,17.3044,26.75,14.8065,26.75,12c0-4.83249-3.9175-8.75-8.75-8.75zm-.8028,17.4637c-1.3684-.1245-2.6458-.564-3.759-1.2455l-5.52732,8.8437,3.18102-1.0603.4114-.1372.1939.3879,1.0528,2.1056,4.4472-8.8942zm5.3536-1.2387c-1.1138.6795-2.3913,1.1171-3.7596,1.2397l4.4588,8.9175,1.0528-2.1055.1939-.3879.4114.1371,3.181,1.0604-5.5383-8.8613zm.3027-10.12145-6,6.00005-.3535.3535-.3536-.3535-3-3,.7071-.7072L16.5,14.2929l5.6464-5.64645.7071.7071z"/></svg>