<svg width="24" height="24" viewBox="0,0,24,24" xmlns="http://www.w3.org/2000/svg"><path fill-rule="evenodd" clip-rule="evenodd" d="m4.06084,5.66931C3.31694,6.08259,3,6.57368,3,7s.31694.91741,1.06084,1.33069C4.7878,8.73456,5.82597,9,7,9s2.2122-.26544,2.93916-.66931C10.6831,7.91741,11,7.42632,11,7s-.3169-.91741-1.06084-1.33069C9.2122,5.26544,8.17403,5,7,5s-2.2122.26544-2.93916.66931zM12,7c0-.95439-.6904-1.7133-1.5752-2.20485C9.52309,4.2942,8.31125,4,7,4s-2.52309.2942-3.4248.79515C2.69042,5.2867,2,6.04561,2,7v12c0,.9544.69042,1.7133,1.57519,2.2048C4.47691,21.7058,5.68874,22,7,22c1.1673,0,2.31442-.0978,3.2238-.5529l-.44756-.8942C9.09073,20.8959,8.14825,21,7,21c-1.17403,0-2.2122-.2654-2.93916-.6693C3.31694,19.9174,3,19.4263,3,19v-1.1771c.17733.1409.37109.2685.57519.3819C4.47691,18.7058,5.68874,19,7,19c1.1673,0,2.31442-.0978,3.2238-.5529l-.44756-.8942C9.09073,17.8959,8.14825,18,7,18c-1.17403,0-2.2122-.2655-2.93916-.6693C3.31694,16.9174,3,16.4263,3,16v-1.1771c.17733.1409.37109.2685.57519.3819C4.47691,15.7058,5.68874,16,7,16c1.1673,0,2.31442-.0978,3.2238-.5529l-.44756-.8942C9.09073,14.8959,8.14825,15,7,15c-1.17403,0-2.2122-.2655-2.93916-.6693C3.31694,13.9174,3,13.4263,3,13v-1.1771c.17733.1409.37109.2685.57519.3819C4.47691,12.7058,5.68874,13,7,13c1.1673,0,2.31442-.0978,3.2238-.5529l-.44756-.8942C9.09073,11.8959,8.14825,12,7,12c-1.17403,0-2.2122-.2655-2.93916-.6693C3.31694,10.9174,3,10.4263,3,10V8.82287c.17733.14096.37109.26858.5752.38198C4.47691,9.7058,5.68875,10,7,10s2.52309-.2942,3.4248-.79515c.2041-.1134.3979-.24102.5752-.38198V10h1V7zm1.0608,4.6693C12.3169,12.0826,12,12.5737,12,13s.3169.9174,1.0608,1.3307C13.7878,14.7346,14.826,15,16,15s2.2122-.2654,2.9392-.6693C19.6831,13.9174,20,13.4263,20,13s-.3169-.9174-1.0608-1.3307C18.2122,11.2654,17.174,11,16,11s-2.2122.2654-2.9392.6693zm6.364,3.5355c.2041-.1133.3979-.241.5752-.3819V16c0,.4263-.3169.9174-1.0608,1.3307C18.2122,17.7346,17.174,18,16,18s-2.2122-.2654-2.9392-.6693C12.3169,16.9174,12,16.4263,12,16v-1.1771c.1773.1409.3711.2686.5752.3819C13.4769,15.7058,14.6887,16,16,16s2.5231-.2942,3.4248-.7952zM21,13v6c0,.9544-.6904,1.7133-1.5752,2.2048C18.5231,21.7058,17.3113,22,16,22s-2.5231-.2942-3.4248-.7952C11.6904,20.7133,11,19.9544,11,19v-6c0-.9544.6904-1.7133,1.5752-2.2048C13.4769,10.2942,14.6887,10,16,10s2.5231.2942,3.4248.7952C20.3096,11.2867,21,12.0456,21,13zm-1.5752,5.2048c.2041-.1133.3979-.241.5752-.3819V19c0,.4263-.3169.9174-1.0608,1.3307C18.2122,20.7346,17.174,21,16,21s-2.2122-.2654-2.9392-.6693C12.3169,19.9174,12,19.4263,12,19v-1.1771c.1773.1409.3711.2686.5752.3819C13.4769,18.7058,14.6887,19,16,19s2.5231-.2942,3.4248-.7952z"/></svg>