<svg width="59" height="20" viewBox="0,0,59,20" xmlns="http://www.w3.org/2000/svg"><path fill-rule="evenodd" clip-rule="evenodd" d="m2,0C.89543,0,0,.895431,0,2v16c0,1.1046.895431,2,2,2h55c1.1046,0,2-.8954,2-2V2c0-1.104569-.8954-2-2-2H2z" fill="#eb0000"/><path d="m42.2923,4.23535V15.8h-2.302V8.23008h-2.7119V6.55313c.4639-.00275.9257-.06117,1.3757-.17403.3529-.0993.6834-.2658.9736-.49043.4257-.32695.7121-.87806.8593-1.65332h1.8053zm11.0683,0v1.96172c-.063.06855-.2496.28216-.5597.64082-.4889.5794-.9194,1.20604-1.285,1.8707-.3971.68878-.7296,1.41301-.9933,2.16351-.5281,1.5926-.8332,3.2511-.9066,4.9279h-2.3808c.0325-.98.1848-1.9523.4532-2.8951.2991-1.0937.6962-2.1581,1.1865-3.1799.7201-1.49766,1.4506-2.61296,2.1916-3.3459H45.627V4.23535h7.7336zm-44.14066-.0354h4.05626L8.2582,15.8H4.18521L9.21994,4.19995zM25.9805,12.3662c.3665,0,.6985-.2172.8463-.5537l3.2923-7.61255h-14.135L10.9661,15.8h4.0383l3.7988-8.69045h5.9937l-1.2014,2.77546-5.2259-.01902L22.5865,15.8h4.5973l-3.1239-3.4338h1.9206z" fill="#fff"/></svg>