<svg width="48" height="48" viewBox="0,0,48,48" xmlns="http://www.w3.org/2000/svg"><path fill-rule="evenodd" clip-rule="evenodd" d="m5,6h20V5H5v1zm13,28V17h-1v17h1zm-3-23V9H2v1h12v29H2v1h1.02785c.11285,1.0095.56497,1.9568,1.29017,2.682.1089.1089.22281.2116.34119.308H2v1h5.19989c.09959.0066.19968.01.30011.01s.20052-.0034.30011-.01H28.1999c.0996.0066.1997.01.3001.01s.2005-.0034.3001-.01H46v-1H31.3408c.1184-.0964.2323-.1991.3412-.308.7252-.7252,1.1773-1.6725,1.2901-2.682h.5337c2.0241.0341,4.0302-.3845,5.8718-1.2251l.0001.0001.0109-.0053c1.4534-.7064,2.5916-1.929,3.1925-3.4292.6007-1.4996.6214-3.1691.0581-4.6832-1.0877-2.9774-2.7754-7.2961-4.562-11.1393-.8932-1.9212-1.8152-3.7327-2.7032-5.2015-.8682-1.4359-1.7406-2.6082-2.5594-3.206-.7848-.6999-1.9699-1.15599-3.236-1.46351-1.292-.31384-2.7363-.48842-4.0784-.5832-1.3444-.09495-2.5995-.11068-3.5176-.10279-.4595.00395-.8355.01382-1.0972.02273-.1309.00446-.2333.00868-.3033.01181l-.0802.00376-.0211.00106-.0056.0003-.0015.00008-.0005.00002c-.0001.00001-.0002.00002.0268.49928l-.027-.49926L20,9.02637V11h-5zm16.9641,29h-6.9282c.1073.7434.4519,1.4375.9892,1.9749.5937.5937,1.3788.9521,2.2103,1.0151h.5292c.8315-.063,1.6166-.4214,2.2103-1.0151.5373-.5374.8819-1.2315.9892-1.9749zm-6.3049,2.99c-.1184-.0964-.2323-.1991-.3412-.308-.7252-.7252-1.1773-1.6725-1.2901-2.682H11.9721c-.1128,1.0095-.5649,1.9568-1.2901,2.682-.1089.1089-.2228.2116-.3412.308h15.3184zM5.02513,41.9749c-.53736-.5374-.88194-1.2315-.98924-1.9749h6.92821c-.1073.7434-.4519,1.4375-.98923,1.9749-.59372.5937-1.37878.9521-2.21025,1.0151h-.52924c-.83147-.063-1.61653-.4214-2.21025-1.0151zM20,12h-5v27h5V12zm10.1621,6.0052c-.0051-.0034-.0111-.0053-.0172-.0052H25v11h9.6094v.0001c.0151.0003.0301-.0032.0435-.0103.0134-.007.0248-.0173.0332-.03.0084-.0126.0134-.0271.0147-.0422.0012-.0151-.0014-.0303-.0075-.0441l-.005-.0112.0001-.0001-4.51-10.83-.0054-.0129.0002-.0001c-.0022-.0057-.0061-.0106-.0111-.014zM30.1379,17c.2091-.0015.4136.0607.5865.1783.1714.1165.3036.2821.3794.4749l4.5058,10.8198c.0726.1658.1027.3471.0877.5275-.0152.1828-.0763.3588-.1776.5117s-.2396.2778-.402.363c-.1608.0845-.3401.1273-.5217.1248H24V17h6.1379zM21,39V9.9805c.2489-.0079.5867-.01606.9912-.01954.9006-.00773,2.128.00779,3.4386.10034,1.3129.0927,2.6961.2619,3.9128.5574,1.2313.2991,2.2263.7126,2.8217,1.2519l.0211.0191.0231.0166c.6445.4625,1.4363,1.4829,2.3097,2.9276.8617,1.4253,1.7665,3.2006,2.6521,5.1057,1.7707,3.8088,3.4478,8.0994,4.5301,11.062l.001.0029c.4772,1.2815.4599,2.6948-.0486,3.9642-.5077,1.2676-1.4687,2.3009-2.696,2.899-1.7058.7777-3.5638,1.1646-5.4382,1.1324V39H21zM2,17.05h9.05c.252,0,.4936.1001.6718.2783.1781.1782.2782.4198.2782.6717v11.05c0,.252-.1001.4936-.2782.6718C11.5436,29.9,11.302,30,11.05,30H2v-1h9V18.05H2v-1z"/></svg>