<svg width="36" height="36" viewBox="0,0,36,36" xmlns="http://www.w3.org/2000/svg"><path fill-rule="evenodd" clip-rule="evenodd" d="m18.3417,4.13529-.3419-.32059-.342.3206c-3.0549,2.86398-4.6179,5.61895-5.2076,8.162-.5901,2.5448-.1946,4.8309.587,6.7363.7795,1.9001,1.9444,3.4259,2.907,4.4729.4825.5247.9174.9325,1.2331,1.2103.158.1389.2864.2456.3764.3183.045.0364.0804.0643.1051.0835l.0289.0223.0082.0062.0025.0019.0008.0006c.0003.0003.0006.0005.3006-.3995l-.3.4.3.225.3-.225-.3-.4c.3.4.3002.3998.3005.3995l.0009-.0006.0025-.0019.0082-.0062.0289-.0223c.0247-.0192.0601-.0471.1051-.0835.09-.0727.2184-.1794.3763-.3183.3158-.2778.7506-.6856,1.2332-1.2103.9627-1.047,2.1275-2.5728,2.907-4.4729.7817-1.9054,1.1771-4.1915.587-6.7363-.5897-2.54306-2.1527-5.29803-5.2077-8.16201zm-.18,19.83071c-.0588.0517-.113.0984-.1619.14-.0489-.0416-.1031-.0883-.1619-.14-.2937-.2584-.7026-.6416-1.1576-1.1364-.9123-.9921-1.9974-2.4194-2.7179-4.1756-.7183-1.7509-1.0729-3.8241-.538-6.1308.5142-2.2174,1.8602-4.69328,4.5754-7.332,2.7153,2.63872,4.0613,5.1146,4.5755,7.332.5349,2.3067.1803,4.3799-.538,6.1308-.7205,1.7562-1.8057,3.1835-2.718,4.1756-.455.4948-.864.878-1.1576,1.1364zm-7.4859-13.6231c-1.63809-.63217-3.38907-.94446-5.16237-.88827l-.39188.01242-.08139.38353C3.54032,16.9179,8.00551,23.8794,15.0575,25.4588l.2185-.9758c-6.3872-1.4306-10.47849-7.6389-9.3339-14.0348,1.49926.0027,2.97872.2893,4.3736.8276l.3601-.9329zM31.8958,19.0248c.8819.4861,1.7046,1.0689,2.4555,1.7388l.2932.2616-.1848.3467c-2.616,4.9077-8.0258,7.6516-13.5307,6.8628l.1419-.9899c4.9564.7102,9.8295-1.678,12.3135-5.9952-.612-.5118-1.2715-.9633-1.9713-1.349l.4827-.8758zM1.64867,20.7643c.75113-.6701,1.57525-1.2527,2.45515-1.7386l.4834.8754c-.69891.386-1.35943.8376-1.9716,1.3493,2.48394,4.317,7.35699,6.704,12.31358,5.9951l.1416.9899c-5.50468.7873-10.91445-1.9549-13.53051-6.8628l-.18482-.3467.2932-.2616zM30.058,10.4482c-1.4993.0027-2.9787.2893-4.3736.8276l-.3601-.9329c1.6381-.63217,3.3891-.94446,5.1624-.88827l.3918.01242.0814.38353c1.4999,7.06732-2.9653,14.02882-10.0173,15.60822l-.2185-.9758c6.3872-1.4306,10.4785-7.6389,9.3339-14.0348z"/></svg>