<svg width="28" height="16" viewBox="0,0,28,16" xmlns="http://www.w3.org/2000/svg"><path fill-rule="evenodd" clip-rule="evenodd" d="m22,2.99998c1.3729-.05423,2.7317.29331,3.91,1l.7-2.42c-1.4937-.53836-3.0724-.802598-4.66-.779999-5.04,0-8.38,3.139999-8.38,8.239999,0,4.32002,2.74,6.20002,6.84,6.20002,1.2727.0056,2.5372-.204,3.74-.62l1.6-7.62002h-5.66l-.5,2.16h3L21.81,12.86c-.4469.1339-.9153.1815-1.38.14-.5273.0125-1.0516-.0827-1.5409-.2797s-.9333-.4916-1.3049-.866c-.3715-.3744-.6629-.8206-.8562-1.3113-.1933-.4908-.2845-1.01582-.268-1.54302,0-3.34,2.14-6,5.54-6zM1.39,15h2.8l1.12-5.38h1.62c3.12,0,5.9-1.52,5.9-5S9.29,1,6.71,1H4.39l-3,14zm5.4-7.5h-1l.9-4.26h.88c1.2,0,2.34.3,2.34,1.72,0,1.74-1.58,2.54-3.12,2.54z"/></svg>