<svg width="14" height="16" viewBox="0,0,14,16" xmlns="http://www.w3.org/2000/svg"><path fill-rule="evenodd" clip-rule="evenodd" d="m5.42193,13.783c-1.74097,0-3.15926-1.365-3.15926-3.045,0-1.67799,1.41829-3.04199,3.15926-3.04199v-1.218C2.98375,6.47801,1,8.38901,1,10.738,1,13.088,2.98375,15,5.42193,15c2.43714,0,4.42089-1.912,4.42089-4.262H8.58015c0,1.68-1.4183,3.045-3.15822,3.045zM9.212,8.30401v-3.653H6.05274V10.13h5.68356v3.653H13V8.30401H9.212zM6.05274,2.52702c-.00415-.84.69929-1.525,1.57289-1.527.87048-.004002,1.58222.674,1.58637,1.515.00415.83999-.70137,1.52299-1.57289,1.52699-.87255.004-1.58222-.674-1.58637-1.51499z"/></svg>