<svg width="24" height="24" viewBox="0,0,24,24" xmlns="http://www.w3.org/2000/svg"><path fill-rule="evenodd" clip-rule="evenodd" d="m13.8425,5.99985H14c.2825,0,.5533.09316.7487.30731.1882.2063.2513.46462.2513.69269v2c0,.2718-.0907.53606-.294.7312-.2.19192-.4587.2688-.706.2688h-1.9639c-.0994.19885-.2134.38745-.3407.56365.5456.3064,1.031.669,1.4665,1.0675l-.675.7378c-.4455-.4077-.9437-.7671-1.5096-1.0557-.5526.431-1.22767.6867-1.97738.6867-.75077,0-1.42664-.2564-1.97968-.6885-2.33789,1.1681-3.85424,3.7125-4.00742,6.6886H11v1H2v-.5c0-3.3841,1.60084-6.4507,4.30152-7.9405-.12609-.175-.23907-.3623-.33765-.55955H4c-.26999,0-.51429-.12065-.68646-.28528C3.13825,9.54696,3,9.29725,3,8.99985V7.00574c0-.29305.1348-.5426.30725-.71188.17014-.16701.41577-.29401.69275-.29401h.07492c1.3883-5.377021,8.61048-5.218336,9.76758,0zm-1.0308,0c-1.061-3.86291-6.43184-4.06596-7.69726,0h.84943c.58923-1.17906,1.69274-2,3.03605-2,1.34328,0,2.44688.82093,3.03618,2h.7756zm-6.3117,2c0-1.74136,1.17198-3,2.49992-3,1.32798,0,2.50008,1.25868,2.50008,3,0,.35567-.0489.69121-.138,1H9v1h1.8708c-.4668.62455-1.14557.99995-1.87088.99995C7.67198,10.9998,6.5,9.7412,6.5,7.99985zM4,8.98682V7.01671c.00158-.00236.00409-.0056.00776-.00921.00294-.00289.00598-.00535.00878-.00728l.00056-.00037H5v2h-.98496l-.002-.00128c-.00282-.00189-.00571-.00419-.0084-.00675-.00197-.00189-.00349-.00359-.00464-.005zm9,.01303h1v-2h-1v2zm-1,3.99995h10v7h-4v1h2v1h-6v-1h2v-1h-4v-7zm1,1v5h8v-5h-8z"/></svg>