<svg width="48" height="48" viewBox="0,0,48,48" xmlns="http://www.w3.org/2000/svg"><path fill-rule="evenodd" clip-rule="evenodd" d="m8.5,4H8v40.0004h33.0004V4H8.5zm.5,6.3039V5h31.0004v8H9v-2.6961zM9,14h31.0004v29.0004H9V14zm8.0047,14.2314c.1228.1255.25.305.4101.5456l.0341.0513c.3036.4585.7761,1.1717,1.7132,1.1717.9378,0,1.4106-.713,1.7147-1.1716l.034-.0512c.3635-.5455.5573-.7772.9165-.7772.3593,0,.5532.2318.9167.7773l.034.0512c.3042.4586.777,1.1715,1.7148,1.1715.9379,0,1.4109-.7129,1.7152-1.1715l.034-.0512c.3635-.5454.5575-.7773.917-.7773.361,0,.5555.2325.9194.7776l.034.051c.3049.4589.7784,1.1714,1.7171,1.1714s1.4122-.7125,1.7171-1.1714l.034-.051c.1619-.2424.2902-.423.4146-.5489.0032.0901.0048.1805.0048.2713,0,4.1421-3.3579,7.5-7.5,7.5S17,32.6421,17,28.5c0-.0899.0016-.1795.0047-.2686zm.1218-1.1103c.5388.2233.8599.708,1.0868,1.0506l.034.0513c.3632.5457.5567.777.9148.777.3592,0,.5531-.2317.9165-.7772l.034-.0512c.3042-.4586.777-1.1716,1.7147-1.1716.9378,0,1.4106.7129,1.7148,1.1715l.034.0512c.3635.5455.5574.7773.9167.7773.3595,0,.5535-.2319.9171-.7773l.034-.0512C25.7482,27.7129,26.2211,27,27.159,27c.9387,0,1.4122.7125,1.7171,1.1714l.034.051c.3639.5451.5584.7776.9194.7776s.5555-.2325.9194-.7776l.034-.051c.2279-.3431.5501-.8279,1.0905-1.0508C31.2259,23.6373,28.1709,21,24.5,21c-3.6711,0-6.7262,2.6376-7.3735,6.1211zM12,9c0-.55228.4477-1,1-1s1,.44772,1,1c0,.55229-.4477,1-1,1s-1-.44771-1-1zm1-2c-1.1046,0-2,.89543-2,2,0,1.1046.8954,2,2,2s2-.8954,2-2c0-1.10457-.8954-2-2-2zm19.0005,1h-4V7h4v1zm2,0h4V7h-4v1zm-2,3h-4v-1h4v1zm2,0h4v-1h-4v1zM24.5,18.0625c-5.799,0-10.5,4.701-10.5,10.5s4.701,10.5,10.5,10.5,10.5-4.701,10.5-10.5-4.701-10.5-10.5-10.5zm-11.5,10.5c0-6.3513,5.1487-11.5,11.5-11.5s11.5,5.1487,11.5,11.5-5.1487,11.5-11.5,11.5S13,34.9138,13,28.5625zM24.5,20c-4.6944,0-8.5,3.8056-8.5,8.5s3.8056,8.5,8.5,8.5,8.5-3.8056,8.5-8.5S29.1944,20,24.5,20z"/></svg>