<svg width="48" height="48" viewBox="0,0,48,48" xmlns="http://www.w3.org/2000/svg"><path fill-rule="evenodd" clip-rule="evenodd" d="m34.1794,6c-.1001-.0001-.198.02988-.2809.08604s-.147.13593-.1841.22896l-.0002.0007-1.3945,3.48605c.5845.25665,1.1434.57235,1.6676.94325l2.0042-4.33662c-.0184-.09854-.0661-.19005-.138-.26193C35.7597,6.05268,35.6325,6,35.4999,6h-1.3205zm1.0381,5.7825c-.1376-.1376-.2789-.2705-.4238-.3987L36,8.7736v3.8954c-.2409-.3099-.502-.6061-.7825-.8865zM32.7854,5.945l-1.4013,3.50335c-.4512-.14377-.9138-.25402-1.3841-.32922V8.5c0-.92826-.3687-1.8185-1.0251-2.47487C28.3185,5.36875,27.4283,5,26.5,5h-4c-.9283,0-1.8185.36875-2.4749,1.02513C19.3687,6.6815,19,7.57174,19,8.5v.61913c-.4703.0752-.9329.18546-1.3841.32924L16.2145,5.945l-.0002-.00046c-.1112-.2789-.3035-.51802-.5521-.68642-.2486-.16844-.5421-.25836-.8424-.25812H13.5c-.3978,0-.7794.15804-1.0607.43934C12.158,5.72065,12,6.10218,12,6.5v7.7573c-.6516,1.3056-1,2.7562-1,4.2427V44h27V18.5c0-1.4865-.3484-2.9371-1-4.2427V6.5h-.0001c0-.39782-.158-.77935-.4393-1.06066C36.2793,5.15804,35.8977,5,35.4999,5h-1.3195l-.0005.5V5h.0002c-.3003-.00024-.5938.08968-.8424.25812-.2486.16842-.441.40757-.5521.6865l-.0002.00038zm-17.4996.3707,1.3944,3.48608c-.5845.25662-1.1434.57232-1.6675.94322l-2.0042-4.33663c.0183-.09854.0661-.19005.1379-.26192C13.2402,6.05268,13.3674,6,13.5,6h1.3205c.1001-.0001.198.02988.2809.08604s.147.13593.1841.22896l.0003.0007zm-1.0795,5.0682L13,8.77374V12.669c.2409-.3099.502-.6061.7825-.8865.1375-.1376.2789-.2705.4238-.3986zM29,8.5v.51315C28.8339,9.00441,28.6672,9,28.5,9H28v-.5c0-.39782-.158-.77935-.4393-1.06066C27.2794,7.15804,26.8978,7,26.5,7h-4c-.3978,0-.7794.15804-1.0607.43934C21.158,7.72065,21,8.10218,21,8.5V9h-.5c-.1672,0-.3339.00441-.5.01315V8.5c0-.66304.2634-1.29893.7322-1.76777C21.2011,6.26339,21.837,6,22.5,6h4c.663,0,1.2989.26339,1.7678.73223C28.7366,7.20107,29,7.83696,29,8.5zM22,9v-.5c0-.13261.0527-.25979.1464-.35355C22.2402,8.05268,22.3674,8,22.5,8h4c.1326,0,.2598.05268.3536.14645.0937.09376.1464.22094.1464.35355V9h-5zm-1.5,1c-2.2543,0-4.4163.8955-6.0104,2.4896S12,16.2457,12,18.5V43h25V18.5c0-2.2543-.8955-4.4163-2.4896-6.0104S30.7543,10,28.5,10h-8zm-2.99,18c-.663,0-1.2989.2634-1.7678.7322-.4688.4689-.7322,1.1048-.7322,1.7678v.5h19v-.5c0-.663-.2634-1.2989-.7322-1.7678C32.8089,28.2634,32.1731,28,31.51,28h-14zM29,32H15.01v8h19v-8H32v3.5c0,.3978-.158.7794-.4393,1.0607S30.8978,37,30.5,37s-.7794-.158-1.0607-.4393S29,35.8978,29,35.5V32zm1,0v3.5c0,.1326.0527.2598.1464.3536.0938.0937.221.1464.3536.1464s.2598-.0527.3536-.1464c.0937-.0938.1464-.221.1464-.3536V32h-1zm-14.9649-3.9749C15.6915,27.3687,16.5818,27,17.51,27h14c.9283,0,1.8185.3687,2.4749,1.0251S35.01,29.5717,35.01,30.5V41h-21V30.5c0-.9283.3688-1.8185,1.0251-2.4749zM20,14c-.2652,0-.5196.1054-.7071.2929S19,14.7348,19,15v1h11v-1c0-.2652-.1054-.5196-.2929-.7071S29.2652,14,29,14h-9zm10,3v4H19v-4h8v2h1v-2h2zm-11.4142-3.4142C18.9609,13.2107,19.4696,13,20,13h9c.5304,0,1.0391.2107,1.4142.5858S31,14.4696,31,15v7H18v-7c0-.5304.2107-1.0391.5858-1.4142z"/></svg>