<svg width="36" height="36" viewBox="0,0,36,36" xmlns="http://www.w3.org/2000/svg"><path fill-rule="evenodd" clip-rule="evenodd" d="m11.75,18c0-3.4739,2.7761-6.25,6.25-6.25s6.25,2.7761,6.25,6.25c0,2.3246-1.349,4.5108-3.2209,5.5h-6.0438C13.082,22.3632,11.75,20.3044,11.75,18zm2,5.8701c-1.7835-1.356-3-3.4832-3-5.8701,0-4.0261,3.2239-7.25,7.25-7.25s7.25,3.2239,7.25,7.25c0,2.3667-1.2009,4.6161-3,5.9152v3.5895l-.3348.1172-2.6652.9328V29.75h-2.5v-1.1953l-2.6652-.9328-.3348-.1172v-3.6346zm1,2.9252V24.5h6.5v2.2953l-2.6652.9328-.3348.1172v.9047h-.5v-.9047l-.3348-.1172-2.6652-.9328z"/></svg>