<svg width="36" height="36" viewBox="0,0,36,36" xmlns="http://www.w3.org/2000/svg"><path fill-rule="evenodd" clip-rule="evenodd" d="m21.9674,9.83878c.7429.42612,1.3779,1.05402,1.796,1.85242.4814.9192.6622,2.0395.4164,3.2933.7898.1183,1.42.5158,1.8575,1.0811.0957.1237.1815.2544.2575.3908,1.4574-.5859,2.4552-1.9938,2.4552-3.7064,0-2.2604-1.7396-4-4-4-1.101,0-2.0736.41147-2.7826,1.08878zm4.6799,7.55372c.0865.3875.1123.7924.079,1.1931-.075.9039-.4532,1.8219-1.1639,2.5169-.7171.7012-1.745,1.148-3.0622,1.148h-10.5c-1.3749,0-2.41685-.4424-3.12471-1.1556-.70164-.707-1.03355-1.6382-1.0731-2.5477-.0394-.9059.20926-1.825.71355-2.5298.41624-.5818,1.01426-1.024,1.75756-1.1673.0073-2.8023,2.9424-4.3592,5.1347-3.1338,1.2807-2.28242,3.6258-2.90953,5.5822-2.30282C21.9009,8.3817,23.2392,7.75,24.75,7.75c2.8126,0,5,2.18736,5,5,0,2.1319-1.2585,3.9108-3.1027,4.6425zm-10.5897-4.7402c1.0103-2.2899,3.1239-2.83702,4.8096-2.2255.8487.3078,1.5807.9079,2.0103,1.7283.4264.8142.5723,1.8785.1934,3.1529l-.1992.67.6985-.0279c.7772-.0311,1.3244.2729,1.6763.7275.3631.4692.5408,1.1319.4833,1.8252-.0573.6899-.3453,1.375-.8666,1.8847-.5149.5035-1.2848.863-2.363.863h-10.5c-1.1504,0-1.9225-.3639-2.41494-.8601-.49865-.5024-.75324-1.1836-.78381-1.8867-.03073-.7065.16687-1.4.52779-1.9045.35478-.4959.85516-.7987,1.47096-.7987h.5633l-.0669-.5593c-.2954-2.4728,2.3589-3.7373,3.9867-2.4039l.5089.4167.2654-.6017z"/></svg>