<svg width="26" height="16" viewBox="0,0,26,16" xmlns="http://www.w3.org/2000/svg"><path fill-rule="evenodd" clip-rule="evenodd" d="m20.3812,3.13252c1.46,0,2.801.29177,3.881.9703l.7-2.34674C23.5012,1.21325,21.8622,1,20.3012,1c-5.041,0-8.382,3.04369-8.382,7.9892,0,4.1875,2.74,6.0108,6.841,6.0108,1.36,0,2.921-.2714,3.741-.601l1.601-7.3882h-5.661l-.46,2.13349h2.96l-.781,3.58651c-.319.1367-.74.1367-1.379.1367-2.381,0-3.941-1.7652-3.941-3.95585,0-3.19975,2.14-5.77913,5.541-5.77913zM12.261,1.23275H1.479L1,3.36527h3.94L2.4,14.7675h2.92L7.861,3.36527h3.94l.46-2.13252z"/></svg>