<svg width="48" height="48" viewBox="0,0,48,48" xmlns="http://www.w3.org/2000/svg"><path fill-rule="evenodd" clip-rule="evenodd" d="m45.6465,45.3536L40.2929,40H5.50004c-.66304,0-1.29893-.2634-1.76777-.7322s-.73223-1.1047-.73223-1.7678v-22c0-.663.26339-1.2989.73223-1.7677C4.20111,13.2634,4.837,13,5.50004,13h7.79286L2.64648,2.35359l.70711-.70711L46.3536,44.6465l-.7071.7071zM14.2929,14,35,34.7071V39H13V14h1.2929zM36,39v-3.2929l2,2V39h-2zm3,0v-.2929l.2929.2929H39zM12,14v25h-2V14h2zM5.50004,39h3.5V14h-3.5c-.39783,0-.77936.1581-1.06066.4394-.28131.2813-.43934.6628-.43934,1.0606v22c0,.3979.15803.7794.43934,1.0607.2813.2813.66283.4393,1.06066.4393zM39,14h3.5c.3979,0,.7794.1581,1.0607.4394S44,15.1022,44,15.5v22h-.0001l.0003.0128c.0088.3457-.102.6839-.3139.9572-.2118.2734-.5116.4651-.8486.5428l.2247.9745c.5616-.1295,1.0613-.4491,1.4143-.9047.3517-.4538.5365-1.0147.5233-1.5886V15.5c0-.663-.2634-1.2989-.7322-1.7677C43.799,13.2634,43.1631,13,42.5,13H31V9.50004c0-.66304-.2634-1.29893-.7322-1.76777s-1.1047-.73223-1.7678-.73223h-9c-.663,0-1.2989.26339-1.7677.73223C17.2634,8.20111,17,8.837,17,9.50004V14h18v18h1V14h2v21h1V14zm-21-1h1v-2.5c0-.3978.1581-.77932.4394-1.06062.2813-.28131.6628-.43934,1.0606-.43934h7c.3979,0,.7794.15803,1.0607.43934C28.842,9.72068,29,10.1022,29,10.5V13h1V9.50004c0-.39783-.158-.77936-.4393-1.06066-.2813-.28131-.6628-.43934-1.0607-.43934h-9c-.3978,0-.7793.15803-1.0606.43934-.2813.2813-.4394.66283-.4394,1.06066V13zm10-2.5V13h-8v-2.5c0-.1326.0527-.2597.1465-.3535S20.3674,10,20.5,10h7c.1326,0,.2598.0527.3536.1465S28,10.3674,28,10.5z"/></svg>