<svg width="36" height="36" viewBox="0,0,36,36" xmlns="http://www.w3.org/2000/svg"><path fill-rule="evenodd" clip-rule="evenodd" d="m3.10022,17.9995c0-5.0613,1.53687-8.76269,3.54466-11.54271l.81068.58549C5.56335,9.66226,4.10022,13.1609,4.10022,17.9995c0,4.8327,1.45943,8.1875,3.36258,10.9676l-.82516.5649c-1.99685-2.917-3.53742-6.4652-3.53742-11.5325zM9.2533,21.746c0-2.5234,1.4591-4.7219,3.5702-5.7961l.4535.8913c-1.7918.9117-3.0237,2.7753-3.0237,4.9048,0,3.0237,2.479,5.5,5.5,5.5,2.1875,0,4.0938-1.298,4.978-3.1682l.904.4274c-1.0419,2.2039-3.2905,3.7408-5.882,3.7408-3.573,0-6.5-2.9237-6.5-6.5zm23.3476-3.7465c0-5.0673-1.5406-8.61405-3.5389-11.53246l-.8251.56498c1.9046,2.7816,3.364,6.13488,3.364,10.96748,0,4.8387-1.4631,8.3372-3.3567,10.9571l.8104.5858c2.0094-2.7801,3.5463-6.4815,3.5463-11.5429zM15.25,20.2495v-8.25h1v7.75h7.5v8.75h-1v-7.75h-7.5v-.5zM15.5,9.00026c0-.13785.1121-.25.25-.25s.25.11215.25.25c0,.13786-.1121.25-.25.25s-.25-.11214-.25-.25zm.25-1.25c-.6901,0-1.25.55986-1.25,1.25,0,.69015.5599,1.25004,1.25,1.25004S17,9.69041,17,9.00026c0-.69014-.5599-1.25-1.25-1.25z"/></svg>