<svg width="36" height="36" xmlns="http://www.w3.org/2000/svg"><path fill-rule="evenodd" clip-rule="evenodd" d="m26.0432,16.0631c-.4405-.5642-1.0729-.9613-1.8634-1.0795.2458-1.2538.065-2.374-.4164-3.2932-.5547-1.0594-1.4915-1.81863-2.5552-2.20451-1.9973-.72449-4.4714-.13818-5.7999,2.22951-2.1914-1.2253-5.1273.3318-5.1348,3.1339-.74329.1433-1.34132.5855-1.75756,1.1673-.50429.7048-.75295,1.6239-.71355,2.5298.03955.9095.37146,1.8407,1.0731,2.5477.70786.7132,1.74981,1.1556,3.12471,1.1556v-1c-1.1504,0-1.9225-.3639-2.41494-.8601-.49865-.5024-.75324-1.1836-.78381-1.8867-.03073-.7065.16687-1.4.52779-1.9045.35478-.4959.85516-.7987,1.47096-.7987h.5633l-.0669-.5593c-.2954-2.4729,2.3603-3.7371,3.9866-2.404l.5089.4171.2655-.602c1.0103-2.2899,3.1239-2.83702,4.8096-2.2255.8487.3078,1.5807.9079,2.0103,1.7283.4264.8142.5723,1.8785.1934,3.1529l-.1992.67.6985-.0279c.7774-.0311,1.3287.2731,1.6847.7292.3671.4701.5486,1.1332.4938,1.8255-.0544.6889-.3406,1.3729-.8633,1.882-.5165.5032-1.2927.8637-2.3852.8637v1c1.3284,0,2.3627-.4458,3.083-1.1473.714-.6956,1.0909-1.6147,1.1624-2.5196.0713-.9014-.1583-1.8227-.7024-2.5197zM17.25,19.7499h-.2071l-5.5,5.5h3.9572l-1.8916,2.5226-2.4531,3.2712,3.169-2.5837,4.995-4.0725,1.0886-.8876h-3.4509l3.75-3.75H17.25zm-.35,5.3.4124-.55h.2866l-.7374.6012.0384-.0512zm-2.9429-.8h.8358l3.5-3.5h-.8358l-3.5,3.5z"/></svg>