<svg width="24" height="24" xmlns="http://www.w3.org/2000/svg"><path fill-rule="evenodd" clip-rule="evenodd" d="m22.5,0h-21C.675,0,0,.675,0,1.5v21c0,.825.675,1.5,1.5,1.5h21c.825,0,1.5-.675,1.5-1.5v-21c0-.825-.675-1.5-1.5-1.5z" fill="#237f52"/><path fill-rule="evenodd" clip-rule="evenodd" d="m4.06494,3v16.755L5.30994,21h3.7875l-.5475-.585c-.255-.2775-.135-.6075.2775-.735s.9525-.0075,1.20746.2625l.99,1.0575h6.0225l-1.2375-1.245V15.39h3.0825c.57,0,1.035-.465,1.035-1.035s-.465-1.035-1.035-1.035h-3.0825V3H4.06494zm3.1425,2.9625c0,.7425-.6075,1.35-1.35,1.35s-1.35-.6075-1.35-1.35.6075-1.35,1.35-1.35,1.35.6075,1.35,1.35zm-2.37,4.935c-.285,0-.5175.2325-.5175.5175s.2325.5175.525.51h2.46c.285,0,.5175-.2325.5175-.5175V9.465l2.27996,2.28-2.07746,2.0775c-.1275.135-.2025.3075-.2025.495V18.51c0,.3825.3075.69.69.69s.69-.3075.69-.69V14.7l2.60996-2.6025,2.7525,2.7525c.1275.135.3075.2025.4875.2025h3.8475c.3825,0,.69-.3075.69-.69s-.3075-.69-.69-.69h-3.4725l-5.92496-5.925h1.37246l1.9275,1.9275c.09.09.2175.1425.345.1425.27,0,.4875-.2175.4875-.4875,0-.135-.0525-.255-.1425-.345l-2.04-2.04c-.1275-.1275-.3075-.2025-.4875-.2025H8.54244c-.96,0-1.7325.78-1.7325,1.7325v2.4225h-1.9725z" fill="#fff"/></svg>