<svg width="59" height="20" xmlns="http://www.w3.org/2000/svg"><path fill-rule="evenodd" clip-rule="evenodd" d="m2,0C.89543,0,0,.895431,0,2v16c0,1.1046.895431,2,2,2h55c1.1046,0,2-.8954,2-2V2c0-1.104569-.8954-2-2-2H2z" fill="#eb0000"/><path d="m44.6652,13.7433V15.8h-8.3013c-.0027-.6116.1-1.2191.3036-1.7956.1862-.5419.4768-1.0418.8553-1.4712.3054-.3366.639-.6463.9972-.9256.381-.3006,1.1392-.8517,2.2744-1.65316.4476-.28587.8401-.65028,1.1589-1.07578.2238-.3427.3392-.74524.3311-1.15488.0196-.45301-.1405-.89533-.4454-1.23008-.3054-.31734-.7314-.48862-1.1707-.47071-1.1878,0-1.8.85697-1.8368,2.5709h-2.2153v-.25312c0-1.40273.3916-2.48906,1.1746-3.25898.762-.74883,1.7474-1.12325,2.9563-1.12325.9776-.03274,1.9334.29352,2.6883.91758.7831.66446,1.1746,1.55827,1.1746,2.68145.018.93249-.3173,1.83711-.9381,2.53123-.1747.203-.3673.3896-.5755.5576-.1787.1399-.6491.4761-1.4111,1.0086-.7253.5063-1.2443.8939-1.5571,1.1629-.3211.2778-.6129.5879-.871.9254h5.408zm8.4037-9.50795V6.292h-4.6433l-.4967,2.60254c.5527-.58894,1.3307-.91156,2.1364-.88594.7957-.01745,1.5756.22394,2.2232.68809.9354.69101,1.4031,1.74041,1.4032,3.14821,0,1.3817-.4993,2.4759-1.4978,3.2828-.7895.637-1.778.9732-2.7908.9493-1.2193,0-2.1995-.3284-2.9405-.985-.741-.6564-1.1326-1.5437-1.1746-2.6617h2.2625c.0256.3771.1629.738.3942,1.0363.3624.424.8903.6692,1.4469.6723.5567.003,1.0872-.2365,1.4542-.6565.3472-.4433.5285-.9948.5124-1.5584.0291-.5803-.1625-1.15-.5361-1.5939-.3641-.40111-.8866-.61975-1.4269-.59709-.7024-.01334-1.3546.36409-1.6949.98089l-2.0576-.0317,1.0958-6.44684,6.3304-.00001zm-43.84896-.0354h4.05626L8.2582,15.8H4.18521L9.21994,4.19995zM25.9805,12.3662c.3665,0,.6985-.2172.8463-.5537l3.2923-7.61255h-14.135L10.9661,15.8h4.0383l3.7988-8.69045h5.9937l-1.2014,2.77546-5.2259-.01902L22.5865,15.8h4.5973l-3.1239-3.4338h1.9206z" fill="#fff"/></svg>