<svg width="59" height="20" xmlns="http://www.w3.org/2000/svg"><path fill-rule="evenodd" clip-rule="evenodd" d="m2,0C.89543,0,0,.895431,0,2v16c0,1.1046.895431,2,2,2h55c1.1046,0,2-.8954,2-2V2c0-1.104569-.8954-2-2-2H2z" fill="#eb0000"/><path fill-rule="evenodd" clip-rule="evenodd" d="m38.7369,12.8968h-2.1758c.0681.8978.4893,1.7316,1.1706,2.3176.6753.5748,1.5306.8621,2.5661.8621,1.5556.0003,2.717-.7406,3.4845-2.2226.5886-1.1391.8829-2.5155.8829-4.12914-.0001-1.74551-.3338-3.10078-1.0012-4.06582-.36-.5265-.8414-.958-1.4032-1.25781-.5613-.29634-1.1869-.44853-1.8211-.44297-1.0145-.02003-1.9974.35408-2.7434,1.04414-.8882.80703-1.3323,1.86172-1.3323,3.16406-.0059.62039.1191,1.235.3666,1.80352.2247.52802.5753.99252,1.0209,1.35272.6278.4966,1.408.7594,2.2073.7436.47.0145.9357-.0932,1.352-.3125.4337-.2685.8037-.629,1.084-1.0561-.0388.5087-.1152,1.0137-.2286,1.511-.163.6961-.3956,1.2089-.6978,1.5384-.3019.3297-.7325.5103-1.1785.4944-.8568.0001-1.3744-.4481-1.553-1.3446zm.402-6.37575c.3015-.38654.7643-.61137,1.2535-.60898.5245-.01353,1.0223.23182,1.3323.65663.3282.44546.4975.98869.4809,1.54239.013.53365-.1506,1.0566-.4651,1.48711-.3306.4437-.8605.6922-1.4118.662-.5514-.0302-1.0511-.33501-1.3317-.8122-.2506-.40862-.3792-.88081-.3705-1.36055-.0221-.56692.1598-1.12289.5124-1.5664z" fill="#fff"/><path d="m53.0689,4.23511v2.05663h-4.6433l-.4967,2.60235c.5527-.58887,1.3307-.91147,2.1364-.88594.7957-.01738,1.5756.22407,2.2232.68828.9354.69102,1.4031,1.74047,1.4032,3.14827,0,1.3816-.4993,2.4758-1.4978,3.2826-.7895.6369-1.778.9732-2.7908.9492-1.2193,0-2.1995-.3282-2.9405-.9848-.741-.6564-1.1326-1.5436-1.1746-2.6617h2.2625c.0256.3772.1628.738.3942,1.0364.3624.4239.8903.6692,1.447.6722.5566.003,1.0872-.2366,1.4541-.6566.3471-.4433.5285-.9947.5124-1.5582.0291-.5803-.1625-1.15-.5361-1.594-.3641-.40106-.8866-.6197-1.4269-.59704-.7024-.01334-1.3546.36414-1.6949.98084l-2.0576-.0316,1.0958-6.44689h6.3304zM9.21991,4.19995h4.05629L8.25817,15.8H4.18518L9.21991,4.19995zM25.9805,12.3662c.3665,0,.6985-.2172.8463-.5537l3.2923-7.61255h-14.135L10.9661,15.8h4.0383l3.7988-8.69045h5.9937l-1.2014,2.77546-5.2259-.01902L22.5865,15.8h4.5973l-3.1239-3.4338h1.9206z" fill="#fff"/></svg>