<svg width="24" height="24" xmlns="http://www.w3.org/2000/svg"><path fill-rule="evenodd" clip-rule="evenodd" d="m5.20686,7.02834c.09443-.0187.1924-.02858.29314-.02858h.46429v-1H5.5c-.16635,0-.32938.01633-.48743.04764l.19429.98094zm1.686-.02858h.92857v-1h-.92857v1zm1.85714,0h.92857v-1H8.75v1zm1.8571,0h.9286v-1h-.9286v1zm1.8572,0h.9286v-1h-.9286v1zM14.3214,6.99976h.9286v-1h-.9286v1zm1.8572,0h.9285v-1h-.9285v1zm1.8571,0H18.5c.1007,0,.1987.00988.2931.02858l.1943-.98094c-.158-.03131-.3211-.04764-.4874-.04764h-.4643v1zm-13.78319.66717c.1097-.1638.25086-.30496.41466-.41467l-.55647-.83087c-.2723.18238-.50669.41676-.68906.68907l.83087.55647zM19.3328,7.25226c.1638.10971.305.25087.4147.41467l.8309-.55647c-.1824-.27231-.4168-.50669-.6891-.68907l-.5565.83087zM4,8.49976c0-.10075.00988-.19872.02859-.29315l-.98095-.19429C3.01634,8.17037,3,8.33341,3,8.49976v.4375h1v-.4375zm15.9714-.29315c.0187.09443.0286.1924.0286.29315v.4375h1v-.4375c0-.16635-.0163-.32939-.0476-.48744l-.981.19429zM4,10.6873v-.87504H3v.87504h1zm16-.87504v.87504h1v-.87504h-1zM4,12.4373v-.875H3v.875h1zm16-.875v.875h1v-.875h-1zm-16,2.625v-.875H3v.875h1zm16-.875v.875h1v-.875h-1zM4,15.4998v-.4375H3v.4375c0,.1663.01634.3293.04764.4874l.98095-.1943C4.00988,15.6985,4,15.6005,4,15.4998zm16-.4375v.4375c0,.1007-.0099.1987-.0286.2931l.981.1943c.0313-.1581.0476-.3211.0476-.4874v-.4375h-1zM4.66717,16.7472c-.1638-.1097-.30496-.2508-.41466-.4146l-.83087.5565c.18237.2723.41676.5066.68906.689l.55647-.8309zm15.08033-.4146c-.1097.1638-.2509.3049-.4147.4146l.5565.8309c.2723-.1824.5067-.4167.6891-.689l-.8309-.5565zM5.5,16.9998c-.10074,0-.19871-.0099-.29314-.0286l-.19429.9809c.15805.0313.32108.0477.48743.0477h.46429v-1H5.5zm13.2931-.0286c-.0944.0187-.1924.0286-.2931.0286h-.4643v1H18.5c.1663,0,.3294-.0164.4874-.0477l-.1943-.9809zm-10.97167.0286h-.92857v1h.92857v-1zM9.67857,16.9998H8.75v1h.92857v-1zm1.85713,0h-.9286v1h.9286v-1zm1.8572,0h-.9286v1h.9286v-1zM15.25,16.9998h-.9286v1h.9286v-1zm1.8571,0h-.9285v1h.9285v-1zM17,10.0007v-.99997h-1v.99997h-1v1h1v1h1v-1h1v-1h-1zm-7,.9991H6V9.99976h4v1.00004zm-4,2.0004h6v-1H6v1zm5,1.9996H6v-1h5v1z"/></svg>