<svg width="24" height="24" xmlns="http://www.w3.org/2000/svg"><path fill-rule="evenodd" clip-rule="evenodd" d="m22.5,0h-21C.675,0,0,.675,0,1.5v21c0,.825.675,1.5,1.5,1.5h21c.825,0,1.5-.675,1.5-1.5v-21c0-.825-.675-1.5-1.5-1.5z" fill="#2d327d"/><path fill-rule="evenodd" clip-rule="evenodd" d="m3,10.875h15.6v2.25H3v-2.25z" fill="#fff"/><path fill-rule="evenodd" clip-rule="evenodd" d="m11.625,4.08752v.225c0,3,2.4375,5.4375,5.4375,5.4375h.75v-1.125h-.75c-2.3775,0-4.3125-1.935-4.3125-4.3125v-.225h-1.125z" fill="#fff"/><path fill-rule="evenodd" clip-rule="evenodd" d="m17.8125,6.37502h-.75c-1.14,0-2.0625-.9225-2.0625-2.0625v-.225h-1.125v.225c0,1.7625,1.425,3.1875,3.1875,3.1875h.75c1.14,0,2.0625.9225,2.0625,2.0625v.1875H21v-.1875c0-1.7625-1.425-3.1875-3.1875-3.1875z" fill="#fff"/><path fill-rule="evenodd" clip-rule="evenodd" d="m19.875,10.875H21v2.25h-1.125v-2.25z" fill="#fff"/></svg>