<svg width="36" height="36" xmlns="http://www.w3.org/2000/svg"><path fill-rule="evenodd" clip-rule="evenodd" d="m8.01893,5.01893C7.53254,5.50532,7.25,6.28854,7.25,7.5v6.2507h21.5V7.5c0-1.21146-.2825-1.99468-.7689-2.48107S26.7115,4.25,25.5,4.25h-15c-1.21146,0-1.99468.28254-2.48107.76893zM7.25,21.25v-6.4993h21.5V21.25H7.25zm.06182-16.93818C8.06068,3.56296,9.15246,3.25,10.5,3.25h15c1.3475,0,2.4393.31296,3.1882,1.06182C29.437,5.06068,29.75,6.15246,29.75,7.5v3.25h1.5v2.5h-1.5v11.9993h-5.4985V22.25H11.75v2.9993h-5.5V13.25h-1.5v-2.5h1.5V7.5c0-1.34754.31296-2.43932,1.06182-3.18818zM29.75,12.25h.5v-.5h-.5v.5zm-4.4985,10H28.75v1.9993h-3.4985V22.25zm-18.0015,0h3.5v1.9993h-3.5V22.25zm-1-10.5v.5h-.5v-.5h.5zm19.25-5.5h-15v1h15v-1zm-15,10.5c-.69014,0-1.25.5599-1.25,1.25s.55986,1.25,1.25,1.25c.6901,0,1.25-.5599,1.25-1.25s-.5599-1.25-1.25-1.25zM10.25,18c0-.1379.1121-.25.25-.25s.25.1121.25.25-.1121.25-.25.25-.25-.1121-.25-.25zm14,0c0-.6901.5599-1.25,1.25-1.25s1.25.5599,1.25,1.25-.5599,1.25-1.25,1.25-1.25-.5599-1.25-1.25zm1.25-.25c-.1379,0-.25.1121-.25.25s.1121.25.25.25.25-.1121.25-.25-.1121-.25-.25-.25zM8.35293,30.2493l1.96267-1.9191-.69917-.715-2.841,2.778-.36678.3586.36794.3575,2.844,2.763.69681-.7173-1.96163-1.9057H15v-1H8.35293zm19.29587.9868-1.9636,1.9201.6991.715,2.841-2.778.3669-.3588-.3681-.3575-2.8455-2.763-.6966.7175,1.9615,1.9047H21v1h6.6488z"/></svg>