<svg width="36" height="36" viewBox="0,0,36,36" xmlns="http://www.w3.org/2000/svg"><path fill-rule="evenodd" clip-rule="evenodd" d="m4.24436,8.25c0-2.21231,1.79344-4.00575,4.00575-4.00575,2.21229,0,4.00579,1.79344,4.00579,4.00575,0,2.2123-1.7935,4.0058-4.00579,4.0058-2.21231,0-4.00575-1.7935-4.00575-4.0058zm4.00575-4.99425c-2.75825,0-4.99425,2.236-4.99425,4.99425,0,2.7582,2.236,4.9943,4.99425,4.9943,2.59149,0,4.72189-1.9738,4.97009-4.50005h16.0299c1.3839,0,2.5058,1.12186,2.5058,2.50575v2.9998c0,1.3839-1.122,2.5058-2.506,2.5057l-7.0297-.0004c-.2481-2.5262-2.3786-4.5-4.9701-4.5-2.5917,0-4.7223,1.9741-4.9702,4.5007H6.75011c-1.92982,0-3.49425,1.5644-3.49425,3.4942v4.5c0,1.9298,1.56443,3.4943,3.49425,3.4943H22.78c.2482,2.5262,2.3786,4.4999,4.9701,4.4999,2.7583,0,4.9943-2.236,4.9943-4.9942s-2.236-4.9942-4.9943-4.9942c-2.5915,0-4.7219,1.9737-4.9701,4.5H6.75011c-1.38389,0-2.50575-1.1219-2.50575-2.5058v-4.5c0-1.3839,1.12186-2.5057,2.50575-2.5057h5.52999c.2485,2.5259,2.3788,4.4993,4.97,4.4993,2.5915,0,4.7219-1.9738,4.9701-4.5l7.0296.0004c1.93.0002,3.4946-1.5643,3.4946-3.4942V11.25c0-1.92982-1.5645-3.49425-3.4943-3.49425H13.2202c-.2482-2.52623-2.3786-4.5-4.97009-4.5zm2.59949,3.84374-.699-.69898L7.50011,9.05103,6.3496,7.90051l-.69898.69898,1.5,1.50001.34949.3495.34949-.3495,3-3.00001zM27.7501,23.7442c-2.2123,0-4.0057,1.7935-4.0057,4.0058s1.7934,4.0058,4.0057,4.0058,4.0058-1.7935,4.0058-4.0058-1.7935-4.0058-4.0058-4.0058zm2.5995,2.8553-.699-.699-2.6505,2.6505-1.1505-1.1505-.699.699,1.8495,1.8495,3.3495-3.3495zM17.2501,13.2436c-2.2123,0-4.0057,1.7934-4.0057,4.0057,0,2.2124,1.7934,4.0058,4.0057,4.0058s4.0058-1.7934,4.0058-4.0058c0-2.2123-1.7935-4.0057-4.0058-4.0057zm2.5995,2.8552-.699-.6989-2.6505,2.6505-1.1505-1.1505-.699.6989,1.8495,1.8495,3.3495-3.3495z"/></svg>