<svg width="36" height="36" viewBox="0,0,36,36" xmlns="http://www.w3.org/2000/svg"><path fill-rule="evenodd" clip-rule="evenodd" d="m25.25,6.70312c0-2.2053,1.7947-4,4-4s4,1.7947,4,4c0,1.20814-.5623,2.35077-1.5047,3.10651l-.283.22697.128.3396c.105.2783.1597.5731.1597.8738,0,1.3777-1.1223,2.5-2.5,2.5-1.3776,0-2.5-1.1223-2.5-2.5,0-.3007.0548-.5955.1598-.8738l.128-.3396-.2831-.22697C25.8123,9.0539,25.25,7.91126,25.25,6.70312zm4-5c-2.7576,0-5,2.24241-5,5,0,1.40186.6012,2.72481,1.6154,3.65978-.076.2874-.1154.5851-.1154.8871,0,1.93,1.5701,3.5,3.5,3.5,1.93,0,3.5-1.57,3.5-3.5,0-.302-.0393-.5997-.1153-.8871,1.0141-.93498,1.6153-2.25792,1.6153-3.65978,0-2.75759-2.2424-5-5-5zm4.1465,32.40048L21.5429,22.25H3.25004v-5.5H16.0429L1.89648,2.60355l.70711-.7071L34.1036,33.3964l-.7071.7072zM17.0429,17.75l3.5,3.5H14.75v-3.5h2.2929zm-5.2929,0h2v3.5h-2v-3.5zm-1,3.5v-3.5H4.25004v3.5H10.75zm17.625-3.5H21v-1h12.125v5.5H25.5v-1h2.875v-3.5zm1,0v3.5h2.75v-3.5h-2.75z"/></svg>