<svg width="48" height="48" viewBox="0,0,48,48" xmlns="http://www.w3.org/2000/svg"><path fill-rule="evenodd" clip-rule="evenodd" d="m6.5,14.9902H6v12.01H4V26H3v3h1v-.9998h2v1.99h4.0345c.1057.7471.4509,1.445.9906,1.9847C11.6815,32.6313,12.5717,33,13.5,33s1.8185-.3687,2.4749-1.0251c.5397-.5397.8849-1.2376.9906-1.9847h14.069c.1057.7471.4509,1.445.9906,1.9847C32.6815,32.6313,33.5717,33,34.5,33s1.8185-.3687,2.4749-1.0251c.5397-.5397.8849-1.2376.9906-1.9847H42v-1.99h2V29h1v-3h-1v1.0002h-2v-12.01H6.5zm9.4515,15h-4.903c.0961.4805.3322.926.6837,1.2776C12.2011,31.7366,12.837,32,13.5,32s1.2989-.2634,1.7678-.7322c.3515-.3516.5876-.7971.6837-1.2776zm16.7807,1.2776c-.3515-.3516-.5876-.7971-.6837-1.2776h4.903c-.0961.4805-.3322.926-.6837,1.2776C35.7989,31.7366,35.163,32,34.5,32s-1.2989-.2634-1.7678-.7322zM7,25.9902v-10h34v10H7zm0,1v2h34v-2H7zm4-1.99v-8h-1v8h1zm3,0v-8h-1v8h1zm3,0v-8h-1v8h1zm3,0v-8h-1v8h1zm3,0v-8h-1v8h1zm3,0v-8h-1v8h1zm3,0v-8h-1v8h1zm3,0v-8h-1v8h1zm3,0v-8h-1v8h1zm3,0v-8h-1v8h1z"/></svg>