<svg width="24" height="24" viewBox="0,0,24,24" xmlns="http://www.w3.org/2000/svg"><path fill-rule="evenodd" clip-rule="evenodd" d="m12.2019,2.04265-.2018-.08904-.2018.08904-8.50002,3.75-1.11179.4905,1.13504.43399L6.0001,7.7413V10.5c0,.476.26751.8648.60595,1.1558.34031.2925.80359.5337,1.33289.7265C9.00168,12.7695,10.4372,13,12.0001,13s2.9984-.2305,4.0612-.6177c.5293-.1928.9925-.434,1.3328-.7265.3385-.291.606-.6798.606-1.1558V7.74129l2-.7647v3.90551l-.9472,1.8944.8944.4472.5528-1.1056.5528,1.1056.8944-.4472-.9472-1.8944V6.59424l.8136-.31109-9.6118-4.2405zm4.7982,6.081-4.8214,1.84349-.1786.06826-.1786-.06826L7.0001,8.12365V10.5c0,.0741.03999.2102.2578.3974.21594.1856.55766.3757,1.02336.5453C9.20852,11.7805,10.523,12,12.0001,12s2.7916-.2195,3.7188-.5573c.4657-.1696.8075-.3597,1.0234-.5453.2178-.1872.2578-.3233.2578-.3974V8.12365zM12.0001,8.96481,4.81371,6.21707,12.0001,3.04661l7.1864,3.17046-7.1864,2.74774zM7.9954,15.8162l-3.57531-2.4966c-.64744-.513-1.58066-.4004-2.09766.2348-.52516.6452-.41912,1.5841.21395,2.1066l5.92346,5.2143L8.6015,21h3.9231l.8638.8553.1462.1447h8.8577l-.8475-.8525-5.03-5.06.0001-.0001-.0091-.0088c-1.1605-1.1096-2.6685-2.0014-4.2769-2.0746V14H9.99021c-.63212,0-1.14387.2443-1.49356.6355-.29931.3349-.46265.7572-.50125,1.1807zM12.0935,15h.0015c1.3038.0282,2.6263.7575,3.7151,1.7971L19.9882,21h-6.0423l-.8639-.8553L12.9359,20H8.97893l-5.78835-5.0953-.00724-.0064-.00749-.0061c-.21966-.1788-.25044-.4945-.07786-.7066.1788-.2196.49456-.2504.70659-.0778l.01427.0116.0151.0105,4.67787,3.2667c.35004.3752.85571.6034,1.47839.6034h1.99999v-1H9.99021c-.37413,0-.61221-.1333-.76103-.3008-.15701-.1768-.24497-.4269-.24274-.695.00224-.2682.09462-.522.25577-.7022.15313-.1713.39012-.302.748-.302h2.10329z"/></svg>