<svg width="59" height="20" viewBox="0,0,59,20" xmlns="http://www.w3.org/2000/svg"><path fill-rule="evenodd" clip-rule="evenodd" d="m2,0C.89543,0,0,.895431,0,2v16c0,1.1046.895431,2,2,2h55c1.1046,0,2-.8954,2-2V2c0-1.104569-.8954-2-2-2H2z" fill="#eb0000"/><path d="m44.3813,4.23535v1.96172c-.063.06855-.2496.28216-.5597.64082-.4889.5794-.9193,1.20604-1.285,1.87071-.397.68873-.7296,1.4129-.9933,2.1633-.528,1.5927-.8331,3.2512-.9066,4.9281h-2.3808c.0326-.98.1848-1.9523.4533-2.8951.299-1.0937.6961-2.1581,1.1865-3.1799.72-1.49766,1.4505-2.61302,2.1916-3.34609h-5.4396V4.23535h7.7336z" fill="#fff"/><path fill-rule="evenodd" clip-rule="evenodd" d="m51.8628,4.76519c-.6544-.53329-1.4748-.81881-2.3177-.80664-1.3537-.02034-2.6108.70125-3.2795,1.88242-.6202,1.05482-.9303,2.45235-.9303,4.19263,0,2.4468.5939,4.1765,1.7817,5.189,1.2185.9954,2.9225,1.1338,4.2847.3481.5722-.3508,1.0415-.8477,1.3598-1.4399.5887-1.0706.883-2.4363.883-4.0973.0077-.9389-.1062-1.87487-.339-2.78433-.2996-1.1181-.7805-1.94609-1.4427-2.48398zm-3.9496,2.46015c.2733-.87539.7884-1.31308,1.5452-1.31308v-.00001c.7778,0,1.3086.4377,1.5924,1.31309.2207.68021.3311,1.61094.3311,2.79216,0,1.387-.155,2.418-.4651,3.093-.3102.675-.7832,1.0125-1.419,1.0125-.7674-.0001-1.2929-.4352-1.5767-1.3051-.2469-.8661-.3586-1.7654-.3311-2.6658-.0001-1.25508.1076-2.23066.3232-2.92676z" fill="#fff"/><path d="m9.21991,4.19995h4.05629L8.25817,15.8H4.18518L9.21991,4.19995zM25.9805,12.3662c.3665,0,.6985-.2172.8463-.5537l3.2923-7.61255h-14.135L10.9661,15.8h4.0383l3.7988-8.69045h5.9937l-1.2014,2.77546-5.2259-.01902L22.5865,15.8h4.5973l-3.1239-3.4338h1.9206z" fill="#fff"/></svg>