<svg width="48" height="48" viewBox="0,0,48,48" xmlns="http://www.w3.org/2000/svg"><path fill-rule="evenodd" clip-rule="evenodd" d="m13.8525,3.43791c-.8112-.31495-1.6775-.46378-2.5473-.43767v-.00018l-.0133.00076c-1.7177.09741-3.33128.85475-4.50372,2.1138-1.17159,1.25815-1.8121,2.92005-1.78801,4.63897V11.5c0,.3978.15803.7794.43934,1.0607.2813.2813.66283.4393,1.06066.4393.39782,0,.77935-.158,1.06066-.4393.2813-.2813.43934-.6629.43934-1.0607V9.67002h.00005l-.00011-.00748c-.01334-.89178.303-1.7571.88835-2.43001C9.47237,6.56128,10.283,6.12861,11.1655,6.017c.4853-.04663.9751.00865,1.4378.16234.4649.15437.8921.4046,1.2542.73449s.6508.73211.8477,1.18063c.1968.44852.2973.93337.295,1.42317V18H8v27h31V18H18.0002V9.50002c.0003-.87018-.174-1.73157-.5128-2.5331-.3388-.8016-.8351-1.52701-1.4595-2.13321-.6243-.60621-1.3641-1.08085-2.1754-1.3958zM17.0002,18V9.49979c.0003-.73637-.1472-1.4653-.4339-2.14358s-.7066-1.29209-1.2349-1.80503c-.5284-.51294-1.1543-.91456-1.8408-1.18105-.6843-.26569-1.415-.39167-2.1488-.37054-1.45763.08439-2.82664.72785-3.82178,1.79652C6.52336,6.8664,5.97881,8.2804,6.00011,9.74273l.00011.00729h-.00005V11.5c0,.1326.05268.2598.14644.3536.09377.0937.22095.1464.35356.1464s.25978-.0527.35355-.1464c.09377-.0938.14645-.221.14645-.3536V9.67365c-.01606-1.13677.38759-2.2396,1.1338-3.09743.74705-.8588,1.78484-1.41159,2.91433-1.55237l.0131-.00162v.00017c.6268-.06141,1.2594.00942,1.8571.2079s1.147.5202,1.6125.94435.8368.94128,1.0899,1.51796c.2529.57629.3821,1.19922.3793,1.82855V18h1zM9,19v25h29V19H9zm14.2651,4.9995c.6407-.0431,1.2808.0909,1.8504.3872.5696.2964,1.0467.7437,1.3791,1.2931.3323.5493.5072,1.1795.5054,1.8216-.002.7221-.2274,1.4259-.6451,2.0149-.3479.4906-.8151.8815-1.3549,1.1376V37.5c0,.3978-.158.7794-.4394,1.0607C24.2793,38.842,23.8978,39,23.5,39s-.7794-.158-1.0607-.4393S22,37.8978,22,37.5v-6.8461c-.4684-.2222-.8831-.5464-1.2126-.9506-.4057-.4976-.6668-1.0973-.7545-1.7333-.0878-.6361.0011-1.284.2569-1.8729s.6687-1.0961,1.1935-1.4661,1.1412-.5884,1.7818-.6315zm1.3888,1.2743c-.4068-.2117-.8641-.3074-1.3217-.2766s-.8979.1868-1.2727.4511-.6698.6266-.8525,1.0472c-.1827.4207-.2462.8835-.1835,1.3378s.2491.8826.5389,1.2381c.2898.3554.6719.6243,1.1043.7772l.3333.1178V37.5c0,.1326.0527.2598.1464.3536.0938.0937.221.1464.3536.1464s.2598-.0527.3535-.1464c.0938-.0938.1465-.221.1465-.3536v-7.5336l.3333-.1178c.4863-.1719.9075-.4901,1.2059-.9108s.4593-.9234.4608-1.4392c.0013-.4586-.1236-.9088-.361-1.3012s-.5782-.7119-.9851-.9236z"/></svg>