<svg width="24" height="24" viewBox="0,0,24,24" xmlns="http://www.w3.org/2000/svg"><path fill-rule="evenodd" clip-rule="evenodd" d="m6.9178,4.0068c2.27574-.37929,4.1413.83149,5.0822,1.7534.9409-.92191,2.8065-2.13269,5.0822-1.7534C20.3726,4.5552,22,7.3092,22,10c0,1.8627-.94,3.5927-1.3863,4.4117.2716.2858.631.6992.886,1.1581.1766.318.3253.6959.3361,1.0965.0114.421-.1315.8365-.4823,1.1873-.7349.7348-1.6406.4994-2.2022.2186-.2677-.1339-.4994-.2954-.6695-.4281-.0645.0473-.1377.0998-.2191.1566-.3495.2438-.8517.5677-1.4673.8918C15.571,19.3369,13.8631,20,12,20s-3.57097-.6631-4.79537-1.3075c-.61564-.3241-1.11787-.648-1.46728-.8918-.08142-.0568-.15464-.1093-.21919-.1566-.17004.1327-.40172.2942-.66948.4281-.5616.2808-1.46728.5162-2.2022-.2186-.35084-.3508-.49368-.7664-.48231-1.1874.01081-.4006.15951-.7785.33619-1.0965.25494-.4589.61441-.8723.88596-1.158C2.94,13.5927,2,11.8627,2,10,2,7.3092,3.6274,4.5552,6.9178,4.0068zM18.8541,16.647l-.3234-.3234-.3505.292-.0007.0007-.0048.0038-.0221.0179c-.0203.0163-.0516.0411-.0932.0731-.0833.0641-.2079.1571-.3689.2695-.3225.2249-.789.526-1.3609.8269C15.179,18.4131,13.6369,19,12,19s-3.17903-.5869-4.32963-1.1925c-.57186-.3009-1.03838-.602-1.36084-.8269-.16105-.1124-.28564-.2054-.36893-.2695-.04163-.032-.0729-.0568-.0932-.0731l-.02212-.0179-.00474-.0038-.00045-.0004-.00018-.0002-.00011-.0001h-.00003l-.35047-.292-.32209.3221-.00013.0001-.00026.0003-.00018.0002-.00021.0002-.00052.0005-.00863.0083c-.00839.008-.02189.0208-.04004.0372-.03638.0331-.09085.0808-.15958.1358-.13945.1116-.328.2454-.53621.3495-.43835.2192-.78267.2338-1.04793-.0314-.14925-.1492-.19396-.2961-.18972-.4532.0048-.1775.07486-.3934.2107-.6379.27362-.4924.72364-.9463.97905-1.2017l.25483-.2549-.16117-.3223c-.05307-.1061-.121-.2323-.19839-.3759C3.79039,13.0493,3,11.5819,3,10,3,7.6908,4.3726,5.4448,7.0822,4.9932c2.14569-.35762,3.9161,1.05502,4.5274,1.81915L12,7.30039l.3904-.48804c.6113-.76413,2.3817-2.17677,4.5274-1.81915C19.6274,5.4448,21,7.6908,21,10c0,1.5819-.7904,3.0493-1.2488,3.9004v.0001c-.0774.1436-.1453.2698-.1984.3759l-.1612.3223.2548.2549c.2555.2554.7055.7093.9791,1.2018.1358.2445.2059.4603.2107.6378.0042.1571-.0405.304-.1897.4532-.2653.2652-.6096.2506-1.048.0314-.2082-.1041-.3967-.2379-.5362-.3495-.0687-.055-.1232-.1027-.1595-.1358-.0182-.0164-.0317-.0292-.0401-.0372l-.0086-.0083zM6.77732,8.41601c.63554-.42373,1.14524-.43078,1.50769-.3148.23241.07437.42302.2051.56185.34477L6.16625,11.1266c-.09678-.3144-.16626-.6865-.16625-1.0641.00001-.6674.21224-1.26974.77732-1.64649zm3.16984-.13962c-.22452-.44905-.70326-.91829-1.35738-1.1276-.67925-.21736-1.50288-.14107-2.3672.4352C5.28779,8.20724,5.00002,9.18823,5,10.0625c-.00002.8628.27526,1.7015.5712,2.1947l.32948.5492.45282-.4528,3.5-3.50005.2548-.25482-.16114-.32234zm7.83024-.6924c-.8644-.57627-1.688-.65256-2.3672-.4352-.6542.20931-1.1329.67855-1.3574,1.1276l-.1612.32234.2548.25482,3.5,3.50005.4529.4528.3294-.5492c.296-.4932.5713-1.3319.5712-2.1947,0-.87427-.2877-1.85526-1.2225-2.47851zm.0563,3.54261-2.6806-2.68062c.1388-.13967.3294-.2704.5618-.34477.3625-.11598.8722-.10893,1.5077.3148.5651.37675.7773.97909.7773,1.64649.0001.3776-.0694.7497-.1662,1.0641zm-5.5045-.5029-.3293-.2881-.3292.2881-4,3.5-.29072.2544.17276.3455C7.96698,15.5521,9.40225,17,11.9999,17c2.5977,0,4.033-1.4479,4.4473-2.2764l.1727-.3455-.2907-.2544-4-3.5zM11.9999,16c-1.8223,0-2.88856-.8345-3.34525-1.4085l3.34525-2.9271,3.3453,2.9271C14.8886,15.1655,13.8223,16,11.9999,16z"/></svg>