<svg width="36" height="36" viewBox="0,0,36,36" xmlns="http://www.w3.org/2000/svg"><path fill-rule="evenodd" clip-rule="evenodd" d="m5.25,7.75h-.5v14.5h4.5v4.0821l.8536-.8535,3.2285-3.2286h.4179v4.5h8.9179l3.2285,3.2286.8536.8535V26.75h4.5v-14.5h-7.5v-4.5H5.25zm18.5,5.5v3.5h4.75v1h-4.75v2H27v1h-3.25v1.5h-9v3.5h8.3321l.1465.1464,2.5214,2.5215V25.75h4.5v-12.5h-6.5zm-18,8V8.75h17v12.5h-9.8321l-.1465.1464L10.25,23.9179V21.25h-4.5zm7.492-2.3079h1.266v-1.218h-1.266v1.218zm-1.5689-7.617c-.258.399-.4005.9615-.4275,1.6875h1.0065c.0825-1.281.645-1.9215,1.6875-1.9215.504,0,.885.162,1.143.486.2145.267.3225.594.3225.9855,0,.21-.0375.417-.111.621-.09.237-.279.5055-.5685.8025-.4485.4605-.7395.7755-.87.9435-.132.1665-.231.357-.3015.5685-.0975.288-.15.732-.159,1.329h.996c0-.336.0195-.609.0585-.8205.036-.21.0975-.387.1845-.5295.0885-.1425.243-.321.4665-.537.504-.492.822-.8295.9555-1.0125.2955-.402.444-.8835.444-1.4415,0-.6765-.219-1.221-.6555-1.635-.4695-.4485-1.0995-.6735-1.893-.6735-.492,0-.9345.099-1.329.2985-.396.1995-.7125.483-.9495.849z"/></svg>