<svg width="36" height="36" viewBox="0,0,36,36" xmlns="http://www.w3.org/2000/svg"><path fill-rule="evenodd" clip-rule="evenodd" d="m18.0002,3.66916.4744,1.42303,2.886,8.65811h9.3469l-1.1503.8947-6.4677,5.0304,2.8834,8.3604.4795,1.3903-1.2275-.81-7.2247-4.7668-7.2246,4.7668-1.22753.81.47953-1.3903,2.8833-8.3604L6.44327,14.645l-1.1503-.8947h9.34693l2.886-8.65811.4743-1.42303zm0,3.16228-2.5256,7.57696-.114.3419H8.20751l5.59969,4.3553.2823.2196-.1166.3381-2.5205,7.3082,6.2725-4.1385.2753-.1817.2754.1817,6.2725,4.1385-2.5205-7.3082-.1167-.3381.2824-.2196,5.5997-4.3553h-7.1531l-.114-.3419-2.5257-7.57696z"/></svg>