<svg width="48" height="48" viewBox="0,0,48,48" xmlns="http://www.w3.org/2000/svg"><path fill-rule="evenodd" clip-rule="evenodd" d="m23.5,6c-.6922,0-1.3689.20527-1.9445.58986-.5756.38458-1.0242.93121-1.2891,1.57075s-.3342,1.34327-.1991,2.02219c.135.6789.4683,1.3026.9578,1.7921s1.1132.8228,1.7921.9578c.6789.1351,1.3827.0658,2.0222-.1991s1.1862-.7135,1.5707-1.2891C26.7947,10.8689,27,10.1922,27,9.5c0-.92826-.3687-1.8185-1.0251-2.47487C25.3185,6.36875,24.4283,6,23.5,6zm-1.3889,1.42133C22.5222,7.14662,23.0055,7,23.5,7c.663,0,1.2989.26339,1.7678.73223C25.7366,8.20107,26,8.83696,26,9.5c0,.49445-.1466.9778-.4213,1.3889s-.6652.7316-1.122.9208-.9595.2387-1.4444.1423c-.485-.0965-.9304-.3346-1.2801-.6842-.3496-.3497-.5877-.7951-.6842-1.28007-.0964-.48496-.0469-.98762.1423-1.44444.1892-.45681.5097-.84726.9208-1.12196zM20.53,14.0298h-.1746l-.1367.1087-5.53,4.4-.1161.0924-.0469.1408-2,6-.0008.0023c-.0817.2492-.1043.5139-.066.7733.0383.2593.1364.5062.2866.7211.1501.215.3482.392.5786.5171.2304.1252.4867.195.7488.204v.0001l.0105.0001c.3627.0048.7173-.1072,1.0114-.3194.2937-.212.5115-.5127.6213-.8578l.0005-.0015,1.7124-5.2928,2.531-1.997v7.9485l-.6336,7.8666-6.2246,6.2246.3558.3535,1.6,1.59.353.3509.3524-.3514,6.59-6.57.1221-.1217.0211-.171.9457-7.6414h.3081L28,33.6665v9.3333h3V32.3484l-4-6v-7.7073l3.661,3.3762.0923.0851.1214.0314,6.18,1.6.0004.0001c.3566.0921.7343.0558,1.0669-.1025.3326-.1582.5989-.4284.7525-.7632l-.4545-.2084.4608.1942c.0839-.1992.1255-.4135.1222-.6296s-.0514-.4291-.1413-.6255c-.09-.1965-.2197-.3722-.3811-.5159-.1614-.1436-.3509-.2522-.5564-.3189l-.0099-.0031-.01-.0028-5.7607-1.6068-5.27-4.9849-.1446-.1367H20.53zm17.4731,8.2098c.0012.075-.0127.1494-.0409.2188-.0562.1183-.1515.2137-.2699.27-.1207.0575-.2579.0707-.3873.0373l-6.0582-1.5685-4.4078-4.065L26,16.3585v10.2927l.084.1259L30,32.6512v9.3486h-1v-8.6667l-.1-.1333-4.65-6.2h-1.6919l-.0543.4386-.9788,7.909-6.1156,6.0969-.8912-.8856,5.7754-5.7754.0148-.1834.65-8.07.0016-.02V16.4584l-.8097.6389-3.46,2.73-.1193.094-.0467.1446-1.76,5.44-.0009.0027c-.0448.1411-.1338.2641-.2539.3508-.1186.0856-.2614.1313-.4076.1305-.1052-.0044-.2079-.0328-.3005-.0831-.094-.0511-.1749-.1234-.2362-.2111-.0613-.0878-.1014-.1886-.117-.2945-.0156-.1055-.0065-.2132.0266-.3147l.0003-.001,1.9523-5.8568,5.2773-4.1989h5.6263l5.2154,4.9332.09.0851.1193.0333,5.8684,1.6368c.0706.0241.1357.0621.1915.1117.0579.0516.1045.1146.1368.1852.0323.0705.0496.147.0507.2245z"/></svg>