<svg width="16" height="16" xmlns="http://www.w3.org/2000/svg"><rect width="16" height="16" rx="2" fill="#eb0000"/><path fill-rule="evenodd" clip-rule="evenodd" d="m8.55898,10.646c-.228.061-.462.104-.709.104-.277,0-.539-.053-.791-.13-1.129-.342-1.959-1.38-1.959-2.62,0-1.239.83-2.278,1.959-2.62.252-.076.514-.13.791-.13.247,0,.481.043.709.105C9.73098,5.67,10.6,6.73,10.6,8s-.86902,2.331-2.04102,2.646zm0-6.824V0h-1.5v3.83c-1.966.373-3.459,2.098-3.459,4.17,0,2.073,1.493,3.798,3.459,4.17V16h1.5v-3.821C10.565,11.839,12.1,10.101,12.1,8c0-2.1-1.535-3.838-3.54102-4.178z" fill="#fff"/></svg>