<svg width="24" height="24" xmlns="http://www.w3.org/2000/svg"><path fill-rule="evenodd" clip-rule="evenodd" d="m22.5,0h-21C.675,0,0,.675,0,1.5v21c0,.825.675,1.5,1.5,1.5h21c.825,0,1.5-.675,1.5-1.5v-21c0-.825-.675-1.5-1.5-1.5z" fill="#2d327d"/><path fill-rule="evenodd" clip-rule="evenodd" d="m3,3v9h1.5825c.09-.405.255-.7875.4875-1.125h-.945v-6.75h15.75v6.75H10.68c.225.3375.39.72.4875,1.125H21V3H3z" fill="#fff"/><path fill-rule="evenodd" clip-rule="evenodd" d="m9.35249,7.5c0-1.4475,1.17751-2.625,2.62501-2.625s2.625,1.1775,2.625,2.625-1.1775,2.625-2.625,2.625S9.35249,8.9475,9.35249,7.5zm1.25251.825c.225,0,.3975-.075.5175-.2175.09-.1125.1425-.2475.1425-.405h-.3225c-.0075.1125-.0525.195-.105.255s-.135.09-.2325.09c-.1425,0-.2475-.06-.315-.1725-.0525-.09-.0825-.2025-.0825-.3375s.03-.2475.0825-.3375c.075-.12.18-.18.3225-.18.0825,0,.1575.0225.2175.0675s.0975.1125.1125.195h.3225c-.0075-.12-.06-.2325-.15-.33-.1275-.135-.2925-.2025-.5025-.2025-.2175,0-.3975.075-.5325.225-.13501.15-.20251.3375-.20251.5625,0,.21.06.39.17251.5325.135.1725.315.255.555.255zm2.1525-.0375h-.33V7.635h-.615v.6525h-.33v-1.5h.33v.57h.615v-.57h.33v1.5zM14.01,7.665V7.41l-.63-.0075v-.345h.7275V6.78H13.05v1.5h.33v-.615h.63z" fill="#fff"/><path fill-rule="evenodd" clip-rule="evenodd" d="m5.265,12.75c0-1.4475,1.1775-2.625,2.625-2.625,1.455,0,2.625,1.1775,2.625,2.625s-1.1775,2.625-2.625,2.625-2.625-1.1775-2.625-2.625zm2.91-.9c.0975.0375.21.105.3525.2025l.1725-.495c-.1125-.075-.2025-.1275-.2625-.1575-.15-.075-.33-.1125-.54-.1125-.42,0-.7425.1575-.975.465-.1425.18-.24.3975-.2925.6375h-.255l-.12.33h.33v.06c0,.0085.00108.0203.00242.035.00219.0238.00508.0553.00508.0925h-.21l-.12.33h.39c.09.375.2475.645.4875.825.2175.1575.45.24.6975.24.1425,0,.3675-.0525.6825-.1425v-.5775c-.1725.075-.3.1275-.3825.1575-.0825.0225-.1725.0375-.2625.0375-.27,0-.465-.18-.585-.5475h.7875l.1275-.33H7.23v-.1875h1.0575l.12-.33H7.29c.1125-.3975.3075-.5925.585-.5925.105,0,.2025.0225.3.06z" fill="#fff"/><path fill-rule="evenodd" clip-rule="evenodd" d="m9.375,18.375c0-1.4475,1.1775-2.625,2.625-2.625s2.625,1.1775,2.625,2.625S13.4475,21,12,21s-2.625-1.1775-2.625-2.625zm3.1575,1.5525c.135,0,.2625-.0225.3825-.0675s.2175-.1125.315-.2025l-.255-.435c-.105.1125-.24.1725-.39.1725-.06,0-.15-.0225-.27-.0525-.1125-.03-.21-.045-.2925-.045-.12,0-.24.03-.375.09.1275-.105.2175-.21.27-.2925s.0825-.18.0825-.2775c0-.06,0-.12-.015-.18h.4275v-.345h-.54c-.0135-.0405-.0324-.0891-.0551-.1474-.0151-.0389-.0319-.0821-.0499-.1301-.045-.1125-.0675-.21-.0675-.2925,0-.0975.0375-.18.1125-.24.0675-.06.165-.09.2775-.09.15,0,.27.0525.3525.1425.06.0675.0975.1725.0975.315h.585c-.0075-.3075-.105-.54-.285-.705s-.4425-.2475-.7725-.2475c-.3375,0-.6075.0825-.795.2625-.1575.15-.2325.3225-.2325.5325,0,.0825.0075.15.0225.2175.015.06.045.15.09.2475.015.03.0375.0825.06.1425h-.285v.345h.435c.0225.0825.0375.1575.0375.2325,0,.1425-.0525.2775-.165.4125-.06.075-.1575.1575-.2925.255l.255.3825c.09-.06.165-.105.2325-.1275.06-.0225.135-.0375.21-.0375.0975,0,.225.0225.3825.0675.0096.0029.0189.0057.0281.0084.1342.0403.2232.0671.2794.0741.0525.0075.12.015.2025.015z" fill="#fff"/><path fill-rule="evenodd" clip-rule="evenodd" d="m18.7725,15.75c-.03-.0225-.12-.0525-.2625-.0975v.8025c.285-.0375.435-.1725.435-.405-.0075-.1275-.06-.2325-.1725-.3z" fill="#fff"/><path fill-rule="evenodd" clip-rule="evenodd" d="m17.865,14.6925c0,.0975.03.1725.0825.225.06.0525.1575.0975.3075.135V14.34c-.2625.015-.39.135-.39.3525z" fill="#fff"/><path fill-rule="evenodd" clip-rule="evenodd" d="m15.75,15.375c0-1.4475,1.1775-2.625,2.625-2.625S21,13.9275,21,15.375,19.8225,18,18.375,18s-2.625-1.1775-2.625-2.625zm3.2025,1.455c.12-.0525.2325-.1275.33-.2325.1575-.1575.2325-.3675.24-.6225,0-.24-.075-.4275-.225-.5625-.12-.105-.33-.2025-.6225-.2775-.09-.015-.1425-.03-.165-.0375v-.765c.2325.03.3525.1725.36.42h.555c0-.2625-.0825-.465-.24-.615-.1575-.1425-.3825-.225-.675-.24V13.53h-.2475v.3675c-.1875.015-.3375.045-.45.0975-.1575.0675-.285.1725-.3675.3s-.1275.2775-.1275.4425c0,.15.03.2775.09.3825s.1575.195.2925.27c.0975.06.2925.1275.5625.2025v.87c-.3-.03-.4425-.21-.4425-.5325h-.585c0,.3375.12.5925.345.7725.1575.1275.39.2025.675.2175v.42h.2475v-.42c.18-.015.33-.045.45-.09z" fill="#fff"/></svg>