<svg width="24" height="24" xmlns="http://www.w3.org/2000/svg"><path fill-rule="evenodd" clip-rule="evenodd" d="m22.5,0h-21C.675,0,0,.675,0,1.5v21c0,.825.675,1.5,1.5,1.5h21c.825,0,1.5-.675,1.5-1.5v-21c0-.825-.675-1.5-1.5-1.5z" fill="#2d327d"/><path fill-rule="evenodd" clip-rule="evenodd" d="m3.285,18.8625c-.21,0-.375-.165-.375-.375,0-.015,0-.0375.0075-.0525L3.24,16.2h3.8925v2.6625H3.285z" fill="#fff"/><path fill-rule="evenodd" clip-rule="evenodd" d="m12.3675,8.19001H21v-.69h-7.05l2.2125-1.5L12,3.63751,7.86001,6.00001h-.0225l2.21249,1.5H5.45251c-.5625,0-1.035.4125-1.11.9675l-1.005,7.01999H21V11.775h-8.6325c-.2025,0-.3675-.165-.3675-.3675s.165-.3675.3675-.3675H21v-.69h-8.6325c-.2025,0-.3675-.165-.3675-.36749,0-.2025.165-.3675.3675-.3675H21v-.69h-8.6325c-.2025,0-.3675-.165-.3675-.3675s.165-.3675.3675-.3675zM7.35001,11.4c0,.21-.165.375-.375.375h-1.9575c-.21,0-.375-.165-.375-.375,0-.015,0-.0375.0075-.0525l.405-2.83499c.03-.1875.1875-.3225.3675-.3225h1.5525c.21,0,.375.165.375.375V11.4zm1.845-5.33999,2.12249,1.44h1.365l2.13-1.4475L12,4.45501l-2.80499,1.605z" fill="#fff"/><path fill-rule="evenodd" clip-rule="evenodd" d="m16.2075,18.0225c0-1.0575-.855-1.9125-1.9125-1.9125s-1.9125.855-1.9125,1.9125.855,1.9125,1.9125,1.9125,1.9125-.855,1.9125-1.9125z" fill="#fff"/><path fill-rule="evenodd" clip-rule="evenodd" d="m11.7,18.0225c0-1.0575-.855-1.9125-1.9125-1.9125s-1.9125.855-1.9125,1.9125.855,1.9125,1.9125,1.9125S11.7,19.08,11.7,18.0225z" fill="#fff"/><path fill-rule="evenodd" clip-rule="evenodd" d="m3,3v.375h18V3H3z" fill="#fff"/><path fill-rule="evenodd" clip-rule="evenodd" d="m21,21v-.7125H3V21h18z" fill="#fff"/><path fill-rule="evenodd" clip-rule="evenodd" d="m21,16.3125V16.2h-4.125v2.6625H21v-2.55z" fill="#fff"/></svg>