<svg width="36" height="36" xmlns="http://www.w3.org/2000/svg"><path fill-rule="evenodd" clip-rule="evenodd" d="m15.75,8.75049c-.1378,0-.25.11214-.25.25s.1122.25.25.25c.1379,0,.25-.11214.25-.25s-.1121-.25-.25-.25zm-1.25.25c0-.69014.5599-1.25,1.25-1.25.6902,0,1.25.55986,1.25,1.25s-.5598,1.25001-1.25,1.25001c-.6901,0-1.25-.55987-1.25-1.25001zm8.7922,19.49931,2.6043,2.6042.7071-.7071-18.75001-18.75-.70711.7071,4.42772,4.4277c-1.4174,1.1934-2.32526,2.9795-2.32526,4.9691,0,3.5747,2.92696,6.5,6.49996,6.5,1.992,0,3.7729-.9123,4.9648-2.3296l2.0363,2.0364v.5422h.5422zm-3.2887-3.2888-7.7192-7.7191c-1.2415,1.0128-2.0354,2.5495-2.0354,4.2589,0,3.0223,2.4791,5.5,5.5,5.5,1.7097,0,3.2419-.7969,4.2546-2.0398zM23.25,19.7498h-3v1h2.5v2.5h1v-3.5h-.5zm-7-7.7493v3.75h-1v-3.75h1z"/></svg>