<svg width="24" height="24" xmlns="http://www.w3.org/2000/svg"><path fill-rule="evenodd" clip-rule="evenodd" d="m4,4.52197.79275.57254,4.49994,3.24996.00006.00004L10,8.85515V4.52197l.7927.57254,4.5,3.25,4.5,3.24999.5613.4054-.5613.4053-9,6.5L10,19.4777v-4.3336l-.70714.511-.00011.0001-4.5,3.25L4,19.4777V4.52197zm1,1.95576V17.522l3.70714-2.6774.00011-.0001,1.49985-1.0839.7929-.573v4.3344l3.7073-2.6775,3.9387-2.8446-3.9387-2.84471L11,6.47773v4.33287l-.7927-.5724L8.70731,9.15523l-.00006-.00004L5,6.47773z"/></svg>