<svg width="48" height="48" xmlns="http://www.w3.org/2000/svg"><path fill-rule="evenodd" clip-rule="evenodd" d="m35.8084,36.5155,9.8381,9.8381.7071-.7071L3.35359,2.64648l-.70711.70711,9.83822,9.83821C9.60929,16.2421,8.11261,20.1044,7.99467,24H3.00004v1h4.99462c.12262,4.0501,1.73541,8.0641,4.83834,11.1671,3.103,3.103,7.117,4.7158,11.167,4.8384V46h1v-4.9945c3.8957-.1179,7.7581-1.6146,10.8084-4.49zm-.7075-.7075-4.2459-4.2459c-3.7369,3.3717-9.4718,3.2568-13.0733-.3448-3.6008-3.6008-3.7155-9.3351-.3442-13.0727l-4.2454-4.2454c-5.72038,6.0914-5.60437,15.6084.3481,21.5608,5.9524,5.9524,15.4694,6.0684,21.5607.348zM18.1457,18.8528c-2.9815,3.3458-2.867,8.4473.3431,11.6574,3.211,3.211,8.313,3.3255,11.658.3437L18.1457,18.8528zM24,8.00803c-3.318.09972-6.3712,1.18823-8.9106,2.95617l.5713.8207c2.5075-1.7457,5.5426-2.78437,8.8393-2.78437,8.5849,0,15.5,6.91417,15.5,15.49997,0,3.2958-1.0387,6.3318-2.7852,8.8392l.8205.5716c1.769-2.5396,2.8576-5.5938,2.9572-8.9113h5.0065v-1h-5.0063C40.7345,15.2611,33.7381,8.26576,25,8.00789V3.00004h-1v5.00799zm-3.7522,8.01757c1.2766-.642,2.7131-1.0253,4.2527-1.0253,5.2601,0,9.5,4.2388,9.5,9.5,0,1.5398-.3845,2.9753-1.0264,4.2516l-.8933-.4493c.5781-1.1496.9197-2.4321.9197-3.8023,0-4.7088-3.7922-8.5-8.5-8.5-1.3705,0-2.654.3407-3.8034.9187l-.4493-.8934z"/></svg>