<svg width="36" height="36" xmlns="http://www.w3.org/2000/svg"><path fill-rule="evenodd" clip-rule="evenodd" d="m3.75,6.24951h-.5V28.2495h29.5v-7h-.5c-2.2739,0-4-1.7261-4-4,0-2.2738,1.7261-4,4-4h.5V6.24951h-29zm.5,20.99999V7.24951h27.5v5.02299c-2.5785.2395-4.5,2.32-4.5,4.977s1.9215,4.7375,4.5,4.977v5.023H4.25zm2.5-16.5h-.5v14.4628l.4988.0012,15,.036.5012.0012V10.7495h-3V8.99951h-1v1.74999h-8V8.99951h-1v1.74999h-2.5zm.5,13.4652v-9.4652h14v9.4988l-14-.0336zm14-10.4652h-14v-2h14v2zm-7.5,5.5H12v-1h1.75v-1.75h1v6h-1v-3.25zm10.5-11.74999v.4875h1v-.4875h-1zM24.25,8.96201v.975h1v-.975h-1zm0,1.94999v.975h1v-.975h-1zm0,1.95v.975h1v-.975h-1zm0,1.95v.975h1v-.975h-1zm0,1.95v.975h1v-.975h-1zm0,1.95v.975h1v-.975h-1zm0,1.95v.975h1v-.975h-1zm0,1.95v.975h1v-.975h-1zm0,1.95v.975h1v-.975h-1zM24.25,26.512v.4875h1v-.4875h-1z"/></svg>