<svg width="24" height="24" xmlns="http://www.w3.org/2000/svg"><path fill-rule="evenodd" clip-rule="evenodd" d="m22.5,0h-21C.675,0,0,.675,0,1.5v21c0,.825.675,1.5,1.5,1.5h21c.825,0,1.5-.675,1.5-1.5v-21c0-.825-.675-1.5-1.5-1.5z" fill="#2d327d"/><path fill-rule="evenodd" clip-rule="evenodd" d="m4.815,3H3v4.5h.9825V5.88H4.98c.255,0,.4725-.0225.6525-.075s.3375-.135.4725-.2475c.3225-.27.4875-.6375.4875-1.11,0-.525-.195-.9225-.585-1.185-.135-.0975-.3-.165-.4725-.2025S5.1225,3,4.815,3zm-.8325,2.1075v-1.275L4.8,3.84c.27,0,.465.0375.585.12.165.105.2475.2775.2475.5025s-.0675.3975-.21.51c-.1125.09-.3.135-.5625.135h-.8775z" fill="#fff"/><path fill-rule="evenodd" clip-rule="evenodd" d="m13.9875,11.7975,1.8075.63c.0375.015.0825.0225.12.0225.1275,0,.24-.06.3075-.165l.405-.6c.03-.0525.0525-.105.0525-.165,0-.165-.135-.3-.3-.3h-2.3025c-.165,0-.3.135-.3.3.0075.12.09.2325.21.2775z" fill="#fff"/><path fill-rule="evenodd" clip-rule="evenodd" d="m7.65,11.8125h2.625v-.6H7.65c-.165,0-.3.135-.3.3s.135.3.3.3z" fill="#fff"/><path fill-rule="evenodd" clip-rule="evenodd" d="m7.65,12.7875h.375c.165,0,.3-.135.3-.3s-.135-.3-.3-.3H7.65c-.165,0-.3.135-.3.3s.135.3.3.3z" fill="#fff"/><path fill-rule="evenodd" clip-rule="evenodd" d="m15.645,14.0549c.5175-.2625,1.095-.405,1.68-.405,2.025,0,3.675,1.6425,3.675,3.675,0,2.025-1.6425,3.675-3.675,3.675-1.8975,0-3.4875-1.4475-3.66-3.3375h-.78c-.165.345-.5025.5625-.885.5625-.54,0-.975-.435-.975-.975,0-.2175.075-.4275.21-.6l-1.965-2.925-.405.645c.9375.6975,1.485,1.7925,1.485,2.955,0,2.025-1.65,3.675-3.675,3.675-2.0325,0-3.675-1.65-3.675-3.675,0-2.0325,1.6425-3.675,3.675-3.675.585,0,1.1625.135,1.68.405l.72-1.155h5.85l.72,1.155zm-8.97,6.345c1.695,0,3.075-1.38,3.075-3.075,0-.96-.4425-1.86-1.2-2.4375l-1.62,2.595c-.0525.09-.15.1425-.255.1425-.165,0-.3-.135-.3-.3,0-.0525.015-.1125.045-.1575l1.62-2.6025c-.4275-.21-.8925-.315-1.365-.315-1.695,0-3.075,1.38-3.075,3.075s1.38,3.075,3.075,3.075zm5.595-4.0875c-.09-.0225-.18-.0375-.27-.0375s-.18.015-.27.0375l-1.89-2.8125h4.32l-1.89,2.8125zM12.9525,17.0624h.705c.075-1.0725.615-2.055,1.4775-2.6925l-.405-.645-1.965,2.925c.09.12.1575.2625.1875.4125zm2.4975-2.175,1.3575,2.175h-2.55c.075-.8625.51-1.65,1.1925-2.175zm-1.185,2.775c.1725,1.56,1.4925,2.7375,3.06,2.7375,1.695,0,3.075-1.38,3.075-3.075s-1.38-3.075-3.075-3.075c-.4725,0-.945.105-1.365.315l1.3425,2.16h.0225c.33,0,.6.27.6.6s-.27.6-.6.6c-.195,0-.3825-.0975-.495-.2625h-2.565z" fill="#fff"/></svg>