<svg width="24" height="24" xmlns="http://www.w3.org/2000/svg"><path fill-rule="evenodd" clip-rule="evenodd" d="m14.5,7.00024c-3.0369,0-5.5,2.46315-5.5,5.49996,0,3.0378,2.4631,5.5,5.5,5.5s5.5-2.4622,5.5-5.5c0-3.03681-2.4631-5.49996-5.5-5.49996zM3,13.0002h5.01895c.25535,3.3566,3.06015,6,6.48105,6,3.5891,0,6.5-2.9098,6.5-6.5,0-3.5891-2.9109-6.49996-6.5-6.49996-3.4209,0-6.22563,2.64438-6.48104,5.99996H3v1zM14.5,16c1.9332,0,3.5-1.5668,3.5-3.5S16.4332,9,14.5,9,11,10.5668,11,12.5,12.5668,16,14.5,16z"/></svg>