<svg width="24" height="24" xmlns="http://www.w3.org/2000/svg"><path fill-rule="evenodd" clip-rule="evenodd" d="m22.5,0h-21C.675,0,0,.675,0,1.5v21c0,.825.675,1.5,1.5,1.5h21c.825,0,1.5-.675,1.5-1.5v-21c0-.825-.675-1.5-1.5-1.5z" fill="#2d327d"/><path fill-rule="evenodd" clip-rule="evenodd" d="m17.625,8.25H21V7.5H5.925c-.6075,0-1.1475.4125-1.305.9975L3.045,14.37c-.03.1125-.045.2325-.045.3525v3.8025c0,.33.27.6.6.6h6.975c.33,0,.6-.27.6-.6v-.075c0-1.905,1.545-3.45,3.45-3.45s3.45,1.545,3.45,3.45v.075c0,.33.27.6.6.6H21V13.5h-3.375c-.21,0-.375-.165-.375-.375v-4.5c0-.21.165-.375.375-.375zM6.5625,14.625c0,.21-.165.375-.375.375H4.14c-.21,0-.375-.165-.375-.375,0-.03.0075-.0675.015-.0975l1.5825-5.91C5.43,8.355,5.67,8.175,5.94,8.175h.015c.33,0,.6.27.6.6l.0075,5.85zm1.35.45c.33,0,.6-.27.6-.6v-5.7c0-.33-.27-.6-.6-.6s-.6.27-.6.6v5.7c0,.33.27.6.6.6zm2.55-.6c0,.33-.27.6-.6.6s-.6-.27-.6-.6v-5.7c0-.33.27-.6.6-.6s.6.27.6.6v5.7zM16.125,13.5c.21,0,.375-.165.375-.375v-4.5c0-.21-.165-.375-.375-.375h-4.5375c-.21,0-.375.165-.375.375v4.5c0,.21.165.375.375.375h4.5375z" fill="#fff"/><path fill-rule="evenodd" clip-rule="evenodd" d="m12.0225,18.4725c0-1.4475,1.1775-2.625,2.625-2.625s2.625,1.1775,2.625,2.625-1.1775,2.625-2.625,2.625-2.625-1.1775-2.625-2.625zm1.125-.06c0,.825.675,1.5,1.5,1.5s1.5-.6675,1.5-1.5c0-.825-.675-1.5-1.5-1.5s-1.5.675-1.5,1.5z" fill="#fff"/></svg>