<svg width="24" height="24" xmlns="http://www.w3.org/2000/svg"><path fill-rule="evenodd" clip-rule="evenodd" d="m3,5.0002h18v14H3v-14zm1,1v12h16v-3h-7.0001c-.9681,0-1.7309-.3685-2.2465-.9493-.5073-.5715-.7502-1.3193-.7502-2.0507s.2429-1.4792.7502-2.05069c.5156-.58078,1.2784-.94931,2.2465-.94931H20v-3H4zm8.9999,4H20v4h-7.0001c-.6963,0-1.182-.2565-1.4986-.6132-.3249-.366-.4981-.8682-.4981-1.3868s.1732-1.0208.4981-1.3868c.3166-.3567.8023-.6132,1.4986-.6132zm.0001.9995c-.5521,0-1,.4479-1,1s.4479,1,1,1,1-.4479,1-1-.4479-1-1-1z"/></svg>