<svg width="25" height="16" xmlns="http://www.w3.org/2000/svg"><path fill-rule="evenodd" clip-rule="evenodd" d="m8.50129,2.9983c1.021,0,2.08101.3,2.90101.72l.66-2.301C10.9223.957302,9.66129.797302,8.44129.797302c-2.68,0-5.201,1.279998-5.201,4.220998,0,2.04121,1.43268,2.84231,2.72622,3.56561,1.06451.59523,2.03478,1.13777,2.03478,2.27539,0,1.5-1.32,2.181-2.661,2.181-1.2,0-2.34-.46-3.42-.96l-.72,2.38c1.26.46,2.64.78,3.98.78,3.061,0,5.74201-1.24,5.74201-4.661,0-2.20525-1.53721-3.11192-2.86467-3.89488C7.04891,6.08946,6.16129,5.56593,6.16129,4.5983c0-1.2,1.34-1.6,2.34-1.6zM23.3826,1.0376h-7.701l-2.941,13.962h2.8l1.281-6.12h4.681l.44-2.201h-4.661l.74-3.441h4.882l.479-2.2z"/></svg>