<svg width="33" height="16" xmlns="http://www.w3.org/2000/svg"><path fill-rule="evenodd" clip-rule="evenodd" d="m8.50232,2.99681c1.019,0,2.07998.301,2.89998.721l.66-2.301C10.9223.956814,9.66232.796814,8.44132.796814c-2.681,0-5.201,1.279996-5.201,4.220996,0,2.04103,1.43273,2.84217,2.72645,3.56558,1.06486.59545,2.03555,1.13823,2.03555,2.27641,0,1.5-1.321,2.18-2.662,2.18-1.2,0-2.34-.461-3.42-.961l-.72,2.381c1.26.46,2.64.78,3.98.78,3.061,0,5.74198-1.24,5.74198-4.661,0-2.20545-1.53747-3.1124-2.86502-3.89551-1.00857-.59494-1.89596-1.11841-1.89596-2.08548,0-1.2,1.34-1.601,2.341-1.601zm11.81988-1.9597h-4.621l-2.961,13.96299h2.66l2.561-11.56299h.04l1.121,11.56299h2.68l6.321-11.56299h.04l-2.64,11.56299h2.96l2.981-13.96299h-4.66l-5.502,10.06299h-.04l-.94-10.06299z"/></svg>