<svg width="25" height="16" xmlns="http://www.w3.org/2000/svg"><path fill-rule="evenodd" clip-rule="evenodd" d="m8.50229,2.99681c1.019,0,2.08001.301,2.90001.721l.66-2.301C10.9223.956814,9.66229.796814,8.44129.796814c-2.681,0-5.201,1.279996-5.201,4.220996,0,2.04103,1.43273,2.84217,2.72644,3.56558,1.06487.59545,2.03556,1.13823,2.03556,2.27641,0,1.5-1.321,2.18-2.662,2.18-1.2,0-2.34-.461-3.42-.961l-.72,2.381c1.26.46,2.64.78,3.98.78,3.061,0,5.74201-1.24,5.74201-4.661,0-2.20545-1.5375-3.1124-2.86505-3.89551-1.00857-.59494-1.89596-1.11841-1.89596-2.08548,0-1.2,1.34-1.601,2.341-1.601zm9.55961,3.68087h-1.101l.74-3.44h.981c1.06,0,2.341.06,2.341,1.4,0,1.641-1.541,2.04-2.961,2.04zM16.6409,12.7997h-.96l.841-4.04102h.899c1.501,0,2.861.22,2.861,1.68102,0,2.16-1.921,2.36-3.641,2.36zm2.961-11.76302h-4.141l-2.921,13.96302h3.982c2.08,0,6.56-.32,6.56-4.321,0-1.50002-.68-2.70002-2.24-2.94002v-.04c1.62-.26,2.98-1.621,2.98-3.321,0-2.541-2.04-3.341-4.22-3.341z"/></svg>