<svg width="20" height="16" xmlns="http://www.w3.org/2000/svg"><path fill-rule="evenodd" clip-rule="evenodd" d="m3.80757,4.73969c1.038,0,1.878-.838,1.878-1.869,0-1.033-.84-1.870995-1.878-1.870995-1.039,0-1.878.837995-1.878,1.870995,0,1.031.839,1.869,1.878,1.869zM14.5876,6.2387l-3.361,2.329L6.67457,4.03769,4.56157,6.1417l5.183,5.156.021-.016.004.004,4.65603-3.22601,3.577,3.55801.997-.992-4.412-4.387zm-.325,3.66699,2.766,2.75101-.996.992-1.931-1.922-4.69703,3.273L.999573,6.63769l.996997-.991,7.567,7.53001,4.69903-3.27101z"/></svg>