<svg width="24" height="24" viewBox="0,0,24,24" xmlns="http://www.w3.org/2000/svg"><path fill-rule="evenodd" clip-rule="evenodd" d="m11,9c0-1.6942.5288-3.20975,1.3608-4.29134C13.1924,3.62761,14.3065,3,15.5,3s2.3076.62761,3.1392,1.70866C19.4712,5.79025,20,7.3058,20,9s-.5288,3.2097-1.3608,4.2913C17.8076,14.3724,16.6935,15,15.5,15s-2.3076-.6276-3.1392-1.7087C11.5288,12.2097,11,10.6942,11,9zm4.5-7c-1.568,0-2.9538.82746-3.9318,2.09895-.1732.22512-.3342.46478-.482.71731-.757-.51689-1.65338-.80333-2.57924-.81621V4H8.5c-1.56729,0-2.95308.82746-3.93128,2.09885C3.5909,7.36975,3,9.1042,3,11s.5909,3.6303,1.56872,4.9011C5.44153,17.0356,6.63882,17.8165,8,17.9717V22h1v-4.0507c.85231-.1282,1.664-.459,2.3656-.9674.6517-.4723,1.1872-1.0825,1.5704-1.7841.6211.416,1.3179.6889,2.064.7739V22h1v-6.0283c1.3617-.1551,2.5591-.9361,3.4318-2.0707C20.4095,12.6301,21,10.8957,21,9c0-1.89565-.5905-3.6301-1.5682-4.90105C18.4538,2.82746,17.068,2,15.5,2zm-3.3553,12.5521c-.3158.6417-.7841,1.1984-1.3659,1.6201-.6716.4866-1.46684.7735-2.29417.8278-1.1869-.0054-2.29513-.6322-3.12335-1.7086C4.5291,14.2097,4,12.6942,4,11s.5291-3.20975,1.36128-4.29135C6.19227,5.62859,7.30513,5.00122,8.49653,5c.7742.01151,1.52197.2661,2.13967.72307C10.2284,6.70456,10,7.82111,10,9c0,1.8957.5905,3.6301,1.5682,4.901.1789.2327.3716.4505.5765.6511zm-.0588-6.62792c.2839-1.8509,1.3089-3.4659,2.7891-3.84829l.2501.96821c-.9197.23761-1.7947,1.36261-2.0508,3.03172l-.9884-.15164zM7.87881,6.09493c-1.48308.37077-2.50896,1.97805-2.79295,3.82925l.98844.15162c.25601-1.66878,1.13012-2.7815,2.04705-3.01073l-.24254-.97014z"/></svg>