<svg width="24" height="24" viewBox="0,0,24,24" xmlns="http://www.w3.org/2000/svg"><path fill-rule="evenodd" clip-rule="evenodd" d="m10.5,3.0002H10v1.27657c-.70895.21348-1.30945.54016-1.81268.94351l.62543.78029C9.54249,5.41565,10.5651,5,12,5c2.0371,0,3.262.83757,3.9943,1.85465C16.7449,7.89723,17,9.16334,17,10v5h1v-5c0-.99668-.2949-2.48057-1.1942-3.72965C16.1787,5.39937,15.268,4.65858,14,4.27677V3.0002h-3.5zM13,4.06379V4.0002h-.942c.3303.00229.6441.02415.942.06359zm-1.0579-.06359H11v.06359c.2984-.03949.6122-.0613.9421-.06359zM7.13544,8.84271c-.09588.42922-.1354.8291-.1354,1.15729v6c0,.8746-.28042,1.5299-.69579,2h9.98845L7.13544,8.84271zm-.81457-.81457C6.09123,8.74788,6.00004,9.44432,6.00004,10v6c0,.837-.33757,1.3119-.72965,1.5942-.41758.3007-.9337.4058-1.27035.4058v1h5.04431c.11171.6058.4295,1.086.89468,1.4226.56527.4091,1.30547.5771,2.06097.5771.7556,0,1.4957-.168,2.061-.5771.4652-.3366.783-.8168.8947-1.4226h2.337l1.3538,1.3538.7071-.7072L4.35359,4.64665l-.70711.7071,2.67439,2.67439zM13.9169,19h.0098c-.0869.266-.2463.4637-.4519.6125-.3395.2457-.8493.3872-1.4748.3872-.6254,0-1.1353-.1415-1.4747-.3872-.2057-.1488-.365-.3465-.4519-.6125h3.8435z"/></svg>