<svg width="36" height="36" viewBox="0,0,36,36" xmlns="http://www.w3.org/2000/svg"><path fill-rule="evenodd" clip-rule="evenodd" d="m29.1343,8.01275-1.1007-1.05709c-1.946-1.9421-5.0797-1.94088-7.0242.00366l-.0001.00007.3443.34414-.3443-.34411-.0001.00008-.0003.00031-.0012.00123-.0049.00489-.0192.01923-.0743.07429-.276.27614-.936.93637-2.399,2.39994.7073.707,2.3989-2.39998.936-.93637.276-.27614.0743-.07429.0192-.01923.0049-.00489.0013-.00123.0003-.00031v-.00008c1.5553-1.55519,4.0584-1.55517,5.6137.00005l-.0001.00007.0073.007,1.1004,1.05689c1.5531,1.55681,1.5577,4.06461.0051,5.61591l-.0009.0009-6.3723,6.4003-.0002.0002c-1.5536,1.5547-4.1003,1.5549-5.6555-.0004l-1.0605-1.0605-.7071.7071,1.0605,1.0605c1.9457,1.9457,5.1259,1.9459,7.0702-.0001l.0007-.0006,6.3719-6.4.0002-.0002c1.9471-1.9456,1.936-5.0893-.0084-7.03368l.0001-.00007-.0073-.007zm-9.94,6.98075c-1.9457-1.944-5.1256-1.944-7.0713,0l-.0002.0002-6.36294,6.3645h-.00004c-1.94572,1.9458-1.94571,5.1259.00004,7.0716l1.0605,1.0605.00015.0002c1.94564,1.9439,5.12559,1.9442,7.06999-.0002l3.72-3.72-.7071-.7071-3.72,3.72c-1.5536,1.5536-4.10056,1.5539-5.65593,0l-.00016-.0002-1.06034-1.0603c-1.55524-1.5552-1.55524-4.1022,0-5.6574h.00004l6.36279-6.3643.0002-.0002c1.5552-1.5537,4.1021-1.5537,5.6573,0l.0002.0002,1.0601,1.0616.7076-.7067-1.0605-1.062-.0004-.0004z"/></svg>