<svg width="36" height="36" viewBox="0,0,36,36" xmlns="http://www.w3.org/2000/svg"><path fill-rule="evenodd" clip-rule="evenodd" d="m9.24988,12.022c0-4.83317,3.91682-8.75003,8.75002-8.75003,4.8316,0,8.75,3.9168,8.75,8.75003v.0044c-.013,1.4599-.473,2.7556-1.1667,3.9722l-.0057.0101-.0062.0099-7.125,11.247-.4224.6667-.4224-.6667-7.125-11.247-.0063-.0101h.0001c-.71159-1.1844-1.16076-2.4563-1.22004-3.9669l-.00038-.0098v-.0098zm1.00002-.0098c.0532,1.3119.4395,2.4178,1.0746,3.4763l6.6994,10.5752,6.6963-10.5704c.6316-1.1104,1.0182-2.2351,1.0297-3.4736-.0013-4.27977-3.4714-7.74773-7.75-7.74773-4.2776,0-7.7447,3.46385-7.75,7.74023zM18.0116,7.26025c-2.6234,0-4.75,2.12665-4.75,4.75005,0,2.6233,2.1266,4.75,4.75,4.75s4.75-2.1267,4.75-4.75c0-2.6234-2.1266-4.75005-4.75-4.75005zm-5.75,4.75005c0-3.17569,2.5744-5.75005,5.75-5.75005s5.75,2.57436,5.75,5.75005c0,3.1756-2.5744,5.75-5.75,5.75s-5.75-2.5744-5.75-5.75zm.8847,11.0051c-2.7916.3161-5.209.8992-6.94398,1.6654-.86611.3826-1.58763.8218-2.10011,1.317-.51329.496-.8527,1.0856-.8527,1.7519,0,.8474.54437,1.5668,1.31587,2.1439.78089.584,1.87975,1.0903,3.1947,1.5075,2.63572.836,6.25152,1.3486,10.23942,1.3486,3.9886,0,7.6045-.5126,10.24-1.3487,1.3149-.4171,2.4136-.9234,3.1944-1.5075.7714-.577,1.3156-1.2964,1.3156-2.1438,0-.6612-.3344-1.247-.8411-1.7404-.5057-.4925-1.2177-.9296-2.0724-1.3107-1.7119-.7633-4.0979-1.3466-6.8556-1.668l-.1158.9932c2.6993.3146,4.9769.8804,6.5642,1.5881.7949.3545,1.3915.7335,1.7819,1.1138.3895.3793.5388.723.5388,1.024,0,.3856-.2491.8452-.9146,1.3431-.6562.4909-1.6381.9554-2.8978,1.3551-2.5136.7974-6.0227,1.3018-9.9376,1.3018-3.9141,0-7.4233-.5044-9.93705-1.3018-1.25981-.3997-2.24182-.8642-2.89812-1.3551-.66569-.4979-.91482-.9575-.91482-1.3431,0-.3034.15166-.6502.5476-1.0328.39676-.3834,1.00264-.7651,1.80922-1.1213,1.61039-.7113,3.91957-1.2771,6.65247-1.5866l-.1125-.9936z"/></svg>