<svg width="24" height="16" viewBox="0,0,24,16" xmlns="http://www.w3.org/2000/svg"><path fill-rule="evenodd" clip-rule="evenodd" d="m6.35985,4.3423C7.86171,2.84244,9.89747,2,12.02,2h.0197l.0197.00155c1.6544.13071,3.2476.68416,4.6268,1.6073.8861.59312,1.6648,1.32608,2.3076,2.16681L19,3.0089l1,.00222-.01,4.49-.0011.49889H15v-1h3.6302c-.6452-1.01503-1.4958-1.88777-2.5003-2.56014-1.2313-.8242-2.6529-1.3198-4.1295-1.43984-1.8505.00518-3.62419.74187-4.93391,2.04985C5.7522,6.36241,5.01257,8.14291,5.01001,10.0003v.0518C6.14614,10.2875,7,11.2941,7,12.5,7,13.8807,5.88071,15,4.5,15S2,13.8807,2,12.5c0-1.213.86391-2.2242,2.01001-2.452v-.04867c.00283-2.12253.84798-4.15717,2.34984-5.65703zM3,12.5c0-.8284.67157-1.5,1.5-1.5s1.5.6716,1.5,1.5S5.32843,14,4.5,14,3,13.3284,3,12.5zm15,0c0-.8284.6716-1.5,1.5-1.5s1.5.6716,1.5,1.5-.6716,1.5-1.5,1.5-1.5-.6716-1.5-1.5zm1.5-2.5c-1.3807,0-2.5,1.1193-2.5,2.5s1.1193,2.5,2.5,2.5,2.5-1.1193,2.5-2.5S20.8807,10,19.5,10z"/></svg>