<svg width="48" height="48" viewBox="0,0,48,48" xmlns="http://www.w3.org/2000/svg"><path fill-rule="evenodd" clip-rule="evenodd" d="m18.4393,8.43934C18.7206,8.15804,19.1022,8,19.5,8h9c.3978,0,.7794.15804,1.0607.43934C29.842,8.72065,30,9.10218,30,9.5V13h-1v-2.5c0-.3978-.158-.77935-.4393-1.06066C28.2794,9.15804,27.8978,9,27.5,9h-7c-.3978,0-.7794.15804-1.0607.43934C19.158,9.72065,19,10.1022,19,10.5V13h-1V9.5c0-.39782.158-.77935.4393-1.06066zM17,13V9.5c0-.66304.2634-1.29893.7322-1.76777C18.2011,7.26339,18.837,7,19.5,7h9c.663,0,1.2989.26339,1.7678.73223C30.7366,8.20107,31,8.83696,31,9.5V13h11.5c1.3807,0,2.5,1.1193,2.5,2.5v22c0,1.3807-1.1193,2.5-2.5,2.5h-37C4.11929,40,3,38.8807,3,37.5v-22C3,14.1193,4.11929,13,5.5,13H17zm3.5-3c-.1326,0-.2598.0527-.3536.1464-.0937.0938-.1464.221-.1464.3536V13h8v-2.5c0-.1326-.0527-.2598-.1464-.3536C27.7598,10.0527,27.6326,10,27.5,10h-7zm-15,4c-.82843,0-1.5.6716-1.5,1.5v22c0,.8284.67157,1.5,1.5,1.5H9V14H5.5zM12,39h-2V14h2v25zm24,0h2V14h-2v25zm-1,0V14H13v25h22zm7.5,0H39V14h3.5c.8284,0,1.5.6716,1.5,1.5v22c0,.8284-.6716,1.5-1.5,1.5z"/></svg>