<svg width="24" height="24" viewBox="0,0,24,24" xmlns="http://www.w3.org/2000/svg"><path fill-rule="evenodd" clip-rule="evenodd" d="m12.0117,7.00279v-3.015h1v3.015h-1zm-5.97268-.33332,2.277,2.277.70711-.70711-2.277-2.277-.70711.70711zM12.5,9c-1.9265,0-3.47205,1.5637-3.47205,3.499,0,1.9299,1.56425,3.495,3.49505,3.495C14.45,15.994,16,14.4326,16,12.5,16,10.5692,14.4299,9,12.5,9zm-4.47205,3.499C8.02795,10.0203,10.0124,8,12.5,8c2.482,0,4.5,2.0168,4.5,4.5,0,2.4794-1.9921,4.494-4.477,4.494-2.4833,0-4.49505-2.0129-4.49505-4.495zM7.003,13H4v-1h3.003v1zm11.3027-6.94787-2.264,2.238.703.71117,2.264-2.238-.703-.71117zM17.994,12H21v1h-3.006v-1zm1.0297,6.2386-2.267-2.257-.7055.7087,2.267,2.257.7055-.7087zM12,20.9962v-3.003h1v3.003h-1zm-3.69633-4.9485-2.262,2.261.70695.7073,2.262-2.261-.70695-.7073z"/></svg>