<svg width="48" height="48" viewBox="0,0,48,48" xmlns="http://www.w3.org/2000/svg"><path fill-rule="evenodd" clip-rule="evenodd" d="m20.3344,5.01221c1.598-1.30454,3.6002-2.01669,5.6665-2.01219l.0084.00002v.00007c2.4754.0472,4.8308,1.07532,6.5485,2.8584,1.7165,1.78178,2.6558,4.17169,2.612,6.64529.0041,1.4574-.3202,2.897-.9489,4.2119l-.9022-.4314c.5646-1.1808.8555-2.4737.8511-3.7826l-.0001-.0108h.0002c.0404-2.2104-.7985-4.34644-2.3323-5.93861-1.5328-1.59116-3.6343-2.50905-5.8431-2.55228-1.8828-.0031-3.7052.66377-5.1414,1.88138l-.1273.10795-.1666.00981c-.3898.02297-.775.07427-1.153.15261v.00001c-1.5966.3309-3.064,1.14431-4.1956,2.34377-1.3994,1.48338-2.1795,3.44516-2.1808,5.48446l6.3764-7.82823-6.3764,7.82843v.4998h-1v-.5003c.0014-2.2943.879-4.5015,2.4534-6.17038,1.5364-1.62851,3.623-2.62447,5.8512-2.79711zm3.8338,3.17888c1.081-.26766,2.2179-.20085,3.2601.1916s1.9407,1.09204,2.5767,2.00621c.636.9142.9795,2,.985,3.1136.0053,1.075-.3134,2.1267-.9145,3.0179l.8291.5592c.7135-1.0578,1.0917-2.3061,1.0854-3.582-.0065-1.3162-.4125-2.5993-1.1641-3.67975-.7516-1.08042-1.8135-1.90721-3.0452-2.37101s-2.5752-.54277-3.8528-.22644c-1.2123.30016-2.311.94283-3.1661,1.84927-1.3676.14568-2.6557.72176-3.6772,1.64783-1.0713.9712-1.7881,2.272-2.0371,3.6964l.9851.1722c.2106-1.2053.8172-2.3059,1.7237-3.1277.9065-.8219,2.0612-1.3179,3.2813-1.4098l.2021-.0152.1345-.15172c.7387-.83341,1.713-1.42293,2.794-1.69059zm.2711,3.74831c.2813-.2813.6629-.4394,1.0607-.4394s.7794.1581,1.0607.4394S27,12.6022,27,13v13h1v-2.5c0-.3978.158-.7793.4393-1.0606S29.1022,22,29.5,22s.7794.1581,1.0607.4394S31,23.1022,31,23.5V26h1v-.5104c.0027-.3941.1605-.7714.4393-1.0502C32.7206,24.1581,33.1021,24,33.5,24c.3978,0,.7793.1581,1.0606.4394S35,25.1022,35,25.5v7c0,2.8773-.4901,5.0745-.9749,6.5447-.2425.7353-.4838,1.2892-.6622,1.6557-.0585.1201-.1102.22-.1529.2996H19.784l-7.3532-12.3337-.0006-.0011c-.2943-.5001-.4452-.9291-.4594-1.2886-.0132-.3359.0906-.6409.3827-.933l.0015-.0015c.1394-.1406.3053-.2522.4881-.3283.1828-.0762.3788-.1154.5769-.1154.198,0,.394.0392.5768.1154.1828.0761.3487.1877.4882.3283l.0055.0056.0058.0055,4.66,4.41.8437.7984V15.5c0-.3978.158-.7793.4393-1.0606S21.1021,14,21.5,14c.3978,0,.7793.1581,1.0606.4394S23,15.1022,23,15.5V26h1V13c0-.3978.158-.7793.4393-1.0606zm-5.7679,29.1472-7.1009-11.9105-.0014-.0024c-.3353-.5695-.5742-1.165-.5975-1.7578-.0243-.6163.1868-1.1911.6742-1.6788.2322-.234.5084-.4196.8127-.5464.3047-.1269.6314-.1923.9615-.1923.33,0,.6568.0654.9614.1923.3021.1258.5765.3098.8077.5413L19,29.3384V15.5c0-.663.2634-1.2989.7322-1.7677C20.201,13.2634,20.8369,13,21.5,13c.544,0,1.0698.1774,1.5.5V13c0-.663.2634-1.2989.7322-1.7677.4689-.4689,1.1048-.7323,1.7678-.7323s1.2989.2634,1.7678.7323C27.7366,11.7011,28,12.337,28,13v8.5c.4302-.3226.956-.5,1.5-.5.663,0,1.2989.2634,1.7678.7323C31.7366,22.2011,32,22.837,32,23.5c.4302-.3227.9559-.5,1.5-.5.663,0,1.2989.2634,1.7677.7323C35.7366,24.2011,36,24.837,36,25.5v7c0,2.9927-.51,5.2955-1.0252,6.8579-.2439.7397-.4889,1.313-.6811,1.7147.413.1583.7063.5586.7063,1.0274v2.8c0,.6075-.4925,1.1-1.1,1.1H19.1c-.6075,0-1.1-.4925-1.1-1.1v-2.8c0-.4555.2768-.8463.6714-1.0134zM33.7738,42H19.1c-.0552,0-.1.0448-.1.1v2.8c0,.0552.0448.1.1.1h14.8c.0552,0,.1-.0448.1-.1v-2.8c0-.0552-.0448-.1-.1-.1h-.1262z"/></svg>