<svg width="24" height="24" xmlns="http://www.w3.org/2000/svg"><path fill-rule="evenodd" clip-rule="evenodd" d="m18.6889,4.83713c-2.9742-1.2137-4.8056-1.85465-6.669-1.84906-1.8605.00559-3.70556.65601-6.70449,1.84732L5,4.96069V19.0001h5v-2.991h4v2.991h5V4.96408l-.3111-.12695zM6,18.0001V5.63983c2.83228-1.11811,4.4414-1.64702,6.0229-1.65176,1.5788-.00474,3.1742.51323,5.9771,1.64845V18.0001h-3v-2.991H9v2.991H6zm6-11.99986c-1.6769,0-3,1.32315-3,3,0,1.67686,1.3231,2.99996,3,2.99996s3-1.3231,3-2.99996c0-1.67685-1.3231-3-3-3zm-4,3c0-2.22914,1.77086-4,4-4,2.2291,0,4,1.77086,4,4,0,2.22916-1.7709,3.99996-4,3.99996-2.22914,0-4-1.7708-4-3.99996zm4.3536.35356,1.5-1.5-.7072-.70711L12,8.29314l-.6464-.64645-.7072.70711,1,1L12,9.70735l.3536-.35355zm-8.57512,7.0854c-.50355.2488-.93476.5354-1.24642.8641C2.21842,17.634,2,18.037,2,18.4995c0,.642.41201,1.1651.94406,1.5631.54138.4049,1.29346.7494,2.17929,1.0303,1.77746.5637,4.20579.9066,6.87665.9066,2.6713,0,5.0997-.3429,6.877-.9066.8858-.2809,1.6378-.6254,2.1791-1.0304.532-.398.9439-.921.9439-1.563,0-.4625-.2184-.8655-.5321-1.1962-.3118-.3286-.7431-.6149-1.2468-.8633l-.4422.8969c.4433.2186.762.4423.9635.6547.1995.2103.2576.3793.2576.5079,0,.1804-.117.4436-.543.7623-.4166.3118-1.0517.6145-1.8823.8779-1.6554.5251-3.977.8598-6.5747.8598-2.59714,0-4.91881-.3347-6.57435-.8598-.83067-.2634-1.46584-.5661-1.88259-.8779C3.11699,18.9431,3,18.6799,3,18.4995c0-.1286.05808-.2976.25769-.5081.20159-.2126.52038-.4365.96383-.6557l-.44304-.8965z"/></svg>