<svg width="59" height="20" xmlns="http://www.w3.org/2000/svg"><path fill-rule="evenodd" clip-rule="evenodd" d="m2,0C.89543,0,0,.895431,0,2v16c0,1.1046.895431,2,2,2h55c1.1046,0,2-.8954,2-2V2c0-1.104569-.8954-2-2-2H2z" fill="#eb0000"/><path fill-rule="evenodd" clip-rule="evenodd" d="m12.9658,15.78h-2.2296L7.59412,7.96448,5.95959,15.78H3.72998L6.15796,4.14795h2.23755l3.14999,7.78385,1.6266-7.78385h2.2217L12.9658,15.78zm9.4691-11.63205h2.3487l-1.4679,7.04585c-.3915,1.8673-.9046,3.1316-1.5393,3.7928-.6348.6612-1.6107.9918-2.9279.9918-1.1161,0-1.9519-.2566-2.5073-.7697s-.8331-1.2113-.8331-2.0947c0-.1851.0132-.3914.0396-.6189l2.2138-.238c-.0318.2327-.0476.4258-.0476.5792,0,.3703.1058.6533.3173.849.2116.1957.537.2936.976.2936.6136,0,1.0447-.1799,1.2933-.5396.1852-.275.41-1.05.6745-2.3248l1.4599-6.96655z" fill="#fff"/></svg>