<svg width="59" height="20" xmlns="http://www.w3.org/2000/svg"><path fill-rule="evenodd" clip-rule="evenodd" d="m2,0C.89543,0,0,.895431,0,2v16c0,1.1046.895431,2,2,2h55c1.1046,0,2-.8954,2-2V2c0-1.104569-.8954-2-2-2H2z" fill="#eb0000"/><path d="m4.11597,11.2517c0-.6856.10283-1.40802.30849-2.1674.26895-1.01777.67764-1.90107,1.22608-2.6499.55371-.74883,1.2498-1.33945,2.08828-1.77188.83848-.43769,1.79297-.65654,2.86348-.65654,1.4344,0,2.5919.44561,3.4726,1.33682.8859.89121,1.3289,2.07246,1.3289,3.54375,0,1.22345-.2874,2.40735-.8622,3.55165-.5749,1.1443-1.3553,2.025-2.3415,2.642-.9861.617-2.1014.9255-3.34595.9255-1.08105,0-1.98809-.2452-2.72109-.7357-.73301-.4904-1.25244-1.0968-1.5583-1.8193-.30586-.7277-.45879-1.4607-.45879-2.199zm2.35722-.0475c0,.7963.24258,1.4634.72774,2.0013.48515.5379,1.12324.8068,1.91426.8068.64335,0,1.26031-.2109,1.85101-.6328.5959-.4271,1.0863-1.0705,1.4713-1.9301.3902-.8648.5853-1.70592.5853-2.5233,0-.91231-.2452-1.62686-.7356-2.14365-.4905-.52207-1.1154-.78311-1.8747-.78311-1.16548,0-2.1147.54317-2.8477,1.62949-.72774,1.08633-1.09161,2.27813-1.09161,3.57537zM21.942,9.60637h5.189l-1.0441,4.97553c-.6117.3955-1.3632.7303-2.2544,1.0046-.8859.2742-1.7903.4113-2.7132.4113-1.4344,0-2.5339-.3243-3.2985-.973-1.0442-.8859-1.5662-2.17-1.5662-3.8522,0-1.1285.2241-2.20959.6723-3.24318.5379-1.24453,1.3026-2.20957,2.294-2.89512s2.1568-1.02832,3.4963-1.02832c1.3394,0,2.4126.31113,3.2194.9334.8121.62227,1.35,1.5293,1.6137,2.72109l-2.2228.25313c-.1951-.65391-.5115-1.14697-.9492-1.4792-.4324-.33223-.9782-.49834-1.6374-.49834-.7699,0-1.4766.20039-2.1199.60117-.6434.40078-1.147,1.02041-1.5109,1.85889-.3638.83847-.5458,1.75338-.5458,2.74478,0,.9756.2215,1.6981.6645,2.1674.443.4641,1.0916.6961,1.9459.6961.5115,0,1.0362-.0712,1.5741-.2136.5379-.1476,1.002-.3216,1.3922-.522l.356-1.7244h-2.9584l.4034-1.93803zM33.4082,15.8h-2.547L28.7808,4.20374h2.3809l1.4713,8.77236,4.8015-8.77236h2.3651L33.4082,15.8z" fill="#fff"/></svg>