<svg width="48" height="48" xmlns="http://www.w3.org/2000/svg"><path fill-rule="evenodd" clip-rule="evenodd" d="m9,7.5C9,5.01514,11.0151,3,13.5,3S18,5.01514,18,7.5,15.9849,12,13.5,12,9,9.98486,9,7.5zM13.5,2C10.4629,2,8,4.46286,8,7.5c0,3.0371,2.4629,5.5,5.5,5.5S19,10.5371,19,7.5C19,4.46286,16.5371,2,13.5,2zM20,14c0-2.7619,2.2381-5,5-5,2.7609,0,5,2.2382,5,5s-2.2391,5-5,5c-2.7619,0-5-2.2381-5-5zm5-6c-3.3141,0-6,2.6859-6,6,0,2.3149,1.3104,4.3232,3.2299,5.3239-1.3735.2399-2.6838.6074-3.9106,1.0829l.3614.9324C20.8729,20.4896,23.3536,20,25.994,20c1.8882,0,3.6916.2587,5.3764.7109l.2592-.9658c-1.1131-.2988-2.276-.517-3.4797-.6375C29.8602,18.0506,31,16.1586,31,14c0-3.3142-2.6869-6-6-6zM6.10775,25.8651C6.38961,25.9528,6.68929,26,7,26c.55264,0,1-.4479,1-1,0-.5529-.44714-1-1-1s-1,.4471-1,1c0,.2986.03739.5884.10775.8651zm.50699,1.1166C6.74152,26.9938,6.87004,27,7,27c1.10536,0,2-.8961,2-2,0-1.1051-.89486-2-2-2s-2,.8949-2,2c0,.0811.00215.1617.00639.2418C4.38893,24.6923,4,23.8916,4,23H3c0,1.6018.94156,2.9837,2.30142,3.6225.5941,1.5362,2.00708,2.6649,3.70347,2.8506.17775,3.8192,2.49861,7.1802,5.99501,9.4473V46h6v-4.5834c1.5787.3732,3.2517.5834,4.994.5834,1.3837,0,2.7224-.1344,4.006-.3738V46h6v-6.4975c2.4827-1.3843,4.4635-3.2786,5.6754-5.5025h3.3246v-9h-2.8367c-.6856-1.6241-1.7721-3.0992-3.1633-4.3635V15h-.5c-1.8485,0-3.4178,1.1203-4.1083,2.707-.8765-.3812-1.8006-.7032-2.7613-.9627l-.2608.9654c1.0912.2948,2.1285.6729,3.0944,1.1277l.5291.2491.1639-.5614c.38-1.3024,1.4817-2.2922,2.843-2.4893v5.0501l.1695.1493c1.4608,1.287,2.5556,2.7974,3.1899,4.4445l.1234.3203h2.5172v7h-2.9321l-.1392.2726c-1.1279,2.209-3.1033,4.121-5.6647,5.4926l-.264.1414V45h-4v-4.6028l-.605.1299c-1.4019.3011-2.8736.4729-4.401.4729-1.8842,0-3.6838-.2577-5.3646-.708l-.6294-.1686V45h-4v-6.6311l-.235-.1469c-3.5631-2.2274-5.771-5.554-5.771-9.222,0-4.5826,3.4648-8.6383,8.6866-10.6607l-.3612-.9326c-5.2716,2.0418-9.0538,6.1613-9.31138,11.059-.99177-.1396-1.85014-.6949-2.39318-1.484zM14,4v3h3v1h-4V4h1zm21,21c0-.5521.4479-1,1-1s1,.4479,1,1-.4479,1-1,1-1-.4479-1-1zm-8.9298-9.8051c0,.443-.274.698-.824.766v-1.535c.276.086.444.147.504.183.214.125.32.321.32.586zm-2.0431-2.609c0-.409.249-.635.746-.68v1.36c-.278-.068-.472-.152-.582-.252-.109-.1-.164-.243-.164-.428zm1.219.789v-1.457c.445.057.673.323.684.797h1.058c-.011-.5-.165-.89-.463-1.17s-.724-.434-1.279-.463v-.703h-.473v.703c-.359.024-.647.084-.863.18-.302.135-.535.326-.699.572s-.246.527-.246.842c0,.284.058.525.176.724.117.2.301.372.554.518.198.115.558.245,1.078.391v1.652c-.562-.06-.84-.4-.836-1.02h-1.109c.005.631.224,1.119.656,1.465.31.248.74.387,1.289.418v.797h.473v-.793c.347-.018.634-.074.861-.166.228-.092.436-.239.623-.439.294-.313.442-.699.442-1.16,0-.454-.144-.811-.43-1.075-.231-.211-.628-.389-1.187-.535-.169-.041-.273-.068-.309-.078z"/></svg>