<svg width="36" height="36" xmlns="http://www.w3.org/2000/svg"><path fill-rule="evenodd" clip-rule="evenodd" d="m21.7495,3.3999.3905.48807,2.2497,2.81234h6.8608V25.367l-.1.1333-4.65,6.2H4.75049V13.0336l.1-.1333,4.5-5.99999.15-.2h6.30931l1.0499-1.31235.3904-.48805.3905.48805,1.2592,1.57409,2.4593-3.07409.3904-.48806zm5.7939,7.2427-2.3537-2.94229h4.5604l-2.2067,2.94229zm-.6197.8262-5.1742-6.46809-2.2094,2.76173,3.9503,4.93786h2.5097l.9236-1.2315zM25.7501,13.7003H5.75049v17H25.7501v-17zm1,16.0005,3.5004-4.6672V8.69982L26.7501,13.367v16.3338zm-4.5403-17.0005-4.9597-6.1996-4.9597,6.1996h9.9194zm-11.2,0,4-4.99999h-5.0093L6.25049,12.7003h4.75931zm.9903,5.5h7.5v-1h-7.5v1z"/></svg>