<svg width="36" height="36" xmlns="http://www.w3.org/2000/svg"><path fill-rule="evenodd" clip-rule="evenodd" d="m18.25,10.5V6h1v4.5h-1zm-8.94579-.62125,3.40199,3.38695.7056-.7086-3.402-3.38702-.70559.70867zM18.7496,13.25c-3.0493,0-5.5,2.4506-5.5,5.5,0,1.2892.3922,2.5311,1.0961,3.4449l-.7922.6102c-.856-1.1112-1.3039-2.5753-1.3039-4.0551,0-3.6016,2.8984-6.5,6.5-6.5,3.6033,0,6.5,2.8984,6.5,6.5,0,1.5464-.5803,2.9543-1.4589,4.0571l-.7821-.6232c.7563-.9492,1.241-2.1423,1.241-3.4339,0-3.0494-2.4492-5.5-5.5-5.5zm-8.2496,6H6v-1h4.5v1zm17.1274-9.94115-3.399,3.37645.7048.7095,3.399-3.3765-.7048-.70945zM27,18.25h4.5v1H27v-1zm-19.5,7h20.9895v-1H7.5v1z"/></svg>