<svg width="36" height="36" xmlns="http://www.w3.org/2000/svg"><path fill-rule="evenodd" clip-rule="evenodd" d="m28.75,30.0003c0-12.5654-10.1846-22.75-22.75-22.75v-1c13.1176,0,23.75,10.6324,23.75,23.75h-1zm-22.5-3.0007c0-1.518,1.23014-2.75,2.75-2.75,1.5199,0,2.75,1.232,2.75,2.75,0,1.5196-1.2304,2.75-2.75,2.75-1.51964,0-2.75-1.2304-2.75-2.75zm2.75-1.75c-.96714,0-1.75.7839-1.75,1.75,0,.9673.78264,1.75,1.75,1.75s1.75-.7827,1.75-1.75c0-.9661-.78286-1.75-1.75-1.75zm-3-8.9993c7.5944,0,13.75,6.1556,13.75,13.75h1c0-8.1466-6.6034-14.75-14.75-14.75v1z"/></svg>