<svg width="48" height="48" xmlns="http://www.w3.org/2000/svg"><path fill-rule="evenodd" clip-rule="evenodd" d="m16.4991,3.91895.4744,1.42302.886,2.65811h4.065l-1.113.89044-2.2278,1.78218.3315.9943,4.9815,6.5295.6129.8033h-2.9881l6.175,7.9393.3044-5.4746.0262-.4722h4.973v-3.5c0-1.3812,1.1189-2.5,2.5-2.5,1.38,0,2.5,1.1187,2.5,2.5v.0004l-.0028,3.4996h4.9758l.0262.4722,1,18,.0294.5278H26.9716l.0293-.5277.1367-2.4643H16.9991v2.9998h-1v-2.9998H2.47705l.62764-.807,6.37236-8.193h-5l.62764-.807,6.37241-8.193H8.489l.61285-.8033,4.98065-6.5283.332-.996-2.2277-1.78218-1.1131-.89044h4.065l.8861-2.65811.4743-1.42302zM36.9965,21.9923l-.0024,2.9996,1,.0008.0024-3.0004h4.0306l.9445,17h-14.943l.2587-4.6643.6858-12.3357h4.027v3h1v-3h2.9964zm.0008-1,.0028-3.5v-.0001c-.0001-.8287-.672-1.4999-1.5-1.4999-.8289,0-1.5.6711-1.5,1.5v3.5h2.9972zm-9.4981,7.0075h.1384l-.2746,4.939-3.8415-4.939h3.9777zm-5.3947-.193,5.174,6.6521-.0855,1.5414H4.52169l6.37231-8.193.6277-.807H6.52169l6.37231-8.193.6277-.807h-3.012l2.5969-3.4038-.1172.3517,1.3221-1.0577,2.1876-1.7501,2.1877,1.7501,1.3221,1.0577-.1178-.3533,2.5977,3.4049h-3.0119l.6276.807,6.3724,8.193h-5l.6276.807zM16.4991,7.08122l-.5256,1.57698-.114.34188h-1.935l1.387,1.10952.2722.2178-.1102.3308-.4646,1.3938,1.1779-.9424.3123-.2498.3124.2498,1.1779.9424-.4646-1.3938-.1103-.3308.2723-.2178,1.3869-1.10952h-1.935l-.1139-.34188-.5257-1.57698z"/></svg>