<svg width="24" height="24" xmlns="http://www.w3.org/2000/svg"><path fill-rule="evenodd" clip-rule="evenodd" d="m22.5,0h-21C.675,0,0,.675,0,1.5v21c0,.825.675,1.5,1.5,1.5h21c.825,0,1.5-.675,1.5-1.5v-21c0-.825-.675-1.5-1.5-1.5z" fill="#2d327d"/><path fill-rule="evenodd" clip-rule="evenodd" d="m7.08749,21.1124c-1.455,0-2.6325-1.185-2.6325-2.6325s1.1775-2.625,2.6325-2.6325c1.455,0,2.6325,1.185,2.6325,2.6325,0,1.455-1.1775,2.6325-2.6325,2.6325zm-.0075-4.5c-1.0275,0-1.8675.8325-1.8675,1.8675s.84,1.8675,1.8675,1.8675,1.8675-.8325,1.8675-1.8675c0-1.0275-.8325-1.8675-1.8675-1.8675z" fill="#fff"/><path fill-rule="evenodd" clip-rule="evenodd" d="m13.8375,21.1124c-1.455,0-2.6325-1.185-2.6325-2.6325s1.185-2.625,2.6325-2.6325c1.455,0,2.6325,1.185,2.6325,2.6325,0,1.455-1.185,2.6325-2.6325,2.6325zm0-4.5c-1.0275,0-1.8675.8325-1.8675,1.8675s.84,1.8675,1.8675,1.8675,1.8675-.8325,1.8675-1.8675c0-1.0275-.8325-1.8675-1.8675-1.8675z" fill="#fff"/><path fill-rule="evenodd" clip-rule="evenodd" d="m3.02249,9.47998c.225,2.13002,1.0875,4.07252,2.4,5.62502H15.57c1.305-1.5525,2.1675-3.495,2.4-5.62502H3.02249z" fill="#fff"/><path fill-rule="evenodd" clip-rule="evenodd" d="m9.495,8.72995c.4125,0,.5775-.2925.375-.6525l-3.1425-5.445c-2.13,1.23-3.5925,3.4875-3.7275,6.09h6.495v.0075z" fill="#fff"/><path fill-rule="evenodd" clip-rule="evenodd" d="m20.205,8.43743h-4.5v.6h4.5c.165,0,.3-.135.3-.3s-.135-.3-.3-.3z" fill="#fff"/></svg>