<svg width="24" height="24" xmlns="http://www.w3.org/2000/svg"><path fill-rule="evenodd" clip-rule="evenodd" d="m22.5,0h-21C.675,0,0,.675,0,1.5v21c0,.825.675,1.5,1.5,1.5h21c.825,0,1.5-.675,1.5-1.5v-21c0-.825-.675-1.5-1.5-1.5z" fill="#2d327d"/><path fill-rule="evenodd" clip-rule="evenodd" d="m12.8925,4.62753c0,.885.7125,1.5975,1.5975,1.5975s1.5975-.7125,1.5975-1.5975-.7125-1.5975-1.5975-1.5975-1.5975.72-1.5975,1.5975z" fill="#fff"/><path fill-rule="evenodd" clip-rule="evenodd" d="m5.72999,18.0824,2.16-5.0775c.15-.3525.495-.5775.8775-.5775h3.69001l.195-1.59H9.59999c-.3225,0-.585-.2625-.585-.585,0-.32247.2625-.58497.585-.58497h3.20251l.24-1.9425c.09-.7275.75-1.2375,1.4775-1.1475s1.2375.75,1.1475,1.4775L15.03,13.1399c-.0075.06-.03.2175-.03.2325,0,.525-.4275.9525-.9525.9525H9.39749l-1.9125,4.5c-.1575.36-.51.5775-.8775.5775-.1275,0-.2475-.0225-.375-.075-.4875-.2025-.7125-.7575-.5025-1.245z" fill="#fff"/><path fill-rule="evenodd" clip-rule="evenodd" d="m8.63249,17.4375c.78749,1.3275,2.23501,2.2275,3.89251,2.2275,2.4975,0,4.515-2.025,4.515-4.515,0-1.2525-.51-2.385-1.335-3.2025l.18-1.5525c1.4925,1.0575,2.4675,2.79,2.4675,4.755,0,3.2175-2.61,5.8275-5.8275,5.8275-1.815,0-3.44251-.8325-4.50751-2.1375l.615-1.4025z" fill="#fff"/></svg>