<svg width="24" height="24" xmlns="http://www.w3.org/2000/svg"><path fill-rule="evenodd" clip-rule="evenodd" d="m22.5,0h-21C.675,0,0,.675,0,1.5v21c0,.825.675,1.5,1.5,1.5h21c.825,0,1.5-.675,1.5-1.5v-21c0-.825-.675-1.5-1.5-1.5z" fill="#2d327d"/><path fill-rule="evenodd" clip-rule="evenodd" d="m20.8725,18.585-8.1-14.02498c-.165-.27749-.435-.4725-.7725-.4725-.3225,0-.6075.2025-.7725.4725L3.12749,18.585c-.1575.2775-.1875.6075-.0225.9.165.285.48.42.795.4275H20.1c.3225-.0075.6225-.1425.795-.4275.165-.2775.1275-.63-.0225-.9z" fill="#fff"/><path fill-rule="evenodd" clip-rule="evenodd" d="m12.7725,4.56002,8.1,14.02498c.15.27.1875.6225.0225.9-.1725.285-.4725.42-.795.4275H3.89999c-.315-.0075-.63-.1425-.795-.4275-.165-.2925-.135-.6225.0225-.9L11.2275,4.56002c.165-.27.45-.4725.7725-.4725.3375,0,.6075.19501.7725.4725zM5.12682,18.36l-.00433.0075V18.36h.00433zM12,6.45003,5.12682,18.36H18.8775L12,6.45003z" fill="#eb0000"/><path fill-rule="evenodd" clip-rule="evenodd" d="m13.2,13.9576h1.8975c.2475,0,.465.2025.45.45,0,.24-.1875.435-.42.4425H13.53l-.465.5475h1.395c.195,0,.3675.165.3675.3675v1.665c-.0375.21-.225.3675-.4425.3675s-.405-.1575-.4425-.3675v-1.14H11.79s-1.17-.69-1.1775-.69l.12.525s.96.6675,1.0725.75c.1125.075.2025.18.2025.3225,0,.195-.1575.3525-.3525.3525-.0975,0-.15-.03-.255-.0975s-1.2225-.855-1.2225-.855c-.075-.06-.0825-.0825-.105-.165s-.315-1.4025-.315-1.4025c-.0225-.105-.045-.21-.045-.3225,0-.45.33-.8175.765-.8775l1.035-.255v-1.0875c.0075-.1875.165-.345.36-.345s.3525.1575.3525.3525v1.5c0,.09-.06.1575-.1425.1725l-.78.195.9975.5775.75-.8925c.03-.0525.0825-.09.15-.09zm-4.7625-.285c0-.4125.3375-.75.75-.75s.75.3375.75.75-.3375.75-.75.75-.75-.3375-.75-.75z"/></svg>