<svg width="24" height="24" xmlns="http://www.w3.org/2000/svg"><path fill-rule="evenodd" clip-rule="evenodd" d="m11.2324,2.9997h8.6912l.0696.4178,2,12,.0531.3189-.2689.1793-3.126,2.084H13v-1h5.0345l.832-11.64836-.9505,1.42571-.1484.22265h-6.871l-.91172,3.6225-.96976-.244.85025-3.3785H8.56574l.51823-.77735,2.00003-3,.1484-.22265zm9.7213,12.2633-1.8823,1.2548.6274-8.78363,1.2549,7.52883zM18.5657,3.9997h-6.7981l-1.3333,2h6.7981l1.3333-2zM5.79975,12.0981c-.21443-.063-.46747-.098-.79406-.0984-.44317-.0098-1.23343-.0232-1.897.4815C2.41835,13.0063,2,13.9747,2,15.5957c0,1.4982.24857,2.8091.7291,3.7655.48147.9582,1.24602,1.6385,2.2709,1.6385v.0001l.00937-.0002c.64018-.012,1.05163-.1509,1.37665-.2874.0621-.0261.11646-.0496.16501-.0705h.00012c.20464-.0883.30604-.1321.44885-.1413.14281.0092.24421.053.44885.1413h.00012c.04855.0209.10291.0444.16501.0705.32502.1365.73647.2754,1.37665.2874v.0001H9c1.0249,0,1.7894-.6803,2.2709-1.6385.4805-.9564.7291-2.2673.7291-3.7655,0-1.621-.4184-2.5894-1.1087-3.1145-.6636-.5047-1.45382-.4913-1.89699-.4815-.32659.0004-.57963.0354-.79406.0984-.21764.0639-.37282.1506-.48931.2167l-.0021.0012c-.11033.0626-.17298.0981-.25593.1261-.15376-.8811-.6596-1.472-1.15292-1.842-.29141-.2185-.58017-.3625-.79522-.4521-.10818-.0451-.19957-.0771-.26587-.0984-.0332-.0107-.06027-.0187-.08018-.0244l-.02444-.0067-.00799-.0021-.00291-.0007-.00117-.0003-.00052-.0002c-.00024,0-.00047-.0001-.12169.485s-.12144.485-.12165.485l-.00038-.0001-.00062-.0002h-.00016l.00901.0025c.00939.0026.02529.0073.04677.0142.04308.0139.10794.0365.18726.0695.15995.0666.37119.1726.57978.329.29171.2188.57427.5306.71233.9831-.03518-.0184-.07377-.0403-.12115-.0672h-.00003l-.0021-.0012c-.11649-.0661-.27167-.1528-.48931-.2167zM3,15.5957c0-1.475.38015-2.0646.71406-2.3185.35798-.2723.81399-.2878,1.27487-.2776v.0001H5c.25815,0,.41443.0275.51797.0579.10158.0298.17384.0681.27772.127l.0211.012c.10275.0585.24596.1401.43458.2009.20505.0661.44277.1022.74863.1022s.54358-.0361.74863-.1022c.18862-.0608.33183-.1424.43458-.2009l.0211-.012c.10388-.0589.17614-.0972.27772-.127.10354-.0304.25982-.0579.51797-.0579v.0001l.01107-.0002c.46088-.0102.91689.0053,1.27483.2776.334.2539.7141.8435.7141,2.3185,0,1.4058-.2359,2.5469-.6226,3.3165-.3847.7656-.86846,1.0856-1.37298,1.0875-.47782-.0096-.76126-.1079-1.00315-.2095-.03456-.0145-.07133-.0308-.11027-.048-.22177-.0981-.51396-.2274-.87046-.2421L7,19.4993l-.02054.0008c-.3565.0147-.64869.144-.87046.2421-.03894.0172-.07571.0335-.11027.048-.24189.1016-.52533.1999-1.00315.2095-.50452-.0019-.98828-.3219-1.37293-1.0875C3.23593,18.1426,3,17.0015,3,15.5957z"/></svg>