<svg width="36" height="36" viewBox="0,0,36,36" xmlns="http://www.w3.org/2000/svg"><path fill-rule="evenodd" clip-rule="evenodd" d="m9.48223,4.98223C9.95107,4.51339,10.587,4.25,11.25,4.25h13.5c.663,0,1.2989.26339,1.7678.73223.4688.46884.7322,1.10473.7322,1.76777v7.0398c-.4238.0668-.8333.2112-1.2073.4275-.532.3077-.9736.75-1.2804,1.2825-.3066.5323-.4678,1.1359-.4673,1.7502h-.045v2.5h-12.5v-2.5c.0005-.6143-.1607-1.2179-.4673-1.7502-.3068-.5325-.7484-.9748-1.2804-1.2825-.38725-.224-.8125-.3709-1.2523-.4343V6.75c0-.66304.26339-1.29893.73223-1.76777zM11.1081,17.25l-.3581-.0004c.0004-.4389-.1147-.8702-.3338-1.2506-.2192-.3803-.53456-.6963-.91454-.916-.37997-.2198-.81111-.3356-1.25006-.3359s-.87024.115-1.25049.3343c-.38025.2192-.69607.5348-.91569.9148-.21962.3801-.33531.8113-.33542,1.2502-.00011.439.11535.8702.33478,1.2504.21942.3802.53508.6959.91522.9153l.25.1444v5.2386c0,.6631.26339,1.299.73223,1.7678.46884.4689,1.10473.7322,1.76777.7322h16.545c.663,0,1.2989-.2633,1.7678-.7322.4688-.4688.7322-1.1047.7322-1.7678v-5.2386l.25-.1444c.3801-.2194.6958-.5351.9152-.9153s.3349-.8114.3348-1.2504c-.0001-.4389-.1158-.8701-.3354-1.2502-.2196-.38-.5355-.6956-.9157-.9148-.3803-.2193-.8116-.3346-1.2505-.3343-.439.0003-.8701.1161-1.2501.3359-.3799.2197-.6954.5357-.9145.916-.2191.3804-.3343.8117-.3338,1.2506l-.3581.0004h.3131v4.5c0,.5304-.2107,1.0391-.5858,1.4142s-.8838.5858-1.4142.5858h-10.5c-.5304,0-1.0391-.2107-1.4142-.5858s-.5858-.8838-.5858-1.4142v-4.5h.3581zm.6419,3.5v1c0,.2652.1054.5196.2929.7071s.4419.2929.7071.2929h10.5c.2652,0,.5196-.1054.7071-.2929s.2929-.4419.2929-.7071v-1h-12.5zm16.5-14v7.0268c.4543.0595.894.2079,1.2934.4383.5324.307.9745.7487,1.282,1.2808s.4694,1.1357.4696,1.7503c.0002.6145-.1615,1.2182-.4687,1.7505-.2577.4465-.6102.8294-1.0313,1.1227v4.6757c0,.9283-.3687,1.8185-1.0251,2.4749-.1603.1603-.3345.3034-.5198.4282v3.1546c.0023.2494-.045.4967-.1391.7276-.0946.2318-.2345.4424-.4115.6194s-.3876.3169-.6194.4114c-.2309.0942-.4782.1415-.7275.1392h-.205c-.2493.0023-.4966-.045-.7275-.1392-.2319-.0945-.4424-.2344-.6195-.4114-.177-.177-.3169-.3876-.4114-.6194-.0942-.2309-.1415-.4782-.1391-.7276v-2.5577h-12.5v2.5577c.0023.2494-.045.4967-.1391.7276-.0946.2318-.2345.4424-.4115.6194s-.3876.3169-.6194.4114c-.2309.0942-.4782.1415-.72752.1392h-.205c-.24932.0023-.49663-.045-.72752-.1392-.23181-.0945-.4424-.2344-.61942-.4114s-.3169-.3876-.41144-.6194c-.09417-.2309-.14145-.4782-.13912-.7276v-3.1853c-.16862-.1174-.32767-.2502-.47496-.3975C6.61875,26.6136,6.25,25.7234,6.25,24.7951v-4.6757c-.42109-.2933-.77361-.6762-1.03131-1.1227-.3072-.5323-.46885-1.136-.46869-1.7505.00016-.6146.16211-1.2182.46958-1.7503s.74962-.9738,1.28197-1.2808c.38627-.2228.81015-.3689,1.24845-.4321V6.75c0-.92826.36875-1.8185,1.02513-2.47487C9.4315,3.61875,10.3217,3.25,11.25,3.25h13.5c.9283,0,1.8185.36875,2.4749,1.02513C27.8813,4.9315,28.25,5.82174,28.25,6.75zm-1.955,21.5451c.3259,0,.6471-.0454.9551-.1328v2.6985c.0013.1172-.0208.2334-.0651.3419-.0442.1086-.1097.2071-.1926.29-.0828.0829-.1814.1483-.2899.1926-.1085.0442-.2248.0664-.342.0651h-.2154v-.0001l-.0055.0001c-.1172.0013-.2334-.0209-.3419-.0651-.1085-.0443-.2071-.1097-.29-.1926-.0828-.0829-.1483-.1814-.1925-.29-.0443-.1085-.0664-.2247-.0651-.3419v-2.5657h1.0449zm-16.545,0h1.0001v2.5657c.0013.1172-.0208.2334-.0651.3419-.0442.1086-.1097.2071-.1926.29-.0828.0829-.1814.1483-.2899.1926-.1085.0442-.22478.0664-.34195.0651h-.21547v-.0001l-.00546.0001c-.11718.0013-.23343-.0209-.34193-.0651-.10851-.0443-.20708-.1097-.28994-.1926s-.14834-.1814-.19259-.29c-.04425-.1085-.06639-.2247-.06511-.3419h.00003v-2.7115c.32164.0959.6582.1458.99992.1458z"/></svg>