<svg width="24" height="24" xmlns="http://www.w3.org/2000/svg"><path fill-rule="evenodd" clip-rule="evenodd" d="m12,2C6.47715,2,2,6.47715,2,12h1c0-4.97056,4.02944-9,9-9,4.9706,0,9,4.02944,9,9,0,4.9706-4.0294,9-9,9-3.54,0-6.73674-2.0445-8.22742-5H6v-1H2v4h1v-2.319C4.70796,19.8497,8.17713,22,12,22c5.5228,0,10-4.4772,10-10,0-5.52285-4.4772-10-10-10zM9.01123,5h.99997v1.99512h4V5h1v1.99512H16v1h-.9888v2H16v.99998h-.9888v2H16v1h-.9888v2H16v1h-.9888V19h-1v-2.0049h-4V19h-.99997v-2.0049H8v-1h1.01123v-2H8v-1h1.01123v-2H8v-.99998h1.01123v-2H8v-1h1.01123V5zm.99997,10.9951h4v-2h-4v2zM14.0112,10.9951v2h-4v-2h4zm-4-.99998h4v-2h-4v2z"/></svg>