<svg width="24" height="24" xmlns="http://www.w3.org/2000/svg"><path fill-rule="evenodd" clip-rule="evenodd" d="m22.5,0h-21C.675,0,0,.675,0,1.5v21c0,.825.675,1.5,1.5,1.5h21c.825,0,1.5-.675,1.5-1.5v-21c0-.825-.675-1.5-1.5-1.5z" fill="#2d327d"/><path fill-rule="evenodd" clip-rule="evenodd" d="m13.095,4.98003c.54,0,.975-.435.975-.975s-.435-.975-.975-.975-.975.435-.975.975.435.975.975.975z" fill="#fff"/><path fill-rule="evenodd" clip-rule="evenodd" d="m9.32998,7.40251c.54,0,.97502-.435.97502-.975s-.43502-.975-.97502-.975-.975.435-.975.975.435.975.975.975z" fill="#fff"/><path fill-rule="evenodd" clip-rule="evenodd" d="m5.57247,7.9425c-.54,0-.975.435-.975.975s.435.97501.975.97501.975-.43501.975-.97501-.435-.975-.975-.975z" fill="#fff"/><path fill-rule="evenodd" clip-rule="evenodd" d="m11.1525,8.385c-.0225.0675-.0375.135-.0375.21,0,.3225.2625.585.585.585.24,0,.4575-.15.54-.375l.6975-1.83.3525.135-.315.825,1.275-.84v-.6375c0-.63-.51-1.14-1.14-1.14-.4725,0-.9.2925-1.065.735l-.8925,2.3325z" fill="#fff"/><path fill-rule="evenodd" clip-rule="evenodd" d="m7.40249,10.8525c-.0225.0675-.0375.135-.0375.21,0,.3225.2625.585.585.585.24,0,.4575-.15.54-.375l.6975-1.82997.3525.135-.315.82497L10.5,9.56253v-.6375c0-.63-.51001-1.14-1.14001-1.14-.4725,0-.9.2925-1.065.735l-.8925,2.33247z" fill="#fff"/><path fill-rule="evenodd" clip-rule="evenodd" d="m6.74999,12.015v-.6375c0-.63-.51-1.14-1.14-1.14-.4725,0-.9.2925-1.065.735l-.8925,2.3475c-.0225.0675-.0375.135-.0375.21,0,.3225.2625.5775.585.5775.24,0,.4575-.15.54-.375l.6975-1.83.3525.135-.315.825,1.275-.8475z" fill="#fff"/><path fill-rule="evenodd" clip-rule="evenodd" d="m18.375,12.75c1.4475,0,2.625-1.1775,2.625-2.625S19.8225,7.5,18.375,7.5h-2.9925c-.2175,0-.435.0675-.6225.1875L3,15.435V21l12.525-8.25h2.85z" fill="#fff"/></svg>