<svg width="36" height="36" xmlns="http://www.w3.org/2000/svg"><path fill-rule="evenodd" clip-rule="evenodd" d="m9.14067,5.36897c-.10857-.04277-.19409-.08289-.2599-.11876.0658-.03589.15133-.07605.25996-.11886.40753-.1606,1.02677-.31528,1.82787-.44872,1.5942-.26555,3.8154-.43214,6.2814-.43214s4.6872.16659,6.2814.43214c.8011.13344,1.4203.28812,1.8279.44872.1086.04281.1941.08297.2599.11886-.0658.03586-.1513.07599-.2599.11876-.4076.16056-1.0268.31529-1.8279.44882-1.5942.26573-3.8155.4327-6.2814.4327s-4.6872-.16697-6.2814-.4327c-.8011-.13353-1.42034-.28826-1.82793-.44882zm16.58513.93041.0242-.0096v7.96072c0,.195-.1182.4606-.5168.7746-.393.3096-.9925.6103-1.7778.8721-1.5653.5218-3.7595.8533-6.2054.8533s-4.6401-.3315-6.2054-.8533c-.7853-.2618-1.38484-.5625-1.77776-.8721-.3986-.314-.51684-.5796-.51684-.7746V6.28978l.02416.0096c.50342.19832,1.20237.36684,2.03004.5048,1.6635.27727,3.9422.44631,6.4458.44631s4.7823-.16904,6.4458-.44631c.8277-.13796,1.5266-.30648,2.03-.5048zM26.75,14.2505V5.25049c0-.32188-.1961-.5509-.367-.69021-.1771-.14432-.4078-.26106-.6571-.35929-.5035-.19842-1.2025-.3669-2.0302-.50477-1.6634-.27708-3.9422-.44573-6.4457-.44573s-4.7823.16865-6.4457.44573c-.82772.13787-1.52672.30635-2.03021.50477-.24926.09823-.47996.21497-.65706.35929-.17095.13931-.36703.36833-.36703.69021v9.00001c0,.633.38558,1.1564.89798,1.5601.40355.318.92881.5981,1.53992.8392.3542.9938,1.2589,1.8024,2.4042,2.3658,1.2597.6198,2.8879.9853,4.6579.9853s3.3982-.3655,4.6578-.9853c1.1447-.5632,2.0491-1.3716,2.4027-2.3651.6118-.2414,1.1376-.5217,1.5415-.8399.5124-.4037.898-.9271.898-1.5601zm-13.7165,3.8679c-.6032-.2968-1.0737-.6421-1.4067-1.0089,1.571.4048,3.5216.641,5.6232.641,2.1012,0,4.0515-.2361,5.6223-.6408-.3328.3667-.803.7119-1.4061,1.0087-1.1021.5423-2.5752.8825-4.2162.8825s-3.1141-.3402-4.2165-.8825zM25.7792,5.13972c.0015-.00212.0025-.00317.0026-.00317.0001.00001-.0007.00106-.0026.00317zm-17.05837,0c-.00192-.00211-.00269-.00316-.00259-.00317.0001,0,.00106.00105.00259.00317zM8.74707,17.121l.74194,6.8199.0004.003.00342.0249c.00319.0226.00825.0571.01541.1023.01433.0903.03703.2231.06999.3884.06604.3311.17265.7896.33433,1.2974.32844,1.0315.86274,2.1972,1.68654,2.944,2.0877,1.8907,3.5707,2.9996,5.6509,2.9996s3.5648-1.109,5.6507-2.9994c.8239-.7469,1.3583-1.9126,1.6867-2.9442.1617-.5078.2683-.9663.3344-1.2974.0329-.1653.0556-.2981.07-.3884.0071-.0452.0122-.0797.0154-.1023l.0034-.0249.0004-.0031.7419-6.8198.9942.1081-.7425,6.825-.0009.0081L25.5076,24c.496.0622.496.0623.496.0625l-.0001.0003-.0001.001-.0003.0027-.0012.0093-.0045.0327c-.004.028-.0099.0681-.018.1191-.0162.1021-.0411.2479-.0769.4275-.0715.3584-.1867.8542-.3622,1.4052-.3458,1.0861-.9469,2.456-1.968,3.3817-2.0751,1.8806-3.8185,3.2585-6.3223,3.2585s-4.2458-1.378-6.3221-3.2583l-.0002-.0002c-1.02113-.9257-1.62221-2.2956-1.96801-3.3817-.17544-.551-.29065-1.0468-.36214-1.4052-.03581-.1796-.0608-.3254-.07697-.4275-.0081-.051-.01399-.0911-.01794-.1191l-.0045-.0327-.00121-.0093-.00035-.0027-.00012-.001-.00004-.0003c-.00002-.0002-.00004-.0003.49602-.0625l-.49606.0622-.00101-.0081h.00006l-.7425-6.825.99414-.1081zM17.25,27.2497c-.9579,0-1.81-.3361-2.435-.6862-.3103-.1738-.5582-.3475-.7271-.4766-.0842-.0644-.1484-.1174-.1902-.1531-.021-.0178-.0363-.0314-.0458-.0398l-.0097-.0089-.001-.0009c.0001.0001.0002.0002-.3412.3655s-.3413.3655-.3411.3656l.0002.0003.0007.0006.0019.0017.0055.0051.018.0162c.015.0135.0363.0322.0634.0554.0543.0463.1324.1106.2321.1868.199.1521.4865.3534.8455.5546.7138.3998,1.7367.8137,2.9238.8137s2.21-.4139,2.9238-.8137c.359-.2012.6465-.4025.8455-.5546.0997-.0762.1778-.1405.2321-.1868.0271-.0232.0484-.0419.0634-.0554l.018-.0162.0055-.0051.0019-.0017.0007-.0006.0002-.0003c.0002-.0001.0003-.0003-.3411-.3656s-.3413-.3654-.3412-.3655l-.001.0009-.0097.0089c-.0095.0084-.0248.022-.0458.0398-.0418.0357-.106.0887-.1902.1531-.1689.1291-.4168.3028-.7271.4766-.625.3501-1.4771.6862-2.435.6862zm3.6011-15.9999-2.4015-2.25004h1.8l3,3.00004-3,3h-1.8l2.4015-2.25h-2.8515v2.25h-1.5v-2.25h-2.85l2.4,2.25h-1.8l-3-3,3-3.00004h1.8l-2.4,2.25004h2.85V8.99976h1.5v2.25004h2.8515zM15.3003,22.8c0-.6-.45-1.2-1.2-1.2s-1.2.45-1.2,1.2c0,.6.45,1.2,1.2,1.2s1.2-.45,1.2-1.2zm6,0c0-.6-.45-1.2-1.2-1.2s-1.2.45-1.2,1.2c0,.6.45,1.2,1.2,1.2s1.2-.45,1.2-1.2z"/></svg>