<svg width="24" height="24" xmlns="http://www.w3.org/2000/svg"><path fill-rule="evenodd" clip-rule="evenodd" d="m10,3.0002h4v1.27657c1.2679.38181,2.1787,1.1226,2.8058,1.99358C17.7051,7.51943,18,9.00332,18,10v6c0,.3367.1051.8528.4058,1.2703C18.6881,17.6624,19.163,18,20,18v1h-5.0443c-.1117.6058-.4295,1.086-.8947,1.4226-.5653.4091-1.3055.5771-2.061.5771s-1.4957-.168-2.06101-.5771c-.46518-.3366-.78297-.8168-.89468-1.4226H4v-1c.33666,0,.85277-.1051,1.27035-.4058C5.66243,17.3119,6,16.837,6,16v-6c0-.99668.29489-2.48057,1.19423-3.72965C7.82134,5.39937,8.73208,4.65858,10,4.27677V3.0002zm1,1.06359c.2979-.03944.6117-.0613.9421-.06359H11v.06359zm1.0579-.06359c.3304.00229.6442.02415.9421.06359V4.0002h-.9421zM10.0734,19c.0869.266.2462.4637.4519.6125.3394.2457.8492.3872,1.4747.3872s1.1353-.1415,1.4747-.3872c.2057-.1488.365-.3465.4519-.6125h-3.8532zM7,10c0-.83666.25511-2.10277,1.00577-3.14535C8.73807,5.83757,9.96296,5,12,5c2.037,0,3.2619.83757,3.9942,1.85465C16.7449,7.89723,17,9.16334,17,10v6c0,.4967.1449,1.2306.5942,1.8547.0356.0493.0729.0978.1121.1453H6.30421C6.71958,17.5299,7,16.8746,7,16v-6z"/></svg>