<svg width="36" height="36" viewBox="0,0,36,36" xmlns="http://www.w3.org/2000/svg"><path fill-rule="evenodd" clip-rule="evenodd" d="m8.75,5.25c0-.55228.44772-1,1-1h18c.5523,0,1,.44772,1,1v25.5c0,.5523-.4477,1-1,1h-18c-.55228,0-1-.4477-1-1V5.25zm1-2c-1.10457,0-2,.89543-2,2v25.5c0,1.1046.89543,2,2,2h18c1.1046,0,2-.8954,2-2V5.25c0-1.10457-.8954-2-2-2h-18zm1.5,3h-.5v5.5h16v-5.5h-15.5zm.5,4.5v-3.5h14v3.5h-14zm1,4c-.5523,0-1,.4477-1,1s.4477,1,1,1,1-.4477,1-1-.4477-1-1-1zm-2,1c0-1.1046.8954-2,2-2s2,.8954,2,2-.8954,2-2,2-2-.8954-2-2zm7,0c0-.5523.4477-1,1-1s1,.4477,1,1-.4477,1-1,1-1-.4477-1-1zm1-2c-1.1046,0-2,.8954-2,2s.8954,2,2,2,2-.8954,2-2-.8954-2-2-2zm6,1c-.5523,0-1,.4477-1,1s.4477,1,1,1,1-.4477,1-1-.4477-1-1-1zm-2,1c0-1.1046.8954-2,2-2s2,.8954,2,2-.8954,2-2,2-2-.8954-2-2zm-11,6c0-.5523.4477-1,1-1s1,.4477,1,1-.4477,1-1,1-1-.4477-1-1zm1-2c-1.1046,0-2,.8954-2,2s.8954,2,2,2,2-.8954,2-2-.8954-2-2-2zm6,1c-.5523,0-1,.4477-1,1s.4477,1,1,1,1-.4477,1-1-.4477-1-1-1zm-2,1c0-1.1046.8954-2,2-2s2,.8954,2,2-.8954,2-2,2-2-.8954-2-2zm-5,6c0-.5523.4477-1,1-1s1,.4477,1,1-.4477,1-1,1-1-.4477-1-1zm1-2c-1.1046,0-2,.8954-2,2s.8954,2,2,2,2-.8954,2-2-.8954-2-2-2zm6,1c-.5523,0-1,.4477-1,1s.4477,1,1,1,1-.4477,1-1-.4477-1-1-1zm-2,1c0-1.1046.8954-2,2-2s2,.8954,2,2-.8954,2-2,2-2-.8954-2-2zm7-6c0-.5523.4477-1,1-1s1,.4477,1,1v6c0,.5523-.4477,1-1,1s-1-.4477-1-1v-6zm1-2c-1.1046,0-2,.8954-2,2v6c0,1.1046.8954,2,2,2s2-.8954,2-2v-6c0-1.1046-.8954-2-2-2z"/></svg>