<svg width="16" height="16" xmlns="http://www.w3.org/2000/svg"><rect width="16" height="16" rx="2" fill="#eb0000"/><path fill-rule="evenodd" clip-rule="evenodd" d="m10.3999,11.2654L7.99986,8.86541l-2.4,2.39999-.865-.866,2.4-2.39899-2.4-2.4.865-.865,2.4,2.399,2.40004-2.399.865.865-2.39904,2.4,2.39904,2.39899-.865.866z" fill="#fff"/><path fill-rule="evenodd" clip-rule="evenodd" d="m7.994,2C4.682,2,2,4.688,2,8s2.682,6,5.994,6C11.312,14,14,11.312,14,8s-2.688-6-6.006-6zM8,12.8c-2.652,0-4.8-2.148-4.8-4.8S5.348,3.2,8,3.2,12.8,5.348,12.8,8,10.652,12.8,8,12.8z" fill="#fff"/></svg>