<svg width="36" height="36" viewBox="0,0,36,36" xmlns="http://www.w3.org/2000/svg"><path fill-rule="evenodd" clip-rule="evenodd" d="m11.9204,5.74352c-.433-.07001-.8765-.03619-1.2939.09869s-.79677.36695-1.10693.67711c-.31017.31017-.54224.68956-.67712,1.10695-.13487.41739-.1687.86084-.09869,1.29385l.00641.03965v3.29013h9.53573c.1073-.7434.4519-1.4375.9892-1.9748.6564-.65642,1.5466-1.02517,2.4749-1.02517s1.8185.36875,2.4749,1.02517c.5373.5373.8819,1.2314.9892,1.9748h2.0361V8.95977l.0064-.03965c.07-.43301.0362-.87647-.0987-1.29385-.1349-.41739-.367-.79678-.6771-1.10695-.3102-.31016-.6896-.54223-1.107-.67711s-.8608-.1687-1.2938-.09869l-.0397.00641H11.96l-.0396-.00641zm12.2791,6.50638c-.0973-.4767-.3325-.9185-.6817-1.2677-.4689-.4689-1.1048-.7323-1.7678-.7323s-1.2989.2634-1.7678.7323c-.3492.3492-.5844.791-.6817,1.2677h4.899zm-15.44933,7.5v-6.5H27.2502v6.5H8.75017zM12.0389,4.74993c-.5763-.08666-1.165-.03858-1.7199.14073-.56805.18357-1.0844.49942-1.50654.92156-.42214.42213-.73799.93849-.92156,1.50656-.1793.55488-.22739,1.1436-.14073,1.71987v1.71125H6v1h1.75017v8.5H7.75v3.5h5.5v-3h9.5v3h5.5v-3h.0002v-9H30v-1h-1.7498V9.03866c.0866-.57627.0386-1.165-.1408-1.71988-.1835-.56807-.4994-1.08443-.9215-1.50656-.4222-.42214-.9385-.73799-1.5066-.92156-.5549-.17931-1.1436-.22739-1.7198-.14073H12.0389zM8.75,22.7499v-2h3.5v2h-3.5zm15,0v-2h3.5v2h-3.5zm-11.75-6.5c-.1381,0-.25.112-.25.25,0,.1381.1119.25.25.25s.25-.1119.25-.25c0-.138-.1119-.25-.25-.25zm-1.25.25c0-.6903.5596-1.25,1.25-1.25s1.25.5597,1.25,1.25c0,.6904-.5596,1.25-1.25,1.25s-1.25-.5596-1.25-1.25zm13.25-.25c-.1381,0-.25.112-.25.25,0,.1381.1119.25.25.25s.25-.1119.25-.25c0-.138-.1119-.25-.25-.25zm-1.25.25c0-.6903.5596-1.25,1.25-1.25s1.25.5597,1.25,1.25c0,.6904-.5596,1.25-1.25,1.25s-1.25-.5596-1.25-1.25zm-2,10.75v-1.5h-2c-.9283,0-1.8185.3688-2.4749,1.0252-.5373.5373-.8819,1.2314-.9892,1.9748H10.5v1h4.7859c.1073.7434.4519,1.4375.9892,1.9749.6564.6564,1.5466,1.0251,2.4749,1.0251h2v-1.5H24v-1h-3.25v-2H24v-1h-3.25zm-3.7678.2323c.4689-.4689,1.1048-.7323,1.7678-.7323h1v5h-1c-.663,0-1.2989-.2634-1.7678-.7322-.4688-.4688-.7322-1.1047-.7322-1.7678,0-.663.2634-1.2989.7322-1.7677z"/></svg>