<svg width="48" height="48" viewBox="0,0,48,48" xmlns="http://www.w3.org/2000/svg"><path fill-rule="evenodd" clip-rule="evenodd" d="m37.4996,1.99933c-1.3299,0-2.4174,1.03861-2.4955,2.34899-1.1798.55877-2.0046,1.75151-2.0046,3.15113,0,1.40412.8302,2.59895,2.0157,3.15535-.0091.1109-.0154.2267-.0154.3452,0,1.5198.5433,2.9038,1.4301,3.832-.2713.4939-.4301,1.0609-.4301,1.6685,0,1.933,1.567,3.5,3.5,3.5s3.5-1.567,3.5-3.5c0-.9042-.3492-1.7173-.9072-2.3324.5704-.8683.9072-1.9729.9072-3.1681,0-.6406-.104-1.24459-.2795-1.80072.7785-.63983,1.2796-1.60875,1.2796-2.69934,0-1.933-1.567-3.5-3.5-3.5-.3168,0-.6235.04278-.9149.122-.4468-.67556-1.2129-1.12261-2.0854-1.12261zm-1.5,2.49951c.0003-.82818.6718-1.49951,1.5-1.49951.623,0,1.1581.3805,1.3846.9244l.1924.46192.4617-.19271c.2967-.12379.6209-.193.9616-.193,1.3807,0,2.5,1.11928,2.5,2.5,0,.87798-.4552,1.64841-1.1454,2.09565l-.3406.22064.1459.37865c.2114.54896.34,1.15582.34,1.80512,0,1.1617-.3766,2.1896-.9558,2.9123l-.3035.3789.3697.3146c.5439.4628.8896,1.137.8896,1.8947,0,1.3808-1.1193,2.5-2.5,2.5s-2.5-1.1192-2.5-2.5c0-.5424.1781-1.0423.4771-1.4565l.2701-.3742-.3514-.2992c-.8193-.6976-1.3958-1.9278-1.3958-3.3706,0-.1903.0217-.3761.0474-.5962l.0016-.0138.0471-.40316-.385-.12888c-.9958-.33344-1.7114-1.2602-1.7114-2.35851,0-1.08792.7017-2.00808,1.6826-2.34973l.3685-.12836-.035-.38866c-.0023-.02468-.005-.04707-.0073-.06462l-.0033-.02428-.0025-.01899c-.0024-.01843-.0028-.025-.0029-.02591v-.00006zM4,22.0001h38.5c.8284,0,1.5.6715,1.5,1.5v3c0,.8284-.6716,1.5-1.5,1.5H4v-6zm1,1v4h8v-4H5zm11,4h-2v-4h2v4zm1,0h21v-4H17v4zm25.5,0H39v-4h3.5c.2761,0,.5.2238.5.5v3c0,.2761-.2239.5-.5.5z"/></svg>