<svg width="48" height="48" viewBox="0,0,48,48" xmlns="http://www.w3.org/2000/svg"><path fill-rule="evenodd" clip-rule="evenodd" d="m28.2494,27.9565,17.3971,17.3971.7071-.7072L3.35359,1.64645l-.70711.7071L22.3366,22.0436H4.0436v5.9129h24.2058zm-.9128-.9129-4.0872-4.0871h-6.2929v4.0871h10.3801zm7.681-22.68623c.0736-1.30696,1.1567-2.34413,2.4821-2.34413.8712,0,1.6358.44826,2.0792,1.12478.2932-.08061.602-.12417.921-.12417,1.9253,0,3.4861,1.56077,3.4861,3.48609,0,1.0896-.5021,2.05731-1.2818,2.69455.1769.55735.2818,1.16301.2818,1.80551,0,1.1968-.3385,2.3022-.9109,3.1695.5601.6136.9109,1.4266.9109,2.331,0,1.9254-1.5608,3.4861-3.4861,3.4861-1.9254,0-3.4861-1.5607-3.4861-3.4861,0-.6088.16-1.1767.4333-1.6707-.8882-.9254-1.4333-2.3091-1.4333-3.8298,0-.1216.0066-.2402.0161-.3537-1.1855-.5524-2.0164-1.74495-2.0164-3.14685,0-1.39691.8249-2.587,2.0041-3.14208zm2.4821-1.37195c-.836,0-1.5138.67772-1.5139,1.51372,0,.00036.0002.00669.0029.02746l.0026.01907.0032.02422c.0023.01747.0051.03965.0073.06406l.034.37784-.3583.1248c-.9861.3435-1.6919,1.26874-1.6919,2.36286,0,1.10458.7197,2.03646,1.721,2.3717l.3742.1253-.0458.39195-.0016.0142c-.0257.2198-.0474.4062-.0474.5974,0,1.4463.5778,2.6806,1.4006,3.3812l.3416.2909-.2625.3637c-.3006.4165-.4797.9191-.4797,1.4647,0,1.3884,1.1255,2.514,2.5139,2.514s2.5139-1.1256,2.5139-2.514c0-.7621-.3478-1.44-.8946-1.9053l-.3594-.3059.2951-.3683c.5813-.7254.9589-1.7564.9589-2.921,0-.6511-.1291-1.25972-.341-1.81012l-.1418-.36811.3311-.21451c.6939-.44967,1.1517-1.22439,1.1517-2.10732,0-1.3884-1.1255-2.51391-2.5139-2.51391-.3426,0-.6686.0696-.9669.19407l-.4489.18735-.187-.44906c-.2286-.5489-.7686-.93297-1.3974-.93297zM13.9565,22.9565h2.0871v4.0871h-2.0871v-4.0871zm-.9129,4.0871v-4.0871H4.95647v4.0871h8.08713zm25-4.0871H26v-.9129h16.5c.8044,0,1.4565.6521,1.4565,1.4565v3c0,.8043-.6521,1.4564-1.4565,1.4564H31v-.9129h7.0436v-4.0871zm.9129,0v4.0871H42.5c.3002,0,.5436-.2433.5436-.5435v-3c0-.3002-.2434-.5436-.5436-.5436h-3.5435z"/></svg>