<svg width="36" height="36" viewBox="0,0,36,36" xmlns="http://www.w3.org/2000/svg"><path fill-rule="evenodd" clip-rule="evenodd" d="m25.25,6.70312c0-2.2053,1.7947-4,4-4s4,1.7947,4,4c0,1.20814-.5623,2.35077-1.5047,3.10651l-.2831.22697.1281.3396c.105.2783.1597.5731.1597.8738,0,1.3777-1.1223,2.5-2.5,2.5s-2.5-1.1223-2.5-2.5c0-.3007.0547-.5955.1597-.8738l.1281-.3396-.2831-.22697C25.8123,9.0539,25.25,7.91126,25.25,6.70312zm4-5c-2.7576,0-5,2.24241-5,5,0,1.40186.6012,2.72481,1.6154,3.65978-.0761.2874-.1154.5851-.1154.8871,0,1.93,1.57,3.5,3.5,3.5s3.5-1.57,3.5-3.5c0-.302-.0393-.5997-.1154-.8871,1.0142-.93498,1.6154-2.25792,1.6154-3.65978,0-2.75759-2.2424-5-5-5zM3.25,16.75h29.875v5.5H3.25v-5.5zm1,1v3.5h6.5v-3.5h-6.5zm9.5,3.5h-2v-3.5h2v3.5zm1,0h13.625v-3.5H14.75v3.5zm17.375,0h-2.75v-3.5h2.75v3.5z"/></svg>