<svg width="48" height="48" xmlns="http://www.w3.org/2000/svg"><path fill-rule="evenodd" clip-rule="evenodd" d="m33.0121,5.00009h6.9816c.0064-.00012.0127-.00012.0191,0h1.0608c.7772,0,1.522.31092,2.0705.86326.5484.55219.8559,1.30042.8559,2.0799v7.05685h-8.9881c-.004.0001-.0081.0001-.0121.0001-.0023,0-.0047-.0001-.007-.0001h-6.9816l-.007.0001-.0121-.0001h-6.9817l-.0075.0001-.0115-.0001h-6.9816c-.0027,0-.0053.0001-.008.0001-.0037,0-.0074,0-.011-.0001H7.00907c-.00634.0001-.01269.0001-.01905,0H4V7.94325c0-.77947.30748-1.5277.8559-2.07991.54853-.55233,1.29324-.86325,2.07048-.86325h5.06452c.0064-.00012.0127-.00012.0191,0h6.9816c.0064-.00012.0128-.00012.0191,0h6.9816c.0063-.00012.0127-.00012.019,0h6.9817c.0063-.00012.0127-.00012.0191,0zm.2842,1h5.8567l-4.4444,8.00001h-5.8568l4.4445-8.00001zM43,14.0001h-7.1474l4.4444-8.00001h.7766c.5098,0,.9994.20388,1.3609.56791.3617.36417.5655.85879.5655,1.37525v6.05685zM32.1523,6.00009l-4.4444,8.00001h-5.8568l4.4444-8.00001h5.8568zM20.7071,14.0001l4.4445-8.00001h-5.8567l-4.4444,8.00001h5.8566zM18.151,6.00009l-4.4445,8.00001H7.84976l4.44444-8.00001h5.8568zM6.7058,14.0001l4.4444-8.00001H6.92638c-.50979,0-.99941.20388-1.36094.56792l-.35477-.35234.35477.35234C5.20379,6.93216,5,7.42678,5,7.94325v6.05685h1.7058zm-2.2058,2H4v28h40v-28H4.5zm.5,27v-26h38v26H5zm13.7443-20.4363L18,22.147v15.7062l.7443-.4169,12.5-7,.779-.4362-.779-.4363-12.5-7zM19,30.0001v-6.1469l10.9767,6.1469L19,36.147v-6.1469z"/></svg>