<svg width="24" height="24" xmlns="http://www.w3.org/2000/svg"><path fill-rule="evenodd" clip-rule="evenodd" d="m9.5,2H9v1H3v19h18V3h-6V2H9.5zm.5,1.5V3h4v1h-4v-.5zM9,4H4v17h16V4h-5v1H9V4zm2.3049,12.783h1.266v-1.219h-1.266v1.219zM9.73511,9.16601c-.257.398-.4.96099-.427,1.68799h1.00699c.082-1.28199.645-1.92199,1.688-1.92199.504,0,.885.162,1.143.486.214.266.322.59399.322.98399,0,.211-.037.418-.112.621-.089.239-.279.506-.568.803-.449.461-.739.776-.87.944-.131.167-.231.357-.302.568-.097.289-.15.732-.158,1.33h.996c0-.336.02-.609.059-.82.035-.211.096-.388.184-.531.088-.142.243-.321.466-.536.504-.492.822-.83.955-1.013.297-.403.445-.883.445-1.442,0-.67599-.218-1.22099-.656-1.63499-.469-.449-1.099-.673-1.892-.673-.493,0-.936.099-1.33.298-.395.2-.71099.483-.94999.85z"/></svg>