<svg width="36" height="36" xmlns="http://www.w3.org/2000/svg"><path fill-rule="evenodd" clip-rule="evenodd" d="m24.25,3v3h1V3h-1zm-.4863,8.6912c-.4182-.7985-1.0533-1.4264-1.7962-1.85255C22.6764,9.16141,23.6489,8.75,24.7499,8.75c2.2603,0,4,1.7396,4,4,0,1.7088-.9934,3.1142-2.4455,3.7025-.0768-.1358-.1633-.2659-.2596-.389-.4412-.5639-1.0741-.961-1.8648-1.0791.2459-1.2538.0651-2.374-.4163-3.2932zm2.9867,6.892c.0314-.4024.0028-.8087-.0869-1.1972,1.8353-.7357,3.0864-2.5104,3.0864-4.636,0-2.81264-2.1874-5-5-5-1.5107,0-2.849.63166-3.7595,1.66339-1.9564-.60655-4.3014.0206-5.582,2.30291-2.1922-1.2254-5.1274.3315-5.1346,3.1338-.74336.1433-1.34138.5855-1.75761,1.1673-.5043.7048-.75295,1.6239-.71355,2.5298.03955.9095.37146,1.8407,1.07309,2.5477.70786.7132,1.74987,1.1556,3.12467,1.1556h10.5c1.3311,0,2.3669-.4455,3.0879-1.1472.7149-.6956,1.0914-1.615,1.1621-2.5201zm-5.883-8.1564c-1.6857-.61152-3.7993-.0644-4.8095,2.2255l-.2655.6017-.5088-.4167c-1.6279-1.3334-4.2821-.0689-3.9867,2.4039l.0668.5593h-.5633c-.6158,0-1.11614.3028-1.47092.7987-.36092.5045-.55852,1.198-.52779,1.9045.03058.7031.28517,1.3843.78381,1.8867.4924.4962,1.2645.8601,2.4149.8601h10.5c1.0959,0,1.8736-.3608,2.3905-.8638.523-.509.8087-1.1928.8625-1.8814.0541-.6921-.1282-1.3553-.4962-1.8256-.3571-.4564-.9093-.7607-1.6868-.7296l-.6984.0279.1991-.67c.3789-1.2744.2331-2.3387-.1933-3.1529-.4296-.8204-1.1617-1.4205-2.0104-1.7283zm-1.3089-2.17054-2.1615-2.079.6933-.72073,2.1615,2.079-.6933.72073zm9.7774,9.89294,2.121,2.121.7071-.7071-2.121-2.121-.7071.7071zM31.5,12.25h3v1h-3v-1zm-.2101-6.77055-2.121,2.121.7071.70711,2.121-2.121-.7071-.70711zM7.80278,26.7764l1.5-3,.89442.4472-1.49999,3-.89443-.4472zm7.50002-3-1.5,3,.8944.4472,1.5-3-.8944-.4472zm-6.00002,6,3.00002-6,.8944.4472-3,6-.89442-.4472zM19.25,25.5c0-.1379.1121-.25.25-.25s.25.1121.25.25-.1121.25-.25.25-.25-.1121-.25-.25zm.25-1.25c-.6901,0-1.25.5599-1.25,1.25s.5599,1.25,1.25,1.25,1.25-.5599,1.25-1.25-.5599-1.25-1.25-1.25zm6,1c-.1379,0-.25.1121-.25.25s.1121.25.25.25c.1378,0,.25-.1121.25-.25s-.1122-.25-.25-.25zm-1.25.25c0-.6901.5599-1.25,1.25-1.25s1.25.5599,1.25,1.25-.5599,1.25-1.25,1.25-1.25-.5599-1.25-1.25zm-2,4.5c0-.1379.1121-.25.25-.25.1378,0,.25.1121.25.25s-.1122.25-.25.25c-.1379,0-.25-.1121-.25-.25zm.25-1.25c-.6901,0-1.25.5599-1.25,1.25s.5599,1.25,1.25,1.25,1.25-.5599,1.25-1.25-.5599-1.25-1.25-1.25z"/></svg>