<svg width="36" height="36" xmlns="http://www.w3.org/2000/svg"><path fill-rule="evenodd" clip-rule="evenodd" d="m24.25,6V3h1v3h-1zm-2.2825,3.83865c.7429.42615,1.378,1.05405,1.7962,1.85255.4814.9192.6622,2.0394.4163,3.2932.7907.1181,1.4236.5152,1.8648,1.0791.0963.1231.1828.2532.2596.389,1.4521-.5883,2.4455-1.9937,2.4455-3.7025,0-2.2604-1.7397-4-4-4-1.101,0-2.0735.41141-2.7824,1.08865zm4.696,7.54735c.0897.3885.1183.7948.0869,1.1972-.0707.9051-.4472,1.8245-1.1621,2.5201-.721.7017-1.7568,1.1472-3.0879,1.1472h-10.5c-1.3748,0-2.41681-.4424-3.12467-1.1556-.70163-.707-1.03354-1.6382-1.07309-2.5477-.0394-.9059.20925-1.825.71355-2.5298.41623-.5818,1.01425-1.024,1.75761-1.1673.0072-2.8023,2.9424-4.3592,5.1346-3.1338,1.2806-2.28231,3.6256-2.90946,5.582-2.30291C21.9009,8.38166,23.2392,7.75,24.7499,7.75c2.8126,0,5,2.18736,5,5,0,2.1256-1.2511,3.9003-3.0864,4.636zm-10.6056-4.7337c1.0102-2.2899,3.1238-2.83702,4.8095-2.2255.8487.3078,1.5808.9079,2.0104,1.7283.4264.8142.5722,1.8785.1933,3.1529l-.1991.67.6984-.0279c.7775-.0311,1.3297.2732,1.6868.7296.368.4703.5503,1.1335.4962,1.8256-.0538.6886-.3395,1.3724-.8625,1.8814-.5169.503-1.2946.8638-2.3905.8638h-10.5c-1.1504,0-1.9225-.3639-2.4149-.8601-.49864-.5024-.75323-1.1836-.78381-1.8867-.03073-.7065.16687-1.4.52779-1.9045.35478-.4959.85512-.7987,1.47092-.7987h.5633l-.0668-.5593c-.2954-2.4728,2.3588-3.7373,3.9867-2.4039l.5088.4167.2655-.6017zM17.397,6.17726l2.1615,2.079.6933-.72073-2.1615-2.079-.6933.72073zM31.4569,20.2702l-2.121-2.121.7071-.7071,2.121,2.121-.7071.7071zM34.5,12.25h-3v1h3v-1zm-5.3311-4.64955,2.121-2.121.7071.70711-2.121,2.121-.7071-.70711zM14.75,25.5c0-.1379.1121-.25.25-.25s.25.1121.25.25-.1121.25-.25.25-.25-.1121-.25-.25zm.25-1.25c-.6901,0-1.25.5599-1.25,1.25s.5599,1.25,1.25,1.25,1.25-.5599,1.25-1.25-.5599-1.25-1.25-1.25zm6,1c-.1379,0-.25.1121-.25.25s.1121.25.25.25.25-.1121.25-.25-.1121-.25-.25-.25zm-1.25.25c0-.6901.5599-1.25,1.25-1.25s1.25.5599,1.25,1.25-.5599,1.25-1.25,1.25-1.25-.5599-1.25-1.25zm-2,4.5c0-.1379.1121-.25.25-.25s.25.1121.25.25-.1121.25-.25.25-.25-.1121-.25-.25zm.25-1.25c-.6901,0-1.25.5599-1.25,1.25s.5599,1.25,1.25,1.25,1.25-.5599,1.25-1.25-.5599-1.25-1.25-1.25z"/></svg>