<svg width="24" height="24" xmlns="http://www.w3.org/2000/svg"><path fill-rule="evenodd" clip-rule="evenodd" d="m16.0001,2v2h1V2h-1zm-.0099,5.71679c-.2568-.49024-.6292-.88835-1.0658-1.18041C15.3474,6.20005,15.8912,6,16.5,6,17.9149,6,19,7.08514,19,8.5c0,1.01914-.5621,1.8619-1.3972,2.2573-.0339-.0517-.07-.1021-.1083-.151-.2885-.3688-.6899-.63776-1.1818-.74992.1248-.80445-.0043-1.53187-.3225-2.13959zm2.0096,4.68501c.0186-.2371.0077-.4771-.0336-.7109C19.1819,11.1458,20,9.93574,20,8.5,20,6.53286,18.4671,5,16.5,5c-1.0161,0-1.9233.40968-2.5594,1.08641-1.3115-.36184-2.8447.06034-3.7319,1.50382-1.51601-.71889-3.43074.3254-3.52273,2.17629-.48122.1281-.86969.43138-1.14398.81478-.3601.5033-.53437,1.1536-.50666,1.7907.02786.6407.26202,1.3033.76361,1.8087.50781.5116,1.24744.8196,2.20142.8196h7.00004c.9266,0,1.6601-.3111,2.1748-.812.5085-.4949.7747-1.1471.8246-1.7865zm-4.1449-5.29395c-1.0482-.38023-2.3618-.04562-2.9971,1.39429l-.2655.60174-.5088-.41676c-.96733-.79234-2.56609-.04791-2.38668,1.45388l.06682.5593h-.56328c-.34818,0-.6345.1685-.84508.4628-.21671.3029-.33994.7277-.3209,1.1655.01889.4343.17573.8468.47433,1.1476.29237.2946.76212.5241,1.49165.5241h7.00004c.6914,0,1.1668-.2264,1.4774-.5286.3167-.3082.492-.7248.5251-1.1478.0333-.4265-.0802-.8256-.296-1.1014-.2048-.2619-.5216-.4412-.9866-.4226l-.6984.028.1992-.6701c.2414-.81185.1455-1.4762-.1168-1.97708-.2656-.50707-.7195-.88063-1.2494-1.07287zm-.9313-1.48356-1.441-1.386.6932-.72072,1.441,1.386-.6932.72072zm6.5159,6.59301,1.414,1.414.7071-.7071-1.414-1.414-.7071.7071zM21.0001,8h2v1h-2V8zm-.2579-4.46488-1.414,1.414.7071.70711,1.414-1.414-.7071-.70711zM5.0529,17.7764l1-2,.89443.4472-1,2-.89443-.4472zm5-2-1,2,.89443.4472.99997-2-.8944-.4472zm-4,4,2-4,.89443.4472-2,4-.89443-.4472zM13.0001,16c-.5521,0-1,.4479-1,1s.4479,1,1,1c.5522,0,1-.4479,1-1s-.4478-1-1-1zm3,1c0-.5521.4479-1,1-1,.5522,0,1,.4479,1,1s-.4478,1-1,1c-.5521,0-1-.4479-1-1zm-1,2c-.5521,0-1,.4479-1,1s.4479,1,1,1c.5522,0,1-.4479,1-1s-.4478-1-1-1z"/></svg>