<svg width="24" height="24" xmlns="http://www.w3.org/2000/svg"><path fill-rule="evenodd" clip-rule="evenodd" d="m17.503,10.6021c-.2929-.3663-.6973-.63434-1.1905-.74607.1248-.80434-.0044-1.53166-.3226-2.13931-.3907-.74606-1.0493-1.27875-1.7943-1.549-1.3625-.49427-3.0417-.11585-3.9872,1.42244-1.51594-.71889-3.43068.3254-3.52267,2.17629-.48121.1281-.86969.43135-1.14398.81475-.36009.5033-.53437,1.1536-.50666,1.7908.02786.6407.26202,1.3032.76361,1.8086.50782.5117,1.24744.8196,2.20142.8196h6.99998c.9441,0,1.6885-.3086,2.209-.8103.5149-.4963.779-1.1513.8227-1.7932.0435-.6383-.1292-1.2947-.5288-1.7946zm-6.6454-2.10003c.6352-1.43991,1.9488-1.77452,2.997-1.39429.53.19224.9839.5658,1.2495,1.07287.2623.50088.3581,1.16523.1167,1.97715l-.1991.67.6984-.028c.4655-.0186.7897.1613,1.0018.4267.2224.2782.3411.6781.3122,1.1023-.0286.4205-.2007.8343-.519,1.1411-.3128.3015-.7986.5303-1.515.5303H8.00012c-.72952,0-1.19928-.2295-1.49165-.524-.2986-.3009-.45544-.7134-.47432-1.1477-.01904-.4378.10418-.8625.3209-1.1655.21057-.2943.4969-.4628.84507-.4628h.56329l-.06682-.5593c-.17941-1.50176,1.41934-2.24619,2.38671-1.45384l.5088.41675.2655-.60174zM5,16.9999h12.993v-1H5v1zm12.993,4H5v-1h12.993v1zm-11.993-2h10.993v-1H6v1z"/></svg>