<svg width="24" height="24" xmlns="http://www.w3.org/2000/svg"><path fill-rule="evenodd" clip-rule="evenodd" d="m16,2v2h1V2h-1zm-.01,5.71679c-.2567-.49024-.6291-.88835-1.0657-1.18041C15.3472,6.20005,15.891,6,16.4999,6c1.4148,0,2.5,1.08514,2.5,2.5,0,1.01914-.5621,1.8619-1.3973,2.2573-.0339-.0517-.0699-.1021-.1082-.151-.2885-.3688-.6899-.63776-1.1818-.74992.1248-.80445-.0043-1.53187-.3226-2.13959zm2.0097,4.68501c.0185-.2371.0076-.4771-.0337-.7109,1.2158-.5451,2.0339-1.75516,2.0339-3.1909,0-1.96714-1.5329-3.5-3.5-3.5-1.0161,0-1.9234.40968-2.5595,1.08641-1.3114-.36184-2.8446.06034-3.7319,1.50382-1.51593-.71889-3.43066.3254-3.52265,2.17629-.48122.1281-.86969.43138-1.14398.81478-.3601.5033-.53437,1.1536-.50666,1.7907.02786.6407.26202,1.3033.76361,1.8087.50781.5116,1.24743.8196,2.20141.8196h6.99997c.9266,0,1.6602-.3111,2.1749-.812.5085-.4949.7747-1.1471.8246-1.7865zm-7.142-3.89966c.6352-1.43991,1.9488-1.77452,2.997-1.39429.53.19224.9839.5658,1.2495,1.07287.2623.50088.3581,1.16523.1168,1.97708l-.1992.6701.6984-.028c.465-.0186.7817.1607.9866.4226.2158.2758.3293.6749.296,1.1014-.0331.423-.2084.8396-.5252,1.1478-.3105.3022-.786.5286-1.4774.5286H8.00023c-.72952,0-1.19927-.2295-1.49164-.5241-.2986-.3008-.45544-.7133-.47433-1.1476-.01904-.4378.10418-.8626.3209-1.1655.21058-.2943.4969-.4628.84507-.4628h.56329l-.06682-.5593c-.17941-1.50179,1.41934-2.24622,2.3867-1.45388l.5088.41676.2655-.60174zM7.05278,17.7764l1-2,.89443.4472-1,2-.89443-.4472zm6.00002,0,1-2,.8944.4472-1,2-.8944-.4472zm-3-2-2.00002,4,.89443.4472,1.99999-4-.8944-.4472zm.0498,4,2-4,.8944.4472-2,4-.8944-.4472zM12.9235,5.62429l-1.441-1.386.6932-.72072,1.441,1.386-.6932.72072zM19.4394,12.2173l1.414,1.414.7071-.7071-1.414-1.414-.7071.7071zM21,8h2v1h-2V8zm-.2579-4.46488-1.414,1.414.7071.70711,1.414-1.414-.7071-.70711z"/></svg>