<svg width="36" height="36" xmlns="http://www.w3.org/2000/svg"><path fill-rule="evenodd" clip-rule="evenodd" d="m5.96985,8.28543C4.81878,8.92491,4.25,9.7285,4.25,10.5s.56878,1.5751,1.71985,2.2146c1.13413.63,2.7348,1.0354,4.53015,1.0354,1.7953,0,3.396-.4054,4.5301-1.0354,1.1511-.6395,1.7199-1.4431,1.7199-2.2146s-.5688-1.57509-1.7199-2.21457C13.896,7.65535,12.2953,7.25,10.5,7.25c-1.79535,0-3.39602.40535-4.53015,1.03543zM17.75,10.5c0-1.29957-.9423-2.37098-2.2342-3.08873C14.2069,6.68411,12.4326,6.25,10.5,6.25c-1.93257,0-3.70691.43411-5.01579,1.16127C4.19226,8.12902,3.25,9.20043,3.25,10.5v18c0,1.2995.94226,2.371,2.2342,3.0887C6.79308,32.3159,8.56742,32.75,10.5,32.75c1.7462,0,3.4157-.1483,4.7238-.8029l-.4476-.8942c-1.0842.5425-2.5491.6971-4.2762.6971-1.79535,0-3.39602-.4054-4.53015-1.0354C4.81877,30.0751,4.25,29.2715,4.25,28.5v-2.3206c.3473.3452.76798.6503,1.2342.9093C6.79308,27.8159,8.56742,28.25,10.5,28.25c1.7462,0,3.4157-.1483,4.7238-.8029l-.4476-.8942c-1.0842.5425-2.5491.6971-4.2762.6971-1.79535,0-3.39602-.4054-4.53015-1.0354C4.81877,25.5751,4.25,24.7715,4.25,24v-2.3206c.3473.3452.76798.6503,1.2342.9093C6.79308,23.3159,8.56742,23.75,10.5,23.75c1.7462,0,3.4157-.1483,4.7238-.8029l-.4476-.8942c-1.0842.5425-2.5491.6971-4.2762.6971-1.79535,0-3.39602-.4054-4.53015-1.0354C4.81877,21.0751,4.25,20.2715,4.25,19.5v-2.3206c.3473.3452.76798.6503,1.2342.9093C6.79308,18.8159,8.56742,19.25,10.5,19.25c1.7462,0,3.4157-.1483,4.7238-.8029l-.4476-.8942c-1.0842.5425-2.5491.6971-4.2762.6971-1.79535,0-3.39602-.4054-4.53015-1.0354C4.81877,16.5751,4.25,15.7715,4.25,15v-2.3206c.3473.3452.76798.6503,1.23421.9093C6.79309,14.3159,8.56743,14.75,10.5,14.75c1.9326,0,3.7069-.4341,5.0158-1.1613.4662-.259.8869-.5641,1.2342-.9093V15h1v-4.5zm1.7199,6.7854c-1.1511.6395-1.7199,1.4431-1.7199,2.2146s.5688,1.5751,1.7199,2.2146c1.1341.63,2.7348,1.0354,4.5301,1.0354s3.396-.4054,4.5301-1.0354c1.1511-.6395,1.7199-1.4431,1.7199-2.2146s-.5688-1.5751-1.7199-2.2146C27.396,16.6554,25.7953,16.25,24,16.25s-3.396.4054-4.5301,1.0354zm9.5459,5.3033c.4662-.259.8869-.5641,1.2342-.9093V24c0,.7715-.5688,1.5751-1.7199,2.2146C27.396,26.8446,25.7953,27.25,24,27.25s-3.396-.4054-4.5301-1.0354C18.3188,25.5751,17.75,24.7715,17.75,24v-2.3206c.3473.3452.768.6503,1.2342.9093C20.2931,23.3159,22.0674,23.75,24,23.75s3.7069-.4341,5.0158-1.1613zM31.25,19.5v9c0,1.2996-.9423,2.371-2.2342,3.0887C27.7069,32.3159,25.9326,32.75,24,32.75s-3.7069-.4341-5.0158-1.1613C17.6923,30.871,16.75,29.7996,16.75,28.5v-9c0-1.2996.9423-2.371,2.2342-3.0887C20.2931,15.6841,22.0674,15.25,24,15.25s3.7069.4341,5.0158,1.1613c1.2919.7177,2.2342,1.7891,2.2342,3.0887zm-2.2342,7.5887c.4662-.259.8869-.5641,1.2342-.9093V28.5c0,.7715-.5688,1.5751-1.7199,2.2146C27.396,31.3446,25.7953,31.75,24,31.75s-3.396-.4054-4.5301-1.0354C18.3188,30.0751,17.75,29.2715,17.75,28.5v-2.3206c.3473.3452.768.6503,1.2342.9093C20.2931,27.8159,22.0674,28.25,24,28.25s3.7069-.4341,5.0158-1.1613z"/></svg>