<svg width="16" height="16" xmlns="http://www.w3.org/2000/svg"><rect width="16" height="16" rx="2" fill="#eb0000"/><path fill-rule="evenodd" clip-rule="evenodd" d="m9.6636,4.10361c0,.60942-.48002,1.10259-1.0691,1.10259-.59167,0-1.06971-.49317-1.06976-1.10259C7.52474,3.49463,8.00278,3,8.5945,3c.58908,0,1.06915.49463,1.0691,1.10361zM7.9152,12.8793s.26284-.188.41896-.2956c.15608-.1084.59851-.2979.59851-.2979l.21082-.3045L6.00436,9.34033l.76095.92837-1.89793,3.618c-.11345.2161-.32875.3382-.55102.3382-.10181,0-.20361-.0244-.29845-.0782-.30504-.1695-.41627-.5616-.25294-.8766l1.49306-2.8427-1.6001-1.94918-.12267,2.32648-.80438,3.0771c-.07576.2881-.32889.4774-.6059.4774-.05211,0-.10883-.0072-.16315-.0222-.3335-.0926-.53015-.448-.43993-.7922l.75967-2.8978-.05733-2.98518.76777-.85588L1.77287,5.78022c-.13512-.11232-.15656-.31507-.04773-.45427.11142-.1392.30769-.15865.44257-.04634l.62813.52837.42495-2.24261h3.23448l1.53814,2.28827L6.47114,8.89948,9.62351,11.5511c.0636-.0338.13116-.0681.19669-.0981l.00973-.0045c.23097-.1072.46017-.2134.56517-.347.1018-.1343.3641-.1611.3641-.1611l.4165.0817.3388.4849.3405.4297.6248-.027s.2624.1613.3404.2164c.0604.0401.0433.2255.0323.3454-.0033.0358-.0061.0658-.0061.0843,0,.0817.2343.4847.2343.4847l.3123.3492.4684-.027.2889.2969.3644.3773H6.45527l.80914-.6204h.33873l.18199-.2147.13007-.3225zM5.58295,8.15241l-.64754-.54471,1.20774-.54305-.5602,1.08776zM3.97763,4.74964l.7813.10736L3.74354,5.93391l.23409-1.18427z" fill="#fff"/></svg>