<svg width="36" height="36" xmlns="http://www.w3.org/2000/svg"><path fill-rule="evenodd" clip-rule="evenodd" d="m19.759,4.49854-.009,3.09449-.0011.38871.3764.09695C21.203,8.35623,22,9.33581,22,10.5c0,.611-.2193,1.171-.5836,1.6054l-2.4311-1.2966-.2353-.1255-.2353.1255-1.3044.6957C17.0751,11.197,17,10.8572,17,10.5h-1c0,.5273.1168,1.0276.3259,1.4762L7.375,16.75H4.75v14.5h28v-14.5h-2.625l-7.8124-4.1666C22.7445,12.0011,23,11.2803,23,10.5c0-1.49288-.9348-2.76613-2.2489-3.26958l.0079-2.72898-1-.0029zm.7838,8.27426-1.7928-.9561-.9562.5099c.4469.4177,1.0469.6734,1.7062.6734.3722,0,.7254-.0814,1.0428-.2272zm-3.6665.0431C17.5178,13.542,18.4557,14,19.5,14c.7753,0,1.4916-.2521,2.0714-.6786L28,16.75H9.5l7.3763-3.9341zM5.75,30.25v-12.5h3.5v12.5h-3.5zm4.5,0h3.5v-12.5h-3.5v12.5zm8,0h-3.5v-12.5h3.5v12.5zm1,0h3.5v-12.5h-3.5v12.5zm8,0h-3.5v-12.5h3.5v12.5zm1,0h3.5v-12.5h-3.5v12.5z"/></svg>