<svg width="24" height="24" xmlns="http://www.w3.org/2000/svg"><path fill-rule="evenodd" clip-rule="evenodd" d="m6,4.00024h6.7071l.1465.14645,5,5L18,9.29314V20.0002H6V4.00024zm1,1V19.0002h10v-9h-5V5.00024H7zm6,.70711,3.2929,3.29289H13V5.70735zm-2.0257,3.63422-.511-1.53228-.444,1.55301-2.00004,6.995-.18226.6375h8.3032l-.1551-.6212-1-4.005-.2743-1.0986-.6271.9429-1.4332,2.1547-1.6762-5.02603zM9.163,15.9948l1.3737-4.8046,1.489,4.4647.1133.3399H9.163zm5.6968,0h-2.0905l.147-.2211,1.3729-2.0642.5706,2.2853z"/></svg>