<svg width="24" height="24" xmlns="http://www.w3.org/2000/svg"><path fill-rule="evenodd" clip-rule="evenodd" d="m6.49574,4h-.50013l.00013.50013.004,14.99997L5.99987,20H17.9998l-.0021-10.5061v-.20717l-.1465-.14642-4.998-4.994L12.7067,4H6.49574zm.50387,15L6.99587,5h5.00423v5.0006L12.5007,10l4.4971-.0054L16.9996,19H6.99961zM16.2914,8.99545l-3.2913-3.28863V8.9994l3.2913-.00395zM8.00013,14h2.99997v-1H8.00013v1zm2.99997,3H8.00013v-1h2.99997v1zm2.3536-2.6464,3-3-.7071-.7072-2.6465,2.6465-.6464-.6465-.7071.7072,1.3535,1.3535.3536-.3535zm3,0-3,3-.3536.3535-1.3535-1.3535.7071-.7072.6464.6465,2.6465-2.6465.7071.7072z"/></svg>