<svg width="24" height="24" xmlns="http://www.w3.org/2000/svg"><path fill-rule="evenodd" clip-rule="evenodd" d="m12.6981,3.99731.1466.14655,5.009,5.006.1465.14647V20.0035H6.00024V4.00402l.4995-.0005,5.99096-.006.2074-.00021zM7.00024,5.00302V19.0035h9.99996v-8.9997h-4.9988l-.0009-.49914-.0081-4.50664-4.99216.005zm5.99336.70348,3.2993,3.29727h-3.2933l-.006-3.29727zm.2232,5.2932h-.2071l-.1464.1465-1.8536,1.8535H8.99683v3h2.01247l1.8534,1.859.1476.148.2089-.001,1.28-.006.4976-.0023v-6.9977h-1.78zm-1.6464,2.8536,1.8535-1.8536h.5729v5.0024l-.5734.0026-1.8525-1.858-.1465-.147H9.99683v-1h1.42707l.1465-.1464z"/></svg>