<svg width="24" height="24" xmlns="http://www.w3.org/2000/svg"><path fill-rule="evenodd" clip-rule="evenodd" d="m18,5.5V4.29289l-.8536.85356-3.8821,3.88214-6.80113.97161h-.00388c-.02554-.00024-.06447-.00086-.11485-.00251-.1009-.00329-.24701-.01068-.42306-.02708-.35465-.03304-.81866-.10157-1.27551-.24091-.4615-.14075-.88087-.34334-1.17832-.6231C3.18405,8.83997,3,8.49492,3,8.0092H2c0,.78528.31595,1.38711.78245,1.82585.45255.42565,1.03318.68695,1.57168.85115.54315.1657,1.07914.2433,1.47449.2801.06026.0056.11754.0103.17138.0142V20h1v-9.0664l6.5707-.93863.165-.02357.1179-.11785L17,6.70711v1l.1464.14644L19.7929,10.5,18.5,11.7929l-.6464-.6465-.3536-.3535-.3536.3535-1,1L16,12.2929V20h1v-7.2929l.5-.5.6464.6465.3536.3535.3536-.3535,2-2,.3535-.3536-.3535-.3536L18,7.29289V5.5zm-7.5,8.4997h-.0069c-.79504.0111-1.32388.5336-1.65623,1.128-.33077.5916-.5247,1.3448-.64267,2.0508-.11939.7145-.16749,1.4226-.18613,1.9483-.00936.2639-.01137.484-.01102.6389.00017.0775.00093.1388.00167.1812l.001.0492.00034.0133.00011.0038.00003.0011.00001.0004c.00001.0001.00001.0003.49978-.015.49976-.0153.49977-.0152.49977-.0151l-.00001-.0004-.00006-.0022-.00026-.0101-.00086-.0423c-.00066-.0377-.00137-.094-.00153-.1661-.00032-.1444.00155-.3518.0104-.6012.01776-.5008.06335-1.1622.17309-1.8189.11115-.6653.28178-1.2852.52917-1.7277.24494-.4381.5069-.6108.7942-.616H14v5h1v-6h-4.5zm6-5.4995c-.5521,0-1,.44786-1,1,0,.5521.4479,1,1,1s1-.4479,1-1c0-.55214-.4479-1-1-1z"/></svg>