<svg width="24" height="24" viewBox="0,0,24,24" xmlns="http://www.w3.org/2000/svg"><path fill-rule="evenodd" clip-rule="evenodd" d="m11.4999,2h-.4489l-.0482.44627c-.5099,4.71778-1.48104,9.37423-2.89949,13.90253-.5447,1.6944-1.22957,3.3406-2.0475,4.9214L5.67822,22h4.82168v-.5c0-.3978.158-.7794.4393-1.0607S11.6021,20,11.9999,20s.7793.158,1.0607.4393c.2813.2813.4393.6629.4393,1.0607v.5h4.8303l-.3884-.7339c-1.8652-3.5243-3.1041-8.2165-3.8767-12.05721-.3852-1.91463-.6524-3.60661-.8232-4.81956-.0854-.60633-.1467-1.09258-.1865-1.42665-.02-.16703-.0345-.29598-.0441-.38286l-.0106-.09824-.0026-.0245-.0006-.00593-.0001-.00136-.0001-.00028L12.4999,2.5l.4974-.0505L12.9517,2h-1.4518zm.4475,1h.1054l.0096.08115c.0406.34038.1028.83366.1893,1.44765.0211.14999.0437.30722.0677.4712h-.6283c.0945-.66529.18-1.33202.2563-2zm-.4054,3c-.2619,1.67746-.5818,3.34512-.9589,5h2.8394c-.1215-.5448-.234-1.07776-.3378-1.59389C12.8326,8.15293,12.6305,6.9943,12.4724,6h-.9304zm2.111,6h-3.3052c-.3257,1.3427-.6894,2.6766-1.0906,4h5.489c-.4197-1.3389-.7821-2.6937-1.0932-4zm1.4187,5H8.94227c-.45628,1.3676-1.00148,2.7038-1.63206,4h2.24018c.09732-.4767.33254-.9186.68171-1.2678C10.701,19.2634,11.3369,19,11.9999,19s1.2989.2634,1.7678.7322c.3491.3492.5844.7911.6817,1.2678h2.2364c-.6073-1.2485-1.1431-2.6066-1.6141-4z"/></svg>