<svg width="24" height="24" xmlns="http://www.w3.org/2000/svg"><path fill-rule="evenodd" clip-rule="evenodd" d="m22.5,0h-21C.675,0,0,.675,0,1.5v21c0,.825.675,1.5,1.5,1.5h21c.825,0,1.5-.675,1.5-1.5v-21c0-.825-.675-1.5-1.5-1.5z" fill="#237f52"/><path fill-rule="evenodd" clip-rule="evenodd" d="m15,3.375c0-.21.165-.375.375-.375s.375.165.375.375v17.25c0,.21-.165.375-.375.375S15,20.835,15,20.625v-.9375H9v.9375c0,.21-.165.375-.375.375s-.375-.165-.375-.375V3.375c0-.21.165-.375.375-.375S9,3.165,9,3.375v.9375h6V3.375zM9,19.3125h6v-2.625H9v2.625zm6-3H9v-2.625h6v2.625zm-6-3h6v-2.625H9v2.625zm6-3H9v-2.625h6v2.625zm-6-3h6v-2.625H9v2.625z" fill="#fff"/></svg>