<svg width="36" height="36" viewBox="0,0,36,36" xmlns="http://www.w3.org/2000/svg"><path fill-rule="evenodd" clip-rule="evenodd" d="m18,5.75C11.2411,5.75,5.75,11.2411,5.75,18c0,5.1022,3.0981,9.4688,7.5224,11.3135l-.3848.923C8.1019,28.2412,4.75,23.5178,4.75,18,4.75,10.6889,10.6889,4.75,18,4.75S31.25,10.6889,31.25,18c0,.5151-.0312,1.0117-.0773,1.4882l-.9954-.0964c.0439-.4535.0727-.9169.0727-1.3918,0-6.7589-5.4911-12.25-12.25-12.25zm13.0219,17.6769c-.287-.572-.9788-.8279-1.575-.5724h-.0001l-9,3.855-.2128.0912-.2071-.1033-5.295-2.64-.0005-.0003c-.3088-.1544-.6676-.1546-.9765-.0006-.6929.3527-.8077,1.3008-.2298,1.7986.8268.7044,1.7822,1.6274,2.5787,2.6945.708.9486,1.3079,2.0345,1.5635,3.2003H23.25c1.3738,0,2.5-1.1261,2.5-2.5v-1.8085l.2758-.1384,4.455-2.235.0006-.0003c.5896-.2948.8402-1.0286.5405-1.6408zm-1.9689-1.4916c1.0833-.4642,2.3407-.0009,2.8642,1.046l.0015.0032c.5392,1.0975.0997,2.4327-.9901,2.9776L26.75,28.0585v1.1914c0,1.9262-1.5739,3.5-3.5,3.5h-6.4341l-.061-.4297c-.1563-1.1012-.713-2.1817-1.4525-3.1725-.737-.9875-1.6337-1.8566-2.4267-2.5322l-.0017-.0014c-1.1308-.9721-.8859-2.7824.4297-3.4501l.0027-.0013c.5907-.2953,1.2813-.2954,1.872-.0001l.0002.0001,5.0873,2.5365,8.7871-3.7639zM13.25,13.5c0-.1381.1119-.25.25-.25s.25.1119.25.25-.1119.25-.25.25-.25-.1119-.25-.25zm.25-1.25c-.6904,0-1.25.5596-1.25,1.25s.5596,1.25,1.25,1.25,1.25-.5596,1.25-1.25-.5596-1.25-1.25-1.25zm9,1c-.1381,0-.25.1119-.25.25s.1119.25.25.25.25-.1119.25-.25-.1119-.25-.25-.25zm-1.25.25c0-.6904.5596-1.25,1.25-1.25s1.25.5596,1.25,1.25-.5596,1.25-1.25,1.25-1.25-.5596-1.25-1.25zm-10.6519,7.9903,15-3-.1962-.9806-15,3,.1962.9806z" clip-path="url(#a)"/><defs><clipPath id="a"><path fill="#fff" d="m0,0h36v36H0z"/></clipPath></defs></svg>