<svg width="24" height="24" xmlns="http://www.w3.org/2000/svg"><path fill-rule="evenodd" clip-rule="evenodd" d="m12,3c-.8569,0-1.3899.30191-1.6927.6947-.0805.10438-.1396.20882-.1831.3053H8v1H4v17h16V5h-4V4h-2.1242c-.0435-.09648-.1026-.20092-.1831-.3053C13.3899,3.30191,12.8569,3,12,3zm4,3v1H8V6H5v15h14V6h-3zm-5.0206-1,.0197-.46877.0003-.0019c.0012-.00832.0042-.0255.0108-.04854.0133-.04666.0393-.11097.089-.17549C11.1819,4.19809,11.3989,4,12,4s.8181.19809.9008.3053c.0497.06452.0757.12883.089.17549.0066.02304.0096.04022.0108.04854l.0003.0019L13.0206,5H15v1H9V5h1.9794zM7,9v1h10V9H7zm10,3v1H7v-1h10zM7,15v1h10v-1H7zm5,4H7v-1h5v1z"/></svg>