<svg width="24" height="24" xmlns="http://www.w3.org/2000/svg"><path fill-rule="evenodd" clip-rule="evenodd" d="m4.99951,5v-.99976h-1V5H2v15h20V5h-1.999v-.99976h-1V5H4.99951zM17,9.99976V8.08247c-.5872.20218-1,.75372-1,1.41729,0,.83964.661,1.50004,1.5,1.50004.8399,0,1.5-.6602,1.5-1.50004,0-.66382-.4124-1.21537-1-1.41742v1.91742h-1zm-2-.5c0-1.39231,1.109-2.5,2.5-2.5,1.3921,0,2.5,1.10785,2.5,2.5,0,1.39214-1.1079,2.50004-2.5,2.50004-1.391,0-2.5-1.1077-2.5-2.50004zM3,19V6h18v13H3zM14,8.00024H4v-1h10v1zM4,10.0002h10v-.99996H4v.99996zm10,2H4v-1h10v1zM4,14.0007h10v-1H4v1zm10,2H4v-1h10v1zM4,18.0007h10v-1H4v1z"/></svg>