<svg width="48" height="48" xmlns="http://www.w3.org/2000/svg"><path fill-rule="evenodd" clip-rule="evenodd" d="m4.73943,11.5611L4,11.1577V26.809l.27639.1382,3.99696,1.9985,14.47415,7.4866c.3188.2059.8335.4131,1.408.3924.6211-.0224,1.2701-.3118,1.7605-1.0474.3652-.5478.4681-1.0816.4068-1.5589l.8135.4395.0001.0001c1.1411.6163,2.5731.1874,3.1893-.951l.0004-.0007c.2402-.4456.3217-.9383.2636-1.4101l1.1476.6201.0002.0001c1.1399.6162,2.5732.1887,3.1895-.9511.2379-.4402.3173-.9196.2612-1.3779,1.1209.5335,2.4841.0977,3.081-1.0062.13-.2405.2135-.494.2537-.7501l4.2202-2.3436.2572-.1428V11.5009l-.7427.4124-5.2137,2.895-7.7906-2.4336-.0025-.0008c-1.9112-.6174-3.7175.0042-5.4575,1.2197-2.5588-2.113-5.6616-1.9369-6.9307-1.5744l-.0155.0045-.0153.0054-6.789,2.4247-5.30337-2.8927zm18.22947,2.6542c-2.1845-1.6765-4.7796-1.5294-5.8166-1.2388l-6.9841,2.4944-.21098.0753-.19665-.1073L5,12.8423V26.191l3.72361,1.8618.00612.003-.00002.0001,14.49999,7.5.0246.0127.023.0154c.1835.1223.5068.2534.8422.2413.3039-.0109.6549-.1382.9645-.6026.3096-.4645.2921-.8374.1853-1.1221-.1178-.3142-.3632-.5623-.5466-.6846l.0303-.0455-3.1147-1.6826.4753-.8798,5.498,2.97c.6547.3536,1.4805.1066,1.8344-.5467.3544-.6578.1056-1.4955-.545-1.8477l-4.4775-2.4193.4753-.8798,4.4782,2.4197,2.8358,1.5323h.0002c.654.3537,1.4806.1072,1.8343-.5469.3435-.6354.1056-1.4379-.5339-1.8037l-6.1828-3.3407.4754-.8798,6.1526,3.3244.0002-.0004c.0131.0071.0262.0144.0391.0217l1.5571.8413.0001.0001c.6541.3536,1.4807.1071,1.8344-.547.3534-.6536.1066-1.4803-.5468-1.8343l.3665-.9386.1088.0588.0003.0002c.5515.2985.9364.7886,1.1167,1.3443l3.5653-1.9799V14.062l1-2.5611-1,2.5609v-.8619l-4.6582,2.5866-.1874.104-.2045-.0638-8-2.499-.0048-.0016c-1.7346-.5613-3.4611.1333-5.3935,1.7038-1.5791,1.2835-3.1998,3.0718-4.9692,5.0242h-.0001c-.3941.435-.7957.8781-1.2058,1.3256-.7678.9236-.6404,1.8545-.1525,2.4364.4999.5962,1.4353.8963,2.4522.3872l.0022-.0011,6.862-3.393.2318-.1146,10.4363,5.6379-.3665.9386-10.0901-5.4509-6.628,3.2773-.0012.0006c-1.4238.7121-2.8628.3171-3.6649-.6394-.8128-.9694-.9157-2.4456.1588-3.7292l.0073-.0087.0076-.0083c.4003-.4367.796-.8735,1.1876-1.3057v-.0001c1.7714-1.9553,3.4575-3.8164,5.1018-5.1528.0159-.0129.0318-.0258.0477-.0386zm14.2399,12.1172,4.7915-12.2707v.0002l-4.7911,12.2707-.0004-.0002z"/></svg>