<svg width="59" height="20" xmlns="http://www.w3.org/2000/svg"><path fill-rule="evenodd" clip-rule="evenodd" d="m2,0C.89543,0,0,.895431,0,2v16c0,1.1046.895431,2,2,2h55c1.1046,0,2-.8954,2-2V2c0-1.104569-.8954-2-2-2H2z" fill="#eb0000"/><path d="m42.2595,4.23511V15.8h-2.302V8.22984h-2.7119V6.55288c.4638-.00274.9256-.06116,1.3756-.17402.3529-.09924.6835-.26575.9737-.49043.4257-.32696.7121-.87806.8592-1.65332h1.8054zm7.6875,0V15.8h-2.302V8.22984h-2.7119V6.55288c.4638-.00274.9256-.06116,1.3756-.17402.3529-.09924.6835-.26575.9737-.49043.4257-.32696.7121-.87806.8592-1.65332h1.8054zM9.22072,4.19995h4.05608L8.25878,15.8H4.18579L9.22072,4.19995zm6.72758,0h14.3949l-1.4906,3.44547H18.5724l-2.0413,4.70908h10.2847L25.3259,15.8h-14.395l5.0174-11.60005z" fill="#fff"/></svg>