<svg width="59" height="20" xmlns="http://www.w3.org/2000/svg"><path fill-rule="evenodd" clip-rule="evenodd" d="m2,0C.89543,0,0,.895431,0,2v16c0,1.1046.895431,2,2,2h55c1.1046,0,2-.8954,2-2V2c0-1.104569-.8954-2-2-2H2z" fill="#eb0000"/><path d="m44.6322,13.7431v2.0566h-8.3013c-.0027-.6116.1-1.219.3036-1.7955.1862-.542.4768-1.0419.8553-1.4713.3054-.3365.639-.6461.9972-.9254.3809-.3008,1.1391-.8519,2.2745-1.65331.4475-.28592.84-.65033,1.1588-1.07578.2238-.34268.3392-.74524.3311-1.15488.0196-.45301-.1406-.89533-.4454-1.23008-.3054-.31733-.7314-.48861-1.1706-.47071-1.1878,0-1.8001.85697-1.837,2.5709h-2.2152v-.25311c0-1.40274.3915-2.48906,1.1746-3.25899.7621-.74863,1.7475-1.12304,2.9562-1.12324.9776-.03275,1.9335.29351,2.6884.91758.783.66445,1.1746,1.55833,1.1747,2.68164.0179.93251-.3174,1.83712-.9382,2.53128-.1747.2028-.3673.3894-.5754.5574-.1787.1398-.6491.476-1.4113,1.0086-.7252.5062-1.2442.8939-1.557,1.1629-.3211.2778-.613.5879-.8711.9254h5.4081zm6.6063-9.50787V15.7997h-2.302V8.22976h-2.7119V6.55281c.4639-.00276.9258-.06118,1.3758-.17402.3528-.09933.6833-.26583.9735-.49043.4257-.32696.7121-.878.8594-1.65313h1.8052zM9.22072,4.19995h4.05608L8.25878,15.8H4.18579L9.22072,4.19995zm6.72758,0h14.3949l-1.4906,3.44547H18.5724l-2.0413,4.70908h10.2847L25.3259,15.8h-14.395l5.0174-11.60005z" fill="#fff"/></svg>