<svg width="59" height="20" xmlns="http://www.w3.org/2000/svg"><path fill-rule="evenodd" clip-rule="evenodd" d="m2,0C.89543,0,0,.895431,0,2v16c0,1.1046.895431,2,2,2h55c1.1046,0,2-.8954,2-2V2c0-1.104569-.8954-2-2-2H2z" fill="#eb0000"/><path d="m44.6323,13.7433v2.0566h-8.3014c-.0027-.6116.0999-1.2191.3035-1.7957.1862-.5418.4769-1.0417.8553-1.4711.3054-.3365.6391-.6462.9974-.9255.3809-.3006,1.139-.8517,2.2743-1.65336.4476-.28576.8402-.65019,1.159-1.07578.2237-.34263.3391-.74512.3309-1.15469.0197-.45302-.1405-.89539-.4454-1.23008-.3054-.31733-.7313-.48861-1.1706-.4707-1.1878,0-1.8.8569-1.8368,2.5707h-2.2153v-.25312c0-1.40273.3916-2.48906,1.1747-3.25898.7619-.74864,1.7473-1.12298,2.9562-1.12305.9776-.03272,1.9334.29354,2.6884.91758.7828.66445,1.1744,1.55827,1.1745,2.68145.018.93252-.3173,1.83716-.9382,2.53123-.1746.203-.3672.3897-.5754.5576-.1787.1399-.6491.4761-1.4113,1.0086-.7252.5063-1.2442.8939-1.5568,1.1629-.3212.2778-.6131.5879-.8713.9254h5.4083zM9.22072,4.19995h4.05608L8.25878,15.8H4.18579L9.22072,4.19995zm6.72758,0h14.3949l-1.4906,3.44547H18.5724l-2.0413,4.70908h10.2847L25.3259,15.8h-14.395l5.0174-11.60005z" fill="#fff"/></svg>