<svg width="59" height="20" xmlns="http://www.w3.org/2000/svg"><path fill-rule="evenodd" clip-rule="evenodd" d="m2,0C.89543,0,0,.895431,0,2v16c0,1.1046.895431,2,2,2h55c1.1046,0,2-.8954,2-2V2c0-1.104569-.8954-2-2-2H2z" fill="#eb0000"/><path fill-rule="evenodd" clip-rule="evenodd" d="m44.7347,13.158v-1.9537h-1.4505V4.23535h-2.1286l-4.9272,6.75525v2.1674h4.8091V15.8h2.2467v-2.642h1.4505zm-3.6501-6.2332v4.3031h-2.9642l2.9642-4.3031z" fill="#fff"/><path d="m9.22072,4.19995h4.05608L8.25878,15.8H4.18579L9.22072,4.19995zm6.72758,0h14.3949l-1.4906,3.44547H18.5724l-2.0413,4.70908h10.2847L25.3259,15.8h-14.395l5.0174-11.60005z" fill="#fff"/></svg>