<svg width="59" height="20" xmlns="http://www.w3.org/2000/svg"><path fill-rule="evenodd" clip-rule="evenodd" d="m2,0C.89543,0,0,.895431,0,2v16c0,1.1046.895431,2,2,2h55c1.1046,0,2-.8954,2-2V2c0-1.104569-.8954-2-2-2H2z" fill="#eb0000"/><path fill-rule="evenodd" clip-rule="evenodd" d="m18.8421,6.5017.5803-1.94638c-.3205-.11091-.572-.19131-.7544-.24122-.1823-.04991-.3564-.0915-.5222-.12477-.3401-.06437-.6832-.11157-1.0279-.1414-.409-.03882-.7793-.05822-1.1109-.05822-.9196-.01145-1.8333.14934-2.6941.47411-1.5801.59076-2.8324,1.83218-3.44031,3.41033-.32915.85092-.49237,1.75735-.48081,2.67005,0,1.7301.49186,3.0998,1.47562,4.109.9063.8873,2.1995,1.3309,3.8796,1.3309.391-.0026.7814-.0304,1.1688-.0832.4256-.0554.8484-.1275,1.2684-.2162l.3647-2.2292c-.3793.2267-.7824.4108-1.202.5489-.3736.113-.762.1691-1.1523.1664-.4747.0066-.9457-.084-1.3844-.2662-.4065-.1717-.7692-.4333-1.0611-.7652-.303-.3504-.534-.7575-.6797-1.1978-.1655-.4987-.2468-1.0216-.2404-1.5471-.0078-.63384.1048-1.26333.3316-1.85492.2085-.54059.5244-1.033.9284-1.44732.4029-.40808.8855-.7281,1.4176-.93992.578-.22758,1.1946-.34057,1.8155-.3327.4246-.00481.8482.04551,1.26.14972.4397.12643.8627.30515,1.26.53234zM6.60641,4.18933,4.18579,15.8011h2.42062l2.4372-11.61177h-2.4372zM18.7758,15.8011l2.487-11.61177h2.9346l2.4703,8.81697h.0332l1.89-8.81697h2.172l-2.487,11.61177h-2.9843L22.871,6.90096h-.0166l-1.8569,8.90014h-2.2217z" fill="#fff"/></svg>