<svg width="59" height="20" xmlns="http://www.w3.org/2000/svg"><path fill-rule="evenodd" clip-rule="evenodd" d="m2,0C.89543,0,0,.895431,0,2v16c0,1.1046.895431,2,2,2h55c1.1046,0,2-.8954,2-2V2c0-1.104569-.8954-2-2-2H2z" fill="#eb0000"/><path d="m42.2923,4.23535V15.8h-2.302V8.23008h-2.7119V6.55313c.4639-.00275.9257-.06117,1.3757-.17403.3529-.0993.6834-.2658.9736-.49043.4257-.32695.7121-.87806.8593-1.65332h1.8053z" fill="#fff"/><path fill-rule="evenodd" clip-rule="evenodd" d="m51.2558,7.12267h2.1915c-.0803-.68029-.3387-1.32712-.7489-1.87479-.678-.85951-1.6555-1.28926-2.9326-1.28926-1.2745-.04112-2.4828.56947-3.2086,1.62147-.8093,1.11797-1.214,2.66308-1.214,4.63531,0,1.8459.3784,3.2842,1.1352,4.3151.7568,1.031,1.8158,1.5465,3.177,1.5465,1.014.0186,1.9943-.3652,2.7277-1.068.8409-.791,1.2613-1.8377,1.2613-3.1402.0347-.9973-.2994-1.9721-.9381-2.73695-.6474-.76589-1.6092-1.19154-2.6094-1.15488-.4897-.014-.9754.09185-1.4151.3084-.4405.24957-.8191.59567-1.1076,1.0125.0494-.65676.1684-1.30637.3547-1.93789.3574-1.04948.9618-1.57422,1.8132-1.57422.8041.00006,1.3087.4457,1.5137,1.33691zm-3.0273,3.34593c.2895-.4448.7873-.70799,1.3165-.69613v.00001c.5653-.0149,1.0984.26302,1.4112.73572.2911.425.4402.9319.4257,1.4475.012.5372-.1544,1.0632-.473,1.4951-.3051.4324-.8044.6844-1.3323.6723-.5384.0153-1.046-.2513-1.3402-.7039-.3029-.4326-.4603-.9508-.4494-1.4793-.0135-.5252.1412-1.0409.4415-1.4713z" fill="#fff"/><path d="m9.21994,4.19995h4.05626L8.2582,15.8H4.18521L9.21994,4.19995zM25.9805,12.3662c.3665,0,.6985-.2172.8463-.5537l3.2923-7.61255h-14.135L10.9661,15.8h4.0383l3.7988-8.69045h5.9937l-1.2014,2.77546-5.2259-.01902L22.5865,15.8h4.5973l-3.1239-3.4338h1.9206z" fill="#fff"/></svg>