<svg width="59" height="20" xmlns="http://www.w3.org/2000/svg"><path fill-rule="evenodd" clip-rule="evenodd" d="m2,0C.89543,0,0,.895431,0,2v16c0,1.1046.895431,2,2,2h55c1.1046,0,2-.8954,2-2V2c0-1.104569-.8954-2-2-2H2z" fill="#eb0000"/><path d="m42.2923,4.23535V15.8h-2.302V8.23008h-2.7119V6.55313c.4639-.00275.9257-.06117,1.3757-.17403.3529-.0993.6834-.2658.9736-.49043.4257-.32695.7121-.87806.8593-1.65332h1.8053zm10.7766,0V6.292h-4.6433l-.4967,2.60254c.5527-.58894,1.3307-.91156,2.1364-.88594.7957-.01745,1.5756.22394,2.2232.68809.9354.69101,1.4031,1.74041,1.4032,3.14821,0,1.3817-.4993,2.4759-1.4978,3.2828-.7895.637-1.778.9732-2.7908.9493-1.2193,0-2.1995-.3284-2.9405-.985-.741-.6564-1.1326-1.5437-1.1746-2.6617h2.2625c.0256.3771.1628.738.3942,1.0363.3624.424.8903.6692,1.4469.6723.5567.003,1.0872-.2365,1.4542-.6565.3471-.4433.5285-.9948.5124-1.5584.0291-.5803-.1625-1.15-.5361-1.5939-.3641-.40111-.8866-.61975-1.4269-.59709-.7024-.01334-1.3546.36409-1.6949.98089l-2.0576-.0317,1.0958-6.44684,6.3304-.00001zm-43.84896-.0354h4.05626L8.2582,15.8H4.18521L9.21994,4.19995zM25.9805,12.3662c.3665,0,.6985-.2172.8463-.5537l3.2923-7.61255h-14.135L10.9661,15.8h4.0383l3.7988-8.69045h5.9937l-1.2014,2.77546-5.2259-.01902L22.5865,15.8h4.5973l-3.1239-3.4338h1.9206z" fill="#fff"/></svg>