<svg width="59" height="20" xmlns="http://www.w3.org/2000/svg"><path fill-rule="evenodd" clip-rule="evenodd" d="m2,0C.89543,0,0,.895431,0,2v16c0,1.1046.895431,2,2,2h55c1.1046,0,2-.8954,2-2V2c0-1.104569-.8954-2-2-2H2z" fill="#eb0000"/><path fill-rule="evenodd" clip-rule="evenodd" d="m42.2765,7.12267h2.1916c-.0803-.6803-.3387-1.32714-.7489-1.87479-.678-.85951-1.6555-1.28926-2.9326-1.28926-1.2745-.04112-2.4828.56947-3.2086,1.62148-.8094,1.11796-1.214,2.66308-1.214,4.6353,0,1.8459.3784,3.2842,1.1352,4.3151.7568,1.031,1.8158,1.5465,3.177,1.5465,1.014.0186,1.9943-.3652,2.7277-1.068.8409-.7911,1.2613-1.8379,1.2613-3.1402.0347-.9973-.2995-1.97222-.9381-2.73714-.6475-.76584-1.6092-1.19142-2.6094-1.15469-.4897-.01399-.9754.09185-1.4152.3084-.4404.24957-.819.59567-1.1075,1.0125.0494-.65682.1684-1.3065.3547-1.93809.3574-1.04935.9618-1.57402,1.8132-1.57402.8041.00006,1.3087.4457,1.5136,1.33691zm-3.0272,3.34593c.2894-.4448.7873-.70799,1.3165-.69612.5653-.01498,1.0985.26302,1.4111.73572.2912.4251.4403.9319.4258,1.4475.012.5372-.1544,1.0632-.473,1.4951-.3052.4324-.8045.6843-1.3323.6723-.5384.0153-1.046-.2513-1.3402-.7039-.3029-.4326-.4604-.9508-.4494-1.4793-.0135-.5252.1412-1.0409.4415-1.4713z" fill="#fff"/><path d="m53.0689,4.23535V6.292h-4.6433l-.4967,2.60254c.5527-.58894,1.3307-.91156,2.1364-.88594.7957-.01745,1.5756.22394,2.2232.68809.9354.69082,1.4031,1.74021,1.4032,3.14821,0,1.3817-.4993,2.4759-1.4978,3.2828-.7895.637-1.778.9732-2.7908.9493-1.2193,0-2.1995-.3284-2.9405-.985-.741-.6564-1.1326-1.5437-1.1746-2.6617h2.2625c.0256.377.1629.7378.3942,1.0361.3623.424.8902.6694,1.4469.6725.5566.003,1.0872-.2365,1.4542-.6565.3471-.4434.5284-.9948.5124-1.5584.0291-.5803-.1625-1.15-.5361-1.5939-.3641-.40117-.8866-.61987-1.4269-.59728-.7024-.01326-1.3546.36418-1.6949.98088l-2.0576-.0317,1.0958-6.44664,6.3304-.00001zm-43.84893-.0354h4.05623L8.25823,15.8H4.18524L9.21997,4.19995zM25.9805,12.3662c.3665,0,.6985-.2172.8463-.5537l3.2923-7.61255h-14.135L10.9661,15.8h4.0383l3.7988-8.69045h5.9937l-1.2014,2.77546-5.2259-.01902L22.5865,15.8h4.5973l-3.1239-3.4338h1.9206z" fill="#fff"/></svg>