<svg width="48" height="48" xmlns="http://www.w3.org/2000/svg"><path fill-rule="evenodd" clip-rule="evenodd" d="m14.7031,6.04313L14.5,5.95288l-.2031.09025L5.29693,10.0431,5,10.1751V10.5l.00003,28v.7694l.70307-.3125L14.5,35.0472l8.7969,3.9097.2082.0925.2063-.0963,7.5001-3.5-.4229-.9062L24,37.7149V24.972c1.3189-.1509,2.2767-.8984,3.0041-1.8961.7998-1.097,1.3536-2.5382,1.8512-3.9048.0514-.1413.1023-.2818.1527-.4212.4493-1.2411.8662-2.3928,1.3979-3.2724.4655-.77.9699-1.2515,1.5941-1.4149V24h1v-9.9734c1.6668.1824,2.6259,1.2793,3.6873,2.5448l.0723.0862c1.0335,1.2335,2.1973,2.6225,4.2404,2.8189V23h1V10.1751l-.2969-.132-9-3.99997L32.5,5.95288l-.203.09025L23.5,9.95288,14.7031,6.04313zM41,18.4708V10.825l-8-3.55559v5.75239c2.1774.1932,3.389,1.6378,4.4534,2.9069h.0001c1.0652,1.27,1.9788,2.3528,3.5465,2.5421zM32,7.26943,24,10.825v13.1381c.9175-.1404,1.6105-.6733,2.1961-1.4764.704-.9655,1.2158-2.2743,1.7195-3.6577.0516-.1418.1032-.2845.1549-.4276.4409-1.2197.8931-2.4711,1.4797-3.4413.5793-.9583,1.3481-1.738,2.4498-1.9199V7.26943zM23,10.825l-8-3.55558V18.0358c.8093.1186,1.443.5215,1.9806,1.0428.4882.4733.9257,1.0757,1.3506,1.6607v.0001c.1134.1562.226.3111.3383.4621.5515.7407,1.1302,1.4345,1.8825,1.9481.6404.4371,1.4226.7541,2.448.8319V10.825zm-9-3.55558L6,10.825l.00002,19.1482c.51358-.0578.92365-.2056,1.25897-.4137.43956-.2727.78397-.6696,1.06484-1.1767.57561-1.0393.84043-2.449,1.12639-3.9749l.00128-.0068c.27641-1.4749.5741-3.0632,1.2656-4.274.3533-.6186.8185-1.1577,1.4508-1.5395.5163-.3117,1.1225-.5055,1.8321-.5666V7.26942zM6.00002,30.9782l.00001,6.7525L14,34.1751V19.0255c-.536.057-.9646.2066-1.3152.4182-.4546.2745-.8101.6729-1.0993,1.1793-.5925,1.0374-.8669,2.446-1.1524,3.9691l-.0185.0986c-.2708,1.4462-.56038,2.9928-1.21597,4.1766-.34218.6178-.79423,1.1584-1.41245,1.542-.50297.312-1.0941.5065-1.78616.5689zM15,34.1751l8,3.5556V24.984c-1.2358-.0808-2.2096-.4609-3.0118-1.0085-.8957-.6115-1.5556-1.4176-2.1208-2.1769-.1313-.1764-.2563-.3483-.3773-.5146v-.0001c-.4165-.5726-.7857-1.0803-1.2056-1.4874-.3904-.3786-.7969-.6399-1.2845-.7449v15.1235zm16-3.2144C31,27.1519,33.876,24,37.5,24s6.5,3.1519,6.5,6.9607v.0042c-.0096,1.1584-.3486,2.1867-.8594,3.1499l-.0052.0097-.0056.0096-5.1818,8.8085-.431.7326-.4309-.7326-5.1818-8.8085-.0061-.0103.0002-.0001c-.5229-.9392-.8546-1.9474-.8981-3.1448L31,30.9698v-.0091zm1-.0091c.0382,1.0127.3154,1.8639.7693,2.6806l4.7477,8.0708,4.7452-8.0663c.4537-.8581.7295-1.7248.7378-2.6781C42.999,27.6322,40.5027,25,37.5,25c-3.0006,0-5.4955,2.6285-5.5,5.9516zM37.5,29c-.8168,0-1.5.6833-1.5,1.5,0,.81.6975,1.5,1.5211,1.5C38.331,32,39,31.3237,39,30.5c0-.8167-.6832-1.5-1.5-1.5zM35,30.5c0-1.369,1.131-2.5,2.5-2.5s2.5,1.131,2.5,2.5c0,1.3622-1.103,2.5-2.4789,2.5C36.1589,33,35,31.8759,35,30.5z"/></svg>