<svg width="24" height="24" xmlns="http://www.w3.org/2000/svg"><path fill-rule="evenodd" clip-rule="evenodd" d="m7.5,4h-.39L6.07,8.16,4.03,9.17l-.93,7.9C3.04,17.37,3,17.68,3,18c0,2.23,1.77,4,4,4,2.23,0,4-1.77,4-4,0-.02,0-.04,0-.07V10.17c.31-.11.65-.17,1-.17.35,0,.69.06,1,.17l0,7.74c0,.03,0,.06,0,.09,0,2.23,1.77,4,4,4,2.23,0,4-1.77,4-4,0-.32-.04-.63-.11-.93l-.93-7.9-2.04-1.02L16.89,4h-3.89L13,8l1,0L14,5h2.11l.91,3.62.06.22,1.96.98.61,5.16c-.7-.61-1.62-.98-2.64-.98-1.2,0-2.27.51-3,1.33l0-4.59c.62.55,1,1.35,1,2.25h1c0-2.23-1.77-4-4-4-2.23,0-4,1.77-4,4h1c0-.9.38-1.7,1-2.25v4.59C9.27,14.52,8.2,14.01,7,14.01c-1.02,0-1.94.37-2.64.98l.61-5.16,1.96-.98L7.89,5H10v3.04h1V4H7.5zM14,18h0v-.08c.04-1.64,1.35-2.92,3-2.92,1.42,0,2.58.94,2.91,2.24l.09.78C19.99,19.69,18.67,21,17,21c-1.68,0-3-1.32-3-3v0zM10,18v-.06C9.97,16.29,8.66,15.01,7,15.01c-1.42,0-2.58.94-2.91,2.24l-.09.78C4.01,19.69,5.33,21,7,21c1.68,0,3-1.32,3-3h0zM16,18c0-.56.44-1,1-1v-1c-1.11,0-2,.88-2,2h1zm-11,0c0-1.11.88-2,2-2v1c-.56,0-1,.44-1,1H5z"/></svg>