<svg width="24" height="24" xmlns="http://www.w3.org/2000/svg"><path fill-rule="evenodd" clip-rule="evenodd" d="m12,7c.44,0,.84.17,1.17.47l.02.02c.04.04.08.07.11.11.42.45.7,1.12.7,1.9,0,.05,0,.09-.01.14,0,.02,0,.05-.01.07v0l-.01.12,0,0,0,0,0,0c-.13,1.31-.99,2.17-1.97,2.17-.96,0-1.81-.83-1.96-2.1l-.01-.07c0-.04-.01-.07-.01-.1v0c-.01-.09-.02-.15-.02-.22,0-.85.33-1.57.81-2.01l.03-.03c.33-.29.73-.46,1.16-.46zM9.59,11.6c-.17-.27-.3-.57-.4-.88-.36.18-.76.28-1.19.28-.68,0-1.28-.24-1.75-.64-1.93,1.23-3.05,3.15-3.22,5.63h3.34c.53-1.84,1.62-3.33,3.24-4.4zm-3.46,5.4c-.08.48-.12.98-.13,1.5l-.01.51H18.04l-.04-.54c-.04-.5-.1-.99-.19-1.47h4.23l-.04-.54c-.2-2.87-1.25-5.27-3.6-6.84.38-.6.6-1.34.6-2.12,0-1.85-1.21-3.5-3-3.5-1.38,0-2.41.99-2.81,2.28-.36-.18-.76-.28-1.19-.28-.43,0-.83.1-1.19.28-.4-1.29-1.43-2.28-2.81-2.28-1.79,0-3,1.65-3,3.5,0,.77.21,1.5.58,2.1C3.3,11.11,2.05,13.5,2,16.49l-.01.51h4.14zm9.87-6c.67,0,1.26-.23,1.74-.62,1.96,1.26,2.94,3.18,3.22,5.62h-3.38c-.53-1.78-1.53-3.29-3.18-4.38.17-.27.31-.58.41-.9.36.18.76.28,1.19.28zm-1.94-4.06c.59.65.94,1.56.94,2.56,0,.05,0,.11-.01.16.3.22.64.34,1.01.34,1.06,0,2-1.01,2-2.5,0-1.49-.94-2.5-2-2.5-.92,0-1.74.76-1.94,1.95zm-2.06,6.06c-.68,0-1.27-.24-1.75-.64-1.94,1.23-3.06,3.15-3.23,5.64h9.93c-.28-2.44-1.25-4.36-3.22-5.62-.47.39-1.06.62-1.73.62zM8,5c-1.06,0-2,1.02-2,2.5,0,1.48.94,2.5,2,2.5.37,0,.71-.12,1.01-.34,0-.05-.01-.11-.01-.16,0-1,.35-1.91.94-2.56-.2-1.18-1.02-1.95-1.94-1.95z"/></svg>