<svg width="36" height="36" xmlns="http://www.w3.org/2000/svg"><path fill-rule="evenodd" clip-rule="evenodd" d="m3.25,6.25h29.5v7h-.5c-2.27,0-4,1.73-4,4,0,2.27,1.73,4,4,4h.5v7H3.25V6.25zm1,1v3.5h8.03l2.99,4.51H18c1.52,0,2.74,1.22,2.75,2.74v4.25h-3.3c-.46.89-1.38,1.5-2.45,1.5-1.07,0-2-.61-2.45-1.5H6.95c-.45.89-1.38,1.5-2.45,1.5-.09,0-.17,0-.25-.01v3.51h27.5v-5.02c-2.58-.24-4.5-2.32-4.5-4.98s1.92-4.74,4.5-4.98V7.25H4.25zm0,11.01v-6.51h7.49l2.99,4.51H18c.97,0,1.75.78,1.75,1.75v3.24h-2.01c.01-.08.01-.17.01-.25,0-1.52-1.23-2.75-2.75-2.75s-2.75,1.23-2.75,2.75c0,.08,0,.17.01.25H7.24c.01-.08.01-.17.01-.25,0-1.52-1.23-2.75-2.75-2.75-.09,0-.17,0-.25.01zm0,4.47V19.27c.08-.01.17-.02.25-.02.97,0,1.75.78,1.75,1.75,0,.97-.78,1.75-1.75,1.75-.08,0-.17-.01-.25-.02zm9-1.73c0-.97.78-1.75,1.75-1.75s1.75.78,1.75,1.75c0,.97-.78,1.75-1.75,1.75s-1.75-.78-1.75-1.75zm-3.01-6.26H9v-1h1.77l1.64,2.48-.83.55-1.35-2.03zM24.25,7.5v.49h1v-.49h-1zm0,1.46v.98h1v-.98h-1zm0,1.95v.98h1v-.98h-1zm0,1.95v.98h1v-.98h-1zm0,1.95v.98h1v-.98h-1zm0,1.95v.98h1v-.98h-1zm0,1.95v.98h1v-.98h-1zm0,1.95v.98h1v-.98h-1zm0,1.95v.98h1v-.98h-1zm0,1.95v.98h1v-.98h-1zM24.25,26.51v.49h1v-.49h-1z"/></svg>