<svg width="36" height="36" xmlns="http://www.w3.org/2000/svg"><path fill-rule="evenodd" clip-rule="evenodd" d="m3.75,3.25h-.5v29.5h29.5V3.25h-29zm.5,28.5V4.25h27.5v27.5H4.25zm8.58-15.8c-2.11,1.08-3.57,3.27-3.57,5.8,0,3.57,2.93,6.5,6.5,6.5,2.59,0,4.84-1.54,5.88-3.74l-.9-.43c-.88,1.87-2.79,3.17-4.98,3.17-3.02,0-5.5-2.48-5.5-5.5,0-2.13,1.23-3.99,3.02-4.91l-.45-.89zm2.42,4.3v-8.25h1v7.75h7.5v8.75h-1v-7.75h-7.5v-.5zm.25-11.25c0-.14.11-.25.25-.25s.25.11.25.25c0,.14-.11.25-.25.25s-.25-.11-.25-.25zm.25-1.25c-.69,0-1.25.56-1.25,1.25,0,.69.56,1.25,1.25,1.25S17,9.69,17,9c0-.69-.56-1.25-1.25-1.25z"/></svg>