<svg width="24" height="24" xmlns="http://www.w3.org/2000/svg"><path fill-rule="evenodd" clip-rule="evenodd" d="m6.5,4C5.67,4,5,4.67,5,5.5v11c.42-.31.94-.5,1.5-.5h12.5V4H6.5zM4,18.5V5.5C4,4.12,5.12,3,6.5,3h13.5v14H6.5c-.83,0-1.5.67-1.5,1.5,0,.83.67,1.5,1.5,1.5H6.5l13.5,0,0,1-13.5,0H6.5c-1.38,0-2.5-1.12-2.5-2.5zM20,19H7v-1h13v1zm-9-9c0-.55.45-1,1-1s1,.45,1,1c0,.55-.45,1-1,1s-1-.45-1-1zm2.32,1.5c.42-.37.68-.9.68-1.5,0-1.1-.9-2-2-2-.55,0-1-.45-1-1,0-.55.45-1,1-1s1,.45,1,1h1c0-1.1-.9-2-2-2s-2,.9-2,2c0,.6.26,1.13.68,1.5C10.26,8.87,10,9.4,10,10c0,1.1.9,2,2,2,.55,0,1,.45,1,1s-.45,1-1,1-1-.45-1-1h-1c0,1.1.9,2,2,2s2-.9,2-2c0-.6-.26-1.13-.68-1.5z"/></svg>