<svg width="36" height="36" xmlns="http://www.w3.org/2000/svg"><path fill-rule="evenodd" clip-rule="evenodd" d="m24.25,3v3h1V3h-1zm-.49,8.69c-.42-.8-1.05-1.43-1.8-1.85C22.68,9.16,23.65,8.75,24.75,8.75c2.26,0,4,1.74,4,4,0,1.7-.98,3.1-2.42,3.69-.08-.13-.17-.26-.27-.38-.45-.56-1.09-.96-1.88-1.07.25-1.25.07-2.37-.42-3.29zm3.05,6.89c.03-.41-.01-.82-.11-1.21,1.81-.75,3.04-2.51,3.04-4.62,0-2.81-2.19-5-5-5-1.51,0-2.85.63-3.76,1.66-1.96-.61-4.3.02-5.58,2.3-2.19-1.23-5.13.33-5.13,3.13-.74.14-1.34.59-1.76,1.17-.5.7-.75,1.62-.71,2.53.04.91.37,1.84,1.07,2.55.71.71,1.75,1.16,3.12,1.16h10.5c1.37,0,2.43-.44,3.16-1.14.73-.7,1.1-1.62,1.16-2.53zm-5.95-8.15c-1.69-.61-3.8-.06-4.81,2.23l-.27.6-.51-.42c-1.63-1.33-4.28-.07-3.99,2.4l.07.56h-.56c-.62,0-1.12.3-1.47.8-.36.5-.56,1.2-.53,1.9.03.7.29,1.38.78,1.89.49.5,1.26.86,2.41.86h10.5c1.14,0,1.94-.36,2.46-.87.53-.51.81-1.19.85-1.87.04-.69-.15-1.35-.53-1.83-.37-.46-.94-.77-1.72-.74l-.7.03.2-.67c.38-1.27.23-2.34-.19-3.15-.43-.82-1.16-1.42-2.01-1.73zm-1.31-2.17-2.16-2.08.69-.72,2.16,2.08-.69.72zM29.34,18.15l2.12,2.12.71-.71-2.12-2.12-.71.71zM31.5,12.25h3v1h-3v-1zm-.21-6.77-2.12,2.12.71.71,2.12-2.12-.71-.71zM12.3,26.78l1.5-3,.89.45-1.5,3-.89-.45zm10.5-3-1.5,3,.89.45,1.5-3-.89-.45zm-9,6,3-6,.89.45-3,6-.89-.45zm6.07-6-3,6,.89.45,3-6-.89-.45z"/></svg>