<svg width="36" height="36" xmlns="http://www.w3.org/2000/svg"><path fill-rule="evenodd" clip-rule="evenodd" d="m17.25,6.23,11.14,3.18-1.78,5.34h-1.99c-1.83,2.28-4.43,3.75-7.37,3.75-2.94,0-5.54-1.47-7.37-3.75H7.89L6.11,9.41,17.25,6.23zm-6.04,8.52c1.62,1.71,3.73,2.75,6.04,2.75s4.42-1.04,6.04-2.75H11.21zm-3.82-4.66,1.22,3.66H25.89l1.22-3.66-9.86-2.82L7.39,10.09zm9.86.16c-.14,0-.25.11-.25.25,0,.14.11.25.25.25.14,0,.25-.11.25-.25,0-.14-.11-.25-.25-.25zm-1.25.25c0-.69.56-1.25,1.25-1.25.69,0,1.25.56,1.25,1.25,0,.69-.56,1.25-1.25,1.25-.69,0-1.25-.56-1.25-1.25zm9.92,13c-.19.92-.43,1.77-.75,2.27l0,0c-2.89,4.48-6.17,5.48-7.94,5.48-1.76,0-5.04-1-7.93-5.48l0,0c-.32-.5-.56-1.35-.75-2.27-.19-.94-.35-2.03-.47-3.06-.12-1.03-.21-2.01-.27-2.73-.03-.36-.05-.66-.07-.86-.01-.1-.01-.18-.02-.24l-.01-.09c0,0,0,0,.5-.03l.5-.03,0,0,.01.08c0,.05.01.13.02.23.01.2.04.49.06.85.06.71.15,1.68.27,2.69.12,1.02.27,2.07.46,2.98.19.93.4,1.61.61,1.93,2.73,4.22,5.71,5.02,7.09,5.02,1.38,0,4.37-.8,7.09-5.02.21-.33.42-1.01.61-1.93.19-.9.34-1.96.46-2.97.12-1.01.21-1.98.27-2.69.03-.36.05-.65.06-.85.01-.1.01-.18.02-.23l0-.08,0,0,0,0V16.47l.5.03c.5.03.5.03.5.03v0l0,0,0,.02,0,.06c0,.06-.01.14-.02.24-.01.21-.04.5-.07.86-.06.72-.15,1.7-.27,2.73-.12,1.03-.28,2.12-.47,3.06zm-11.67-2.45c.03,0,.05-.02.05-.05,0-.03-.02-.05-.05-.05-.03,0-.05.02-.05.05,0,.03.02.05.05.05zm-.95-.05c0-.52.42-.95.95-.95.53,0,.95.43.95.95,0,.53-.42.95-.95.95-.53,0-.95-.42-.95-.95zM20.25,21.05c.03,0,.05-.02.05-.05,0-.03-.02-.05-.05-.05-.03,0-.05.02-.05.05,0,.03.02.05.05.05zm-.95-.05c0-.52.42-.95.95-.95s.95.43.95.95c0,.53-.42.95-.95.95-.53,0-.95-.42-.95-.95zm-2.05,4.75c1.52,0,2.79-.54,3.46-1.26l.73.68c-.91.98-2.48,1.58-4.19,1.58-1.62,0-3.09-.53-4.02-1.41l.69-.73c.7.66,1.91,1.13,3.34,1.13z"/></svg>