<svg width="48" height="48" xmlns="http://www.w3.org/2000/svg"><path fill-rule="evenodd" clip-rule="evenodd" d="m28.87,5.09,1.91,3.91h6.22V21.75l5.46,11.2-5.46,2.66v4.38h-8.99l-8.02,3.91-1.91-3.91h-6.09V27.52l6.4,16.05,5.6-2.73V9h-3.14l8.02-3.91zm.79,3.91-1.26-2.57-5.28,2.57h6.53zM13,27.4l0,0v-14.57l0,0V10h23V39h-23V27.4zm-1-12.97-4.26,2.08,4.26,8.73V14.43zm7.2,25.57,1.26,2.57,5.28-2.57h-6.53zM37,34.5l4.13-2.01-4.13-8.46v10.47zM20,14c-.8,0-1.43.64-1.43,1.5s.63,1.5,1.43,1.5c.8,0,1.43-.63,1.43-1.49,0-.87-.63-1.51-1.43-1.51zm-2.43,1.5c0-1.38,1.04-2.5,2.43-2.5,1.39,0,2.43,1.14,2.43,2.51,0,.5-.13.96-.37,1.34.78.56,1.45,1.4,1.96,2.4.61,1.21.99,2.69.99,4.25v.5h-10v-.5c0-1.56.38-3.04.99-4.25.5-1,1.18-1.84,1.96-2.4-.24-.39-.38-.86-.38-1.35zm1.07,2.09c-.66.43-1.28,1.16-1.76,2.11-.48.95-.8,2.08-.87,3.3h7.97c-.07-1.21-.39-2.35-.86-3.3-.48-.95-1.1-1.68-1.76-2.11-.38.26-.85.41-1.36.41-.51,0-.97-.15-1.36-.41zm15.36-1.59h-7v-1h7v1zm0,4h-7v-1h7v1zm0,4h-7v-1h7v1zm0,4h-19v-1h19v1zm0,4h-19v-1h19v1zm-15,4h-2v-1h2v1zm3,0h-2v-1h2v1zm3,0h-2v-1h2v1z"/></svg>