<svg width="36" height="36" xmlns="http://www.w3.org/2000/svg"><path fill-rule="evenodd" clip-rule="evenodd" d="m17.25,3.26c-4.42,0-8,3.58-8,8,0,.38.03.76.08,1.13-3.44.56-6.08,3.52-6.08,7.12,0,4,3.25,7.25,7.25,7.25H16.75V31.75H3v1h30v-1H17.75v-4.99h9.25c3.18,0,5.75-2.57,5.75-5.75,0-1.78-.81-3.37-2.08-4.42.37-.7.58-1.49.58-2.33,0-2.76-2.24-5-5-5-.43,0-.85.06-1.24.16-.83-3.53-3.98-6.16-7.76-6.16zM17.75,25.76h9.25c2.62,0,4.75-2.13,4.75-4.75,0-1.6-.8-3.02-2.03-3.88l-.4-.28.27-.4c.41-.63.66-1.38.66-2.19,0-2.21-1.79-4-4-4-.5,0-.99.1-1.44.28l-.58.23-.1-.61c-.53-3.34-3.4-5.89-6.89-5.89-3.87,0-7,3.13-7,7,0,.5.06.98.16,1.45l.12.55-.56.05c-3.2.28-5.71,2.93-5.71,6.19,0,3.45,2.8,6.25,6.25,6.25H16.75v-6.02l-3.56-2.85.62-.78,2.94,2.35V13.5h1v9.17l4.37-5,.75.66L17.75,24.19v1.57z"/></svg>