<svg width="36" height="36" xmlns="http://www.w3.org/2000/svg"><path fill-rule="evenodd" clip-rule="evenodd" d="m4.75,7.75h26.5v20.5H4.75v-20.5zm1,1v18.5h24.5v-5H19.5c-1.38,0-2.46-.52-3.18-1.34-.72-.81-1.06-1.87-1.06-2.91s.35-2.1,1.06-2.91c.72-.82,1.8-1.34,3.18-1.34H30.25v-5H5.75zm13.75,6H30.25v6.5H19.5c-1.11,0-1.91-.41-2.43-1-.53-.6-.81-1.42-.81-2.25s.28-1.65.81-2.25c.52-.59,1.32-1,2.43-1zm-.25,3.25c0-.14.11-.25.25-.25s.25.11.25.25c0,.14-.11.25-.25.25s-.25-.11-.25-.25zM19.5,16.75c-.69,0-1.25.56-1.25,1.25,0,.69.56,1.25,1.25,1.25s1.25-.56,1.25-1.25c0-.69-.56-1.25-1.25-1.25z"/></svg>