<svg width="24" height="24" xmlns="http://www.w3.org/2000/svg"><path fill-rule="evenodd" clip-rule="evenodd" d="m3,10.5c0-2.49,1.21-4.69,3.07-6.05l.87.55h1.86l.49-1.9C9.69,3.03,10.09,3,10.5,3c1.2,0,2.33.28,3.34.78l-.75.54-.67,1.07-2.26-.4L8.36,6.89,5.98,7.89,5.14,9.18l3.06.96,3.48-.66.29.15.55,1.54.94-.34-.69-1.92-.95-.48-3.56.68-1.49-.47,2.16-.91,1.57-1.65,2.4.43.93-1.48.94-.68c1.52,1.06,2.63,2.66,3.05,4.52l.98-.22C17.95,4.84,14.55,2,10.5,2,5.8,2,2,5.81,2,10.5c0,4.69,3.81,8.5,8.5,8.5.18,0,.36-.01.54-.02l-.06-1c-.16.01-.32.02-.48.02-3.02,0-5.62-1.78-6.81-4.35l1.12-1.49,1.36-.33,2.32.8.84,1.4,1.93-.65.59.19.31-.95-.9-.29-1.48.5-.61-1.02-2.94-1.02-2,.49-.94,1.26c-.18-.64-.28-1.32-.28-2.03zm4.23-6.51-.22-.14c.38-.2.77-.36,1.18-.5l-.16.63h-.8zM20,10h-5v1h2v1h-1.96C13.91,12,13,12.91,13,14.04V20h1.26l-.73,1.81.93.37L15.34,20h4.32l.87,2.19.93-.37L20.74,20H22v-5.96C22,12.91,21.09,12,19.96,12H18v-1h2v-1zm-6,9v-3h7v3h-7zm7-4.96V15h-7v-.96C14,13.46,14.46,13,15.04,13h4.92C20.54,13,21,13.46,21,14.04zM16,16.5c-.55,0-1,.45-1,1s.45,1,1,1,1-.45,1-1-.45-1-1-1zm2,1c0-.55.45-1,1-1s1,.45,1,1-.45,1-1,1-1-.45-1-1z"/></svg>