<svg width="24" height="24" xmlns="http://www.w3.org/2000/svg"><path fill-rule="evenodd" clip-rule="evenodd" d="m16.5,2c-1.33,0-2.41,1.03-2.49,2.33L10,5.09v1.83l4.13.8c-.08.25-.13.51-.13.79,0,1.38,1.12,2.5,2.5,2.5,1.22,0,2.24-.88,2.46-2.04C20.12,8.74,21,7.72,21,6.5c0-1.22-.88-2.24-2.04-2.46C18.75,2.88,17.73,2,16.5,2zm-1.5,2.5c0-.83.67-1.5,1.5-1.5.83,0,1.5.67,1.5,1.5V5h.5c.83,0,1.5.67,1.5,1.5,0,.83-.67,1.5-1.5,1.5h-.5v.5c0,.83-.67,1.5-1.5,1.5-.83,0-1.5-.67-1.5-1.5,0-.32.1-.62.28-.87l.45-.63L11,6.09v-.17l4.08-.77-.05-.46c-.01-.06-.01-.09-.01-.11v0c0-.03-.01-.05-.01-.07zM6,4h3v3H8v1h.25c1.52,0,2.75,1.23,2.75,2.75v0l0,11.25H4l-.01-11.25v0c0-1.52,1.23-2.75,2.75-2.75H7V7H6V4zm1,1v1h1V5H7zm-2,5.75v0c0-.97.78-1.75,1.75-1.75h1.5c.97,0,1.75.78,1.75,1.75v0L10,11H5l0-.25v0zM5,12l0,7h5L10,12H5zm0,9,0-1h5l0,1H5z"/></svg>