<svg width="36" height="36" xmlns="http://www.w3.org/2000/svg"><path fill-rule="evenodd" clip-rule="evenodd" d="m22.25,8.25c0-1.38,1.12-2.5,2.5-2.5s2.5,1.12,2.5,2.5-1.12,2.5-2.5,2.5-2.5-1.12-2.5-2.5zm2.5-3.5c-1.93,0-3.5,1.57-3.5,3.5,0,.45.09.88.24,1.28L12.34,14.89c-.64-.7-1.56-1.14-2.59-1.14-1.93,0-3.5,1.57-3.5,3.5s1.57,3.5,3.5,3.5c1.1,0,2.08-.51,2.72-1.3l9.06,5.43c-.18.42-.28.88-.28,1.37,0,1.93,1.57,3.5,3.5,3.5s3.5-1.57,3.5-3.5-1.57-3.5-3.5-3.5c-1.09,0-2.06.5-2.7,1.27l-9.07-5.43c.17-.41.27-.87.27-1.34,0-.55-.13-1.07-.35-1.53l9.09-5.33c.64.82,1.64,1.35,2.77,1.35,1.93,0,3.5-1.57,3.5-3.5s-1.57-3.5-3.5-3.5zm0,19c-1.38,0-2.5,1.12-2.5,2.5s1.12,2.5,2.5,2.5,2.5-1.12,2.5-2.5-1.12-2.5-2.5-2.5zm-17.5-6.5c0-1.38,1.12-2.5,2.5-2.5,1.38,0,2.5,1.12,2.5,2.5s-1.12,2.5-2.5,2.5c-1.38,0-2.5-1.12-2.5-2.5z"/></svg>