<svg width="24" height="24" xmlns="http://www.w3.org/2000/svg"><path fill-rule="evenodd" clip-rule="evenodd" d="m6,8.01c0-3.31,2.69-6,6-6,3.31,0,6,2.69,6,6v0c-.01,1.01-.33,1.9-.8,2.73l-.01.01L12.02,18.93,6.84,10.76l0,0c-.49-.81-.8-1.68-.84-2.72L6,8.02v-.01zm1-.01c.03.84.28,1.55.69,2.23l4.32,6.83,4.32-6.82c.41-.72.66-1.44.66-2.23,0-2.76-2.24-5-5-5-2.76,0-4.99,2.23-5,4.99zm5.01-3c-1.66,0-3,1.34-3,3,0,1.66,1.34,3,3,3,1.66,0,3-1.34,3-3,0-1.66-1.34-3-3-3zm-4,3c0-2.21,1.79-4,4-4,2.21,0,4,1.79,4,4,0,2.21-1.79,4-4,4-2.21,0-4-1.79-4-4zM8.75,15.18c-1.87.21-3.5.6-4.68,1.12-.59.26-1.09.56-1.45.91-.36.35-.62.78-.62,1.29,0,.64.41,1.16.94,1.56.54.4,1.29.75,2.18,1.03,1.78.56,4.21.91,6.88.91,2.67,0,5.1-.34,6.88-.91.89-.28,1.64-.63,2.18-1.03.53-.4.94-.92.94-1.56,0-.5-.25-.93-.61-1.28-.36-.35-.85-.65-1.43-.91-1.16-.52-2.77-.91-4.62-1.13l-.12.99c1.79.21,3.29.58,4.33,1.05.52.23.9.47,1.14.71.24.23.31.42.31.56,0,.18-.12.44-.54.76-.42.31-1.05.61-1.88.88-1.66.53-3.98.86-6.57.86-2.6,0-4.92-.33-6.57-.86-.83-.26-1.47-.57-1.88-.88-.43-.32-.54-.58-.54-.76,0-.14.07-.33.31-.57.25-.24.63-.48,1.16-.71,1.05-.47,2.57-.84,4.39-1.04l-.11-.99z"/></svg>