<svg width="36" height="36" xmlns="http://www.w3.org/2000/svg"><path fill-rule="evenodd" clip-rule="evenodd" d="m9.25,12.02c0-4.83,3.92-8.75,8.75-8.75,4.83,0,8.75,3.92,8.75,8.75v0c-.01,1.46-.47,2.76-1.17,3.97l-.01.01-7.55,11.92-7.55-11.92h0c-.71-1.18-1.16-2.46-1.22-3.97l0-.01v-.01zm1-.01c.05,1.31.44,2.42,1.07,3.48l6.7,10.58,6.7-10.57c.63-1.11,1.02-2.24,1.03-3.47,0-4.28-3.47-7.75-7.75-7.75-4.28,0-7.74,3.46-7.75,7.74zM18.01,7.26c-2.62,0-4.75,2.13-4.75,4.75,0,2.62,2.13,4.75,4.75,4.75s4.75-2.13,4.75-4.75c0-2.62-2.13-4.75-4.75-4.75zm-5.75,4.75c0-3.18,2.57-5.75,5.75-5.75s5.75,2.57,5.75,5.75c0,3.18-2.57,5.75-5.75,5.75s-5.75-2.57-5.75-5.75zm.88,11.01c-2.79.32-5.21.9-6.94,1.67-.87.38-1.59.82-2.1,1.32-.51.5-.85,1.09-.85,1.75,0,.85.54,1.57,1.32,2.14.78.58,1.88,1.09,3.19,1.51,2.64.84,6.25,1.35,10.24,1.35,3.99,0,7.6-.51,10.24-1.35,1.31-.42,2.41-.92,3.19-1.51.77-.58,1.32-1.3,1.32-2.14,0-.66-.33-1.25-.84-1.74-.51-.49-1.22-.93-2.07-1.31-1.71-.76-4.1-1.35-6.86-1.67l-.12.99c2.7.31,4.98.88,6.56,1.59.79.35,1.39.73,1.78,1.11.39.38.54.72.54,1.02,0,.39-.25.85-.91,1.34-.66.49-1.64.96-2.9,1.36-2.51.8-6.02,1.3-9.94,1.3-3.91,0-7.42-.5-9.94-1.3-1.26-.4-2.24-.86-2.9-1.36-.67-.5-.91-.96-.91-1.34,0-.3.15-.65.55-1.03.4-.38,1-.77,1.81-1.12,1.61-.71,3.92-1.28,6.65-1.59l-.11-.99z"/></svg>