<svg width="48" height="48" xmlns="http://www.w3.org/2000/svg"><path fill-rule="evenodd" clip-rule="evenodd" d="m13.4971,11c-.8279,0-1.5.6721-1.5,1.5s.6721,1.5,1.5,1.5,1.5-.6721,1.5-1.5-.6721-1.5-1.5-1.5zm-2.5,1.5c0-1.3801,1.1199-2.5,2.5-2.5s2.5,1.1199,2.5,2.5-1.1199,2.5-2.5,2.5-2.5-1.1199-2.5-2.5zm0,25.5v1.999h1V38h3v1.999h1V38h2.0525l-.055-.5498-1-9.999-.045-.4502h-6.905l-.04502.4502-1,9.999L8.9446,38h2.0525zm-.9236-21h6.8472l.0696.4178,2,12-.9864.1644L16.0735,18h-5.1528L8.9903,29.5822l-.98639-.1644,1.99999-12L10.0735,17zm-.0239,20,.9-8.999h5.095l.9,8.999h-6.895zm15.4485-26c-.8287,0-1.5.672-1.5,1.5s.6713,1.5,1.5,1.5c.8278,0,1.5-.6721,1.5-1.5s-.6722-1.5-1.5-1.5zm-2.5,1.5c0-1.38,1.1187-2.5,2.5-2.5,1.3801,0,2.5,1.1199,2.5,2.5s-1.1199,2.5-2.5,2.5c-1.3813,0-2.5-1.12-2.5-2.5zm0,27.499V28.001h-1V29.5h-1V17h9v12.5h-1v-1.499h-1v11.998h-1V28.001h-3v11.998h-1zm6-21.999v9.001h-7V18h7zM34.9991,20.5005c0-.828.6713-1.5,1.5-1.5.8278,0,1.5.6721,1.5,1.5,0,.8278-.6722,1.5-1.5,1.5-.8287,0-1.5-.672-1.5-1.5zm1.5-2.5c-1.3813,0-2.5,1.12-2.5,2.5s1.1187,2.5,2.5,2.5c1.3801,0,2.5-1.1199,2.5-2.5,0-1.3802-1.1199-2.5-2.5-2.5zm-2.5,15.0005v6.998h1v-6.998h3v6.998h1v-6.998h.8301l.1729,1.5543.9939-.1106-1.001-9L39.9455,25h-6.894l-.0494.4448-1,9,.9939.1104.1727-1.5542h.8304zm5.7189-1L39.0506,26h-5.104l-.6668,6.001h6.4382z"/></svg>