<svg width="48" height="48" xmlns="http://www.w3.org/2000/svg"><path fill-rule="evenodd" clip-rule="evenodd" d="m14,28V6.48c.38.52.87.97,1.42,1.32,3.43,2.19,4.55,4.69,4.55,7.21.01,2.58-1.14,5.25-2.42,7.76l.89.45c1.28-2.51,2.54-5.38,2.53-8.22-.01-2.9-1.33-5.7-5.02-8.05v0l0,0c-.65-.41-1.18-.99-1.52-1.68v0c-.15-.3-.27-.85-.34-1.38-.03-.25-.06-.48-.07-.65-.01-.08-.01-.15-.02-.2l0-.05,0-.01,0,0v0l0,0L13,3V25C12.09,23.79,10.64,23,9,23c-2.76,0-5,2.24-5,5s2.24,5,5,5c2.76,0,5-2.24,5-5zm-5-4c2.21,0,4,1.79,4,4,0,2.21-1.79,4-4,4-2.21,0-4-1.79-4-4,0-2.21,1.79-4,4-4zm9,16c0-2.21,1.79-4,4-4s4,1.79,4,4c0,2.21-1.79,4-4,4s-4-1.79-4-4zm4-5c1.64,0,3.09.79,4,2v-18.92l18-3.18v21.07h0L44,36c0,2.76-2.24,5-5,5s-5-2.24-5-5,2.24-5,5-5c1.64,0,3.09.79,4,2V20.1l-16,2.82V40c0,2.76-2.24,5-5,5s-5-2.24-5-5c0-2.76,2.24-5,5-5zm5-13.1,16-2.82V16.1l-16,2.82v2.98zM35,36c0-2.21,1.79-4,4-4s4,1.79,4,4c0,2.21-1.79,4-4,4s-4-1.79-4-4z"/></svg>