<svg width="36" height="36" xmlns="http://www.w3.org/2000/svg"><path fill-rule="evenodd" clip-rule="evenodd" d="m26.44,4.89-.52,1.04c-.97,1.93-.53,4.32.91,5.93,1.41,1.58,3.79,2.42,6.72,1.18l1.17-.5-.52,1.16c-.81,1.81-2.38,2.97-3.96,3.6-1.16.46-2.38.66-3.38.59.03.22.04.44.02.67-.05.91-.41,1.84-1.15,2.54-.74.7-1.82,1.14-3.24,1.14h-10.5c-1.37,0-2.42-.44-3.12-1.16-.7-.71-1.03-1.64-1.07-2.55-.04-.91.21-1.83.71-2.53.42-.58,1.01-1.02,1.76-1.17.01-2.8,2.94-4.36,5.13-3.13,1.33-2.37,3.8-2.95,5.8-2.23.06.02.12.04.17.07.44-1.27.95-2.2,1.56-2.87.7-.78,1.51-1.19,2.39-1.46l1.11-.33zm3.43,11.49c-1.23.49-2.46.62-3.29.49-.13-.29-.29-.57-.5-.81-.46-.56-1.11-.95-1.91-1.07.25-1.25.06-2.37-.42-3.29-.36-.69-.88-1.25-1.49-1.66.42-1.28.89-2.11,1.41-2.68.28-.31.59-.55.92-.74-.55,2.07.07,4.33,1.49,5.92,1.47,1.65,3.79,2.57,6.53,1.88-.72.91-1.71,1.56-2.74,1.97zm-9.01-5.95c-1.69-.61-3.8-.06-4.81,2.23l-.27.6-.51-.42c-1.63-1.33-4.28-.07-3.99,2.4l.07.56h-.56c-.62,0-1.12.3-1.47.8-.36.5-.56,1.2-.53,1.9.03.7.29,1.38.78,1.89.49.5,1.26.86,2.41.86h10.5c1.2,0,2.02-.37,2.55-.87.53-.51.81-1.18.84-1.86.03-.69-.17-1.35-.57-1.83-.39-.47-.97-.77-1.75-.74l-.7.03.2-.67c.38-1.27.23-2.34-.19-3.15-.43-.82-1.16-1.42-2.01-1.73zM23,24.75c0-.14.11-.25.25-.25.14,0,.25.11.25.25,0,.14-.11.25-.25.25-.14,0-.25-.11-.25-.25zm.25-1.25c-.69,0-1.25.56-1.25,1.25,0,.69.56,1.25,1.25,1.25s1.25-.56,1.25-1.25c0-.69-.56-1.25-1.25-1.25zm-6,1c-.14,0-.25.11-.25.25,0,.14.11.25.25.25s.25-.11.25-.25c0-.14-.11-.25-.25-.25zm-1.25.25c0-.69.56-1.25,1.25-1.25s1.25.56,1.25,1.25c0,.69-.56,1.25-1.25,1.25s-1.25-.56-1.25-1.25zm-5,0c0-.14.11-.25.25-.25s.25.11.25.25c0,.14-.11.25-.25.25s-.25-.11-.25-.25zm.25-1.25c-.69,0-1.25.56-1.25,1.25,0,.69.56,1.25,1.25,1.25s1.25-.56,1.25-1.25c0-.69-.56-1.25-1.25-1.25zm9,4c-.14,0-.25.11-.25.25,0,.14.11.25.25.25s.25-.11.25-.25c0-.14-.11-.25-.25-.25zm-1.25.25c0-.69.56-1.25,1.25-1.25s1.25.56,1.25,1.25c0,.69-.56,1.25-1.25,1.25s-1.25-.56-1.25-1.25zm-5,0c0-.14.11-.25.25-.25s.25.11.25.25c0,.14-.11.25-.25.25s-.25-.11-.25-.25zm.25-1.25c-.69,0-1.25.56-1.25,1.25,0,.69.56,1.25,1.25,1.25s1.25-.56,1.25-1.25c0-.69-.56-1.25-1.25-1.25z"/></svg>