<svg width="36" height="36" xmlns="http://www.w3.org/2000/svg"><path fill-rule="evenodd" clip-rule="evenodd" d="m5.25,6.25h-.5v20c0,1.93,1.57,3.5,3.5,3.5H27.75c1.93,0,3.5-1.57,3.5-3.5V10.75h-3v-4.5h-23zm23,19.25V11.75h2v14.5c0,1.38-1.12,2.5-2.5,2.5H8.25c-1.38,0-2.5-1.12-2.5-2.5V7.25h21.5V25.5h1zm-20-13.25h-.5v5.5h7v-5.5h-6.5zm.5,4.5v-3.5h5v3.5h-5zm16.75-.5h-9v-1h9v1zm-9-3h9v-1h-9v1zm9-3h-18V9.25h18v1zm-9,10.5h9v-1h-9v1zm9,3h-9v-1h9v1zm-18-3H15v-1H7.5v1zm7.5,3H7.5v-1H15v1zm-7.5,2v1h18v-1h-18z"/></svg>