<svg width="36" height="36" xmlns="http://www.w3.org/2000/svg"><path fill-rule="evenodd" clip-rule="evenodd" d="m29.75,3.15V23.25H29.75c0,2.76-2.24,5-5,5s-5-2.24-5-5,2.24-5,5-5c1.64,0,3.09.79,4,2V8.85L13.25,11.67V27.75c0,2.76-2.24,5-5,5-2.76,0-5-2.24-5-5s2.24-5,5-5c1.64,0,3.09.79,4,2V6.33l17.5-3.18zM13.25,10.65l15.5-2.82V4.35L13.25,7.17v3.48zm-5,13.1c2.21,0,4,1.79,4,4,0,2.21-1.79,4-4,4-2.21,0-4-1.79-4-4,0-2.21,1.79-4,4-4zm12.5-.5c0-2.21,1.79-4,4-4s4,1.79,4,4c0,2.21-1.79,4-4,4s-4-1.79-4-4z"/></svg>