<svg width="24" height="24" xmlns="http://www.w3.org/2000/svg"><path fill-rule="evenodd" clip-rule="evenodd" d="m3,3v4.5c0,.41.12,1.02.49,1.54.32.45.81.8,1.51.92V21h1V9.96c.69-.12,1.19-.47,1.51-.92C7.88,8.52,8,7.91,8,7.5V3H7v4.5c0,.25-.08.64-.31.96C6.49,8.75,6.14,9,5.5,9s-.99-.25-1.19-.54C4.08,8.14,4,7.75,4,7.5V3H3zm2,0v5h1V3H5zm5.5,0H10v18h1v-8h2V6c0-1-.12-1.8-.55-2.32C11.98,3.12,11.28,3,10.5,3zm1.5,9h-1V4.03c.37.05.56.15.68.29C11.87,4.55,12,5,12,6v6zm4.5-7.34C16.2,5.11,16,5.76,16,6.5s.2,1.39.5,1.84c.3.45.67.66,1,.66s.7-.2,1-.66C18.8,7.89,19,7.24,19,6.5s-.2-1.39-.5-1.84C18.2,4.2,17.83,4,17.5,4s-.7.2-1,.66zm-.83-.55C16.09,3.47,16.73,3,17.5,3s1.41.47,1.83,1.1C19.75,4.74,20,5.59,20,6.5s-.25,1.76-.67,2.4c-.33.49-.78.88-1.33,1.03V21h-1V9.93c-.55-.15-1-.54-1.33-1.03C15.25,8.26,15,7.41,15,6.5s.25-1.76.67-2.4z"/></svg>