<svg width="24" height="24" xmlns="http://www.w3.org/2000/svg"><path fill-rule="evenodd" clip-rule="evenodd" d="m16.5,6H13v1h2.57l-1.33,2H8.65l-.76,2.1C7.6,11.03,7.3,11,7,11c-2.21,0-4,1.79-4,4s1.79,4,4,4,4-1.79,4-4c0-1.55-.88-2.89-2.17-3.56l.52-1.44h4.83l.73,1.6c-1.14.71-1.9,1.97-1.9,3.41,0,2.21,1.79,4,4,4,2.21,0,4-1.79,4-4s-1.79-4-4-4c-.41,0-.81.06-1.19.18l-.74-1.63,2.36-3.55H16.5zM14,15c0-1.03.52-1.95,1.32-2.49l1.22,2.69.91-.41-1.22-2.69c.25-.07.5-.1.77-.1,1.65,0,3,1.35,3,3s-1.35,3-3,3c-1.65,0-3-1.35-3-3zm-6.46-2.95L6.53,14.83l.94.34,1.01-2.78C9.39,12.91,10,13.88,10,15c0,1.65-1.35,3-3,3s-3-1.35-3-3,1.35-3,3-3c.18,0,.37.02.54.05zM7.21,8h2.79V7h-2.79v1z"/></svg>