<svg width="24" height="24" xmlns="http://www.w3.org/2000/svg"><path fill-rule="evenodd" clip-rule="evenodd" d="m20,5,0-3-1,0,0,3H18V7h-1v11h2l0,3H17v1h5v-1h-2l0-3H22V7h-1V5h-1zm-9.32-1.26c.99-.99,2.59-.99,3.58,0,.99.99.99,2.59,0,3.58l-3.11,3.11L7.56,6.85,10.68,3.74l0,0zM6.86,7.56,3.74,10.67h0c-.99.99-.99,2.59,0,3.58.58.58,1.38.82,2.14.72l.11-.02c.43-.08.84-.27,1.19-.57.05-.04.1-.08.14-.13l1.14-1.14,0,0,1.98-1.98L6.86,7.56zm8.11.47L9.97,13.03C12.24,13.26,14,15.18,14,17.5c0,2.49-2.01,4.5-4.5,4.5-2.49,0-4.5-2.01-4.5-4.5,0-.53.1-1.04.27-1.51-.81-.06-1.61-.4-2.23-1.03-1.38-1.38-1.38-3.62,0-5l0,0,9.97,3.03c1.38-1.38,3.62-1.38,5,0,1.38,1.38,1.38,3.62,0,5zM8.95,14.04l-.43.43-.49.49,0,0c-.06.06-.12.11-.18.17-.43.37-.92.63-1.45.76-.18.34-.31.72-.37,1.11h6.93c-.24-1.7-1.7-3-3.46-3-.19,0-.37.02-.55.04zm4.01,3.96H6.04c.24,1.7,1.7,3,3.46,3,1.76,0,3.22-1.3,3.46-3zM20,6V7h-1V6h1zM18,16v1h3V8h-3v1h2v1h-2V11h2v1h-2v1h2v1h-2v1h2v1h-2z"/></svg>