<svg width="36" height="36" xmlns="http://www.w3.org/2000/svg"><path fill-rule="evenodd" clip-rule="evenodd" d="m6.74,10.75,22.5,0c1.11,0,2,.9,2,2h0v11.5h1.75v1h-1.75v1.5h-1.51c.01.08.01.16.01.25,0,1.52-1.23,2.75-2.75,2.75s-2.75-1.23-2.75-2.75c0-.08,0-.17.01-.25H11.74c.01.08.01.16.01.25,0,1.52-1.23,2.75-2.75,2.75-1.52,0-2.75-1.23-2.75-2.75,0-.08,0-.17.01-.25H4.75l0-1.5H3v-1h1.75L4.74,12.75v0c0-1.1.9-2,2-2h0zm18.53,16h3.46c.01.08.02.17.02.25,0,.97-.78,1.75-1.75,1.75s-1.75-.78-1.75-1.75c0-.08.01-.17.02-.25zm-18,0H10.73c.01.08.02.17.02.25,0,.97-.78,1.75-1.75,1.75-.97,0-1.75-.78-1.75-1.75,0-.08.01-.17.02-.25zM29.25,11.75l-22.5,0H6.74c-.55,0-1,.45-1,1v0l0,13h2v-6h5.5v6h17V12.75h0c0-.55-.45-1-1-1zm-17,14H8.75v-5h3.5v5zM8.25,13.75h-.5v4H28.25v-4H8.25zm.5,3v-2H27.25v2H8.75zm6.5,3H28.25v4H15.25v-4zm1,1v2H27.25v-2H16.25z"/></svg>