<svg width="24" height="24" xmlns="http://www.w3.org/2000/svg"><path fill-rule="evenodd" clip-rule="evenodd" d="m8.5,5c-.89,0-1.5.61-1.5,1.5s.61,1.5,1.5,1.5,1.5-.61,1.5-1.5-.61-1.5-1.5-1.5zm-6.5,2h4.04c.21,1.18,1.19,2,2.46,2s2.24-.82,2.46-2H22v-1H10.96c-.21-1.18-1.19-2-2.46-2s-2.24.82-2.46,2H2v1zm13.5,4c-.85,0-1.5.65-1.5,1.5,0,.85.65,1.5,1.5,1.5s1.5-.65,1.5-1.5c0-.85-.65-1.5-1.5-1.5zm-2.45,1c.22-1.16,1.22-2,2.45-2s2.23.84,2.45,2H22v1h-4.05c-.22,1.16-1.22,2-2.45,2s-2.23-.84-2.45-2H2v-1h11.05zM7,18.5c0-.87.63-1.5,1.5-1.5s1.5.63,1.5,1.5c0,.87-.63,1.5-1.5,1.5s-1.5-.63-1.5-1.5zm1.5-2.5c-1.25,0-2.23.83-2.45,2H2v1h4.05c.22,1.17,1.2,2,2.45,2s2.23-.83,2.45-2H22v-1H10.95c-.22-1.17-1.2-2-2.45-2z"/></svg>