<svg width="24" height="24" xmlns="http://www.w3.org/2000/svg"><path fill-rule="evenodd" clip-rule="evenodd" d="m12,2C6.48,2,2,6.48,2,12h1c0-4.97,4.03-9,9-9,4.97,0,9,4.03,9,9,0,4.97-4.03,9-9,9-3.54,0-6.74-2.04-8.23-5H6v-1H2v4h1v-2.32C4.71,19.85,8.18,22,12,22c5.52,0,10-4.48,10-10,0-5.52-4.48-10-10-10zm-6.76,9.73C6.66,9.49,9.15,8,12,8c2.85,0,5.34,1.49,6.76,3.73l.17.27-.17.27C17.34,14.51,14.85,16,12,16c-2.85,0-5.34-1.49-6.76-3.73L5.07,12l.17-.27zM12,15c2.38,0,4.47-1.19,5.74-3C16.47,10.19,14.38,9,12,9c-2.38,0-4.47,1.19-5.74,3C7.53,13.81,9.62,15,12,15zm0-4c-.55,0-1,.45-1,1s.45,1,1,1,1-.45,1-1-.45-1-1-1zm-2,1c0-1.1.9-2,2-2s2,.9,2,2-.9,2-2,2-2-.9-2-2z"/></svg>