<svg width="36" height="36" xmlns="http://www.w3.org/2000/svg"><path fill-rule="evenodd" clip-rule="evenodd" d="m24.25,3v3h1V3h-1zm-.49,8.69c-.42-.8-1.05-1.43-1.8-1.85C22.68,9.16,23.65,8.75,24.75,8.75c2.26,0,4,1.74,4,4,0,1.71-.99,3.11-2.45,3.7-.08-.14-.16-.27-.26-.39-.44-.56-1.07-.96-1.86-1.08.25-1.25.07-2.37-.42-3.29zm2.99,6.89c.03-.4,0-.81-.09-1.2,1.84-.74,3.09-2.51,3.09-4.64,0-2.81-2.19-5-5-5-1.51,0-2.85.63-3.76,1.66-1.96-.61-4.3.02-5.58,2.3-2.19-1.23-5.13.33-5.13,3.13-.74.14-1.34.59-1.76,1.17-.5.7-.75,1.62-.71,2.53.04.91.37,1.84,1.07,2.55.71.71,1.75,1.16,3.12,1.16h10.5c1.33,0,2.37-.45,3.09-1.15.71-.7,1.09-1.62,1.16-2.52zm-5.88-8.16c-1.69-.61-3.8-.06-4.81,2.23l-.27.6-.51-.42c-1.63-1.33-4.28-.07-3.99,2.4l.07.56h-.56c-.62,0-1.12.3-1.47.8-.36.5-.56,1.2-.53,1.9.03.7.29,1.38.78,1.89.49.5,1.26.86,2.41.86h10.5c1.1,0,1.87-.36,2.39-.86.52-.51.81-1.19.86-1.88.05-.69-.13-1.36-.5-1.83-.36-.46-.91-.76-1.69-.73l-.7.03.2-.67c.38-1.27.23-2.34-.19-3.15-.43-.82-1.16-1.42-2.01-1.73zm-1.31-2.17-2.16-2.08.69-.72,2.16,2.08-.69.72zM29.34,18.15l2.12,2.12.71-.71-2.12-2.12-.71.71zM31.5,12.25h3v1h-3v-1zm-.21-6.77-2.12,2.12.71.71,2.12-2.12-.71-.71z"/></svg>