<svg width="24" height="24" xmlns="http://www.w3.org/2000/svg"><path fill-rule="evenodd" clip-rule="evenodd" d="m10.5,5.5c0-.83.67-1.5,1.5-1.5.83,0,1.5.67,1.5,1.5,0,.83-.67,1.5-1.5,1.5-.83,0-1.5-.67-1.5-1.5zM14,7c.31-.42.5-.94.5-1.5C14.5,4.12,13.38,3,12,3,10.62,3,9.5,4.12,9.5,5.5c0,.56.19,1.08.5,1.5H5.07L2.92,21H21.08L18.93,7h-4.93zM12,8H5.93L4.08,20H19.92L18.07,8H12zm-.17,4.01-2.24,2.26,2.45,3.45h-1.57l-1.73-2.56-.72.72v1.84h-1.25v-5.71h1.25v2.36l2.24-2.36h1.58zm5.46,5.71v-3.08h-2.4v.91h1.27c-.01.39-.14.7-.4.93-.25.24-.57.36-.97.36-.54,0-.96-.21-1.24-.61-.23-.33-.34-.78-.34-1.35,0-.58.12-1.04.36-1.38.28-.39.67-.59,1.17-.59.33,0,.61.09.83.26s.36.41.42.72h1.21c-.05-.5-.25-.92-.61-1.29-.47-.48-1.08-.73-1.83-.73-.81,0-1.48.27-1.99.81-.55.57-.82,1.31-.82,2.21,0,.79.21,1.46.63,2,.51.65,1.19.97,2.07.97.72,0,1.29-.26,1.71-.79l.13.65h.8z"/></svg>