<svg width="36" height="36" xmlns="http://www.w3.org/2000/svg"><path fill-rule="evenodd" clip-rule="evenodd" d="m20.65,8.22-.4-.35-1.74,2.25-5.29,1.44-1.21-.66-4.68,3.48,1.84.63-3.93,4.36L3.35,26.23l4.11-1.04,1.15-.67,3.25,3.11,5.15-.58,2.44-2.64,3.37,4.66,2.55-5.4,5.8,1.52-.37-3.16,2.28.06-.27-5.67-2.67-2.04-.74,1.4-1.78-.54.98-2.93-5.94-2.31-2.03-1.79zm-1.46,2.64,1.19-1.54,1.76,1.55,5.21,2.02-1.01,3,3.55,1.07.57-1.08,1.36,1.04.2,4.13-2.35-.06.33,2.85-5.19-1.36-2.18,4.62-3.09-4.28-3.02,3.27-4.32.48-3.46-3.31-1.68.98-2.31.59,1.36-4.99,4.78-5.3-1.47-.51,2.64-1.96,1.01.54,6-1.64.1-.13zm-5.38,9.77c.23,0,.45.05.65.15l5.5-5.5c-.1-.2-.15-.42-.15-.66,0-.83.67-1.5,1.5-1.5s1.5.67,1.5,1.5-.67,1.5-1.5,1.5c-.23,0-.44-.05-.64-.14l-5.51,5.51c.09.2.15.42.15.65,0,.83-.67,1.5-1.5,1.5s-1.5-.67-1.5-1.5.67-1.5,1.5-1.5z"/></svg>