<svg width="36" height="36" xmlns="http://www.w3.org/2000/svg"><path fill-rule="evenodd" clip-rule="evenodd" d="m14,13.5c0-2.7,1.86-4.75,4-4.75s4,2.05,4,4.75c0,2.7-1.86,4.75-4,4.75s-4-2.05-4-4.75zm4-5.75c-2.83,0-5,2.65-5,5.75,0,1.46.48,2.82,1.29,3.85C10.03,19.3,7.75,24.5,7.75,29.25v.5h20.5v-.5c0-4.77-2.28-9.96-6.54-11.9C22.52,16.32,23,14.96,23,13.5c0-3.1-2.17-5.75-5-5.75zm2.98,10.37c-.82.7-1.85,1.13-2.98,1.13-1.13,0-2.16-.42-2.98-1.13-3.82,1.55-6.1,6.13-6.26,10.63H27.24c-.16-4.52-2.44-9.09-6.26-10.63z"/></svg>