<svg width="48" height="48" xmlns="http://www.w3.org/2000/svg"><path fill-rule="evenodd" clip-rule="evenodd" d="m30.37,13.56c2.22,1.93,3.63,4.77,3.63,7.94v2c0,1.88-.49,3.64-1.36,5.17,3.43.85,7.02-1.01,8.25-4.4l1.37-3.76c0,0,0,0,0,0,1.06-2.91.08-6.16-2.4-8.01-2.97-2.21-7.12-1.72-9.49,1.06zm.8,17.1c-.63.68-1.36,1.27-2.15,1.77,1.21,1.52,2.85,2.62,4.69,3.17-1.27-1.38-2.15-3.09-2.54-4.94zm-3.74,2.58c-1.22.49-2.54.76-3.93.76-1.42,0-2.78-.28-4.02-.8.97,2.96,2.43,5.44,4.1,7.22,1.87,2,3.94,3.08,5.84,3.08h2.59v-2h-.93c-.53,0-1.12-.31-1.65-.76-.54-.46-1.09-1.12-1.51-1.95-.73-1.42-1.09-3.34-.48-5.56zm-9.5-.83c-.8-.5-1.52-1.1-2.16-1.79-.38,1.87-1.27,3.59-2.55,4.99,1.85-.56,3.5-1.67,4.71-3.2zM14.36,28.67c-.87-1.53-1.36-3.29-1.36-5.17v-2c0-3.17,1.41-6.01,3.63-7.94-2.37-2.77-6.52-3.27-9.49-1.06M17.41,12.94c-2.71-3.2-7.47-3.78-10.88-1.24h0c-2.83,2.11-3.95,5.83-2.74,9.15l1.37,3.76,0,0c1.45,3.98,5.73,6.12,9.75,4.94,0,0,0,.01.01.01-.29,2.57-1.61,4.91-3.67,6.48l-1.42,1.09,1.78-.19c2.68-.29,5.12-1.59,6.86-3.61,1.01,3.16,2.57,5.84,4.38,7.77C24.82,43.22,27.14,44.5,29.41,44.5h1.72c.17.3.5.5.87.5.55,0,1-.45,1-1v-3c0-.55-.45-1-1-1-.37,0-.69.2-.87.5h-.06c-.17,0-.54-.13-1-.52-.44-.37-.9-.93-1.26-1.64-.64-1.25-.97-2.97-.35-5.04,1.73,2.04,4.19,3.35,6.88,3.64l1.78.19-1.42-1.09c-2.04-1.56-3.36-3.87-3.67-6.41.02-.03.04-.05.06-.08,4.02,1.18,8.31-.96,9.75-4.94l1.37-3.76v0c1.21-3.32.1-7.04-2.74-9.15h0c-3.41-2.54-8.17-1.96-10.88,1.24-1.72-1.22-3.82-1.94-6.09-1.94-2.27,0-4.37.72-6.09,1.94zm-3.05,15.73c-3.43.85-7.02-1.01-8.25-4.4,0,0,0,0,0,0l-1.37-3.76c-1.06-2.91-.08-6.16,2.4-8.01m16.37-.51c-5.25,0-9.5,4.25-9.5,9.5v2c0,5.25,4.25,9.5,9.5,9.5,5.25,0,9.5-4.25,9.5-9.5v-2c0-5.25-4.25-9.5-9.5-9.5zm-5.5,11c-.55,0-1,.45-1,1,0,.55.45,1,1,1,.55,0,1-.45,1-1,0-.55-.45-1-1-1zm-2,1c0-1.1.89-2,2-2,1.1,0,2,.9,2,2,0,1.11-.9,2-2,2-1.11,0-2-.89-2-2zm13-1c-.55,0-1,.45-1,1,0,.55.45,1,1,1,.55,0,1-.45,1-1,0-.55-.45-1-1-1zm-2,1c0-1.1.89-2,2-2,1.1,0,2,.9,2,2,0,1.11-.9,2-2,2-1.11,0-2-.89-2-2z"/></svg>