<svg width="24" height="24" xmlns="http://www.w3.org/2000/svg"><path fill-rule="evenodd" clip-rule="evenodd" d="m12,2C6.48,2,2,6.48,2,12h1c0-4.97,4.03-9,9-9,4.97,0,9,4.03,9,9,0,4.97-4.03,9-9,9-3.54,0-6.74-2.04-8.23-5H6v-1H2v4h1v-2.32C4.71,19.85,8.18,22,12,22c5.52,0,10-4.48,10-10,0-5.52-4.48-10-10-10zM9.01,5h1v2h4V5h1v2H16v1h-.99v2H16v1h-.99v2H16v1h-.99v2H16v1h-.99V19h-1v-2h-4V19h-1v-2H8v-1h1.01v-2H8v-1h1.01v-2H8v-1h1.01v-2H8v-1h1.01V5zm1,11h4v-2h-4v2zM14.01,11v2h-4v-2h4zm-4-1h4v-2h-4v2z"/></svg>