<svg width="24" height="24" xmlns="http://www.w3.org/2000/svg"><path fill-rule="evenodd" clip-rule="evenodd" d="m6.49,3.79,3.86,3.85-.71.71L6.99,5.71,6.99,9.22c0,2.57.01,5.57.01,7.28,0,1.38,1.12,2.5,2.5,2.5,1.38,0,2.5-1.12,2.5-2.5V7.29l.01-.01c.11-1.83,1.63-3.29,3.49-3.29,1.93,0,3.5,1.57,3.5,3.5v0c0,1.71,0,4.71.01,7.28l0,3.51,2.64-2.65.71.71-3.84,3.85-3.86-3.85.71-.71,2.66,2.65,0-3.51c0-2.57-.01-5.57-.01-7.28v0c0-1.38-1.12-2.5-2.5-2.5-1.38,0-2.5,1.12-2.5,2.5v.21l0,0v8.79c0,1.93-1.57,3.5-3.5,3.5-1.93,0-3.5-1.57-3.5-3.5,0-1.71,0-4.71-.01-7.28l5.99,5.71-2.64,2.64L2.65,7.65,6.49,3.79z"/></svg>