<svg width="24" height="24" xmlns="http://www.w3.org/2000/svg"><path fill-rule="evenodd" clip-rule="evenodd" d="m20,1.9V15.5c0,1.93-1.57,3.5-3.5,3.5S13,17.43,13,15.5,14.57,12,16.5,12c.98,0,1.86.4,2.5,1.05V6.1L9,7.92V18.5C9,20.43,7.43,22,5.5,22S2,20.43,2,18.5,3.57,15,5.5,15c.98,0,1.86.4,2.5,1.05V4.08l12-2.18zm-11,5,10-1.82v-1.98L9,4.92v1.98zM5.5,16C6.88,16,8,17.12,8,18.5S6.88,21,5.5,21,3,19.88,3,18.5,4.12,16,5.5,16zm8.5-.5c0-1.38,1.12-2.5,2.5-2.5s2.5,1.12,2.5,2.5S17.88,18,16.5,18,14,16.88,14,15.5z"/></svg>