<svg width="24" height="24" xmlns="http://www.w3.org/2000/svg"><path fill-rule="evenodd" clip-rule="evenodd" d="m8.5,9c0-1.73,1.19-3,2.5-3,1.31,0,2.5,1.27,2.5,3S12.31,12,11,12c-1.31,0-2.5-1.27-2.5-3zm2.5-4c-2,0-3.5,1.87-3.5,4,0,.93.28,1.81.77,2.5C5.47,12.9,4,16.37,4,19.5v.5h10v-1H5.01c.15-2.86,1.61-5.71,3.97-6.73.56.45,1.25.73,2.02.73.76,0,1.45-.27,2.02-.73,1.59.67,2.86,2.14,3.51,3.9l.94-.35c-.69-1.85-2.01-3.48-3.74-4.32.49-.7.77-1.57.77-2.5,0-2.13-1.5-4-3.5-4zm7,12v2h-2v1h2v2h1v-2h2v-1h-2v-2h-1z"/></svg>