<svg width="24" height="24" xmlns="http://www.w3.org/2000/svg"><path fill-rule="evenodd" clip-rule="evenodd" d="m13.5,5c0,.83-.67,1.5-1.5,1.5s-1.5-.67-1.5-1.5c0-.83.67-1.5,1.5-1.5s1.5.67,1.5,1.5zm0,7c0,.83-.67,1.5-1.5,1.5s-1.5-.67-1.5-1.5c0-.83.67-1.5,1.5-1.5s1.5.67,1.5,1.5zM12,20.5c.83,0,1.5-.67,1.5-1.5,0-.83-.67-1.5-1.5-1.5s-1.5.67-1.5,1.5c0,.83.67,1.5,1.5,1.5z"/><path d="m12,7c1.11,0,2-.9,2-2h-1c0,.55-.45,1-1,1v1zm-2-2c0,1.1.89,2,2,2v-1c-.55,0-1-.45-1-1h-1zm2-2c-1.11,0-2,.89-2,2h1c0-.55.45-1,1-1v-1zm2,2c0-1.11-.89-2-2-2v1c.55,0,1,.45,1,1h1zm-2,9c1.11,0,2-.9,2-2h-1c0,.55-.45,1-1,1v1zm-2-2c0,1.1.89,2,2,2v-1c-.55,0-1-.45-1-1h-1zm2-2c-1.11,0-2,.89-2,2h1c0-.55.45-1,1-1v-1zm2,2c0-1.11-.89-2-2-2v1c.55,0,1,.45,1,1h1zm-1,7c0,.55-.45,1-1,1v1c1.11,0,2-.89,2-2h-1zm-1-1c.55,0,1,.45,1,1h1c0-1.1-.89-2-2-2v1zm-1,1c0-.55.45-1,1-1v-1c-1.11,0-2,.9-2,2h1zm1,1c-.55,0-1-.45-1-1h-1c0,1.11.89,2,2,2v-1z"/></svg>