<svg width="24" height="24" xmlns="http://www.w3.org/2000/svg"><path fill-rule="evenodd" clip-rule="evenodd" d="m9.5,7c-3.04,0-5.5,2.46-5.5,5.5,0,3.04,2.46,5.5,5.5,5.5,3.04,0,5.5-2.46,5.5-5.5,0-3.04-2.46-5.5-5.5-5.5zM3,12.5c0-3.59,2.91-6.5,6.5-6.5,3.42,0,6.23,2.64,6.48,6H21v1h-5.02c-.26,3.36-3.06,6-6.48,6-3.59,0-6.5-2.91-6.5-6.5zm6.5-2.5c-1.38,0-2.5,1.12-2.5,2.5,0,1.38,1.12,2.5,2.5,2.5,1.38,0,2.5-1.12,2.5-2.5,0-1.38-1.12-2.5-2.5-2.5zm-3.5,2.5c0-1.93,1.57-3.5,3.5-3.5,1.93,0,3.5,1.57,3.5,3.5,0,1.93-1.57,3.5-3.5,3.5-1.93,0-3.5-1.57-3.5-3.5z"/></svg>