<svg width="24" height="24" xmlns="http://www.w3.org/2000/svg"><path fill-rule="evenodd" clip-rule="evenodd" d="m2.5,5H2v12h9v3H7v1h10v-1h-4v-3h9V5H2.5zm12,11h2.24c.17-.47.26-.97.26-1.5,0-1.5-.72-2.81-1.83-3.63l-1.02,1.76c.52.46.84,1.13.84,1.87,0,.56-.19,1.08-.5,1.5zm3.29,0H21V6H3v10h4.21c-.09-.32-.15-.66-.19-1H5v-1h2.02c.06-.64.22-1.25.48-1.81L5.75,11.18l.5-.87,1.75,1.01c.36-.51.81-.96,1.32-1.32L8.32,8.25l.87-.5,1.01,1.75c.56-.26,1.17-.42,1.81-.48V7h1v2.02c.64.06,1.25.22,1.81.48l1.01-1.75.87.5L15.68,10c.51.36.96.81,1.32,1.32l1.75-1.01.5.87-1.75,1.01c.26.56.42,1.17.48,1.81H20v1h-2.02c-.03.34-.09.68-.19,1zm-9.53,0h2.24c-.22-.29-.37-.63-.45-1H8.03c.04.35.12.68.23,1zM12.5,16c.83,0,1.5-.67,1.5-1.5s-.67-1.5-1.5-1.5-1.5.67-1.5,1.5.67,1.5,1.5,1.5zm0-4c-1.21,0-2.22.86-2.45,2H8.03c.25-2.26,2.14-4,4.47-4,.64,0,1.25.13,1.81.37l-1.01,1.76C13.04,12.05,12.78,12,12.5,12z"/></svg>