<svg width="36" height="36" xmlns="http://www.w3.org/2000/svg"><path fill-rule="evenodd" clip-rule="evenodd" d="m10.75,3c0,.6.29,1.27.74,1.79.46.53,1.16.96,2.01.96,1.01,0,1.65.83,1.69,1.77.02.46-.11.89-.37,1.2C14.58,9.02,14.16,9.25,13.5,9.25c-1.45,0-2.75,1.1-2.75,2.75h1c0-1.05.8-1.75,1.75-1.75.92,0,1.62-.33,2.09-.88.46-.54.64-1.23.6-1.9C16.13,6.17,15.19,4.75,13.5,4.75c-.5,0-.93-.25-1.25-.62C11.91,3.75,11.75,3.3,11.75,3h-1zm17,15.25h-4v-4.5h-16v17.5h16v-3h4.5v-10h-.5zm-4,9h3.5v-8h-3.5v8zM17.49,4.79C17.04,4.27,16.75,3.6,16.75,3h1c0,.3.16.75.5,1.13.32.37.76.62,1.25.62,1.69,0,2.63,1.42,2.69,2.73.03.67-.15,1.36-.6,1.9-.46.55-1.17.88-2.09.88-.95,0-1.75.7-1.75,1.75h-1c0-1.65,1.3-2.75,2.75-2.75.66,0,1.08-.23,1.33-.53.26-.31.39-.74.37-1.2C21.15,6.58,20.51,5.75,19.5,5.75c-.85,0-1.54-.43-2.01-.96zM8.75,30.25v-15.5h14v15.5h-14z"/></svg>