<svg width="24" height="24" viewBox="0 0 24 24" fill="none" xmlns="http://www.w3.org/2000/svg">
<path fill-rule="evenodd" clip-rule="evenodd" d="M13 3.0002V5.01635C14.0005 5.08122 14.9456 5.33949 15.7985 5.75447L16.8611 3.95995L17.7216 4.46944L16.6665 6.25138C17.3058 6.67678 17.8752 7.19797 18.3545 7.79499L20.0793 6.81795L20.5722 7.68805L18.9293 8.61871C19.5293 9.6155 19.9038 10.7656 19.9839 12.0002H22V13.0002H19.9838C19.9224 13.9468 19.6879 14.8438 19.3112 15.6601L20.9251 16.6901L20.3871 17.5331L18.831 16.5399C18.2484 17.4551 17.4724 18.2335 16.5591 18.8189L17.4403 20.4634L16.5589 20.9356L15.6829 19.3008C14.8605 19.6837 13.9555 19.9221 13 19.984V21.9997H12V19.984C11.0154 19.9202 10.0845 19.669 9.24233 19.2655L8.2627 20.9951L7.39257 20.5023L8.37152 18.7739C7.37934 18.1223 6.55343 17.2412 5.96739 16.2041L4.27608 17.1614L3.78349 16.2912L5.5341 15.3003C5.24778 14.5828 5.06866 13.8096 5.01616 13.0002H3V12.0002H5.01615C5.07868 11.0357 5.32092 10.1228 5.71 9.29427L3.91127 8.22924L4.42076 7.36876L6.19507 8.41934C6.73769 7.57901 7.44412 6.85586 8.27034 6.29389L7.31977 4.61472L8.19 4.12208L9.13315 5.78813C10.0038 5.35346 10.9727 5.08295 12 5.01635V3.0002H13ZM9.73661 18.3928C10.5736 18.7828 11.5097 19.0002 12.5 19.0002C15.9425 19.0002 18.729 16.3733 18.9814 13.0002H15.9659C15.7293 14.7152 14.2891 16.0002 12.5 16.0002C12.0476 16.0002 11.6175 15.918 11.2235 15.7675L9.73661 18.3928ZM10.3508 15.2793L8.86563 17.9015C7.13253 16.7383 6 14.7603 6 12.5002C6 10.2835 7.08879 8.33887 8.76495 7.1676L10.2541 9.79817C9.48389 10.4358 9 11.4023 9 12.5002C9 13.6433 9.52458 14.644 10.3508 15.2793ZM11.1092 9.27886L9.62667 6.65993C10.4914 6.23707 11.4661 6.0002 12.5 6.0002C15.9425 6.0002 18.7291 8.62628 18.9814 12.0002H15.9659C15.7293 10.2852 14.2891 9.0002 12.5 9.0002C12.0035 9.0002 11.5338 9.09918 11.1092 9.27886ZM10 12.5002C10 11.0933 11.0931 10.0002 12.5 10.0002C13.9069 10.0002 15 11.0933 15 12.5002C15 13.9071 13.9069 15.0002 12.5 15.0002C11.0931 15.0002 10 13.9071 10 12.5002Z" fill="black"/>
</svg>
