<svg width="24" height="24" xmlns="http://www.w3.org/2000/svg"><path fill-rule="evenodd" clip-rule="evenodd" d="m4.61,4.99H4v1h.61c1.14,0,2.25.25,3.24.78l1.44.76c-.74,1.26-.36,3.03,1.06,3.68l.03.01,2.52,1.1c1.02.45,2.12.68,3.23.68h3.49l.38.2c.62.33,1.01.97,1.01,1.68,0,.04,0,.07,0,.11H7v1h13.69c-.37.6-1.03,1-1.79,1H2v1h1.05c.07.37.23.71.45,1H2v1h20v-1h-8.49c.22-.29.37-.63.45-1h4.93c1.71,0,3.1-1.39,3.1-3.11,0-1.07-.59-2.06-1.54-2.56L8.31,5.89c-1.15-.61-2.42-.9-3.71-.9zm6.15,5.31c-.82-.37-1.11-1.47-.59-2.3l7.56,4h-1.6c-.97,0-1.94-.2-2.83-.59l-2.52-1.1-.02-.01zM10.1,17.99c.21.58.76,1,1.41,1s1.21-.42,1.41-1h-2.83zm-1.04,0h-1.11c-.07.37-.23.71-.45,1H9.51c-.22-.29-.37-.63-.45-1zM4.09,17.99c.21.58.76,1,1.41,1s1.21-.42,1.41-1h-2.83zM3,5.99H2v-1h1v1zm0,9H2v1h1v-1zm1,0h2v1H4v-1zm1-3H3v1h2v-1zM6,10.99c0-.55-.45-1-1-1v-1C6.1,8.99,7,9.89,7,10.99c0,1.1-.9,2-2,2v-1c.55,0,1-.45,1-1zM2,9.99h2v-1H2v1z"/></svg>