<svg width="36" height="36" xmlns="http://www.w3.org/2000/svg"><path fill-rule="evenodd" clip-rule="evenodd" d="m28.5,5.11,3.54,3.54-.71.71-2.83-2.83-2.83,2.83-.71-.71,3.54-3.54zM3.63,5.13h18.25V30.88H3.63V5.13zm1,1V29.88h16.25V6.13H4.63zM25.67,26.65l2.83,2.83,2.83-2.83.71.71-3.54,3.54-3.54-3.54.71-.71zM12.75,8.75c-.55,0-1,.45-1,1,0,.55.45,1,1,1,.55,0,1-.45,1-1,0-.55-.45-1-1-1zm-2,1c0-1.11.9-2,2-2s2,.89,2,2c0,1.1-.9,2-2,2-1.1,0-2-.9-2-2zM9.75,13.75h-.5v8.5h1.5v6h4v-6h1.5v-8.5H9.75zm.5,7.5v-6.5h5v6.5h-1.5v6h-2v-6h-1.5z"/></svg>