<svg width="36" height="36" viewBox="0 0 36 36" fill="none" xmlns="http://www.w3.org/2000/svg">
<path fill-rule="evenodd" clip-rule="evenodd" d="M18 5.7503C11.2066 5.7503 5.75 11.2069 5.75 18.0003C5.75 24.7922 11.2067 30.2503 18 30.2503C24.7933 30.2503 30.25 24.7922 30.25 18.0003C30.25 11.2069 24.7934 5.7503 18 5.7503ZM4.75 18.0003C4.75 10.6547 10.6544 4.7503 18 4.7503C25.3456 4.7503 31.25 10.6547 31.25 18.0003C31.25 25.3444 25.3457 31.2503 18 31.2503C10.6543 31.2503 4.75 25.3444 4.75 18.0003ZM16.686 26.9865H19.281V24.4875H16.686V26.9865ZM13.467 11.37C12.9375 12.1875 12.645 13.341 12.5895 14.829H14.6565C14.823 12.2025 15.9765 10.89 18.1155 10.89C19.1475 10.89 19.9275 11.223 20.457 11.8875C20.898 12.432 21.117 13.104 21.117 13.905C21.117 14.337 21.0405 14.7615 20.889 15.1785C20.706 15.6675 20.3175 16.215 19.7235 16.824C18.804 17.769 18.2085 18.414 17.94 18.7575C17.673 19.1025 17.466 19.4895 17.322 19.923C17.1225 20.5155 17.0145 21.4245 16.998 22.65H19.0395C19.0395 21.96 19.08 21.4005 19.1595 20.9685C19.2315 20.535 19.3575 20.1735 19.5375 19.881C19.719 19.5885 20.0355 19.2225 20.493 18.7815C21.5265 17.772 22.179 17.0805 22.4505 16.704C23.0595 15.879 23.364 14.8935 23.364 13.749C23.364 12.363 22.914 11.247 22.0185 10.398C21.057 9.477 19.764 9.0165 18.1395 9.0165C17.13 9.0165 16.221 9.2205 15.4125 9.6285C14.604 10.038 13.9545 10.617 13.467 11.37Z" fill="black"/>
</svg>
