<svg width="24" height="24" xmlns="http://www.w3.org/2000/svg"><path fill-rule="evenodd" clip-rule="evenodd" d="m17,4v3h3v1h-3.29l-1,1H18v1h-3.29l-.13.13C15.47,11.17,16,12.52,16,14c0,3.31-2.69,6-6,6-3.31,0-6-2.69-6-6,0-3.31,2.69-6,6-6,1.48,0,2.83.53,3.87,1.42L14,9.29V6h1v2.29l1-1V4h1zm-7,5c1.2,0,2.3.42,3.16,1.13l-1.43,1.43C11.25,11.21,10.65,11,10,11c-1.66,0-3,1.34-3,3s1.34,3,3,3c1.66,0,3-1.34,3-3,0-.65-.21-1.25-.55-1.74l1.43-1.43C14.58,11.7,15,12.8,15,14c0,2.76-2.24,5-5,5-2.76,0-5-2.24-5-5,0-2.76,2.24-5,5-5zm0,3c.37,0,.72.1,1.02.28l-.76.76C10.18,13.01,10.09,13,10,13c-.55,0-1,.45-1,1s.45,1,1,1c.55,0,1-.45,1-1,0-.09-.01-.18-.03-.26l.76-.76C11.9,13.28,12,13.63,12,14c0,1.1-.9,2-2,2-1.1,0-2-.9-2-2s.9-2,2-2z"/></svg>