<svg width="48" height="48" xmlns="http://www.w3.org/2000/svg"><path fill-rule="evenodd" clip-rule="evenodd" d="m23.5,4C18.25,4,14,8.25,14,13.5c0,5.25,4.25,9.5,9.5,9.5,5.25,0,9.5-4.25,9.5-9.5C33,8.25,28.75,4,23.5,4zM13,13.5C13,7.7,17.7,3,23.5,3,29.3,3,34,7.7,34,13.5c0,3.34-1.56,6.32-4,8.25v19.21l-4.05-5.2-.95.95v8.25l-4-5.14,17,44.96V21.75c-2.44-1.92-4-4.9-4-8.25zm12,10.39c1.45-.21,2.8-.71,4-1.45v15.6l-2.95-3.8L25,35.29V23.89zM23.5,24c.17,0,.33,0,.5-.01v18.05l-3-3.86-3,3.86V22.45C19.6,23.43,21.48,24,23.5,24zM16,13.5C16,9.36,19.36,6,23.5,6S31,9.36,31,13.5c0,4.14-3.36,7.5-7.5,7.5S16,17.64,16,13.5zM23.5,5C18.81,5,15,8.81,15,13.5c0,4.69,3.81,8.5,8.5,8.5s8.5-3.81,8.5-8.5C32,8.81,28.19,5,23.5,5z"/></svg>