<svg width="36" height="36" xmlns="http://www.w3.org/2000/svg"><path fill-rule="evenodd" clip-rule="evenodd" d="m8.1,8.8-3.2-3.2.71-.71L28.1,27.4l-.71.71-6.72-6.72c-.82-.4-1.72-.63-2.68-.63-1.78,0-3.38.75-4.52,1.96l-.73-.69c1.32-1.39,3.17-2.27,5.25-2.27.39,0,.77.03,1.14.1l-3.35-3.35c-2.17.46-4.1,1.56-5.57,3.11l-.73-.69c1.47-1.54,3.35-2.69,5.47-3.25l-2.75-2.75c-2,.83-3.79,2.05-5.26,3.59l-.73-.69c1.47-1.55,3.25-2.79,5.22-3.67L8.83,9.54C6.91,10.55,5.17,11.86,3.69,13.41l-.73-.69c1.49-1.57,3.22-2.88,5.13-3.92zM18,25.25c-.97,0-1.75.78-1.75,1.75,0,.97.78,1.75,1.75,1.75.97,0,1.75-.78,1.75-1.75,0-.97-.78-1.75-1.75-1.75zm-2.75,1.75c0-1.52,1.23-2.75,2.75-2.75,1.52,0,2.75,1.23,2.75,2.75,0,1.52-1.23,2.75-2.75,2.75-1.52,0-2.75-1.23-2.75-2.75zM10.84,7.55c2.23-.82,4.63-1.3,7.16-1.3,5.92,0,11.25,2.5,15.03,6.47l-.73.69c-3.6-3.79-8.67-6.16-14.31-6.16-2.4,0-4.68.45-6.81,1.24l-.35-.94zm7.16,3.2c-1.2,0-2.37.14-3.49.38l.21.98c1.05-.23,2.15-.36,3.27-.36,4.35,0,8.27,1.83,11.05,4.76l.73-.69c-2.96-3.12-7.13-5.07-11.77-5.07zm.76,5.55c2.76.19,5.23,1.42,7.03,3.31l.72-.69c-1.96-2.06-4.66-3.4-7.68-3.62l-.07,1z"/></svg>