<svg width="36" height="36" xmlns="http://www.w3.org/2000/svg"><path fill-rule="evenodd" clip-rule="evenodd" d="m26.04,16.07c-.44-.56-1.07-.96-1.86-1.08.25-1.25.07-2.37-.42-3.29-.55-1.06-1.49-1.82-2.56-2.2-2-.72-4.47-.14-5.8,2.23-2.19-1.23-5.13.33-5.13,3.13-.74.14-1.34.59-1.76,1.17-.5.7-.75,1.62-.71,2.53.04.91.37,1.84,1.07,2.55.71.71,1.75,1.16,3.12,1.16h10.5c1.32,0,2.35-.45,3.07-1.15.71-.7,1.09-1.61,1.16-2.52.07-.9-.15-1.82-.69-2.52zm-9.98-3.41c1.01-2.29,3.12-2.84,4.81-2.23.85.31,1.58.91,2.01,1.73.43.81.57,1.88.19,3.15l-.2.67.7-.03c.78-.03,1.33.27,1.68.73.36.47.54,1.13.49,1.83-.06.69-.34,1.37-.87,1.88-.52.5-1.29.86-2.37.86h-10.5c-1.15,0-1.92-.36-2.41-.86-.5-.5-.75-1.18-.78-1.89-.03-.71.17-1.4.53-1.9.35-.5.86-.8,1.47-.8h.56l-.07-.56c-.3-2.47,2.36-3.74,3.99-2.4l.51.42.27-.6zM11.25,24c-.45-.22-.45-.22-.45-.22v0l0,0,0,0-.01.01-.03.05c-.02.04-.05.11-.09.19-.07.16-.17.38-.27.62-.1.24-.2.52-.27.79-.07.26-.14.55-.14.81,0,.69.56,1.25,1.25,1.25s1.25-.56,1.25-1.25c0-.26-.06-.54-.14-.81-.08-.27-.18-.54-.27-.79-.1-.24-.2-.46-.27-.62-.04-.08-.07-.14-.09-.19l-.03-.05-.01-.01,0,0,0,0v0c0,0,0,0-.45.22zm-.45-.22.45.22.45-.22-.45-.89-.45.89zm.3,1.94c.04-.15.1-.3.15-.46.06.15.11.31.15.46.07.23.1.41.1.53,0,.14-.11.25-.25.25s-.25-.11-.25-.25c0-.12.03-.3.1-.53zm5.7-1.94c0,0,0,0,.45.22.45-.22.45-.22.45-.22v0l0,0,0,0,.01.01.03.05c.02.04.05.11.09.19.07.16.17.38.27.62.1.24.2.52.27.79.07.26.14.55.14.81,0,.69-.56,1.25-1.25,1.25s-1.25-.56-1.25-1.25c0-.26.06-.54.14-.81.08-.27.18-.54.27-.79.1-.24.2-.46.27-.62.04-.08.07-.14.09-.19l.03-.05.01-.01,0,0,0,0v0zM17.25,24l-.45-.22.45-.89.45.89-.45.22zM17.25,25.26c-.06.15-.11.31-.15.46-.07.23-.1.41-.1.53,0,.14.11.25.25.25s.25-.11.25-.25c0-.12-.03-.3-.1-.53-.04-.15-.1-.3-.15-.46zm6-1.26c-.45-.22-.45-.22-.45-.22v0l0,0,0,0-.01.01-.03.05c-.02.04-.05.11-.09.19-.07.16-.17.38-.27.62-.1.24-.2.52-.27.79-.07.26-.14.55-.14.81,0,.69.56,1.25,1.25,1.25s1.25-.56,1.25-1.25c0-.26-.06-.54-.14-.81-.08-.27-.18-.54-.27-.79-.1-.24-.2-.46-.27-.62-.04-.08-.07-.14-.09-.19l-.03-.05-.01-.01,0,0,0,0v0c0,0,0,0-.45.22zm-.45-.22.45.22.45-.22-.45-.89-.45.89zm.3,1.94c.04-.15.1-.3.15-.46.06.15.11.31.15.46.07.23.1.41.1.53,0,.14-.11.25-.25.25-.14,0-.25-.11-.25-.25,0-.12.03-.3.1-.53zm-3.3,1.06c0,0,0,0,.45.22.45-.22.45-.22.45-.22v0l0,0,0,0,.01.01.03.05c.02.04.05.11.09.19.07.16.17.38.27.62.1.24.2.52.27.79.07.26.14.55.14.81,0,.69-.56,1.25-1.25,1.25s-1.25-.56-1.25-1.25c0-.26.06-.54.14-.81.08-.27.18-.54.27-.79.1-.24.2-.46.27-.62.04-.08.07-.14.09-.19l.03-.05.01-.01,0,0,0,0v0zM20.25,27l-.45-.22.45-.89.45.89-.45.22zM20.25,28.26c-.06.15-.11.31-.15.46-.07.23-.1.41-.1.53,0,.14.11.25.25.25s.25-.11.25-.25c0-.12-.03-.3-.1-.53-.04-.15-.1-.3-.15-.46zm-6.45-1.48.45.22c-.45-.22-.45-.22-.45-.22v0l0,0,0,0-.01.01-.03.05c-.02.04-.05.11-.09.19-.07.16-.17.38-.27.62-.1.24-.2.52-.27.79-.07.26-.14.55-.14.81,0,.69.56,1.25,1.25,1.25s1.25-.56,1.25-1.25c0-.26-.06-.54-.14-.81-.08-.27-.18-.54-.27-.79-.1-.24-.2-.46-.27-.62-.04-.08-.07-.14-.09-.19l-.03-.05-.01-.01,0,0,0,0v0c0,0,0,0-.45.22l.45-.22-.45-.89-.45.89zM14.1,28.72c.04-.15.1-.3.15-.46.06.15.11.31.15.46.07.23.1.41.1.53,0,.14-.11.25-.25.25s-.25-.11-.25-.25c0-.12.03-.3.1-.53z"/></svg>