<svg width="24" height="24" xmlns="http://www.w3.org/2000/svg"><path fill-rule="evenodd" clip-rule="evenodd" d="m2,4h5v6H5v11H4V10H2V4zm1,1v4h3V5H3zm8,4c-1.1,0-2,.9-2,2v2h5.05c.23-1.14,1.24-2,2.45-2s2.22.86,2.45,2H20v-2c0-1.1-.9-2-2-2h-7zm6.91,4c-.21-.58-.76-1-1.41-1s-1.21.42-1.41,1h2.83zM9,18v-4h11v4H9zm-1-7c0-1.66,1.34-3,3-3h7c1.66,0,3,1.34,3,3v1h1v1h-1v8h-4v-2H12v2H8v-8H7v-1h1v-1zm10,8v1H20v-1h-2zm-9,0h2v1H9v-1zm1-3c0-.55.45-1,1-1s1,.45,1,1c0,.55-.45,1-1,1s-1-.45-1-1zm8-1c-.55,0-1,.45-1,1,0,.55.45,1,1,1s1-.45,1-1c0-.55-.45-1-1-1z"/></svg>