<svg width="36" height="36" xmlns="http://www.w3.org/2000/svg"><path fill-rule="evenodd" clip-rule="evenodd" d="m24.25,3v3h1V3h-1zm-.49,8.69c-.42-.8-1.05-1.43-1.8-1.85C22.68,9.16,23.65,8.75,24.75,8.75c2.26,0,4,1.74,4,4,0,1.71-.99,3.11-2.45,3.7-.08-.14-.16-.27-.26-.39-.44-.56-1.07-.96-1.86-1.08.25-1.25.07-2.37-.42-3.29zm2.99,6.89c.03-.4,0-.81-.09-1.2,1.84-.74,3.09-2.51,3.09-4.64,0-2.81-2.19-5-5-5-1.51,0-2.85.63-3.76,1.66-1.96-.61-4.3.02-5.58,2.3-2.19-1.23-5.13.33-5.13,3.13-.74.14-1.34.59-1.76,1.17-.5.7-.75,1.62-.71,2.53.04.91.37,1.84,1.07,2.55.71.71,1.75,1.16,3.12,1.16h10.5c1.33,0,2.37-.45,3.09-1.15.71-.7,1.09-1.62,1.16-2.52zm-10.69-5.93c1.01-2.29,3.12-2.84,4.81-2.23.85.31,1.58.91,2.01,1.73.43.81.57,1.88.19,3.15l-.2.67.7-.03c.78-.03,1.33.27,1.69.73.37.47.55,1.13.5,1.83-.05.69-.34,1.37-.86,1.88-.52.5-1.29.86-2.39.86h-10.5c-1.15,0-1.92-.36-2.41-.86-.5-.5-.75-1.18-.78-1.89-.03-.71.17-1.4.53-1.9.35-.5.86-.8,1.47-.8h.56l-.07-.56c-.3-2.47,2.36-3.74,3.99-2.4l.51.42.27-.6zm-5.26,14.12,1.5-3,.89.45-1.5,3-.89-.45zm9,0,1.5-3,.89.45-1.5,3-.89-.45zm-4.5-3-3,6,.89.45,3-6-.89-.45zM15.38,29.78l3-6,.89.45-3,6-.89-.45zm4.18-21.52-2.16-2.08.69-.72,2.16,2.08-.69.72zm9.78,9.89,2.12,2.12.71-.71-2.12-2.12-.71.71zm2.16-5.9h3v1h-3v-1zM31.29,5.48l-2.12,2.12.71.71,2.12-2.12-.71-.71z"/></svg>