<svg width="36" height="36" xmlns="http://www.w3.org/2000/svg"><path fill-rule="evenodd" clip-rule="evenodd" d="m11.25,6.25h-.39l-.09.38L9.32,12.41l6.28,13.92-1.38,11.73C4.8,26.08,4.75,26.53,4.75,27c0,3.21,2.54,5.75,5.75,5.75,3.21,0,5.75-2.54,5.75-5.75,0-.03,0-.06,0-.1v-11.83c.54-.21,1.13-.32,1.75-.32.62,0,1.21.11,1.75.32l0,11.79c0,.04,0,.09,0,.13,0,3.21,2.54,5.75,5.75,5.75,3.21,0,5.75-2.54,5.75-5.75,0-.47-.05-.92-.16-1.35l-1.38-11.73-3.04-1.52L25.14,6.25h-5.39l0,5.75,1,0,0-4.75h3.61l1.41,5.62.06.22,2.96,1.48,1.01,8.58c-1.05-1.17-2.58-1.9-4.3-1.9-1.99,0-3.72.97-4.75,2.48l0-8.12c1.22.85,2,2.26,2,3.89h1c0-3.21-2.55-5.74-5.75-5.74-3.21,0-5.75,2.54-5.75,5.74h1c0-1.62.78-3.04,2-3.89v8.12c-1.03-1.5-2.76-2.48-4.75-2.48-1.72,0-3.25.73-4.29,1.9l1.01-8.58,2.96-1.48L11.64,7.25H15.25v4.81h1V6.25h-5zm9.5,20.75h0v-.12c.06-2.6,2.13-4.62,4.75-4.62,2.25,0,4.1,1.5,4.61,3.57l.14,1.2c-.02,2.64-2.11,4.72-4.75,4.72-2.65,0-4.75-2.1-4.75-4.75v0zM15.25,27v-.09c-.05-2.61-2.12-4.65-4.75-4.65-2.25,0-4.1,1.5-4.61,3.57l-.14,1.2C5.77,29.67,7.85,31.75,10.5,31.75c2.66,0,4.75-2.1,4.75-4.75h0zm8.5,0c0-.98.77-1.75,1.75-1.75v-1c-1.53,0-2.75,1.21-2.75,2.75h1zm-16,0c0-1.53,1.21-2.75,2.75-2.75v1c-.98,0-1.75.77-1.75,1.75h-1z"/></svg>