<svg width="24" height="24" xmlns="http://www.w3.org/2000/svg"><path fill-rule="evenodd" clip-rule="evenodd" d="m22.5,0h-21C.675,0,0,.675,0,1.5v21c0,.825.675,1.5,1.5,1.5h21c.825,0,1.5-.675,1.5-1.5v-21c0-.825-.675-1.5-1.5-1.5z" fill="#2d327d"/><path fill-rule="evenodd" clip-rule="evenodd" d="m7.39495,17.5499c-.2325.27-.51.495-.825.675l1.71,2.445c.165.24.495.3.735.1275.24-.165.3-.495.1275-.735l-1.7475-2.5125z" fill="#fff"/><path fill-rule="evenodd" clip-rule="evenodd" d="m13.0725,16.38L11.16,20.1375c-.135.2625-.03.5775.2325.7125s.5775.03.7125-.2325l2.16-4.2375h-1.1925z" fill="#fff"/><path fill-rule="evenodd" clip-rule="evenodd" d="m16.485,13.4849.42-.7275-2.46-2.475-.5325.5175c-.165.1575-.4875.2925-.72.2925h-1.02L3.70496,2.63245l-1.0575,1.0575L10.05,11.0924H5.17496c-.8175,0-1.485-.66-1.485-1.48495,0-.8175.66-1.485,1.485-1.485.2175,0,.39-.1725.39-.39s-.1725-.39-.39-.39c-1.2525,0-2.265,1.0125-2.265,2.265,0,1.25245,1.0125,2.26495,2.265,2.26495v3.7575l-1.5525,1.815v2.9925c0,.2925.24.5325.5325.5325s.5325-.24.5325-.5325v-2.205c0-.165.135-.3.3-.3,0,0,.0075,0,.165,0,1.2375,0,2.2425-.99,2.2725-2.22H14.685l.285.285v4.425c0,.3.2325.5475.525.5475s.5325-.24.5325-.54v-3.3675l3.9675,3.9675,1.0575-1.0575-4.5675-4.5675v-1.92z" fill="#fff"/><path fill-rule="evenodd" clip-rule="evenodd" d="m20.8274,8.4299h-1.05l-.2775-.375s-.045-.06-.105-.1425c-.06-.075-.18-.1425-.2775-.1425,0,0,0,0-.2475,0h-1.605c-.135,0-.3225.075-.42.1725s-1.8375,1.785-1.8375,1.785l2.3025,2.3175.6225-1.0725c.0675-.1125.225-.21.36-.21h1.875l.9-.9V8.6549c0-.12-.105-.225-.24-.225z" fill="#fff"/><path fill-rule="evenodd" clip-rule="evenodd" d="m3.70496,2.63245-1.0575,1.0575L19.9875,21.0374l1.065-1.065L3.70496,2.63245z" fill="#eb0000"/></svg>