<svg width="36" height="36" xmlns="http://www.w3.org/2000/svg"><path fill-rule="evenodd" clip-rule="evenodd" d="m12.77,10.29c-.62.95-.96,2.29-1.02,4.03h2.41c.2-3.06,1.54-4.59,4.03-4.59,1.2,0,2.11.39,2.73,1.16.51.63.77,1.42.77,2.35,0,.5-.09,1-.27,1.48-.21.57-.67,1.21-1.36,1.92-1.07,1.1-1.77,1.85-2.08,2.25-.31.4-.55.85-.72,1.36-.23.69-.36,1.75-.38,3.18h2.38c0-.8.05-1.46.14-1.96.08-.5.23-.93.44-1.27.21-.34.58-.77,1.11-1.28,1.2-1.18,1.96-1.98,2.28-2.42.71-.96,1.06-2.11,1.06-3.44,0-1.61-.52-2.91-1.57-3.9-1.12-1.07-2.63-1.61-4.52-1.61-1.18,0-2.24.24-3.18.71-.94.48-1.7,1.15-2.27,2.03zM19.54,28.47h-3.02v-2.91h3.02V28.47z"/></svg>