<svg width="36" height="36" xmlns="http://www.w3.org/2000/svg"><path fill-rule="evenodd" clip-rule="evenodd" d="m3,5.75H13.5v-1H3v1zM16.25,23.25c0-3.86,3.14-7,7-7,3.86,0,7,3.14,7,7,0,3.86-3.14,7-7,7-3.86,0-7-3.14-7-7zm7-8c-4.41,0-8,3.59-8,8,0,4.41,3.59,8,8,8,4.41,0,8-3.59,8-8,0-4.41-3.59-8-8-8zm-.75-9.5h-6v-1h6v1zm-6,4.5h6v-1h-6v1zm16.5,0h-7.5v-1h7.5v1zm-7.5-4.5h7.5v-1h-7.5v1zM13.5,10.25H3v-1H13.5v1zm-10.5,4.5H13.5v-1H3v1zm7.5,4.5H3v-1H10.5v1zm-7.5,4.5H10.5v-1H3v1zM10.5,28.25H3v-1H10.5v1zM22.75,18v5.75h5.75v-1h-4.75v-4.75h-1z"/></svg>