<svg width="36" height="36" xmlns="http://www.w3.org/2000/svg"><path fill-rule="evenodd" clip-rule="evenodd" d="m32.44,7.49c-9.08-3.71-18.21-3.64-27.37,0L4.75,7.61V31.25h8.5v-4.49h11V31.25h8.5V7.61l-.31-.13zM5.75,30.25V8.29c8.72-3.38,17.37-3.44,26,0V30.25h-6.5v-4.49h-13V30.25h-6.5zm13-20c-3.07,0-5.5,2.43-5.5,5.5,0,3.07,2.43,5.5,5.5,5.5s5.5-2.43,5.5-5.5c0-3.07-2.43-5.5-5.5-5.5zm-6.5,5.5c0-3.62,2.88-6.5,6.5-6.5s6.5,2.88,6.5,6.5c0,3.62-2.88,6.5-6.5,6.5s-6.5-2.88-6.5-6.5zm9.74-2.54-3.18,4.02-3.25-2.9.67-.75,2.45,2.2,2.52-3.18.78.62z"/></svg>