<svg width="24" height="24" xmlns="http://www.w3.org/2000/svg"><path fill-rule="evenodd" clip-rule="evenodd" d="m11.5,2.01c-3.04,0-5.5,2.46-5.5,5.5,0,.21.01.41.04.62-2.3.45-4.04,2.45-4.04,4.88,0,2.76,2.24,5,5,5H11V21H2v1h20v-1H12v-2.99h6c2.21,0,4-1.79,4-4,0-1.19-.52-2.26-1.35-2.99.22-.46.35-.97.35-1.51,0-1.93-1.57-3.5-3.5-3.5-.24,0-.48.03-.7.08-.63-2.34-2.75-4.08-5.3-4.08zm.5,15h6c1.66,0,3-1.34,3-3,0-1.01-.51-1.91-1.28-2.45l-.4-.28.27-.4c.26-.39.41-.86.41-1.37,0-1.38-1.12-2.5-2.5-2.5-.31,0-.61.06-.9.17l-.58.23-.1-.61c-.34-2.15-2.19-3.79-4.43-3.79-2.48,0-4.5,2.02-4.5,4.5,0,.32.04.63.1.93l.12.55-.56.05c-2.05.18-3.66,1.88-3.66,3.96,0,2.21,1.79,4,4,4H11v-3.77l-2.31-1.85.62-.78L11,11.96V9h1v5.67l2.62-3,.75.66L12,16.19v.82z"/></svg>