<svg width="36" height="36" fill="none" xmlns="http://www.w3.org/2000/svg"><path d="m8.26,18.75H4.5m24.76-.01h3.74M18.76,29.25v3.75m0-24.75v-3.75M14.51,14.51c-1.09,1.09-1.76,2.59-1.76,4.24,0,3.31,2.69,6,6,6,1.66,0,3.16-.67,4.24-1.76m0,0c-1.09,1.09-2.59,1.76-4.24,1.76-3.31,0-6-2.69-6-6,0-1.66.67-3.16,1.76-4.24m-3.19-3.19c-1.9,1.9-3.07,4.52-3.07,7.43,0,5.82,4.68,10.5,10.5,10.5,2.91,0,5.53-1.17,7.43-3.07m-1.97-4.97c.34-.75.54-1.58.54-2.46,0-3.32-2.69-6-6-6-.88,0-1.71.2-2.46.54m11.24,11.23c1.09-1.66,1.73-3.64,1.73-5.77,0-5.82-4.68-10.5-10.5-10.5-2.14,0-4.12.64-5.77,1.73m3.31,3.31c.75-.34,1.58-.54,2.46-.54,3.31,0,6,2.69,6,6,0,.88-.2,1.71-.54,2.46M7.61,7.61,29.89,29.89" stroke="#000"/></svg>