<svg width="48" height="48" xmlns="http://www.w3.org/2000/svg"><path fill-rule="evenodd" clip-rule="evenodd" d="m21.5,5.67L30.91,18.2l-.62.75-.28-.14v2.81l-1.01,2v4.15l11.97-.77.06,1-30.73,1.98-2.38,3.96L40.97,32l.06,1L8.5,34.91v2.06l32.47-1.97.06,1-3.03.18v2.82h-1v-2.76l-13,.79v2.97h-1v-2.91L10,37.88V41h-1v-3.06l-1.5.09v-3.06l-1.42.08,3.63-6.04,4.29-.28v-5.12l-.95-1.89L13,21.62v-2.81l-.28.14-.62-.75,9.4-12.53zM15.01,28.68l1-.06v-4.97l-1,.25v4.79zm2-.13L21,28.29v-4.79h-3.99v5.05zM22,28.23l4-.26v-4.47h-4v4.72zm5-.32,1-.06v-3.95l-1-.25v4.26zm.18-5.25,1.05.26.61-1.21-1.07-.53-.6,1.48zm-.38-1.73-.63,1.57H22v-1.97l4.8.4zm1.21-.75,1,.5v-2.36l-1-.5v2.37zm-1-2.87v2.63L22,19.53V16.55l4.36.44.64.32zM21,22.5v-1.97l-4.79.4.63,1.57H21zm0-2.97v-2.97l-4.36.44L16,17.31v2.63l5-.42zm-7-1.22,1-.5v2.37l-1,.5v-2.36zm.16,3.4,1.07-.53.6,1.48-1.06.26-.61-1.21zm7.34-14.37-7.33,9.77,2.19-1.09,5.12-.51h.06l5.12.51,2.19,1.09-7.33-9.77z"/></svg>