<svg width="36" height="36" xmlns="http://www.w3.org/2000/svg"><path fill-rule="evenodd" clip-rule="evenodd" d="m17.98,4.77c-4.83,0-8.75,3.92-8.75,8.75v.01l0,.01c.06,1.51.51,2.78,1.22,3.97l0,0,7.55,11.92,7.55-11.91.01-.01.01-.01c.69-1.22,1.15-2.51,1.17-3.97h0v0c0-4.83-3.92-8.75-8.75-8.75zM11.3,16.99c-.64-1.06-1.02-2.16-1.07-3.48.01-4.28,3.47-7.74,7.75-7.74,4.28,0,7.75,3.47,7.75,7.75-.01,1.24-.4,2.36-1.03,3.47l-6.7,10.57-6.7-10.58zm1.94-3.48c0-2.62,2.13-4.75,4.75-4.75,2.62,0,4.75,2.13,4.75,4.75,0,2.62-2.13,4.75-4.75,4.75-2.62,0-4.75-2.13-4.75-4.75zm4.75-5.75c-3.18,0-5.75,2.57-5.75,5.75,0,3.18,2.57,5.75,5.75,5.75,3.18,0,5.75-2.57,5.75-5.75,0-3.18-2.57-5.75-5.75-5.75z"/></svg>