<svg width="24" height="24" xmlns="http://www.w3.org/2000/svg"><path fill-rule="evenodd" clip-rule="evenodd" d="m12,3c-1.1,0-2,.9-2,2H7c-1.1,0-2,.9-2,2v6h1v-3H11v.73C11,11.43,11.57,12,12.27,12h2.47C15.43,12,16,11.43,16,10.73V10h5v5c0,.55-.45,1-1,1h-1v1H20c1.1,0,2-.9,2-2V7c0-1.1-.9-2-2-2h-3c0-1.1-.9-2-2-2h-3zm4,2c0-.55-.45-1-1-1h-3c-.55,0-1,.45-1,1h5zM7,6c-.55,0-1,.45-1,1v2H11v-.73C11,7.57,11.57,7,12.27,7h2.47C15.43,7,16,7.57,16,8.27V9h5V7c0-.55-.45-1-1-1H7zm5.27,2C12.12,8,12,8.12,12,8.27V9h3v-.73C15,8.12,14.88,8,14.73,8h-2.47zM15,10.73V10h-3v.73c0,.15.12.27.27.27h2.47c.15,0,.27-.12.27-.27zm-6.99,5.09-3.58-2.5c-.65-.51-1.58-.4-2.09.24-.52.64-.42,1.58.22,2.1L8.61,21h3.93l1.01,1h9.21l-6.23-5.93,0,0c-1.19-1.14-2.75-2.02-4.39-2.07L12.12,14h-2.12c-.64,0-1.15.24-1.5.64-.3.34-.46.76-.49,1.19zM3.84,14.13l4.72,3.3c.35.35.84.57,1.44.57H12l0-.5L12,17h-2c-.36,0-.6-.13-.75-.3-.16-.18-.25-.43-.25-.7,0-.27.09-.52.25-.7.15-.17.39-.3.75-.3h2.1c1.31.05,2.65.77,3.73,1.8l0,0L20.25,21H13.96l-1.01-1H8.99l-5.79-5.1L3.19,14.89c-.22-.17-.25-.49-.08-.7.17-.22.49-.25.7-.08l.01.01.01.01z"/></svg>