<svg width="36" height="36" xmlns="http://www.w3.org/2000/svg"><path fill-rule="evenodd" clip-rule="evenodd" d="m7.75,9.25h25v13h-3v4.5H3.25v-14.5h4.5v-3zm24,12h-2v-9h-21v-2h23v11zm-27.5-8v12.5h24.5v-12.5H4.25zm13.58,7.74c0,.55-.34.87-1.02.95v-1.91c.34.11.55.18.63.23.27.16.4.4.4.73zm-2.54-3.24c0-.51.31-.79.93-.84v1.69c-.35-.08-.59-.19-.72-.31s-.2-.3-.2-.53zM16.81,18.72v-1.81c.55.07.84.4.85.99h1.32c-.01-.62-.2-1.11-.57-1.46-.37-.35-.9-.54-1.59-.57v-.87h-.59v.87c-.45.03-.8.1-1.07.22-.38.17-.67.41-.87.71-.2.31-.3.65-.3,1.05,0,.35.07.65.22.9.15.25.38.46.69.64.25.14.69.3,1.34.48v2.05c-.7-.08-1.05-.5-1.04-1.27h-1.38c.01.78.28,1.39.81,1.82.39.31.92.48,1.6.52v.99h.59v-.99c.43-.02.79-.09,1.07-.21.28-.12.54-.3.77-.55.37-.39.55-.87.55-1.44,0-.56-.18-1.01-.54-1.34-.29-.26-.78-.48-1.47-.67-.21-.05-.34-.08-.38-.1z"/></svg>