<svg width="36" height="36" xmlns="http://www.w3.org/2000/svg"><path fill-rule="evenodd" clip-rule="evenodd" d="m10.5,9.25c-3.18,0-5.75,2.57-5.75,5.75,0,2.89,2.14,5.29,4.92,5.69L3.64,31.25H32.35L21.03,11.03l-4.39,6.86-.75-.88c.23-.62.37-1.3.37-2.01,0-3.18-2.58-5.75-5.75-5.75zm4.61,6.86c.09-.36.14-.73.14-1.11,0-2.62-2.13-4.75-4.75-4.75-2.62,0-4.75,2.13-4.75,4.75,0,2.53,1.97,4.59,4.46,4.74l3.2-5.61,1.7,1.98zM8.73,30.25l7.35-11.48-2.49-2.91L5.36,30.25h3.36zm21.92,0H9.91l6.49-10.14,1.5,1.5,3-1.5,1.53,1.53,2.48-1.64,5.74,10.24zM20.97,12.97l-4.02,6.28,1.14,1.14,3-1.5,1.47,1.47,1.86-1.23-3.45-6.16z"/></svg>