<svg width="36" height="36" xmlns="http://www.w3.org/2000/svg"><path fill-rule="evenodd" clip-rule="evenodd" d="m8.75,6.75c0-1.38,1.12-2.5,2.5-2.5,1.38,0,2.5,1.12,2.5,2.5s-1.12,2.5-2.5,2.5c-1.38,0-2.5-1.12-2.5-2.5zm2.5-3.5c-1.93,0-3.5,1.57-3.5,3.5s1.57,3.5,3.5,3.5c1.93,0,3.5-1.57,3.5-3.5s-1.57-3.5-3.5-3.5zM6.27,20.45C5.12,20.23,4.25,19.21,4.25,18h-1c0,1.77,1.31,3.23,3.01,3.47.16,3,1.9,5.63,4.49,7.4V32.75h4v-2.04c1.26.35,2.6.54,4,.54.86,0,1.7-.09,2.5-.23V32.75h4v-3.02c2.1-1.06,3.83-2.6,4.88-4.48H32.75v-7h-1.97c-.5-1.46-1.38-2.78-2.53-3.89V9.25h-.5c-1.87,0-3.38,1.47-3.48,3.3l1,.06c.06-1.15.89-2.08,1.98-2.31v4.49l.16.15c1.22,1.12,2.1,2.47,2.53,3.95l.1.36h1.71v5h-2.23l-.14.27c-.95,1.86-2.67,3.41-4.85,4.44l-.29.14V31.75h-2v-1.95l-.6.13c-.94.2-1.9.32-2.9.32-1.54,0-3-.25-4.34-.69l-.66-.22V31.75h-2v-3.42l-.23-.15C8.89,26.47,7.25,23.87,7.25,21c0-3.37,2.26-6.36,5.71-7.98l-.43-.9c-3.53,1.66-6.04,4.73-6.27,8.34zM18.75,10.25c-1.38,0-2.5,1.12-2.5,2.5s1.12,2.5,2.5,2.5,2.5-1.12,2.5-2.5-1.12-2.5-2.5-2.5zm-3.5,2.5c0-1.93,1.57-3.5,3.5-3.5s3.5,1.57,3.5,3.5c0,1.07-.48,2.03-1.24,2.67.83.13,1.63.32,2.39.57l-.31.95c-1.34-.44-2.8-.69-4.34-.69s-3,.25-4.34.69l-.31-.95c.76-.25,1.56-.44,2.39-.57-.76-.64-1.24-1.6-1.24-2.67zM27,19.25h-1.5v-1H27v1z"/></svg>