<svg width="36" height="36" xmlns="http://www.w3.org/2000/svg"><path fill-rule="evenodd" clip-rule="evenodd" d="m17.55,4.85-.8-.58v7.79l-4.5-1.5V15.75c0,2.76,2.24,5,5,5,2.79,0,4.75-2.27,5-4.94l0,0c0-.01.01-.04.01-.06.01-.05.02-.13.03-.23.02-.2.04-.47.05-.82.01-.69-.03-1.66-.25-2.76-.45-2.2-1.62-4.95-4.53-7.09zm3.71,10.82,0,0,0,0v0l0,.02,0,.02c-.2,2.28-1.83,4.04-4,4.04-2.21,0-4-1.79-4-4v-3.81l4.5,1.5V6.29c2.09,1.84,2.98,4.03,3.35,5.84.21,1.01.24,1.9.23,2.54-.01.32-.03.57-.04.74-.01.09-.02.15-.02.19,0,.02-.01.04-.01.05l0,.01zM14.25,22.75h-.61l1.7,8.5h3.82l1.7-8.5H14.25zm1.91,7.5-1.3-6.5h4.78l-1.3,6.5h-2.18z"/></svg>