<svg width="24" height="24" viewBox="0 0 24 24" fill="none" xmlns="http://www.w3.org/2000/svg">
<path fill-rule="evenodd" clip-rule="evenodd" d="M3.85353 6.85326L6.85353 3.85326L6.14642 3.14615L3.14642 6.14615L3.85353 6.85326ZM4.99998 11.9997C4.99998 8.13384 8.13412 4.9997 12 4.9997C15.8668 4.9997 19 8.1338 19 11.9997C19 15.8666 15.8668 18.9997 12 18.9997C8.13408 18.9997 4.99998 15.8665 4.99998 11.9997ZM12 3.9997C7.58183 3.9997 3.99998 7.58156 3.99998 11.9997C3.99998 16.4189 7.58188 19.9997 12 19.9997C16.4191 19.9997 20 16.4188 20 11.9997C20 7.5816 16.4192 3.9997 12 3.9997ZM20.1464 6.85326L17.1464 3.85326L17.8535 3.14615L20.8535 6.14615L20.1464 6.85326ZM11 7V12.4997V12.9997H11.5H17V11.9997H12V7H11Z" fill="black"/>
</svg>
