<svg width="36" height="36" xmlns="http://www.w3.org/2000/svg"><path fill-rule="evenodd" clip-rule="evenodd" d="m13.25,8.25c0-2.21,1.79-4,4-4s4,1.79,4,4v2.5h-8V8.25zm-1,3.5v3.25h1v-3.25h8v3.25h1v-3.25h3.54l1.42,18.5H7.29l1.42-18.5h3.54zM12.25,10.75V8.25c0-2.76,2.24-5,5-5s5,2.24,5,5v2.5h4.46l1.58,20.5H6.21l1.58-20.5h4.46zm4.5,14.75v-7.5h1v7.5h-1zm.5-10.25c-.17,0-.34.01-.51.02l.08,1c.14-.01.29-.02.43-.02s.29.01.43.02l.08-1c-.17-.01-.34-.02-.51-.02zm2.49.49c-.31-.13-.64-.24-.97-.32l-.23.97c.28.07.56.16.82.27l.38-.92zM15.73,15.43c-.33.08-.66.19-.97.32l.38.92c.26-.11.54-.2.82-.27l-.23-.97zm5.74,1.38c-.26-.22-.53-.42-.82-.6l-.52.85c.25.15.48.32.7.51l.65-.76zm-7.62-.6c-.29.18-.57.38-.82.6l.65.76c.22-.19.45-.36.7-.51l-.52-.85zM22.79,18.35c-.18-.29-.38-.57-.6-.82l-.76.65c.19.22.36.45.51.7l.85-.52zm-10.49-.82c-.22.26-.42.53-.6.82l.85.52c.15-.25.32-.48.51-.7l-.76-.65zm11.26,2.7c-.08-.33-.19-.66-.32-.97l-.92.38c.11.26.2.54.27.82l.97-.23zm-12.33-.97c-.13.31-.24.64-.32.97l.97.23c.07-.28.16-.56.27-.82l-.92-.38zm-.47,1.98c-.01.17-.02.34-.02.51s.01.34.02.51l1-.08c-.01-.14-.02-.29-.02-.43,0-.15.01-.29.02-.43l-1-.08zM23.75,21.75c0-.17-.01-.34-.02-.51l-1,.08c.01.14.02.29.02.43,0,.15-.01.29-.02.43l1,.08c.01-.17.02-.34.02-.51zM23.26,24.24c.13-.31.24-.64.32-.97l-.97-.23c-.07.28-.16.56-.27.82l.92.38zm-12.33-.97c.08.33.19.66.32.97l.92-.38c-.11-.26-.2-.54-.27-.82l-.97.23zm.78,1.88c.18.29.38.57.6.82l.76-.65c-.19-.22-.36-.45-.51-.7l-.85.52zm10.49.82c.22-.26.42-.53.6-.82l-.85-.52c-.15.25-.32.48-.51.7l.76.65zm-9.16.72c.26.22.53.42.82.6l.52-.85c-.25-.15-.48-.32-.7-.51l-.65.76zm7.62.6c.29-.18.57-.38.82-.6l-.65-.76c-.22.19-.45.36-.7.51l.52.85zm-5.89.46c.31.13.64.24.97.32l.23-.97c-.28-.07-.56-.16-.82-.27l-.38.92zM18.77,28.07c.33-.08.66-.19.97-.32l-.38-.92c-.26.11-.54.2-.82.27l.23.97zm-2.03.16c.17.01.34.02.51.02s.34-.01.51-.02l-.08-1c-.14.01-.29.02-.43.02s-.29-.01-.43-.02l-.08,1z"/></svg>