<svg width="24" height="24" xmlns="http://www.w3.org/2000/svg"><path fill-rule="evenodd" clip-rule="evenodd" d="m7,7c0-1.1.9-2,2-2h6c1.1,0,2,.9,2,2v4l-10,0V7zm0,5v4h10v-4l-10,0zm2-8c-1.66,0-3,1.34-3,3v2H5V11h1v8h4v-2h4v2H18v-8h1V9h-1v-2c0-1.66-1.34-3-3-3H9zM15,18v-1H17v1h-2zM7,17v1h2v-1H7zm2-4c-.55,0-1,.45-1,1,0,.55.45,1,1,1s1-.45,1-1c0-.55-.45-1-1-1zm5,1c0-.55.45-1,1-1s1,.45,1,1c0,.55-.45,1-1,1s-1-.45-1-1zm5,1h1v-2h-1v2zm3,1h-1v-4h1v4zm-18-3v2h1v-2H4zm-2,3v-4h1v4H2zm13-10-6,0,0,1,6,0,0-1z"/></svg>