<svg width="24" height="24" xmlns="http://www.w3.org/2000/svg"><path fill-rule="evenodd" clip-rule="evenodd" d="m5.5,3h6v1h-1.23L8.96,6h2.68c.7,0,1.32.15,1.76.57.44.42.6,1.03.6,1.71V18H13v1h2v-3H17.5v-2.5H17V10h1.47c-.54-.02-.97-.46-.97-1,0-.55.45-1,1-1,.55,0,1,.45,1,1,0,.54-.43.98-.97,1H20v3.5h-.5V16H21v1h-5v3H3v-1h1v-1H3V8.28c0-.68.16-1.29.6-1.71C4.04,6.15,4.66,6,5.36,6h2.68L6.73,4H5.5V3zm3,1.88L7.93,4h1.15L8.5,4.88zm-4.21,2.41c-.17.16-.29.44-.29.99V12h9V8.28c0-.55-.13-.83-.29-.99C12.54,7.13,12.23,7,11.64,7H5.36c-.58,0-.89.13-1.06.29zM13,13H4v4h9v-4zM12,19v-1H5v1h7zM10,8H7v1h3v-1zM11,14c-.55,0-1,.45-1,1s.45,1,1,1c.55,0,1-.45,1-1s-.45-1-1-1zm-6,1c0-.55.45-1,1-1,.55,0,1,.45,1,1s-.45,1-1,1c-.55,0-1-.45-1-1zm13.5-2.5H18V11h1v1.5h-.5z"/></svg>