<svg width="24" height="24" xmlns="http://www.w3.org/2000/svg"><path fill-rule="evenodd" clip-rule="evenodd" d="m10,3h4v1.28c1.27.38,2.18,1.12,2.81,1.99C17.71,7.52,18,9,18,10v6c0,.34.11.85.41,1.27C18.69,17.66,19.16,18,20,18v1h-5.04c-.11.61-.43,1.09-.89,1.42-.57.41-1.31.58-2.06.58s-1.5-.17-2.06-.58c-.47-.34-.78-.82-.89-1.42H4v-1c.34,0,.85-.11,1.27-.41C5.66,17.31,6,16.84,6,16v-6c0-1,.29-2.48,1.19-3.73C7.82,5.4,8.73,4.66,10,4.28V3zm1,1.06c.3-.04.61-.06.94-.06H11v.06zm1.06-.06c.33,0,.64.02.94.06V4h-.94zM10.07,19c.09.27.25.46.45.61.34.25.85.39,1.47.39s1.14-.14,1.47-.39c.21-.15.37-.35.45-.61h-3.85zM7,10c0-.84.26-2.1,1.01-3.15C8.74,5.84,9.96,5,12,5c2.04,0,3.26.84,3.99,1.85C16.74,7.9,17,9.16,17,10v6c0,.5.14,1.23.59,1.85.04.05.07.1.11.15H6.3C6.72,17.53,7,16.87,7,16v-6z"/></svg>