<svg width="48" height="48" xmlns="http://www.w3.org/2000/svg"><path fill-rule="evenodd" clip-rule="evenodd" d="m30.41,8.28L11,36.65v3.35h-1v-4H8v-1h2v-5H8v-1h2v-5H8v-1h2v-5H8v-1h2v-5H8v-1h2V8h1V34.88l3.34-4.88H13v-1h2.03l3.42-5H13v-1h6.13L20,21.73v-3.73h-7v-1h7v-5h-7v-1h7V8h1v3h2v1h-2v5h2.24l3.42-5H25v-1h2.34l2.25-3.28.83.56zm-7.86,9.72L21,20.27v-2.27h1.55zM20,36v4h1v-3.34l.45-.65H25v-1h-2.87l3.42-5H29v-1h-2.76l3.42-5H33v-1h-2.66l3.42-5H37v-1h-2.55l3.42-5H41v-1h-2.45l1.86-2.72-.83-.56-2.25,3.28H30v1h6.66l-3.42,5H26v1h6.55l-3.42,5H22v1h6.45l-3.42,5H18v1h6.34l-3.42,5H14v1h6z"/></svg>