<svg width="24" height="24" xmlns="http://www.w3.org/2000/svg"><path fill-rule="evenodd" clip-rule="evenodd" d="m15,6h2v15H7v-9H6V7h1V6h7V3h1v3zM8,7v13h8V7H8zm7,7v1H9v-1h6zm-6,2v1h6v-1H9zm6,2v1H9v-1h6zm-4-8c0-.23.11-.48.31-.69C11.52,9.11,11.77,9,12,9s.48.11.69.31c.2.2.31.46.31.69,0,.23-.11.48-.31.69-.2.2-.46.31-.68.31-.23,0-.48-.11-.69-.31C11.11,10.48,11,10.23,11,10zm1-2c-.54,0-1.04.25-1.39.61C10.25,8.96,10,9.46,10,10c0,.54.25,1.04.61,1.39s.85.61,1.39.61c.54,0,1.04-.25,1.39-.61.35-.35.61-.85.61-1.39,0-.54-.25-1.04-.61-1.39C13.04,8.25,12.54,8,12,8z"/></svg>