<svg width="36" height="36" xmlns="http://www.w3.org/2000/svg"><path fill-rule="evenodd" clip-rule="evenodd" d="m18.75,4.75c-1.43,0-2.7.61-3.6,1.56-2.47.3-4.4,2.38-4.4,4.94,0,1.01.31,1.95.82,2.74l.84-.55c-.41-.63-.66-1.38-.66-2.19,0-2.1,1.62-3.8,3.68-3.97l.2-.02.13-.15c.74-.83,1.8-1.37,2.99-1.37,2.21,0,4,1.79,4,4,0,.82-.25,1.57-.67,2.2l.83.56c.53-.79.83-1.74.83-2.76,0-2.76-2.24-5-5-5zM17.75,9.75v0C17.75,9.2,18.2,8.75,18.75,8.75c.55,0,1,.45,1,1v0l0,7.37c0,.04,0,.09,0,.13h0l0,2.25,1,0,0-2.34c.05-.51.47-.91,1-.91.56,0,1,.45,1,1v1.49l0,.02h0v.75h1v-.76c.01-.55.45-.99,1-.99.56,0,1,.45,1,1v.01l0,.19c0,.15,0,.39,0,.77,0,.76,0,2.07,0,4.28,0,2.15-.33,3.79-.65,4.88-.16.55-.32.96-.44,1.23-.02.05-.04.1-.06.14H14.54l-2.46-4.17c-1.33-2.26-2.72-4.62-2.96-5.02-.21-.36-.32-.67-.33-.91-.01-.22.06-.41.25-.61.39-.39,1.03-.39,1.42,0l3.58,3.58h.71v-4.38l0-7.5v0c0-.55.45-1,1-1,.53,0,.96.4,1,.92l0,7.58h0l0,.76,1,0,0-8.26v0c0-.04,0-.08,0-.12l0-1.38zm3,0L20.75,15.51c.29-.17.63-.27,1-.27,1.03,0,1.88.78,1.99,1.78.3-.17.64-.28,1.01-.28,1.11,0,2,.9,2,2v.01l0,.03,0,.16c0,.15,0,.39,0,.77,0,.76,0,2.07,0,4.28,0,2.25-.35,3.99-.7,5.17-.18.59-.35,1.04-.49,1.35-.07.15-.12.27-.17.35-.02.04-.04.07-.05.09l-.01.03,0,.01,0,0,0,0,0,0c0,0,0,0-.43-.25l.43.25-.14.25H13.96l-.15-.25.43-.25c-.43.25-.43.25-.43.25l0,0,0,0,0,0-2.6-4.41c-1.33-2.26-2.72-4.62-2.96-5.02-.25-.43-.44-.9-.46-1.37-.02-.5.15-.96.54-1.36l0,0c.78-.78,2.05-.78,2.83,0l2.58,2.58v-2.67l0-7.5v0c0-1.11.9-2,2-2,.37,0,.71.1,1.01.27.11-1,.96-1.77,1.99-1.77,1.11,0,2,.9,2,2v0z"/></svg>