<svg width="36" height="36" xmlns="http://www.w3.org/2000/svg"><path fill-rule="evenodd" clip-rule="evenodd" d="m18,3.25C9.85,3.25,3.25,9.85,3.25,18h1c0-7.59,6.16-13.75,13.75-13.75S31.75,10.41,31.75,18,25.59,31.75,18,31.75c-5.55,0-10.54-3.29-12.74-8H9v-1H3.25v5.75h1v-4.55C6.56,29.14,11.98,32.75,18,32.75c8.15,0,14.75-6.6,14.75-14.75S26.15,3.25,18,3.25zM13.77,7.5h1v3.24h6.5V7.5h1v3.24H24v1h-1.73v3.5H24v1h-1.73v3.5H24v1h-1.73v3.5H24v1h-1.73V28.5h-1v-3.26h-6.5V28.5h-1v-3.26H12v-1h1.77v-3.5H12v-1h1.77v-3.5H12v-1h1.77v-3.5H12v-1h1.77V7.5zm1,16.74h6.5v-3.5h-6.5v3.5zm6.5-8v3.5h-6.5v-3.5h6.5zm-6.5-1h6.5v-3.5h-6.5v3.5z"/></svg>