<svg width="24" height="24" xmlns="http://www.w3.org/2000/svg"><path fill-rule="evenodd" clip-rule="evenodd" d="m2,4.5c0-1.38,1.12-2.5,2.5-2.5.82,0,1.54.39,2,1h5.21l1.48,1.48-1.51,1.52H6.5c-.46.61-1.18,1-2,1-1.38,0-2.5-1.12-2.5-2.5zm5,0c0-.17-.02-.34-.05-.5h4.34l.48.48-.52.52H6.95c.03-.16.05-.33.05-.5zm-2.5-1.5c-.83,0-1.5.67-1.5,1.5,0,.83.67,1.5,1.5,1.5s1.5-.67,1.5-1.5c0-.83-.67-1.5-1.5-1.5zM2.5,8H2V22h20V8H2.5zM3,21V9h18V21H3zm2-7.5c0-.83.67-1.5,1.5-1.5h3.5v-1h4v1h3.5c.83,0,1.5.67,1.5,1.5v4c0,.83-.67,1.5-1.5,1.5H6.5c-.83,0-1.5-.67-1.5-1.5v-4zm1.5-.5c-.28,0-.5.22-.5.5v4c0,.28.22.5.5.5H17.5c.28,0,.5-.22.5-.5v-4c0-.28-.22-.5-.5-.5H6.5z"/></svg>