<svg width="36" height="36" xmlns="http://www.w3.org/2000/svg"><path fill-rule="evenodd" clip-rule="evenodd" d="m18,4.75c-1.22,0-1.94.43-2.34.94-.15.19-.24.39-.3.56H12.25v1.5h-6v25h23.5v-25h-6v-1.5h-3.1c-.06-.17-.15-.36-.3-.56C19.94,5.18,19.22,4.75,18,4.75zm5.75,4v1.5h-11.5v-1.5h-5v23h21.5v-23h-5zm-7.5-1.99c0,.01,0,.02,0,.02l-.02.47H13.25v2h9.5v-2h-2.98l-.02-.47c0,0,0-.01,0-.02,0-.02-.01-.06-.02-.11-.03-.09-.08-.22-.18-.35C19.37,6.07,18.97,5.75,18,5.75s-1.37.32-1.55.56c-.1.13-.15.25-.18.35-.01.05-.02.08-.02.11zM10.5,13.75v1h15v-1h-15zm15,4.5v1h-15v-1h15zm-15,4.5v1h15v-1h-15zm7.5,5.5h-7.5v-1H18v1z"/></svg>