<svg width="24" height="24" xmlns="http://www.w3.org/2000/svg"><path fill-rule="evenodd" clip-rule="evenodd" d="m5.57,3.69.86-1.43-.86-.51L3.81,4.67,6.74,6.43l.51-.86-1.5-.9C7.59,4.22,9.53,4,11.5,4c1.96,0,3.91.23,5.74.67l-1.49.9.51.86L19.19,4.67,17.43,1.74l-.86.51.86,1.44c-1.9-.46-3.91-.69-5.93-.69-2.03,0-4.03.23-5.93.69zM7,8.5c0-.83.67-1.5,1.5-1.5h0l6,0h0c.83,0,1.5.67,1.5,1.5v12c0,.83-.67,1.5-1.5,1.5H8.5c-.83,0-1.5-.67-1.5-1.5V8.5zm1.5-.5c-.28,0-.5.22-.5.5v12c0,.28.22.5.5.5H14.5c.28,0,.5-.22.5-.5v-12c0-.28-.22-.5-.5-.5l-6,0h0zM13,8v1h-3v-1h3zm-7.17-.36L2.97,8.69l.17.47-.17-.47,0,0c-.78.28-1.18,1.14-.9,1.92l0,0,3.46,9.31.94-.35-3.46-9.31,0,0c-.09-.26.04-.55.3-.64l2.86-1.05-.34-.94zM19.97,8.69l-2.86-1.05-.34.94,2.86,1.05c.26.09.39.38.3.64l0,0L16.47,19.58l.94.35,3.46-9.31,0,0c.28-.78-.12-1.64-.9-1.92l0,0-.17.47.17-.47z"/></svg>