<svg width="24" height="24" xmlns="http://www.w3.org/2000/svg"><path fill-rule="evenodd" clip-rule="evenodd" d="m11.5,2h-.5v3.04C9.3,5.28,8,6.74,8,8.5v2.86l-2,.8V15H3v6H2v1h19v-1h-1v-6h-3v-2.84L15,11.36V8.5c0-1.76-1.3-3.22-3-3.46V4H14V2h-2.5zm4.5,13v-1H7v1h9zM6,16H4v5H6v-5zm1,0h1v5H7v-5zm2,0v5h1l0-2.5v0c0-.83.67-1.5,1.5-1.5s1.5.67,1.5,1.5v0L13,21h1L14,16H9zm6,0h1v5h-1L15,16zm2,0h2v5h-2v-5zm-5,5h-1l0-2.5v0c0-.28.22-.5.5-.5.28,0,.5.22.5.5v0L12,21zm4-8.16V13H7v-.16l4.5-1.8,4.5,1.8zM14,10.96V9H9v1.96l2.5-1L14,10.96zM11.5,6c1.21,0,2.22.86,2.45,2H9.05C9.28,6.86,10.29,6,11.5,6z"/></svg>