<svg width="24" height="24" viewBox="0 0 24 24" fill="none" xmlns="http://www.w3.org/2000/svg">
<path fill-rule="evenodd" clip-rule="evenodd" d="M4.26365 3.01809C4.60487 2.41331 5.25022 2.0003 6.00024 2.0003C6.51878 2.0003 6.99154 2.1982 7.34679 2.52152L6.6737 3.26108C6.49495 3.0984 6.25971 3.0003 6.00024 3.0003C5.54232 3.0003 5.15612 3.31192 5.03977 3.74034L4.89252 4.28253L4.37108 4.07335C4.25402 4.02639 4.12903 4.0003 4.00024 4.0003C3.44739 4.0003 3.00024 4.44744 3.00024 5.0003H2.00024C2.00024 3.89516 2.8951 3.0003 4.00024 3.0003C4.08979 3.0003 4.17772 3.00644 4.26365 3.01809ZM2.5 7.0002H2V7.5002V20.5002V21.0002H2.5H20.5H21V20.5002V9.5002V8.45989L20.1877 9.10976L16 12.4599V9.5002V8.45989L15.1877 9.10976L11 12.4599V9.5002V8.45989L10.1877 9.10976L6 12.4599V7.5002V7.0002H5.5H2.5ZM3 20.0002V8.0002H5V13.5002V14.5405L5.81235 13.8906L10 10.5405V13.5002V14.5405L10.8123 13.8906L15 10.5405V13.5002V14.5405L15.8123 13.8906L20 10.5405V20.0002H3ZM5.5 16H5V16.5V17.5V18H5.5H7.5H8V17.5V16.5V16H7.5H5.5ZM10 16H10.5H12.5H13V16.5V17.5V18H12.5H10.5H10V17.5V16.5V16ZM15.5 16H15V16.5V17.5V18H15.5H17.5H18V17.5V16.5V16H17.5H15.5ZM9 3.0002C8.25114 3.0002 7.60501 3.41296 7.26397 4.01806C7.17789 4.00638 7.08978 4.0002 7 4.0002C5.89486 4.0002 5 4.89506 5 6.0002H6C6 5.44734 6.44714 5.0002 7 5.0002C7.12864 5.0002 7.25395 5.02623 7.37277 5.07362L7.89434 5.28165L8.04071 4.73954C8.15614 4.31206 8.54274 4.0002 9 4.0002C9.55286 4.0002 10 4.44734 10 5.0002H11C11 3.89506 10.1051 3.0002 9 3.0002Z" fill="black"/>
</svg>
