<svg width="36" height="36" xmlns="http://www.w3.org/2000/svg"><path fill-rule="evenodd" clip-rule="evenodd" d="m28.25,5.25c0-.55.45-1,1-1s1,.45,1,1-.45,1-1,1-1-.45-1-1zm1-2c-1.11,0-2,.9-2,2,0,.49.18.94.47,1.29L22.47,13.88c-.22-.09-.47-.13-.72-.13-.66,0-1.25.32-1.61.82l-3.9-1.56c.01-.08.02-.17.02-.26,0-1.1-.9-2-2-2s-2,.9-2,2c0,.29.06.57.18.82L7.95,17.15c-.33-.25-.75-.4-1.2-.4-1.1,0-2,.9-2,2,0,1.11.9,2,2,2s2-.89,2-2c0-.29-.06-.57-.18-.82l4.47-3.58c.33.25.75.4,1.2.4.66,0,1.25-.32,1.61-.82l3.9,1.56c-.01.08-.02.17-.02.26,0,1.1.89,2,2,2s2-.9,2-2c0-.49-.18-.94-.47-1.29l5.25-7.35c.22.09.47.13.72.13,1.11,0,2-.9,2-2s-.89-2-2-2zm-23.5,15.5c0-.55.45-1,1-1s1,.45,1,1c0,.55-.45,1-1,1s-1-.45-1-1zm6.5,1.01h4V31.75h3.5v-8.99h4v8.99h3.5V13.76h4V32.75H4.75v-6.99h4v5.99h3.5V19.76zm3,11.99V20.76h-2V31.75h2zm7.5,0v-7.99h-2v7.99h2zm7.5-16.99V31.75h-2V14.76h2zm-22.5,12v4.99h-2v-4.99h2zm6.5-15.01c-.55,0-1,.45-1,1s.45,1,1,1,1-.45,1-1-.45-1-1-1zm6.5,4c0-.55.45-1,1-1s1,.45,1,1-.45,1-1,1-1-.45-1-1z"/></svg>