<svg width="36" height="36" xmlns="http://www.w3.org/2000/svg"><path fill-rule="evenodd" clip-rule="evenodd" d="m5.75,9c0-.27.19-.64.78-1.05.58-.41,1.45-.79,2.57-1.12C11.35,6.17,14.49,5.75,18,5.75s6.65.42,8.89,1.08c1.12.33,2,.72,2.57,1.12.59.41.78.78.78,1.05s-.19.64-.78,1.05c-.58.41-1.45.79-2.57,1.12C24.65,11.83,21.51,12.25,18,12.25s-6.65-.42-8.89-1.08c-1.12-.33-2-.72-2.57-1.12C5.94,9.64,5.75,9.27,5.75,9zm-1,0c0-.76.52-1.39,1.21-1.87.7-.49,1.69-.92,2.87-1.26C11.18,5.17,14.42,4.75,18,4.75s6.82.42,9.18,1.12c1.18.35,2.16.77,2.87,1.26C30.73,7.61,31.25,8.24,31.25,9v18c0,.87-.56,1.55-1.32,2.06-.76.51-1.82.92-3.04,1.24-2.45.64-5.68.95-8.89.95s-6.45-.31-8.89-.95c-1.22-.32-2.28-.73-3.04-1.24C5.31,28.55,4.75,27.87,4.75,27V9zm1,13.85V27c0,.38.24.8.87,1.23.63.42,1.56.8,2.74,1.1,2.34.61,5.48.92,8.64.92s6.3-.31,8.64-.92c1.17-.31,2.11-.68,2.74-1.1.63-.43.87-.84.87-1.23v-4.16c-.1.08-.21.16-.32.23-.76.52-1.82.93-3.04,1.25-2.45.64-5.68.96-8.89.96s-6.45-.32-8.89-.96c-1.22-.32-2.28-.73-3.04-1.25-.11-.07-.22-.15-.32-.23zm24.5-1.83c0,.39-.24.81-.88,1.23-.63.43-1.56.8-2.74,1.11-2.34.61-5.48.93-8.64.93s-6.3-.31-8.64-.93c-1.17-.31-2.11-.68-2.74-1.11-.63-.43-.88-.85-.88-1.23v-4.19c.1.08.21.16.32.23.76.52,1.82.93,3.04,1.25,2.45.64,5.68.96,8.89.96s6.45-.32,8.89-.96c1.22-.32,2.28-.73,3.04-1.25.11-.07.22-.15.32-.23v4.19zm0-10.3V15c0,.39-.24.81-.88,1.23-.63.43-1.56.8-2.74,1.11-2.34.61-5.48.93-8.64.93s-6.3-.31-8.64-.93c-1.17-.31-2.11-.68-2.74-1.11C5.99,15.81,5.75,15.39,5.75,15v-4.28c.07.05.14.1.21.15.7.49,1.69.92,2.87,1.26C11.18,12.83,14.42,13.25,18,13.25s6.82-.42,9.18-1.12c1.18-.35,2.16-.77,2.87-1.26.07-.05.14-.1.21-.15z"/></svg>