<svg width="36" height="36" xmlns="http://www.w3.org/2000/svg"><path fill-rule="evenodd" clip-rule="evenodd" d="m5.51,9.45c1.77-.06,3.52.26,5.16.89l-.36.93c-1.39-.54-2.87-.83-4.37-.83-1.14,6.4,2.95,12.6,9.33,14.03l-.22.98C8.01,23.88,3.54,16.92,5.04,9.85l.08-.38.39-.01zM34.35,20.76c-.75-.67-1.57-1.25-2.46-1.74l-.48.88c.7.39,1.36.84,1.97,1.35-2.48,4.32-7.36,6.71-12.31,6l-.14.99c5.5.79,10.91-1.96,13.53-6.86l.18-.35-.29-.26zm-8.67-9.49c1.39-.54,2.87-.83,4.37-.83,1.14,6.4-2.95,12.6-9.33,14.03l.22.98c7.05-1.58,11.52-8.54,10.02-15.61l-.08-.38-.39-.01c-1.77-.06-3.52.26-5.16.89l.36.93z"/></svg>