<svg width="36" height="36" viewBox="0 0 36 36" fill="none" xmlns="http://www.w3.org/2000/svg">
<path fill-rule="evenodd" clip-rule="evenodd" d="M18 4.25C10.4061 4.25 4.25 10.4061 4.25 18C4.25 25.5939 10.4061 31.75 18 31.75C25.5939 31.75 31.75 25.5939 31.75 18C31.75 10.4061 25.5939 4.25 18 4.25ZM3.25 18C3.25 9.8538 9.8538 3.25 18 3.25C26.1462 3.25 32.75 9.8538 32.75 18C32.75 26.1462 26.1462 32.75 18 32.75C9.8538 32.75 3.25 26.1462 3.25 18ZM15.9804 9.43479L17.2209 9.84829L16.4051 11.072L17.2372 11.6267L18.0001 10.4824L18.7629 11.6267L19.595 11.072L18.7792 9.84832L20.0198 9.43479L19.7035 8.48611L18.5 8.88729V7.6842H17.5V8.88722L16.2967 8.48611L15.9804 9.43479ZM23.2209 12.3142L21.9804 11.9007L22.2967 10.952L23.5 11.3531V10.1501H24.5V11.3532L25.7035 10.952L26.0198 11.9007L24.7792 12.3142L25.595 13.5379L24.7629 14.0926L24.0001 12.9483L23.2372 14.0926L22.4051 13.5379L23.2209 12.3142ZM24.2304 17.8538L25.4709 18.2673L24.6551 19.491L25.4872 20.0457L26.2501 18.9014L27.0129 20.0457L27.845 19.491L27.0292 18.2673L28.2698 17.8538L27.9535 16.9051L26.75 17.3063V16.103H25.75V17.3062L24.5467 16.9051L24.2304 17.8538ZM23.2209 24.2204L21.9804 23.8069L22.2967 22.8582L23.5 23.2593V22.0562H24.5V23.2594L25.7035 22.8582L26.0198 23.8069L24.7792 24.2204L25.595 25.4441L24.7629 25.9988L24.0001 24.8545L23.2372 25.9988L22.4051 25.4441L23.2209 24.2204ZM15.9804 26.2728L17.2209 26.6863L16.4051 27.91L17.2372 28.4647L18.0001 27.3204L18.7629 28.4647L19.595 27.91L18.7792 26.6863L20.0198 26.2728L19.7035 25.3241L18.5 25.7253V24.522H17.5V25.7252L16.2967 25.3241L15.9804 26.2728ZM11.2209 24.2204L9.98044 23.8069L10.2967 22.8582L11.5 23.2593V22.0562H12.5V23.2594L13.7035 22.8582L14.0198 23.8069L12.7792 24.2204L13.595 25.4441L12.7629 25.9988L12.0001 24.8545L11.2372 25.9988L10.4051 25.4441L11.2209 24.2204ZM7.73044 17.8538L8.97093 18.2673L8.15514 19.491L8.98719 20.0457L9.75005 18.9014L10.5129 20.0457L11.345 19.491L10.5292 18.2673L11.7698 17.8538L11.4535 16.9051L10.25 17.3063V16.103H9.25V17.3062L8.04666 16.9051L7.73044 17.8538ZM11.2209 12.3142L9.98044 11.9007L10.2967 10.952L11.5 11.3531V10.1501H12.5V11.3532L13.7035 10.952L14.0198 11.9007L12.7792 12.3142L13.595 13.5379L12.7629 14.0926L12.0001 12.9483L11.2372 14.0926L10.4051 13.5379L11.2209 12.3142Z" fill="black"/>
</svg>
