<svg width="36" height="36" xmlns="http://www.w3.org/2000/svg"><path fill-rule="evenodd" clip-rule="evenodd" d="m6.75,15.25L29.25,15.25c1.11,0,2,.9,2,2h0v7H33v1h-1.75v1.5h-1.51c.01.08.01.16.01.25,0,1.52-1.23,2.75-2.75,2.75s-2.75-1.23-2.75-2.75c0-.08,0-.17.01-.25H11.74c.01.08.01.16.01.25,0,1.52-1.23,2.75-2.75,2.75-1.52,0-2.75-1.23-2.75-2.75,0-.08,0-.17.01-.25h-1.51l0-1.5H3v-1h1.75l0-7v0c0-1.1.9-2,2-2h0zM25.27,26.75c-.01.08-.02.17-.02.25,0,.97.78,1.75,1.75,1.75s1.75-.78,1.75-1.75c0-.08-.01-.17-.02-.25h-3.46zm-18,0h3.46c.01.08.02.17.02.25,0,.97-.78,1.75-1.75,1.75-.97,0-1.75-.78-1.75-1.75,0-.08.01-.17.02-.25zM29.25,16.25l-22.5,0h0c-.55,0-1,.45-1,1v0l0,8.5H7.75v-6h5.5V25.75h17v-8.5H30.25c0-.55-.45-1-1-1zm-17,9.5h-3.5v-5h3.5V25.75zm3.5-6h-.5v4h13v-4H15.75zm.5,3v-2h11v2H16.25z"/></svg>