<svg width="36" height="36" xmlns="http://www.w3.org/2000/svg"><path fill-rule="evenodd" clip-rule="evenodd" d="m3.25,6.25h7v8.5h-3v16.75h-1V14.75h-3v-8.5zm1,1v6.5h5v-6.5h-5zm12.25,6c-1.8,0-3.25,1.45-3.25,3.25v3.25h8.04c.24-1.7,1.7-3,3.46-3s3.22,1.31,3.46,3H30.25v-3.25c0-1.8-1.45-3.25-3.25-3.25H16.5zm10.7,6.5c-.23-1.14-1.24-2-2.45-2s-2.22.86-2.45,2h4.9zM13.25,27.25v-6.5h17v6.5h-17zm-1-10.75c0-2.35,1.9-4.25,4.25-4.25H27c2.35,0,4.25,1.9,4.25,4.25v1.75H33v1h-1.75v12h-5.5v-3H17.75v3h-5.5V19.25H10.5v-1h1.75v-1.75zm14.5,11.75v2H30.25v-2h-3.5zm-13.5,0h3.5v2h-3.5v-2zm2-4.25c0-.69.56-1.25,1.25-1.25s1.25.56,1.25,1.25c0,.69-.56,1.25-1.25,1.25s-1.25-.56-1.25-1.25zm1.25-.25c-.14,0-.25.11-.25.25,0,.14.11.25.25.25s.25-.11.25-.25c0-.14-.11-.25-.25-.25zm10.5-1c-.69,0-1.25.56-1.25,1.25,0,.69.56,1.25,1.25,1.25s1.25-.56,1.25-1.25c0-.69-.56-1.25-1.25-1.25zm-.25,1.25c0-.14.11-.25.25-.25s.25.11.25.25c0,.14-.11.25-.25.25s-.25-.11-.25-.25z"/></svg>