<svg width="24" height="24" xmlns="http://www.w3.org/2000/svg"><path fill-rule="evenodd" clip-rule="evenodd" d="m12,2c-1.66,0-3,1.34-3,3H8v1h1v3H8v1h.91l-1.83,11H5v1h14v-1h-2.08l-1.83-11H16v-1h-1v-3h1v-1h-1c0-1.66-1.34-3-3-3zm2,3c0-1.1-.9-2-2-2s-2,.9-2,2h4zm-4,1v3h4v-3h-4zm-1.91,15,1.83-11h4.15l1.83,11H8.09zM18,8h2v-1h-2v1zm4,0h-1v-1h1v1zm-3.75-2.07,3.5-2-.5-.87-3.5,2,.5.87zm3,6-3.5-2,.5-.87,3.5,2-.5.87zM6,7H4v1h2v-1zm-4,0h1v1H2v-1zm4.25-1.93-3.5-2-.5.87,3.5,2,.5-.87zM2.25,11.07l3.5-2,.5.87-3.5,2-.5-.87z"/></svg>