<svg width="36" height="36" xmlns="http://www.w3.org/2000/svg"><path fill-rule="evenodd" clip-rule="evenodd" d="m3.75,6.25h-.5V28.25h29.5v-7h-.5c-2.27,0-4-1.73-4-4,0-2.27,1.73-4,4-4h.5V6.25h-29zm.5,21V7.25h27.5v5.02c-2.58.24-4.5,2.32-4.5,4.98s1.92,4.74,4.5,4.98v5.02H4.25zm2.5-16.5h-.5V25.21l16,.04V10.75h-3V9h-1v1.75h-8V9h-1v1.75h-2.5zm.5,13.47v-9.47h14v9.5l-14-.03zm14-10.47h-14v-2h14v2zm-7.5,5.5H12v-1h1.75v-1.75h1v6h-1v-3.25zm10.5-11.75v.49h1v-.49h-1zM24.25,8.96v.98h1v-.98h-1zm0,1.95v.98h1v-.98h-1zm0,1.95v.98h1v-.98h-1zm0,1.95v.98h1v-.98h-1zm0,1.95v.98h1v-.98h-1zm0,1.95v.98h1v-.98h-1zm0,1.95v.98h1v-.98h-1zm0,1.95v.98h1v-.98h-1zm0,1.95v.98h1v-.98h-1zM24.25,26.51v.49h1v-.49h-1z"/></svg>