<svg width="24" height="24" xmlns="http://www.w3.org/2000/svg"><path fill-rule="evenodd" clip-rule="evenodd" d="m7,6c-2.21,0-4,1.79-4,4,0,1.93,1.37,3.54,3.19,3.92L2.14,21H21.85L14.03,7.03,11.07,11.65l-.29-.34c.14-.41.22-.85.22-1.31,0-2.21-1.79-4-4-4zm2.98,4.37c.02-.12.02-.25.02-.37,0-1.66-1.34-3-3-3-1.66,0-3,1.34-3,3,0,1.56,1.19,2.84,2.72,2.99l2.2-3.85L9.98,10.37zM5.73,20l4.78-7.47-1.43-1.66L3.86,20h1.86zm14.42,0H6.91l4.05-6.33.94.94,2-1,1.03,1.03,1.61-1.07L20.15,20zM13.97,8.97l-2.46,3.84.58.58,2-1,.97.97.99-.66-2.09-3.73z"/></svg>