<svg width="24" height="24" xmlns="http://www.w3.org/2000/svg"><path fill-rule="evenodd" clip-rule="evenodd" d="m22.5,0h-21C.675,0,0,.675,0,1.5v21c0,.825.675,1.5,1.5,1.5h21c.825,0,1.5-.675,1.5-1.5v-21c0-.825-.675-1.5-1.5-1.5z" fill="#2d327d"/><path fill-rule="evenodd" clip-rule="evenodd" d="m14.7375,7.5H18.75C19.995,7.5,21,8.505,21,9.75v9c0,1.245-1.005,2.25-2.25,2.25H5.25C4.0125,21,3,19.995,3,18.75v-9C3,8.505,4.005,7.5,5.25,7.5h4.0125v-.9c0-.7425.6075-1.35,1.35-1.35h2.775c.7425,0,1.35.6075,1.35,1.35v.9zm-4.425,0h3.375V6.3h-3.375v1.2z" fill="#fff"/><path fill-rule="evenodd" clip-rule="evenodd" d="m4.48499,14.1375c0-2.9175,2.36999-5.21245,5.2875-5.21245S15.06,11.22,15.06,14.1375,12.69,19.5,9.77249,19.5c-2.9175,0-5.2875-2.445-5.2875-5.3625zm1.5.1725c0,2.0925,1.695,3.7875,3.7875,3.7875,2.09251,0,3.78751-1.7025,3.78751-3.7875,0-2.0925-1.695-3.7875-3.78751-3.7875-2.0925,0-3.7875,1.695-3.7875,3.7875z" fill="#eb0000"/><path fill-rule="evenodd" clip-rule="evenodd" d="m7.72498,14.8501H11.85c.3075,0,.5625-.255.5625-.5625s-.255-.5625-.5625-.5625H7.72498c-.3075,0-.5625.255-.5625.5625s.255.5625.5625.5625z"/><path fill-rule="evenodd" clip-rule="evenodd" d="m7.58253,12.3076h-.4275v1.0425h.4275c.09,0,.1575-.015.21-.03.06-.015.105-.045.15-.09.0975-.0975.15-.2325.15-.4125,0-.1725-.0525-.3-.1575-.3975-.045-.0375-.0975-.0675-.15-.0825-.06-.0225-.1275-.03-.2025-.03zm-.1875.855v-.6525h.165c.0975,0,.1725.03.225.0825s.075.135.075.24c0,.1125-.03.2025-.0825.2625-.0225.0225-.0525.045-.0825.0525s-.075.015-.1275.015h-.1725z"/><path fill-rule="evenodd" clip-rule="evenodd" d="m8.88001,12.6601c-.0675-.075-.165-.1125-.2775-.1125-.1275,0-.225.045-.3075.1275-.0675.0675-.0975.165-.0975.285s.0375.2175.105.2925c.075.0825.1725.12.2925.12.1125,0,.21-.0375.2775-.105.075-.075.1125-.18.1125-.3075s-.0375-.225-.105-.3zm-.4125.12c.03-.045.075-.0675.1275-.0675.06,0,.105.0225.135.0825.03.0375.045.105.045.18,0,.0825-.015.1425-.0525.1875-.03.0375-.075.06-.1275.06s-.105-.0225-.135-.0675-.045-.105-.045-.1875.0225-.1425.0525-.1875z"/><path fill-rule="evenodd" clip-rule="evenodd" d="m9.85503,13.2602v-.69l-.2025-.015v.105c-.03-.045-.0675-.075-.0975-.0975s-.075-.03-.1275-.03c-.0975,0-.18.0375-.24.1125s-.09.165-.09.285.03.2175.09.285.135.105.2325.105c.105,0,.18001-.0375.23251-.12v.0975c0,.0675-.0075.1125-.03.1425-.0225.0375-.06751.0525-.135.0525-.0825,0-.135-.03-.15001-.0975h-.21c.01501.165.13501.2475.3525.2475.15751,0,.2625-.045.32251-.1425.015-.03.03-.06.0375-.0975.00749-.03.01499-.0825.01499-.1425zm-.51-.465c.03001-.0525.075-.075.135-.075.05251,0,.09001.015.1275.0525.0375.045.0525.0975.0525.1725,0,.06-.015.1125-.0375.15-.0375.0525-.08249.075-.1425.075-.0525,0-.09-.015-.12-.0525-.0375-.0375-.0525-.0975-.0525-.1725,0-.06.015-.1125.0375-.15z"/><path fill-rule="evenodd" clip-rule="evenodd" d="m10.515,13.3501h.21c-.0075-.03-.015-.06,0-.075-.0075-.03-.0075-.0675-.0075-.1275v-.3225c0-.06-.0075-.0975-.015-.1275s-.0225-.0525-.0525-.075c-.06-.0525-.15-.075-.27-.075-.1125,0-.195.0225-.255.0675s-.09.105-.0975.195h.195c.0075-.045.0225-.075.045-.09s.06-.0225.105-.0225c.09,0,.135.0375.135.105,0,.03-.0075.0525-.03.06s-.075.0225-.1575.03c-.09.015-.1575.03-.195.045-.09.0375-.13501.105-.13501.2025,0,.075.02251.135.07501.18.045.0375.105.0525.1875.0525.0975,0,.18-.03.2475-.0975,0,.015.0075.045.015.075zm-.1575-.3375c.0675-.0075.1125-.0225.1425-.0375l.0075.0825c0,.0225,0,.045-.0075.06s-.015.03-.03.045c-.0375.045-.09.0675-.15.0675-.03,0-.06-.015-.0825-.03s-.03-.045-.03-.075c0-.0375.015-.0675.045-.0825.0225-.015.0525-.0225.105-.03z"/><path fill-rule="evenodd" clip-rule="evenodd" d="m11.055,12.5776v.1125c.0225-.03.045-.06.0675-.075.0525-.0375.1125-.06.1875-.06.0675,0,.12.015.165.045.0375.0225.06.06.075.0975s.0225.0975.0225.165v.4875h-.21v-.45c0-.0525-.0075-.09-.015-.1125s-.0225-.0375-.045-.045c-.0225-.015-.045-.0225-.075-.0225s-.06.0075-.0825.0225-.045.0375-.06.06c-.015.03-.0225.075-.0225.135v.405h-.21v-.78l.2025.015z"/><path fill-rule="evenodd" clip-rule="evenodd" d="m12.2251,13.3501h.21c-.015-.03-.015-.06,0-.075-.0075-.03-.0075-.0675-.0075-.1275v-.3225c0-.06-.0075-.0975-.015-.1275s-.0225-.0525-.0525-.075c-.06-.0525-.15-.075-.27-.075-.1125,0-.195.0225-.255.0675s-.09.105-.0975.195h.195c.0075-.045.0225-.075.045-.09s.06-.0225.105-.0225c.09,0,.135.0375.135.105,0,.03-.0075.0525-.03.06s-.075.0225-.1575.03c-.09.015-.1575.03-.195.045-.09.0375-.135.105-.135.2025,0,.075.0225.135.075.18.045.0375.105.0525.1875.0525.0975,0,.18-.03.2475-.0975,0,.015.0075.045.015.075zm-.1575-.3375c-.0525.0075-.0825.015-.105.03l.105-.03zM11.9626,13.0426c-.03.015-.045.045-.045.0825l.045-.0825zm-.045.0825c0,.03.0075.06.03.075l-.03-.075zm.03.075c.0225.015.0525.03.0825.03l-.0825-.03zM12.0301,13.2301c.06,0,.1125-.0225.15-.0675l-.15.0675zm.15-.0675c.015-.015.0225-.03.03-.045l-.03.045zm.03-.045c.0075-.015.0075-.0375.0075-.06l-.0075.06zm.0075-.06v-.0825.0825z"/></svg>