<svg width="48" height="48" xmlns="http://www.w3.org/2000/svg"><path fill-rule="evenodd" clip-rule="evenodd" d="m29.5,6v0l-.01,0c-3.08.08-5.95,1.59-7.75,4.07-1.3-.69-2.75-1.06-4.23-1.07v0h0c-5.88,0-10.5,5.69-10.5,12.5,0,6.62,4.36,12.17,10,12.49v8.04h1v-8.05c2.9-.22,5.55-1.7,7.26-4.05,1.16.62,2.43.97,3.74,1.05v11.04h1V30.99c5.64-.31,10-5.87,10-12.49,0-6.81-4.62-12.5-10.5-12.5zM25.4,28.86l-.03-.02,0,0,0,0c-3.15-1.85-5.37-5.76-5.37-10.34v0c-.02-2.67.78-5.29,2.3-7.48l.24-.34c1.62-2.23,4.2-3.6,6.97-3.67,5.16,0,9.49,5.06,9.49,11.5,0,6.44-4.34,11.5-9.5,11.5-1.42-.01-2.82-.39-4.04-1.1l-.06-.03zM17.5,10c-5.16,0-9.5,5.06-9.5,11.5,0,6.44,4.33,11.5,9.49,11.5,2.74-.07,5.28-1.4,6.91-3.58-3.24-2.15-5.4-6.24-5.4-10.91-.02-2.69.73-5.33,2.17-7.6-1.13-.58-2.39-.89-3.67-.9zm-.54,2c-3.23.3-6.11,3.17-6.94,6.89l.98.22c.76-3.39,3.35-5.86,6.06-6.11l-.09-1zM28.96,9c-3.23.3-6.11,3.17-6.94,6.89l.98.22c.76-3.39,3.35-5.86,6.06-6.11l-.09-1z"/></svg>