<svg width="24" height="24" viewBox="0 0 24 24" fill="none" xmlns="http://www.w3.org/2000/svg">
<path fill-rule="evenodd" clip-rule="evenodd" d="M11.2324 2.9997H11.5H19.5H19.9236L19.9932 3.4175L21.9932 15.4175L22.0463 15.7364L21.7774 15.9157L18.7774 17.9157L18.6514 17.9997H18.5H13V16.9997H18.0345L18.8665 5.35134L17.916 6.77705L17.7676 6.9997H17.5H10.8966L9.98488 10.6222L9.01512 10.3782L9.86537 6.9997H9.5H8.56574L9.08397 6.22235L11.084 3.22235L11.2324 2.9997ZM20.9537 15.263L19.0714 16.5178L19.6988 7.73417L20.9537 15.263ZM18.5657 3.9997H11.7676L10.4343 5.9997H17.2324L18.5657 3.9997ZM5.79975 12.0981C5.58532 12.0351 5.33228 12.0001 5.00569 11.9997C4.56252 11.9899 3.77226 11.9765 3.10869 12.4812C2.41835 13.0063 2 13.9747 2 15.5957C2 17.0939 2.24857 18.4048 2.7291 19.3612C3.21057 20.3194 3.97512 20.9997 5 20.9997V20.9998L5.00937 20.9996C5.64955 20.9876 6.061 20.8487 6.38602 20.7122C6.44812 20.6861 6.50248 20.6626 6.55103 20.6417L6.55115 20.6417C6.75579 20.5534 6.85719 20.5096 7 20.5004C7.14281 20.5096 7.24421 20.5534 7.44885 20.6417L7.44897 20.6417C7.49752 20.6626 7.55188 20.6861 7.61398 20.7122C7.939 20.8487 8.35045 20.9876 8.99063 20.9996L8.99063 20.9997H9C10.0249 20.9997 10.7894 20.3194 11.2709 19.3612C11.7514 18.4048 12 17.0939 12 15.5957C12 13.9747 11.5816 13.0063 10.8913 12.4812C10.2277 11.9765 9.43748 11.9899 8.99431 11.9997C8.66772 12.0001 8.41468 12.0351 8.20025 12.0981C7.98261 12.162 7.82743 12.2487 7.71094 12.3148L7.70884 12.316C7.59851 12.3786 7.53586 12.4141 7.45291 12.4421C7.29915 11.561 6.79331 10.9701 6.29999 10.6001C6.00858 10.3816 5.71982 10.2376 5.50477 10.148C5.39659 10.1029 5.3052 10.0709 5.2389 10.0496C5.2057 10.0389 5.17863 10.0309 5.15872 10.0252L5.13428 10.0185L5.12629 10.0164L5.12338 10.0157L5.12221 10.0154L5.12169 10.0152C5.12145 10.0152 5.12122 10.0151 5 10.5002C4.87878 10.9853 4.87856 10.9852 4.87835 10.9852L4.87797 10.9851L4.87735 10.9849L4.87719 10.9849L4.8862 10.9874C4.89559 10.99 4.91149 10.9947 4.93297 11.0016C4.97605 11.0155 5.04091 11.0381 5.12023 11.0711C5.28018 11.1377 5.49142 11.2437 5.70001 11.4001C5.99172 11.6189 6.27428 11.9307 6.41234 12.3832C6.37716 12.3648 6.33857 12.3429 6.29119 12.316L6.29118 12.316L6.29117 12.316L6.29116 12.316L6.28906 12.3148C6.17257 12.2487 6.01739 12.162 5.79975 12.0981ZM3 15.5957C3 14.1207 3.38015 13.5311 3.71406 13.2772C4.07204 13.0049 4.52805 12.9894 4.98893 12.9996L4.98893 12.9997H5C5.25815 12.9997 5.41443 13.0272 5.51797 13.0576C5.61955 13.0874 5.69181 13.1257 5.79569 13.1846L5.81679 13.1966C5.91954 13.2551 6.06275 13.3367 6.25137 13.3975C6.45642 13.4636 6.69414 13.4997 7 13.4997C7.30586 13.4997 7.54358 13.4636 7.74863 13.3975C7.93725 13.3367 8.08046 13.2551 8.18321 13.1966L8.20431 13.1846C8.30819 13.1257 8.38045 13.0874 8.48203 13.0576C8.58557 13.0272 8.74185 12.9997 9 12.9997V12.9998L9.01107 12.9996C9.47195 12.9894 9.92796 13.0049 10.2859 13.2772C10.6199 13.5311 11 14.1207 11 15.5957C11 17.0015 10.7641 18.1426 10.3774 18.9122C9.9927 19.6778 9.50894 19.9978 9.00442 19.9997C8.5266 19.9901 8.24316 19.8918 8.00127 19.7902C7.96671 19.7757 7.92994 19.7594 7.891 19.7422C7.66923 19.6441 7.37704 19.5148 7.02054 19.5001L7 19.4993L6.97946 19.5001C6.62296 19.5148 6.33077 19.6441 6.109 19.7422C6.07006 19.7594 6.03329 19.7757 5.99873 19.7902C5.75684 19.8918 5.4734 19.9901 4.99558 19.9997C4.49106 19.9978 4.0073 19.6778 3.62265 18.9122C3.23593 18.1426 3 17.0015 3 15.5957Z" fill="black"/>
</svg>
