<svg width="24" height="24" viewBox="0 0 24 24" fill="none" xmlns="http://www.w3.org/2000/svg">
<path fill-rule="evenodd" clip-rule="evenodd" d="M12.4351 16.0845C12.9831 16.0805 13.4311 15.9085 13.7811 15.5715C14.1301 15.2335 14.3041 14.8015 14.3041 14.2725C14.3041 13.7305 14.1541 13.3015 13.8511 12.9875C13.5491 12.6735 13.0781 12.4575 12.4351 12.3395V16.0845ZM11.6571 7.6175C11.1991 7.6315 10.8401 7.7285 10.5811 7.9075C10.1181 8.2285 9.88611 8.6905 9.88611 9.2955C9.88611 9.7675 10.0311 10.1405 10.3191 10.4135C10.6071 10.6885 11.0521 10.8765 11.6571 10.9805V7.6175ZM8.50611 13.8185H9.70911C9.70911 15.2545 10.3591 16.0095 11.6571 16.0845V12.1695C10.9351 12.0475 10.3261 11.8275 9.83011 11.5115C9.07511 11.0345 8.69711 10.3285 8.69711 9.3945C8.69711 8.5965 8.96511 7.9465 9.50011 7.4435C10.0371 6.9405 10.7551 6.6685 11.6571 6.6255V5.3585H12.4351V6.6255C13.3321 6.6965 14.0121 6.9615 14.4741 7.4185C14.9751 7.9095 15.2201 8.5565 15.2101 9.3585H14.0211C13.9461 8.2405 13.4171 7.6615 12.4351 7.6245V11.1715C13.0311 11.3225 13.4421 11.4385 13.6711 11.5185C13.9001 11.5985 14.1141 11.7025 14.3121 11.8295C15.1001 12.3395 15.4941 13.1155 15.4941 14.1585C15.4941 15.2345 15.0551 16.0545 14.1771 16.6155C13.7571 16.8855 13.1761 17.0405 12.4351 17.0835V18.6415H11.6571V17.0835C10.5951 17.0175 9.80611 16.7005 9.29211 16.1345C8.76311 15.5495 8.50111 14.7775 8.50611 13.8185ZM11.9999 2.99998C7.02908 2.99998 2.99994 7.02912 2.99994 12C2.99994 16.9708 7.02908 21 11.9999 21C16.9708 21 20.9999 16.9708 20.9999 12C20.9999 7.02912 16.9708 2.99998 11.9999 2.99998ZM1.99994 12C1.99994 6.47683 6.4768 1.99998 11.9999 1.99998C17.5231 1.99998 21.9999 6.47683 21.9999 12C21.9999 17.5231 17.5231 22 11.9999 22C6.4768 22 1.99994 17.5231 1.99994 12ZM4.30111 9.86668C4.9483 7.53488 6.61157 5.6266 8.79965 4.67024L9.20014 5.58655C7.28823 6.42219 5.8315 8.09191 5.26469 10.1341L4.30111 9.86668Z" fill="black"/>
</svg>
