<svg width="48" height="48" xmlns="http://www.w3.org/2000/svg"><path fill-rule="evenodd" clip-rule="evenodd" d="m37,2v3h-1V2h1zm6.57,3.14-2.12,2.12-.71-.71,2.12-2.12.71.71zm-13.44-.71,2.12,2.12-.71.71-2.12-2.12.71-.71zM36.5,8c-1.93,0-3.5,1.57-3.5,3.5,0,1.93,1.57,3.5,3.5,3.5,1.93,0,3.5-1.57,3.5-3.5,0-1.93-1.57-3.5-3.5-3.5zm-4.5,3.5c0-2.49,2.01-4.5,4.5-4.5,2.49,0,4.5,2.01,4.5,4.5,0,2.49-2.01,4.5-4.5,4.5-2.49,0-4.5-2.01-4.5-4.5zm-5-.5h3v1h-3v-1zm19,1h-3v-1h3v1zM9.19,14.57c6.39-3.38,14.36-1.13,18,5.18l.25.43-11.25,6.49L26.78,44h15.22v1H5v-1H25.61L15.33,27.18l4.06,33.69-.25-.43C.17,26.94,2.2,18.91,8.32,15.07l-.5-.87.87-.5.5.87zM6.01,18.37c-3.25,3.79-4.01,9.31-1.57,13.95l3.46-2c-1.67-3.05-2.47-6.22-2.39-8.96.03-1.07.19-2.08.5-2.99zm2.76,11.45,12.98-7.49c-1.72-2.83-3.95-4.97-6.17-6.17-2.34-1.27-4.61-1.46-6.32-.48h0c-1.71.99-2.67,3.04-2.75,5.71-.07,2.53.67,5.52,2.26,8.43zm13.85-7.99,3.46-2c-2.79-4.42-7.95-6.53-12.86-5.61.94.19,1.9.56,2.83,1.06,2.41,1.3,4.76,3.58,6.57,6.55zm6.82-3.96,2.12-2.12.71.71-2.12,2.12-.71-.71zM42.86,18.57l-2.12-2.12.71-.71,2.12,2.12-.71.71zM36,21v-3h1v3h-1z"/></svg>