<svg width="36" height="36" xmlns="http://www.w3.org/2000/svg"><path fill-rule="evenodd" clip-rule="evenodd" d="m15.75,4.75h-.5v1.85c-1.11.31-2.04.81-2.81,1.42l.63.78C14.21,7.89,15.8,7.25,18,7.25c3.14,0,5.05,1.3,6.19,2.89C25.36,11.75,25.75,13.71,25.75,15v7.5h1V15c0-1.46-.43-3.63-1.74-5.45-.94-1.3-2.31-2.41-4.26-2.95V4.75h-5zm4,1.63V5.75h-3.5v.63C16.8,6.3,17.38,6.25,18,6.25c.62,0,1.21.05,1.75.14zm-9.18,6.39c-.23.82-.32,1.6-.32,2.23v9c0,1.54-.6,2.58-1.41,3.25H25.04L10.57,12.77zm-.8-.8c-.37,1.11-.52,2.18-.52,3.03v9c0,1.34-.55,2.12-1.2,2.59-.68.49-1.51.66-2.05.66v1h7.78c.12.95.58,1.68,1.27,2.18.79.57,1.84.82,2.94.82,1.1,0,2.15-.25,2.95-.82.69-.5,1.16-1.24,1.27-2.18h3.82l2.1,2.1.71-.71L6.35,7.15l-.71.71L9.77,11.97zM21.16,28.25h.05c-.11.61-.42,1.06-.85,1.37-.57.41-1.39.63-2.36.63-.97,0-1.79-.22-2.36-.63-.43-.31-.74-.76-.85-1.37h6.37z"/></svg>