<svg width="36" height="36" xmlns="http://www.w3.org/2000/svg"><path fill-rule="evenodd" clip-rule="evenodd" d="m17.75,8.25c0-.52.48-1,1-1,.52,0,1,.48,1,1s-.48,1-1,1c-.52,0-1-.48-1-1zm1-2c-1.08,0-2,.92-2,2s.92,2,2,2c1.08,0,2-.92,2-2s-.92-2-2-2zm-8.25,3.75h-.36l-1.36,4.07-2.43-2.43-.71.71,2.88,2.88.71,5.68-3.68,7.36.89.45,3.82-7.64-.59-4.7,1.89,1.89,1.4,4.19-2.91,5.81.89.45,3.09-6.19-.9-2.69,5.41,5.41-.96,2.89-5.81,2.91.45.89,6.19-3.09,1.5-4.5,2.91-1.46,2.92-3.65h2.47l2.86,5,.87-.5-3.14-5.5h-3.53l-3.08,3.85-3.09,1.54-.18.55-3.36-3.36,1.5-7.5L13.71,10h-3.21zm5.29,3.5-3.79,3.79L9.71,15l3.79-3.79L15.79,13.5zm-3.5-2.5-2.15,2.15L10.86,11h1.43zm3.39,4.02L12.71,18l1.99,1.99.99-4.96zm11.78,8.41-1.56,3.89-4.63,3.09-.55-.83,4.37-2.91,1.44-3.61.93.37z"/></svg>