<svg width="24" height="24" xmlns="http://www.w3.org/2000/svg"><path fill-rule="evenodd" clip-rule="evenodd" d="m9.87,10.84,4.28-4.7c.09-.09.21-.14.35-.14.28,0,.5.22.5.5,0,.06-.01.12-.03.17l-1.71,4.33H17.5c.28,0,.5.22.5.5,0,.28-.22.5-.5.5H16v1h1.5c.28,0,.5.22.5.5,0,.28-.22.5-.5.5v0H16v1h1.5v0c.28,0,.5.22.5.5,0,.28-.22.5-.5.5h-1v0H16v1h.5v0c.28,0,.5.22.5.5,0,.28-.22.5-.5.5v.5-.5h-5c-.72,0-1.33-.12-1.76-.46-.4-.31-.74-.89-.74-2.03v-4.52h.72l.15-.16zM8,10v0h1.28l4.15-4.55.01-.01c.27-.27.65-.44,1.06-.44.83,0,1.5.67,1.5,1.5,0,.18-.03.36-.09.52l0,.01,0,0-1.17,2.97H17.5c.83,0,1.5.67,1.5,1.5,0,.38-.14.73-.38,1,.24.27.38.62.38,1,0,.38-.14.73-.38,1,.24.27.38.62.38,1,0,.69-.47,1.27-1.11,1.45.07.17.11.36.11.55,0,.83-.67,1.5-1.5,1.5v-.5.5h-5c-.79,0-1.68-.13-2.37-.67-.04-.03-.09-.07-.13-.11v.78h-4v-9.01H8zm0,1H6v7.01h2v-2.49C8,15.51,8,15.51,8,15.5V11z"/></svg>