<svg width="24" height="24" xmlns="http://www.w3.org/2000/svg"><path fill-rule="evenodd" clip-rule="evenodd" d="m11.23,3h8.69l2.07,12.42.05.32-3.39,2.26H13v-1h5.03l.83-11.65L17.77,7h-6.87l-.91,3.62-.97-.24.85-3.38H8.57l2.67-4zm9.72,12.26-1.88,1.25.63-8.78,1.25,7.53zM18.57,4h-6.8l-1.33,2h6.8l1.33-2zM5.8,12.1c-.21-.06-.47-.1-.79-.1-.44-.01-1.23-.02-1.9.48C2.42,13.01,2,13.97,2,15.6c0,1.5.25,2.81.73,3.77.48.96,1.25,1.64,2.27,1.64v0l.01,0c.64-.01,1.05-.15,1.38-.29.06-.03.12-.05.17-.07h0c.2-.09.31-.13.45-.14.14.01.24.05.45.14h0c.05.02.1.04.17.07.33.14.74.28,1.38.29v0H9c1.02,0,1.79-.68,2.27-1.64.48-.96.73-2.27.73-3.77,0-1.62-.42-2.59-1.11-3.11-.66-.5-1.45-.49-1.9-.48-.33,0-.58.04-.79.1-.22.06-.37.15-.49.22l0,0c-.11.06-.17.1-.26.13-.15-.88-.66-1.47-1.15-1.84-.29-.22-.58-.36-.8-.45-.11-.05-.2-.08-.27-.1-.03-.01-.06-.02-.08-.02l-.02-.01-.01,0,0,0,0,0,0,0c0,0,0,0-.12.49s-.12.49-.12.49l0,0,0,0h0l.01,0c.01,0,.03.01.05.01.04.01.11.04.19.07.16.07.37.17.58.33.29.22.57.53.71.98-.04-.02-.07-.04-.12-.07h0l0,0c-.12-.07-.27-.15-.49-.22zM3,15.6c0-1.48.38-2.06.71-2.32.36-.27.81-.29,1.27-.28v0H5c.26,0,.41.03.52.06.1.03.17.07.28.13l.02.01c.1.06.25.14.43.2.21.07.44.1.75.1s.54-.04.75-.1c.19-.06.33-.14.43-.2l.02-.01c.1-.06.18-.1.28-.13.1-.03.26-.06.52-.06v0l.01,0c.46-.01.92.01,1.27.28.33.25.71.84.71,2.32,0,1.41-.24,2.55-.62,3.32-.38.77-.87,1.09-1.37,1.09-.48-.01-.76-.11-1-.21-.03-.01-.07-.03-.11-.05-.22-.1-.51-.23-.87-.24L7,19.5l-.02,0c-.36.01-.65.14-.87.24-.04.02-.08.03-.11.05-.24.1-.53.2-1,.21-.5,0-.99-.32-1.37-1.09C3.24,18.14,3,17,3,15.6z"/></svg>