<svg width="36" height="36" xmlns="http://www.w3.org/2000/svg"><path fill-rule="evenodd" clip-rule="evenodd" d="m6.91,7.74H6v1h.91c1.74,0,3.45.39,4.98,1.2l2.39,1.27c-1.24,1.8-.73,4.45,1.34,5.38l.04.02,3.78,1.66c1.5.66,3.11.99,4.74.99h5.29l.63.33c1.01.54,1.65,1.59,1.65,2.74,0,.14-.01.28-.02.41H10.5v1h20.95c-.54,1.18-1.72,2-3.1,2H3v1h1.79c.11.78.48,1.47,1.02,2H3v1h30v-1H19.72c.54-.53.9-1.22,1.02-2h7.61c2.43,0,4.4-1.97,4.4-4.41,0-1.52-.84-2.91-2.18-3.62l-18.22-9.66c-1.68-.89-3.55-1.31-5.44-1.31zm8.22,4.01.05-.07,12.42,6.58h-3.4c-1.49,0-2.97-.31-4.34-.91l-3.78-1.66-.03-.02c-1.43-.65-1.87-2.58-.91-3.93zm-.3,14.99c.23,1.14,1.24,2,2.45,2s2.22-.86,2.45-2h-4.9zm-1.01,0h-2.09c-.11.78-.48,1.47-1.02,2h4.12c-.54-.53-.9-1.22-1.01-2zm-8.01,0c.23,1.14,1.24,2,2.45,2s2.22-.86,2.45-2H5.8zM4.5,8.74H3v-1h1.5v1zm0,14H3v1h1.5v-1zm1.5,0h3v1H6v-1zm1.5-4.5H4.5v1h3v-1zM9.25,16.49c0-.97-.78-1.75-1.75-1.75v-1c1.52,0,2.75,1.23,2.75,2.75s-1.23,2.75-2.75,2.75v-1c.97,0,1.75-.78,1.75-1.75zM3,14.74h3v-1H3v1z"/></svg>