<svg width="36" height="36" xmlns="http://www.w3.org/2000/svg"><path fill-rule="evenodd" clip-rule="evenodd" d="m3.25,6.75c0-1.93,1.57-3.5,3.5-3.5,1.19,0,2.24.59,2.87,1.5h7.83l1.98,1.98-2.02,2.02H9.62c-.63.91-1.68,1.5-2.87,1.5-1.93,0-3.5-1.57-3.5-3.5zm7,0c0-.35-.05-.68-.14-1h6.94l.98.98-1.02,1.02h-6.89c.09-.32.15-.65.15-1zm-3.5-2.5c-1.38,0-2.5,1.12-2.5,2.5,0,1.38,1.12,2.5,2.5,2.5,1.38,0,2.5-1.12,2.5-2.5,0-1.38-1.12-2.5-2.5-2.5zM3.75,12.25h-.5v20.5h29.5v-20.5h-29zm.5,19.5v-18.5h27.5v18.5H4.25zm3.5-11.5c0-1.11.9-2,2-2H26.25c1.1,0,2,.89,2,2v6c0,1.1-.9,2-2,2H9.75c-1.1,0-2-.9-2-2v-6zm2-1c-.55,0-1,.45-1,1v6c0,.55.45,1,1,1H26.25c.55,0,1-.45,1-1v-6c0-.55-.45-1-1-1H9.75zm5.25-1.5h6v-1h-6v1z"/></svg>