<svg width="48" height="48" fill="none" xmlns="http://www.w3.org/2000/svg"><path d="m21.88,31.25,5.5,2.97c.9.49,2.03.15,2.51-.75.48-.9.15-2.04-.75-2.53m-4.48-2.42,7.31,3.95c.9.49,2.03.15,2.51-.75s.13-2.01-.77-2.5m-6.15-3.32,7.75,4.19c.9.49,2.03.15,2.51-.75s.15-2.03-.75-2.51l-10.32-5.57-6.86,3.39c-2.44,1.22-4.75-1.39-2.9-3.6,4.47-4.87,8.13-9.48,12.1-8.2l8,2.5,5.4-3v13.7l-4.46,2.47M25,32.94c.9.48,1.23,1.62.74,2.52-.48.9-1.61,1.23-2.51.75L4.5,26.64v-14.75l5.4,3,7.8-2.45c2.25-.56,4.45.21,6.17,1.72" stroke="#000"/></svg>