<svg width="48" height="48" fill="none" xmlns="http://www.w3.org/2000/svg"><path d="m38.5,42.5h-29c-.55,0-1-.45-1-1s.45-1,1-1h29c.55,0,1,.45,1,1s-.45,1-1,1zm0-35h-29c-.55,0-1-.45-1-1s.45-1,1-1h29c.55,0,1,.45,1,1s-.45,1-1,1zM24,24c0-2.76,1.43-5.32,3.66-6.7.8-.48,1.59-1.1,2.34-1.8H18c.76.71,1.55,1.33,2.36,1.81,2.21,1.37,3.64,3.93,3.64,6.69zm3.66,9.66c-1.67-1.02-3.11-1.72-3.61-3.66H24c-.49,1.95-1.99,2.64-3.68,3.67C17.71,35.25,14.54,35.11,13.5,38.5h21c-1.04-3.39-4.22-3.25-6.84-4.84zM24,25v1m0,1v1M10.62,7.5c.42,5.38,4.17,9.99,8.15,12.39,1.29.79,2.17,2.33,2.17,4.11s-.88,3.32-2.17,4.11c-3.98,2.4-7.73,7.01-8.15,12.39m26.75,0c-.42-5.38-4.17-9.99-8.15-12.39-1.29-.79-2.17-2.34-2.17-4.11s.88-3.32,2.17-4.11c3.98-2.4,7.73-7.01,8.15-12.39" stroke="#000" stroke-miterlimit="10"/></svg>