<svg width="36" height="36" xmlns="http://www.w3.org/2000/svg"><path fill-rule="evenodd" clip-rule="evenodd" d="m8.25,4.25C7.7,4.25,7.25,4.7,7.25,5.25v4.5c0,.55.45,1,1,1H12.25v-6.5H8.25zm5,0v6.5h9.5v-6.5h-9.5zm10.5,0v6.5h4c.55,0,1-.45,1-1v-4.5c0-.55-.45-1-1-1h-4zM6.25,5.25C6.25,4.15,7.15,3.25,8.25,3.25H27.75c1.1,0,2,.9,2,2v4.5c0,1.1-.9,2-2,2h-1v11h.38l0,0c.68.01,1.7.22,2.55.84.88.63,1.57,1.68,1.57,3.26v4.5c0,.37-.15.73-.41.99-.26.26-.62.41-.99.41H6.16c-.37,0-.73-.15-.99-.41-.26-.26-.41-.62-.41-.99v-4.5c0-1.09.44-2.13,1.21-2.9.78-.77,1.83-1.2,2.92-1.2H9.25v-11H8.25C7.14,11.75,6.25,10.86,6.25,9.75V5.25zm4,6.5v3.06c.96,1.06,2.13,1.91,3.43,2.5,1.21.55,2.5.86,3.82.92V16.5h1v1.74c1.32-.06,2.61-.38,3.82-.92,1.3-.59,2.47-1.44,3.43-2.5V11.75h-15.5zm15.5,4.48c-.89.82-1.91,1.49-3.02,2-1.34.61-2.77.95-4.23,1.01V21h-1v-1.76c-1.46-.06-2.9-.41-4.23-1.01-1.11-.5-2.12-1.18-3.02-2V31.75h15.5V16.23zM26.75,31.75h3.09c.11,0,.21-.04.29-.12.08-.08.12-.18.12-.28v-4.5c0-1.25-.52-2-1.15-2.45-.65-.47-1.45-.64-1.98-.65H26.75v8zm-17.5,0v-8h-.37c-.83,0-1.63.33-2.22.91l0,0C6.08,25.24,5.75,26.03,5.75,26.85v4.5c0,.1.04.21.12.28.08.08.18.12.29.12H9.25z"/></svg>