<svg width="36" height="36" xmlns="http://www.w3.org/2000/svg"><path fill-rule="evenodd" clip-rule="evenodd" d="m13.85,5.65L13.5,5.29,2.65,16.15l.71.71,1.4-1.4v12.79H11.74v-6h3.5v6h7.02v-4.5H24c.67,0,1.08.17,1.32.41.25.25.41.66.43,1.35v1.5l0,.03c0,.38,0,1.02.22,1.57.12.3.31.59.62.81.31.22.7.33,1.16.33.46,0,.85-.11,1.16-.33.31-.22.5-.51.62-.8.23-.56.22-1.21.22-1.6l0-.02v-4.78c1.7-.24,3-1.7,3-3.46v-2h-1.5v-3.25h-1v3.25h-2v-3.25h-1v3.25h-1.5v2c0,1.76,1.3,3.22,3,3.46v4.79c0,.43,0,.89-.15,1.24-.07.16-.15.28-.27.36-.11.08-.29.15-.58.15-.29,0-.47-.07-.58-.15-.11-.08-.2-.2-.27-.37-.14-.36-.15-.82-.15-1.23v-1.5h0l0-.01c-.02-.82-.23-1.53-.72-2.03-.5-.5-1.2-.71-2.03-.71h-1.75v-7.29l1.4,1.4.71-.71-10.5-10.5zM21.25,14.46,13.5,6.71,5.75,14.46v12.79H10.74v-6h5.5v6h5.01V14.46zm5.5,4.29v-1h5v1c0,1.38-1.12,2.5-2.5,2.5-1.38,0-2.5-1.12-2.5-2.5z"/></svg>