<svg width="36" height="36" xmlns="http://www.w3.org/2000/svg"><path fill-rule="evenodd" clip-rule="evenodd" d="m10.49,4.75c-2.35,0-4.25,1.87-4.25,4.22,0,.74.19,1.42.52,2.03.18.34.4.65.68.93l0,0,6.06,6.03,6.07-6.03.01-.02c.13-.16.48-.6.61-.83l0,0c.35-.62.56-1.34.56-2.1,0-.51-.09-1-.26-1.45-.59-1.62-2.15-2.77-3.99-2.77-1.18,0-2.23.48-3,1.24-.76-.76-1.82-1.24-3-1.24zm-3.25,4.22c0-1.79,1.44-3.22,3.25-3.22,1.07,0,2.01.51,2.6,1.3l.4.54.4-.54c.59-.79,1.52-1.3,2.6-1.3,1.41,0,2.6.88,3.05,2.11l0,0c.13.34.19.72.19,1.11,0,.59-.15,1.13-.42,1.61-.08.14-.35.5-.5.67l-5.33,5.3-5.35-5.32c-.2-.2-.37-.44-.51-.7l0,0c-.25-.46-.39-.98-.39-1.55zM12.25,24.2l-5.76-4.02c-.86-.68-2.11-.54-2.8.32-.69.86-.55,2.11.3,2.8L13.01,31.25h5.9l1.51,1.5h12.58l-8.39-8.45,0,0-.01-.01c-1.76-1.69-4.04-3-6.43-3.04V21.25h-3.17c-.88,0-1.58.34-2.06.87-.47.52-.7,1.21-.7,1.88,0,.07,0,.14.01.21zm-6.34-3.21,7.06,4.93c.48.51,1.17.83,2.04.83h3v-1h-3c-.63,0-1.06-.23-1.33-.54-.28-.32-.43-.76-.43-1.21s.16-.9.45-1.22c.28-.31.7-.54,1.31-.54h3.16c2.04.04,4.1,1.17,5.75,2.76l6.69,6.74h-9.77l-1.51-1.5h-5.93l-8.75-7.71-.01-.01c-.43-.35-.5-.98-.15-1.41l0,0c.35-.43.97-.5,1.41-.15l.01.01.01.01z"/></svg>