<svg width="48" height="48" xmlns="http://www.w3.org/2000/svg"><path fill-rule="evenodd" clip-rule="evenodd" d="m31,2h4V3h6.5c.83,0,1.5.67,1.5,1.5v9c0,.83-.67,1.5-1.5,1.5H37v16h.8c1.64,0,3.22.65,4.39,1.82S44,35.56,44,37.2v6.87c0,.51-.2,1-.56,1.36-.36.36-.85.56-1.36.56H5.93c-.51,0-1-.2-1.36-.56C4.2,45.07,4,44.59,4,44.07v-6.87c0-1.64.65-3.22,1.82-4.39h0C6.98,31.65,8.56,31,10.2,31H11V15H6.5c-.83,0-1.5-.67-1.5-1.5v-9C5,3.67,5.67,3,6.5,3H13V2h4V3h14V2zM36,15h-1v1h-4V15H17v1h-4V15h-1v3.66c1.5,1.66,3.32,2.99,5.35,3.91,1.48.67,3.04,1.11,4.65,1.31V23h.5v-2h3v2h.5v.88c1.61-.2,3.18-.64,4.66-1.31,2.03-.92,3.85-2.24,5.34-3.89V15zm-11.5,8h-1v-1h1v1zM36,20.12c-1.43,1.4-3.1,2.54-4.93,3.36-1.61.73-3.32,1.2-5.07,1.4V27h-.5v.5c0,.83-.67,1.5-1.5,1.5s-1.5-.67-1.5-1.5V27H22v-2.12c-1.74-.21-3.45-.68-5.06-1.4-1.84-.83-3.51-1.97-4.94-3.37V45h6v-5.5c0-.83.67-1.5,1.5-1.5h9c.83,0,1.5.67,1.5,1.5V45h6V20.12zM23.5,27v.5c0,.28.22.5.5.5s.5-.22.5-.5V27h-1zM35,14h6.5c.28,0,.5-.22.5-.5v-9c0-.28-.22-.5-.5-.5H35v10zM31,4v10H17V4h14zM13,4H6.5c-.28,0-.5.22-.5.5v9c0,.28.22.5.5.5H13V4zm19-1V15h2V3h-2zM29,45H19v-4h10v4zm0-5H19v-.5c0-.28.22-.5.5-.5h9c.28,0,.5.22.5.5v.5zm8,5h5.07c.25,0,.48-.1.65-.27.17-.17.27-.41.27-.65v-6.87c0-.77-.17-1.53-.49-2.21H37V45zm0-11.01h4.89c-.13-.16-.27-.32-.41-.47-.52-.52-1.14-.92-1.81-1.18C39.08,32.12,38.44,32,37.8,32H37v1.99zM11,32h-.8c-1.38,0-2.7.55-3.68,1.52h0c-.15.15-.29.3-.41.47H11V32zm-6,5.2c0-.77.17-1.53.49-2.21H11V45H5.93c-.25,0-.48-.1-.65-.27C5.1,44.56,5,44.32,5,44.07v-6.87zM23,26v-2h2v2h-2zm-9-11V3h2V15h-2z"/></svg>