<svg width="24" height="24" xmlns="http://www.w3.org/2000/svg"><path fill-rule="evenodd" clip-rule="evenodd" d="m15.1,6.24v0l-.17.98,2.95.52.17-.98v0c.14-.82-.4-1.59-1.22-1.74-.82-.14-1.59.4-1.74,1.22zm3.77,1.68.17-.98v0c.24-1.36-.67-2.66-2.03-2.9-1.36-.24-2.66.67-2.9,2.03l-.17.98-2.91-.51-.12.44,7.87,18.17,12.9,2.27,1.01-12.01-2.91-.51zm-1.16.81-.35,1.97.98.17.35-1.97,2.01.35-.84,10.01L9.13,17.37l2.63-9.69,2.01.35-.35,1.97.98.17.35-1.97,2.95.52zM2,10h6v1H2v-1zm2,2h4v1H4v-1zm3,2H5v1h2v-1z"/></svg>