<svg width="36" height="36" xmlns="http://www.w3.org/2000/svg"><path fill-rule="evenodd" clip-rule="evenodd" d="m4.5,4.5v4.5h1.5v-3.01h1.5v-1.5h-3v.01zM4.5,11.99h3v-1.5H4.5v1.5zM15,7.5h-1.5v-1.5H15v1.5zm1.5,0h1.5v-3h-1.5v3zM9,4.5h4.5v1.5h-3v1.5H7.5v-1.5h1.5v-1.5zM19.5,7.5h3V6h1.5v1.5h1.5v-3h-3v1.5h-3v1.5zM6,25.5H4.5v-3H6v3zm-1.5-9H6V15h1.5v-1.5H6v1.5H4.5v1.5zM6,19.5H4.5v-1.5H6V16.5h1.5V18H6v1.5zM7.5,21H6v-1.5h1.5V21zM16.5,25.5h9v-9h-9v9zm1.5-1.5h6v-6h-6v6zm4.5-1.5h-3v-3h3v3zm-12-4.5h3v-1.5H15v-1.5h-1.5v1.5h-3v1.5zm10.5-3V15h-1.5v0h-1.5v-1.5h1.5V12h1.5v3zm10.5,4.5h-1.5v1.5h-3v1.5h3V21h1.5v-1.5zm-1.5-3h1.5V18h-1.5v1.5h-3v-1.5h3V16.5zm-13.5-3v-1.5h3v-1.5h-4.5v0h0v1.5h-1.5v1.5h3zM24,13.5h-1.5v-3H24v3h1.5v1.5H24V13.5zm6,12h1.5v-3h-1.5v3zM13.5,11.99h-1.5v3.01h-1.5v-4.51h3v1.5zm4.5,19.51h1.5v-1.5h-1.5v1.5zm-6,0h-1.5v-3h1.5v3zm3-6h-1.5v0h-1.5v1.5h1.5v1.5h3v-1.5h-1.5l0-1.5zm6,3h-3v-1.5h3v1.5zm9,3h1.5v-1.5h-1.5v1.5zm-18-9h-1.5v-1.5h1.5V19.5H15V21h-3v1.5zm-1.5,3h1.5V24H15v-1.5h-3v1.5h-1.5v1.5zm21-12h-1.5v-1.5h-1.5v-1.5h3v3zm-18,18.01H16.5v-1.5h-3v1.5zm16.5-3h-1.5V27h-1.5v3h1.5v1.5h-3v-3h-1.5v1.5h-1.5v1.5h-1.5v-3h1.5v-1.5l4.5,0V24h1.5v3h1.5v1.5zm-3-12v-3l-1.5,0v-1.5h3v3h1.5v1.5l-3,0z"/></svg>