<svg width="24" height="24" xmlns="http://www.w3.org/2000/svg"><path fill-rule="evenodd" clip-rule="evenodd" d="m6,4.5c0-.83.67-1.5,1.5-1.5h7c.83,0,1.5.67,1.5,1.5V21H6V4.5zM5,21V4.5c0-1.38,1.12-2.5,2.5-2.5h7c1.38,0,2.5,1.12,2.5,2.5V14c.58,0,1.1.14,1.47.52.37.37.52.9.53,1.47l0,.01H19v1c0,.28.01.55.09.76.04.09.08.14.12.17.04.03.12.07.29.07.17,0,.25-.04.29-.07.04-.03.08-.08.12-.17.08-.2.09-.47.09-.76V8.18l-2.38-2.86.77-.64L21,7.82v9.18l0,.02c0,.26,0,.72-.16,1.12-.09.22-.24.44-.47.61-.24.17-.53.25-.87.25-.33,0-.63-.08-.87-.25-.24-.17-.38-.39-.47-.61-.16-.4-.16-.86-.16-1.1v-1.02c-.01-.43-.12-.66-.24-.78C17.64,15.1,17.42,15,17,15v6h1v1H4v-1h1zM7,5h8v5H7V5zm1,1v3h6V6H8z"/></svg>