<svg width="36" height="36" xmlns="http://www.w3.org/2000/svg"><path fill-rule="evenodd" clip-rule="evenodd" d="m11.79,4.26c1.07-.62,2.42-.08,3.04.99l0,0,2.64,4.56c0,0,0,0,0,0,.62,1.08.41,2.51-.66,3.13,0,0,0,0,0,0l-2.96,1.71,0,0c-.05.03-.13.14-.07.32l0,0c.54,1.51,1.26,3.08,2.16,4.63M11.79,4.26c0,0,0,0,0,0l0,0zm0,0-2.56,1.47,0,0c-.17.1-.3.23-.39.33C7.28,7.47,6.78,10.01,7.09,12.92c.32,2.95,1.48,6.42,3.44,9.81v0c1.96,3.39,4.38,6.14,6.78,7.89,2.36,1.72,4.82,2.56,6.81,1.91.15-.03.32-.08.49-.18l2.55-1.47c1.05-.62,1.28-2.05.66-3.13l0,0-2.63-4.56s0,0,0,0c-.62-1.08-1.97-1.61-3.04-.99h0l-2.96,1.71,0,0c-.05.03-.19.04-.32-.1-1.04-1.23-2.03-2.63-2.93-4.18M13.97,5.75c-.41-.72-1.19-.91-1.68-.63l0,0L9.73,6.6c0,0,0,0,0,0-.04.02-.08.06-.15.14l-.02.03-.03.02C8.32,7.86,7.78,9.99,8.08,12.81c.3,2.79,1.41,6.13,3.31,9.42,1.9,3.29,4.23,5.92,6.5,7.58,2.29,1.67,4.41,2.27,5.93,1.76l.03-.01.03-.01c.1-.02.16-.04.2-.07l0,0v0l2.55-1.47,0,0c.48-.28.71-1.06.3-1.77l-2.63-4.56,0,0c-.41-.72-1.19-.91-1.68-.63l-2.96,1.71c0,0,0,0,0,0-.54.31-1.2.13-1.58-.32l0,0c-1.08-1.27-2.11-2.73-3.03-4.33l0,0c-.93-1.6-1.67-3.22-2.23-4.79m1.13-9.57,2.64,4.56,0,0c.41.71.19,1.48-.3,1.76l0,0-2.96,1.71c0,0,0,0,0,0-.54.31-.71.97-.51,1.53"/></svg>