<svg width="36" height="36" xmlns="http://www.w3.org/2000/svg"><path fill-rule="evenodd" clip-rule="evenodd" d="m5.3,4.25c-.28,0-.54.11-.74.31-.2.2-.31.46-.31.74V9.25h7.44l2.5-5H5.3zm15.39,5h-7.88l2.5-5h7.88l-2.5,5zm3.62-5-2.5,5h9.94V5.3c0-.28-.11-.54-.31-.74-.2-.2-.46-.31-.74-.31H24.31zM3.85,3.85c.38-.38.9-.6,1.45-.6H30.7c.54,0,1.06.22,1.45.6l-.35.35.35-.35c.38.38.6.9.6,1.45V10.25H3.25V5.3c0-.54.22-1.06.6-1.45zM4.25,31.79v-19.75h-1v20.75h29.5v-20.75h-1v19.75H4.25zm10.24-15.73-.74-.4V26.34L23.54,21l-9.05-4.94zM21.46,21,14.75,24.66v-7.32L21.46,21z"/></svg>