<svg width="48" height="48" xmlns="http://www.w3.org/2000/svg"><path fill-rule="evenodd" clip-rule="evenodd" d="m7.43,9.97c.1,0,.23.06.37.2l-.37-1.2H3.42c-.47,0-.85.3-1.05.49-.11.11-.2.22-.26.29-.03.04-.06.07-.07.1-.01.01-.02.02-.02.03l-.01.01,0,0,0,0,0,0c0,0,0,0,.42.27.42.27.42.27.42.27l0,0,.01-.01c.01-.01.02-.03.05-.06.04-.05.1-.12.17-.19.16-.16.29-.21.36-.21h.88l4.34,2.17-1.48,1.85H6v1h7c2.03,0,4.04.5,5.83,1.45l.27.14-.03.04c-1.47,2.07-.88,5.16,1.51,6.24.02.01.03.02.05.02h0l4.44,1.95c1.75.77,3.63,1.16,5.54,1.16h6.26l3.17,1.68C41.25,28.32,42,29.57,42,30.94l0,.03H12.98v1h28.89c-.45,1.74-2.04,3.02-3.91,3.02H7v1h3.03c.03.28.09.56.17.82H4v1h6.64c.27.45.62.85,1.02,1.18H2v1h12.21c.1.01.19.01.29.01s.2,0,.29-.01h10.42c.1.01.19.01.29.01s.2,0,.29-.01H46v-1H28.34c.41-.33.75-.73,1.02-1.18h8.35l-.67-1.82h.91c2.79,0,5.05-2.26,5.05-5.05,0-1.74-.96-3.33-2.49-4.14L19.3,15.56c-1.94-1.03-4.1-1.57-6.3-1.57H8.45l1.75-2.19L6.54,9.97h.88v0l0,0zM35.98,35.99h-6c-.03.28-.09.56-.17.82h6.47l-.3-.82zm-10.73,3h.51c1.65-.12,2.98-1.38,3.21-3h-6.93c.23,1.62,1.56,2.88,3.21,3zm-4.05-2.18c-.08-.26-.14-.54-.17-.82h-2.05c-.03.28-.09.56-.17.82h2.39zM21.64,37.81h-3.27c-.27.45-.62.85-1.02,1.18h5.32c-.41-.33-.75-.73-1.02-1.18zm-3.67-1.82h-6.93c.23,1.62,1.56,2.88,3.21,3h.51c1.65-.12,2.98-1.38,3.21-3zm2.03-18.93-.1.15c-1.15,1.63-.63,3.97,1.11,4.75l.04.02,4.44,1.95c1.62.71,3.37,1.08,5.14,1.08h4.37l-14.99-7.94zM2,34.99v1h4v-1H2zm0-20h3v-1H2v1zm4,15.98v1H4v-1h2zm6,0H8v1h4v-1zM3,19.99h10.32c1.66,0,3,1.34,3,3,0,1.66-1.34,3-3,3H5v-1h2v-4H3v-1zm8.62,5H8v-4h5.32c1.1,0,2,.9,2,2s-.9,2-2,2h-1.7zm-9.62,1h2v-1H2v1z"/></svg>