<svg width="48" height="48" viewBox="0 0 48 48" fill="none" xmlns="http://www.w3.org/2000/svg">
<path fill-rule="evenodd" clip-rule="evenodd" d="M3 4.74153V2H2V46H3V38.5074L8.68198 36.7617L8.68227 36.7617C11.1143 36.0129 13.678 35.7917 16.2024 36.1127C18.7268 36.4337 21.1536 37.2895 23.3208 38.6231L23.3208 38.6231C25.5548 39.9976 28.0505 40.8919 30.6489 41.2492C33.2392 41.6054 36.0932 41.4415 38.4289 40.6941C39.4102 40.3801 41.2182 39.7863 42.7789 39.2716C43.5597 39.0142 44.2793 38.7763 44.8037 38.6027L45.4271 38.3963L45.5977 38.3398L45.6422 38.3251L45.6535 38.3213L45.6564 38.3204L45.6571 38.3201L45.6573 38.3201L45.5 37.8454L45.6574 38.32L46 38.2064V37.8454V5.1257V4.43314L45.3426 4.65111L45.5 5.1257L45.3426 4.65112L45.3424 4.65118L45.3417 4.65142L45.3388 4.65237L45.3275 4.65612L45.2831 4.67085L45.1127 4.72731L44.4895 4.93362C43.9654 5.10707 43.2461 5.34484 42.4657 5.60218C40.9041 6.11715 39.1004 6.70955 38.1241 7.02196C35.9545 7.71623 33.2542 7.87834 30.7851 7.53879C28.3242 7.20036 25.9606 6.35336 23.8448 5.05167C21.5565 3.64354 18.994 2.73983 16.3285 2.40089C13.6632 2.06196 10.9562 2.29555 8.3883 3.08608L8.38802 3.08617L3 4.74153ZM3 5.78766V37.4613L8.38802 35.8059C10.956 35.0153 13.6631 34.7817 16.3285 35.1206C18.994 35.4596 21.5565 36.3633 23.8448 37.7714C25.9606 39.0731 28.3242 39.9201 30.7851 40.2585C33.2542 40.5981 35.9545 40.436 38.1241 39.7417C39.1004 39.4293 40.9041 38.8369 42.4657 38.3219C43.2461 38.0646 43.9654 37.8268 44.4895 37.6534L45 37.4844V5.818L44.8037 5.88299C44.2793 6.05651 43.5597 6.2944 42.7789 6.55188C41.2182 7.06655 39.4102 7.66038 38.4289 7.97438C36.0932 8.72178 33.2392 8.88568 30.6489 8.52946C28.0505 8.17213 25.5548 7.2778 23.3208 5.90338L23.3208 5.90336C21.1536 4.56977 18.7268 3.7139 16.2024 3.3929L16.2654 2.8969L16.2024 3.3929C13.678 3.0719 11.1143 3.29316 8.68227 4.0419L8.68198 4.04199L3 5.78766ZM22.6009 11.3252L23.2209 11.5318L22.7981 12.1661L23.6301 12.7208L24 12.1659L24.3699 12.7208L25.202 12.1661L24.7792 11.5319L25.3992 11.3252L25.083 10.3765L24.5 10.5708V10H23.5V10.5708L22.9171 10.3765L22.6009 11.3252ZM28.5002 13.0093L27.8802 12.8026L28.1964 11.8539L28.7795 12.0483V11.4773H29.7795V12.0482L30.3623 11.8539L30.6785 12.8026L30.0585 13.0093L30.4813 13.6435L29.6492 14.1982L29.2793 13.6433L28.9094 14.1982L28.0774 13.6435L28.5002 13.0093ZM31.7254 16.6478L32.3454 16.8545L31.9226 17.4887L32.7546 18.0434L33.1245 17.4885L33.4944 18.0434L34.3265 17.4887L33.9037 16.8545L34.5237 16.6478L34.2075 15.6991L33.6248 15.8934V15.3225H32.6248V15.8935L32.0417 15.6991L31.7254 16.6478ZM33.7529 22.1072L33.1329 21.9005L33.4491 20.9518L34.032 21.1461V20.5752H35.032V21.1461L35.615 20.9518L35.9312 21.9005L35.3112 22.1072L35.734 22.7414L34.9019 23.2961L34.532 22.7412L34.1621 23.2961L33.3301 22.7414L33.7529 22.1072ZM31.7254 27.1532L32.3454 27.3598L31.9226 27.9941L32.7546 28.5488L33.1245 27.9939L33.4944 28.5488L34.3265 27.9941L33.9037 27.3599L34.5237 27.1532L34.2075 26.2045L33.6248 26.3987V25.8279H32.6248V26.3989L32.0417 26.2045L31.7254 27.1532ZM28.5002 31.2051L27.8802 30.9984L28.1964 30.0497L28.7795 30.2441V29.6731H29.7795V30.244L30.3623 30.0497L30.6785 30.9984L30.0585 31.2051L30.4813 31.8393L29.6492 32.394L29.2793 31.8391L28.9094 32.394L28.0774 31.8393L28.5002 31.2051ZM22.6366 32.4059L23.2565 32.6125L22.8337 33.2466L23.6658 33.8013L24.0357 33.2465L24.4056 33.8013L25.2376 33.2466L24.8149 32.6125L25.4349 32.4059L25.1186 31.4572L24.5356 31.6515V31.0806H23.5356V31.6515L22.9528 31.4572L22.6366 32.4059ZM17.9948 31.2051L17.3748 30.9984L17.6911 30.0497L18.2742 30.2441V29.6731H19.2742V30.244L19.8569 30.0497L20.1731 30.9984L19.5531 31.2051L19.9759 31.8393L19.1439 32.394L18.774 31.8391L18.4041 32.394L17.572 31.8393L17.9948 31.2051ZM13.5296 27.1532L14.1496 27.3598L13.7268 27.9941L14.5588 28.5488L14.9287 27.9939L15.2986 28.5488L16.1307 27.9941L15.7079 27.3599L16.3279 27.1532L16.0117 26.2045L15.429 26.3987V25.8279H14.429V26.3989L13.8459 26.2045L13.5296 27.1532ZM12.7423 22.1072L12.1222 21.9005L12.4384 20.9518L13.0215 21.1462V20.5752H14.0215V21.1461L14.6042 20.9518L14.9205 21.9005L14.3006 22.1071L14.7235 22.7414L13.8914 23.2961L13.5215 22.7412L13.1516 23.2961L12.3196 22.7414L12.7423 22.1072ZM13.5296 16.6478L14.1496 16.8545L13.7268 17.4887L14.5588 18.0434L14.9287 17.4885L15.2986 18.0434L16.1307 17.4887L15.7079 16.8545L16.3279 16.6478L16.0117 15.6991L15.429 15.8934V15.3225H14.429V15.8935L13.8459 15.6991L13.5296 16.6478ZM17.9948 13.0093L17.3748 12.8026L17.6911 11.8539L18.2742 12.0483V11.4773H19.2742V12.0482L19.8569 11.8539L20.1731 12.8026L19.5531 13.0093L19.9759 13.6435L19.1439 14.1982L18.774 13.6433L18.4041 14.1982L17.572 13.6435L17.9948 13.0093Z" fill="black"/>
</svg>
