<svg width="36" height="36" xmlns="http://www.w3.org/2000/svg"><path fill-rule="evenodd" clip-rule="evenodd" d="m18,4.72,8.33,2.78-4.08,1.36v2.99l-.05.04c.51.9.8,1.97.8,3.11,0,1.48-.51,2.88-1.35,3.92,4.08,1.93,6.6,6.66,6.6,11.83v.5l-20.5-.01v-.5c0-5.62,2.65-10.02,6.6-11.81-.6-.75-1.03-1.67-1.23-2.68H8.53l2.22-4V7.86l-1.08-.36L18,4.72zM15.1,19.69c-3.58,1.45-6.19,5.32-6.34,10.55l18.48.01c-.16-4.82-2.64-9-6.35-10.57-.81.67-1.81,1.07-2.91,1.07-1.09,0-2.08-.4-2.89-1.06zm-.52-7.16c1.9,1.32,4.55,1.6,6.83,0,.37.72.59,1.56.59,2.46,0,2.66-1.85,4.75-4.01,4.75-2.15,0-3.99-2.08-3.99-4.75,0-.9.21-1.75.58-2.47zM13.75,11.84l.05.04c-.44.78-.71,1.68-.78,2.64l-1.27-2.28V8.19l2,.66v2.99zm1-2.65v2.21c1.72,1.46,4.35,1.81,6.5,0V9.19l-3.25,1.08-3.25-1.08zm-1.92-1.69,5.17,1.72,5.17-1.72-5.17-1.72-5.17,1.72zm-1.58,5.91,1.03,1.85h-2.05l1.03-1.85z"/></svg>