<svg width="24" height="24" viewBox="0 0 24 24" fill="none" xmlns="http://www.w3.org/2000/svg">
<path fill-rule="evenodd" clip-rule="evenodd" d="M3 6.3594C3 4.50454 4.50414 3.0004 6.359 3.0004H17.641C19.4959 3.0004 21 4.50454 21 6.3594V17.6404C21 19.4963 19.4949 21.0004 17.641 21.0004H6.359C4.50431 21.0004 3 19.4954 3 17.6404V6.3594ZM6.359 2.0004C3.95186 2.0004 2 3.95225 2 6.3594V17.6404C2 20.0474 3.95169 22.0004 6.359 22.0004H17.641C20.0471 22.0004 22 20.0485 22 17.6404V6.3594C22 3.95225 20.0481 2.0004 17.641 2.0004H6.359ZM15.6163 11.3177L13.2643 9H15.012L18 12L15.012 15H13.2643L15.6163 12.6977H12.6917V15H11.3091V12.6977H8.40086L10.7529 15H9.00429L6 12L9.00429 9H10.7529L8.40086 11.3177H11.3091V9H12.6917V11.3177H15.6163Z" fill="black"/>
</svg>
