<svg width="36" height="36" xmlns="http://www.w3.org/2000/svg"><path fill-rule="evenodd" clip-rule="evenodd" d="m10.25,12c0-4.28,3.47-7.75,7.75-7.75,4.28,0,7.75,3.47,7.75,7.75,0,4.28-3.47,7.75-7.75,7.75-4.28,0-7.75-3.47-7.75-7.75zm7.75-8.75c-4.83,0-8.75,3.92-8.75,8.75,0,2.63,1.16,4.99,3,6.6V32.71l3.5-3.5,3.5,3.5v-5.5l1-1,3.5,3.5V18.6c1.84-1.6,3-3.96,3-6.6,0-4.83-3.92-8.75-8.75-8.75zm4.75,16.1c-1.04.67-2.22,1.13-3.5,1.31v5.13l1-1,2.5,2.5v-7.94zm-9.5,10.94V19.35c1.37.89,3,1.4,4.75,1.4.08,0,.17,0,.25,0v9.55l-2.5-2.5-2.5,2.5zM13.25,12c0-2.62,2.13-4.75,4.75-4.75s4.75,2.13,4.75,4.75c0,2.62-2.13,4.75-4.75,4.75s-4.75-2.13-4.75-4.75zm4.75-5.75c-3.18,0-5.75,2.57-5.75,5.75,0,3.18,2.57,5.75,5.75,5.75s5.75-2.57,5.75-5.75c0-3.18-2.57-5.75-5.75-5.75z"/></svg>