<svg width="24" height="24" xmlns="http://www.w3.org/2000/svg"><path fill-rule="evenodd" clip-rule="evenodd" d="m11,4.5c0-.28.22-.5.5-.5.28,0,.5.22.5.5,0,.28-.22.5-.5.5-.28,0-.5-.22-.5-.5zm1.89.57c.07-.18.11-.37.11-.57,0-.83-.67-1.5-1.5-1.5-.83,0-1.5.67-1.5,1.5,0,.2.04.39.11.57-1.65.17-3.21.65-4.45,1.48-1.48.99-2.5,2.47-2.65,4.45H2v1H21v-1h-1.02c-.15-1.98-1.16-3.47-2.65-4.45-1.24-.83-2.8-1.31-4.45-1.48zM11.5,6c-2.01,0-3.91.46-5.28,1.38-1.23.82-2.06,2.01-2.2,3.62H18.98c-.14-1.61-.97-2.8-2.2-3.62C15.41,6.46,13.51,6,11.5,6zm-3.5,9.82-3.58-2.5c-.65-.5-1.58-.4-2.1.24l0,0c-.52.64-.42,1.58.22,2.1L8.61,21h3.93l1.01,1h8.86l-5.87-5.92,0,0-.01-.01c-1.19-1.14-2.75-2.04-4.4-2.08V14h-2.12c-.63,0-1.15.24-1.5.64-.3.34-.46.76-.5,1.19zM3.84,14.13l4.7,3.28-5.43-3.23c.17-.22.49-.25.7-.08l.01.01.01.01zm4.7,3.28L3.11,14.19c-.17.21-.14.53.08.7l.01.01L8.99,20h3.96l1.01,1h6.04l-4.18-4.21C14.74,15.75,13.41,15.03,12.1,15h-2.1c-.36,0-.6.13-.75.3-.16.18-.25.43-.26.7,0,.27.09.52.24.69.15.17.39.3.76.3h2v1h-2c-.61,0-1.11-.22-1.46-.59z"/></svg>