<svg width="36" height="36" xmlns="http://www.w3.org/2000/svg"><path fill-rule="evenodd" clip-rule="evenodd" d="m7.83,5.93L9.43,3.26l-.86-.51L6.06,6.92,10.24,9.43l.51-.86L8,6.92C10.94,6.14,14.06,5.75,17.25,5.75c3.17,0,6.32.4,9.25,1.17L23.74,8.57l.51.86,4.18-2.51L25.93,2.74l-.86.51,1.6,2.67c-3-.78-6.2-1.18-9.42-1.18-3.24,0-6.42.39-9.42,1.18zM10.75,12.75c0-1.1.9-2,2-2h0l9,0h0c1.11,0,2,.9,2,2v18c0,1.11-.9,2-2,2h-9c-1.1,0-2-.89-2-2V12.75zm2-1c-.55,0-1,.45-1,1v18c0,.55.45,1,1,1h9c.55,0,1-.45,1-1v-18c0-.55-.45-1-1-1h0l-9,0h0zm6.75.5v1H15v-1h4.5zM8.83,11.7l-4.29,1.57.17.47-.17-.47,0,0c-1.04.38-1.57,1.53-1.19,2.56l5.19,13.97.94-.35,4.28,15.49c-.19-.52.08-1.09.6-1.28l0,0,4.29-1.57-.34-.94zm21.04,1.57-4.29-1.57-.34.94,4.29,1.57,0,0c.52.19.79.76.6,1.28l0,0-5.19,13.96.94.35,5.19-13.97,0,0c.38-1.04-.16-2.19-1.19-2.56l0,0-.17.47.17-.47z"/></svg>