<svg width="36" height="36" xmlns="http://www.w3.org/2000/svg"><path fill-rule="evenodd" clip-rule="evenodd" d="m8.02,5.02C7.53,5.51,7.25,6.29,7.25,7.5v6.25h21.5V7.5c0-1.21-.28-1.99-.77-2.48S26.71,4.25,25.5,4.25h-15c-1.21,0-1.99.28-2.48.77zM7.25,21.25v-6.5h21.5V21.25H7.25zm.06-16.94C8.06,3.56,9.15,3.25,10.5,3.25h15c1.35,0,2.44.31,3.19,1.06C29.44,5.06,29.75,6.15,29.75,7.5v3.25h1.5v2.5h-1.5v12h-5.5V22.25H11.75v3h-5.5V13.25h-1.5v-2.5h1.5V7.5c0-1.35.31-2.44,1.06-3.19zM29.75,12.25h.5v-.5h-.5v.5zm-4.5,10H28.75v2h-3.5V22.25zm-18,0h3.5v2h-3.5V22.25zm-1-10.5v.5h-.5v-.5h.5zm19.25-5.5h-15v1h15v-1zm-15,10.5c-.69,0-1.25.56-1.25,1.25s.56,1.25,1.25,1.25c.69,0,1.25-.56,1.25-1.25s-.56-1.25-1.25-1.25zM10.25,18c0-.14.11-.25.25-.25s.25.11.25.25-.11.25-.25.25-.25-.11-.25-.25zm14,0c0-.69.56-1.25,1.25-1.25s1.25.56,1.25,1.25-.56,1.25-1.25,1.25-1.25-.56-1.25-1.25zm1.25-.25c-.14,0-.25.11-.25.25s.11.25.25.25.25-.11.25-.25-.11-.25-.25-.25zM8.35,30.25l1.96-1.92-.7-.72-3.21,3.14,3.21,3.12.7-.72-1.96-1.91H15v-1H8.35zm19.3.99-1.96,1.92.7.72,2.84-2.78.37-.36-3.21-3.12-.7.72,1.96,1.9H21v1h6.65z"/></svg>