<svg width="36" height="36" xmlns="http://www.w3.org/2000/svg"><path fill-rule="evenodd" clip-rule="evenodd" d="m8.25,3.25h-.5V6.28c-1.12.15-2.09.87-2.55,1.91-.36.81-.69,1.45-.97,2h0c-.14.28-.27.53-.39.78-.34.71-.59,1.34-.59,2.05v16.69c0,1.69,1.39,3.05,3.09,3.05h6.83c1.7,0,3.09-1.36,3.09-3.05v-16.69c0-.71-.25-1.34-.59-2.05-.12-.25-.25-.5-.39-.78-.28-.55-.6-1.18-.97-2-.46-1.04-1.43-1.76-2.55-1.91V3.25h-3.5zM5.2,8.19l0,0,.46.2-.46-.2,0,0zm2.98-.94h3.15c.9,0,1.7.54,2.07,1.35v0c.37.83.72,1.52,1.01,2.08v0c.14.27.26.51.36.72.33.69.49,1.15.49,1.61v16.69c0,1.12-.93,2.05-2.09,2.05H6.34c-1.16,0-2.09-.92-2.09-2.05V28.25h6v-13h-6v-2.24c0-.47.16-.92.49-1.61.1-.22.23-.45.36-.72.29-.56.64-1.25,1.01-2.08l0,0c.36-.81,1.17-1.34,2.07-1.34zM10.75,6.25V4.25h-2V6.25h2zm-6.5,21v-11h5v11h-5zm18.26-7.5c.47,0,.83.05,1.12.14.3.09.51.21.68.3l.01.01c.16.09.28.16.44.21.07.02.15.04.25.06.12-2.34,1.05-3.66,2.04-4.39.52-.38,1.04-.59,1.43-.7.2-.05.36-.09.48-.1.06-.01.11-.01.14-.02.02,0,.03,0,.04,0l.01,0,.01,0h0c0,0,0,0,.03.5.03.5.03.5.03.5h0l0,0c0,0,0,0,0,0l-.02,0c-.02,0-.05.01-.09.01-.08.01-.21.04-.36.08-.3.08-.71.24-1.11.54-.72.53-1.51,1.55-1.63,3.58.09-.02.16-.03.22-.05.16-.05.27-.12.44-.21l.01-.01c.17-.1.38-.22.68-.3.29-.09.65-.14,1.12-.14.67-.01,1.77-.03,2.69.67.95.72,1.56,2.08,1.56,4.47,0,2.22-.37,4.15-1.07,5.54-.7,1.39-1.78,2.32-3.18,2.32h-.01v0c-.92-.02-1.51-.22-1.97-.41-.08-.04-.16-.07-.23-.1l0,0c-.32-.14-.52-.22-.79-.24-.27.01-.47.1-.79.24l0,0c-.07.03-.15.06-.23.1-.47.2-1.05.39-1.97.41l-.01,0v0c-1.41,0-2.48-.93-3.18-2.32-.7-1.39-1.07-3.31-1.07-5.54,0-2.39.62-3.75,1.56-4.47.92-.7,2.02-.69,2.69-.67zm-2.09,1.47c-.59.45-1.17,1.43-1.17,3.68,0,2.13.36,3.89.96,5.09.6,1.2,1.4,1.77,2.28,1.77.76-.01,1.22-.17,1.6-.33.06-.02.12-.05.18-.08.33-.15.72-.32,1.21-.34l.02,0,.02,0c.48.02.87.19,1.21.34.06.03.12.05.18.08.38.16.84.32,1.6.33.89,0,1.68-.57,2.28-1.77.6-1.2.96-2.96.96-5.09,0-2.25-.58-3.23-1.17-3.68-.61-.47-1.38-.48-2.07-.47L28.5,20.75v0c-.41,0-.66.04-.85.1-.18.05-.31.12-.47.21l-.03.02c-.15.09-.35.2-.61.28-.28.09-.61.14-1.05.14s-.77-.05-1.05-.14c-.26-.08-.45-.19-.61-.28l-.03-.02c-.16-.09-.29-.16-.47-.21-.18-.05-.44-.1-.85-.1h-.01v0c-.69-.02-1.46,0-2.07.47z"/></svg>