<svg width="36" height="36" xmlns="http://www.w3.org/2000/svg"><path fill-rule="evenodd" clip-rule="evenodd" d="m11.66,4.67c.4-1.11,1.65-1.73,2.77-1.26C22.76,6.94,29.36,13.78,32.62,22.33c.43,1.13-.21,2.38-1.33,2.75l-3.97,1.32c-.76.25-1.54.05-2.09-.43L5.18,32.67c-1.17.39-2.25-.75-1.85-1.9l0-.01h0l7.32-19.96c-.5-.58-.69-1.39-.41-2.17l1.41-3.97zm-.17,6.76-1.2,3.28c.89.58,1.48,1.6,1.48,2.75,0,1.8-1.45,3.28-3.25,3.28-.15,0-.3-.01-.44-.03L4.28,31.11c-.13.39.23.73.59.61l0,0,2.9-.97c-.04-.19-.06-.39-.05-.59.01-1.61,1.31-2.92,2.92-2.91,1.15.01,2.14.69,2.6,1.67l11.38-3.81c0-.01-.01-.02-.01-.03,0-.01,0-.01-.01-.02-2.42-6.11-7.15-11.02-13.1-13.64zm.78,17.82c-.32-.59-.94-.99-1.65-.99-1.04-.01-1.9.85-1.91,1.92,0,.09,0,.17.02.26l3.54-1.19zm-3.82-9.51,1.49-4.05c.51.42.84,1.06.84,1.78,0,1.26-1.01,2.28-2.25,2.28-.03,0-.06,0-.08,0zM14.04,4.33c-.55-.23-1.22.06-1.44.67l-1.41,3.97c-.21.6.08,1.26.69,1.53,6.2,2.73,11.12,7.84,13.65,14.2.25.63.89.94,1.48.74l3.97-1.32c.6-.2.93-.87.71-1.45-3.16-8.29-9.56-14.93-17.64-18.35zM16.5,20.75c-.97,0-1.75.78-1.75,1.75s.78,1.75,1.75,1.75,1.75-.78,1.75-1.75-.78-1.75-1.75-1.75zm-2.75,1.75c0-1.52,1.23-2.75,2.75-2.75s2.75,1.23,2.75,2.75-1.23,2.75-2.75,2.75-2.75-1.23-2.75-2.75z"/></svg>