<svg width="24" height="24" xmlns="http://www.w3.org/2000/svg"><path fill-rule="evenodd" clip-rule="evenodd" d="m7.1,8C7.56,5.72,9.58,4,12,4c2.42,0,4.44,1.72,4.9,4H13v1h4c0,.36.1.71.27,1H6.73C6.9,9.71,7,9.36,7,9h4V8H7.1zM19,10c-.55,0-1-.45-1-1,0-3.31-2.69-6-6-6C8.69,3,6,5.69,6,9c0,.55-.45,1-1,1v1h1.8c-.51.88-.8,1.91-.8,3,0,3.31,2.69,6,6,6,3.31,0,6-2.69,6-6,0-1.09-.29-2.12-.8-3H19v-1zm-3,1H8c-.63.84-1,1.87-1,3,0,2.76,2.24,5,5,5,2.76,0,5-2.24,5-5,0-1.13-.37-2.16-1-3zM9,13c0-.55.45-1,1-1,.55,0,1,.45,1,1s-.45,1-1,1c-.55,0-1-.45-1-1zm4,0c0-.55.45-1,1-1s1,.45,1,1-.45,1-1,1-1-.45-1-1zm-4.28,3.29C9.45,17.32,10.64,18,12,18c1.36,0,2.56-.68,3.28-1.71l-.82-.57C13.91,16.49,13.02,17,12,17c-1.02,0-1.91-.51-2.46-1.29l-.82.57z"/></svg>