<svg width="36" height="36" xmlns="http://www.w3.org/2000/svg"><path fill-rule="evenodd" clip-rule="evenodd" d="m18.27,10.5V5.98h1v4.52h-1zm-9.03-.68,3.42,3.42.71-.71L9.94,9.12l-.71.71zm9.51,3.42c-3.03,0-5.46,2.46-5.46,5.5,0,3.03,2.46,5.49,5.49,5.49,3.03,0,5.47-2.46,5.47-5.49,0-3.03-2.47-5.5-5.5-5.5zm-6.46,5.5c0-3.58,2.87-6.5,6.46-6.5,3.59,0,6.5,2.91,6.5,6.5,0,3.58-2.88,6.49-6.47,6.49-3.59,0-6.49-2.91-6.49-6.49zm-1.79.5H6v-1h4.5v1zm17.13-9.99-3.4,3.36.7.71,3.4-3.36-.7-.71zm-.64,8.99H31.5v1h-4.51v-1zm1.37,9.29-3.4-3.39-.71.71,3.4,3.39.71-.71zM18.25,31.49v-4.5h1v4.5h-1zm-5.62-7.25-3.39,3.39.71.71,3.39-3.39-.71-.71z"/></svg>