<svg width="36" height="36" xmlns="http://www.w3.org/2000/svg"><path fill-rule="evenodd" clip-rule="evenodd" d="m3.75,7.75h-.5v17.5h13.5v5H10.5v1h15v-1h-6.25v-5h13.5V7.75h-29zm14,17.5h.5v5h-.5v-5zm3.45-1h4.09c.3-.78.46-1.62.46-2.5,0-2.43-1.21-4.55-3.07-5.81l-1.76,3.06c.81.64,1.33,1.63,1.33,2.75,0,.98-.4,1.86-1.05,2.5zm5.15,0H31.75V8.75H4.25v15.5h6.9c-.21-.63-.34-1.3-.38-2H7.5v-1h3.27c.07-1.1.35-2.13.81-3.06L8.76,16.56l.5-.87,2.82,1.63c.59-.89,1.35-1.65,2.24-2.24l-1.63-2.82.87-.5,1.63,2.82c.93-.46,1.97-.75,3.06-.81V10.5h1v3.27c1.1.07,2.13.35,3.06.81l1.63-2.82.87.5-1.63,2.82c.89.59,1.65,1.35,2.24,2.24l2.82-1.63.5.87-2.82,1.63c.46.93.75,1.97.81,3.06H30v1h-3.27c-.04.7-.18,1.37-.38,2zm-14.14,0h4.09c-.54-.53-.9-1.22-1.02-2h-3.52c.05.7.2,1.37.44,2zm6.54,0c1.38,0,2.5-1.12,2.5-2.5s-1.12-2.5-2.5-2.5-2.5,1.12-2.5,2.5,1.12,2.5,2.5,2.5zm0-6c-1.76,0-3.22,1.3-3.46,3h-3.52c.25-3.65,3.26-6.5,6.98-6.5,1.1,0,2.14.25,3.06.7l-1.76,3.05c-.4-.16-.84-.25-1.3-.25z"/></svg>