<svg width="36" height="36" xmlns="http://www.w3.org/2000/svg"><path fill-rule="evenodd" clip-rule="evenodd" d="m9.73,6.04,5.62,5.6-.71.71-4.41-4.4,0,.89c0,1.29,0,3.06.01,4.99,0,3.86.01,8.36.01,10.93,0,2.21,1.79,4,4,4,2.21,0,4-1.79,4-4V11.04l.01-.01c.11-2.66,2.3-4.79,4.99-4.79,2.76,0,5,2.24,5,5v0c0,2.56,0,7.06.01,10.92,0,1.93,0,3.7.01,4.98l0,.88,4.38-4.4.71.71-5.59,5.6-5.62-5.6.71-.71,4.41,4.4,0-.88c0-1.29,0-3.06-.01-4.98,0-3.86-.01-8.36-.01-10.92v0c0-2.21-1.79-4-4-4-2.21,0-4,1.79-4,4v.21l0,0v13.29c0,2.76-2.24,5-5,5-2.76,0-5-2.24-5-5,0-2.56,0-7.06-.01-10.92,0-1.93,0-3.7-.01-4.99l0-.88L4.85,12.35,4.15,11.65l9.73,6.04z"/></svg>