<svg width="36" height="36" xmlns="http://www.w3.org/2000/svg"><path fill-rule="evenodd" clip-rule="evenodd" d="m18,3.25h6.18L20.82,8.3l1.29,2.84-.91.41-1.27-2.8h-7.6l-.54,1.22C13.55,10.95,14.75,12.84,14.75,15c0,3.17-2.58,5.75-5.75,5.75-3.17,0-5.75-2.58-5.75-5.75,0-3.17,2.58-5.75,5.75-5.75.65,0,1.28.11,1.87.31l.81-1.81h8.31l2.33-3.5H18v-1zM8.54,14.8l1.92-4.32c-.46-.15-.95-.23-1.46-.23-2.62,0-4.75,2.13-4.75,4.75,0,2.62,2.13,4.75,4.75,4.75,2.62,0,4.75-2.13,4.75-4.75,0-1.75-.96-3.29-2.38-4.11l-1.92,4.32-.91-.41zM5.65,29.65,28.15,7.15l.71.71L6.35,30.35l-.71-.71zM25.5,13.75H27c1.35,0,2.44.31,3.19,1.06.75.75,1.06,1.84,1.06,3.19v1.75H33v1h-1.75V32.75h-5.5v-3H16.25v3h-5.5v-4.25h1v.25h18.5v-6.5H18v-1h3.29c.24-1.7,1.7-3,3.46-3s3.22,1.31,3.46,3H30.25V18c0-1.21-.28-1.99-.77-2.48-.49-.49-1.27-.77-2.48-.77h-1.5v-1zm1.25,16H30.25v2h-3.5v-2zm-15,0h3.5v2h-3.5v-2zm13-10.5c1.21,0,2.22.86,2.45,2h-4.9c.23-1.14,1.24-2,2.45-2zm1,6.25c0-.69.56-1.25,1.25-1.25s1.25.56,1.25,1.25c0,.69-.56,1.25-1.25,1.25s-1.25-.56-1.25-1.25zm1.25-.25c-.14,0-.25.11-.25.25,0,.14.11.25.25.25s.25-.11.25-.25c0-.14-.11-.25-.25-.25zm-12-1c-.69,0-1.25.56-1.25,1.25,0,.69.56,1.25,1.25,1.25s1.25-.56,1.25-1.25c0-.69-.56-1.25-1.25-1.25zm-.25,1.25c0-.14.11-.25.25-.25s.25.11.25.25c0,.14-.11.25-.25.25s-.25-.11-.25-.25zM9.31,5.75h4.19v-1H9.31v1z"/></svg>