<svg width="24" height="24" xmlns="http://www.w3.org/2000/svg"><path fill-rule="evenodd" clip-rule="evenodd" d="m22.5,0h-21C.675,0,0,.675,0,1.5v21c0,.825.675,1.5,1.5,1.5h21c.825,0,1.5-.675,1.5-1.5v-21c0-.825-.675-1.5-1.5-1.5z" fill="#2d327d"/><path fill-rule="evenodd" clip-rule="evenodd" d="m11.2875,14.8575L8.28003,11.85v1.8825l3.75747,3.75,3.75-3.75V11.85l-3,3.0075V7.72498h-1.5v7.13252z" fill="#fff"/><path fill-rule="evenodd" clip-rule="evenodd" d="m21,21H3v-1.5h18V21z" fill="#fff"/><path fill-rule="evenodd" clip-rule="evenodd" d="m5.71503,3v2.25h-.465l.015-1.71-.57,1.71h-.3825l-.5775-1.6575.015,1.6575h-.465V3h.6975l.5325,1.62.51-1.62h.69z" fill="#fff"/><path fill-rule="evenodd" clip-rule="evenodd" d="m7.17003,5.25004h.4575c-.03-.0675-.045-.1125-.0525-.1725s-.0075-.15-.0075-.27v-.345c.0075-.2025.0075-.315.0075-.3375,0-.1275-.015-.2175-.03-.27s-.0525-.105-.1125-.1575c-.1275-.105-.315-.1575-.5775-.1575-.2325,0-.4125.0525-.54.1425s-.195.2325-.21.42h.42c.015-.0975.0525-.1575.0975-.195s.12-.0525.225-.0525c.195,0,.2925.0675.2925.2175,0,.0675-.0225.1125-.0675.135s-.15.045-.33.0675c-.21.03-.3525.06-.4275.09-.1875.0825-.285.225-.285.435,0,.165.0525.2925.165.3825.0975.0825.2325.12.405.12.2175,0,.3975-.075.54-.2175,0,.045.0075.0975.03.165zm-.3525-.7275c.15-.015.255-.045.315-.0825v.18c0,.0525,0,.105-.015.135-.00243.00487-.00487.00993-.00736.01513-.0129.02684-.02751.05724-.05264.08237-.075.09-.18.135-.315.135-.0825,0-.1425-.0225-.1875-.06s-.0675-.0975-.0675-.165c0-.0825.03-.1425.0975-.18.0525-.0225.1275-.045.2325-.06z" fill="#fff"/><path fill-rule="evenodd" clip-rule="evenodd" d="m9.42753,3.56995-.54.78.6075.9h-.5175l-.345-.5475-.3375.5475h-.51l.5925-.8925-.54-.7875h.51l.2925.45.285-.45h.5025z" fill="#fff"/><path fill-rule="evenodd" clip-rule="evenodd" d="m10.2075,4.74753v.5025h-.50999v-.5025h.50999z" fill="#fff"/><path fill-rule="evenodd" clip-rule="evenodd" d="m12.945,4.86001v.39h-1.62c0-.12.0225-.2325.06-.3375s.0975-.2025.165-.2775c.0525-.06.12-.12.195-.1725s.225-.1575.4425-.315c.105-.075.18-.1425.225-.2025s.0675-.135.0675-.2175c0-.0975-.03-.1725-.09-.2325s-.135-.09-.225-.09c-.2325,0-.3525.1575-.36.48h-.435v-.045c0-.2625.075-.46499.2325-.615.15-.1425.345-.21.5775-.21.21,0,.3825.06001.525.17251.15.12749.2325.2925.2325.50249,0,.1875-.06.345-.18.48-.0375.045-.075.075-.1125.105-.0375.03001-.1275.09-.2775.1875-.1425.09751-.2475.17251-.3075.21751s-.1125.10499-.165.1725l1.05.00749z" fill="#fff"/><path fill-rule="evenodd" clip-rule="evenodd" d="m14.3475,3.17246c-.1275-.0975-.2775-.15-.45-.15-.135,0-.255.03-.3675.09s-.2025.15-.27.2625c-.12.1875-.18.45-.18.78,0,.4575.1125.78.345.9675.135.105.2925.1575.4725.1575.135,0,.2475-.03.36-.09s.2025-.15.27-.27c.1125-.195.1725-.45.1725-.765,0-.1875-.0225-.36-.0675-.5175-.06-.21-.1575-.3675-.285-.465zm-.765.4575c.0525-.165.15-.2475.3-.2475s.255.0825.315.2475c.045.135.0675.3075.0675.525,0,.2625-.03.45-.09.5775s-.15.1875-.2775.1875c-.15,0-.255-.0825-.3075-.2475-.045-.12-.0675-.285-.0675-.495,0-.24.015-.42.06-.5475z" fill="#fff"/><path fill-rule="evenodd" clip-rule="evenodd" d="m17.85,3-.885.8925.9675,1.3575H17.31l-.6825-1.0125-.285.285V5.25h-.4875V3h.4875v.93l.885-.93h.6225z" fill="#fff"/><path fill-rule="evenodd" clip-rule="evenodd" d="m19.6575,5.04751v-1.4775l-.42-.015v.225c-.06-.0975-.1275-.1725-.2025-.21s-.165-.06-.2775-.06c-.2175,0-.39.0825-.525.24-.1275.1575-.1875.36-.1875.615s.06.4575.1875.6075.2925.225.5025.225c.2175,0,.3825-.0825.495-.2625v.21c0,.1425-.0225.2475-.0675.3075-.06.0825-.1575.12-.3.12-.18,0-.2925-.0675-.3225-.21h-.45c.045.3525.3.525.765.525.3375,0,.57-.105.6975-.3075.0375-.0675.0675-.135.0825-.2175s.0225-.18.0225-.315zm-1.095-1.005c.0675-.105.1575-.1575.285-.1575.1125,0,.2025.0375.2625.1125.0825.09.12.21.12.3675,0,.1275-.0225.24-.075.3225-.0675.1125-.165.165-.3.165-.105,0-.1875-.0375-.255-.1125-.075-.09-.1125-.21-.1125-.375,0-.135.0225-.24.075-.3225z" fill="#fff"/></svg>