<svg width="24" height="24" xmlns="http://www.w3.org/2000/svg"><path fill-rule="evenodd" clip-rule="evenodd" d="m17.43,4.03.52-1.04-1.11.33c-.61.18-1.17.47-1.67,1.02-.4.44-.73,1.03-1.02,1.81-1.35-.47-3.01-.08-3.94,1.44-1.52-.72-3.43.33-3.52,2.18-.48.13-.87.43-1.14.81-.36.5-.53,1.15-.51,1.79.03.64.26,1.3.76,1.81.51.51,1.25.82,2.2.82h7c.98,0,1.74-.3,2.27-.81.53-.5.79-1.16.82-1.81,0-.09,0-.19,0-.28.66.01,1.42-.13,2.13-.42,1.08-.43,2.17-1.23,2.73-2.49l.52-1.16-1.17.5c-1.89.8-3.4.26-4.29-.74-.92-1.03-1.2-2.55-.58-3.77zm.41,7.07c.51.06,1.26-.02,2.02-.33.52-.21,1.01-.5,1.42-.9-1.67.25-3.08-.37-4.01-1.41-.88-.99-1.32-2.36-1.12-3.68-.08.07-.16.15-.24.23-.31.34-.6.84-.86,1.61.38.28.71.65.94,1.09.32.61.45,1.33.32,2.14.5.11.91.38,1.21.74.13.15.23.32.32.5zm-6.98-2.59c.64-1.44,1.95-1.77,3-1.39.53.19.98.57,1.25,1.07.26.5.36,1.17.12,1.98l-.2.67.7-.03c.47-.02.8.16,1.03.43.23.28.36.68.34,1.1-.02.42-.19.82-.51,1.13-.32.3-.82.53-1.58.53H8c-.73,0-1.2-.23-1.49-.52-.3-.3-.46-.71-.47-1.15-.02-.44.1-.86.32-1.17.21-.29.5-.46.85-.46h.56l-.07-.56c-.18-1.5,1.42-2.25,2.39-1.45l.51.42.27-.6zM7.05,17.78l1-2,.89.45-1,2-.89-.45zm7-2-1,2,.89.45,1-2-.89-.45zm-6,4,2-4,.89.45-2,4-.89-.45zM12.1,15.78l-2,4,.89.45,2-4-.89-.45z"/></svg>