<svg width="36" height="36" xmlns="http://www.w3.org/2000/svg"><path fill-rule="evenodd" clip-rule="evenodd" d="m15,13.25c-.97,0-1.75.78-1.75,1.75s.78,1.75,1.75,1.75c.97,0,1.75-.78,1.75-1.75s-.78-1.75-1.75-1.75zm-2.75,1.75c0-1.52,1.23-2.75,2.75-2.75,1.52,0,2.75,1.23,2.75,2.75s-1.23,2.75-2.75,2.75c-1.52,0-2.75-1.23-2.75-2.75zM21,22.25c-.97,0-1.75.78-1.75,1.75,0,.97.78,1.75,1.75,1.75.97,0,1.75-.78,1.75-1.75,0-.97-.78-1.75-1.75-1.75zm-2.75,1.75c0-1.52,1.23-2.75,2.75-2.75,1.52,0,2.75,1.23,2.75,2.75,0,1.52-1.23,2.75-2.75,2.75-1.52,0-2.75-1.23-2.75-2.75zm-6.65,2.6,13.5-13.5-.71-.71-13.5,13.5.71.71z"/></svg>