<svg width="24" height="24" xmlns="http://www.w3.org/2000/svg"><path fill-rule="evenodd" clip-rule="evenodd" d="m6.5,3c-.76,0-1.5.81-1.5,2,0,.41.09.79.25,1.1l0,0c.29.58.75.9,1.25.9.5,0,.97-.32,1.25-.9M4,5c0-1.49.97-3,2.5-3s2.5,1.51,2.5,3c0,.46-.09.91-.25,1.32,1.75,1.07,2.25,3.16,2.25,5.19v.5H2v-.5c0-2.02.49-4.11,2.25-5.18-.16-.41-.25-.86-.25-1.32zm.77,2.18c-1.18.73-1.68,2.12-1.76,3.83h6.98C9.91,9.3,9.41,7.9,8.23,7.17c-.43.5-1.03.83-1.73.83-.7,0-1.3-.33-1.73-.82zm2.98-1.08c.16-.32.25-.7.25-1.1,0-1.19-.74-2-1.5-2M16.56,4.27c.9,1.21,1.43,2.84,1.47,4.8l1.62-1.6.7.71-2.86,2.82-2.85-2.81.7-.71,1.68,1.66c-.03-1.82-.51-3.26-1.27-4.28-.9-1.21-2.23-1.86-3.77-1.86l0-1c1.85-.01,3.47.79,4.57,2.26zm.94,8.73c-.76,0-1.5.81-1.5,2,0,.48.13.92.34,1.26.29.48.71.74,1.16.74.45,0,.87-.26,1.16-.74.21-.34.34-.79.34-1.26,0-1.19-.74-2-1.5-2zm1.7,4.2c-.43.48-1.01.8-1.7.8-.69,0-1.28-.32-1.7-.8-1.05.83-1.67,2.26-1.78,3.8h6.97c-.11-1.54-.73-2.98-1.78-3.8zm-3.94-.85c-.17-.41-.27-.88-.27-1.35,0-1.49.97-3,2.5-3,1.53,0,2.5,1.51,2.5,3,0,.48-.09.94-.27,1.35,1.54,1.14,2.27,3.2,2.27,5.15v.5H13v-.5c0-1.94.72-4,2.26-5.15zM6.5,12.97l2.85,2.81-.7.71-1.69-1.66c.03,1.83.51,3.27,1.27,4.3.9,1.22,2.23,1.88,3.76,1.87l0,1c-1.85.01-3.47-.8-4.57-2.28-.9-1.21-1.43-2.86-1.47-4.82l-1.61,1.59-.7-.71,2.85-2.82z"/></svg>