<svg width="36" height="36" xmlns="http://www.w3.org/2000/svg"><path fill-rule="evenodd" clip-rule="evenodd" d="m5.75,13.4995c0-4.27937,3.4692-7.74995,7.75-7.74995s7.75,3.47058,7.75,7.74995c0,4.2809-3.4691,7.75-7.75,7.75-4.28086,0-7.75-3.4691-7.75-7.75zm7.75-8.74995c-4.8332,0-8.75,3.91842-8.75,8.74995,0,4.8332,3.91686,8.75,8.75,8.75,2.2366,0,4.277-.8387,5.8238-2.219l10.3225,10.3226.7071-.7071L20.0309,19.3234c1.3803-1.5468,2.2191-3.5872,2.2191-5.8239,0-4.83153-3.9168-8.74995-8.75-8.74995z"/></svg>