<svg width="24" height="24" viewBox="0,0,24,24" xmlns="http://www.w3.org/2000/svg"><path fill-rule="evenodd" clip-rule="evenodd" d="m4,5.5C4,4.67157,4.67157,4,5.5,4S7,4.67157,7,5.5,6.32843,7,5.5,7,4,6.32843,4,5.5zM5.5,3C4.11929,3,3,4.11929,3,5.5S4.11929,8,5.5,8,8,6.88071,8,5.5,6.88071,3,5.5,3zm11.4412,3.26471-.3176-.59543-.4772.47716L10.453,11.8398,6.8,9.1l-.42284-.31713-.29319.43978-3,4.50005.83206.5546,2.70681-4.0602L10.1999,12.9l.347.2602.3066-.3066,5.5229-5.52288,3.6824,6.90458.8824-.4706-4-7.49999zM5.30133,19.3617C5.76175,19.1408,6.30493,19,7.0028,19s1.24105.1408,1.70147.3617c.44253.2123.79304.4926,1.09725.7358l.01492.012c.31766.254.58836.468.92026.6272.3212.1541.7161.2633,1.2689.2633.5524,0,.9468-.1092,1.2678-.2633.3316-.1592.602-.3731.9195-.6271l.0149-.012h.0001c.304-.2432.6542-.5235,1.0965-.7359C15.7646,19.1408,16.3075,19,17.005,19c.697,0,1.2395.1409,1.6994.3618.442.2124.792.4927,1.0957.736l.0149.0119c.3172.254.5874.468.9186.6271.3206.1541.7147.2632,1.2664.2632v1c-.697,0-1.2396-.1409-1.6994-.3618-.442-.2124-.792-.4927-1.0957-.736l-.0149-.0119c-.3173-.254-.5874-.468-.9187-.6271C17.9507,20.1091,17.5567,20,17.005,20c-.5524,0-.9469.1092-1.2678.2633-.3316.1592-.6021.3731-.9195.6271l-.015.012c-.304.2432-.6543.5235-1.0965.7359-.4602.2209-1.0031.3617-1.7006.3617-.6979,0-1.241-.1408-1.7015-.3617-.4425-.2123-.79301-.4926-1.09722-.7358l-.01492-.012c-.31768-.254-.58832-.468-.92022-.6272C7.95048,20.1092,7.55563,20,7.0028,20s-.94768.1092-1.26894.2633c-.3319.1592-.60254.3732-.92022.6272l-.01492.012c-.30422.2432-.65472.5235-1.09725.7358C3.24105,21.8592,2.69787,22,2,22v-1c.55283,0,.94768-.1092,1.26894-.2633.3319-.1592.60254-.3732.92022-.6272l.01492-.012c.30421-.2432.65472-.5235,1.09725-.7358zM7.0028,15c-.69787,0-1.24105.1408-1.70147.3617-.44253.2123-.79304.4926-1.09725.7358l-.01492.012c-.31768.254-.58832.468-.92022.6272C2.94768,16.8908,2.55283,17,2,17v1c.69787,0,1.24105-.1408,1.70147-.3617.44253-.2123.79303-.4926,1.09725-.7358l.01492-.012c.31768-.254.58832-.468.92022-.6272C6.05512,16.1092,6.44997,16,7.0028,16s.94768.1092,1.26894.2633c.3319.1592.60254.3732.92022.6272l.01492.012c.30421.2432.65472.5235,1.09722.7358.4605.2209,1.0036.3617,1.7015.3617.6975,0,1.2404-.1408,1.7006-.3617.4422-.2124.7925-.4927,1.0965-.7359l.015-.012c.3174-.254.5879-.4679.9195-.6271.3209-.1541.7154-.2633,1.2678-.2633.5517,0,.9457.1091,1.2663.2632.3313.1591.6014.3731.9187.6271l.0149.0119c.3037.2433.6537.5236,1.0957.736C20.7604,17.8591,21.303,18,22,18v-1c-.5517,0-.9458-.1091-1.2664-.2632-.3312-.1591-.6014-.3731-.9186-.6271l-.0149-.0119c-.3037-.2433-.6537-.5236-1.0957-.736C18.2445,15.1409,17.702,15,17.005,15c-.6975,0-1.2404.1408-1.7006.3617-.4423.2124-.7926.4927-1.0966.7359l-.0149.012c-.3175.254-.5879.4679-.9195.6271-.321.1541-.7154.2633-1.2678.2633-.5528,0-.9477-.1092-1.2689-.2633-.3319-.1592-.6026-.3732-.92026-.6272l-.01492-.012h-.00001c-.30421-.2432-.65471-.5235-1.09724-.7358C8.24385,15.1408,7.70067,15,7.0028,15z"/></svg>