<svg width="48" height="48" xmlns="http://www.w3.org/2000/svg"><path fill-rule="evenodd" clip-rule="evenodd" d="m14,28V6.47513c.3849.52329.8657.97231,1.4194,1.32179,3.4342,2.19291,4.5476,4.69228,4.5545,7.21208.007,2.5778-1.1414,5.2517-2.4196,7.7643l.8914.4534c1.2791-2.5145,2.536-5.3794,2.5282-8.2205-.0079-2.8988-1.3293-5.69823-5.0175-8.05286v-.00001l-.0023-.00146c-.652-.41129-1.179-.99326-1.5238-1.68277v-.00003c-.1518-.30361-.2651-.85104-.338-1.38015-.0349-.25313-.0583-.48387-.0729-.65142-.0074-.08359-.0124-.15102-.0157-.1971l-.0035-.05237-.0008-.01289-.0002-.00291v-.00055l-.0027.00015L13,3.00003V24.9995C12.0878,23.7854,10.6356,23,9,23c-2.76142,0-5,2.2386-5,5s2.23858,5,5,5c2.7614,0,5-2.2386,5-5zm-5-4c2.2091,0,4,1.7909,4,4,0,2.2092-1.7909,4-4,4-2.20914,0-4-1.7908-4-4,0-2.2091,1.79086-4,4-4zm9,16c0-2.2091,1.7909-4,4-4s4,1.7909,4,4c0,2.2092-1.7909,4-4,4s-4-1.7908-4-4zm4-5c1.6356,0,3.0878.7854,4,1.9995v-18.919l17.4131-3.0729L44,14.9041v21.0665h-.0001L44,36c0,2.7614-2.2386,5-5,5s-5-2.2386-5-5,2.2386-5,5-5c1.6356,0,3.0878.7854,4,1.9995V20.096l-16,2.8235V40c0,2.7615-2.2386,5-5,5s-5-2.2385-5-5c0-2.7614,2.2386-5,5-5zm5-13.0959,16-2.8236V16.096l-16,2.8235v2.9846zM35,36c0-2.2091,1.7909-4,4-4s4,1.7909,4,4c0,2.2092-1.7909,4-4,4s-4-1.7908-4-4z"/></svg>