<svg width="48" height="48" viewBox="0,0,48,48" xmlns="http://www.w3.org/2000/svg"><path fill-rule="evenodd" clip-rule="evenodd" d="m5,10h38V9H5v1zm38,26.02H5v1h38v-1zM12.46,15.0002H6v16h3.47v-5.77h3.62c.7813.0139,1.5611-.0735,2.32-.26.6127-.1769,1.1815-.48,1.67-.89.5727-.4788,1.0268-1.0836,1.3269-1.7671.3002-.6835.4381-1.4272.4031-2.1729.0495-.8245-.1173-1.6477-.4839-2.3879s-.9202-1.3717-1.6061-1.8321c-.514-.3423-1.087-.5864-1.69-.72-.8481-.1503-1.7089-.2173-2.57-.2zm-2.99,7.54v-4.54h2.94c.7144-.0509,1.4287.1017,2.06.44.2902.1974.5233.4676.676.7835.1528.316.2196.6666.194,1.0165.0233.3377-.0323.6761-.1625.9886-.1302.3124-.3313.5902-.5875.8114-.5939.3814-1.2966.557-2,.5H9.47zm9.36.6697h3.08v-3.08h1.77v3.08h3.1v1.79h-3.1v3.08h-1.77v-3.08h-3.08v-1.79zM35.75,15H28v16h3.53v-6.29h3.1c.843-.0816,1.6866.1497,2.37.65.5693.6496.879,1.4863.87,2.35.0461.6461.1002,1.1765.1419,1.5858.0396.3889.0681.6685.0681.8342.0433.3024.1344.5961.27.87H42l-.19-.19c-.3087-.6429-.4693-1.3469-.47-2.06-.14-1.52-.25-2.48-.34-2.9-.0803-.4213-.2435-.8223-.48-1.18-.3781-.595-.9738-1.0185-1.66-1.18.7696-.2787,1.4265-.8021,1.87-1.49.4557-.7445.6785-1.6081.64-2.48.0126-.774-.1733-1.5383-.54-2.22-.3639-.6608-.9039-1.2077-1.56-1.58-1.0907-.5422-2.304-.7904-3.52-.72zm-4.26,7.15v-4.4H35c.799-.0708,1.5999.1111,2.29.52.2416.2026.4319.4596.5553.7498s.1764.6055.1547.9202c.0136.3445-.0622.6867-.2199.9933s-.392.5673-.6801.7567c-.6988.3625-1.4852.5219-2.27.46h-3.34z"/></svg>