<svg width="36" height="36" xmlns="http://www.w3.org/2000/svg"><path fill-rule="evenodd" clip-rule="evenodd" d="m5.25,7.75049h-.5V28.2505h21.0486l.1416-.263,5.25-9.75.1277-.237-.1277-.2371-5.25-9.74996-.1416-.26295H5.25zm.5,19.50001V8.75049h19.4514l4.9807,9.25001-4.9807,9.25H5.75zm6-13.7507c0-.9839.7661-1.75,1.75-1.75s1.75.7661,1.75,1.75c0,.9838-.7661,1.75-1.75,1.75s-1.75-.7662-1.75-1.75zm1.75-2.75c-1.5361,0-2.75,1.2138-2.75,2.75,0,1.5361,1.2139,2.75,2.75,2.75s2.75-1.2139,2.75-2.75c0-1.5362-1.2139-2.75-2.75-2.75zm4.25,11.7514c0-.9851.7659-1.75,1.75-1.75s1.75.7649,1.75,1.75c0,.9839-.7661,1.75-1.75,1.75s-1.75-.7661-1.75-1.75zm1.75-2.75c-1.5359,0-2.75,1.2122-2.75,2.75,0,1.5362,1.2139,2.75,2.75,2.75s2.75-1.2138,2.75-2.75c0-1.5378-1.2141-2.75-2.75-2.75zm-9.3536,3.8957,12-12,.7072.7071-12,12-.7072-.7071z"/></svg>