<svg width="48" height="48" xmlns="http://www.w3.org/2000/svg"><path fill-rule="evenodd" clip-rule="evenodd" d="m4,4h40v40H4V4zm1,1v31h1.22553l6.85267-10.7684.3034-.4768.4363.3592,8.1724,6.7302,9.6554-9.697.4277-.4295.3403.5015L41.765,36H43V5H5zm0,38v-6h38v6H5zm29.5882-15.7953-2.6616-3.9224-3.7106,3.7266,1.284,1.284,1.6464-1.6465.3536-.3535.3536.3535L33.5,28.2929l1.0882-1.0882zM35.1599,28.0472l-1.3063,1.3064-.3536.3535-.3536-.3535L31.5,27.7071l-1.6464,1.6465-.3536.3535-.3536-.3535-1.636-1.6361-5.1324,5.1546L19.2635,36h21.293l-5.3966-7.9528zm-21.5415-1.802,7.6632,6.3108L17.8523,36H7.41084l6.20756-9.7548zM13,14.5c0-1.3807,1.1193-2.5,2.5-2.5s2.5,1.1193,2.5,2.5S16.8807,17,15.5,17,13,15.8807,13,14.5zm2.5-3.5c-1.933,0-3.5,1.567-3.5,3.5s1.567,3.5,3.5,3.5,3.5-1.567,3.5-3.5S17.433,11,15.5,11zM11,15H8v-1h3v1zM9.53927,9.17359l2.27703,2.27701.7071-.7071-2.277-2.27702-.70713.70711zM15,10V7h1v3h-1zm5.806-1.44344-2.264,2.23814.7031.7112,2.2639-2.23819-.703-.71115zM20,14h3v1h-3v-1zm1.5237,5.7427-2.2661-2.2567-.7056.7086,2.2661,2.2567.7056-.7086zM15,22v-3h1v3h-1zm-3.1963-4.4483-2.2615,2.2615.7071.7071,2.2615-2.2615-.7071-.7071z"/></svg>