<svg width="24" height="24" xmlns="http://www.w3.org/2000/svg"><path fill-rule="evenodd" clip-rule="evenodd" d="m22.5,0h-21C.675,0,0,.675,0,1.5v21c0,.825.675,1.5,1.5,1.5h21c.825,0,1.5-.675,1.5-1.5v-21c0-.825-.675-1.5-1.5-1.5z" fill="#2d327d"/><path fill-rule="evenodd" clip-rule="evenodd" d="m5.13,14.9625c-.525-.18-.9225-.4725-1.2-.885s-.42-.9075-.42-1.4925c0-.975.3975-1.7475,1.2-2.3325.705-.51002,1.545-.77252,2.52-.77252,1.11,0,2.01.30751,2.715.91502.6675.5775.9975,1.2825.9975,2.13,0,.5925-.1425,1.095-.42,1.515-.285.42-.6825.7275-1.2.915.405.12.735.27.99.4575.7125.5175,1.0725,1.275,1.0725,2.265,0,1.14-.435,2.055-1.3125,2.73-.735.57-1.6875.855-2.8425.855-1.2525,0-2.2575-.315-3-.9375-.78-.645-1.17-1.5-1.17-2.55,0-.99.345-1.755,1.0275-2.3025.315-.24.66-.4125,1.0425-.51zm2.055.8475c-.555,0-1.005.1725-1.3575.51s-.525.78-.525,1.3125c0,.5475.18.9975.5325,1.335.36.345.8175.5175,1.3875.5175.645,0,1.1325-.1875,1.455-.57.315-.3675.4725-.7875.4725-1.26,0-.54-.18-.99-.54-1.335-.3525-.3375-.825-.51-1.425-.51zm-1.1775-4.1625c.3-.2775.6975-.4125,1.1925-.4125.5325,0,.945.1275,1.245.39s.45.63.45,1.095c0,.48-.1425.855-.4425,1.1325s-.705.4125-1.215.4125c-.5175,0-.9225-.1425-1.23-.42s-.4575-.6525-.4575-1.1175c0-.4425.1575-.8025.4575-1.08z" fill="#fff"/><path fill-rule="evenodd" clip-rule="evenodd" d="m12.96,13.32c.0225-.9225.255-1.695.6825-2.325C14.34,9.99004,15.39,9.48755,16.785,9.48755c1.08,0,1.9425.27749,2.61.82495.7125.5925,1.0725,1.365,1.0725,2.31,0,.5625-.1425,1.05-.42,1.455s-.66.6825-1.1325.825c.6075.135,1.08.4425,1.4325.9225s.525,1.05.525,1.7325c0,1.11-.4125,2.025-1.23,2.73-.7575.66-1.7175.9825-2.88.9825-1.2525,0-2.25-.36-2.985-1.0875-.735-.72-1.1025-1.7025-1.1025-2.9325,0-.0225,0-.075,0-.1425h2.16c0,.69.165,1.23.495,1.605s.795.5625,1.395.5625,1.0575-.18,1.3875-.5325c.3-.33.4425-.7275.4425-1.1925,0-.555-.1875-.99-.57-1.3125-.315-.27-.795-.3975-1.4475-.3975-.1875,0-.3675.0075-.5475.03v-1.65c.135.0075.2625.015.3825.015,1.29,0,1.935-.48,1.935-1.44,0-.42-.1425-.7575-.42-1.02-.285-.2625-.6525-.39-1.1175-.39-.525,0-.9375.165-1.2225.495s-.4425.81-.465,1.44H12.96z" fill="#fff"/><path fill-rule="evenodd" clip-rule="evenodd" d="m5.09249,4.03494v1.215h-.315l-.0525-.255c-.165.21-.39.3075-.675.3075-.345,0-.615-.1275-.81-.3825-.165-.21-.2475-.4725-.2475-.7875,0-.3525.105-.64499.3225-.86999.2025-.21001.465-.32251.78-.32251.2925,0,.5325.09751.72.285.135.1425.2175.315.24.51h-.4725c-.0225-.12-.0825-.2175-.165-.285s-.195-.105-.3225-.105c-.2025,0-.3525.075-.465.2325-.0975.13501-.1425.315-.1425.5475,0,.225.045.3975.135.5325.1125.1575.27.24.4875.24.1575,0,.285-.045.3825-.1425s.15-.2175.1575-.3675h-.5025v-.36l.945.0075z" fill="#fff"/><path fill-rule="evenodd" clip-rule="evenodd" d="m5.90246,3v2.25h-.4425V3h.4425z" fill="#fff"/><path fill-rule="evenodd" clip-rule="evenodd" d="m7.64999,4.98747c.06-.08251.105-.16501.1275-.26251h-.4275c-.03.075-.075.135-.1275.1725s-.12.0525-.2025.0525c-.1725,0-.285-.0675-.345-.2175-.0225-.0525-.03-.12-.0375-.2025h1.17c0-.2025-.015-.3675-.0675-.495s-.12-.24-.225-.33c-.1425-.1275-.315-.1875-.5175-.1875-.2475,0-.45.09-.6075.2775-.1425.165-.21.36751-.21.615,0,.12.015.2475.06.36.045.105.0975.2025.1725.2775.15.1575.3525.24001.6.24001.2775,0,.4875-.09752.6375-.3zm-.30822-.76501c.00025.00248.00049.00498.00072.0075v-.0075h-.00072zm0,0c-.00815-.0791-.02996-.1441-.05178-.195-.03-.0525-.0675-.0975-.12-.1275s-.1125-.045-.1725-.045c-.0975,0-.18.03-.2475.0975s-.105.1575-.1125.27h.70428z" fill="#fff"/><path fill-rule="evenodd" clip-rule="evenodd" d="m8.52752,3.405V3h-.4425v.405h.4425zm0,1.845V3.57h-.4425v1.68h.4425z" fill="#fff"/><path fill-rule="evenodd" clip-rule="evenodd" d="m10.245,4.0574h-.42002c-.0075-.06-.0225-.0975-.045-.1275-.045-.06-.135-.09-.255-.09-.0825,0-.14249.015-.18.045-.03749.03-.06749.0675-.06749.12s.0225.0975.075.12.1575.0525.33.09c.21749.045.37501.09751.46501.165.1125.075.1725.195.1725.3525,0,.18-.0675.315-.21.42-.13501.0975-.32251.1425-.54752.1425-.2775,0-.4875-.0675-.615-.21-.09-.0975-.135-.225-.14999-.3825h.4275c.00749.075.02999.135.05999.1725.06001.0675.15001.105.28501.105.08999,0,.165-.015.2175-.0525.05249-.0375.0825-.08999.0825-.15,0-.06-.02251-.0975-.0675-.1275-.045-.03-.1425-.06-.2925-.0975-.1425-.0375-.2475-.06-.3075-.0825s-.1125-.045-.165-.0675c-.06-.0375-.1125-.0825-.1425-.15s-.0525-.135-.0525-.2175c0-.1725.075-.3075.2175-.3975.12-.075.285-.1125.495-.1125.2775,0,.48001.0675.60001.21.045.075.0825.1875.09.3225z" fill="#fff"/></svg>