<svg width="16" height="16" xmlns="http://www.w3.org/2000/svg"><rect width="16" height="16" rx="2" fill="#eb0000"/><path fill-rule="evenodd" clip-rule="evenodd" d="m11.2884,5.27832-.542.893,1.281.778,1.942-3.197-3.199-1.953-.78101,1.28,1.15301.704c-.963.085-1.90201.384-2.69501,1.307.319.359.616.79.885,1.311.532-.811,1.16001-1.058,1.95601-1.123z" fill="#fff"/><path fill-rule="evenodd" clip-rule="evenodd" d="m4,9.74942H2v1.49998h2c.96,0,1.932-.083,2.798-.66-.23-.409-.443-.87498-.632-1.40898-.586.499-1.283.569-2.166.569z" fill="#fff"/><path fill-rule="evenodd" clip-rule="evenodd" d="m12.0272,8.9286-1.281.778.542.894c-1.129-.092-1.92496-.525-2.57696-2.462-1.094-3.239-2.927-3.51-4.711-3.51h-2v1.5h2c1.524,0,2.506.168,3.289,2.49.917,2.721,2.358,3.345,3.85396,3.476l-1.15396.705.78096,1.279,3.199-1.953-1.942-3.197z" fill="#fff"/></svg>