<svg width="59" height="20" xmlns="http://www.w3.org/2000/svg"><path d="m.5,2C.5,1.17157,1.17157.5,2,.5h55c.8284,0,1.5.67157,1.5,1.5v16c0,.8284-.6716,1.5-1.5,1.5H2c-.82843,0-1.5-.6716-1.5-1.5V2z" fill="#fff" stroke="#eb0000"/><path fill-rule="evenodd" clip-rule="evenodd" d="m7.96558,4.19995H4.18579V15.8h2.31696v-4.9114h.91714c.28385-.009.56779.0149.84614.0714.17787.0438.3397.1374.46667.2698.15418.1721.25813.3835.30044.611.07022.4408.1072.8864.11063,1.3329.0316.9732.06458,1.6066.09891,1.9003.02218.2543.09615.5014.21734.726h2.45138c-.14-.2296-.2464-.4781-.3163-.738-.0626-.3669-.0943-.7385-.0948-1.1108-.0316-1.0685-.0673-1.7614-.1069-2.0787-.0359-.305-.12-.6023-.2489-.8807-.2479-.5025-.7513-.8146-1.51046-.9364,1.27576-.30129,1.91366-1.22696,1.91366-2.77697,0-1.24296-.4165-2.12367-1.2494-2.64213-.46396-.2909-1.24155-.43635-2.33272-.43635zM6.50275,9.25412V5.91381h.90934c.63784.00006,1.09781.12567,1.37992.37683.28198.25129.42297.66254.42297,1.23376-.00006.67713-.20036,1.16378-.6009,1.45996-.24257.17984-.64323.26976-1.20198.26976h-.90935z" fill="#eb0000"/><path d="m13.058,4.19995h6.4604v1.92009h-4.1435v2.73737h3.8905v1.88839h-3.8905v3.1341h4.3097V15.8H13.058V4.19995z" fill="#eb0000"/></svg>