<svg width="16" height="16" xmlns="http://www.w3.org/2000/svg"><rect width="16" height="16" rx="2" fill="#eb0000"/><path fill-rule="evenodd" clip-rule="evenodd" d="m8.67984,10.6548c-.21901.056-.444.095-.68.095-.277,0-.53901-.053-.791-.13-1.12901-.342-1.959-1.38002-1.959-2.62002,0-.236.039-.461.095-.68l1.864,1.864,1.471,1.47102c.01-.003.019-.006.029-.009v.038l-.029-.029zm2.38996.269-1.06-1.06002-1.30096-1.301-1.5-1.5-1.072-1.073-1.06001-1.06-2.411-2.41-1.06,1.061,2.58,2.58c-.271.559-.43599,1.178-.43599,1.839,0,2.07302,1.493,3.79802,3.459,4.17002v3.83h1.5v-3.821c.4-.068.77699-.193,1.12999-.365l3.08097,3.081,1.06-1.061-2.91-2.91z" fill="#fff"/><path fill-rule="evenodd" clip-rule="evenodd" d="m8.67981,10.6548.029.029v-.038c-.01.003-.019.006-.029.009z" fill="#fff"/><path fill-rule="evenodd" clip-rule="evenodd" d="m7.99999,5.25c.247,0,.481.043.709.104C9.88099,5.669,10.75,6.73,10.75,8c0,.152-.019.3-.044.445l1.202,1.202c.217-.507.342-1.061.342-1.647,0-2.101-1.535-3.838-3.54101-4.178V0h-1.5v3.83c-.297.056-.578.153-.849.268l1.197,1.198c.144-.028.291-.046.443-.046z" fill="#fff"/></svg>