<svg width="16" height="16" xmlns="http://www.w3.org/2000/svg"><path fill-rule="evenodd" clip-rule="evenodd" d="m5.981,5.55269c.316,0,.446-.218.288-.485L3.858.999695C2.224,1.92069,1.1,3.60569,1,5.55269h4.981zM2.839,10.9081C1.836,9.7471,1.175,8.29709,1,6.70609h11.467c-.175,1.591-.837,3.04101-1.84,4.20201H2.839zm-.3839,2.1271c0,1.084.905,1.965,2.017,1.965,1.113,0,2.018-.881,2.018-1.965,0-1.083-.905-1.965-2.018-1.965-1.112,0-2.017.882-2.017,1.965zm.583,0c0-.771.643-1.397,1.434-1.397.792,0,1.436.626,1.436,1.397s-.644,1.397-1.436,1.397c-.791,0-1.434-.626-1.434-1.397zm3.7812,0c0,1.084.906,1.965,2.018,1.965s2.018-.881,2.018-1.965c0-1.083-.906-1.965-2.018-1.965s-2.018.882-2.018,1.965zm.583,0c0-.771.644-1.397,1.435-1.397s1.435.626,1.435,1.397-.644,1.397-1.435,1.397-1.435-.626-1.435-1.397zm3.7819-7.78421h3.452c.127,0,.23.101.23.22501,0,.12199-.103.224-.23.224h-3.452v-.44901z"/></svg>