<svg width="30" height="16" xmlns="http://www.w3.org/2000/svg"><path fill-rule="evenodd" clip-rule="evenodd" d="m24.4126,12.33v.1146c0,.7047-.265,1.3068-.7967,1.8062-.5334.4995-1.1742.7492-1.9258.7492-.7395,0-1.3698-.248-1.8963-.7406-.5248-.4926-.788-1.0862-.788-1.7755V12.33h-1.9639v.1146c0,.7047-.265,1.3068-.8018,1.8062-.5369.4995-1.1829.7492-1.9397.7492-.7447,0-1.382-.248-1.9102-.7406-.5299-.4909-.7932-1.0844-.7932-1.7738V12.33H9.63316v.1146c0,.7047-.26497,1.3068-.79665,1.8062C8.30484,14.7503,7.66234,15,6.91072,15c-.72563,0-1.35428-.2446-1.88595-.7304-.53168-.4857-.79665-1.081-.79665-1.784l-.02078-.1556H1V9.01344h5.0552V5.4215H1.01732V3.02688h8.64181v3.42089H20.0501V1h2.5977v5.44777h4.0975L28.7092,12.33h-4.2966z"/></svg>