<svg width="27" height="16" xmlns="http://www.w3.org/2000/svg"><path fill-rule="evenodd" clip-rule="evenodd" d="m22.3229,3.13349c1.019,0,2.08.2908,2.9.69792l.66-2.23043C24.7429,1.15509,23.4829,1,22.2619,1c-2.681,0-5.201,1.24074-5.201,4.09153,0,1.9786,1.433,2.75513,2.7268,3.45624,1.0647.57698,2.0352,1.10288,2.0352,2.20563,0,1.454-1.321,2.1141-2.662,2.1141-1.2,0-2.34-.4459-3.42-.9306l-.72,2.307c1.26.4459,2.64.7561,3.98.7561,3.061,0,5.742-1.202,5.742-4.518,0-2.13765-1.5372-3.01651-2.8647-3.77545-1.0087-.57672-1.8963-1.08419-1.8963-2.02214,0-1.16319,1.34-1.55092,2.341-1.55092zM5.58101,12.6344h-1.3l2-9.26876h.96c2.521,0,4.22199,1.14478,4.22199,3.25792,0,3.72314-1.84099,6.01084-5.88199,6.01084zM8.142,1.2331H3.941L1,14.7669h4.701c7.042,0,8.683-4.615,8.683-7.75564,0-4.69251-3.322-5.77816-6.242-5.77816z"/></svg>