<svg width="27" height="16" xmlns="http://www.w3.org/2000/svg"><path fill-rule="evenodd" clip-rule="evenodd" d="m22.2924,11.304v.1042c0,.6409-.241,1.1885-.7245,1.6427-.4851.4542-1.0678.6813-1.7514.6813-.6725,0-1.2458-.2255-1.7246-.6735-.4772-.448-.7166-.9878-.7166-1.6147v-.14h-1.7861v.1042c0,.6409-.241,1.1885-.7292,1.6427-.4883.4542-1.0757.6813-1.764.6813-.6773,0-1.2568-.2255-1.7372-.6735-.482-.4465-.7214-.9863-.7214-1.6131v-.1416H8.85138v.1042c0,.6409-.24098,1.1885-.72451,1.6427-.48352.4542-1.06785.6813-1.7514.6813-.65992,0-1.23164-.2224-1.71517-.6642s-.7245-.9831-.7245-1.6224l-.0189-.1416H1V8.28778h4.59742V5.02111H1.01575V2.84333H8.875v3.11111h9.45V1h2.3625v4.95444h3.7264L26.2,11.304h-3.9076z"/></svg>