<svg width="23" height="16" xmlns="http://www.w3.org/2000/svg"><path fill-rule="evenodd" clip-rule="evenodd" d="m18.1605,2.9782c1.02,0,2.08.301,2.9.721l.66-2.301c-1.14-.460002-2.4-.620002-3.621-.620002-2.68,0-5.201,1.280002-5.201,4.222002,0,2.04035,1.4326,2.84127,2.7262,3.56454,1.065.5954,2.0358,1.13818,2.0358,2.27646,0,1.5-1.321,2.18-2.661,2.18-1.2,0-2.34-.461-3.42-.961l-.721,2.381c1.261.46,2.641.78,3.981.78,3.061,0,5.741-1.24,5.741-4.661,0-2.20526-1.5369-3.11192-2.864-3.89488-1.0085-.59497-1.896-1.1185-1.896-2.08612,0-1.2,1.34-1.601,2.34-1.601zm-6.2393-1.95958H4.21917l-2.94,13.96298h2.8l1.281-6.12098h4.68003l.441-2.2H5.82017l.74-3.442h4.88103l.48-2.2z"/></svg>