<svg width="21" height="16" xmlns="http://www.w3.org/2000/svg"><path fill-rule="evenodd" clip-rule="evenodd" d="m11.9541,6.13524,1.4047-1.40691c.3352-.33579,1.1004-.65318,1.5745-.65318h2.8275v1.41008L20,3.24261,17.7608,1v1.41008h-2.8275c-.9184,0-2.1007.49048-2.7501,1.14089l-1.4047,1.4069c.4783.29425.8818.69838,1.1756,1.17737zm5.8067,5.78956h-2.8275c-.4741,0-1.2392-.3174-1.5745-.6532l-1.4047-1.40692c-.2938.47902-.6973.88312-1.1757,1.17742l1.4048,1.4069c.6494.6504,1.8316,1.1409,2.7501,1.1409h2.8275V15L20,12.7573l-2.2392-2.2426v1.4101zm-5.7261-4.4755c-.3037-1.7247-1.9457-2.87629-3.66785-2.57222-1.24671.22019-2.19307,1.14319-2.50546,2.29034H1V8.8325h4.8621c.42362,1.566,1.97806,2.5775,3.60438,2.2903,1.72202-.3041,2.87182-1.94881,2.56822-3.6735zM9.19153,9.5614c-.86101.15208-1.68213-.42372-1.83389-1.28615C7.2058,7.4129,7.7807,6.5906,8.64172,6.43852s1.68218.42372,1.83388,1.28607c.1519.86243-.423,1.68473-1.28407,1.83681z"/></svg>