<svg width="27" height="16" xmlns="http://www.w3.org/2000/svg"><path fill-rule="evenodd" clip-rule="evenodd" d="m6.24142,6.5186,1.18-5.481h-2.801l-3,13.962h2.801l1.52-7.101,3.88,7.101h3.34098l-4.50098-7.601,7.06198-6.361h-3.901l-5.54098,5.481h-.04zm14.04018.16012h-1.1l.74-3.441h.98c1.06,0,2.341.06,2.341,1.4,0,1.641-1.54,2.041-2.961,2.041zm-1.42,6.12098h-.96l.84-4.03998h.9c1.5,0,2.86.219,2.86,1.67998,0,2.16-1.92,2.36-3.64,2.36zm2.961-11.76198h-4.142l-2.921,13.96198h3.982c2.08,0,6.561-.32,6.561-4.32,0-1.50098-.681-2.70098-2.24-2.94098v-.04c1.62-.26,2.98-1.62,2.98-3.32,0-2.541-2.041-3.341-4.22-3.341z"/></svg>