<svg width="27" height="16" xmlns="http://www.w3.org/2000/svg"><path fill-rule="evenodd" clip-rule="evenodd" d="m6.96141,6.99801h-1.02l.78-3.761h1.16c1.14,0,2.40099,0,2.40099,1.461,0,1.84-1.81999,2.3-3.32099,2.3zm.68-5.961h-3.301L1.42041,15h2.8l1.221-5.80099h1.06c1.29013,0,1.4276.74923,1.63535,1.88139.03701.2018.07626.4156.12465.6396l.68,3.28h2.94099l-1.34-5.62099c-.18-.761-.66099-1.24-1.41999-1.28v-.04c2.27999-.04,4.07999-1.321,4.07999-3.721,0-3.302-2.9118-3.30147-5.47048-3.30101-.03022,0-.06039.00001-.09051.00001zm18.12129.0001h-9.582l-.48,2.2h6.101l-8.402,9.56299-.44,2.2h9.802l.46-2.2h-6.361l8.422-9.56299.48-2.2z"/></svg>