<svg width="29" height="16" xmlns="http://www.w3.org/2000/svg"><path fill-rule="evenodd" clip-rule="evenodd" d="m14.5809,1,3.28,8.20356-1.22,5.79624h2.801l1.22-5.79624L27.4239,1h-3.261l-4.541,5.87745L17.5419,1h-2.961zM6.541,6.9769h-1.02l.78-3.77091h1.16c1.14,0,2.401,0,2.401,1.46485,0,1.84485-1.82,2.30606-3.321,2.30606zm.68-5.97669H3.92L1,15h2.8l1.221-5.81629h1.06c1.29013,0,1.4276.7512,1.63535,1.88639.03701.2022.07626.4167.12465.6413L8.521,15h2.941l-1.34-5.63581c-.18-.76301-.661-1.24327-1.42-1.28338v-.0401c2.28-.04011,4.08-1.32448,4.08-3.73081,0-3.310697-2.91181-3.310169-5.47049-3.30971-.03022.00001-.06039.00002-.09051.00002z"/></svg>