<svg width="25" height="16" xmlns="http://www.w3.org/2000/svg"><path fill-rule="evenodd" clip-rule="evenodd" d="m8.301,3.13349c1.021,0,2.081.2908,2.901.69792l.66-2.23043C10.722,1.15509,9.461,1,8.241,1,5.561,1,3.04,2.24074,3.04,5.09153c0,1.9786,1.43269,2.75513,2.72622,3.45624C6.83073,9.12475,7.801,9.65065,7.801,10.7534c0,1.454-1.32,2.1141-2.661,2.1141-1.2,0-2.34-.4459-3.42-.9306L1,14.2439C2.26,14.6898,3.64,15,4.98,15c3.061,0,5.742-1.202,5.742-4.518,0-2.13765-1.53719-3.01651-2.86466-3.77545C6.84862,6.12983,5.961,5.62236,5.961,4.68441c0-1.16319,1.34-1.55092,2.34-1.55092zm14.8813-1.90057h-7.701l-2.941,13.53378h2.8l1.281-5.93231h4.681l.44-2.13349h-4.661l.74-3.33545h4.882l.479-2.13253z"/></svg>