<svg width="12" height="16" xmlns="http://www.w3.org/2000/svg"><path fill-rule="evenodd" clip-rule="evenodd" d="m8.78937,2.50217c.20892-.2146.19984-.55515-.02271-.74642-.13626-.11663-.26343-.14462-.6495-.14462-.41785,0-.49506.01866-.60407.15395-.16351.20993-.15896.56914.00454.74642.10447.11662.21347.13995.62679.13995.41785,0,.51777-.02333.64495-.14928zM1.31339,3.77574C1,3.69177,1,3.35588,1,3.20193c0-.20526.2498-.47117.46327-.48983.19076-.01866.21802-.06065.53595-.85372l.33156-.83039L5.97339,1.014,9.61599,1l.32702.84905c.31339.81639.33609.84905.54049.88171.2816.04665.5677.32189.5087.57847-.0454.2006-.0863.36388-.3588.46651-.0954.02799-2.15288.01866-4.6373.02799-2.51168.00933-4.54191,0-4.68271-.02799zm6.04528,5.15962c0-.93303-.63133-1.39954-1.36257-1.39954-.90839,0-1.36258.46651-1.36258,1.39954,0,.7744.45419,1.39954,1.36258,1.39954.90838,0,1.36257-.46652,1.36257-1.39954zM1.90838,4.73675h8.17542L9.17543,15H2.81676S1.97651,4.67611,1.90838,4.73675z"/></svg>