<svg width="48" height="48" viewBox="0,0,48,48" xmlns="http://www.w3.org/2000/svg"><path fill-rule="evenodd" clip-rule="evenodd" d="m22.51,4h-.5v15h22.98V4H22.51zm.5,11.2594V5h20.98v10.4925L36.8,10.1l-.3469-.26019-.3067.30659-.3756.3757c-.1242-.2922-.3042-.56097-.5331-.78987C34.7689,9.26339,34.133,9,33.47,9c-.6631,0-1.299.26339-1.7678.73223C31.2334,10.2011,30.97,10.837,30.97,11.5s.2634,1.2989.7322,1.7678c.2289.2289.4976.4088.7899.533L30.5,15.7929l-3.9987-3.9987-.3535.3509L23.01,15.2594zm11.5206-4.8201c.2415.2415.3922.5569.43.893l-1.6583,1.6583c-.3361-.0378-.6515-.1884-.893-.4299-.2813-.2813-.4393-.6629-.4393-1.0607s.158-.7794.4393-1.0607S33.0721,10,33.47,10c.3978,0,.7793.158,1.0606.4393zM23.01,16.6683V18h20.98v-1.2575l-7.4431-5.5823L30.5,17.2071l-.3536-.3535-3.6477-3.6478L23.01,16.6683zM34,8V6h-1v2h1zm-4.0363-.74345,1.42,1.42-.7071.70711-1.42-1.42.7071-.70711zM30,11h-2v1h2v-1zm7.7435-3.03634-1.42,1.42-.7071-.70711,1.42-1.42.7071.70711zM10.1607,10.7664c.6395-.2649,1.3433-.3342,2.0222-.1991.6789.135,1.3026.4683,1.7921.9578s.8228,1.1132.9578,1.7921c.1351.6789.0658,1.3827-.1991,2.0222s-.7135,1.1862-1.2891,1.5707c-.5756.3846-1.2523.5899-1.9445.5899-.9283,0-1.8185-.3687-2.47488-1.0251S8.0001,14.9283,8.0001,14c0-.6922.20527-1.3689.58985-1.9445.38459-.5756.93121-1.0242,1.57075-1.2891zm2.2173-1.17993c-.8729-.17364-1.7777-.08452-2.59998.25607-.82227.34056-1.52507.91736-2.01954,1.65736C7.26402,12.24,7.0001,13.11,7.0001,14l.00016.0384c-.17231-.2862-.40026-.535-.67043-.7316-.27554-.2006-.58919-.3427-.92166-.4176s-.67676-.0811-1.0117-.0181c-.33472.0629-.65304.1936-.93544.384-.44634.2996-.77594.7437-.93337,1.2577-.15738.5138-.13313,1.0661.06866,1.5641l.00047.0011,7.40331,18.4884V45.97h23v-9.582l4.4255,7.7695.0013.0023c.2559.4437.6776.7676,1.1723.9005.4947.1328,1.0219.0637,1.4657-.1921.4437-.2559.7676-.6776.9005-1.1723.1328-.4947.0637-1.0219-.1922-1.4657l-.0004-.0008-5.3355-9.2131c.2063-.3452.3599-.7204.455-1.1134.1401-.5791.1494-1.1823.0272-1.7655l-.0019-.0083c-.2062-.9066-.7174-1.715-1.4481-2.29-.7297-.5742-1.6342-.881-2.5626-.8691h-3.9068V26c0-.5304-.2107-1.0391-.5858-1.4142S26.5305,24,26.0001,24h-8.2169l-2.8544-4.7572-.8574.5144,3,5L17.217,25h8.7831c.2652,0,.5196.1054.7071.2929s.2929.4419.2929.7071v.97H17.226c-.755.0062-1.4994-.1777-2.1647-.5347-.6621-.3553-1.2246-.8707-1.6363-1.4991l-4.13701-7.0174c.66917.3777,1.43011.5812,2.21211.5812.89,0,1.76-.2639,2.5001-.7584.74-.4945,1.3168-1.1973,1.6574-2.0195.3405-.8223.4297-1.7271.256-2.6-.1736-.8729-.6022-1.6747-1.2315-2.3041-.6294-.6293-1.4312-1.0579-2.3041-1.23153zM4.01862,14.0852l-.27851-.4152.2796.4145c.16953-.1144.36064-.1928.5616-.2306.20097-.0378.40754-.0341.60702.0108.19948.045.38767.1302.553.2506.16522.1202.30413.273.4082.4489l.00018.0003,6.41969,10.8894.0057.0097.0061.0094c.5038.7731,1.1941,1.4071,2.0072,1.8434.8125.4361,1.7216.6608,2.6436.6536h14.6849c.7007-.0096,1.3835.2216,1.9342.655.5496.4324.9344,1.0401,1.0905,1.7217.0908.4365.0836.8877-.0213,1.3211-.0833.3443-.2265.6705-.4224.9638l-2.0408,1.3027c-.1511.0235-.3041.0355-.4578.0357H10.8385L3.52427,15.7041l-.46418.1859.46331-.188c-.1158-.2854-.12979-.6019-.03959-.8964.09019-.2944.27905-.5488.53481-.7204zM11.0001,34.97h21v10h-21v-10zm27.2931,8.6902-5.0614-8.8858c.1673-.0542.3313-.1196.4909-.1958.3856-.1841.7383-.4283,1.0455-.7224l5.1387,8.8736.0003.0004c.1232.2139.1564.468.0924.7064-.0641.2385-.2203.4419-.4343.5653-.214.1233-.4682.1567-.7068.0926-.2381-.064-.4412-.2197-.5646-.4332l-.0007-.0011z"/></svg>