<svg width="24" height="24" viewBox="0,0,24,24" xmlns="http://www.w3.org/2000/svg"><path fill-rule="evenodd" clip-rule="evenodd" d="m7.99993,5c-.55229,0-1,.44772-1,1s.44771,1,1,1c.55228,0,1-.44772,1-1s-.44772-1-1-1zm-2,1c0-1.10457.89543-2,2-2s2,.89543,2,2-.89543,2-2,2-2-.89543-2-2zm2.0301,12.6709-4-11.00003.93979-.34174L8.85014,18h7.14976v1H8.14971l-.11968-.3291zM7.70989,9h-.70951l.23864.66817,2.5,7.00003L9.85753,17h6.54657l2.4407,4.7678.8902-.4556-2.58-5.04L17.0156,16h-6.4534l-2.14281-6h.94369l1.37852,3.6852.1215.3248h4.1168v-1h-3.4232l-1.3785-3.68518L10.0567,9H7.70989z"/></svg>