<svg width="24" height="24" xmlns="http://www.w3.org/2000/svg"><path fill-rule="evenodd" clip-rule="evenodd" d="m22.5,0h-21C.675,0,0,.675,0,1.5v21c0,.825.675,1.5,1.5,1.5h21c.825,0,1.5-.675,1.5-1.5v-21c0-.825-.675-1.5-1.5-1.5z" fill="#2d327d"/><path fill-rule="evenodd" clip-rule="evenodd" d="m17.7,7.50745V20.9999h-2.9475v-5.88h-5.52v5.88H6.285V7.50745h2.9475v5.12245h5.52V7.50745H17.7z" fill="#fff"/><path fill-rule="evenodd" clip-rule="evenodd" d="m4.815,3.66744H4.35c-.0075-.1125-.0525-.195-.12-.255s-.1725-.09-.3075-.09c-.1125,0-.2025.0225-.27.0675s-.0975.1125-.0975.195c0,.075.03.1275.09.1575s.21.0825.45.135c.255.06.435.1275.5325.195.18.12.27.285.27.495,0,.2325-.09.42-.2775.5475-.1575.12-.3825.18-.6525.18-.3075,0-.54-.0675-.7125-.21s-.255-.33-.255-.585h.4875c.0075.1275.0375.2175.0975.2775.09.0975.225.1425.405.1425.12,0,.2175-.0225.2925-.075.0825-.0525.12-.1275.12-.225s-.06-.165-.1725-.21c-.06-.0225-.21-.0675-.4425-.135-.1425-.0375-.2625-.075-.345-.1125s-.15-.075-.195-.12c-.1125-.105-.1725-.2475-.1725-.4275,0-.2175.09-.39.27-.51.15-.105.3525-.165.5925-.165.2175,0,.39.045.54.1275.21.1275.3225.3225.3375.6z" fill="#fff"/><path fill-rule="evenodd" clip-rule="evenodd" d="m6.57001,4.98746c.06-.0825.105-.165.1275-.2625h-.435c-.03.075-.075.135-.1275.1725s-.12.0525-.2025.0525c-.1725,0-.285-.0675-.345-.2175-.0225-.0525-.03-.12-.0375-.2025h1.17c0-.2025-.015-.3675-.0675-.495s-.12-.24-.225-.33c-.135-.1275-.3075-.1875-.51-.1875-.2475,0-.45.09-.6075.2775-.1425.165-.21.3675-.21.615,0,.12.015.2475.06.36.045.105.0975.2025.1725.2775.15.1575.3525.24.6.24.2775,0,.4875-.09751.6375-.3zm-.30073-.765c.00026.00248.0005.00498.00073.0075v-.0075h-.00073zm0,0c-.00815-.0791-.02996-.1441-.05177-.195-.03-.0525-.0675-.0975-.12-.1275s-.1125-.045-.1725-.045c-.0975,0-.18.03-.2475.0975s-.105.1575-.1125.27h.70427z" fill="#fff"/><path fill-rule="evenodd" clip-rule="evenodd" d="m7.86,3.56243v.315h-.33v.7875c0,.0975.0075.1575.0225.18.0225.0375.0825.0525.1725.0525.0375,0,.0825,0,.135-.0075v.36c-.0975.015-.195.015-.2775.015-.1275,0-.225-.015-.2925-.045-.105-.045-.165-.1275-.195-.255-.0075-.0525-.015-.1575-.015-.3225v-.7575h-.27v-.315h.27v-.39h.4425v.39H7.86v-.0075z" fill="#fff"/><path fill-rule="evenodd" clip-rule="evenodd" d="m9.06001,3.56243v.315h-.33v.7875c0,.0975.0075.1575.0225.18.0225.0375.0825.0525.1725.0525.0375,0,.0825,0,.135-.0075v.36c-.0975.015-.195.015-.2775.015-.1275,0-.225-.015-.2925-.045-.105-.045-.165-.1275-.195-.255-.0075-.0525-.015-.1575-.015-.3225v-.7575h-.27v-.315h.27v-.39h.4425v.39h.3375v-.0075z" fill="#fff"/><path fill-rule="evenodd" clip-rule="evenodd" d="m10.665,3.7649c-.1575-.1575-.3525-.24-.6-.24-.26998,0-.48749.09-.64499.2625-.14249.165-.2175.3675-.2175.6225s.07501.465.22501.63c.14999.1725.36.255.62248.255.2475,0,.45-.0825.6-.2325.165-.165.2475-.3825.2475-.66,0-.2625-.0825-.48-.2325-.6375zm-.90749.2475c.075-.0975.165-.1425.28499-.1425.1275,0,.225.0525.2925.15.0675.09.105.225.105.39,0,.18-.0375.315-.1125.4125-.0675.0825-.165.1275-.2775.1275-.11999,0-.21749-.0525-.29249-.1425-.0675-.09-.10499-.225-.10499-.3975s.03749-.3.10499-.3975z" fill="#fff"/><path fill-rule="evenodd" clip-rule="evenodd" d="m12.2325,3.53997v.435c-.075-.015-.1275-.0225-.1725-.0225-.165,0-.285.0675-.3675.21-.045.075-.0675.21-.0675.39v.6975h-.45v-1.68h.4275v.3075c.12-.225.3-.345.525-.345.03,0,.0675.0075.105.0075z" fill="#fff"/><path fill-rule="evenodd" clip-rule="evenodd" d="m13.815,4.98746c.06-.0825.105-.165.1275-.2625h-.4275c-.03.075-.075.135-.1275.1725s-.12.0525-.2025.0525c-.1725,0-.285-.0675-.345-.2175-.0225-.0525-.03-.12-.0375-.2025h1.17c0-.2025-.015-.3675-.0675-.495s-.12-.24-.225-.33c-.1425-.1275-.315-.1875-.5175-.1875-.2475,0-.45.09-.6075.2775-.1425.165-.21.3675-.21.615,0,.12.015.2475.06.36.045.105.0975.2025.1725.2775.15.1575.3525.24.6.24.2775,0,.4875-.09751.6375-.3zm-.3007-.765c.0002.00248.0005.00498.0007.0075v-.0075h-.0007zm0,0c-.0082-.0791-.03-.1441-.0518-.195-.03-.0525-.0675-.0975-.12-.1275s-.1125-.045-.1725-.045c-.0975,0-.18.03-.2475.0975s-.105.1575-.1125.27h.7043z" fill="#fff"/></svg>