<svg width="24" height="24" xmlns="http://www.w3.org/2000/svg"><path fill-rule="evenodd" clip-rule="evenodd" d="m22.5,0h-21C.675,0,0,.675,0,1.5v21c0,.825.675,1.5,1.5,1.5h21c.825,0,1.5-.675,1.5-1.5v-21c0-.825-.675-1.5-1.5-1.5z" fill="#2d327d"/><path fill-rule="evenodd" clip-rule="evenodd" d="m12,6.75v1.5h5.25V12h2.25v.75h-2.25v.75h2.25v.75h-2.25v4.5H21v-12h-9zm7.5,3h-.45V8.28h-.525v-.33c.1125,0,.2025-.015.27-.0375s.135-.0525.1875-.0975c.0825-.06.1425-.1725.165-.3225H19.5V9.75z" fill="#fff"/><path fill-rule="evenodd" clip-rule="evenodd" d="m7.5,9v12h9V9h-9zm7.5,7.5H9v-.75h6v.75zm0-1.5H9v-.75h6V15zm0-2.25h-1.62c0-.12.0225-.24.06-.3525s.0975-.2025.165-.285c.0525-.06.12-.12.195-.18s.225-.165.4425-.3225c.105-.075.18-.1425.225-.21s.0675-.1425.0675-.225c0-.0975-.03-.18-.09-.24s-.135-.09-.225-.09c-.2325,0-.3525.165-.36.5025h-.435v-.0525c0-.27.075-.4875.2325-.63.15-.1425.3375-.2175.5775-.2175.21,0,.3825.06.525.18.15.1275.2325.3.2325.525,0,.1875-.06.3525-.18.495-.0375.045-.075.0825-.1125.105-.0375.03-.1275.09-.2775.195-.1425.0975-.24.1725-.3075.225-.06.0525-.12.1125-.1725.18H15v.3975z" fill="#fff"/><path fill-rule="evenodd" clip-rule="evenodd" d="m5.18999,5.24249-.855-2.25h-.5025l-.855,2.25h.5025l.18-.5025h.8325l.18.5025h.5175zm-1.1175-1.7025.3.8475h-.6l.3-.8475z" fill="#fff"/><path fill-rule="evenodd" clip-rule="evenodd" d="m6.855,3.57001v1.68h-.4275v-.2475c-.1275.195-.3075.2925-.54.2925-.2025,0-.3525-.0675-.4575-.2025-.0375-.0525-.0675-.1125-.0825-.1875s-.0225-.165-.0225-.2775v-1.0575h.4425v.9225c0,.0975,0,.165.0075.2025s.015.075.0375.105c.045.075.1275.1125.24.1125.1425,0,.24-.06.3075-.1875.03-.06.045-.1725.045-.33v-.825h.45z" fill="#fff"/><path fill-rule="evenodd" clip-rule="evenodd" d="m8.09249,3.56249v.315H7.7625v.7875c0,.0975.0075.1575.0225.18.0225.0375.0825.0525.1725.0525.0375,0,.0825,0,.135-.0075v.36c-.0975.015-.195.015-.2775.015-.1275,0-.225-.015-.2925-.045-.105-.045-.165-.1275-.195-.255-.0075-.0525-.015-.1575-.015-.3225v-.7575h-.27v-.315h.27v-.39h.4425v.39h.33749v-.0075z" fill="#fff"/><path fill-rule="evenodd" clip-rule="evenodd" d="m9.6975,3.76496c-.1575-.1575-.3525-.24-.6-.24-.27,0-.48.09-.645.2625-.1425.165-.2175.3675-.2175.6225s.075.465.225.63c.15.1725.36.255.6225.255.2475,0,.45-.0825.6-.2325.165-.165.2475-.3825.2475-.66,0-.2625-.0825-.48-.2325-.6375zm-.9075.2475c.075-.0975.165-.1425.285-.1425.1275,0,.2325.0525.2925.15.0675.09.105.225.105.39,0,.18-.0375.315-.1125.4125-.0675.0825-.165.1275-.2775.1275-.12,0-.2175-.0525-.2925-.1425-.0675-.09-.105-.225-.105-.3975s.0375-.3.105-.3975z" fill="#fff"/><path fill-rule="evenodd" clip-rule="evenodd" d="m10.6575,3.57002v.225c.06-.075.1125-.135.165-.1725.0975-.0675.2175-.105.3525-.105.2175,0,.3675.09.4575.2775.135-.1875.3075-.2775.5325-.2775.1725,0,.3075.0525.405.1575s.1425.2475.1425.4425v1.1325H12.27v-.9975c0-.105-.015-.18-.0375-.225-.045-.0825-.12-.12-.225-.12-.135,0-.225.06-.2775.1725-.0225.0525-.0375.1425-.0375.27v.9H11.25v-1.02c0-.0975-.015-.1725-.0375-.2175-.0375-.075-.105-.1125-.21-.1125-.06,0-.12.015-.1725.045s-.09.075-.1125.1275-.0375.1425-.0375.2625v.915h-.4425v-1.68h.42z" fill="#fff"/><path fill-rule="evenodd" clip-rule="evenodd" d="m14.13,5.24998h.4575c-.0106-.03178-.0195-.06355-.0276-.0922-.009-.03221-.017-.06046-.0249-.0803-.0075-.06-.0075-.15-.0075-.27v-.345c.0075-.2025.0075-.315.0075-.3375,0-.1275-.015-.2175-.03-.27s-.0525-.105-.1125-.1575c-.1275-.105-.315-.1575-.5775-.1575-.2325,0-.4125.045-.54.1425-.1275.09-.195.2325-.21.42h.42c.015-.0975.0525-.1575.0975-.195s.12-.0525.225-.0525c.195,0,.2925.0675.2925.2175,0,.0675-.0225.1125-.0675.135s-.15.045-.33.0675c-.21.03-.3525.06-.4275.09-.1875.0825-.285.225-.285.435,0,.165.0525.2925.165.3825.0975.0825.2325.12.405.12.2175,0,.3975-.075.54-.2175,0,.045.0075.0975.03.165zm-.345-.7275c.15-.015.255-.045.315-.0825v.18c0,.0525,0,.105-.015.135-.0024.00486-.0049.00993-.0074.01513-.0129.02684-.0275.05723-.0526.08237-.075.09-.18.135-.315.135-.0825,0-.1425-.0225-.1875-.06s-.0675-.0975-.0675-.165c0-.0825.03-.1425.0975-.18.0525-.0225.1275-.045.2325-.06z" fill="#fff"/><path fill-rule="evenodd" clip-rule="evenodd" d="m15.7875,3.56249v.315h-.33v.7875c0,.0975.0075.1575.0225.18.0225.0375.0825.0525.1725.0525.0375,0,.0825,0,.135-.0075v.36c-.0975.015-.195.015-.2775.015-.1275,0-.225-.015-.2925-.045-.105-.045-.165-.1275-.195-.255-.0075-.0525-.015-.1575-.015-.3225v-.7575h-.27v-.315h.27v-.39h.4425v.39h.3375v-.0075z" fill="#fff"/><path fill-rule="evenodd" clip-rule="evenodd" d="m16.4925,3.405V3H16.05v.405h.4425zm0,1.845V3.57H16.05v1.68h.4425z" fill="#fff"/><path fill-rule="evenodd" clip-rule="evenodd" d="m18.405,4.60496c-.0225.165-.075.3075-.165.42-.1425.18-.3525.27-.615.27-.27,0-.4875-.09-.6375-.2775-.1275-.1575-.195-.3525-.195-.5925,0-.2925.0825-.5175.255-.6825.15-.1425.345-.2175.5775-.2175.2175,0,.3975.06.5325.1725s.2175.27.2325.465h-.435c-.015-.09-.0525-.1575-.1125-.21s-.1275-.075-.2175-.075c-.1275,0-.2175.045-.285.1425s-.105.225-.105.3975c0,.15.03.27.0825.36.0675.1125.165.165.3.165.195,0,.315-.1125.345-.3375h.4425z" fill="#fff"/><path fill-rule="evenodd" clip-rule="evenodd" d="m20.07,3.76496c-.1575-.1575-.3525-.24-.6-.24-.27,0-.4875.09-.645.2625-.1425.165-.2175.3675-.2175.6225s.075.465.225.63c.15.1725.36.255.6225.255.2475,0,.45-.0825.6-.2325.165-.165.2475-.3825.2475-.66,0-.2625-.0825-.48-.2325-.6375zm-.9075.2475c.075-.0975.165-.1425.285-.1425.1275,0,.225.0525.2925.15.0675.09.105.225.105.39,0,.18-.0375.315-.1125.4125-.0675.0825-.165.1275-.2775.1275-.12,0-.2175-.0525-.2925-.1425-.0675-.09-.105-.225-.105-.3975s.0375-.3.105-.3975z" fill="#fff"/></svg>