<svg width="59" height="20" viewBox="0,0,59,20" xmlns="http://www.w3.org/2000/svg"><g clip-path="url(#a)"><path fill-rule="evenodd" clip-rule="evenodd" d="m1.60034,0C.495772,0-.399658.895431-.399658,2v16c0,1.1046.89543,2,1.999998,2H56.6003c1.1046,0,2-.8954,2-2V2c0-1.104569-.8954-2-2-2H1.60034z"/><path d="m4.18612,11.9488c-.03239,2.8597,2.36424,4.1271,4.9228,4.1271,3.14158,0,4.80948-1.5924,4.80948-3.7209,0-2.63223-2.591-3.16842-3.433-3.37965-2.89866-.74742-3.44924-.86116-3.44924-1.75482,0-.9749.93923-1.31611,1.7489-1.31611,1.21451,0,2.20234.35746,2.28324,1.75482h2.4614c0-2.68098-2.2185-3.73712-4.63129-3.73712-2.08895,0-4.32365,1.13738-4.32365,3.50964,0,2.17728,1.7327,2.84344,3.44921,3.29844,1.70031.4549,3.43303.6662,3.43303,1.9173,0,1.1861-1.3603,1.4461-2.25091,1.4461-1.36025,0-2.55857-.6012-2.55857-2.1448h-2.4614zm11.12258,3.8509h2.3804V8.03295h.0324l4.8095,7.76675h2.5423V4.19834h-2.3804v7.78296h-.0324l-4.8256-7.78296h-2.5262V15.7997zM37.1118,4.23486V15.7995h-2.302V8.22949h-2.7119V6.55254c.5622-.01582,1.0208-.07383,1.3756-.17402.3547-.1001.6792-.26368.9735-.49043.4259-.32696.7122-.87803.8594-1.65323h1.8054zm5.0532,5.35518c-.5361-.18457-.9472-.4877-1.2337-.90967-.2866-.42187-.4296-.9334-.4296-1.53457,0-1.00185.4099-1.80078,1.2298-2.39678.7253-.52724,1.5872-.79101,2.5858-.79101,1.1352,0,2.0627.31377,2.7829.94131.683.59062,1.0247,1.32099,1.0247,2.19111,0,.60645-.1445,1.12598-.4335,1.5583-.2891.43242-.699.74629-1.2298.94131.4151.12138.754.27685,1.017.46666.7303.5328,1.0957,1.3105,1.0957,2.3335,0,1.176-.4494,2.112-1.348,2.8081-.7568.5854-1.7293.8781-2.917.8781-1.2877,0-2.3125-.3216-3.0744-.9651-.7938-.6696-1.1905-1.5476-1.1905-2.6341,0-1.0176.3522-1.8061,1.0564-2.3651.3206-.24784.6753-.42187,1.0642-.52206zm2.105.87016c-.5677,0-1.0315.1753-1.3914.526-.3601.3507-.54.8002-.54,1.3487,0,.5643.1824,1.0231.5478,1.3763.3653.3534.8397.53,1.4229.53.6622,0,1.1589-.195,1.49-.5853.3206-.3745.481-.8069.481-1.2973,0-.5589-.1841-1.0177-.552-1.3764-.3521-.348-.8382-.522-1.4583-.522zm.0157-4.70658c-.5045,0-.9119.14111-1.2218.42324-.3103.28213-.4652.65254-.4652,1.11133,0,.47988.1563.86357.4691,1.15097.3126.2874.7317.43106,1.2574.43106.5254,0,.9406-.14239,1.2454-.42715.3049-.28477.4575-.67237.4575-1.16279,0-.47979-.1538-.8543-.4614-1.12325-.3073-.26894-.7344-.40341-1.281-.40341z" fill="#ffde15"/></g><defs><clipPath id="a"><path fill="#fff" d="m0,0h59v20H0z"/></clipPath></defs></svg>