<svg width="59" height="20" viewBox="0,0,59,20" xmlns="http://www.w3.org/2000/svg"><g clip-path="url(#a)"><path fill-rule="evenodd" clip-rule="evenodd" d="m2.40015,0C1.29558,0,.400146.895431.400146,2v16c0,1.1046.895434,2,2.000004,2H57.4001c1.1046,0,2-.8954,2-2V2c0-1.104569-.8954-2-2-2H2.40015z"/><path d="m4.18612,11.9488c-.03239,2.8597,2.36424,4.1271,4.9228,4.1271,3.14158,0,4.80948-1.5924,4.80948-3.7209,0-2.63223-2.591-3.16842-3.433-3.37965-2.89866-.74742-3.44924-.86116-3.44924-1.75482,0-.9749.93923-1.31611,1.7489-1.31611,1.21451,0,2.20234.35746,2.28324,1.75482h2.4614c0-2.68098-2.2185-3.73712-4.63129-3.73712-2.08895,0-4.32365,1.13738-4.32365,3.50964,0,2.17728,1.7327,2.84344,3.44921,3.29844,1.70031.4549,3.43303.6662,3.43303,1.9173,0,1.1861-1.3603,1.4461-2.25091,1.4461-1.36025,0-2.55857-.6012-2.55857-2.1448h-2.4614zm11.12258,3.8509h2.3804V8.03295h.0324l4.8095,7.76675h2.5423V4.19834h-2.3804v7.78296h-.0324l-4.8256-7.78296h-2.5262V15.7997zm23.9788-8.67763h-2.1918c-.2047-.89111-.7093-1.33682-1.5136-1.33682-.8514,0-1.4558.52481-1.813,1.57413-.1473.42714-.2655,1.07314-.3548,1.93798.3468-.46933.7161-.80683,1.1075-1.0125.3915-.20566.8633-.30849,1.4152-.30849,1.0826,0,1.9523.38496,2.6093,1.15488.6254.72773.9382,1.64015.9382,2.73695,0,1.3025-.4204,2.3493-1.2613,3.1403-.7569.7119-1.6661,1.0679-2.7277,1.0679-1.3612,0-2.4201-.5155-3.1769-1.5464-.7568-1.031-1.1353-2.4693-1.1353-4.3151,0-1.97222.4045-3.51724,1.2139-4.63531.7831-1.08096,1.8527-1.62158,3.2087-1.62158,1.2771,0,2.2546.42988,2.9326,1.28935.3889.49571.6385,1.12061.749,1.87471zM35.3851,9.77197c-.5518,0-.9908.23213-1.3166.69613-.2943.4113-.4415.9017-.4415,1.4713,0,.5643.1499,1.0573.4495,1.4792.3258.4694.7725.704,1.3402.704.5518,0,.9958-.2242,1.3322-.6724.3153-.4219.473-.9202.473-1.495,0-.5643-.1417-1.0468-.4255-1.4476-.3469-.4904-.8174-.73563-1.4113-.73563z" fill="#ffde15"/></g><defs><clipPath id="a"><path fill="#fff" d="m0,0h59v20H0z"/></clipPath></defs></svg>