<svg width="36" height="36" xmlns="http://www.w3.org/2000/svg"><path fill-rule="evenodd" clip-rule="evenodd" d="m3.25,6.24951h29.5v6.99999h-.5c-2.2739,0-4,1.7262-4,4,0,2.2739,1.7261,4,4,4h.5v7H3.25V6.24951zm1,1V27.2495h27.5v-5.023c-2.5785-.2395-4.5-2.32-4.5-4.977s1.9215-4.7375,4.5-4.977V7.24951H4.25zm3.46411,7.63559c0-2.2558,1.67712-4.1345,3.84649-4.1345,1.056,0,1.9926.4549,2.6756,1.1734.6818-.7185,1.6175-1.1734,2.6734-1.1734,1.6922,0,3.0893,1.151,3.6152,2.7233l-1.0242.1129c-.4517-1.1044-1.4512-1.8362-2.591-1.8362-.9192,0-1.7356.4804-2.26,1.2489l-.4125.6044-.4132-.604c-.5259-.7687-1.3439-1.2493-2.2633-1.2493-1.5096,0-2.79225,1.2968-2.84481,3.0242-.00112.0366-.00168.0733-.00168.1103,0,.5551.12881,1.0727.35237,1.5212.12843.2568.27826.4867.45261.6857l4.71601,5.1317,4.6956-5.1101c.1266-.1696.3705-.5166.4418-.6507.2399-.4609.3791-.9991.3791-1.5778,0-.3875-.0619-.7554-.1751-1.0938l-.0001-.0001c-.0232-.0694-.0485-.1376-.0758-.2043l1.0242-.1129c.1477.4416.2268.9167.2268,1.4111,0,.7406-.1785,1.4379-.4931,2.0416l-.0015.0029c-.1158.2187-.4244.649-.5423.8052l-.0146.0193-.0163.0178-5.0805,5.529-.3682.4007-.3681-.4007-5.08804-5.5365-.00734-.008h.00009c-.24111-.2741-.43812-.5798-.59981-.9032l-.00026-.0005c-.29238-.5864-.45753-1.2568-.45753-1.9676zm11.78649-1.2982L8.71579,14.7748l10.78481-1.188v.0001zM24.25,7.49951v.4875h1v-.4875h-1zm0,1.4625v.975h1v-.975h-1zm0,1.94999v.975h1v-.975h-1zm0,1.95v.975h1v-.975h-1zm0,1.95v.975h1v-.975h-1zm0,1.95v.975h1v-.975h-1zm0,1.95v.975h1v-.975h-1zm0,1.95v.975h1v-.975h-1zm0,1.95v.975h1v-.975h-1zm0,1.95v.975h1v-.975h-1zM24.25,26.512v.4875h1v-.4875h-1z"/></svg>