<svg width="24" height="24" xmlns="http://www.w3.org/2000/svg"><path fill-rule="evenodd" clip-rule="evenodd" d="m22.5,0h-21C.675,0,0,.675,0,1.5v21c0,.825.675,1.5,1.5,1.5h21c.825,0,1.5-.675,1.5-1.5v-21c0-.825-.675-1.5-1.5-1.5z" fill="#2d327d"/><path fill-rule="evenodd" clip-rule="evenodd" d="m3.375,17.145c.03,0,.06-.0075.09-.015l17.25-4.3125c.165-.045.285-.195.285-.3675V3.84746c0-.4575-.3675-.825-.825-.825-.0675,0-.135.0075-.2025.0225l-16.35,4.17c-.3675.09-.6225.42-.6225.8025V16.77c0,.21.165.375.375.375zM16.6875,5.02496c0-.21.165-.375.375-.375h2.8125c.21,0,.375.165.375.375v4.5c0,.21-.165.375-.375.375h-2.8125c-.21,0-.375-.165-.375-.375v-4.5zm-3.9375.7275c-.21,0-.375.165-.375.375v4.50004c0,.21.165.375.375.375h2.8125c.21,0,.375-.165.375-.375V6.12746c0-.21-.165-.375-.375-.375H12.75zm-4.6875,1.47c0-.21.165-.375.375-.375H11.25c.21,0,.375.165.375.375v4.50004c0,.21-.165.375-.375.375H8.4375c-.21,0-.375-.165-.375-.375V7.22246zm-3.9375.7275c-.21,0-.375.165-.375.375V12.825c0,.21.165.375.375.375h2.8125c.21,0,.375-.165.375-.375V8.32496c0-.21-.165-.375-.375-.375H4.125z" fill="#fff"/><path fill-rule="evenodd" clip-rule="evenodd" d="m21,15.7274-18,4.5v.7725l18-4.5v-.7725z" fill="#fff"/><path fill-rule="evenodd" clip-rule="evenodd" d="m7.17751,17.4c0,.6.4875,1.0875,1.0875,1.0875S9.35251,18,9.35251,17.4s-.4875-1.0875-1.0875-1.0875S7.17751,16.8,7.17751,17.4z" fill="#fff"/><path fill-rule="evenodd" clip-rule="evenodd" d="m4.47,18.135c0,.6.4875,1.0875,1.0875,1.0875S6.645,18.735,6.645,18.135s-.4875-1.0875-1.0875-1.0875-1.0875.48-1.0875,1.0875z" fill="#fff"/><path fill-rule="evenodd" clip-rule="evenodd" d="m14.6175,15.54c0,.6.4875,1.0875,1.0875,1.0875s1.0875-.4875,1.0875-1.0875-.4875-1.0875-1.0875-1.0875-1.0875.4875-1.0875,1.0875z" fill="#fff"/><path fill-rule="evenodd" clip-rule="evenodd" d="m17.3775,14.8575c0,.6.4875,1.0875,1.0875,1.0875s1.0875-.4875,1.0875-1.0875S19.065,13.77,18.465,13.77c-.6.0075-1.0875.4875-1.0875,1.0875z" fill="#fff"/></svg>