<svg width="24" height="24" xmlns="http://www.w3.org/2000/svg"><path fill-rule="evenodd" clip-rule="evenodd" d="m22.5,0h-21C.675,0,0,.675,0,1.5v21c0,.825.675,1.5,1.5,1.5h21c.825,0,1.5-.675,1.5-1.5v-21c0-.825-.675-1.5-1.5-1.5z" fill="#2d327d"/><path fill-rule="evenodd" clip-rule="evenodd" d="m12,11.64h.75v1.5H12v-1.5z" fill="#fff"/><path fill-rule="evenodd" clip-rule="evenodd" d="m5.58,13.7325c.21-.21.495-.33.795-.33h6.4875c.3,0,.585.12.795.33L16.275,16.35l4.3875.3675c.195.015.345.18.345.375v2.3325c0,.21-.165.375-.375.375H20.22v-.435c0-1.245-1.005-2.25-2.25-2.25s-2.25,1.005-2.25,2.25v.435H8.25v-.435c0-1.245-1.005-2.25-2.25-2.25s-2.25,1.005-2.25,2.25v.435h-.375c-.21,0-.375-.165-.375-.375v-2.64c0-.3.12-.585.33-.795l2.25-2.2575zm4.5075.765v1.5375c0,.21.165.375.375.375h4.26c.1275,0,.225-.0975.225-.225,0-.06-.0225-.12-.0675-.1575l-1.7925-1.7925c-.0675-.0675-.165-.1125-.2625-.1125h-2.3625c-.21-.0075-.375.165-.375.375zM9,16.4025H4.515c-.1275,0-.225-.0975-.225-.225,0-.06.0225-.1125.0675-.1575L6.15,14.2275c.0675-.075.165-.1125.2625-.1125H9c.21,0,.375.165.375.375v1.5375c0,.21-.165.375-.375.375z" fill="#fff"/><path fill-rule="evenodd" clip-rule="evenodd" d="m5.985,20.3325c.5175,0,.9375-.42.9375-.9375s-.42-.9375-.9375-.9375-.9375.42-.9375.9375.42.9375.9375.9375zm.0225-2.655c.945,0,1.71.765,1.71,1.71s-.765,1.71-1.71,1.71-1.71-.7725-1.71-1.71c0-.945.765-1.71,1.71-1.71z" fill="#fff"/><path fill-rule="evenodd" clip-rule="evenodd" d="m17.9625,20.3325c.5175,0,.9375-.42.9375-.9375s-.42-.9375-.9375-.9375-.9375.42-.9375.9375.42.9375.9375.9375zm0-2.64c.945,0,1.7025.765,1.7025,1.71s-.765,1.71-1.7025,1.71c-.945,0-1.71-.765-1.71-1.71s.765-1.71,1.71-1.71z" fill="#fff"/><path fill-rule="evenodd" clip-rule="evenodd" d="m4.8525,3v.4125H4.17V5.25h-.4875V3.4125H3V3h1.8525z" fill="#fff"/><path fill-rule="evenodd" clip-rule="evenodd" d="m5.8725,5.25004H6.33c-.0106-.03178-.01953-.06356-.02758-.09221-.00905-.0322-.01698-.06045-.02492-.08029-.0075-.06-.0075-.15-.0075-.27v-.345c.0075-.2025.0075-.315.0075-.3375,0-.1275-.015-.2175-.03-.27s-.0525-.105-.1125-.1575c-.1275-.105-.315-.1575-.5775-.1575-.2325,0-.4125.045-.54.1425-.1275.09-.195.2325-.21.42h.42c.015-.0975.0525-.1575.0975-.195s.12-.0525.225-.0525c.195,0,.2925.0675.2925.2175,0,.0675-.0225.1125-.0675.135s-.15.045-.33.0675c-.21.03-.3525.06-.4275.09-.1875.0825-.285.225-.285.435,0,.165.0525.2925.165.3825.0975.0825.2325.12.405.12.2175,0,.3975-.075.54-.2175,0,.045.0075.0975.03.165zm-.345-.7275c.15-.015.255-.045.315-.0825v.18c0,.0525,0,.105-.015.135-.00244.00487-.00487.00993-.00737.01513-.0129.02684-.0275.05724-.05263.08237-.075.09-.18.135-.315.135-.0825,0-.1425-.0225-.1875-.06s-.0675-.0975-.0675-.165c0-.0825.03-.1425.0975-.18.0525-.0225.1275-.045.2325-.06z" fill="#fff"/><path fill-rule="evenodd" clip-rule="evenodd" d="m8.12999,3.56995-.53249.78.6075.9h-.5175l-.345-.5475-.3375.5475h-.51l.59249-.8925-.54-.7875h.51l.2925.45.285-.45h.495z" fill="#fff"/><path fill-rule="evenodd" clip-rule="evenodd" d="m8.82,3.405V3h-.4425v.405H8.82zm0,1.845V3.57h-.4425v1.68H8.82z" fill="#fff"/></svg>