<svg width="24" height="24" xmlns="http://www.w3.org/2000/svg"><path fill-rule="evenodd" clip-rule="evenodd" d="m22.5,0h-21C.675,0,0,.675,0,1.5v21c0,.825.675,1.5,1.5,1.5h21c.825,0,1.5-.675,1.5-1.5v-21c0-.825-.675-1.5-1.5-1.5z" fill="#2d327d"/><path fill-rule="evenodd" clip-rule="evenodd" d="m19.875,9-1.3125,2.055-4.6875-.18L15,3h-1.845l-2.6325,7.875H4.125C3.5025,10.875,3,11.3775,3,12s.5025,1.125,1.125,1.125h6.3975L13.155,21H15l-1.125-7.875,4.6875-.18L19.875,15H21l-.75-3L21,9h-1.125z" fill="#fff"/></svg>