<svg width="24" height="24" xmlns="http://www.w3.org/2000/svg"><path fill-rule="evenodd" clip-rule="evenodd" d="m22.5,0h-21C.675,0,0,.675,0,1.5v21c0,.825.675,1.5,1.5,1.5h21c.825,0,1.5-.675,1.5-1.5v-21c0-.825-.675-1.5-1.5-1.5z" fill="#2d327d"/><path fill-rule="evenodd" clip-rule="evenodd" d="m3.345,16.7175c-.195.015-.345.18-.345.375v2.3325c0,.21.165.375.375.375h.4125v-.4275c0-1.245,1.005-2.25,2.25-2.25s2.25,1.005,2.25,2.25V19.8H15.75v-.4275c0-1.245,1.005-2.25,2.25-2.25,1.2375,0,2.25,1.005,2.25,2.25V19.8h.375c.21,0,.375-.165.375-.375v-2.6475c0-.3-.12-.585-.33-.795l-2.25-2.25c-.21-.21-.495-.33-.795-.33h-6.4875c-.3,0-.585.12-.795.33l-2.61,2.6175-4.3875.3675zm11.28-.6825v-1.5375c0-.21.165-.375.375-.375h2.5875c.0975,0,.195.0375.2625.1125l1.7925,1.7925c.0375.045.0675.0975.0675.1575,0,.1275-.0975.225-.225.225H15c-.2025-.0075-.375-.1725-.375-.375zm-5.5725.1425c0,.1275.0975.225.225.225h4.26c.21,0,.375-.1725.375-.375V14.49c0-.2025-.165-.375-.375-.375H11.175c-.0975,0-.195.045-.2625.1125L9.12,16.02c-.045.0375-.0675.0975-.0675.1575z" fill="#fff"/><path fill-rule="evenodd" clip-rule="evenodd" d="m17.9925,20.22c-.5175,0-.9375-.42-.9375-.9375s.42-.9375.9375-.9375.9375.42.9375.9375-.42.9375-.9375.9375zm0-2.64c-.9375,0-1.71.765-1.71,1.71s.765,1.71,1.71,1.71,1.71-.765,1.71-1.71-.765-1.71-1.71-1.71z" fill="#fff"/><path fill-rule="evenodd" clip-rule="evenodd" d="m6.0375,20.22c-.5175,0-.9375-.42-.9375-.9375s.42-.9375.9375-.9375.9375.42.9375.9375-.42.9375-.9375.9375zm0-2.64c-.945,0-1.71.765-1.71,1.71s.765,1.71,1.71,1.71,1.71-.765,1.71-1.71c-.0075-.945-.7725-1.71-1.71-1.71z" fill="#fff"/><path fill-rule="evenodd" clip-rule="evenodd" d="m5.01,3-.75,2.25h-.555L2.97,3h.51l.5025,1.6875L4.4925,3H5.01z" fill="#fff"/><path fill-rule="evenodd" clip-rule="evenodd" d="m6.45,4.98746c.06-.0825.105-.165.1275-.2625h-.435c-.03.075-.075.135-.1275.1725s-.12.0525-.2025.0525c-.1725,0-.285-.0675-.345-.2175-.0225-.0525-.03-.12-.0375-.2025H6.6c0-.2025-.0225-.3675-.0675-.495-.0525-.1275-.12-.24-.225-.33-.135-.1275-.3075-.1875-.51-.1875-.2475,0-.45.09-.6075.2775-.1425.165-.21.3675-.21.615,0,.12.015.2475.06.36.045.105.0975.2025.1725.2775.15.1575.3525.24.6.24.2775,0,.4875-.09751.6375-.3zm-.30073-.765c.00026.00248.0005.00498.00073.0075v-.0075h-.00073zm0,0c-.00815-.0791-.02996-.1441-.05177-.195-.03-.0525-.0675-.0975-.12-.1275s-.1125-.045-.1725-.045c-.0975,0-.18.03-.2475.0975s-.105.1575-.1125.27h.70427z" fill="#fff"/><path fill-rule="evenodd" clip-rule="evenodd" d="m7.9125,3.53997v.435c-.075-.015-.1275-.0225-.1725-.0225-.165,0-.285.0675-.3675.21-.045.075-.0675.21-.0675.39v.6975h-.4425v-1.68H7.29v.3075c.12-.225.3-.345.525-.345.03,0,.06.0075.0975.0075z" fill="#fff"/><path fill-rule="evenodd" clip-rule="evenodd" d="m8.55,3.56996v.225c.06-.075.1125-.135.165-.1725.0975-.0675.2175-.105.3525-.105.2175,0,.3675.09.4575.2775.135-.1875.3075-.2775.5325-.2775.1725,0,.3075.0525.405.1575s.1425.2475.1425.4425v1.1325h-.4425v-.9975c0-.105-.015-.18-.0375-.225-.045-.0825-.12-.12-.225-.12-.135,0-.225.06-.2775.1725-.0225.0525-.0375.1425-.0375.27v.9h-.4425v-1.02c0-.0975-.015-.1725-.0375-.2175-.0375-.075-.105-.1125-.21-.1125-.06,0-.12.015-.1725.045s-.09.075-.1125.1275-.0375.1425-.0375.2625v.915H8.13v-1.68h.42z" fill="#fff"/><path fill-rule="evenodd" clip-rule="evenodd" d="m11.4225,3.405V3H10.98v.405h.4425zm0,1.845V3.57H10.98v1.68h.4425z" fill="#fff"/><path fill-rule="evenodd" clip-rule="evenodd" d="m13.17,4.98746c.06-.0825.105-.165.1275-.2625h-.435c-.03.075-.075.135-.1275.1725s-.12.0525-.2025.0525c-.1725,0-.285-.0675-.345-.2175-.0225-.0525-.03-.12-.0375-.2025h1.1775c0-.2025-.015-.3675-.0675-.495s-.12-.24-.225-.33c-.1425-.1275-.315-.1875-.5175-.1875-.2475,0-.45.09-.6075.2775-.1425.165-.21.3675-.21.615,0,.12.015.2475.06.36.045.105.0975.2025.1725.2775.15.1575.3525.24.6.24.2775,0,.4875-.09751.6375-.3zm-.3007-.765c.0002.00248.0005.00498.0007.0075v-.0075h-.0007zm0,0c-.0082-.0791-.03-.1441-.0518-.195-.03-.0525-.0675-.0975-.12-.1275s-.1125-.045-.1725-.045c-.0975,0-.18.03-.2475.0975s-.105.1575-.1125.27h.7043z" fill="#fff"/><path fill-rule="evenodd" clip-rule="evenodd" d="m14.4675,3.56255v.315h-.33v.7875c0,.0975.0075.1575.0225.18.0225.0375.0825.0525.1725.0525.0375,0,.0825,0,.135-.0075v.36c-.0975.015-.195.015-.2775.015-.1275,0-.225-.015-.2925-.045-.105-.045-.165-.1275-.195-.255-.0075-.0525-.015-.1575-.015-.3225v-.7575h-.27v-.315h.27v-.39h.4425v.39h.3375v-.0075z" fill="#fff"/><path fill-rule="evenodd" clip-rule="evenodd" d="m16.215,3.56995v1.68h-.4275v-.2475c-.1275.195-.3075.2925-.54.2925-.2025,0-.3525-.0675-.4575-.2025-.0375-.0525-.0675-.1125-.0825-.1875-.015-.0675-.0225-.165-.0225-.2775v-1.0575h.4425v.9225c0,.0975,0,.165.0075.2025s.015.075.0375.105c.045.075.1275.1125.24.1125.1425,0,.24-.06.3075-.1875.03-.06.045-.1725.045-.33v-.825h.45z" fill="#fff"/><path fill-rule="evenodd" clip-rule="evenodd" d="m16.98,3.56996v.2325c.0525-.075.0975-.1275.1425-.1575.1125-.0825.2475-.1275.3975-.1275.135,0,.255.0375.3525.105.075.0525.1275.1275.1575.21s.045.2025.045.36v1.0575h-.4425v-.96c0-.105-.0075-.1875-.03-.24-.015-.045-.045-.0825-.09-.105-.045-.03-.105-.045-.165-.045-.0675,0-.1275.015-.1875.0525-.0525.03-.0975.075-.12.135-.03.06-.045.165-.045.3v.8625h-.4425v-1.68h.4275z" fill="#fff"/><path fill-rule="evenodd" clip-rule="evenodd" d="m19.995,5.04751v-1.4775l-.42-.015v.225c-.06-.0975-.1275-.165-.2025-.21-.075-.0375-.165-.06-.2775-.06-.2175,0-.39.0825-.525.24-.1275.1575-.1875.36-.1875.615s.06.4575.1875.6075.2925.225.5025.225c.2175,0,.3825-.0825.495-.2625v.21c0,.1425-.0225.2475-.0675.3075-.06.0825-.1575.12-.3.12-.18,0-.2925-.0675-.3225-.21h-.45c.045.3525.3.525.765.525.3375,0,.57-.105.6975-.3075.0375-.0675.0675-.135.0825-.2175s.0225-.18.0225-.315zm-1.095-1.005c.0675-.105.1575-.1575.285-.1575.1125,0,.2025.0375.2625.1125.0825.09.12.21.12.3675,0,.1275-.0225.24-.075.3225-.0675.1125-.165.165-.3.165-.105,0-.1875-.0375-.255-.1125-.075-.09-.1125-.21-.1125-.375,0-.135.0225-.24.075-.3225z" fill="#fff"/></svg>