<svg width="36" height="36" xmlns="http://www.w3.org/2000/svg"><path fill-rule="evenodd" clip-rule="evenodd" d="m25.0609,12.25H25.5c.3687,0,.702.1202.9384.3794.2293.2512.3116.5722.3116.8706v3c0,.3518-.1164.6785-.3638.9161-.2442.2345-.5654.3339-.8862.3339h-3.1013c-.1997.4261-.445.8209-.7297,1.1747,4.5784,2.3896,6.5803,7.3108,6.5803,11.8248v.5H7.74927v-.5c0-5.1076,2.46693-9.6994,6.57923-11.8279-.4835-.6019-.8533-1.322-1.0785-2.1131v.9415H10.5c-.3308,0-.63753-.1494-.85673-.359-.22229-.2126-.39327-.5247-.39327-.891v-2.991c0-.3613.16597-.6742.38584-.89.21754-.2134.52576-.369.86416-.369h.308c1.9161-8.08047,12.6996-7.8116,14.2529,0zm-1.0227,0H22.75v.9414c-.6436-2.2605-2.4679-3.94144-4.75-3.94144s-4.1065,1.68094-4.75,3.94144V12.25h-1.4108c1.8076-6.77289,10.7318-6.45259,12.199,0zM18,10.25c-2.1657,0-4,2.0382-4,4.75,0,2.7117,1.8343,4.75,4,4.75,1.3336,0,2.5416-.7729,3.2729-2H18v-1h3.7264C21.9027,16.2135,22,15.6246,22,15c0-2.7118-1.8343-4.75-4-4.75zm0,10.5c1.1154,0,2.1214-.4016,2.9337-1.0761,4.1828,2.0349,6.1617,6.3763,6.3069,10.5756H8.75766c.15854-4.7107,2.55254-8.7788,6.30664-10.5772.8126.6755,1.8194,1.0777,2.9357,1.0777zm-7.75-7.241c0-.0483.0238-.1149.0863-.1762.0648-.0637.1316-.0828.1637-.0828h1.75v3.5H10.5c-.0322,0-.1005-.0195-.1655-.0817-.062-.0592-.0845-.1221-.0845-.1683v-2.991zm13.5,3.241h1.75c.1187,0,.1725-.035.1935-.0551.0177-.017.0565-.0653.0565-.1949v-3c0-.1246-.0339-.1787-.0503-.1967-.0092-.0101-.0509-.0533-.1997-.0533h-1.75v3.5z"/></svg>