<svg width="24" height="24" viewBox="0,0,24,24" xmlns="http://www.w3.org/2000/svg"><path fill-rule="evenodd" clip-rule="evenodd" d="m18.3645,4.42611-.0661-.44227-.4469.0165c-3.4647.12795-5.975,1.03712-7.7711,2.38104C8.28444,7.72525,7.24104,9.47504,6.6606,11.2183c-.57895,1.7388-.70048,3.4788-.65279,4.832.02389.6779.09046,1.2647.16582,1.7132.03764.224.07802.4168.11742.5714.01099.0432.02266.0865.03506.1287-.63599,1.0799-1.22872,2.187-1.77631,3.3186l.90016.4356c.53303-1.1016,1.10979-2.1793,1.72845-3.2308,3.31409-.1666,5.71779-1.0596,7.44249-2.3643,1.7746-1.3426,2.7899-3.0904,3.3512-4.8305,1.0553-3.27155.5208-6.57192.4072-7.27292-.0064-.03944-.0114-.07066-.0148-.09317zM7.81246,17.942c2.79404-.2389,4.78524-1.0427,6.20514-2.1168,1.5775-1.1934,2.4903-2.7512,3.0028-4.3399.8601-2.66659.5802-5.37502.424-6.46448-3.0688.17987-5.2361,1.01738-6.7648,2.16123C9.07806,8.38037,8.13896,9.94371,7.60939,11.5342c-.53104,1.5949-.64701,3.2093-.6022,4.4808.01562.4433.05069.8421.09363,1.1803,2.23703-3.5331,4.94828-6.7529,8.06398-9.56639l.6702.74218c-3.1104,2.80861-5.8087,6.03111-8.02254,9.57091z"/></svg>