<svg width="24" height="24" xmlns="http://www.w3.org/2000/svg"><path fill-rule="evenodd" clip-rule="evenodd" d="m22.5,0h-21C.675,0,0,.675,0,1.5v21c0,.825.675,1.5,1.5,1.5h21c.825,0,1.5-.675,1.5-1.5v-21c0-.825-.675-1.5-1.5-1.5z" fill="#2d327d"/><path fill-rule="evenodd" clip-rule="evenodd" d="m4.8975,3v2.25h-.495L3.465,3.72l.0075,1.53H3V3h.5025L4.44,4.53,4.4325,3h.465z" fill="#fff"/><path fill-rule="evenodd" clip-rule="evenodd" d="m6.70499,3.76502c-.1575-.1575-.3525-.24-.6-.24-.27,0-.48.09-.645.2625-.1425.165-.2175.3675-.2175.6225s.075.465.225.63c.15.1725.36.255.6225.255.2475,0,.45-.0825.6-.2325.165-.165.2475-.3825.2475-.66,0-.2625-.0825-.48-.2325-.6375zm-.9075.2475c.075-.0975.165-.1425.285-.1425.1275,0,.2325.0525.2925.15001.0675.08999.105.22499.105.39,0,.18-.0375.31499-.1125.41249-.0675.0825-.165.1275-.2775.1275-.12,0-.2175-.0525-.2925-.1425-.0675-.09-.105-.225-.105-.3975s.0375-.3.105-.3975z" fill="#fff"/><path fill-rule="evenodd" clip-rule="evenodd" d="m7.68001,3v2.25h-.4425V3h.4425z" fill="#fff"/><path fill-rule="evenodd" clip-rule="evenodd" d="m9.4275,4.98746c.06-.0825.105-.165.1275-.2625h-.4275c-.03.075-.075.135-.1275.1725s-.12.0525-.2025.0525c-.1725,0-.285-.0675-.345-.2175-.0225-.0525-.03-.12-.0375-.2025h1.17c0-.2025-.015-.3675-.0675-.495s-.12-.24-.225-.33c-.1425-.1275-.315-.1875-.5175-.1875-.2475,0-.45.09-.6075.2775-.1425.165-.21.3675-.21.615,0,.12.015.2475.06.36.045.105.0975.2025.1725.2775.15.1575.3525.24.6.24.2775,0,.4875-.09751.6375-.3zm-.30072-.765c.00025.00248.0005.00498.00072.0075v-.0075h-.00072zm0,0c-.00815-.0791-.02996-.1441-.05178-.195-.03-.0525-.06749-.0975-.12-.1275-.0525-.03-.1125-.045-.1725-.045-.0975,0-.18.03-.2475.0975s-.105.1575-.1125.27h.70428z" fill="#fff"/><path fill-rule="evenodd" clip-rule="evenodd" d="m11.4225,5.04751v-1.4775l-.42-.015v.225c-.06-.0975-.1275-.165-.2025-.21-.075-.0375-.165-.06-.2775-.06-.2175,0-.39.0825-.525.24-.1275.1575-.1875.36-.1875.615s.06.4575.1875.6075.2925.225.5025.225c.2175,0,.3825-.0825.495-.2625v.21c0,.1425-.0225.2475-.0675.3075-.06.0825-.1575.12-.3.12-.18,0-.2925-.0675-.3225-.21h-.45c.045.3525.3.525.765.525.3375,0,.57-.105.6975-.3075.0375-.0675.0675-.1425.0825-.2175.015-.0825.0225-.18.0225-.315zm-1.095-1.005c.0675-.105.1575-.1575.285-.1575.1125,0,.2025.0375.2625.1125.0825.09.12.21.12.3675,0,.1275-.0225.24-.075.3225-.0675.1125-.165.165-.3.165-.105,0-.1875-.0375-.255-.1125-.075-.09-.1125-.21-.1125-.375,0-.135.0225-.24.075-.3225z" fill="#fff"/><path fill-rule="evenodd" clip-rule="evenodd" d="m13.35,5.04751v-1.4775l-.42-.015v.225c-.06-.0975-.1275-.165-.2025-.21-.075-.0375-.165-.06-.2775-.06-.2175,0-.39.0825-.525.24-.1275.1575-.1875.36-.1875.615s.06.4575.1875.6075.2925.225.5025.225c.2175,0,.3825-.0825.495-.2625v.21c0,.1425-.0225.2475-.0675.3075-.06.0825-.1575.12-.3.12-.18,0-.2925-.0675-.3225-.21h-.45c.045.3525.3.525.765.525.3375,0,.57-.105.6975-.3075.0375-.0675.0675-.1425.0825-.2175.015-.0825.0225-.18.0225-.315zm-1.095-1.005c.0675-.105.1575-.1575.285-.1575.1125,0,.2025.0375.2625.1125.0825.09.12.21.12.3675,0,.1275-.0225.24-.075.3225-.0675.1125-.165.165-.3.165-.105,0-.1875-.0375-.255-.1125-.075-.09-.1125-.21-.1125-.375,0-.135.0225-.24.075-.3225z" fill="#fff"/><path fill-rule="evenodd" clip-rule="evenodd" d="m14.1675,3.405V3h-.4425v.405h.4425zm0,1.845V3.57h-.4425v1.68h.4425z" fill="#fff"/><path fill-rule="evenodd" clip-rule="evenodd" d="m15.93,3.76502c-.1575-.1575-.3525-.24-.6-.24-.27,0-.4875.09-.645.2625-.1425.165-.2175.3675-.2175.6225s.075.465.225.63c.15.1725.36.255.6225.255.2475,0,.45-.0825.6-.2325.165-.165.2475-.3825.2475-.66,0-.2625-.0825-.48-.2325-.6375zm-.9075.2475c.075-.0975.165-.1425.285-.1425.1275,0,.225.0525.2925.15001.0675.08999.105.22499.105.39,0,.18-.0375.31499-.1125.41249-.0675.0825-.165.1275-.2775.1275-.12,0-.2175-.0525-.2925-.1425-.0675-.09-.105-.225-.105-.3975s.0375-.3.105-.3975z" fill="#fff"/><path fill-rule="evenodd" clip-rule="evenodd" d="m13.9875,11.7975,1.8075.63c.0375.015.0825.0225.12.0225.1275,0,.24-.06.3075-.165l.405-.6c.03-.0525.0525-.105.0525-.165,0-.165-.135-.3-.3-.3h-2.3025c-.165,0-.3.135-.3.3.0075.12.09.2325.21.2775z" fill="#fff"/><path fill-rule="evenodd" clip-rule="evenodd" d="m7.65001,11.8125H10.275v-.6H7.65001c-.165,0-.3.135-.3.3s.135.3.3.3z" fill="#fff"/><path fill-rule="evenodd" clip-rule="evenodd" d="m7.64999,12.7874h.375c.165,0,.3-.135.3-.3s-.135-.3-.3-.3h-.375c-.165,0-.3.135-.3.3s.135.3.3.3z" fill="#fff"/><path fill-rule="evenodd" clip-rule="evenodd" d="m15.645,14.0549c.5175-.2625,1.095-.405,1.68-.405,2.025,0,3.675,1.6425,3.675,3.675,0,2.025-1.6425,3.675-3.675,3.675-1.8975,0-3.4875-1.4475-3.66-3.3375h-.78c-.165.345-.5025.5625-.885.5625-.54,0-.975-.435-.975-.975,0-.2175.075-.4275.21-.6l-1.965-2.925-.405.645c.9375.6975,1.485,1.7925,1.485,2.955,0,2.025-1.65,3.675-3.675,3.675-2.0325,0-3.675-1.65-3.675-3.675,0-2.0325,1.6425-3.675,3.675-3.675.585,0,1.1625.135,1.68.405l.72-1.155h5.85l.72,1.155zm-8.97,6.345c1.695,0,3.075-1.38,3.075-3.075,0-.96-.4425-1.86-1.2-2.4375l-1.62,2.595c-.0525.09-.15.1425-.255.1425-.165,0-.3-.135-.3-.3,0-.0525.015-.1125.045-.1575l1.62-2.6025c-.4275-.21-.8925-.315-1.365-.315-1.695,0-3.075,1.38-3.075,3.075s1.38,3.075,3.075,3.075zm5.595-4.0875c-.09-.0225-.18-.0375-.27-.0375s-.18.015-.27.0375l-1.89-2.8125h4.32l-1.89,2.8125zM12.9525,17.0624h.705c.075-1.0725.615-2.055,1.4775-2.6925l-.405-.645-1.965,2.925c.09.12.1575.2625.1875.4125zm2.4975-2.175,1.3575,2.175h-2.55c.075-.8625.51-1.65,1.1925-2.175zm-1.185,2.775c.1725,1.56,1.4925,2.7375,3.06,2.7375,1.695,0,3.075-1.38,3.075-3.075s-1.38-3.075-3.075-3.075c-.4725,0-.945.105-1.365.315l1.3425,2.16h.0225c.33,0,.6.27.6.6s-.27.6-.6.6c-.195,0-.3825-.0975-.495-.2625h-2.565z" fill="#fff"/></svg>