<svg width="48" height="48" xmlns="http://www.w3.org/2000/svg"><path fill-rule="evenodd" clip-rule="evenodd" d="m24.501,11.4987v-6h-1v6h1zm-12.876-1.0819,4.243,4.243-.7071.7072-4.243-4.243.7071-.7072zM5.99854,22.9987h5.99996v1H5.99854v-1zm4.07786,14.001H14v-13c0-5.5221,4.4768-10,10-10s10,4.4779,10,10v13h3.9236l.0696.4178,1,6,.097.5822H8.90977l.09703-.5822,1-6,.0696-.4178zm22.9236,0v-13c0-4.9699-4.0292-9-9-9s-9,4.0301-9,9v13h6.0009L21,29.9998v-.0005c.0012-1.6558,1.3438-2.9986,3-2.9986,1.6571,0,3,1.3429,3,3v.0041l-.0009,6.9949H33zm-11-6.9998.0009,6.9998h3.9982L26,30.0047v-.004c0-1.1049-.8951-2-2-2-1.1037,0-1.9991.895-2,1.9992zM10.9236,37.9997l-.8334,5h27.8196l-.8334-5H10.9236zm13.0764-21c-3.8661,0-7,3.1339-7,7h1c0-3.3139,2.6861-6,6-6v-1zm18.001,7.001h-6v-1h6v1zM32.8398,15.368l4.243-4.242-.707-.7072-4.243,4.242.707.7072z"/></svg>