<svg width="24" height="24" viewBox="0,0,24,24" xmlns="http://www.w3.org/2000/svg"><path fill-rule="evenodd" clip-rule="evenodd" d="m4,2h16v20.0001H4V2zm1,1v4h14V3H5zm14,5H5v13.0001h14V8zM8.01244,15.3177C8.17437,17.3783,9.8978,19,12,19c1.9073,0,3.5029-1.335,3.9032-3.1215-.3104-.1373-.5133-.3628-.6592-.525l-.0168-.0187C14.999,15.0817,14.907,15,14.6971,15s-.3019.0817-.5301.3348l-.0168.0187c-.2238.2487-.5817.6465-1.256.6465-.6739,0-1.0315-.3981-1.2548-.6467l-.0169-.0188c-.2279-.2533-.3195-.3345-.5283-.3345-.2073,0-.2983.0806-.5259.3341l-.017.0189c-.2226.2484-.57972.647-1.25293.647-.67363,0-1.03103-.3983-1.25406-.6468l-.01693-.0189c-.00504-.0056-.01003-.0111-.01494-.0166zm7.97536-.6327c-.0059-.0065-.0118-.0131-.0179-.0198l-.0168-.0187c-.2238-.2487-.5816-.6465-1.256-.6465s-1.0322.3978-1.256.6465l-.0168.0187c-.2282.2531-.3202.3348-.5301.3348-.2089,0-.3005-.0812-.5284-.3345l-.0169-.0188c-.2233-.2486-.5808-.6467-1.2547-.6467-.6732,0-1.0304.3986-1.25299.647l-.01698.0189c-.22758.2535-.31855.3341-.52586.3341-.20826,0-.2996-.081-.52739-.3343l-.01693-.0189c-.14531-.1619-.34767-.3874-.65736-.5249C8.4969,12.3352,10.0925,11,12,11c2.1031,0,3.8271,1.6231,3.9878,3.685zM6,5c0-.55228.44772-1,1-1s1,.44772,1,1-.44772,1-1,1-1-.44772-1-1zm9.0005,0h3V4h-3v1zM13,5h-3V4h3v1zm-1,5c-2.76142,0-5,2.2386-5,5s2.23858,5,5,5c2.7614,0,5-2.2386,5-5s-2.2386-5-5-5z"/></svg>