<svg width="48" height="48" viewBox="0,0,48,48" xmlns="http://www.w3.org/2000/svg"><path fill-rule="evenodd" clip-rule="evenodd" d="m34.9868,9.99998c0-1.66466,1.3495-3.01414,3.0142-3.01414,1.6646,0,3.0141,1.34948,3.0141,3.01414h-1.0283c0-1.09675-.8891-1.98585-1.9858-1.98585-1.0968,0-1.9859.8891-1.9859,1.98585V27.8636c.3695.0857.7962.1364,1.3132.1364,1.5295,0,2.269-.4434,3.0742-.9261l.0046-.0027C41.268,26.555,42.1966,26,44,26v1c-1.5295,0-2.269.4433-3.0742.9261l-.0045.0027C40.0603,28.445,39.1317,29,37.3283,29s-2.732-.555-3.5929-1.0712l-.0046-.0027C32.9256,27.4433,32.1861,27,30.6566,27c-1.5283,0-2.2671.4433-3.0718.926l-.0045.0027C26.7199,28.4449,25.7919,29,23.9895,29c-1.8011,0-2.7284-.5552-3.5881-1.0714l-.0045-.0027C19.593,27.4432,18.8549,27,17.3282,27c-1.5278,0-2.2663.4432-3.0707.926l-.0045.0027C13.3929,28.4449,12.4651,29,10.6632,29c-1.80146,0-2.72906-.5551-3.58894-1.0713l-.00452-.0027C6.26557,27.4432,5.52726,27,4,27v-1c1.80148,0,2.72908.5551,3.58896,1.0713l.00452.0027c.80417.4828,1.54248.926,3.06972.926,1.5277,0,2.2663-.4433,3.0707-.926l.0045-.0027C14.5985,26.5551,15.5263,26,17.3282,26c1.801,0,2.7284.5551,3.588,1.0713l.0045.0027c.804.4828,1.542.926,3.0688.926,1.4808,0,2.2204-.4161,2.9968-.8811V9.99998c0-1.66466,1.3495-3.01414,3.0142-3.01414s3.0141,1.34948,3.0141,3.01414h-1.0283c0-1.09675-.8891-1.98585-1.9858-1.98585-1.0968,0-1.9859.8891-1.9859,1.98585v5.01022h6.9722V9.99998zm-6.9722,5.98982v5.0204h6.9722v-5.0204h-6.9722zm0,6v4.5572c.6569-.3091,1.4621-.547,2.642-.547,1.8034,0,2.732.555,3.593,1.0712l.0045.0027h.0001c.2424.1454.4788.2871.7326.4143v-5.4984h-6.9722zM7.06974,32.926C6.26557,32.4432,5.52726,32,4,32v-1c1.80148,0,2.72908.5551,3.58896,1.0713l.00452.0027c.80417.4828,1.54248.926,3.06972.926,1.5277,0,2.2663-.4433,3.0707-.926l.0045-.0027C14.5985,31.5551,15.5263,31,17.3282,31c1.801,0,2.7284.5551,3.588,1.0713l.0045.0027c.804.4828,1.542.926,3.0688.926,1.5283,0,2.2671-.4433,3.0718-.926l.0045-.0028C27.9262,31.555,28.8542,31,30.6566,31c1.8034,0,2.732.555,3.593,1.0712l.0045.0027c.8052.4827,1.5447.9261,3.0742.9261s2.269-.4434,3.0742-.9261l.0046-.0027C41.268,31.555,42.1966,31,44,31v1c-1.5295,0-2.269.4433-3.0742.9261l-.0045.0027C40.0603,33.445,39.1317,34,37.3283,34s-2.732-.555-3.5929-1.0712l-.0046-.0027C32.9256,32.4433,32.1861,32,30.6566,32c-1.5283,0-2.2671.4433-3.0718.926l-.0045.0027C26.7199,33.4449,25.7919,34,23.9895,34c-1.8011,0-2.7284-.5552-3.5881-1.0714l-.0045-.0027C19.593,32.4432,18.8549,32,17.3282,32c-1.5278,0-2.2663.4432-3.0707.926l-.0045.0027C13.3929,33.4449,12.4651,34,10.6632,34c-1.80146,0-2.72906-.5551-3.58894-1.0713l-.00452-.0027zM4,37.0005c1.52726,0,2.26557.4432,3.06974.9259l.00452.0028c.85988.5162,1.78748,1.0713,3.58894,1.0713,1.8019,0,2.7297-.5551,3.5898-1.0713l.0045-.0027c.8044-.4828,1.5429-.926,3.0707-.926,1.5267,0,2.2648.4432,3.0687.9259l.0045.0027c.8597.5162,1.787,1.0714,3.5881,1.0714,1.8024,0,2.7304-.5551,3.5908-1.0713l.0045-.0027c.8047-.4828,1.5435-.926,3.0718-.926,1.5295,0,2.269.4433,3.0742.9261l.0046.0027c.8609.5162,1.7895,1.0712,3.5929,1.0712s2.732-.555,3.593-1.0712l.0045-.0027c.8052-.4828,1.5447-.9261,3.0742-.9261v-1c-1.8034,0-2.732.555-3.5929,1.0711l-.0046.0028c-.8052.4827-1.5447.9261-3.0742.9261s-2.269-.4434-3.0742-.9261l-.0045-.0028c-.861-.5161-1.7896-1.0711-3.593-1.0711-1.8024,0-2.7304.555-3.5908,1.0712l-.0045.0027c-.8047.4828-1.5435.9261-3.0718.9261-1.5268,0-2.2648-.4432-3.0688-.926l-.0045-.0027c-.8596-.5162-1.787-1.0713-3.588-1.0713-1.8019,0-2.7297.5551-3.5898,1.0713l-.0045.0027c-.8044.4827-1.543.926-3.0707.926-1.52724,0-2.26555-.4432-3.06972-.926l-.00452-.0027C6.72908,36.5556,5.80148,36.0005,4,36.0005v1z"/></svg>