<svg width="24" height="24" viewBox="0,0,24,24" xmlns="http://www.w3.org/2000/svg"><path fill-rule="evenodd" clip-rule="evenodd" d="m13,5c0-1.10457.8954-2,2-2s2,.89543,2,2h-1c0-.55229-.4477-1-1-1s-1,.44771-1,1v2h4.0005V5c0-1.10457.8954-2,2-2s2,.89543,2,2h-1c0-.55229-.4477-1-1-1s-1,.44771-1,1v9.9574c.3677-.1011.6125-.3775.9466-.7778l.0248-.0298C20.3775,13.6633,20.9304,13,22,13v1c-.5774,0-.8585.3091-1.2852.8204l-.0248.0298C20.2844,15.3367,19.7315,16,18.6619,16s-1.6225-.6633-2.0281-1.1498l-.0249-.0298c-.4266-.5113-.7077-.8204-1.2851-.8204-.5758,0-.8562.3086-1.2823.8201l-.0249.0299c-.4048.4864-.9571,1.15-2.0256,1.15-1.0683,0-1.6205-.6637-2.02514-1.15l-.02497-.03c-.42603-.5115-.7063-.82-1.28177-.82-.57532,0-.85553.3085-1.28152.82l-.02497.03c-.40457.4863-.9567,1.15-2.02495,1.15-1.06749,0-1.61918-.6639-2.02319-1.1501l-.02503-.0301C2.85384,14.3082,2.57414,14,2,14v-1c1.06749,0,1.61918.6639,2.02319,1.1501l.02503.0301c.42562.5116.70532.8198,1.27946.8198.57532,0,.85553-.3085,1.28152-.82l.02497-.03c.40457-.4863.9567-1.15,2.02495-1.15,1.06835,0,1.62048.6637,2.02518,1.15l.0249.03c.4261.5115.7064.82,1.2818.82.4448,0,.7134-.1842,1.009-.5039V5zm5.0005,9.8078V11H14v2.4378c.3319-.2495.7546-.4378,1.3238-.4378,1.0696,0,1.6225.6633,2.028,1.1498l.0249.0298c.2269.272.4127.4867.6238.6282zm0-4.8078V8H14v2h4.0005zM2,18.0005c.57414,0,.85384.3081,1.27946.8198l.02503.0301c.40401.4862.9557,1.1501,2.02319,1.1501,1.06825,0,1.62038-.6637,2.02495-1.15l.02497-.03c.42599-.5115.7062-.82,1.28152-.82.57547,0,.85574.3085,1.28177.82l.02497.03c.40464.4863.95684,1.15,2.02514,1.15,1.0685,0,1.6208-.6636,2.0256-1.15l.0249-.03c.4261-.5114.7065-.82,1.2823-.82.5774,0,.8585.3091,1.2851.8204l.0249.0298c.4056.4865.9585,1.1498,2.0281,1.1498s1.6225-.6633,2.0281-1.1498l.0248-.0298c.4267-.5113.7078-.8204,1.2852-.8204v-1c-1.0696,0-1.6225.6633-2.0281,1.1498l-.0248.0298c-.4267.5113-.7078.8204-1.2852.8204s-.8585-.3091-1.2852-.8204l-.0249-.0298c-.4055-.4865-.9584-1.1498-2.028-1.1498-1.0686,0-1.6208.6636-2.0256,1.15l-.0249.0299c-.4262.5115-.7065.8201-1.2823.8201-.5754,0-.8557-.3086-1.2818-.82l-.0249-.03c-.4047-.4863-.95683-1.15-2.02518-1.15-1.06825,0-1.62038.6637-2.02495,1.15l-.02497.03c-.42599.5115-.7062.82-1.28152.82-.57414,0-.85384-.3082-1.27946-.8198l-.02503-.0301c-.40401-.4862-.9557-1.1501-2.02319-1.1501v1z"/></svg>