<svg width="36" height="36" viewBox="0,0,36,36" xmlns="http://www.w3.org/2000/svg"><path fill-rule="evenodd" clip-rule="evenodd" d="m19.75,7.5c0-1.51879,1.2312-2.75,2.75-2.75s2.75,1.23121,2.75,2.75h-1c0-.9665-.7835-1.75-1.75-1.75s-1.75.7835-1.75,1.75v3.25h6.5007V7.5c0-1.51879,1.2312-2.75,2.75-2.75s2.75,1.23121,2.75,2.75h-1c0-.9665-.7835-1.75-1.75-1.75s-1.75.7835-1.75,1.75v15.2366c.8266-.0894,1.284-.6146,1.8618-1.307l.0275-.0329c.6118-.7335,1.3735-1.6467,2.86-1.6467v1c-.9947,0-1.4844.5591-2.1197,1.3204l-.0275.0329c-.6118.7335-1.3734,1.6467-2.86,1.6467-1.4865,0-2.2482-.9132-2.8599-1.6467l-.0276-.0329c-.6352-.7613-1.125-1.3204-2.1197-1.3204-.9923,0-1.481.5586-2.1154,1.3201l-.0276.0331c-.6106.7333-1.3713,1.6468-2.8561,1.6468-1.4845,0-2.245-.9136-2.8554-1.6468l-.0277-.0332c-.6343-.7615-1.1228-1.32-2.1147-1.32-.9918,0-1.4802.5585-2.1144,1.32l-.0276.0332c-.6104.7332-1.37084,1.6468-2.85518,1.6468-1.48311,0-2.24292-.9138-2.85243-1.6469l-.02771-.0333C4.47778,21.3082,3.9901,20.75,3,20.75v-1c1.48311,0,2.24292.9138,2.85243,1.6469l.02771.0333c.6336.7616,1.12128,1.3198,2.11138,1.3198.99175,0,1.48018-.5585,2.11438-1.32l.0276-.0332c.6104-.7332,1.3708-1.6468,2.8552-1.6468,1.4845,0,2.245.9136,2.8555,1.6468l.0276.0332c.6343.7615,1.1228,1.32,2.1147,1.32.8029,0,1.2761-.3657,1.7635-.9086V7.5zm7.5007,15.1222V16.25H20.75v4.4531c.5246-.5138,1.2061-.9531,2.2356-.9531,1.4866,0,2.2482.9132,2.86,1.6467l.0275.0329c.4543.5445.8342.9855,1.3776,1.1926zm0-7.3722v-3.5H20.75v3.5h6.5007zM3,26.7507c.9901,0,1.47778.5582,2.11138,1.3198l.02771.0333c.60951.7331,1.36932,1.6469,2.85243,1.6469,1.48434,0,2.24478-.9136,2.85518-1.6468l.0276-.0332c.6342-.7615,1.1226-1.32,2.1144-1.32.9919,0,1.4804.5586,2.1147,1.32l.0277.0332c.6104.7333,1.3709,1.6468,2.8554,1.6468,1.4848,0,2.2455-.9135,2.8561-1.6468l.0276-.0331c.6344-.7614,1.1231-1.3201,2.1154-1.3201.9947,0,1.4845.5592,2.1197,1.3204l.0276.033c.6117.7334,1.3734,1.6466,2.8599,1.6466,1.4866,0,2.2482-.9132,2.86-1.6466l.0275-.033c.6353-.7612,1.125-1.3204,2.1197-1.3204v-1c-1.4865,0-2.2482.9132-2.86,1.6467l-.0275.033c-.6353.7612-1.125,1.3203-2.1197,1.3203s-1.4844-.5591-2.1197-1.3203l-.0275-.033c-.6118-.7335-1.3734-1.6467-2.86-1.6467-1.4847,0-2.2454.9136-2.856,1.6468l-.0277.0332c-.6344.7614-1.123,1.32-2.1154,1.32-.9919,0-1.4804-.5585-2.1147-1.32l-.0276-.0332c-.6105-.7332-1.371-1.6468-2.8555-1.6468-1.4844,0-2.2448.9136-2.8552,1.6469l-.0276.0331c-.6342.7615-1.12263,1.32-2.11438,1.32-.9901,0-1.47778-.5581-2.11138-1.3197l-.02771-.0334C5.24292,26.6646,4.48311,25.7507,3,25.7507v1z"/></svg>