<svg width="24" height="24" viewBox="0,0,24,24" xmlns="http://www.w3.org/2000/svg"><path fill-rule="evenodd" clip-rule="evenodd" d="m22.5,0h-21C.675,0,0,.675,0,1.5v21c0,.825.675,1.5,1.5,1.5h21c.825,0,1.5-.675,1.5-1.5v-21c0-.825-.675-1.5-1.5-1.5z" fill="#2d327d"/><path fill-rule="evenodd" clip-rule="evenodd" d="m5.4375,4.48499c0-.825.675-1.5,1.5-1.5s1.5.675,1.5,1.5-.675,1.5-1.5,1.5c-.8325,0-1.5-.675-1.5-1.5z" fill="#fff"/><path fill-rule="evenodd" clip-rule="evenodd" d="m18.8925,20.88-.2475.2475L10.74,13.23l.255-.255,7.8975,7.905z" fill="#fff"/><path fill-rule="evenodd" clip-rule="evenodd" d="m10.7025,12.0824c.0675.075.1275.165.1575.27.0825.3225-.105.645-.4275.735-.2175.06-.43501-.0075-.57751-.1575l-1.1175-1.1175v-1.695l1.96501,1.965z" fill="#fff"/><path fill-rule="evenodd" clip-rule="evenodd" d="m4.77,20.6175c-.21.36-.6675.48-1.0275.2775-.36-.21-.48-.6675-.2775-1.0275L5.43,16.47V7.89746c0-.825.675-1.5,1.5-1.5s1.5.675,1.5,1.5v5.59504s1.5525,2.6925,1.635,2.8275.1125.27.1125.4275v3.495c0,.4125-.3375.75-.75.75s-.75-.3375-.75-.75V16.92L6.93,13.8975v2.9775l-2.16,3.7425z" fill="#fff"/></svg>