<svg width="24" height="24" viewBox="0,0,24,24" xmlns="http://www.w3.org/2000/svg"><path fill-rule="evenodd" clip-rule="evenodd" d="m22.5,0h-21C.675,0,0,.675,0,1.5v21c0,.825.675,1.5,1.5,1.5h21c.825,0,1.5-.675,1.5-1.5v-21c0-.825-.675-1.5-1.5-1.5z" fill="#2d327d"/><path fill-rule="evenodd" clip-rule="evenodd" d="m18.855,13.8c.465.2325.7875.72.795,1.275v1.0875H4.35001V15.075c.0075-.555.33-1.0425.795-1.275.01098,0,.01794-.004.02677-.0091.00323-.0019.00671-.0039.01073-.0059.7875-.39,2.13-1.3275,2.13-3.18,0-2.235.1575-3.42.57-4.2225C8.34001,5.49,9.12001,5.085,10.4025,5.07c-.0225-.3375-.03-1.0575.42-1.575C11.0175,3.27,11.3775,3,12,3s.9825.27,1.1775.495c.45.525.4425,1.245.42,1.575,1.29.0225,2.0625.42,2.52,1.3125.4125.8025.57,1.9875.57,4.2225,0,1.845,1.3425,2.79,2.13,3.18.011,0,.018.004.0268.0091.0032.0019.0067.0039.0107.0059zM12,3.765c-.27,0-.465.075-.6.2325-.2499.28667-.2333.81107-.2255,1.05779.0002.00502.0004.00993.0005.01471h1.6575c.0075-.2325.0225-.78-.2325-1.0725-.135-.1575-.33-.2325-.6-.2325z" fill="#fff"/><path fill-rule="evenodd" clip-rule="evenodd" d="m10.47,16.5376c-.0375.1425-.06.285-.06.4425,0,.8775.7125,1.59,1.59,1.59s1.59-.7125,1.59-1.59c0-.15-.0225-.3-.06-.4425h-3.06z" fill="#fff"/></svg>