<svg width="24" height="24" viewBox="0,0,24,24" xmlns="http://www.w3.org/2000/svg"><path fill-rule="evenodd" clip-rule="evenodd" d="m2,12C2,6.47715,6.47715,2,12,2c5.5228,0,10,4.47715,10,10,0,5.5228-4.4772,10-10,10-3.82287,0-7.29204-2.1503-9-5.319V19H2v-4h4v1H3.77258C5.26326,18.9555,8.46,21,12,21c4.9706,0,9-4.0294,9-9,0-4.97056-4.0294-9-9-9-4.97056,0-9,4.02944-9,9H2zm11.5001-7c-1.161,0-2.0453.90763-2.3659,2.03048C9.85525,7.24693,9,8.58411,9,10c0,.7495.23962,1.4769.65487,2.0277C8.04253,12.9851,7,15.1276,7,17.4999v.5h9v-.5c0-.5141-.0489-1.0173-.142-1.5h2.1421v-.5c0-2.3723-1.0426-4.5147-2.6549-5.4722.4153-.55083.6549-1.27825.6549-2.0277,0-1.547-1.0209-3-2.5-3zm2.0924,9.9999h1.3903c-.1446-2.0782-1.1796-3.6938-2.4423-4.2649-.2084.1135-.4347.1941-.6761.2348-.1112.3896-.288.7511-.5193,1.0579,1.0133.6017,1.8016,1.6715,2.2474,2.9722zm-3.0521-2.2649c-.3102.169-.6601.265-1.0404.265s-.7302-.096-1.0404-.265c-1.26269.5711-2.29776,2.1867-2.44234,4.2649h6.96544c-.1445-2.0782-1.1796-3.6938-2.4423-4.2649zm1.4576-2.85419c-.0426-1.25954-.7575-2.43299-1.8372-2.77856C12.4245,6.40468,12.9694,6,13.5001,6c.7301,0,1.5.78553,1.5,2,0,.93645-.4578,1.61792-1.0021,1.88081zM11.5,8c-.7301,0-1.5.78555-1.5,2,0,1.2145.7699,2,1.5,2s1.5-.7855,1.5-2c0-1.21445-.7699-2-1.5-2z"/></svg>