<svg width="24" height="24" viewBox="0,0,24,24" xmlns="http://www.w3.org/2000/svg"><path fill-rule="evenodd" clip-rule="evenodd" d="m16.3536,2.64673,3.5,3.5.3536.35355-.3536.35356-3.5,3.49996-.7071-.70707,2.6465-2.64645H7.50008c-1.38086,0-2.5,1.11914-2.5,2.5,0,1.37992,1.11925,2.50002,2.5,2.50002h9.00102c1.932,0,3.5,1.5667,3.5,3.5,0,1.9332-1.568,3.5-3.5,3.5H5.70767l2.64596,2.6459-.70711.7071-3.5-3.5-.35355-.3535.35355-.3536,3.5-3.5.70711.7071-2.64694,2.647H16.5011c1.3799,0,2.5-1.1193,2.5-2.5,0-1.3808-1.1201-2.5-2.5-2.5H7.50008c-1.93326,0-3.5-1.568-3.5-3.50002,0-1.93314,1.56685-3.5,3.5-3.5H18.293l-2.6465-2.64644.7071-.70711z"/></svg>