<svg width="24" height="24" viewBox="0,0,24,24" xmlns="http://www.w3.org/2000/svg"><path fill-rule="evenodd" clip-rule="evenodd" d="m22.5,0h-21C.675,0,0,.675,0,1.5v21c0,.825.675,1.5,1.5,1.5h21c.825,0,1.5-.675,1.5-1.5v-21c0-.825-.675-1.5-1.5-1.5z" fill="#2d327d"/><path fill-rule="evenodd" clip-rule="evenodd" d="m3,21.0001h14.25v-.6L3,18.0751v2.925z" fill="#fff"/><path fill-rule="evenodd" clip-rule="evenodd" d="m20.4825,11.6025c.2775,0,.5025-.225.5025-.51,0-.2025-.12-.39-.3075-.465l-.96-.405v1.1025l.5625.24c.0675.0225.135.0375.2025.0375z" fill="#fff"/><path fill-rule="evenodd" clip-rule="evenodd" d="m19.125,13.05V7.46252c0-.825-.675-1.5-1.5-1.5-.4875,0-.945.24-1.23.6375l-1.56,2.22c-.09.1275-.135.2775-.135.43501v2.99247c0,.2775.225.51.51.51.2775,0,.51-.225.51-.51V9.47253l.7125-1.0125V16.2l-1.32,2.2575c-.0675.1125-.0975.2325-.0975.36,0,.39.3225.7125.7125.7125.255,0,.4875-.135.615-.3525l1.4925-2.5425c.0675-.1125.105-.2475.105-.375v-2.2875l1.65,2.8425V20.1c0,.39.3225.7125.7125.7125s.7125-.3225.7125-.7125v-3.6225c0-.135-.0375-.2625-.105-.375L19.125,13.05z" fill="#fff"/><path fill-rule="evenodd" clip-rule="evenodd" d="m17.835,5.60254c.7275,0,1.3125-.585,1.3125-1.3125s-.585-1.3125-1.3125-1.3125-1.3125.585-1.3125,1.3125c.0075.7275.5925,1.3125,1.3125,1.3125z" fill="#fff"/></svg>