<svg width="24" height="24" viewBox="0,0,24,24" xmlns="http://www.w3.org/2000/svg"><path fill-rule="evenodd" clip-rule="evenodd" d="m22.5,0h-21C.675,0,0,.675,0,1.5v21c0,.825.675,1.5,1.5,1.5h21c.825,0,1.5-.675,1.5-1.5v-21c0-.825-.675-1.5-1.5-1.5z" fill="#2d327d"/><path fill-rule="evenodd" clip-rule="evenodd" d="m15.8099,13.1774.2475.2775.66-.5925-.255-.2775-.6525.5925z" fill="#fff"/><path fill-rule="evenodd" clip-rule="evenodd" d="m11.1074,6.19494c0-.66-.5325-1.1925-1.19249-1.1925-.66,0-1.1925.5325-1.1925,1.1925s.5325,1.1925,1.1925,1.1925c.65999,0,1.19249-.5325,1.19249-1.1925z" fill="#fff"/><path fill-rule="evenodd" clip-rule="evenodd" d="m14.1,4.88245c-.3975,0-.72.3225-.72.72v3.6525c.18.09.3225.255.375.4575v-4.1025c0-.1875.1575-.345.345-.345s.345.1575.345.345v4.77745c0,.1875-.1575.345-.345.345s-.345-.1575-.345-.345v-.3375c-.045.18-.165.3375-.3225.4275,0,0-.015.0075-.0375.0225.06.3375.3525.5925.705.5925.3975,0,.72-.3225.72-.72V5.59495c-.0075-.3975-.3225-.7125-.72-.7125z" fill="#fff"/><path fill-rule="evenodd" clip-rule="evenodd" d="m16.215,10.3725V5.595c0-.3975.315-.7125.72-.72.3975,0,.72.3225.72.72v4.7775c0,.3975-.3225.72-.72.72s-.72-.3225-.72-.72zm.3675-4.7775v4.7775c0,.1875.1575.345.345.345s.345-.1575.345-.345V5.595c0-.1875-.1575-.345-.345-.345s-.345.1575-.345.345z" fill="#fff"/><path fill-rule="evenodd" clip-rule="evenodd" d="m10.7775,7.34241c-.1125.0825-.24.15-.375.2025v.72c.03.0375.0525.075.075.12,0,0,.1275.225.2925.51l.0075-1.5525z" fill="#fff"/><path fill-rule="evenodd" clip-rule="evenodd" d="m20.1675,19.0874.885.885-.435.4125h.375v.6h-.975l-.03.03-.03-.03H2.99996v-.6H19.3425l-1.02-1.02H11.565c-.375,0-.7125-.2324-.84-.585-.225-.6074-.3375-1.2449-.3375-1.8974v-2.5501c.0562.0148.11.0285.1611.0414.0784.0198.1503.038.2139.0561v2.4526c0,.6075.105,1.1999.315,1.77.075.2024.27.3375.4875.3375h.915v-1.9951c.1125.195.1875.3225.1875.3225.0525.0825.1125.1575.1875.2175v1.455h2.46v-2.64l-2.46-2.46v.3525l-.375-.6375v-.0825l-1.725-1.725v.8025c-.0737-.0173-.1473-.0371-.2195-.0566h-.0001c-.0528-.0142-.1048-.0282-.1554-.0409v-1.0725l-.72004-.72-.4575,1.7325,2.50504.6675c.1575.045.2925.1425.375.285l1.8525,3.195c.0525.0975.0825.2025.0825.3075,0,.3375-.27.6075-.6075.6075-.2175,0-.4125-.12-.525-.3075l-1.6875-2.9025-3.14254-.8325-.8775,3.315c-.045.1575-.1425.2925-.285.375l-2.9325,1.7025c-.0975.0525-.2025.0825-.3075.0825-.33,0-.6075-.27-.6075-.6075,0-.2175.12-.4125.3075-.525l2.64-1.53,1.89-7.13245-1.0425.6075-.615,2.32495c-.0525.1875-.2175.315-.4125.315-.2325,0-.4275-.195-.4275-.4275,0-.0375.0075-.075.015-.1125l.6525-2.45995c.045-.1575.1425-.2925.285-.375l1.035-.6-4.725-4.725,1.0575-1.0575,5.1225,5.1225c.045-.0075.0825-.0075.1275-.0075.5475,0,1.05004.285,1.32004.7575l.96,1.64995.165.165,1.4475-.84746c.075-.0375.15-.06.2325-.06.255,0,.4575.20251.4575.4575,0,.16496-.0825.31496-.225.39746l-1.245.72.435.435v-.405c.1275-.075.255-.15.375-.2175v.99l2.46,2.46V3.37495h-2.46v5.8275c-.0525.015-.0975.0375-.1425.06,0,0-.0975.0525-.2325.135v-6.0225h-1.725v1.68c-.1125-.0825-.24-.1575-.375-.2025v-1.4775H10.17v-.375h10.7475v.375h-.2325V16.8974c0,.645-.1125,1.29-.3375,1.8975-.045.1125-.105.21-.18.2925zm.1425-2.19V3.37495h-1.7775V17.4524l1.3725,1.3725c.0375-.045.0675-.0975.09-.1575.21-.57.315-1.1625.315-1.77zM15.6975,3.37495h2.46V17.0774l-2.46-2.4525V3.37495zm0,13.37245v2.265h2.265l-2.265-2.265z" fill="#fff"/><path fill-rule="evenodd" clip-rule="evenodd" d="m3.70496,2.63245-1.0575,1.0575L19.9875,21.0374l1.065-1.065L3.70496,2.63245z" fill="#eb0000"/></svg>