<svg width="36" height="36" viewBox="0,0,36,36" xmlns="http://www.w3.org/2000/svg"><path fill-rule="evenodd" clip-rule="evenodd" d="m15.75,4.7503h-.5v1.85273c-1.1125.30924-2.0427.80529-2.8127,1.42247l.6255.78028C14.2053,7.88995,15.7956,7.25,18,7.25c3.1371,0,5.0495,1.2959,6.1943,2.8859C25.3574,11.7514,25.75,13.705,25.75,15v7.5h1V15c0-1.455-.4324-3.6264-1.7442-5.4484-.9374-1.30198-2.3131-2.40858-4.2558-2.94857V4.7503h-5zm4,1.63475V5.7503h-3.5v.63476C16.795,6.29698,17.3776,6.25,18,6.25c.6231,0,1.2058.04708,1.75.13505zm-9.1826,6.38975c-.2268.8246-.3174,1.6047-.3174,2.2252v9c0,1.5375-.60181,2.5832-1.41179,3.25H25.0426L10.5674,12.7748zM9.76666,11.974c-.37121,1.1053-.51662,2.1807-.51662,3.026v9c0,1.337-.5459,2.1244-1.1984,2.5942-.678.4882-1.50661.6558-2.0516.6558v1h7.78066c.1191.9458.5795,1.6786,1.2744,2.1814.7915.5728,1.8442.8181,2.9449.8181,1.1008,0,2.1535-.2453,2.945-.8181.6948-.5028,1.1553-1.2356,1.2744-2.1814h3.8232l2.1039,2.1039.7071-.7072L6.35359,7.14675l-.70711.7071L9.76666,11.974zM21.163,28.25h.0457c-.1072.6137-.4159,1.0572-.85,1.3713-.5656.4093-1.3879.6282-2.3587.6282-.9707,0-1.793-.2189-2.3586-.6282-.4341-.3141-.7428-.7576-.85-1.3713h6.3716z"/></svg>