<svg width="36" height="36" viewBox="0,0,36,36" xmlns="http://www.w3.org/2000/svg"><path fill-rule="evenodd" clip-rule="evenodd" d="m13.2498,9.0435c0-.98752.8058-1.7935,1.8055-1.7935h4.389c.9997,0,1.8055.80598,1.8055,1.7935v.20577h-8V9.0435zm-1,.20577V9.0435c0-1.54448,1.2582-2.7935,2.8055-2.7935h4.389c1.5473,0,2.8055,1.24902,2.8055,2.7935v.20577h6.2057c1.5441,0,2.7935,1.25183,2.7935,2.79503v16.0365c0,1.5419-1.2496,2.7935-2.7935,2.7935H6.04402c-1.54343,0-2.795-1.2512-2.795-2.7935V12.0443c0-1.5437,1.25136-2.79503,2.795-2.79503h6.20578zM4.24902,12.0443c0-.9914.80365-1.795,1.795-1.795H28.4555c.991,0,1.7935.8032,1.7935,1.795V16.75h-9.4992v-1.3502c0-.9117-.738-1.6505-1.649-1.6505h-3.702c-.9111,0-1.649.7388-1.649,1.6505V16.75H4.24902v-4.7057zM13.7498,17.75H4.24902v10.3308c0,.9896.80343,1.7935,1.795,1.7935H28.4555c.9912,0,1.7935-.8035,1.7935-1.7935V17.75h-9.4992v1.3503c0,.9106-.7384,1.649-1.649,1.649h-3.702c-.9107,0-1.649-.7384-1.649-1.649V17.75zm6,0v1.3503c0,.3583-.2907.649-.649.649h-3.702c-.3584,0-.649-.2907-.649-.649V17.75h5zm0-1h-5v-1.3502c0-.3603.291-.6505.649-.6505h3.702c.3579,0,.649.2902.649.6505V16.75z"/></svg>