<svg width="24" height="24" viewBox="0,0,24,24" xmlns="http://www.w3.org/2000/svg"><path fill-rule="evenodd" clip-rule="evenodd" d="m2,2.80615.65811.21937L11.5,5.97282l8.8419-2.9473L21,2.80615V18.8602l-.3419.114L11.5,22.0269,2.34189,18.9742,2,18.8602V2.80615zm1,1.38743V18.1395l8,2.6667V6.86024L3,4.19358zm9,2.66666V20.8062l8-2.6667V4.19358l-8,2.66666zM9.84189,9.47421l-6-2,.31622-.94869,5.99999,2-.31621.94869zm3.31621,0,6-2-.3162-.94869-6,2,.3162.94869zm0,2.99999,6-2-.3162-.94868-6,1.99998.3162.9487zm6,.9995-6,2-.3162-.9487,6-2,.3162.9487zm-6,5,6-2-.3162-.9487-6,2,.3162.9487zm-9.31621-7.9995,6,2,.31621-.9487L4.15811,9.52552l-.31622.94868zm6,5-6-2,.31622-.9487,5.99999,2-.31621.9487zm-6,.9995,6,2,.31621-.9487-5.99999-2-.31622.9487z"/></svg>