<svg width="36" height="36" viewBox="0,0,36,36" xmlns="http://www.w3.org/2000/svg"><path fill-rule="evenodd" clip-rule="evenodd" d="m26.75,18.2747c2.5268.2508,4.5,2.3824,4.5,4.9753v6.5h-10v-6.5c0-2.5929,1.9732-4.7245,4.5-4.9753V4.5h1v13.7747zM4.60962,16.75H6.2855c.24281-1.6955,1.70212-3,3.46451-3s3.22169,1.3045,3.46449,3h7.6759l-.1553.6213-3,12-.0947.3787H7.85962l-.09468-.3787-3-12-.15532-.6213zm5.14039-2c1.20869,0,2.21799.8594,2.44989,2H7.3001c.23188-1.1406,1.24126-2,2.44991-2zm-3.85961,3,2.75,11h8.2192l1.625-6.5H13.5v-1h5.2346l.875-3.5H5.8904zm18.3596,11V25.5h1v3.25h2V24h1v4.75h2v-5.5c0-2.2094-1.7906-4-4-4s-4,1.7906-4,4v5.5h2zm-9.5-16c0-.5519.4481-1,1-1s1,.4481,1,1-.4481,1-1,1-1-.4481-1-1zm1-2c-1.1041,0-2,.8959-2,2s.8959,2,2,2,2-.8959,2-2-.8959-2-2-2zm-6.74999-.5c-.13786,0-.25.1121-.25.25s.11214.25.25.25.25-.1121.25-.25-.11214-.25-.25-.25zm-1.25.25c0-.69014.55986-1.25,1.25-1.25S10.25,9.80986,10.25,10.5c0,.6901-.55985,1.25-1.24999,1.25s-1.25-.5599-1.25-1.25z"/></svg>