<svg width="36" height="36" viewBox="0,0,36,36" xmlns="http://www.w3.org/2000/svg"><path fill-rule="evenodd" clip-rule="evenodd" d="m9.51893,6.51893C9.03254,7.00532,8.75,7.78854,8.75,9v6.2507h18.5V9c0-1.21146-.2825-1.99468-.7689-2.48107S25.2115,5.75,24,5.75H12c-1.2115,0-1.9947.28254-2.48107.76893zM8.75,24.25v-7.9993h18.5V24.25H8.75zm.06182-18.43818C9.56068,5.06296,10.6525,4.75,12,4.75h12c1.3475,0,2.4393.31296,3.1882,1.06182C27.937,6.56068,28.25,7.65246,28.25,9v3.25h1.5v2.5h-1.5v13.4993h-5.4985V25.25H13.25v2.9993h-5.5V14.75h-1.5v-2.5h1.5V9c0-1.34754.31296-2.43932,1.06182-3.18818zM28.25,13.75h.5v-.5h-.5v.5zm-4.4985,11.5H27.25v1.9993h-3.4985V25.25zm-15.0015,0h3.5v1.9993h-3.5V25.25zm-1-12v.5h-.5v-.5h.5zM24,7.75H12v1h12v-1zM5.77848,24.8826c-.7403.3658-1.35901.78-1.79898,1.244-.44195.466-.7295,1.012-.7295,1.6222,0,.8477.54426,1.5673,1.31585,2.1445.7809.5841,1.8798,1.0904,3.19475,1.5074,2.6357.8359,6.2515,1.3481,10.2394,1.3481,3.9886,0,7.6044-.5122,10.24-1.3481,1.3148-.417,2.4136-.9233,3.1944-1.5074.7715-.5772,1.3156-1.2968,1.3156-2.1445,0-.6102-.2875-1.1562-.7296-1.6221-.44-.4639-1.0588-.8777-1.7993-1.2428l-.4422.8968c.68.3354,1.1862.6866,1.5161,1.0342.3278.3456.455.6576.455.9339,0,.3861-.2492.8459-.9147,1.3438-.6561.4909-1.638.9554-2.8976,1.3549-2.5136.7972-6.0228,1.3013-9.9377,1.3013-3.9141,0-7.4233-.5041-9.9371-1.3013-1.2598-.3995-2.24178-.864-2.89806-1.355-.6656-.4979-.91484-.9576-.91484-1.3437,0-.2763.1272-.5883.45513-.9341.3299-.3479.83619-.6995,1.51639-1.0356l-.44304-.8965zM12,19.7493c-.6908,0-1.25.562-1.25,1.25,0,.6901.5599,1.25,1.25,1.25s1.25-.5599,1.25-1.25c0-.688-.5592-1.25-1.25-1.25zm-.25,1.25c0-.137.1128-.25.25-.25s.25.113.25.25c0,.1378-.1121.25-.25.25s-.25-.1122-.25-.25zm11,0c0-.688.5592-1.25,1.25-1.25s1.25.562,1.25,1.25c0,.6901-.5599,1.25-1.25,1.25s-1.25-.5599-1.25-1.25zm1.25-.25c-.1372,0-.25.113-.25.25,0,.1378.1121.25.25.25s.25-.1122.25-.25c0-.137-.1128-.25-.25-.25z"/></svg>