<svg width="36" height="36" viewBox="0,0,36,36" xmlns="http://www.w3.org/2000/svg"><path fill-rule="evenodd" clip-rule="evenodd" d="m11.75,9.265V7.49955h-1V9.265h-4.5v17.454l.499.001,22.5.045.501.001V9.265h-4.5V7.49955h-1V9.265h-12.5zm12.5,2.7345V10.265h-12.5v1.7345h-1V10.265h-3.5v3.5145h21.5V10.265h-3.5v1.7345h-1zM7.25,25.721V14.7795h21.5V25.764l-21.5-.043zm12.5121-1.7207v-7.5h-1.1745c-.096.5025-.282.8595-.5595,1.071-.192.147-.402.2535-.633.3195-.231.0645-.5295.102-.8955.1125v1.0875h1.764v4.9095h1.4985z"/></svg>