<svg width="36" height="36" viewBox="0,0,36,36" xmlns="http://www.w3.org/2000/svg"><path fill-rule="evenodd" clip-rule="evenodd" d="m3.25,6.25h7v8.5h-3v16.7493h-1V14.75h-3v-8.5zm1,1v6.5h5v-6.5h-5zm12.25,5.9993c-1.7954,0-3.25,1.4546-3.25,3.25v3.2514h8.0353c.2422-1.6962,1.7018-3.0014,3.4647-3.0014s3.2225,1.3052,3.4647,3.0014H30.25v-3.2514c0-1.7954-1.4546-3.25-3.25-3.25H16.5zm10.7002,6.5014c-.2313-1.1413-1.241-2.0014-2.4502-2.0014s-2.2189.8601-2.4502,2.0014h4.9004zM13.25,27.2493v-6.4986h17v6.4986h-17zm-1-10.75c0-2.3477,1.9024-4.25,4.25-4.25H27c2.3476,0,4.25,1.9023,4.25,4.25v1.7514H33v1h-1.75v11.9986h-5.4985v-3H17.75v3h-5.5V19.2507H10.5v-1h1.75v-1.7514zm14.5015,11.75v2H30.25v-2h-3.4985zm-13.5015,0h3.5v2h-3.5v-2zm2-4.25c0-.688.5592-1.25,1.25-1.25s1.25.562,1.25,1.25c0,.6901-.5599,1.25-1.25,1.25s-1.25-.5599-1.25-1.25zm1.25-.25c-.1372,0-.25.113-.25.25,0,.1378.1121.25.25.25s.25-.1122.25-.25c0-.137-.1128-.25-.25-.25zm10.5-1c-.6908,0-1.25.562-1.25,1.25,0,.6901.5599,1.25,1.25,1.25s1.25-.5599,1.25-1.25c0-.688-.5592-1.25-1.25-1.25zm-.25,1.25c0-.137.1128-.25.25-.25s.25.113.25.25c0,.1378-.1121.25-.25.25s-.25-.1122-.25-.25z"/></svg>