<svg width="36" height="36" viewBox="0,0,36,36" xmlns="http://www.w3.org/2000/svg"><path fill-rule="evenodd" clip-rule="evenodd" d="m3.25,3.25h14.809l-.3618.72361L14.75,9.86803v2.39077c7.3351.2574,13.2338,6.1561,13.4912,13.4912H32.75v7H3.25V3.25zm1,7h9.5v3h.5c7.0129,0,12.7279,5.5514,12.9906,12.5H24v1h7.75v5H4.25v-5h9.25v-1H4.25v-15.5zm9.691-1H4.25v-5h12.191l-2.5,5zm4.809,16c-.5522,0-1,.447-1,1s.4478,1,1,1c.5534,0,1-.4466,1-1s-.4466-1-1-1zm-1.0161-.7232c.2979-.1759.6453-.2768,1.0161-.2768,1.1056,0,2,.8944,2,2s-.8944,2-2,2c-1.1038,0-2-.894-2-2,0-.3712.1009-.7185.2768-1.0161l-3.681-3.681c-.5844.4377-1.31.6971-2.0958.6971-1.93214,0-3.5-1.5679-3.5-3.5s1.56786-3.5,3.5-3.5c1.9321,0,3.5,1.5679,3.5,3.5,0,.7858-.2594,1.5114-.6971,2.0958l3.681,3.681zM8.75,18.75c0-1.3799,1.12014-2.5,2.5-2.5,1.3799,0,2.5,1.1201,2.5,2.5s-1.1201,2.5-2.5,2.5c-1.37986,0-2.5-1.1201-2.5-2.5zm20.7921,2.7326-.513-1.41.9398-.3419.513,1.41-.9398.3419zm-1.8106-3.8821.75,1.299.8661-.5-.75-1.299-.8661.5zm-.7417-1.0607-.9645-1.149.7659-.643.9645,1.149-.7659.643zm-3.0297-3.0283,1.1505.9645.6424-.7663-1.1505-.9645-.6424.7663z"/></svg>