<svg width="24" height="24" viewBox="0,0,24,24" xmlns="http://www.w3.org/2000/svg"><path fill-rule="evenodd" clip-rule="evenodd" d="m2,2h10.309l-.3618.72361L10,6.61803v1.3949c4.8491.25138,8.7357,4.13797,8.9871,8.98707H22v5H2V2zm1,5h6v2h.5c4.527,0,8.2268,3.5379,8.4855,8H16v1h5v3H3v-3h6v-1H3V7zm6.19098-1H3V3h7.691L9.19098,6zM12.5,17c-.2762,0-.5.2235-.5.5s.2238.5.5.5c.2769,0,.5-.2231.5-.5s-.2231-.5-.5-.5zm-.6467-.8538c.1958-.0938.4152-.1462.6467-.1462.8291,0,1.5.6709,1.5,1.5s-.6709,1.5-1.5,1.5c-.8278,0-1.5-.6705-1.5-1.5,0-.2317.0525-.451.1461-.6468l-2.26759-2.2676C8.48326,14.8475,8.00936,15,7.5,15,6.11986,15,5,13.8801,5,12.5S6.11986,10,7.5,10,10,11.1199,10,12.5c0,.5094-.15253.9833-.41439,1.3785l2.26769,2.2677zM6,12.5c0-.8279.67214-1.5,1.5-1.5s1.5.6721,1.5,1.5S8.32786,14,7.5,14,6,13.3279,6,12.5zm13.5382,1.8787-.342-.94.9397-.3419.342.94-.9397.3419zm-1.1948-2.5617.5.866.866-.5-.5-.866-.866.5zm-.4779-.6833-.643-.766.766-.64297.643.76597-.766.643zM15.8663,9.1354l.767.643.6425-.76634-.767-.643-.6425.76634z"/></svg>