<svg width="36" height="36" viewBox="0,0,36,36" xmlns="http://www.w3.org/2000/svg"><path fill-rule="evenodd" clip-rule="evenodd" d="m10.25,12.0003c0-4.28086,3.4691-7.75,7.75-7.75,4.2794,0,7.75,3.4692,7.75,7.75,0,4.2794-3.4706,7.75-7.75,7.75-4.2808,0-7.75-3.4706-7.75-7.75zm7.75-8.75c-4.8331,0-8.75,3.91686-8.75,8.75,0,2.6311,1.1615,4.9914,3,6.5956V32.707l3.5-3.5,3.5,3.5v-5.5003l1-1,3.5,3.5V18.5953c1.8383-1.6041,3-3.9642,3-6.595,0-4.8332-3.9184-8.75-8.75-8.75zm4.75,16.0993c-1.0365.6713-2.2239,1.1294-3.5,1.312v5.1308l1-1,2.5,2.5v-7.9428zm-9.5,10.9431V19.35c1.3679.8859,2.9988,1.4003,4.75,1.4003.0836,0,.167-.0012.25-.0035v9.5459l-2.5-2.5-2.5,2.5zM13.25,12.0003c0-2.62336,2.1266-4.75,4.75-4.75s4.75,2.12664,4.75,4.75c0,2.6234-2.1266,4.75-4.75,4.75s-4.75-2.1266-4.75-4.75zm4.75-5.75c-3.1756,0-5.75,2.57436-5.75,5.75,0,3.1756,2.5744,5.75,5.75,5.75s5.75-2.5744,5.75-5.75c0-3.17564-2.5744-5.75-5.75-5.75z"/></svg>