<svg width="36" height="36" viewBox="0,0,36,36" xmlns="http://www.w3.org/2000/svg"><path fill-rule="evenodd" clip-rule="evenodd" d="m7.25,17.9995c0-5.9368,4.8131-10.74996,10.75-10.74996,5.9383,0,10.75,4.81306,10.75,10.74996,0,5.9384-4.8116,10.75-10.75,10.75-5.9369,0-10.75-4.8116-10.75-10.75zM18,6.24954c-6.4891,0-11.75,5.26086-11.75,11.74996,0,6.4907,5.2609,11.75,11.75,11.75,6.4906,0,11.75-5.2593,11.75-11.75,0-6.4891-5.2593-11.74996-11.75-11.74996zm-6.2172,9.62666,5.856,5.925.3555.3597.3557-.3596,5.856-5.922-.7111-.7032-5.5004,5.5624-5.5005-5.5653-.7112.703z"/></svg>