<svg width="24" height="24" viewBox="0,0,24,24" xmlns="http://www.w3.org/2000/svg"><path fill-rule="evenodd" clip-rule="evenodd" d="m16.0001,3.05664c-.5238,0-1,.47614-1,1s.4762,1,1,1c.5239,0,1-.47614,1-1s-.4761-1-1-1zm-2,1c0-1.07614.9239-2,2-2,1.0762,0,2,.92386,2,2s-.9238,2-2,2c-1.0761,0-2-.92386-2-2zm1,3.94336v5h2V8h-2zm-1,.70705v8.68715l-2.4047,3.312.8092.5876,2.5001-3.4435.0954-.1313V14h2.2297l1.7703,2.7056V22h1v-5.5925l-.0816-.1247-1.9184-2.9318V9.15148l1.0839,1.62592.0624.0935.0964.0578,2.4999,1.5.5146-.8574-2.4036-1.4422-1.9376-2.90645L17.7677,7H14.293l-.1465.14645-3,2.99995-.1464.1465V10.5L11,13H9.11807l-1.89443-.9472L7.11807,12H3.79285l-.14645.1465-1.49997,1.5001L2,13.793V17h1v-2.7928l1-1.0001v5.6262L2.6,20.7l.8.6,1.5-2,.1-.1333V17h1.64982l1.88028,5.1709.9398-.3418-1.96987-5.4172V13.309l1.27639.6382L8.882,14H12l.0001-3.2929,2-2.00005zM5.5,9c-.25719,0-.5.24281-.5.5s.24281.5.5.5.5-.24281.5-.5S5.75719,9,5.5,9zM4,9.5C4,8.69052,4.69052,8,5.5,8S7,8.69052,7,9.5c0,.8095-.69052,1.5-1.5,1.5S4,10.3095,4,9.5zM5,16v-3h1.50003v3H5z"/></svg>