<svg width="36" height="36" viewBox="0,0,36,36" xmlns="http://www.w3.org/2000/svg"><path fill-rule="evenodd" clip-rule="evenodd" d="m4.25,17.9995c0-7.5943,6.1556-13.74999,13.75-13.74999S31.75,10.4052,31.75,17.9995c0,7.5944-6.1556,13.75-13.75,13.75s-13.75-6.1556-13.75-13.75zM18,3.24951c-8.14664,0-14.75,6.60336-14.75,14.74999,0,8.1467,6.60336,14.75,14.75,14.75,8.1466,0,14.75-6.6033,14.75-14.75,0-8.14663-6.6034-14.74999-14.75-14.74999zM15.3735,25.8327l12-13.4865-.747-.6648L14.9788,24.772,9.35355,19.1467l-.7071.7071,5.99995,6,.3748.3748.3523-.3959z"/></svg>