<svg width="36" height="36" viewBox="0,0,36,36" xmlns="http://www.w3.org/2000/svg"><path fill-rule="evenodd" clip-rule="evenodd" d="m5.75,18.0003c0-6.8443,5.4071-12.25,12.25-12.25s12.25,5.4057,12.25,12.25c0,6.8429-5.4071,12.25-12.25,12.25s-12.25-5.4071-12.25-12.25zM18,4.7503c-7.3951,0-13.25,5.8533-13.25,13.25,0,7.3951,5.8549,13.25,13.25,13.25s13.25-5.8549,13.25-13.25c0-7.3967-5.8549-13.25-13.25-13.25zm1.22,7.2493V8.99955h-1v3.00005h1zM19.22,24.235h3.2507v1h-7.5v-1H18.22v-8H15v-1h4.22v9z"/></svg>