<svg width="36" height="36" viewBox="0,0,36,36" xmlns="http://www.w3.org/2000/svg"><path fill-rule="evenodd" clip-rule="evenodd" d="m11.75,3.74906v-.6099l-.5981.11961-7.49996,1.5L3.25,4.83916V32.9991h1v-6.25h6.5v6.25h1v-3.25h11v3.25h1v-3.25h8v3.2507h1v-20.75h-9V6.24906h-12v-2.5zm12,9.50074v15.4993h8V13.2498h-8zm-13-6.50074V25.7491h-6.5V5.65896l6.5-1.3v2.3901zm12,22.00004h-11V7.24906h11V28.7491zM9,7.74979H6v1h3v-1zm11.75,5.75001v-3h-1v3h1zm6,3v3h-1v-3h1zm0,5.9993v3h-1v-3h1zm3,3v-3h-1v3h1zm0-8.9993v3h-1v-3h1zm-9,8.9993v-3h-1v3h1zm0-8.9993v3h-1v-3h1zm-3,5.9993v3h-1v-3h1zm0-2.9993v-3h-1v3h1zm0-9v3h-1v-3h1zm-3,14.9993v-3h-1v3h1zm0-8.9993v3h-1v-3h1zm0-3v-3h-1v3h1zM6,12.2498h3v1H6v-1zm0,4.5h3v1H6v-1zm3,4.4993H6v1h3v-1z"/></svg>