<svg width="24" height="24" viewBox="0,0,24,24" xmlns="http://www.w3.org/2000/svg"><path fill-rule="evenodd" clip-rule="evenodd" d="m8,2.49955v-.6099l-.59806.11961-5,1L2,3.08965V21.9995h1v-4h4v4h1v-2h7v2h1v-2h5V22h1V8.00004h-6V3.99955H8v-1.5zm8,6.50049v9.99946h5V9.00004h-5zM7,4.49955V16.9995H3V3.90945l4-.8v1.3901zm8,14.49995H8V4.99955h7V18.9995zM6,5.00004H4v1h2v-1zm8,2h-1v2h1v-2zM18,13h-1v-2h1v2zm0,1.9995v2h-1v-2h1zm2,2v-2h-1v2h1zM20,13h-1v-2h1v2zm-6,3.9995v-2h-1v2h1zM14,13h-1v-2h1v2zm-2,1.9995v2h-1v-2h1zM12,11h-1v2h1v-2zm0-1.99996h-1v-2h1v2zm-2,7.99946v-2H9v2h1zM10,13H9v-2h1v2zm0-5.99996H9v2h1v-2zm-6,1h2v1H4v-1zM4,11h2v1H4v-1zm2,2.9995H4v1h2v-1z"/></svg>