<svg width="24" height="24" viewBox="0,0,24,24" xmlns="http://www.w3.org/2000/svg"><path fill-rule="evenodd" clip-rule="evenodd" d="m16,2v2h1V2h-1zm-.0101,5.71679c-.2567-.49019-.629-.88827-1.0656-1.18032C15.3473,6.20009,15.8911,6,16.5,6,17.9149,6,19,7.08514,19,8.5c0,1.01922-.5622,1.8621-1.3974,2.2573-.0339-.0517-.07-.1021-.1083-.151-.2885-.3688-.6899-.63776-1.1819-.74992.1249-.80445-.0042-1.53187-.3225-2.13959zm2.0097,4.68501c.0185-.2371.0076-.477-.0337-.7108C19.1818,11.146,20,9.93583,20,8.5,20,6.53286,18.4671,5,16.5,5c-1.0161,0-1.9234.40971-2.5595,1.08646-1.3115-.36193-2.8448.06022-3.7321,1.50377-1.51595-.71889-3.43069.3254-3.52268,2.17629-.48121.1281-.86968.43138-1.14398.81478-.36009.5033-.53437,1.1536-.50666,1.7907.02787.6407.26203,1.3033.76361,1.8087.50782.5116,1.24744.8196,2.20142.8196h6.99999c.9266,0,1.6602-.3111,2.1749-.812.5085-.4949.7746-1.1471.8246-1.7865zm-4.145-5.29395c-1.0482-.38023-2.3618-.04562-2.997,1.39429l-.2655.60174-.5088-.41676c-.96738-.79234-2.56613-.04791-2.38672,1.45388l.06682.5593h-.56329c-.34817,0-.63449.1685-.84507.4628-.21672.3029-.33994.7277-.3209,1.1655.01889.4343.17573.8468.47432,1.1476.29238.2946.76213.5241,1.49165.5241h6.99999c.6914,0,1.1668-.2264,1.4774-.5286.3167-.3082.4921-.7248.5251-1.1478.0333-.4265-.0801-.8256-.2959-1.1014-.2049-.2619-.5216-.4412-.9866-.4226l-.6985.028.1992-.6701c.2414-.81185.1456-1.4762-.1168-1.97708-.2655-.50707-.7194-.88063-1.2494-1.07287zm-.9311-1.48356-1.441-1.386.6932-.72072,1.441,1.386-.6932.72072zm6.5159,6.59301,1.414,1.414.7071-.7071-1.414-1.414-.7071.7071zM21,8h2v1h-2V8zm-.2579-4.46488-1.414,1.414.7071.70711,1.414-1.414-.7071-.70711z"/></svg>