<svg width="36" height="36" viewBox="0,0,36,36" xmlns="http://www.w3.org/2000/svg"><path fill-rule="evenodd" clip-rule="evenodd" d="m25.9193,5.9257.5245-1.038-1.1142.33352c-.8811.26379-1.6859.67911-2.3901,1.45784-.6106.67528-1.1228,1.59873-1.559,2.87354-.057-.02313-.1143-.04518-.1721-.06613-1.9973-.7245-4.4714-.13816-5.8,2.22963-2.1922-1.2255-5.1274.3314-5.1346,3.1338-.74336.1433-1.34138.5854-1.75761,1.1672-.5043.7049-.75295,1.6239-.71355,2.5299.03955.9094.37146,1.8407,1.07309,2.5477.70786.7132,1.74987,1.1556,3.12467,1.1556h10.5c1.4111,0,2.4928-.4389,3.2356-1.1425.7386-.6997,1.1055-1.6269,1.1509-2.5389.0111-.223.003-.4466-.0239-.6673.9982.0683,2.2192-.13,3.3812-.5943,1.5824-.6323,3.1518-1.7954,3.9621-3.6025l.5202-1.1602-1.1712.4951c-2.9315,1.2393-5.311.4046-6.7239-1.1802-1.4384-1.6133-1.8865-4.00537-.9121-5.9338zm.6641,10.9391c.8292.134,2.0574.0062,3.2898-.4861,1.0344-.4133,2.0216-1.064,2.7418-1.9705-2.7435.6842-5.0604-.2348-6.5301-1.8832-1.4135-1.5854-2.0364-3.84561-1.4881-5.91859-.3294.19018-.6326.43042-.9155.74334-.5138.56822-.9858,1.40352-1.4064,2.68075.6102.4144,1.1296.9745,1.4888,1.6604.4813.9192.6621,2.0393.4164,3.2929.7958.1171,1.4441.5116,1.9063,1.068.2041.2457.37.5203.497.813zm-10.5255-4.2127c1.0102-2.2899,3.1238-2.83704,4.8095-2.2256.8487.3079,1.5808.908,2.0104,1.7284.4264.8141.5722,1.8785.1933,3.1529l-.1991.67.6984-.0279c.779-.0312,1.3596.2748,1.7468.7409.3963.4771.605,1.1427.5709,1.8283-.0339.6818-.3067,1.3576-.8398,1.8627-.529.5011-1.3512.8685-2.5479.8685h-10.5c-1.1504,0-1.9225-.3639-2.4149-.8601-.49864-.5024-.75323-1.1836-.78381-1.8867-.03073-.7065.16687-1.4.52779-1.9045.35478-.4959.85512-.7987,1.47092-.7987h.5633l-.0668-.5594c-.2954-2.4728,2.3588-3.7372,3.9867-2.4038l.5088.4167.2655-.6017zm-5.2551,14.1241,1.5-3,.8945.4472-1.5,3-.8945-.4472zM21.3028,23.7762l-1.5,3,.8945.4472,1.5-3-.8945-.4472zm-9,6,3-6,.8945.4472-3,6-.8945-.4472zm6.0747-6-3,6,.8945.4472,3-6-.8945-.4472z"/></svg>