<svg width="36" height="36" viewBox="0,0,36,36" xmlns="http://www.w3.org/2000/svg"><path fill-rule="evenodd" clip-rule="evenodd" d="m24.1799,14.9859c.6746.1057,1.2338.4224,1.6557.8771.5411.5832.8341,1.3676.896,2.1667.1229,1.5863-.6664,3.4058-2.5467,4.0212l-.311-.9504c1.3373-.4377,1.9572-1.7472,1.8607-2.9936-.0478-.6173-.2716-1.1752-.6321-1.5637-.3509-.3783-.8525-.6211-1.5316-.5939l-.6983.0279.199-.6699c.3785-1.2744.2325-2.3387-.1941-3.1529-.4298-.8204-1.162-1.4206-2.0109-1.7284-1.6859-.61153-3.7995-.0644-4.8097,2.2255l-.2656.602-.5088-.4171c-1.6264-1.3332-4.2818-.0688-3.9851,2.4037l.0671.5596h-.5636c-1.0643,0-1.85942.9562-1.98585,2.2313-.12292,1.2398.43275,2.5378,1.84955,3.0187l-.3214.9469c-1.95964-.6651-2.68047-2.4788-2.52327-4.0643.1379-1.3907.99059-2.8077,2.45417-3.0842.007-2.8016,2.9425-4.3577,5.1334-3.1327,1.3286-2.3677,3.8027-2.95399,5.8001-2.22952,1.0639.38587,2.0007,1.14512,2.5557,2.20442.4818.9198.6629,2.0408.4166,3.2956zm-10.996,3.4049,2.8591,2.8591h-4.0217v1h4.0419l-2.8581,2.8581.7071.7071,2.8379-2.8378v4.0226h1V22.957l2.8588,2.8588.7071-.7071-2.8588-2.8588h4.0641v-1h-4.0439l2.8598-2.8598-.7071-.7071-2.88,2.88v-4.0631h-1v4.0429l-2.8591-2.8591-.7071.7071z"/></svg>