<svg width="36" height="36" viewBox="0,0,36,36" xmlns="http://www.w3.org/2000/svg"><path fill-rule="evenodd" clip-rule="evenodd" d="m21.9677,9.83852c.7425.42608,1.3774,1.05378,1.7954,1.85188.4819.9197.6629,2.0408.4167,3.2956.6745.1057,1.2338.4223,1.6557.8771.1697.1829.315.3857.4365.6024,1.4697-.5804,2.478-1.994,2.478-3.7155,0-2.2604-1.7397-4-4-4-1.1009,0-2.0734.41136-2.7823,1.08852zm4.6649,7.55978c.0496.2071.0824.4188.0989.6315.1229,1.5863-.6665,3.4058-2.5467,4.0211l-.311-.9504c1.3373-.4376,1.9572-1.7471,1.8607-2.9935-.0478-.6173-.2716-1.1752-.6321-1.5638-.3509-.3782-.8526-.621-1.5316-.5939l-.6983.028.199-.6699c.3785-1.2744.2324-2.3388-.1941-3.153-.4299-.8203-1.1621-1.4205-2.0109-1.7284-1.6859-.61146-3.7995-.0643-4.8097,2.2256l-.2656.6019-.5089-.4171c-1.6264-1.3331-4.2817-.0687-3.9851,2.4038l.0672.5595h-.5636c-1.06432,0-1.85944.9562-1.98587,2.2314-.12292,1.2397.43275,2.5378,1.84957,3.0187l-.3214.9469c-1.95967-.6651-2.6805-2.4788-2.52329-4.0643.13789-1.3908.99059-2.8077,2.45419-3.0843.007-2.8015,2.9425-4.3577,5.1334-3.1326,1.2809-2.28278,3.6266-2.90966,5.5833-2.30243C21.9013,8.38153,23.2394,7.75,24.75,7.75c2.8126,0,5,2.18736,5,5,0,2.1376-1.2652,3.9202-3.1174,4.6483zm-13.4488.9926,2.859,2.8591h-4.0216v1h4.0419l-2.8581,2.8581.7071.7071,2.8379-2.8379V27h1v-4.0429l2.8588,2.8588.7071-.7071L18.4571,22.25h4.0641v-1h-4.0439l2.8598-2.8598-.7071-.7071-2.88,2.88V16.5h-1v4.0429l-2.8591-2.8591-.7071.7071z"/></svg>