<svg width="36" height="36" viewBox="0,0,36,36" xmlns="http://www.w3.org/2000/svg"><path fill-rule="evenodd" clip-rule="evenodd" d="m24.1798,14.9846c.7907.1181,1.4236.5152,1.8647,1.0791.5452.6968.7761,1.618.7057,2.5196-.0708.9051-.4473,1.8245-1.1621,2.5202-.721.7017-1.7568,1.1471-3.0879,1.1471h-10.5c-1.3749,0-2.41685-.4423-3.12471-1.1555-.70164-.707-1.03355-1.6383-1.0731-2.5477-.0394-.906.20926-1.825.71355-2.5299.41624-.5818,1.01426-1.0239,1.75756-1.1673.0073-2.8023,2.9424-4.3592,5.1347-3.1337,1.3286-2.36779,3.8027-2.95414,5.8-2.22963,1.0637.38588,2.0005,1.14513,2.5552,2.20443.4814.9193.6622,2.0395.4164,3.2933zm-3.3126-4.5577c-1.6857-.61145-3.7993-.0643-4.8096,2.2256l-.2654.6017-.5089-.4167c-1.6278-1.3334-4.2821-.069-3.9867,2.4038l.0669.5593h-.5633c-.6158,0-1.11618.3029-1.47096.7988-.36092.5045-.55852,1.198-.52779,1.9045.03057.7031.28516,1.3843.78381,1.8867.49244.4962,1.26454.86,2.41494.86h10.5c1.0959,0,1.8735-.3607,2.3904-.8637.5231-.5091.8088-1.1928.8626-1.8814.0541-.6922-.1283-1.3553-.4963-1.8257-.357-.4564-.9093-.7607-1.6867-.7296l-.6985.028.1992-.67c.3789-1.2744.233-2.3388-.1934-3.1529-.4296-.8204-1.1616-1.4205-2.0103-1.7284zM25.5,25.2502c-.1379,0-.25.1121-.25.25,0,.1378.1121.25.25.25.1378,0,.25-.1122.25-.25,0-.1379-.1122-.25-.25-.25zm-1.25.25c0-.6902.5599-1.25,1.25-1.25s1.25.5598,1.25,1.25c0,.6901-.5599,1.25-1.25,1.25s-1.25-.5599-1.25-1.25zm-5,0c0-.1379.1121-.25.25-.25s.25.1121.25.25c0,.1378-.1121.25-.25.25s-.25-.1122-.25-.25zm.25-1.25c-.6901,0-1.25.5598-1.25,1.25,0,.6901.5599,1.25,1.25,1.25s1.25-.5599,1.25-1.25c0-.6902-.5599-1.25-1.25-1.25zm3,5.5c-.1379,0-.25.1121-.25.25,0,.1378.1121.25.25.25.1378,0,.25-.1122.25-.25,0-.1379-.1122-.25-.25-.25zm-1.25.25c0-.6902.5599-1.25,1.25-1.25s1.25.5598,1.25,1.25c0,.6901-.5599,1.25-1.25,1.25s-1.25-.5599-1.25-1.25zM9.30278,23.7766l-1.5,3,.89443.4472,1.49999-3-.89442-.4472zm4.50002,3,1.5-3,.8944.4472-1.5,3-.8944-.4472zM12.3028,23.7766l-3.00002,6,.89442.4472,3-6-.8944-.4472z"/></svg>