<svg width="24" height="24" viewBox="0,0,24,24" xmlns="http://www.w3.org/2000/svg"><path fill-rule="evenodd" clip-rule="evenodd" d="m14.9243,6.53647c.4366.29205.8089.69013,1.0656,1.18032.3183.60775.4474,1.33522.3225,2.13973.4913.11237.8913.38188,1.1776.75188.038.049.0737.0996.1073.1514C18.4354,10.3656,19,9.52136,19,8.5,19,7.08514,17.9149,6,16.5,6c-.6089,0-1.1527.20009-1.5757.53647zm3.0301,5.15963c.0395.2331.0488.4722.0292.7081-.053.6383-.3201,1.2891-.8255,1.7833-.5118.5004-1.24.8128-2.158.8128H8.00011c-.95398,0-1.6936-.308-2.20142-.8196-.50158-.5054-.73574-1.168-.76361-1.8087-.02771-.6371.14657-1.2874.50666-1.7907.2743-.3834.66277-.68668,1.14398-.81478.09199-1.85089,2.00673-2.89518,3.52268-2.17629.8873-1.44355,2.4206-1.8657,3.7321-1.50377C14.5766,5.40971,15.4839,5,16.5,5,18.4671,5,20,6.53286,20,8.5c0,1.44035-.8233,2.6536-2.0456,3.1961zm-7.0968-3.19396c.6352-1.43991,1.9488-1.77452,2.997-1.39429.53.19224.9839.5658,1.2494,1.07287.2624.50088.3582,1.16523.1168,1.97708l-.1992.6701.6985-.028c.4647-.0186.7778.1604.9791.4205.2125.2747.3234.6733.2879,1.101-.0353.4242-.2122.8422-.5282,1.1511-.3095.3027-.7798.5278-1.4588.5278H8.00011c-.72952,0-1.19927-.2295-1.49165-.5241-.29859-.3008-.45543-.7133-.47432-1.1476-.01904-.4378.10418-.8626.3209-1.1655.21058-.2943.4969-.4628.84507-.4628h.56329l-.06682-.5593c-.17941-1.50179,1.41934-2.24622,2.38672-1.45388l.5088.41676.2655-.60174z"/></svg>