<svg width="59" height="20" viewBox="0,0,59,20" xmlns="http://www.w3.org/2000/svg"><path fill-rule="evenodd" clip-rule="evenodd" d="m2,0C.89543,0,0,.895431,0,2v16c0,1.1046.895431,2,2,2h55c1.1046,0,2-.8954,2-2V2c0-1.104569-.8954-2-2-2H2z" fill="#eb0000"/><path fill-rule="evenodd" clip-rule="evenodd" d="m14.4147,11.1564c.0423-.0873.1283-.1448.2248-.1504.1,0,.1499.094.1499.2819v.0376l-.8992,4.5491c-.05.1379-.1312.2068-.2436.2068-.0516.0074-.1036-.01-.1405-.047-.0368-.037-.0542-.0892-.0468-.141l-.0188-.188c-.0374-.3383-.1998-.5075-.4871-.5075h-.1124l-.0936.0188-.1124.0376-.4497.188c-.8938.3824-1.8571.5745-2.82885.5639-1.54872,0-2.79768-.4637-3.74688-1.391-.9492-.9274-1.4238-2.1493-1.42381-3.6656-.01835-1.83619.72071-3.59825,2.04205-4.86868C7.49395,4.7551,9.25006,4.01354,11.08,4.03195c.9482.00265,1.8834.22118,2.7352.63913l.7307.33836c.1081.0414.2217.06674.3372.0752.2498,0,.4621-.16291.637-.48874l.1873-.37596.075-.0752.1311-.0376c.0865-.00113.1596.06406.1686.15038l.0187.0376v.0752l-1.0491,4.51149-.0375.24437-.0936.15039c-.0501.03705-.1077.06271-.1686.0752l-.0937-.0376-.0562-.0752v-.65793c.0293-1.05018-.3013-2.07867-.9367-2.91367-.6245-.80205-1.3926-1.20307-2.3044-1.20307-1.2364,0-2.31055.73312-3.22229,2.19936-.91173,1.46623-1.3676,3.18937-1.36761,5.16944,0,2.5064.87428,3.7596,2.62282,3.7596,1.23648,0,2.19818-.3948,2.88508-1.1843.6046-.6786,1.1499-1.4082,1.6299-2.1806l.1686-.3383.2436-.5452.0374-.0564.0188-.0564.0374-.0751zm3.597,1.297c-.1008.4317-.1573.8726-.1686,1.3159-.0104.3895.0974.773.3091,1.0996.1548.2766.4428.4515.7588.4606l.2061.0188h.0562c.1249.0376.1873.1065.1873.2068-.0203.0675-.0519.1311-.0937.1879l-.1311.0564h-4.0654c-.0516.0074-.1036-.01-.1405-.047-.0368-.0369-.0542-.0892-.0468-.1409l.0187-.094c.0287-.0281.0601-.0533.0937-.0752.0518-.0301.1092-.0493.1686-.0564l.1686-.0376c.5571-.1145,1.0552-.4244,1.4051-.8741.3622-.4575.6307-1.1122.8056-1.9644l1.4051-6.84243-.2249-.33836c-.2306-.38102-.6258-.63152-1.0678-.67673h-.075c-.2248,0-.3372-.07519-.3372-.22557,0-.15039.1374-.22558.4122-.22558h3.2972l4.4026,8.02667,1.0866-5.0754.0562-.28197c.0275-.13018.0463-.26206.0562-.39475.0125-.15039.0188-.28824.0188-.41356,0-.77698-.3435-1.24066-1.0304-1.39104l-.2248-.0376-.1125-.0564-.0562-.15038c0-.15039.0687-.22558.2061-.22558h3.9155c.0708-.00968.1394.02859.1686.09399l.0187.09399c.0053.0599-.0135.11942-.0522.16532-.0387.04591-.0941.07437-.1538.07905l-.1686.0376c-.3689.01752-.7201.1638-.993.41356-.3304.26695-.5936.60826-.7681.99629l-.1498.35716-.1312.39475-2.042,9.19217-.0188.0188v.0376c-.0514.0631-.1253.1036-.2061.1128-.0651.0045-.1282-.0237-.1686-.0752-.0374-.0501-.1374-.2256-.2997-.5264l-4.9834-9.2861-1.3114,6.1469zm9.6108,3.1581c0,.1253.0874.1879.2623.1879h8.9175l1.5362-4.1355.075-.2444c0-.1128-.0625-.1692-.1874-.1692l-.1686.0752-.1124.2068-.0562.1316c-.4979,1.0329-1.2489,1.9222-2.1825,2.5847-.993.7331-1.9266,1.0997-2.8008,1.0997-.637,0-.9555-.2632-.9555-.7895.0093-.1857.028-.3708.0562-.5546.0375-.2819.075-.5044.1124-.6673l1.6112-7.55675c.1499-.73938.4808-1.10907.9929-1.10907h.1874l.2248-.0188c.2248,0,.3372-.07519.3372-.22558v-.0376c0-.12532-.05-.18798-.1499-.18798h-4.8335c-.2872,0-.4309.07519-.4309.22558,0,.12531.1187.21303.356.26317h.0562c.4746.11278.7119.38222.7119.80831,0,.05013-.0094.15352-.0281.31016-.0187.15665-.0531.39162-.103.70492l-1.555,7.42514c-.1873.8146-.612,1.2658-1.2739,1.3535l-.356.0564c-.0676.0009-.1319.0296-.1779.0793s-.0697.1161-.0656.1839z" fill="#fff"/></svg>