<svg width="24" height="24" viewBox="0,0,24,24" xmlns="http://www.w3.org/2000/svg"><path fill-rule="evenodd" clip-rule="evenodd" d="m12,3c-4.97086,0-9,4.02914-9,9,0,4.9709,4.02914,9,9,9,4.9709,0,9-4.0291,9-9,0-4.97086-4.0291-9-9-9zM2,12C2,6.47686,6.47686,2,12,2c5.5231,0,10,4.47686,10,10,0,5.5231-4.4769,10-10,10C6.47686,22,2,17.5231,2,12zm10.4349,4.0845c.548-.004.996-.176,1.346-.513.349-.338.523-.77.523-1.299,0-.542-.15-.971-.453-1.285-.302-.314-.773-.53-1.416-.648v3.745zm-.778-8.467c-.458.014-.817.111-1.076.29-.463.321-.69497.783-.69497,1.388,0,.472.14497.845.43297,1.118.288.275.733.463,1.338.567v-3.363zm-3.15097,6.201h1.203c0,1.436.64997,2.191,1.94797,2.266v-3.915c-.722-.122-1.331-.342-1.82697-.658-.755-.477-1.133-1.183-1.133-2.117,0-.798.268-1.448.803-1.951.53697-.503,1.25497-.775,2.15697-.818v-1.267h.778v1.267c.897.071,1.577.336,2.039.793.501.491.746,1.138.736,1.94h-1.189c-.075-1.118-.604-1.697-1.586-1.734v3.547c.596.151,1.007.267,1.236.347s.443.184.641.311c.788.51,1.182,1.286,1.182,2.329,0,1.076-.439,1.896-1.317,2.457-.42.27-1.001.425-1.742.468v1.558h-.778v-1.558c-1.062-.066-1.85097-.383-2.36497-.949-.529-.585-.791-1.357-.786-2.316zm.29403-9.14825C6.61187,5.6266,4.9486,7.53489,4.30142,9.86668l.96357.26742c.56681-2.04219,2.02354-3.7119,3.93546-4.54755l-.40049-.9163z"/></svg>