<svg width="36" height="36" viewBox="0,0,36,36" xmlns="http://www.w3.org/2000/svg"><path fill-rule="evenodd" clip-rule="evenodd" d="m17.7499,8.25c0-.52336.4767-1,1-1,.5234,0,1,.47664,1,1s-.4766,1-1,1c-.5233,0-1-.47664-1-1zm1-2c-1.0756,0-2,.92436-2,2s.9244,2,2,2c1.0757,0,2-.92436,2-2s-.9243-2-2-2zm-8.25,3.75h-.3603l-.114.3419-1.24416,3.7325-2.42794-2.428-.70711.7072,2.8787,2.8786.70994,5.6796-3.6823,7.3646.89443.4472,3.75004-7.5.0677-.1354-.0188-.1502-.56926-4.554,1.88606,1.8861,1.3972,4.1915-2.9074,5.8148.8945.4472,3.0926-6.1852-.0655-.1965-.8302-2.4907,5.4088,5.4088-.9618,2.8854-5.8148,2.9074.4473.8944,6.1852-3.0926,1.5-4.5,2.913-1.4565.0686-.0858,2.8499-3.5623h2.4695l2.856,4.9981.8683-.4962-3-5.25-.144-.2519h-3.5305l-.1501.1877-2.9314,3.6642-3.087,1.5435-.0655.1965-.1192.3575-3.3637-3.3637,1.4475-7.2376.0525-.2624-.1892-.1893L13.7071,10h-3.2072zm5.2929,3.5-3.7929,3.7929L9.70705,15l3.79285-3.7929L15.7928,13.5zm-3.5-2.5-2.1487,2.1488L10.8603,11h1.4325zm3.393,4.0213L12.7071,18l1.9858,1.9858.9929-4.9645zm11.7784,8.4144-1.5,3.75-.0577.1442-.1292.0861-4.5,3-.5547-.832,4.3708-2.9139,1.4423-3.6058.9285.3714z"/></svg>