<svg width="24" height="24" viewBox="0,0,24,24" xmlns="http://www.w3.org/2000/svg"><path fill-rule="evenodd" clip-rule="evenodd" d="m13.006,2.99854L13,5.06154l-.0011.3887.3764.09695c.6467.16654,1.1247.75462,1.1247,1.4528,0,.31844-.0993.6138-.2686.85673l-1.4961-.79791L12.5,6.93332l-.2353.12549-.7012.37398c-.0413-.13706-.0635-.28236-.0635-.4328h-1c0,.32065.0604.62726.1706.90903L4.875,11H3v10h19V11h-1.875l-5.0074-2.67063c.2423-.38515.3824-.84098.3824-1.32938,0-1.02536-.6173-1.90537-1.499-2.2913l.005-1.70725-1-.0029zm.2618,5.47761L12.5,8.06666l-.3355.17895c.2388.16062.5263.25438.8355.25438.0914,0,.1809-.00818.2678-.02384zm-2.0515.27513c.4537.46203,1.0854.74871,1.7837.74871.5158,0,.995-.15618,1.393-.42375L18,11H7l4.2163-2.24872zM4,20v-8h2v8H4zm3,0h2v-8H7v8zm5,0h-2v-8h2v8zm1,0h2v-8h-2v8zm5,0h-2v-8h2v8zm1,0h2v-8h-2v8z"/></svg>