<svg width="24" height="24" viewBox="0,0,24,24" xmlns="http://www.w3.org/2000/svg"><path fill-rule="evenodd" clip-rule="evenodd" d="m13.5,5.00024c0,.828-.671,1.5-1.5,1.5s-1.5-.672-1.5-1.5c0-.829.671-1.5,1.5-1.5s1.5.671,1.5,1.5zm0,6.99996c0,.828-.671,1.5-1.5,1.5s-1.5-.672-1.5-1.5c0-.829.671-1.5,1.5-1.5s1.5.671,1.5,1.5zM12,20.4998c.829,0,1.5-.671,1.5-1.5,0-.828-.671-1.5-1.5-1.5s-1.5.672-1.5,1.5c0,.829.671,1.5,1.5,1.5z"/><path d="m12,7.00024c1.1054,0,2-.89607,2-2h-1c0,.55208-.4474,1-1,1v1zm-2-2c0,1.10393.8946,2,2,2v-1c-.5526,0-1-.44792-1-1h-1zm2-2c-1.1051,0-2,.89486-2,2h1c0-.55285.4471-1,1-1v-1zm2,2c0-1.10514-.8949-2-2-2v1c.5529,0,1,.44715,1,1h1zm-2,8.99996c1.1054,0,2-.896,2-2h-1c0,.5521-.4474,1-1,1v1zm-2-2c0,1.104.8946,2,2,2v-1c-.5526,0-1-.4479-1-1h-1zm2-2c-1.1051,0-2,.8949-2,2h1c0-.5528.4471-1,1-1v-1zm2,2c0-1.1051-.8949-2-2-2v1c.5529,0,1,.4472,1,1h1zm-1,6.9996c0,.5528-.4471,1-1,1v1c1.1051,0,2-.8949,2-2h-1zm-1-1c.5526,0,1,.4479,1,1h1c0-1.104-.8946-2-2-2v1zm-1,1c0-.5521.4474-1,1-1v-1c-1.1054,0-2,.896-2,2h1zm1,1c-.5529,0-1-.4472-1-1h-1c0,1.1051.8949,2,2,2v-1z"/></svg>