<svg width="36" height="36" viewBox="0,0,36,36" xmlns="http://www.w3.org/2000/svg"><path fill-rule="evenodd" clip-rule="evenodd" d="m12.75,7.2503c-1.4714,0-2.5,1.02864-2.5,2.5,0,1.4714,1.0286,2.5,2.5,2.5s2.5-1.0286,2.5-2.5c0-1.47136-1.0286-2.5-2.5-2.5zm-9.75,3h6.28097c.22207,1.7623,1.61613,3,3.46903,3s3.247-1.2377,3.469-3H33v-1H16.219c-.222-1.76227-1.6161-3-3.469-3s-3.24696,1.23773-3.46903,3H3v1zm20.25,6c-1.4204,0-2.5,1.0796-2.5,2.5,0,1.419,1.0798,2.5,2.5,2.5s2.5-1.081,2.5-2.5c0-1.4204-1.0796-2.5-2.5-2.5zm-3.4666,2c.2335-1.7249,1.6642-3,3.4666-3s3.2331,1.2751,3.4666,3H33v1h-6.2835c-.2336,1.7236-1.664,3-3.4665,3s-3.2329-1.2764-3.4665-3H3v-1h16.7834zM10.25,27.7496c0-1.4446,1.0543-2.5,2.5-2.5s2.5,1.0554,2.5,2.5c0,1.4458-1.0541,2.4999-2.5,2.4999s-2.5-1.0541-2.5-2.4999zm2.5-3.5c-1.8277,0-3.23993,1.2577-3.46778,3H3v1h6.28218c.22772,1.7434,1.64012,2.9999,3.46782,2.9999s3.2401-1.2565,3.4678-2.9999H33v-1H16.2178c-.2279-1.7423-1.6401-3-3.4678-3z"/></svg>