<svg width="36" height="36" viewBox="0,0,36,36" xmlns="http://www.w3.org/2000/svg"><path fill-rule="evenodd" clip-rule="evenodd" d="m15.5997,3.32783c.9296-.30022,1.8761.29246,2.1133,1.19313l-.4836.12731.4836-.12731.0017.00651c.1804-.13182.3943-.22553.6357-.26554,2.1726-.36023,4.3956-.23894,6.5125.34085.6574.18004,1.0732.76089,1.1237,1.3896,2.1714.46064,3.9697,1.5339,5.1612,2.73352.6354.63977,1.1131,1.3305,1.3752,2.0023.2599.666.3271,1.3696.0411,1.9742-.2887.6107-.8502,1.0265-1.4971,1.2988-.6502.2737-1.4355.4244-2.2616.4773-1.4681.0939-3.1427-.1166-4.5761-.5799-.18.4436-.5551.767-.9975.9086-.5806.1859-1.1341.4237-1.6527.7092-.2968.1633-.6171.2198-.9221.1862l.0269.102c.1727.656-.0718,1.325-.5752,1.7401-.9219.7602-1.7622,1.6188-2.5226,2.5507-.4097.502-1.0704.7455-1.7189.5792l-.8254-.2116c.0367.3063-.0161.6286-.1748.9274-.2788.525-.5099,1.0846-.6892,1.6713-.1446.4732-.4951.8752-.9823,1.0456.4793,1.4369.7136,3.1271.6433,4.6135-.0395.8377-.1769,1.6356-.4386,2.2975-.2601.6576-.6651,1.2335-1.2726,1.5333-.6033.2978-1.3094.2325-1.9766-.0276-.67299-.2625-1.36653-.7437-2.01024-1.384-1.21193-1.2055-2.30257-3.0295-2.77729-5.2292-.59842-.0724-1.1395-.4804-1.31602-1.1093-.59609-2.1236-.73786-4.3582-.40103-6.5468.04418-.2871.16406-.5372.33409-.7393-.57844-.403-.88661-1.147-.6524-1.8755C5.20372,9.80578,9.79127,5.20369,15.5997,3.32783zm8.8727,9.59817c1.323.4379,2.9006.6421,4.2691.5545.7554-.0483,1.4223-.184,1.9375-.401.5186-.2183.8358-.4973.9811-.8046.1261-.2667.1339-.664-.0687-1.1832-.2003-.5135-.5882-1.09235-1.1531-1.6611-1.0468-1.05393-2.6506-2.02174-4.6025-2.44778L24.4724,12.926zm-10.5958,6.2053c.0133.0034.0266.007.0397.0107l2.1993.564c.2489.0638.5176-.0246.6957-.2428.7982-.9783,1.6843-1.8845,2.6612-2.6901.2214-.1825.3116-.4585.2443-.7139l-.3977-1.5107-.0014-.0053-2.1919-8.32482-.3799-1.4428c-.1037-.39379-.5015-.6051-.8389-.49615C10.4062,6.05595,6.05767,10.4168,4.28012,15.946c-.11243.3497.10788.7527.49749.8526l9.09889,2.3332.0001-.0005zm.1072,1.79c.1729-.3254.0057-.7128-.3319-.8147l-8.31604-2.1325-.00003.0001c-.33379-.0855-.65508.1339-.70105.4326-.31487,2.0459-.18254,4.1366.37546,6.1245.07563.2694.37564.449.68121.3749l.10117.4171-.10117-.4171,7.12425-1.7282c.1824-.0442.3392-.1906.4058-.4085.1975-.6464.4528-1.2653.7623-1.8482zm-7.62661,4.8524,5.86521-1.4228c.455,1.3298.6834,2.9295.6176,4.3227-.0364.7687-.1612,1.4495-.3697,1.9769-.2103.5317-.4839.8557-.7853,1.0044-.2596.1281-.6514.1399-1.1706-.0626-.5134-.2002-1.09486-.5908-1.66842-1.1613-1.06402-1.0583-2.04725-2.6828-2.48879-4.6573zM18.0929,5.96377l2.1918,8.32483.0008.0031c.0965.3587.4912.5248.8114.3486.5764-.3173,1.1893-.5804,1.8301-.7855.2129-.0681.3582-.2262.4012-.4137l1.6487-7.18624c.0724-.31555-.1145-.61541-.3781-.6876-1.9794-.54212-4.0565-.65511-6.0849-.3188-.2895.04801-.5115.37167-.421.71531z"/></svg>