<svg width="48" height="48" viewBox="0,0,48,48" xmlns="http://www.w3.org/2000/svg"><path fill-rule="evenodd" clip-rule="evenodd" d="m28.8747,5.08789.2191.44949,1.6881,3.46229h6.2178V21.749l5.2454,10.7532.2192.4495-.4495.2192-5.0151,2.445v4.3838h-8.9872l-7.5692,3.6914-.4494.2191-.2192-.4494-1.688-3.4611h-6.087V27.5185L6.62354,16.4967l-.21924-.4495.4495-.2191,5.1459-2.509V8.99967h8.8549l7.5706-3.69256.4495-.21922zm.7946,3.91162-1.2552-2.57439-5.278,2.57439h6.5332zM12.9997,27.4036l.0002-.0001v-14.572l-.0002.0001V9.99967h23V38.9997h-23V27.4036zm-1-12.9719-4.25815,2.0761,4.25815,8.7296V14.4317zm7.1995,25.568,1.2551,2.5734,5.2769-2.5734h-6.532zM36.9997,34.5034l4.1273-2.0123-4.1273-8.4612v10.4735zM19.9995,13.9992c-.7976,0-1.428.6364-1.428,1.5s.6304,1.5,1.428,1.5c.802,0,1.429-.6301,1.429-1.489,0-.8671-.6339-1.511-1.429-1.511zm-2.428,1.5c0-1.3764,1.0395-2.5,2.428-2.5,1.3928,0,2.429,1.1381,2.429,2.511,0,.4953-.1346.956-.3713,1.3429.7802.5583,1.4539,1.4015,1.956,2.3988.6111,1.214.986,2.69.986,4.2482v.5h-10v-.5c0-1.5593.3757-3.0357.9879-4.2496.5032-.9976,1.1781-1.8406,1.9596-2.3984-.2393-.3904-.3752-.8551-.3752-1.3529zm1.0721,2.0875c-.6611.4342-1.2848,1.1648-1.7636,2.1141-.4771.9459-.7968,2.0837-.8665,3.2993h7.9714c-.0696-1.2149-.3887-2.3525-.8649-3.2985-.4779-.9492-1.1003-1.6799-1.7602-2.1145-.3831.2606-.8483.4121-1.3603.4121-.5106,0-.974-.152-1.3559-.4125zm15.3561-1.587h-7v-1h7v1zm0,4h-7v-1h7v1zm0,4h-7v-1h7v1zm0,4h-19v-1h19v1zm0,4h-19v-1h19v1zm-15,4h-2v-1h2v1zm3,0h-2v-1h2v1zm3,0h-2v-1h2v1z"/></svg>