<svg width="48" height="48" viewBox="0,0,48,48" xmlns="http://www.w3.org/2000/svg"><path fill-rule="evenodd" clip-rule="evenodd" d="m8,6v10.5168C8,17.3359,8.66407,18,9.48324,18h2.03346C12.3359,18,13,17.3359,13,16.5168V6h1v10.5168c0,1.206-.8598,2.2113-1.9999,2.4362L12,41.5c0,.8284-.6716,1.5-1.5,1.5-.82844,0-1.50001-.6716-1.50001-1.5V18.953C7.85985,18.7281,7,17.7229,7,16.5168V6h1zm3.0001,13H9.99999v22.5c0,.2761.22381.5.50001.5.2761,0,.5-.2239.5-.5l.0001-22.5zM10,6v9H9V6h1zm25.0876,2.53471C34.4257,9.52761,34,10.9281,34,12.5s.4257,2.9724,1.0876,3.9653C35.7519,17.4617,36.6146,18,37.5,18s1.7481-.5383,2.4124-1.5347C40.5743,15.4724,41,14.0719,41,12.5s-.4257-2.97239-1.0876-3.96529C39.2481,7.53831,38.3854,7,37.5,7s-1.7481.53831-2.4124,1.53471zm-.8321-.5547C35.039,6.80483,36.1762,6,37.5,6s2.461.80483,3.2445,1.98001C41.5302,9.15868,42,10.7582,42,12.5s-.4698,3.3413-1.2555,4.52c-.4674.7011-1.0607,1.2703-1.7444,1.6155L39,41.5c0,.8284-.6716,1.5-1.5,1.5s-1.5-.6716-1.5-1.5V18.6356c-.6837-.3452-1.2771-.9145-1.7445-1.6156C33.4698,15.8413,33,14.2418,33,12.5s.4698-3.34132,1.2555-4.51999zM37.5,19c.1699,0,.3367-.0133.5001-.0388L38,41.5c0,.2761-.2239.5-.5.5s-.5-.2239-.5-.5V18.9612c.1634.0255.3301.0388.5.0388zm-15-13H22v35.5c0,.8284.6716,1.5,1.5,1.5s1.5-.6716,1.5-1.5v-18h3V13c0-2.2576-.581-4.00768-1.581-5.20259C25.4127,6.59515,24.0185,6,22.5,6zm.5,35.5V7.0267c1.0387.11282,1.9582.58337,2.6521,1.41253C26.4617,9.40653,27,10.9064,27,13v9.5h-3v19c0,.2761-.2239.5-.5.5s-.5-.2239-.5-.5zM12,15V6h-1v9h1z"/></svg>