<svg width="24" height="24" viewBox="0,0,24,24" xmlns="http://www.w3.org/2000/svg"><path fill-rule="evenodd" clip-rule="evenodd" d="m6.2324,2h11.5352l.1484.22265,4,6,.1976.29634-.2155.28355-9.5,12.49996L12,21.8263l-.3981-.5238L2.10192,8.80254l-.21551-.28355,4.19756-6.29634L6.2324,2zM3.43425,8l2.89033-4.33548L7.6135,8H3.43425zm7.30545,10.5154L3.50801,9H7.9108l2.8289,9.5154zM20.492,9l-7.2317,9.5154L16.0892,9h4.4028zm-2.8166-5.33548L20.5657,8h-4.1792l1.2889-4.33548zM12.8982,3h3.9315l-1.2748,4.28812L12.8982,3zm-1.7959,0L8.44534,7.28885,7.17027,3h3.93203zM9.18112,8l2.81908-4.5506L14.8196,8H9.18112zM12,19.2454,15.0459,9H8.95406L12,19.2454z"/></svg>