<svg width="48" height="48" viewBox="0,0,48,48" xmlns="http://www.w3.org/2000/svg"><path fill-rule="evenodd" clip-rule="evenodd" d="m11,3c0,1.65685-1.34315,3-3,3v1c1.65685,0,3,1.34315,3,3h1c0-1.65685,1.3431-3,3-3V6c-1.6569,0-3-1.34315-3-3h-1zm1.8838,3.60503c-.5758.35968-1.0535.86177-1.3838,1.45697-.3638-.65559-.9064-1.19822-1.562-1.562.5953-.33031,1.0974-.80807,1.4571-1.38396.3316.63592.8528,1.15724,1.4887,1.48899zM16.3684,10h-.2669l-.1485.2217-7.36841,11-.19663.2936.21102.2833,17.50072,23.5.4011.5385.401-.5385,17.4992-23.5.211-.2833-.1966-.2936-7.3684-11L36.8985,10H16.3684zm-.1786,1.6651L9.93674,21h8.99496l-2.7419-9.3349zM9.99577,22,25.2369,42.4657,19.2254,22H9.99577zM27.7654,42.4645,43.0043,22h-9.2288l-6.0101,20.4645zM43.0633,21l-6.2528-9.3344L34.0692,21h8.9941zm-7.0995-10h-8.5597l5.8304,9.2934L35.9638,11zm-16.1974,9.2933L25.5962,11h-8.5596l2.7298,9.2933zM26.5002,11.4409,20.5035,21h11.9938l-5.9971-9.5591zM32.7332,22,26.501,43.2211,20.2677,22h12.4655zM6,11c0,1.1046-.89543,2-2,2v1c1.10457,0,2,.8954,2,2h1c0-1.1046.89543-2,2-2v-1c-1.10457,0-2-.8954-2-2H6zm.5,3.3411c-.22154-.3332-.50791-.6196-.84111-.8411.3332-.2215.61957-.5079.84111-.8411.22154.3332.50791.6196.84111.8411-.3332.2215-.61957.5079-.84111.8411z"/></svg>