<svg width="24" height="24" viewBox="0,0,24,24" xmlns="http://www.w3.org/2000/svg"><path fill-rule="evenodd" clip-rule="evenodd" d="m22.5,0h-21C.675,0,0,.675,0,1.5v21c0,.825.675,1.5,1.5,1.5h21c.825,0,1.5-.675,1.5-1.5v-21c0-.825-.675-1.5-1.5-1.5z" fill="#2d327d"/><path fill-rule="evenodd" clip-rule="evenodd" d="m4.07998,9.12004c-.01499-.0225-.03-.0525-.04499-.075-.33001-.57-.66001-1.1325-.99-1.7025-.06001-.105-.0675-.21,0-.315.1725-.2925.345-.5925.5175-.8925.0075-.0075.0075-.015.015-.0225-.18-.105-.3525-.21-.5325-.315v-.0075h.03,1.68c.015,0,.03,0,.045.0225.285.495.5775.99.8625,1.4775,0,.0075.0075.0075.015.0225-.1875-.105-.36-.21-.54-.315-.0075.015-.015.0225-.0225.03-.32251.5625-.645,1.1175-.96751,1.68-.0675.12-.0975.2475-.06.3825,0,.015,0,.0225-.0075.03,0,0,0-.0075,0,0z" fill="#fff"/><path fill-rule="evenodd" clip-rule="evenodd" d="m9.07497,4.0725c.18-.105.3525-.2025.54-.3075-.0075.015-.0075.0225-.015.03-.2775.4875-.5625.975-.84,1.4625-.0075.015-.015.0225-.0375.0225-.57,0-1.14,0-1.71.0075-.0075,0-.0075,0-.0225,0,.18-.105.36-.21.5325-.315-.0075-.015-.015-.0225-.0225-.0375-.315-.555-.6375-1.11-.9525-1.665-.075-.1275-.1725-.2175-.315-.255-.0075,0-.0075-.0075-.015-.0075.015,0,.03,0,.0375,0,.645,0,1.29,0,1.935-.0075.06,0,.12,0,.1725.0075.0825.015.135.0675.18.135.1725.3075.345.6075.525.915,0,0,0,.0075.0075.015z" fill="#fff"/><path fill-rule="evenodd" clip-rule="evenodd" d="m7.88251,9.94496V10.56h-.0075c-.0075-.0075-.0075-.015-.015-.0225-.2775-.4875-.5625-.97504-.84-1.46254-.0075-.015-.015-.0225,0-.045.285-.495.57-.9975.855-1.4925,0,0,.0075-.0075.0075-.015,0,.21,0,.4125,0,.6225.015,0,.03,0,.0375,0,.645,0,1.29,0,1.9275,0,.1425,0,.26999-.045.37499-.1425,0,0,.0075-.0075.015-.015-.0075.015-.015.03-.0225.0375-.32249.5625-.64499,1.125-.96749,1.6875-.03.0525-.06.0975-.0975.1425-.0525.06-.12.0825-.195.0825-.1725,0-.345,0-.5175,0s-.345,0-.5175,0c-.0075.0075-.0225.0075-.0375.0075z" fill="#fff"/><path fill-rule="evenodd" clip-rule="evenodd" d="m6.5925,8.15259v1.785H6.555c-.4125,0-.8325.0075-1.245,0-.375-.015-.66-.1875-.8175-.5325-.0675-.15-.105-.3075-.075-.4725.0075-.0525.0225-.0975.045-.1425.1125-.2025.2325-.405.3525-.6075.0075-.0225.0225-.0225.045-.0225.57,0,1.1325,0,1.7025,0,.0075-.0075.015-.0075.03-.0075z" fill="#fff"/><path fill-rule="evenodd" clip-rule="evenodd" d="m8.19751,6.31511c.51-.3,1.0275-.5925,1.5375-.8925.0075.015.015.0225.0225.03.21.36.42749.7125.62249,1.0725.1425.255.165.5325.045.8025-.0825.1875-.21.3375-.39.4425-.07499.045-.15749.0675-.23999.0675-.225,0-.4575,0-.6825,0-.015,0-.03,0-.0375-.0225-.285-.495-.57-.99-.855-1.4925-.015.0075-.015,0-.0225-.0075z" fill="#fff"/><path fill-rule="evenodd" clip-rule="evenodd" d="m4.26001,4.77009c.0525-.0975.105-.1875.1575-.285.1575-.2775.315-.555.4725-.8325.1425-.24.3525-.3825.63-.4275.2175-.03.42.0075.615.1125.075.045.135.0975.1725.1725.1125.195.225.3975.345.5925.0075.015.015.03,0,.045-.285.495-.5625.99-.8475,1.485,0,.0075-.0075.015-.015.0225-.5025-.2925-1.02-.585-1.53-.885z" fill="#fff"/><path fill-rule="evenodd" clip-rule="evenodd" d="m19.6425,16.7625-4.44,3.3075s-.435.3375-.5475.6c-.03.075-.0375.135-.0225.1875.03.135.18.195.3.1275l6.03-3.3975-1.32-.825z" fill="#fff"/><path fill-rule="evenodd" clip-rule="evenodd" d="m6.35248,14.595c.015-.015,6.25502-4.73245,6.25502-4.73245L20.79,14.9851s-5.9025,4.38-6.1875,4.6125c-.435.3524-.735.8549-.8175,1.3424l-8.11502-5.07c.0075-.03.0075-.0525.0075-.075.03-.4275.1875-.7125.39-.9375.045-.045.285-.2625.285-.2625zm7.05002,4.5975c.1425-.195.315-.375.51-.5325.0075,0,.015-.0075.0075-.0225l-6.02252-3.765c-.0297.0298-.06411.0547-.09205.075l-.02045.015c-.0474.0345-.0849.064-.1125.0858h-.00005c-.0204.0161-.03538.0279-.04495.0342-.1125.0975-.21.195-.3.3075l6.07502,3.8025zM8.66248,14.31l.63-.4725,6.01502,3.765-.63.4725L8.66248,14.31zm1.95002-1.4475L16.635,16.62l1.8225-1.3575.0075-.0075-6.0225-3.7575-1.83,1.365z" fill="#fff"/></svg>