<svg width="24" height="24" viewBox="0,0,24,24" xmlns="http://www.w3.org/2000/svg"><path fill-rule="evenodd" clip-rule="evenodd" d="m2.5,5H2v12h9v3H7v1h10v-1h-4v-3h9V5H2.5zm12.0002,11h2.2428c.1654-.4691.257-.9727.257-1.5,0-1.4961-.7161-2.8131-1.8271-3.6295l-1.0151,1.7582c.5166.458.8422,1.1266.8422,1.8713,0,.5628-.186,1.0822-.4998,1.5zm3.2915,0H21V6H3v10h4.20827c-.09119-.3218-.15431-.656-.18561-1H5v-1h2.0221c.05703-.6418.22287-1.2509.47913-1.8087L5.75488,11.183l.5-.866,1.74516,1.0076c.36216-.5141.81048-.9624,1.32452-1.3246L8.31699,8.25488l.86602-.5,1.00829,1.74635c.5578-.25626,1.1669-.42211,1.8087-.47913V7h1v2.0221c.6418.05702,1.2509.22287,1.8087.47913l1.0083-1.74635.866.5L15.6754,10c.5141.3622.9624.8105,1.3246,1.3246l1.7451-1.0076.5.866-1.7463,1.0083c.2562.5578.4221,1.1669.4791,1.8087H20v1h-2.0227c-.0313.344-.0944.6782-.1856,1zm-9.53472,0h2.24282c-.2183-.2907-.3748-.6306-.4498-1H8.02772c.03868.347.11696.6814.22926,1zM12.5,16c.8284,0,1.5-.6716,1.5-1.5s-.6716-1.5-1.5-1.5-1.5.6716-1.5,1.5.6716,1.5,1.5,1.5zm0-4c-1.2095,0-2.2184.8589-2.45,2H8.02699c.24584-2.2615,2.14201-4,4.47301-4,.6437,0,1.2542.1326,1.8059.3721l-1.0138,1.756C13.0432,12.045,12.7769,12,12.5,12z"/></svg>