<svg width="36" height="36" viewBox="0,0,36,36" xmlns="http://www.w3.org/2000/svg"><path fill-rule="evenodd" clip-rule="evenodd" d="m9.26337,6.25049h9.69333l.1464.14644,7.5,7.49997.1465.1465v15.7071H9.24927l.0138-23.00031.0003-.4997zm.99943,1-.0129,21.50001h15.4997v-14h-7.4997V7.25049h-7.9871zm8.9871.70747,5.7926,5.79254h-5.7926V7.95796zM14.7142,24.6492l1.446-2.145h-1.0905l-.903,1.443-.8925-1.443h-1.1505l1.464,2.145-1.587,2.352h1.1235l1.002-1.563.984,1.563h1.182l-1.578-2.352zm9.2917-.8119h-.936c-.018-.219-.099-.387-.2445-.504-.144-.117-.348-.1725-.6075-.1725-.2325,0-.4125.0435-.54.135-.129.093-.192.219-.192.384,0,.1485.0615.2535.1845.318.1185.0675.4215.159.9045.279.5115.126.864.255,1.062.384.3615.237.543.5685.543.993,0,.465-.1815.8325-.5475,1.101-.321.2385-.7575.3555-1.3065.3555-.6105,0-1.086-.141-1.4235-.42-.339-.2775-.5145-.6765-.5265-1.1895h.9765c.015.249.0795.4335.195.5565.18.1935.4515.288.8145.288.246,0,.441-.0465.585-.144.162-.111.243-.261.243-.4515s-.114-.33-.3405-.4185c-.1245-.0495-.4215-.138-.8865-.267-.2925-.081-.519-.1575-.6825-.228-.165-.0735-.297-.153-.3945-.24-.2295-.2055-.345-.489-.345-.8505,0-.4305.18-.7725.54-1.0245.3045-.2175.702-.3255,1.1895-.3255.429,0,.7875.0855,1.077.255.4155.246.6345.639.6585,1.1865zm-4.0813,3.1642v-.831h-2.2005v-3.666h-.981v4.497h3.1815z"/></svg>