<svg width="36" height="36" viewBox="0,0,36,36" xmlns="http://www.w3.org/2000/svg"><path fill-rule="evenodd" clip-rule="evenodd" d="m9.26337,6.25049h9.69333l.1464.14644,7.5,7.49997.1465.1465v15.7071H9.24927l.0138-23.00031.0003-.4997zm.99943,1-.0129,21.50001h15.4997v-14h-7.4997V7.25049h-7.9871zm8.9871.70747,5.7926,5.79254h-5.7926V7.95796zm-6.273,16.64884v-1.2735h.8235c.27,0,.4635.0405.582.123.1635.111.246.279.246.504,0,.2235-.0705.3945-.213.5085-.114.0915-.3015.138-.5625.138h-.876zm.834-2.1045h-1.815v4.497h.981v-1.62h1.008c.2595,0,.477-.0255.6525-.0765.177-.0495.3345-.132.471-.2475.324-.267.486-.636.486-1.107,0-.528-.1965-.924-.5865-1.188-.1425-.0945-.3015-.162-.4755-.201-.177-.0375-.417-.057-.7215-.057zM17.1144,23.3333v2.8365h.756c.2325,0,.417-.024.555-.069.1365-.048.2565-.1245.3585-.237.2385-.2565.357-.6345.357-1.134,0-.459-.1095-.8055-.33-1.0425-.2205-.2355-.546-.354-.978-.354h-.7185zm-.981-.831h1.818c.3375,0,.627.0405.8685.117.2415.078.453.201.6375.3705.45.4095.6735.978.6735,1.7055,0,.7725-.2115,1.3665-.636,1.788-.186.186-.396.3195-.63.3975-.234.0795-.5325.1185-.8925.1185h-1.839v-4.497zM23.9734,23.3337v-.831h-3.165v4.497h.981v-1.851h1.902v-.7725h-1.902v-1.0425h2.184z"/></svg>