<svg width="36" height="36" viewBox="0,0,36,36" xmlns="http://www.w3.org/2000/svg"><path fill-rule="evenodd" clip-rule="evenodd" d="m6.74371,10.7471,22.50449-.0015c1.106,0,2,.8962,2,2h.0015v11.5007h1.7485v1h-1.7485v1.5008h-1.5144c.0082.0812.0125.164.0125.2485,0,1.5199-1.232,2.75-2.75,2.75-1.5179,0-2.75-1.2301-2.75-2.75,0-.0845.0044-.1673.0126-.2485H11.7353c.0082.0812.0125.164.0125.2485,0,1.5199-1.232,2.75-2.74995,2.75-1.51793,0-2.75-1.2301-2.75-2.75,0-.0845.00439-.1673.01256-.2485H4.74682l-.00011-.4999-.00023-1.0009H2.99817v-1h1.74809l-.00255-11.4991v-.0001c0-1.1041.89584-2,1.99996-2h.00004zm18.52499,16h3.4583c.0136.0826.0208.1654.0208.2485,0,.9671-.7839,1.75-1.75,1.75-.966,0-1.75-.7829-1.75-1.75,0-.0831.0073-.1659.0209-.2485zm-17.99998,0H10.727c.0136.0826.0208.1654.0208.2485,0,.9671-.78388,1.75-1.74995,1.75-.96608,0-1.75-.7829-1.75-1.75,0-.0831.00722-.1659.02087-.2485zM29.2482,11.7456l-22.50446.0015h-.00003c-.55183,0-.99995.4481-1,.9999v.0001l.00288,13h2.00158v-6h5.50003v6h17.0015V12.7456h-.0015c0-.5522-.4469-1-1-1zm-17,14.0015H8.74817v-5h3.50003v5zM8.24849,13.7456h-.5v4H28.25v-4H8.24849zm.5,3v-2H27.25v2H8.74849zm6.50001,3.0015H28.25v4H15.2485v-4zm1,1v2H27.25v-2H16.2485z"/></svg>