<svg width="24" height="24" viewBox="0,0,24,24" xmlns="http://www.w3.org/2000/svg"><path fill-rule="evenodd" clip-rule="evenodd" d="m22.5,0h-21C.675,0,0,.675,0,1.5v21c0,.825.675,1.5,1.5,1.5h21c.825,0,1.5-.675,1.5-1.5v-21c0-.825-.675-1.5-1.5-1.5z" fill="#2d327d"/><circle cx="12" cy="12" r="9" fill="#fff"/><path fill-rule="evenodd" clip-rule="evenodd" d="m3,12c0-4.9725,4.0275-9,9-9s9,4.0275,9,9-4.0275,9-9,9-9-4.0275-9-9zm2.25,0c0,3.7275,3.0225,6.75,6.75,6.75s6.75-3.0225,6.75-6.75S15.7275,5.25,12,5.25,5.25,8.2725,5.25,12z" fill="#eb0000"/><path fill-rule="evenodd" clip-rule="evenodd" d="m16.83,8.25H7.17005c-.2775,0-.495.225-.495.495,0,.2775.225.495.495.495H10.62v8.385c0,.285.2325.5175.5175.5175s.5175-.2325.5175-.5175v-4.4175h.69v4.4175c0,.285.2325.5175.5175.5175s.5175-.2325.5175-.5175V9.2475h3.45c.2775,0,.495-.225.495-.495,0-.2775-.225-.5025-.495-.5025z"/><path fill-rule="evenodd" clip-rule="evenodd" d="m12,7.78503c.57,0,1.035-.4575,1.035-1.0275s-.465-1.035-1.035-1.035-1.0275.465-1.0275,1.035c-.0075.5625.4575,1.0275,1.0275,1.0275z"/></svg>