<svg width="48" height="48" viewBox="0,0,48,48" xmlns="http://www.w3.org/2000/svg"><path fill-rule="evenodd" clip-rule="evenodd" d="m31.4998,6.49805c-2.6823,0-4.7066,2.09897-5.2992,4.82835-.7825-.5193-1.6962-.8284-2.7004-.8284-1.3214,0-2.4848.5345-3.3999,1.3785l-.0006.0005c-.1782.1648-.3477.3417-.5073.5304-.1449-.0378-.2985-.0726-.4587-.1046C18.1879,12.1136,16.9035,12,15.4998,12c-1.4031,0-2.6875.1136-3.6334.3028-.4688.0937-.8806.2111-1.1873.3561-.152.0719-.3051.1629-.4271.282-.1227.12-.25216.3082-.25216.5591V21c0,1.6604.51026,3.2017,1.38676,4.3664-4.69812,2.9464-7.28861,8.1343-7.38659,14.1259l-.00831.5081h23.0452l-.0382-.5355c-.0845-1.184-.2403-2.3434-.4762-3.465h8.5143l-.0382-.5355c-.0844-1.1831-.2399-2.3425-.4754-3.4647h8.5134l-.0382-.5355c-.2672-3.7453-1.2439-7.2507-3.2146-10.0874l1.0936-.386.0276-.0098.0263-.0129c.1944-.0955.4967-.308.6216-.6628.068-.1931.0759-.4119-.0025-.6344-.0754-.2141-.2199-.402-.4079-.5675-.0779-.0685-.1777-.1515-.2946-.2487-1.0466-.8702-3.4661-2.8822-3.8482-5.9072-.0236-3.49386-2.3054-6.44945-5.4999-6.44945zm5.1521,8.82015c-.2396.7663-.5968,1.4672-1.0517,2.0672,1.4067.883,2.5834,1.9467,3.5557,3.1527l1.3545-.4783c.0235-.0135.0484-.0313.0692-.051.009-.0086.0154-.0158.0201-.0215-.0127-.0229-.0442-.0683-.1179-.1331-.0625-.0551-.1495-.1266-.256-.2141-.7722-.6346-2.5727-2.1145-3.5739-4.3219zm-10.4301-2.7066.0002.0001.0031.0028c1.0719.9907,1.7747,2.5593,1.7747,4.3875,0,.1753-.0181.3381-.0396.5313-.006.0546-.0124.1116-.0187.172l.4973.0517-.4974-.0504-.0001.0005c-.2838,2.7979-2.1466,4.7949-4.4411,4.7949-.9654,0-1.8108-.3165-2.5226-.9035.0147-.1974.0222-.3971.0222-.5985v-7.5c0-.2508-.1293-.439-.252-.559-.0512-.05-.1078-.095-.1676-.1358.0646-.0667.1308-.1314.1984-.1939.7568-.6978,1.6853-1.1133,2.7216-1.1133,1.0356,0,1.9648.4156,2.7216,1.1136zm2.778,4.3904c0,.1911-.017.3799-.0354.5507.7209.5982,1.5826.9493,2.5354.9493,2.4004,0,4.3587-2.1857,4.4927-5.1722-.5901-.1221-1.2332-.3616-1.8356-.6726-.7588-.3917-1.4982-.9203-2.0088-1.5282-.4485-.534-.7157-.7871-.9032-.921-.165-.1179-.2745-.1501-.4759-.2038-.0867-.0231-.1609-.02344-.2975.0443-.1665.0826-.39.2506-.7427.5673-.3501.3144-.9282.6038-1.4506.829-.4155.179-.8372.3346-1.1673.4459-.0088.0549-.017.1101-.0245.1657,1.1109,1.1197,1.8162,2.7357,1.9041,4.5582.0062.1281.0093.2573.0093.3874zm2.5-9.50395c2.2978,0,4.191,2.00569,4.4658,4.79875-.4223-.1102-.8903-.2908-1.3499-.5281-.6829-.3526-1.302-.8068-1.7019-1.2828-.4619-.54995-.7945-.8822-1.0876-1.09158-.3154-.22537-.5673-.29442-.7995-.35633-.3469-.0925-.6701-.0488-.9996.11471-.2996.14865-.6109.39978-.9664.71907-.2165.19443-.6573.43013-1.1783.65463-.1585.0683-.3184.1331-.473.1929.696-1.94263,2.2562-3.22125,4.0904-3.22125zM27.5892,21.3755c.5737-.7637.99-1.6891,1.2098-2.7013.7824.5188,1.6959.8278,2.7008.8278,1.3304,0,2.5026-.5121,3.4192-1.3622,4.4667,2.7276,6.5442,7.4157,7.0385,12.8599h-7.6681c-1.0239-3.9574-3.1195-7.3783-6.7002-9.6242zm-.7693.841c.031-.0276.0616-.0557.092-.0841,4.4667,2.7272,6.551,7.4232,7.0458,12.8675H26.288c-.4921-1.8962-1.2311-3.6676-2.2625-5.2451l1.9543-3.7322.1276-.2437-.1375-.2382-.8505-1.4731,1.7005-1.8511zm-1.8536,3.5859-1.3991,2.6718-1.4617-2.6847.8374-1.5525.1705-.316-.245-.2625-.2096-.2246c.2722.0451.5529.0681.8414.0681.2903,0,.5729-.0245.8468-.0717l-.2124.2311-.2483.2703.1835.3179.8965,1.5528zm-5.3773-.4042c.5455-.715.9517-1.5746,1.1849-2.5182l1.1184,1.1983-.7955,1.475-.1287.2385.1296.2379.462.8485c-.6-.5365-1.2558-1.0315-1.9707-1.48zM15.4998,27.5c1.3236,0,2.4905-.5068,3.4051-1.3491,4.4696,2.7264,6.5579,7.4051,7.0529,12.8495H5.01451c.22946-5.5502,2.7214-10.2345,7.05009-12.8776.919.8591,2.0971,1.3772,3.4352,1.3772zm4.5-13.029v4.9092c-.0246.0155-.0593.035-.1066.0574-.1993.0943-.5196.1924-.9556.2795-.8638.1727-2.0794.2829-3.4378.2829-1.3579,0-2.5735-.1102-3.4373-.2829-.4361-.0871-.7565-.1852-.9559-.2795-.0474-.0224-.0821-.0419-.1068-.0575v-4.9092c.252.0876.546.1627.8667.2268.9458.1891,2.2302.3023,3.6333.3023,1.4036,0,2.688-.1132,3.6338-.3023.3205-.0641.6144-.1392.8662-.2267zm-7.9373-.7539c-.3401-.068-.6098-.1426-.8067-.2168.1969-.0743.4667-.149.8067-.217C12.9264,13.1105,14.142,13,15.4998,13c1.3584,0,2.574.1105,3.4377.2833.34.0681.6097.1427.8065.217-.1967.0742-.4664.1488-.8064.2168-.8638.1727-2.0794.2829-3.4378.2829-1.3579,0-2.5735-.1102-3.4373-.2829zM19.9998,21v-.529c-.0532.0185-.1083.0365-.1652.0539-.021.0313-.0448.0647-.0718.0996-.1378.1785-.3541.3942-.686.601-.6637.4136-1.7632.7762-3.5775.7742-1.8139-.0021-2.9127-.3648-3.5758-.7768-.3317-.2061-.548-.4208-.6859-.5986-.0271-.0349-.0509-.0681-.0719-.0993-.0571-.0175-.1124-.0355-.1659-.0541V21c0,3.153,2.0127,5.5,4.5,5.5,2.4874,0,4.5-2.347,4.5-5.5zm-7.5011-3.4866,1.4988-1.4988h.888l-1.1934,1.1194h1.4432v-1.1194h.7308v1.1194h1.4247l-1.1657-1.1194h.8974l1.4802,1.4988-1.4802,1.4893h-.8974l1.2536-1.2535h-1.4478v1.2535h-.7956v-1.2535h-1.4432l1.1934,1.2535h-.888l-1.4988-1.4893z"/></svg>