<svg width="24" height="24" viewBox="0,0,24,24" xmlns="http://www.w3.org/2000/svg"><path fill-rule="evenodd" clip-rule="evenodd" d="m12,3c-4.97056,0-9,4.02944-9,9,0,4.9706,4.02944,9,9,9,4.9706,0,9-4.0294,9-9,0-4.97056-4.0294-9-9-9zM2,12C2,6.47715,6.47715,2,12,2c5.5228,0,10,4.47715,10,10,0,5.5228-4.4772,10-10,10C6.47715,22,2,17.5228,2,12zm8.6007-5.55197.62.20665-.4229.63422.8321.5547.3699-.55485.3699.55485.832-.5547-.4228-.6342.6201-.20667-.3162-.94869-.5828.19425v-.57082h-1v.57094l-.5831-.19437-.3162.94869zm4.62,1.85056-.62-.20666.3162-.94868.5831.19436v-.57094h1v.57083l.5828-.19425.3162.94868-.6201.20668.4228.63419-.832.5547-.3699-.55485-.3699.55485-.8321-.5547.4229-.63421zm.88,3.76211.62.2066-.4229.6342.8321.5547.3699-.5548.3699.5548.832-.5547-.4228-.6342.6201-.2066-.3162-.9487L18,11.3062v-.5708h-1v.5709l-.5831-.1943-.3162.9487zm-.88,4.1754-.62-.2067.3162-.9487.5831.1944v-.571h1v.5709l.5828-.1943.3162.9487-.6201.2067.4228.6342-.832.5547-.3699-.5549-.3699.5549-.8321-.5547.4229-.6342zM10.6007,17.6733l.62.2067-.4229.6342.8321.5547.3699-.5549.3699.5549.832-.5547-.4228-.6342.6201-.2067-.3162-.9487-.5828.1943v-.5709h-1v.571l-.5831-.1944-.3162.9487zm-3.38005-1.4372-.61997-.2067.31622-.9487.5831.1944v-.571h1v.5709l.58275-.1943.31623.9487-.62004.2067.4228.6342-.83205.5547-.3699-.5549-.3699.5549-.83205-.5547.42281-.6342zm-2.11997-4.1754.61997.2066-.42281.6342.83205.5547.3699-.5548.3699.5548.83205-.5547-.4228-.6342.62004-.2066-.31623-.9487L7,11.3062v-.5708H6v.5709l-.5831-.1943-.31622.9487zM7.22065,8.29859l-.61997-.20666.31622-.94868.5831.19436v-.57094h1v.57083l.58275-.19425.31623.94868-.62004.20668.4228.63419-.83205.5547-.3699-.55484-.3699.55484-.83205-.5547.42281-.63421z"/></svg>