<svg width="24" height="24" viewBox="0,0,24,24" xmlns="http://www.w3.org/2000/svg"><path fill-rule="evenodd" clip-rule="evenodd" d="m22.5,0h-21C.675,0,0,.675,0,1.5v21c0,.825.675,1.5,1.5,1.5h21c.825,0,1.5-.675,1.5-1.5v-21c0-.825-.675-1.5-1.5-1.5z" fill="#237f52"/><path fill-rule="evenodd" clip-rule="evenodd" d="m10.7325,14.76-.6375-1.725.9375-1.2075L11.205,10.5l.36.045-.1875,1.425L10.5,13.095l.57,1.545-.3375.12z" fill="#fff"/><path fill-rule="evenodd" clip-rule="evenodd" d="m7.83746,9.68253h-2.2575v-.36h2.175l1.3125-.6675,1.44004.3825-.09.345-1.31254-.345-1.2675.645z" fill="#fff"/><path fill-rule="evenodd" clip-rule="evenodd" d="m14.0924,10.545-.795-.86249h-.7275v-.36h.885l.9.97499-.2625.2475z" fill="#fff"/><path fill-rule="evenodd" clip-rule="evenodd" d="m7.50756,10.6875-.135-.33,1.5675-.63745.7425.29995.75754-.34495.15.3225-.89254.41245-.7575-.3-1.4325.5775z" fill="#fff"/><path fill-rule="evenodd" clip-rule="evenodd" d="m16.41,11.085c-.0825-.075-.1875-.12-.3-.12h-.0075c-.1125,0-.225.0525-.3.135l-.1275.135,1.305,1.245-.1425.15L15.24,11.1c-.0825-.075-.1875-.12-.3-.12h-.0075c-.1125,0-.225.0525-.3.135l-.135.135,1.905,1.815-.1425.15-2.1975-2.0925c-.0825-.075-.1875-.12-.3-.12h-.0075c-.1125,0-.225.0525-.3.135l-.135.135,2.505,2.3925-.1425.15-2.85-2.715c-.0825-.0825-.195-.12-.3075-.12-.0075,0-.0075,0-.015,0-.2475.0075-.4425.21-.435.4575,0,.12.0525.2325.135.3075l2.7075,2.58c.09.09.1425.21.15.33l.015.7575c.0075.1875-.1425.3375-.3225.3375l-1.35.03c-.3.0075-.57.2025-.66.495-.015.0375-.015.075-.015.12.0075.195.165.345.36.345h.0075l3.945-.0975.75-.015,3.195,1.8975v-3.42l-1.7325-1.02-2.85-3z" fill="#fff"/><path fill-rule="evenodd" clip-rule="evenodd" d="m3.60754,19.4476h.78l1.3425-1.6275.72-.2025,3.80246-1.0575c.1875-.0525.3-.2475.2475-.4425-.0075-.0375-.03-.075-.0525-.1125-.135-.195-.3525-.3-.58496-.3-.0675,0-.1275.0075-.195.03l-1.305.36c-.03.0075-.06.015-.09.015-.1425,0-.2775-.0975-.3225-.24l-.2025-.7275c-.0375-.12-.015-.255.045-.36l1.8375-3.255c.06-.105.075-.225.0375-.3375-.0525-.195-.2325-.3225-.4275-.3225-.0375,0-.0825.0075-.12.015-.1125.03-.21.105-.27.21l-1.935,3.4275-.18-.0975,1.7025-3.015-.165-.09c-.0675-.0375-.135-.0525-.21-.0525-.0375,0-.075.0075-.1125.015-.1125.03-.2025.105-.255.2025l-1.4925,2.6475-.18-.0975,1.29-2.295-.165-.09c-.0675-.0375-.135-.0525-.21-.0525-.0375,0-.075.0075-.1125.015-.1125.03-.2025.105-.255.2025l-1.08,1.92-.18-.105.885-1.5675-.165-.09c-.0675-.0375-.135-.0525-.21-.0525-.0375,0-.075.0075-.1125.015-.1125.03-.2025.105-.255.2025l-2.085,3.735v3.3525c-.0075.1125.105.225.24.225z" fill="#fff"/><path fill-rule="evenodd" clip-rule="evenodd" d="m3.36,15.405V8.4h14.9775c.2475,0,.495.21.54.45l.99,5.3475.405.24L19.23,8.7825c-.075-.4125-.48-.7425-.8925-.7425H3.36V6.6075c0-.135.1125-.2475.2475-.2475h16.785c.135,0,.2475.1125.2475.2475v8.0475l.36.21V6.6075C21,6.27,20.73,6,20.3925,6H3.6075C3.27,6,3,6.27,3,6.6075v9.435l.12-.2175.24-.42z" fill="#fff"/><path fill-rule="evenodd" clip-rule="evenodd" d="m20.6401,18.5699v.63c0,.135-.1125.2475-.2475.2475H4.66506l-.2925.36H20.3926c.3375,0,.6075-.27.6075-.6075v-.42l-.1125-.0675-.2475-.1425z" fill="#fff"/><path fill-rule="evenodd" clip-rule="evenodd" d="m10.4999,16.125c-.0075-.0375-.03-.075-.0525-.1125-.135-.195-.3525-.3-.58495-.3-.0675,0-.1275.0075-.195.03l-1.305.36c-.03.0075-.06.015-.09.015-.1425,0-.2775-.0975-.3225-.24l-.2025-.7275c-.0375-.12-.015-.255.045-.36l1.8375-3.255c.06-.105.075-.225.0375-.3375-.0525-.195-.2325-.3225-.4275-.3225-.0375,0-.0825.0075-.12.015-.1125.03-.21.105-.27.21l-1.935,3.4275-.18-.0975,1.7025-3.015-.165-.09c-.0675-.0375-.135-.0525-.21-.0525-.0375,0-.075.0075-.1125.015-.1125.03-.2025.105-.255.2025l-1.4925,2.6475-.18-.0975,1.29-2.295-.165-.09c-.0675-.0375-.135-.0525-.21-.0525-.0375,0-.075.0075-.1125.015-.1125.03-.2025.105-.255.2025l-1.08,1.92-.18-.105.885-1.5675-.165-.09c-.0675-.0375-.135-.0525-.21-.0525-.0375,0-.075.0075-.1125.015-.1125.03-.2025.105-.255.2025l-2.085,3.735-.0525.09-.3075.555V19.2c0,.3375.27.6075.6075.6075h.48l.2925-.36,1.3425-1.6275.72-.2025L10.2524,16.56c.1875-.045.3-.2475.2475-.435z" fill="#fff"/><path fill-rule="evenodd" clip-rule="evenodd" d="m12.135,9.50245c0-.3375-.2775-.615-.615-.615s-.615.2775-.615.615.2775.61505.615.61505.615-.27755.615-.61505z" fill="#eb0000"/></svg>