<svg width="24" height="24" viewBox="0,0,24,24" xmlns="http://www.w3.org/2000/svg"><path fill-rule="evenodd" clip-rule="evenodd" d="m15.4424,17.1496,3.2041,3.2041.7071-.7071L4.35356,4.64661l-.7071.7071,2.81385,2.81385C4.76492,9.48793,3.55817,11.0481,3.09086,11.7121l-.19853.2822.19327.2857c.39255.5804,1.48594,1.9938,3.03132,3.2681,1.53855,1.2687,3.58886,2.4518,5.88288,2.4518,1.2423,0,2.4015-.3419,3.4426-.8503zm-.7529-.7528-.8507-.8508c-.5508.2967-1.1631.4537-1.8388.4537-2.20895,0-3.99999-1.7897-3.99999-3.999,0-.6844.14874-1.2889.45136-1.8421l-1.2781-1.27807C5.74534,9.97077,4.66521,11.2673,4.11536,12.0031c.4667.6313,1.39849,1.7516,2.63775,2.7735,1.46295,1.2063,3.29069,2.2233,5.24669,2.2233.9396,0,1.8418-.23,2.6897-.6031zm-1.6012-1.6012-3.88784-3.8879c-.13386.3281-.20045.6852-.20045,1.093,0,1.6567,1.34299,2.999,2.99999,2.999.3964,0,.7567-.07,1.0883-.2041zm-2.0662-6.66292c.3001-.07529.6269-.13203.9777-.13203,2.2091,0,4,1.78976,4,3.99995,0,.3509-.0581.678-.1329.9773l-.9702-.2425c.0632-.2527.1031-.4936.1031-.7348,0-1.6577-1.343-2.99995-3-2.99995-.2432,0-.4844.03926-.7343.10197l-.2434-.96994zM9.36395,6.50435c.82175-.30775,1.70445-.50376,2.63635-.50376,2.294,0,4.3443,1.18306,5.8829,2.45173,1.5453,1.27431,2.6387,2.68778,3.0313,3.26818l.1932.2856-.1984.2821c-.4277.6084-1.4707,1.9534-2.9297,3.1836l-.6446-.7645c1.1759-.9915,2.0686-2.0675,2.5497-2.71-.4668-.6314-1.3985-1.7516-2.6377-2.77345-1.463-1.20633-3.2907-2.22326-5.2467-2.22326-.7901,0-1.5533.16598-2.28562.44024l-.35073-.93648z"/></svg>