<svg width="24" height="24" viewBox="0,0,24,24" xmlns="http://www.w3.org/2000/svg"><path fill-rule="evenodd" clip-rule="evenodd" d="m12.0001,6.00018c-2.29177,0-4.31499,1.15332-5.84267,2.41013C4.62345,9.67229,3.53142,11.0857,3.09095,11.7128l-.19813.282.1931.2855c.39255.5804,1.48593,1.9938,3.03132,3.2681,1.53855,1.2687,3.58886,2.4518,5.88286,2.4518,2.2917,0,4.315-1.1533,5.8426-2.4101,1.534-1.262,2.626-2.6755,3.0665-3.3025l.1981-.282-.1931-.2855c-.3925-.5804-1.4859-1.99388-3.0313-3.26818-1.5385-1.26867-3.5888-2.45174-5.8828-2.45174zM6.75343,14.7769c-1.23937-1.022-2.17122-2.1423-2.63788-2.7737.49825-.6672,1.43647-1.7999,2.6772-2.82064,1.44732-1.1907,3.24905-2.18238,5.20735-2.18238,1.956,0,3.7837,1.01694,5.2466,2.22327,1.2394,1.02195,2.1713,2.14235,2.6379,2.77365-.4982.6673-1.4365,1.8-2.6772,2.8207-1.4473,1.1907-3.2491,2.1824-5.2073,2.1824-1.956,0-3.78372-1.017-5.24667-2.2233zm5.24667-6.77672c-2.20916,0-4.00001,1.79086-4.00001,4.00002,0,2.2091,1.79085,4,4.00001,4,2.2091,0,4-1.7909,4-4,0-2.20916-1.7909-4.00002-4-4.00002zM9.00009,12.0002c0-1.6569,1.34311-3.00002,3.00001-3.00002,1.6568,0,3,1.34312,3,3.00002,0,1.6568-1.3432,3-3,3-1.6569,0-3.00001-1.3432-3.00001-3z"/></svg>