<svg width="24" height="24" viewBox="0,0,24,24" xmlns="http://www.w3.org/2000/svg"><path fill-rule="evenodd" clip-rule="evenodd" d="m8.77735,4.58407L8,4.06584v4.13355l.73387-.38835C9.70933,7.29483,10.8193,7.0001,12,7.0001s2.2907.29473,3.2661.81094L16,8.19939V4.06584l-.7773.51823-1.159.77263-.7101-.71015L13,4.29299l-.3536.35356L12,5.29299l-.6464-.64644L11,4.29299l-.3536.35356-.71011.71015-1.15894-.77263zM11,5.70721l.3215.32151c-.2505.02122-.4976.05405-.7409.09794L11,5.70721zm-2,.22715.63515.42344c-.21576.067-.42762.14288-.63515.22717v-.65061zm4.4194.1923c-.2433-.04389-.4904-.07672-.7409-.09794L13,5.70721l.4194.41945zM15,6.58497c-.2075-.08429-.4194-.16017-.6352-.22717L15,5.93436v.65061zM12,9c-2.76186,0-5,2.2381-5,5,0,2.7609,2.2382,5,5,5,2.7609,0,5-2.2391,5-5,0-2.7618-2.2391-5-5-5zm-6,5c0-3.3141,2.68586-6,6-6,3.3131,0,6,2.6858,6,6,0,3.3131-2.6869,6-6,6-3.3142,0-6-2.6869-6-6zm3-1c0-.5521.44786-1,1-1,.5521,0,1,.4479,1,1s-.4479,1-1,1c-.55214,0-1-.4479-1-1zm5-1c-.5521,0-1,.4479-1,1s.4479,1,1,1,1-.4479,1-1-.4479-1-1-1zm-1.9997,6c-1.3597,0-2.55511-.6817-3.27672-1.7134l.81944-.5732C10.0874,16.4917,10.984,17,12.0003,17c1.0155,0,1.9128-.5084,2.4561-1.2863l.8198.5726C14.5555,17.3184,13.3588,18,12.0003,18z"/></svg>