<svg width="24" height="24" viewBox="0,0,24,24" xmlns="http://www.w3.org/2000/svg"><path fill-rule="evenodd" clip-rule="evenodd" d="m4.26365,3.01809c.34122-.60478.98657-1.01779,1.73659-1.01779.51854,0,.9913.1979,1.34655.52122l-.67309.73956c-.17875-.16268-.41399-.26078-.67346-.26078-.45792,0-.84412.31162-.96047.74005l-.14725.54218-.52144-.20918c-.11706-.04696-.24205-.07305-.37084-.07305-.55285,0-1,.44714-1,1h-1c0-1.10514.89486-2,2-2,.08955,0,.17748.00615.26341.01779zM2.5,7.0002H2v14h19V8.45989l-.8123.64988L16,12.4599V8.45989l-.8123.64988L11,12.4599V8.45989l-.8123.64988L6,12.4599V7.0002H2.5zm.5,13v-12h2v6.5403l.81235-.6499L10,10.5405v4l.8123-.6499L15,10.5405v4l.8123-.6499L20,10.5405v9.4597H3zM5.5,16H5v2h3v-2H5.5zm4.5,0h3v2h-3v-2zm5.5,0H15v2h3v-2h-2.5zM9,3.0002c-.74886,0-1.39499.41276-1.73603,1.01786C7.17789,4.00638,7.08978,4.0002,7,4.0002c-1.10514,0-2,.89486-2,2h1c0-.55286.44714-1,1-1,.12864,0,.25395.02603.37277.07342l.52157.20803.14637-.54211c.11543-.42748.50203-.73934.95929-.73934.55286,0,1,.44714,1,1h1c0-1.10514-.8949-2-2-2z"/></svg>