<svg width="36" height="36" viewBox="0,0,36,36" xmlns="http://www.w3.org/2000/svg"><path fill-rule="evenodd" clip-rule="evenodd" d="m6.25,7.27197.79275.57254,6.74995,4.87499,1.4573,1.0521V7.27197l.7927.57254,6.75,4.87499,6.75,4.875.5613.4054-.5613.4053-13.5,9.75-.7927.5725v-6.5006l-1.4571,1.053-.0002.0001-6.74995,4.875-.79275.5725V7.27197zm1,1.95576V26.772l5.9571-4.3024.0002-.0001,2.2498-1.6259.7929-.573v6.5014l5.9573-4.3025,6.1887-4.4696-6.1887-4.4697L16.25,9.22773v6.49937l-.7927-.5724-2.25-1.6245L7.25,9.22773z"/></svg>