<svg width="48" height="48" viewBox="0,0,48,48" xmlns="http://www.w3.org/2000/svg"><path fill-rule="evenodd" clip-rule="evenodd" d="m22,8.5c0-.82843.6716-1.5,1.5-1.5s1.5.67157,1.5,1.5-.6716,1.5-1.5,1.5S22,9.32843,22,8.5zm-.8968.71335c-2.154.35849-4.1986,1.20295-5.9785,2.46855.2379.3827.3753.8343.3753,1.3181,0,.5595-.1838,1.0761-.4943,1.4927l6.3928,6.2082C21.9837,20.2608,22.7114,20,23.5,20c.7885,0,1.5162.2608,2.1013.7008l6.3929-6.2083C31.6838,14.076,31.5,13.5594,31.5,13c0-.4839.1375-.9358.3756-1.3185-1.7799-1.2655-3.8245-2.10933-5.9787-2.46849C25.5899,10.2463,24.633,11,23.5,11c-1.1329,0-2.0897-.7535-2.3968-1.78665zm4.8806-.99945C25.8419,6.96793,24.784,6,23.5,6c-1.2841,0-2.3421.96812-2.4839,2.21429-2.3786.38347-4.6345,1.32058-6.5857,2.73511C14.0251,10.6661,13.532,10.5,13,10.5c-1.3807,0-2.5,1.1193-2.5,2.5,0,.5318.1661,1.0249.4492,1.4301-1.41461,1.9514-2.35092,4.2074-2.73505,6.5861C6.96805,21.158,6,22.216,6,23.5c0,1.2841.96813,2.3421,2.21429,2.4839.38348,2.3786,1.32059,4.6345,2.73511,6.5857-.2833.4053-.4494.8984-.4494,1.4304,0,1.3807,1.1193,2.5,2.5,2.5.5312,0,1.0238-.1657,1.4288-.4482.8072.5886,1.6694,1.098,2.5743,1.5204l-.8572,2.4288H14v1h18.001v-1h-2.1266l-.6241-2.1219c1.1775-.4715,2.2921-1.0855,3.3195-1.8284.4052.2832.8983.4493,1.4302.4493,1.3807,0,2.5-1.1193,2.5-2.5,0-.5317-.166-1.0246-.4489-1.4297,1.4138-1.9515,2.3501-4.2076,2.7343-6.5864C40.0317,25.8423,41,24.7842,41,23.5c0-1.2841-.9682-2.3421-2.2144-2.4839-.384-2.3787-1.3196-4.6357-2.7344-6.5866.2829-.4051.4488-.8979.4488-1.4295,0-1.3807-1.1193-2.5-2.5-2.5-.5318,0-1.0247.166-1.4299.4491-1.9515-1.41469-4.2076-2.35105-6.5863-2.7352zM34,15.5c.4841,0,.9361-.1376,1.319-.3758,1.2652,1.7791,2.1085,3.8245,2.4675,5.9791C36.7534,21.4104,36,22.3672,36,23.5c0,1.1327.7533,2.0895,1.7863,2.3967-.3591,2.1543-1.2029,4.199-2.4676,5.979C34.9359,31.6375,34.484,31.5,34,31.5c-.4518,0-.8757.1199-1.2414.3295l-6.4508-6.2398C26.7424,25.0068,27,24.2835,27,23.5c0-.7838-.2576-1.5074-.6928-2.0908l6.4344-6.2486c.3696.2158.7996.3394,1.2584.3394zm-22.3184-.3755c-1.2654,1.7799-2.10922,3.8245-2.46837,5.9787C10.2464,21.4102,11,22.3671,11,23.5c0,1.1328-.7535,2.0897-1.78665,2.3967.3585,2.1541,1.20295,4.1987,2.46855,5.9786.3827-.2379.8344-.3753,1.3181-.3753.4519,0,.8758.1199,1.2416.3296l6.4507-6.2397C20.2577,25.0069,20,24.2835,20,23.5c0-.7837.2576-1.5072.6927-2.0906l-6.4344-6.2486c-.3696.2156-.7995.3392-1.2583.3392-.4839,0-.9356-.1375-1.3184-.3755zm14.2589,11.5012,6.065,5.8667c-.3173.4191-.5055.9414-.5055,1.5076,0,.4838.1374.9354.3753,1.3181-.905.6418-1.8807,1.1777-2.9085,1.597l-3.0263-10.2894zM15.1235,35.32c.6981.4996,1.4392.9362,2.2141,1.3044l3.4289-9.715-5.772,5.5831c.3173.4191.5055.9413.5055,1.5075,0,.4846-.1379.9369-.3765,1.32zM26,23.5c0,.5788-.1965,1.1118-.5271,1.5358l-.4932-1.6769L24.8741,23h-2.7279l-.1177.3336-.5688,1.6116C21.1699,24.537,21,24.0384,21,23.5c0-1.3807,1.1193-2.5,2.5-2.5s2.5,1.1193,2.5,2.5zm2.8321,16.501L24.1259,24h-1.2721l-5.6474,16.001h11.6257zM11.5,34c0-.8284.6716-1.5,1.5-1.5s1.5.6716,1.5,1.5-.6716,1.5-1.5,1.5-1.5-.6716-1.5-1.5zM34,32.5c-.8284,0-1.5.6716-1.5,1.5s.6716,1.5,1.5,1.5,1.5-.6716,1.5-1.5-.6716-1.5-1.5-1.5zm-27-9c0-.8284.67157-1.5,1.5-1.5s1.5.6716,1.5,1.5S9.32843,25,8.5,25,7,24.3284,7,23.5zM38.5,22c-.8284,0-1.5.6716-1.5,1.5s.6716,1.5,1.5,1.5,1.5-.6716,1.5-1.5-.6716-1.5-1.5-1.5zm-27-9c0-.8284.6716-1.5,1.5-1.5s1.5.6716,1.5,1.5-.6716,1.5-1.5,1.5-1.5-.6716-1.5-1.5zM34,11.5c-.8284,0-1.5.6716-1.5,1.5s.6716,1.5,1.5,1.5,1.5-.6716,1.5-1.5-.6716-1.5-1.5-1.5z"/></svg>