<svg width="36" height="36" viewBox="0,0,36,36" xmlns="http://www.w3.org/2000/svg"><path fill-rule="evenodd" clip-rule="evenodd" d="m11.6418,4.40218c.8583-.0974,1.7265-.1531,2.6067-.1531,4.3602,0,8.4324,1.20058,11.9307,3.27313l.5097-.86034c-3.6464-2.16029-7.8937-3.41279-12.4404-3.41279-.9224,0-1.8285.05838-2.7194.15947l.1127.99363zM6.19929,7.82189c2.48704-1.00566,5.20031-1.57253,8.04961-1.57253,6.3126,0,11.9711,2.73738,15.9026,7.06634l-.7403.6723c-3.7519-4.13117-9.146-6.73864-15.1623-6.73864-2.7153,0-5.30161.54-7.67474,1.49961l-.37487-.92708zm8.05021,2.42771c-3.3069,0-6.38856.9343-9.02867,2.5303l-.51734-.8558c2.78806-1.6854,6.04751-2.67447,9.54601-2.67447,6.8651,0,12.8418,3.74817,16.0339,9.29687l-.8669.4987c-3.0218-5.2529-8.6759-8.7956-15.167-8.7956zM5.27196,20.5743c2.10863-2.6345,5.34384-4.324,8.97774-4.324,6.3219,0,11.4485,5.1023,11.4955,11.4136l.9999-.0074c-.051-6.8597-5.6232-12.4062-12.4954-12.4062-3.9517,0-7.46909,1.8388-9.75846,4.6992l.78072.6248zm-1.0913-4.595C6.88914,13.6602,10.4022,12.25,14.2495,12.25c7.0522,0,12.9923,4.7133,14.8717,11.1561l-.96.28C26.4026,17.6572,20.8441,13.25,14.2495,13.25c-3.598,0-6.88277,1.3177-9.41844,3.4889l-.6504-.7596zM8.75874,27.6708c.04349-3.0011,2.48196-5.4208,5.49136-5.4208,3.0375,0,5.5,2.4624,5.5,5.5v4.0435h1V27.75c0-3.5899-2.9102-6.5-6.5-6.5-3.559,0-6.43989,2.8616-6.49125,6.4063l.99989.0145zM5.6003,23.8353c1.49163-3.2896,4.7981-5.5848,8.6491-5.5848,5.2467,0,9.5,4.2534,9.5,9.5v2.645h-1v-2.645c0-4.6943-3.8056-8.5-8.5-8.5-3.4426,0-6.40212,2.0509-7.73836,4.9977l-.91074-.4129zm8.6497.4147c-1.9331,0-3.5,1.5669-3.5,3.5v2.6448h1V27.75c0-1.3808,1.1192-2.5,2.5-2.5,1.3807,0,2.5,1.1192,2.5,2.5v4.5h1v-4.5c0-1.9331-1.567-3.5-3.5-3.5zm-.5,7.2499v-4.5h1v4.5h-1z"/></svg>