<svg width="24" height="24" viewBox="0,0,24,24" xmlns="http://www.w3.org/2000/svg"><path fill-rule="evenodd" clip-rule="evenodd" d="m22.5,0h-21C.675,0,0,.675,0,1.5v21c0,.825.675,1.5,1.5,1.5h21c.825,0,1.5-.675,1.5-1.5v-21c0-.825-.675-1.5-1.5-1.5z" fill="#9b2423"/><path fill-rule="evenodd" clip-rule="evenodd" d="m9.28495,5.175V6.54c1.02745,0,1.87495,1.0275,1.86745,1.8525V21H5.10744V8.385c0-1.125.87001-1.83,1.785-1.8525h.04501V5.325l-1.31251.51-.9375.96-.045,1.1475-.75.0225s-.12-.465,0-1.38.3525-1.08.3525-1.08l2.085-1.8525h.915V3h1.7775v.825l.915-.0225.60746.255v.885l-.62995.21-.63.0225zm-3.495,7.3875h4.68745v-2.79H5.78995v2.79z" fill="#fff"/><path fill-rule="evenodd" clip-rule="evenodd" d="m20.1,12.0824V9.79493s-.5175-.1275-1.0575-.8175c-.45-.57-1.11-2.4225-1.11-2.4225s-.5775,1.9125.1875,3.375c.8625,1.66497,1.98,2.15247,1.98,2.15247z" fill="#fff"/><path fill-rule="evenodd" clip-rule="evenodd" d="m15.6075,9.11252c.2175.885.645,2.46748,1.5825,3.29998,1.455,1.2975,2.94.69,2.94.69s-1.1175-.3975-1.77-1.515-1.035-2.63998-1.815-3.32998c-1.08-.9525-1.935-.6-1.935-.6s.75.435.9975,1.455z" fill="#fff"/><path fill-rule="evenodd" clip-rule="evenodd" d="m15.2474,11.0176s-.4875,1.7175,1.0575,3.4725c1.7475,1.9875,3.8025,2.1225,3.8025,2.1225v-2.2875s-1.35-.12-2.61-.975c-1.695-1.1475-2.25-2.3325-2.25-2.3325z" fill="#fff"/><path fill-rule="evenodd" clip-rule="evenodd" d="m17.6249,18.3525c1.7625.24,2.475-.6825,2.475-.6825s-.795-.075-1.845-.735c-.7575-.48-1.815-2.04-3.03-2.04-1.4025,0-1.6425.54-1.6425.54s.6525.1275,1.26.585c.8775.66,1.335,2.13,2.7825,2.3325z" fill="#fff"/><path fill-rule="evenodd" clip-rule="evenodd" d="m17.7974,18.9751c-1.2375-.1125-2.6475-1.23-2.6475-1.23s.0075,1.1175.96,2.19,2.1225,1.0575,2.505,1.065c.3525.0075,1.485-.0225,1.485-.0225l-.0225-2.19s-1.05.3-2.28.1875z" fill="#fff"/></svg>