<svg width="36" height="36" viewBox="0,0,36,36" xmlns="http://www.w3.org/2000/svg"><path fill-rule="evenodd" clip-rule="evenodd" d="m17.75,8.25c0-.55228.4477-1,1-1s1,.44772,1,1-.4477,1-1,1-1-.44772-1-1zm1-2c-1.1046,0-2,.89543-2,2,0,.37086.1009.71814.2768,1.01587L9.26587,17.0268c-.29773-.1759-.64501-.2768-1.01587-.2768-1.10457,0-2,.8954-2,2s.89543,2,2,2c.3709,0,.71823-.101,1.01598-.2769l7.76092,7.7609c-.1759.2978-.2769.6451-.2769,1.016,0,1.1046.8954,2,2,2s2-.8954,2-2c0-.371-.101-.7183-.277-1.0161l7.7609-7.7609c.2978.176.6451.277,1.0161.277,1.1046,0,2-.8954,2-2s-.8954-2-2-2c-.3709,0-.7182.101-1.016.2769l-7.7609-7.76092c.1759-.29775.2769-.64508.2769-1.01598,0-1.10457-.8954-2-2-2zm8.563,13h-5.0984c-.2193,1.5331-1.4321,2.7457-2.9653,2.9647v5.0981c.1837.0472.3572.1199.5166.214l7.7609-7.7609c-.094-.1592-.1666-.3324-.2138-.5159zm0-1h-5.0984c-.2193-1.5328-1.4318-2.7453-2.9646-2.9646V10.187c.1835-.0472.3568-.1199.516-.21391l7.7609,7.76091c-.094.1592-.1667.3325-.2139.516zm-12.0277.9993c.219,1.5329,1.4312,2.7456,2.964,2.9652v5.0987c-.1833.0472-.3563.1198-.5153.2137L9.97309,19.766c.09421-.1594.16691-.333.21411-.5167h5.0981zm-5.0985-1h5.0987c.2196-1.5325,1.4319-2.7446,2.9645-2.9639V10.187c-.1836-.0473-.3569-.1199-.5161-.21398L9.97302,17.7339c.09398.159.16658.3321.21378.5154zM18.75,16.25c-1.3807,0-2.5,1.1193-2.5,2.5s1.1193,2.5,2.5,2.5,2.5-1.1193,2.5-2.5-1.1193-2.5-2.5-2.5zm10.5,1.5c-.5523,0-1,.4477-1,1s.4477,1,1,1,1-.4477,1-1-.4477-1-1-1zm-11.5,11.5c0-.5523.4477-1,1-1s1,.4477,1,1-.4477,1-1,1-1-.4477-1-1zm-9.5-11.5c-.55228,0-1,.4477-1,1s.44772,1,1,1,1-.4477,1-1-.44772-1-1-1z"/></svg>