<svg width="24" height="24" viewBox="0,0,24,24" xmlns="http://www.w3.org/2000/svg"><path fill-rule="evenodd" clip-rule="evenodd" d="m9.41603,4.72285-2-3-.83205.5547,2,3,.83205-.5547zm6.99997-2.4453-2,3-.832-.5547,2-3,.832.5547zM11,2.0002v3h1v-3h-1zM7.50001,6.0002h-.5v3.09629l.03576.08941.96717,2.4179V22h6.99696V11.5967l.9643-2.4108L16,9.09649V6.0002H7.50001zm1.50293,6h4.99696V21H9.00294v-8.9998zM14.1616,11l.5999-1.4998H8.23853L8.83845,11h5.32315zM8.00001,8.5002H15v-1.5H8.00001v1.5zM10,13h3v7h-3v-7zm1,2.9997V19h1v-3.0003h-1zm0-1h1V14h-1v.9997z"/></svg>