<svg width="36" height="36" viewBox="0,0,36,36" xmlns="http://www.w3.org/2000/svg"><path fill-rule="evenodd" clip-rule="evenodd" d="m18,4.75c-1.2214,0-1.9419.42691-2.3411.9447-.1502.19478-.2447.38968-.3043.5553H12.25v1.5h-6v25h23.5v-25h-6v-1.5h-3.1046c-.0596-.16562-.1541-.36052-.3043-.5553C19.9419,5.17691,19.2214,4.75,18,4.75zm5.75,4v1.5h-11.5v-1.5h-5v23h21.5v-23h-5zm-7.4983-1.99215c-.0014.0097-.0021.01633-.0024.01942l-.0199.47273H13.25v2h9.5v-2h-2.9794l-.0199-.47273c-.0003-.00309-.001-.00972-.0024-.01942-.0032-.02199-.0099-.05871-.0232-.10518-.0266-.09354-.078-.22035-.1759-.34737C19.3701,6.07309,18.9656,5.75,18,5.75s-1.3701.32309-1.5492.5553c-.0979.12702-.1493.25383-.1759.34737-.0133.04647-.02.08319-.0232.10518zM10.5,13.75v1h15v-1h-15zm15,4.5v1h-15v-1h15zm-15,4.5v1h15v-1h-15zm7.5,5.5h-7.5v-1H18v1z"/></svg>