<svg width="24" height="24" viewBox="0,0,24,24" xmlns="http://www.w3.org/2000/svg"><path fill-rule="evenodd" clip-rule="evenodd" d="m13.5166,4.11625-.3875-.32328-.3197.39036-.8024.97972-3.02594.78019-.49276-.25225-.26842-.13741-.24677.1733L5.78932,7.26043l-.81962.57558.95262.30919.23153.07514L4.10438,10.3698l-.08452.0886-.03398.1177-.96625,3.3459-.2385.8259.83578-.201,1.91453-.4604.06557-.0158.05905-.0326.53285-.294,1.73725,1.573.16591.1502.22257-.0236,2.82426-.3005.1788-.019.1258-.1286,1.2244-1.2523,1.5759,2.0606.4872.637.3575-.7178,1.2283-2.4664,2.8894.7142.704.174-.0877-.7199-.1365-1.1207.8019.0194.5389.013-.0274-.5383-.1412-2.76642-.0122-.2395-.1944-.14039-1.2014-.86757-.4554-.3288-.2739.49033-.1976.35387-.6957-.19864.4153-1.17014.1654-.46613-.4643-.17046-3.2442-1.19099-1.1832-.98731zM7.21856,7.51456l-.03492-.01133,1.1174-.78469.39326.20132.16892.08647,3.55178-.91578.1584-.04083.1036-.12652.5863-.71586.8624.7196.0666.05557.0814.0299,2.8613,1.05042-.4279,1.2058-.1781.50181.512.1462,1.5884.45356.3807.10871.1931-.34565.1169-.20921.5516.39837.1015,1.98858-.8415-.0204-.5783-.0139.0699.5743.1189.9751-2.5744-.6363-.3889-.0961-.1786.3586-1.0494,2.1071-1.4396-1.8823-.3508-.4588-.4038.413-1.5025,1.5366-2.42277.2577L6.5955,12.7633l-.26459-.2396-.31253.1724-.78633.4338-1.01318.2437.69377-2.4024,2.51343-2.63602.5485-.57525-.75601-.24537zM3,19.0002v1H2v-3h1v1h1v-1h16v1h1v-1h1v3h-1v-1h-1v1h-1c0,1.1045-.8954,2-2,2s-2-.8955-2-2H9c0,1.1045-.89543,2-2,2s-2-.8955-2-2H4v-1H3zm4,2c-.55229,0-1-.4478-1-1h2c0,.5522-.44771,1-1,1zm9-1c0,.5522.4477,1,1,1s1-.4478,1-1h-2zm-11-1.5v-.5h14v1H5v-.5z"/></svg>