<svg width="24" height="24" viewBox="0,0,24,24" xmlns="http://www.w3.org/2000/svg"><path fill-rule="evenodd" clip-rule="evenodd" d="m22.5,0h-21C.675,0,0,.675,0,1.5v21c0,.825.675,1.5,1.5,1.5h21c.825,0,1.5-.675,1.5-1.5v-21c0-.825-.675-1.5-1.5-1.5z" fill="#2d327d"/><path fill-rule="evenodd" clip-rule="evenodd" d="m17.895,13.5898c-1.1925,0-2.1675.975-2.1675,2.1675v.57c.1125-.12.24-.225.375-.33l.045-.03.045.03c.0825.06.165.1125.2475.1575v-.3975c0-.8025.6525-1.455,1.455-1.455s1.455.6525,1.455,1.455v.3975c.0825-.0525.1725-.105.2475-.1575l.045-.03.045.03c.135.0975.2625.21.375.33v-.5625c0-1.2-.9675-2.175-2.1675-2.175z" fill="#fff"/><path fill-rule="evenodd" clip-rule="evenodd" d="m20.79,2.23491c-.4125-.4125-.9525-.6375-1.5375-.6375-.5775,0-1.125.225-1.53.6375l-.825.825c-.0675.0675-.105.1575-.105.255s.0375.1875.105.255.1575.105.255.105.1875-.0375.255-.105l.825-.825c.57-.57,1.4925-.57,2.0625,0s.57,1.4925,0,2.0625l-.3525.3525c.18.1575.3375.345.4725.54l.3825-.3825c.4125-.4125.6375-.9525.6375-1.53-.015-.5925-.24-1.14-.645-1.5525z" fill="#fff"/><path fill-rule="evenodd" clip-rule="evenodd" d="m6.12003,15.5549c-1.605,0-2.9025,1.2975-2.9025,2.9025s1.2975,2.9025,2.9025,2.9025,2.9025-1.2975,2.9025-2.9025-1.2975-2.9025-2.9025-2.9025z" fill="#eb0000"/><path fill-rule="evenodd" clip-rule="evenodd" d="m6.12003,4.50732c-1.605,0-2.9025,1.2975-2.9025,2.9025,0,1.60501,1.2975,2.90248,2.9025,2.90248s2.9025-1.29748,2.9025-2.90248c0-1.60499-1.2975-2.9025-2.9025-2.9025z" fill="#237f52"/><path fill-rule="evenodd" clip-rule="evenodd" d="m10.725,7.20744h2.5575v-.5175H10.725v.5175zm0,1.02h2.5575v-.5175H10.725v.5175z" fill="#fff"/><path fill-rule="evenodd" clip-rule="evenodd" d="m10.725,18.1799h2.5575v-.5175H10.725v.5175zm0,1.0275h2.5575v-.5175H10.725v.5175z" fill="#fff"/><path fill-rule="evenodd" clip-rule="evenodd" d="m17.9025,5.64753c.6225,0,1.23-.195,1.74-.555.72.5475,1.155,1.41,1.1625,2.3175,0,1.5975-1.305,2.90247-2.9025,2.90247S15,9.00753,15,7.41003c0-.9075.435-1.77,1.1625-2.3175.51.36,1.1175.555,1.74.555zm.2625,3.9525v-.69c.12-.0825.195-.225.195-.3825,0-.255-.21-.465-.465-.465s-.465.21-.465.465c0,.1575.075.3.195.3825v.69c0,.15.12.27.27.27s.27-.12.27-.27z" fill="#fff"/><path fill-rule="evenodd" clip-rule="evenodd" d="m17.9025,16.7025c.63,0,1.23-.195,1.74-.555.72.5475,1.155,1.4025,1.1625,2.3175,0,1.5975-1.305,2.9025-2.9025,2.9025S15,20.0625,15,18.465c0-.9075.435-1.77,1.1625-2.3175.51.36,1.11.555,1.74.555zm.2625,3.945v-.69c.12-.0825.195-.2175.195-.3825,0-.255-.21-.465-.465-.465s-.465.21-.465.465c0,.1575.075.3.195.3825v.69c0,.15.12.27.27.27s.27-.12.27-.27z" fill="#fff"/></svg>