<svg width="36" height="36" viewBox="0,0,36,36" xmlns="http://www.w3.org/2000/svg"><path fill-rule="evenodd" clip-rule="evenodd" d="m18.0013,4.71812c-.3405-.55707-.7886-.95591-1.3008-1.19986-.8043-.38306-1.7063-.35497-2.4746-.04486-.7675.3098-1.4344.91416-1.7567,1.72866-.3275.82755-.2779,1.81784.2942,2.84209l.0156.02776.0189.02558,1.9607,2.65281H4.75v5.5h1.5v16.5h23.5v-16.5h1.5v-5.5H21.2415l1.9607-2.6528.0166-.02242.014-.02413c.5843-1.00862.6387-1.99186.3107-2.81659-.3223-.81013-.9919-1.4131-1.7598-1.7251-.7688-.31232-1.6731-.34799-2.4801.02703-.5129.23839-.9617.63109-1.3023,1.18183zm-.5012,1.3498c-.2568-.91039-.7318-1.40976-1.2296-1.64683-.5193-.24732-1.1268-.23978-1.6703-.02039-.5442.21969-.9912.63871-1.2012,1.16933-.2025.51171-.2051,1.17881.2225,1.95946l2.3806,3.22081h1.4926l.0054-4.68238zm1-.00042-.0054,4.6828h1.5033l2.3829-3.22405c.4343-.76262.4342-1.4174.2334-1.92227-.2087-.52464-.6574-.94495-1.2071-1.16827-.5488-.22298-1.1612-.23467-1.6821.00743-.498.23145-.9716.72257-1.225,1.62436zM22.25,16.2503v15.5h6.5v-15.5h-6.5zm-1,15.5h-6.5v-15.5h6.5v15.5zm1-16.5v-3.5h8v3.5h-8zm-1,0v-3.5h-6.5v3.5h6.5zm-7.5,0v-3.5h-8v3.5h8zm0,16.5v-15.5h-6.5v15.5h6.5z"/></svg>