<svg width="36" height="36" viewBox="0,0,36,36" xmlns="http://www.w3.org/2000/svg"><path fill-rule="evenodd" clip-rule="evenodd" d="m4.75,17.2503c0-6.9031,5.5969-12.5,12.5-12.5s12.5,5.5969,12.5,12.5-5.5969,12.5-12.5,12.5-12.5-5.5969-12.5-12.5zm23.9911-.4568c-.0705-1.8044-.5568-3.5021-1.3658-5h-2.6666c.4269,1.5627.675,3.2458.7118,5h3.3206zm-4.3208,0c-.039-1.7699-.303-3.4543-.7504-5H17.75v5h6.6703zM16.75,16.7935h-6.6711c.0389-1.7699.3032-3.4543.751-5H16.75v5zm1-6h5.5981c-.4469-1.25867-1.0195-2.40878-1.6925-3.4177-.2437-.3653-.5005-.71204-.7693-1.03866-.9922-.3305-2.0446-.52945-3.1363-.57616v5.03252zm-1-5.03252v5.03252h-5.5982c.4484-1.2622,1.0233-2.41525,1.6988-3.42622.2421-.36228.4972-.70626.764-1.03044.992-.33032,2.044-.52916,3.1354-.57586zm0,12.03252v5h-5.8948c-.4557-1.5441-.7278-3.2286-.7742-5h6.669zm1,5v-5h6.6682c-.0464,1.7714-.3182,3.4559-.7737,5H17.75zm-1,1h-5.5671c.4427,1.2252,1.005,2.3461,1.663,3.3324.2435.3649.5001.7114.7686,1.0378.992.3304,2.0441.5292,3.1355.5759v-4.9461zm1,4.9461v-4.9461h5.567c-.4486,1.2423-1.0202,2.3774-1.6899,3.3736-.2352.3497-.4824.6823-.7407.9963-.9923.3305-2.0446.5295-3.1364.5762zM25.4185,17.7935c-.0438,1.7555-.2993,3.4387-.7337,5h2.6433c.8241-1.495,1.3253-3.1931,1.4093-5h-3.3189zm-1.0419,6c-.4446,1.3115-1.0195,2.5224-1.7029,3.5999,1.6136-.8648,2.9971-2.1033,4.0344-3.5999h-2.3315zm.0292-13h2.3616c-1.0436-1.53522-2.4489-2.80477-4.0934-3.68608.6983,1.10088,1.2833,2.34128,1.7318,3.68608zm-15.32716,6c.03681-1.7542.28522-3.4374.71237-5H7.12475c-.80901,1.4979-1.29534,3.1956-1.36584,5h3.31973zm1.01546-6c.4488-1.34499,1.0341-2.58554,1.7327-3.68652-1.6448.88133-3.05044,2.15105-4.09422,3.68652h2.36152zM9.08062,17.7935c.04384,1.7555.29963,3.4387.73431,5H7.17189c-.82412-1.495-1.32525-3.1931-1.40928-5h3.31801zm1.04268,6H7.79189c1.03753,1.4968,2.42121,2.7356,4.03521,3.6003-.6836-1.0776-1.2588-2.2886-1.7038-3.6003z"/></svg>