<svg width="48" height="48" viewBox="0,0,48,48" xmlns="http://www.w3.org/2000/svg"><path fill-rule="evenodd" clip-rule="evenodd" d="m25,8.00737V3h-1v5.00737C15.2618,8.26528,8.26528,15.2618,8.00737,24H3v1h5.00737C8.26528,33.7382,15.2618,40.7347,24,40.9926V46h1v-5.0074C33.7382,40.7347,40.7347,33.7382,40.9926,25h5.0064v-1h-5.0064C40.7347,15.2618,33.7382,8.26528,25,8.00737zM9,24.5C9,15.9151,15.9151,9,24.5,9S40,15.9151,40,24.5,33.0849,40,24.5,40,9,33.0849,9,24.5zm7,0c0-4.7079,3.7921-8.5,8.5-8.5s8.5,3.7921,8.5,8.5S29.2079,33,24.5,33,16,29.2079,16,24.5zm8.5-9.5c-5.2601,0-9.5,4.2399-9.5,9.5s4.2399,9.5,9.5,9.5,9.5-4.2399,9.5-9.5S29.7601,15,24.5,15z"/></svg>