<svg width="36" height="36" viewBox="0,0,36,36" xmlns="http://www.w3.org/2000/svg"><path fill-rule="evenodd" clip-rule="evenodd" d="m3.25,11.25c0-1.93214,1.56786-3.5,3.5-3.5h22.5c1.9321,0,3.5,1.56786,3.5,3.5v15c0,1.9321-1.5679,3.5-3.5,3.5H6.75c-1.93214,0-3.5-1.5679-3.5-3.5v-15zm3.5-2.5c-1.37986,0-2.5,1.12014-2.5,2.5v15c0,1.3799,1.12014,2.5,2.5,2.5h22.5c1.3799,0,2.5-1.1201,2.5-2.5v-15c0-1.37986-1.1201-2.5-2.5-2.5H6.75zM12,18v-7.5h-1.35c-.1095.501-.3225.8595-.6405,1.0725-.222.1455-.4635.252-.7275.318-.267.066-.609.102-1.032.111v1.089h2.031V18H12zm9.2917,2.082c-.486-.387-1.0935-.582-1.821-.582-.819,0-1.488.237-2.0025.714-.531.4845-.795,1.173-.795,2.0625v.159h1.4985c.027-1.086.4395-1.6275,1.245-1.6275.3285,0,.591.099.792.297.2025.1995.303.459.303.78,0,.276-.0735.5205-.225.7305-.1485.2115-.4095.4365-.7845.6825-.768.507-1.2825.8565-1.539,1.047-.2595.189-.4845.3855-.6765.585-.249.261-.4425.573-.579.9315-.1395.36-.207.7395-.207,1.1385h5.625v-1.3035h-3.6645c.183-.222.378-.4155.5895-.5865.213-.1695.564-.4155,1.056-.7365.516-.336.834-.5505.9555-.639.1215-.087.252-.204.3885-.3525.426-.4485.636-.9825.636-1.6005,0-.714-.2655-1.2795-.795-1.6995zm-11.918,5.7502,12-13.5-.7474-.6644-12,13.5.7474.6644z"/></svg>