<svg width="36" height="36" viewBox="0,0,36,36" xmlns="http://www.w3.org/2000/svg"><path fill-rule="evenodd" clip-rule="evenodd" d="m17.7499,10.5V3h-1v7.5h1zm10.2853-1.6662c-.7806-.78064-2.0481-.78216-2.8289-.00219l-8.9549,8.73159.0023-3.31v-.0004c0-1.1068-.8956-2.003-2.0015-2.003-.5549,0-1.0056.2107-1.3427.5773-.3197.3476-.5149.81-.6412,1.294L9.26842,24.6124l-.07823.2736.19527.207,7.43254,7.878.2051.2174.2886-.0778-.13-.4828c.13.4828.1302.4828.1304.4827l.0005-.0001.0011-.0003.003-.0008.0088-.0025.0287-.0083c.0241-.0072.058-.0176.101-.0317.0862-.0281.2092-.071.3651-.1318.3116-.1217.7544-.3157,1.2949-.6088,1.0814-.5865,2.5527-1.5695,4.147-3.1638,1.5577-1.5576,2.486-2.4845,3.0248-3.0218.2694-.2687.4415-.44.5461-.544l.11-.1094.0241-.0239.0055-.0055.0013-.0012.0004-.0004.0014-.0013c.7826-.7807.7819-2.0501.0004-2.8316-.2616-.2616-.5779-.4357-.9122-.5222.6282-.7859.579-1.9362-.1478-2.6649l-.0009-.0009c-.2604-.2597-.5744-.4331-.9063-.5201.6209-.7856.5692-1.93-.1548-2.656l-.0009-.0009c-.2577-.2569-.5677-.4294-.8957-.5173l4.0775-4.076.0001-.0001c.7818-.7818.7818-2.04934,0-2.8311zM17.4565,32.0035c-.0472.0184-.0906.0348-.13.0493l-7.0184-7.4391,2.9233-10.2234.0001.0001.0031-.0119c.1063-.4093.2467-.6959.4109-.8745.1482-.161.332-.2542.6067-.2542.553,0,1.0015.4479,1.0015,1.003l-.003,4.4967-.0008,1.187.8498-.8287,9.807-9.56246v.00003l.005-.00492c.3893-.39038,1.0249-.39103,1.4164.00045.3912.39122.3912,1.0256.0001,1.4168l-.0001.0001-5.2288,5.2268c-.0266.0239-.0526.0486-.0782.0742l-.0002.0002-2.6562,2.6592-.0003.0003.7072.707.0003-.0003,2.7121-2.711c.3932-.3384.9877-.3218,1.3626.0517.3897.3912.3897,1.0255.0002,1.4167l-.0007.0006-.9615.9578c-.0347.0302-.0685.0618-.1015.0948l.0032.0031-1.5955,1.5892.7057.7085,1.6657-1.6591c.3932-.3242.9766-.303,1.3464.0654.3898.3913.3897,1.026-.0003,1.4172l-.0002.0001-1.5935,1.5921-.0003.0003.7064.7078.0003-.0003.5307-.5292.001-.0009c.3893-.3904,1.0249-.3911,1.4164.0004s.3908,1.0271.0005,1.4164l-.0007.0007-.0058.0057-.0245.0243-.1107.1101c-.105.1044-.2774.276-.547.5449-.5393.5378-1.468,1.4649-3.0258,3.0228-1.5212,1.5212-2.9134,2.4477-3.9166,2.9918-.5018.2722-.9067.4489-1.182.5564zm6.9594-27.22615-3,4.5-.832-.5547,3-4.5.832.5547zM13.9159,8.72265l-3-4.5-.832.5547,3,4.5.832-.5547z"/></svg>