<svg width="24" height="24" viewBox="0,0,24,24" xmlns="http://www.w3.org/2000/svg"><path fill-rule="evenodd" clip-rule="evenodd" d="m12.0001,3c-1.3112,0-2.50005,1.26806-2.50005,3s1.18885,3,2.50005,3c1.3111,0,2.5-1.26806,2.5-3s-1.1889-3-2.5-3zM8.50005,6c0-2.13405,1.49747-4,3.50005-4,2.0025,0,3.5,1.86595,3.5,4,0,.92688-.2825,1.80318-.7662,2.49799C17.5052,9.82009,19.0001,12.8193,19.0001,16h-1c0-3.0104-1.4599-5.6814-3.983-6.72663-.562.45481-1.2527.72663-2.017.72663-.7646,0-1.4556-.27203-2.01772-.72714-1.68712.70356-2.89139,2.12654-3.51068,3.88884l-.94344-.3316c.65879-1.8747,1.92826-3.46295,3.73809-4.33188C8.7826,7.80337,8.50005,6.92698,8.50005,6zM4.4246,13.3188l3.57827,2.4997c.0381-.4243.20158-.8477.5018-1.1832C8.85482,14.2441,9.36721,14,10.0001,14h2.237v.0039c1.6064.0711,3.1211.956,4.2804,2.071.0004.0004.0007.0007.0011.0011l5.3259,5.0616.9074.8624h-9.2078l-.1462-.145L12.5363,21H8.61124l-.14169-.1248L2.55141,15.662c-.63734-.5202-.73709-1.458-.2212-2.1008.5147-.6414,1.44874-.748,2.09439-.2424zM12.1045,15h-2.1044c-.35939,0-.597.131-.75027.3022-.16127.1802-.25356.4337-.25565.7017-.00209.2679.08606.5181.24343.695.14923.1677.38788.3011.76249.3011H12l.0001.5L12,18h-1.9999c-.61758,0-1.12019-.2242-1.47023-.5935L3.83962,14.13l-.01364-.0095-.01297-.0104c-.21536-.1729-.53007-.1384-.7029.077-.17284.2153-.13837.53.07699.7029l.00894.0072.00861.0075L8.98887,20h3.95933l.1462.1451L13.956,21h6.2921l-4.4206-4.2013-.0022-.0021c-1.0841-1.043-2.4152-1.7698-3.7208-1.7966z"/></svg>