<svg width="36" height="36" viewBox="0,0,36,36" xmlns="http://www.w3.org/2000/svg"><path fill-rule="evenodd" clip-rule="evenodd" d="m32.7495,9.42505V20.844l-.2571.1429-12.1485,6.75-.0106.0058-.2271-.433c.227.4329.2269.433.2268.433l-.0003.0002-.0022.0011-.0039.0021-.0118.0059c-.0057.0029-.0126.0063-.0206.0102-.0054.0026-.0114.0055-.0179.0085-.0321.0153-.0772.0359-.1342.06-.114.0482-.2766.1106-.4801.1725-.4061.1235-.9811.2466-1.6625.2466-.6806,0-1.2554-.1231-1.6613-.2466-.2034-.0619-.3658-.1243-.4798-.1725-.0571-.0241-.1021-.0447-.1342-.06-.0161-.0076-.029-.0139-.0385-.0187l-.0117-.0059-.004-.0021-.0015-.0008-.0007-.0003-.0003-.0002c-.0001,0-.0002-.0001.232-.4429l-.2322.4428-.0107-.0056.0001-.0001-12.15001-6.75-.25718-.1429V9.4252l.74275.41249,3.86368,2.14571,5.64656-1.7761.0143-.0045.0146-.0036c1.7089-.42648,3.2264-.0544,4.5449.957,1.3425-.9558,2.7613-1.47153,4.2746-.9829.0009.0003.0017.0005.0025.0008l5.7907,1.8095,3.8626-2.14587.7428-.41268zM17.2581,11.7964c-1.0373-.7198-2.177-.9495-3.4702-.6305l-5.83687,1.8359-.20494.0644-.18783-.1043-3.30875-1.8375v9.1312l11.88459,6.6026.0194.0094c.0196.0093.0513.0239.0941.0419.0857.0363.2153.0863.3817.137.3336.1015.8089.2033,1.3702.2033.5622,0,1.0378-.1019,1.3716-.2034.1664-.0506.2961-.1007.3819-.1369.0428-.0181.0744-.0326.0941-.0419l.0193-.0094,7.7533-4.3079-5.6015-5.8151-6.4931,3.2116c-.0005.0002-.0009.0004-.0014.0007-1.1188.56-2.261.2526-2.9006-.51-.6501-.7752-.7245-1.9502.1177-2.9583l.0074-.0089.0079-.0085c.3016-.3287.6001-.6581.8959-.9844,1.2445-1.373,2.4398-2.6916,3.6061-3.681zm11.266,10.2513,3.2254-1.7921v-9.131l-3.3072,1.8373-.1873.1041-.2046-.064-6.0048-1.8765c-1.2386-.4008-2.4877.0861-3.9276,1.2565-1.1738.9541-2.3785,2.2826-3.7024,3.7424-.2984.3291-.6029.6648-.9144,1.0044-.536.648-.4372,1.2782-.1119,1.6661.337.4018.9754.6149,1.6877.2579l.0023-.0012,6.8235-3.375.328-.1622.2538.2635,6.0395,6.2698z"/></svg>