<svg width="36" height="36" viewBox="0,0,36,36" xmlns="http://www.w3.org/2000/svg"><path fill-rule="evenodd" clip-rule="evenodd" d="m18.0001,4.25c-2.1396,0-4,2.05156-4,4.75,0,2.6984,1.8604,4.75,4,4.75s4-2.0516,4-4.75c0-2.69844-1.8604-4.75-4-4.75zm-5,4.75c0-3.10055,2.169-5.75,5-5.75,2.8309,0,5,2.64945,5,5.75,0,1.4581-.4797,2.8164-1.2823,3.8463,4.2261,1.8629,6.5323,6.3486,6.5323,11.1537h-1c0-4.6449-2.2826-8.8049-6.2704-10.3782-.8235.7054-1.8488,1.1282-2.9796,1.1282-1.1314,0-2.1571-.4232-2.9809-1.1292-2.6803,1.0651-4.5817,3.2904-5.54752,6.0388l-.94344-.3315c1.00268-2.8533,2.96096-5.2429,5.75386-6.4821-.8024-1.0299-1.282-2.3881-1.282-3.846zM6.48795,20.1792l5.75875,4.0229c-.0041-.0687-.0059-.1374-.0054-.206.0052-.6695.234-1.3534.702-1.8764.476-.5318,1.1759-.8697,2.0568-.8697h3.3556v.0061c2.3233.1067,4.5363,1.3908,6.2476,3.0368.0004.0004.0008.0008.0012.0012l7.99,7.5935.9074.8624H20.4191l-.1462-.145-1.3655-1.355h-5.8961l-.1417-.1248-8.88091-7.8231c-.8529-.693-.9872-1.9456-.29841-2.8039.68764-.8568,1.93663-.9978,2.79767-.319zM18.1592,22.25h-3.1591c-.6074,0-1.0325.2247-1.3117.5366-.2871.3208-.4436.7619-.4471,1.2174-.0036.4554.1458.8931.4283,1.2106.2744.3083.702.5354,1.3305.5354h3v1h-3c-.8723,0-1.5652-.3185-2.0408-.8303l-7.0567-4.9296-.01364-.0095-.01298-.0105c-.43073-.3456-1.06013-.2767-1.40581.154-.34567.4308-.27673,1.0602.15399,1.4058l.00895.0072.0086.0076L13.3889,30.25h5.9304l.1462.1451L20.831,31.75h10.1671l-7.0847-6.7332-.0022-.0021c-1.6524-1.5897-3.707-2.7237-5.752-2.7647z"/></svg>