<svg width="36" height="36" viewBox="0,0,36,36" xmlns="http://www.w3.org/2000/svg"><path fill-rule="evenodd" clip-rule="evenodd" d="m10.4935,4.75105c-2.35244,0-4.25299,1.87418-4.25299,4.223,0,.73509.18692,1.42455.51536,2.02555.18234.3361.40353.649.67517.9275l-.00005.0001.00544.0054,5.70447,5.673.3526.3506.3526-.3506,5.697-5.6655.0166-.0165.0149-.018c.1339-.1606.4798-.6019.6091-.8272l.0004-.0008c.3541-.6196.5564-1.33634.5564-2.10355,0-.50958-.0881-.99831-.2555-1.45439-.5931-1.62383-2.1527-2.76861-3.993-2.76861-1.1797,0-2.2342.47604-2.9973,1.24073-.7645-.76471-1.8203-1.24073-3.0012-1.24073zm-3.25299,4.223c0-1.78818,1.44444-3.223,3.25299-3.223,1.0741,0,2.0101.51224,2.6011,1.30247l.4008.53592.4003-.53634c.5896-.79004,1.5239-1.30205,2.5963-1.30205,1.4146,0,2.6029.87704,3.0538,2.112l.0003.00078c.1266.3448.1944.71695.1944,1.11022,0,.58859-.1546,1.13465-.4243,1.60695-.0782.1361-.354.4955-.4953.667l-5.3274,5.2979-5.3491-5.3196c-.19805-.2036-.3659-.4386-.50986-.7041l-.00082-.0015c-.2503-.4578-.39321-.98306-.39321-1.54665zM12.2464,24.2016l-5.75805-4.0228c-.86065-.6769-2.10884-.5386-2.79751.319-.68991.8576-.55472,2.1113.29819,2.8044l8.87947,7.823.1417.1248h5.8974l1.3658,1.355.1462.145h12.582l-.8462-.8523-7.542-7.596.0001-.0001-.0083-.0079c-1.7567-1.6903-4.0414-2.9984-6.4317-3.0436V21.25h-3.1729c-.8811,0-1.5812.3378-2.0573.8696-.4682.5229-.697,1.2069-.7023,1.8765-.0005.0684.0013.1369.0054.2055zm-6.34319-3.2117,7.05529,4.929c.4758.5123,1.1692.8311,2.0421.8311h3v-1h-3c-.6289,0-1.0567-.2272-1.3311-.5356-.2826-.3175-.4321-.7551-.4285-1.2105s.1601-.8964.4473-1.2173c.2793-.3119.7046-.5366,1.3123-.5366h3.1586c2.0435.0403,4.0963,1.1719,5.7486,2.7604l6.6917,6.7396h-9.768l-1.3658-1.355-.1462-.145h-5.9316l-8.74581-7.7052-.00859-.0075-.00893-.0072c-.4315-.3464-.49979-.9765-.15446-1.4056l.00036-.0005c.34571-.4306.97476-.4994,1.40663-.1537l.01274.0102.01337.0094z"/></svg>