<svg width="24" height="24" viewBox="0,0,24,24" xmlns="http://www.w3.org/2000/svg"><path fill-rule="evenodd" clip-rule="evenodd" d="m22.5,0h-21C.675,0,0,.675,0,1.5v21c0,.825.675,1.5,1.5,1.5h21c.825,0,1.5-.675,1.5-1.5v-21c0-.825-.675-1.5-1.5-1.5z" fill="#2d327d"/><path fill-rule="evenodd" clip-rule="evenodd" d="m15.0374,6.7125c0,.7725-.6225,1.395-1.395,1.395s-1.395-.6225-1.395-1.395.6225-1.395,1.395-1.395,1.395.6225,1.395,1.395z" fill="#fff"/><path fill-rule="evenodd" clip-rule="evenodd" d="m16.5674,12.1499-.975-.975h-1.5375l1.7175,1.7175c.0975.12.24.195.405.195.2925,0,.555-.2625.555-.555-.0075-.15-.0675-.285-.165-.3825z" fill="#fff"/><path fill="#fff" d="m8.66248,14.9474h.63v.6375h-.63z"/><path fill-rule="evenodd" clip-rule="evenodd" d="m21.0525,19.9724-4.395-4.395h3.525c.4125,0,.75-.345.75-.765V3.71245c0-.42-.3375-.765-.75-.765H4.01996l-.315-.315-1.0575,1.0575.3075.3075V14.8124c0,.42.3375.765.75.765h3.0825v-.6375h-3.0825c-.0675,0-.1125-.06-.1125-.135v-3.825h3.6075l.375-.375h-3.9825V4.62745l5.1375,5.1375-1.6125,1.61245c-.075.075-.135.18-.135.3v8.6175c0,.4125.3375.75.75.75s.75-.3375.75-.75v-6.99l1.005.9975v3.5175c0,.4125.3375.75.75004.75.4125,0,.75-.3375.75-.75v-3.7875s.03-.2475-.1425-.4125l-1.15504-1.155.86254-.8925,3.36,3.36h-2.73v.6375H14.55l5.4525,5.4525,1.05-1.05zM12.525,8.10745c-.2625-.24-.645-.3975-1.08-.3975-.4875,0-.9225.2025-1.17.51l-.49504.495-5.13-5.13H20.175c.0675,0,.1125.06.1125.135v6.89995h-8.475l-.0675.0675-.1725-.1725.885-.91495.825.82495H14.82l-2.295-2.31745zm7.7775,2.87995h-8.235l3.96,3.96H20.19c.06,0,.1125-.06.1125-.135v-3.825z" fill="#fff"/><path fill-rule="evenodd" clip-rule="evenodd" d="m3.70496,2.63245-1.0575,1.0575L19.9875,21.0374l1.065-1.065L3.70496,2.63245z" fill="#eb0000"/></svg>