<svg width="48" height="48" viewBox="0,0,48,48" xmlns="http://www.w3.org/2000/svg"><path fill-rule="evenodd" clip-rule="evenodd" d="m9,6.5c0-.27614.22386-.5.5-.5h29c.2761,0,.5.22386.5.5s-.2239.5-.5.5h-29c-.27614,0-.5-.22386-.5-.5zM9.5,5C8.67157,5,8,5.67157,8,6.5S8.67157,8,9.5,8h.6691c.6068,5.3793,4.3786,9.9247,8.3459,12.3184,1.127.6929,1.9288,2.0707,1.9288,3.6812s-.8018,2.989-1.9287,3.6819c-3.9673,2.3936-7.7392,6.9391-8.346,12.3185H9.5c-.82843,0-1.5.6716-1.5,1.5S8.67157,43,9.5,43h29c.8284,0,1.5-.6716,1.5-1.5s-.6716-1.5-1.5-1.5h-.6691c-.6068-5.3794-4.3787-9.9249-8.3461-12.3185-1.1269-.693-1.9286-2.0714-1.9286-3.6819s.8018-2.9883,1.9288-3.6812C33.4523,17.9247,37.2241,13.3793,37.8309,8H38.5c.8284,0,1.5-.67157,1.5-1.5S39.3284,5,38.5,5h-29zm27.324,3H11.176c.604,4.9487,4.1101,9.203,7.8573,11.4632l.0034.0021c1.4434.8864,2.4071,2.5988,2.4071,4.5343s-.9637,3.6487-2.4071,4.5351l-.0034.0021C15.2861,30.797,11.78,35.0512,11.176,40h25.648c-.604-4.9487-4.1101-9.203-7.8573-11.4632l-.0034-.0021c-1.4435-.8864-2.4071-2.5996-2.4071-4.5351s.9637-3.6479,2.4071-4.5343l.0034-.0021C32.7139,17.203,36.22,12.9487,36.824,8zM9,41.5c0-.2761.22386-.5.5-.5h29c.2761,0,.5.2239.5.5s-.2239.5-.5.5h-29c-.27614,0-.5-.2239-.5-.5zM16.73,15h14.54l-.9291.8658c-.7731.7203-1.5912,1.3575-2.4203,1.8616-2.0794,1.2863-3.4224,3.6848-3.4224,6.2726h-1c0-2.5887-1.3437-4.9877-3.4024-6.2608-.8356-.508-1.6592-1.149-2.4367-1.8734L16.73,15zm7.2686,6.1257c.6307-1.7604,1.8253-3.2778,3.3977-4.2498l.0032-.002c.4182-.2542.8374-.5478,1.2517-.8739h-9.3026c.4194.3304.8441.6279,1.2682.8856l.0032.002c1.5595.9638,2.7494,2.4788,3.3786,4.2381zM24,29.502h-.3893l-.0954.3774c-.3851,1.5229-1.4378,2.1566-2.911,3.0434-.1741.1047-.354.2131-.5395.3268-.6137.3702-1.2679.6439-1.9423.9025-.151.0579-.3043.1154-.4586.1734-.522.196-1.056.3964-1.555.6299-1.3309.6227-2.5148,1.5248-3.0871,3.3985L12.8245,39h22.3511l-.1974-.6461c-.5726-1.8743-1.7577-2.7771-3.0913-3.4013-.4996-.2339-1.0342-.435-1.5575-.6318l-.0008-.0003c-.1552-.0583-.3093-.1163-.4612-.1746-.6769-.26-1.3344-.5355-1.9522-.908-.1597-.098-.315-.192-.4658-.2833-1.4831-.8976-2.524-1.5275-2.9146-3.075l-.0953-.3776H24zm-2.8786,4.2789c1.1182-.6661,2.2288-1.3277,2.9005-2.4985.6673,1.1844,1.7676,1.8444,2.8919,2.5187.1599.0959.3202.192.4799.2901l.0033.002c.6962.42,1.4214.7211,2.1119.9862.1677.0644.3322.1263.4936.187.5154.1939.9997.3762,1.4605.5918.9921.4645,1.8054,1.0526,2.313,2.1418H14.2239c.5072-1.0886,1.3194-1.6759,2.3087-2.1388.4601-.2152.9435-.3968,1.4578-.59h.0001l.0001-.0001.0002-.0001.0022-.0008.0004-.0001c.1593-.0599.3216-.1209.4871-.1843.6878-.2637,1.4101-.563,2.1026-.9809l.0031-.0019c.1774-.1089.3564-.2156.5352-.3221zM23.5,26v-1h1v1h-1zm0,1v1h1v-1h-1z"/></svg>