<svg width="24" height="24" viewBox="0,0,24,24" xmlns="http://www.w3.org/2000/svg"><path fill-rule="evenodd" clip-rule="evenodd" d="m5.48413,2.99976h-.5v.5c0,3.04282,2.06341,5.63206,4.21797,6.93204.46564.2866.814.8702.814,1.568,0,.6975-.34817,1.2813-.81425,1.569-2.1544,1.3-4.21772,3.8882-4.21772,6.931v.5H19.0161v-.5c0-3.0429-2.0644-5.631-4.2187-6.931-.4657-.2875-.8133-.8711-.8133-1.569,0-.6983.3478-1.2816.813-1.568,2.1545-1.2999,4.219-3.88911,4.219-6.93204v-.5H5.48413zm4.2362,6.57682c-1.82449-1.1002-3.50434-3.18865-3.71419-5.57682H17.9941c-.21,2.38808-1.8906,4.47656-3.7152,5.57682v-.00001l-.0033.00205c-.782.47998-1.2915,1.39808-1.2915,2.42118s.5096,1.9409,1.291,2.4218l.0038.0023c1.8247,1.1003,3.5052,3.1879,3.7152,5.5759H6.00614c.20985-2.388,1.88964-4.4756,3.71419-5.5759h.00001l.00384-.0023c.78102-.4806,1.29192-1.3982,1.29192-2.4218,0-1.0235-.5108-1.9414-1.29242-2.42118l.00001-.00001-.00336-.00203zm-.25646-2.57634H8.19234l.93096.86608c.34959.32523.72634.61447,1.1121.8489l.0016.00104.0077.00472c.542.3338.9859.9251,1.2986,1.61632l.4556,1.0073.4555-1.0073c.312-.68985.7527-1.2789,1.2901-1.60933.3918-.23786.7762-.53156,1.1315-.86121l.9338-.86652H9.46387zm2.53473,2.09778c-.2801-.42043-.6231-.80345-1.0332-1.09778h2.0681c-.4113.29323-.7547.67678-1.0349,1.09778z"/></svg>