<svg width="24" height="24" viewBox="0,0,24,24" xmlns="http://www.w3.org/2000/svg"><path fill-rule="evenodd" clip-rule="evenodd" d="m22.5,0h-21C.675,0,0,.675,0,1.5v21c0,.825.675,1.5,1.5,1.5h21c.825,0,1.5-.675,1.5-1.5v-21c0-.825-.675-1.5-1.5-1.5z" fill="#2d327d"/><path fill-rule="evenodd" clip-rule="evenodd" d="m8.3175,3H3v12.1125l8.595-3.1275L8.3175,3z" fill="#fff"/><path fill-rule="evenodd" clip-rule="evenodd" d="m20.25,14.7825-.21-.57c-.24-.6525-.855-1.0875-1.5525-1.0875H10.44L3,15.8325v1.2c0,.3525.06.6975.18,1.0275l.945,2.595,5.43-1.9725-.5175-1.425h4.44l6.7725-2.475z" fill="#fff"/><path fill-rule="evenodd" clip-rule="evenodd" d="m20.625,18h-4.5c-.21,0-.375.165-.375.375v.75c0,.21.165.375.375.375h1.125V21h2.25v-1.5h1.125c.21,0,.375-.165.375-.375v-.75c0-.21-.165-.375-.375-.375z" fill="#fff"/></svg>