<svg width="24" height="24" viewBox="0,0,24,24" xmlns="http://www.w3.org/2000/svg"><path fill-rule="evenodd" clip-rule="evenodd" d="m22.5,0h-21C.675,0,0,.675,0,1.5v21c0,.825.675,1.5,1.5,1.5h21c.825,0,1.5-.675,1.5-1.5v-21c0-.825-.675-1.5-1.5-1.5z" fill="#2d327d"/><path fill-rule="evenodd" clip-rule="evenodd" d="m3.38249,18.75c-.09,0-.1725.0675-.1875.1575l-.285,1.8825v.03c0,.105.0825.1875.1875.1875.09,0,.1725-.0675.1875-.1575l.285-1.8825v-.03c0-.105-.0825-.1875-.1875-.1875z" fill="#fff"/><path fill-rule="evenodd" clip-rule="evenodd" d="m3.94499,15c-.09,0-.1725.0675-.1875.1575l-.285,1.8825v.03c0,.105.0825.1875.1875.1875.09,0,.1725-.0675.1875-.1575l.285-1.8825v-.03c0-.105-.0825-.1875-.1875-.1875z" fill="#fff"/><path fill-rule="evenodd" clip-rule="evenodd" d="m4.455,11.625c-.09,0-.1725.0675-.1875.1575l-.285,1.8825v.03c0,.105.0825.1875.1875.1875.09,0,.1725-.0675.1875-.1575l.285-1.8825v-.03c0-.105-.0825-.1875-.1875-.1875z" fill="#fff"/><path fill-rule="evenodd" clip-rule="evenodd" d="m4.62001,10.875c.09,0,.1725-.0675.1875-.1575l.285-1.875v-.03c0-.105-.0825-.1875-.1875-.1875-.09,0-.1725.0675-.1875.1575l-.285,1.875v.03c0,.105.0825.1875.1875.1875z" fill="#fff"/><path fill-rule="evenodd" clip-rule="evenodd" d="m5.08498,16.125c-.0975,0-.1725.075-.1875.165l-.21,1.875v.0225c0,.105.0825.1875.1875.1875.0975,0,.18-.075.1875-.165l.21-1.875v-.0225c0-.105-.0825-.1875-.1875-.1875z" fill="#fff"/><path fill-rule="evenodd" clip-rule="evenodd" d="m5.45998,12.75c-.0975,0-.1725.075-.1875.165l-.21,1.875v.0225c0,.105.0825.1875.1875.1875.0975,0,.1725-.0675.1875-.165l.21-1.875v-.0225c0-.105-.0825-.1875-.1875-.1875z" fill="#fff"/><path fill-rule="evenodd" clip-rule="evenodd" d="m5.99251,9.9375c0-.105-.0825-.1875-.1875-.1875-.0975,0-.18.0675-.1875.165l-.21,1.875v.0225c0,.105.0825.1875.1875.1875.0975,0,.1725-.075.1875-.165l.21-1.875c-.0075-.0075,0-.015,0-.0225z" fill="#fff"/><path fill-rule="evenodd" clip-rule="evenodd" d="m6.19497,18.75c-.0975,0-.18.075-.1875.1725l-.1425,1.875v.015c0,.105.0825.1875.1875.1875.0975,0,.18-.075.1875-.1725l.1425-1.875v-.015c0-.105-.0825-.1875-.1875-.1875z" fill="#fff"/><path fill-rule="evenodd" clip-rule="evenodd" d="m6.4725,15c-.0975,0-.18.075-.1875.1725l-.14251,1.875v.015c0,.105.0825.1875.1875.1875.09751,0,.18001-.075.1875-.1725l.14251-1.875v-.015c0-.105-.08251-.1875-.1875-.1875z" fill="#fff"/><path fill-rule="evenodd" clip-rule="evenodd" d="m6.7275,11.625c-.0975,0-.18.075-.1875.1725l-.1425,1.875v.015c0,.105.0825.1875.1875.1875.0975,0,.18-.075.1875-.1725l.1425-1.875v-.015c0-.105-.0825-.1875-.1875-.1875z" fill="#fff"/><path fill-rule="evenodd" clip-rule="evenodd" d="m6.95248,8.625c-.0975,0-.18.075-.1875.1725l-.1425,1.875v.015c0,.105.0825.1875.1875.1875.0975,0,.18-.075.1875-.1725l.1425-1.875v-.015c0-.105-.0825-.1875-.1875-.1875z" fill="#fff"/><path fill-rule="evenodd" clip-rule="evenodd" d="m7.695,16.125c-.0975,0-.18.0825-.1875.18l-.06749,1.875v.0075c0,.105.0825.1875.1875.1875.10499,0,.1875-.0825.1875-.18l.06749-1.875v-.0075c0-.105-.0825-.1875-.1875-.1875z" fill="#fff"/><path fill-rule="evenodd" clip-rule="evenodd" d="m7.82251,12.75c-.0975,0-.18.0825-.1875.18l-.0675,1.875v.0075c0,.105.0825.1875.1875.1875s.18-.0825.1875-.18l.0675-1.875v-.0075c0-.105-.0825-.1875-.1875-.1875z" fill="#fff"/><path fill-rule="evenodd" clip-rule="evenodd" d="m7.93499,9.75c-.0975,0-.17999.0825-.1875.18L7.68,11.805v.0075c0,.105.0825.1875.1875.1875.0975,0,.18749-.0825.18749-.18l.0675-1.875v-.0075c0-.105-.0825-.1875-.1875-.1875z" fill="#fff"/><path fill-rule="evenodd" clip-rule="evenodd" d="m4.9575,8.25H13.05c.2475,0,.45-.2025.45-.45,0-.0375-.0075-.0825-.015-.12-.4875-1.7475-1.9425-3.0525-3.7275-3.345V3h-1.5v1.335C6.465,4.6275,5.01,5.9325,4.53,7.68c-.0075.0375-.015.075-.015.12-.015.2475.1875.45.4425.45z" fill="#fff"/><path fill-rule="evenodd" clip-rule="evenodd" d="m9,8.625c-.105,0-.1875.0825-.1875.1875v1.875c0,.105.0825.1875.1875.1875s.1875-.0825.1875-.1875v-1.875c0-.105-.0825-.1875-.1875-.1875z" fill="#fff"/><path fill-rule="evenodd" clip-rule="evenodd" d="m9,11.625c-.105,0-.1875.0825-.1875.1875v1.875c0,.105.0825.1875.1875.1875s.1875-.0825.1875-.1875v-1.875c0-.105-.0825-.1875-.1875-.1875z" fill="#fff"/><path fill-rule="evenodd" clip-rule="evenodd" d="m9,15c-.105,0-.1875.0825-.1875.1875v1.875c0,.105.0825.1875.1875.1875s.1875-.0825.1875-.1875v-1.875C9.1875,15.0825,9.105,15,9,15z" fill="#fff"/><path fill-rule="evenodd" clip-rule="evenodd" d="m9,18.75c-.105,0-.1875.0825-.1875.1875v1.875c0,.105.0825.1875.1875.1875s.1875-.0825.1875-.1875v-1.875c0-.105-.0825-.1875-.1875-.1875z" fill="#fff"/><path fill-rule="evenodd" clip-rule="evenodd" d="m10.14,12c.105,0,.1875-.0825.1875-.1875v-.0075L10.26,9.93c-.0075-.0975-.09-.18-.1875-.18-.10499,0-.18749.0825-.18749.1875,0,.0075,0,.0075,0,.0075l.0675,1.875c0,.0975.08249.18.18749.18z" fill="#fff"/><path fill-rule="evenodd" clip-rule="evenodd" d="m10.2525,15c.105,0,.1875-.0825.1875-.1875v-.0075l-.0675-1.875c-.0075-.0975-.09-.18-.1875-.18-.105,0-.1875.0825-.1875.1875,0,0,0,0,0,.0075l.0675,1.875c0,.0975.0825.18.1875.18z" fill="#fff"/><path fill-rule="evenodd" clip-rule="evenodd" d="m10.305,16.125c-.105,0-.1875.0825-.1875.1875v.0075l.0675,1.875c.0075.0975.09.18.1875.18.105,0,.1875-.0825.1875-.1875V18.18l-.0675-1.875c0-.0975-.09-.18-.1875-.18z" fill="#fff"/><path fill-rule="evenodd" clip-rule="evenodd" d="m11.3775,10.6875v-.015l-.1425-1.875c-.0075-.0975-.09-.1725-.1875-.1725-.105,0-.1875.0825-.1875.1875,0,.0075,0,.0075,0,.015l.1425,1.875c.0075.0975.09.1725.1875.1725.105,0,.1875-.0825.1875-.1875z" fill="#fff"/><path fill-rule="evenodd" clip-rule="evenodd" d="m11.6025,13.6875v-.015l-.1425-1.875c-.0075-.0975-.09-.1725-.1875-.1725-.105,0-.1875.0825-.1875.1875,0,.0075,0,.0075,0,.015l.1425,1.875c.0075.0975.09.1725.1875.1725.105,0,.1875-.0825.1875-.1875z" fill="#fff"/><path fill-rule="evenodd" clip-rule="evenodd" d="m11.8575,17.0625v-.015l-.1425-1.875c-.0075-.0975-.09-.1725-.1875-.1725-.105,0-.1875.0825-.1875.1875,0,.0075,0,.0075,0,.015l.1425,1.875c.0075.0975.09.1725.1875.1725s.1875-.0825.1875-.1875z" fill="#fff"/><path fill-rule="evenodd" clip-rule="evenodd" d="m11.9925,18.9225c-.0075-.0975-.09-.1725-.1875-.1725-.105,0-.1875.0825-.1875.1875,0,.0075,0,.0075,0,.015l.1425,1.875c.0075.0975.09.1725.1875.1725.105,0,.1875-.0825.1875-.1875,0,0,0-.0075,0-.015l-.1425-1.875z" fill="#fff"/><path fill-rule="evenodd" clip-rule="evenodd" d="m12.6,11.8125V11.79l-.21-1.875c-.0075-.0975-.09-.165-.1875-.165-.105,0-.1875.0825-.1875.1875,0,.0075,0,.015,0,.0225l.21,1.875c.0075.0975.09.165.1875.165.105,0,.1875-.0825.1875-.1875z" fill="#fff"/><path fill-rule="evenodd" clip-rule="evenodd" d="m12.9375,14.8125V14.79l-.21-1.875c-.0075-.0975-.09-.165-.1875-.165-.105,0-.1875.0825-.1875.1875,0,.0075,0,.015,0,.0225l.21,1.875c.0075.0975.09.165.1875.165.105,0,.1875-.0825.1875-.1875z" fill="#fff"/><path fill-rule="evenodd" clip-rule="evenodd" d="m13.1025,16.29c-.0075-.0975-.09-.165-.1875-.165-.105,0-.1875.0825-.1875.1875,0,.0075,0,.015,0,.0225l.21,1.875c.015.0975.09.165.1875.165.105,0,.1875-.0825.1875-.1875,0-.0075,0-.015,0-.0225l-.21-1.875z" fill="#fff"/><path fill-rule="evenodd" clip-rule="evenodd" d="m13.095,8.625c-.105,0-.1875.0825-.1875.1875,0,.0075,0,.015,0,.03l.285,1.875c.015.09.09.1575.1875.1575.105,0,.1875-.0825.1875-.1875,0-.0075,0-.015,0-.03l-.285-1.875c-.015-.09-.09-.1575-.1875-.1575z" fill="#fff"/><path fill-rule="evenodd" clip-rule="evenodd" d="m14.0175,13.6876v-.03l-.285-1.8825c-.015-.09-.09-.1575-.1875-.1575-.105,0-.1875.0825-.1875.1875,0,.0075,0,.015,0,.03l.285,1.8825c.015.09.09.1575.1875.1575.105,0,.1875-.0825.1875-.1875z" fill="#fff"/><path fill-rule="evenodd" clip-rule="evenodd" d="m14.52,17.0626v-.03l-.285-1.8825c-.015-.09-.09-.1575-.1875-.1575-.105,0-.1875.0825-.1875.1875,0,.0075,0,.0225,0,.03l.285,1.8825c.015.09.09.1575.1875.1575.105,0,.1875-.0825.1875-.1875z" fill="#fff"/><path fill-rule="evenodd" clip-rule="evenodd" d="m15.0825,20.79-.285-1.8825c-.015-.09-.09-.1575-.1875-.1575-.105,0-.1875.0825-.1875.1875,0,.0075,0,.015,0,.03l.285,1.8825c.015.09.09.1575.1875.1575.105,0,.1875-.0825.1875-.1875,0-.015,0-.0225,0-.03z" fill="#fff"/></svg>