<svg width="24" height="24" viewBox="0,0,24,24" xmlns="http://www.w3.org/2000/svg"><path fill-rule="evenodd" clip-rule="evenodd" d="m22.5,0h-21C.675,0,0,.675,0,1.5v21c0,.825.675,1.5,1.5,1.5h21c.825,0,1.5-.675,1.5-1.5v-21c0-.825-.675-1.5-1.5-1.5z" fill="#2d327d"/><path fill-rule="evenodd" clip-rule="evenodd" d="m10.4025,16.3651c.33-.33.7575-.51,1.2225-.5175v-.7875l-3.77252,1.59c.18.2775.2775.6075.2775.945h1.7625c0-.4575.18002-.8925.51002-1.23z" fill="#fff"/><path fill-rule="evenodd" clip-rule="evenodd" d="m7.6125,16.3651.015.015,1.89-.795-3.1425-.9v1.17c.465,0,.9075.18,1.2375.51z" fill="#fff"/><path fill-rule="evenodd" clip-rule="evenodd" d="m11.625,14.6925v-.5775h-5.25v.21l3.645,1.0425,1.605-.675z" fill="#fff"/><path fill-rule="evenodd" clip-rule="evenodd" d="m12.585,17.415-1.095-1.26c-.33.0375-.6375.18-.8775.42-.255.255-.405.585-.42.945l.5175.5925-1.25249,1.5c-.285.345-.225.87.1425,1.1775s.89249.2775,1.17749-.0675l1.86-2.22c.2625-.3075.2325-.7725-.0525-1.0875z" fill="#fff"/><path fill-rule="evenodd" clip-rule="evenodd" d="m6.50247,16.1626-1.095,1.26c-.285.315-.315.7725-.0525,1.0875l1.86,2.22c.285.345.8175.375,1.1775.0675.3675-.3075.4275-.8325.1425-1.1775l-1.2525-1.5.5175-.5925c-.0225-.36-.165-.69-.42-.945-.24-.24-.5475-.39-.8775-.42z" fill="#fff"/><path fill-rule="evenodd" clip-rule="evenodd" d="m14.25,10.1775H3.75c-.4125,0-.75.3375-.75.75s.3375.75.75.75h3v2.1075h4.5v-2.1075h3c.4125,0,.75-.3375.75-.75,0-.42-.3375-.75-.75-.75z" fill="#fff"/><circle cx="9" cy="7.55249" r="2.25" fill="#fff"/></svg>