<svg width="24" height="24" viewBox="0,0,24,24" xmlns="http://www.w3.org/2000/svg"><path fill-rule="evenodd" clip-rule="evenodd" d="m22.5,0h-21C.675,0,0,.675,0,1.5v21c0,.825.675,1.5,1.5,1.5h21c.825,0,1.5-.675,1.5-1.5v-21c0-.825-.675-1.5-1.5-1.5z" fill="#2d327d"/><path fill-rule="evenodd" clip-rule="evenodd" d="m13.5,4.48499c0-.825-.675-1.5-1.5-1.5s-1.5.675-1.5,1.5.675,1.5,1.5,1.5,1.5-.6675,1.5-1.5z" fill="#fff"/><path fill-rule="evenodd" clip-rule="evenodd" d="m8.685,7.875v5.0925c0,.2925.24.5325.5325.5325s.5325-.24.5325-.5325V8.625h.465v11.61c0,.4275.345.765.7725.765s.765-.345.765-.765v-6.75h.4875v6.75c0,.4275.345.765.7725.765s.765-.345.765-.765V8.625h.4725v4.3425c0,.2925.24.5325.5325.5325s.5325-.24.5325-.5325V7.875c0-.825-.675-1.5-1.5-1.5h-3.6375c-.825,0-1.4925.675-1.4925,1.5z" fill="#fff"/><path fill-rule="evenodd" clip-rule="evenodd" d="m21,2.99243c-.105,0-.1875.0825-.1875.1875v5.76c-.03.0075-.06.03-.075.0525l-.8475.9c-.0825.0825-.1425.14247-.165.26247-.0075.045-.015.1275-.015.18-.0825,2.5575-.9975,3.435-1.365,3.585-.0525.0225-.33.1575-.3075.5175.12,2.0025,1.2075,3.645,2.385,3.645h.39v2.73c0,.105.0825.1875.1875.1875s.1875-.0825.1875-.1875V3.18743c0-.105-.0825-.195-.1875-.195z" fill="#fff"/></svg>