<svg width="59" height="20" viewBox="0,0,59,20" xmlns="http://www.w3.org/2000/svg"><path fill-rule="evenodd" clip-rule="evenodd" d="m2,0C.89543,0,0,.895431,0,2v16c0,1.1046.895431,2,2,2h55c1.1046,0,2-.8954,2-2V2c0-1.104569-.8954-2-2-2H2z" fill="#eb0000"/><path fill-rule="evenodd" clip-rule="evenodd" d="m42.2437,7.12244h2.1916c-.0804-.68024-.3389-1.32702-.749-1.87461-.678-.85964-1.6556-1.28946-2.9327-1.28946-1.2745-.04112-2.4827.56957-3.2084,1.62168-.8094,1.11797-1.2141,2.66309-1.2141,4.63535,0,1.8456.3784,3.284,1.1352,4.315.7568,1.0309,1.8158,1.5463,3.177,1.5463,1.0139.0188,1.9942-.365,2.7276-1.0677.8409-.7911,1.2614-1.8379,1.2614-3.1405.0346-.9972-.2995-1.972-.9381-2.73688-.6474-.76588-1.6092-1.19152-2.6095-1.15488-.4897-.01393-.9753.09199-1.4151.3086-.4404.2496-.819.59569-1.1076,1.0125.0495-.65683.1685-1.30651.3549-1.93809.3574-1.04935.9618-1.57402,1.8132-1.57402.8041.00012,1.3086.4457,1.5136,1.33671zm-3.0272,3.34606c.2893-.4448.7871-.70801,1.3164-.69606.5652-.01497,1.0984.26296,1.4112.73556.2912.4251.4403.932.4257,1.4476.012.5372-.1544,1.0631-.473,1.495-.3051.4325-.8044.6845-1.3324.6724-.5384.0154-1.0461-.2513-1.3402-.7041-.3028-.4324-.4602-.9506-.4492-1.4791-.0136-.5252.1411-1.0409.4415-1.4713z" fill="#fff"/><path d="m9.22072,4.19995h4.05608L8.25878,15.8H4.18579L9.22072,4.19995zm6.72758,0h14.3949l-1.4906,3.44547H18.5724l-2.0413,4.70908h10.2847L25.3259,15.8h-14.395l5.0174-11.60005z" fill="#fff"/></svg>