<svg width="59" height="20" viewBox="0,0,59,20" xmlns="http://www.w3.org/2000/svg"><path fill-rule="evenodd" clip-rule="evenodd" d="m2,0C.89543,0,0,.895431,0,2v16c0,1.1046.895431,2,2,2h55c1.1046,0,2-.8954,2-2V2c0-1.104569-.8954-2-2-2H2z" fill="#eb0000"/><path d="m44.6652,13.7433V15.8h-8.3013c-.0027-.6116.1-1.2191.3036-1.7956.1862-.5419.4768-1.0418.8553-1.4712.3054-.3366.639-.6463.9972-.9256.381-.3006,1.1392-.8517,2.2744-1.65316.4476-.28587.8401-.65028,1.1589-1.07578.2238-.3427.3392-.74524.3311-1.15488.0196-.45301-.1406-.89533-.4454-1.23008-.3054-.31734-.7314-.48862-1.1707-.47071-1.1878,0-1.8001.85697-1.8368,2.5709h-2.2153v-.25312c0-1.40273.3916-2.48906,1.1746-3.25898.762-.74883,1.7474-1.12325,2.9563-1.12325.9776-.03274,1.9334.29352,2.6883.91758.7831.66446,1.1746,1.55827,1.1746,2.68145.018.93249-.3173,1.83711-.9381,2.53123-.1747.203-.3673.3896-.5755.5576-.1787.1399-.6491.4761-1.4111,1.0086-.7253.5063-1.2443.8939-1.5571,1.1629-.3211.2778-.6129.5879-.871.9254h5.408z" fill="#fff"/><path fill-rule="evenodd" clip-rule="evenodd" d="m51.2557,7.12267h2.1916c-.0804-.68029-.3387-1.32712-.7489-1.87479-.678-.85951-1.6555-1.28926-2.9326-1.28926-1.2745-.04112-2.4828.56947-3.2086,1.62147-.8094,1.11797-1.214,2.66308-1.214,4.63531,0,1.8459.3784,3.2842,1.1352,4.3151.7568,1.031,1.8158,1.5465,3.177,1.5465,1.014.0186,1.9943-.3652,2.7277-1.068.8409-.791,1.2613-1.8377,1.2613-3.1402.0347-.9973-.2995-1.9721-.9381-2.73695-.6474-.76589-1.6092-1.19154-2.6094-1.15488-.4897-.014-.9754.09185-1.4151.3084-.4405.24957-.8191.59567-1.1076,1.0125.0494-.65676.1684-1.30637.3547-1.93789.3574-1.04948.9618-1.57422,1.8132-1.57422.8041.00006,1.3087.4457,1.5136,1.33691zm-3.0272,3.34593c.2895-.4448.7873-.70799,1.3165-.69613v.00001c.5653-.0149,1.0984.26302,1.4112.73572.2911.425.4402.9319.4257,1.4475.012.5372-.1544,1.0632-.473,1.4951-.3051.4324-.8045.6844-1.3323.6723-.5384.0153-1.046-.2513-1.3402-.7039-.3029-.4326-.4604-.9508-.4494-1.4793-.0135-.5252.1412-1.0409.4415-1.4713z" fill="#fff"/><path d="m9.21994,4.19995h4.05626L8.2582,15.8H4.18521L9.21994,4.19995zM25.9805,12.3662c.3666,0,.6985-.2172.8463-.5537l3.2923-7.61255h-14.135L10.9661,15.8h4.0383l3.7988-8.69045h5.9937l-1.2014,2.77546-5.2259-.01902L22.5865,15.8h4.5973l-3.1239-3.4338h1.9206z" fill="#fff"/></svg>