<svg width="59" height="20" viewBox="0,0,59,20" xmlns="http://www.w3.org/2000/svg"><path fill-rule="evenodd" clip-rule="evenodd" d="m2,0C.89543,0,0,.895431,0,2v16c0,1.1046.895431,2,2,2h55c1.1046,0,2-.8954,2-2V2c0-1.104569-.8954-2-2-2H2z" fill="#eb0000"/><path d="m44.3814,4.23535v1.96172c-.0631.06855-.2496.28216-.5597.64082-.4889.5794-.9194,1.20604-1.285,1.87071-.3971.68873-.7296,1.4129-.9933,2.1633-.5281,1.5927-.8332,3.2512-.9066,4.9281H38.256c.0325-.98.1847-1.9523.4532-2.8951.299-1.0937.6962-2.1581,1.1865-3.1799.7201-1.49766,1.4506-2.61302,2.1916-3.34609h-5.4395V4.23535h7.7336zm8.6875,0V6.292h-4.6433l-.4967,2.60254c.5527-.58894,1.3307-.91156,2.1364-.88594.7957-.01745,1.5756.22394,2.2232.68809.9354.69082,1.4031,1.74021,1.4032,3.14821,0,1.3817-.4993,2.4759-1.4978,3.2828-.7895.637-1.778.9732-2.7908.9493-1.2193,0-2.1995-.3284-2.9405-.985-.741-.6564-1.1326-1.5437-1.1746-2.6617h2.2625c.0256.377.1629.7378.3942,1.0361.3623.424.8902.6694,1.4469.6725.5566.003,1.0872-.2365,1.4542-.6565.3471-.4434.5284-.9948.5124-1.5584.0291-.5803-.1625-1.15-.5361-1.5939-.3641-.40117-.8866-.61987-1.4269-.59728-.7024-.01326-1.3546.36418-1.6949.98088l-2.0576-.0317,1.0958-6.44664,6.3304-.00001zm-43.84893-.0354h4.05623L8.25823,15.8H4.18524L9.21997,4.19995zM25.9805,12.3662c.3665,0,.6985-.2172.8463-.5537l3.2923-7.61255h-14.135L10.9661,15.8h4.0383l3.7988-8.69045h5.9937l-1.2014,2.77546-5.2259-.01902L22.5865,15.8h4.5973l-3.1239-3.4338h1.9206z" fill="#fff"/></svg>