<svg width="24" height="24" viewBox="0,0,24,24" xmlns="http://www.w3.org/2000/svg"><path fill-rule="evenodd" clip-rule="evenodd" d="m12,4C9.76914,4,8,5.76914,8,8c0,2.2309,1.76914,4,4,4,2.2309,0,4-1.7691,4-4,0-2.23086-1.7691-4-4-4zM7,8c0-2.78314,2.21686-5,5-5,2.7831,0,5,2.21686,5,5,0,1.6529-.7819,3.1061-2,4.0137v6.9933l-.1464.1465-2.5,2.5L12,22.007l-.3536-.3535-2.49995-2.5L9,19.007v-6.9933C7.78192,11.1061,7,9.6529,7,8zm3,4.5912v6.0016l2,2,2-2V17h-2.0068v-1H14v-1h-2v-1h2v-1.4088c-.611.2633-1.2869.4088-2,.4088s-1.389-.1455-2-.4088zm2.005-5.59108c-.589,0-1.005.42116-1.005.977,0,.57595.4361,1.023,1.005,1.023.5646,0,.995-.44259.995-1.023,0-.56021-.4105-.977-.995-.977zM10,7.97712c0-1.12616.882-1.977,2.005-1.977,1.1275,0,1.995.85521,1.995,1.977,0,1.10159-.8476,2.02298-1.995,2.02298-1.1431,0-2.005-.91693-2.005-2.02298z"/></svg>