<svg width="24" height="24" viewBox="0,0,24,24" xmlns="http://www.w3.org/2000/svg"><path fill-rule="evenodd" clip-rule="evenodd" d="m12,1.9997c-1.6571,0-3,1.34286-3,3H8v1h1v3H8v1h.90977l-1.83333,11H5v1h14v-1h-2.0764l-1.8334-11H16v-1h-1v-3h1v-1h-1c0-1.65714-1.3429-3-3-3zm2,3c0-1.10486-.8951-2-2-2s-2,.89514-2,2h4zm-4,1v3h4v-3h-4zm-1.90977,15,1.83333-11h4.15284l1.8334,11H8.09023zM18,7.9997h2v-1h-2v1zm4,0h-1v-1h1v1zm-3.7519-2.06588,3.5-2-.4962-.86824-3.5,2,.4962.86824zm3.0038,5.99998-3.5-1.99998.4962-.86824,3.5,2.00002-.4962.8682zM6,6.9997H4v1h2v-1zm-4,0h1v1H2v-1zm4.24807-1.93412-3.5-2-.49614.86824,3.5,2,.49614-.86824zM2.25193,11.0656l3.5-2.00002.49614.86824-3.5,1.99998-.49614-.8682z"/></svg>