<svg width="24" height="24" viewBox="0,0,24,24" xmlns="http://www.w3.org/2000/svg"><path fill-rule="evenodd" clip-rule="evenodd" d="m19.5384,5.22163-.7326-.70362c-1.3626-1.35857-3.5563-1.35735-4.9173.00369l-.0001.00007.3537.35348-.3537-.35346v.00005l-.0002.0002-.0009.00083-.0032.00325-.0128.01282-.0495.04953-.1841.1841-.624.62424-1.5993,1.59996.7073.70696,1.5993-1.59995.624-.62425.184-.18409.0495-.04953.0128-.01282.0033-.00326.0008-.00082.0002-.00021.0001-.00005c.9717-.97168,2.5349-.97167,3.5067.00005l-.0001.00008.0073.00699.7323.70333c.9697.97329.9714,2.53882.0023,3.5071l-.0009.00092-4.2479,4.26658-.0003.0003c-.9706.9712-2.5627.9713-3.5345-.0004l-.707-.707-.70709.7071.70699.707c1.3622,1.3622,3.5879,1.3624,4.9493-.0001l.0006-.0007,4.2476-4.2663.0006-.0005c1.3632-1.36266,1.3548-3.56372-.006-4.9245l.0001-.00008-.0073-.00699zM12.9141,9.8778c-1.3622-1.36106-3.58759-1.36106-4.94981,0l-.0002.00019L3.72214,14.1209c-1.36227,1.3623-1.36227,3.5879,0,4.9502l.707.707.00015.0001c1.36214,1.361,3.58761,1.3612,4.94895-.0001l2.47996-2.48-.7071-.7072-2.47996,2.48c-.97066.9707-2.56319.9709-3.53505-.0001l-.70685-.7069c-.97174-.9717-.97174-2.5641,0-3.5358l.00004-.0001,4.24181-4.2428c.97169-.97086,2.56421-.97093,3.53601-.0002l.0002.0002.7066.7076.7076-.7066-.707-.708-.0004-.0004z"/></svg>