<svg width="24" height="24" viewBox="0,0,24,24" xmlns="http://www.w3.org/2000/svg"><path fill-rule="evenodd" clip-rule="evenodd" d="m22.5,0h-21C.675,0,0,.675,0,1.5v21c0,.825.675,1.5,1.5,1.5h21c.825,0,1.5-.675,1.5-1.5v-21c0-.825-.675-1.5-1.5-1.5z" fill="#2d327d"/><path fill-rule="evenodd" clip-rule="evenodd" d="m19.41,14.28c0,.4425.36.795.795.795.4425,0,.795-.36.795-.795v-.795h-1.59v.795z" fill="#fff"/><path fill-rule="evenodd" clip-rule="evenodd" d="m19.1551,10.9725c-.0525.225-.105.42.0225.66.105.2025.345.645.345.645l1.44.5775.33-1.3575c.0225-.105.0225-.21,0-.3075l-.405-1.875c-.045-.225-.2475-.3825-.4725-.3825h-.4275c-.225,0-.4275.1575-.4725.3825l-.36,1.6575z" fill="#fff"/><path fill-rule="evenodd" clip-rule="evenodd" d="m16.59,14.28c0,.4425-.36.795-.795.795-.4425,0-.795-.36-.795-.795v-.795h1.59v.795z" fill="#fff"/><path fill-rule="evenodd" clip-rule="evenodd" d="m16.845,10.9725c.0525.225.105.42-.0225.66-.1049.2025-.345.645-.345.645l-1.44.5775-.33-1.3575c-.0225-.105-.0225-.21,0-.3075l.405-1.875c.045-.225.2475-.3825.4725-.3825h.4275c.225,0,.4275.1575.4725.3825l.36,1.6575z" fill="#fff"/><path fill-rule="evenodd" clip-rule="evenodd" d="m6.66003,20.28c0,.4425.36.795.795.795.4425,0,.795-.36.795-.795v-.795H6.66004v.795h-.00001z" fill="#fff"/><path fill-rule="evenodd" clip-rule="evenodd" d="m6.4051,16.9725c-.0525.225-.105.42.0225.66.105.2025.34499.645.34499.645l1.44.5775.33-1.3575c.0225-.105.0225-.21,0-.3075l-.405-1.875c-.045-.225-.2475-.3825-.4725-.3825H7.2376c-.22501,0-.4275.1575-.47251.3825l-.35999,1.6575z" fill="#fff"/><path fill-rule="evenodd" clip-rule="evenodd" d="m4.59,14.28c0,.4425-.36.795-.795.795-.4425,0-.795-.36-.795-.795v-.795h1.59v.795z" fill="#fff"/><path fill-rule="evenodd" clip-rule="evenodd" d="m4.84505,10.9725c.0525.225.105.42-.0225.66-.105.2025-.345.645-.345.645l-1.44.5775-.33-1.3575c-.0225-.105-.0225-.21,0-.3075l.405-1.875c.045-.225.2475-.3825.4725-.3825h.4275c.225,0,.4275.1575.4725.3825l.36,1.6575z" fill="#fff"/><path fill-rule="evenodd" clip-rule="evenodd" d="m6.66003,8.27999c0,.4425.36.795.795.795.4425,0,.795-.36.795-.795v-.795H6.66004v.795h-.00001z" fill="#fff"/><path fill-rule="evenodd" clip-rule="evenodd" d="m6.4051,4.97249c-.0525.225-.105.42.0225.66.105.2025.34499.645.34499.645l1.44.5775.33-1.3575c.0225-.105.0225-.21,0-.30749l-.405-1.875c-.045-.22501-.2475-.3825-.4725-.3825H7.2376c-.22501,0-.4275.15749-.47251.3825L6.4051,4.97249z" fill="#fff"/><path fill-rule="evenodd" clip-rule="evenodd" d="m12,21.1124c-.105,0-.1875-.0825-.1875-.1875V3.07495c0-.105.0825-.1875.1875-.1875s.1875.0825.1875.1875V20.9249c0,.105-.0825.1875-.1875.1875z" fill="#fff"/></svg>