<svg width="48" height="48" viewBox="0,0,48,48" xmlns="http://www.w3.org/2000/svg"><path fill-rule="evenodd" clip-rule="evenodd" d="m12,16.0027C12,9.37391,17.3725,4,24,4s12,5.37391,12,12.0027v.0045c-.0178,1.992-.6445,3.7659-1.6013,5.4419l-.0053.0092-.0056.009L24.456,37.2661l-.4233.6734-.4233-.6734-9.9319-15.7988-.0056-.009.0001-.0001c-.9751-1.627-1.5907-3.3667-1.6716-5.4359L12,16.0125v-.0098zm1-.0098c.0748,1.8702.6274,3.4443,1.527,4.9467l9.5057,15.1209,9.5028-15.1164c.8947-1.5696,1.4482-3.1726,1.4645-4.9437C34.9987,9.92471,30.0742,5,24,5,17.9282,5,13.0053,9.92069,13,15.9929zM24,9c-3.866,0-7,3.134-7,7s3.134,7,7,7,7-3.134,7-7-3.134-7-7-7zm-8,7c0-4.4183,3.5817-8,8-8s8,3.5817,8,8-3.5817,8-8,8-8-3.5817-8-8zm.9566,14.0954c-3.6981.4494-6.8816,1.2446-9.15601,2.2732-1.13595.5138-2.07023,1.097-2.72775,1.7451C4.41413,34.763,4,35.5128,4,36.3421c0,1.0745.6905,2.011,1.7267,2.7861,1.04558.782,2.52772,1.4672,4.3169,2.0348C13.6279,42.3,18.5562,43,24,43s10.3722-.7,13.9564-1.837c1.7892-.5676,3.2713-1.2528,4.3169-2.0348C43.3095,38.3531,44,37.4166,44,36.3421c0-.828-.4129-1.5768-1.0698-2.2254-.6557-.6473-1.5874-1.2299-2.7202-1.7433-2.2682-1.0278-5.4433-1.8231-9.1324-2.2738l-.1213.9926c3.6311.4437,6.6976,1.2208,8.8409,2.1921,1.0729.4862,1.8894,1.0098,2.4305,1.544.5398.533.7723,1.0411.7723,1.5138,0,.6127-.3953,1.2894-1.3257,1.9853-.921.6889-2.2862,1.3323-4.0203,1.8824C34.1917,41.3081,29.37,42,24,42s-10.1917-.6919-13.654-1.7902c-1.73406-.5501-3.09934-1.1935-4.02034-1.8824C5.39527,37.6315,5,36.9548,5,36.3421c0-.4735.23321-.9824.77483-1.5162.54281-.5351,1.36185-1.0594,2.43785-1.5461,2.14952-.9722,5.22452-1.7494,8.86452-2.1917l-.1206-.9927z"/></svg>