<svg width="24" height="24" viewBox="0,0,24,24" xmlns="http://www.w3.org/2000/svg"><path fill-rule="evenodd" clip-rule="evenodd" d="m11.9844,3.0144c-3.31417,0-6.00002,2.68586-6.00002,6v.00981l.00038.0098c.04078,1.03929.35053,1.91309.83687,2.72369H6.8215l.0065.0103,4.75,7.498.4224.6667.4224-.6667,4.75-7.498.0062-.0098.0057-.0101c.4722-.8282.7907-1.7199.7997-2.72926V9.0144c0-3.3142-2.6869-6-6-6zM7.67606,11.238c-.41023-.6851-.65702-1.39309-.69168-2.23341.0053-2.75734,2.24141-4.99019,5.00002-4.99019,2.7602,0,4.9988,2.23702,5,4.9978-.0075.78813-.2527,1.5088-.6627,2.2306l-4.3213,6.8213L7.67606,11.238zm1.31613-2.23141c0-1.65686,1.34311-3,3.00001-3,1.6568,0,3,1.34314,3,3,0,1.65681-1.3432,3.00001-3,3.00001-1.6569,0-3.00001-1.3432-3.00001-3.00001zm3.00001-4c-2.20915,0-4.00001,1.79086-4.00001,4,0,2.20911,1.79086,4.00001,4.00001,4.00001,2.2091,0,4-1.7909,4-4.00001,0-2.20914-1.7909-4-4-4z"/></svg>