<svg width="24" height="24" viewBox="0,0,24,24" xmlns="http://www.w3.org/2000/svg"><path fill-rule="evenodd" clip-rule="evenodd" d="m13.4462,4.00293.2914.15733,5,2.7L19,7.00197v1.99825h-1V7.59846l-4-2.16v7.77164l.6737.7579-.7474.6644-.4846-.5452-4.62935,3.7034-.29845.2388-.30871-.2253-5-3.65L3,14.0043V4.0241l.79215.57035,4.69193,3.37819,4.70362-3.76286.2585-.20685zM13,13.1599V5.64053l-4,3.2v7.51937l4-3.2zM4,5.97633l4,2.88v7.55987l-4-2.92V5.97633zm11.0042,7.21227c0-1.7257,1.3077-3.188,2.996-3.188,1.6891,0,2.997,1.4621,2.997,3.188v.0046h-.0001c-.0049.5405-.1646,1.0143-.392,1.4442l-.0052.0099-.0057.0097-2.155,3.665-.4308.7327-.4312-.7325-2.157-3.665-.0059-.0101.0001-.0001c-.2371-.4254-.3908-.8902-.4099-1.4411l-.0003-.0086v-.0087zM16.0042,13.1799c.014.3654.1131.6728.281.9754l1.7228,2.9272,1.7182-2.9223c.1711-.326.2675-.6386.271-.9739-.0012-1.243-.9289-2.1857-1.997-2.1857-1.0653,0-1.9917.9393-1.996,2.1793zM18,12.0001c-.5491,0-1,.4509-1,1,0,.5556.4623,1,1.005,1,.5556,0,.995-.4574.995-1,0-.5491-.4509-1-1-1z"/></svg>