<svg width="48" height="48" viewBox="0,0,48,48" xmlns="http://www.w3.org/2000/svg"><path fill-rule="evenodd" clip-rule="evenodd" d="m9,17C9,8.71573,15.7157,2,24,2s15,6.71573,15,15v.0045c-.0222,2.4828-.8031,4.6971-2.0019,6.7964l-.0038.0067-.004.0066L24.4676,44.2611l-.4264.6962-.4264-.6962L11.0921,23.8142l-.0025-.0041c-1.22-2.0353-1.98819-4.2072-2.08922-6.7906L9,17.0098V17zm1-.0098c.095,2.3852.8007,4.3922,1.9461,6.3036l.0012.0021,12.0939,19.7468,12.0923-19.7443c1.1375-1.9937,1.8458-4.0379,1.8665-6.3007C37.9987,9.26675,31.7312,3,24,3,16.2713,3,10.0053,9.26273,10,16.9902zM14,11.5V10h3v1h3.1396l.8861-2.65811L21.1396,8h5.7208l.1139.34189L27.8604,11H34v12H14V11.5zm7,5.5c0-1.6569,1.3431-3,3-3s3,1.3431,3,3-1.3431,3-3,3-3-1.3431-3-3zm5.8063-6h-5.6126l.6667-2h4.2792l.6667,2zM15,12v10h18V12H15zm9,1c-2.2091,0-4,1.7909-4,4s1.7909,4,4,4,4-1.7909,4-4-1.7909-4-4-4z"/></svg>