<svg width="24" height="24" viewBox="0,0,24,24" xmlns="http://www.w3.org/2000/svg"><path fill-rule="evenodd" clip-rule="evenodd" d="m12,4.0022c-3.31414,0-6,2.68585-6,6v.0098l.00038.0098c.04078,1.0392.35049,1.913.83577,2.7225l-.00013.0001.00659.0103,4.74999,7.499.4224.6668.4224-.6667,4.751-7.499.0062-.0098.0058-.0102c.4723-.8285.7895-1.7199.7996-2.7276v-.005c0-3.3142-2.6869-6-6-6zm-4.30925,8.2227c-.40928-.6842-.65608-1.3922-.69074-2.23252C7.0053,7.23504,9.24142,5.0022,12,5.0022c2.7601,0,4.9986,2.23683,5,4.99746-.0084.78764-.2529,1.50854-.6627,2.22994l-4.3223,6.8223-4.32425-6.827zm4.29205-5.32461,1.193,3.21701h-2.391l1.198-3.21701zm3.268,6.10501-2.728-7.00701h-1.036L8.74683,13.0053h.974l.79697-2.143h2.93l.778,2.143h1.025z"/></svg>