<svg width="24" height="24" viewBox="0,0,24,24" xmlns="http://www.w3.org/2000/svg"><path fill-rule="evenodd" clip-rule="evenodd" d="m2,3.99878h10v-1H2v1zm0,1.00098h5V17.4998h2V5.00019h2.4976c1.6858-.01624,2.9646.26037,3.9758.83473,1.0162.57714,1.7102,1.42546,2.2766,2.4541l.0052.00943.0048.00965,3.563,7.187.0091.0184.0075.019c.4049,1.0185.5813,1.8974.4952,2.6463-.0891.7743-.4554,1.3743-1.0488,1.8076-.5731.4184-1.3357.666-2.2106.8134-.8804.1483-1.9182.2019-3.0755.2014h-.0001l-5.99988-.001L9,21.0001v-2.5003H7v2.5H2v-1h4V5.99976H2v-1zm9,4h4.309l.1382.27639,3,5.99995.3618.7237H11V8.99976zm1,1v5.00004h5.191l-2.5-5.00004H12zm-.4951-3.9996c1.578-.01546,2.6659.24494,3.4747.70429.8016.45533,1.3799,1.13498,1.8893,2.0576l3.5489,7.15865c.3697.9355.4825,1.6307.4235,2.1438-.0565.4912-.2723.8421-.645,1.1142-.3931.287-.9806.4992-1.787.635-.8008.1349-1.7754.188-2.9091.1875h-.0001L10,20.0003V6.00019h1.5v.00002l.0049-.00005z"/></svg>