<svg width="24" height="24" viewBox="0,0,24,24" xmlns="http://www.w3.org/2000/svg"><path fill-rule="evenodd" clip-rule="evenodd" d="m12.3419,2.63529-.342-.32059-.3419.3206C9.60306,4.56178,8.54007,6.42612,8.13789,8.16055c-.40261,1.73625-.13219,3.29585.39948,4.59175.52951,1.2907,1.31933,2.3244,1.96953,3.0315.3262.3548.6205.6308.8346.8192.1072.0943.1946.1669.2563.2167.0308.0249.0552.0442.0725.0576l.0204.0158.0061.0046.0019.0014.0007.0006c.0003.0002.0005.0004.3005-.3996l-.3.4.3.225.3-.225-.3-.4c.3.4.3003.3998.3005.3996l.0007-.0005.002-.0015.006-.0046.0205-.0158c.0173-.0134.0417-.0327.0725-.0576.0617-.0498.1491-.1224.2562-.2167.2142-.1884.5084-.4644.8347-.8192.6502-.7071,1.44-1.7408,1.9696-3.0315.5317-1.2959.8021-2.8555.3995-4.59175-.4022-1.73443-1.4653-3.59878-3.5202-5.52526zm.415,12.47161c-.2976.3237-.565.5744-.757.7434-.1919-.169-.4593-.4197-.7569-.7434-.5998-.6523-1.30997-1.5873-1.78046-2.7341-.46831-1.1415-.69789-2.48822-.3505-3.98636.32677-1.40922,1.17356-2.9934,2.88786-4.69212,1.7144,1.69873,2.5612,3.28291,2.888,4.69213.3474,1.49813.1178,2.84485-.3505,3.98635-.4705,1.1468-1.1807,2.0818-1.7805,2.7341zM7.17731,6.73981c-1.11208-.42919-2.30156-.64148-3.50686-.60328l-.39188.01241-.08139.38354C2.17834,11.3333,5.21152,16.0623,10.002,17.1352l.2186-.9758c-4.12455-.9238-6.78298-4.8986-6.11862-9.02571.93024.01856,1.84749.20414,2.71528.53905l.36005-.93293zM21.3444,12.5373c.5989.3301,1.1576.7258,1.6675,1.1808l.2932.2615-.1848.3468c-1.777,3.3337-5.4518,5.1976-9.1912,4.6617l.1419-.9899c3.1898.4571,6.3268-1.051,7.9696-3.7934-.3688-.2977-.763-.5625-1.1789-.7918l.4827-.8757zM.988266,13.7185c.510134-.4551,1.069754-.8507,1.667154-1.1805l.4834.8753c-.41551.2295-.81018.4944-1.17914.7921,1.64275,2.7421,4.77967,4.2495,7.96965,3.7933l.14157.9899c-3.73918.5348-7.41395-1.3279-9.191011-4.6618l-.184821-.3467.293198-.2616zM19.8983,7.13369c-.9302.01856-1.8475.20414-2.7153.53905l-.36-.93293c1.1121-.42919,2.3015-.64148,3.5068-.60328l.3919.01241.0814.38354c1.0188,4.80082-2.0143,9.52982-6.8048,10.60272l-.2186-.9758c4.1245-.9238,6.783-4.8986,6.1186-9.02571z"/></svg>