<svg width="48" height="48" viewBox="0,0,48,48" xmlns="http://www.w3.org/2000/svg"><path fill-rule="evenodd" clip-rule="evenodd" d="m24.3476,9.6405-.3535-.34167-.3476.34761c-3.6815,3.68146-5.5499,7.26496-6.2528,10.58596-.7028,3.32-.2326,6.3384.6994,8.8774.9308,2.5355,2.3237,4.5987,3.4793,6.0252.5786.7143,1.1001,1.2719,1.4784,1.6522.1892.1902.3428.3363.4501.4357.0537.0497.0958.0877.125.1138l.034.0301.0094.0082.0028.0024.0009.0008c.0003.0003.0005.0005.327-.3782l-.3265.3787.321.2767.3256-.2713L24,37c.3201.3841.3204.3839.3207.3836l.0009-.0007.0028-.0024.0097-.0082.0351-.03c.0302-.0261.0737-.0641.1291-.1137.1109-.0993.2697-.2453.4654-.4355.3911-.3801.9304-.9375,1.5289-1.6517,1.1951-1.4261,2.6365-3.4897,3.5998-6.0264.9648-2.5407,1.4519-5.5623.7241-8.886-.7279-3.3242-2.6618-6.9083-6.4689-10.5885zm-.0808,26.4355c-.0977.0949-.1852.1777-.261.2482-.0718-.0692-.1543-.15-.246-.2423-.3581-.3599-.8562-.8922-1.4103-1.5763-1.1101-1.3704-2.4359-3.3384-3.3176-5.7404-.8805-2.3985-1.3165-5.2238-.6599-8.3257.6347-2.9986,2.2983-6.2922,5.6341-9.733,3.4559,3.4441,5.1773,6.7392,5.8336,9.7364.6784,3.0982.228,5.9203-.6822,8.3171-.9116,2.4008-2.2827,4.3684-3.4314,5.7392-.5734.6842-1.0888,1.2167-1.4593,1.5768zM7.40037,14.7722c3.24853-.1029,6.46193.6979,9.28213,2.3118l-.4966.8679c-2.5452-1.4565-5.43-2.2108-8.35821-2.188C6.20144,24.4283,11.727,32.8689,20.3755,34.8061l-.2186.9758C10.8445,33.696,4.94522,24.5031,6.92711,15.1681l.08141-.3835.39185-.0124zM31.3162,17.084c2.8202-1.6139,6.0336-2.4147,9.2821-2.3118l.3919.0124.0814.3835c1.9819,9.335-3.9164,18.5279-13.2298,20.6138l-.2186-.9758c8.6495-1.9372,14.1741-10.3778,12.5478-19.0422-2.9282-.0228-5.813.7315-8.3582,2.188l-.4966-.8679zm-24.555,8.4292c-1.16372.641-2.25247,1.4107-3.24461,2.2958l-.2932.2616.18482.3467C6.86323,34.8991,14.008,38.523,21.2794,37.4811l-.1419-.9899c-6.7234.9634-13.33205-2.3049-16.65607-8.1965.8542-.7262,1.7798-1.3644,2.76225-1.9056l-.48248-.8759zM41.2383,25.5134c1.1637.6411,2.2525,1.4108,3.2438,2.2961l.2929.2615-.1848.3466c-3.455,6.4817-10.5997,10.1056-17.8701,9.0637l.1418-.9898c6.7226.9633,13.3312-2.305,16.6552-8.1967-.8534-.7261-1.7789-1.3643-2.7613-1.9054l.4825-.876z"/></svg>