<svg width="48" height="48" viewBox="0,0,48,48" xmlns="http://www.w3.org/2000/svg"><path fill-rule="evenodd" clip-rule="evenodd" d="m17.5,3C9.49214,3,3,9.49214,3,17.5,3,25.5079,9.49214,32,17.5,32,25.5079,32,32,25.5079,32,17.5,32,9.49214,25.5079,3,17.5,3zM2,17.5C2,8.93986,8.93986,2,17.5,2,26.0601,2,33,8.93986,33,17.5c0,4.1002-1.5922,7.8287-4.192,10.6008l3.868,3.8681.7069-.707.3536-.3535L45.414,42.5859c.7813.7813.7813,2.0469,0,2.8282-.7812.7812-2.0468.7812-2.8281,0l-11.324-11.324-.3535-.3536.3535-.3536.707-.7069-3.868-3.8681C25.3287,31.4078,21.6002,33,17.5,33,8.93986,33,2,26.0601,2,17.5zm3,0C5,10.5961,10.5961,5,17.5,5S30,10.5961,30,17.5,24.4039,30,17.5,30,5,24.4039,5,17.5zM17.5,4C10.0439,4,4,10.0439,4,17.5S10.0439,31,17.5,31,31,24.9561,31,17.5,24.9561,4,17.5,4zm25.793,40.7069L32.3226,33.7365l1.4139-1.4139,10.9704,10.9705c.3908.3907.3908,1.0231,0,1.4138-.3907.3908-1.0231.3908-1.4139,0zM18,18h8v-1h-8V9h-1v8H9v1h8v8h1v-8z"/></svg>