<svg width="36" height="36" viewBox="0,0,36,36" xmlns="http://www.w3.org/2000/svg"><path fill-rule="evenodd" clip-rule="evenodd" d="m11.75,6.00049v7.25001H4.5v-1h5.5429L4.52145,6.72904l.7071-.70711L10.75,11.5434V6.00049h1zm5.5,8.75001c-2.2349,0-4,1.7651-4,4,0,2.2348,1.7651,4,4,4s4-1.7652,4-4c0-2.2349-1.7651-4-4-4zm-5,4c0-2.7872,2.2129-5,5-5s5,2.2128,5,5c0,2.7871-2.2129,5-5,5s-5-2.2129-5-5zm10.5-6V6.00049h1v5.54291l5.5214-5.52147.7072.70711-5.5215,5.52146H30v1h-7.25v-.5zM22.75,24.2498H30v1h-5.5429l5.5215,5.5214-.7072.7071L23.75,25.9569v5.5429h-1v-7.25zm-18.25,0h7.25v7.25h-1v-5.5429l-5.52145,5.5214-.7071-.7071,5.52145-5.5214H4.5v-1z"/></svg>