<svg width="16" height="16" viewBox="0,0,16,16" xmlns="http://www.w3.org/2000/svg"><rect width="16" height="16" rx="2" fill="#eb0000"/><path fill-rule="evenodd" clip-rule="evenodd" d="m8.7785,9.2c0,.45-.33009.81-.75021.81s-.75022-.36-.75022-.81V6.02c0-.45.3301-.81.75022-.81s.75021.36.75021.81V9.2zm-.78022,3.21c-.42012,0-.75021-.36-.75021-.81s.33009-.81.75021-.81.75022.36.75022.81-.3301.81-.75022.81zm5.91172.42L8.68848,2.42c-.15004-.27-.39011-.42-.6902-.42-.27008,0-.54015.15-.66019.42l-5.2515,10.41c-.12004.24-.12004.54.03001.78.12003.24.3601.39.63018.39H13.2498c.2701,0,.5101-.15.6602-.39.12-.24.12-.54,0-.78z" fill="#fff"/></svg>