<svg width="24" height="24" viewBox="0,0,24,24" xmlns="http://www.w3.org/2000/svg"><path fill-rule="evenodd" clip-rule="evenodd" d="m22.5,0h-21C.675,0,0,.675,0,1.5v21c0,.825.675,1.5,1.5,1.5h21c.825,0,1.5-.675,1.5-1.5v-21c0-.825-.675-1.5-1.5-1.5z" fill="#2d327d"/><path fill-rule="evenodd" clip-rule="evenodd" d="m3.2625,16.185c-.18.42-.255.885-.2625,1.2825C3,17.865,3,21,3,21h7.8225c.0825-.1875.315-.6075.5625-1.1475-.2025.09-.4275.1425-.675.15-.015,0-.0375,0-.0525,0-.3,0-.6075-.0675-.8925-.195L6.255,18.21c-.5025-.2325-.8925-.63-1.065-1.095-.135-.36-.1275-.735.0225-1.0575l1.59-3.4125.87-1.875c.165-.5025.0225-1.06496-.375-1.42496-.06-.0525-.12-.0975-.195-.1275-.345-.1425-.7425.015-.8925.36001L3.2625,16.185z" fill="#fff"/><path fill-rule="evenodd" clip-rule="evenodd" d="m12.5175,20.97c-.4425-.0075-.8025-.3675-.795-.8175.0075-.4425.3675-.8025.8175-.795h1.4775c.4425-.0075.81.3525.8175.795s-.3525.81-.795.8175h-1.5225z" fill="#fff"/><path fill-rule="evenodd" clip-rule="evenodd" d="m13.4324,19.005c-.4425-.0075-.8025-.3675-.795-.81s.3675-.8025.8175-.795h1.4775c.4425-.0075.81.3525.8175.795s-.3525.81-.795.8175h-1.5225v-.0075z" fill="#fff"/><path fill-rule="evenodd" clip-rule="evenodd" d="m16.215,15.15,4.9875,4.9875-1.065,1.065L15.975,17.04c-.0188,0-.0394.0019-.06.0038s-.0413.0037-.06.0037H14.34c-.4425,0-.8025-.3675-.795-.81s.375-.8025.8175-.795h.015l-.6375-.6375-1.9725,4.245c-.1725.375-.57.6-1.065.615h-.045c-.2475,0-.51-.0525-.75001-.165l-3.51-1.5975c-.42-.195-.7425-.5175-.885-.9-.0975-.2775-.0975-.5475.01499-.7875l3.05251-6.56996-5.7825-5.7825,1.05749-1.0725,5.4,5.4,1.05752-2.28c.1725-.375.57-.6,1.065-.615h.045c.2475,0,.51.0525.75.165l3.51,1.5975c.3675.165.66.435.825.7575.1575.315.18.645.045.93L14.415,13.35l.3525.3525c.135-.105.3075-.165.495-.165H16.74c.45-.0075.81.3525.8175.795.0075.45-.3525.81-.795.8175h-.5475zM15.6,8.62504l-4.62-2.0775-1.06501,2.3025L13.7325,12.675,15.6,8.62504zM9.19499,17.7525c-.12.2475-.42001.3525-.675.225-.255-.12-.36-.42-.24-.6675s.42-.3525.675-.2325c.255.1275.35999.4275.24.675zm-2.2425-2.49L11.5725,17.34l1.485-3.225-3.81751-3.8175-2.2875,4.965z" fill="#fff"/><path fill-rule="evenodd" clip-rule="evenodd" d="m2.79883,3.85925L3.85948,2.7986,21.2011,20.1402l-1.0606,1.0607L2.79883,3.85925z" fill="#eb0000"/></svg>