<svg width="36" height="36" viewBox="0,0,36,36" xmlns="http://www.w3.org/2000/svg"><path fill-rule="evenodd" clip-rule="evenodd" d="m14.5879,8.08398-.5864,1.61275c-1.1227,3.08727-.0802,6.91057,2.358,9.61967,2.4203,2.6892,6.156,4.2115,10.3615,2.7859l1.9974-.677-1.4808,1.5016c-2.7458,2.7845-5.6893,3.8859-8.4092,3.7838-2.7101-.1018-5.1379-1.3963-6.8663-3.2917-1.7272-1.894-2.77797-4.4117-2.70849-6.9949.06987-2.5974,1.27209-5.2199,3.97339-7.29477l1.3609-1.04535zM25.0556,23.5339c-3.8275.5699-7.1806-1.0387-9.4394-3.5486-2.2313-2.4791-3.4383-5.8876-2.9649-9.0119-1.6297,1.6799-2.3476,3.6004-2.3981,5.4776-.0617,2.2966.875,4.5694,2.4478,6.2942,1.5716,1.7234,3.7563,2.8757,6.1649,2.9662,1.9457.073,4.0775-.5455,6.1897-2.1775z"/></svg>