<svg width="48" height="48" viewBox="0,0,48,48" xmlns="http://www.w3.org/2000/svg"><path fill-rule="evenodd" clip-rule="evenodd" d="m24.0944,9.00794-.0894-.01624-.0894.01624L7.41064,12.0059,7,12.0805v4.9194h2v15H8v3H7v4h34.001v-4h-1v-3h-1v-15h2v-4.9193l-.4106-.0747-16.496-2.99796zM38.001,31.9999v-15h-2v15h2zm-3,0v-15h-5v15h5zm-6,0v-15H27v15h2.001zm-3.001,0h-3.999v-15H26v15zm-4.999,0v-15h-2.0005v15h2.0005zm-3.0005,0v-15h-5v15h5zm-6,0v-15H10v15h2.0005zM8,15.9999v-3.0847l16.005-2.9071,15.996,2.9071v3.0847H8zm5.8063,17H9v3H8v2h4.1396l1.6667-5zm1.0541,0h18.2802l1.6667,5H13.1937l1.6667-5zm21.001,5h4.1396v-2h-1v-3h-4.8063l1.6667,5z"/></svg>