<svg width="36" height="36" viewBox="0,0,36,36" xmlns="http://www.w3.org/2000/svg"><path fill-rule="evenodd" clip-rule="evenodd" d="m7.25,6c0-.99886.75114-1.75,1.75-1.75s1.75.75114,1.75,1.75S9.99886,7.75,9,7.75,7.25,6.99886,7.25,6zM9,3.25C7.44886,3.25,6.25,4.44886,6.25,6S7.44886,8.75,9,8.75c.49208,0,.9487-.12065,1.3428-.33492l3.8359,5.26962C12.9916,14.7316,12.25,16.2679,12.25,18c0,1.4346.5088,2.7363,1.3582,3.7369l-3.2635,3.1827c-.58078-.4231-1.30311-.6696-2.0947-.6696-1.96898,0-3.5,1.5267-3.5,3.497,0,1.9706,1.52987,3.503,3.5,3.503,1.9698,0,3.509-1.5305,3.509-3.503,0-.8089-.2591-1.5425-.7007-2.1266l3.2617-3.1809c.9929.8208,2.2725,1.3105,3.68,1.3105,2.153,0,4.0075-1.146,4.9938-2.8698l2.9004,1.3424c-.094.323-.1442.6676-.1442,1.0274,0,1.9801,1.5199,3.5,3.5,3.5s3.5-1.5199,3.5-3.5-1.5199-3.5-3.5-3.5c-1.2554,0-2.3257.6109-2.9411,1.5626l-2.8966-1.3406c.2198-.6134.3392-1.2771.3392-1.972,0-1.1055-.3023-2.1312-.8296-3.0008l3.6372-2.5332c.4938.4872,1.1761.784,1.9405.784,1.5378,0,2.765-1.2035,2.765-2.75,0-1.54432-1.225-2.75751-2.765-2.75751-1.5443,0-2.75,1.21754-2.75,2.75751,0,.4104.0856.7972.2403,1.1438l-3.6601,2.5492c-1.0495-1.1925-2.5926-1.937-4.3298-1.937-1.111,0-2.1423.3045-3.0159.8359l-3.8663-5.31143C11.5147,7.30518,11.75,6.68716,11.75,6c0-1.55114-1.1989-2.75-2.75-2.75zm19.4996,5.49249c-.9876,0-1.75.76546-1.75,1.75751,0,.9899.7602,1.75,1.75,1.75.9943,0,1.765-.7645,1.765-1.75,0-.9877-.7729-1.75751-1.765-1.75751zM18,13.256c-2.6556,0-4.75,2.0899-4.75,4.744,0,2.6549,2.0951,4.75,4.75,4.75,2.655,0,4.7515-2.0953,4.7515-4.75,0-2.6539-2.0957-4.744-4.7515-4.744zm8.75,9.994c0-1.4279,1.0721-2.5,2.5-2.5s2.5,1.0721,2.5,2.5-1.0721,2.5-2.5,2.5-2.5-1.0721-2.5-2.5zm-18.5,2c-1.41802,0-2.5,1.0803-2.5,2.497,0,1.4193,1.08313,2.503,2.5,2.503,1.42017,0,2.509-1.0855,2.509-2.503,0-1.4149-1.08768-2.497-2.509-2.497z"/></svg>