<svg width="48" height="48" viewBox="0,0,48,48" xmlns="http://www.w3.org/2000/svg"><path fill-rule="evenodd" clip-rule="evenodd" d="m45.2498,5.53008-.2637,1.08742-8,33-.1281.5285-.5159-.172L25.549,36.3764l-3.6139,6.37-.4627.8156-.4194-.8387-4.9043-9.8086L3.35317,28.9776,2.2085,28.6254l1.0553-.5663,41-21.99998.986-.52904zM17.115,32.6112l3.8852,7.7705v-6.061l.1136-.1384,18.2966-22.274L17.115,32.6112zm4.8852,7.9939,2.582-4.551-2.582-.8607v5.4117zm14.1422-1.7517-13.7943-4.5981L43.4994,8.5058l-7.357,30.3476zM41.312,8.77791,16.3714,31.9369,4.79193,28.374,41.312,8.77791z"/></svg>