<svg width="24" height="24" viewBox="0,0,24,24" xmlns="http://www.w3.org/2000/svg"><path fill-rule="evenodd" clip-rule="evenodd" d="m22.5,0h-21C.675,0,0,.675,0,1.5v21c0,.825.675,1.5,1.5,1.5h21c.825,0,1.5-.675,1.5-1.5v-21c0-.825-.675-1.5-1.5-1.5z" fill="#2d327d"/><path fill-rule="evenodd" clip-rule="evenodd" d="m8.445,7.5H3V21h2.94v-4.8675h3.03c.7725,0,1.425-.075,1.9575-.225.525-.15.9975-.3975,1.41-.7425.975-.8025,1.4625-1.9125,1.4625-3.3225,0-1.59-.585-2.775-1.7625-3.5625-.42-.2925-.9-.495-1.425-.6075S9.36,7.5,8.445,7.5zm-2.4975,6.315V9.99l2.475.0075c.81,0,1.3875.12,1.7475.3675.4875.33.735.84.735,1.515,0,.6675-.21,1.1775-.6375,1.5225-.345.2775-.9075.4125-1.6875.4125H5.9475z" fill="#fff"/></svg>