<svg width="48" height="48" viewBox="0,0,48,48" xmlns="http://www.w3.org/2000/svg"><path fill-rule="evenodd" clip-rule="evenodd" d="m19.5,14.9998c-1.3807,0-2.5,1.12-2.5,2.5,0,1.3808,1.1192,2.5,2.5,2.5,1.3809,0,2.5-1.1192,2.5-2.5,0-1.38-1.1192-2.5-2.5-2.5zm-3.5,2.5c0-1.9321,1.5668-3.5,3.5-3.5,1.9333,0,3.5,1.5679,3.5,3.5,0,1.9331-1.5668,3.5-3.5,3.5-1.9331,0-3.5-1.5669-3.5-3.5zm12.5,10.5c-1.3807,0-2.5,1.12-2.5,2.5,0,1.3808,1.1192,2.5,2.5,2.5,1.3809,0,2.5-1.1192,2.5-2.5,0-1.38-1.1192-2.5-2.5-2.5zm-3.5,2.5c0-1.9321,1.5668-3.5,3.5-3.5,1.9333,0,3.5,1.5679,3.5,3.5,0,1.9331-1.5668,3.5-3.5,3.5-1.9331,0-3.5-1.5669-3.5-3.5zm-9.6464,2.8535,18-18-.7071-.7071-18,18,.7071.7071z"/></svg>