<svg width="24" height="24" viewBox="0,0,24,24" xmlns="http://www.w3.org/2000/svg"><path fill-rule="evenodd" clip-rule="evenodd" d="m6,4.49951c0-.82786.67214-1.5,1.5-1.5h7c.8279,0,1.5.67214,1.5,1.5V20.9995H6V4.49951zM5,20.9995V4.49951c0-1.38014,1.11986-2.5,2.5-2.5h7c1.3801,0,2.5,1.11986,2.5,2.5V14c.5755,0,1.0956.1426,1.4704.5201.372.3746.5164.896.5295,1.4685l.0002.0114H19v.9995c.0005.2786.0066.5533.0892.7584.0364.0905.0788.1421.1228.1734.0415.0296.1228.0687.288.0687.1691,0,.2524-.0392.2944-.0684.0435-.0303.0846-.0795.12-.1666.0813-.1999.0872-.4726.0856-.7622V8.18103l-2.3841-2.86094.7682-.64018,2.5,3L21,7.81897v9.17963l.0001.0208c.0016.2575.0044.7193-.1593,1.1221-.0894.2202-.2361.4443-.4747.6106-.2402.1673-.5332.2479-.8661.2479-.3348,0-.6284-.0835-.868-.2541-.2371-.1688-.382-.3949-.4704-.6145-.1609-.3996-.1613-.855-.1616-1.1027v-1.0228c-.0107-.4309-.117-.6581-.2392-.7812C17.6409,15.1039,17.4225,15,17,15v5.9995h1v1H4v-1h1zM7,5h8v5H7V5zm1,1v3h6V6H8z"/></svg>