<svg width="36" height="36" viewBox="0,0,36,36" xmlns="http://www.w3.org/2000/svg"><path fill-rule="evenodd" clip-rule="evenodd" d="m3.75,3.25h-.5v29.5h29.5V3.25h-29zm.5,22.5V4.25h27.5v21.5H30.3l-5.8588-10.9853-.3339-.626-.4773.525-7.17,7.887-5.6307-4.927-.4695-.4108-.2987.5477L5.70318,25.75H4.25zm0,1v5h27.5v-5H4.25zm6.25-18c-.96736,0-1.75.78264-1.75,1.75,0,.9674.78264,1.75,1.75,1.75.9674,0,1.75-.7826,1.75-1.75,0-.96736-.7826-1.75-1.75-1.75zM7.75,10.5c0-1.51964,1.23036-2.75,2.75-2.75,1.5196,0,2.75,1.23036,2.75,2.75,0,1.5196-1.2304,2.75-2.75,2.75-1.51964,0-2.75-1.2304-2.75-2.75zm21.4167,15.25-5.274-9.8887-7.0227,7.725-.33.363-.3693-.323-5.5305-4.8392L6.84227,25.75H29.1667z"/></svg>