<svg width="36" height="36" viewBox="0,0,36,36" xmlns="http://www.w3.org/2000/svg"><path fill-rule="evenodd" clip-rule="evenodd" d="m10.75,10.7645H6.24957v5.7198c-.06364,1.0975.56055,2.0783,1.50045,2.5196v10.7163l.49927.0007,19.50001.0285.5007.0007V19.2038c.7754-.4122,1.3419-1.1863,1.4511-2.1248.0244-.2019.0255-.4052.0035-.608v-5.7065H25.25V6h-1v4.7645h-3.5V6h-1v4.7645h-3.5V6h-1v4.7645h-3.5V6h-1v4.7645zm16.5,8.746c-.1996.0212-.4047.0208-.6124-.0033-1.5076-.1745-2.5911-1.5291-2.433-3.0351v-.3424c-.1252-.9539-.9935-1.6341-1.9519-1.523l-.0007.0001c-1.0001.1146-1.6588.8977-1.5509,1.834.0256.2128.0257.4263,0,.6382-.1764,1.5166-1.5473,2.604-3.0636,2.4282-1.5046-.1744-2.5893-1.5267-2.4333-3.0316-.0203-.9384-.7944-1.7178-1.7009-1.7111l-.0204.0002-.0203-.0015c-.0562-.0042-.1201-.0046-.1906-.002-.9307.0414-1.6534.8305-1.6129,1.7616l.0013.0296-.0022.0295c-.1022,1.364-1.2559,2.7051-2.73528,2.6678-.05283.001-.11154.0013-.1729-.0012v3.4865H27.25v-3.2245zm0,4.2245H8.75002v2H27.25v-2zm0,3H8.75002v1.9866l18.49998.0271V26.735zM8.69201,19.2455c-.00032-.0001-.00063-.0001-.00095-.0001l.03401-.4989-.03211.499h-.00095zm-1.44244-7.481v4.7511l-.00103.0161c-.05726.8898.61865,1.6586,1.50864,1.7159l.0019.0001c.04424.003.09467.0033.15413.002l.01342-.0003.01342.0004c.83132.0257,1.63455-.774,1.71875-1.7164-.0462-1.4689,1.0991-2.7074,2.5716-2.7714l.0035-.0001c.0877-.0032.1839-.0037.282.0026,1.4934.0002,2.6796,1.2709,2.6887,2.7319l.0001.0305-.0034.0302c-.1122.9687.5831,1.8445,1.5514,1.9568.9671.1121,1.8429-.5817,1.9552-1.5514l.0003-.0029c.0161-.1322.0162-.2658,0-.4001l-.0003-.0024c-.1794-1.5471.9437-2.7734,2.4301-2.9438,1.5164-.1755,2.8875.9123,3.0632,2.4282l.0034.0287v.4582l-.0033.0287c-.1123.9689.5819,1.8445,1.5513,1.9568h.0001c.9671.1121,1.8429-.5817,1.9552-1.5514l.0003-.0029c.0161-.1322.0162-.2658,0-.4001l-.0036-.0299v-4.7651H7.24957z"/></svg>