<svg width="24" height="24" viewBox="0,0,24,24" xmlns="http://www.w3.org/2000/svg"><path fill-rule="evenodd" clip-rule="evenodd" d="m22.5,0h-21C.675,0,0,.675,0,1.5v21c0,.825.675,1.5,1.5,1.5h21c.825,0,1.5-.675,1.5-1.5v-21c0-.825-.675-1.5-1.5-1.5z" fill="#2d327d"/><path fill-rule="evenodd" clip-rule="evenodd" d="m7.42508,11.7826c.03-1.11.3075-2.04004.825-2.79004.84-1.2075,2.09252-1.8075,3.77252-1.8075,1.29,0,2.3325.33,3.1275.99.855.71251,1.2825,1.635,1.2825,2.76754,0,.675-.165,1.26-.5025,1.7475s-.7875.8175-1.3575.99c.7275.165,1.2975.5325,1.7175,1.11.42.57.63,1.2675.63,2.0775,0,1.335-.495,2.43-1.4775,3.2775-.9075.7875-2.0625,1.185-3.45,1.185-1.5075,0-2.70002-.435-3.58502-1.305s-1.3275-2.04-1.3275-3.5175c0-.03,0-.09,0-.1725h2.595c0,.8325.195,1.47.59252,1.9275.39.45.9525.675,1.6725.675s1.275-.21,1.6575-.6375c.36-.3975.5325-.8775.5325-1.4325,0-.6675-.225-1.1925-.6825-1.575-.375-.3225-.9525-.48-1.7325-.48-.225,0-.4425.015-.6525.0375v-1.9875c.1575.015.315.015.465.015,1.5525,0,2.325-.5775,2.325-1.725,0-.5025-.1725-.915-.51-1.22254-.3375-.3075-.7875-.465-1.335-.465-.63,0-1.125.195-1.47.59254-.345.3975-.5325.9675-.55502,1.725h-2.5575z" fill="#fff"/><path fill-rule="evenodd" clip-rule="evenodd" d="m5.03255,3-.75,2.25h-.555L2.99255,3h.51l.5025,1.68751L4.51505,3h.5175z" fill="#fff"/><path fill-rule="evenodd" clip-rule="evenodd" d="m6.47251,3.7649c-.1575-.1575-.3525-.24-.6-.24-.27,0-.4875.09-.645.2625-.1425.165-.2175.3675-.2175.6225s.075.465.225.63c.15.17251.36.255.6225.255.2475,0,.45-.08249.6-.23249.165-.16501.2475-.38251.2475-.66001,0-.2625-.0825-.48-.2325-.6375zm-.9075.24751c.075-.09751.165-.14251.285-.14251.1275,0,.2325.0525.2925.15.0675.09.105.225.105.39,0,.18-.0375.315-.1125.4125-.0675.0825-.165.1275-.2775.1275-.12,0-.2175-.0525-.2925-.1425-.0675-.09-.105-.225-.105-.3975,0-.17249.0375-.3.105-.39749z" fill="#fff"/><path fill-rule="evenodd" clip-rule="evenodd" d="m7.4475,3.405V3H7.005v.405h.4425zm0,1.845V3.57H7.005v1.68h.4425z" fill="#fff"/><path fill-rule="evenodd" clip-rule="evenodd" d="m9.1951,4.98759c.06-.08251.105-.16501.1275-.26251h-.435c-.03.075-.075.135-.1275.1725s-.12.0525-.2025.0525c-.1725,0-.285-.0675-.345-.2175-.0225-.0525-.03-.12-.0375-.2025h1.1775c0-.2025-.015-.3675-.0675-.495s-.12-.24-.225-.33c-.1425-.1275-.315-.1875-.5175-.1875-.2475,0-.45.09-.6075.2775-.1425.165-.21.36751-.21.615,0,.12.015.2475.06.36.045.105.0975.2025.1725.2775.15.1575.3525.24001.6.24001.2775,0,.4875-.09751.6375-.3zm-.30073-.76501c.00026.00248.0005.00498.00073.0075v-.0075h-.00073zm0,0c-.00814-.0791-.02996-.1441-.05177-.195-.03-.0525-.0675-.0975-.12-.1275s-.1125-.045-.1725-.045c-.0975,0-.18.03-.2475.0975s-.105.1575-.1125.27h.70427z" fill="#fff"/></svg>