<svg width="24" height="24" viewBox="0,0,24,24" xmlns="http://www.w3.org/2000/svg"><path fill-rule="evenodd" clip-rule="evenodd" d="m22.5,0h-21C.675,0,0,.675,0,1.5v21c0,.825.675,1.5,1.5,1.5h21c.825,0,1.5-.675,1.5-1.5v-21c0-.825-.675-1.5-1.5-1.5z" fill="#2d327d"/><path fill-rule="evenodd" clip-rule="evenodd" d="m11.37,18.435v-1.8975L9.95995,16.53V9.75748h-2.0775l-4.8075,6.57002v2.1075h4.6875V21h2.19v-2.565H11.37zm-3.55505-6.06v4.185h-2.895l2.895-4.185z" fill="#fff"/><path fill-rule="evenodd" clip-rule="evenodd" d="m20.82,19.005V21h-8.1c0-.6075.0975-1.1925.2925-1.7475s.4725-1.0275.8325-1.4325c.2775-.3075.6-.6075.975-.9s1.11-.825,2.22-1.605c.54-.375.915-.72,1.1325-1.0425s.3225-.6975.3225-1.125c0-.495-.1425-.8925-.435-1.1925-.2925-.3075-.6675-.4575-1.14-.4575-1.155,0-1.755.8325-1.7925,2.4975h-2.16v-.2475c0-1.365.3825-2.4225,1.1475-3.165.7425-.72751,1.7025-1.09501,2.8875-1.09501,1.0425,0,1.92.3,2.625.89251.765.645,1.1475,1.515,1.1475,2.61,0,.9525-.3075,1.7775-.915,2.46-.2025.225-.39.405-.5625.54s-.63.465-1.38.9825c-.705.495-1.215.87-1.5225,1.1325s-.585.5625-.8475.9H20.82z" fill="#fff"/><path fill-rule="evenodd" clip-rule="evenodd" d="m3,3h1.0125c.2175,0,.3825.03.4875.0825.0975.0525.18.1275.225.225.045.0825.0675.1725.0675.2625,0,.105-.0225.195-.075.2775s-.1275.1425-.225.1875c.0825.03.15.06.195.09.1425.105.2175.2625.2175.465,0,.12-.03.2325-.0825.3225s-.1275.1725-.2325.2325c-.12.0675-.2775.105-.48.105H3V3zm.495.3825v.525h.45c.105,0,.18-.015.2325-.0375.09-.045.135-.12.135-.225,0-.09-.03-.15749-.0825-.195-.0525-.03749-.15-.06-.285-.06-.0075-.0075-.45-.0075-.45-.0075zm0,1.4775v-.615h.465c.135,0,.225.015.285.0375.105.045.1575.135.1575.27,0,.1125-.0375.195-.1125.2475-.06.0375-.1575.06-.3.06h-.495z" fill="#fff"/><path fill-rule="evenodd" clip-rule="evenodd" d="m5.64001,3.405V3h-.4425v.405h.4425zm0,1.845V3.57h-.4425v1.68h.4425z" fill="#fff"/><path fill-rule="evenodd" clip-rule="evenodd" d="m6.42005,3.56999v.2325c.0525-.075.0975-.1275.1425-.1575.1125-.08249.2475-.1275.3975-.1275.135,0,.255.0375.3525.105.075.0525.1275.1275.1575.21s.045.2025.045.36v1.0575h-.4425v-.96c0-.105-.0075-.1875-.03-.24-.015-.045-.045-.0825-.09-.105-.045-.03-.105-.045-.165-.045-.0675,0-.1275.015-.1875.0525s-.0975.075-.12.13501c-.03.05999-.045.16499-.045.3v.86249h-.4425v-1.68h.4275z" fill="#fff"/><path fill-rule="evenodd" clip-rule="evenodd" d="m8.92503,5.25001h.4575c-.03-.0675-.045-.1125-.0525-.1725s-.0075-.15-.0075-.27v-.345c.0075-.2025.0075-.315.0075-.3375,0-.1275-.015-.2175-.03-.27s-.0525-.105-.1125-.1575c-.1275-.105-.315-.1575-.5775-.1575-.2325,0-.4125.045-.54.1425-.1275.09-.195.2325-.21.42h.42c.015-.0975.0525-.1575.0975-.195s.12-.0525.225-.0525c.195,0,.2925.0675.2925.2175,0,.0675-.0225.1125-.0675.135s-.15.045-.33.0675c-.21.03-.3525.06-.4275.09-.1875.0825-.285.225-.285.435,0,.165.0525.2925.165.3825.0975.0825.2325.12.405.12.2175,0,.3975-.075.54-.2175,0,.045.0075.0975.03.165zm-.3525-.7275c.15-.015.255-.045.315-.0825v.18c0,.0525,0,.105-.015.135-.00243.00487-.00487.00993-.00736.01513-.0129.02684-.02751.05724-.05264.08237-.075.09-.18.13501-.315.13501-.0825,0-.1425-.02251-.1875-.06001s-.0675-.0975-.0675-.16499c0-.08251.03-.14251.0975-.18001.0525-.0225.1275-.045.2325-.06z" fill="#fff"/><path fill-rule="evenodd" clip-rule="evenodd" d="m10.7175,3.54v.435c-.075-.015-.1275-.0225-.1725-.0225-.165,0-.285.0675-.3675.21001-.045.075-.0675.20999-.0675.38999V5.25h-.44252V3.57h.42752v.3075c.12-.225.3-.345.525-.345.0225,0,.06.0075.0975.0075z" fill="#fff"/><path fill-rule="evenodd" clip-rule="evenodd" d="m11.37,3.405V3h-.4425v.405h.4425zm0,1.845V3.57h-.4425v1.68h.4425z" fill="#fff"/><path fill-rule="evenodd" clip-rule="evenodd" d="m13.1325,3.76499c-.1575-.1575-.3525-.24-.6-.24-.27,0-.4875.09-.645.2625-.1425.165-.2175.3675-.2175.6225s.075.465.225.63c.15.17251.36.255.6225.255.2475,0,.45-.08249.6-.23249.165-.16501.2475-.38251.2475-.66001,0-.2625-.0825-.48-.2325-.6375zm-.9075.24751c.075-.09751.165-.14251.285-.14251.1275,0,.2325.0525.2925.15.0675.09.105.225.105.39,0,.18-.0375.315-.1125.4125-.0675.0825-.165.1275-.2775.1275-.12,0-.2175-.0525-.2925-.1425-.0675-.09-.105-.225-.105-.3975,0-.17249.0375-.3.105-.39749z" fill="#fff"/></svg>