<svg width="24" height="24" viewBox="0,0,24,24" xmlns="http://www.w3.org/2000/svg"><path fill-rule="evenodd" clip-rule="evenodd" d="m22.5,0h-21C.675,0,0,.675,0,1.5v21c0,.825.675,1.5,1.5,1.5h21c.825,0,1.5-.675,1.5-1.5v-21c0-.825-.675-1.5-1.5-1.5z" fill="#2d327d"/><path fill-rule="evenodd" clip-rule="evenodd" d="m10.71,9.7575V11.76H6.18l-.4875,2.5275c.54-.5775,1.2375-.8625,2.085-.8625.8325,0,1.5525.225,2.1675.6675.915.675,1.3725,1.695,1.3725,3.06,0,1.3425-.4875,2.4075-1.4625,3.195-.75751.615-1.665.9225-2.72251.9225-1.1925,0-2.145-.3225-2.86499-.96-.72-.6375-1.1025-1.5-1.1475-2.5875h2.205c.0375.3975.165.7275.3825,1.005.345.435.8175.6525,1.4325.6525.59249,0,1.0575-.21,1.4025-.6375.33-.4125.50249-.9225.50249-1.515,0-.645-.17249-1.1625-.52499-1.5525-.34501-.39-.81001-.5775-1.39501-.5775-.705,0-1.26.315-1.65.9525l-2.01-.03,1.0725-6.27,6.17251.0075z" fill="#fff"/><path fill-rule="evenodd" clip-rule="evenodd" d="m20.5425,9.75751v1.90499c-.06.0675-.24.2775-.5475.6225-.42.48-.84,1.0875-1.2525,1.8225-.4125.7275-.735,1.4325-.9675,2.1-.4875,1.4025-.78,3-.885,4.7925h-2.325c.015-.8475.165-1.785.4425-2.8125s.6675-2.0625,1.155-3.09c.705-1.455,1.4175-2.5425,2.1375-3.255h-5.31V9.75751h7.5525z" fill="#fff"/><path fill-rule="evenodd" clip-rule="evenodd" d="m5.09255,4.035V5.25h-.315l-.0525-.255c-.165.21-.39.3075-.675.3075-.345,0-.615-.1275-.81-.3825-.165-.21-.2475-.4725-.2475-.7875,0-.3525.105-.64499.3225-.86999.2025-.21001.465-.32251.78-.32251.2925,0,.5325.09751.72.285.135.1425.2175.315.24.51h-.4725c-.0225-.12-.0825-.2175-.165-.285s-.195-.105-.3225-.105c-.2025,0-.3525.075-.465.2325-.0975.13501-.1425.315-.1425.5475,0,.225.045.3975.135.5325.1125.1575.27.24.4875.24.1575,0,.285-.045.3825-.1425s.15-.2175.1575-.3675h-.5025v-.36l.945.0075z" fill="#fff"/><path fill-rule="evenodd" clip-rule="evenodd" d="m5.90252,3v2.25h-.4425V3h.4425z" fill="#fff"/><path fill-rule="evenodd" clip-rule="evenodd" d="m7.65005,4.98753c.06-.08251.105-.16501.1275-.26251h-.4275c-.03.075-.075.135-.1275.1725s-.12.0525-.2025.0525c-.1725,0-.285-.0675-.345-.2175-.0225-.0525-.03-.12-.0375-.2025h1.17c0-.2025-.015-.3675-.0675-.495s-.12-.24-.225-.33c-.1425-.1275-.315-.1875-.5175-.1875-.2475,0-.45.09-.6075.2775-.1425.165-.21.36751-.21.615,0,.12.015.2475.06.36.045.105.0975.2025.1725.2775.15.1575.3525.24001.6.24001.2775,0,.4875-.09751.6375-.3zm-.30822-.76501c.00025.00248.0005.00498.00072.0075v-.0075h-.00072zm0,0c-.00815-.0791-.02996-.1441-.05178-.195-.03-.0525-.0675-.0975-.12-.1275s-.1125-.045-.1725-.045c-.0975,0-.18.03-.2475.0975s-.105.1575-.1125.27h.70428z" fill="#fff"/><path fill-rule="evenodd" clip-rule="evenodd" d="m8.52758,3.405V3h-.4425v.405h.4425zm0,1.845V3.57h-.4425v1.68h.4425z" fill="#fff"/><path fill-rule="evenodd" clip-rule="evenodd" d="m10.2451,4.05749h-.41999c-.0075-.06-.0225-.0975-.045-.1275-.045-.06-.135-.09-.255-.09-.0825,0-.1425.015-.18.045-.0375.03001-.0675.0675-.0675.12s.0225.0975.075.12.1575.0525.33.09c.2175.045.37499.09751.46499.165.1125.075.1725.195.1725.3525,0,.18-.0675.315-.21.42-.13499.0975-.32249.1425-.54749.1425-.2775,0-.4875-.0675-.615-.21-.09-.0975-.135-.225-.15-.3825h.4275c.0075.075.03.135.06.1725.06.0675.15.105.285.105.09,0,.165-.015.2175-.0525s.0825-.08999.0825-.15c0-.06-.0225-.0975-.0675-.1275s-.1425-.06-.2925-.0975c-.1425-.0375-.2475-.06-.3075-.0825s-.1125-.045-.165-.0675c-.06-.0375-.1125-.0825-.1425-.15s-.0525-.135-.0525-.2175c0-.1725.075-.3075.2175-.3975.12-.075.285-.1125.495-.1125.2775,0,.47999.0675.59999.21.045.075.0825.1875.09.3225z" fill="#fff"/></svg>