<svg width="36" height="36" viewBox="0,0,36,36" xmlns="http://www.w3.org/2000/svg"><path fill-rule="evenodd" clip-rule="evenodd" d="m10.4178,6.2568C13.8736,5.68084,16.6932,7.63424,18,8.99521c1.3068-1.36097,4.1264-3.31437,7.5822-2.73841C30.3726,7.0552,32.75,11.0592,32.75,15c0,2.7295-1.3783,5.2637-2.0499,6.4985l-.0869.1602c.4106.422,1.009,1.0815,1.4178,1.8174.2547.4586.4581.9849.4728,1.53.0153.5656-.1745,1.1217-.6503,1.5975-.985.9848-2.2031.6869-3.0147.2811-.4168-.2084-.7751-.4652-1.0262-.6662-.0293-.0234-.0572-.0461-.0837-.0681-.1267.0952-.287.2124-.478.3456-.5173.361-1.2618.8412-2.1743,1.3215C23.2585,28.7744,20.7381,29.75,18,29.75s-5.2585-.9756-7.0766-1.9325c-.9125-.4803-1.65695-.9605-2.17433-1.3215-.19094-.1332-.35124-.2504-.47795-.3456-.02653.022-.05446.0447-.08372.0681-.25113.201-.60942.4578-1.02618.6662-.81159.4058-2.02977.7037-3.01474-.2811-.47586-.4758-.66559-1.032-.65032-1.5976.01472-.5451.2181-1.0715.47292-1.5301.4088-.7358,1.00719-1.3953,1.41775-1.8172l-.08697-.1602C4.62827,20.2637,3.25,17.7295,3.25,15c0-3.9408,2.3774-7.9448,7.1678-8.7432zm17.6885,18.8923-.0027-.0026-.3229-.3229-.3506.2921v.0001l-.0001.0001h-.0001l-.0015.0013-.008.0065-.0351.0284c-.0317.0254-.0799.0636-.1438.1127-.1277.0983-.3177.2401-.5627.4111-.4905.3421-1.1992.7994-2.0679,1.2566C22.8665,27.8506,20.5119,28.75,18,28.75s-4.8665-.8994-6.6109-1.8175c-.8687-.4572-1.57742-.9145-2.06785-1.2566-.24503-.171-.43506-.3128-.56278-.4111-.06385-.0491-.11208-.0873-.14379-.1127l-.03505-.0284-.008-.0065-.00154-.0013h-.00004l-.00012-.0001-.00006-.0001-.35057-.2921-.32236.3224-.00016.0001-.00012.0001-.00003.0001-.0002.0002-.00268.0026-.01501.0145c-.014.0134-.03581.0339-.06469.0602-.05787.0526-.14359.1277-.25138.2139-.21757.1741-.51548.386-.84868.5526-.68834.3442-1.34517.4213-1.86047-.0939-.27428-.2742-.36587-.5617-.35772-.8634.00869-.322.13345-.6863.34742-1.0714.42988-.7737,1.12992-1.4776,1.51033-1.858l.25483-.2549-.16117-.3223c-.076-.152-.17487-.3352-.28856-.5459l-.00002-.0001C5.47342,19.7107,4.25,17.4435,4.25,15c0-3.5592,2.1226-7.0552,6.3322-7.7568,3.3457-.55762,6.0827,1.63835,7.0274,2.8191l.3904.4881.3904-.4881c.9447-1.18075,3.6817-3.37672,7.0274-2.8191C29.6274,7.9448,31.75,11.4408,31.75,15c0,2.4435-1.2234,4.7107-1.9086,5.9804-.1137.2107-.2126.394-.2886.546l-.1612.3223.2548.2549c.3805.3805,1.0806,1.0844,1.5104,1.8581.2139.3851.3387.7494.3474,1.0714.0081.3016-.0835.5891-.3577.8633-.5153.5152-1.1721.4381-1.8605.0939-.3332-.1666-.6311-.3785-.8487-.5526-.1078-.0862-.1935-.1613-.2513-.2139-.0289-.0263-.0507-.0468-.0647-.0602l-.015-.0145zM10.0273,12.416c1.0105-.6737,1.8535-.7016,2.4764-.5023.4884.1563.8693.4608,1.1096.7658l-4.46908,4.4691c-.21906-.5622-.39424-1.3015-.39422-2.0548.00002-1.0529.33725-2.051,1.2773-2.6778zm4.6698.1104c-.3078-.6157-.9741-1.2725-1.8886-1.5651-.9397-.3007-2.0967-.2036-3.33594.6227-1.30976.8732-1.72253,2.2501-1.72256,3.5097-.00003,1.2482.40024,2.462.82118,3.1635l.32947.5492.45283-.4528,5.25002-5.25.2548-.2549-.1612-.3223zm11.8303-.9424c-1.2393-.8263-2.3963-.9234-3.336-.6227-.9145.2926-1.5808.9494-1.8886,1.5651l-.1612.3223.2548.2549,5.25,5.25.4529.4528.3294-.5492c.421-.7015.8212-1.9153.8212-3.1635,0-1.2596-.4128-2.6365-1.7225-3.5097zm.3283,5.5646-4.4691-4.4691c.2403-.305.6212-.6095,1.1096-.7658.6229-.1993,1.4659-.1714,2.4764.5023.9401.6268,1.2773,1.6249,1.2773,2.6778,0,.7533-.1751,1.4926-.3942,2.0548zM18.3292,16.1237l-.3293-.2881-.3292.2881-6,5.25-.2907.2544.1727.3455c.5809,1.1618,2.6495,3.2764,6.4472,3.2764s5.8663-2.1146,6.4472-3.2764l.1728-.3455-.2907-.2544-6-5.25zm-.3293,8.1263c-3.0125,0-4.715-1.4781-5.3565-2.3987l5.3565-4.6869,5.3565,4.6869c-.6415.9206-2.344,2.3987-5.3565,2.3987z"/></svg>