<svg width="24" height="24" viewBox="0,0,24,24" xmlns="http://www.w3.org/2000/svg"><path fill-rule="evenodd" clip-rule="evenodd" d="m3.5,5H3v10h3v2.9571l.85355-.8535L8.95711,15H9v3h6.0429l2.1035,2.1036.8536.8535V18h3V8h-5V5H3.5zM16,9v2h3v1h-3v1h2v1h-2v1h-6v2h5.4571l.1465.1464L17,18.5429V17h3V9h-4zM4,14V6h11v8H8.54289l-.14644.1464L7,15.5429V14H4zm4.828-1.372h.844v-.812h-.844v.812zM7.78207,7.55003c-.172.266-.267.641-.285,1.125h.671c.055-.854.43-1.281,1.125-1.281.336,0,.59.108.76203.324.143.178.215.396.215.657,0,.14-.025.278-.074.414-.06.158-.186.337-.37903.535-.299.307-.493.517-.58.629-.088.11097-.154.23797-.201.37897-.065.192-.1.488-.106.886h.664c0-.224.013-.406.039-.547.024-.14.065-.258.123-.353.059-.095.162-.214.31103-.35797.336-.328.548-.553.637-.675.197-.268.296-.589.296-.961,0-.451-.146-.814-.437-1.09-.313-.299-.73303-.449-1.26203-.449-.328,0-.623.066-.886.199-.264.133-.475.322-.633.566z"/></svg>