<svg width="36" height="36" viewBox="0,0,36,36" xmlns="http://www.w3.org/2000/svg"><path fill-rule="evenodd" clip-rule="evenodd" d="m7.75,10.25v3.5H6v1h1.75v3.5H6v1h1.75v3.4993H6v1h1.75v3.5H6v1h1.75V31.5h1v-2.9119L22.9179,7.02456l-.8357-.54912L20.2592,9.25h-.7599v1h.1029l-2.2996,3.5H16.25v-3.5H18v-1h-1.75V6h-1v3.25H10.5v1h4.75v3.5H10.5v1h4.75v2.124l-.8988,1.3679H10.5v1h3.1942l-2.2996,3.5h-.8947v1h.2377L8.75,26.767V6h-1v3.25H6v1h1.75zm8.5,5.102v-.602h.3955l-.3955.602zm0,13.9718v2.1755h-1v-3.25H12v-1h4.4855l2.4592-3.5H15v-1h4.6474l2.4587-3.4993H18v-1h4.8087l2.4592-3.5H21v-1h4.9706l2.4592-3.5H24v-1h5.1324l1.9586-2.78745.8182.5749L30.3546,9.25H31.5v1h-1.848l-2.4593,3.5H28.5v1h-2.0099l-2.4592,3.5H25.5v1h-2.1718l-2.4587,3.4993H22.5v1h-2.3331l-2.4592,3.5H19.5v1h-2.495l-.755,1.0745z"/></svg>