<svg width="24" height="24" viewBox="0,0,24,24" xmlns="http://www.w3.org/2000/svg"><path fill-rule="evenodd" clip-rule="evenodd" d="m12.4436,2.11278-.2237-.1118-.2236.1118-9.99996,5,.44721.89443,9.77635-4.8882,9.7764,4.8882.4473-.89443-10-5zM2.21994,21.56v-11h1v6h6v-4H19.7199c.6631,0,1.299.2634,1.7678.7322.4689.4689.7322,1.1048.7322,1.7678v6.5h-1v-4H3.21994v4h-1zm18.99996-5h-11v-3h9.5c.3979,0,.7794.158,1.0607.4393s.4393.6629.4393,1.0607v1.5zm-15.99996-3c0-.5523.44772-1,1-1,.55229,0,1,.4477,1,1s-.44771,1-1,1c-.55228,0-1-.4477-1-1zm1-2c-1.10457,0-2,.8954-2,2s.89543,2,2,2,2-.8954,2-2-.89543-2-2-2z"/></svg>