<svg width="24" height="24" viewBox="0,0,24,24" xmlns="http://www.w3.org/2000/svg"><path fill-rule="evenodd" clip-rule="evenodd" d="m9.5,7.00024c-3.03686,0-5.5,2.46315-5.5,5.49996,0,3.0378,2.46309,5.5,5.5,5.5,3.0379,0,5.5-2.4621,5.5-5.5,0-3.03687-2.4622-5.49996-5.5-5.49996zM3,12.5002c0-3.5891,2.91086-6.49996,6.5-6.49996,3.4219,0,6.2257,2.64442,6.481,5.99996H21v1h-5.0189c-.2553,3.3565-3.0592,6-6.4811,6-3.58909,0-6.5-2.9098-6.5-6.5zm6.5-2.4995c-1.38086,0-2.5,1.1192-2.5,2.5,0,1.38,1.11925,2.5,2.5,2.5,1.3807,0,2.5-1.12,2.5-2.5,0-1.3808-1.1191-2.5-2.5-2.5zm-3.5,2.5c0-1.9331,1.56686-3.49997,3.5-3.49997,1.9331,0,3.5,1.56687,3.5,3.49997,0,1.9321-1.5667,3.5-3.5,3.5-1.93325,0-3.5-1.5679-3.5-3.5z"/></svg>