<svg width="14" height="16" viewBox="0,0,14,16" xmlns="http://www.w3.org/2000/svg"><path fill-rule="evenodd" clip-rule="evenodd" d="m12.6667,1H1v14h11.6667V1zm-1.2963,12.7273H2.2963V2.27273h9.0741V13.7273zm-6.35838-3.346-.7713.7394.01556,1.3339h5.16963v-1.4853H6.50017l.10111-.1349c.48352-.5167.95407-1.10984,1.41426-1.78184.45889-.67073.76741-1.20018.93203-1.58327.16593-.38309.27223-.69236.3176-.93036.04666-.238.0687-.47855.0687-.72164,0-.72673-.22685-1.28673-.67926-1.68127-.455-.39328-1.09537-.59055-1.92889-.59055-.48481,0-.86074.03436-1.12778.10564-.26574.07-.46925.13109-.60018.182-.13352.05091-.28907.12218-.46278.21127l-.12963.08782.18926,1.64436.09333-.09418c.54445-.50655,1.15241-.75727,1.8213-.75727.79333,0,1.18741.38691,1.18741,1.16072,0,.51164-.19185,1.07291-.57685,1.68-.3863.60837-1.09019,1.48019-2.10778,2.61547z"/></svg>