<svg width="16" height="16" viewBox="0,0,16,16" xmlns="http://www.w3.org/2000/svg"><path fill-rule="evenodd" clip-rule="evenodd" d="m5.98082,5.55283c.31599,0,.44598-.21799.28799-.48498L3.85788.999969C2.22393,1.92094,1.09997,3.60589.999969,5.55283H5.98082zM2.83891,10.9081C1.83594,9.7471,1.17496,8.29715.999969,6.7062H12.4666c-.175,1.59095-.837,3.0409-1.8399,4.2019H2.83891zm-.38388,2.127C2.45503,14.1191,3.36,15,4.47196,15c1.11297,0,2.01794-.8809,2.01794-1.9649,0-1.083-.90497-1.9649-2.01794-1.9649-1.11196,0-2.01693.8819-2.01693,1.9649zm.58298,0c0-.771.64298-1.397,1.43395-1.397.79198,0,1.43596.626,1.43596,1.397s-.64398,1.397-1.43596,1.397c-.79097,0-1.43395-.626-1.43395-1.397zm3.78108,0c0,1.084.90597,1.9649,2.01794,1.9649s2.01797-.8809,2.01797-1.9649c0-1.083-.906-1.9649-2.01797-1.9649s-2.01794.8819-2.01794,1.9649zm.58298,0c0-.771.64398-1.397,1.43496-1.397s1.43497.626,1.43497,1.397-.64399,1.397-1.43497,1.397-1.43496-.626-1.43496-1.397zm3.78183-7.78396h3.4519c.127,0,.2299.101.2299.22499,0,.122-.1029.224-.2299.224h-3.4519v-.44899z"/></svg>