<svg width="27" height="16" viewBox="0,0,27,16" xmlns="http://www.w3.org/2000/svg"><path fill-rule="evenodd" clip-rule="evenodd" d="m6.52202,6.6558h-1.101l.74-3.44903h.981c1.06,0,2.341.06016,2.341,1.40368,0,1.64531-1.541,2.04535-2.961,2.04535zm-1.42103,6.1381h-.96l.841-4.05163h.899c1.501,0,2.861.22057,2.861,1.68543,0,2.1657-1.921,2.3662-3.641,2.3662zM8.062,1H3.921L1,14.9997h3.982c2.08,0,6.56-.3209,6.56-4.3324,0-1.50392-.68-2.70707-2.24-2.9477v-.0401c1.62-.26069,2.98-1.62526,2.98-3.32973C12.282,1.8021,10.242,1,8.062,1zm10.6993,5.97697h-1.02l.78-3.77087h1.16c1.14,0,2.401,0,2.401,1.46483,0,1.84484-1.82,2.30604-3.321,2.30604zm.68-5.97664h-3.301L13.2203,15h2.8l1.221-5.81624h1.06c1.2902,0,1.4276.7512,1.6354,1.88634.037.2023.0762.4167.1246.6413l.68,3.2886h2.94l-1.339-5.63576c-.18-.763-.661-1.24326-1.42-1.28337v-.0401c2.28-.04011,4.08-1.32447,4.08-3.73077,0-3.310675-2.9118-3.310147-5.4705-3.30968-.0302,0-.0603.00001-.0905.00001z"/></svg>