<svg width="16" height="16" viewBox="0,0,16,16" xmlns="http://www.w3.org/2000/svg"><path fill-rule="evenodd" clip-rule="evenodd" d="m15,1H1v14h14V1zm-1.2727,12.7273H2.27273v-.008l1.23135-.3161,4.15635-4.14868.33459-.80913.33459.80913L12.486,13.4032l1.234.3168-.3346-1.234L9.24561,8.33725l-.8104-.33333.8104-.33459,4.13979-4.14744.3339-1.24916h.008V13.7273zM13.71,2.27273l-1.224.33188L8.32961,6.75333l-.33459.81041-.33459-.81041L3.50408,2.60461,2.28001,2.27273H13.71zm-11.43727.00742V13.71l.33188-1.224,4.13854-4.14875.80914-.3346-.80787-.33332L2.60461,3.52189,2.27273,2.28015z"/></svg>