<svg width="28" height="16" viewBox="0,0,28,16" xmlns="http://www.w3.org/2000/svg"><path fill-rule="evenodd" clip-rule="evenodd" d="m6.861,12.8665c-2.021,0-2.941-1.5703-2.941-3.33544,0-2.7335,1.681-6.39853,4.941-6.39853,2.02,0,2.981,1.51215,2.981,3.31607,0,2.6957-1.78,6.4179-4.981,6.4179zm5.561-.1357c1.501-1.6285,2.341-3.78134,2.341-5.99141C14.763,3.13252,12.722,1,8.941,1,6.661,1,4.72,1.83362,3.2,3.52025,1.78,5.13031,1,7.22405,1,9.37693,1,12.5951,3.06,15,6.501,15c2.34,0,4.461-.6979,5.921-2.2692zm8.6996-6.03004h-1.101l.74-3.33546h.981c1.06,0,2.341.05816,2.341,1.35706,0,1.59067-1.541,1.9784-2.961,1.9784zm-1.421,5.93324h-.96l.841-3.9161h.899c1.501,0,2.861.21228,2.861,1.6285,0,2.0937-1.921,2.2876-3.641,2.2876zm2.961-11.40125h-4.141l-2.921,13.53375h3.982c2.08,0,6.56-.3102,6.56-4.1875,0-1.45496-.68-2.61815-2.24-2.85079v-.03877c1.62-.25203,2.98-1.57031,2.98-3.21817,0-2.46306-2.04-3.23852-4.22-3.23852z"/></svg>