<svg width="16" height="16" viewBox="0,0,16,16" xmlns="http://www.w3.org/2000/svg"><path fill-rule="evenodd" clip-rule="evenodd" d="m1,1h13.9046v14H1V1zm1.26405,12.7273H13.6405V2.27273H2.26405V13.7273zM5.42544,3.54545h2.76069c.84439,0,1.49411.19982,1.95297.59819.4576.40091.6851.96854.6851,1.70545,0,1.18746-.5751,1.89891-1.72416,2.13564.26419.06236.46264.168.5941.322.13273.154.25913.40472.38046.75345l1.1743,3.39432H9.53614l-.88863-2.90432c-.19087-.62363-.59537-.93545-1.21602-.93545h-.38933v3.83977H5.42544V3.54545zm1.7229,3.77873h.56503c.45759,0,.81026-.11963,1.06054-.36145.24776-.24055.3729-.57655.3729-1.00546,0-.462-.10871-.78527-.32486-.97618-.21489-.18964-.57767-.28509-1.08961-.28509h-.69018v2.62691h.10618v.00127z"/></svg>