<svg width="29" height="16" viewBox="0,0,29,16" xmlns="http://www.w3.org/2000/svg"><path fill-rule="evenodd" clip-rule="evenodd" d="m17.1001,9.53144c0,1.76406.92,3.33526,2.94,3.33526,3.202,0,4.982-3.72199,4.982-6.41847,0-1.80283-.96-3.31584-2.981-3.31584-3.26,0-4.941,3.66574-4.941,6.39905zm8.5959,3.09586c1.4412-1.6163,2.2471-3.724,2.2471-5.88831C27.9431,3.13237,25.9021,1,22.1211,1c-2.28,0-4.22.83453-5.741,2.52105-1.421,1.60897-2.201,3.70354-2.201,5.8553,0,3.21895,2.061,5.62365,5.502,5.62365,1.5525,0,3.0086-.3076,4.2392-.9732l.6331.7391h3.37l-2.2274-2.1386zM5.521,7.0108h1.02c1.501,0,3.321-.44586,3.321-2.2293,0-1.41609-1.261-1.41609-2.401-1.41609h-1.16l-.78,3.64539zM3.92,1.23305h3.301l.09051-.00001c2.55868-.00045,5.47049-.00096,5.47049,3.19954,0,2.32622-1.8,3.56785-4.08,3.60662v.03877c.759.03877,1.24.50304,1.42,1.24065l1.34,5.44818H8.521l-.68-3.1791c-.04839-.2171-.08764-.4244-.12465-.62C7.5086,9.87035,7.37113,9.14415,6.081,9.14415h-1.06L3.8,14.7668H1L3.92,1.23305z"/></svg>