<svg width="28" height="16" viewBox="0,0,28,16" xmlns="http://www.w3.org/2000/svg"><path fill-rule="evenodd" clip-rule="evenodd" d="m8.303,3.13252c1.019,0,2.08.29177,2.9.69889l.66-2.23043C10.723,1.15509,9.463,1,8.242,1,5.56,1,3.041,2.24074,3.041,5.09153c0,1.97842,1.43273,2.75499,2.72645,3.45621C6.83232,9.12493,7.803,9.65106,7.803,10.7543c0,1.454-1.321,2.1132-2.662,2.1132-1.2,0-2.34-.4469-3.42-.9315L1,14.2439C2.26,14.6898,3.641,15,4.98,15c3.061,0,5.743-1.202,5.743-4.518,0-2.13786-1.53781-3.01699-2.86564-3.77608C6.84858,6.12923,5.961,5.62182,5.961,4.68441c0-1.16319,1.34-1.55189,2.342-1.55189zm9.9588-1.8996h-2.801l-2.92,13.53468h2.801l1.279-5.93321h5.641l-1.28,5.93321h2.801l2.92-13.53468h-2.801l-1.179,5.46798h-5.641l1.18-5.46798z"/></svg>