<svg width="23" height="16" viewBox="0,0,23,16" xmlns="http://www.w3.org/2000/svg"><path fill-rule="evenodd" clip-rule="evenodd" d="m13.5377,9.555c0,1.146-.9135,2.076-2.0392,2.076-1.1227,0-2.03524-.93-2.03524-2.076S10.3758,7.48,11.4985,7.48c1.1257,0,2.0392.929,2.0392,2.075zm-2.0392,3.889c-1.0402,0-2.01167-.416-2.73757-1.177-.72688-.76-1.108-1.762-1.07853-2.823.05304-2.027,1.71799-3.72,3.7061-3.777,1.0471-.03,2.0274.362,2.7749,1.101.7456.736,1.1571,1.728,1.1571,2.787h1.5265c0-1.484-.5746-2.868-1.6178-3.903-1.0461-1.035-2.4233-1.575-3.881-1.538-2.78569.078-5.1176,2.449-5.1952,5.285-.02947,1.1.25834,2.156.82118,3.061-2.79456-1.379-3.97427-3.803-4.31414-4.657.65812-1.141,3.40161-5.249,8.83846-5.249,5.4349,0,8.1784,4.099,8.8395,5.246-.4921,1.2-2.7268,5.644-8.8395,5.644zm10.363-6.052C21.7338,7.133,18.6455,1,11.4985,1,4.35446,1,1.26718,7.133,1.13948,7.392L1,7.676l.09233.299C1.11591,8.044,3.36531,15,11.4985,15c8.1372,0,10.3856-6.956,10.4072-7.025L22,7.676l-.1385-.284z"/></svg>