<svg width="25" height="16" viewBox="0,0,25,16" xmlns="http://www.w3.org/2000/svg"><path fill-rule="evenodd" clip-rule="evenodd" d="m20.0211,3.13334c1.5,0,2.56.36929,3.201.7948l.699-2.26807c-1.22-.4856-2.7-.66007-4.1-.66007-4.941,0-8.002,3.21891-8.002,7.58156,0,3.66474,2.02,6.41844,6.242,6.41844,1.059,0,2.14-.0979,3.16-.3683l.44-2.5986c-.8.4652-1.76.8345-2.94.8345-2.461,0-3.981-2.017-3.981-4.28604,0-3.17918,2.18-5.44822,5.281-5.44822zM12.261,1.23332H1.479L1,3.3657h3.94L2.4,14.7671h2.92L7.861,3.3657h3.94l.46-2.13238z"/></svg>