<svg width="36" height="16" viewBox="0,0,36,16" xmlns="http://www.w3.org/2000/svg"><path fill-rule="evenodd" clip-rule="evenodd" d="m10.6118,14.8601c2.2899,0,4.1772-1.7308,4.429-3.9508h3.2406l3.8697-4.80091.3271.6235c-1.1099.83887-1.8313,2.16693-1.8313,3.66851,0,2.5387,2.0607,4.5994,4.5994,4.5994,2.5418,0,4.6023-2.0607,4.6023-4.5994,0-2.54174-2.0605-4.59963-4.6023-4.59963-.534,0-1.0429.09515-1.5211.26282L21.0635.99999h-3.2352v1.41476h2.3797l.7437,1.41765H14.75l-.3748-.71301,1.331.00564V1.70737l-4.9322.01399v1.38959l1.9991.00563.727,1.3813-1.2219,1.76709c-.5144-.20693-1.0764-.32434-1.6664-.32434-2.4634,0-4.45976,1.99636-4.45976,4.45977,0,2.4604,1.99636,4.4597,4.45976,4.4597zm14.6345-7.59977c1.7335,0,3.1401,1.40639,3.1401,3.14007,0,1.7307-1.4066,3.1399-3.1401,3.1399-1.7306,0-3.137-1.4092-3.137-3.1399,0-.9367.4165-1.76721,1.0679-2.3431l1.5855,3.0141,1.2526-.6599-1.5938-3.02813c.2657-.0727.5369-.12304.8248-.12304zM12.706,8.1998c.3691.35233.6403.79698.797,1.29188h-1.6694l.8724-1.29188zm8.3267-2.95264-3.3553,4.14657L15.491,5.24161l5.5417.00555zM14.2494,5.92109l1.879,3.57059h-1.1492c-.2041-.98427-.7354-1.84822-1.4708-2.47736l.741-1.09323zm-3.6376,1.43438c.2879,0,.5591.05308.8221.12859L9.69473,9.99777l.62337.91153h3.2856c-.2434,1.4343-1.4877,2.5331-2.9919,2.5331-1.67769,0-3.04501-1.3644-3.04501-3.042,0-1.68043,1.36732-3.04493,3.04501-3.04493zM3.30479,14.3492c-.34955-.5331-.64001-1.0034-.87011-1.4146-.23136-.4111-.52811-1.0247-.89024-1.8408-.36213-.8173-.54445-1.82949-.54445-3.03911,0-1.12285.19867-2.15894.59097-3.10073.39231-.94305.96317-2.00178,1.71258-3.17493h1.27248c-.41117.72426-.72677,1.31147-.9443,1.7591-.21753.44637-.47781,1.05998-.78085,1.84083-.30051.77958-.45266,1.67862-.45266,2.69459,0,1.03861.16598,1.98165.49919,2.82035.33195.8424.58972,1.4498.77078,1.8245.18107.3747.4841.9191.90784,1.6321H3.30479v-.0013zM34.3625,4.82568c-.4225-.95562-.9795-1.9716-1.6686-3.04793v.00377h-1.2687c.4124.70289.7092,1.24357.8991,1.6233.1848.38099.3885.8412.606,1.37936.2163.53817.3798,1.0801.4904,1.6233.1094.54319.1635,1.08765.1635,1.6321,0,1.01597-.156,1.92884-.4628,2.73862-.3093.811-.5532,1.3969-.7355,1.7603-.1811.3609-.503.9682-.9607,1.8132h1.2687c.459-.7129.7872-1.2461.9808-1.5969.1924-.3521.4627-.9342.8072-1.7515.3446-.8161.5181-1.79938.5181-2.94863,0-1.19704-.2138-2.27337-.6375-3.22899z"/></svg>