<svg width="24" height="24" viewBox="0,0,24,24" xmlns="http://www.w3.org/2000/svg"><path fill-rule="evenodd" clip-rule="evenodd" d="m5.99993,5c-.55286,0-1,.44714-1,1s.44714,1,1,1c.55207,0,1-.44736,1-1s-.44793-1-1-1zm-2,1c0-1.10514.89485-2,2-2,1.10392,0,2,.89464,2,2s-.89608,2-2,2c-1.10515,0-2-.89486-2-2zm2.85021,12L2.96982,7.32913l-.93979.34174,4,11.00003L6.14971,19h7.85019v-1H6.85014zM5.70793,9h-.7095l.23863.66817,2.5,7.00003L7.85557,17h6.54673l2.4436,4.77.89-.456-2.583-5.042L15.0136,16H8.56029l-2.14285-6h.94369l1.3785,3.6852.1215.3248h4.11777v-1H9.55474l-1.3785-3.68518L8.05474,9H5.70793zM10.998,4h10v7h-10V4zm1,5.70725V10h3.2949l-.1465-.14645-1.6466-1.64662L11.998,9.70725zm0-1.4135,1.1486-1.14748.3535-.3532.3534.35338L15.5,8.79289l2.6464-2.64644.3536-.35356.3535.35356,1.1445,1.14444V5h-8v3.29375zm8,.41136-1.498-1.498-2.6465,2.64644L15.7071,10h4.2909V8.70511z"/></svg>