<svg width="24" height="24" viewBox="0,0,24,24" xmlns="http://www.w3.org/2000/svg"><path fill-rule="evenodd" clip-rule="evenodd" d="m22.5,0h-21C.675,0,0,.675,0,1.5v21c0,.825.675,1.5,1.5,1.5h21c.825,0,1.5-.675,1.5-1.5v-21c0-.825-.675-1.5-1.5-1.5z" fill="#f7b500"/><path fill-rule="evenodd" clip-rule="evenodd" d="m14.025,16.0501c0,1.0425-.84,1.8825-1.8825,1.8825s-1.8825-.84-1.8825-1.8825.84-1.8825,1.8825-1.8825,1.8825.84,1.8825,1.8825z"/><path fill-rule="evenodd" clip-rule="evenodd" d="m2.96997,14.9325C4.56747,11.28,8.16747,8.92505,12.15,8.92505c3.9825,0,7.5825,2.35495,9.18,6.00745-1.5975,3.6525-5.1975,6.0075-9.18,6.0075-3.98253,0-7.59003-2.3625-9.18003-6.0075zm5.415,1.1101c0,2.0774,1.68003,3.7574,3.75753,3.7649,3.36,0,6.4275-1.8825,7.935-4.875-1.515-2.9925-4.5825-4.8825-7.935-4.8825-3.35253,0-6.42003,1.89-7.93503,4.8825.8775,1.74,2.28,3.0975,3.9525,3.9375-.5625-.8025-.8925-1.77-.8925-2.82,0-2.6925,2.1825-4.875,4.87503-4.875,2.7,0,4.8825,2.1825,4.8825,4.875H15.9c0-2.0775-1.68-3.7649-3.7575-3.7649s-3.75753,1.68-3.75753,3.7575z"/></svg>