<svg width="24" height="24" viewBox="0,0,24,24" xmlns="http://www.w3.org/2000/svg"><path fill-rule="evenodd" clip-rule="evenodd" d="m22.5,0h-21C.675,0,0,.675,0,1.5v21c0,.825.675,1.5,1.5,1.5h21c.825,0,1.5-.675,1.5-1.5v-21c0-.825-.675-1.5-1.5-1.5z" fill="#2d327d"/><path fill-rule="evenodd" clip-rule="evenodd" d="m12,3c-4.9725,0-9,4.0275-9,9s4.0275,9,9,9,9-4.0275,9-9-4.0275-9-9-9zm0,1.3875c1.0425,0,1.89.8475,1.89,1.89S13.0425,8.175,12,8.175s-1.89-.8475-1.89-1.89.8475-1.8975,1.89-1.8975zM14.8875,18.75h-5.775c-.21,0-.375-.165-.375-.375s.165-.375.375-.375h1.2V9.825h-1.2c-.21,0-.375-.165-.375-.375s.165-.375.375-.375h4.6125V18h1.1625c.21,0,.375.165.375.375s-.165.375-.375.375z" fill="#fff"/></svg>