<svg width="24" height="24" viewBox="0,0,24,24" xmlns="http://www.w3.org/2000/svg"><path fill-rule="evenodd" clip-rule="evenodd" d="m22.5,0h-21C.675,0,0,.675,0,1.5v21c0,.825.675,1.5,1.5,1.5h21c.825,0,1.5-.675,1.5-1.5v-21c0-.825-.675-1.5-1.5-1.5z" fill="#2d327d"/><path fill-rule="evenodd" clip-rule="evenodd" d="m10.6875,3.75c-.7275,0-1.3125.585-1.3125,1.3125V13.5h.75v6c0,.5175.42.9375.9375.9375S12,20.0175,12,19.5V5.0625c0-.7275-.585-1.3125-1.3125-1.3125z" fill="#fff"/><path fill-rule="evenodd" clip-rule="evenodd" d="m7.22249,3.75c-.1575,0-.2775.1275-.2775.285v3.84h-.57v-3.84c0-.1575-.1275-.285-.285-.285s-.285.1275-.285.285v3.84h-.555v-3.84c0-.1575-.1275-.285-.285-.285s-.285.1275-.285.285v3.84h-.555v-3.84c0-.1575-.1275-.285-.285-.285s-.285.1275-.285.285v3.8625c0,.7575.39,1.455,1.035,1.8525v9.75c0,.5175.42.9375.9375.9375s.9375-.42.9375-.9375V9.75c.6375-.3975,1.0275-1.1025,1.0275-1.8525,0-.0075,0-.015,0-.0225v-3.84c.0075-.1575-.12-.285-.27-.285z" fill="#fff"/></svg>