<svg width="24" height="24" viewBox="0,0,24,24" xmlns="http://www.w3.org/2000/svg"><path fill-rule="evenodd" clip-rule="evenodd" d="m22.5,0h-21C.675,0,0,.675,0,1.5v21c0,.825.675,1.5,1.5,1.5h21c.825,0,1.5-.675,1.5-1.5v-21c0-.825-.675-1.5-1.5-1.5z" fill="#2d327d"/><path fill-rule="evenodd" clip-rule="evenodd" d="m17.4375,16.6875h-9.75c-.825,0-1.5-.675-1.5-1.5V10.5c0-.825.675-1.5,1.5-1.5H10.5v-.75c0-.4125.3375-.75.75-.75h2.625c.4125,0,.75.3375.75.75V9h2.8125c.825,0,1.5.675,1.5,1.5v4.6875c0,.825-.675,1.5-1.5,1.5zM13.875,8.25H11.25V9h2.625v-.75z" fill="#fff"/><path d="m10.5,9v.5h.5V9h-.5zm4.125,0h-.5v.5h.5V9zm-3.375-.75v-.5h-.5v.5h.5zm2.625,0h.5v-.5h-.5v.5zM11.25,9h-.5v.5h.5V9zm2.625,0v.5h.5V9h-.5zm-6.1875,8.1875h9.75v-1h-9.75v1zm-2-2c0,1.1011.89886,2,2,2v-1c-.54886,0-1-.4511-1-1h-1zm0-4.6875v4.6875h1V10.5h-1zm2-2c-1.10114,0-2,.89886-2,2h1c0-.54886.45114-1,1-1v-1zm2.8125,0H7.6875v1H10.5v-1zm-.5-.25V9h1v-.75h-1zM11.25,7C10.5614,7,10,7.56136,10,8.25h1c0-.13636.1136-.25.25-.25V7zm2.625,0H11.25v1h2.625V7zm1.25,1.25c0-.68864-.5614-1.25-1.25-1.25v1c.1364,0,.25.11364.25.25h1zm0,.75v-.75h-1V9h1zm2.3125-.5H14.625v1h2.8125v-1zm2,2c0-1.10114-.8989-2-2-2v1c.5489,0,1,.45114,1,1h1zm0,4.6875V10.5h-1v4.6875h1zm-2,2c1.1011,0,2-.8989,2-2h-1c0,.5489-.4511,1-1,1v1zM11.25,8.75h2.625v-1H11.25v1zm.5.25v-.75h-1V9h1zm2.125-.5H11.25v1h2.625v-1zm-.5-.25V9h1v-.75h-1z" fill="#fff"/><path fill-rule="evenodd" clip-rule="evenodd" d="m18.9375,18v-.75H5.625V7.875c0-.2025-.165-.375-.375-.375H3.375c-.21,0-.375.165-.375.375s.165.375.375.375h1.5V18h14.0625z" fill="#fff" stroke="#fff"/><path fill-rule="evenodd" clip-rule="evenodd" d="m17.7675,18.5551c-.675,0-1.2225.5475-1.2225,1.215,0,.675.5475,1.2225,1.2225,1.2225s1.215-.5475,1.215-1.2225-.54-1.215-1.215-1.215z" fill="#fff" stroke="#fff"/><path fill-rule="evenodd" clip-rule="evenodd" d="m6.1275,18.5551c-.675,0-1.2225.5475-1.2225,1.215,0,.675.5475,1.2225,1.2225,1.2225s1.215-.5475,1.215-1.2225-.5475-1.215-1.215-1.215z" fill="#fff" stroke="#fff"/></svg>