<svg width="24" height="24" viewBox="0,0,24,24" xmlns="http://www.w3.org/2000/svg"><path fill-rule="evenodd" clip-rule="evenodd" d="m22.5,0h-21C.675,0,0,.675,0,1.5v21c0,.825.675,1.5,1.5,1.5h21c.825,0,1.5-.675,1.5-1.5v-21c0-.825-.675-1.5-1.5-1.5z" fill="#2d327d"/><path fill-rule="evenodd" clip-rule="evenodd" d="m20.3625,20.9925h-5.52c-.3525,0-.6375-.285-.6375-.6375V17.13c0-.3525.285-.6375.6375-.6375h1.74v-.2775c0-.2925.24-.5325.5325-.5325h.975c.2925,0,.5325.24.5325.5325v.2775h1.74c.3525,0,.6375.285.6375.6375v3.225c0,.3525-.285.6375-.6375.6375zM18.24,16.065h-1.275v.4275h1.275v-.4275z" fill="#fff"/><path fill-rule="evenodd" clip-rule="evenodd" d="m14.94,11.325c-.6525,0-1.185-.5325-1.185-1.185,0-.65254.5325-1.18504,1.185-1.18504s1.185.5325,1.185,1.18504c0,.6525-.5325,1.185-1.185,1.185zm0-2.03254c-.465,0-.8475.3825-.8475.84754,0,.465.3825.8475.8475.8475s.8475-.3825.8475-.8475c0-.46504-.3825-.84754-.8475-.84754z" fill="#fff"/><path fill-rule="evenodd" clip-rule="evenodd" d="m17.985,11.325c-.6525,0-1.185-.5325-1.185-1.185,0-.65254.5325-1.18504,1.185-1.18504s1.185.5325,1.185,1.18504c0,.6525-.5325,1.185-1.185,1.185zm.0075-2.03254c-.465,0-.8475.3825-.8475.84754,0,.465.375.8475.8475.8475.465,0,.8475-.3825.8475-.8475,0-.46504-.3825-.84754-.8475-.84754z" fill="#fff"/><path fill-rule="evenodd" clip-rule="evenodd" d="m13.1025,6.08252c.105.96.495,1.8375,1.08,2.5425h4.5825c.5925-.705.9825-1.575,1.08-2.5425h-6.7425z" fill="#fff"/><path fill-rule="evenodd" clip-rule="evenodd" d="m16.0275,5.74493c.1875,0,.2625-.135.1725-.2925l-1.425-2.46c-.96.555-1.62,1.575-1.68,2.7525h2.9325z" fill="#fff"/><path fill-rule="evenodd" clip-rule="evenodd" d="m20.865,5.61h-2.0325v.27h2.0325c.075,0,.135-.06001.135-.13501C21,5.67,20.94,5.61,20.865,5.61z" fill="#fff"/><path fill-rule="evenodd" clip-rule="evenodd" d="m5.48249,5.78999-.0075-2.4c0-.225-.15-.405-.33-.405h-1.8c-.18,0-.33.18-.33.405v3.75s-.015.135.0975.6225c.12.4875,2.4825,8.94751,2.4825,8.94751s.21.8475.615.8625,1.6425,0,1.6425,0l-3.18-9.63001s-.3375-.79501-.21-1.005c.1275-.21.8475-.8775.8475-.8775s.1725-.15.1725-.27z" fill="#fff"/><path fill-rule="evenodd" clip-rule="evenodd" d="m9.375,16.6799c.1575-.135.06-.585.06-.585l-.4725-4.3425c-.015-.225-.18-.3975-.36-.3825l-1.2675.0975c-.18.015-.315.21-.3.435l.405,3.24s.525,1.6725.7275,2.265c-.0075.0075,1.0425-.585,1.2075-.7275z" fill="#fff"/><path fill-rule="evenodd" clip-rule="evenodd" d="m7.58999,20.625c0,.2025-.1125.3675-.2475.3675h-1.11c-.135,0-.2475-.165-.2475-.3675v-2.3025c0-.2025.1125-.3675.2475-.3675h1.11c.135,0,.2475.165.2475.3675v2.3025z" fill="#fff"/><path fill-rule="evenodd" clip-rule="evenodd" d="m11.0325,11.4675h.675c-.06-1.81502-1.5075-3.27752-3.31501-3.35252h-.75c-.0075,0-.0075-.0075-.015-.0075l.765-.7575h-.8775l-1.0875,1.0875,1.0875,1.0875h.8775l-.7425-.735h.5925c1.5-.0075,2.73001,1.185,2.79001,2.67752z" fill="#fff"/></svg>