<svg width="24" height="24" viewBox="0,0,24,24" xmlns="http://www.w3.org/2000/svg"><path fill-rule="evenodd" clip-rule="evenodd" d="m22.5,0h-21C.675,0,0,.675,0,1.5v21c0,.825.675,1.5,1.5,1.5h21c.825,0,1.5-.675,1.5-1.5v-21c0-.825-.675-1.5-1.5-1.5z" fill="#2d327d"/><path fill-rule="evenodd" clip-rule="evenodd" d="m5.1375,11.1c-.165,0-.3.135-.3.3,0,.4275.3075.7875.735.855l2.4225.375c.105.015.1875.105.1875.2175,0,.12-.0975.2175-.2175.2175H3.54c-.3,0-.54.24-.54.54s.24.54.54.54h2.8575c.195,0,.3525.1575.3525.3525s-.1575.36-.3525.36H3.54c-.3,0-.54.24-.54.54s.24.54.54.54h2.8575c.195,0,.3525.1575.3525.3525s-.1575.3525-.3525.3525H3.54c-.3,0-.54.24-.54.54s.24.54.54.54h2.8575c.195,0,.3525.1575.3525.3525s-.1575.3525-.3525.3525H3.54c-.3,0-.54.24-.54.54s.24.54.54.54H15v-2.325c0-.3075-.255-.5625-.5625-.5625h-.75c-.3075,0-.5625-.255-.5625-.5625,0-.315.255-.5625.5625-.5625h.75c.3075,0,.5625-.255.5625-.5625v-2.325l-9.8175-1.5c-.015-.0075-.03-.0075-.045-.0075z" fill="#fff"/><path fill-rule="evenodd" clip-rule="evenodd" d="m20.8275,13.8075L19.785,12.765c-.105-.105-.2475-.165-.3975-.165H18.93V8.32495h.7575c.7275,0,1.3125-.585,1.3125-1.3125s-.5925-1.3125-1.3125-1.3125h-.5625c-.21,0-.375.165-.375.375,0,.2025.165.375.375.375h.5625c.315,0,.5625.255.5625.5625s-.2475.5625-.5625.5625h-3.195v-1.875l-12.09,1.875H3v.75h1.4025l12.09,1.87495V8.32495h2.0625V12.6h-.4575c-.15,0-.2925.0599-.3975.1649l-1.0425,1.0425c-.105.105-.165.2475-.165.3975v6.2326c0,.3075.255.5625.5625.5625h3.375c.315,0,.5625-.255.5625-.5625v-6.2326c0-.1425-.06-.2925-.165-.3974zM19.1775,19.5h-.93v-.9151h.93V19.5zM19.4025,17.52c.3225-.225.54-.42.6525-.5776.105-.1574.165-.3524.18-.6,0-.3524-.1275-.6374-.3825-.8699S19.245,15.12,18.81,15.12c-.555,0-.9675.1875-1.2375.5625-.165.225-.255.525-.2775.9075h.87c.015-.4875.225-.735.63-.735.1575,0,.2775.045.375.135.0975.0825.1425.2025.1425.345,0,.1125-.0225.2175-.075.3s-.15.18-.2925.2925c-.195.1575-.3225.27-.3825.3375s-.1125.15-.15.255c-.03.0825-.0525.165-.06.24s-.015.2175-.0225.435h.795c0-.18.0225-.3226.0675-.42.0375-.0975.1125-.1875.21-.255z" fill="#fff"/></svg>