<svg width="24" height="24" viewBox="0,0,24,24" xmlns="http://www.w3.org/2000/svg"><path fill-rule="evenodd" clip-rule="evenodd" d="m22.5,0h-21C.675,0,0,.675,0,1.5v21c0,.825.675,1.5,1.5,1.5h21c.825,0,1.5-.675,1.5-1.5v-21c0-.825-.675-1.5-1.5-1.5z" fill="#2d327d"/><path fill-rule="evenodd" clip-rule="evenodd" d="m8.2275,19.575h-4.5L3,8.65495v-.0675c0-.555.45-1.0125,1.0125-1.0125h3.93c.5625,0,1.0125.4575,1.0125,1.0125v.0675L8.2275,19.575zM4.17,8.32495c-.21,0-.375.165-.375.375v.0225L4.02,12.075h3.9225l.225-3.35255v-.0225c0-.21-.165-.375-.375-.375H4.17z" fill="#fff"/><path fill-rule="evenodd" clip-rule="evenodd" d="m7.7175,9.19492-.2625-.15-.3675.6525.255.15.375-.6525z" fill="#fff"/><path fill-rule="evenodd" clip-rule="evenodd" d="m6.95249,8.84245-.2925-.075-.1875.7275.2925.075.1875-.7275z" fill="#fff"/><path fill-rule="evenodd" clip-rule="evenodd" d="m5.835,8.69995h.3v.75h-.3v-.75z" fill="#fff"/><path fill-rule="evenodd" clip-rule="evenodd" d="m5.79,11.7h.39l-.81-2.76751c-.0225-.0825-.0975-.135-.18-.135-.105,0-.1875.0825-.1875.1875,0,.01499,0,.03749.0075.0525L5.79,11.7z" fill="#fff"/><path fill-rule="evenodd" clip-rule="evenodd" d="m4.87499,9.70495-.375-.6525-.2625.15.375.645.2625-.1425z" fill="#fff"/><path fill-rule="evenodd" clip-rule="evenodd" d="m19.875,12.075H17.25v-.75c0-.4575-.3675-.825-.825-.825h-2.1c-.4575,0-.825.3675-.825.825v.75h-2.625c-.6225,0-1.125.5025-1.125,1.125v5.25c0,.6225.5025,1.125,1.125,1.125h9c.6225,0,1.125-.5025,1.125-1.125V13.2c0-.6225-.5025-1.125-1.125-1.125zm-4.6875,4.275c0,.165-.135.3-.3.3h-2.025c-.165,0-.3-.135-.3-.3v-2.595c0-.0825.03-.1575.09-.21l.66-.66c.0375-.0375.0825-.0525.135-.0525h.24v.375h.375v-.375h.24c.045,0,.0975.0225.135.0525l.66.66c.0525.0525.09.135.09.21v2.595zm-1.0125-4.275h2.4v-.9h-2.4v.9z" fill="#fff"/><path fill-rule="evenodd" clip-rule="evenodd" d="m3,20.325h17.9925V21H3v-.675z" fill="#fff"/></svg>