<svg width="24" height="24" viewBox="0,0,24,24" xmlns="http://www.w3.org/2000/svg"><path fill-rule="evenodd" clip-rule="evenodd" d="m22.5,0h-21C.675,0,0,.675,0,1.5v21c0,.825.675,1.5,1.5,1.5h21c.825,0,1.5-.675,1.5-1.5v-21c0-.825-.675-1.5-1.5-1.5z" fill="#2d327d"/><path fill-rule="evenodd" clip-rule="evenodd" d="m7.7775,3.70501c-.315-.24-.705-.3825-1.1325-.3825-.375,0-.7275.1125-1.02.3l-2.64,1.5225h4.7925v-1.44z" fill="#fff"/><path fill-rule="evenodd" clip-rule="evenodd" d="m10.41,7.65003c1.7925-.255,3.42-1.0125,4.7325-2.1225H10.41v2.1225z" fill="#fff"/><path fill-rule="evenodd" clip-rule="evenodd" d="m10.41,5.15246h4.7925l-2.64-1.5225c-.2925-.1875-.645-.3-1.02-.3-.4275,0-.8175.1425-1.1325.3825v1.44z" fill="#fff"/><path fill-rule="evenodd" clip-rule="evenodd" d="m7.7775,5.52753H3.045c1.32,1.11,2.94,1.8675,4.7325,2.1225v-2.1225z" fill="#fff"/><path fill-rule="evenodd" clip-rule="evenodd" d="m15.8475,10.065c-.5175,0-.9375.42-.9375.9375v2.4525h-.375V9.87004c0-.5175-.42-.9375-.9375-.9375s-.9375.42-.9375.9375V12.72h-.375V9.12004c0-.5175-.42-.9375-.9375-.9375s-.9375.42-.9375.9375v2.82746h-.375V3.91504c0-.5175-.42-.9375-.9375-.9375s-.9375.42-.9375.9375V14.2275h-.375V11.82c0-.5925-.375-1.125-.9375-1.32-.075-.0225-.15-.0375-.2325-.0375-.39,0-.6975.315-.6975.705V15.69c0,.465.0975.9525.255,1.3275S7.8225,21,7.8225,21H15.6l.96-2.325c.1575-.4125.24-.855.24-1.3275,0-.0675,0-6.345,0-6.345-.015-.5175-.435-.9375-.9525-.9375z" fill="#fff"/></svg>