<svg width="24" height="24" viewBox="0,0,24,24" xmlns="http://www.w3.org/2000/svg"><path fill-rule="evenodd" clip-rule="evenodd" d="m22.5,0h-21C.675,0,0,.675,0,1.5v21c0,.825.675,1.5,1.5,1.5h21c.825,0,1.5-.675,1.5-1.5v-21c0-.825-.675-1.5-1.5-1.5z" fill="#2d327d"/><path fill-rule="evenodd" clip-rule="evenodd" d="m2.99999,7.5h.675v1.125h-.675V7.5z" fill="#fff"/><path fill-rule="evenodd" clip-rule="evenodd" d="m2.99999,19.125h.675v1.125h-.675v-1.125z" fill="#fff"/><path fill-rule="evenodd" clip-rule="evenodd" d="m4.42499,6.75h1.05V21h-1.05V6.75z" fill="#fff"/><path fill-rule="evenodd" clip-rule="evenodd" d="m6.14999,19.1625H17.85V20.25H6.14999v-1.0875z" fill="#fff"/><path fill-rule="evenodd" clip-rule="evenodd" d="m13.8,10.8375h2.925c.6225,0,1.125.5025,1.125,1.125V17.25c0,.6225-.5025,1.125-1.125,1.125H7.27499c-.6225,0-1.125-.5025-1.125-1.125v-5.2875c0-.6225.5025-1.125,1.125-1.125H10.2v-.5625c0-.51747.42-.93748.9375-.93748h1.725c.5175,0,.9375.42001.9375.93748v.5625zm-2.925,0h2.25v-.825h-2.25v.825z" fill="#fff"/><path fill-rule="evenodd" clip-rule="evenodd" d="m6.14999,7.5H17.85v1.0875H6.14999V7.5z" fill="#fff"/><path fill-rule="evenodd" clip-rule="evenodd" d="m18.525,6.75h1.05V21h-1.05V6.75z" fill="#fff"/><path fill-rule="evenodd" clip-rule="evenodd" d="m20.325,7.5H21v1.125h-.675V7.5z" fill="#fff"/><path fill-rule="evenodd" clip-rule="evenodd" d="m20.325,19.125H21v1.125h-.675v-1.125z" fill="#fff"/></svg>