<svg width="36" height="36" viewBox="0,0,36,36" xmlns="http://www.w3.org/2000/svg"><path fill-rule="evenodd" clip-rule="evenodd" d="m22.4059,9.31727v.0003l-.3033,1.72153,4.9246.8681.304-1.7228v-.0001c.24-1.35998-.6674-2.65616-2.0275-2.89617-1.3595-.2399-2.6562.66834-2.8978,2.02914zm5.6061,2.76353.304-1.7227c.3359-1.90396-.9347-3.71877-2.8385-4.05476-1.9045-.33608-3.7187.93653-4.0563,2.83956l-.0001.00058-.3034,1.72202-3.9384-.6942-.4496-.0793-.1197.4406-4.3425,15.9885-.1435.5284.5392.0951,17.727,3.126.5392.0951.0458-.5457,1.3875-16.5105.0383-.455-.4497-.0792-3.9393-.6945zm-1.1586.8112-.5647,3.2009.9848.1737.5647-3.201,3.4898.6152-1.3034,15.5099L13.376,26.2548l4.0793-15.0195,3.4889.6151-.5641,3.2016.9849.1735.564-3.2015,4.9244.868zM3,15.2496h9v1H3v-1zm3,3h6v1H6v-1zm4.5,3h-3v1h3v-1z"/></svg>