<svg width="24" height="24" viewBox="0,0,24,24" xmlns="http://www.w3.org/2000/svg"><path fill-rule="evenodd" clip-rule="evenodd" d="m15.1014,6.24063v.0003l-.1733.9834,2.9548.52088.1737-.98449v-.00001c.1441-.81602-.4004-1.5937-1.2165-1.73772-.8154-.1439-1.5936.40084-1.7387,1.21764zm3.7664,1.67818.1736-.98432v-.00001c.24-1.35997-.6676-2.65629-2.0275-2.89627-1.3604-.24008-2.6561.66903-2.8972,2.02806l-.0001.00058-.1733.98387-2.4615-.4339-.4496-.07927-.1197.44062L8.01748,17.6372l-.14351.5283.5392.0951,11.81803,2.084.5392.0951.0458-.5456.925-11.007.0383-.45501-.4497-.07927-2.462-.43401zm-1.1586.81118-.3476,1.96971.9848.1738.3476-1.9699,2.0125.35476-.8409,10.00634L9.12603,17.3709l2.63177-9.69,2.012.35466-.3472,1.97024.9849.1736.3471-1.97024,2.9546.52083zM2,9.99985h6v.99995H2v-.99995zm2,1.99995h4v1H4v-1zm3,2H5v1h2v-1z"/></svg>