<svg width="36" height="36" viewBox="0,0,36,36" xmlns="http://www.w3.org/2000/svg"><path fill-rule="evenodd" clip-rule="evenodd" d="m11.75,5.25c0-.55303.4478-1,1-1h9c.5534,0,1,.44664,1,1v10.5c0,.5522-.447,1-1,1h-9c-.5519,0-1-.4481-1-1V5.25zm1-2c-1.1038,0-2,.89403-2,2v10.5c0,1.1041.8959,2,2,2h4V33h1V17.75h4c1.106,0,2-.8962,2-2V5.25c0-1.10564-.8944-2-2-2h-9zm2.5,3H18c.817,0,1.5274.20651,2.031.70568.5045.49997.719,1.2116.719,2.04432,0,.82766-.2082,1.539-.7104,2.0403-.5019.5009-1.2134.708-2.0386.7097H16.25V15h-1V6.25zm1,4.5h1.7495c.6715-.0014,1.0849-.1692,1.3337-.4175.2485-.248.4168-.66016.4168-1.3325,0-.67178-.1718-1.08515-.4229-1.33405C19.0751,7.41624,18.6605,7.25,18,7.25h-1.75v3.5z"/></svg>