<svg width="48" height="48" viewBox="0,0,48,48" xmlns="http://www.w3.org/2000/svg"><path fill-rule="evenodd" clip-rule="evenodd" d="m8,4.5C6.06586,4.5,4.5,6.06586,4.5,8v35.5h7V8c0-1.93414-1.56586-3.5-3.5-3.5zm-2.5,26V22c0-1.3819,1.11814-2.5,2.5-2.5s2.5,1.1181,2.5,2.5v8.5h-5zm2.5-12c.97971,0,1.86492.4018,2.5,1.0496V8c0-1.38186-1.11814-2.5-2.5-2.5S5.5,6.61814,5.5,8v11.5496C6.13508,18.9018,7.02029,18.5,8,18.5zm-2.5,13v11h5v-11h-5zM18,4.5c-1.9341,0-3.5,1.56586-3.5,3.5v35.5h7V8c0-1.93414-1.5659-3.5-3.5-3.5zm2.5,15.0496V8c0-1.38186-1.1181-2.5-2.5-2.5S15.5,6.61814,15.5,8v11.5496c.6351-.6478,1.5203-1.0496,2.5-1.0496s1.8649.4018,2.5,1.0496zM15.5,22c0-1.3819,1.1181-2.5,2.5-2.5s2.5,1.1181,2.5,2.5v8.5h-5V22zm0,20.5v-11h5v11h-5zM28.4692,5.82715,35,23.5537,41.5308,5.82715l.9384.3457-1.1343,3.07866.8229.27472.4741.15826-.158.47411-2,6-.1582.4744-.4743-.1582-1.04-.3466L35.5329,25l5.675,15.4037,2.634-.878.3162.9486-2.6043.8682.9154,2.4846-.9384.3458-.9262-2.5141-2.4465.8155-.3162-.9486,2.4168-.8057L35,26.4463,29.7413,40.72l2.4168.8057-.3162.9486-2.4465-.8155-.9262,2.5141-.9384-.3458.9154-2.4846-2.6043-.8682.3162-.9486,2.634.878L34.4671,25l-3.2685-8.8718-1.04.3466-.4743.1582-.1582-.4744-2-6-.158-.47411.4741-.15826.8229-.27472-1.1343-3.07866.9384-.3457zm10.6781,9.36225.536.1786,1.6838-5.0515-.378-.1262-1.8418,4.9991zm-8.8306.1786.536-.1786-1.8418-4.9991-.378.1262,1.6838,5.0515z"/></svg>