<svg width="48" height="48" viewBox="0,0,48,48" xmlns="http://www.w3.org/2000/svg"><path fill-rule="evenodd" clip-rule="evenodd" d="m13,10.3736C9.52547,11.4412,7,14.676,7,18.5c0,3.8248,2.52545,7.0591,6,8.1265v-4.3844c-1.206-.8072-2-2.182-2-3.7421s.794-2.9349,2-3.7421v-4.3843zm1,3.8825c.4692-.1659.9741-.2561,1.5-.2561.5261,0,1.0312.0903,1.5005.2563V10.061C16.5146,10.021,16.015,10,15.5,10c-.5118,0-1.0131.0452-1.5.1319v4.1242zm4.0005.5021c1.075.7198,1.8227,1.8907,1.972,3.2418h6.0285v-4.8298c-2.4178-1.3821-4.9376-2.5681-8.0005-2.9981v4.5861zM19.9725,19c-.1493,1.3511-.897,2.522-1.972,3.2418v4.5861c3.0629-.43,5.5827-1.616,8.0005-2.9981V19h-6.0285zm-2.972,3.7437c-.4693.166-.9744.2563-1.5005.2563-.5259,0-1.0308-.0902-1.5-.2561v4.1242c.4869.0867.9882.1319,1.5.1319.515,0,1.0146-.021,1.5005-.061v-4.1953zm10.0005.5019V19h8.1025c-2.5158.8704-4.7035,2.1937-6.8598,3.4982l-.1223.074c-.3736.2259-.7465.4511-1.1204.6734zM41,19v-1c-5.0404,0-8.5956-2.1503-12.3036-4.3931l-.0575-.0347C24.9213,11.3237,21.0501,9,15.5,9,10.2528,9,6,13.2539,6,18.5c0,5.2471,4.2529,9.5,9.5,9.5,5.5501,0,9.4213-2.3237,13.1389-4.5722l.0575-.0347C32.4044,21.1503,35.9596,19,41,19zm-13.999-1h8.1025c-2.5158-.8704-4.7035-2.1937-6.8598-3.4982l-.1223-.074c-.3736-.2259-.7465-.4511-1.1204-.6734V18zM32.5,39c2.773,0,4.9142-.4528,6.3641-1.5973C40.3425,36.2356,41,34.4351,41,32h-1c0,2.2589-.6035,3.7084-1.7556,4.6178C37.0638,37.5498,35.205,38,32.5,38h-1.499v-4.999H34v-1H6v1h3V38H6v1h26.5zm-2.499-5.999h-6.0005V38h6.0005v-4.999zm-7.0005,0V38h-6v-4.999h6zM16.0005,33.001H10V38h6.0005v-4.999zM12,18.5c0-1.9329,1.5671-3.5,3.5-3.5s3.5,1.5671,3.5,3.5S17.4329,22,15.5,22,12,20.4329,12,18.5z"/></svg>