<svg width="36" height="36" viewBox="0,0,36,36" xmlns="http://www.w3.org/2000/svg"><path fill-rule="evenodd" clip-rule="evenodd" d="m7.82702,5.92635L9.42875,3.2568l-.85749-.5145L6.06401,6.92105l.42874.25725,3.75005,2.25.5144-.8575L7.99817,6.91536C10.9392,6.13748,14.0611,5.74955,17.25,5.74955c3.1676,0,6.315.39554,9.2497,1.16707L23.7428,8.5708l.5144.8575,3.75-2.25.4288-.25725-.2573-.42875-2.25-3.75-.8574.5145,1.6031,2.67185c-2.9996-.78084-6.2045-1.1791-9.4244-1.1791-3.2386,0-6.4176.3902-9.42298,1.1768zM10.75,12.7467c0-1.1041.8959-2,2-2h.0001l8.9999.0015h.0001c1.1059,0,1.9999.8962,1.9999,2v18c0,1.106-.8962,2-2,2h-9c-1.1038,0-2-.894-2-2V12.7467zm1.9999-1c-.5518,0-.9999.4482-.9999,1v18.0015c0,.553.4478,1,1,1h9c.5522,0,1-.447,1-1v-18c0-.5522-.447-1-1-1h-.0001l-8.9999-.0015h-.0001zm6.7501.5013v1H15v-1h4.5zM8.82774,11.6955l-4.28917,1.5716.171.4698-.17201-.4694.00047-.0002c-1.0372.3779-1.57238,1.5259-1.19481,2.5633l.00113.003,5.18668,13.9655.93744-.3482L4.28292,15.4885l-.00051-.0014c-.18776-.5182.08006-1.0917.59818-1.2803l.00101-.0004,4.29019-1.5719-.34405-.939zm21.04146,1.5716-4.2891-1.5716-.3441.939,4.2902,1.5719.001.0004c.5181.1886.786.7621.5982,1.2803l-.0005.0014-5.1856,13.9624.9375.3482,5.1866-13.9655.0012-.003c.3776-1.0374-.1576-2.1854-1.1948-2.5633l.0004.0002-.172.4694.171-.4698z"/></svg>