<svg width="36" height="36" viewBox="0,0,36,36" xmlns="http://www.w3.org/2000/svg"><path fill-rule="evenodd" clip-rule="evenodd" d="m27.9389,7.48729c-4.4672-1.82296-7.17-2.76327-9.9083-2.75506-2.7355.00821-5.459.96325-9.96519,2.75332l-.31541.1253V28.2502h7v-4.4865h6.5v4.4865h7V7.61424l-.3111-.12695zM8.75,27.2502V8.28985c4.3412-1.71776,6.8282-2.55026,9.2836-2.55762,2.4526-.00736,4.9189.80893,9.2164,2.55429V27.2502h-5v-4.4865h-8.5v4.4865h-5zM18,8.75049c-2.6534,0-4.75,2.09661-4.75,4.75001,0,2.6533,2.0966,4.75,4.75,4.75s4.75-2.0967,4.75-4.75c0-2.6534-2.0966-4.75001-4.75-4.75001zm-5.75,4.75001c0-3.2057,2.5444-5.75001,5.75-5.75001s5.75,2.54431,5.75,5.75001c0,3.2056-2.5444,5.75-5.75,5.75s-5.75-2.5444-5.75-5.75zm6.1036.3535,2.25-2.25-.7072-.7071L18,12.7934l-1.1464-1.1465-.7072.7071L18,14.2076l.3536-.3536zM5.77848,24.883c-.7403.3659-1.35901.7801-1.79898,1.2441-.44195.466-.7295,1.012-.7295,1.6222,0,.8477.54426,1.5673,1.31585,2.1445.7809.5841,1.8798,1.0904,3.19475,1.5074,2.6357.8359,6.2515,1.3481,10.2394,1.3481,3.9886,0,7.6044-.5122,10.24-1.3481,1.3148-.417,2.4136-.9233,3.1944-1.5074.7715-.5773,1.3156-1.2969,1.3156-2.1445,0-.6102-.2875-1.1562-.7296-1.6221-.44-.4639-1.0588-.8777-1.7993-1.2428l-.4422.8968c.68.3354,1.1862.6866,1.5161,1.0342.3278.3456.455.6576.455.9339,0,.3861-.2492.8459-.9147,1.3437-.6561.491-1.638.9555-2.8976,1.355-2.5136.7972-6.0228,1.3013-9.9377,1.3013-3.9141,0-7.4233-.5041-9.9371-1.3013-1.2598-.3995-2.24178-.864-2.89806-1.355-.6656-.4979-.91484-.9576-.91484-1.3437,0-.2763.1272-.5883.45513-.9341.3299-.348.83619-.6995,1.51639-1.0357l-.44304-.8965z"/></svg>