<svg width="36" height="36" viewBox="0,0,36,36" xmlns="http://www.w3.org/2000/svg"><path fill-rule="evenodd" clip-rule="evenodd" d="m18.2676,10.5039V5.98145h1v4.52245h-1zm-9.03229-.67671,3.41549,3.41551.7071-.7071L9.94242,9.12008l-.70711.70711zm9.51459,3.42261c-3.0299,0-5.458,2.4597-5.458,5.4985,0,3.0329,2.4583,5.4925,5.4925,5.4925,3.0301,0,5.4655-2.4554,5.4655-5.491,0-3.0343-2.467-5.5-5.5-5.5zm-6.458,5.4985c0-3.5823,2.867-6.4985,6.458-6.4985,3.5851,0,6.5,2.9132,6.5,6.5,0,3.5823-2.8776,6.491-6.4655,6.491-3.5867,0-6.4925-2.9075-6.4925-6.4925zm-1.7874.5015H6v-1h4.5045v1zm17.1298-9.99406-3.396,3.35696.703.7112,3.396-3.35698-.703-.71118zm-.6433,8.99406H31.5v1h-4.509v-1zm1.3682,9.285-3.4005-3.3855-.7056.7087,3.4005,3.3855.7056-.7087zM18.25,31.494v-4.5045h1v4.5045h-1zm-5.6178-7.2458-3.39296,3.3915.70695.7072,3.39301-3.3915-.707-.7072z"/></svg>