<svg width="48" height="48" viewBox="0,0,48,48" xmlns="http://www.w3.org/2000/svg"><path fill-rule="evenodd" clip-rule="evenodd" d="m37,2v3h-1V2h1zm6.5713,3.13635-2.121,2.121-.7071-.7071,2.121-2.121.7071.7071zm-13.4354-.7071,2.121,2.121-.7071.7071-2.121-2.121.7071-.7071zM36.5,8c-1.9328,0-3.4999,1.56714-3.4999,3.5,0,1.9329,1.5671,3.5,3.4999,3.5,1.9329,0,3.5-1.5671,3.5-3.5C40,9.56714,38.4329,8,36.5,8zm-4.4999,3.5c0-2.48514,2.0148-4.5,4.4999-4.5,2.4852,0,4.5,2.01486,4.5,4.5,0,2.4851-2.0148,4.5-4.5,4.5-2.4851,0-4.4999-2.0149-4.4999-4.5zm-5-.5h3v1h-3v-1zM46,12h-3v-1h3v1zM9.18942,14.5688c6.38798-3.3844,14.35998-1.129,18.00438,5.1832l.25.433-.4331.25L16.196,26.6788,26.7805,44H42v1H5.00005v-1H25.6086L15.3297,27.1789,4.49375,33.435l-.43301.25-.25-.433C.166348,26.9398,2.19829,18.9088,8.32339,15.0688l-.50442-.8742.86616-.4998.50429.874zM6.00517,18.369c-3.24886,3.7933-4.00599,9.3144-1.56991,13.9451l3.4612-1.9983c-1.66681-3.045-2.46533-6.2234-2.38851-8.9602.02989-1.065.19375-2.0751.49722-2.9866zm2.75755,11.4467,12.97988-7.4939c-1.7237-2.8284-3.9499-4.9669-6.1747-6.1694-2.3447-1.2673-4.6085-1.4612-6.31506-.4754h-.00008c-1.70656.9853-2.67043,3.0427-2.74521,5.7067-.07095,2.5278.66779,5.5247,2.25517,8.432zm13.84608-7.994,3.4604-1.9978c-2.7914-4.4237-7.9499-6.5284-12.8584-5.6134.9403.1931,1.8961.556,2.8326,1.0621,2.4087,1.302,4.7622,3.583,6.5654,6.5491zM29.4288,17.8636l2.121-2.121.7071.7072-2.121,2.121-.7071-.7072zm13.4354.7072-2.121-2.121.7071-.7072,2.121,2.121-.7071.7072zM36,21v-3h1v3h-1z"/></svg>