<svg width="24" height="24" viewBox="0,0,24,24" xmlns="http://www.w3.org/2000/svg"><path fill-rule="evenodd" clip-rule="evenodd" d="m4,8.49976c0-.82786.67214-1.5,1.5-1.5h13c.8279,0,1.5.67214,1.5,1.5v7.00004c0,.8278-.6721,1.5-1.5,1.5h-13c-.82786,0-1.5-.6722-1.5-1.5V8.49976zm1.5-2.5c-1.38014,0-2.5,1.11985-2.5,2.5v7.00004c0,1.3801,1.11986,2.5,2.5,2.5h13c1.3801,0,2.5-1.1199,2.5-2.5V8.49976c0-1.38015-1.1199-2.5-2.5-2.5h-13zM17,9.00073v.99997h1v1h-1v1h-1v-1h-1v-1h1v-.99997h1zM8.5,12.0002c-.82786,0-1.5-.6721-1.5-1.5,0-.82865.67198-1.49996,1.5-1.49996s1.5.67131,1.5,1.49996c0,.8279-.67214,1.5-1.5,1.5zm1.7412.2936c.4679-.4544.7588-1.0902.7588-1.7936,0-1.38126-1.12002-2.49996-2.5-2.49996S6,9.11894,6,10.5002c0,.7039.29127,1.3401.75979,1.7945-.49089.2715-.89035.6223-1.18487,1.0647C5.17658,13.9578,5,14.6788,5,15.5002v.5h7v-.5c0-.8213-.1765-1.5435-.5748-2.1424-.2942-.4425-.6933-.7935-1.184-1.064zM8.5,13.0002h-.90307c-.55889.2327-.94062.5394-1.1896.9134-.1937.2909-.32338.6471-.37801,1.0866h4.94138c-.0546-.4401-.1844-.7972-.3782-1.0887-.249-.3745-.63052-.681-1.18862-.9113H8.5z"/></svg>