<svg width="48" height="48" viewBox="0,0,48,48" xmlns="http://www.w3.org/2000/svg"><path fill-rule="evenodd" clip-rule="evenodd" d="m2,6.5C2,4.567,3.567,3,5.5,3h22.8339v.00002c.6879.00534,1.36.20657,1.9376.58012l-.543.83972C29.311,4.14983,28.8252,4.00422,28.328,4H5.5C4.11929,4,3,5.11929,3,6.5v2.50002h20V10H3v27h20v1H3v2.5C3,41.8807,4.11929,43,5.5,43H23v1H5.5C3.567,44,2,42.433,2,40.5v-34zM15,41h4v-1h-4v1zm0-33.99998h6v-1h-6v1zm-1,0h-1v-1h1v1zM38,43h-4v-1h4v1zm7-4V8.5C45,7.11929,43.8807,6,42.5,6h-15C26.1193,6,25,7.11929,25,8.5V39h20zm0,1H25v2.5c0,1.3807,1.1193,2.5,2.5,2.5h15c1.3807,0,2.5-1.1193,2.5-2.5V40zM39,9.00002h-6v-1h6v1zm-8,0h1v-1h-1v1zM27.5,5C25.567,5,24,6.567,24,8.5v34c0,1.933,1.567,3.5,3.5,3.5h15c1.933,0,3.5-1.567,3.5-3.5v-34C46,6.567,44.433,5,42.5,5h-15z"/></svg>