<svg width="36" height="36" viewBox="0,0,36,36" xmlns="http://www.w3.org/2000/svg"><path fill-rule="evenodd" clip-rule="evenodd" d="m5.25,3.25c-.53043,0-1.03914.21071-1.41421.58579C3.46071,4.21086,3.25,4.71957,3.25,5.25v24c0,.5304.21071,1.0391.58579,1.4142.37507.3751.88378.5858,1.41421.5858H16.5v-1H5.25c-.26522,0-.51957-.1054-.70711-.2929-.18753-.1875-.29289-.4419-.29289-.7071v-24c0-.26522.10536-.51957.29289-.70711C4.73043,4.35536,4.98478,4.25,5.25,4.25h16.5c.2652,0,.5196.10536.7071.29289.1875.18754.2929.44189.2929.70711V6h1v-.75c0-.53043-.2107-1.03914-.5858-1.41421C22.7891,3.46071,22.2804,3.25,21.75,3.25H5.25zm5.25,2.5h6v-1h-6v1zm9.75,3c-.5523,0-1,.44772-1,1v21c0,.5523.4477,1,1,1h10.5c.5523,0,1-.4477,1-1v-21c0-.55228-.4477-1-1-1h-10.5zm-2,1c0-1.10457.8954-2,2-2h10.5c1.1046,0,2,.89543,2,2v21c0,1.1046-.8954,2-2,2h-10.5c-1.1046,0-2-.8954-2-2v-21zm10.25.5h-6v-1h6v1zm-12,18h-6v-1h6v1z"/></svg>