<svg width="24" height="24" viewBox="0,0,24,24" xmlns="http://www.w3.org/2000/svg"><path fill-rule="evenodd" clip-rule="evenodd" d="m3.5,2c-.39782,0-.77936.15804-1.06066.43934S2,3.10218,2,3.5v16c0,.3978.15803.7794.43934,1.0607S3.10218,21,3.5,21H11v-1H3.5c-.13261,0-.25979-.0527-.35355-.1464C3.05268,19.7598,3,19.6326,3,19.5v-16c0-.13261.05268-.25979.14645-.35355C3.24021,3.05268,3.36739,3,3.5,3H7v1h4V3h3.5c.1326,0,.2598.05268.3536.14645.0937.09376.1464.22094.1464.35355V4h1v-.5c0-.39783-.158-.77936-.4393-1.06066S14.8978,2,14.5,2h-11zm10,4c-.2761,0-.5.22386-.5.5v14c0,.2761.2239.5.5.5h7c.2761,0,.5-.2239.5-.5v-14c0-.27614-.2239-.5-.5-.5H19v1h-4V6h-1.5zm-1.5.5c0-.82843.6716-1.5,1.5-1.5h7c.8284,0,1.5.67157,1.5,1.5v14c0,.8284-.6716,1.5-1.5,1.5h-7c-.8284,0-1.5-.6716-1.5-1.5v-14zM11,19H7v-1h4v1z"/></svg>