<svg width="36" height="36" viewBox="0,0,36,36" xmlns="http://www.w3.org/2000/svg"><path fill-rule="evenodd" clip-rule="evenodd" d="m14.6195,16.0872,6.4264-7.04809c.1831-.17943.4312-.28874.7041-.28874.553,0,1,.44781,1,1,0,.12435-.0212.2386-.0595.34053l-2.1558,5.4763-.2689.6832H26.25c.553,0,1,.4478,1,1,0,.5521-.447,1-1,1H24v1h2.25c.553,0,1,.4478,1,1,0,.5521-.447,1-1,1v-.0008H24v1h2.25v.0008c.553,0,1,.4478,1,1,0,.5521-.447,1-1,1h-1.5v.0007H24v1h.75v-.0007c.5519,0,1,.4481,1,1,0,.5518-.4481,1-1,1v.5l-.0001-.5H17.25c-1.0926,0-2.0805-.1847-2.7909-.7382-.6818-.5312-1.2041-1.4803-1.2091-3.2363v-7.0255h1.2207l.1488-.1632zm-2.3695-.8357v-.0011h1.7793l6.2862-6.89442.0078-.00852.0081-.00815c.3623-.36223.8642-.58894,1.4186-.58894,1.106,0,2,.89618,2,2,0,.24061-.0415.47653-.1255.69793l-.0022.0057h-.0001l-1.888,4.7964H26.25c1.106,0,2,.8961,2,2,0,.597-.2616,1.1334-.6768,1.5.4152.3666.6768.9029.6768,1.5,0,.597-.2616,1.1334-.6768,1.5.4152.3666.6768.9029.6768,1.5,0,1.0279-.7753,1.8757-1.7751,1.9875.1748.297.2751.6431.2751,1.0125,0,1.1041-.8959,2-2,2v-.5l-.0001.5H17.25c-1.1694,0-2.4315-.1904-3.4056-.9494-.218-.1699-.4168-.3643-.5944-.585v1.5475H7.74854v-13.012H12.25zm0,1H8.74854v11.012H12.25v-11.012z"/></svg>