<svg width="24" height="24" viewBox="0,0,24,24" xmlns="http://www.w3.org/2000/svg"><path fill-rule="evenodd" clip-rule="evenodd" d="m2,3.99976h20v5h-.5c-1.4239,0-2.5,1.07614-2.5,2.50004,0,1.4238,1.0761,2.5,2.5,2.5h.5v5H2V3.99976zm1,1V17.9998h13v-.4643h1v.4643h4v-3.0333c-1.7274-.2327-3-1.6609-3-3.4667,0-1.80593,1.2726-3.23411,3-3.4668V4.99976h-4v.46428h-1v-.46428H3zm1.97607,4.92373c0-1.58284,1.18013-2.923,2.731-2.923.6934,0,1.31242.27482,1.78364.71439.47053-.43958,1.08899-.71439,1.78239-.71439,1.2087,0,2.1978.82197,2.5681,1.92934l-1.0279.11522c-.2917-.63773-.8821-1.04456-1.5402-1.04456-.5512,0-1.0466.28738-1.36903.75984l-.41249.60443-.41318-.60395c-.32341-.47275-.81993-.76032-1.37133-.76032-.89165,0-1.67577.75928-1.72821,1.81061-.00185.03711-.00279.07458-.00279.11239,0,.34411.0798.66361.21734.93961.07993.1598.17179.3003.27673.4203l3.01991,3.2861,3.00185-3.2669c.0853-.1146.2352-.3293.2757-.4049.1473-.2834.2335-.6156.2335-.97421,0-.24052-.0384-.46791-.1082-.67634v-.00009c-.0233-.06958-.0499-.13696-.0796-.20193l1.028-.11521c.1042.31154.1598.64612.1598.99357,0,.52061-.1255,1.01191-.3476,1.43811l-.0015.0028c-.0843.1592-.2979.4561-.3758.5593l-.0146.0193-.0164.0178-3.38696,3.686-.36814.4006-.36818-.4006-3.392-3.691-.00734-.008.00009-.0001c-.17161-.195-.31062-.4112-.42381-.6376l-.00026-.0005c-.20637-.414-.32253-.8863-.32253-1.38611zm7.83723-.87836-6.83444.76597,6.83444-.76605v.00008zM16,6.39261v.92857h1v-.92857h-1zm0,1.85715v.92857h1v-.92857h-1zm0,1.85714v.9286h1v-.9286h-1zm0,1.8571v.9286h1v-.9286h-1zm0,1.8572v.9286h1v-.9286h-1zM16,15.6783v.9286h1v-.9286h-1z"/></svg>