<svg width="36" height="36" viewBox="0,0,36,36" xmlns="http://www.w3.org/2000/svg"><path fill-rule="evenodd" clip-rule="evenodd" d="m23.9889,4.76074c-4.0052,0-7.25,3.24643-7.25,7.24996v.0094l.0003.0094c.0211.5615.1087,1.0848.2518,1.5808l.9608-.2772c-.1201-.4162-.1943-.8559-.2129-1.3317.0051-3.44715,2.8003-6.24066,6.25-6.24066,3.4506,0,6.2487,2.79737,6.25,6.24766-.0099.9925-.32,1.8967-.8303,2.7959L24.0069,23.33l-1.1151-1.7603-.8448.5351,1.5375,2.427.4224.6667.4224-.6667,5.8305-9.2025.0063-.0099.0058-.0103c.5719-1.0048.9554-2.0797.967-3.2936v-.0048c0-4.0036-3.2464-7.24996-7.25-7.24996zm.0095,5.49046c-.9673,0-1.75.7827-1.75,1.75,0,.9674.7827,1.75,1.75,1.75.9661,0,1.75-.7828,1.75-1.75,0-.9671-.7839-1.75-1.75-1.75zm-2.75,1.75c0-1.5196,1.2304-2.74998,2.75-2.74998,1.5179,0,2.75,1.23018,2.75,2.74998,0,1.5199-1.2321,2.75-2.75,2.75-1.5196,0-2.75-1.2303-2.75-2.75zM7.49979,16.5h-1.5v1.4895h-1.512v-3h1.5v-.0015h1.512V16.5zm-1.512,14.991h-1.5v-3h1.512v1.4985h1.5v1.512h-1.512v-.0105zm4.50001-3.0015v-1.5H7.49979v-1.5h-.012v-1.488h1.5v2.9865h7.50001v-2.9865h1.5v1.488h-1.4985v1.5h-3v1.5h2.9985v1.512h1.5v1.5h1.512v-.0105h1.5015v-3h-1.512v1.4985h-1.4895v-1.5h-1.5105v-1.5h3.0015v-1.5h1.4985v-1.5h-2.9895V22.491h2.9895v-1.5h-1.4895v-1.5015h-1.5105V18h.0105v-1.5h1.4895v1.4895h1.512v-3h-1.5015v-.0015h-1.512v1.5h-1.5v1.5015h-1.4985v1.4985h-1.4895v-1.5h-1.512v-1.4985H8.98779v1.4985h-1.5v1.5015h-1.5v1.5h-1.5v1.512h1.512v-1.512h2.988v1.5h-1.5v1.5h-3v1.5h1.5v1.512h1.5v1.488h3.00001zm0,0h1.512v1.5h2.9895v1.5h-3v-1.488h-1.4895v1.5H8.98779v-1.512h1.50001v-1.5zM8.99979,19.488h2.98801v-1.4985H8.99979v1.4985zm7.48801,3.0015h1.5v-3h-1.5v3zm-4.4985-6h3v-1.5h-3v1.5zm-.0015,7.512h1.512v-1.512h-1.512v1.512zm3,1.4865h-4.5v-4.5h4.5v4.5z"/></svg>