<svg width="36" height="36" viewBox="0,0,36,36" xmlns="http://www.w3.org/2000/svg"><path fill-rule="evenodd" clip-rule="evenodd" d="m3.25,6.24951h29.5v6.99999h-.5c-2.2739,0-4,1.7262-4,4,0,2.2739,1.7261,4,4,4h.5v7H3.25V6.24951zm1,1V27.2495h27.5v-5.023c-2.5785-.2395-4.5-2.32-4.5-4.977s1.9215-4.7375,4.5-4.977V7.24951H4.25zm15,3.50069V9.00024h-1v1.74996H16.5v1h1.75v1.75h1v-1.75H21v-1h-1.75zm6-.25V9.00024h-1v1.49996h1zm0,1.5v1.5h-1v-1.5h1zm0,4.5v-1.5h-1v1.5h1zm0,1.5v1.5h-1v-1.5h1zm0,4.4993v-1.5h-1v1.5h1zM25.25,23.9995v1.5h-1v-1.5h1zm-4.5-3v-1.7493h1.75v-1h-1.75v-1.7507h-1v1.7507H18v1h1.75v1.7493h1zm-8-8.75c-3.58964,0-6.5,2.9104-6.5,6.5,0,3.5897,2.91036,6.5,6.5,6.5,1.6732,0,3.1807-.6475,4.3274-1.6793l.8583-.7722-1.1504-.0977c-2.8194-.2395-5.0353-2.5758-5.0353-5.4508,0-1.6209.7149-3.0653,1.8411-4.077l.8557-.7687-1.1457-.1013c-.05-.0045-.0952-.0106-.1519-.0183h-.0001l-.0004-.0001c-.0239-.0032-.0499-.0068-.0792-.0106-.0895-.0116-.1995-.024-.3195-.024zm-5.5,6.5c0-2.8252,2.13068-5.1532,4.8727-5.4646-.855,1.0934-1.3727,2.4632-1.3727,3.9646,0,2.9903,2.023,5.4805,4.7657,6.2358-.8126.4838-1.7545.7642-2.7657.7642-3.03736,0-5.5-2.4626-5.5-5.5z"/></svg>