<svg width="36" height="36" viewBox="0,0,36,36" xmlns="http://www.w3.org/2000/svg"><path fill-rule="evenodd" clip-rule="evenodd" d="m31.1457,31.8538-2.1043-2.1043H3.25V7.74955h3.79143L4.14571,4.85384l.70711-.70711L31.8528,31.1467l-.7071.7071zm-5.9789-5.9789,2.8746,2.8746H4.25V8.74955h3.79143L24.7918,25.4999H24.25v.375h.9168zM32.25,7.74955H13.5v1h18.25v5.02365c-2.5581.2441-4.5,2.3462-4.5,4.9763,0,2.6317,1.942,4.7325,4.5,4.9764v3.2736h1v-4.25h-.5c-2.2484,0-4-1.7516-4-4,0-2.2469,1.7518-4,4-4h.5V7.74955h-.5zm-8,1.80007v-.5237h1v.5237h-1zm0,2.09478V10.597h1v1.0474h-1zm0,2.0949v-1.0474h1v1.0474h-1zm0,2.0948v-1.0474h1v1.0474h-1zm0,2.0948v-1.0474h1v1.0474h-1zm0,1.5711v-.5237h1V19.5h-1zm0,7.1249v.75h1v-.75h-1zm0,1.5v.375h1v-.375h-1z"/></svg>