<svg width="36" height="36" viewBox="0,0,36,36" xmlns="http://www.w3.org/2000/svg"><path fill-rule="evenodd" clip-rule="evenodd" d="m2.99927,5.74951H13.4993v-1H2.99927v1zM16.25,23.2502c0-3.8593,3.1406-7,7-7s7,3.1407,7,7c0,3.858-3.1407,7-7,7s-7-3.142-7-7zm7-8c-4.4116,0-8,3.5884-8,8,0,4.4101,3.5883,8,8,8s8-3.5899,8-8c0-4.4116-3.5884-8-8-8zm-.7507-9.50069h-6v-1h6v1zm-6,4.50069h6v-.99996h-6v.99996zm16.5007,0h-7.5v-.99996H33v.99996zm-7.5-4.50069H33v-1h-7.5v1zM13.4993,10.2502H2.99927v-.99996H13.4993v.99996zm-10.50003,4.5H13.4993v-1H2.99927v1zm7.50003,4.5H2.99927v-1h7.50003v1zm-7.50003,4.4993h7.50003v-1H2.99927v1zM10.4993,28.2495H2.99927v-1h7.50003v1zM22.75,18.0002v5.75h5.75v-1h-4.75v-4.75h-1z"/></svg>