<svg width="36" height="36" viewBox="0,0,36,36" xmlns="http://www.w3.org/2000/svg"><path fill-rule="evenodd" clip-rule="evenodd" d="m17.546,4.847-.796-.58455v7.79385l-3.8419-1.2806-.6581-.2194V15.75c0,2.7616,2.2384,5,5,5,2.7929,0,4.7514-2.2711,4.9965-4.9385l.0007-.0048c.0023-.0149.0053-.0357.009-.0624.0072-.0533.0167-.1298.0265-.2274.0197-.195.0408-.4747.0479-.8217.0142-.6931-.0274-1.6596-.2503-2.7594-.4466-2.20381-1.624-4.95149-4.5343-7.0888zm3.711,10.8194-.0001.0009-.0001.0004v.0003l-.0031.0184-.0017.0192c-.2027,2.2752-1.8299,4.0444-4.002,4.0444-2.2094,0-4-1.7906-4-4v-3.8063l3.8419,1.2806.6581.2194V6.29352c2.0881,1.84178,2.9838,4.03288,3.3502,5.84088.2054,1.0134.2436,1.9044.2306,2.5404-.0065.3176-.0257.5704-.043.7417-.0086.0856-.0168.1508-.0226.1933-.0028.0213-.0051.0369-.0066.0465l-.0016.0101zM14.25,22.75h-.6099l.1196.5981,1.5,7.5.0804.4019h3.8198l.0804-.4019,1.5-7.5.1196-.5981H14.25zm1.9099,7.5-1.3-6.5h4.7802l-1.3,6.5h-2.1802z"/></svg>