<svg width="48" height="48" viewBox="0,0,48,48" xmlns="http://www.w3.org/2000/svg"><path fill-rule="evenodd" clip-rule="evenodd" d="m14.0508,4v4h-4v5h4v4h-4v5h4v4h-4v5h4v4h-4v5h4v4h1v-4h18v4h1v-4h4v-5h-4v-4h4v-5h-4v-4h4v-5h-4v-4h4V8h-4V4h-1v4h-18V4h-1zm19,31v-4h-18v4h18zm-18,1h18v3h-18v-3zm-1,0h-3v3h3v-3zm20,3v-3h3v3h-3zm-23-12h3v3h-3v-3zm4,0v3h18v-3h-18zm22,3h-3v-3h3v3zm-22-4h18v-4h-18v4zm18-9v-4h-18v4h18zm-18,1h18v3h-18v-3zm-1,0h-3v3h3v-3zm20,3v-3h3v3h-3zm-23-12h3v3h-3V9zm22,3h-18V9h18v3zm1,0V9h3v3h-3z"/></svg>