<svg width="36" height="36" viewBox="0,0,36,36" xmlns="http://www.w3.org/2000/svg"><path fill-rule="evenodd" clip-rule="evenodd" d="m12,3.25h12v1h-2.7324l-2.3329,3.49927H24c2.3478,0,4.25,1.90399,4.25,4.25003v14.75h-3.441l1,2H27v1h-.691l1,2H28.5v1h-21v-1h1.19098l1-2H9v-1h1.191l1-2H7.75v-14.75c0-2.34604,1.90223-4.25003,4.25-4.25003h5.0653L14.7324,4.25H12v-1zm6,4.09861L20.0657,4.25h-4.1314L18,7.34861zM15,11.75v-1h6v1h-6zM9.80902,31.7493l.99998-2h14.382l1,2H9.80902zm14.88198-3-1-2H12.309l-1,2h13.382zM8.75,19.25v6.4993h18.5V19.25H8.75zm18.5-1v-6.2507c0-1.794-1.4548-3.25003-3.25-3.25003H12c-1.7952,0-3.25,1.45603-3.25,3.25003V18.25h18.5zm-6,4.2493c0-.688.5592-1.25,1.25-1.25s1.25.562,1.25,1.25c0,.6901-.5599,1.25-1.25,1.25s-1.25-.5599-1.25-1.25zM22.5,22.2493c-.1372,0-.25.113-.25.25,0,.1378.1121.25.25.25s.25-.1122.25-.25c0-.137-.1128-.25-.25-.25zm-9-1c-.6908,0-1.25.562-1.25,1.25,0,.6901.5599,1.25,1.25,1.25s1.25-.5599,1.25-1.25c0-.688-.5592-1.25-1.25-1.25zm-.25,1.25c0-.137.1128-.25.25-.25s.25.113.25.25c0,.1378-.1121.25-.25.25s-.25-.1122-.25-.25z"/></svg>