<svg width="24" height="24" viewBox="0,0,24,24" xmlns="http://www.w3.org/2000/svg"><path fill-rule="evenodd" clip-rule="evenodd" d="m10.5,4H10v.99951H8c-1.65727,0-3,1.34399-3,3V18.9995h2.06574l-1.48177,2.2227.83206.5547,1.85156-2.7774h7.46481l1.8516,2.7774.832-.5547-1.4817-2.2227H19V7.99951c0-1.65601-1.3427-3-3-3h-2V4h-3.5zM14,7h-4v1h4V7zm4,5.9995V7.99951c0-1.10399-.8953-2-2-2H8c-1.10473,0-2,.89601-2,2v4.99999h12zM6,13.9995h12v4H6v-4zm8,2c0-.5505.4472-1,1-1s1,.4495,1,1c0,.5522-.4479,1-1,1s-1-.4478-1-1zm-5-1c-.55279,0-1,.4495-1,1,0,.5522.44786,1,1,1s1-.4478,1-1c0-.5505-.44721-1-1-1z"/></svg>