<svg width="24" height="24" viewBox="0,0,24,24" xmlns="http://www.w3.org/2000/svg"><path fill-rule="evenodd" clip-rule="evenodd" d="m22.5,0h-21C.675,0,0,.675,0,1.5v21c0,.825.675,1.5,1.5,1.5h21c.825,0,1.5-.675,1.5-1.5v-21c0-.825-.675-1.5-1.5-1.5z" fill="#2d327d"/><path fill-rule="evenodd" clip-rule="evenodd" d="m5.58,13.7325-2.25,2.25c-.21.21-.33.495-.33.795v2.6475c0,.21.165.375.375.375h.375v-.435c0-1.245,1.005-2.25,2.25-2.25s2.25,1.005,2.25,2.25v.435h7.4625v-.435c0-1.245,1.005-2.25,2.25-2.25s2.25,1.005,2.25,2.25v.435h.4125c.21,0,.375-.165.375-.375v-2.34c0-.195-.15-.36-.345-.375l-4.3875-.3675L13.65,13.725c-.21-.21-.495-.33-.795-.33h-6.48c-.3.015-.585.1275-.795.3375zm4.5075.765c0-.21.165-.375.375-.375h2.3625c.0975,0,.195.0375.2625.1125l1.7925,1.7925c.045.045.0675.0975.0675.1575,0,.1275-.0975.225-.225.225h-4.26c-.21,0-.375-.165-.375-.375v-1.5375zM4.29,16.185c0,.1275.0975.225.225.225H9c.21,0,.375-.165.375-.375v-1.5375c0-.21-.165-.375-.375-.375H6.4125c-.0975,0-.195.045-.2625.1125l-1.7925,1.7925c-.045.0375-.0675.0975-.0675.1575z" fill="#fff"/><path fill-rule="evenodd" clip-rule="evenodd" d="m5.98499,20.3325c-.5175,0-.9375-.42-.9375-.9375s.42-.9375.9375-.9375.9375.42.9375.9375c0,.525-.42001.9375-.9375.9375zm.02249-2.655c-.94499,0-1.70999.765-1.70999,1.71s.765,1.71,1.71,1.71,1.71-.765,1.71-1.71c-.0075-.945-.7725-1.71-1.71001-1.71z" fill="#fff"/><path fill-rule="evenodd" clip-rule="evenodd" d="m17.9625,20.3325c-.5175,0-.9375-.42-.9375-.9375s.42-.9375.9375-.9375.9375.42.9375.9375-.42.9375-.9375.9375zm0-2.64c-.945,0-1.71.765-1.71,1.71s.765,1.71,1.71,1.71,1.7025-.765,1.7025-1.71-.765-1.71-1.7025-1.71z" fill="#fff"/><path fill-rule="evenodd" clip-rule="evenodd" d="m5.2125,4.38001c-.015.2325-.0975.435-.2325.6-.18.2175-.4425.3225-.7725.3225-.3525,0-.63-.1275-.8325-.375-.1725-.2175-.255-.48-.255-.8025,0-.3375.0975-.615.3-.84s.46499-.3375.8025-.3375c.30749,0,.5625.105.75.3075.135.1425.21.3075.22499.5025h-.4875c-.03-.1275-.0825-.225-.1725-.2925-.08999-.0675-.195-.105-.33-.105-.21,0-.375.09-.48.27-.0825.135-.12.3-.12.5025s.045.375.1275.51c.105.1725.2625.2625.4725.2625.15,0,.2625-.045.3525-.1275.09-.09.1425-.2175.165-.3825l.48751-.015z" fill="#fff"/><path fill-rule="evenodd" clip-rule="evenodd" d="m6.55501,5.25004h.4575c-.03-.0675-.045-.135-.0525-.1725-.0075-.06-.0075-.15-.0075-.27v-.345c.0075-.2025.0075-.315.0075-.3375,0-.1275-.015-.2175-.03-.27s-.0525-.105-.1125-.1575c-.1275-.105-.315-.1575-.5775-.1575-.2325,0-.4125.045-.54.1425-.1275.09-.195.2325-.21.42h.42c.015-.0975.0525-.1575.0975-.195s.12-.0525.225-.0525c.195,0,.2925.0675.2925.2175,0,.0675-.0225.1125-.0675.135s-.15.045-.33.0675c-.21.03-.3525.06-.4275.09-.1875.0825-.285.225-.285.435,0,.165.0525.2925.165.3825.0975.0825.2325.12.405.12.2175,0,.3975-.075.54-.2175,0,.045.0075.0975.03.165zm-.3525-.7275c.15-.015.255-.045.315-.0825v.18c0,.0525-.0075.0975-.015.135-.00244.00487-.00487.00993-.00737.01513-.0129.02684-.0275.05724-.05263.08237-.075.09-.18.135-.315.135-.0825,0-.1425-.0225-.1875-.06s-.0675-.0975-.0675-.165c0-.0825.03-.1425.0975-.18.0525-.0225.1275-.045.2325-.06z" fill="#fff"/><path fill-rule="evenodd" clip-rule="evenodd" d="m8.34748,3.53997v.435c-.075-.015-.1275-.0225-.1725-.0225-.165,0-.285.0675-.3675.21-.045.075-.0675.21-.0675.39v.6975h-.44249v-1.68h.4275v.3075c.12-.225.3-.345.52499-.345.0225,0,.06.0075.0975.0075z" fill="#fff"/><path fill-rule="evenodd" clip-rule="evenodd" d="m11.115,3.6675h-.465c-.0075-.1125-.0525-.195-.12-.255-.075-.06001-.1725-.09-.3075-.09-.1125,0-.2025.0225-.27001.0675-.0675.045-.0975.1125-.0975.195,0,.075.03.1275.09.1575.06001.03.21001.0825.45001.135.255.06.435.1275.5325.195.18.12.27.285.27.495,0,.2325-.09.42-.27.5475-.1575.12-.3825.18-.6525.18-.30751,0-.54001-.0675-.71251-.21s-.255-.3375-.2625-.5925h.4875c.0075.1275.0375.2175.0975.2775.09.0975.22501.1425.40501.1425.12,0,.2175-.0225.2925-.075.0825-.0525.12-.1275.12-.225s-.06-.165-.1725-.21001c-.06-.0225-.21-.0675-.4425-.135-.14251-.0375-.26251-.075-.34501-.1125s-.15-.075-.195-.11999c-.1125-.10501-.1725-.24751-.1725-.4275,0-.2175.09-.39.27-.51001.15-.105.3525-.16499.59251-.16499.2175,0,.39.04499.54.12749.2175.13501.3225.33001.3375.60751z" fill="#fff"/><path fill-rule="evenodd" clip-rule="evenodd" d="m11.94,3v.8025c.0525-.09.12-.1575.21-.21s.1875-.075.3-.075c.225,0,.3825.0825.48.24.06.09.0825.2325.0825.4275V5.25H12.57v-.99c0-.12-.015-.21-.0525-.255-.0525-.0675-.1275-.105-.2325-.105-.1425,0-.24.06-.3.1875-.015.0375-.03.0825-.0375.1275s-.0075.12-.0075.2175v.825h-.4425V3h.4425z" fill="#fff"/><path fill-rule="evenodd" clip-rule="evenodd" d="m14.4225,5.25004h.4575c-.0106-.03177-.0195-.06355-.0276-.09219-.009-.03221-.017-.06046-.0249-.08031-.0075-.06-.0075-.15-.0075-.27v-.345c.0075-.2025.0075-.315.0075-.3375,0-.1275-.015-.2175-.03-.27s-.0525-.105-.1125-.1575c-.1275-.105-.315-.1575-.5775-.1575-.2325,0-.4125.045-.54.1425-.1275.09-.195.2325-.21.42h.42c.015-.0975.0525-.1575.0975-.195s.12-.0525.225-.0525c.195,0,.2925.0675.2925.2175,0,.0675-.0225.1125-.0675.135s-.15.045-.33.0675c-.21.03-.3525.06-.4275.09-.1875.0825-.285.225-.285.435,0,.165.0525.2925.165.3825.0975.0825.2325.12.405.12.2175,0,.3975-.075.54-.2175,0,.045.0075.0975.03.165zm-.345-.7275c.15-.015.255-.045.315-.0825v.18c0,.0525-.0075.0975-.015.135-.0024.00487-.0049.00993-.0074.01513-.0129.02684-.0275.05724-.0526.08237-.075.09-.18.135-.315.135-.0825,0-.1425-.0225-.1875-.06s-.0675-.0975-.0675-.165c0-.0825.03-.1425.0975-.18.0525-.0225.1275-.045.2325-.06z" fill="#fff"/><path fill-rule="evenodd" clip-rule="evenodd" d="m16.215,3.53997v.435c-.075-.015-.1275-.0225-.1725-.0225-.165,0-.285.0675-.3675.21-.045.075-.0675.21-.0675.39v.6975h-.4425v-1.68h.4275v.3075c.12-.225.3-.345.525-.345.03,0,.06.0075.0975.0075z" fill="#fff"/><path fill-rule="evenodd" clip-rule="evenodd" d="m16.875,3.405V3h-.4425v.405h.4425zm0,1.845V3.57h-.4425v1.68h.4425z" fill="#fff"/><path fill-rule="evenodd" clip-rule="evenodd" d="m17.655,3.56996v.2325c.0525-.075.0975-.1275.1425-.1575.1125-.0825.2475-.1275.3975-.1275.135,0,.255.0375.3525.105.075.0525.1275.1275.1575.21s.045.2025.045.36v1.0575h-.4425v-.96c0-.105-.0075-.1875-.03-.24-.015-.045-.045-.0825-.09-.105-.045-.03-.105-.045-.165-.045-.0675,0-.1275.015-.1875.0525s-.0975.075-.12.135c-.03.06-.045.165-.045.3v.8625h-.4425v-1.68h.4275z" fill="#fff"/><path fill-rule="evenodd" clip-rule="evenodd" d="m20.67,5.04751v-1.4775l-.42-.015v.225c-.06-.0975-.1275-.165-.2025-.21-.075-.0375-.165-.06-.2775-.06-.2175,0-.39.0825-.525.24-.1275.1575-.1875.36-.1875.615s.06.4575.1875.6075.2925.225.5025.225c.2175,0,.3825-.0825.495-.2625v.21c0,.1425-.0225.2475-.0675.3075-.06.0825-.1575.12-.3.12-.18,0-.2925-.0675-.3225-.21h-.45c.045.3525.3.525.765.525.3375,0,.57-.105.6975-.3075.0375-.0675.0675-.135.0825-.2175s.0225-.18.0225-.315zm-1.095-1.005c.0675-.105.1575-.1575.285-.1575.1125,0,.2025.0375.2625.1125.0825.09.12.21.12.3675,0,.1275-.0225.24-.075.3225-.0675.1125-.165.165-.3.165-.105,0-.1875-.0375-.255-.1125-.075-.09-.1125-.21-.1125-.375,0-.135.0225-.24.075-.3225z" fill="#fff"/></svg>