<svg width="24" height="24" viewBox="0,0,24,24" xmlns="http://www.w3.org/2000/svg"><path fill-rule="evenodd" clip-rule="evenodd" d="m22.5,0h-21C.675,0,0,.675,0,1.5v21c0,.825.675,1.5,1.5,1.5h21c.825,0,1.5-.675,1.5-1.5v-21c0-.825-.675-1.5-1.5-1.5z" fill="#2d327d"/><path fill-rule="evenodd" clip-rule="evenodd" d="m20.715,18.8625c.21,0,.375-.165.375-.375,0-.015,0-.0375,0-.0525l-.3225-2.235H16.875v2.6625h3.84z" fill="#fff"/><path fill-rule="evenodd" clip-rule="evenodd" d="m11.6325,8.19001H3v-.69h7.05l-2.2125-1.5L12,3.63751l4.14,2.3625h.0225l-2.2125,1.5h4.5975c.5625,0,1.035.4125,1.1175.9675l1.005,7.01999H3V11.775h8.6325c.2025,0,.3675-.165.3675-.3675s-.165-.3675-.3675-.3675H3v-.69h8.6325c.2025,0,.3675-.165.3675-.36749,0-.2025-.165-.3675-.3675-.3675H3v-.69h8.6325c.2025,0,.3675-.165.3675-.3675s-.165-.3675-.3675-.3675zM16.65,11.4c0,.21.165.375.375.375h1.9575c.21,0,.375-.165.375-.375v-.0525l-.405-2.83499c-.03-.1875-.1875-.3225-.375-.3225H17.025c-.21,0-.375.165-.375.375V11.4zm-1.845-5.33999-2.1225,1.44h-1.365l-2.13-1.4475L12,4.45501l2.805,1.605z" fill="#fff"/><path fill-rule="evenodd" clip-rule="evenodd" d="m7.79251,18.0225c0-1.0575.855-1.9125,1.9125-1.9125,1.05749,0,1.91249.855,1.91249,1.9125s-.855,1.9125-1.91249,1.9125c-1.0575,0-1.9125-.855-1.9125-1.9125z" fill="#fff"/><path fill-rule="evenodd" clip-rule="evenodd" d="m12.3,18.0225c0-1.0575.855-1.9125,1.9125-1.9125s1.9125.855,1.9125,1.9125-.855,1.9125-1.9125,1.9125S12.3,19.08,12.3,18.0225z" fill="#fff"/><path fill-rule="evenodd" clip-rule="evenodd" d="m21,3v.375H3V3h18z" fill="#fff"/><path fill-rule="evenodd" clip-rule="evenodd" d="m3,21v-.7125h18V21H3z" fill="#fff"/><path fill-rule="evenodd" clip-rule="evenodd" d="m2.85001,16.3125V16.2h4.125v2.6625h-4.125v-2.55z" fill="#fff"/></svg>