<svg width="24" height="24" viewBox="0,0,24,24" xmlns="http://www.w3.org/2000/svg"><path fill-rule="evenodd" clip-rule="evenodd" d="m22.5,0h-21C.675,0,0,.675,0,1.5v21c0,.825.675,1.5,1.5,1.5h21c.825,0,1.5-.675,1.5-1.5v-21c0-.825-.675-1.5-1.5-1.5z" fill="#2d327d"/><path fill-rule="evenodd" clip-rule="evenodd" d="m3.345,16.7175c-.195.015-.345.18-.345.375v2.3325c0,.21.165.375.375.375h.4125v-.4275c0-1.245,1.005-2.25,2.25-2.25s2.25,1.005,2.25,2.25V19.8H15.75v-.4275c0-1.245,1.005-2.25,2.25-2.25,1.2375,0,2.25,1.005,2.25,2.25V19.8h.375c.21,0,.375-.165.375-.375v-2.6475c0-.3-.12-.585-.33-.795l-2.25-2.25c-.21-.21-.495-.33-.795-.33h-6.4875c-.3,0-.585.12-.795.33l-2.61,2.6175-4.3875.3675zm11.28-.6825v-1.5375c0-.21.165-.375.375-.375h2.5875c.0975,0,.195.0375.2625.1125l1.7925,1.7925c.0375.045.0675.0975.0675.1575,0,.1275-.0975.225-.225.225H15c-.2025-.0075-.375-.1725-.375-.375zm-5.5725.1425c0,.1275.0975.225.225.225h4.26c.21,0,.375-.1725.375-.375V14.49c0-.2025-.165-.375-.375-.375H11.175c-.0975,0-.195.045-.2625.1125L9.12,16.02c-.045.0375-.0675.0975-.0675.1575z" fill="#fff"/><path fill-rule="evenodd" clip-rule="evenodd" d="m17.9925,20.22c-.5175,0-.9375-.42-.9375-.9375s.42-.9375.9375-.9375.9375.42.9375.9375-.42.9375-.9375.9375zm0-2.64c-.9375,0-1.71.765-1.71,1.71s.765,1.71,1.71,1.71,1.71-.765,1.71-1.71-.765-1.71-1.71-1.71z" fill="#fff"/><path fill-rule="evenodd" clip-rule="evenodd" d="m6.0375,20.22c-.5175,0-.9375-.42-.9375-.9375s.42-.9375.9375-.9375.9375.42.9375.9375-.42.9375-.9375.9375zm0-2.64c-.945,0-1.71.765-1.71,1.71s.765,1.71,1.71,1.71,1.71-.765,1.71-1.71c-.0075-.945-.7725-1.71-1.71-1.71z" fill="#fff"/><path fill-rule="evenodd" clip-rule="evenodd" d="m4.59,4.83v.4125H3V3h.4875v1.83H4.59z" fill="#fff"/><path fill-rule="evenodd" clip-rule="evenodd" d="m6.225,3.76502c-.1575-.1575-.3525-.24-.6-.24-.27,0-.4875.09-.645.2625-.1425.165-.2175.3675-.2175.6225s.075.465.225.63c.15.1725.36.255.6225.255.2475,0,.45-.0825.6-.2325.165-.165.2475-.3825.2475-.66,0-.2625-.0825-.48-.2325-.6375zm-.9075.2475c.075-.0975.165-.1425.285-.1425.1275,0,.225.0525.2925.15001.0675.08999.105.22499.105.39,0,.18-.0375.31499-.1125.41249-.0675.0825-.165.1275-.2775.1275-.12,0-.2175-.0525-.2925-.1425-.0675-.09-.105-.225-.105-.3975s.0375-.3.105-.3975z" fill="#fff"/><path fill-rule="evenodd" clip-rule="evenodd" d="m8.29499,4.60502c-.0225.165-.07499.3075-.16499.42-.1425.18-.3525.27-.615.27-.27,0-.4875-.09-.6375-.2775-.1275-.1575-.195-.3525-.195-.5925,0-.2925.0825-.5175.25499-.6825.15-.1425.34501-.2175.5775-.2175.2175,0,.3975.06.53251.1725.135.1125.21749.27.2325.465h-.435c-.015-.09-.0525-.1575-.1125-.21-.06001-.0525-.1275-.075-.2175-.075-.1275,0-.2175.045-.285.1425-.06751.0975-.105.225-.105.3975,0,.15.03.27.0825.36.0675.1125.165.165.3.165.195,0,.315-.1125.345-.3375h.44249z" fill="#fff"/><path fill-rule="evenodd" clip-rule="evenodd" d="m9.63,5.25004h.4575c-.0106-.03178-.0195-.06355-.0276-.0922-.009-.0322-.017-.06045-.0249-.0803-.0075-.06-.0075-.15-.0075-.27v-.345c.0075-.2025.0075-.315.0075-.3375,0-.1275-.015-.2175-.03-.27s-.0525-.105-.1125-.1575c-.1275-.105-.315-.1575-.5775-.1575-.23249,0-.4125.045-.54.1425-.1275.09-.195.2325-.21.42h.42001c.01499-.0975.0525-.1575.0975-.195s.12-.0525.225-.0525c.19499,0,.2925.0675.2925.2175,0,.0675-.0225.1125-.0675.135s-.15.045-.33.0675c-.21.03-.3525.06-.4275.09-.1875.0825-.285.225-.285.435,0,.165.0525.2925.165.3825.09749.0825.23249.12.405.12.21749,0,.3975-.075.54-.2175,0,.045.00749.0975.02999.165zm-.345-.7275c.15001-.015.255-.045.31501-.0825l-.00001.18c0,.0525-.0075.0975-.015.135-.00243.00487-.00486.00993-.00736.01513-.0129.02684-.0275.05724-.05264.08237-.075.09-.18.135-.315.135-.0825,0-.1425-.0225-.1875-.06s-.0675-.0975-.0675-.165c0-.0825.03001-.1425.0975-.18.05251-.0225.12751-.045.2325-.06z" fill="#fff"/><path fill-rule="evenodd" clip-rule="evenodd" d="m11.2875,3.56255v.315H10.95v.7875c0,.0975.0075.1575.0225.18.0225.0375.0825.0525.1725.0525.0375,0,.0825,0,.135-.0075v.36c-.0975.015-.195.015-.2775.015-.1275,0-.225-.015-.2925-.045-.105-.045-.165-.1275-.195-.255-.0075-.0525-.015-.1575-.015-.3225v-.7575h-.27v-.315h.27v-.39h.4425v.39h.345v-.0075z" fill="#fff"/><path fill-rule="evenodd" clip-rule="evenodd" d="m11.985,3.405V3h-.4425v.405h.4425zm0,1.845V3.57h-.4425v1.68h.4425z" fill="#fff"/><path fill-rule="evenodd" clip-rule="evenodd" d="m13.7475,3.76502c-.1575-.1575-.3525-.24-.6-.24-.27,0-.48.09-.645.2625-.1425.165-.2175.3675-.2175.6225s.075.465.225.63c.15.1725.36.255.6225.255.2475,0,.45-.0825.6-.2325.165-.165.2475-.3825.2475-.66,0-.2625-.0825-.48-.2325-.6375zm-.9075.2475c.075-.0975.165-.1425.285-.1425.1275,0,.2325.0525.2925.15001.0675.08999.105.225.105.39,0,.18-.0375.31499-.1125.4125-.0675.0825-.165.1275-.2775.1275-.12,0-.2175-.05251-.2925-.14251-.0675-.09-.105-.225-.105-.3975s.0375-.3.105-.3975z" fill="#fff"/><path fill-rule="evenodd" clip-rule="evenodd" d="m14.6925,3.56996v.2325c.0525-.075.0975-.1275.1425-.1575.1125-.0825.2475-.1275.3975-.1275.135,0,.255.0375.3525.105.075.0525.1275.1275.1575.21s.045.2025.045.36v1.0575h-.4425v-.96c0-.105-.0075-.1875-.03-.24-.015-.045-.045-.0825-.09-.105-.045-.03-.105-.045-.165-.045-.0675,0-.1275.015-.1875.0525-.0525.03-.0975.075-.12.135-.03.06-.045.165-.045.3v.8625h-.4425v-1.68h.4275z" fill="#fff"/></svg>