<svg width="24" height="24" viewBox="0,0,24,24" xmlns="http://www.w3.org/2000/svg"><path fill-rule="evenodd" clip-rule="evenodd" d="m12.5,3.00024c-.9775,0-1.8504.40801-2.48,1.04737C8.31839,4.28244,7,5.72708,7,7.50024c0,.71078.21547,1.36844.57607,1.91749l.83585-.54897C8.15252,8.4738,8,8.00547,8,7.50024c0-1.3084,1.00987-2.37317,2.2994-2.47763l.2012-.0163.1335-.15149c.4612-.52337,1.1239-.85458,1.8659-.85458,1.381,0,2.5,1.11825,2.5,2.5,0,.51026-.1531.98187-.4155,1.37384l.831.55633C15.7851,7.87838,16,7.21399,16,6.50024c0-1.93425-1.567-3.5-3.5-3.5zM11.9985,6.501v-.00006c.0001-.27683.2242-.50094.501-.50094.2769,0,.501.2241.501.50092V6.501l-.0007,4.9066c-.0018.0301-.0027.0604-.0027.091h.0027l-.0003,1.5023,1,.0002.0003-1.555c.0261-.2521.2391-.4485.4983-.4485.2781,0,.502.2244.502.501v.99L15,12.5015h.0001v.4991h1v-.5066c.004-.2734.2265-.4935.5009-.4935.2782,0,.502.2245.502.501v.0047l-.0001.0232-.0004.1042c-.0002.0988-.0006.261-.001.5149-.0007.5078-.0015,1.3828-.0015,2.852,0,1.4168-.217,2.4938-.4293,3.2091-.1044.3516-.2078.6162-.284.7909H9.78567l-.00141-.0024-.38886-.6597-1.20113-2.0378c-.88801-1.5067-1.81432-3.0787-1.96996-3.3441-.13598-.2318-.19026-.4056-.19535-.5286-.0041-.099.02102-.1841.11732-.2806.19707-.1964.51366-.1957.7091-.0003h.00008l2.28992,2.291.14646.1465H10v-3.0842l-.00199-4.99881v-.0002c.00011-.27612.22459-.5008.50199-.5008.2605,0,.4743.19838.4987.4524l.0008,5.04721h.0006L11,13.0074l1,.0002.001-5.50602v-.00009c0-.02831-.0008-.05643-.0023-.08435l-.0002-.91614zm2.002.00008L14,10.0821c.1558-.0547.3235-.08454.4981-.08454.6937,0,1.2773.46934,1.45,1.10794.1711-.0678.3577-.105.5529-.105.8298,0,1.502.6715,1.502,1.501v.0093l-.0001.0225-.0004.1032c-.0002.0982-.0006.2599-.001.5135-.0007.5071-.0015,1.3816-.0015,2.8505,0,1.5202-.233,2.6931-.4707,3.4937-.1187.4-.2385.7067-.3307.917-.0462.1051-.0854.1861-.1141.2427-.0143.0283-.0261.0505-.0348.0665l-.0106.0194-.0036.0063-.0012.0022-.0005.0009-.0003.0004c-.0001.0002-.0002.0004-.4335-.2491l.4333.2495-.1442.2505H9.21435l-.14506-.2461.43072-.2539-.43076.2538-.00012-.0002-.00046-.0007-.00185-.0032-.00728-.0123-.02846-.0483-.10829-.1837-.38886-.6597-1.20117-2.0378c-.8875-1.5059-1.81469-3.0794-1.97105-3.346-.17601-.3001-.31723-.6388-.33189-.9931-.01565-.3781.11518-.7349.40964-1.0294l.00045-.0004c.58691-.5854,1.53615-.5861,2.12266.0004l.00007.0001,1.43737,1.438v-1.3775l-.002-4.99881v-.0002c0-.82979.67351-1.501,1.50199-1.501.1947,0,.3807.03703.5513.10443C11.225,5.46804,11.8075,5,12.4995,5c.8292,0,1.501.67186,1.501,1.501v.00008z"/></svg>