<svg width="36" height="36" viewBox="0,0,36,36" xmlns="http://www.w3.org/2000/svg"><path fill-rule="evenodd" clip-rule="evenodd" d="m18,8.75c-2.1398,0-4,2.0515-4,4.75s1.8602,4.75,4,4.75,4-2.0515,4-4.75-1.8602-4.75-4-4.75zm-5,4.75c0-3.1005,2.1688-5.75,5-5.75s5,2.6495,5,5.75c0,1.46-.4809,2.8199-1.2854,3.8503,4.2512,1.9385,6.5354,7.126,6.5354,11.9001v.5H7.75v-.5c0-4.7468,2.2811-9.9498,6.5351-11.9004C13.4808,16.3196,13,14.9598,13,13.5zm5.8751,5.6635c-.2831.0568-.5754.0865-.8751.0865-.3009,0-.5943-.0299-.8784-.0871l.878,1.0552.8755-1.0546zm-3.9038-1.0218c-3.7952,1.5703-6.05503,6.1312-6.21248,10.6087h8.78408l-1.3965-1.3964-.2002-.2002.0687-.2747,1.4385-5.7539-2.4821-2.9835zm3.4858,10.6087h8.7842c-.1569-4.5051-2.4221-9.0526-6.2175-10.6094l-2.4773,2.9839,1.4385,5.7542.0687.2747-1.5966,1.5966zm.4891-1.9034L18,23.062l-.9463,3.785.9463.9463.9462-.9463z"/></svg>