<svg width="24" height="24" viewBox="0,0,24,24" xmlns="http://www.w3.org/2000/svg"><path fill-rule="evenodd" clip-rule="evenodd" d="m8.5,9.00024c0-1.73196,1.18869-3,2.5-3,1.3113,0,2.5,1.26804,2.5,3S12.3113,12.0002,11,12.0002c-1.31131,0-2.5-1.268-2.5-2.99996zm2.5-4c-2.00269,0-3.5,1.86597-3.5,4,0,.92907.28379,1.80736.76953,2.50296C5.47273,12.9022,4,16.367,4,19.5v.5h10v-1H5.01337c.15269-2.8643,1.6057-5.7092,3.97009-6.7259.56188.4545,1.25244.7261,2.01654.7261.7642,0,1.4548-.2717,2.0167-.7263,1.5859.6712,2.8622,2.1416,3.5147,3.8997l.9375-.3479c-.6866-1.8499-2.0109-3.4752-3.7373-4.3242.4851-.6953.7684-1.57292.7684-2.50126,0-2.13403-1.4973-4-3.5-4zm7,11.99956v2h-2v1h2v2h1v-2h2v-1h-2v-2h-1z"/></svg>