<svg width="36" height="36" viewBox="0,0,36,36" xmlns="http://www.w3.org/2000/svg"><path fill-rule="evenodd" clip-rule="evenodd" d="m18.0001,4.7229.1581.0527,6.75,2.25001,1.4254.47513-1.4258.47371-2.6577.88292v2.98893l-.0494.0448c.5071.9026.8002,1.9727.8002,3.1082,0,1.4835-.5068,2.879-1.3538,3.9237,4.0789,1.9283,6.6034,6.6582,6.6034,11.8263v.5002l-.5002-.0002-19.5-.0075-.49981-.0002v-.4998c0-5.619,2.65111-10.0203,6.59721-11.8121-.6021-.746-1.0304-1.6714-1.2266-2.6798H8.52536l.41268-.7428,1.81206-3.2617V7.86071l-1.08349-.35997,1.42539-.47513,6.75-2.25001.1581-.0527zM15.1024,19.694c-3.5849,1.4474-6.18842,5.3164-6.34449,10.548l18.48419.0071c-.1612-4.8198-2.6438-9-6.3461-10.5669-.8102.6671-1.8078,1.0671-2.9086,1.0671-1.0946,0-2.0826-.3954-2.885-1.0553zm-.5187-7.1625c1.9038,1.3221,4.554,1.601,6.8283.0037.3721.7201.5889,1.5646.5889,2.4641,0,2.6643-1.8544,4.75-4.0135,4.75-2.1543,0-3.9865-2.0816-3.9865-4.75,0-.9012.2136-1.7474.5828-2.4678zM13.7501,11.8439l.0453.0417c-.435.7784-.7095,1.6812-.7778,2.6412l-1.2675-2.2814V8.19293l2,.66444v2.98653zm1-2.6543v2.2101c1.7204,1.4618,4.3521,1.8111,6.5-.0017V9.1896l-3.0923,1.0273-.1577.0524-.1576-.0524-3.0924-1.0273zm-1.9165-1.69044,5.1665,1.71642,5.1665-1.71643-5.1665-1.72216-5.1665,1.72217zm-1.5835,5.90534,1.0253,1.8454h-2.0505l1.0252-1.8454z"/></svg>