<svg width="24" height="24" viewBox="0,0,24,24" xmlns="http://www.w3.org/2000/svg"><path fill-rule="evenodd" clip-rule="evenodd" d="m12.0003,6.99905c.438,0,.8365.17088,1.1711.47238l.02.0184c.0385.03552.0761.07279.1126.11173.4186.4472.6957,1.11585.6957,1.89988,0,.04503-.0027.08743-.0072.13521-.0022.02218-.0047.04573-.0075.07177v.00008l-.0068.06317-.0059.05505.0004.00003-.0002.00149-.0007-.00007c-.1327,1.31383-.9918,2.17323-1.9715,2.17323-.9635,0-1.8094-.8294-1.9648-2.10402l-.0074-.07096c-.004-.03895-.0079-.0731-.0114-.10396v-.00013c-.01-.08925-.01692-.15087-.01692-.22118,0-.85184.32812-1.56789.80902-2.01148l.0325-.02996c.3317-.29412.7255-.46066,1.159-.46066zM9.59243,11.5995c-.16827-.2693-.30309-.5665-.4003-.8817-.3583.1797-.75929.2833-1.19235.2833-.67916,0-1.27567-.2388-1.75416-.6365-1.93198,1.2307-3.05332,3.1475-3.22394,5.6325h3.335c.52607-1.8373,1.62394-3.3346,3.23575-4.3976zm-3.45988,5.3976c-.07932.4794-.12359.9784-.13197,1.4954l-.00822.5081H18.0374l-.0381-.5355c-.0359-.5034-.0976-.9924-.1876-1.465h4.2257l-.0382-.5355c-.2042-2.8707-1.2498-5.2739-3.5964-6.84216.3823-.59981.5973-1.34309.5973-2.12142,0-1.84953-1.213-3.502-3-3.502-1.3769,0-2.4084.9914-2.8077,2.28374-.3584-.17993-.7593-.28371-1.1921-.28371-.4332,0-.8342.10366-1.1925.28344-.399-1.29231-1.43066-2.28334-2.80802-2.28334-1.78597,0-3,1.65232-3,3.502,0,.76938.21025,1.50447.58442,2.10059C3.2983,11.1129,2.04975,13.4986,2.00034,16.4888l-.0084.5083h4.14061zm9.86755-5.9961c.6703,0,1.26-.2324,1.7351-.6205,1.9644,1.2635,2.9394,3.1803,3.2172,5.6196h-3.3818c-.5275-1.7848-1.5337-3.2868-3.1755-4.3814.174-.2745.313-.5786.4126-.9015.3584.18.7595.2838,1.1924.2838zm-1.9414-4.05636c.5921.64602.9414,1.55534.9414,2.55638,0,.05388-.0027.10884-.0065.16162.2979.21761.6382.33836,1.0065.33836,1.0632,0,2-1.01486,2-2.49998,0-1.48646-.9371-2.502-2-2.502-.9217,0-1.737.76164-1.9414,1.94562zm-2.0584,6.05676c-.6779,0-1.2721-.2399-1.7483-.6377-1.93567,1.2306-3.0601,3.1491-3.23024,5.6369h9.93074c-.2782-2.4414-1.2546-4.3587-3.2226-5.622-.473.3889-1.0606.6228-1.7296.6228zM7.99978,4.99915c-1.06202,0-2,1.01567-2,2.502,0,1.48497.93769,2.49995,2,2.49995.36875,0,.7088-.12049,1.00637-.33757-.00388-.05276-.0065-.10782-.0065-.16246,0-1.00151.35038-1.9107.94168-2.55644-.20362-1.1837-1.01878-1.94548-1.94155-1.94548z"/></svg>