<svg width="24" height="24" viewBox="0,0,24,24" xmlns="http://www.w3.org/2000/svg"><path fill-rule="evenodd" clip-rule="evenodd" d="m4.49699,10.001L19.5,10c.8295,0,1.5.6722,1.5,1.5h.001V16H22v1h-.999v1h-1.0012c-.0003,1.1051-.8962,1.9995-2,1.9995s-1.9997-.8944-2-1.9995h-8c-.00026,1.1049-.89502,1.9995-2,1.9995-1.10376,0-1.99973-.8944-2-1.9995h-.99956l-.00025-.4998L2.99974,17H2v-1h.99924l-.00225-4.4987v-.0003c0-.8281.67184-1.5,1.49997-1.5h.00003zM16.9998,18c.0003.5524.4481.9995,1,.9995s.9997-.4471,1-.9995h-2zm-11,.9995c-.55191,0-.99973-.4471-1-.9995h2c-.00026.5526-.4473.9995-1,.9995zM19.5,11l-15.00297.001h-.00004c-.27582,0-.49994.2241-.5.4999v.0001L3.99974,17H5v-3.9995h4V17h11.001v-5.5H20c0-.2762-.2235-.5-.5-.5zM8,17H6v-2.9995h2V17zm2.5-4H10v3h9.001v-3H10.5zm.5,2v-1h7.001v1H11z"/></svg>