<svg width="24" height="24" viewBox="0,0,24,24" xmlns="http://www.w3.org/2000/svg"><path fill-rule="evenodd" clip-rule="evenodd" d="m13,7.49976c0-1.95578,1.5451-3.5,3.5-3.5,1.9559,0,3.5,1.54414,3.5,3.5,0,1.95585-1.5441,3.50004-3.5,3.50004-1.9549,0-3.5-1.54427-3.5-3.50004zm3.5-4.5c-2.5071,0-4.5,1.99177-4.5,4.5,0,2.50824,1.9929,4.50004,4.5,4.50004,2.5081,0,4.5-1.9919,4.5-4.50004,0-2.50815-1.9919-4.5-4.5-4.5zm.3915,5.3103,1.901-2.4-.7839-.6209-1.5712,1.98369-1.5033-1.34577-.667.74506,1.899,1.7.3957.35423.3297-.41631zM12,15.01h9V21h-9v-5.99zm1,1V20h7v-3.99h-7zm2.001-1.0005h3v-1h-3v1zM5.49951,6.00024c-.27618,0-.5.22347-.5.5,0,.27586.22414.5.5.5s.5-.22414.5-.5c0-.27653-.22381-.5-.5-.5zm-1.5.5c0-.82946.67219-1.5,1.5-1.5.82782,0,1.5.67054,1.5,1.5,0,.82815-.67186,1.5-1.5,1.5s-1.5-.67185-1.5-1.5zm-.5,2.49952h-.5v6.00004h1v6h3v-6h1V8.99976h-4.5zm1,5.00004h-.5V9.99976h3v4.00004h-1v6h-1v-6h-.5z"/></svg>