<svg width="24" height="24" viewBox="0,0,24,24" xmlns="http://www.w3.org/2000/svg"><path fill-rule="evenodd" clip-rule="evenodd" d="m15,6h2v15H7v-9H6V7h1V6h7V3h1v3zM8,7v13h8V7H8zm7,7v1H9v-1h6zm-6,2v1h6v-1H9zm6,2v1H9v-1h6zm-4-8c0-.22928.1114-.48259.3144-.68557C11.5174,9.11144,11.7707,9,12,9s.4826.11144.6856.31443c.203.20298.3144.45629.3144.68557,0,.2297-.1113.4831-.3137.6859-.2025.2028-.4551.3141-.6843.3141-.2294,0-.4833-.1116-.6869-.3147C11.1116,10.4821,11,10.2288,11,10zm1-2c-.5417,0-1.0384.25306-1.3927.60732C10.2531,8.96159,10,9.45828,10,10c0,.5422.2539,1.0389.6086,1.393s.8518.607,1.3934.607c.5418,0,1.0382-.2532,1.392-.6076.3538-.3545.606-.8511.606-1.3924,0-.54172-.2531-1.03841-.6073-1.39268C13.0384,8.25306,12.5417,8,12,8z"/></svg>