<svg width="36" height="36" viewBox="0,0,36,36" xmlns="http://www.w3.org/2000/svg"><path fill-rule="evenodd" clip-rule="evenodd" d="m22.25,9.25h3v22h-14.5v-13.5h-1.5v-7h1.5v-1.5h10.5V4.5h1v4.75zm-11.5,2.5v5h-.5v-5h.5zm1-1.5v20h12.5v-20h-12.5zm10.75,11v1h-9v-1h9zm-9,3v1h9v-1h-9zm9,3v1h-9v-1h9zM16.25,15c0-.422.2026-.8628.5449-1.2051S17.578,13.25,18,13.25s.8628.2026,1.2051.5449S19.75,14.578,19.75,15c0,.4225-.2022.8634-.5437,1.2055-.3415.342-.7814.5445-1.2033.5445-.4222,0-.8638-.2027-1.207-.5452-.3431-.3425-.546-.7832-.546-1.2048zM18,12.25c-.7345,0-1.4187.3442-1.9122.8378-.4936.4935-.8378,1.1777-.8378,1.9122,0,.7349.3453,1.4192.8396,1.9126.4942.4933,1.1791.8374,1.9134.8374.7346,0,1.4182-.3443,1.9111-.8381.4928-.4938.8359-1.1779.8359-1.9119,0-.7345-.3442-1.4187-.8378-1.9122-.4935-.4936-1.1777-.8378-1.9122-.8378z"/></svg>