<svg width="36" height="36" viewBox="0,0,36,36" xmlns="http://www.w3.org/2000/svg"><path fill-rule="evenodd" clip-rule="evenodd" d="m24.1777,15.0988c.6783.1066,1.24.427,1.6632.8865.5418.5883.8348,1.379.8966,2.1844.1225,1.5978-.6668,3.4335-2.5516,4.0551l-.3132-.9497c1.3402-.4419,1.9646-1.766,1.8677-3.029-.0479-.6251-.2728-1.19-.6351-1.5834-.3525-.3828-.8557-.6278-1.5361-.6006l-.6969.0278.1974-.669c.7493-2.5385-.531-4.3233-2.2127-4.9375-1.6891-.61689-3.8102-.0663-4.8253,2.2498l-.2656.606-.5105-.421c-1.6262-1.3413-4.2984-.0753-4.0003,2.4338l.0664.5589h-.5629c-1.06547,0-1.86541.9655-1.99263,2.2578-.12366,1.2564.43608,2.5688,1.85713,3.0541l-.3231.9463c-1.96592-.6712-2.68642-2.5013-2.52922-4.0983.13793-1.4012.99167-2.8329,2.46112-3.1113.0058-2.8228,2.9475-4.4034,5.1492-3.1638,1.3316-2.38988,3.8132-2.98408,5.8187-2.25159,2.0111.73449,3.5202,2.79109,2.9777,5.55469zM16.539,25.4988h1.32v-1.257h-1.32v1.257zm-1.6395-7.8568c-.2685.411-.417.9915-.4455,1.7415h1.0515c.0855-1.3215.672-1.983,1.7595-1.983.5265,0,.924.168,1.1925.5025.225.273.336.612.336,1.014,0,.2175-.039.432-.1155.642-.0945.246-.2925.522-.5925.8265-.4695.477-.7725.7995-.909.9735-.1365.1725-.24.3675-.3135.5865-.1035.297-.1575.756-.1665,1.3725h1.0395c0-.348.021-.6285.0615-.8475.0375-.216.1005-.399.192-.5475.093-.1455.255-.33.486-.552.5265-.5085.858-.855.996-1.044.3105-.417.465-.912.465-1.488,0-.696-.228-1.2585-.684-1.686-.489-.4635-1.1475-.6945-1.974-.6945-.5145,0-.9765.102-1.389.3075-.411.2055-.741.498-.99.876z"/></svg>