<svg width="36" height="36" viewBox="0,0,36,36" xmlns="http://www.w3.org/2000/svg"><path fill-rule="evenodd" clip-rule="evenodd" d="m3.75,3.25h-.5v29.5h29.5V3.25h-29zm.5,28.5V4.25h27.5v27.5H4.25zm8.5777-15.7977c-2.1108,1.0757-3.57001,3.2725-3.57001,5.7975,0,3.5732,2.92681,6.5,6.50001,6.5,2.5917,0,4.8402-1.5386,5.882-3.7423l-.904-.4274c-.8843,1.8704-2.7907,3.1697-4.978,3.1697-3.0209,0-5.5-2.4791-5.5-5.5,0-2.1309,1.2318-3.9932,3.024-4.9065l-.454-.891zm2.4223,4.2973v-8.25h1v7.75h7.5v8.75h-1v-7.75h-7.5v-.5zm.25-11.24923c0-.13786.1121-.25.25-.25s.25.11214.25.25c0,.13785-.1121.25-.25.25s-.25-.11215-.25-.25zm.25-1.25c-.6901,0-1.25.55985-1.25,1.25,0,.69014.5599,1.25003,1.25,1.25003S17,9.69051,17,9.00037c0-.69015-.5599-1.25-1.25-1.25z"/></svg>