<svg width="36" height="36" viewBox="0,0,36,36" xmlns="http://www.w3.org/2000/svg"><path fill-rule="evenodd" clip-rule="evenodd" d="m15.7501,8.75049c-.1378,0-.25.11214-.25.25s.1122.25.25.25c.1379,0,.25-.11214.25-.25s-.1121-.25-.25-.25zm-1.25.25c0-.69014.5599-1.25,1.25-1.25.6902,0,1.25.55986,1.25,1.25s-.5598,1.25001-1.25,1.25001c-.6901,0-1.25-.55987-1.25-1.25001zm.75,11.24931v-8.25h1v7.75h7.5v8.75h-1v-7.75h-7.5v-.5zm-2.4223-4.2973c-2.1108,1.0756-3.56999,3.2724-3.56999,5.7975,0,3.5731,2.92689,6.5,6.49999,6.5,2.5917,0,4.8403-1.5387,5.882-3.7423l-.904-.4275c-.8842,1.8704-2.7907,3.1698-4.978,3.1698-3.0208,0-5.5-2.4792-5.5-5.5,0-2.131,1.2318-3.9932,3.024-4.9066l-.454-.8909z"/></svg>