<svg width="36" height="36" viewBox="0,0,36,36" xmlns="http://www.w3.org/2000/svg"><path fill-rule="evenodd" clip-rule="evenodd" d="m2.96582,12.7237C6.74546,8.7459,12.075,6.25015,17.9998,6.25015c5.9233,0,11.2528,2.49576,15.0325,6.47355l-.725.6889c-3.6004-3.78922-8.6718-6.16245-14.3075-6.16245-5.6372,0-10.70869,2.37325-14.30904,6.16245l-.72494-.6889zM17.9998,25.2496c-.9672,0-1.75.7839-1.75,1.75,0,.966.7828,1.75,1.75,1.75.9671,0,1.75-.784,1.75-1.75,0-.9661-.7829-1.75-1.75-1.75zm-2.75,1.75c0-1.518,1.2301-2.75,2.75-2.75,1.5198,0,2.75,1.232,2.75,2.75,0,1.5179-1.2302,2.75-2.75,2.75-1.5199,0-2.75-1.2321-2.75-2.75zM18,10.7501c-4.6392,0-8.8138,1.9543-11.77301,5.0697l.72506.6887C9.73184,13.5819,13.6483,11.7501,18,11.7501c4.3518,0,8.2682,1.8318,11.048,4.7584l.725-.6887c-2.9592-3.1154-7.1337-5.0697-11.773-5.0697zm-8.5057,8.1726c2.1387-2.2531,5.1584-3.6673,8.5136-3.6673,3.3521,0,6.3671,1.4095,8.5058,3.6579l-.7245.6892c-1.9593-2.0596-4.7163-3.3471-7.7813-3.3471-3.0677,0-5.8291,1.2918-7.7883,3.3557l-.7253-.6884zm8.5052.8271c-2.0729,0-3.928.88-5.2465,2.2676l.7249.6889c1.1416-1.2014,2.7395-1.9565,4.5216-1.9565,1.7808,0,3.3815.7552,4.5213,1.9562l.7254-.6883c-1.3173-1.388-3.1756-2.2679-5.2467-2.2679z"/></svg>