<svg width="24" height="24" viewBox="0,0,24,24" xmlns="http://www.w3.org/2000/svg"><path fill-rule="evenodd" clip-rule="evenodd" d="m22.5,0h-21C.675,0,0,.675,0,1.5v21c0,.825.675,1.5,1.5,1.5h21c.825,0,1.5-.675,1.5-1.5v-21c0-.825-.675-1.5-1.5-1.5z" fill="#2d327d"/><path fill-rule="evenodd" clip-rule="evenodd" d="m14.7375,7.5H18.75C19.995,7.5,21,8.505,21,9.75v9c0,1.245-1.005,2.25-2.25,2.25H5.25C4.0125,21,3,19.995,3,18.75v-9C3,8.505,4.005,7.5,5.25,7.5h4.0125v-.9c0-.7425.6075-1.35,1.35-1.35h2.775c.7425,0,1.35.6075,1.35,1.35v.9zm-4.425,0h3.375V6.3h-3.375v1.2z" fill="#fff"/><path fill-rule="evenodd" clip-rule="evenodd" d="m4.48499,14.1375c0-2.9175,2.36999-5.21245,5.2875-5.21245S15.06,11.22,15.06,14.1375,12.69,19.5,9.77249,19.5c-2.9175,0-5.2875-2.445-5.2875-5.3625zm1.5.1725c0,2.0925,1.695,3.7875,3.7875,3.7875,2.09251,0,3.78751-1.7025,3.78751-3.7875,0-2.0925-1.695-3.7875-3.78751-3.7875-2.0925,0-3.7875,1.695-3.7875,3.7875z" fill="#eb0000"/><path fill-rule="evenodd" clip-rule="evenodd" d="m7.72498,14.8501H11.85c.3075,0,.5625-.255.5625-.5625s-.255-.5625-.5625-.5625H7.72498c-.3075,0-.5625.255-.5625.5625s.255.5625.5625.5625z"/><path fill-rule="evenodd" clip-rule="evenodd" d="m9.41249,12.3076v.1725l-.57.6825h.585v.195h-.885v-.18l.5625-.6675h-.525v-.195l.8325-.0075z"/><path fill-rule="evenodd" clip-rule="evenodd" d="m10.2,12.6601c-.0675-.075-.165-.1125-.27754-.1125-.1275,0-.23251.045-.3075.1275-.0675.0675-.0975.165-.0975.285s.0375.2175.105.2925c.075.0825.17249.12.2925.12.11254,0,.21004-.0375.27754-.105.075-.075.1125-.18.1125-.3075s-.0375-.225-.105-.3zm-.42004.12c.03-.045.075-.0675.1275-.0675.05999,0,.10504.0225.13504.0825.03.0375.045.105.045.18,0,.0825-.015.1425-.0525.1875-.03.0375-.07504.06-.12754.06s-.105-.0225-.135-.0675-.045-.105-.045-.1875.0225-.1425.0525-.1875z"/><path fill-rule="evenodd" clip-rule="evenodd" d="m10.65,12.3076v1.05h-.21v-1.05h.21z"/><path fill-rule="evenodd" clip-rule="evenodd" d="m11.0325,12.3076v1.05h-.21v-1.05h.21z"/></svg>