<svg width="36" height="36" xmlns="http://www.w3.org/2000/svg"><path fill-rule="evenodd" clip-rule="evenodd" d="m6.74379,10.7471,22.50451-.0015c1.106,0,2,.8962,2,2h.0015v11.5007h1.7485v1h-1.7485v1.5008h-1.5144c.0082.0812.0126.164.0126.2485,0,1.5199-1.2321,2.75-2.75,2.75s-2.75-1.2301-2.75-2.75c0-.0845.0044-.1673.0126-.2485H11.7354c.0082.0812.0126.164.0126.2485,0,1.5199-1.2321,2.75-2.75001,2.75-1.51792,0-2.75-1.2301-2.75-2.75,0-.0845.00439-.1673.01256-.2485H4.7469l-.00033-1.5008H2.99829v-1h1.74806l-.00256-11.4991v-.0001c0-1.1041.89584-2,1.99997-2h.00003zm18.52511,16h3.4582c.0137.0826.0209.1654.0209.2485,0,.9671-.7839,1.75-1.75,1.75s-1.75-.7829-1.75-1.75c0-.0831.0072-.1659.0209-.2485zm-18.00004,0h3.45824c.0137.0826.0209.1654.0209.2485,0,.9671-.78393,1.75-1.75001,1.75-.96607,0-1.75-.7829-1.75-1.75,0-.0831.00723-.1659.02087-.2485zM29.2483,11.7456l-22.50447.0015h-.00004c-.55182,0-.99995.4481-1,.9999v.0001l.00289,13H7.7483v-6h5.5v6h17.0015V12.7456h-.0015c0-.5522-.447-1-1-1zm-17,14.0015h-3.5v-5h3.5v5zM8.24859,13.7456h-.5v4H28.2501v-4H8.24859zm.5,3v-2H27.2501v2H8.74859zm6.50001,3.0015h13.0015v4H15.2486v-4zm1,1v2h11.0015v-2H16.2486z"/></svg>