<svg width="24" height="24" xmlns="http://www.w3.org/2000/svg"><path fill-rule="evenodd" clip-rule="evenodd" d="m6,8.01489c0-3.31414,2.68586-6,6-6,3.3131,0,6,2.6858,6,6v.00445c-.009,1.0083-.3274,1.90103-.7998,2.72846l-.0057.0099-.0061.0097-4.75,7.499-.4224.6669-.4224-.6669-4.74999-7.499-.00632-.0099.00012-.0001c-.48651-.80977-.79625-1.68364-.83703-2.7229L6,8.0247v-.00981zm1.55664,1.98531c.04278.0795.0878.1585.13497.2372l4.32439,6.8271,4.3214-6.8223c.0477-.0839.0932-.1679.1364-.25196h-2.2825l-.1384-.27549-.4866-.96828-1.0985,2.92933-.5638,1.5035-.3895-1.5578L10.404,7.17927,9.46779,9.67581l-.12167.32439H7.55664zm-.40475-.99996h1.50123l1.37838-3.67556.5638-1.50346.3894,1.55776,1.1106,4.44224.9362-2.49654.4015-1.07066.5134,1.02172.8615,1.7145h2.0582c.0842-.31724.1307-.64142.1339-.97756-.0012-2.76078-2.2398-4.99779-5-4.99779-2.75858,0-4.9947,2.23284-4.99999,4.99019.01453.35234.06636.68139.15188.99516zM4.06787,16.3012c1.17742-.52,2.80703-.9116,4.67788-1.1235l.1125.9937c-1.81215.2052-3.33354.5795-4.38637,1.0445-.52779.2331-.91245.478-1.15767.715C3.06981,18.167,3,18.3577,3,18.4996c0,.1804.11699.4436.54306.7623.41675.3118,1.05192.6145,1.88259.8779,1.65554.5251,3.97721.8598,6.57435.8598,2.5977,0,4.9193-.3347,6.5747-.8598.8306-.2634,1.4657-.5661,1.8823-.8779.426-.3187.543-.5819.543-.7623,0-.1407-.0687-.3295-.3088-.5633-.2411-.2348-.6195-.4778-1.1396-.7097-1.0374-.4626-2.5377-.8368-4.3275-1.0454l.1158-.9933c1.8482.2154,3.4569.6072,4.619,1.1254.5797.2585,1.0736.5595,1.43.9066.3573.348.6111.7788.6111,1.2797,0,.642-.4119,1.165-.9439,1.563-.5413.405-1.2933.7495-2.1791,1.0304-1.7773.5638-4.2057.9066-6.877.9066-2.67086,0-5.09919-.3429-6.87665-.9066-.88583-.2809-1.63791-.6254-2.17929-1.0303C2.41201,19.6647,2,19.1416,2,18.4996c0-.5047.25756-.9383.61932-1.2878.36093-.3488.86122-.6512,1.44855-.9106z"/></svg>