<svg width="48" height="48" xmlns="http://www.w3.org/2000/svg"><path fill-rule="evenodd" clip-rule="evenodd" d="m16.643,4.99951c-1.447,0-2.643,1.20227-2.643,2.682V38h20V7.68151c0-1.47973-1.196-2.682-2.643-2.682H16.643zM34,39H14v2.3185c0,1.4795,1.1958,2.681,2.643,2.681h14.714c1.4472,0,2.643-1.2015,2.643-2.681V39zM13,7.68151c0-2.02026,1.632-3.682,3.643-3.682h14.714c2.011,0,3.643,1.66174,3.643,3.682V41.3185c0,2.0205-1.6322,3.681-3.643,3.681H16.643c-2.0108,0-3.643-1.6605-3.643-3.681V7.68151zM26,42h-4v-1h4v1zm2-34h-6V7h6v1zm-8,0h1V7h-1v1z"/></svg>