<svg width="24" height="24" xmlns="http://www.w3.org/2000/svg"><path fill-rule="evenodd" clip-rule="evenodd" d="m16.311,9.93392c.4157.09908.7667.31438,1.0389.60988.3911.4246.5978.9895.6413,1.5564.0859,1.121-.4678,2.4301-1.8151,2.8744l-.3132-.9496c.8027-.2647,1.1915-1.0621,1.1312-1.8483-.0297-.3868-.1682-.7257-.3798-.9555-.2018-.2192-.49-.363-.8948-.3468l-.697.0278.1975-.6689c.4735-1.60425-.3303-2.70731-1.3725-3.08797-1.0496-.38335-2.3682-.04741-3.007,1.41017l-.2656.60606-.5105-.42103c-.96429-.7953-2.577-.05431-2.39538,1.47427l.06642.559h-.56293c-.58919,0-1.08213.5381-1.16253,1.3549-.07685.7807.26952,1.5694,1.1261,1.8619l-.32313.9464c-1.40143-.4785-1.90855-1.7848-1.79816-2.9063.09202-.9347.64989-1.9332,1.64332-2.19251.09173-1.86239,2.00942-2.92368,3.53229-2.19592.9473-1.55215,2.6314-1.93615,4.0001-1.43625,1.3746.50201,2.4091,1.88422,2.1205,3.7279zm-5.285,7.06518h.88v-.838h-.88v.838zm-1.09301-5.238c-.179.274-.278.661-.297,1.161h.70101c.057-.881.448-1.322,1.173-1.322.351,0,.616.112.795.335.15.182.224.408.224.676,0,.145-.026.288-.077.428-.063.164-.195.348-.395.551-.313.318-.515.533-.606.649-.091.115-.16.245-.209.391-.069.198-.105.504-.111.915h.693c0-.232.014-.419.041-.565.025-.144.067-.266.128-.365.062-.097.17-.22.324-.368.351-.339.572-.57.664-.696.207-.278.31-.608.31-.992,0-.464-.152-.839-.456-1.124-.326-.309-.765-.463-1.316-.463-.343,0-.651.068-.926.205-.274.137-.494.332-.66001.584z"/></svg>