<svg width="24" height="24" xmlns="http://www.w3.org/2000/svg"><path fill-rule="evenodd" clip-rule="evenodd" d="m22.5,0h-21C.675,0,0,.675,0,1.5v21c0,.825.675,1.5,1.5,1.5h21c.825,0,1.5-.675,1.5-1.5v-21c0-.825-.675-1.5-1.5-1.5z" fill="#2d327d"/><path fill-rule="evenodd" clip-rule="evenodd" d="m16.05,15.8474c1.455,0,2.6325,1.185,2.6325,2.6325,0,1.455-1.185,2.6325-2.6325,2.6325-1.455,0-2.6325-1.185-2.6325-2.6325,0-1.455,1.1775-2.6325,2.6325-2.6325zm0,4.5c1.0275,0,1.8675-.8325,1.8675-1.8675,0-1.0275-.84-1.8675-1.8675-1.8675s-1.8675.8325-1.8675,1.8675c0,1.0275.84,1.8675,1.8675,1.8675z" fill="#fff"/><path fill-rule="evenodd" clip-rule="evenodd" d="m9.2925,15.8474c1.455,0,2.6325,1.185,2.6325,2.6325,0,1.455-1.1775,2.6325-2.6325,2.6325S6.66,19.9274,6.66,18.4799c0-1.455,1.185-2.6325,2.6325-2.6325zm.0075,4.5c1.0275,0,1.8675-.8325,1.8675-1.8675,0-1.0275-.84-1.8675-1.8675-1.8675s-1.8675.8325-1.8675,1.8675c0,1.0275.8325,1.8675,1.8675,1.8675z" fill="#fff"/><path fill-rule="evenodd" clip-rule="evenodd" d="m20.115,9.47998c-.225,2.13002-1.0875,4.07252-2.4,5.62502H7.56751c-1.305-1.5525-2.1675-3.495-2.4-5.62502H20.115z" fill="#fff"/><path fill-rule="evenodd" clip-rule="evenodd" d="m13.6425,8.72995c-.4125,0-.5775-.2925-.375-.6525l3.1425-5.445c2.13,1.23,3.5925,3.4875,3.7275,6.09l-6.495.0075z" fill="#fff"/><path fill-rule="evenodd" clip-rule="evenodd" d="m2.925,8.43743h4.5v.6h-4.5c-.165,0-.3-.135-.3-.3s.135-.3.3-.3z" fill="#fff"/></svg>