<svg width="36" height="36" xmlns="http://www.w3.org/2000/svg"><path fill-rule="evenodd" clip-rule="evenodd" d="m7.26465,18.0005C7.27611,12.0636,12.0979,7.25906,18.0347,7.27053c2.058.00424,4.3012.83721,6.2669,2.17156,1.7157,1.16471,3.1837,2.68711,4.1112,4.30791H22.5v1h7.2339l.0011-.4989.015-6.73497-1-.00223-.0109,4.8825c-.9979-1.4403-2.3551-2.74934-3.8759-3.78168-2.0813-1.4129-4.5165-2.33943-6.8265-2.34419h-.0001C11.5474,6.258,6.27718,11.5095,6.26465,17.9986l1,.0019zm.22919,4.2624,6.00726-.0134-.0022-1-6.73501.015-.49778.0012-.00111.4977-.015,6.735,1,.0023.01016-4.5613C9.45096,27.4322,13.7001,29.75,18,29.75c6.4893,0,11.75-5.2607,11.75-11.75h-1c0,5.9371-4.813,10.75-10.75,10.75-4.4506,0-8.80204-2.6942-10.50616-6.4871z"/></svg>