<svg width="24" height="24" xmlns="http://www.w3.org/2000/svg"><path fill-rule="evenodd" clip-rule="evenodd" d="m22.5,0h-21C.675,0,0,.675,0,1.5v21c0,.825.675,1.5,1.5,1.5h21c.825,0,1.5-.675,1.5-1.5v-21c0-.825-.675-1.5-1.5-1.5z" fill="#2d327d"/><path fill-rule="evenodd" clip-rule="evenodd" d="m7.0875,17.5501H10.5v1.3875h3.4125v1.3875h3.4125v.675h-4.0875v-1.3875H9.825v-1.3875H6.4125v-1.3875H3v-.675h4.0875v1.3875z" fill="#fff"/><path fill-rule="evenodd" clip-rule="evenodd" d="m20.475,11.565c-.0675,0-.135-.015-.195-.0375l-.5475-.2325V10.2l.9375.39c.1875.0825.3075.2625.3075.465,0,.2775-.225.51-.5025.51z" fill="#fff"/><path fill-rule="evenodd" clip-rule="evenodd" d="m20.31,21.0001c-.3825,0-.6975-.3075-.6975-.6975v-3.2775L18,14.2501v2.3475c0,.135-.0375.27-.1125.39l-1.59,2.6175c-.1275.21-.3525.33-.5925.33-.3825,0-.6975-.3075-.6975-.6975,0-.1275.0375-.255.0975-.36l1.3875-2.28V8.39261l-.75,1.0875v2.74499c0,.2925-.2325.525-.525.525s-.525-.2325-.525-.525V9.31511c0-.15.045-.3.135-.4275l1.56-2.2575c.2775-.405.7425-.645,1.2375-.645.825,0,1.5.675,1.5,1.5v5.71499l1.7775,3.0525c.0675.1125.105.2475.105.375v3.675c-.0075.39-.315.6975-.6975.6975z" fill="#fff"/><path fill-rule="evenodd" clip-rule="evenodd" d="m17.8275,5.63257c-.7275,0-1.3125-.585-1.3125-1.3125s.585-1.3125,1.3125-1.3125,1.3125.585,1.3125,1.3125-.5925,1.3125-1.3125,1.3125z" fill="#fff"/></svg>