<svg width="36" height="36" xmlns="http://www.w3.org/2000/svg"><path fill-rule="evenodd" clip-rule="evenodd" d="m7.75,9.25h25v13h-3v4.5H3.25v-14.5h4.5v-3zm24,12h-2v-9h-21v-2h23v11zm-27.5-8v12.5h24.5v-12.5H4.25zm13.5807,7.7357c0,.549-.342.867-1.0245.951v-1.908c.3435.1065.552.183.6255.228.2655.156.399.399.399.729zm-2.5394-3.2429c0-.5085.309-.7905.927-.8445v1.689c-.3465-.084-.5865-.189-.723-.3135s-.204-.3015-.204-.531zM16.8063,18.7223v-1.8105c.5535.072.837.402.849.9915h1.3155c-.012-.6225-.204-1.107-.573-1.455-.3735-.348-.903-.5386-1.5915-.5745v-.8745h-.588v.8745c-.4455.03-.804.1035-1.0725.2234-.375.1681-.666.4051-.87.7111-.2025.306-.3045.654-.3045,1.0455,0,.354.072.654.219.9014.1455.2476.375.4621.6885.6436.246.141.693.303,1.3395.4845v2.0535c-.6975-.075-1.0455-.4965-1.038-1.2675h-1.3785c.006.783.279,1.3904.8145,1.8209.3855.3076.9195.4801,1.602.5191v.99h.588v-.9855c.4305-.021.786-.0901,1.0695-.2055.282-.1155.5415-.2971.774-.546.3675-.3885.5505-.8685.5505-1.4415,0-.564-.1785-1.0095-.5355-1.335-.288-.2625-.7785-.4845-1.4745-.6661-.2115-.0509-.339-.0839-.384-.0974z"/></svg>