<svg width="48" height="48" xmlns="http://www.w3.org/2000/svg"><path fill-rule="evenodd" clip-rule="evenodd" d="m23,8v3h1V8h-1zm.5,8c-4.7239,0-8.5,3.7761-8.5,8.5,0,3.154,1.8314,5.9628,4.4347,7.5H22v-3.7597l-2.3123-1.8499.6246-.7808,2.5,2,.1877.1501V32h1v-4.2403l.1877-.1501,2.5-2,.6246.7808L25,28.2403V32h2.5798C30.1512,30.6605,32,27.6745,32,24.5c0-4.7239-3.7761-8.5-8.5-8.5zM14,24.5c0,3.154,1.6233,5.9667,4,7.7438v6.8109l.3348.1172L22,40.4547V42h3v-1.5453l3.6652-1.2828L29,39.0547v-6.7535c2.3929-1.6923,4-4.6678,4-7.8012,0-5.2761-4.2239-9.5-9.5-9.5S14,19.2239,14,24.5zm5,8.5v1h2v1h-2v1h2v1h-2v1.3453l3.6652,1.2828.3348.1172V41h1v-1.2547l.3348-.1172L28,38.3453V37h-2v-1h2v-1h-2v-1h2v-1h-9zm17.9987-8,3,.008.0026-1-3-.008-.0026,1zM10,25H7v-1h3v1zm28.0404-8.3094-2.602,1.494-.4979-.8672,2.602-1.4941.4979.8673zM9.4585,33.184l2.598-1.5-.5-.866-2.59801,1.5.50001.866zm22.727-22.7164-1.506,2.594-.8648-.5021,1.506-2.59399.8648.50209zm2.7568,21.2158,2.594,1.506.5021-.8648-2.594-1.506-.5021.8648zM11.5604,18.184l-2.598-1.5.50001-.866,2.59799,1.5-.5.866zm3.2595-7.7216,1.5,2.598.866-.5-1.5-2.598-.866.5z"/></svg>