<svg width="36" height="36" xmlns="http://www.w3.org/2000/svg"><path fill-rule="evenodd" clip-rule="evenodd" d="m18,5.7503c-6.7934,0-12.25,5.4566-12.25,12.25,0,6.7919,5.4567,12.25,12.25,12.25s12.25-5.4581,12.25-12.25c0-6.7934-5.4566-12.25-12.25-12.25zm-13.25,12.25c0-7.3456,5.9044-13.25,13.25-13.25s13.25,5.9044,13.25,13.25c0,7.3441-5.9043,13.25-13.25,13.25s-13.25-5.9059-13.25-13.25zm11.936,8.9862h2.595v-2.499h-2.595v2.499zM13.467,11.37c-.5295.8175-.822,1.971-.8775,3.459h2.067c.1665-2.6265,1.32-3.939,3.459-3.939,1.032,0,1.812.333,2.3415.9975.441.5445.66,1.2165.66,2.0175,0,.432-.0765.8565-.228,1.2735-.183.489-.5715,1.0365-1.1655,1.6455-.9195.945-1.515,1.59-1.7835,1.9335-.267.345-.474.732-.618,1.1655-.1995.5925-.3075,1.5015-.324,2.727h2.0415c0-.69.0405-1.2495.12-1.6815.072-.4335.198-.795.378-1.0875.1815-.2925.498-.6585.9555-1.0995,1.0335-1.0095,1.686-1.701,1.9575-2.0775.609-.825.9135-1.8105.9135-2.955,0-1.386-.45-2.502-1.3455-3.351-.9615-.921-2.2545-1.3815-3.879-1.3815-1.0095,0-1.9185.204-2.727.612-.8085.4095-1.458.9885-1.9455,1.7415z"/></svg>