<svg width="24" height="24" xmlns="http://www.w3.org/2000/svg"><path fill-rule="evenodd" clip-rule="evenodd" d="m3.53125,3c-.14089,0-.27602.05597-.37565.1556S3,3.39036,3,3.53125V6h4.69098l1.5-3H3.53125zM13.691,6H8.80902L10.309,3h4.882l-1.5,3zm2.618-3-1.5,3H21V3.53125c0-.14088-.056-.27601-.1556-.37565C20.7448,3.05597,20.6096,3,20.4687,3H16.309zM2.44849,2.44849C2.73566,2.16133,3.12514,2,3.53125,2H20.4687c.4061,0,.7956.16133,1.0828.4485.2872.28715.4485.67663.4485,1.08275V7H2V3.53125c0-.40611.16133-.79559.44849-1.08276zM3,21.0269V8.02686H2V22.0269h20V8.02686h-1V21.0269H3zm6.73943-10.4658L9,10.1577v7.6846l.73943-.4034,5.49997-3L16.0442,14l-.8048-.4389-5.49997-3zM13.9558,14,10,16.1577v-4.3154L13.9558,14z"/></svg>