<svg width="36" height="36" xmlns="http://www.w3.org/2000/svg"><path fill-rule="evenodd" clip-rule="evenodd" d="m5.29688,4.25c-.27765,0-.54393.1103-.74026.30662-.19632.19633-.30662.46261-.30662.74026V9.25h7.441l2.5-5H5.29688zm15.39412,5h-7.882l2.5-5h7.882l-2.5,5zm3.618-5-2.5,5h9.941V5.29688c0-.27764-.1103-.54392-.3066-.74026-.1964-.19632-.4627-.30662-.7403-.30662H24.309zM3.84952,3.84952c.38386-.38387.90449-.59952,1.44736-.59952H30.7031c.5429,0,1.0635.21565,1.4474.59952l-.3536.35355.3536-.35355c.3838.38386.5995.90448.5995,1.44736V10.25H3.25V5.29688c0-.54287.21565-1.0635.59952-1.44736zM4.25,31.7903v-19.75h-1v20.75h29.5v-20.75h-1v19.75H4.25zm10.2394-15.7292-.7394-.4034v10.6846l.7394-.4034,8.25-4.5L23.5442,21l-.8048-.4389-8.25-4.5zM21.4558,21,14.75,24.6577v-7.3154L21.4558,21z"/></svg>