<svg width="36" height="36" xmlns="http://www.w3.org/2000/svg"><path fill-rule="evenodd" clip-rule="evenodd" d="m25.9191,5.92596L26.57,4.6377l-1.3083.60955c-.7282.33928-1.514.74491-2.2335,1.48532-.6341.65243-1.194,1.54012-1.6455,2.8213-.0577-.0235-.1159-.04589-.1745-.06714-1.9973-.72451-4.4714-.13816-5.8,2.22967-2.1923-1.2255-5.1274.3314-5.1347,3.1337-.7433.1434-1.34132.5855-1.75756,1.1673-.50429.7049-.75295,1.6239-.71355,2.5298.03955.9095.37146,1.8408,1.0731,2.5477.70786.7132,1.74981,1.1556,3.12471,1.1556h10.5c1.3397,0,2.3804-.4447,3.1038-1.1466.7174-.6961,1.0929-1.6164,1.1609-2.5222.0172-.2295.0148-.4602-.0073-.6881,1.0169.0902,2.2832-.1053,3.4864-.5861,1.5824-.6322,3.1518-1.7953,3.9621-3.6025l.5202-1.1601-1.1712.495c-2.9315,1.2393-5.3109.4046-6.7239-1.1802-1.4384-1.6132-1.8865-4.00531-.9121-5.93374zm.5853,10.92544c.8289.1555,2.0966.0358,3.3686-.4725,1.0344-.4133,2.0216-1.064,2.7418-1.9704-2.7434.6842-5.0603-.2349-6.53-1.8833-1.3787-1.5463-2.0053-3.73447-1.5266-5.76482-.2823.18614-.5535.40219-.8129.66913-.5363.5518-1.0469,1.34775-1.4695,2.60209.6097.4143,1.1286.9741,1.4876,1.6596.4814.9192.6622,2.0394.4164,3.2932.7913.118,1.4258.5148,1.8692,1.0778.1888.2397.3405.5061.4554.7892zm-10.4468-4.1991c1.0103-2.2899,3.1239-2.83698,4.8096-2.2255.8487.3079,1.5807.908,2.0103,1.7283.4264.8142.5723,1.8785.1934,3.1529l-.1992.67.6985-.0279c.7776-.0311,1.3329.2734,1.6932.7309.371.4711.5562,1.1344.5043,1.8258-.0516.6879-.336,1.3708-.8601,1.8794-.5181.5028-1.3006.8643-2.4074.8643h-10.5c-1.1504,0-1.9225-.3639-2.41494-.86-.49865-.5024-.75324-1.1837-.78381-1.8867-.03073-.7066.16687-1.4001.52779-1.9046.35478-.4959.85516-.7987,1.47096-.7987h.5633l-.0669-.5593c-.2954-2.4728,2.3589-3.7372,3.9867-2.4039l.5089.4168.2654-.6018z"/></svg>