<svg width="24" height="24" xmlns="http://www.w3.org/2000/svg"><path fill-rule="evenodd" clip-rule="evenodd" d="m17.4284,4.0258.5244-1.03801-1.1141.33353c-.6089.18228-1.1746.47274-1.6692,1.01977-.3996.44192-.7329,1.02927-1.0164,1.8116-1.3548-.47116-3.009-.08475-3.9447,1.43756-1.51595-.71889-3.43069.3254-3.52268,2.17629-.48121.1281-.86968.43136-1.14398.81476-.36009.5033-.53437,1.1536-.50666,1.7908.02787.6407.26203,1.3032.76361,1.8086.50782.5116,1.24744.8196,2.20142.8196h6.99999c.9765,0,1.7408-.3045,2.2717-.8073.5266-.4988.7869-1.1589.8191-1.8053.0046-.0927.0045-.1857-.0002-.2785.6562.0126,1.4156-.129,2.134-.4161,1.0825-.4325,2.1689-1.2331,2.7316-2.48822l.5202-1.16019-1.1711.49509c-1.8896.7988-3.3995.25835-4.2934-.74421-.9192-1.03099-1.1985-2.55284-.5836-3.76977zm.4074,7.0653c.5126.0616,1.2578-.0229,2.0179-.3266.5183-.2071,1.0137-.5045,1.4237-.89585-1.6685.25085-3.0826-.36542-4.0118-1.40759-.8816-.98885-1.3212-2.36139-1.1167-3.67939-.0819.06897-.161.14529-.2377.23012-.3069.33937-.5983.84002-.8637,1.61118.3834.28237.7102.65042.9424,1.09384.3182.60752.4473,1.33467.3227,2.1388.4956.11096.9056.37719,1.2064.73929.1263.1521.232.3191.3168.4962zm-6.9782-2.58894c.6352-1.43991,1.9488-1.77451,2.997-1.39429.53.19224.9839.5658,1.2494,1.07287.2624.50088.3582,1.16523.1168,1.97716l-.1992.67.6985-.028c.4665-.0186.804.1624,1.0297.434.2347.2825.3632.6841.3423,1.1041-.0207.4161-.1868.8248-.508,1.129-.3171.3003-.822.5333-1.584.5333H8.00011c-.72952,0-1.19927-.2295-1.49165-.5241-.29859-.3008-.45543-.7133-.47432-1.1476-.01904-.4378.10418-.8625.3209-1.1655.21058-.2943.4969-.4628.84507-.4628h.56329l-.06682-.5593c-.17941-1.50177,1.41934-2.2462,2.38672-1.45385l.5088.41675.2655-.60174zM6.05278,15.7764l-1,2,.89443.4472,1-2-.89443-.4472zm3,2,1.00002-2,.8944.4472-.99999,2-.89443-.4472zM6.05278,19.7764l2-4,.89443.4472-2,4-.89443-.4472zM13,16c-.5521,0-1,.4479-1,1,0,.5522.4479,1,1,1s1-.4478,1-1c0-.5521-.4479-1-1-1zm3,1c0-.5521.4479-1,1-1s1,.4479,1,1c0,.5522-.4479,1-1,1s-1-.4478-1-1zm-1,2c-.5521,0-1,.4479-1,1,0,.5522.4479,1,1,1s1-.4478,1-1c0-.5521-.4479-1-1-1z"/></svg>