<svg width="24" height="24" xmlns="http://www.w3.org/2000/svg"><path fill-rule="evenodd" clip-rule="evenodd" d="m8.5,5.0002c-.88886,0-1.5.61114-1.5,1.5s.61114,1.5,1.5,1.5,1.5-.61114,1.5-1.5-.61114-1.5-1.5-1.5zm-6.5,2h4.04437c.21464,1.1795,1.18702,2,2.45563,2s2.241-.8205,2.4556-2H22v-1H10.9556c-.2146-1.1795-1.18699-2-2.4556-2s-2.24099.8205-2.45563,2H2v1zm13.5,4c-.8549,0-1.5.6451-1.5,1.5,0,.854.6453,1.5,1.5,1.5s1.5-.646,1.5-1.5c0-.8549-.6451-1.5-1.5-1.5zm-2.4525,1c.2241-1.1577,1.2172-2,2.4525-2s2.2284.8423,2.4525,2H22v1h-4.0475c-.2242,1.157-1.2172,2-2.4525,2s-2.2283-.843-2.4525-2H2v-1h11.0475zM7,18.4997c0-.871.62831-1.5,1.5-1.5s1.5.629,1.5,1.5c0,.8719-.62814,1.5-1.5,1.5s-1.5-.6281-1.5-1.5zm1.5-2.5c-1.25198,0-2.23461.8322-2.45405,2H2v1h4.0459c.21935,1.1686,1.20214,2,2.4541,2s2.2348-.8314,2.4541-2H22v-1H10.9541c-.2195-1.1678-1.20212-2-2.4541-2z"/></svg>