<svg width="24" height="24" xmlns="http://www.w3.org/2000/svg"><path fill-rule="evenodd" clip-rule="evenodd" d="m6.09912,4.09863h6.56708l.1175.11745,5,5,.1174.11745V19.9006H6.09912V4.09863zm.802.802V19.0986H17.0991V9.89723h-5v-4.9966H6.90112zM12.9011,5.46773l3.6275,3.6275h-3.6275v-3.6275zm2.1,6.43337H9.00112v-.802h5.99998v.802zm0,1.9995H8.99912v-.802h6.00198v.802zM9.54391,15.7162c.21601-.1209.50469-.1852.80269-.0401l.0033.0016c.1734.0864.2627.2356.3074.3593.0434.1201.057.2475.0609.3567.0073.2043-.0185.445-.0403.6491-.0013.0123-.0026.0246-.0039.0367-.0154.145-.0279.271-.033.3773.1049-.1029.2221-.2415.3531-.4027.026-.0321.0527-.0652.0798-.0989.1293-.1604.2693-.3341.4-.4708.0799-.0837.171-.1694.2691-.2359.0911-.0618.237-.1408.4159-.1346l.0054.0002c.1427.0068.283.0409.4081.1164.1278.0771.2166.1836.2743.2983.1057.21.1059.4471.0986.6037-.0028.0613-.0078.1226-.0128.1781.0264-.0223.0556-.0477.0881-.0765.0153-.0137.0315-.0281.0482-.043.1068-.0956.2397-.2145.3824-.315.1684-.1186.38-.2342.6333-.2729l.0011-.0001c.4076-.0613.7363.1539.9196.3104.1914.1634.3151.3396.3374.376l-.683.4203c.0033.0053.0021.0038-.003-.0029-.0174-.0227-.0808-.1054-.1721-.1834-.1259-.1075-.2211-.136-.2795-.1274-.0835.0129-.1775.055-.2919.1357-.1016.0715-.1962.1559-.3053.2533-.0179.0159-.0361.0322-.0549.0488-.1174.1043-.2737.2411-.4455.3242-.1949.0943-.4501.1377-.7094-.0077-.1614-.0905-.2296-.238-.2578-.3426-.0272-.1006-.0294-.2017-.0277-.2764.0018-.0784.0093-.1613.0157-.2316l.001-.0108c.0065-.0707.0122-.1331.015-.1938.0027-.0587.0021-.1056-.0015-.1431-.0246.0215-.0541.0499-.089.0864-.105.1098-.218.2499-.3468.4095-.0292.0362-.0593.0735-.0902.1116-.1564.1926-.338.4104-.5213.5688-.0922.0797-.2029.1608-.3284.2135-.1287.0542-.2972.0881-.4774.0312-.1892-.0595-.30395-.1967-.36566-.3297-.05688-.1225-.07613-.2541-.08332-.3622-.0143-.2147.01303-.4717.03563-.6842l.00024-.0023.00049-.0046c.02438-.2292.04442-.4177.03989-.5628-.06741.0428-.14948.1212-.23723.2321-.09211.1164-.17172.2445-.22942.3467-.02842.0503-.05056.0926-.06529.1216-.00735.0145-.0128.0257-.01622.0327l-.00356.0074-.00045.001c.00003-.0001.00007-.0002-.36358-.1692s-.36361-.1691-.36356-.1692l.0001-.0002.00024-.0005.00064-.0013.00192-.0041.0064-.0134c.00538-.0111.01298-.0265.02267-.0457.01933-.0381.04717-.0912.08241-.1536.0696-.1232.17202-.2896.29876-.4498.12282-.1552.28924-.3315.49321-.4456zm.74569,2.6569c-.0002-.0001-.0003-.0001-.0005-.0002l.121-.3823-.1199.3827c-.0002-.0001-.0004-.0001-.0006-.0002zm1.9199-1.4707c0,.0001-.0012.0007-.0035.0017.0024-.0013.0036-.0018.0035-.0017z"/></svg>