<svg width="24" height="24" xmlns="http://www.w3.org/2000/svg"><path fill-rule="evenodd" clip-rule="evenodd" d="m6.00911,4.00024h6.69779l.1465.14645,5,5,.1464.14645V20.0002H5.99951l.0093-15.50026.0003-.4997zm.9994,1-.0084,13.99996h9.99969v-9h-4.9997V5.00024H7.00851zm5.99159.70735,3.2926,3.29265h-3.2926V5.70759zM8.66806,16.4054v-.849h.561c.183,0,.315.027.396.082.111.073.167.186.167.336,0,.149-.048.262-.145.338-.078.061-.206.093-.382.093h-.597zm.567-1.403h-1.235v2.998h.668v-1.081h.687c.175,0,.323-.016.443-.05s.22704-.088.32104-.165c.22-.179.331-.425.331-.738,0-.353-.134-.617-.4-.792-.09704-.064-.20504-.109-.32404-.135-.12-.024-.283-.037-.491-.037zm2.24894.554v.849h.597c.176,0,.304-.032.382-.093.097-.076.145-.189.145-.338,0-.15-.056-.263-.167-.336-.081-.055-.213-.082-.396-.082h-.561zM10.816,15.0024h1.235c.208,0,.371.013.491.037.119.026.227.071.324.135.266.175.4.439.4.792,0,.313-.111.559-.331.738-.094.077-.201.131-.321.165s-.268.05-.443.05h-.687v1.081h-.668v-2.998zm5.1841.5543v-.554h-2.523v.554h.925v2.444h.668v-2.444h.93z"/></svg>