<svg width="24" height="24" xmlns="http://www.w3.org/2000/svg"><path fill-rule="evenodd" clip-rule="evenodd" d="m22.5,0h-21C.675,0,0,.675,0,1.5v21c0,.825.675,1.5,1.5,1.5h21c.825,0,1.5-.675,1.5-1.5v-21c0-.825-.675-1.5-1.5-1.5z" fill="#237f52"/><path fill-rule="evenodd" clip-rule="evenodd" d="m8.18244,3v10.32h-3.0825c-.57,0-1.035.465-1.035,1.035s.465,1.035,1.035,1.035h3.0825v4.365L6.94494,21h6.02246l.99-1.0575c.255-.2775.8025-.39,1.2075-.2625.4125.1275.5325.4575.2775.735l-.5475.585h3.7875l1.245-1.245V3H8.18244zm9.95996,1.6125c.7425,0,1.35.6075,1.35,1.35s-.6075,1.35-1.35,1.35-1.35-.6075-1.35-1.35.6075-1.35,1.35-1.35zm-1.44,7.32h2.46c.285,0,.5175-.2325.51-.5175,0-.285-.2325-.5175-.5175-.5175h-1.9725V8.475c0-.9525-.7725-1.7325-1.7325-1.7325h-2.4225c-.18,0-.36.075-.4875.2025l-2.04,2.04c-.09.09-.1425.2175-.1425.345,0,.27.2175.4875.4875.4875.1275,0,.255-.0525.345-.1425l1.9275-1.9275h1.3725l-5.92496,5.925h-3.465c-.3825,0-.69.3075-.69.69s.3075.69.69.69h3.8475c.18,0,.36-.075.4875-.2025l2.75996-2.76,2.61,2.61v3.8175c0,.3825.3075.69.69.69s.69-.3075.69-.69V14.325c0-.1875-.075-.36-.2025-.495l-2.0775-2.0775,2.28-2.28v1.9425c0,.285.2325.5175.5175.5175z" fill="#fff"/></svg>