<svg width="36" height="36" xmlns="http://www.w3.org/2000/svg"><path fill-rule="evenodd" clip-rule="evenodd" d="m8.76446,13.75c.07309-1.2599.42059-2.4462.98364-3.5h2.9883c-.2778,1.1049-.4435,2.2801-.4791,3.5H8.76446zm3.49284,1H8.76446c.07309,1.2599.42059,2.4462.98364,3.5h2.9885c-.2779-1.1049-.4436-2.2801-.4793-3.5zm1.5127,3.5c-.2953-1.0926-.474-2.2687-.5122-3.5H16.75v3.5h-2.98zM17.75,18.25v-3.5h3.4922c-.0382,1.2313-.2169,2.4074-.5122,3.5h-2.98zm-3.6694,1H16.75v3.4855c-.2832-.0164-.5626-.0467-.8377-.0902-.7495-.9514-1.3755-2.1015-1.8317-3.3953zm3.6694,0v3.4855c.2832-.0164.5626-.0467.8377-.0902.7495-.9514,1.3755-2.1015,1.8317-3.3953H17.75zm0-9v3.5h3.4923c-.0382-1.2313-.2168-2.4074-.5121-3.5H17.75zm-1,3.5v-3.5h-2.9802c-.2953,1.0926-.4739,2.2687-.5121,3.5H16.75zm3.6697-4.5H17.75V5.76446c.2834.01644.5631.04677.8384.0903.7493.95148,1.3751,2.10155,1.8313,3.39524zm-3.6697,0V5.76446c-.2834.01644-.5631.04677-.8384.0903-.7493.95148-1.3751,2.10155-1.8313,3.39524H16.75zm-3.7253,10h-2.6493c1.004,1.3781,2.4123,2.4428,4.0506,3.0196-.5689-.9031-1.0426-1.9192-1.4013-3.0196zm1.4007-13.01942c-1.638.57693-3.0461,1.6415-4.05,3.01942h2.649c.3586-1.10031.8323-2.11632,1.401-3.01942zM22.2427,13.75c-.0356-1.2199-.2013-2.3951-.4791-3.5h2.9883c.563,1.0538.9106,2.2401.9836,3.5h-3.4928zm0,1c-.0357,1.2199-.2014,2.3951-.4793,3.5h2.9885c.563-1.0538.9106-2.2401.9836-3.5h-3.4928zm-.7674,4.5c-.3587,1.1004-.8324,2.1165-1.4013,3.0196,1.6382-.5768,3.0466-1.6415,4.0506-3.0196h-2.6493zM20.0746,6.23058c.5687.90309,1.0424,1.91911,1.401,3.01942h2.649c-1.0039-1.37792-2.412-2.44249-4.05-3.01942zM17.25,4.75c-5.2467,0-9.5,4.25329-9.5,9.5,0,5.2467,4.2533,9.5,9.5,9.5s9.5-4.2533,9.5-9.5c0-5.24671-4.2533-9.5-9.5-9.5zM23.75,30v-.25h3.5V30c0,.9665-.7835,1.75-1.75,1.75s-1.75-.7835-1.75-1.75zm-1,0v-.25h-9.5V30c0,1.5188-1.2312,2.75-2.75,2.75-1.51879,0-2.75-1.2312-2.75-2.75v-.25h-1.5v-1.5h-2V30h-1v-4.5h1v1.75h2v-1.5h23.5v1.5h2V25.5h1V30h-1v-1.75h-2v1.5h-1.5V30c0,1.5188-1.2312,2.75-2.75,2.75s-2.75-1.2312-2.75-2.75zm-14-.25V30c0,.9665.7835,1.75,1.75,1.75s1.75-.7835,1.75-1.75v-.25h-3.5zm-1.5-1h21.5v-2H7.25v2z"/></svg>