<svg width="24" height="24" xmlns="http://www.w3.org/2000/svg"><path fill-rule="evenodd" clip-rule="evenodd" d="m22.5,0h-21C.675,0,0,.675,0,1.5v21c0,.825.675,1.5,1.5,1.5h21c.825,0,1.5-.675,1.5-1.5v-21c0-.825-.675-1.5-1.5-1.5z" fill="#2d327d"/><path fill-rule="evenodd" clip-rule="evenodd" d="m13.6575,18.6525L15.855,20.85h5.22v-6.57c0-.2925-.2325-.525-.525-.525-.015,0-.0225,0-.0375,0-.045,0-.09.0075-.135.0225-.33.12-.555.4425-.555.795V16.41c0,.225-.18.405-.405.405H18.36c-.165,0-.3225-.0675-.4425-.1875l-3.405-3.405c-.225-.225-.5925-.225-.8175,0s-.225.5925,0,.8175l3.6225,3.6225-.195.2025-3.2475-3.2325-.2175.2175c-.09.0975-.1425.225-.1425.3525,0,.135.0525.2625.1425.3525l2.895,2.895-.2025.2025-2.475-2.475-.2175.2175c-.09.0975-.1425.2175-.1425.3525s.0525.2625.1425.3525l2.1225,2.1225-.195.2025-1.71-1.7025-.2175.2175c-.09.0975-.1425.2175-.1425.3525s.0525.2625.1425.36z" fill="#fff"/><path fill-rule="evenodd" clip-rule="evenodd" d="m10.485,18.6525L8.28751,20.85H3.0675v-6.57c0-.2925.2325-.525.525-.525.015,0,.0225,0,.0375,0,.045,0,.09.0075.13501.0225.33.12.555.4425.555.795V16.41c0,.225.18.405.405.405h1.0575c.16499,0,.3225-.0675.4425-.1875l3.405-3.405c.225-.225.59249-.225.81749,0s.225.5925,0,.8175L6.825,17.6625l.19501.2025L10.26,14.6325l.225.2175c.09.0975.1425.225.1425.3525,0,.135-.0525.2625-.1425.3525L7.59,18.45l.19501.2025,2.47499-2.475.225.2175c.09.0975.1425.2175.1425.3525s-.0525.2625-.1425.3525l-2.1225,2.1225.19501.2025L10.26,17.7225l.225.2175c.09.0975.1425.2175.1425.3525.0075.135-.0525.2625-.1425.36z" fill="#fff"/><path fill-rule="evenodd" clip-rule="evenodd" d="m3.80999,10.02c0-.23249-.15-.43499-.24-.56249-.075-.1125-.12-.18-.12-.2625,0-.2325.225-.3975.2925-.435.2925-.1875.4575-.4425.4575-.72s-.165-.54-.4575-.72c-.1875-.12-.2925-.27-.2925-.42s.105-.3.2925-.42c.2925-.1875.4575-.4425.4575-.72s-.165-.54-.4575-.72c-.1875-.12-.2925-.27-.2925-.42s.105-.3.2925-.42c.2925-.1875.4575-.4425.4575-.72s-.165-.54-.4575-.72l-.1875.3c.1875.12.2925.27.2925.42s-.105.3-.2925.42c-.2925.1875-.4575.4425-.4575.72s.165.54.4575.72c.1875.12.2925.27.2925.42s-.105.3-.2925.42c-.2925.1875-.4575.4425-.4575.72s.165.54.4575.72c.1875.12.2925.27.2925.42s-.105.3-.2925.42c-.105.0675-.4575.3225-.4575.7425,0,.2025.09751.345.18.465.075.105.14251.21.17251.36749h-.5175l.7125,1.2375.7125-1.2375-.54751-.015z" fill="#fff"/><path fill-rule="evenodd" clip-rule="evenodd" d="m6.21746,10.02c0-.23249-.15-.43499-.23999-.56249-.07501-.1125-.12-.18-.12-.2625,0-.2325.225-.3975.2925-.435.2925-.1875.4575-.4425.4575-.72s-.165-.54-.4575-.72c-.1875-.12-.2925-.27-.2925-.42s.105-.3.2925-.42c.2925-.1875.4575-.4425.4575-.72s-.165-.54-.4575-.72c-.1875-.12-.2925-.27-.2925-.42s.105-.3.2925-.42c.2925-.1875.4575-.4425.4575-.72s-.165-.54-.4575-.72l-.1875.3c.1875.12.2925.27.2925.42s-.105.3-.2925.42c-.2925.1875-.4575.4425-.4575.72s.165.54.4575.72c.1875.12.2925.27.2925.42s-.105.3-.2925.42c-.2925.1875-.4575.4425-.4575.72s.165.54.4575.72c.1875.12.2925.27.2925.42s-.105.3-.2925.42c-.105.0675-.4575.3225-.4575.7425,0,.2025.0975.345.18.465.075.105.1425.21.1725.36749h-.5175l.7125,1.2375.7125-1.2375-.54751-.015z" fill="#fff"/><path fill-rule="evenodd" clip-rule="evenodd" d="m15.84,10.02c0-.23249-.15-.43499-.24-.56249-.075-.1125-.12-.18-.12-.2625,0-.2325.225-.3975.2925-.435.2925-.1875.4575-.4425.4575-.72s-.165-.54-.4575-.72c-.1875-.12-.2925-.27-.2925-.42s.105-.3.2925-.42c.2925-.1875.4575-.4425.4575-.72s-.165-.54-.4575-.72c-.1875-.12-.2925-.27-.2925-.42s.105-.3.2925-.42c.2925-.1875.4575-.4425.4575-.72s-.165-.54-.4575-.72l-.1875.3c.1875.12.2925.27.2925.42s-.105.3-.2925.42c-.2925.1875-.4575.4425-.4575.72s.165.54.4575.72c.1875.12.2925.27.2925.42s-.105.3-.2925.42c-.2925.1875-.4575.4425-.4575.72s.165.54.4575.72c.1875.12.2925.27.2925.42s-.105.3-.2925.42c-.105.0675-.4575.3225-.4575.7425,0,.2025.0975.345.18.465.075.105.1425.21.1725.36749h-.5175l.7125,1.2375.7125-1.2375-.5475-.015z" fill="#fff"/><path fill-rule="evenodd" clip-rule="evenodd" d="m20.655,10.02c0-.23249-.15-.43499-.24-.56249-.075-.1125-.12-.18-.12-.2625,0-.2325.225-.3975.2925-.435.2925-.1875.4575-.4425.4575-.72s-.165-.54-.4575-.72c-.1875-.12-.2925-.27-.2925-.42s.105-.3.2925-.42c.2925-.1875.4575-.4425.4575-.72s-.165-.54-.4575-.72c-.1875-.12-.2925-.27-.2925-.42s.105-.3.2925-.42c.2925-.1875.4575-.4425.4575-.72s-.165-.54-.4575-.72l-.1875.3c.1875.12.2925.27.2925.42s-.105.3-.2925.42c-.2925.1875-.4575.4425-.4575.72s.165.54.4575.72c.1875.12.2925.27.2925.42s-.105.3-.2925.42c-.2925.1875-.4575.4425-.4575.72s.165.54.4575.72c.1875.12.2925.27.2925.42s-.105.3-.2925.42c-.105.0675-.4575.3225-.4575.7425,0,.2025.0975.345.18.465.075.105.1425.21.1725.36749h-.5175l.7125,1.2375.7125-1.2375-.5475-.015z" fill="#fff"/><path fill-rule="evenodd" clip-rule="evenodd" d="m18.2475,10.02c0-.23249-.15-.43499-.24-.56249-.075-.1125-.12-.18-.12-.2625,0-.2325.225-.3975.2925-.435.2925-.1875.4575-.4425.4575-.72s-.165-.54-.4575-.72c-.1875-.12-.2925-.27-.2925-.42s.105-.3.2925-.42c.2925-.1875.4575-.4425.4575-.72s-.165-.54-.4575-.72c-.1875-.12-.2925-.27-.2925-.42s.105-.3.2925-.42c.2925-.1875.4575-.4425.4575-.72s-.165-.54-.4575-.72l-.1875.3c.1875.12.2925.27.2925.42s-.105.3-.2925.42c-.2925.1875-.4575.4425-.4575.72s.165.54.4575.72c.1875.12.2925.27.2925.42s-.105.3-.2925.42c-.2925.1875-.4575.4425-.4575.72s.165.54.4575.72c.1875.12.2925.27.2925.42s-.105.3-.2925.42c-.105.0675-.4575.3225-.4575.7425,0,.2025.0975.345.18.465.075.105.135.21.1725.36749H17.37l.7125,1.2375.7125-1.2375-.5475-.015z" fill="#fff"/><path fill-rule="evenodd" clip-rule="evenodd" d="m11.0325,10.02c0-.23249-.15-.43499-.24-.56249-.075-.1125-.12-.18-.12-.2625,0-.2325.225-.3975.2925-.435.2925-.1875.4575-.4425.4575-.72s-.165-.54-.4575-.72c-.1875-.12-.2925-.27-.2925-.42s.105-.3.2925-.42c.2925-.1875.4575-.4425.4575-.72s-.165-.54-.4575-.72c-.1875-.12-.2925-.27-.2925-.42s.105-.3.2925-.42c.2925-.1875.4575-.4425.4575-.72s-.165-.54-.4575-.72l-.1875.3c.1875.12.2925.27.2925.42s-.105.3-.2925.42c-.2925.1875-.4575.4425-.4575.72s.165.54.4575.72c.1875.12.2925.27.2925.42s-.105.3-.2925.42c-.2925.1875-.4575.4425-.4575.72s.165.54.4575.72c.1875.12.2925.27.2925.42s-.105.3-.2925.42c-.105.0675-.4575.3225-.4575.7425,0,.2025.0975.345.18.465.075.105.1425.21.1725.36749h-.5175l.7125,1.2375.7125-1.2375-.5475-.015z" fill="#fff"/><path fill-rule="evenodd" clip-rule="evenodd" d="m8.625,10.02c0-.23249-.15-.43499-.24-.56249-.075-.1125-.12-.18-.12-.2625,0-.2325.225-.3975.2925-.435.2925-.1875.4575-.4425.4575-.72s-.165-.54-.4575-.72c-.1875-.12-.2925-.27-.2925-.42s.105-.3.2925-.42c.2925-.1875.4575-.4425.4575-.72s-.165-.54-.4575-.72c-.1875-.12-.2925-.27-.2925-.42s.105-.3.2925-.42c.2925-.1875.4575-.4425.4575-.72s-.165-.54-.4575-.72l-.1875.3c.1875.12.2925.27.2925.42s-.105.3-.2925.42c-.2925.1875-.4575.4425-.4575.72s.165.54.4575.72c.1875.12.2925.27.2925.42s-.105.3-.2925.42c-.2925.1875-.4575.4425-.4575.72s.165.54.4575.72c.1875.12.2925.27.2925.42s-.105.3-.2925.42c-.105.0675-.4575.3225-.4575.7425,0,.2025.0975.345.18.465.075.105.1425.21.1725.36749h-.5175l.7125,1.2375.7125-1.2375-.5475-.015z" fill="#fff"/><path fill-rule="evenodd" clip-rule="evenodd" d="m13.4325,10.02c0-.23249-.15-.43499-.24-.56249-.075-.1125-.12-.18-.12-.2625,0-.2325.225-.3975.2925-.435.2925-.1875.4575-.4425.4575-.72s-.165-.54-.4575-.72c-.1875-.12-.2925-.27-.2925-.42s.105-.3.2925-.42c.2925-.1875.4575-.4425.4575-.72s-.165-.54-.4575-.72c-.1875-.12-.2925-.27-.2925-.42s.105-.3.2925-.42c.2925-.1875.4575-.4425.4575-.72s-.165-.54-.4575-.72l-.1875.3c.1875.12.2925.27.2925.42s-.105.3-.2925.42c-.2925.1875-.4575.4425-.4575.72s.165.54.4575.72c.1875.12.2925.27.2925.42s-.105.3-.2925.42c-.2925.1875-.4575.4425-.4575.72s.165.54.4575.72c.1875.12.2925.27.2925.42s-.105.3-.2925.42c-.105.0675-.4575.3225-.4575.7425,0,.2025.0975.345.18.465.075.105.1425.21.1725.36749h-.5175l.7125,1.2375.7125-1.2375-.5475-.015z" fill="#fff"/></svg>