<svg width="36" height="36" xmlns="http://www.w3.org/2000/svg"><path fill-rule="evenodd" clip-rule="evenodd" d="m18,5.75c-.9674,0-1.75.78264-1.75,1.75v3.25h3.5V7.5c0-.96736-.7826-1.75-1.75-1.75zM15.25,7.5c0-1.51964,1.2304-2.75,2.75-2.75s2.75,1.23036,2.75,2.75v1.75h8.5c1.9321,0,3.5,1.5679,3.5,3.5v13.5c0,1.9321-1.5679,3.5-3.5,3.5H6.75c-1.93214,0-3.5-1.5679-3.5-3.5v-13.5c0-1.9321,1.56786-3.5,3.5-3.5h8.5V7.5zm5.5,4.25v-1.5h8.5c1.3799,0,2.5,1.1201,2.5,2.5v13.5c0,1.3799-1.1201,2.5-2.5,2.5H19.1652c-.3087-2.9075-1.6735-5.412-3.6401-6.6588.4601-.732.7249-1.6413.7249-2.5912,0-2.2379-1.4696-4.25-3.5-4.25s-3.5,2.0121-3.5,4.25c0,.9499.26477,1.8591.72482,2.591-1.95898,1.2421-3.32081,3.7321-3.6364,6.6252C5.15412,28.5197,4.25,27.4897,4.25,26.25v-13.5c0-1.3799,1.12014-2.5,2.5-2.5h8.5v1.5h5.5zm-13.40921,17H18.1592c-.3125-2.7001-1.601-4.8733-3.2723-5.8774-.5789.5449-1.3116.8774-2.1369.8774-.8254,0-1.5581-.3325-2.137-.8775-1.67134,1.0041-2.95981,3.1774-3.27221,5.8775zM19.5,19.25h6v-1h-6v1zm9,3h-9v-1h9v1zM10.25,19.5c0-1.9051,1.2184-3.25,2.5-3.25s2.5,1.3449,2.5,3.25-1.2184,3.25-2.5,3.25-2.5-1.3449-2.5-3.25z"/></svg>