<svg width="59" height="20" xmlns="http://www.w3.org/2000/svg"><path fill-rule="evenodd" clip-rule="evenodd" d="m2,0C.89543,0,0,.895431,0,2v16c0,1.1046.895431,2,2,2h55c1.1046,0,2-.8954,2-2V2c0-1.104569-.8954-2-2-2H2z" fill="#eb0000"/><path d="m42.2923,4.23535V15.8h-2.302V8.23008h-2.7119V6.55313c.4639-.00275.9257-.06117,1.3757-.17403.3529-.0993.6834-.2658.9736-.49043.4257-.32695.7121-.87806.8593-1.65332h1.8053zm3.2953,3.66254c-.0042-.84803.2398-1.67863.7016-2.38887.7146-1.0336,1.7894-1.5504,3.2243-1.5504,1.1037,0,1.9945.28209,2.6725.84629.714.5763,1.1193,1.45387,1.0958,2.37305.0139.53213-.1361,1.05561-.4296,1.49903-.2761.41163-.6878.71267-1.1629.8504.5902.12304,1.1141.46123,1.4702.94921.3688.5182.5585,1.1432.5401,1.7797.0288,1.0802-.4357,2.1144-1.2613,2.8082-.7779.675-1.7607,1.0125-2.9484,1.0125-1.2878,0-2.3087-.3718-3.0628-1.1154-.7542-.7436-1.1313-1.7481-1.1312-3.0137v-.1504h2.2152c0,.7119.1682,1.2616.5046,1.6492.364.3997.8882.6133,1.4269.5815.6149,0,1.0879-.1819,1.419-.5457.3021-.3357.4656-.7741.4572-1.2262.023-.5169-.1921-1.0156-.5834-1.3526-.3206-.2742-.8146-.4113-1.482-.4113-.1871-.0001-.3739.0105-.5598.0317V8.82328c.1367.01074.2681.01601.3942.01582,1.3244,0,1.9866-.49304,1.9866-1.47911.0151-.3962-.1433-.77918-.4336-1.04824-.3155-.27594-.725-.41903-1.1431-.39941-.4723-.02845-.9324.15738-1.2534.50625-.2944.3375-.4521.8306-.473,1.47929l-2.1837.00001zM9.21994,4.19995h4.05626L8.2582,15.8H4.18521L9.21994,4.19995zM25.9805,12.3662c.3665,0,.6985-.2172.8463-.5537l3.2923-7.61255h-14.135L10.9661,15.8h4.0383l3.7988-8.69045h5.9937l-1.2014,2.77546-5.2259-.01902L22.5865,15.8h4.5973l-3.1239-3.4338h1.9206z" fill="#fff"/></svg>