<svg width="24" height="24" xmlns="http://www.w3.org/2000/svg"><path fill-rule="evenodd" clip-rule="evenodd" d="m22.5,0h-21C.675,0,0,.675,0,1.5v21c0,.825.675,1.5,1.5,1.5h21c.825,0,1.5-.675,1.5-1.5v-21c0-.825-.675-1.5-1.5-1.5z" fill="#2d327d"/><path fill-rule="evenodd" clip-rule="evenodd" d="m8.08496,17.9549c-.39-.2025-.87-.3225-1.3875-.3225-1.305,0-2.3625.75-2.3625,1.68s1.0575,1.68,2.3625,1.68,2.3625-.75,2.3625-1.68v-9.21l-.975-.97496v8.82746z" fill="#fff"/><path fill-rule="evenodd" clip-rule="evenodd" d="m15.99,6.6525V14.91l.975.975V3L8.08496,6.42v.585l1.905,1.9125L15.99,6.6525z" fill="#fff"/><path fill-rule="evenodd" clip-rule="evenodd" d="m12.24,17.2199c0,.93,1.0575,1.68,2.3625,1.68.9975,0,1.845-.4425,2.1975-1.0575l-2.3025-2.3025c-1.26.0375-2.2575.7725-2.2575,1.68z" fill="#fff"/><path fill-rule="evenodd" clip-rule="evenodd" d="m3.70496,2.63245-1.0575,1.0575L19.9875,21.0374l1.065-1.065L3.70496,2.63245z" fill="#eb0000"/></svg>