<svg width="24" height="24" xmlns="http://www.w3.org/2000/svg"><path fill-rule="evenodd" clip-rule="evenodd" d="m12.2823,3.08735L12,2.89417l-.2823.19318-9.50004,6.5L1.61455,10l.60311.4127,2.35007,1.6079L2.22266,13.584l-.61597.4106.61097.4181,9.50004,6.5.2823.1931.2823-.1931,9.5-6.5.611-.4181-2.961-1.974,2.35-1.6079L22.3855,10l-.6032-.41265-9.5-6.5zm6.2603,9.54195-6.2603,4.2834L12,17.1058l-.2823-.1931-6.26029-4.2834-2.06409,1.3761L12,19.8942l8.6067-5.8888-2.0641-1.3761zM12,15.8942,3.38546,10,12,4.10583,20.6146,10,12,15.8942z"/></svg>