<svg width="36" height="36" xmlns="http://www.w3.org/2000/svg"><path fill-rule="evenodd" clip-rule="evenodd" d="m16.75,6.00049V30.0005h1V6.00049h-1zm-9.50073,2.25c0-.55303.44781-1,1-1,.55218,0,1,.44697,1,1,0,.55186-.44814,1-1,1s-1-.44814-1-1zm1-2c-1.10382,0-2,.89403-2,2,0,1.10414.89586,2.00001,2,2.00001s2.00003-.89587,2.00003-2.00001c0-1.10597-.89622-2-2.00003-2zm-3,5.99931h-.5v8.5h1.5v9h4.00003v-9h1.5v-8.5H5.24927zm.5,7.5v-6.5h5.00003v6.5H9.24927v9h-2v-9h-1.5zm19.50073,9v-5h2v5h-2zm-1,.5v-5.5h-3.1629l.1821-.6374,3.1036-10.8626h3.7544l3.1036,10.8626.1821.6374H28.25v6h-4v-.5zm1-20.99931c0-.55303.4478-1,1-1,.5534,0,1,.44664,1,1,0,.55218-.447,1-1,1-.5519,0-1-.44814-1-1zm1-2c-1.1038,0-2,.89403-2,2,0,1.10414.8959,2.00001,2,2.00001,1.106,0,2-.89619,2-2.00001,0-1.10564-.8944-2-2-2zm-1.1228,6.99931-2.7143,9.5h7.6742l-2.7143-9.5h-2.2456z"/></svg>