<svg width="24" height="24" xmlns="http://www.w3.org/2000/svg"><path fill-rule="evenodd" clip-rule="evenodd" d="m12.0039,5.01634c-1.3358.08705-2.57438.52328-3.62799,1.21614l.54945.83553c1.02516-.67416,2.25114-1.06777,3.57424-1.06777,3.6009,0,6.5,2.89915,6.5,6.49996,0,1.3232-.3936,2.5492-1.0677,3.5743l.8355.5495c.6929-1.0537,1.1291-2.2923,1.2161-3.6282h2.0154v-1h-2.0158c-.2471-3.74973-3.2294-6.73202-6.9792-6.97901V3.00024h-1v2.0161zM3,12.0002h2.01676c.11089-1.698.78282-3.24013,1.8342-4.44203L4.72165,5.429l.70709-.70713L20.2787,19.5709l-.707.7071-2.129-2.1288c-1.201,1.0501-2.7419,1.7227-4.4388,1.8344v2.0162h-1v-2.0157c-3.75483-.2435-6.74192-3.2295-6.98714-6.9839H3v-1zm13.7338,5.4401-1.4246-1.4245c-.7698.6157-1.7468.9838-2.8087.9838-2.4851,0-4.50001-2.0147-4.50001-4.499,0-1.0625.36799-2.0396.9836-2.80945L7.5599,8.26706c-.97341,1.136-1.55941,2.61294-1.55941,4.23304,0,3.6009,2.89914,6.5,6.50001,6.5,1.62,0,3.0971-.5867,4.2333-1.5598zm-7.03698-7.0365c-.43776.5845-.69633,1.3099-.69633,2.0968,0,1.9318,1.56701,3.499,3.50001,3.499.7862,0,1.5115-.2586,2.096-.6964l-4.89968-4.8994zM12.5004,9.00049c-.5097,0-.9928.11462-1.435.31458l-.412-.91117c.5617-.25403,1.1847-.40341,1.847-.40341,2.485,0,4.5,2.01381,4.5,4.50001,0,.663-.1507,1.2849-.4044,1.846l-.9112-.412c.2003-.4429.3156-.925.3156-1.434,0-1.9338-1.5671-3.50001-3.5-3.50001z"/></svg>