<svg width="36" height="36" xmlns="http://www.w3.org/2000/svg"><path fill-rule="evenodd" clip-rule="evenodd" d="m4.49927,4.49941v4.5h1.5v-3.006h1.5v-1.5h-3v.006zM4.5,11.9941h3.0015v-1.5H4.5v1.5zM15,7.49854h-1.5015v-1.5H15v1.5zm1.5015,0h1.5v-3h-1.5v3zM8.99927,4.49561h4.50003v1.5h-3v1.503H7.49927v-1.5h1.5v-1.503zM19.5015,7.49564h3V5.99561h1.5v1.5h1.5v-3h-3v1.49853h-3v1.5015zM6,25.5H4.5v-3H6v3zm-1.5-9.0029H6V15h1.5015v-1.5H6v1.4971H4.5v1.5zM6,19.4956H4.5v-1.5015H6V16.5h1.5015V18H6v1.4956zM7.5015,21H6v-1.5h1.5015V21zM16.5,25.4956h9v-9h-9v9zm1.5-1.5015h6v-6h-6v6zm4.5-1.4985h-3v-3h3v3zm-12.0015-4.5h3v-1.4985H15v-1.5h-1.5015v1.4985h-3v1.5zm10.503-2.9986V15h-1.5v-.003h-1.5v-1.5h1.5V12h1.5v2.997zm10.5,4.503h-1.5v1.497h-3v1.5h3V21h1.5v-1.5zm-1.5-3h1.5V18h-1.5v1.497h-3v-1.5h3V16.5zm-13.5022-2.9999v-1.503h3.0015v-1.5h-4.5v.003h-.0015v1.5h-1.5v1.5h3zM24,13.5h-1.5v-3H24v2.9971h1.5v1.5H24V13.5zm6.0015,12h1.5v-3h-1.5v3zM13.4993,11.9941h-1.5v3.006h-1.5v-4.506h3v1.5zm4.5022,19.5074h1.5015v-1.5h-1.5015v1.5zm-6.003,0h-1.5v-3.003h1.5v3.003zm3.0008-6.0044h-1.5v.003h-1.5v1.5h1.5v1.497h3.0015v-1.5h-1.5l-.0015-1.5zm6.0037,3h-3.0015v-1.5h3.0015v1.5zm8.9985,3h1.5v-1.5h-1.5v1.5zm-18.003-9h-1.5v-1.5h1.5V19.5H15V21h-3.0015v1.4971zm-1.5,3h1.5V24H15v-1.5h-3.0015v1.4971h-1.5v1.5zm21.003-12.0008h-1.5v-1.5h-1.5v-1.5h3v3zm-18.003,18.0052H16.5v-1.5h-3.0015v1.5zm16.503-3.0044h-1.5V27h-1.5v2.997h1.5v1.5h-3v-3h-1.5v1.5045h-1.5v1.5h-1.5v-3h1.5v-1.5l4.5-.0045V24h1.5v2.9971h1.5v1.5zm-3-11.997v-3l-1.5-.003v-1.5h3v3h1.5v1.5l-3,.003z"/></svg>