<svg width="36" height="36" xmlns="http://www.w3.org/2000/svg"><path fill-rule="evenodd" clip-rule="evenodd" d="m25.8528,6.7106-.3536-.35216-.3528.35286-3.435,3.435-.3536.3535,3.7886,3.7886.3542.3543.3536-.355,3.435-3.4485.3528-.3542-.3542-.3529-3.435-3.4215zm-3.0808,3.7892,2.7286-2.72854,2.7272,2.71644-2.7286,2.7393-2.7272-2.7272zm-2.9185,2.2119-.3536-.3534-.3535.3534-11.24995,11.25-.14645.1465v4.1421h4.1421l.1465-.1465,11.25-11.2515.3536-.3536-.3537-.3535-3.435-3.4335zM8.75,24.5224l10.7501-10.7501,2.7277,2.7266L11.4779,27.2503H8.75v-2.7279z"/></svg>