<svg width="24" height="24" xmlns="http://www.w3.org/2000/svg"><path fill-rule="evenodd" clip-rule="evenodd" d="m22.5,0h-21C.675,0,0,.675,0,1.5v21c0,.825.675,1.5,1.5,1.5h21c.825,0,1.5-.675,1.5-1.5v-21c0-.825-.675-1.5-1.5-1.5z" fill="#2d327d"/><path fill-rule="evenodd" clip-rule="evenodd" d="m5.49011,18.1799h-2.1225c.105.945.48,1.695,1.14,2.2576.66.5624,1.4925.8399,2.505.8399,1.515,0,2.6475-.72,3.39749-2.16.5775-1.1025.8625-2.445.8625-4.0125,0-1.695-.3225-3.015-.975-3.9525-.37499-.525-.83249-.9375-1.37249-1.22246-.5475-.285-1.14-.4275-1.7775-.4275-1.0425,0-1.935.3375-2.6775,1.01246-.8625.78-1.2975,1.8075-1.2975,3.075,0,.63.12,1.2226.36,1.755.24.5325.57.975.9975,1.3125.6075.4801,1.3275.72,2.1525.72.5175,0,.96-.105,1.32-.3075s.7125-.5475,1.0575-1.0275c-.045.5475-.12,1.0425-.225,1.4701-.1575.675-.39,1.1699-.6825,1.4924s-.675.48-1.1475.48c-.8325,0-1.3425-.435-1.515-1.305zm.39-6.195c.33-.3974.7425-.5925,1.2225-.5925.54,0,.975.21,1.2975.6375.315.4125.4725.9076.4725,1.5,0,.5625-.1575,1.0425-.4575,1.4475-.3225.4275-.75.645-1.29.645-.6,0-1.0575-.27-1.3875-.795-.24-.3825-.36-.825-.36-1.32,0-.615.1725-1.125.5025-1.5225z" fill="#fff"/><path fill-rule="evenodd" clip-rule="evenodd" d="m14.6776,14.9625c-.525-.18-.9225-.4725-1.2-.885s-.42-.9075-.42-1.4925c0-.975.3975-1.7475,1.2-2.3325.705-.51002,1.545-.77252,2.52-.77252,1.11,0,2.01.30751,2.715.91502.6675.5775.9975,1.2825.9975,2.13,0,.5925-.1425,1.095-.42,1.515-.285.42-.6825.7275-1.2.915.405.12.735.27.99.4575.7125.5175,1.0725,1.275,1.0725,2.265,0,1.14-.435,2.055-1.3125,2.73-.735.57-1.6875.855-2.8425.855-1.2525,0-2.2575-.315-3-.9375-.7725-.6525-1.1625-1.5075-1.1625-2.5575,0-.99.345-1.755,1.0275-2.3025.3075-.2325.6525-.405,1.035-.5025zm2.055.8475c-.555,0-1.005.1725-1.3575.51s-.525.78-.525,1.3125c0,.5475.18.9975.5325,1.335.36.345.8175.5175,1.3875.5175.645,0,1.1325-.1875,1.455-.57.315-.3675.4725-.7875.4725-1.26,0-.54-.18-.99-.54-1.335-.3525-.3375-.825-.51-1.425-.51zm-1.1775-4.1625c.3-.2775.6975-.4125,1.1925-.4125.5325,0,.945.1275,1.245.39s.45.63.45,1.095c0,.48-.1425.855-.4425,1.1325s-.705.4125-1.215.4125c-.5175,0-.9225-.1425-1.23-.42s-.4575-.6525-.4575-1.1175c0-.4425.1575-.8025.4575-1.08z" fill="#fff"/><path fill-rule="evenodd" clip-rule="evenodd" d="m5.09255,4.03494v1.215h-.315l-.0525-.255c-.165.21-.39.3075-.675.3075-.345,0-.615-.1275-.81-.3825-.165-.21-.2475-.4725-.2475-.7875,0-.3525.105-.64499.3225-.86999.2025-.21001.465-.32251.78-.32251.2925,0,.5325.09751.72.285.135.1425.2175.315.24.51h-.4725c-.0225-.12-.0825-.2175-.165-.285s-.195-.105-.3225-.105c-.2025,0-.3525.075-.465.2325-.0975.13501-.1425.315-.1425.5475,0,.225.045.3975.135.5325.1125.1575.27.24.4875.24.1575,0,.285-.045.3825-.1425s.15-.2175.1575-.3675h-.5025v-.36l.945.0075z" fill="#fff"/><path fill-rule="evenodd" clip-rule="evenodd" d="m5.90252,3v2.25h-.4425V3h.4425z" fill="#fff"/><path fill-rule="evenodd" clip-rule="evenodd" d="m7.65005,4.98734c.06-.08251.105-.16501.1275-.26251h-.4275c-.03.075-.075.135-.1275.1725s-.12.0525-.2025.0525c-.1725,0-.285-.0675-.345-.2175-.0225-.0525-.03-.12-.0375-.2025h1.17c0-.2025-.015-.3675-.0675-.495s-.12-.24-.225-.33c-.1425-.1275-.315-.1875-.5175-.1875-.2475,0-.45.09-.6075.2775-.1425.165-.21.36751-.21.615,0,.12.015.2475.06.36.045.105.0975.2025.1725.2775.15.1575.3525.24001.6.24001.2775,0,.4875-.09751.6375-.3zm-.30822-.76501c.00025.00249.0005.00499.00072.0075v-.0075h-.00072zm0,0c-.00815-.0791-.02996-.1441-.05178-.195-.03-.0525-.0675-.0975-.12-.1275s-.1125-.045-.1725-.045c-.0975,0-.18.03-.2475.0975s-.105.1575-.1125.27h.70428z" fill="#fff"/><path fill-rule="evenodd" clip-rule="evenodd" d="m8.52758,3.405V3h-.4425v.405h.4425zm0,1.845V3.57h-.4425v1.68h.4425z" fill="#fff"/><path fill-rule="evenodd" clip-rule="evenodd" d="m10.2451,4.0574h-.41999c-.0075-.06-.0225-.0975-.045-.1275-.045-.06-.135-.09-.255-.09-.0825,0-.1425.015-.18.045s-.0675.0675-.0675.12.0225.0975.075.12.1575.0525.33.09c.2175.045.37499.09751.46499.165.1125.075.1725.195.1725.3525,0,.18-.0675.315-.21.42-.13499.0975-.32249.1425-.54749.1425-.2775,0-.4875-.0675-.615-.21-.09-.0975-.135-.225-.15-.3825h.4275c.0075.075.03.135.06.1725.06.0675.15.105.285.105.09,0,.165-.015.2175-.0525s.0825-.08999.0825-.15c0-.06-.0225-.0975-.0675-.1275s-.1425-.06-.2925-.0975c-.1425-.0375-.2475-.06-.3075-.0825s-.1125-.045-.165-.0675c-.06-.0375-.1125-.0825-.1425-.15s-.0525-.135-.0525-.2175c0-.1725.075-.3075.2175-.3975.12-.075.285-.1125.495-.1125.2775,0,.47999.0675.59999.21.045.075.0825.1875.09.3225z" fill="#fff"/></svg>