<svg width="24" height="24" xmlns="http://www.w3.org/2000/svg"><path fill-rule="evenodd" clip-rule="evenodd" d="m22.5,0h-21C.675,0,0,.675,0,1.5v21c0,.825.675,1.5,1.5,1.5h21c.825,0,1.5-.675,1.5-1.5v-21c0-.825-.675-1.5-1.5-1.5z" fill="#2d327d"/><path fill-rule="evenodd" clip-rule="evenodd" d="m5.13006,14.9625c-.525-.18-.9225-.4725-1.2-.885s-.42-.9075-.42-1.4925c0-.975.3975-1.7475,1.2-2.3325.705-.51002,1.545-.77252,2.52-.77252,1.11,0,2.01.30751,2.715.91502.66754.5775.99754,1.2825.99754,2.13,0,.5925-.1425,1.095-.42,1.515-.285.42-.68254.7275-1.20004.915.405.12.73504.27.99004.4575.7125.5175,1.0725,1.275,1.0725,2.265,0,1.14-.435,2.055-1.3125,2.73-.73504.57-1.68754.855-2.84254.855-1.2525,0-2.2575-.315-3-.9375-.78-.645-1.17-1.5-1.17-2.5575,0-.99.345-1.755,1.0275-2.3025.315-.2325.6675-.405,1.0425-.5025zm2.055.8475c-.555,0-1.005.1725-1.3575.51s-.525.78-.525,1.3125c0,.5475.18.9975.5325,1.335.36.345.8175.5175,1.3875.5175.645,0,1.1325-.1875,1.455-.57.315-.3675.4725-.7875.4725-1.26,0-.54-.18-.99-.54-1.335-.345-.345-.8175-.51-1.425-.51zm-1.1775-4.1625c.3-.2775.6975-.4125,1.1925-.4125.5325,0,.945.1275,1.245.39s.45.63.45,1.095c0,.48-.1425.855-.4425,1.1325s-.705.4125-1.215.4125c-.5175,0-.9225-.1425-1.23-.42s-.4575-.6525-.4575-1.1175c0-.4425.1575-.8025.4575-1.08z" fill="#fff"/><path fill-rule="evenodd" clip-rule="evenodd" d="m18.4951,12.5625h2.1375c-.1125-.735-.3525-1.3425-.7425-1.815-.66-.8325-1.6125-1.2525-2.8575-1.2525-1.32,0-2.3625.525-3.1275,1.575-.7875,1.0875-1.185,2.5875-1.185,4.5075,0,1.7925.375,3.1875,1.11,4.1925.735.9975,1.77,1.5,3.0975,1.5,1.035,0,1.9275-.345,2.6625-1.035.8175-.765,1.23-1.785,1.23-3.0525,0-1.065-.3075-1.9575-.915-2.6625-.6375-.75-1.485-1.125-2.5425-1.125-.54,0-.9975.0975-1.38.3-.3825.195-.7425.525-1.08.9825.0825-.84.2025-1.47.345-1.8825.3525-1.02.9375-1.53,1.77-1.53.7875,0,1.275.4275,1.4775,1.2975zm-2.955,3.255c.315-.45.7425-.675,1.2825-.675.5775,0,1.0425.2325,1.38.7125.2775.39.4125.8625.4125,1.41,0,.5625-.1575,1.0425-.465,1.455-.3225.435-.7575.6525-1.2975.6525-.555,0-.99-.225-1.305-.6825-.2925-.4125-.435-.8925-.435-1.44,0-.555.1425-1.035.4275-1.4325z" fill="#fff"/><path fill-rule="evenodd" clip-rule="evenodd" d="m5.03255,3-.75,2.25h-.555L2.99255,3h.51l.5025,1.68751L4.51505,3h.5175z" fill="#fff"/><path fill-rule="evenodd" clip-rule="evenodd" d="m6.47251,3.76502c-.1575-.1575-.3525-.24-.6-.24-.27,0-.4875.09-.645.2625-.1425.165-.2175.3675-.2175.6225s.075.465.225.63c.15.17251.36.255.6225.255.2475,0,.45-.08249.6-.23249.165-.16501.2475-.38251.2475-.66001,0-.2625-.0825-.48-.2325-.6375zm-.9075.24751c.075-.09751.165-.14251.285-.14251.1275,0,.2325.0525.2925.15001.0675.08999.105.225.105.39,0,.18-.0375.31499-.1125.4125-.0675.0825-.165.1275-.2775.1275-.12,0-.2175-.05251-.2925-.14251-.0675-.09-.105-.225-.105-.3975,0-.17249.0375-.3.105-.39749z" fill="#fff"/><path fill-rule="evenodd" clip-rule="evenodd" d="m7.4475,3.405V3H7.005v.405h.4425zm0,1.845V3.57H7.005v1.68h.4425z" fill="#fff"/><path fill-rule="evenodd" clip-rule="evenodd" d="m9.1951,4.98747c.06-.08251.105-.16501.1275-.26251h-.435c-.03.075-.075.135-.1275.1725s-.12.0525-.2025.0525c-.1725,0-.285-.0675-.345-.2175-.0225-.0525-.03-.12-.0375-.2025h1.1775c0-.2025-.015-.3675-.0675-.495s-.12-.24-.225-.33c-.1425-.1275-.315-.1875-.5175-.1875-.2475,0-.45.09-.6075.2775-.1425.165-.21.36751-.21.615,0,.12.015.2475.06.36.045.105.0975.2025.1725.2775.15.1575.3525.24001.6.24001.2775,0,.4875-.09752.6375-.3zm-.30073-.76501c.00026.00248.0005.00498.00073.0075v-.0075h-.00073zm0,0c-.00814-.0791-.02996-.1441-.05177-.195-.03-.0525-.0675-.0975-.12-.1275s-.1125-.045-.1725-.045c-.0975,0-.18.03-.2475.0975s-.105.1575-.1125.27h.70427z" fill="#fff"/></svg>