<svg width="28" height="16" xmlns="http://www.w3.org/2000/svg"><path fill-rule="evenodd" clip-rule="evenodd" d="m9.462,3.13252c1.46,0,2.801.29177,3.881.9703l.7-2.34674C12.582,1.21325,10.943,1,9.382,1,4.341,1,1,4.04369,1,8.9892,1,13.1767,3.74,15,7.842,15c1.359,0,2.92-.2714,3.74-.601l1.601-7.3882H7.522l-.46,2.13349h2.96l-.781,3.58651c-.319.1367-.74.1367-1.379.1367-2.381,0-3.941-1.7652-3.941-3.95585,0-3.19975,2.14-5.77913,5.541-5.77913zm17.0402-1.89977h-9.582l-.48,2.13252h6.101l-8.402,9.26963-.44,2.1326h9.802l.46-2.1326h-6.361l8.422-9.26963.48-2.13252z"/></svg>