<svg width="30" height="16" xmlns="http://www.w3.org/2000/svg"><path fill-rule="evenodd" clip-rule="evenodd" d="m4.22828,7.52637L5.64828,1h-2.8l-1.601,7.47265C.427278,12.3977,1.54728,15,6.10828,15c3.881,0,5.56102-2.1498,6.36202-5.67965L14.3313,1h-2.761l-1.521,6.97979c-.005.02259-.01.04522-.015.06787-.49601,2.25144-1.05372,4.78284-3.90602,4.78284-3.101,0-2.36-3.37215-1.9-5.30413zM19.0272,6.40168,20.2072,1h-2.8l-3,13.7634h2.8l1.521-7.00046,3.88,7.00046h3.341l-4.501-7.49332L28.5102,1h-3.902l-5.541,5.40168h-.04z"/></svg>