<svg width="24" height="24" xmlns="http://www.w3.org/2000/svg"><path fill-rule="evenodd" clip-rule="evenodd" d="m22.5,0h-21C.675,0,0,.675,0,1.5v21c0,.825.675,1.5,1.5,1.5h21c.825,0,1.5-.675,1.5-1.5v-21c0-.825-.675-1.5-1.5-1.5z" fill="#2d327d"/><path fill-rule="evenodd" clip-rule="evenodd" d="m13.5,19.5c0,.825-.675,1.5-1.5,1.5s-1.5-.675-1.5-1.5S11.175,18,12,18s1.5.675,1.5,1.5z" fill="#fff"/><path fill-rule="evenodd" clip-rule="evenodd" d="m15.8175,15.78C14.775,14.805,13.425,14.2725,12,14.2725c-1.4325,0-2.77501.5325-3.8175,1.5075l1.42499,1.4325C10.2675,16.62,11.1075,16.29,12,16.29s1.74.33,2.3925.9225l1.425-1.4325z" fill="#fff"/><path fill-rule="evenodd" clip-rule="evenodd" d="m19.5375,12.0825.1575-.1425,1.2675-1.275c-2.31-2.535-5.58-3.9825-9.0075-3.9825-3.39001,0-6.63001,1.42499-8.93251,3.9075l1.425,1.4325c1.9275-2.1075,4.6575-3.315,7.51501-3.315,2.8875-.01501,5.6475,1.215,7.575,3.375z" fill="#fff"/><path fill-rule="evenodd" clip-rule="evenodd" d="m18.3375,13.1175c-1.6725-1.7175-3.9-2.655-6.3-2.655s-4.71.9975-6.3675,2.73l1.425,1.425c1.2825-1.365,3.075-2.145,4.95-2.145,1.86,0,3.585.735,4.875,2.07l1.4175-1.425z" fill="#fff"/></svg>