<svg width="24" height="24" xmlns="http://www.w3.org/2000/svg"><path fill-rule="evenodd" clip-rule="evenodd" d="m22.5,0h-21C.675,0,0,.675,0,1.5v21c0,.825.675,1.5,1.5,1.5h21c.825,0,1.5-.675,1.5-1.5v-21c0-.825-.675-1.5-1.5-1.5z" fill="#2d327d"/><path fill-rule="evenodd" clip-rule="evenodd" d="m18.36,12.0975,2.64,2.64V21h-7.89c-.345,0-.63-.285-.63-.63,0-.015,0-.03,0-.045,0-.0525.0075-.1125.03-.165.15-.3975.525-.6675.9525-.6675h2.2125c.27,0,.4875-.2175.4875-.4875v-1.2675c0-.195-.0825-.39-.2175-.5325l-4.0875-4.08c-.27-.27-.27-.7125,0-.9825s.7125-.27.9825,0l4.3425,4.35.24-.24-3.885-3.885.2625-.27c.1125-.1125.2625-.1725.4275-.1725.1575,0,.315.06.4275.1725l3.4725,3.4725.24-.24-2.97-2.97.2625-.27c.1125-.1125.2625-.1725.4275-.1725.1575,0,.315.06.4275.1725l2.5425,2.5425.24-.24-2.0475-2.025.2625-.27c.1125-.1125.2625-.1725.4275-.1725.1575,0,.3075.06.42.1725z" fill="#fff"/><path fill-rule="evenodd" clip-rule="evenodd" d="m5.64,16.4025L3,13.7625V7.5h7.89c.345,0,.63.285.63.63,0,.015,0,.03,0,.045,0,.0525-.0075.1125-.03.165-.15.3975-.525.6675-.9525.6675H8.325c-.27,0-.4875.2175-.4875.4875v1.2675c0,.195.0825.39.2175.5325l4.0875,4.0875c.27.27.27.7125,0,.9825s-.7125.27-.9825,0l-4.3425-4.35-.24.24,3.885,3.885-.2625.27c-.1125.1125-.2625.1725-.4275.1725-.1575,0-.315-.06-.4275-.1725l-3.4725-3.4725-.24.24,2.97,2.97-.2625.27c-.1125.1125-.2625.1725-.4275.1725-.1575,0-.315-.06-.4275-.1725l-2.535-2.565-.24.24,2.04,2.04-.2625.27c-.1125.1125-.2625.1725-.4275.1725-.1575,0-.3075-.06-.42-.1725z" fill="#fff"/><path fill-rule="evenodd" clip-rule="evenodd" d="m4.8825,3.6675h-.465c-.0075-.1125-.0525-.195-.12-.255-.075-.06001-.1725-.09-.3075-.09-.1125,0-.2025.0225-.27.0675s-.0975.1125-.0975.195c0,.075.03.1275.09.1575s.21.0825.45.135c.255.06.435.1275.5325.195.18.12.27.285.27.495,0,.2325-.09.42-.2775.5475-.1575.12-.3825.18-.6525.18-.3075,0-.54-.0675-.7125-.21s-.255-.3375-.2625-.5925h.4875c.0075.1275.0375.2175.0975.2775.09.0975.225.1425.405.1425.12,0,.2175-.0225.2925-.075.0825-.0525.12-.1275.12-.225s-.06-.165-.1725-.21001c-.06-.0225-.21-.0675-.4425-.135-.1425-.0375-.2625-.075-.345-.1125s-.15-.075-.195-.11999c-.1125-.10501-.1725-.24751-.1725-.4275,0-.2175.09-.39.27-.51001.15-.105.3525-.16499.5925-.16499.2175,0,.39.04499.54.12749.225.13501.3375.33001.345.60751z" fill="#fff"/><path fill-rule="evenodd" clip-rule="evenodd" d="m7.0425,3.24001c-.2025-.195-.45-.2925-.75-.2925-.3225,0-.5925.105-.8025.315-.2175.2025-.3225.495-.3225.87,0,.315.0825.57.2475.78.21.2625.495.39.8625.39.36,0,.6375-.1275.8475-.3825.1725-.21.255-.4725.255-.795,0-.375-.1125-.6675-.3375-.885zm-1.2075.315c.1125-.135.255-.2025.435-.2025.1875,0,.345.075.45.21.1125.135.165.3225.165.555,0,.2475-.06.4425-.18.585-.105.1275-.2475.1875-.4275.1875-.09,0-.1725-.015-.255-.0525-.075-.0375-.1425-.0825-.195-.15-.1125-.135-.165-.33-.165-.57s.06-.4275.1725-.5625z" fill="#fff"/><path fill-rule="evenodd" clip-rule="evenodd" d="m9.38249,3.6675h-.465c-.0075-.1125-.0525-.195-.12-.255-.075-.06001-.1725-.09-.3075-.09-.1125,0-.2025.0225-.27.0675s-.0975.1125-.0975.195c0,.075.03.1275.09.1575s.21.0825.45.135c.255.06.435.1275.5325.195.18.12.27.285.27.495,0,.2325-.09.42-.27.5475-.1575.12-.3825.18-.6525.18-.3075,0-.54-.0675-.7125-.21s-.255-.3375-.2625-.5925h.4875c.0075.1275.0375.2175.0975.2775.09.0975.225.1425.405.1425.12,0,.2175-.0225.2925-.075.0825-.0525.12-.1275.12-.225s-.06-.165-.1725-.21001c-.06-.0225-.21-.0675-.4425-.135-.1425-.0375-.2625-.075-.345-.1125s-.15-.075-.195-.11999c-.1125-.10501-.1725-.24751-.1725-.4275,0-.2175.09-.39.27-.51001.15-.105.3525-.16499.5925-.16499.2175,0,.39.04499.54.12749.2175.13501.33.33001.3375.60751z" fill="#fff"/></svg>