<svg width="24" height="24" xmlns="http://www.w3.org/2000/svg"><path fill-rule="evenodd" clip-rule="evenodd" d="m22.5,0h-21C.675,0,0,.675,0,1.5v21c0,.825.675,1.5,1.5,1.5h21c.825,0,1.5-.675,1.5-1.5v-21c0-.825-.675-1.5-1.5-1.5z" fill="#2d327d"/><path fill-rule="evenodd" clip-rule="evenodd" d="m14.775,7.5h3.975C19.995,7.5,21,8.505,21,9.75v9c0,1.245-1.005,2.25-2.25,2.25H5.25C4.005,21,3,19.9875,3,18.75v-9C3,8.505,4.005,7.5,5.25,7.5h3.975v-.9375c0-.7275.585-1.3125,1.3125-1.3125h2.925c.7275,0,1.3125.585,1.3125,1.3125V7.5zm-4.5,0h3.45V6.3h-3.45v1.2z" fill="#fff"/></svg>