<svg width="24" height="24" xmlns="http://www.w3.org/2000/svg"><path fill-rule="evenodd" clip-rule="evenodd" d="m22.5,0h-21C.675,0,0,.675,0,1.5v21c0,.825.675,1.5,1.5,1.5h21c.825,0,1.5-.675,1.5-1.5v-21c0-.825-.675-1.5-1.5-1.5z" fill="#2d327d"/><path fill-rule="evenodd" clip-rule="evenodd" d="m3.2625,16.185c-.18.42-.255.885-.2625,1.2825C3,17.865,3,21,3,21h7.8225c.0825-.1875.315-.6075.5625-1.1475-.2025.09-.4275.1425-.675.15-.015,0-.0375,0-.0525,0-.3,0-.6075-.0675-.8925-.195L6.255,18.21c-.5025-.2325-.8925-.63-1.065-1.095-.135-.36-.1275-.735.0225-1.0575l1.59-3.4125.87-1.875c.165-.5025.0225-1.06496-.375-1.42496-.06-.0525-.12-.0975-.195-.1275-.345-.1425-.7425.015-.8925.36001L3.2625,16.185z" fill="#fff"/><path fill-rule="evenodd" clip-rule="evenodd" d="m12.5175,20.97c-.4425-.0075-.8025-.3675-.795-.81s.3675-.8025.8175-.795h1.4775c.4425-.0075.81.3525.8175.795s-.3525.81-.795.8175h-1.5225V20.97z" fill="#fff"/><path fill-rule="evenodd" clip-rule="evenodd" d="m13.4325,19.005c-.4425-.0075-.8025-.3675-.795-.81s.3675-.8025.8175-.795h1.4775c.4425-.0075.81.3525.8175.795s-.3525.81-.795.8175h-1.5225v-.0075z" fill="#fff"/><path fill-rule="evenodd" clip-rule="evenodd" d="m14.34,17.0475c-.4425-.0075-.8025-.3675-.795-.81s.3675-.8025.8175-.795H15.84c.4425-.0075.81.3525.8175.795s-.3525.81-.795.8175H14.34v-.0075z" fill="#fff"/><path fill-rule="evenodd" clip-rule="evenodd" d="m15.2475,15.15c-.4425-.0075-.8025-.3675-.795-.8175.0075-.4425.3675-.8025.8175-.795h1.4775c.4425-.0075.81.3525.8175.795s-.3525.81-.795.8175h-1.5225z" fill="#fff"/><path fill-rule="evenodd" clip-rule="evenodd" d="m16.5075,7.82249c-.165-.3225-.4575-.5925-.825-.7575l-3.51-1.5975c-.24-.1125-.5025-.165-.75-.165h-.045c-.495.015-.8925.24-1.065.615L5.5275,16.2075c-.1125.24-.1125.51-.015.7875.1425.3825.465.705.885.9l3.51,1.5975c.24.1125.5025.165.75.165h.045c.495-.015.8925-.24,1.065-.615l4.785-10.29001c.135-.285.12-.615-.045-.93zM9.195,17.7525c-.12.2475-.42.3525-.675.225-.255-.12-.36-.42-.24-.6675s.42-.3525.675-.2325c.255.1275.36.4275.24.675zm-2.2425-2.49,4.62,2.0775,4.02-8.72251-4.62-2.0775-4.02,8.72251z" fill="#fff"/><path fill-rule="evenodd" clip-rule="evenodd" d="m4.95749,3.6675h-.465c-.0075-.1125-.0525-.195-.12-.255-.0675-.06001-.1725-.09-.3075-.09-.1125,0-.2025.0225-.27.0675s-.0975.1125-.0975.195c0,.075.03.1275.09.1575s.21.0825.45.135c.255.06.435.1275.5325.195.18.12.27.285.27.495,0,.2325-.09.42-.2775.5475-.1575.12-.3825.18-.6525.18-.3075,0-.54-.0675-.7125-.21s-.255-.3375-.2625-.5925h.4875c.0075.1275.0375.2175.0975.2775.09.0975.225.1425.405.1425.12,0,.2175-.0225.2925-.075.0825-.0525.12-.1275.12-.225s-.06-.165-.1725-.21001c-.06-.0225-.21-.0675-.4425-.135-.1425-.0375-.2625-.075-.345-.1125s-.15-.075-.195-.11999c-.1125-.10501-.1725-.24751-.1725-.4275,0-.2175.09-.39.27-.51001.15-.105.3525-.16499.5925-.16499.2175,0,.39.04499.54.12749.225.13501.3375.33001.345.60751z" fill="#fff"/><path fill-rule="evenodd" clip-rule="evenodd" d="m7.11749,3.24001c-.2025-.195-.45-.2925-.75-.2925-.3225,0-.5925.105-.8025.315-.2175.2025-.3225.495-.3225.87,0,.315.0825.57.2475.78.21.2625.495.39.8625.39.36,0,.6375-.1275.8475-.3825.1725-.21.255-.4725.255-.795,0-.375-.1125-.6675-.3375-.885zm-1.2075.315c.1125-.135.255-.2025.435-.2025.1875,0,.345.075.45.21.1125.135.165.3225.165.555,0,.2475-.06.4425-.18.585-.105.1275-.2475.1875-.4275.1875-.09,0-.18-.015-.255-.0525s-.1425-.0825-.195-.15c-.1125-.135-.165-.33-.165-.57s.06-.4275.1725-.5625z" fill="#fff"/><path fill-rule="evenodd" clip-rule="evenodd" d="m9.45749,3.6675h-.465c-.0075-.1125-.0525-.195-.12-.255-.075-.06001-.1725-.09-.3075-.09-.1125,0-.2025.0225-.27.0675s-.0975.1125-.0975.195c0,.075.03.1275.09.1575s.21.0825.45.135c.255.06.435.1275.5325.195.18.12.27.285.27.495,0,.2325-.09.42-.27.5475-.1575.12-.3825.18-.6525.18-.3075,0-.54-.0675-.7125-.21s-.255-.3375-.2625-.5925h.4875c.0075.1275.0375.2175.0975.2775.09.0975.225.1425.405.1425.12,0,.2175-.0225.2925-.075.0825-.0525.12-.1275.12-.225s-.06-.165-.1725-.21001c-.06-.0225-.21-.0675-.4425-.135-.1425-.0375-.2625-.075-.345-.1125s-.15-.075-.195-.11999c-.1125-.10501-.1725-.24751-.1725-.4275,0-.2175.09-.39.27-.51001.15-.105.3525-.16499.5925-.16499.21749,0,.39.04499.54.12749.2175.13501.33.33001.3375.60751z" fill="#fff"/></svg>