<svg width="24" height="24" xmlns="http://www.w3.org/2000/svg"><path fill-rule="evenodd" clip-rule="evenodd" d="m22.5,0h-21C.675,0,0,.675,0,1.5v21c0,.825.675,1.5,1.5,1.5h21c.825,0,1.5-.675,1.5-1.5v-21c0-.825-.675-1.5-1.5-1.5z" fill="#2d327d"/><path fill-rule="evenodd" clip-rule="evenodd" d="m3,12c0-4.9725,4.0275-9,9-9s9,4.0275,9,9-4.0275,9-9,9-9-4.0275-9-9zm10.8825-2.7375c0,1.035.84,1.8675,1.8675,1.8675s1.8675-.8325,1.8675-1.86c0-1.035-.84-1.8675-1.8675-1.8675-1.65,0-2.7,1.245-3.2325,2.0175V7.53h-4.59c-.21,0-.375.165-.375.375s.165.375.375.375h1.185v8.16h-1.185c-.21,0-.375.165-.375.375s.165.375.375.375h5.745c.21,0,.375-.165.375-.375s-.165-.375-.375-.375h-1.155v-4.545c0-1.2375.57-2.415,1.3875-2.9025-.015.09-.0225.18-.0225.27z" fill="#fff"/></svg>