<svg width="24" height="24" xmlns="http://www.w3.org/2000/svg"><path fill-rule="evenodd" clip-rule="evenodd" d="m5.5686,3.69058.86018-1.43363-.85749-.5145L3.81404,4.6712,6.74279,6.42845l.51449-.8575-1.49653-.89791C7.59299,4.22397,9.52654,3.9997,11.5,3.9997c1.9596,0,3.9067.22856,5.7372.67459l-1.4944.89666.5145.8575,2.5-1.5.4287-.25725-.2572-.42875-1.5-2.5-.8575.5145.8614,1.43576c-1.9-.45931-3.9123-.69301-5.9327-.69301-2.03185,0-4.02989.22897-5.9314.69088zM7.00003,8.4978c0-.82814.67186-1.5,1.5-1.5h.00009l5.99988.001h.0001c.8294.00004,1.4999.67221,1.4999,1.5v12c0,.8295-.6721,1.5-1.5,1.5H8.50003c-.82781,0-1.5-.6705-1.5-1.5V8.4978zm1.49992-.5c-.27582.00004-.49992.22417-.49992.5v12.001c0,.2765.22382.5.5.5H14.5c.2762,0,.5-.2235.5-.5v-12c0-.27618-.2234-.5-.5-.5l-5.99997-.001h-.00008zM13,7.9987v1h-3v-1h3zm-7.17213-.35818L2.96875,8.68814l.17101.46983-.17202-.46947.00046-.00016c-.77784.28345-1.17913,1.14435-.89595,1.92236l.00112.0031,3.45779,9.3103.93744-.3482-3.45666-9.3072-.00046-.0013c-.09345-.2589.0405-.54538.29929-.63957l.00102-.00037,2.86012-1.04798-.34404-.93896zM19.9699,8.68814l-2.8591-1.04762-.3441.93896,2.8601,1.04798.001.00037c.2588.09419.3928.38067.2993.63957l-.0004.0013L16.47,19.5759l.9375.3482,3.4577-9.3103.0012-.0031c.2832-.77801-.1181-1.63891-.896-1.92236l.0005.00016-.172.46947.171-.46983z"/></svg>