<svg width="36" height="36" xmlns="http://www.w3.org/2000/svg"><path fill-rule="evenodd" clip-rule="evenodd" d="m17.2498,3.26185c-4.4177,0-8.00004,3.58236-8.00004,8.00005,0,.3844.0289.7603.08259,1.1278-3.44253.5595-6.08259,3.5156-6.08259,7.1222,0,4.0036,3.24635,7.25,7.25004,7.25H16.75V31.75H3v1h30v-1H17.75v-4.9881h9.2498c3.1756,0,5.75-2.5744,5.75-5.75,0-1.7804-.8145-3.3653-2.082-4.4173.3701-.696.582-1.4889.582-2.3327,0-2.7617-2.2384-5.00005-5-5.00005-.4312,0-.8453.05917-1.239.16356-.8298-3.52776-3.9754-6.16356-7.761-6.16356zM17.75,25.7619h9.2498c2.6233,0,4.75-2.1267,4.75-4.75,0-1.6047-.8017-3.0202-2.0257-3.8811l-.3961-.2786.2658-.4048c.414-.6303.656-1.3785.656-2.1855,0-2.2094-1.7907-4-4-4-.5039,0-.9854.1027-1.4384.2793l-.5775.2252-.0979-.6121c-.5337-3.3385-3.4035-5.89245-6.8862-5.89245-3.8654,0-7,3.13464-7,7.00005,0,.4978.0557.9816.1569,1.4537l.1186.5538-.56425.0491c-3.19945.2781-5.71129,2.931-5.71129,6.1934,0,3.4513,2.79864,6.25,6.25004,6.25H16.75v-6.0216l-3.5623-2.8499.6246-.7808,2.9377,2.3501V13.5h1v9.1693l4.3737-4.9986.7526.6586L17.75,24.1879v1.574z"/></svg>