<svg width="24" height="24" xmlns="http://www.w3.org/2000/svg"><path fill-rule="evenodd" clip-rule="evenodd" d="m16.8426,7.99997H17c.2824,0,.5533.09299.7488.30727.1883.2064.2512.46481.2512.69273V11c0,.2715-.0905.5358-.2938.731-.1999.192-.4587.269-.7062.269h-1.9639c-.099.1982-.2126.3863-.3394.562,2.9989,1.6612,4.3028,4.9429,4.3028,7.9377v.5H4.99951v-.5c0-3.3836,1.60112-6.4506,4.30197-7.9402-.12608-.175-.23905-.3623-.33763-.5595H7c-.27029,0-.51453-.1212-.68635-.2856C6.13873,11.5471,6,11.2975,6,11V9.00597c0-.29297.13435-.54264.30715-.71223.17048-.16731.41618-.29377.69285-.29377h.0749c1.3881-5.37695,8.6106-5.21775,9.7677,0zm-1.0309,0c-1.0609-3.86254-6.43206-4.06567-7.69728,0h.84943c.5892-1.17902,1.69265-2,3.03615-2s2.447.82098,3.0361,2h.7756zM12,6.99997c-1.3282,0-2.5,1.25875-2.5,3C9.5,11.7412,10.6718,13,12,13c.7254,0,1.4042-.3755,1.8709-1H12v-1h2.362c.0891-.3088.138-.6444.138-1.00003,0-1.74125-1.1718-3-2.5-3zM12,14c.75,0,1.4252-.2559,1.9779-.687,2.5975,1.3134,3.8679,4.0181,4.0084,6.6867H6.01233c.15323-2.9757,1.66984-5.5203,4.00787-6.6882.553.432,1.2289.6885,1.9798.6885zm-5-3.0135V9.01647c.00154-.0023.00399-.00548.0076-.00902.00287-.00282.00583-.00523.00858-.00711l.00055-.00037H8V11h-.98454l-.002-.0013c-.00289-.0019-.00585-.0043-.00861-.0069-.00206-.002-.00365-.0038-.00485-.0053zM16,11h1V8.99997h-1V11z"/></svg>