<svg width="24" height="24" xmlns="http://www.w3.org/2000/svg"><path fill-rule="evenodd" clip-rule="evenodd" d="m12,2.99951c-.5239,0-1,.47614-1,1s.4761,1,1,1,1-.47614,1-1-.4761-1-1-1zm-2,1c0-1.07614.9239-2,2-2s2,.92386,2,2-.9239,2-2,2-2-.92386-2-2zm0,5.15139-.99999,1.5v3.3486h-1v-3.6514l.08397-.1259L10.084,7.22216l.1484-.22265h3.5352l.1484.22265,1.8981,2.84704,3.3233.9495-.2748.9616-3.5-1-.1767-.0505-.1019-.1529L14,9.1509v4.1972l1.916,2.8741.084.1259v5.6514h-1v-5.3486l-1.7676-2.6514H11v3.6602l-.0931.1304-2.50003,3.5-.81373-.5812L10,17.3393V9.1509zm1-1.15139v4.99999h2V7.99951h-2z"/></svg>