<svg width="36" height="36" viewBox="0,0,36,36" xmlns="http://www.w3.org/2000/svg"><path fill-rule="evenodd" clip-rule="evenodd" d="m26.0391,16.0653c-.4382-.565-1.0691-.9624-1.8591-1.0806.2459-1.2539.0651-2.3741-.4163-3.2934-.5548-1.0593-1.4915-1.81855-2.5553-2.20443-1.9973-.72451-4.4714-.13816-5.8,2.22963-2.1922-1.2255-5.1274.3314-5.1346,3.1337-.74336.1434-1.34138.5855-1.75761,1.1673-.5043.7049-.75295,1.6239-.71355,2.5299.03955.9094.37146,1.8407,1.07309,2.5477.70786.7132,1.74987,1.1555,3.12467,1.1555h10.5c1.3202,0,2.3498-.4464,3.0677-1.1478.7116-.6951,1.0894-1.6134,1.1636-2.5175.0738-.9007-.1514-1.8223-.6926-2.52zm-9.9812-3.4128c1.0102-2.2899,3.1238-2.83705,4.8095-2.2256.8487.3079,1.5808.908,2.0104,1.7284.4264.8141.5722,1.8785.1933,3.1529l-.1991.67.6984-.028c.7773-.031,1.3256.273,1.6785.728.3642.4695.543,1.1323.4861,1.8253-.0565.6896-.344,1.3744-.8657,1.884-.5153.5034-1.2869.8631-2.3689.8631h-10.5c-1.1504,0-1.9225-.3638-2.4149-.86-.49864-.5024-.75323-1.1836-.78381-1.8867-.03073-.7065.16687-1.4.52779-1.9045.35478-.4959.85512-.7988,1.47092-.7988h.5633l-.0668-.5593c-.2954-2.4728,2.3588-3.7372,3.9867-2.4038l.5088.4167.2655-.6017zM10.5,25.5002H8.99999v-1.5H10.5v1.5zm1.5,0h-1.5v1.5H8.99999v1.5H10.5v-1.5H12v1.5h1.5v-1.5H12v-1.5zm0,0v-1.5h1.5v1.5H12zm3,6h1.5v1.5H15v1.5h1.5v-1.5H18v1.5h1.5v-1.5H18v-1.5h1.5v-1.5H18v1.5h-1.5v-1.5H15v1.5zm7.5-6H21v-1.5h1.5v1.5zm1.5,0h-1.5v1.5H21v1.5h1.5v-1.5H24v1.5h1.5v-1.5H24v-1.5zm0,0v-1.5h1.5v1.5H24z"/></svg>