<svg width="24" height="24" viewBox="0,0,24,24" xmlns="http://www.w3.org/2000/svg"><path fill-rule="evenodd" clip-rule="evenodd" d="m3,3.5c0-.27614.22386-.5.5-.5h17c.2761,0,.5.22386.5.5v3c0,.27614-.2239.5-.5.5h-17c-.27614,0-.5-.22386-.5-.5v-3zM3.5,2C2.67157,2,2,2.67157,2,3.5v3c0,.65311.4174,1.20873,1,1.41465V18.0854c-.5826.2059-1,.7615-1,1.4146v1c0,.8284.67157,1.5,1.5,1.5h17c.8284,0,1.5-.6716,1.5-1.5v-1c0-.6531-.4174-1.2087-1-1.4146V7.91465c.5826-.20592,1-.76154,1-1.41465v-3c0-.82843-.6716-1.5-1.5-1.5h-17zM20,8h-5v3h-1v1h-1v-1h-2v1h-1v-1H9V8H4v10h4.67666C8.24146,17.4884,8,16.8366,8,16.16V13h8v1h.69c.3474,0,.6806.138.9263.3837S18,14.9626,18,15.31v.37c0,.3501-.1391.6858-.3867.9334-.2475.2475-.5832.3866-.9333.3866h-.8071c-.113.3651-.2992.7057-.5496,1H20V8zm-4,8h.68c.0848,0,.1662-.0337.2262-.0937.0601-.06.0938-.1414.0938-.2263v-.37c0-.0822-.0327-.1611-.0908-.2192C16.851,15.0327,16.7722,15,16.69,15H16v1zm-6.46108,1.4611c.34507.345.81308.5389,1.30108.5389h2.32c.488,0,.956-.1939,1.3011-.5389.345-.3451.5389-.8131.5389-1.3011V14H9v2.16c0,.488.19386.956.53892,1.3011zM10.84,19h9.66c.2761,0,.5.2239.5.5v1c0,.2761-.2239.5-.5.5h-17c-.27614,0-.5-.2239-.5-.5v-1c0-.2761.22386-.5.5-.5h7.34zM10,8v2h4V8h-4zm6-4h3v1h-3V4z"/></svg>