<svg width="36" height="36" viewBox="0,0,36,36" xmlns="http://www.w3.org/2000/svg"><path fill-rule="evenodd" clip-rule="evenodd" d="m13.25,8.24902c0-2.19746,1.8013-4,4-4s4,1.80254,4,4V20.249c0,2.1989-1.8011,4-4,4s-4-1.8011-4-4V8.24902zm4-5c-2.7513,0-5,2.25047-5,5V20.249c0,2.7512,2.2489,5,5,5s5-2.2488,5-5V8.24902c0-2.74953-2.2487-5-5-5zm-.5,24.98768v3.5123H13.5v1H21v-1h-3.25v-3.5123c4.1233-.2036,7.5-2.9245,7.5-7.2377h-1c0,3.7997-3.0608,6.25-7,6.25-3.9378,0-7-2.4504-7-6.25h-1c0,4.3132,3.378,7.0341,7.5,7.2377z"/></svg>