<svg width="48" height="48" viewBox="0,0,48,48" xmlns="http://www.w3.org/2000/svg"><path fill-rule="evenodd" clip-rule="evenodd" d="m12,7V4h1v3h-1zm-5.46098-.82662,2.27705,2.27705.70711-.70711L7.24613,5.46627l-.70711.70711zM10,11.5c0-1.3807,1.1193-2.5,2.5-2.5s2.5,1.1193,2.5,2.5S13.8807,14,12.5,14,10,12.8807,10,11.5zM12.5,8C10.567,8,9,9.567,9,11.5s1.567,3.5,3.5,3.5,3.5-1.567,3.5-3.5S14.433,8,12.5,8zm19.8981,7.197-.3615-.4757-.4046.4397L20.4382,27.3286l-7.6384-5.7291-.38-.285-.3041.3649-4.99983,6.0005.76826.6401,4.69567-5.6355L20.2,28.3999l.3618.2714.3062-.3328,6.8345-7.4291,1.4438,1.4441.3067.3067.3469-.2602L31.5,21.125l1.7,1.2746.3375.2531.3063-.2901,1.5954-1.5114,5.6627,7.4513.7962-.6051-9.5-12.5004zm-2.8512,6.1428-1.1667-1.167,3.5832-3.895,2.8671,3.7726-1.3682,1.296L31.7999,20.1l-.3-.225-.3.225-1.653,1.2398zM8,12H5v-1h3v1zm9.8055-6.44347-2.264,2.23815.7031.71115,2.264-2.23815-.7031-.71115zM17,11h3v1h-3v-1zm1.5232,5.7427-2.2661-2.2567-.7056.7086,2.2661,2.2567.7056-.7086zM12,19v-3h1v3h-1zm-3.19658-4.4483-2.26147,2.2615.70711.7071,2.26147-2.2615-.70711-.7071zm1.86828,24.4317c-1.80343,0-2.732.555-3.59296,1.0712l-.00455.0027c-.8052.4828-1.54466.9261-3.07419.9261v1c1.80343,0,2.732-.555,3.59296-1.0712l.00455-.0027c.8052-.4828,1.54466-.9261,3.07419-.9261,1.5295,0,2.269.4433,3.0742.9261l.0045.0027c.861.5162,1.7896,1.0712,3.593,1.0712,1.8024,0,2.7304-.5551,3.5908-1.0712l.0045-.0028c.8047-.4827,1.5435-.926,3.0718-.926,1.5268,0,2.2648.4432,3.0688.9259l.0045.0028c.8596.5161,1.787,1.0713,3.5881,1.0713,1.8018,0,2.7296-.5551,3.5897-1.0713l.0046-.0027c.8043-.4828,1.5429-.926,3.0706-.926,1.5273,0,2.2656.4432,3.0697.926l.0046.0027c.8598.5162,1.7874,1.0713,3.5889,1.0713v-1c-1.5272,0-2.2656-.4432-3.0697-.926l-.0046-.0027c-.8598-.5162-1.7874-1.0713-3.5889-1.0713-1.8019,0-2.7297.5551-3.5898,1.0713l-.0045.0027c-.8044.4828-1.5429.926-3.0706.926-1.5268,0-2.2648-.4432-3.0688-.9259l-.0045-.0028c-.8596-.5162-1.787-1.0713-3.5881-1.0713-1.8024,0-2.7304.5551-3.5908,1.0712l-.0045.0028c-.8047.4827-1.5435.926-3.0718.926-1.5295,0-2.269-.4433-3.0742-.9261l-.0045-.0027c-.861-.5162-1.7896-1.0712-3.593-1.0712zm-3.59296-3.9293c.86096-.5162,1.78953-1.0712,3.59296-1.0712,1.8034,0,2.732.555,3.593,1.0712l.0045.0027c.8052.4828,1.5447.9261,3.0742.9261,1.5283,0,2.2671-.4433,3.0718-.926l.0045-.0027c.8604-.5162,1.7884-1.0713,3.5908-1.0713,1.8011,0,2.7285.5552,3.5881,1.0714l.0045.0027c.804.4827,1.542.9259,3.0688.9259,1.5277,0,2.2662-.4432,3.0706-.926l.0045-.0027c.8601-.5162,1.7879-1.0713,3.5898-1.0713,1.8015,0,2.7291.5551,3.5889,1.0713l.0046.0027c.8041.4828,1.5425.926,3.0697.926v1c-1.8015,0-2.7291-.5551-3.5889-1.0713l-.0046-.0027c-.8041-.4828-1.5424-.926-3.0697-.926-1.5277,0-2.2663.4432-3.0706.926l-.0046.0027c-.8601.5162-1.7879,1.0713-3.5897,1.0713-1.8011,0-2.7285-.5551-3.5881-1.0713l-.0045-.0027c-.804-.4828-1.542-.926-3.0688-.926-1.5283,0-2.2671.4433-3.0718.926l-.0045.0028c-.8604.5162-1.7884,1.0712-3.5908,1.0712-1.8034,0-2.732-.555-3.593-1.0712l-.0045-.0027c-.8052-.4827-1.5447-.9261-3.0742-.9261-1.52953,0-2.26899.4434-3.07419.9261l-.00455.0027C6.732,36.4279,5.80343,36.9829,4,36.9829v-1c1.52953,0,2.26899-.4433,3.07419-.9261l.00455-.0027zM10.6717,28.9824c-1.80343,0-2.732.555-3.59296,1.0712l-.00455.0027c-.8052.4828-1.54466.9261-3.07419.9261v1c1.80343,0,2.732-.555,3.59296-1.0711l.00455-.0028c.8052-.4827,1.54466-.9261,3.07419-.9261,1.5295,0,2.269.4434,3.0742.9261l.0045.0028c.861.5161,1.7896,1.0711,3.593,1.0711,1.8024,0,2.7304-.555,3.5908-1.0712l.0045-.0027c.8047-.4828,1.5435-.9261,3.0718-.9261,1.5268,0,2.2648.4432,3.0688.926l.0045.0027c.8596.5162,1.787,1.0713,3.5881,1.0713,1.8018,0,2.7296-.5551,3.5897-1.0713l.0046-.0027c.8043-.4827,1.5429-.926,3.0706-.926,1.5273,0,2.2656.4432,3.0697.926l.0046.0027c.8598.5162,1.7874,1.0713,3.5889,1.0713v-1c-1.5272,0-2.2656-.4432-3.0697-.9259l-.0046-.0028c-.8598-.5162-1.7874-1.0713-3.5889-1.0713-1.8019,0-2.7297.5551-3.5898,1.0713l-.0045.0027c-.8044.4828-1.5429.926-3.0706.926-1.5268,0-2.2648-.4432-3.0688-.9259l-.0045-.0027c-.8596-.5162-1.787-1.0714-3.5881-1.0714-1.8024,0-2.7304.5551-3.5908,1.0713l-.0045.0027c-.8047.4827-1.5435.926-3.0718.926-1.5295,0-2.269-.4433-3.0742-.9261l-.0045-.0027c-.861-.5162-1.7896-1.0712-3.593-1.0712z"/></svg>