<svg width="24" height="24" viewBox="0,0,24,24" xmlns="http://www.w3.org/2000/svg"><path fill-rule="evenodd" clip-rule="evenodd" d="m2.99951,2.99961v3h1v-2.004h1v-1h-2v.004zM3,7.99609h2.001v-1H3v1zm7-2.99707H8.99902v-1H10v1zm1.001,0h1v-2h-1v2zM5.99951,2.99707h3v1h-2v1.002h-2v-1h1v-1.002zM13.001,4.99709h2V3.99707h1v1h1v-2h-2v.99902h-2v1.001zM4,17H3v-2h1v2zm-1-6.002h1V10h1.001V9H4v.99805H3v.99995zM4,12.9971H3v-1.001h1V11h1.001v1H4v.9971zM5.001,14H4v-1h1.001v1zM11,16.9971h6v-6h-6v6zm1-1.001h4v-4h-4v4zm3-.999h-2v-2h2v2zm-8.00098-3h2v-.9991H10v-.99995H8.99902v.99905h-2v1zM14.001,9.998V10h-1v-.002h-1v-1h1V8h1v1.998zM21.001,13h-1v.998h-2v1h2V14h1v-1zM20.001,11h1v1h-1v.998h-2v-1h2V11zm-9.0015-1.99995v-1.002h2.001v-1h-3v.002h-.00099v1h-1v1h1.99999zM16,9h-1V7h1v1.99805h1v1h-1V9zm4.001,8h1v-2h-1v2zM8.99951,7.99609h-1v2.00401h-1V6.99609h2v1zM12.001,21.001h1.001v-1h-1.001v1zm-4.00198,0h-1v-2.002h1v2.002zm2.00049-4.003h-1V17h-1v1h1v.998h2.00099v-1h-1l-.00099-1zm4.00249,2h-2.001v-1h2.001v1zm5.999,2h1v-1h-1v1zm-12.00198-6h-1v-1h1V13H10v1H7.99902v.998zm-1,2h1V16H10v-1H7.99902v.998h-1v1zM21.001,8.99756h-1v-1h-1v-1h2v2zM8.99902,21.001H11v-1H8.99902v1zM20.001,18.998h-1V18h-1v1.998h1v1h-2v-2h-1v1.003h-1v1h-1v-2h1v-1l3-.003V16h1v1.998h1v1zm-2-7.998V9.00005l-1-.002v-1h2v2h1v.99995l-2,.002z"/></svg>