<svg width="22" height="16" viewBox="0,0,22,16" xmlns="http://www.w3.org/2000/svg"><path fill-rule="evenodd" clip-rule="evenodd" d="m20.4444,1H1v14h19.4444V1zm-1.2963,12.7089H2.2963V2.2963h16.8518v11.4126zM6.74871,4.95882h1.04364l.37164.66945-.88328,1.30328c-.34491-.11709-.644-.17564-.89472-.17564-.74073,0-1.36946.25964-1.88746.77636-.51673.518-.77636,1.14419-.77636,1.87728,0,.73435.25963,1.36055.77636,1.87725.51546.5193,1.14418.7777,1.88364.7777.66818,0,1.246-.2151,1.73473-.6466.48745-.4302.784-.9838.89218-1.65835h1.61632l2.7555-3.05837.2265.48491c-.3792.25073-.6745.57146-.882.95964-.2087.39073-.3118.81073-.3118,1.26382,0,.73435.2571,1.35925.7751,1.87725.5193.5193,1.1404.7777,1.8735.7777.7407,0,1.3669-.2584,1.8861-.7777.5155-.518.7739-1.1429.7739-1.87725,0-.73946-.2597-1.36818-.7802-1.88237-.5206-.51418-1.1518-.77127-1.89-.77127-.1502,0-.2864.01146-.4035.03309-.1183.02164-.2571.05346-.4149.09673l-1.4013-2.95018h-1.5514v.66691h1.1327l.3538.80818H8.80544l-.22654-.45182h.72163v-.64655H6.74871v.64655zM4.98217,8.007c.38818-.38182.86545-.57145,1.43309-.57145.16418,0,.322.028.47473.08527L5.85271,9.09264l.36655.66691H8.3218c-.09418.48235-.32072.87305-.67963,1.17345-.35764.3016-.77891.4531-1.26.4531-.55237,0-1.02073-.1922-1.40509-.5766-.38309-.3856-.57655-.85268-.57655-1.39995,0-.55237.19473-1.022.58164-1.40255zM8.3218,9.08246H6.66344l.84382-1.26764c.31436.20109.546.48236.69618.84764l.11836.42zm.54855-.6351c-.05855-.15145-.15527-.32327-.29145-.51672-.09291-.13746-.19219-.25455-.29528-.35637-.10436-.09927-.23545-.21127-.39327-.33345l.62364-.938,1.46618,2.77964h-.97109c-.03564-.27364-.08146-.48491-.13873-.6351zm1.73595.3691L9.15544,6.06609h3.92886l-2.478,2.75037zm3.0622,1.99304c-.3856-.3869-.5752-.85268-.5752-1.39995,0-.66182.271-1.19382.8158-1.59728l.9749,2.07964.63-.30291-.9737-2.08091c.1082-.03436.1859-.056.2355-.06236.0509-.00764.1375-.01018.2596-.01018.5639,0,1.0411.18963,1.4268.57145.3869.38182.5816.85018.5816,1.40382s-.1947,1.02068-.5816,1.40258c-.3882.3818-.8553.5727-1.4013.5727-.5447,0-1.0093-.1922-1.3924-.5766z"/></svg>