<svg width="24" height="24" viewBox="0,0,24,24" xmlns="http://www.w3.org/2000/svg"><path fill-rule="evenodd" clip-rule="evenodd" d="m11,4.0164V2h1v2.0164c1.695.11157,3.2362.78622,4.4382,1.83867l1.426-1.42591.7071.70711-1.426,1.42593C18.1975,7.76421,18.872,9.30522,18.9836,11H21v1h-2.0164c-.1116,1.6949-.7861,3.236-1.8385,4.438l1.4262,1.4262-.7071.7071-1.4262-1.4262c-1.202,1.0524-2.7431,1.7269-4.438,1.8385V21h-1v-2.0164c-1.6949-.1116-3.23601-.7862-4.43806-1.8385l-1.42616,1.4262-.70711-.7071,1.42617-1.4262C4.80253,15.236,4.12796,13.6949,4.0164,12H2v-1h2.0164c.11155-1.69476.78604-3.23576,1.83824-4.43776L4.42867,5.13627l.70711-.70711L6.56172,5.8551C7.76379,4.80264,9.30499,4.12797,11,4.0164zM11.5,5C7.91014,5,5,7.91014,5,11.5,5,15.0899,7.91014,18,11.5,18c3.5899,0,6.5-2.9101,6.5-6.5C18,7.91014,15.0899,5,11.5,5zM6,11.5C6,8.46292,8.46179,6,11.5,6,14.5382,6,17,8.46292,17,11.5c0,3.0381-2.4619,5.5-5.5,5.5C8.46186,17,6,14.5381,6,11.5zm1.02746-.5h2.02261c.06481-.319.19041-.616.36417-.8783L7.98417,8.69096C7.46622,9.33841,7.12341,10.132,7.02746,11zM8.6913,7.98388l1.43,1.43065c.2624-.17391.5595-.29961.8787-.36446V7.02746c-.8679.09593-1.66139.43866-2.3087.95642zM12,7.02746v2.02261c.3192.06485.6164.19058.8788.36452l1.43-1.43064c-.6473-.5178-1.4408-.86056-2.3088-.95649zm3.0159,1.66359-1.4301,1.43075c.1737.2623.2993.5593.3641.8782h2.0226c-.0959-.8679-.4387-1.66152-.9566-2.30895zM15.9726,12h-2.0227c-.0648.319-.1904.616-.3642.8784l1.4306,1.4305c.5177-.6473.8604-1.4409.9563-2.3089zm-1.6634,3.016-1.4305-1.4305c-.2625.1739-.5596.2996-.8787.3644v2.0227c.8682-.096,1.6618-.4387,2.3092-.9566zM11,15.9726v-2.0227c-.3191-.0648-.6162-.1905-.8786-.3643l-1.4305,1.4305c.64738.5178,1.441.8605,2.3091.9565zM7.9838,14.309l1.43055-1.4305c-.17381-.2624-.29946-.5594-.36428-.8785H7.02745c.09589.8681.43857,1.6616.95635,2.309zM11.5,10c-.8279,0-1.5.6721-1.5,1.5s.6721,1.5,1.5,1.5,1.5-.6721,1.5-1.5-.6721-1.5-1.5-1.5z"/></svg>