<svg width="24" height="24" viewBox="0,0,24,24" xmlns="http://www.w3.org/2000/svg"><path fill-rule="evenodd" clip-rule="evenodd" d="m4,6h2v10h12v-1H7v-1h10.8604l.1139-.3419,2-5.99999L20.1937,7H7V5H4v1zm3,2v5h10.1396l1.6667-5H7zm2.49999,10C9.22385,18,9,18.2239,9,18.5s.22385.5.49999.5c.27613,0,.49999-.2239.49999-.5s-.22386-.5-.49999-.5zM8,18.5c0-.8284.67157-1.5,1.49999-1.5C10.3284,17,11,17.6716,11,18.5S10.3284,20,9.49999,20C8.67157,20,8,19.3284,8,18.5zm7,0c0-.2761.2239-.5.5-.5s.5.2239.5.5-.2239.5-.5.5-.5-.2239-.5-.5zm.5-1.5c-.8284,0-1.5.6716-1.5,1.5s.6716,1.5,1.5,1.5,1.5-.6716,1.5-1.5-.6716-1.5-1.5-1.5z"/></svg>