<svg width="48" height="48" viewBox="0,0,48,48" xmlns="http://www.w3.org/2000/svg"><path fill-rule="evenodd" clip-rule="evenodd" d="m27.069,10.8002-.3996-.3527-.3264.4213-1.9416,2.5059-7.2405,1.9733-1.3158-.7117-.2802-.1516-.2558.19-4.925,3.657-.76261.5662.89851.3081,1.5119.5185-5.35201,5.9347-.07968.0884-.03134.1147-2.179,7.978-.22605.8277.83152-.2113,4.317-1.097.06822-.0173.06077-.0355,1.58037-.9229,4.2427,4.0622.1691.1619.2326-.0262,6.369-.717.1849-.0208.1263-.1366,3.2566-3.5227,3.9882,5.5133.4965.6864.3609-.7663,2.9961-6.3604,6.9902,1.827.7068.1848-.0837-.7258-.4001-3.4703,2.5377.0644.5381.0137-.026-.5377-.319-6.596-.0112-.2321-.1847-.1411-2.709-2.069-.4699-.3588-.2758.5229-.6878,1.3036-2.6949-.8131,1.1739-3.4981.1519-.4525-.445-.1727-7.4159-2.8788-2.7512-2.428zm-1.9796,3.3191,1.7176-2.2166,2.4183,2.1343.0669.0589.0831.0323,7.054,2.7383-1.1861,3.5345-.1641.4888.4937.149,3.583,1.081.3944.119.1922-.3644.6042-1.1451,2.0544,1.5691.2818,5.8262-2.5749-.0654-.5753-.0146.0659.5718.3823,3.3162-6.6852-1.7473-.4018-.105-.1769.3757-2.8121,5.9697-3.8495-5.3217-.3578-.4946-.4144.4483-3.5447,3.8343-5.9515.67-4.3459-4.1611-.2723-.2607-.3256.1901-1.84526,1.0775-3.41726.8684,1.92161-7.0356,5.77931-6.4087.507-.5622-.7161-.2456-1.3295-.4559,3.9066-2.9008,1.2118.6555.1762.0952.1932-.0526,7.595-2.07.1613-.044.1024-.1322zM28.4999,17.0096c-1.1042,0-2,.8958-2,2,0,.3759.1038.7277.2844,1.0282l-7.2799,7.7324c-.2952-.1719-.6384-.2704-1.0045-.2704-1.1042,0-2,.8958-2,2,0,1.1054.8961,2,2,2s2-.8946,2-2c0-.3754-.1036-.7267-.2836-1.0269l7.2804-7.7329c.2949.1714.6377.2696,1.0032.2696,1.1041,0,2-.8959,2-2,0-1.1042-.8959-2-2-2zm-1,2c0-.5519.4481-1,1-1,.5518,0,1,.4481,1,1,0,.5518-.4482,1-1,1-.5519,0-1-.4482-1-1zm-10,10.4902c0-.5519.4481-1,1-1,.5518,0,1,.4481,1,1,0,.5526-.4479,1-1,1s-1-.4474-1-1z"/></svg>