<svg width="24" height="24" viewBox="0,0,24,24" xmlns="http://www.w3.org/2000/svg"><path fill-rule="evenodd" clip-rule="evenodd" d="m5.50002,5c-.27614,0-.5.22386-.5.5s.22386.5.5.5c.27615,0,.5-.22386.5-.5s-.22385-.5-.5-.5zm-1.5.5c0-.82843.67158-1.5,1.5-1.5.82843,0,1.5.67157,1.5,1.5s-.67157,1.5-1.5,1.5c-.82842,0-1.5-.67157-1.5-1.5zM18.5,9c-.2761,0-.5.22386-.5.5s.2239.5.5.5c.2762,0,.5-.22386.5-.5s-.2238-.5-.5-.5zm-1.5.5c0-.82843.6716-1.5,1.5-1.5s1.5.67157,1.5,1.5c0,.8284-.6716,1.5-1.5,1.5S17,10.3284,17,9.5zM4.50002,8h-.37715l-.10361.36264-2,6.99996L1.83716,16h2.16286v4h3v-4h2.16287l-.1821-.6374-2-6.99996L6.87717,8H4.50002zm1.5,8h-1v3h1v-3zm-2.83713-1,1.71428-6h1.2457l1.71429,6H3.16289zM12.5,5c-.2761,0-.5.22386-.5.5s.2239.5.5.5c.2762,0,.5-.22386.5-.5s-.2238-.5-.5-.5zm-1.5.5c0-.82843.6716-1.5,1.5-1.5.8285,0,1.5.67157,1.5,1.5S13.3285,7,12.5,7c-.8284,0-1.5-.67157-1.5-1.5zM10.5,8H10v6h1v6h3v-6h1V8h-4.5zm1,5H11V9h3v4h-1v6h-1v-6h-.5zm4.5-1h5v5h-1v3h-3v-3h-1v-5zm1,4h1v3h1v-3h1v-3h-3v3z"/></svg>