<svg width="24" height="24" viewBox="0,0,24,24" xmlns="http://www.w3.org/2000/svg"><path fill-rule="evenodd" clip-rule="evenodd" d="m2.9198,2h-.37666l-.10393.36204c-.29238,1.01857-.4403,2.07313-.43941,3.13282-.04476,2.08929.46193,4.15351,1.46906,5.98464,1.00807,1.8329,2.48182,3.3673,4.2725,4.4485l.51688-.856c-1.64007-.9903-2.98988-2.3957-3.91316-4.0744s-1.38736-3.57126-1.3454-5.48665l.00014.00001-.00002-.01163c-.00113-.84286.10099-1.6822.30375-2.49933h.19625c3.30239,0,6.23758,1.03795,8.1139,3.31774l.7722-.63548C10.2622,3.10205,6.99742,2,3.4998,2h-.58zm18.4448,2.42611-.0661-.44227-.4468.0165c-3.4648.12795-5.9751,1.03712-7.7711,2.38104-1.796,1.34387-2.8394,3.09366-3.41988,4.83692-.57895,1.7388-.70048,3.4788-.65279,4.832.02389.6779.09046,1.2647.16582,1.7132.03764.224.07802.4168.11741.5714.011.0432.02267.0865.03507.1287-.63599,1.0799-1.22872,2.187-1.77631,3.3186l.90016.4356c.53303-1.1016,1.10978-2.1793,1.72842-3.2308,3.3141-.1666,5.7178-1.0596,7.4425-2.3643,1.7747-1.3426,2.7899-3.0904,3.3512-4.8305,1.0553-3.27155.5208-6.57192.4072-7.27292-.0064-.03944-.0114-.07066-.0148-.09317zM10.8126,17.942c2.794-.2389,4.7852-1.0427,6.2051-2.1168,1.5775-1.1934,2.4903-2.7512,3.0028-4.3399.8602-2.66659.5803-5.37502.424-6.46448-3.0688.17987-5.2361,1.01738-6.7648,2.16123-1.6015,1.19832-2.5406,2.76166-3.0702,4.35215-.531,1.5949-.647,3.2093-.6022,4.4808.0156.4433.0507.8421.0936,1.1803,2.2371-3.5331,4.9483-6.7529,8.064-9.56639l.6702.74218c-3.1104,2.80861-5.8087,6.03111-8.0225,9.57091zM5.7653,5.57619c1.55649.97433,2.94722,2.19122,4.11954,3.6046l-.76968.63842C8.01087,8.48786,6.70086,7.3416,5.2347,6.42381l.5306-.84762z"/></svg>