<svg width="36" height="36" viewBox="0,0,36,36" xmlns="http://www.w3.org/2000/svg"><path fill-rule="evenodd" clip-rule="evenodd" d="m27.2996,6.67611-.0661-.44227-.4469.0165c-5.1573.19045-8.8706,1.54243-11.5161,3.5219-2.6454,1.97946-4.1844,4.55746-5.0423,7.13416-.85649,2.5723-1.0374,5.1508-.96658,7.1602.03545,1.006.13421,1.8753.24543,2.5372.05557.3308.1148.613.17184.8369.02585.1014.05313.1986.08178.2867-.97178,1.644-1.87639,3.3303-2.71087,5.0548l.90016.4356c.82219-1.6992,1.71347-3.3606,2.67094-4.9805,5.0016-.2304,8.5975-1.5644,11.1596-3.5027,2.6127-1.9765,4.1101-4.5507,4.9398-7.123,1.5635-4.847.7716-9.74346.6016-10.79506-.0096-.05925-.0172-.10629-.0223-.14043zM11.2465,27.2001c4.4878-.3065,7.6729-1.5549,9.9307-3.263,2.4156-1.8274,3.8105-4.2116,4.5914-6.6325,1.3723-4.2544.8352-8.57266.6121-10.03547-4.7629.24332-8.1333,1.52462-10.5111,3.30377-2.4509,1.8339-3.8856,4.2255-4.6926,6.6494-.8086,2.4284-.9839,4.8814-.916,6.8091.0339.9625.1283,1.7881.2322,2.4067.0035.0208.007.0413.0105.0615,3.4109-5.5057,7.5865-10.5141,12.4111-14.8707l.6702.7422c-4.8054,4.3392-8.9575,9.3346-12.3385,14.829z"/></svg>