<svg width="48" height="48" viewBox="0,0,48,48" xmlns="http://www.w3.org/2000/svg"><path fill-rule="evenodd" clip-rule="evenodd" d="m24.5,1.98242.1288.03436,15,4,.5245.13985-.1824.51123-2.1152,5.93064-.0038.0726c-.0051.0951-.0128.2345-.023.4127-.0205.3562-.0515.8671-.0933,1.487-.0837,1.2392-.211,2.9155-.3854,4.6613-.1743,1.744-.3965,3.5657-.6707,5.0927-.1371.7632-.2887,1.4612-.4563,2.043-.164.5697-.3558,1.0734-.5912,1.4155l-.0005.0008c-.8629,1.2493-1.7485,2.2922-2.6315,3.1602v3.2414l8.3169,4.0037.0121.0058.0119.0065c1.1066.6083,2.0299,1.5024,2.6735,2.5889.6435,1.0865.9839,2.3258.9856,3.5886v1.6207h-1v-1.6193c-.0014-1.084-.2936-2.1477-.846-3.0804-.5502-.9288-1.3385-1.6937-2.2833-2.2158l-8.0731-3.8863c-.5839,1.6048-1.6226,3.0101-2.9947,4.0407-1.3957,1.0483-3.0676,1.6571-4.8029,1.7555v5.0056h-1v-5.0056c-1.7353-.0984-3.4072-.7072-4.8029-1.7555-1.3721-1.0306-2.4108-2.4359-2.9948-4.0407l-8.07303,3.8863c-.94477.5221-1.73305,1.287-2.28323,2.2158-.55238.9326-.84454,1.9962-.84604,3.08v1.6197H4v-1.6207c.00168-1.2628.34206-2.5021.98565-3.5886s1.56683-1.9806,2.6735-2.5889l.01182-.0065.01215-.0058L16,34.1857v-3.2033c-.8936-.8752-1.7892-1.9299-2.6603-3.1969-.2383-.339-.4306-.8403-.5941-1.4056-.1676-.5797-.3185-1.2764-.4544-2.0388-.272-1.5256-.4901-3.3487-.66-5.0953-.17-1.7484-.2926-3.4285-.3727-4.6709-.04-.6215-.0695-1.1338-.0889-1.4911-.0097-.1786-.0169-.3185-.0217-.4138l-.0036-.0714L9.02906,6.66786l-.18234-.51123.52445-.13985,15.00003-4,.1288-.03436zM17,34.4277c.4801,1.601,1.4602,3.007,2.7977,4.0116,1.3561,1.0185,3.0063,1.5692,4.7023,1.5692s3.3462-.5507,4.7023-1.5692c1.3375-1.0046,2.3176-2.4106,2.7977-4.0116v-2.5714c-2.9685,2.504-5.7991,3.1436-7.5199,3.1436-1.7125,0-4.5304-.6336-7.4801-3.1094v2.5372zm-4.8335-21.4278.0016.0296c.0193.3544.0485.8634.0883,1.4811.0797,1.2356.2015,2.9043.3701,4.6384.1689,1.7359.384,3.529.6492,5.0166.1326.7442.2764,1.4032.4306,1.9364.1579.5461.3141.9136.4524,1.1096l.0035.0051c3.9106,5.69,8.2394,6.7832,10.3179,6.7832,2.0781,0,6.3974-1.0929,10.3284-6.7838.1396-.2031.2958-.5767.4538-1.125.1545-.5365.299-1.1978.4329-1.943.2676-1.4898.4867-3.2819.6599-5.0154.1731-1.7317.2995-3.3967.3827-4.6293.0416-.6161.0724-1.1237.0927-1.4771l.0016-.0264h-1.9208c-.1718.2014-.3538.4087-.5497.6053-1.2512,1.3697-2.7712,2.4669-4.4654,3.223-1.6976.7577-3.5334,1.1566-5.3923,1.1717L24.4934,18v-.0001c-2.0359-.0262-4.0404-.5055-5.8679-1.4031-1.7547-.8618-3.3039-2.0885-4.5445-3.5969h-1.9145zm3.2457,0h18.1475c-1.1463,1.2361-2.531,2.2278-4.071,2.9151-1.5703.7009-3.2682,1.0702-4.9877,1.0849-1.8856-.025-3.742-.4693-5.4347-1.3007-1.3728-.6743-2.61-1.5895-3.6541-2.6993zm-5.2589-6.15674,1.8392,5.15674h25.015l1.8392-5.15674L24.5,3.01737,10.1533,6.84316zM29.6729,26.2216c-1.4175,1.2248-3.2497,1.8612-5.1212,1.7789l-.0207-.0009-.0207.0008c-1.7777.0693-3.5222-.4956-4.9219-1.5938l-.6173.7868c1.5809,1.2403,3.5499,1.8804,5.5574,1.807,2.1193.0879,4.1928-.635,5.7982-2.0221l-.6538-.7567zM22,4.99989h5v3.85393c.0063.28779-.0703.57139-.2207.81691-.151.24633-.3699.44377-.6303.56867l-1.4266.7083-.2232.1108-1.5628-.7814-.0037-.0018c-.279-.1424-.5136-.3588-.6781-.62547s-.2526-.5734-.2546-.88672V4.99989zm1,1v2.75818c.0011.12961.0376.25645.1057.36678.068.11021.1648.19973.28.25887l1.1151.55755,1.2068-.59921.0076-.00373v.00006c.0874-.04159.1609-.10767.2115-.19022.0506-.08254.0761-.178.0735-.27478l-.0004-.0135H26v-2.86h-3zm5.5,13.00001c-.2967,0-.5867.088-.8334.2528-.2466.1648-.4389.3991-.5524.6732s-.1433.5757-.0854.8666c.0579.291.2008.5583.4105.7681.2098.2097.4771.3526.7681.4105.2909.0579.5925.0281.8666-.0854s.5084-.3058.6732-.5524c.1648-.2467.2528-.5367.2528-.8334,0-.3978-.158-.7794-.4393-1.0607s-.6629-.4393-1.0607-.4393zm-.2778,1.0843c.0822-.055.1789-.0843.2778-.0843.1326,0,.2598.0527.3536.1464.0937.0938.1464.221.1464.3536,0,.0989-.0293.1956-.0843.2778-.0549.0822-.133.1463-.2244.1841-.0913.0379-.1919.0478-.2888.0285-.097-.0193-.1861-.0669-.2561-.1369-.0699-.0699-.1175-.159-.1368-.256-.0193-.0969-.0094-.1975.0285-.2888.0378-.0914.1019-.1695.1841-.2244zm-8.5556-.8315c.2467-.1648.5367-.2528.8334-.2528.3978,0,.7794.158,1.0607.4393S22,20.1021,22,20.4999c0,.2967-.088.5867-.2528.8334-.1648.2466-.3991.4389-.6732.5524s-.5757.1433-.8666.0854c-.291-.0579-.5583-.2008-.7681-.4105-.2097-.2098-.3526-.4771-.4105-.7681-.0579-.2909-.0282-.5925.0854-.8666.1135-.2741.3058-.5084.5524-.6732zM20.5,19.9999c-.0989,0-.1956.0293-.2778.0843-.0822.0549-.1463.133-.1841.2244-.0379.0913-.0478.1919-.0285.2888.0193.097.0669.1861.1368.256.07.07.1591.1176.2561.1369.0969.0193.1975.0094.2888-.0285.0914-.0378.1695-.1019.2244-.1841.055-.0822.0843-.1789.0843-.2778,0-.1326-.0527-.2598-.1464-.3536-.0938-.0937-.221-.1464-.3536-.1464z"/></svg>