<svg width="24" height="24" viewBox="0,0,24,24" xmlns="http://www.w3.org/2000/svg"><path fill-rule="evenodd" clip-rule="evenodd" d="m5.5,1.99902H5v2.04621c-.74033.14725-1.37405.64416-1.68644,1.34467-.24132.53965-.45264.95419-.63834,1.31845l-.00001.00003c-.09479.18593-.18289.35875-.26489.52843C2.17876,7.71594,2,8.16334,2,8.675v11.126C2,21.0218,3.00154,22,4.224,22h4.552C9.99727,22,11,21.022,11,19.801V8.675c0-.51166-.1788-.95906-.4103-1.43819-.082-.16961-.1701-.34237-.2648-.52821l-.0001-.00012v-.00016c-.1857-.36425-.39705-.77878-.63836-1.31842C9.37341,4.68982,8.74047,4.19256,8,4.04523V1.99902H5.5zm-.04799,3.001h2.09598c.533.00312,1.01088.31793,1.22556.79807l.00001.00001c.25022.5596.4872,1.02506.67904,1.40187v.00001l.00001.00001.00004.00008.00005.00009c.08987.17653.16984.33361.23662.47178C9.90976,8.12806,10,8.40266,10,8.675v11.126C10,20.456,9.45873,21,8.776,21H4.224C3.54046,21,3,20.4562,3,19.801V19h4v-9H3V8.675c0-.27234.09024-.54694.31068-1.00306.06681-.13822.14681-.29536.23672-.47197.19184-.37681.42882-.84227.67904-1.40187l.00027-.00058c.21355-.47924.69187-.79438,1.2253-.7975zM7,4V2.99902H6V4h1zM3,18v-7h3v7H3zm12.0057-5.0001c.3264.0004.5793.0354.7937.0984.2175.0639.3727.1506.4892.2166l.0019.0011c.0996.0565.1604.091.2324.1177.1248-1.4797.7378-2.3549,1.4155-2.8524.368-.2701.735-.414,1.0105-.4907.1381-.0385.2551-.0606.3404-.0732.0428-.0064.0778-.0104.1039-.0129.013-.0012.0238-.0021.0322-.0027l.0109-.0008.004-.0002.0017-.0001h.0008c.0003,0,.0007-.0001.026.4993.0252.4994.0256.4993.0259.4993h.0006l.001-.0001h.0013l-.0087.0007c-.0101.001-.0281.003-.0529.0067-.0497.0073-.1256.0214-.2189.0473-.1875.0523-.4377.1506-.687.3335-.4097.3009-.8802.8768-1.0009,2.0248.0521-.0237.1049-.0536.1796-.096l.0021-.0012c.1165-.0661.2717-.1528.4893-.2167.2145-.063.4675-.098.7941-.0984.4432-.0098,1.2334-.0232,1.897.4815C21.5816,14.0065,22,14.9749,22,16.5959c0,1.4982-.2486,2.8091-.7291,3.7655-.4815.9582-1.246,1.6385-2.2709,1.6385h-.0094v-.0001c-.6402-.012-1.0516-.1509-1.3766-.2874-.0621-.0261-.1164-.0495-.1649-.0704l-.0002-.0002c-.2047-.0882-.3061-.132-.4489-.1413-.1428.0093-.2442.0531-.4489.1413l-.0002.0002-.0004.0001c-.0484.0209-.1026.0443-.1645.0703-.325.1365-.7364.2754-1.3766.2874L15,22v-.0001c-1.0249,0-1.7894-.6803-2.2709-1.6385C12.2486,19.405,12,18.0941,12,16.5959c0-1.6209.418-2.5894,1.1083-3.1145.6635-.5047,1.4538-.4913,1.8974-.4815zm-1.292,1.2774c-.3337.2539-.7137.8435-.7137,2.3186,0,1.4058.2359,2.5469.6226,3.3165.3847.7655.8685,1.0856,1.373,1.0875.4778-.0096.7612-.1079,1.0031-.2095.0346-.0145.0714-.0308.1103-.048.2218-.0981.514-.2274.8705-.2421L17,20.4995l.0205.0008c.3565.0147.6487.144.8705.2421.0389.0172.0757.0335.1103.048.2419.1016.5253.1999,1.0031.2095.5045-.0019.9883-.322,1.373-1.0875.3867-.7696.6226-1.9107.6226-3.3165,0-1.475-.3801-2.0646-.7141-2.3185-.3579-.2723-.814-.2878-1.2748-.2776L19,14v-.0001c-.2582,0-.4144.0274-.518.0578-.1016.0299-.1738.0682-.2777.1271l-.0211.012c-.1027.0585-.2459.1401-.4346.2009-.205.066-.4427.1022-.7486.1022s-.5436-.0362-.7487-.1022c-.1887-.0608-.332-.1423-.4349-.2009l-.021-.0119c-.104-.059-.1763-.0973-.2779-.1272-.1035-.0304-.2596-.0578-.5175-.0578h-.0111v-.0001c-.4614-.0102-.9173.0053-1.2752.2775z"/></svg>