<svg width="36" height="36" viewBox="0,0,36,36" xmlns="http://www.w3.org/2000/svg"><path fill-rule="evenodd" clip-rule="evenodd" d="m9.75,6.25h-.5v23.5H18v-1h-7.75V7.25h8v7.5h7.5v1.75h1v-2.4571l-.1464-.1465-7.5-7.49995L18.9571,6.25H9.75zm15.2929,7.5L19.25,7.95711V13.75h5.7929zM21,19.25h-7.5v-1H21v1zm-7.5037,3h4.5v-1h-4.5v1zm4.5037,3h-4.5v-1H18v1zm5.75-5c0-.5522.447-1,1-1s1,.4478,1,1v2.5h-2v-2.5zm-1,2.5v-2.5c0-1.1038.894-2,2-2s2,.8962,2,2v2.5h3v8.5h-10v-8.5h3zm2.5,2.7035V28.5h-1v-3.0465h1zm-4.5,4.7965v-6.5h8v6.5h-8z"/></svg>