<svg width="36" height="36" viewBox="0,0,36,36" xmlns="http://www.w3.org/2000/svg"><path fill-rule="evenodd" clip-rule="evenodd" d="m5.75,18c0-6.7655,5.4845-12.25,12.25-12.25S30.25,11.2345,30.25,18,24.7655,30.25,18,30.25,5.75,24.7655,5.75,18zM18,4.75C10.6822,4.75,4.75,10.6822,4.75,18S10.6822,31.25,18,31.25,31.25,25.3178,31.25,18,25.3178,4.75,18,4.75zm-6.3964,12.1036L13.5,14.9571l1.8964,1.8965.7072-.7072L14.2071,14.25l1.8965-1.8964-.7072-.7072L13.5,13.5429l-1.8964-1.8965-.7072.7072,1.8965,1.8964-1.8965,1.8964.7072.7072zm9,0L22.5,14.9571l1.8964,1.8965.7072-.7072L23.2071,14.25l1.8965-1.8964-.7072-.7072L22.5,13.5429l-1.8964-1.8965-.7072.7072,1.8965,1.8964-1.8965,1.8964.7072.7072zM18.09,18.25c-3.3135,0-6.069,1.9721-7.2844,4.8027l.9189.3946c1.0645-2.4794,3.469-4.1973,6.3655-4.1973s5.301,1.7179,6.3656,4.1973l.9189-.3946C24.159,20.2221,21.4035,18.25,18.09,18.25z"/></svg>