<svg width="48" height="48" viewBox="0,0,48,48" xmlns="http://www.w3.org/2000/svg"><path fill-rule="evenodd" clip-rule="evenodd" d="m3,17.5C3,9.49187,9.49187,3,17.5,3,25.5081,3,32,9.49187,32,17.5,32,25.5081,25.5081,32,17.5,32,9.49187,32,3,25.5081,3,17.5zM17.5,2C8.93959,2,2,8.93959,2,17.5,2,26.0604,8.93959,33,17.5,33c4.1004,0,7.8289-1.5922,10.601-4.192l3.872,3.872-1.06,1.06.3536.3535,11.32,11.3201.0062.0062.0065.006c.3791.3533.8805.5456,1.3987.5365.5181-.0092,1.0125-.2191,1.3789-.5855s.5763-.8608.5855-1.3789c.0091-.5182-.1832-1.0196-.5365-1.3988l-.3658.3409.3536-.3536-11.32-11.32-.3536-.3535-1.06,1.06-3.872-3.872C31.4079,25.3288,33,21.6003,33,17.5,33,8.93959,26.0604,2,17.5,2zM5,17.5C5,10.5964,10.5964,5,17.5,5S30,10.5964,30,17.5,24.4036,30,17.5,30,5,24.4036,5,17.5zM17.5,4C10.0442,4,4,10.0442,4,17.5S10.0442,31,17.5,31,31,24.9558,31,17.5,24.9558,4,17.5,4zm27.1997,39.2867L33.7401,32.3271,32.3272,33.74,43.2868,44.6996c.1889.1732.4371.2673.6935.2628.2591-.0045.5063-.1095.6895-.2927s.2882-.4304.2927-.6895c.0046-.2564-.0896-.5047-.2628-.6935z"/></svg>