<svg width="36" height="36" viewBox="0,0,36,36" xmlns="http://www.w3.org/2000/svg"><path fill-rule="evenodd" clip-rule="evenodd" d="m18.5537,3.39305-.2236-.1118-.2237.1118L3.10645,10.8931l.44721.8944L18.3301,4.39928,33.1064,11.7875l.4473-.8944-15-7.50005zM3.58005,32.3403v-16.5h1v9.25h9.50005v-6h15.5c.9282,0,1.8184.3687,2.4748,1.0251s1.0252,1.5466,1.0252,2.4749v9.75h-1v-6.25H4.58005v6.25h-1zm28.50005-7.25h-17v-5h14.5c.663,0,1.2989.2634,1.7677.7322.4689.4688.7323,1.1047.7323,1.7678v2.5zm-24.50005-4.75c0-.9665.7835-1.75,1.75-1.75.96655,0,1.75005.7835,1.75005,1.75s-.7835,1.75-1.75005,1.75c-.9665,0-1.75-.7835-1.75-1.75zm1.75-2.75c-1.51878,0-2.75,1.2312-2.75,2.75s1.23122,2.75,2.75,2.75c1.51875,0,2.75005-1.2312,2.75005-2.75s-1.2313-2.75-2.75005-2.75z"/></svg>