<svg width="36" height="36" viewBox="0,0,36,36" xmlns="http://www.w3.org/2000/svg"><path fill-rule="evenodd" clip-rule="evenodd" d="m23.4929,3.29175.2513.16752,9,6,.3673.24484-.1974.39479-3,6-.2058.4115-.4271-.1709-3.0643-1.2257v1.5115h-1v-2.9885l.6857.2743,3.3228,1.3291,2.5969-5.1937-8.3886-5.59239c-.064.03168-.1384.06784-.2223.10752-.307.14527-.7422.33853-1.258.53186-1.0225.38324-2.4006.78181-3.7365.78181-1.3352,0-2.7133-.39858-3.7359-.7818-.5159-.19333-.9513-.38657-1.2584-.53184-.0839-.03971-.1584-.07589-.2225-.10758L4.61149,10.0465l2.59685,5.1937,3.32286-1.3291.6501-.2601.035.6993.7262,14.525h1.7744v1h-2.7256l-.0238-.475-.715-14.3007-3.09993,1.2399-.42716.1709-3.20575-6.4115-.19739-.39479.36726-.24484,8.99997-6,.2512-.16748.265.14425.0001.00003v.00001l.0001.00007.0007.00037.0046.00249.0208.01106c.0189.00998.0477.02506.0858.0445.076.03889.1888.0952.3324.16311.2875.13599.6969.31774,1.1817.49941.9787.36678,2.2257.71821,3.385.71821,1.1601,0,2.407-.35144,3.3855-.7182.4847-.18166.8939-.36341,1.1813-.49938.1435-.06792.2562-.12422.3323-.16311.038-.01944.0668-.03451.0856-.04449l.0208-.01106.0046-.00249.0007-.00037.0001-.00007.0001-.00001v-.00003l.265-.14434zM16.3288,18.3753h7.5294l.094.3796v.0002l.0019.0076.0072.0278c.0065.0251.0166.0632.0304.1134.0274.1003.0695.2488.1271.4377.115.378.2916.9172.5363,1.5564.4904,1.2809,1.2495,2.9512,2.3267,4.5294.8398,1.2294,1.8489,1.8353,2.8588,2.4417.2319.1393.464.2787.694.4256.6043.3859,1.1935.8298,1.6403,1.4759.4519.6536.7321,1.4749.7913,2.5779l.0282.5268h-6.5616c-.4631.0004-1.1655.0009-2.0183-.5267-.8506-.5261-1.8041-1.5457-2.8842-3.4795l-.0023-.0043c-.6099-1.1175-1.3381-1.877-2.0611-2.3941v6.4046h-3.1381l-.0963-.3759.4844-.1241c-.4844.1241-.4844.124-.4845.1238l-.0001-.0005-.0003-.0013-.0012-.0047-.0041-.0165-.0151-.0617c-.0128-.0537-.0312-.1322-.0538-.2339-.0451-.2034-.1072-.4996-.176-.8753-.1375-.7513-.302-1.822-.4117-3.1061-.219-2.5639-.2211-5.9997.6624-9.4479l.0963-.3759zm.7859,13.5c-.0406-.1869-.0924-.4397-.1492-.7502-.1327-.7253-.2925-1.7639-.399-3.0111-.0711-.8328-.1183-1.7562-.1183-2.7395.032.0021.0655.0046.1004.0076.3549.0304.8538.1103,1.4179.3083.1617.0567.3291.1233.5004.2014v5.9835h-1.3522zM16.4648,24.3736c.0531.003.1096.007.1693.0121.4222.0363,1.006.1303,1.6636.3611,1.3236.4646,2.9278,1.4777,4.1068,3.6367,1.039,1.8598,1.8896,2.7148,2.5361,3.1147.6102.3775,1.0776.3773,1.4991.3771h5.477c-.0965-.6696-.3003-1.1541-.5643-1.5359-.3338-.4827-.7902-.8406-1.3561-1.202-.1941-.1239-.4017-.2479-.6185-.3773-1.0217-.6101-2.2472-1.3419-3.2218-2.7688l-.0001-.0001c-1.1353-1.6633-1.9271-3.41-2.4347-4.7357-.2542-.6641-.4383-1.2257-.5591-1.6226-.0291-.0957-.0546-.1818-.0765-.2576h-5.9771c-.4053,1.7095-.5908,3.4139-.6437,4.9983z"/></svg>