<svg width="36" height="36" viewBox="0,0,36,36" xmlns="http://www.w3.org/2000/svg"><path fill-rule="evenodd" clip-rule="evenodd" d="m8.25002,7.25c-.55228,0-1,.44772-1,1s.44772,1,1,1c.55229,0,1-.44772,1-1s-.44771-1-1-1zm-2,1c0-1.10457.89543-2,2-2s1.99998.89543,1.99998,2-.89541,2-1.99998,2-2-.89543-2-2zm21.49998,5c-.5523,0-1,.4477-1,1s.4477,1,1,1,1-.4477,1-1-.4477-1-1-1zm-2,1c0-1.1046.8955-2,2-2,1.1046,0,2,.8954,2,2s-.8954,2-2,2c-1.1045,0-2-.8954-2-2zm-18.99998-2h-.37715l-.10361.3626-3,10.5-.1821.6374H13.4129l-.1821-.6374L10.1272,12.25H6.75002zm-2.33713,10.5,2.71428-9.5h2.2457l2.71433,9.5H4.41289zM18.75,7.25c-.5523,0-1,.44772-1,1s.4477,1,1,1,1-.44772,1-1-.4477-1-1-1zm-2,1c0-1.10457.8955-2,2-2,1.1046,0,2,.89543,2,2s-.8954,2-2,2c-1.1045,0-2-.89543-2-2zm-1,4h-.5v8.5h1.5v9h4v-9h1.5v-8.5h-6.5zm.5,7.5v-6.5h5v6.5h-1.5v9h-2v-9h-1.5zm8-1.5h7v7h-1.5v4.5h-4v-4.5h-1.5v-7zm1,1v5h1.5v4.5h2v-4.5h1.5v-5h-5zM6.25002,24v5.75H10.25V24h-.99998v4.75h-2V24h-1z"/></svg>