<svg width="19" height="16" viewBox="0,0,19,16" xmlns="http://www.w3.org/2000/svg"><path fill-rule="evenodd" clip-rule="evenodd" d="m2.49997,3.00015c.82699,0,1.49998-.67299,1.49998-1.49998,0-.826995-.67299-1.499987-1.49998-1.499987S.999989.673175.999989,1.50017c0,.82699.672991,1.49998,1.499981,1.49998z" fill="#eb0000"/><path fill-rule="evenodd" clip-rule="evenodd" d="m9.5038,3.00015c.827,0,1.5-.67299,1.5-1.49998,0-.826995-.673-1.499987-1.5-1.499987-.82699,0-1.49999.672992-1.49999,1.499987,0,.82699.673,1.49998,1.49999,1.49998z" fill="#eb0000"/><path fill-rule="evenodd" clip-rule="evenodd" d="m16.5076,3.00015c.827,0,1.5-.67299,1.5-1.49998,0-.826995-.673-1.499987-1.5-1.499987s-1.5.672992-1.5,1.499987c0,.82699.673,1.49998,1.5,1.49998z" fill="#eb0000"/><path fill-rule="evenodd" clip-rule="evenodd" d="m0,9.99958h.999989v5.99992H3.99995V9.99958h.99999V3.99965H0v5.99993z" fill="#eb0000"/><path fill-rule="evenodd" clip-rule="evenodd" d="m7.00383,9.99958h.99998v5.99992h2.99999V9.99958h1V3.99965H7.00383v5.99993z" fill="#eb0000"/><path fill-rule="evenodd" clip-rule="evenodd" d="m13.9998,4.00014v5.99996h1V16h3v-5.9999h1V4.00014h-5z" fill="#eb0000"/></svg>