<svg width="24" height="24" xmlns="http://www.w3.org/2000/svg"><path fill-rule="evenodd" clip-rule="evenodd" d="m17.4282,4.02557.6509-1.28827-1.3083.60956c-.49.22828-1.0366.50903-1.5382,1.02513-.415.42698-.779.99331-1.0763,1.78161-1.3554-.47292-3.0115-.08711-3.9479,1.43642-1.51595-.71889-3.43069.3254-3.52268,2.17629-.48121.1281-.86968.43139-1.14398.81479-.36009.5033-.53437,1.1535-.50666,1.7907.02787.6407.26203,1.3033.76361,1.8087.50782.5116,1.24744.8196,2.20142.8196h6.99999c.9319,0,1.6688-.3103,2.1853-.8115.5105-.4953.776-1.1483.8241-1.7886.0073-.0974.0096-.1953.0069-.2931.6727.0252,1.4624-.1161,2.2082-.414,1.0824-.4325,2.1688-1.2331,2.7316-2.48825l.5201-1.16019-1.1711.49509c-1.8895.7988-3.3995.25835-4.2933-.74421-.9192-1.03099-1.1986-2.55284-.5837-3.76977zm.3586,7.05883c.5135.0733,1.2822-.0067,2.0667-.3201.5183-.2071,1.0137-.5045,1.4237-.89588-1.6685.25088-3.0826-.36542-4.0117-1.40759-.8561-.9602-1.2955-2.2822-1.1329-3.56473-.062.05381-.123.1112-.1829.17283-.3205.32984-.6339.80542-.9007,1.5549.3827.28223.709.6499.9409,1.09275.3183.6077.4474,1.33509.3225,2.13951.4924.11202.8947.38071,1.1846.74871.1164.1479.2129.3093.2898.4796zm-6.9292-2.58247c.6352-1.43991,1.9488-1.77451,2.997-1.39429.53.19224.9839.5658,1.2494,1.07287.2624.50088.3582,1.16523.1168,1.97709l-.1992.67.6985-.0279c.4651-.0186.7842.1609.9912.4238.2179.2766.3329.6759.301,1.1017-.0317.4223-.2061.838-.5233,1.1458-.3112.302-.7898.5291-1.4889.5291H8.00011c-.72952,0-1.19927-.2295-1.49165-.5241-.29859-.3008-.45543-.7133-.47432-1.1476-.01904-.4378.10418-.8626.3209-1.1655.21058-.2943.4969-.4628.84507-.4628h.56329l-.06682-.5593C7.51717,8.639,9.11592,7.89457,10.0833,8.68692l.5088.41675.2655-.60174z"/></svg>