<svg width="36" height="36" xmlns="http://www.w3.org/2000/svg"><path fill-rule="evenodd" clip-rule="evenodd" d="m4.75,4.5v6.75c0,.58.16989,1.4389.69423,2.1672.47336.6574,1.21863,1.182,2.30577,1.3053V31.5h1V14.7225c1.08714-.1233,1.8324-.6479,2.3058-1.3053.5243-.7283.6942-1.5872.6942-2.1672V4.5h-1v6.75c0,.42-.1301,1.0611-.5058,1.5828-.35727.4963-.95716.9172-1.9942.9172s-1.63693-.4209-1.99423-.9172C5.88011,12.3111,5.75,11.67,5.75,11.25V4.5h-1zm3,0V12h1V4.5h-1zm8,.25h-.5V31.5h1V19.25h3V9c0-1.50249-.1785-2.60769-.7721-3.32009C17.857,4.93483,16.9017,4.75,15.75,4.75zm2.5,13.5h-2V5.76554c.7719.05239,1.1953.23733,1.4596.55455.3439.4126.5404,1.1824.5404,2.67991v9.25zm6.2947-11.40463c-.481.72145-.7947,1.74693-.7947,2.90463s.3137,2.1832.7947,2.9046c.4833.725,1.0961,1.0954,1.7053,1.0954s1.222-.3704,1.7053-1.0954c.481-.7214.7947-1.7469.7947-2.9046s-.3137-2.18318-.7947-2.90463C27.472,6.12042,26.8592,5.75,26.25,5.75s-1.222.37042-1.7053,1.09537zm-.832-.5547C24.3151,5.38694,25.2024,4.75,26.25,4.75s1.9349.63694,2.5373,1.54067c.6049.90723.9627,2.13174.9627,3.45933,0,1.3276-.3578,2.5521-.9627,3.4593-.504.7561-1.2074,1.3255-2.0373,1.4913V31.5h-1V14.7006c-.8299-.1658-1.5333-.7352-2.0373-1.4913-.6049-.9072-.9627-2.1317-.9627-3.4593,0-1.32759.3578-2.5521.9627-3.45933z"/></svg>