<svg width="36" height="36" xmlns="http://www.w3.org/2000/svg"><path fill-rule="evenodd" clip-rule="evenodd" d="m5.75,18.0004C5.75,11.156,11.1571,5.75037,18,5.75037S30.25,11.156,30.25,18.0004c0,6.8428-5.4071,12.25-12.25,12.25s-12.25-5.4072-12.25-12.25zM18,4.75037c-7.3951,0-13.25,5.85333-13.25,13.25003,0,7.3951,5.8549,13.25,13.25,13.25s13.25-5.8549,13.25-13.25c0-7.3967-5.8549-13.25003-13.25-13.25003zM13.5,12.25c-.6901,0-1.25.5599-1.25,1.25s.5599,1.25,1.25,1.25,1.25-.5599,1.25-1.25-.5599-1.25-1.25-1.25zm-.25,1.25c0-.1379.1121-.25.25-.25s.25.1121.25.25-.1121.25-.25.25-.25-.1121-.25-.25zm8,0c0-.6901.5599-1.25,1.25-1.25s1.25.5599,1.25,1.25-.5599,1.25-1.25,1.25-1.25-.5599-1.25-1.25zm1.25-.25c-.1379,0-.25.1121-.25.25s.1121.25.25.25.25-.1121.25-.25-.1121-.25-.25-.25zm-12,5.0004H10v.5c0,4.4641,3.5359,8,8,8s8-3.5359,8-8v-.5H10.5zm7.5,7.5c-3.7436,0-6.7328-2.8282-6.983-6.5h13.966c-.2502,3.6718-3.2394,6.5-6.983,6.5z"/></svg>