<svg width="36" height="36" xmlns="http://www.w3.org/2000/svg"><path fill-rule="evenodd" clip-rule="evenodd" d="m6.53272,4.8036c.44316-.91525,1.37523-1.55315,2.46765-1.55315.71303,0,1.36283.2719,1.85153.71672l-.6731.73956c-.31223-.28418-.72447-.45628-1.17843-.45628-.80443,0-1.47913.54763-1.68198,1.29455l-.14725.54218L6.64971,5.878c-.20307-.08146-.42205-.12755-.64934-.12755-.96736,0-1.75.78264-1.75,1.75h-1c0-1.51964,1.23035-2.75,2.75-2.75.18273,0,.36075.01866.53235.05315zM3.75,10.7503h-.5v20.5h28V13.21l-.8123.6499L23.75,19.21v-6l-.8123.6499L16.25,19.21v-6l-.8123.6499L8.75,19.21v-8.4597h-5zm.5,19.5v-18.5h3.5v9.5403l.81235-.6499L15.25,15.2906v6l.8123-.6499,6.6877-5.3501v6l.8123-.6499,6.6877-5.3501v14.9597h-26zm4-6.0003h-.5v2.5h4v-2.5h-3.5zm.5,1.5v-.5h2v.5h-2zm6.5-1.5h4v2.5h-4v-2.5zm1,1v.5h2v-.5h-2zm7-1h-.5v2.5h4v-2.5h-3.5zm.5,1.5v-.5h2v.5h-2zM13.5,4.7503c-1.0908,0-2.0241.63763-2.4667,1.5533-.1719-.03456-.3502-.0533-.5333-.0533-1.51964,0-2.75,1.23036-2.75,2.75h1c0-.96736.78264-1.75,1.75-1.75.2271,0,.4465.04604.6518.12792l.5215.20803.1464-.54211c.2014-.74598.877-1.29384,1.6803-1.29384.9674,0,1.75.78264,1.75,1.75h1c0-1.51964-1.2304-2.75-2.75-2.75z"/></svg>