<svg width="27" height="16" xmlns="http://www.w3.org/2000/svg"><path fill-rule="evenodd" clip-rule="evenodd" d="m5.621,6.49587L6.801,1H4L1,14.9999h2.801l1.52-7.12029,3.88,7.12029h3.341L8.041,7.37826,15.103,1h-3.901L5.661,6.49587h-.04zm14.0402.16057h-1.1l.74-3.45034h.98c1.06,0,2.341.06017,2.341,1.4038,0,1.64545-1.54,2.04654-2.961,2.04654zm-1.42,6.13756h-.96l.84-4.05094h.9c1.5,0,2.86.21959,2.86,1.68454,0,2.1659-1.92,2.3664-3.64,2.3664zm2.961-11.79388h-4.142L14.1392,15h3.982c2.08,0,6.561-.3209,6.561-4.3317,0-1.50509-.681-2.70835-2.24-2.949v-.04011c1.62-.2607,2.98-1.62439,2.98-3.329,0-2.5479-2.041-3.35007-4.22-3.35007z"/></svg>