<svg width="26" height="16" xmlns="http://www.w3.org/2000/svg"><path fill-rule="evenodd" clip-rule="evenodd" d="m5.46,7.355c.288,0,.559.053.822.129L4.543,9.998l.624.911h3.285c-.243,1.434-1.488,2.533-2.992,2.533-1.678,0-3.045-1.364-3.045-3.042,0-1.68,1.367-3.045,3.045-3.045zm3.638-1.434,1.879,3.571h-1.15c-.204-.985-.735-1.849-1.471-2.478l.742-1.093zM15.881,5.247l-3.356,4.146-2.186-4.152,5.542.006zM7.554,8.199c.37.353.64.798.798,1.293h-1.67l.872-1.293zm12.541-.939c1.733,0,3.139,1.407,3.139,3.14,0,1.73-1.406,3.14-3.139,3.14-1.731,0-3.137-1.41-3.137-3.14,0-.937.416-1.767,1.067-2.343l1.586,3.014,1.252-.659L19.27,7.383c.265-.073.537-.123.825-.123zM5.46,14.86c2.29,0,4.178-1.731,4.429-3.951h3.241l3.869-4.801.327.623c-1.109.839-1.831,2.167-1.831,3.669,0,2.539,2.061,4.6,4.6,4.6,2.542,0,4.602-2.061,4.602-4.6,0-2.542-2.06-4.6-4.602-4.6-.534,0-1.043.096-1.522.263L15.912,1h-3.235v1.414h2.38l.743,1.418H9.599l-.375-.713,1.331.006V1.707l-4.933.014V3.11l1.999.006.728,1.382L7.127,6.265C6.612,6.058,6.05,5.94,5.46,5.94,2.997,5.94,1,7.937,1,10.4c0,2.461,1.997,4.46,4.46,4.46z"/></svg>