<svg width="32" height="16" xmlns="http://www.w3.org/2000/svg"><path fill-rule="evenodd" clip-rule="evenodd" d="m3.8,1H1l.88,13.9999h3.461l4.921-11.1923h.04l.14,11.1923h3.501L20.604,1h-2.9l-4.942,10.731h-.04L12.662,1H8.901l-4.64,10.731h-.04L3.8,1zm21.0012,5.65644h-1.101l.74-3.45034h.981c1.06,0,2.341.06017,2.341,1.4038,0,1.64545-1.541,2.04654-2.961,2.04654zM23.3802,12.794h-.96l.841-4.05094h.899c1.501,0,2.861.21959,2.861,1.68454,0,2.1659-1.921,2.3664-3.641,2.3664zm2.961-11.79388h-4.141L19.2792,15h3.982c2.08,0,6.56-.3209,6.56-4.3317,0-1.50509-.68-2.70835-2.24-2.949v-.04011c1.62-.2607,2.98-1.62439,2.98-3.329,0-2.5479-2.04-3.35007-4.22-3.35007z"/></svg>