<svg width="36" height="36" viewBox="0,0,36,36" xmlns="http://www.w3.org/2000/svg"><path fill-rule="evenodd" clip-rule="evenodd" d="m18,3.25C9.8538,3.25,3.25,9.8538,3.25,18h1c0-7.5939,6.1561-13.75,13.75-13.75S31.75,10.4061,31.75,18,25.5939,31.75,18,31.75c-5.5471,0-10.54437-3.2871-12.74021-8H9v-1H3.25v5.75h1v-4.5548C6.55542,29.1354,11.9795,32.75,18,32.75c8.1462,0,14.75-6.6038,14.75-14.75S26.1462,3.25,18,3.25zM13.7668,7.5h1v3.2427h6.5V7.5h1v3.2427H24v1h-1.7332v3.5H24v1h-1.7332v3.5H24v1h-1.7332v3.5H24v1h-1.7332V28.5h-1v-3.2573h-6.5V28.5h-1v-3.2573H12v-1h1.7668v-3.5H12v-1h1.7668v-3.5H12v-1h1.7668v-3.5H12v-1h1.7668V7.5zm1,16.7427h6.5v-3.5h-6.5v3.5zm6.5-8v3.5h-6.5v-3.5h6.5zm-6.5-1h6.5v-3.5h-6.5v3.5z"/></svg>