<svg width="24" height="24" viewBox="0,0,24,24" xmlns="http://www.w3.org/2000/svg"><path fill-rule="evenodd" clip-rule="evenodd" d="m22.5,0h-21C.675,0,0,.675,0,1.5v21c0,.825.675,1.5,1.5,1.5h21c.825,0,1.5-.675,1.5-1.5v-21c0-.825-.675-1.5-1.5-1.5z" fill="#2d327d"/><path fill-rule="evenodd" clip-rule="evenodd" d="m15.375,14.79V12.3c0-.645-.5175-1.1625-1.1625-1.1625-.1725,0-.345.0375-.5025.1125l-2.145,1.035,1.1325.7425,1.455-.705.15.3075-1.2675.615,2.34,1.545z" fill="#fff"/><path fill-rule="evenodd" clip-rule="evenodd" d="m11.25,12.0824V9.59243c0-.645-.5175-1.1625-1.1625-1.1625-.1725,0-.345.0375-.5025.1125l-2.145,1.035,1.1325.74247,1.455-.70497.15.3075L8.91,10.5374l2.34,1.545z" fill="#fff"/><path fill-rule="evenodd" clip-rule="evenodd" d="m18.375,21.0001c1.4475,0,2.625-1.1775,2.625-2.625s-1.1775-2.625-2.625-2.625H15.81c-.2175,0-.435-.0675-.615-.1875L3,7.56006v5.56504l12,7.875h3.375z" fill="#fff"/><path fill-rule="evenodd" clip-rule="evenodd" d="m7.125,9.37491v-2.49c0-.645-.5175-1.1625-1.1625-1.1625-.1725,0-.345.0375-.5025.1125l-2.145,1.035,1.1325.7425,1.455-.705.15.3075-1.2675.615,2.34,1.545z" fill="#fff"/><path fill-rule="evenodd" clip-rule="evenodd" d="m6.945,4.48501c0-.54-.43501-.975-.97501-.975s-.97499.435-.97499.975.435.975.975.975c.53249,0,.975-.435.975-.975z" fill="#fff"/><path fill-rule="evenodd" clip-rule="evenodd" d="m11.07,7.15493c0-.54-.435-.975-.975-.975-.54001,0-.975.435-.975.975s.43499.975.975.975c.5325,0,.975-.435.975-.975z" fill="#fff"/><path fill-rule="evenodd" clip-rule="evenodd" d="m15.1875,9.8251c0-.54-.435-.975-.975-.975s-.975.435-.975.975.435.975.975.975.975-.435.975-.975z" fill="#fff"/></svg>