<svg width="36" height="36" viewBox="0,0,36,36" xmlns="http://www.w3.org/2000/svg"><path fill-rule="evenodd" clip-rule="evenodd" d="m14.25,3.25h-.5v1.5h-9v28h26.5v-28h-9v-1.5h-8zm.5,2.5v.5h6.5v-2h-6.5v1.5zm7.5,0v1.5h-8.5v-1.5h-8v26h24.5v-26h-8zm-5.2926,19.4245h1.899V23.346h-1.899v1.8285zM14.6027,13.749c-.3855.597-.6,1.4415-.6405,2.532h1.5105c.123-1.923.9675-2.883,2.532-2.883.756,0,1.3275.243,1.7145.729.321.399.483.891.483,1.476,0,.3165-.0555.627-.168.9315-.1335.3585-.4185.759-.852,1.2045-.6735.6915-1.1085,1.164-1.305,1.416-.1965.2505-.3465.5355-.453.852-.1455.4335-.225,1.098-.237,1.995h1.494c0-.504.03-.9135.0885-1.23.0525-.3165.144-.582.276-.7965.132-.213.3645-.4815.699-.804.756-.738,1.233-1.245,1.4325-1.5195.4455-.6045.6675-1.3245.6675-2.163,0-1.014-.327-1.8315-.984-2.4525-.7035-.6735-1.6485-1.0095-2.838-1.0095-.7395,0-1.404.1485-1.995.447-.5925.3-1.0665.7245-1.425,1.275z"/></svg>