<svg width="24" height="24" viewBox="0,0,24,24" xmlns="http://www.w3.org/2000/svg"><path fill-rule="evenodd" clip-rule="evenodd" d="m22.5,0h-21C.675,0,0,.675,0,1.5v21c0,.825.675,1.5,1.5,1.5h21c.825,0,1.5-.675,1.5-1.5v-21c0-.825-.675-1.5-1.5-1.5z" fill="#2d327d"/><path fill-rule="evenodd" clip-rule="evenodd" d="m3.09003,20.9851V7.48511h6V20.9851h-6zm5.1-5.85c.0825,0,.15-.0675.15-.15V8.38511c0-.0825-.0675-.15-.15-.15h-4.2c-.0825,0-.15.0675-.15.15v6.59999c0,.0825.0675.15.15.15h4.2z" fill="#fff"/><path fill-rule="evenodd" clip-rule="evenodd" d="m4.1925,4.42511,1.4325-1.44h-.9l-1.785,1.8,1.785,1.8h.9l-1.4325-1.44H15.24v-.72H4.1925z" fill="#fff"/><path fill-rule="evenodd" clip-rule="evenodd" d="m15.24,8.23511H9.53998V20.2351H15.24V8.23511z" fill="#fff"/></svg>