<svg width="24" height="24" viewBox="0,0,24,24" xmlns="http://www.w3.org/2000/svg"><path fill-rule="evenodd" clip-rule="evenodd" d="m7.30739,6.41063c.80703-.23616,1.59481-.41075,2.19249-.41075,1.12812,0,1.81372.27235,2.25532.59728.0958.0705.1767.14105.2447.20668.068-.06563.1489-.13618.2447-.20668.4415-.32493,1.1271-.59728,2.2553-.59728.5977,0,1.3854.17459,2.1925.41075.8197.23988,1.7065.55784,2.5204.87298.8151.31559,1.5634.63081,2.1076.86697.2723.11815.4939.21669.6477.28582.077.03457.137.0618.1779.08046l.0468.02142.0122.00561.0033.00148.0008.0004.0003.00012c0,.00003.0001.00005-.2094.45362l.2095-.45357.7993.36912-.7265.49739-.282-.412c.282.412.282.41204.2819.41211l-.0003.0002-.001.00069-.0037.00248-.0136.0093-.0523.03534c-.0457.03076-.1127.07562-.1989.13266-.1726.11408-.4223.27698-.7327.47337-.6206.3927-1.4856.9205-2.4631,1.4608-1.7801.9838-4.0076,2.0516-5.8167,2.3688v.1894c.1564-.0553.3247-.0854.5-.0854.6918,0,1.2742.4684,1.4475,1.1053.1711-.0679.3577-.1052.553-.1052.6917,0,1.2741.4683,1.4474,1.1051.171-.0678.3574-.105.5526-.105.8284,0,1.5.6716,1.5,1.5L19,21l-1-.0001.0004-3.4995v-.0001c-.0001-.2761-.2239-.4999-.5-.4999-.2762,0-.5.2238-.5.5h-.0001L17.0001,20l-1-.0001.0003-3.4996c-.0001-.2761-.2239-.5-.5-.5-.2762,0-.5.2239-.5.5h-.0006L14.9997,19l-1-.0001.0002-3.4997c0-.2761-.2239-.5-.5-.5-.2762,0-.5.2239-.5.5v2.4997h-1v-7.5c0-.2761-.2239-.49996-.5-.49996-.2762,0-.5.22386-.5.49996v8.5H9.99988v-1.4995c0-.2762-.22387-.5-.5-.5-.27614,0-.49999.2238-.5.5l.00013,3.4995-1,.0001-.00013-3.4996c0-.8284.67156-1.5,1.5-1.5.17531,0,.34361.0301.5.0853v-2.4206c-1.7599-.5098-3.75724-1.5272-5.3301-2.4246-.84932-.4846-1.58602-.9407-2.11055-1.27571-.26239-.1676-.47199-.30511-.6164-.40098-.07221-.04795-.12815-.0855-.16625-.11122l-.04359-.02952-.01141-.00777-.00304-.00208-.00085-.00058-.00026-.00018c-.00008-.00005-.00014-.0001.28245-.41258-.20963-.45394-.20958-.45396-.2095-.45399l.00025-.00012.00087-.0004.00321-.00148.0122-.00561.04685-.02142c.04093-.01866.10092-.04589.17785-.08046.15382-.06913.37543-.16767.64772-.28582.54423-.23616,1.29255-.55138,2.10763-.86697.81391-.31514,1.70069-.6331,2.52043-.87298zM1.99988,8.99988l-.28259.41248-.726079-.49742.799039-.369.20963.45394zm16.85182-.78373c.5499.21291,1.0697.42599,1.515.61398-.4326.08334-.942.1763-1.5073.27018-1.7108.28405-3.9222.5744-6.0689.63477-.2614-.44015-.7416-.73514-1.2906-.73514-.5315,0-.9985.27643-1.2649.69337-1.99326-.1154-3.96745-.39706-5.47414-.65728-.41521-.07171-.79429-.14169-1.12776-.20593.44535-.18798.96507-.40105,1.51493-.61395.80029-.30986,1.65811-.6169,2.44022-.84577.79481-.23259,1.46613-.3705,1.91163-.3705.95822,0,1.42472.22765,1.66262.40272.1237.09102.2052.18174.2783.26688l.0121.01417c.0308.03609.0787.09216.1244.13566l.0009.00077c.0391.03726.1891.1798.4217.1798s.3825-.14254.4217-.1798l.0008-.00077c.0458-.0435.0936-.09957.1244-.13566l.0121-.01417c.0732-.08514.1546-.17586.2783-.26688.2379-.17507.7045-.40272,1.6627-.40272.4455,0,1.1168.13791,1.9116.3705.7821.22887,1.6399.53591,2.4402.84577zM4.54968,10.0143c.19694.1164.4027.2361.61565.3576,1.47626.8423,3.26325,1.7508,4.83455,2.2484v-1.9394c-1.98368-.1243-3.92616-.4033-5.40921-.6595-.0137-.0023-.02737-.0047-.04099-.0071zm8.45022,2.8647v-2.1499c2.1529-.0729,4.3381-.3625,6.0233-.6423.1452-.0241.2867-.0482.4244-.072-.3473.205-.7219.4202-1.1147.6373-1.7293.9558-3.7436,1.908-5.333,2.2269z"/></svg>