<svg width="36" height="36" viewBox="0,0,36,36" xmlns="http://www.w3.org/2000/svg"><path fill-rule="evenodd" clip-rule="evenodd" d="m20.1962,6.30298.2914.15733,7.5,4.04999.2624.1417v2.8483h-1v-2.2518l-6.5-3.50999V19.9102l1.0737,1.2079-.7474.6643-.8846-.9952-7.1294,5.7035-.2984.2388-.3087-.2254-7.50001-5.475L4.75,20.8793V6.52415l.79215.57035,7.19195,5.1782,7.2036-5.76287.2585-.20685zM19.75,19.86V7.94058l-6.5,5.20002V25.06l6.5-5.2zm-14-11.38362,6.5,4.68002v11.9598l-6.5-4.745V8.47638zM22.7562,19.7829c0-2.4683,1.8668-4.532,4.244-4.532,2.3787,0,4.2455,2.0636,4.2455,4.532v.0045c-.0069.7606-.2311,1.4319-.559,2.0517l-.0053.01-.0057.0097-3.2325,5.4975-.4308.7327-.4311-.7325-3.2355-5.4975-.0059-.0102h.0001c-.3392-.6085-.5564-1.2673-.5835-2.0486l-.0003-.0087v-.0086zm1-.0087c.0221.5958.1846,1.0971.4545,1.5827l2.8013,4.7598,2.7959-4.7549c.2716-.5161.4324-1.0262.4378-1.5813-.0011-1.9855-1.4878-3.5296-3.2455-3.5296-1.7541,0-3.2396,1.5407-3.244,3.5233zm2.9938-.2741c0-.1333.1166-.25.25-.25s.25.1167.25.25c0,.1399-.1156.25-.2425.25-.1398,0-.2575-.123-.2575-.25zm.25-1.25c-.6856,0-1.25.5644-1.25,1.25,0,.6921.5783,1.25,1.2575,1.25.6921,0,1.2425-.5709,1.2425-1.25,0-.6856-.5644-1.25-1.25-1.25z"/></svg>