<svg width="24" height="24" viewBox="0,0,24,24" xmlns="http://www.w3.org/2000/svg"><path fill-rule="evenodd" clip-rule="evenodd" d="m22.5,0h-21C.675,0,0,.675,0,1.5v21c0,.825.675,1.5,1.5,1.5h21c.825,0,1.5-.675,1.5-1.5v-21c0-.825-.675-1.5-1.5-1.5z" fill="#2d327d"/><path fill-rule="evenodd" clip-rule="evenodd" d="m4.965,12.7199c-.255,0-.465.21-.465.465s.21.465.465.465h7.6425l-.93-.93H4.965z" fill="#fff"/><path fill-rule="evenodd" clip-rule="evenodd" d="m16.035,13.6499c.255,0,.465-.21.465-.465s-.21-.465-.465-.465h-2.2725l.93.93h1.3425z" fill="#fff"/><path fill-rule="evenodd" clip-rule="evenodd" d="m15.66,10.755h-1.4325l-.315-1.95751h-.855L11.88,10.8375,13.4625,12.42h1.23l.9675-1.665z" fill="#fff"/><path fill-rule="evenodd" clip-rule="evenodd" d="m14.3399,8.29495.3075,1.95745h1.2975l.3675-.63745c.57-.99.12-2.1675.45-2.7375s.9225-1.8975.9225-1.8975l.0075.0075c.06.03.1275.0075.1575-.0525l.1275-.2175c.0375-.06.015-.135-.045-.165l-.8475-.5025c-.06-.0375-.135-.015-.165.045l-.1275.2175c-.03.0525-.015.1275.0375.165l.0075.0075s-.84,1.185-1.1625,1.755c-.33.57-1.575.765-2.145,1.755l-.1725.3h.9825z" fill="#fff"/><path fill-rule="evenodd" clip-rule="evenodd" d="m16.4925,14.385c.0375-.225-.1425-.4275-.375-.4275H14.985l1.29,1.29c.105-.2775.1725-.57.2175-.8625z" fill="#fff"/><path fill-rule="evenodd" clip-rule="evenodd" d="m3.375,13.95c-.21,0-.375.165-.375.375v6.3c0,.21.165.375.375.375h3.6975c.915,0,1.725-.4575,2.2125-1.155.015-.0225.0225-.0375.0375-.06.4875-.6975,1.2975-1.155,2.2125-1.155.0075,0,.015,0,.0225,0,1.6425-.075,3.0975-.84,4.005-2.04l-2.6475-2.64h-9.54z" fill="#fff"/><path fill-rule="evenodd" clip-rule="evenodd" d="m9.54749,7.26001h-1.245l1.395,1.395c-.18-.45-.2325-.93-.15-1.395z" fill="#fff"/><path fill-rule="evenodd" clip-rule="evenodd" d="m10.1625,6.92249c.21-.51.6-.9075,1.1025-1.125l.1425.345L10.095,8.30248c-.1275-.45749-.1125-.9375.0675-1.37999z" fill="#fff"/><path fill-rule="evenodd" clip-rule="evenodd" d="m6.76502,9.69746-2.415-.5775-.1425-.345c.96-.3825,2.055.03,2.5575.9225z" fill="#fff"/><path fill-rule="evenodd" clip-rule="evenodd" d="m3.5625,7.26001.4425,1.0575c.6225-.255,1.305-.255,1.935,0s1.125.7425,1.395,1.3725l.9225-.39-2.04-2.04h-2.655z" fill="#fff"/><path fill-rule="evenodd" clip-rule="evenodd" d="m10.4099,3.75745-3.10497,2.505.4875.4875h1.8975c0-.0075.0075-.015.0075-.0225.255-.6375.74997-1.1325,1.37997-1.395l-.6675-1.575z" fill="#fff"/><path fill-rule="evenodd" clip-rule="evenodd" d="m3.02246,5.97747.33.7725,2.3625.0075-1.3425-1.35-1.35.57z" fill="#fff"/><path fill-rule="evenodd" clip-rule="evenodd" d="m10.2075,3.2775L10.0875,3,5.83496,4.7925l1.11,1.11,3.26254-2.625z" fill="#fff"/><path fill-rule="evenodd" clip-rule="evenodd" d="m4.01247,2.96997-1.0425,1.0425L19.9575,20.9925l1.035-1.035L4.01247,2.96997z" fill="#eb0000"/></svg>