<svg width="29" height="16" viewBox="0,0,29,16" xmlns="http://www.w3.org/2000/svg"><path fill-rule="evenodd" clip-rule="evenodd" d="m21.1813,6.97676h-1.02l.78-3.77094h1.16c1.14,0,2.401,0,2.401,1.46486,0,1.84486-1.82,2.30608-3.321,2.30608zm.68-5.97674h-3.301l-2.92,13.99988h2.8l1.221-5.81632h1.06c1.2901,0,1.4276.7512,1.6353,1.88642.037.2022.0763.4167.1247.6412l.68,3.2887h2.941l-1.34-5.63585c-.18-.76301-.661-1.24327-1.42-1.28338v-.0401c2.28-.04011,4.08-1.32449,4.08-3.73083,0-3.31072-2.9119-3.310192-5.4705-3.30973-.0303.00001-.0604.00001-.0905.00001zM9.442,5.8138,7.421,1.00012H4.4l3.061,6.39785L1,15h3.481l4.361-5.6168h.04L11.022,15h3.06l-3.24-7.32129,5.781-6.67859h-3.301L9.482,5.8138h-.04z"/></svg>