<svg width="24" height="24" viewBox="0,0,24,24" xmlns="http://www.w3.org/2000/svg"><path fill-rule="evenodd" clip-rule="evenodd" d="m22.5,0h-21C.675,0,0,.675,0,1.5v21c0,.825.675,1.5,1.5,1.5h21c.825,0,1.5-.675,1.5-1.5v-21c0-.825-.675-1.5-1.5-1.5z" fill="#2d327d"/><path fill-rule="evenodd" clip-rule="evenodd" d="m20.655,16.7175-4.3875-.3675L13.65,13.7325c-.21-.21-.495-.33-.795-.33h-6.48c-.3,0-.585.12-.795.33l-2.25,2.25c-.21.21-.33.495-.33.795v2.6475c0,.21.1725.375.375.375h.375v-.4275c0-1.245,1.0125-2.25,2.25-2.25,1.245,0,2.25,1.005,2.25,2.25V19.8h7.4625v-.4275c0-1.245,1.005-2.25,2.25-2.25s2.25,1.005,2.25,2.25V19.8h.4125c.21,0,.375-.165.375-.375v-2.34c0-.195-.15-.3525-.345-.3675zm-11.28-.6825c0,.21-.165.375-.375.375H4.515c-.1275,0-.225-.0975-.225-.225,0-.06.0225-.12.0675-.1575L6.15,14.235c.0675-.0675.165-.1125.2625-.1125H9c.21,0,.375.1725.375.375v1.5375zm1.0875.3675h4.26c.12,0,.225-.0975.225-.225,0-.06-.03-.1125-.0675-.1575l-1.7925-1.7925c-.0675-.075-.165-.1125-.2625-.1125h-2.3625c-.21,0-.375.165-.375.375v1.5375c0,.21.165.375.375.375z" fill="#fff"/><path fill-rule="evenodd" clip-rule="evenodd" d="m6.00748,20.22c-.5175,0-.9375-.42-.9375-.9375s.42-.9375.9375-.9375.93751.42.93751.9375-.42.9375-.93751.9375zm0-2.64c-.94499,0-1.70999.765-1.70999,1.71s.765,1.71,1.71,1.71c.9375,0,1.71-.765,1.71-1.71-.0075-.945-.7725-1.71-1.71001-1.71z" fill="#fff"/><path fill-rule="evenodd" clip-rule="evenodd" d="m17.9625,20.22c-.5175,0-.9375-.42-.9375-.9375s.42-.9375.9375-.9375.9375.42.9375.9375-.42.9375-.9375.9375zm0-2.64c-.945,0-1.71.765-1.71,1.71s.765,1.71,1.71,1.71,1.71-.765,1.71-1.71-.765-1.71-1.71-1.71z" fill="#fff"/><path fill-rule="evenodd" clip-rule="evenodd" d="m4.8975,3v2.25h-.495L3.465,3.72l.0075,1.53H3V3h.5025L4.44,4.53,4.4325,3h.465z" fill="#fff"/><path fill-rule="evenodd" clip-rule="evenodd" d="m6.70499,3.76502c-.1575-.1575-.3525-.24-.6-.24-.27,0-.48.09-.645.2625-.1425.165-.2175.3675-.2175.6225s.075.465.225.63c.15.1725.36.255.6225.255.2475,0,.45-.0825.6-.2325.165-.165.2475-.3825.2475-.66,0-.2625-.0825-.48-.2325-.6375zm-.9075.2475c.075-.0975.165-.1425.285-.1425.1275,0,.2325.0525.2925.15001.0675.08999.105.22499.105.39,0,.18-.0375.31499-.1125.41249-.0675.0825-.165.1275-.2775.1275-.12,0-.2175-.0525-.2925-.1425-.0675-.09-.105-.225-.105-.3975s.0375-.3.105-.3975z" fill="#fff"/><path fill-rule="evenodd" clip-rule="evenodd" d="m7.67999,3v2.25h-.4425V3h.4425z" fill="#fff"/><path fill-rule="evenodd" clip-rule="evenodd" d="m9.42749,4.98746c.06-.0825.105-.165.1275-.2625h-.4275c-.03.075-.075.135-.1275.1725s-.12.0525-.2025.0525c-.1725,0-.285-.0675-.345-.2175-.0225-.0525-.03-.12-.0375-.2025h1.17c0-.2025-.015-.3675-.0675-.495s-.12-.24-.225-.33c-.1425-.1275-.315-.1875-.5175-.1875-.2475,0-.45.09-.6075.2775-.1425.165-.21.3675-.21.615,0,.12.015.2475.06.36.045.105.0975.2025.1725.2775.15.1575.3525.24.6.24.2775,0,.4875-.09751.6375-.3zm-.30073-.765c.00026.00248.0005.00498.00073.0075v-.0075h-.00073zm0,0c-.00814-.0791-.02996-.1441-.05177-.195-.03-.0525-.0675-.0975-.12-.1275s-.1125-.045-.1725-.045c-.0975,0-.18.03-.2475.0975s-.105.1575-.1125.27h.70427z" fill="#fff"/><path fill-rule="evenodd" clip-rule="evenodd" d="m11.4225,5.04751v-1.4775l-.42-.015v.225c-.06-.0975-.1275-.165-.2025-.21-.075-.0375-.165-.06-.2775-.06-.2175,0-.39.0825-.525.24-.1275.1575-.1875.36-.1875.615s.06.4575.1875.6075.2925.225.5025.225c.2175,0,.3825-.0825.495-.2625v.21c0,.1425-.0225.2475-.0675.3075-.06.0825-.1575.12-.3.12-.18,0-.2925-.0675-.3225-.21h-.45c.045.3525.3.525.765.525.3375,0,.57-.105.6975-.3075.0375-.0675.0675-.1425.0825-.2175.015-.0825.0225-.18.0225-.315zm-1.095-1.005c.0675-.105.1575-.1575.285-.1575.1125,0,.2025.0375.2625.1125.0825.09.12.21.12.3675,0,.1275-.0225.24-.075.3225-.0675.1125-.165.165-.3.165-.105,0-.1875-.0375-.255-.1125-.075-.09-.1125-.21-.1125-.375,0-.135.0225-.24.075-.3225z" fill="#fff"/><path fill-rule="evenodd" clip-rule="evenodd" d="m13.35,5.04751v-1.4775l-.42-.015v.225c-.06-.0975-.1275-.165-.2025-.21-.075-.0375-.165-.06-.2775-.06-.2175,0-.39.0825-.525.24-.1275.1575-.1875.36-.1875.615s.06.4575.1875.6075.2925.225.5025.225c.2175,0,.3825-.0825.495-.2625v.21c0,.1425-.0225.2475-.0675.3075-.06.0825-.1575.12-.3.12-.18,0-.2925-.0675-.3225-.21h-.45c.045.3525.3.525.765.525.3375,0,.57-.105.6975-.3075.0375-.0675.0675-.1425.0825-.2175.015-.0825.0225-.18.0225-.315zm-1.095-1.005c.0675-.105.1575-.1575.285-.1575.1125,0,.2025.0375.2625.1125.0825.09.12.21.12.3675,0,.1275-.0225.24-.075.3225-.0675.1125-.165.165-.3.165-.105,0-.1875-.0375-.255-.1125-.075-.09-.1125-.21-.1125-.375,0-.135.0225-.24.075-.3225z" fill="#fff"/><path fill-rule="evenodd" clip-rule="evenodd" d="m14.1675,3.405V3h-.4425v.405h.4425zm0,1.845V3.57h-.4425v1.68h.4425z" fill="#fff"/><path fill-rule="evenodd" clip-rule="evenodd" d="m15.93,3.76502c-.1575-.1575-.3525-.24-.6-.24-.27,0-.4875.09-.645.2625-.1425.165-.2175.3675-.2175.6225s.075.465.225.63c.15.1725.36.255.6225.255.2475,0,.45-.0825.6-.2325.165-.165.2475-.3825.2475-.66,0-.2625-.0825-.48-.2325-.6375zm-.9075.2475c.075-.0975.165-.1425.285-.1425.1275,0,.225.0525.2925.15001.0675.08999.105.22499.105.39,0,.18-.0375.31499-.1125.41249-.0675.0825-.165.1275-.2775.1275-.12,0-.2175-.0525-.2925-.1425-.0675-.09-.105-.225-.105-.3975s.0375-.3.105-.3975z" fill="#fff"/></svg>