<svg width="48" height="48" viewBox="0,0,48,48" xmlns="http://www.w3.org/2000/svg"><path fill-rule="evenodd" clip-rule="evenodd" d="m5,10.55C5,7.48482,7.48482,5,10.55,5h26.9C40.5152,5,43,7.48482,43,10.55v26.9c0,3.0652-2.4848,5.55-5.55,5.55h-26.9C7.48482,43,5,40.5152,5,37.45v-26.9zM10.55,4C6.93254,4,4,6.93254,4,10.55v26.9C4,41.0675,6.93254,44,10.55,44h26.9c3.6175,0,6.55-2.9325,6.55-6.55v-26.9C44,6.93254,41.0675,4,37.45,4h-26.9zm21.29,18.02L26.74,17h3.79L37,23.5,30.53,30h-3.79l5.1-4.99H25.5V30h-3v-4.99h-6.3L21.3,30h-3.79L11,23.5,17.51,17h3.79l-5.1,5.02h6.3V17h3v5.02h6.34z"/></svg>