<svg width="24" height="24" viewBox="0,0,24,24" xmlns="http://www.w3.org/2000/svg"><path fill-rule="evenodd" clip-rule="evenodd" d="m11.004,2c-1.10321,0-1.99884.89349-2,1.99786l-.00081.10154C6.71954,4.56152,5,6.58019,5,9v13h14V9c0-2.41824-1.7173-4.43587-3.9988-4.8997L15,3.99677C14.9983,2.8929,14.1028,2,13,2h-1.996zm-1,2H14c0-.55264-.4479-1-1-1h-1.996c-.5521,0-1,.44736-1,1zM6,9c0-2.20886,1.79114-4,4-4h4c2.2089,0,4,1.79114,4,4v12H6V9zm3.00391,5c-.55208,0-1,.4474-1,1H8v4h8v-4h-.0001c0-.5526-.4479-1-1-1H9.00391zm7.99599,1H17v5H7v-5h.00391c0-1.1054.89607-2,2-2h5.99599c1.1039,0,2,.8946,2,2zM13,16H9v-1h6v1h-1v1h-1v-1z"/></svg>