<svg width="36" height="36" viewBox="0,0,36,36" xmlns="http://www.w3.org/2000/svg"><path fill-rule="evenodd" clip-rule="evenodd" d="m9.75,5.75c-1.38071,0-2.5,1.11929-2.5,2.5v17.0514c.63533-.6478,1.5208-1.0495,2.5-1.0495h19.0003V5.75H9.75zm-3.5,21.9998V8.25c0-1.933,1.567-3.5,3.5-3.5h20.0003v20.5019H9.75c-1.38117,0-2.5,1.1177-2.5,2.4979,0,1.3812,1.11972,2.5021,2.49995,2.5022H9.75l20.2499-.0021.0002,1-20.25005.0021H9.75c-1.93345,0-3.5-1.5696-3.5-3.5022zM30,28.25H10.5v-1H30v1zM16.25,15c0-.9665.7835-1.75,1.75-1.75s1.75.7835,1.75,1.75-.7835,1.75-1.75,1.75-1.75-.7835-1.75-1.75zm3.3315,2.25c.7068-.4977,1.1685-1.3199,1.1685-2.25,0-1.5188-1.2312-2.75-2.75-2.75-.9665,0-1.75-.7835-1.75-1.75s.7835-1.75,1.75-1.75,1.75.7835,1.75,1.75h1c0-1.51878-1.2312-2.75-2.75-2.75s-2.75,1.23122-2.75,2.75c0,.9301.4617,1.7523,1.1685,2.25-.7068.4977-1.1685,1.3199-1.1685,2.25,0,1.5188,1.2312,2.75,2.75,2.75.9665,0,1.75.7835,1.75,1.75s-.7835,1.75-1.75,1.75-1.75-.7835-1.75-1.75h-1c0,1.5188,1.2312,2.75,2.75,2.75s2.75-1.2312,2.75-2.75c0-.9301-.4617-1.7523-1.1685-2.25z"/></svg>