<svg width="48" height="48" viewBox="0,0,48,48" xmlns="http://www.w3.org/2000/svg"><path fill-rule="evenodd" clip-rule="evenodd" d="m37,9.5V8.29289l-.8536.85356-7.8821,7.88215-13.7978,1.9711c-1.5031-.0144-2.9942-.2709-4.4158-.7597-1.50977-.578-2.73697-1.4893-3.00214-3.0627-.01186-.0788-.02259-.1579-.03216-.2372L6.52,15l-.49726.0522c.01056.1007.02402.1992.04024.2956.18671,1.2216.61728,2.3942,1.26709,3.4476.57285,1.0019,1.33367,1.8839,2.24077,2.5976l.00675.0053.00693.005c1.29068.9456,2.82518,1.4938,4.41548,1.5836V39h7.0153l-.0155-.515v-.0002l-.0001-.0011-.0001-.0051-.0006-.0219-.0006-.0312-.0011-.0569c-.0013-.0778-.0027-.1928-.003-.3397-.0006-.294.0034-.7153.0215-1.2213.0362-1.0141.129-2.3602.3536-3.7026.226-1.3509.579-2.6574,1.1153-3.617.5341-.9555,1.1914-1.4751,2.0189-1.488H30v11h5V23.7071l1.5-1.5.6464.6465.07.07.0013.0012c.341.3385.8019.5284,1.2823.5284s.9413-.1899,1.2823-.5284l.0013-.0012,2.07-2.07.0001.0001.0084-.0089c.3453-.3626.5379-.8441.5379-1.3448s-.1926-.9822-.5379-1.3448l.0001-.0001-.0086-.0087L37,13.2929V9.5zM22.3195,28.0115c-.7417.0821-1.3409.5929-1.8348,1.4765-.5363.9596-.8893,2.2661-1.1153,3.617-.2246,1.3424-.3174,2.6885-.3536,3.7026-.0175.4897-.0218.9-.0216,1.1924h1c-.0002-.3027.0042-.725.0222-1.2282.0372-1.039.1325-2.4317.3667-3.8318.2328-1.3916.6091-2.8313,1.2287-3.9399.2025-.3622.4371-.6988.7077-.9886zM17.9942,38c-.0002-.3027.0042-.725.0222-1.2282.0372-1.039.1325-2.4317.3667-3.8318.2328-1.3916.6091-2.8313,1.2287-3.9399.6212-1.1113,1.5453-1.9815,2.8813-2.0001H33v11h1V23.7071l-5.6768-5.6768L14.5707,19.995l-.0369.0052L14.4965,20c-1.6269-.0113-3.2411-.2873-4.77937-.8173L9.88,18.71l-.17835.4671c-.46939-.1792-.93952-.3984-1.37973-.6691.49137.8017,1.1211,1.5107,1.86048,2.0937,1.2521.915,2.7644,1.4051,4.3154,1.3983L15,21.9978V38h2.9942zm11.2129-20.5L34.5,22.7929l.7788-.7788-5.2797-5.3061-.792.792zM36.1464,21.1464l-.1605.1606-5.2797-5.3061L36,10.7071v3l.1464.1465,4.9953,4.9952c.1659.1762.2583.4091.2583.6512s-.0924.475-.2583.6512l-1.9953,1.9952-.0687.0688-.0007.0006c-.1535.1521-.3609.2374-.577.2374s-.4235-.0853-.577-.2374l-.0007-.0006-.0687-.0688-1-1-.3536-.3535-.3536.3535zM32,38V28h-1v10h1zm4.5-22c-.3978,0-.7794.158-1.0607.4393S35,17.1022,35,17.5c0,.2967.088.5867.2528.8334.1648.2466.3991.4389.6732.5524s.5757.1433.8666.0854c.291-.0579.5583-.2008.7681-.4105.2097-.2098.3526-.4771.4105-.7681.0579-.2909.0281-.5925-.0854-.8666s-.3058-.5084-.5524-.6732C37.0867,16.088,36.7967,16,36.5,16zm-.3536,1.1464c.0938-.0937.221-.1464.3536-.1464.0989,0,.1956.0293.2778.0843.0822.0549.1463.133.1841.2244.0379.0913.0478.1919.0285.2888-.0193.097-.0669.1861-.1368.2561-.07.0699-.1591.1175-.2561.1368-.0969.0193-.1975.0094-.2888-.0285-.0914-.0378-.1695-.1019-.2244-.1841C36.0293,17.6956,36,17.5989,36,17.5c0-.1326.0527-.2598.1464-.3536z"/></svg>