<svg width="48" height="48" viewBox="0,0,48,48" xmlns="http://www.w3.org/2000/svg"><path fill-rule="evenodd" clip-rule="evenodd" d="m22.0126,3h3.9876v.5c0-.00173.0001.00273.0004.01493v.00136l.0016.06845.0063.25046c.0056.21418.0137.51809.0241.88536.0208.73461.0504,1.72227.086,2.75218.0604,1.74713.1369,3.58146.2137,4.52726h1.6678v4h-1.1315c.4579,3.1069,1.0798,7.001,1.8355,11h2.7302l-.5182.7773-1.616,2.4241v.0116l.0413.1517c.8634,2.9804,2.7328,6.6862,4.4049,9.6709.8334,1.4877,1.6122,2.7867,2.1827,3.7136.2852.4633.5181.8335.6795,1.0874.0807.127.1435.2249.1861.2909l.0482.0747.0121.0187.003.0045.0007.0011.0002.0002-.4187.2733.4187-.2732.5045.7732H28.981l-.0391-.4574c-.1066-1.2452-.6766-2.4051-1.5972-3.2502-.9206-.8452-2.1249-1.3142-3.3746-1.3142-1.2498,0-2.4541.469-3.3747,1.3142-.9206.8451-1.4906,2.005-1.5972,3.2502L18.9591,46h-8.4132l.543-.7846.4112.2846-.4112-.2846.0002-.0002.0008-.0011.0032-.0047.0133-.0194.053-.0775c.0467-.0685.1157-.1702.2041-.3021.1768-.2637.4312-.6481.7407-1.1287.6192-.9617,1.4578-2.3074,2.3355-3.8435,1.7252-3.0194,3.5686-6.7188,4.2273-9.6771l-1.5835-2.3845L16.5678,27h2.7282c.7557-3.999,1.3776-7.8931,1.8355-11h-1.1314v-4h1.6676c.077-.9522.1536-2.80201.214-4.5572.0356-1.03369.0653-2.02263.086-2.75325.0104-.36528.0186-.66591.0241-.87517l.0064-.24202.0016-.06335.0004-.01617.0001-.00406v-.00127l.4999.01249-.4999-.01256L22.0126,3zm-2.5214,28c-.4187,1.5812-1.1114,3.3071-1.9096,5h2.5581l1.6666-5h-2.3151zm-2.3947,6c-.5801,1.1645-1.1953,2.2959-1.7886,3.3343-.8885,1.5551-1.7368,2.9163-2.3629,3.8887-.1912.297-.3618.5578-.5066.777h5.6204c.2161-1.3196.8688-2.534,1.8603-3.4443,1.1051-1.0146,2.5507-1.5775,4.051-1.5775,1.5002,0,2.9458.5629,4.0509,1.5775.9915.9103,1.6442,2.1247,1.8603,3.4443h5.6476c-.1295-.2064-.2814-.4502-.4515-.7267-.5758-.9356-1.362-2.2466-2.2036-3.7489-.6121-1.0927-1.2564-2.2916-1.8716-3.5244H17.0965zm13.4171-1c-.8128-1.7015-1.5403-3.4298-2.0257-5h-2.2941l1.6666,5h2.6532zM25.1192,7.50726c.0575,1.66532.1314,3.47394.2103,4.49274h-2.659c.079-1.025.153-2.84903.2106-4.5228.0357-1.03631.0654-2.02737.0862-2.75925.008-.28174.0147-.52512.0199-.71795h2.0253c.0186.7058.057,2.06851.1067,3.50726zM22.1422,16h3.7157c.4541,3.0919,1.0737,6.9867,1.8286,11h-7.3728c.7548-4.0133,1.3744-7.9081,1.8285-11zm.7182,15-1.6666,5h5.6125l-1.6666-5h-2.2793zm5.3754-1,.0643-.0942v-.0072l.0839-.126L29.5658,28H18.4323l1.1826,1.7809.1494.2191h8.4715zm-7.2357-17v2h6v-2h-6z"/></svg>