<svg width="48" height="48" viewBox="0,0,48,48" xmlns="http://www.w3.org/2000/svg"><path fill-rule="evenodd" clip-rule="evenodd" d="m21.2714,9.1994.5405,2.9339c.6294-.0934,1.2725-.1433,1.9282-.1433.7384,0,1.4652.0645,2.1783.184l.5915-2.92318.9801.19833-.5919,2.92505c1.3278.3197,2.6022.8221,3.8082,1.4429l1.4243-2.6255.879.4768-1.4255,2.6277c1.1822.6815,2.2909,1.4677,3.3103,2.2925l1.9218-2.2993.7673.6413-1.9221,2.2997.0222.0191c1.0598.9173,2.0161,1.8666,2.8497,2.7679l2.2321-2.009.669.7433L39.2029,20.76c1.3122,1.4926,2.2455,2.7776,2.701,3.4493l.1947.287-.2006.2829c-.91,1.2832-3.1594,4.072-6.3117,6.5454-3.1479,2.4699-7.2479,4.6654-11.8462,4.6654-4.6034,0-8.6383-2.2526-11.6904-4.7506-3.05636-2.5015-5.18018-5.2918-5.9742-6.47l-.19342-.287.20053-.2821.08908-.1254c.50301-.7086,1.34044-1.8883,2.46487-3.2392l-2.29131-1.9554.64915-.7607,2.29125,1.9554c.81535-.9318,1.75335-1.9147,2.80005-2.8611l-1.9726-2.2656.7541-.6567,1.9717,2.2644c1.0032-.8455,2.1004-1.6485,3.2811-2.3386l-1.4385-2.6273.8771-.4802,1.4374,2.6251c1.2025-.6216,2.4835-1.1169,3.8327-1.4188l-.5407-2.93564.9834-.18116zm-8.5883,21.2662c-2.73523-2.2387-4.70257-4.7214-5.58267-5.9714.97575-1.372,2.95497-4.1037,5.68697-6.5666,2.9437-2.6538,6.6979-4.9376,10.9527-4.9376,4.257,0,8.1899,2.333,11.2891,5.0155,2.8553,2.4716,4.9441,5.189,5.8486,6.4776-.9795,1.3269-3.0677,3.8256-5.9088,6.0548-3.0621,2.4026-6.9471,4.4521-11.2289,4.4521-4.2765,0-8.0916-2.0974-11.057-4.5244zm4.307-6.4756c0-3.866,3.134-7,7-7s7,3.134,7,7-3.134,7-7,7-7-3.134-7-7zm7-8c-4.4182,0-8,3.5817-8,8s3.5818,8,8,8c4.4183,0,8-3.5817,8-8s-3.5817-8-8-8zm-.2643,5.0089c.0768-.0064.1539-.0094.2311-.0089h.003c.5934,0,1.1734.1759,1.6667.5056.4934.3296.8779.7982,1.105,1.3463.227.5482.2864,1.1514.1707,1.7334-.1158.5819-.4015,1.1164-.8211,1.536-.4195.4196-.9541.7053-1.536.821-.582.1158-1.1852.0564-1.7333-.1707-.5482-.227-1.0167-.6116-1.3464-1.1049-.3296-.4934-.5056-1.0734-.5056-1.6667v-.003c-.0005-.093.0039-.1858.0133-.278.0133.008.0267.0158.0402.0234.2978.1689.6342.2576.9765.2576h.0033c.5285-.0035,1.0343-.215,1.408-.5887s.5852-.8795.5887-1.408v-.0014c.0013-.3431-.087-.6807-.2562-.9792l-.0079-.0138zM20.1451,22.8333c.0365-.1119.0854-.2193.1459-.3203l.4292-.7163.4288.7165c.087.1454.2102.2657.3576.3493.1469.0833.3128.1272.4817.1275.2649-.0022.5184-.1084.7058-.2958.1876-.1876.2939-.4415.2958-.7068.0006-.1688-.0429-.3347-.1261-.4815-.0834-.147-.2037-.2697-.349-.3559l-.9035-.536.9858-.3632.19-.07.0069-.0026.0071-.0023c.3739-.1253.766-.1881,1.1603-.1859.7906.0003,1.5634.2349,2.2208.6741.6578.4395,1.1705,1.0642,1.4732,1.7951.3028.731.382,1.5352.2277,2.3111-.1544.776-.5353,1.4887-1.0948,2.0481-.5594.5594-1.2721.9404-2.048,1.0947-.7759.1544-1.5802.0752-2.3111-.2276s-1.3556-.8154-1.7952-1.4732c-.4392-.6574-.6738-1.4302-.6741-2.2208l.1852-1.1582z"/></svg>