<svg width="24" height="24" viewBox="0,0,24,24" xmlns="http://www.w3.org/2000/svg"><path fill-rule="evenodd" clip-rule="evenodd" d="m12,3c-1.1046,0-2,.89543-2,2H7.00002c-1.10457,0-2,.89543-2,2v6h1v-3H11v.7339C11,11.4332,11.5669,12,12.2661,12h2.4678C15.4332,12,16,11.4332,16,10.7339V10h5v5c0,.5523-.4477,1-1,1h-.9976v1H20c1.1046,0,2-.8954,2-2V7c0-1.10457-.8954-2-2-2h-3c0-1.10457-.8954-2-2-2h-3zm4,2c0-.55228-.4477-1-1-1h-3c-.5523,0-1,.44772-1,1h5zM7.00002,6c-.55229,0-1,.44772-1,1v2H11v-.73391C11,7.56685,11.5669,7,12.2661,7h2.4678C15.4332,7,16,7.56685,16,8.26609V9h5V7c0-.55228-.4477-1-1-1H7.00002zm5.26608,2C12.1192,8,12,8.11913,12,8.26609V9h3v-.73391C15,8.11913,14.8809,8,14.7339,8h-2.4678zM15,10.7339V10h-3v.7339c0,.147.1192.2661.2661.2661h2.4678c.147,0,.2661-.1191.2661-.2661zm-6.99266,5.0877-3.58275-2.5028c-.64564-.5056-1.57968-.399-2.09438.2424-.51589.6428-.41614,1.5806.22119,2.1008l5.91815,5.2132L8.61124,21h3.92506l.8616.855.1462.145h9.2078l-.9074-.8624-5.3271-5.0628-.0004-.0004c-1.1904-1.1375-2.7482-2.0186-4.3907-2.0741L12.1179,14h-2.1178c-.63573,0-1.14924.2434-1.49877.6366-.29931.3367-.45916.761-.49399,1.185zM3.83962,14.13l4.72366,3.2998c.34708.3541.83766.5702,1.43682.5702H12l.0001-.5L12,17h-1.9999c-.36438,0-.60089-.1316-.75136-.3009-.15866-.1785-.24871-.4306-.24871-.6991,0-.2684.09005-.5205.24871-.699.15047-.1693.38698-.301.75136-.301h2.1006c1.3125.0472,2.6453.7651,3.7258,1.7977l.001.001L20.2481,21H13.956l-.8616-.8549L12.9482,20H8.98887l-5.78422-5.0953-.00861-.0075L3.1871,14.89c-.21536-.1729-.24983-.4876-.07699-.7029.17283-.2154.48754-.2499.7029-.077l.01297.0104.01364.0095z"/></svg>