<svg width="59" height="20" viewBox="0,0,59,20" xmlns="http://www.w3.org/2000/svg"><path fill-rule="evenodd" clip-rule="evenodd" d="m2,0C.89543,0,0,.895431,0,2v16c0,1.1046.895431,2,2,2h55c1.1046,0,2-.8954,2-2V2c0-1.104569-.8954-2-2-2H2z" fill="#eb0000"/><path d="m44.0567,4.23535V6.292h-4.6434l-.4966,2.60254c.5527-.58892,1.3306-.91154,2.1364-.88594.7957-.01745,1.5756.22394,2.2233.68809.9353.69082,1.403,1.74021,1.403,3.14821,0,1.3817-.4992,2.4759-1.4976,3.2828-.7896.637-1.7782.9732-2.791.9493-1.2193,0-2.1994-.3284-2.9404-.985-.741-.6564-1.1325-1.5437-1.1745-2.6617h2.2624c.0257.377.1629.7378.3942,1.0361.3623.424.8903.6694,1.4469.6725.5567.003,1.0872-.2365,1.4542-.6565.3471-.4434.5284-.9948.5123-1.5584.0291-.5803-.1625-1.15-.536-1.5939-.3641-.40118-.8866-.61989-1.4268-.59728-.7025-.01322-1.3547.36418-1.6951.98088l-2.0575-.0317,1.0959-6.44664,6.3303-.00001zm-34.83598-.0354h4.05608L8.25878,15.8H4.18579L9.22072,4.19995zm6.72758,0h14.3949l-1.4906,3.44547H18.5724l-2.0413,4.70908h10.2847L25.3259,15.8h-14.395l5.0174-11.60005z" fill="#fff"/></svg>