<svg width="59" height="20" viewBox="0,0,59,20" xmlns="http://www.w3.org/2000/svg"><path fill-rule="evenodd" clip-rule="evenodd" d="m2,0C.89543,0,0,.895431,0,2v16c0,1.1046.895431,2,2,2h55c1.1046,0,2-.8954,2-2V2c0-1.104569-.8954-2-2-2H2z" fill="#eb0000"/><path d="m9.25126,4.19995h4.06994L8.28619,15.8H4.19934L9.25126,4.19995zM26.0686,12.3662c.3678,0,.7008-.2172.8492-.5537l3.3034-7.61255H16.0383L11.0032,15.7999h4.0521l3.8117-8.69036h6.014L23.6755,9.885l-5.2436-.01902,4.2312,5.93392h4.6128l-3.1345-3.4337h1.9272zm16.3767-8.1317v11.5643h-2.3096V8.22903h-2.721V6.55207c.5641-.01582,1.0243-.07382,1.3802-.17402.3559-.1.6815-.26367.9769-.49043.4271-.32676.7145-.87793.8621-1.65312h1.8114zm3.2589,8.6614h2.1831c.1792.8964.6987,1.3447,1.5582,1.3447.4852,0,.8793-.1649,1.1826-.4944.3032-.3295.5365-.8423.7-1.5384.1054-.443.182-.9465.2294-1.511-.3534.4959-.7159.8479-1.0876,1.0561-.3717.2084-.824.3125-1.3565.3125-.8491,0-1.5873-.2479-2.2148-.7436-.4377-.348-.7791-.799-1.0244-1.35251-.2452-.55371-.3677-1.15488-.3677-1.80352,0-1.30234.4455-2.35722,1.3367-3.16406.7645-.6959,1.6821-1.04395,2.7526-1.04395.6592,0,1.2683.14766,1.8273.44297.5589.29531,1.0282.71446,1.4079,1.25762.6696.96504,1.0046,2.32031,1.0046,4.06562,0,1.61363-.2954,2.99003-.886,4.12893-.7699,1.482-1.9353,2.2226-3.4962,2.2226-1.0388,0-1.897-.2873-2.5746-.8621-.6776-.5746-1.0692-1.3472-1.1746-2.3175zm3.8442-6.98442c-.4957,0-.915.20293-1.2577.60898-.3428.41133-.5141.9334-.5141,1.56621,0,.51153.1238.96504.3718,1.36055.3374.54316.812.81468,1.4237.81468.5537,0,.9967-.2215,1.3289-.66449.311-.4164.4667-.9123.4667-1.48711,0-.60625-.1609-1.12051-.4825-1.54238-.3375-.43769-.7831-.65644-1.3368-.65644z" fill="#fff"/></svg>