<svg width="48" height="48" viewBox="0,0,48,48" xmlns="http://www.w3.org/2000/svg"><path fill-rule="evenodd" clip-rule="evenodd" d="m23.5,3c-1.7239,0-3.3772.68482-4.5962,1.90381C17.6848,6.12279,17,7.77609,17,9.5V18H8v27h31V18h-9V9.5c0-1.72391-.6848-3.37721-1.9038-4.59619C26.8772,3.68482,25.2239,3,23.5,3zM29,18V9.5c0-1.45869-.5795-2.85764-1.6109-3.88909C26.3576,4.57946,24.9587,4,23.5,4s-2.8576.57946-3.8891,1.61091C18.5795,6.64236,18,8.04131,18,9.5V18h1V9.5c0-1.19347.4741-2.33807,1.318-3.18198S22.3065,5,23.5,5s2.3381.47411,3.182,1.31802S28,8.30653,28,9.5V18h1zm-9-8.5V18h7V9.5c0-.92826-.3687-1.8185-1.0251-2.47487C25.3185,6.36875,24.4283,6,23.5,6s-1.8185.36875-2.4749,1.02513C20.3687,7.6815,20,8.57174,20,9.5zM9,44V19h29v25H9zm16.1155-19.6133c-.5696-.2963-1.2097-.4303-1.8504-.3872-.6406.0431-1.257.2615-1.7818.6315s-.9377.8772-1.1935,1.4661-.3447,1.2368-.2569,1.8729c.0877.636.3488,1.2357.7545,1.7333.3295.4042.7442.7284,1.2126.9506V37.5c0,.3978.158.7794.4393,1.0607S23.1022,39,23.5,39s.7793-.158,1.0606-.4393C24.842,38.2794,25,37.8978,25,37.5v-6.8461c.5398-.2561,1.007-.647,1.3549-1.1376.4177-.589.6431-1.2928.6451-2.0149.0018-.6421-.1731-1.2723-.5054-1.8216-.3324-.5494-.8095-.9967-1.3791-1.2931zm-1.7833.6105c.4576-.0308.9149.0649,1.3217.2766.4069.2117.7477.5312.9851.9236s.3623.8426.361,1.3012c-.0015.5158-.1624,1.0185-.4608,1.4392s-.7196.7389-1.2059.9108L24,29.9664V37.5c0,.1326-.0527.2598-.1465.3536-.0937.0937-.2209.1464-.3535.1464s-.2598-.0527-.3536-.1464C23.0527,37.7598,23,37.6326,23,37.5v-7.5336l-.3333-.1178c-.4324-.1529-.8145-.4218-1.1043-.7772-.2898-.3555-.4762-.7838-.5389-1.2381s.0008-.9171.1835-1.3378c.1827-.4206.4777-.7829.8525-1.0472s.8151-.4203,1.2727-.4511z"/></svg>