<svg width="24" height="24" viewBox="0,0,24,24" xmlns="http://www.w3.org/2000/svg"><path fill-rule="evenodd" clip-rule="evenodd" d="m8,3.5c0-.27653.22382-.5.5-.5h6c.2769,0,.5.22314.5.5v7c0,.2762-.2235.5-.5.5h-6c-.27586,0-.5-.2241-.5-.5v-7zM8.5,2C7.67218,2,7,2.67053,7,3.5v7c0,.8281.67186,1.5,1.5,1.5H11v10h1V12h2.5c.8295,0,1.5-.6722,1.5-1.5v-7c0-.82914-.6709-1.5-1.5-1.5h-6zM10,4h2c.5707,0,1.0936.14438,1.4713.51874C13.8499,4.8939,14,5.41803,14,6c0,.57766-.1454,1.10177-.5226,1.47816-.3767.37602-.9007.52069-1.4764.52184H11v2h-1V4zm1,3h.9995c.422-.00092.6479-.10622.7716-.22966C12.8944,6.64723,13,6.42234,13,6c0-.42103-.1074-.6469-.2326-.77099C12.6414,5.10412,12.4143,5,12,5h-1v2z"/></svg>