<svg width="24" height="24" viewBox="0,0,24,24" xmlns="http://www.w3.org/2000/svg"><path fill-rule="evenodd" clip-rule="evenodd" d="m9.86947,10.8371,4.28093-4.69504c.0921-.08872.2149-.14182.3496-.14182.2765,0,.5.22382.5.5,0,.06338-.0107.11922-.0286.16726l-1.4367,3.6496-.2689.6831H17.5c.2765,0,.5.2239.5.5,0,.2762-.2235.5-.5.5H16v1h1.5c.2765,0,.5.2239.5.5,0,.2762-.2235.5-.5.5v-.0004H16v1h1.5v.0004c.2765,0,.5.2239.5.5,0,.2762-.2235.5-.5.5h-1v.0005H16v1h.5v-.0005c.2759,0,.5.2242.5.5,0,.2759-.2241.5-.5.5v.5-.5h-5c-.7156,0-1.3285-.1221-1.75819-.4569-.40239-.3135-.73856-.8901-.74179-2.0265v-4.5166h.72072l.14873-.1631zM8,10.001v-.0008h1.27926l4.14124-4.54184.0078-.00852.0081-.00815c.2713-.27123.6477-.44145,1.0636-.44145.8295,0,1.5.67219,1.5,1.5,0,.17962-.031.35701-.0946.52446l-.0021.0057-.0001-.00001-1.169,2.96981H17.5c.8295,0,1.5.6722,1.5,1.5,0,.3841-.1443.7346-.3818,1,.2375.2655.3818.616.3818,1,0,.3841-.1443.7346-.3818,1,.2375.2655.3818.616.3818,1,0,.6914-.4677,1.2742-1.1051,1.4476.0678.171.1051.3574.1051.5524,0,.8282-.6719,1.5-1.5,1.5v-.5.5h-5c-.7924,0-1.67947-.1278-2.37281-.668-.04353-.034-.08593-.0692-.12717-.1058v.7826h-4.001v-9.008H8zm0,1H5.99902v7.008h2.001v-2.4911C8.00001,15.512,8,15.5062,8,15.5002V11.001z"/></svg>