<svg width="48" height="48" viewBox="0,0,48,48" xmlns="http://www.w3.org/2000/svg"><path fill-rule="evenodd" clip-rule="evenodd" d="m23.5,6c-.6922,0-1.3689.20527-1.9445.58986-.5756.38458-1.0242.93121-1.2891,1.57075s-.3342,1.34327-.1991,2.02219c.135.6789.4683,1.3026.9578,1.7921s1.1132.8228,1.7921.9578c.6789.1351,1.3827.0658,2.0222-.1991s1.1862-.7135,1.5707-1.2891C26.7947,10.8689,27,10.1922,27,9.5c0-.92826-.3687-1.8185-1.0251-2.47487C25.3185,6.36875,24.4283,6,23.5,6zm-1.3889,1.42133C22.5222,7.14662,23.0055,7,23.5,7c.663,0,1.2989.26339,1.7678.73223C25.7366,8.20107,26,8.83696,26,9.5c0,.49445-.1466.9778-.4213,1.3889s-.6652.7316-1.122.9208-.9595.2387-1.4444.1423c-.485-.0965-.9304-.3346-1.2801-.6842-.3496-.3497-.5877-.7951-.6842-1.28007-.0964-.48496-.0469-.98762.1423-1.44444.1892-.45681.5097-.84726.9208-1.12196zM20.5299,14.03h-.1747l-.1366.1088-5.53,4.4-.1161.0924-.047.1407-2,6-.0007.0024c-.0817.2491-.1043.5138-.066.7732s.1364.5063.2865.7212c.1502.2149.3483.3919.5787.5171.2304.1251.4867.1949.7487.2039v.0001l.0106.0002c.3627.0048.7172-.1072,1.0114-.3195.2936-.212.5115-.5127.6213-.8578l.0005-.0015,1.7123-5.2927,2.5311-1.9971v7.9485l-.6336,7.8666-6.2246,6.2246.3557.3536,1.6,1.59.3531.3508.3524-.3514,6.59-6.57.122-.1216.0212-.1711L23.4418,28h.3081l4.25,5.6667V43h3V32.3486l-.084-.1259-3.916-5.8741v-7.7073l3.661,3.3763.0922.085.1215.0315,6.18,1.6.0003.0001c.3567.092.7343.0557,1.0669-.1025.3326-.1583.599-.4284.7526-.7632l.0032-.0071.003-.0072c.084-.1991.1256-.4135.1223-.6296-.0033-.216-.0514-.429-.1414-.6255-.0899-.1965-.2197-.3721-.3811-.5158-.1613-.1437-.3508-.2523-.5564-.3189l-.0098-.0032-.01-.0028-5.7607-1.6067-5.27-4.9849-.1446-.1368h-6.199zm-5.1026,5.1989,5.2772-4.1989h5.6264l5.2154,4.9333.09.0851.1193.0332,5.8684,1.6368c.0706.0241.1357.0621.1915.1117.0579.0516.1045.1147.1368.1852.0322.0705.0495.147.0507.2246.0012.0749-.0128.1493-.0409.2188-.0562.1183-.1515.2137-.2699.27-.1208.0574-.2579.0706-.3874.0372l-6.0582-1.5685-4.4077-4.0649-.839-.7737v10.2926l4,6V42h-1v-8.6666l-.1-.1334-4.65-6.2H22.558l-.0543.4386-.9789,7.909-6.1155,6.097-.8912-.8857,5.7754-5.7754.0148-.1833.65-8.07.0016-.0201V16.4586l-.8097.6389-3.46,2.73-.1193.0941-.0467.1445-1.76,5.44-.0009.0027c-.0448.1412-.1338.2642-.2539.3508-.1186.0857-.2614.1313-.4076.1305-.1052-.0044-.208-.0328-.3005-.083-.094-.0511-.1749-.1234-.2362-.2112-.0613-.0877-.1014-.1885-.117-.2944-.0156-.1056-.0065-.2133.0266-.3147l.0003-.001,1.9523-5.8569z"/></svg>