<svg width="24" height="24" xmlns="http://www.w3.org/2000/svg"><path fill-rule="evenodd" clip-rule="evenodd" d="m7.0001,6c0-1.72311,1.12629-3,2.5-3,1.3737,0,2.5,1.27689,2.5,3s-1.1263,3-2.5,3c-1.37371,0-2.5-1.27689-2.5-3zm2.5-4c-2.0823,0-3.5,1.89511-3.5,4,0,.98625.31124,1.92644.85625,2.64721C4.3064,10.7318,3.09449,13.6308,3.00073,17.4877l-.01245.5121h7.01232v-1H4.02011c.18016-3.4022,1.3244-5.8606,3.54685-7.64123C8.10506,9.76104,8.76068,10,9.5001,10c.7284,0,1.3755-.23192,1.9091-.62361,1.0125.76321,1.7281,1.63571,2.2247,2.59051l.8872-.4613c-.5475-1.0528-1.3252-2.0083-2.3928-2.83803.5546-.72338.8718-1.67201.8718-2.66757,0-2.10489-1.4177-4-3.5-4zm4.5,13.5c0-1.3959,1.1041-2.5,2.5-2.5s2.5,1.1041,2.5,2.5-1.1041,2.5-2.5,2.5-2.5-1.1041-2.5-2.5zm2.5-3.5c-1.9481,0-3.5,1.5519-3.5,3.5,0,.157.0101.3114.0296.4626l-2.8864,2.9365-.14345.1459v2.9546h2.95505l.146-.144,2.9269-2.8865c.1543.0204.312.0309.4723.0309,1.9481,0,3.5-1.5519,3.5-3.5s-1.5519-3.5-3.5-3.5zm-1.5618,6.6391c-.6869-.3389-1.243-.896-1.5805-1.5838l-2.3579,2.3989v1.5454h1.5449l2.3935-2.3605zM16.5021,15c-.2892,0-.502.2145-.502.499,0,.2859.2141.501.502.501.2852,0,.498-.2125.498-.501,0-.2872-.2115-.499-.498-.499zm-1.502.499c0-.8395.6632-1.499,1.502-1.499.8415,0,1.498.6622,1.498,1.499,0,.8355-.6552,1.501-1.498,1.501-.8401,0-1.502-.6629-1.502-1.501z"/></svg>