<svg width="48" height="48" viewBox="0,0,48,48" xmlns="http://www.w3.org/2000/svg"><path fill-rule="evenodd" clip-rule="evenodd" d="m23.5,4C18.2531,4,14,8.25314,14,13.5c0,5.2469,4.2531,9.5,9.5,9.5,5.2459,0,9.5-4.2532,9.5-9.5C33,8.25318,28.7459,4,23.5,4zM13,13.5C13,7.70086,17.7009,3,23.5,3,29.2981,3,34,7.70083,34,13.5c0,3.3445-1.5639,6.3237-4,8.2465v19.2108l-.8947-1.1503-3.1522-4.0529-.9531.953v8.2502l-.8947-1.1503L21,39.8144,17.8947,43.807,17,44.9573V21.7469c-2.4363-1.9229-4-4.9022-4-8.2469zm12,10.3936c1.4499-.2074,2.8044-.7111,4-1.4478v15.5969l-2.6053-3.3497-.3478-.4471-.4005.4005L25,35.2929V23.8936zM23.5,24c.1676,0,.3343-.0039.5-.0117v18.0544l-2.6053-3.3497L21,38.1856l-.3947.5074L18,42.0427V22.4461C19.5995,23.4315,21.4834,24,23.5,24zM16,13.5C16,9.35814,19.3581,6,23.5,6S31,9.35814,31,13.5c0,4.1419-3.3581,7.5-7.5,7.5S16,17.6419,16,13.5zM23.5,5C18.8059,5,15,8.80586,15,13.5c0,4.6941,3.8059,8.5,8.5,8.5s8.5-3.8059,8.5-8.5C32,8.80586,28.1941,5,23.5,5z"/></svg>