<svg width="24" height="24" viewBox="0,0,24,24" xmlns="http://www.w3.org/2000/svg"><path fill-rule="evenodd" clip-rule="evenodd" d="m17,4.46875c0-1.37816,1.1219-2.5,2.5-2.5,1.3782,0,2.5,1.12184,2.5,2.5,0,.75355-.3508,1.46795-.9407,1.94098l-.2831.22701.1281.33951c.063.16701.0957.34361.0957.52375,0,.8264-.6736,1.5-1.5,1.5S18,8.3264,18,7.5c0-.18014.0328-.35674.0958-.52375l.1281-.33951-.2831-.22701C17.3509,5.93671,17,5.2223,17,4.46875zm2.5-3.5c-1.9304,0-3.5,1.56956-3.5,3.5,0,.94881.3929,1.84496,1.0589,2.49436C17.02,7.13814,17,7.31794,17,7.5c0,1.37868,1.1214,2.5,2.5,2.5,1.3787,0,2.5-1.12132,2.5-2.5,0-.18206-.02-.36187-.0588-.5369C22.6072,6.3137,23,5.41756,23,4.46875c0-1.93044-1.5695-3.5-3.5-3.5zm2.6465,21.88485L14.2929,15H2.00004v-4h8.29286L1.14648,1.85355l.70711-.7071L22.8536,22.1464l-.7071.7072zM11.2929,12l2,2H10v-2h1.2929zm-3.29286,0h1v2h-1v-2zM7.00004,14v-2h-4v2h4zM18.75,12H14v-1h8.25v4H17v-1h1.75v-2zm1,0v2h1.5v-2h-1.5z"/></svg>