<svg width="24" height="24" viewBox="0,0,24,24" xmlns="http://www.w3.org/2000/svg"><path fill-rule="evenodd" clip-rule="evenodd" d="m14.9245,6.53633c.4363.292.8085.68993,1.0652,1.17989.3188.60844.448,1.33689.3226,2.14253.413.09816.7623.31095,1.0335.60325.0882.095.167.1971.2366.3048C18.4287,10.3756,19,9.52738,19,8.5,19,7.08514,17.9148,6,16.5,6c-.6088,0-1.1526.20003-1.5755.53633zm3.0223,5.16317c.019.1018.0324.2046.0404.3075.0862,1.1142-.4682,2.4122-1.8122,2.852l-.311-.9504c.801-.2621,1.1861-1.0501,1.1261-1.8244-.0295-.3812-.1671-.7154-.3774-.942-.2006-.2163-.4879-.359-.8922-.3428l-.6983.028.199-.6699c.2412-.8119.1452-1.47627-.1173-1.97719-.2657-.50711-.7197-.88069-1.2497-1.07295-1.0484-.38024-2.362-.0456-2.9972,1.39429l-.2656.60197-.5088-.4171c-.96644-.79215-2.56579-.04775-2.38564,1.45378l.06714.5595h-.56358c-.58933,0-1.07832.5331-1.15806,1.3374-.07624.7688.26668,1.5483,1.12076,1.8382l-.3214.9469c-1.39692-.4741-1.905-1.7692-1.79448-2.8838.09208-.9288.64965-1.917,1.6387-2.17443.09261-1.84963,2.00702-2.89285,3.52186-2.17441.8874-1.44376,2.4211-1.86576,3.7328-1.50349C14.5768,5.40959,15.484,5,16.5,5,18.4671,5,20,6.53286,20,8.5c0,1.44334-.8268,2.6586-2.0532,3.1995zm-9.2755.679L10.2928,14H8.01411v1h2.29219l-1.62084,1.6209.70711.7071L11,15.7206V18h1v-2.2929l1.6213,1.6214.7071-.7072L12.7071,15h2.307v-1h-2.2936l1.6221-1.622-.7071-.7071L12,13.3064V11h-1v2.2929l-1.62159-1.6216-.70711.7072z"/></svg>