<svg width="24" height="24" viewBox="0,0,24,24" xmlns="http://www.w3.org/2000/svg"><path fill-rule="evenodd" clip-rule="evenodd" d="m11.8993,2.77184c-.2554-.57066-.9047-.92054-1.5508-.71189C6.425,3.32708,3.3268,6.43534,2.06005,10.3756c-.16141.5021.01142,1.0101.36573,1.3321-.07891.1281-.13464.2747-.15958.4368-.22821,1.4828-.13213,2.9965.27161,4.4349.12554.4472.48623.7483.89948.8396.33535,1.4494,1.06232,2.6535,1.87232,3.4592.44083.4385.92189.7744,1.39718.9597.46938.1831.99251.2394,1.45202.0126.45602-.225.74791-.6509.9296-1.1103.18338-.4637.27702-1.0151.30395-1.5851.04539-.961-.09584-2.0455-.3903-2.9907.3003-.1547.51396-.4296.60919-.7412.11647-.3812.26649-.7444.44725-1.0848.0823-.1549.1277-.3183.14-.4806l.3382.0867c.4989.128,1.0048-.0602,1.3165-.4422.5006-.6135,1.0532-1.178,1.6586-1.6773.3463-.2855.5337-.7316.4678-1.1874.1644-.0133.3298-.061.4868-.1474.3361-.185.6952-.3393,1.0723-.46.2909-.09313.5465-.29024.7012-.56265.9443.28525,2.0222.41201,2.9743.35109.5625-.03599,1.1058-.13894,1.5618-.33089.4526-.19055.8676-.4905,1.0841-.94823.2172-.45941.16-.97953-.0228-1.44799-.1851-.47422-.5185-.95337-.9539-1.39171-.7955-.80093-1.9809-1.51585-3.4094-1.84259-.0794-.43467-.3865-.82123-.8547-.94946-1.4342-.39281-2.9405-.47505-4.413-.23091-.1102.01827-.2128.05074-.307.09498zm5.4497,2.08343L16.5117,8.505c.8301.25329,1.7963.36958,2.6387.31568.4917-.03146.9166-.11946,1.2376-.25459.3244-.13654.4951-.2998.5681-.45405.0574-.12147.0751-.33532-.0504-.65702-.1233-.31595-.3669-.68317-.7318-1.0505-.6469-.65134-1.6284-1.25582-2.8249-1.54925zM3.51581,12.1443l.00002-.0001,5.53993,1.4206c.12201.0388.1855.1805.11957.3046-.21147.3982-.38573.8207-.52043,1.2615-.0291.0952-.09209.145-.15039.1591l-4.74952,1.1522c-.12268.0297-.2299-.0458-.25439-.1331-.36565-1.3026-.45229-2.6724-.24604-4.0125.01451-.0943.12665-.1868.26125-.1523zm5.77662.4485c.00955.0024.01904.005.02847.0076l1.4642.3755c.0993.0254.2132-.0076.2933-.1058.5384-.6599,1.1368-1.272,1.7972-1.8166.1006-.0829.135-.2014.1078-.3049l-.2651-1.00675-.0011-.00396-1.7145-6.51174c-.0468-.17804-.2206-.25535-.3468-.2146C7.03995,4.17934,4.18075,7.04641,3.01206,10.6817c-.04363.1357.04135.3116.21439.3559l6.0659,1.5555.00008-.0003zM6.01483,20.1692c-.65857-.6551-1.27341-1.6511-1.57638-2.8638l3.59957-.8732c.26465.836.39602,1.817.35545,2.6757-.02366.5009-.10478.9353-.23498,1.2645-.13189.3335-.29239.5074-.44225.5814-.11581.0572-.32458.0779-.64614-.0475-.31565-.1231-.68459-.3684-1.05527-.7371zM13.6843,9.48328l.0005.00186c.0367.13486.1814.19401.2994.12905.3939-.21682.8124-.39642,1.2496-.53637.0913-.02922.1416-.09206.1559-.15435l1.0991-4.79083c.03-.13108-.0516-.23791-.1337-.26039-1.2966-.35514-2.6571-.42907-3.9852-.20885-.0458.00759-.0889.03508-.1201.08652-.0322.05308-.0435.11993-.0267.18349h-.0001l1.4613,5.54987z"/></svg>