<svg width="48" height="48" viewBox="0,0,48,48" xmlns="http://www.w3.org/2000/svg"><path fill-rule="evenodd" clip-rule="evenodd" d="m23.429,5.6019c-.2999-1.13912-1.4941-1.87991-2.6571-1.50431C12.8802,6.64626,6.64656,12.8994,4.098,20.8268c-.31727.9869.15958,2.0022,1.00546,2.4733-.28947.2747-.49616.6422-.563,1.0765-.45687,2.9686-.26461,6,.54407,8.881.23236.8278.97472,1.3522,1.77526,1.3964.62632,3.0341,2.1205,5.5475,3.77831,7.1965.8679.8633,1.7964,1.5051,2.6879,1.8528.8857.3454,1.794.4205,2.5563.0443.7748-.3824,1.3053-1.124,1.6528-2.0008.3491-.8811.5358-1.9515.5903-3.0854.0999-2.0752-.2391-4.446-.9285-6.4278.6931-.1728,1.1979-.7103,1.3967-1.3609.2487-.8138.5694-1.5905.9566-2.3196.2465-.4641.2889-.9732.1667-1.4331l1.4102.3616c.8138.2087,1.6458-.096,2.1637-.7307,1.0475-1.2837,2.2058-2.4674,3.4776-3.5161.6368-.5251.943-1.3682.7261-2.1921l-.1104-.4194c.4582.1179.964.0702,1.4246-.1833.7203-.3966,1.4886-.7266,2.2943-.9845.6104-.1954,1.1144-.6636,1.3078-1.2994,1.9752.6657,4.3188.972,6.3638.8411,1.1173-.0715,2.1702-.2749,3.0351-.639.8616-.3627,1.5849-.9065,1.9536-1.6863.3619-.7651.2838-1.6715-.0613-2.5559-.3473-.8901-.9844-1.8147-1.841-2.6771-1.6309-1.64204-4.1113-3.11306-7.1093-3.71899-.0103-.8406-.5446-1.63849-1.4092-1.87528-2.8714-.78646-5.8866-.9509-8.8331-.46236-.4002.06635-.741.25224-1.0035.51178l-.0769-.29215zm15.2817,12.3974c-1.9507.1248-4.2052-.1777-6.0707-.8216l1.9435-8.47154c2.7868.56969,5.0791,1.93844,6.568,3.43754.786.7913,1.3334,1.604,1.6189,2.3358.2878.7376.2909,1.3378.0889,1.7649-.2252.4764-.7043.8834-1.4376,1.1921-.7299.3073-1.6644.4958-2.711.5628zM6.71597,23.7863l.00002-.0001,11.38461,2.9193c.5758.1718.8574.8307.5664,1.3785-.4179.7869-.7628,1.623-1.0297,2.4965-.1081.3536-.3685.6067-.688.6842l-9.74902,2.3649c-.50771.1232-1.0208-.1714-1.15296-.6423-.77059-2.7453-.95341-5.6327-.51849-8.4586.08074-.5246.6332-.8844,1.18714-.7424zm11.59593,1.9403-.0002.0007L5.86041,22.5344c-.62898-.1612-.99886-.8153-.8104-1.4015C7.50052,13.5105,13.4952,7.49851,21.0793,5.04919c.5707-.18432,1.2162.1751,1.3827.80733l.5144,1.95383.0053.02053.0001-.00003,2.9994,11.39185h-.0002l.0068.0252.0001.0001.5395,2.0493c.1115.4233-.0403.8733-.3952,1.166-1.3267,1.094-2.5308,2.3253-3.6162,3.6554-.2863.3509-.7263.5005-1.1405.3942l-3.0102-.7719c-.0177-.005-.0355-.0098-.0534-.0144zm-6.9686,15.4149c-1.51227-1.5042-2.90198-3.8239-3.49389-6.6404l8.37079-2.0305c.667,1.873,1.0019,4.1579.9064,6.1427-.0512,1.0648-.2253,2.0184-.5212,2.7651-.2977.7511-.6968,1.241-1.1656,1.4724-.4186.2066-1.0126.2086-1.7505-.0791-.7319-.2855-1.5482-.8367-2.346-1.6302zm16.9832-21.5776c-.5398.2971-1.205.0188-1.3736-.5781L23.945,7.56165v-.00012c-.1387-.55957.2187-1.1083.728-1.19273,2.8022-.46462,5.6714-.30848,8.4054.44031.4642.12714.7674.64034.6482,1.15979l-2.256,9.8338c-.0747.3258-.3252.5892-.6725.7004-.8657.2772-1.6935.6325-2.4716,1.0608zm1.8677-10.15297c-.7727-.1094-1.5522-.16488-2.3314-.16488v-1c1.013,0,2.0255.08837,3.0241.26183l.5197.09028-.1179.51413L31.041,10.192l-.9747-.22352.1279-.55755zM8.60588,30.0592c-.15856-1.0655-.21673-2.1455-.17268-3.2171l-.99916-.0411c-.05432,1.3214.03812,2.6539.27408,3.96l.09433.5222.51562-.1252,1.21973-.296-.23582-.9717-.6961.1689zM20.3143,7.53576c-.8587.34349-2.259,1.00601-3.7002,1.88773-1.4363.87861-2.9475,1.99561-3.9982,3.25641l.7682.6402c.9493-1.1392,2.3547-2.1889,3.7518-3.0436,1.3921-.85159,2.7419-1.48908,3.5498-1.81226l-.3714-.92848z"/></svg>