<svg width="36" height="36" viewBox="0,0,36,36" xmlns="http://www.w3.org/2000/svg"><path fill-rule="evenodd" clip-rule="evenodd" d="m6.25,3.25h23.5v29.5H6.25V3.25zm1,1v27.5h21.5V4.25H7.25zM27,7.75h-7.5v1H27v-1zm0,3h-7.5v1H27v-1zm-7.5,3H27v1h-7.5v-1zm6,6H9v1h16.5v-1zm-16.5,3h16.5v1H9v-1zm3.03,4.515H9.03003v1H12.03v-1zm3,0h3v1h-3v-1zm9,0h-3v1h3v-1zM12.125,9c0-1.05573.6971-1.75,1.375-1.75s1.375.69427,1.375,1.75c0,1.0557-.6971,1.75-1.375,1.75s-1.375-.6943-1.375-1.75zM13.5,6.25c-1.3932,0-2.375,1.32045-2.375,2.75,0,.77768.2906,1.5231.7798,2.0412-.7681.5449-1.4072,1.2566-1.8675,2.0851-.57614,1.037-.84875,2.2152-.7867,3.3999l.9986-.0524c-.0522-.9972.1773-1.9889.6622-2.8618.4525-.8144,1.1102-1.4946,1.9063-1.974.2132.0726.4416.112.6823.112.23,0,.4487-.036.6537-.1025.7913.4736,1.448,1.1445,1.9047,1.9488.4975.8761.7375,1.8748.6924,2.8813l.999.0448c.0535-1.1946-.2313-2.3801-.8218-3.42-.4608-.8113-1.093-1.5083-1.849-2.0443.499-.5187.796-1.27191.796-2.0581,0-1.42955-.9818-2.75-2.375-2.75z"/></svg>