<svg width="24" height="24" viewBox="0,0,24,24" xmlns="http://www.w3.org/2000/svg"><path fill-rule="evenodd" clip-rule="evenodd" d="m17,3.99921h2.2929l-3.6465,3.64644.7072.70711L20,4.70631v2.2929h1v-4h-4v1zM2,10.0002h.52083v-.99999H2v.99999zm1.5625,0h1.04167v-.99999H3.5625v.99999zm2.08333,0H6.6875v-.99999H5.64583v.99999zm2.08334,0h1.04166v-.99999H7.72917v.99999zm2.08333,0h1.0417v-.99999H9.8125v.99999zm2.0833,0h1.0417v-.99999h-1.0417v.99999zm2.0834,0H14v.0208h1V9.00021h-1.0208v.99999zM14,11.0627v1.0417h1v-1.0417h-1zm0,2.0833v1.0417h1V13.146h-1zm0,2.0834v1.0416h1v-1.0416h-1zM14,17.3127v1.0417h1v-1.0417h-1zm0,2.0833v1.0417h1V19.396h-1zm0,2.0834v.5208h1v-.5208h-1z"/></svg>