<svg width="36" height="36" viewBox="0,0,36,36" xmlns="http://www.w3.org/2000/svg"><path fill-rule="evenodd" clip-rule="evenodd" d="m11.0316,9.85588c1.2075-.35335,2.36-.60606,3.2185-.60606,1.6498,0,2.6234.39735,3.2348.84728.2257.166.392.3323.5152.4679.1232-.1356.2896-.3019.5152-.4679.6114-.44993,1.5851-.84728,3.2348-.84728.8585,0,2.011.25271,3.2185.60606,1.2202.35712,2.5432.83132,3.7606,1.30272,1.2187.4718,2.3379.9433,3.1522,1.2966.4073.1768.7388.3241.9686.4274.115.0517.2046.0923.2656.1202l.0697.0318.018.0083.0047.0022.0012.0006.0004.0001c.0001.0001.0001.0001-.2093.4536l.2094-.4535.7994.3691-.7265.4974-.282-.4119c.282.4119.2819.4119.2818.412l-.0004.0003-.0014.001-.0053.0036-.0201.0136-.0776.0525c-.068.0458-.1679.1127-.2967.1978-.2575.1703-.6307.4137-1.0948.7074-.9278.5871-2.221,1.3762-3.6819,2.1836-2.7427,1.5158-6.1548,3.1413-8.8541,3.56v.8856c.2942-.1701.6357-.2675,1-.2675,1.0287,0,1.8759.7765,1.9875,1.7753.2972-.1749.6435-.2752,1.0133-.2752,1.0284,0,1.8756.7763,1.9874,1.7749.297-.1746.6431-.2748,1.0126-.2748,1.1045,0,2,.8954,2,2L28.2503,31.5l-1-.0001.0006-5.2493v-.0001c-.0001-.5522-.4478-.9999-1-.9999-.5523,0-1,.4477-1,1h-.0002L25.2505,30l-1-.0001.0004-5.2494v-.0001c-.0001-.5522-.4478-.9999-1-.9999-.5523,0-1,.4477-1,1h-.0008l-.0002,3.7494h-1l.0002-5.2495c0-.5523-.4477-1-1-1-.5516,0-.9989.4466-1,.998v3.7515h-1v-11.25c0-.5523-.4477-1-1-1s-1,.4477-1,1v12.75h-1v-2.2493c0-.5523-.4477-1-1-1s-1,.4477-1,1l.0002,5.2493h-1l-.0002-5.2493c0-1.1046.8954-2,2-2,.3643,0,.7058.0974,1,.2675v-4.2093c-2.6513-.7368-5.70963-2.2893-8.12124-3.6652-1.26954-.7243-2.37095-1.4062-3.15513-1.9071-.39222-.2505-.70539-.456-.9209-.5991-.10777-.0715-.19114-.1275-.24779-.1657l-.06466-.0438-.01676-.0114-.00439-.003-.00119-.0008-.00034-.0003c-.0001,0-.00017-.0001.28242-.4126-.20962-.4539-.20956-.4539-.20947-.454l.00035-.0001.00124-.0006.00468-.0022.01803-.0083.0697-.0318c.06102-.0279.1506-.0685.26555-.1202.22987-.1033.56129-.2506.96861-.4274.8143-.3533,1.93358-.8248,3.1522-1.2966,1.21747-.4714,2.5404-.9456,3.76059-1.30272zM3.00012,13.4998l-.28259.4125-.72607-.4974.79904-.369.20962.4539zm25.36808-1.4087c1.1584.4485,2.2275.8974,3.025,1.2424-.7831.1587-1.8352.3597-3.063.5636-2.612.4337-6.0063.8782-9.2902.9595-.3281-.6562-1.0064-1.1067-1.7899-1.1067-.76,0-1.421.4239-1.7594,1.0483-3.0545-.1681-6.08825-.6-8.39171-.9978-.98398-.1699-1.83314-.3334-2.49181-.467.79744-.345,1.86652-.7938,3.0249-1.2423,1.20384-.4661,2.49782-.9294,3.68042-1.2755,1.1952-.3497,2.2313-.5658,2.9376-.5658,1.4798,0,2.2344.3527,2.6422.6527.2086.1536.3454.3068.4589.4388l.0199.0232c.0475.0557.1093.128.1675.1833.0523.0497.215.202.4615.202s.4093-.1523.4616-.202c.0582-.0553.1199-.1276.1675-.1833l.0199-.0232c.1134-.132.2503-.2852.4589-.4388.4078-.3,1.1623-.6527,2.6421-.6527.7063,0,1.7424.2161,2.9377.5658,1.1825.3461,2.4765.8094,3.6804,1.2755zM5.53186,14.5333c.61167.3767,1.32076.8014,2.09255,1.2417,2.31763,1.3223,5.16329,2.7644,7.62569,3.4935v-3.4824c-3.044-.1779-6.0432-.6068-8.32131-1.0003-.50277-.0868-.97082-.172-1.39693-.2525zm13.71824,5.0859v-3.7679c3.2913-.0946,6.6582-.5384,9.2439-.9677.7238-.1202,1.3873-.2394,1.9719-.3498-.8061.4961-1.781,1.075-2.8454,1.6632-2.6979,1.4911-5.8952,2.9987-8.3704,3.4222zm-1.4774-8.7962c-.0105.01-.0093.0068.0025-.0024l-.0025.0024zm.4524-.0024c.0118.0092.013.0124.0024.0024l-.0024-.0024z"/></svg>