<svg width="59" height="20" viewBox="0,0,59,20" xmlns="http://www.w3.org/2000/svg"><path fill-rule="evenodd" clip-rule="evenodd" d="m2,0C.89543,0,0,.895431,0,2v16c0,1.1046.895431,2,2,2h55c1.1046,0,2-.8954,2-2V2c0-1.104569-.8954-2-2-2H2z" fill="#eb0000"/><path fill-rule="evenodd" clip-rule="evenodd" d="m6.0932,15.8021H3.70312L6.13277,4.19995h5.15213c.8864,0,1.5762.09101,2.0695.27304.4934.18203.8917.51574,1.1951,1.00114.3033.4854.455,1.07368.455,1.76486,0,.98663-.2954,1.80046-.8864,2.44151-.5909.6411-1.4852,1.0381-2.6828,1.1911.306.2743.5935.6357.8626,1.0842.5329.9075,1.1264,2.1896,1.7807,3.8463h-2.5642c-.2058-.6542-.6094-1.6752-1.2109-3.0628-.32709-.7492-.67531-1.2531-1.04464-1.5116-.22687-.153-.62258-.2295-1.18712-.2295H7.0983l-1.0051,4.8039zm1.36915-6.54501h1.26626c1.28209,0,2.13289-.0765,2.55229-.22951.4195-.153.7479-.39306.9853-.72018.2375-.32712.3562-.67007.3562-1.02884,0-.42209-.1715-.73866-.5144-.9497-.2111-.12663-.6675-.18994-1.3692-.18994H8.11131l-.64896,3.11817zM22.3758,4.19995h2.3426l-1.4642,7.02775c-.3904,1.8625-.9022,3.1235-1.5353,3.783S20.1123,16,18.7986,16c-1.1133,0-1.9469-.2559-2.5009-.7677s-.831-1.2082-.831-2.0894c0-.1846.0132-.3904.0396-.6173l2.208-.2374c-.0316.2322-.0474.4247-.0474.5777,0,.3694.1055.6516.3165.8469.2111.1952.5355.2928.9735.2928.612,0,1.042-.1794,1.29-.5382.1846-.2743.4089-1.0473.6727-2.3188l1.4562-6.94865zm4.5379,11.60215h-3.0865l5.1205-5.8723-2.8808-5.72985h2.493l1.1317,2.17639c.0369.07914.2955.61466.7756,1.60658.0317.05276.066.12398.1029.21368.6437-.78615,1.1845-1.42982,1.6224-1.93106l1.8282-2.06559h2.9994l-5.3104,6.10975,2.857,5.4924h-2.6908l-.8705-1.749c-.4538-.9234-.7545-1.5855-.9022-1.9865-.2058.3113-.7361.955-1.5908,1.9311l-1.5987,1.8044z" fill="#fff"/></svg>