<svg width="59" height="20" viewBox="0,0,59,20" xmlns="http://www.w3.org/2000/svg"><path fill-rule="evenodd" clip-rule="evenodd" d="m2,0C.89543,0,0,.895431,0,2v16c0,1.1046.895431,2,2,2h55c1.1046,0,2-.8954,2-2V2c0-1.104569-.8954-2-2-2H2z" fill="#eb0000"/><path fill-rule="evenodd" clip-rule="evenodd" d="m12.0225,4.19995h2.6231L10.8082,15.8H7.94225L4.18579,4.19995h2.62304L9.3833,12.3557h.03238l2.60682-8.15575zM16.1167,15.8h-2.5745l4.388-11.60005h2.6068L24.8602,15.8h-2.6393l-.8743-2.5832h-4.3232L16.1167,15.8zm3.0764-8.74066h.0324l1.4572,4.25656h-2.9954l1.5058-4.25656zM34.5242,15.8h-8.7758V4.19995h8.6463v2.14454h-6.1042V8.8302h5.6023v1.9821h-5.6023v2.8431h6.2337V15.8z" fill="#fff"/></svg>