<svg width="24" height="24" xmlns="http://www.w3.org/2000/svg"><path fill-rule="evenodd" clip-rule="evenodd" d="m9.00042,5.99951C9.01614,5.44745,9.47183,5,10.037,5h2.926c.5652,0,1.0209.44745,1.0366.99951H9.00042zm-1.00021,0C8.01605,4.89069,8.92405,4,10.037,4h2.926c1.113,0,2.0209.89069,2.0368,1.99951h3.9707c1.1216,0,2.029.90929,2.029,2.03V18.7205c0,1.1199-.9076,2.029-2.029,2.029H4.02951c-1.12093,0-2.03-.9086-2.03-2.029V8.02951c0-1.12114.90886-2.03,2.03-2.03h3.9707zm-5.0007,2.03c0-.56886.46114-1.03,1.03-1.03H18.9705c.5684,0,1.029.46072,1.029,1.03V11H14v-.7335c0-.69971-.5664-1.26699-1.266-1.26699h-2.468c-.69957,0-1.266.56728-1.266,1.26699V11H2.99951V8.02951zM9,12H2.99951v6.7205c0,.5677.46093,1.029,1.03,1.029H18.9705c.5687,0,1.029-.4609,1.029-1.029V12H14v.7335c0,.6992-.5669,1.266-1.266,1.266h-2.468c-.69914,0-1.266-.5668-1.266-1.266V12zm4,0v.7335c0,.1469-.1191.266-.266.266h-2.468c-.1469,0-.266-.1191-.266-.266V12h3zm0-1h-3v-.7335c0-.1483.1196-.26699.266-.26699h2.468c.1464,0,.266.11869.266.26699V11z"/></svg>