<svg width="24" height="24" xmlns="http://www.w3.org/2000/svg"><path fill-rule="evenodd" clip-rule="evenodd" d="m7.09998,8C7.56312,5.71749,9.58062,4,12,4c2.4186,0,4.4367,1.71753,4.9,4H13v1h4c0,.3644.0974.7059.2675,1H6.73271C6.90272,9.70588,7,9.36437,7,9h4V8H7.09998zM19,10c-.5521,0-1-.44736-1-1,0-3.3142-2.6869-6-6-6C8.68586,3,6,5.68586,6,9c0,.55286-.44714,1-1,1v1h1.80262c-.51059.8826-.80238,1.9074-.80238,3,0,3.3131,2.6858,6,5.99996,6,3.3132,0,6-2.6869,6-6,0-1.0927-.2924-2.1175-.8032-3H19v-1zm-3.0001,1H7.99957c-.62817.8356-.99933,1.8733-.99933,3,0,2.7609,2.23821,5,4.99996,5,2.7609,0,5-2.2391,5-5,0-1.1265-.3718-2.1643-1.0003-3zM9,13c0-.5521.44786-1,1-1,.5521,0,1,.4479,1,1s-.4479,1-1,1c-.55214,0-1-.4479-1-1zm4,0c0-.5521.4479-1,1-1s1,.4479,1,1-.4479,1-1,1-1-.4479-1-1zm-4.27642,3.2866C9.44519,17.3183,10.6406,18,12.0003,18c1.3585,0,2.5552-.6816,3.2759-1.7137l-.8198-.5726C13.9131,16.4916,13.0158,17,12.0003,17c-1.0163,0-1.9129-.5083-2.45728-1.2866l-.81944.5732z"/></svg>