<svg width="36" height="36" xmlns="http://www.w3.org/2000/svg"><path fill-rule="evenodd" clip-rule="evenodd" d="m24.0001,4.33496c-.9238,0-1.75.82614-1.75,1.75s.8262,1.75,1.75,1.75c.9239,0,1.75-.82614,1.75-1.75s-.8261-1.75-1.75-1.75zm-2.75,1.75c0-1.47614,1.2739-2.75,2.75-2.75,1.4762,0,2.75,1.27386,2.75,2.75s-1.2738,2.75-2.75,2.75c-1.4761,0-2.75-1.27386-2.75-2.75zm1,5.66504v8h3.5v-8h-3.5zm-1,.7071v13.7154l-3.6547,5.0337.8092.5876,3.7501-5.1652.0954-.1314V20.75h3.7297l2.7703,4.2339V33h1v-8.3142l-.0816-.1247-2.9184-4.4601v-7.1996l2.084,3.1259.0623.0936.0964.0578,3.7499,2.25.5146-.8574-3.6535-2.1922-2.9377-4.4065-.1484-.2226H21.543l-.1465.1464-4.5,4.5-.1464.1465v.2071l-.0001,4h-3.1319l-3-1.5H5.79283l-.14645.1465-2.24995,2.2501L3.25,20.793V25.5h1v-4.2928L6.20707,19.25H6.25v9.0833L4.1,31.2l.8.6,2.25-3,.1-.1333V25.25h2.8998l2.8803,7.9209.9398-.3418L11,24.6619V19.559l2.382,1.191h3.368V21h1l.0001-5.0429,3.5-3.5zM8.25,13.25c-.52386,0-1,.4761-1,1s.47614,1,1,1,1-.4761,1-1-.47614-1-1-1zm-2,1c0-1.0761.92386-2,2-2s2,.9239,2,2-.92386,2-2,2-2-.9239-2-2zm1,10v-5H10v5H7.25z"/></svg>