<svg width="24" height="24" xmlns="http://www.w3.org/2000/svg"><path fill-rule="evenodd" clip-rule="evenodd" d="m22.5,0h-21C.675,0,0,.675,0,1.5v21c0,.825.675,1.5,1.5,1.5h21c.825,0,1.5-.675,1.5-1.5v-21c0-.825-.675-1.5-1.5-1.5z" fill="#2d327d"/><path fill-rule="evenodd" clip-rule="evenodd" d="m6.13499,15.225c-.2475-.285-.5775-.45-.93-.51-.0525-.2325-.1575-.45-.3225-.6375-.4875-.5475-1.3125-.6225-1.89-.1875.0525-.2175.1575-.435.33-.645.4575-.5625.8175-.675,1.0575-.795-.3825-.21-.9225-.3375-1.23-.3-.105.015-.0375-.2175-.0225-.2775.03-.09.0825-.2325.285-.2025.2925.0375,1.08.5175,1.185.6.1575-.225.285-.5925.9525-1.0125.135-.0825.27-.15.405-.195-.36.5175-.3525,1.215.06,1.68.21.2325.4875.375.7875.4125-.03.45.1125.9075.435,1.2675.405.4575.9975.645,1.56.555-.015.2175-.06.3975-.135.51-.2775.4275-.435.39-.75.6675-.3075.285-.285.435-.75.6675-.165.0825-.435.0975-.765.0525.24-.5325.1575-1.185-.2625-1.65z" fill="#fff"/><path fill-rule="evenodd" clip-rule="evenodd" d="m7.63501,6.50244,1.8375,5.05496,3.97499-.81-.345-5.36996-5.46749,1.125z" fill="#fff"/><path fill-rule="evenodd" clip-rule="evenodd" d="m14.5875,14.3625h-1.2c-.7425,1.2825-1.68,2.91-2.1975,3.8025-.21.36-.0825.8175.285,1.0275l2.955,1.7026c.36.21.825.09,1.035-.27l1.8225-3.1575-2.2725-.1725-.4275-2.9326z" fill="#fff"/><path fill-rule="evenodd" clip-rule="evenodd" d="m20.9025,7.74745-1.305-.75751c-.09-.0525-.2025-.0225-.255.0675l-.195.3375c-.0525.0825-.0225.195.06.2475l.0075.0075s-1.275,1.80751-1.7775,2.67746c-.5025.87-2.4,1.1625-3.27,2.6775-.045.075-.09.1575-.1425.2475h1.5225l.435,3.0075,1.9125.1425.5325-.93c.87-1.515.18-3.3.6825-4.17s1.4025-2.88746,1.4025-2.88746l.015.0075c.09.045.195.0075.24-.075l.195-.3375c.0675-.08999.03-.21-.06-.26249z" fill="#fff"/><path fill-rule="evenodd" clip-rule="evenodd" d="m12.72,3.615-.36.12L11.9925,3,7.46249,4.905l.0525.3825-.3975.1275.1125.615L12.99,4.185l-.27-.57z" fill="#fff"/></svg>