<svg width="36" height="36" xmlns="http://www.w3.org/2000/svg"><path fill-rule="evenodd" clip-rule="evenodd" d="m6.74383,10.7471,22.50447-.0015c1.106,0,2,.8962,2,2h.0015v11.5007h1.7485v1h-1.7485v1.5008h-1.5144c.0082.0812.0126.164.0126.2485,0,1.5199-1.2321,2.75-2.75,2.75-1.518,0-2.75-1.2301-2.75-2.75,0-.0845.0044-.1673.0125-.2485H11.7354c.0082.0812.0126.164.0126.2485,0,1.5199-1.2321,2.75-2.75003,2.75-1.51792,0-2.75-1.2301-2.75-2.75,0-.0845.00439-.1673.01256-.2485H4.74694l-.00033-1.5008H2.99829v-1h1.74809l-.00255-11.4991v-.0001c0-1.1041.89584-2,1.99996-2h.00004zm18.52497,16h3.4583c.0136.0826.0209.1654.0209.2485,0,.9671-.784,1.75-1.75,1.75-.9661,0-1.75-.7829-1.75-1.75,0-.0831.0072-.1659.0208-.2485zm-17.99996,0h3.45826c.0136.0826.0209.1654.0209.2485,0,.9671-.78395,1.75-1.75003,1.75-.96607,0-1.75-.7829-1.75-1.75,0-.0831.00723-.1659.02087-.2485zM29.2483,11.7456l-22.50444.0015h-.00003c-.55183,0-.99995.4481-1,.9999v.0001l.00289,13h2.00157v-6h5.50001v6h17.0015V12.7456h-.0015c0-.5522-.4469-1-.9999-1h-.0001zm-17,14.0015H8.74829v-5h3.50001v5zM8.24862,13.7456h-.5v4H28.2501v-4H8.24862zm.5,3v-2H27.2501v2H8.74862zm6.49998,3.0015h13.0015v4H15.2486v-4zm1,1v2h11.0015v-2H16.2486z"/></svg>