<svg width="24" height="24" xmlns="http://www.w3.org/2000/svg"><path fill-rule="evenodd" clip-rule="evenodd" d="m22.5,0h-21C.675,0,0,.675,0,1.5v21c0,.825.675,1.5,1.5,1.5h21c.825,0,1.5-.675,1.5-1.5v-21c0-.825-.675-1.5-1.5-1.5z" fill="#2d327d"/><path fill-rule="evenodd" clip-rule="evenodd" d="m15.7875,5.13L3,3v.6825l12.7875,2.13V5.13z" fill="#fff"/><path fill-rule="evenodd" clip-rule="evenodd" d="m17.5875,5.43005v.6825l3.4125.57v-.6825l-3.4125-.57z" fill="#fff"/><path fill-rule="evenodd" clip-rule="evenodd" d="m19.275,17.025v-3.7125c0-.6225-.5025-1.125-1.125-1.125-.3675,0-.705.18-.915.4725l-1.86,2.625c-.06.09-.09.1875-.09.2925,0,.2775.225.51.5025.51.165,0,.3225-.0825.4125-.2175l.75-1.0575v1.575h-2.0625c-.4125,0-.75.3375-.75.75V20.31c0,.3825.3075.69.6975.69.3825,0,.69-.3075.69-.69v-2.535h3c.4125,0,.75-.3375.75-.75z" fill="#fff"/><path fill-rule="evenodd" clip-rule="evenodd" d="m17.175,4.5H16.2v3.93l3.825.6375v9.4575H16.2v.975H21V8.2425l-3.825-.6375V4.5z" fill="#fff"/><path fill-rule="evenodd" clip-rule="evenodd" d="m18.015,11.775c.5775,0,1.05-.4725,1.05-1.05s-.4725-1.04995-1.05-1.04995-1.05.47245-1.05,1.04995c0,.585.4725,1.05,1.05,1.05z" fill="#fff"/></svg>