<svg width="48" height="48" xmlns="http://www.w3.org/2000/svg"><path fill-rule="evenodd" clip-rule="evenodd" d="m3,4.74146V2H2v44h1v-7.4927l5.68198-1.7456.00029-.0001c2.43203-.7488,4.99573-.97,7.52013-.649s4.9512,1.1769,7.1184,2.5104v.0001c2.234,1.3744,4.7297,2.2687,7.3281,2.6261,2.5903.3562,5.4443.1923,7.78-.5551.9813-.314,2.7893-.9079,4.35-1.4225.7808-.2575,1.5004-.4954,2.0248-.6689l.6234-.2064.1706-.0565.0445-.0148.0113-.0037.0029-.001.0007-.0002.0002-.0001-.1573-.4746.1574.4746L46,38.2064V4.43308l-.6574.21796.1574.4746-.1574-.47458-.0002.00006-.0007.00024-.0029.00095-.0113.00375-.0444.01473-.1704.05646-.6232.20631c-.5241.17344-1.2434.41122-2.0238.66856-1.5616.51497-3.3653,1.10737-4.3416,1.41977-2.1696.69428-4.8699.85639-7.339.51684-2.4609-.33843-4.8245-1.18544-6.9403-2.48712-2.2883-1.40813-4.8508-2.31184-7.5163-2.65078-2.6653-.33893-5.3723-.10534-7.9402.68519l-.00028.00009L3,4.74146zM3,5.7876v31.6736l5.38802-1.6553c2.56798-.7906,5.27508-1.0243,7.94048-.6853,2.6655.3389,5.228,1.2426,7.5163,2.6508,2.1158,1.3016,4.4794,2.1487,6.9403,2.4871,2.4691.3395,5.1694.1774,7.339-.5169.9763-.3124,2.78-.9048,4.3416-1.4197.7804-.2574,1.4997-.4951,2.0238-.6686l.5105-.169V5.81794l-.1963.06499c-.5244.17352-1.244.41141-2.0248.66889-1.5607.51467-3.3687,1.1085-4.35,1.4225-2.3357.7474-5.1897.9113-7.78.55508-2.5984-.35733-5.0941-1.25166-7.3281-2.62608V5.9033c-2.1672-1.33359-4.594-2.18946-7.1184-2.51046l.063-.496-.063.496c-2.5244-.321-5.0881-.09974-7.52013.649l-.00029.00009L3,5.7876zm19.6007,5.5376.6199.2067-.4228.6342.8321.5547.3699-.5549.3699.5549.832-.5547-.4228-.6342.6201-.2067-.3162-.9487-.5828.1943v-.57083h-1v.57093l-.5831-.1944-.3162.9487zm5.8997,1.684-.6199-.2066.3162-.9487.5826.1942v-.5708h1v.571l.5832-.1944.3163.9487-.6201.2067.4228.6341-.832.5547-.3699-.5548-.3699.5548-.8321-.5547.4228-.6342zm3.2253,3.6386.62.2067-.4229.6342.8321.5547.3699-.5549.3699.5549.832-.5547-.4228-.6342.6201-.2067-.3163-.9487-.5832.1944v-.571h-1v.5708l-.5826-.1942-.3162.9487zm2.0272,5.4593-.62-.2066.3162-.9487.5831.1943v-.5709h1v.5708l.5828-.1942.3162.9487-.62.2066.4228.6342-.8321.5547-.3699-.5548-.3699.5548-.832-.5547.4228-.6342zm-2.0272,5.046.62.2067-.4229.6342.8321.5547.3699-.5548.3699.5548.832-.5547-.4228-.6342.6201-.2067-.3163-.9486-.5832.1944v-.571h-1v.5708l-.5826-.1942-.3162.9486zM28.5004,31.205l-.6199-.2066.3162-.9487.5826.1942v-.5708h1v.571l.5832-.1944.3163.9487-.6201.2066.4228.6342-.832.5547-.3699-.5548-.3699.5548-.8321-.5547.4228-.6342zm-5.8641,1.2008.6204.2068-.4227.6341.832.5547.3699-.5549.3699.5549.8321-.5547-.4229-.6343.6196-.2066-.3162-.9487-.5828.1943v-.5708h-1v.5709l-.5831-.1944-.3162.9487zm-4.6412-1.2008-.62-.2066.3162-.9487.5826.1942v-.5708h1v.571l.5833-.1944.3162.9487-.62.2066.4228.6342-.8321.5547-.3699-.5548-.3699.5548-.832-.5547.4228-.6342zm-4.4652-4.0519.62.2067-.4229.6342.8321.5547.3699-.5548.3699.5548.832-.5547-.4228-.6342.6201-.2067-.3163-.9486-.5832.1944v-.571h-1v.5708l-.5826-.1942-.3162.9486zm-.7878-5.046-.6199-.2066.3162-.9487.5831.1943v-.5709h1v.5708l.5827-.1942.3163.9487-.6201.2066.4228.6342-.832.5547-.3699-.5548-.3699.5548-.8321-.5547.4228-.6342zm.7878-5.4593.62.2067-.4229.6342.8321.5547.3699-.5549.3699.5549.832-.5547-.4228-.6342.6201-.2067-.3163-.9487-.5832.1944v-.571h-1v.5708l-.5826-.1942-.3162.9487zM17.9951,13.0092l-.62-.2066.3162-.9487.5826.1942v-.5708h1v.571l.5833-.1944.3162.9487-.62.2067.4228.6341-.8321.5547-.3699-.5548-.3699.5548-.832-.5547.4228-.6342z"/></svg>