<svg width="59" height="20" xmlns="http://www.w3.org/2000/svg"><path fill-rule="evenodd" clip-rule="evenodd" d="m2,0C.89543,0,0,.895431,0,2v16c0,1.1046.895431,2,2,2h55c1.1046,0,2-.8954,2-2V2c0-1.104569-.8954-2-2-2H2z" fill="#eb0000"/><path d="m9.20444,4.19995L4.18579,15.8h4.23448l1.90443-4.6086,1.6803-4.09145h8.9619l-1.2099,2.7876h-7.4383c.5526.58445,1.0717,1.11655,1.5571,1.59615s.9634.9479,1.4339,1.405.9522.9217,1.4451,1.3938,1.0306.9779,1.6131,1.5175h10.7767l1.9268-1.4838,2.1284-1.641L34.5889,15.8h6.2285l-1.9268-3.1698-1.7251-2.87754,8.4465-5.55271h-6.4301l-3.5848,2.6752-1.2994-2.6752H28.226l3.2039,5.5752-8.4466,5.57525c-.4182-.3298-.9149-.7307-1.4899-1.2028-.5751-.4721-1.3181-1.0603-2.2293-1.7647h.8738c.4929,0,.8925-.0037,1.1987-.0112s.5265-.0188.6609-.0338c.2325-.0053.4613-.0589.6721-.1573.2408-.232.4248-.5167.5378-.8318l3.0246-7.14885H9.20444z" fill="#fff"/></svg>