<svg width="24" height="24" xmlns="http://www.w3.org/2000/svg"><path fill-rule="evenodd" clip-rule="evenodd" d="m22.5,0h-21C.675,0,0,.675,0,1.5v21c0,.825.675,1.5,1.5,1.5h21c.825,0,1.5-.675,1.5-1.5v-21c0-.825-.675-1.5-1.5-1.5z" fill="#2d327d"/><path fill-rule="evenodd" clip-rule="evenodd" d="m10.425,4.18491c-.0675-.0675-.105-.15-.105-.2475,0-.195.1575-.345.345-.345.09,0,.18.0375.2475.105l3.885,3.8775h3.09c.555,0,1.0425.36,1.2.8925l1.89,6.20249c.015.06.0225.1125.0225.1725v2.7075c0,.21-.165.375-.375.375H3v-4.425h3.6375c.21,0,.375-.165.375-.375V8.62491c0-.21-.165-.375-.375-.375h-3.63v-.675H13.815l-3.39-3.39zm6.8325,10.43999c0,.21.165.375.375.375h2.2125c.21,0,.375-.165.375-.375,0-.0375-.0075-.075-.015-.1125L18.39,8.57241c-.075-.24-.2925-.3975-.54-.3975h-.0375c-.3075,0-.5625.255-.5625.5625l.0075,5.88749zm-1.26.45c-.3075,0-.5625-.255-.5625-.5625V8.73741c0-.3075.255-.5625.5625-.5625s.5625.255.5625.5625v5.77499c0,.3075-.255.5625-.5625.5625zM12.945,8.62491c0-.21-.165-.375-.375-.375h-4.5c-.21,0-.375.165-.375.375v4.49999c0,.21.165.375.375.375h4.5c.21,0,.375-.165.375-.375V8.62491zm.675,5.88749V8.73741c0-.3075.2475-.5625.5625-.5625.3075,0,.5625.255.5625.5625v5.77499c0,.3075-.255.5625-.5625.5625s-.5625-.255-.5625-.5625z" fill="#fff"/><path fill-rule="evenodd" clip-rule="evenodd" d="m12.3525,18.6749h3.78c-.3075.7725-1.0575,1.275-1.89,1.275s-1.575-.5025-1.89-1.275z" fill="#fff"/><path fill-rule="evenodd" clip-rule="evenodd" d="m7.85251,18.6749h3.77999c-.3075.7725-1.0575,1.275-1.88999,1.275-.8325,0-1.575-.5025-1.89-1.275z" fill="#fff"/><path fill-rule="evenodd" clip-rule="evenodd" d="m21.0075,20.325H3.00751V21H21.0075v-.675z" fill="#fff"/><path fill-rule="evenodd" clip-rule="evenodd" d="m21.0075,2.99995H3.00751v.3375H21.0075v-.3375z" fill="#fff"/></svg>