<svg width="36" height="36" xmlns="http://www.w3.org/2000/svg"><path fill-rule="evenodd" clip-rule="evenodd" d="m10.7485,3.25h22v4h-1.497v25.7515h-1V7.25H13.25v25.7515h-1V7.25h-1.5015v-4zm1,1v2h20v-2h-20zM3.25,10.75h7v8.5h-3V33h-1V19.25h-3v-8.5zm1,1v6.5h5v-6.5h-5zm19,0c-.5534,0-1,.4466-1,1,0,.5522.447,1,1,1,.5519,0,1-.4481,1-1,0-.553-.4478-1-1-1zm-2,1c0-1.1056.8944-2,2-2,1.1038,0,2,.894,2,2,0,1.1041-.8959,2-2,2-1.106,0-2-.8962-2-2zm-1,3.9993h-.5v8.5h1.5v7.5h4v-7.5h1.5v-8.5h-6.5zM20.75,24.2493v-6.5h5v6.5h-1.5v7.5h-2v-7.5h-1.5z"/></svg>