<svg width="24" height="24" xmlns="http://www.w3.org/2000/svg"><path fill-rule="evenodd" clip-rule="evenodd" d="m22.5,0h-21C.675,0,0,.675,0,1.5v21c0,.825.675,1.5,1.5,1.5h21c.825,0,1.5-.675,1.5-1.5v-21c0-.825-.675-1.5-1.5-1.5z" fill="#2d327d"/><path fill-rule="evenodd" clip-rule="evenodd" d="m10.0125,11.7975-1.8075.63c-.0375.015-.0825.0225-.12.0225-.1275,0-.24-.06-.3075-.165l-.405-.6c-.03-.0525-.0525-.105-.0525-.165,0-.165.135-.3.3-.3h2.3025c.165,0,.3.135.3.3-.0075.12-.09.2325-.21.2775z" fill="#fff"/><path fill-rule="evenodd" clip-rule="evenodd" d="m16.35,11.8125h-2.625v-.6h2.625c.165,0,.3.135.3.3s-.135.3-.3.3z" fill="#fff"/><path fill-rule="evenodd" clip-rule="evenodd" d="m16.35,12.7875h-.375c-.165,0-.3-.135-.3-.3s.135-.3.3-.3h.375c.165,0,.3.135.3.3s-.135.3-.3.3z" fill="#fff"/><path fill-rule="evenodd" clip-rule="evenodd" d="m3,17.325c0-2.0325,1.6425-3.675,3.675-3.675.585,0,1.1625.135,1.68.405l.72-1.155h5.85l.72,1.155c.5175-.2625,1.095-.405,1.68-.405,2.0325,0,3.675,1.6425,3.675,3.675C21,19.35,19.3575,21,17.325,21s-3.675-1.65-3.675-3.675c0-1.17.5475-2.2575,1.485-2.955l-.405-.645-1.965,2.925c.135.1725.21.3825.21.6,0,.54-.435.975-.975.975-.3825,0-.7275-.2175-.885-.5625h-.78C10.1625,19.5525,8.5725,21,6.675,21,4.65,21,3,19.35,3,17.325zm12.45-2.4375c-.7575.5775-1.2,1.4775-1.2,2.4375,0,1.695,1.38,3.075,3.075,3.075s3.075-1.38,3.075-3.075-1.38-3.075-3.075-3.075c-.4725,0-.9375.105-1.365.315l1.62,2.6025c.03.045.045.0975.045.1575,0,.165-.135.3-.3.3-.105,0-.2025-.0525-.255-.1425l-1.62-2.595zm-3.72,1.425L9.84,13.5h4.32l-1.89,2.8125c-.09-.0225-.18-.0375-.27-.0375s-.18.015-.27.0375zM8.865,14.37c.8625.645,1.4025,1.6275,1.4775,2.6925h.705c.03-.15.09-.2925.1875-.4125L9.27,13.725l-.405.645zm-.315.5175c.6825.525,1.1175,1.3125,1.1925,2.175h-2.55l1.3575-2.175zM3.6,17.325c0,1.695,1.38,3.075,3.075,3.075,1.5675,0,2.8875-1.1775,3.06-2.7375H7.17c-.1125.165-.3.2625-.495.2625-.33,0-.6-.27-.6-.6s.27-.6.6-.6h.0225l1.3425-2.16c-.4275-.21-.8925-.315-1.365-.315-1.695,0-3.075,1.38-3.075,3.075z" fill="#fff"/><path fill-rule="evenodd" clip-rule="evenodd" d="m3,6.375C3,4.5075,4.5075,3,6.375,3S9.75,4.5075,9.75,6.375,8.2425,9.75,6.375,9.75,3,8.2425,3,6.375zm4.17-1.08c0,.3825.315.6975.6975.6975s.6975-.315.705-.7125c0-.3825-.315-.6975-.6975-.6975-.615,0-1.005.465-1.2075.7575v-.705h-1.725c-.0825,0-.1425.0675-.1425.1425,0,.0825.0675.1425.1425.1425h.4425v3.06h-.4425c-.0825,0-.1425.0675-.1425.1425,0,.0825.0675.1425.1425.1425H7.095c.0825,0,.1425-.0675.1425-.1425,0-.0825-.0675-.1425-.1425-.1425H6.66V6.2775c0-.465.21-.9075.5175-1.0875-.0075.0375-.0075.0675-.0075.105z" fill="#fff"/></svg>