<svg width="24" height="24" xmlns="http://www.w3.org/2000/svg"><path fill-rule="evenodd" clip-rule="evenodd" d="m22.5,0h-21C.675,0,0,.675,0,1.5v21c0,.825.675,1.5,1.5,1.5h21c.825,0,1.5-.675,1.5-1.5v-21c0-.825-.675-1.5-1.5-1.5z" fill="#2d327d"/><path fill-rule="evenodd" clip-rule="evenodd" d="m5.2875,14.1751C3.915,14.6926,3,16.0051,3,17.4751c0,1.9425,1.5825,3.525,3.525,3.525,1.455,0,2.76-.8925,3.285-2.25h2.265c.4125,0,.75-.3375.75-.75v-.93l2.0025-2.955.4125.6375c-.8175.6675-1.2825,1.665-1.2825,2.7225,0,1.9425,1.5825,3.525,3.525,3.525s3.525-1.5825,3.525-3.525-1.5825-3.525-3.525-3.525c-.5325,0-1.065.12-1.545.36l-.5175-.8025h.675l.66-.975c.0375-.0525.06-.12.06-.1875,0-.1875-.15-.3375-.3375-.3375H14.625l-3.3,4.875h-.75l-2.025-3H5.5125c-.1275,0-.225.0975-.225.225v.0675zm9.6,3.3c0-.735.315-1.4325.8625-1.9275l1.38,2.145c.075.12.21.1875.345.1875.225,0,.4125-.1875.4125-.4125,0-.075-.0225-.1575-.0675-.225l-1.38-2.145c.3225-.1425.675-.2175,1.035-.2175,1.425,0,2.5875,1.1625,2.5875,2.5875,0,1.4325-1.1625,2.5875-2.5875,2.5875-1.425.0075-2.5875-1.1475-2.5875-2.58zm-10.95,0c0,1.425,1.155,2.5875,2.5875,2.5875.93,0,1.7925-.5025,2.25-1.3125H6c-.4125,0-.75-.3375-.75-.75v-2.775c-.81.4575-1.3125,1.32-1.3125,2.25z" fill="#fff"/><path fill-rule="evenodd" clip-rule="evenodd" d="m8.8125,13.5H5.25v-.75c0-.165.135-.3.3-.3h3.4125c.165,0,.3.135.3.3,0,.06-.0225.12-.0525.1725l-.3975.5775z" fill="#fff"/><path fill-rule="evenodd" clip-rule="evenodd" d="m16.725,11.5875h-2.6625v-.675h2.6625c.1875,0,.3375.15.3375.3375s-.15.3375-.3375.3375z" fill="#fff"/><path fill-rule="evenodd" clip-rule="evenodd" d="m4.815,3H3v4.5h.9825V5.88H4.98c.255,0,.4725-.0225.6525-.075s.3375-.135.4725-.2475c.3225-.27.4875-.6375.4875-1.11,0-.525-.195-.9225-.585-1.185-.135-.0975-.3-.165-.4725-.2025S5.1225,3,4.815,3zm-.8325,2.1075v-1.275L4.8,3.84c.27,0,.465.0375.585.12.165.105.2475.2775.2475.5025s-.0675.3975-.21.51c-.1125.09-.3.135-.5625.135h-.8775z" fill="#fff"/></svg>