<svg width="24" height="24" xmlns="http://www.w3.org/2000/svg"><path fill-rule="evenodd" clip-rule="evenodd" d="m22.5,0h-21C.675,0,0,.675,0,1.5v21c0,.825.675,1.5,1.5,1.5h21c.825,0,1.5-.675,1.5-1.5v-21c0-.825-.675-1.5-1.5-1.5z" fill="#2d327d"/><path fill-rule="evenodd" clip-rule="evenodd" d="m10.7176,9.7575V11.76H6.18756l-.4875,2.5275c.54-.5775,1.2375-.8625,2.085-.8625.8325,0,1.5525.225,2.1675.6675.91504.675,1.37254,1.695,1.37254,3.06,0,1.3425-.4875,2.4075-1.46254,3.195-.7575.615-1.665.9225-2.7225.9225-1.1925,0-2.145-.3225-2.865-.96s-1.1025-1.5-1.1475-2.5875h2.205c.0375.3975.165.7275.3825,1.005.345.435.8175.6525,1.4325.6525.5925,0,1.0575-.21,1.4025-.6375.33-.4125.5025-.9225.5025-1.515,0-.645-.1725-1.1625-.525-1.5525-.345-.39-.81-.5775-1.395-.5775-.705,0-1.26.315-1.65.9525l-2.01-.03,1.0725-6.27,6.17254.0075z" fill="#fff"/><path fill-rule="evenodd" clip-rule="evenodd" d="m19.0801,10.275c-.645-.525-1.4025-.78749-2.2575-.78749-.675,0-1.29.15749-1.86.48749-.555.315-1.005.765-1.35,1.35-.6075,1.02-.9075,2.3775-.9075,4.0725,0,2.385.585,4.065,1.74,5.0475.6525.555,1.44.8325,2.355.8325.675,0,1.2825-.165,1.83-.495s.99-.795,1.3275-1.4025c.5775-1.0425.8625-2.37.8625-3.9825,0-.975-.1125-1.875-.33-2.7075-.2925-1.0875-.765-1.89-1.41-2.415zm-3.8475,2.385c.27-.8475.7725-1.275,1.5075-1.275.7575,0,1.275.4275,1.5525,1.275.2175.66.3225,1.5675.3225,2.715,0,1.35-.15,2.355-.45,3.0075-.3075.6525-.765.9825-1.3875.9825-.75,0-1.26-.42-1.5375-1.2675-.2175-.6525-.3225-1.515-.3225-2.595,0-1.215.105-2.1675.315-2.8425z" fill="#fff"/><path fill-rule="evenodd" clip-rule="evenodd" d="m5.03255,3-.75,2.25h-.555L2.99255,3h.51l.5025,1.68751L4.51505,3h.5175z" fill="#fff"/><path fill-rule="evenodd" clip-rule="evenodd" d="m6.47251,3.765c-.1575-.1575-.3525-.24-.6-.24-.27,0-.4875.09-.645.2625-.1425.165-.2175.3675-.2175.6225s.075.465.225.63c.15.17251.36.255.6225.255.2475,0,.45-.08249.6-.23249.165-.16501.2475-.38251.2475-.66001,0-.2625-.0825-.48-.2325-.6375zm-.9075.24751c.075-.09751.165-.14251.285-.14251.1275,0,.2325.0525.2925.15.0675.09.105.225.105.39,0,.18-.0375.315-.1125.4125-.0675.0825-.165.1275-.2775.1275-.12,0-.2175-.0525-.2925-.1425-.0675-.09-.105-.225-.105-.3975,0-.17249.0375-.3.105-.39749z" fill="#fff"/><path fill-rule="evenodd" clip-rule="evenodd" d="m7.4475,3.405V3H7.005v.405h.4425zm0,1.845V3.57H7.005v1.68h.4425z" fill="#fff"/><path fill-rule="evenodd" clip-rule="evenodd" d="m9.1951,4.98751c.06-.08251.105-.16501.1275-.26251h-.435c-.03.075-.075.135-.1275.1725s-.12.0525-.2025.0525c-.1725,0-.285-.0675-.345-.2175-.0225-.0525-.03-.12-.0375-.2025h1.1775c0-.2025-.015-.3675-.0675-.495s-.12-.24-.225-.33c-.1425-.1275-.315-.1875-.5175-.1875-.2475,0-.45.09-.6075.2775-.1425.165-.21.36751-.21.615,0,.12.015.2475.06.36.045.105.0975.2025.1725.2775.15.1575.3525.24001.6.24001.2775,0,.4875-.09751.6375-.3zm-.30073-.76501c.00026.00249.0005.00499.00073.0075v-.0075h-.00073zm0,0c-.00814-.0791-.02996-.1441-.05177-.195-.03-.0525-.0675-.0975-.12-.1275s-.1125-.045-.1725-.045c-.0975,0-.18.03-.2475.0975s-.105.1575-.1125.27h.70427z" fill="#fff"/></svg>