<svg width="24" height="24" xmlns="http://www.w3.org/2000/svg"><path fill-rule="evenodd" clip-rule="evenodd" d="m5,7v2H4v1h1v2H4v1h1v1.9995H4v1h1v2H4v1h1V21h1v-1.8914l9.4179-14.33404-.8357-.54912L13.4162,6h-.4167v.63422L11.4451,9H11V7h1V6h-1V4h-1v2H7v1h3v2H7v1h3v1.1995l-.52243.7951H7v1h1.82054l-1.31407,2h-.50653v.771L6,17.2875V4H5v2H4v1h1zm6,12.6019v1.3976h-1v-2H8v-1h2.9037l1.4053-2H10v-1h3.0117L14.4166,13H12v-1h3.1192l1.4053-2H14V9h3.2271l1.4053-2H16V6h3.335l1.256-1.78745.8182.5749L20.5572,6H21v1h-1.1454l-1.4053,2H19v1h-1.2533l-1.4053,2H17v1h-1.3612l-1.405,1.9995H15v1h-1.4688l-1.4053,2H13v1h-1.5767L11,19.6019z"/></svg>