<svg width="26" height="16" xmlns="http://www.w3.org/2000/svg"><path fill-rule="evenodd" clip-rule="evenodd" d="m23.728,13.709H2.273V2.296h21.455v11.413zM25,15H1V1h24v14zm-7.5-7.5h-9v-1h9v1zm0,2.5h-9V9h9v1zM13,12.5l5.786-.692V4.885L13,3.5,7.214,4.885v.0433l-.2457.00055-.34985.00683c-1.56813.05673-2.47505.60916-2.47505,2.10062,0,1.85086,1.41258,4.0346,3.0706,4.035v.7367L13,12.5zm-5.786-2.4287v-4.143l-.45875.00363-.10065.0031c-1.1002.0398-1.5112.29015-1.5112,1.10127,0,1.31382.99799,2.90709,1.95626,3.0277l.11434.0073zm11.5721-5.143.2461.00055.3498.00683c1.5682.05673,2.4751.60916,2.4751,2.10062,0,1.7913-1.3231,3.8944-2.9113,4.0283l-.1597.0067v-1c.9916,0,2.071-1.66863,2.071-3.035,0-.76605-.3666-1.03192-1.3342-1.09263l-.2777-.01174-.2241-.00312-.235-.00051v-1z"/></svg>