<svg width="36" height="36" xmlns="http://www.w3.org/2000/svg"><path fill-rule="evenodd" clip-rule="evenodd" d="m14.3254,3.25h-.2071l-.1465.14645-1.575,1.575-.1464.14644V27.8821l.1464.1465,1.575,1.575.1465.1464H16.75V33h1v-3.25h.5V33h1v-3.25h2.6325l1.8679-1.8679V5.11789l-.1465-.14644-1.575-1.575L21.8825,3.25h-7.5571zm-1.075,2.28211L14.5325,4.25h6.9358l1.2821,1.28211V27.4679L21.4683,28.75h-6.9358l-1.2821-1.2821V5.53211zM18,7.25c-.9661,0-1.75.78286-1.75,1.75s.7839,1.75,1.75,1.75c.9674,0,1.75-.78264,1.75-1.75S18.9674,7.25,18,7.25zM15.25,9c0-1.51986,1.2321-2.75,2.75-2.75,1.5196,0,2.75,1.23036,2.75,2.75,0,1.5196-1.2304,2.75-2.75,2.75-1.5179,0-2.75-1.2301-2.75-2.75zM18,13.75c-1.5179,0-2.75,1.2301-2.75,2.75s1.2321,2.75,2.75,2.75c1.5196,0,2.75-1.2304,2.75-2.75s-1.2304-2.75-2.75-2.75zm0,8.5c-.9659,0-1.75.7841-1.75,1.75s.7841,1.75,1.75,1.75c.9671,0,1.75-.7839,1.75-1.75s-.7829-1.75-1.75-1.75zM15.25,24c0-1.5181,1.2319-2.75,2.75-2.75,1.5199,0,2.75,1.2321,2.75,2.75s-1.2301,2.75-2.75,2.75c-1.5181,0-2.75-1.2319-2.75-2.75zm10.25-6.25h3v-1h-3v1zm-15,0h-3v-1h3v1zm-6,0H6v-1H4.5v1zm4.85355,3.6036-3,3-.7071-.7072,3-3,.7071.7072zm21.00005,2.2928-3-3-.7072.7072,3,3,.7072-.7072zm-24.00005-13.5,3,3-.7071.7072-3-3,.7071-.7072zM31.5,17.75H30v-1h1.5v1zm-4.1464-3.8964,3-3-.7072-.7072-3,3,.7072.7072z"/></svg>