<svg width="24" height="24" xmlns="http://www.w3.org/2000/svg"><path fill-rule="evenodd" clip-rule="evenodd" d="m22.5,0h-21C.675,0,0,.675,0,1.5v21c0,.825.675,1.5,1.5,1.5h21c.825,0,1.5-.675,1.5-1.5v-21c0-.825-.675-1.5-1.5-1.5z" fill="#2d327d"/><path fill-rule="evenodd" clip-rule="evenodd" d="m2.24243,19.2299L11.1524,3.80241c.18-.3.48-.5175.8475-.5175.36,0,.6675.225.8475.5175l8.9025,15.43499c.1725.3075.21.675.03.99-.18.3075-.5325.465-.8775.4725H3.08993c-.3525-.0075-.69-.1575-.87-.4725-.18-.3075-.1425-.69.0225-.9975z" fill="#fff"/><path fill-rule="evenodd" clip-rule="evenodd" d="m11.1524,3.80241c.18-.3.4725-.5175.8475-.5175.36,0,.6675.225.8475.5175l8.895,15.42749c.1725.3075.21.6675.03.99-.18.3075-.5325.465-.8775.4725H3.08244c-.3525-.0075-.6825-.15-.87-.4725-.18-.3075-.13499-.69.03-.99L11.1524,3.80241zm9.3675,15.69749-8.52-14.75999L3.47244,19.4999H20.5199z" fill="#eb0000"/><path fill-rule="evenodd" clip-rule="evenodd" d="m8.59492,14.4824v1.1025c0,.0675-.0525.1125-.1125.1125-.0675,0-.1125-.0525-.1125-.1125v-.9375h-.105v2.5125c0,.09-.075.165-.165.165s-.165-.075-.165-.165v-1.4625h-.105v1.4625c0,.09-.075.165-.165.165s-.165-.075-.165-.165v-2.5125h-.105v.9375c0,.0675-.0525.1125-.1125.1125-.0675,0-.1125-.0525-.1125-.1125v-1.1025c0-.18.1425-.3225.3225-.3225h.7875c.165,0,.315.1425.315.3225z"/><path fill-rule="evenodd" clip-rule="evenodd" d="m7.55995,13.7474c0-.18.1425-.3225.3225-.3225s.3225.1425.3225.3225-.1425.3225-.3225.3225c-.18.0075-.3225-.1425-.3225-.3225z"/><path fill-rule="evenodd" clip-rule="evenodd" d="m9,17.625h2.25v1.5h-.375V18H9v-.375z" fill="#eb0000"/><path d="m5.625,17.625V18H9v-.375z"/><path fill-rule="evenodd" clip-rule="evenodd" d="m11.25,11.9999v.1575l-.1575-.1575h.1575z" fill="#eb0000"/><path fill-rule="evenodd" clip-rule="evenodd" d="m10.7474,11.9998.5025.5025v.1575l-.66-.66h.1575z" fill="#eb0000"/><path fill-rule="evenodd" clip-rule="evenodd" d="m10.2525,11.9998.9975.9975v.165l-1.1625-1.1625h.165z" fill="#eb0000"/><path fill-rule="evenodd" clip-rule="evenodd" d="m9.24747,11.9998L11.25,14.0023v.1575l-2.16003-2.16h.1575z" fill="#eb0000"/><path fill-rule="evenodd" clip-rule="evenodd" d="m9,12.2473,2.25,2.25v.165L9,12.4123v-.165z" fill="#eb0000"/><path fill-rule="evenodd" clip-rule="evenodd" d="m9,12.7498,2.25,2.25v.1575L9,12.9073v-.1575z" fill="#eb0000"/><path fill-rule="evenodd" clip-rule="evenodd" d="m9,13.2524,2.25,2.25v.1575L9,13.4099v-.1575z" fill="#eb0000"/><path fill-rule="evenodd" clip-rule="evenodd" d="m9,13.7473,2.25,2.25v.165L9,13.9123v-.165z" fill="#eb0000"/><path fill-rule="evenodd" clip-rule="evenodd" d="m9,14.2498,2.25,2.25v.1575L9,14.4073v-.1575z" fill="#eb0000"/><path fill-rule="evenodd" clip-rule="evenodd" d="m9,14.7524,2.25,2.25v.1575L9,14.9099v-.1575z" fill="#eb0000"/><path fill-rule="evenodd" clip-rule="evenodd" d="m9,15.2473,2.0025,2.0025h-.165L9,15.4123v-.165z" fill="#eb0000"/><path fill-rule="evenodd" clip-rule="evenodd" d="m9,15.7498,1.5,1.5h-.1575L9,15.9073v-.1575z" fill="#eb0000"/><path fill-rule="evenodd" clip-rule="evenodd" d="m9.00003,16.2525.9975.9975h-.1575l-.84-.84v-.1575z" fill="#eb0000"/><path fill-rule="evenodd" clip-rule="evenodd" d="m8.99997,16.7473.5025.5025h-.165l-.3375-.3375v-.165z" fill="#eb0000"/><path fill-rule="evenodd" clip-rule="evenodd" d="m9.75003,11.9998,1.49997,1.5v.1575l-1.65747-1.6575h.1575z" fill="#eb0000"/><path d="m12.375,18.5249v.6h.375v-.6zm2.625,0v.6h.375v-.6z"/><path fill-rule="evenodd" clip-rule="evenodd" d="m11.625,12.9v4.575c0,.0825.03.21.0675.285l.24.48c.0375.075.135.135.2175.135h3.45c.0825,0,.18-.06.2175-.135l.24-.48c.0375-.075.0675-.2025.0675-.285V12.9c0-.0825-.045-.195-.105-.255l-.54-.54c-.06-.06-.1725-.105-.255-.105h-2.7c-.0825,0-.195.045-.255.105l-.54.54c-.06.06-.105.1725-.105.255zm2.625-.15h-.75v-.3h.75v.3zm1.5,3.45H15v.3h.75v-.3zm-3.75,0h.75v.3H12v-.3zm3.75-3.075H12V15h3.75v-1.875z"/><path fill-rule="evenodd" clip-rule="evenodd" d="m12.885,10.875h1.9875c.075,0,.135.06.135.135s-.06.135-.135.135H14.01v.7125h-.2625v-.7125h-.8625c-.075,0-.135-.06-.135-.135s.06-.135.135-.135z"/></svg>