<svg width="16" height="16" xmlns="http://www.w3.org/2000/svg"><rect width="16" height="16" rx="2" fill="#eb0000"/><path fill-rule="evenodd" clip-rule="evenodd" d="m8.5591,10.646c-.228.061-.462.104-.709.104-.277,0-.539-.053-.791-.13-1.129-.342-1.959-1.38-1.959-2.62,0-1.239.83-2.278,1.959-2.62.252-.076.514-.13.791-.13.247,0,.481.043.709.105,1.172.315,2.041,1.375,2.041,2.645s-.869,2.331-2.041,2.646zm0-6.824V0h-1.5v3.83c-1.966.373-3.459,2.098-3.459,4.17,0,2.073,1.493,3.798,3.459,4.17V16h1.5v-3.821c2.006-.34,3.541-2.078,3.541-4.179,0-2.1-1.535-3.838-3.541-4.178z" fill="#fff"/></svg>