<svg width="48" height="48" viewBox="0,0,48,48" xmlns="http://www.w3.org/2000/svg"><path fill-rule="evenodd" clip-rule="evenodd" d="m8,12.5c0-.8279.67214-1.5,1.5-1.5.8279,0,1.5.6721,1.5,1.5S10.3279,14,9.5,14c-.82786,0-1.5-.6721-1.5-1.5zM9.5,10C8.11986,10,7,11.1199,7,12.5S8.11986,15,9.5,15c1.3801,0,2.5-1.1199,2.5-2.5S10.8801,10,9.5,10zm17.001,15h-.4475l-.0495.4448-1,9,.9939.1104.1727-1.5542h.8304v6.998h1v-6.998h3.001v6.998h1v-6.998h.8293l.1727,1.5542.9939-.1104-1-9L32.9485,25H26.501zm6.2192,7.001L32.0535,26h-5.105l-.6668,6.001h6.4385zM7,28.001v11.998h1V28.001h3.0005v11.998h1V28.001H13V29.5h1V17H5v12.5h1v-1.499h1zm6-1V18H6v9.001h7zm16.501-8.0005c-.8279,0-1.5.6721-1.5,1.5,0,.8278.6721,1.5,1.5,1.5.8278,0,1.5-.6722,1.5-1.5,0-.8279-.6722-1.5-1.5-1.5zM27.001,20.5005c0-1.3802,1.1198-2.5,2.5-2.5,1.3801,0,2.5,1.1198,2.5,2.5,0,1.3801-1.1199,2.5-2.5,2.5-1.3802,0-2.5-1.1199-2.5-2.5zM36.0544,25h6.8951l.0494.4448,1,9-.9939.1104-.1727-1.5542h-.8303v6.998h-1v-6.998h-3v6.998h-1v-6.998h-.8304l-.1727,1.5542-.9939-.1104,1-9L36.0544,25zm6,1,.6668,6.001h-6.4385L36.9495,26h5.1049zm-4.0524-5.4995c0-.8279.6721-1.5,1.5-1.5.8278,0,1.5.6721,1.5,1.5,0,.8278-.6722,1.5-1.5,1.5-.8279,0-1.5-.6722-1.5-1.5zm1.5-2.5c-1.3802,0-2.5,1.1198-2.5,2.5,0,1.3801,1.1198,2.5,2.5,2.5,1.3801,0,2.5-1.1199,2.5-2.5,0-1.3802-1.1199-2.5-2.5-2.5zM16.501,25h-.4475l-.0495.4448-1,9,.9939.1104.1727-1.5542h.8304v6.998h1v-6.998h3v6.998h1v-6.998h.8302l.1728,1.5543.9939-.1106-1.001-9L22.9474,25H16.501zm6.2189,7.001L22.0525,26h-5.104l-.6668,6.001h6.4382zM19.5005,19.0005c-.8279,0-1.5.6721-1.5,1.5,0,.8278.6721,1.5,1.5,1.5.8278,0,1.5-.6722,1.5-1.5,0-.8279-.6722-1.5-1.5-1.5zM17.0005,20.5005c0-1.3802,1.1198-2.5,2.5-2.5,1.3801,0,2.5,1.1198,2.5,2.5,0,1.3801-1.1199,2.5-2.5,2.5-1.3802,0-2.5-1.1199-2.5-2.5z"/></svg>