<svg width="36" height="36" viewBox="0,0,36,36" xmlns="http://www.w3.org/2000/svg"><path fill-rule="evenodd" clip-rule="evenodd" d="m12.932,3.24902h4.6856l.1096.35087L21.3676,15.249H30c.8683,0,1.572.2958,2.0553.8206.477.5181.6947,1.2106.6947,1.9294,0,.7195-.2176,1.4122-.6947,1.9304-.4833.5249-1.1871.8204-2.0553.8204h-.0001l-8.6323-.0007-3.6404,11.6491-.1096.3508h-4.684l.0702-.562,1.4298-11.435H9.30899l-1.36181,2.7236-.13819.2764H3.74187l.29849-.6968,2.16565-5.0561L4.0404,12.946l-.2987-.697h4.06729l.13819.2764,1.36181,2.7236h5.12451L13.0023,3.8111l-.0703-.56208zm1.1329,1,1.4312,11.43788.0703.5621H8.69095l-1.5-3H5.25824l1.9513,4.5531.08439.1969-.08435.1969L5.25807,22.752h1.93288l1.5-3h6.87545l-.0703.5621L14.0664,31.749h2.816l3.6403-11.6491.1097-.3509H21l9,.0008c.6318-.0001,1.053-.2082,1.3197-.4978.2728-.2963.4303-.7289.4303-1.253,0-.5232-.1574-.9556-.4303-1.252-.2668-.2897-.6881-.498-1.3197-.498h-9.3676l-.1097-.3508L16.8824,4.24902h-2.8175z"/></svg>