<svg width="36" height="36" viewBox="0,0,36,36" xmlns="http://www.w3.org/2000/svg"><path fill-rule="evenodd" clip-rule="evenodd" d="m5.60359,10.1031,4.50001-4.5-.70712-.7071-4.5,4.5.70711.7071zm1.64645,7.8965C7.25004,12.0627,12.0632,7.24955,18,7.24955c5.9384,0,10.75,4.81305,10.75,10.75005,0,5.9383-4.8116,10.75-10.75,10.75-5.9369,0-10.74996-4.8117-10.74996-10.75zM18,6.24955c-6.4891,0-11.74996,5.26085-11.74996,11.75005,0,6.4906,5.26086,11.75,11.74996,11.75,6.4907,0,11.75-5.2594,11.75-11.75,0-6.4891-5.2593-11.75005-11.75-11.75005zm12.3965,3.85355-4.5-4.5.7071-.7071,4.5,4.5-.7071.7071zM16.75,10.5v8.7496h8.75v-1h-7.75V10.5h-1z"/></svg>