<svg width="36" height="36" viewBox="0,0,36,36" xmlns="http://www.w3.org/2000/svg"><path fill-rule="evenodd" clip-rule="evenodd" d="m21.7492,3.3999.3904.48807,2.2498,2.81234H31.25V25.367l-.1.1333-4.65,6.2H4.75V13.0336l.1-.1333,4.5-5.99999.15-.2h6.3094l1.0499-1.31235.3905-.48805.3904.48805,1.2593,1.57409,2.4592-3.07409.3905-.48806zm5.7938,7.2427-2.3537-2.94229h4.5605L27.543,10.6426zm-.6196.8262-5.1742-6.46809-2.2094,2.76173,3.9503,4.93786h2.5097l.9236-1.2315zm-1.1736,2.2315H5.75v17h19.9998v-17zm1,16.0003,3.5002-4.667V8.69998L26.7498,13.367v16.3336zm-4.5404-17.0003-4.9596-6.1996-4.9597,6.1996h9.9193zM11.0094,12.7003l4-4.99999H10L6.25,12.7003h4.7594zm.9904,5.5h7.5v-1h-7.5v1z"/></svg>