<svg width="24" height="24" viewBox="0,0,24,24" xmlns="http://www.w3.org/2000/svg"><path fill-rule="evenodd" clip-rule="evenodd" d="m6.43934,3.43934C6.72064,3.15804,7.10218,3,7.5,3h9c.3978,0,.7794.15804,1.0607.43934S18,4.10218,18,4.5v4.55487c-.2525.05479-.4961.14862-.7217.27907-.3799.21977-.6954.53571-.9145.91606-.219.3802-.3341.8113-.3338,1.25H16V13H8v-1.5c.00034-.4387-.11478-.8698-.33382-1.25-.21913-.38035-.53454-.69629-.91452-.91606C6.5172,9.19833,6.26325,9.10229,6,9.04856V4.5c0-.39782.15804-.77936.43934-1.06066zM7.40558,11.5,7,11.4996c.00027-.2634-.06881-.5222-.20029-.7504s-.32073-.4178-.54871-.5496c-.22798-.1319-.48667-.20138-.75004-.20155s-.52214.06905-.75029.20055c-.22816.1316-.41765.3209-.54942.5489-.13177.2281-.20118.4868-.20125.7502-.00007.2633.06921.5221.20087.7502.13165.2281.32104.4175.54913.5492l.25.1443v3.5887c0,.3978.15803.7794.43934,1.0607.2813.2813.66283.4393,1.06066.4393h11.03c.3978,0,.7794-.158,1.0607-.4393s.4393-.6629.4393-1.0607v-3.5887l.25-.1443c.2281-.1317.4175-.3211.5491-.5492.1317-.2281.201-.4869.2009-.7502-.0001-.2634-.0695-.5221-.2013-.7502-.1317-.228-.3212-.4173-.5494-.5489-.2281-.1315-.4869-.20072-.7503-.20055-.2633.00017-.522.06965-.75.20155-.228.1318-.4172.3214-.5487.5496s-.2006.487-.2003.7504l-.4056.0004H17v3c0,.3978-.158.7794-.4393,1.0607S15.8978,16,15.5,16h-7c-.39783,0-.77936-.158-1.06066-.4393S7,14.8978,7,14.5v-3h.40558zM8,14v.5c0,.1326.05268.2598.14645.3536.09377.0937.22094.1464.35355.1464h7c.1326,0,.2598-.0527.3536-.1464.0937-.0938.1464-.221.1464-.3536V14H8zm11-9.5v4.54262c.2729.05224.5363.14982.7789.28972.3802.21928.6961.53481.9157.91486.2196.3801.3353.8113.3354,1.2502.0001.439-.1154.8702-.3348,1.2504-.1693.2933-.3959.5483-.6652.7502v3.0321c0,.663-.2634,1.2989-.7322,1.7678-.0931.093-.1927.1779-.2977.2543v2.0156c.0016.188-.0341.3746-.1051.5487-.0714.1751-.1771.3342-.3108.4679s-.2928.2393-.4679.3107c-.1741.0711-.3606.1068-.5487.1051h-.1351c-.1881.0017-.3746-.034-.5487-.1051-.1751-.0714-.3342-.177-.4679-.3107s-.2394-.2928-.3108-.4679c-.071-.1741-.1067-.3607-.105-.5487v-1.5377H8.00005v1.5377c.00166.188-.03406.3746-.10508.5487-.07141.1751-.17706.3342-.31077.4679-.1337.1337-.29277.2393-.46786.3107-.17416.0711-.36068.1068-.54873.1051H6.4325c-.18805.0017-.37458-.034-.54873-.1051-.17509-.0714-.33416-.177-.46786-.3107-.13371-.1337-.23936-.2928-.31077-.4679-.07102-.1741-.10674-.3607-.10509-.5487v-2.0376c-.09411-.0706-.18366-.1482-.26782-.2323C4.26339,17.829,4,17.1931,4,16.5301V13.498c-.26931-.2019-.49591-.4569-.66522-.7502-.21943-.3802-.33489-.8114-.33478-1.2504.00011-.4389.1158-.8701.33542-1.2502.21962-.38004.53544-.69558.91569-.91486.23371-.13477.4867-.23026.74889-.28378V4.5c0-.66304.26339-1.29893.73223-1.76777S6.83696,2,7.5,2h9c.663,0,1.2989.26339,1.7678.73223C18.7366,3.20107,19,3.83696,19,4.5zm-1.47,14.5301c.1589,0,.3162-.0151.4701-.0446v1.5847H18l.0001.0055c.0006.0559-.01.1114-.0311.1632s-.0524.0988-.0919.1384c-.0396.0395-.0866.0708-.1384.0919s-.1073.0317-.1632.0311v-.0001h-.1454l-.0055.0001c-.0559.0006-.1114-.01-.1632-.0311s-.0988-.0524-.1384-.0919c-.0395-.0396-.0708-.0866-.0919-.1384s-.0317-.1073-.0311-.1632h.0001v-1.5456h.5299zm-11.03,0h.50005v1.5401h-.00003l.00006.0055c.00062.0559-.00995.1114-.03107.1632s-.05237.0988-.09192.1384c-.03954.0395-.08659.0708-.13838.0919-.05178.0211-.10726.0317-.16319.0311v-.0001h-.14547l-.00546.0001c-.05593.0006-.11141-.01-.16319-.0311-.05179-.0211-.09884-.0524-.13838-.0919-.03955-.0396-.0708-.0866-.09192-.1384s-.03169-.1073-.03107-.1632h.00002v-1.5961c.16333.0333.33076.0505.49995.0505z"/></svg>