<svg width="36" height="36" viewBox="0,0,36,36" xmlns="http://www.w3.org/2000/svg"><path fill-rule="evenodd" clip-rule="evenodd" d="m3.25,18C3.25,9.8538,9.8538,3.25,18,3.25S32.75,9.8538,32.75,18c0,6.0205-3.6146,11.4446-8.8048,13.75H28.5v1h-5.75V27h1v3.7402c4.7129-2.1958,8-7.1931,8-12.7402,0-7.5939-6.1561-13.75-13.75-13.75S4.25,10.4061,4.25,18,10.4061,31.75,18,31.75v1C9.8538,32.75,3.25,26.1462,3.25,18zm16.4425-7.1339-.3874-.3233-.3198.3904-.9356,1.1424-3.5213.9079-.59-.3021-.2684-.1374-.2468.1733-2.505,1.7591-.8196.5756.9526.3091.3768.1223-2.43152,2.5501-.08452.0887-.03398.1176-1.10835,3.838-.2385.8259.83578-.201,2.19609-.5281.0656-.0158.059-.0326.6572-.3625,2.0316,1.8395.1659.1502.2226-.0237,3.2396-.3446.1788-.019.1258-.1286,1.4638-1.4972,1.8592,2.4311.4872.637.3576-.7178,1.4352-2.8818,3.3715.8333.704.174-.0877-.7199-.1669-1.3699,1.0049.0243.5389.013-.0274-.5384-.1619-3.1732-.0122-.2395-.1945-.1404-1.3781-.9951-.4553-.3288-.2739.4903-.2551.4567-.9293-.2653.5025-1.416.1654-.4661-.4643-.1705-3.7332-1.3705-1.367-1.1407zm-7.1998,3.9115-.1801-.0584,1.4385-1.0102.4906.2511.1689.0865.1838-.0474,3.8633-.9961.1583-.0409.1037-.1265.7195-.8785,1.0462.873.0666.0555.0814.0299,3.3504,1.23-.5152,1.4517-.1781.5018.512.1462,1.822.5202.3807.1087.1931-.3456.1743-.3121.7284.526.1222,2.3953-1.0444-.0252-.5784-.014.07.5743.1491,1.2244-3.0564-.7554-.3889-.0961-.1786.3586-1.2563,2.5225-1.7229-2.2528-.3509-.4588-.4038.413-1.7419,1.7815-2.8381.3019-2.1303-1.9289-.2646-.2396-.3126.1724-.9106.5024-1.29473.3114.83587-2.8944,2.89546-3.0367.5485-.5753-.756-.2454z"/></svg>