<svg width="24" height="24" xmlns="http://www.w3.org/2000/svg"><path fill-rule="evenodd" clip-rule="evenodd" d="m22.5,0h-21C.675,0,0,.675,0,1.5v21c0,.825.675,1.5,1.5,1.5h21c.825,0,1.5-.675,1.5-1.5v-21c0-.825-.675-1.5-1.5-1.5z" fill="#2d327d"/><path fill-rule="evenodd" clip-rule="evenodd" d="m12.2325,5.62501v-2.2275l.9225,1.005v-.675L12,2.57251l-1.155,1.155v.675l.9225-1.005v2.2275h.465z" fill="#fff"/><path fill-rule="evenodd" clip-rule="evenodd" d="m11.7675,18.375v2.2275l-.9225-1.005v.675L12,21.4275l1.155-1.155v-.675l-.9225,1.005V18.375h-.465z" fill="#fff"/><path fill-rule="evenodd" clip-rule="evenodd" d="m6.07501,6.07495H17.925V17.925H6.07501V6.07495zm.75,11.10005H17.175V6.82495H6.82501V17.175z" fill="#fff"/><path fill-rule="evenodd" clip-rule="evenodd" d="m18.75,3H21v18h-2.25V3z" fill="#fff"/><path fill-rule="evenodd" clip-rule="evenodd" d="m3,3h2.25v18H3V3z" fill="#fff"/><path fill-rule="evenodd" clip-rule="evenodd" d="m10.335,9.01495c.435,0,.78-.35249.78-.77999,0-.435-.3525-.78-.78-.78-.43501,0-.78001.3525-.78001.78s.345.77999.78001.77999z" fill="#fff"/><path fill-rule="evenodd" clip-rule="evenodd" d="m8.87252,13.005c.165,0,.2925-.135.2925-.2925V10.47h.195v6.015c0,.2175.1725.39.39.39s.38998-.1725.38998-.39v-3.48h.2925v3.48c0,.2175.1725.39.39.39s.39-.1725.39-.39V10.47h.195v2.2425c0,.165.135.2925.2925.2925s.2925-.135.2925-.2925v-2.64c0-.43502-.3525-.78002-.78-.78002H9.36002c-.435,0-.78.3525-.78.78002v2.64c0,.165.135.2925.2925.2925z" fill="#fff"/></svg>