<svg width="24" height="24" viewBox="0,0,24,24" xmlns="http://www.w3.org/2000/svg"><path fill-rule="evenodd" clip-rule="evenodd" d="m22.5,0h-21C.675,0,0,.675,0,1.5v21c0,.825.675,1.5,1.5,1.5h21c.825,0,1.5-.675,1.5-1.5v-21c0-.825-.675-1.5-1.5-1.5z" fill="#2d327d"/><path fill-rule="evenodd" clip-rule="evenodd" d="m6.2475,5.625c-.7275,0-1.3125-.585-1.3125-1.3125S5.52,3,6.2475,3,7.56,3.585,7.56,4.3125,6.9675,5.625,6.2475,5.625z" fill="#fff"/><path fill-rule="evenodd" clip-rule="evenodd" d="m21,21H6.67499v-.66L21,18v3z" fill="#fff"/><path fill-rule="evenodd" clip-rule="evenodd" d="m4.94998,16.2074V8.51244l-.825,1.05v2.81246c0,.27-.2175.4875-.4875.4875s-.4875-.2175-.4875-.4875V9.17994c0-.165.0525-.33.1575-.465l1.5825-2.0175c.285-.36.72-.57,1.1775-.57.825,0,1.5.675,1.5,1.5v5.04746l1.545,1.545c.1425.1425.2175.33.2175.5325v3.9075c0,.3825-.3075.69-.69.69s-.69-.3075-.69-.69v-3.435l-1.5-1.5v2.505c0,.15-.045.2925-.1275.4125l-2.3775,3.675c-.1275.195-.345.315-.585.315-.3825,0-.69-.3075-.69-.6975,0-.135.0375-.2625.1125-.375l2.1675-3.3525z" fill="#fff"/><path fill-rule="evenodd" clip-rule="evenodd" d="m9.27746,11.5425c-.06,0-.12-.0075-.1725-.03l-.9-.3225v-1.08l1.2375.45c.2025.075.3375.2625.3375.4725.0075.285-.2175.51-.5025.51z" fill="#fff"/></svg>