<svg width="36" height="36" viewBox="0,0,36,36" xmlns="http://www.w3.org/2000/svg"><path fill-rule="evenodd" clip-rule="evenodd" d="m17.2498,6.23035.1374.03924,10.5,3,.5021.14347-.1651.49541-1.5,4.50003-.114.3419h-1.9928c-1.8322,2.2751-4.4301,3.75-7.3676,3.75-2.9374,0-5.5354-1.4749-7.36752-3.75H7.88945l-.11396-.3419-1.5-4.50003-.16514-.49541.50212-.14347,10.50003-3,.1373-.03924zm-6.0414,8.52005c1.6197,1.7121,3.7289,2.75,6.0414,2.75s4.4218-1.0379,6.0415-2.75H11.2084zm-3.81909-4.6627,1.2209,3.6627H25.8895l1.2208-3.6627-9.8605-2.81734L7.38931,10.0877zM17.2498,10.2504c-.1378,0-.25.1121-.25.25,0,.1378.1122.25.25.25.1379,0,.25-.1122.25-.25,0-.1379-.1121-.25-.25-.25zM15.9998,10.5004c0-.69019.5599-1.25005,1.25-1.25005.6902,0,1.25.55986,1.25,1.25005,0,.6901-.5598,1.25-1.25,1.25-.6901,0-1.25-.5599-1.25-1.25zm9.9189,12.9985c-.1888.9155-.4278,1.7705-.7468,2.2704l-.0015.0023c-2.891,4.4758-6.173,5.4788-7.935,5.4788-1.7604,0-5.0425-1.003-7.93347-5.4788l-.00059-.0009c-.31985-.4975-.55894-1.352-.7477-2.2666-.19408-.9403-.35063-2.0299-.47308-3.0589-.12264-1.0306-.212-2.0086-.27068-2.7283-.02936-.3601-.05107-.656-.06547-.8622-.0072-.1031-.01257-.1838-.01615-.2388l-.00403-.063-.00102-.0164-.00026-.0042-.00007-.0012-.00002-.0003c-.00001-.0001-.00001-.0001.49907-.0304l.49908-.0303.00001.0002.00006.0008.00023.0038.00095.0153.0039.0608c.00348.0536.00874.1327.01582.2341.01416.2028.03559.4948.06459.8505.05804.7118.14625,1.6768.26698,2.6914.12093,1.0163.27356,2.0743.45945,2.975.19108.9258.40258,1.6056.6091,1.9273,2.728,4.2233,5.7098,5.0211,7.0933,5.0211,1.385,0,4.3664-.7977,7.0942-5.0201.2073-.3257.4188-1.0079.6097-1.9334.186-.9014.3386-1.9591.4595-2.9746.1208-1.0138.209-1.9776.267-2.6885.029-.3552.0504-.6468.0646-.8493.0071-.1012.0123-.1802.0158-.2337l.0039-.0607.001-.0153.0002-.0037v-.0009l.0001-.0002.499.0304c.4991.0303.4991.0304.4991.0305v.0003l-.0001.0011-.0003.0043-.001.0163-.004.0629c-.0036.055-.009.1355-.0162.2385-.0143.2058-.0361.5013-.0654.8609-.0587.7188-.1481,1.6956-.2707,2.7254-.1224,1.0282-.279,2.1174-.4731,3.0583zm-11.6692-2.4493c.0283,0,.05-.0224.05-.05,0-.0271-.0228-.05-.05-.05-.0271,0-.05.0229-.05.05,0,.0276.0218.05.05.05zM13.2995,20.9996c0-.5226.4238-.95.95-.95.5263,0,.95.4274.95.95,0,.5251-.4248.95-.95.95-.5251,0-.95-.4249-.95-.95zm6.95.05c.0283,0,.05-.0224.05-.05,0-.0271-.0228-.05-.05-.05-.0271,0-.05.0229-.05.05,0,.0276.0218.05.05.05zm-.95-.05c0-.5226.4238-.95.95-.95.5263,0,.95.4274.95.95,0,.5251-.4248.95-.95.95-.5251,0-.95-.4249-.95-.95zm-2.05,4.7497c1.5154,0,2.7869-.5351,3.4615-1.2621l.733.6802c-.9093.98-2.4758,1.5819-4.1945,1.5819-1.6179,0-3.0945-.5331-4.021-1.4067l.686-.7276c.7026.6625,1.914,1.1343,3.335,1.1343z"/></svg>