<svg width="24" height="24" viewBox="0,0,24,24" xmlns="http://www.w3.org/2000/svg"><path fill-rule="evenodd" clip-rule="evenodd" d="m11.5002,2.00024c-2.17878,0-4.12043.19124-5.23976.49439l.26142.96523c.99267-.26885,2.83102-.45962,4.97834-.45962,1.6377,0,3.1089.11073,4.1602.28583.3964.06603.7199.13912.9648.21395-.245.07484-.5685.14796-.9649.21403-1.0512.17523-2.5225.28619-4.1601.28619-1.4313,0-2.73612-.08506-3.74622-.22337l-.13566.99075c1.06391.14569,2.41508.23262,3.88188.23262,1.6753,0,3.2041-.11303,4.3245-.2998.4516-.07527.8525-.165,1.1755-.27022v5.06954c0,.07782-.0733.28723-.5438.55984-.4399.2549-1.102.4865-1.9359.6562l.1994.9799c.1167-.0237.2315-.0489.3442-.0753l.5218.6006c.3186-.2768.5944-.6087.7519-.9962.2266-.0923.4344-.1924.6199-.2999.5382-.3119,1.0425-.78,1.0425-1.42514v-6c-.0002-.28705-.1752-.48218-.3061-.58886-.1371-.11174-.3089-.19707-.4822-.26538-.3517-.13858-.831-.2532-1.3872-.34586-1.1205-.18664-2.6493-.29942-4.3245-.29942zm5.5681,1.30871-.0021.00191.0018-.00159c.0002-.00021.0003-.00032.0003-.00032zM3.35359,2.6462l16.00001,16-.7071.7071-1.5807-1.5807c-.248.6735-.6362,1.4328-1.239,1.9788-1.3816,1.2521-2.587,2.2156-4.3268,2.2156-1.73869,0-2.94187-.9494-4.32753-2.2163-.71315-.6469-1.12477-1.5938-1.35812-2.3267-.11925-.3745-.19749-.7112-.24606-.9548-.02434-.122-.04139-.2214-.05248-.2914-.00555-.035-.00962-.0627-.01238-.0823l-.00317-.0231-.00089-.0068-.00028-.0021-.0001-.0008-.00004-.0003c-.00002-.0001-.00003-.0003.49609-.0624l-.49612.0621-.00102-.0081h.00007l-.495-4.55.99413-.1081.49442,4.5447h.00001l.00209.0152c.00201.0142.00524.0363.00986.0654.00924.0583.02399.1446.04549.2524.04312.2162.11276.5157.21825.847.21608.6787.56124,1.4218,1.07763,1.8899l.00158.0014C9.23642,20.2828,10.1831,20.967,11.5,20.967c1.3163,0,2.2628-.6946,3.6553-1.9565l.0001-.0001c.5625-.5096.9128-1.3315,1.1192-2.029l-2.1566-2.1565c.0833.1208.132.2671.132.4249,0,.414-.336.75-.75.75s-.75-.336-.75-.75.336-.75.75-.75c.1577,0,.3041.0487.4249.132l-1.2333-1.2334c-.3734.0602-.7692.1021-1.1916.1021-1.2015,0-2.31274-.2479-3.1788-.674-.75711-.3724-1.38685-.9139-1.65933-1.5993-.38917-.1588-.7303-.3437-.99965-.556-.36057-.284-.66218-.67597-.66218-1.17096V5.70686L2.64648,3.35331l.70711-.70711zm5.03729,9.0744c.11246.0722.23629.142.37177.2087.70869.3486,1.66495.5712,2.73735.5712.0965,0,.1918-.0026.2863-.0074l-.494-.494c-1.0467-.0116-2.03523-.1103-2.90142-.2785zM6.00004,6.70686l4.24846,4.24844c-1.10583-.0806-2.08272-.2654-2.83271-.5154-.51383-.1713-.89364-.3642-1.13471-.55416-.24678-.19442-.28104-.32849-.28104-.3855V6.70686zM9.95816,17.5635c.40184.2252.94144.4363,1.54184.4363s1.1401-.2111,1.5419-.4363c.1988-.1113.3574-.2225.465-.3047.0536-.041.094-.0744.1199-.0965.0129-.011.0221-.0191.0275-.0239l.0046-.0042c-.0001.0001-.0003.0003.3411.3656s.3413.3654.3412.3655l-.0003.0002-.0006.0006-.0016.0015-.0043.0039-.0133.0121c-.011.0098-.0262.0232-.0453.0395-.0383.0326-.0926.0774-.1617.1302-.1377.1052-.336.244-.5834.3827-.4907.2749-1.2011.5638-2.0307.5638s-1.53992-.2889-2.03059-.5638c-.24748-.1387-.44572-.2775-.58347-.3827-.06905-.0528-.1234-.0976-.16165-.1302-.01914-.0163-.03429-.0297-.04528-.0395l-.01336-.0121-.00431-.0039-.00155-.0015-.00063-.0006-.00027-.0002c-.00013-.0001-.00025-.0002.34115-.3655s.34128-.3655.34117-.3656l.00459.0042c.00538.0048.01461.0129.02752.0239.02585.0221.06627.0555.11988.0965.10756.0822.2662.1934.46496.3047zm7.78004-3.6824.259-2.377-.9941-.1083-.259,2.377.9941.1083zM12.875,9.46124l1.025-.961H12l-1-1v-1.5h1v1.5h1.9l-1.6-1.5h1.2l2,2-2.06,2.05996-.565-.59896zM10.7,6.00028l-.664.622-.53596-.622H10.7zM9.50004,14.4998c-.414,0-.75.336-.75.75s.336.75.75.75.74996-.336.74996-.75-.33596-.75-.74996-.75z"/></svg>