<svg width="36" height="36" viewBox="0,0,36,36" xmlns="http://www.w3.org/2000/svg"><path fill-rule="evenodd" clip-rule="evenodd" d="m16.506,3.25c-1.5172,0-2.7489,1.22901-2.75,2.7479l-.0029.35895C10.3435,6.94802,7.75,9.92151,7.75,13.5v19.25h20.5V13.5c0-3.57587-2.5897-6.54764-5.9957-7.14186l-.0043-.36126C22.2483,4.47846,21.0169,3.25,19.5,3.25h-2.994zm4.747,3.00433L21.25,6.006V6c0-.96714-.7839-1.75-1.75-1.75h-2.994c-.9661,0-1.75.78286-1.75,1.75v.004l-.002.2501c.0817-.00273.1637-.0041.246-.0041h6c.0847,0,.169.00145.253.00433zM8.75,13.5c0-3.4514,2.7986-6.25,6.25-6.25h6c3.4514,0,6.25,2.7986,6.25,6.25v18.25H8.75V13.5zm4.7559,7.25c-.9661,0-1.75.7829-1.75,1.75H11.75v6.25h12.5V22.5h-.0001c0-.9671-.784-1.75-1.75-1.75h-8.994zm11.744,1.75h.0001v7.25h-14.5V22.5h.0059c0-1.5199,1.232-2.75,2.75-2.75h8.994c1.5179,0,2.75,1.2301,2.75,2.75zM19.75,23.75H13.5v-1h9v1h-1.75v1.75h-1v-1.75z"/></svg>