<svg width="24" height="24" viewBox="0,0,24,24" xmlns="http://www.w3.org/2000/svg"><path fill-rule="evenodd" clip-rule="evenodd" d="m5,6h17v9h-2v3H2V8h3V6zm16,8h-1V8H6V7h15v7zM3,9v8h16V9H3zm8.8872,4.9905c0,.366-.228.578-.683.634v-1.272c.229.071.368.122.417.152.177.104.266.266.266.486zm-1.693-2.162c0-.339.206-.527.618-.563v1.126c-.231-.056-.391-.126-.482-.209s-.136-.201-.136-.354zM11.2042,12.4815v-1.207c.369.048.558.268.566.661h.877c-.008-.415-.136-.738-.382-.97-.249-.232-.602-.359-1.061-.383v-.583h-.392v.583c-.297.02-.536.069-.715.149-.25003.112-.44403.27-.58003.474-.135.204-.203.436-.203.697,0,.236.048.436.146.601.097.165.25.308.459.429.16403.094.46203.202.89303.323v1.369c-.465-.05-.697-.331-.692-.845h-.91903c.004.522.186.927.543,1.214.25703.205.61303.32,1.06803.346v.66h.392v-.657c.287-.014.524-.06.713-.137.188-.077.361-.198.516-.364.245-.259.367-.579.367-.961,0-.376-.119-.673-.357-.89-.192-.175-.519-.323-.983-.444-.141-.034-.226-.056-.256-.065z"/></svg>