<svg width="48" height="48" viewBox="0,0,48,48" xmlns="http://www.w3.org/2000/svg"><path fill-rule="evenodd" clip-rule="evenodd" d="m12.5,4c-.8285,0-1.5.67153-1.5,1.5V9h3V5.5c0-.82847-.6715-1.5-1.5-1.5zM10,5.5V9H4v9h6v8.0015H4v9h6V43h5v-7.9985h18V43h5v-7.9985h6.0001v-9H38V18h6.0001V9h-5.9979V5.5c0-1.38076-1.1192-2.5-2.5-2.5s-2.5,1.11924-2.5,2.5V9H15V5.5C15,4.11924,13.8808,3,12.5,3S10,4.11924,10,5.5zM37,18h-3v8.0015h3V18zm-4,0v8.0015H15V18h18zm4.0022-9V5.5c0-.82847-.6715-1.5-1.5-1.5s-1.5.67153-1.5,1.5V9h3zM11,18v8.0015h3V18h-3zm-6-1v-7h9.7929l-7.00001,7H5zm13.7929-7h-2.5858l-6.99999,7h2.58579l7-7zm1.4142,0h13.5858l-7,7H13.2071l7-7zm17.5858,0h-2.5858l-7,7h2.5858l7-7zm1.4142,0h3.793v7h-10.793l7-7zM37,35.0015h-3V42h3v-6.9985zM11,42v-6.9985h3V42h-3zm.2914-14.9985L5,33.2929v-6.2914h6.2914zm-5.58576,7,6.99996-7h2.5858l-6.99997,7H5.70564zm4,0h8.58576l7-7h-8.5858l-6.99996,7zm19.58576-7h-2.5858l-7,7h2.5858l7-7zM30.7056,27.0015h9.5858l-7,7h-9.5858l7-7zm12.2945,0h-1.2945l-7,7h2.5858l5.7087-5.7087v-1.2913zm0,2.7055-4.2945,4.2945h4.2945V29.707z"/></svg>