<svg width="48" height="48" viewBox="0,0,48,48" xmlns="http://www.w3.org/2000/svg"><path fill-rule="evenodd" clip-rule="evenodd" d="m13.499,2.9996c-1.175,0-2.2549.23108-3.06.63335-.77147.38547-1.42645,1.00711-1.43884,1.84155l-.1916,2.16515c-.36385.12236-.70825.26072-1.0301.41369-1.38206.65687-2.43619,1.62977-2.70715,2.84576l-.00757.034-.00279.0347L3.04719,36.0526c-.03121.3093-.04719.6235-.04719.942,0,5.0248,3.97755,9.005,8.999,9.005,5.0185,0,8.9981-3.9771,9.001-8.9996h6c.0028,5.0223,3.9793,8.9996,8.999,8.9996,5.0203,0,9.001-3.98,9.001-9.005,0-.3162-.0158-.6283-.0466-.9354l-2.0142-25.0914-.0028-.0347-.0076-.034c-.271-1.21599-1.3251-2.18889-2.7072-2.84576-.3219-.15299-.6663-.29136-1.0302-.41373l-.1916-2.1651c-.0124-.83445-.6673-1.45609-1.4388-1.84156-.8051-.40227-1.8851-.63335-3.06-.63335-1.1754,0-2.2558.23107-3.0613.63331C30.6606,4.02201,30,4.65188,30,5.4986v2.4522c-.1923.0846-.3774.17421-.5545.26857-1.4211.75689-2.4457,1.88963-2.4457,3.27843H27V13h-6v-1.5022h.0003c0-1.3888-1.0246-2.52154-2.4457-3.27843-.1772-.09438-.3622-.18401-.5546-.26863V5.4986c0-.84672-.6606-1.47659-1.4398-1.86569-.8054-.40224-1.8858-.63331-3.0612-.63331zM27,14h-6v19h6V14zm0,20v2h-6v-2h6zm1,2.9946c0,4.4732,3.5304,8.005,7.999,8.005,4.4677,0,8.001-3.532,8.001-8.005,0-.2139-.0081-.4256-.024-.6349l-.0016.0001-.0166-.2067c-.4111-4.0647-3.7746-7.1535-7.9588-7.1535-4.4693,0-7.999,3.5226-7.999,7.995zm0-4.1692V11.4976h-.0002c.0001-.8462.6329-1.71231,1.9158-2.39562,1.2648-.67371,3.0556-1.10218,5.0852-1.10218,1.8774,0,3.5504.3668,4.7916.95672,1.2408.58975,1.9664,1.35778,2.1529,2.12818l1.6946,21.1088c-1.5816-2.5332-4.3941-4.1939-7.6409-4.1939-3.5104,0-6.5113,1.9405-7.999,4.8258zM38.0019,5.54268l.1599,1.8059c-.969-.22584-2.0377-.34878-3.161-.34878-1.4566,0-2.8235.2067-4.0008.5771V5.4986c0-.27027.2234-.6399.8865-.97105.6368-.31802,1.5569-.52795,2.6145-.52795,1.0571,0,1.9766.20992,2.613.5279.6626.33109.886.70069.886.9711v.02208l.0019.022zM20.0003,11.4976c-.0001-.8462-.6329-1.71231-1.9158-2.39562-1.2648-.67371-3.0556-1.10218-5.0852-1.10218-1.8774,0-3.55038.3668-4.79157.95672-1.24084.58975-1.96641,1.35778-2.15295,2.12818L4.36034,32.1918c1.58094-2.5322,4.39184-4.1922,7.63866-4.1922,3.5101,0,6.5127,1.941,8.001,4.827v-21.329h.0003zM20,36.9946c0-4.4722-3.5325-7.995-8.001-7.995-4.1828,0-7.54257,3.0854-7.95616,7.1472l-.0171.213-.0018-.0001C4.00807,36.569,4,36.7807,4,36.9946c0,4.4732,3.53045,8.005,7.999,8.005,4.4677,0,8.001-3.532,8.001-8.005zM12.9993,6.9998c-1.1234,0-2.1921.12295-3.16108.34881l.15981-1.80593.00195-.022V5.4986c0-.27041.22332-.64001.88602-.9711.6364-.31798,1.5559-.5279,2.613-.5279,1.0576,0,1.9777.20993,2.6145.52795.6631.33115.8865.70078.8865.97105v2.07826c-1.1773-.37037-2.5441-.57706-4.0007-.57706zM35.999,30.9996c-3.3523,0-5.999,2.6416-5.999,5.996,0,3.3552,2.6475,6.004,5.999,6.004,3.3527,0,6.001-2.6489,6.001-6.004,0-3.3543-2.6475-5.996-6.001-5.996zM29,36.9956c0-3.9076,3.0953-6.996,6.999-6.996,3.9045,0,7.001,3.0883,7.001,6.996,0,3.9069-3.0957,7.004-7.001,7.004-3.9045,0-6.999-3.0972-6.999-7.004zm6.999-3.9955c-2.2363,0-3.999,1.7596-3.999,3.997h-1c0-2.7906,2.2113-4.997,4.999-4.997v1zm-24-2.0005c-3.35231,0-5.999,2.6416-5.999,5.996,0,3.3552,2.64749,6.004,5.999,6.004,3.3527,0,6.001-2.6489,6.001-6.004,0-3.3543-2.6475-5.996-6.001-5.996zM5,36.9956c0-3.9076,3.09531-6.996,6.999-6.996,3.9045,0,7.001,3.0883,7.001,6.996,0,3.9069-3.0957,7.004-7.001,7.004-3.90449,0-6.999-3.0972-6.999-7.004zm3,.0015c0-2.2374,1.76271-3.997,3.999-3.997v-1c-2.78771,0-4.999,2.2064-4.999,4.997h1z"/></svg>