<svg width="24" height="24" viewBox="0,0,24,24" xmlns="http://www.w3.org/2000/svg"><path fill-rule="evenodd" clip-rule="evenodd" d="m7.5,4h-.39039l-.09468.37873-.94423,3.7769-1.79431.89716-.24143.12071-.03154.26808-.89753,7.62902C3.0366,17.3682,3,17.6793,3,18c0,2.2301,1.76986,4,4,4,2.22996,0,4.001-1.7697,4.001-4,0-.0219-.0002-.0438-.0005-.0656V10.169c.3115-.1071.6477-.165.9995-.165.352,0,.6883.058,1,.1651l.001,7.7402c-.0007.0302-.001.0604-.001.0907,0,2.2301,1.7699,4,4,4,2.23,0,4.001-1.7697,4.001-4,0-.3206-.0366-.6315-.1058-.929l-.8976-7.62942-.0316-.26808-.2414-.12071-1.7943-.89716-.9442-3.7769L16.8914,4h-3.8903l-.0001.49986-.001,3.5,1,.00028L14.0009,5h2.1097l.9053,3.62127.0558.2231.2057.10284,1.7586.87929.6069,5.1588c-.7021-.6124-1.6248-.9803-2.6429-.9803-1.2014,0-2.2697.5123-2.9993,1.334l-.0006-4.5879c.6169.5454,1.0009,1.3452,1.0009,2.2489h1c0-2.2311-1.7718-3.996-4.001-3.996-2.22939,0-4,1.7651-4,3.996h1c0-.9039.38381-1.7037,1.0005-2.2491v4.5888C9.2705,14.5176,8.20167,14.005,7,14.005c-1.0178,0-1.94004.3677-2.64181.9797l.60685-5.1582,1.75857-.87929.20569-.10284.05577-.2231L7.89039,5H10v3.037h1V4H7.5zM14,17.9999h.001v-.0788c.0407-1.6392,1.3466-2.9161,2.999-2.9161,1.4187,0,2.5825.9412,2.9093,2.2445l.0916.7787C19.9861,19.6925,18.6686,21,17,21c-1.6779,0-3-1.3221-3-3,0,0,0,0,0-.0001zM10.0005,18v-.0571C9.97088,16.2934,8.65988,15.005,7,15.005c-1.41835,0-2.58145.9408-2.9082,2.244l-.09167.7792C4.01487,19.6927,5.33157,21,7,21c1.67804,0,3.001-1.3223,3.001-3h-.0005zM16,18.001c0-.5612.4385-.999,1-.999v-1c-1.1125,0-2,.8842-2,1.999h1zm-11,.001c0-1.1137.88442-2,1.999-2v1c-.56142,0-.999.4377-.999,1H5z"/></svg>