<svg width="24" height="24" xmlns="http://www.w3.org/2000/svg"><path fill-rule="evenodd" clip-rule="evenodd" d="m8,12c0-2.22386,1.77614-4,4-4,2.2239,0,4,1.77614,4,4,0,1.4748-.8494,2.8613-2.0225,3.5h-3.9409C8.83305,14.7641,8,13.4551,8,12zm1,3.9952C7.80974,15.0609,7,13.6193,7,12c0-2.77614,2.22386-5,5-5,2.7761,0,5,2.22386,5,5,0,1.5999-.795,3.1229-2,4.0277v2.427l-.3348.1172L13,19.1547V20h-2v-.8453l-1.66518-.5828L9,18.4547v-2.4595zm1,1.7501V16.5h4v1.2453l-1.6652.5828L12,18.4453l-.3348-.1172L10,17.7453z"/></svg>