<svg width="36" height="36" viewBox="0,0,36,36" xmlns="http://www.w3.org/2000/svg"><path fill-rule="evenodd" clip-rule="evenodd" d="m17.5,6v2.25h1V6h-1zm5.9789,1.33675-1.053,1.9305.8779.47885,1.053-1.9305-.8779-.47885zM18,11.75c-3.4739,0-6.25,2.7761-6.25,6.25,0,2.3044,1.332,4.3632,3.2353,5.5h6.0438c1.8719-.9892,3.2209-3.1754,3.2209-5.5,0-3.4739-2.7761-6.25-6.25-6.25zM10.75,18c0,2.3869,1.2165,4.5141,3,5.8701v3.6346l.3348.1172,2.6652.9328V29.75h2.5v-1.1953l2.6652-.9328.3348-.1172v-3.5895c1.7991-1.2991,3-3.5485,3-5.9152,0-4.0261-3.2239-7.25-7.25-7.25s-7.25,3.2239-7.25,7.25zm4,6.5v2.2953l2.6652.9328.3348.1172v.9047h.5v-.9047l.3348-.1172,2.6652-.9328V24.5h-6.5zm11.3496-11.9497,1.9245-1.062.4832.8755-1.9245,1.062-.4832-.8755zM27.7487,18.4999l2.25.006.0026-1-2.25-.006-.0026,1zm.2965,6.0095-1.9485-1.0395.4707-.8823,1.9485,1.0395-.4707.8823zm-20.22568-.0241,1.965-1.17-.5116-.8593-1.965,1.17.5116.8593zM8.25,18.5H6v-1h2.25v1zm-.8557-6.0949,1.9215,1.236.54099-.841-1.9215-1.236-.54099.841zM12.6964,9.75504l-1.0635-1.9335.8762-.48195,1.0635,1.9335-.8762.48195z"/></svg>