<svg width="24" height="24" viewBox="0,0,24,24" xmlns="http://www.w3.org/2000/svg"><path fill-rule="evenodd" clip-rule="evenodd" d="m6.4638,4.4638C6.18329,4.74432,6,5.21504,6,6v4.0005h12V6c0-.78496-.1833-1.25568-.4638-1.5362C17.2557,4.18329,16.785,4,16,4H8c-.78496,0-1.25568.18329-1.5362.4638zM6,16v-4.9995h12V16H6zM5.7567,3.7567C6.29968,3.21371,7.07896,3,8,3h8c.921,0,1.7003.21371,2.2433.7567C18.7863,4.29968,19,5.07896,19,6v2h1v2h-1v8.9995h-3.999V17H9v1.9995H5V10H4V8h1V6c0-.92104.21371-1.70032.7567-2.2433zM16.001,17H18v.9995h-1.999V17zM6,17.9995V17h2v.9995H6zM16,5H8v1h8V5zM3.77848,16.439c-.50355.2488-.93476.5354-1.24642.864C2.21842,17.6338,2,18.0367,2,18.4992c0,.6421.41201,1.1651.94406,1.5631.54138.405,1.29346.7495,2.17929,1.0304,1.77746.5637,4.20579.9065,6.87665.9065,2.6713,0,5.0997-.3428,6.877-.9065.8858-.281,1.6378-.6254,2.1791-1.0304.532-.398.9439-.9211.9439-1.5631,0-.4625-.2184-.8654-.5321-1.1961-.3118-.3286-.7431-.615-1.2468-.8633l-.4422.8968c.4433.2187.762.4423.9635.6547.1995.2104.2576.3794.2576.5079,0,.1805-.117.4437-.543.7624-.4166.3117-1.0517.6144-1.8823.8779-1.6554.525-3.977.8597-6.5747.8597-2.59714,0-4.91881-.3347-6.57435-.8597-.83067-.2635-1.46584-.5662-1.88259-.8779C3.11699,18.9428,3,18.6796,3,18.4992c0-.1285.05808-.2976.25769-.5081.20159-.2126.52038-.4365.96383-.6556l-.44304-.8965zM8,12.9995c-.55279,0-1,.4495-1,1,0,.5522.44786,1,1,1s1-.4478,1-1c0-.5505-.44721-1-1-1zm7,1c0-.5505.4472-1,1-1s1,.4495,1,1c0,.5522-.4479,1-1,1s-1-.4478-1-1z"/></svg>