<svg width="36" height="36" viewBox="0,0,36,36" xmlns="http://www.w3.org/2000/svg"><path fill-rule="evenodd" clip-rule="evenodd" d="m13.8897,6.25h8.2212l.1137.34246L23.6049,10.75H32.75v19H3.25V9.25h4v1.5h5.1397l1.3861-4.15811.1139-.34189zM6.25,10.75v-.5h-2v.5h2zm15.1393-3.5,1.162,3.5h-9.1075l1.1667-3.5h6.7788zM4.25,28.75v-17h27.5v17H4.25zm9-8.5c0-2.6234,2.1266-4.75,4.75-4.75s4.75,2.1266,4.75,4.75S20.6234,25,18,25s-4.75-2.1266-4.75-4.75zM18,14.5c-3.1756,0-5.75,2.5744-5.75,5.75S14.8244,26,18,26s5.75-2.5744,5.75-5.75S21.1756,14.5,18,14.5z"/></svg>