<svg width="36" height="36" viewBox="0,0,36,36" xmlns="http://www.w3.org/2000/svg"><path fill-rule="evenodd" clip-rule="evenodd" d="m28.25,5.25c0-.55218.447-1,1-1s1,.44782,1,1-.447,1-1,1-1-.44782-1-1zm1-2c-1.106,0-2,.89618-2,2,0,.48926.1756.93773.4675,1.28545L22.4691,13.883c-.2231-.0859-.4655-.133-.7191-.133-.6623,0-1.2487.3214-1.6125.8164l-3.9036-1.5612c.0106-.0836.0161-.1688.0161-.2552,0-1.1041-.8959-2-2-2s-2,.8959-2,2c0,.2918.0626.569.175.819L7.94979,17.15c-.33428-.2512-.74973-.4-1.19979-.4-1.10414,0-2,.8959-2,2,0,1.106.89618,2,2,2s2-.894,2-2c0-.2919-.06263-.5693-.17518-.8194l4.47498-3.5808c.3344.2512.75.4002,1.2002.4002.6614,0,1.248-.3214,1.6121-.8165l3.904,1.5614c-.0106.0835-.0161.1687-.0161.2551,0,1.1038.894,2,2,2s2-.8962,2-2c0-.4892-.1756-.9376-.4675-1.2853l5.2485-7.34769c.2231.0859.4655.13299.719.13299,1.106,0,2-.89618,2-2s-.894-2-2-2zm-23.5,15.5c0-.5519.44814-1,1-1s1,.4481,1,1c0,.553-.44782,1-1,1s-1-.447-1-1zm6.5,1.006h4V31.75h3.5v-8.994h4v8.994h3.5V13.756h4V32.75H4.75v-6.994h4v5.994h3.5V19.756zm3,11.994V20.756h-2V31.75h2zm7.5,0v-7.994h-2v7.994h2zm7.5-16.994V31.75h-2V14.756h2zm-22.5,12v4.994h-2v-4.994h2zm6.5-15.006c-.5519,0-1,.4481-1,1s.4481,1,1,1,1-.4481,1-1-.4481-1-1-1zm6.5,4c0-.5522.447-1,1-1s1,.4478,1,1-.447,1-1,1-1-.4478-1-1z"/></svg>