<svg width="36" height="36" viewBox="0,0,36,36" xmlns="http://www.w3.org/2000/svg"><path fill-rule="evenodd" clip-rule="evenodd" d="m8.75,17.9995c0-5.9368,4.8131-10.74996,10.75-10.74996,5.9383,0,10.75,4.81306,10.75,10.74996,0,5.9384-4.8116,10.75-10.75,10.75-5.9369,0-10.75-4.8116-10.75-10.75zM19.5,6.24954c-6.4891,0-11.75,5.26086-11.75,11.74996,0,6.4907,5.2609,11.75,11.75,11.75,6.4906,0,11.75-5.2593,11.75-11.75,0-6.4891-5.2593-11.74996-11.75-11.74996zm3.7643,11.39486-5.9235-5.856-.703.7112L22.2016,18l-5.5653,5.5004.703.7112,5.925-5.856.3597-.3555-.3597-.3557z"/></svg>