<svg width="48" height="48" viewBox="0,0,48,48" xmlns="http://www.w3.org/2000/svg"><path fill-rule="evenodd" clip-rule="evenodd" d="m12.5,3C7.25314,3,3,7.25314,3,12.5,3,17.7469,7.25314,22,12.5,22c5.2469,0,9.5-4.2531,9.5-9.5C22,7.25314,17.7469,3,12.5,3zM2,12.5C2,6.70086,6.70086,2,12.5,2,18.2991,2,23,6.70086,23,12.5,23,18.2991,18.2991,23,12.5,23,6.70086,23,2,18.2991,2,12.5zm24,.5h20v20H26V13zm1,19h18V14H27v18zm-10.0693-6.255-.4307-.7303-.4307.7303-11.49998,19.5-.44464.754h.8753L28,46l.8753.0001-.4446-.7541-11.5-19.501zM16.5,26.9833,27.1247,45,5.87532,44.9991,16.5,26.9833z"/></svg>