<svg width="24" height="24" viewBox="0,0,24,24" xmlns="http://www.w3.org/2000/svg"><path fill-rule="evenodd" clip-rule="evenodd" d="m3,11.9997c0-4.97086,4.02914-9.00001,9-9.00001,4.9709,0,9,4.02915,9,9.00001,0,4.9709-4.0291,9-9,9-4.97086,0-9-4.0291-9-9zm9-10.00001c-5.52314,0-10,4.47686-10,10.00001,0,5.5231,4.47686,10,10,10,5.5231,0,10-4.4769,10-10,0-5.52315-4.4769-10.00001-10-10.00001zM10.3735,17.3326l8-8.99102-.747-.66473L9.97878,16.2719,6.35355,12.6467l-.7071.7071,4,4,.37475.3747.3523-.3959z"/></svg>