<svg width="36" height="36" viewBox="0,0,36,36" xmlns="http://www.w3.org/2000/svg"><path fill-rule="evenodd" clip-rule="evenodd" d="m7.25,17.9995c0-5.9368,4.8131-10.74999,10.75-10.74999,5.9383,0,10.75,4.81309,10.75,10.74999,0,5.9384-4.8116,10.75-10.75,10.75-5.9369,0-10.75-4.8117-10.75-10.75zM18,6.24951c-6.4891,0-11.75,5.26089-11.75,11.74999,0,6.4907,5.2609,11.75,11.75,11.75,6.4906,0,11.75-5.2593,11.75-11.75,0-6.4891-5.2593-11.74999-11.75-11.74999zm-.25,4.24999v7.75h7.75v1h-8.75v-8.75h1z"/></svg>