<svg width="24" height="24" viewBox="0,0,24,24" xmlns="http://www.w3.org/2000/svg"><path fill-rule="evenodd" clip-rule="evenodd" d="m15.9899,7.71679c-.2567-.49019-.629-.88827-1.0656-1.18032C15.3473,6.20009,15.8911,6,16.5,6,17.9149,6,19,7.08514,19,8.5c0,1.01119-.5534,1.8488-1.3777,2.2479-.0352-.0511-.0724-.1009-.1117-.1492-.2967-.3643-.7037-.63148-1.1981-.74284.1247-.80425-.0044-1.53148-.3226-2.13907zm2.07,4.67571c.0143-.2413-.0026-.4848-.0509-.7212C19.2011,11.1173,20,9.91882,20,8.5,20,6.53286,18.4671,5,16.5,5c-1.0161,0-1.9234.40971-2.5595,1.08646-1.3115-.36193-2.8448.06022-3.7321,1.50377-1.51595-.71889-3.43069.3254-3.52268,2.17629-.48121.1281-.86968.43138-1.14398.81478-.36009.5033-.53437,1.1536-.50666,1.7907.02787.6407.26203,1.3033.76361,1.8087.50782.5116,1.24744.8196,2.20142.8196h6.99999c.9594,0,1.7133-.3066,2.2387-.8089.5205-.4975.7828-1.1549.8211-1.7989zM13.8546,7.10785c-1.0482-.38023-2.3618-.04562-2.997,1.39429l-.2655.60174-.5088-.41676c-.96738-.79234-2.56613-.04791-2.38672,1.45388l.06682.5593h-.56329c-.34817,0-.63449.1685-.84507.4628-.21672.3029-.33994.7277-.3209,1.1655.01889.4343.17573.8468.47432,1.1476.29238.2946.76213.5241,1.49165.5241h6.99999c.7381,0,1.233-.2308,1.5477-.5317.3197-.3056.489-.717.5138-1.1354.0251-.4222-.0983-.8229-.3265-1.1031-.2185-.2684-.549-.4488-1.015-.4302l-.6985.028.1992-.6701c.2414-.81185.1456-1.4762-.1168-1.97708-.2655-.50707-.7194-.88063-1.2494-1.07287zM15.5,15.5c-.5521,0-1,.4479-1,1s.4479,1,1,1,1-.4479,1-1-.4479-1-1-1zm-5,1c0-.5521.4479-1,1-1s1,.4479,1,1-.4479,1-1,1-1-.4479-1-1zm-3.00001-1c-.55214,0-1,.4479-1,1s.44786,1,1,1c.55215,0,1-.4479,1-1s-.44785-1-1-1zm5.00001,3c0-.5521.4479-1,1-1s1,.4479,1,1-.4479,1-1,1-1-.4479-1-1zm-3.00001-1c-.55214,0-1,.4479-1,1s.44786,1,1,1c.55211,0,1.00001-.4479,1.00001-1s-.4479-1-1.00001-1z"/></svg>