<svg width="24" height="24" viewBox="0,0,24,24" xmlns="http://www.w3.org/2000/svg"><path fill-rule="evenodd" clip-rule="evenodd" d="m17.9528,2.98779-.5244,1.03801c-.6149,1.21693-.3356,2.73878.5836,3.76977.8939,1.00256,2.4038,1.54301,4.2934.74421l1.1711-.49509-.5202,1.16019c-.5627,1.25512-1.6491,2.05572-2.7316,2.48822-.7632.305-1.5727.4457-2.2555.412.0014.1012-.0026.2025-.0118.3031-.058.6363-.3268,1.2849-.827,1.7779-.507.4997-1.2263.8142-2.1303.8142h-.4409l.388.7761L14.5,16l-.4472-.2236.388-.7761h-3.8816l.388.7761L10.5,16l-.4472-.2236.388-.7761H8.00011c-.95398,0-1.6936-.308-2.20142-.8196-.50158-.5054-.73574-1.1679-.76361-1.8086-.02771-.6372.14657-1.2875.50666-1.7908.2743-.3834.66277-.68666,1.14398-.81476.09199-1.85089,2.00673-2.89518,3.52268-2.17629.9357-1.52231,2.5899-1.90872,3.9447-1.43756.2835-.78233.6168-1.36968,1.0164-1.8116.4946-.54703,1.0603-.83749,1.6692-1.01977l1.1141-.33353zM10.5,16c.4472-.2236.4472-.2235.4473-.2235v.0001l.0002.0003.0004.001.0015.0028.0049.01.0175.0359c.0147.0306.0355.0743.0603.128.0494.107.1156.2558.1821.4222.0662.1654.1352.3544.1884.5405.051.1786.0974.3879.0974.5827,0,.5522-.4479,1-1,1-.55215,0-1.00001-.4478-1.00001-1,0-.1948.04635-.4041.09737-.5827.05319-.1861.12226-.3751.1884-.5405.06655-.1664.13273-.3152.18213-.4222.02479-.0537.04561-.0974.06031-.128l.0175-.0359.0049-.01.0015-.0028.0004-.001.0002-.0003v-.0001c.0001,0,.0001-.0001.4473.2235zm4,0c.4472-.2236.4472-.2235.4473-.2235v.0001l.0002.0003.0004.001.0015.0028.0049.01.0175.0359c.0147.0306.0355.0743.0603.128.0494.107.1156.2558.1821.4222.0662.1654.1352.3544.1884.5405.051.1786.0974.3879.0974.5827,0,.5522-.4479,1-1,1s-1-.4478-1-1c0-.1948.0463-.4041.0974-.5827.0532-.1861.1222-.3751.1884-.5405.0665-.1664.1327-.3152.1821-.4222.0248-.0537.0456-.0974.0603-.128l.0175-.0359.0049-.01.0015-.0028.0004-.001.0002-.0003v-.0001c.0001,0,.0001-.0001.4473.2235zm5.3537-5.2355c-.8006.3199-1.5847.3966-2.0979.3155-.072-.1658-.1627-.3233-.2728-.4682-.2828-.372-.6803-.64229-1.1706-.75503.1249-.80459-.0042-1.53215-.3225-2.13996-.2322-.44342-.559-.81147-.9424-1.09384.2654-.77116.5568-1.27181.8637-1.61118.0767-.08483.1558-.16115.2377-.23012-.2045,1.318.2351,2.69054,1.1167,3.67939.9292,1.04217,2.3433,1.65844,4.0118,1.40759-.41.39135-.9054.68875-1.4237.89585zm-5.9991-3.65663c-1.0482-.38022-2.3618-.04562-2.997,1.39429l-.2655.60174-.5088-.41675c-.96738-.79235-2.56613-.04792-2.38672,1.45385l.06682.5593h-.56329c-.34817,0-.63449.1685-.84507.4628-.21672.303-.33994.7277-.3209,1.1655.01889.4343.17573.8468.47432,1.1476.29238.2946.76213.5241,1.49165.5241h6.99999c.6585,0,1.1204-.2229,1.4283-.5264.3147-.3101.4943-.7303.5332-1.1565.0391-.4296-.0675-.8277-.2748-1.1004-.1954-.2572-.5024-.4356-.9667-.4171l-.6985.028.1992-.67c.2414-.81193.1456-1.47628-.1168-1.97716-.2655-.50707-.7194-.88063-1.2494-1.07287zM6.49999,16c-.44721-.2236-.44723-.2235-.44726-.2235l-.00006.0001-.00016.0003-.00045.001-.00143.0028-.00493.01-.01747.0359c-.01477.0306-.03555.0743-.06034.128-.0494.107-.11558.2558-.18213.4222-.06614.1654-.13521.3544-.1884.5405-.05102.1786-.09737.3879-.09737.5827,0,.5522.44786,1,1,1,.55215,0,1-.4478,1-1,0-.1948-.04634-.4041-.09736-.5827-.05319-.1861-.12226-.3751-.1884-.5405-.06656-.1664-.13273-.3152-.18213-.4222-.02479-.0537-.04557-.0974-.06035-.128l-.01747-.0359-.00492-.01-.00144-.0028-.00045-.001-.00015-.0003-.00006-.0001c-.00003,0-.00005-.0001-.44727.2235zm-.44721-.2236L6.49999,16l.44722-.2236-.44722-.8944-.44721.8944zm5.99992,2.0001c.0001,0,.0001-.0001.4473.2235.4472-.2236.4472-.2235.4473-.2235v.0001l.0002.0003.0004.001.0015.0028.0049.01.0175.0359c.0147.0306.0355.0743.0603.128.0494.107.1156.2558.1821.4222.0662.1654.1352.3544.1884.5405.051.1786.0974.3879.0974.5827,0,.5522-.4479,1-1,1s-1-.4478-1-1c0-.1948.0463-.4041.0974-.5827.0532-.1861.1222-.3751.1884-.5405.0665-.1664.1327-.3152.1821-.4222.0248-.0537.0456-.0974.0603-.128l.0175-.0359.0049-.01.0015-.0028.0004-.001.0002-.0003v-.0001zM12.5,18l-.4472-.2236.4472-.8944.4472.8944L12.5,18zm-4.44722-.2236L8.49999,18c-.44721-.2236-.44723-.2235-.44726-.2235l-.00006.0001-.00016.0003-.00045.001-.00143.0028-.00493.01-.01747.0359c-.01477.0306-.03555.0743-.06034.128-.0494.107-.11558.2558-.18214.4222-.06613.1654-.1352.3544-.18839.5405-.05102.1786-.09737.3879-.09737.5827,0,.5522.44786,1,1,1,.55215,0,1-.4478,1-1,0-.1948-.04634-.4041-.09736-.5827-.05319-.1861-.12226-.3751-.1884-.5405-.06656-.1664-.13273-.3152-.18213-.4222-.02479-.0537-.04557-.0974-.06035-.128l-.01747-.0359-.00492-.01-.00144-.0028-.00045-.001-.00015-.0003-.00006-.0001c-.00003,0-.00005-.0001-.44727.2235l.44722-.2236-.44722-.8944-.44721.8944z"/></svg>