<svg width="24" height="24" viewBox="0,0,24,24" xmlns="http://www.w3.org/2000/svg"><path fill-rule="evenodd" clip-rule="evenodd" d="m17.4941,10.6063c-.2884-.3688-.6898-.63781-1.1817-.74998.1249-.80446-.0042-1.53188-.3225-2.1396-.3907-.74606-1.0493-1.27875-1.7943-1.549-1.3626-.49427-3.0417-.11585-3.9872,1.42244-1.51595-.71889-3.43069.3254-3.52268,2.17629-.48121.1281-.86968.43135-1.14398.81475-.36009.5033-.53437,1.1536-.50666,1.7908.02787.6407.26203,1.3032.76361,1.8086.50782.5117,1.24744.8196,2.20142.8196h6.99999c.9262,0,1.6595-.3111,2.1741-.812.5083-.4948.7745-1.147.8246-1.7864.0499-.6359-.1119-1.2932-.5047-1.7955zm-6.6365-2.10423c.6352-1.43991,1.9488-1.77452,2.997-1.39429.53.19224.9839.5658,1.2494,1.07287.2624.50088.3582,1.16523.1168,1.97715l-.1992.67.6985-.028c.465-.0186.7815.1607.9862.4225.2157.2758.329.6748.2956,1.1014-.0332.4231-.2086.8397-.5253,1.148-.3105.3022-.7857.5285-1.4765.5285H8.00011c-.72952,0-1.19927-.2295-1.49165-.524-.29859-.3009-.45543-.7134-.47432-1.1477-.01904-.4378.10418-.8625.3209-1.1655.21058-.2943.4969-.4628.84507-.4628h.56329l-.06682-.5593c-.17941-1.50176,1.41934-2.24619,2.38672-1.45384l.5088.41675.2655-.60174zM13.5,17.4999c-.5521,0-1,.4479-1,1,0,.5522.4479,1,1,1s1-.4478,1-1c0-.5521-.4479-1-1-1zm1-1c0-.5521.4479-1,1-1s1,.4479,1,1c0,.5522-.4479,1-1,1s-1-.4478-1-1zm-3-1c-.5521,0-1,.4479-1,1,0,.5522.4479,1,1,1s1-.4478,1-1c0-.5521-.4479-1-1-1zm-5.00001,1c0-.5521.44786-1,1-1,.55215,0,1,.4479,1,1,0,.5522-.44785,1-1,1-.55214,0-1-.4478-1-1zm3,1c-.55214,0-1,.4479-1,1,0,.5522.44786,1,1,1,.55211,0,1.00001-.4478,1.00001-1,0-.5521-.4479-1-1.00001-1z"/></svg>