<svg width="36" height="36" viewBox="0,0,36,36" xmlns="http://www.w3.org/2000/svg"><path fill-rule="evenodd" clip-rule="evenodd" d="m26.4439,4.8877-.5245,1.038c-.9744,1.92843-.5263,4.3205.9121,5.9338,1.413,1.5848,3.7924,2.4195,6.724,1.1802l1.1711-.4951-.5202,1.1602c-.8103,1.8071-2.3797,2.9702-3.9621,3.6025-1.2297.4913-2.5254.6848-3.5534.5797.019.2328.0176.4684-.0037.7024-.0823.9019-.4632,1.8177-1.1671,2.5115-.7107.7004-1.7253,1.1494-3.0199,1.1494h-10.5c-1.3749,0-2.41685-.4424-3.12471-1.1556-.70164-.707-1.03355-1.6383-1.0731-2.5477-.0394-.906.20926-1.825.71355-2.5299.41624-.5818,1.01426-1.0239,1.75756-1.1672.0073-2.8024,2.9424-4.3593,5.1347-3.1338,1.3286-2.36779,3.8027-2.95413,5.8-2.22963.0578.02099.1153.04308.1724.06626.4362-1.27488.9484-2.19836,1.5591-2.87367.7041-.77873,1.5089-1.19405,2.3901-1.45784l1.1141-.33352zm3.4294,11.491c-1.298.5186-2.5915.6327-3.4188.4625-.1075-.2764-.2502-.537-.4291-.7724-.4313-.5675-1.0573-.9658-1.8457-1.0844.2459-1.2539.0651-2.3742-.4163-3.2935-.3591-.6857-.8783-1.2458-1.4885-1.6602.4207-1.27734.8927-2.1127,1.4065-2.68095.2829-.31292.5861-.55316.9155-.74334-.5483,2.07298.0747,4.33319,1.4882,5.91859,1.4697,1.6484,3.7866,2.5674,6.53,1.8832-.7202.9065-1.7074,1.5572-2.7418,1.9705zm-9.0061-5.9522c-1.6857-.61144-3.7993-.0643-4.8096,2.2256l-.2654.6017-.5089-.4167c-1.6278-1.3334-4.2821-.069-3.9867,2.4038l.0669.5594h-.5633c-.6158,0-1.11618.3028-1.47096.7987-.36092.5045-.55852,1.198-.52779,1.9045.03057.7031.28516,1.3843.78381,1.8867.49244.4962,1.26454.8601,2.41494.8601h10.5c1.0491,0,1.8063-.3574,2.3179-.8616.5184-.5109.8101-1.1983.8732-1.8901.0634-.6953-.1069-1.3574-.4621-1.8247-.3432-.4516-.8823-.7551-1.659-.724l-.6985.0279.1992-.67c.3789-1.2744.233-2.3388-.1934-3.1529-.4296-.8204-1.1616-1.4205-2.0103-1.7284zM9.74999,23.9998c-.44721-.2236-.44724-.2236-.44726-.2235l-.00007.0001-.00019.0004-.00059.0012-.00197.0039-.00701.0142-.02541.0522c-.02161.0448-.05216.1089-.08866.188-.07284.1579-.17027.377-.26808.6215-.09738.2435-.1977.5184-.27433.7867-.07446.2605-.13643.5479-.13643.8053,0,.6901.55986,1.25,1.25,1.25.69011,0,1.25001-.5599,1.25001-1.25,0-.2574-.062-.5448-.1364-.8053-.0767-.2683-.177-.5432-.2744-.7867-.0978-.2445-.1952-.4636-.268-.6215-.0365-.0791-.0671-.1432-.0887-.188l-.0254-.0522-.007-.0142-.002-.0039-.0008-.0016v-.0001c-.0001-.0001-.0001-.0001-.44731.2235zm-.44721-.2236.44721.2236.44721-.2236-.44721-.8945-.44721.8945zm.29516,1.943c.04245-.1486.09511-.3045.15205-.4584.05695.1539.1096.3098.15205.4584.06617.2316.09795.4129.09795.5306,0,.1378-.11214.25-.25.25-.13785,0-.25-.1122-.25-.25,0-.1177.03178-.299.09795-.5306zm5.70476-1.9429c.0001-.0001.0001-.0001.4473.2235.4472-.2236.4472-.2236.4473-.2235v.0001l.0008.0016.002.0039.007.0142.0254.0522c.0216.0448.0522.1089.0887.188.0728.1579.1702.377.268.6215.0974.2435.1977.5184.2744.7867.0744.2605.1364.5479.1364.8053,0,.6901-.5599,1.25-1.25,1.25s-1.25-.5599-1.25-1.25c0-.2574.062-.5448.1364-.8053.0767-.2683.177-.5432.2744-.7867.0978-.2445.1952-.4636.268-.6215.0365-.0791.0671-.1432.0887-.188l.0254-.0522.007-.0142.002-.0039.0008-.0016v-.0001zm.4473.2235-.4472-.2236.4472-.8945.4472.8945-.4472.2236zm0,1.261c-.057.1539-.1096.3098-.1521.4584-.0661.2316-.0979.4129-.0979.5306,0,.1378.1121.25.25.25s.25-.1122.25-.25c0-.1177-.0318-.299-.098-.5306-.0424-.1486-.0951-.3045-.152-.4584zm6-1.261c-.4472-.2236-.4472-.2236-.4473-.2235v.0001l-.0008.0016-.002.0039-.007.0142-.0254.0522c-.0216.0448-.0522.1089-.0887.188-.0728.1579-.1702.377-.268.6215-.0974.2435-.1977.5184-.2744.7867-.0744.2605-.1364.5479-.1364.8053,0,.6901.5599,1.25,1.25,1.25s1.25-.5599,1.25-1.25c0-.2574-.062-.5448-.1364-.8053-.0767-.2683-.177-.5432-.2744-.7867-.0978-.2445-.1952-.4636-.268-.6215-.0365-.0791-.0671-.1432-.0887-.188l-.0254-.0522-.007-.0142-.002-.0039-.0008-.0016v-.0001c-.0001-.0001-.0001-.0001-.4473.2235zm-.4472-.2236.4472.2236.4472-.2236-.4472-.8945-.4472.8945zm.2951,1.943c.0425-.1486.0951-.3045.1521-.4584.0569.1539.1096.3098.152.4584.0662.2316.098.4129.098.5306,0,.1378-.1121.25-.25.25s-.25-.1122-.25-.25c0-.1177.0318-.299.0979-.5306zm-3.2952,1.0571c.0001-.0001.0001-.0001.4473.2235.4472-.2236.4472-.2236.4473-.2235v.0001l.0008.0016.002.0039.007.0142.0254.0522c.0216.0448.0522.1089.0887.188.0728.1579.1702.377.268.6215.0974.2435.1977.5184.2744.7867.0744.2605.1364.5479.1364.8053,0,.6901-.5599,1.25-1.25,1.25s-1.25-.5599-1.25-1.25c0-.2574.062-.5448.1364-.8053.0767-.2683.177-.5432.2744-.7867.0978-.2445.1952-.4636.268-.6215.0365-.0791.0671-.1432.0887-.188l.0254-.0522.007-.0142.002-.0039.0008-.0016v-.0001zM18.75,26.9998l-.4472-.2236.4472-.8945.4472.8945-.4472.2236zm0,1.261c-.057.1539-.1096.3098-.1521.4584-.0661.2316-.0979.4129-.0979.5306,0,.1378.1121.25.25.25s.25-.1122.25-.25c0-.1177-.0318-.299-.098-.5306-.0424-.1486-.0951-.3045-.152-.4584zm-6.4472-1.4846.4472.2236c-.4472-.2236-.4472-.2236-.4473-.2235v.0001l-.0008.0016-.002.0039-.007.0142-.0254.0522c-.0216.0448-.0522.1089-.0887.188-.0728.1579-.1702.377-.268.6215-.0974.2435-.1977.5184-.2744.7867-.0744.2605-.1364.5479-.1364.8053,0,.6901.5599,1.25,1.25,1.25s1.25-.5599,1.25-1.25c0-.2574-.062-.5448-.1364-.8053-.0767-.2683-.177-.5432-.2744-.7867-.0978-.2445-.1952-.4636-.268-.6215-.0365-.0791-.0671-.1432-.0887-.188l-.0254-.0522-.007-.0142-.002-.0039-.0008-.0016v-.0001c-.0001-.0001-.0001-.0001-.4473.2235l.4472-.2236-.4472-.8945-.4472.8945zM12.5979,28.7192c.0425-.1486.0951-.3045.1521-.4584.0569.1539.1096.3098.152.4584.0662.2316.098.4129.098.5306,0,.1378-.1121.25-.25.25s-.25-.1122-.25-.25c0-.1177.0318-.299.0979-.5306z"/></svg>