<svg width="24" height="24" viewBox="0,0,24,24" xmlns="http://www.w3.org/2000/svg"><path fill-rule="evenodd" clip-rule="evenodd" d="m17.4935,10.6061c-.2881-.369-.6893-.63805-1.1811-.75025.1249-.80446-.0042-1.53189-.3225-2.13962-.3907-.74606-1.0493-1.27875-1.7943-1.549-1.3625-.49426-3.0416-.11586-3.9871,1.42235-1.51549-.71879-3.43064.32566-3.52276,2.17638-.48122.12809-.8697.43134-1.144.81474-.36009.5033-.53437,1.1536-.50666,1.7908.02787.6407.26203,1.3032.76361,1.8086.50782.5117,1.24744.8197,2.20142.8197v-1c-.72952,0-1.19927-.2295-1.49165-.5241-.29859-.3009-.45543-.7134-.47432-1.1477-.01904-.4378.10418-.8625.3209-1.1654.21058-.2944.4969-.4628.84507-.4628h.56329l-.06682-.5594c-.17942-1.50185,1.42031-2.24598,2.38652-1.45395l.5089.4171.2656-.60197c.6352-1.43991,1.9488-1.77451,2.997-1.39429.53.19225.9839.5658,1.2494,1.07287.2624.50088.3582,1.16523.1168,1.97714l-.1992.67.6985-.0279c.4649-.0186.781.1606.9851.4221.2152.2756.3282.6746.2945,1.1014-.0335.4232-.2091.84-.5257,1.1484-.3104.3023-.7848.5285-1.4739.5285v1c.925,0,1.6575-.3114,2.1716-.8122.508-.4947.7743-1.1467.8249-1.7859.0502-.6358-.1108-1.2931-.5031-1.7956zM11.5,12.9999h-.2071l-.1465.1465-2.99996,3-.85355.8535h2.70721L8.93897,18.415,6.48588,21.6862l3.16907-2.5837,3.32995-2.715,1.0886-.8876h-2.3664l2.5-2.5H11.5zm-1.7929,3h.08579l.35351-.3535,1.6465-1.6465h-.0858l-2,2z"/></svg>