<svg width="24" height="24" viewBox="0,0,24,24" xmlns="http://www.w3.org/2000/svg"><path fill-rule="evenodd" clip-rule="evenodd" d="m17.4912,10.6079c-.2868-.3698-.6871-.63915-1.1785-.75148.1249-.80449-.0043-1.53195-.3225-2.1397-.3907-.74606-1.0493-1.27875-1.7943-1.549-1.3626-.49427-3.0417-.11585-3.9872,1.42244-1.51601-.71889-3.43074.3254-3.52273,2.17629-.48122.1281-.86969.43135-1.14398.81475-.3601.5033-.53437,1.1536-.50666,1.7908.02786.6407.26202,1.3032.76361,1.8086.50781.5117,1.24744.8196,2.20142.8196h7.00004c.9198,0,1.6492-.3121,2.1615-.8126.5061-.4943.773-1.1455.8254-1.784.0521-.6351-.1058-1.2926-.4961-1.7957zm-6.6334-2.10583c.6353-1.43991,1.9489-1.77452,2.9971-1.39429.5299.19224.9838.5658,1.2494,1.07287.2623.50088.3582,1.16523.1168,1.97715l-.1992.67.6984-.028c.4648-.0185.7787.1605.9807.421.2133.2749.3247.6737.2897,1.1011-.0348.4239-.2114.8416-.5275,1.1504-.3098.3026-.7812.5279-1.4628.5279H8.00036c-.72953,0-1.19928-.2295-1.49165-.524-.2986-.3009-.45544-.7134-.47433-1.1477-.01904-.4378.10419-.8625.3209-1.1655.21058-.2943.4969-.4628.84508-.4628h.56328l-.06682-.5593c-.17941-1.50176,1.41935-2.24619,2.38668-1.45384l.5088.41675.2655-.60174zM7.00012,16.9999h-1v-1h1v1zm1,0h-1v1h-1v1h1v-1h1v1h1v-1h-1v-1zm0,0v-1h1v1h-1zm1.99998,4h1v1h-1v1h1v-1h1v1h1v-1h-1v-1h1v-1h-1v1h-1v-1h-1v1zM15.0001,16.9999h-1v-1h1v1zm1,0h-1v1h-1v1h1v-1h1v1h1v-1h-1v-1zm0,0v-1h1v1h-1z"/></svg>