<svg width="24" height="24" viewBox="0,0,24,24" xmlns="http://www.w3.org/2000/svg"><path fill-rule="evenodd" clip-rule="evenodd" d="m17.3325,5.69816c.3393-.95808,1.001-1.95468,2.3353-2.4598-.0367.14579-.0679.3048-.089.47502-.11.88559.0593,2.04617,1.089,3.17868.2101.31083.3321.69122.3321,1.10794,0,.59279-.2625,1.118-.6794,1.49h-2.6411c-.4169-.372-.6795-.89721-.6795-1.49v-.01945l-.0014-.01843v-.00073l-.0001-.00022-.0004-.00621c-.0004-.00645-.001-.01719-.0017-.03195-.0014-.02954-.003-.07511-.0038-.1346-.0014-.11912.001-.29322.0166-.50566.0314-.42695.1156-.99767.3234-1.58459zm-1.3351,2.27178c.001.02014.0019.03613.0026.04769.0052.88897.4009,1.66491,1,2.20617V20c0,1.1061.8939,2,2,2s2-.8939,2-2v-9.7763c.603-.54483.9999-1.32741.9999-2.2237,0-.6319-.1911-1.22213-.5303-1.70673l-.0193-.02746-.0227-.02465c-.8285-.89902-.9356-1.76711-.8565-2.40454.0406-.3267.1317-.60023.2125-.79122.0402-.09501.0772-.16808.1028-.21534.0128-.02358.0227-.04059.0286-.05052l.0058-.00949.0001-.00016.6183-.95556-1.1238.19287c-2.4064.413-3.5275,1.95078-4.0255,3.35713-.2459.69434-.3423,1.35799-.3781,1.84511-.018.24459-.0209.44744-.0192.59101.0009.07186.0029.12908.0048.16949zM20,10.49h-2V12h2v-1.51zM18,20v-7h2v7c0,.5539-.4461,1-1,1s-1-.4461-1-1zM12,5c-.5523,0-1,.44771-1,1,0,.55228.4477,1,1,1s1-.44772,1-1c0-.55229-.4477-1-1-1zm-2,1c0-1.10457.8954-2,2-2s2,.89543,2,2-.8954,2-2,2-2-.89543-2-2zM7,8c-.55229,0-1,.44771-1,1,0,.55228.44771,1,1,1,.55228,0,1-.44772,1-1,0-.55229-.44772-1-1-1zM5,9c0-1.10457.89543-2,2-2s2,.89543,2,2c0,1.1046-.89543,2-2,2s-2-.8954-2-2zm5,9c0-.5523.4477-1,1-1s1,.4477,1,1-.4477,1-1,1-1-.4477-1-1zm1-2c-1.10457,0-2,.8954-2,2s.89543,2,2,2c1.1046,0,2-.8954,2-2s-.8954-2-2-2zm1.2839-13.98981C7.38836,1.87333,3.26302,5.26341,2.24204,9.81046l-.00035.00157c-.29444,1.33137.56993,2.53867,1.78661,2.92447,1.7664.5647,2.9716,2.0548,2.9716,3.7635,0,.4833-.09662.9448-.27808,1.3596h-.00003l-.00219.0051c-.5128,1.2088-.06287,2.6823,1.17988,3.2589l.00235.0011C9.14864,21.6952,10.5398,22,11.9899,22c1.4544,0,2.9266-.3366,4.2116-.937l-.4233-.906c-1.1549.5396-2.4827.843-3.7883.843-1.3095,0-2.55796-.2751-3.67089-.7842-.69564-.3236-1.00519-1.188-.67982-1.9582.23775-.5445.36071-1.1419.36071-1.7576,0-2.2111-1.55453-4.0409-3.66779-4.7163l-.0012-.0004c-.80276-.2543-1.27802-1.0064-1.11297-1.7546.91931-4.09236,4.63347-7.14175,9.03736-7.01891,1.248.03789,2.4396.34033,3.5289.86128l.4314-.90214c-1.2106-.57898-2.5387-.91652-3.9306-.9587l-.0011-.00004z"/></svg>