<svg width="36" height="36" viewBox="0,0,36,36" xmlns="http://www.w3.org/2000/svg"><path fill-rule="evenodd" clip-rule="evenodd" d="m25.7631,8.46379c.5657-1.59734,1.7183-3.27604,4.1145-3.99754-.1077.31667-.2074.70038-.2614,1.13463-.1575,1.26837.082,2.93931,1.5822,4.58192.3496.5107.5515,1.1357.5515,1.8172,0,1.0013-.4601,1.881-1.1759,2.485h-4.1481c-.7158-.604-1.176-1.4837-1.176-2.485v-.0194l-.0014-.0188-.0001-.0001v-.0005l-.0001-.0015-.0008-.0116c-.0006-.0109-.0017-.0283-.0028-.0519-.0022-.047-.0048-.1182-.0059-.2106-.0022-.1848.0015-.4531.0255-.7798.0482-.6555.1775-1.53478.4988-2.44201zm-1.5136,3.54711.0005.0067c.0053,1.3004.6011,2.4324,1.5,3.2053V30c0,1.5211,1.2289,2.75,2.75,2.75s2.75-1.2289,2.75-2.75V15.2227c.9029-.7764,1.4999-1.915,1.4999-3.2227,0-.8969-.2711-1.7321-.7504-2.41673l-.0192-.02746-.0227-.02465c-1.2985-1.40902-1.4757-2.78711-1.349-3.80704.0643-.51795.2085-.95086.3365-1.25341.0638-.15079.1229-.26769.1647-.34483.0209-.03852.0375-.06698.048-.08464l.0111-.01824.0016-.00262v-.00002l.0001-.00019.6185-.95584-1.1238.19287c-3.4988.6005-5.1199,2.82578-5.8448,4.87276-.3594,1.01464-.5009,1.98694-.5535,2.70254-.0264.3588-.0306.6559-.0281.8652.0013.1047.0042.1876.0069.2455.0014.0289.0027.0516.0037.0677zM30.25,15.485h-3.5v2.765h3.5v-2.765zM26.75,30V19.25h3.5V30c0,.9689-.7811,1.75-1.75,1.75s-1.75-.7811-1.75-1.75zM18,7.25c-.9665,0-1.75.7835-1.75,1.75s.7835,1.75,1.75,1.75,1.75-.7835,1.75-1.75S18.9665,7.25,18,7.25zM15.25,9c0-1.51878,1.2312-2.75,2.75-2.75S20.75,7.48122,20.75,9c0,1.5188-1.2312,2.75-2.75,2.75S15.25,10.5188,15.25,9zm-4.75,2.75c-.9665,0-1.75.7835-1.75,1.75s.7835,1.75,1.75,1.75,1.75-.7835,1.75-1.75-.7835-1.75-1.75-1.75zM7.75,13.5c0-1.5188,1.23122-2.75,2.75-2.75,1.5188,0,2.75,1.2312,2.75,2.75s-1.2312,2.75-2.75,2.75c-1.51878,0-2.75-1.2312-2.75-2.75zm7,13.5c0-.9665.7835-1.75,1.75-1.75s1.75.7835,1.75,1.75-.7835,1.75-1.75,1.75-1.75-.7835-1.75-1.75zm1.75-2.75c-1.5188,0-2.75,1.2312-2.75,2.75s1.2312,2.75,2.75,2.75,2.75-1.2312,2.75-2.75-1.2312-2.75-2.75-2.75zm1.9188-20.98481C11.1983,3.06333,5.11297,8.06341,3.60699,14.7705l-.00035.0015c-.40944,1.8514.78994,3.5487,2.51162,4.0945,2.73639.8747,4.63154,3.1948,4.63154,5.8835,0,.7583-.1516,1.4848-.438,2.1396h-.0001l-.0021.0051c-.72285,1.7038-.0829,3.7623,1.6448,4.5639l.0024.0011c1.8368.8405,3.8879,1.2903,6.028,1.2903,2.1445,0,4.3166-.4966,6.2117-1.382l-.4233-.906c-1.7649.8246-3.7928,1.288-5.7884,1.288-1.9993,0-3.9077-.42-5.6106-1.1991-1.1807-.5485-1.6805-1.9979-1.1451-3.2632.3428-.7845.5207-1.647.5207-2.5377,0-3.1911-2.24448-5.8509-5.32775-6.8363l-.00119-.0004c-1.30774-.4143-2.11799-1.6564-1.83799-2.9245C5.98715,8.73638,11.6613,4.07695,18.3903,4.26479c1.9079.05789,3.7296.52033,5.3938,1.31627l.4315-.90213C22.43,3.82495,20.4719,3.3274,18.42,3.26523l-.0012-.00004z"/></svg>