<svg width="36" height="36" viewBox="0,0,36,36" xmlns="http://www.w3.org/2000/svg"><path fill-rule="evenodd" clip-rule="evenodd" d="m20.25,7.50037c0,1.242-1.0065,2.25-2.25,2.25s-2.25-1.008-2.25-2.25c0-1.2435,1.0065-2.25,2.25-2.25s2.25,1.0065,2.25,2.25zm0,10.50003c0,1.242-1.0065,2.25-2.25,2.25s-2.25-1.008-2.25-2.25c0-1.2435,1.0065-2.25,2.25-2.25s2.25,1.0065,2.25,2.25zM18,30.7496c1.2435,0,2.25-1.0065,2.25-2.25,0-1.242-1.0065-2.25-2.25-2.25s-2.25,1.008-2.25,2.25c0,1.2435,1.0065,2.25,2.25,2.25z"/><path d="m18,10.2504c1.5199,0,2.75-1.23211,2.75-2.75003h-1c0,.96607-.7829,1.75-1.75,1.75v1.00003zm-2.75-2.75003c0,1.51792,1.2301,2.75003,2.75,2.75003V9.25037c-.9671,0-1.75-.78393-1.75-1.75h-1zm2.75-2.75c-1.5196,0-2.75,1.23035-2.75,2.75h1c0-.96736.7826-1.75,1.75-1.75v-1zm2.75,2.75c0-1.51965-1.2304-2.75-2.75-2.75v1c.9674,0,1.75.78264,1.75,1.75h1zM18,20.7504c1.5199,0,2.75-1.2321,2.75-2.75h-1c0,.966-.7829,1.75-1.75,1.75v1zm-2.75-2.75c0,1.5179,1.2301,2.75,2.75,2.75v-1c-.9671,0-1.75-.784-1.75-1.75h-1zm2.75-2.75c-1.5196,0-2.75,1.2303-2.75,2.75h1c0-.9674.7826-1.75,1.75-1.75v-1zm2.75,2.75c0-1.5197-1.2304-2.75-2.75-2.75v1c.9674,0,1.75.7826,1.75,1.75h1zm-1,10.4992c0,.9674-.7826,1.75-1.75,1.75v1c1.5196,0,2.75-1.2303,2.75-2.75h-1zm-1.75-1.75c.9671,0,1.75.784,1.75,1.75h1c0-1.5179-1.2301-2.75-2.75-2.75v1zm-1.75,1.75c0-.966.7829-1.75,1.75-1.75v-1c-1.5199,0-2.75,1.2321-2.75,2.75h1zm1.75,1.75c-.9674,0-1.75-.7826-1.75-1.75h-1c0,1.5197,1.2304,2.75,2.75,2.75v-1z"/></svg>