<svg width="36" height="36" xmlns="http://www.w3.org/2000/svg"><path fill-rule="evenodd" clip-rule="evenodd" d="m16.75,4.5v6h1v-6h-1zm-8.5,10.75h-.5V21c0,4.4977,3.1277,8.2667,7.3262,9.25H6v1h22.5v-1h-9.0762c3.3059-.7743,5.9479-3.2757,6.9219-6.5H28.5c1.5181,0,2.75-1.2319,2.75-2.75s-1.2319-2.75-2.75-2.75h-1.75v-3H8.25zm20.25,7.5h-1.9109c.1056-.5672.1609-1.1522.1609-1.75v-1.75h1.75c.9659,0,1.75.7841,1.75,1.75s-.7841,1.75-1.75,1.75zM8.75,21v-4.75h17V21c0,4.6934-3.8066,8.5-8.5,8.5s-8.5-3.8066-8.5-8.5zm12.5-9V6h1v6h-1zm-9.0007-6v6h1V6h-1z"/></svg>