<svg width="24" height="24" viewBox="0,0,24,24" xmlns="http://www.w3.org/2000/svg"><path fill-rule="evenodd" clip-rule="evenodd" d="m3,3v4.5c0,.41334.11989,1.02223.49423,1.54215.32046.44509.81234.80161,1.50577.91772V21h1V9.95987c.69343-.11611,1.18531-.47263,1.50577-.91772C7.88011,8.52223,8,7.91334,8,7.5V3H7v4.5c0,.25332-.08011.64443-.30577.95785C6.48693,8.74577,6.13704,9,5.5,9s-.98693-.25423-1.19423-.54215C4.08011,8.14443,4,7.75332,4,7.5V3H3zm2,0v5h1V3H5zm5.5,0H10v18h1v-8h2V6c0-1.00249-.116-1.79519-.5534-2.32009C11.982,3.12233,11.2767,3,10.5,3zm1.5,9h-1V4.02694c.3734.04711.5615.15294.6784.29315C11.866,4.54519,12,5.00249,12,6v6zm4.5018-7.34397C16.2018,5.10604,16,5.75652,16,6.5s.2018,1.39396.5018,1.84397c.3023.4535.6651.65603.9982.65603s.6959-.20253.9982-.65603C18.7982,7.89396,19,7.24348,19,6.5s-.2018-1.39396-.5018-1.84397C18.1959,4.20253,17.8331,4,17.5,4s-.6959.20253-.9982.65603zm-.832-.5547C16.0913,3.46904,16.7285,3,17.5,3s1.4087.46904,1.8302,1.10133C19.7541,4.73711,20,5.58663,20,6.5s-.2459,1.76289-.6698,2.39867c-.3265.48985-.7826.88172-1.3302,1.03342V21h-1V9.93209c-.5476-.1517-1.0037-.54357-1.3302-1.03342C15.2459,8.26289,15,7.41337,15,6.5s.2459-1.76289.6698-2.39867z"/></svg>