<svg width="36" height="36" viewBox="0,0,36,36" xmlns="http://www.w3.org/2000/svg"><path fill-rule="evenodd" clip-rule="evenodd" d="m9.4824,3.25h17.0352l.1484.22265,6,8.99995.1976.2964-.2155.2835-14.25,18.75L18,32.3263l-.3981-.5238-14.24998-18.75-.21551-.2835.19756-.2964,6-8.99995L9.4824,3.25zm-4.79814,9,4.89032-7.33548L11.7554,12.25H4.68426zM16.7397,29.0154,4.75801,13.25h7.29469l4.687,15.7654zM31.242,13.25,19.2603,29.0154,23.9473,13.25h7.2947zm-4.8166-8.33548L31.3157,12.25h-7.0711l2.1808-7.33548zM18.8983,4.25h6.6814l-2.1665,7.2874L18.8983,4.25zm-1.7959,0-4.5153,7.2885L10.4203,4.25h6.6821zm-3.7797,8,4.6776-7.5506,4.678,7.5506h-9.3556zM18,29.7454,22.904,13.25h-9.8081L18,29.7454z"/></svg>