<svg width="24" height="24" viewBox="0,0,24,24" xmlns="http://www.w3.org/2000/svg"><path fill-rule="evenodd" clip-rule="evenodd" d="m2.5,3H2v14h8v2H7v1h9v-1h-3v-2h8V3H2.5zM12,17h-1v2h1v-2zm-9-1V4h17v12H3zm6.20892-3.7833C9.08988,12.3952,9,12.6707,9,13s.08988.6048.20892.7833c.12137.1821.23413.2167.29108.2167s.16971-.0346.29108-.2167C9.91012,13.6048,10,13.3293,10,13s-.08988-.6048-.20892-.7833C9.66971,12.0346,9.55695,12,9.5,12s-.16971.0346-.29108.2167zm-.83205-.5547C8.61743,11.3012,9.00467,11,9.5,11s.8826.3012,1.1231.662c.2429.3643.3769.8388.3769,1.338s-.134.9737-.3769,1.338c-.2405.3608-.62777.662-1.1231.662s-.88257-.3012-1.12313-.662C8.13398,13.9737,8,13.4992,8,13s.13398-.9737.37687-1.338zM13,7c0-.32927.0899-.60475.2089-.78331C13.3303,6.03464,13.443,6,13.5,6s.1697.03464.2911.21669C13.9101,6.39525,14,6.67073,14,7s-.0899.60475-.2089.78331C13.6697,7.96536,13.557,8,13.5,8s-.1697-.03464-.2911-.21669C13.0899,7.60475,13,7.32927,13,7zm.5-2c-.4953,0-.8826.30115-1.1231.66199C12.134,6.02632,12,6.50084,12,7s.134.97368.3769,1.33801C12.6174,8.69885,13.0047,9,13.5,9s.8826-.30115,1.1231-.66199C14.866,7.97368,15,7.49916,15,7s-.134-.97368-.3769-1.33801C14.3826,5.30115,13.9953,5,13.5,5zM6,5v4H5V5h1zm4,4V5H9v4h1zm7,6h1v-4h-1v4zM6,11v4H5v-4h1zm12-2V5h-1v4h1zm-4,6h-1v-4h1v4z"/></svg>