<svg width="24" height="24" viewBox="0,0,24,24" xmlns="http://www.w3.org/2000/svg"><path fill-rule="evenodd" clip-rule="evenodd" d="m22.5,0h-21C.675,0,0,.675,0,1.5v21c0,.825.675,1.5,1.5,1.5h21c.825,0,1.5-.675,1.5-1.5v-21c0-.825-.675-1.5-1.5-1.5z" fill="#2d327d"/><path fill-rule="evenodd" clip-rule="evenodd" d="m12.48,12.6001h-1.275c-.96,1.665-2.22003,3.84-2.83503,4.9125-.21.36-.0825.8175.2775,1.0275l4.09503,2.3625c.36.21.8175.0825,1.0275-.2775l2.3325-4.035-3.0675-.2325-.555-3.7575z" fill="#fff"/><path fill-rule="evenodd" clip-rule="evenodd" d="m20.88,4.0125-1.6875-.975c-.1275-.06-.2925-.015-.36.1125-.03.0525-.045.1125-.0375.165v.0075c.015.12749-.0675.255-.1875.3l-.045.01499c-.0675.015-.135.06001-.1725.1275-.0225.0375-.09.21-.0975.225-.0375.1125,0,.24.105.315-.18.255-1.365,1.98-1.9575,3-.645,1.11001-3.045,1.4925-4.1625,3.42751-.105.1875-.255.4425-.435.75H13.44l.555,3.8325,2.715.2025.96-1.665c1.1175-1.935.2475-4.20751.8925-5.31751.5925-1.0275,1.485-2.91,1.62-3.195.1125.0525.2475.0225.3225-.0675.015-.015.1275-.1575.15-.195.0375-.0675.045-.1425.03-.2175l-.0075-.045c-.0225-.1275.045-.2625.165-.315h.0075c.0525-.0225.0975-.06.1275-.1125.06-.135.0225-.29249-.0975-.37499z" fill="#fff"/><path fill-rule="evenodd" clip-rule="evenodd" d="m4.07998,9.12004c-.01499-.0225-.03-.0525-.04499-.075-.33001-.57-.66001-1.1325-.99-1.7025-.06001-.105-.0675-.21,0-.315.1725-.2925.345-.5925.5175-.8925.0075-.0075.0075-.015.015-.0225-.18-.105-.3525-.21-.5325-.315v-.0075h.03,1.68c.015,0,.03,0,.045.0225.285.495.5775.99.8625,1.4775,0,.0075.0075.0075.015.0225-.1875-.105-.36-.21-.54-.315-.0075.015-.015.0225-.0225.03-.32251.5625-.645,1.1175-.96751,1.68-.0675.12-.0975.2475-.06.3825,0,.015,0,.0225-.0075.03,0,0,0-.0075,0,0z" fill="#fff"/><path fill-rule="evenodd" clip-rule="evenodd" d="m9.07497,4.0725c.18-.105.3525-.2025.54-.3075-.0075.015-.0075.0225-.015.03-.2775.4875-.5625.975-.84,1.4625-.0075.015-.015.0225-.0375.0225-.57,0-1.14,0-1.71.0075-.0075,0-.0075,0-.0225,0,.18-.105.36-.21.5325-.315-.0075-.015-.015-.0225-.0225-.0375-.315-.555-.6375-1.11-.9525-1.665-.075-.1275-.1725-.2175-.315-.255-.0075,0-.0075-.0075-.015-.0075.015,0,.03,0,.0375,0,.645,0,1.29,0,1.935-.0075.06,0,.12,0,.1725.0075.0825.015.135.0675.18.135.1725.3075.345.6075.525.915,0,.0075,0,.0075.0075.015z" fill="#fff"/><path fill-rule="evenodd" clip-rule="evenodd" d="m7.88251,9.94496V10.56h-.0075c-.0075-.0075-.0075-.015-.015-.0225-.2775-.4875-.5625-.97504-.84-1.46254-.0075-.015-.015-.0225,0-.045.285-.495.57-.9975.855-1.4925,0,0,.0075-.0075.0075-.015,0,.21,0,.4125,0,.6225.015,0,.03,0,.0375,0,.645,0,1.29,0,1.9275,0,.1425,0,.26999-.045.37499-.1425,0,0,.0075-.0075.015-.015-.0075.015-.015.03-.0225.0375-.32249.5625-.64499,1.125-.96749,1.6875-.03.0525-.06.0975-.0975.1425-.0525.06-.12.0825-.195.0825-.1725,0-.345,0-.5175,0s-.345,0-.5175,0c-.0075.0075-.0225.0075-.0375.0075z" fill="#fff"/><path fill-rule="evenodd" clip-rule="evenodd" d="m6.5925,8.15259v1.785H6.555c-.4125,0-.8325.0075-1.245,0-.375-.015-.66-.1875-.8175-.5325-.0675-.15-.105-.3075-.075-.4725.0075-.0525.0225-.0975.045-.1425.1125-.2025.2325-.405.3525-.6075.0075-.0225.0225-.0225.045-.0225.57,0,1.1325,0,1.7025,0,.0075-.0075.015-.0075.03-.0075z" fill="#fff"/><path fill-rule="evenodd" clip-rule="evenodd" d="m8.19751,6.31511c.51-.3,1.0275-.5925,1.5375-.8925.0075.015.015.0225.0225.03.21.36.42749.7125.62249,1.0725.1425.255.165.5325.045.8025-.0825.1875-.21.3375-.39.4425-.07499.045-.15749.0675-.23999.0675-.225,0-.4575,0-.6825,0-.015,0-.03,0-.0375-.0225-.285-.495-.57-.99-.855-1.4925-.015.0075-.015,0-.0225-.0075z" fill="#fff"/><path fill-rule="evenodd" clip-rule="evenodd" d="m4.26001,4.77009c.0525-.0975.105-.1875.1575-.285.1575-.2775.315-.555.4725-.8325.1425-.24.3525-.3825.63-.4275.2175-.03.42.0075.615.1125.075.045.135.0975.1725.1725.1125.195.225.3975.345.5925.0075.015.015.03,0,.045-.285.495-.5625.99-.8475,1.485,0,.0075-.0075.015-.015.0225-.5025-.2925-1.02-.585-1.53-.885z" fill="#fff"/></svg>