<svg width="24" height="24" viewBox="0,0,24,24" xmlns="http://www.w3.org/2000/svg"><path fill-rule="evenodd" clip-rule="evenodd" d="m22.5,0h-21C.675,0,0,.675,0,1.5v21c0,.825.675,1.5,1.5,1.5h21c.825,0,1.5-.675,1.5-1.5v-21c0-.825-.675-1.5-1.5-1.5z" fill="#2d327d"/><path fill-rule="evenodd" clip-rule="evenodd" d="m6.0375,14.895c-.675-1.005-1.7025-1.6875-2.8875-1.92l-.15.8025,3.795,4.0575c.0975-1.035-.165-2.0625-.7575-2.94z" fill="#fff"/><path fill-rule="evenodd" clip-rule="evenodd" d="m15.765,16.005c1.23-.825,2.7075-1.1325,4.1625-.87l.4875-2.475L7.53003,15.345c.3975.99.5025,2.0775.2925,3.15L13.38,19.5825c.2925-1.47,1.14-2.745,2.385-3.5775z" fill="#fff"/><path fill-rule="evenodd" clip-rule="evenodd" d="m6.95999,14.2799c.0075.015.0225.03.03.045L13.44,12.9824,4.09499,8.18994l-.7275,3.69746c1.4775.2925,2.7525,1.14,3.5925,2.3925z" fill="#fff"/><path fill-rule="evenodd" clip-rule="evenodd" d="m20.6475,11.475L21,9.65998,4.44,6.41248l-.1275.645,10.86,5.55752,5.475-1.14z" fill="#fff"/><path fill-rule="evenodd" clip-rule="evenodd" d="m14.595,19.3049,4.965-2.2875.1575-.8025c-2.2575-.3975-4.44.9525-5.1225,3.09z" fill="#fff"/></svg>