<svg width="36" height="36" viewBox="0,0,36,36" xmlns="http://www.w3.org/2000/svg"><path fill-rule="evenodd" clip-rule="evenodd" d="m9.26337,6.25049h9.69333l.1464.14644,7.5,7.49997.1465.1465v15.7071H9.24927l.0138-23.00031.0003-.4997zm.99943,1-.0129,21.50001h15.4997v-14h-7.4997V7.25049h-7.9871zm8.9871.70747,5.7926,5.79254h-5.7926V7.95796zm-6.248,16.65034v-1.2735h.8415c.2745,0,.4725.0405.594.123.1665.1095.2505.279.2505.504,0,.2235-.072.393-.2175.507-.117.0915-.309.1395-.573.1395h-.8955zm.8505-2.1045h-1.8525v4.497h1.002v-1.6215h1.0305c.2625,0,.4845-.024.6645-.075s.3405-.132.4815-.2475c.33-.2685.4965-.6375.4965-1.107,0-.5295-.201-.9255-.6-1.188-.1455-.096-.3075-.1635-.486-.2025-.18-.036-.4245-.0555-.7365-.0555zm3.3734.831v1.2735h.8955c.264,0,.456-.048.573-.1395.1455-.114.2175-.2835.2175-.507,0-.225-.084-.3945-.2505-.504-.1215-.0825-.3195-.123-.594-.123h-.8415zm-1.002-.831h1.8525c.312,0,.5565.0195.7365.0555.1785.039.3405.1065.486.2025.399.2625.6.6585.6,1.188,0,.4695-.1665.8385-.4965,1.107-.141.1155-.3015.1965-.4815.2475s-.402.075-.6645.075h-1.0305v1.6215h-1.002v-4.497zM24,23.3351v-.8309h-3.7845v.8309h1.3875v3.6661h1.002v-3.6661H24z"/></svg>