<svg width="24" height="24" viewBox="0,0,24,24" xmlns="http://www.w3.org/2000/svg"><path fill-rule="evenodd" clip-rule="evenodd" d="m6.01018,4H12.707l.1464.14645,5,5,.1464.14644V20H5.99951l.00034-.5003.01-15.00003L6.01018,4zm.99933,1-.00933,14h9.99962v-9h-5V5H7.00951zM12.9998,5.70711,16.2927,9h-3.2929V5.70711zM9.06984,15.0001H7.99985v2.59h1.07999c.1791.0019.35755-.0217.53-.07.13966-.0515.26607-.1335.37-.24.25216-.2711.38856-.6299.37996-1,.01-.1858-.0206-.3714-.0897-.5441-.069-.1727-.1749-.3283-.31025-.4559-.10739-.1003-.23794-.1725-.38001-.21-.16482-.052-.33726-.0757-.51-.07zm-.49,2.16v-1.67l.42001.02c.10517-.0076.2108.0062.31048.0406.09969.0343.19138.0886.26951.1594.13905.1754.20689.3968.19001.62.01328.2414-.06132.4794-.21.67-.06297.0707-.14179.1255-.23001.16-.10957.0136-.22042.0136-.32999,0h-.42001zM11.9996,14.9c.3314-.0059.6515.12.89.35.1276.1329.2278.2896.2947.4612s.0993.3547.0953.5388c.013.3388-.0931.6714-.3.94-.12.1479-.2729.2656-.4465.3437-.1737.0782-.3632.1146-.5535.1063-.1908.0055-.3803-.0331-.5538-.1129s-.3261-.1986-.4462-.3471c-.1995-.268-.3018-.596-.29-.93-.0081-.1837.0214-.3672.0868-.5392.0653-.172.1651-.3288.2932-.4608.1236-.1178.2696-.2095.4294-.2697.1598-.0601.3301-.0874.5006-.0803zm-.0152.48c-.0949.0012-.1884.023-.274.0642-.0902.0434-.1692.107-.2308.1858-.1428.1894-.2137.4233-.2.66-.0161.2402.0549.4781.2.67.0634.0728.1419.1309.23.17.0963.0479.2026.0719.31.07.0944.0019.1879-.0169.2743-.0549.0863-.038.1634-.0943.2257-.1651.1493-.1979.2237-.4424.21-.69.0137-.2367-.0571-.4706-.2-.66-.0669-.0906-.157-.1616-.2608-.2056-.1038-.0439-.2174-.0593-.3292-.0444h.0448zm3.7356,1.9199c.1694-.1991.2679-.4489.28-.71l-.65-.01c-.0045.1685-.0723.3292-.19.45-.0529.0545-.1169.097-.1876.1246-.0708.0276-.1466.0396-.2224.0354-.1129.0053-.2251-.0209-.3239-.0757-.0989-.0547-.1807-.1358-.2361-.2343-.1024-.1828-.1509-.3908-.14-.6-.0096-.2059.039-.4104.14-.59.0455-.0866.1099-.1619.1886-.2201.0786-.0583.1694-.098.2655-.1163.0962-.0182.1952-.0146.2897.0108.0945.0253.1821.0717.2562.1356.1057.0853.1768.2061.2.34h.57c-.0123-.2188-.1049-.4253-.26-.58-.1123-.1229-.2502-.2198-.404-.2837s-.3197-.0934-.486-.0863c-.1767-.008-.3528.0238-.5156.093-.1627.0692-.3077.1741-.4244.307-.2468.273-.3761.6323-.36,1-.0112.3416.0947.6767.3.95.1194.1479.2725.265.4465.3415.174.0766.3638.1103.5535.0985.1705.0095.341-.0197.4986-.0855s.2983-.1665.4114-.2945z"/></svg>