<svg width="36" height="36" viewBox="0,0,36,36" xmlns="http://www.w3.org/2000/svg"><path fill-rule="evenodd" clip-rule="evenodd" d="m18.9438,6.24609.1466.14655,7.5135,7.50896.1466.1465v15.7072H9.25049V6.2558l.4995-.0005,8.98651-.009.2073-.00021zM10.2505,7.2548v21.5005h15.5V14.7557h-7.4988l-.0009-.4991-.0126-7.0098-7.9877.008zm8.989.70059,5.8037,5.80031h-5.7933l-.0104-5.80031zm.5859,8.79421h-.2071l-.1465.1464-2.8535,2.8536h-2.8729v4h2.8724l2.8535,2.862.1475.148.2089-.001,1.92-.009.4977-.0023v-9.9977h-2.42zm-2.6465,3.8536,2.8536-2.8536h1.2129v8.0023l-1.2135.0057-2.8525-2.861-.1465-.147h-2.2875v-2h2.2871l.1464-.1464z"/></svg>