<svg width="36" height="36" viewBox="0,0,36,36" xmlns="http://www.w3.org/2000/svg"><path fill-rule="evenodd" clip-rule="evenodd" d="m9.26337,6.25049h9.69333l.1464.14644,7.5,7.49997.1465.1465v15.7071H9.24927l.0138-23.00031.0003-.4997zm.99943,1-.0129,21.50001h15.4997v-14h-7.4997V7.25049h-7.9871zm8.9871.70747,5.7926,5.79254h-5.7926V7.95796zm2.3512,15.29184-2.4015-2.25h1.8l3,3-3,3h-1.8l2.4015-2.25h-2.8515v2.25h-1.5v-2.25h-2.85l2.4,2.25h-1.8l-3-3,3-3h1.8l-2.4,2.25h2.85v-2.25h1.5v2.25h2.8515z"/></svg>