<svg width="36" height="36" viewBox="0,0,36,36" xmlns="http://www.w3.org/2000/svg"><path fill-rule="evenodd" clip-rule="evenodd" d="m9.34912,6.34863h9.56708l.1175.11745,7.5,7.50002.1174.1174v15.5671H9.34912V6.34863zm.80198.802V28.8486h15.698V14.6455h-7.5V7.15063h-8.198zm9,.5671,6.1258,6.12577h-6.1258V7.71773zm3.3505,9.93367h-9v-.802h9v.802zm0,2.9992h-9.003v-.802h9.003v.802zM14.4137,23.7495c.2847-.1593.6467-.2358,1.0184-.0549l.0033.0016c.1989.0991.3057.272.3619.4275.0549.152.0741.3195.0796.4741.0103.2916-.0268.6393-.0599.9497-.0019.017-.0037.0339-.0054.0507-.0366.344-.065.6379-.0505.8571.0037.0548.0096.0963.016.1268.0509-.0242.1208-.0703.2102-.1476.1985-.1716.4192-.431.6594-.7268.0402-.0496.081-.1002.1223-.1514.194-.2407.3972-.4927.5867-.691.1158-.1212.2412-.2383.3712-.3265.1232-.0835.2988-.1745.5045-.1674l.0054.0002c.1888.009.3651.0536.5182.146.1556.0939.2643.2236.3359.366.1334.2651.1375.5749.1267.806-.0053.1143-.0158.2288-.025.3295l-.002.0219c-.0101.1107-.0179.2013-.0196.2792-.0003.0134-.0004.0257-.0004.0368.0148-.0046.0325-.0118.0539-.0221.1132-.0548.2483-.164.4394-.3336.0239-.0213.0487-.0434.0741-.0662.1609-.1438.3506-.3134.5542-.4568.2393-.1686.5273-.3235.8648-.3751l.0011-.0001c.5241-.0788.9588.1972,1.2195.4199.2688.2294.4412.4769.4655.5165l-.683.4203c.002.0032.0006.0013-.0039-.0047-.0237-.032-.1348-.1817-.2993-.3222-.2035-.1737-.4048-.2629-.5796-.2367-.1676.0258-.338.1072-.5232.2377-.1625.1146-.3139.2496-.4771.3952-.0265.0238-.0534.0478-.0807.072-.1793.1591-.3937.3451-.6225.4557-.2519.1219-.5628.1713-.8788-.0059-.1784-.1-.2569-.2644-.2912-.3914-.0332-.1228-.0371-.2517-.0346-.3577.0025-.1096.013-.2272.0227-.3337l.0016-.0177c.0096-.1047.0185-.2025.023-.2981.01-.216-.0089-.3424-.042-.4083-.0117-.0232-.0221-.0327-.034-.0399-.013-.0078-.0461-.0234-.1158-.0297-.009.0043-.0246.0126-.0477.0282-.0619.042-.1421.1128-.2415.2168-.1638.1714-.34.3898-.5335.6296-.0433.0538-.0875.1086-.1327.1642-.2357.2903-.4978.6035-.7574.828-.1304.1127-.2783.2194-.4392.2871-.1643.0691-.3668.1072-.5786.0401-.217-.0684-.3513-.2257-.4264-.3875-.0703-.1515-.0967-.3207-.1068-.4723-.0201-.3024.0187-.6709.0532-.9952l.0021-.0199c.0358-.3372.0674-.6342.0592-.8672-.0041-.1131-.0171-.1847-.0307-.2251-.0616-.0187-.1335-.0111-.2393.0481-.1393.078-.2925.2251-.4432.4156-.1469.1856-.272.3873-.3615.5458-.0443.0785-.079.1446-.1022.1905-.0116.0229-.0203.0406-.026.0522l-.006.0127-.0012.0025-.0001.0002c0-.0001.0001-.0002-.3636-.1692-.3636-.169-.3636-.1691-.3635-.1692l.0001-.0002.0002-.0006.0008-.0017.0026-.0054.0089-.0186c.0076-.0156.0184-.0377.0324-.0652.0278-.055.0682-.1319.1193-.2225.1014-.1795.2494-.4196.4308-.6489.1776-.2244.4079-.4653.6805-.6178zm1.3075,2.8518s.0006-.0001.0017,0c-.0012.0001-.0018.0001-.0017,0z"/></svg>