<svg width="24" height="24" viewBox="0,0,24,24" xmlns="http://www.w3.org/2000/svg"><path fill-rule="evenodd" clip-rule="evenodd" d="m4.49578,6.99807,15.00292-.001h.0001c.8294,0,1.5.67218,1.5,1.5h.001v7.50053h.999v1h-.999v1.0005h-1.0012c-.0006,1.1049-.8964,1.999-2,1.999s-1.9995-.8941-2-1.999H7.99858c-.00054,1.1049-.89641,1.999-2,1.999s-1.99946-.8941-2-1.999H2.99789l-.00022-1.0005h-.99889v-1h.99867l-.00167-7.49942v-.00011c0-.82813.67184-1.49998,1.49997-1.5h.00003zM17.9986,18.9971c-.5518,0-.9995-.4468-1-.999h2c-.0006.5522-.4483.999-1,.999zm-12.00002,0c-.55174,0-.99946-.4468-1-.999h2c-.00054.5522-.44826.999-1,.999zM19.4988,7.99707l-15.00299.001h-.00003c-.27583,0-.49995.2241-.5.49992v.00008l.00189,8.50003h1.00111V12.998h4v4.0001H19.9998V8.49707h-.001c0-.27617-.2235-.49998-.5-.5zM7.99878,16.9981V13.998h-2v3.0001h2zM5.49898,8.99707h-.5v3.00003H19V8.99707H5.49898zM5.99898,10.9971V9.99707H18v1.00003H5.99898zM9.99898,12.998H19v3H9.99898v-3zm1.00002,1v1H18v-1h-7.001z"/></svg>