<svg width="59" height="20" viewBox="0,0,59,20" xmlns="http://www.w3.org/2000/svg"><path fill-rule="evenodd" clip-rule="evenodd" d="m2,0C.89543,0,0,.895431,0,2v16c0,1.1046.895431,2,2,2h55c1.1046,0,2-.8954,2-2V2c0-1.104569-.8954-2-2-2H2z" fill="#eb0000"/><path fill-rule="evenodd" clip-rule="evenodd" d="m8.28651,15.8h5.28839l3.4284-3.5075H9.13802l1.77028-1.7744h7.9325l1.8151-1.77812h-7.9326l1.7479-1.79874h7.9344l2.7095-2.7412H12.5889c-.2828-.01567-.5638.05417-.8067.20048l-.2465.18175-.2689.22297L4.43228,11.6629c-.15021.1762-.23702.3979-.24649.6296-.00724.1934.06658.3809.20354.5171l.42576.3823,2.57508,2.0479.38095.3354.31558.1574c.03419.002.06773.0103.09897.0243.02719.0096.05241.0211.07564.0318.00868.0039.01707.0078.0252.0113zm24.82839-3.1253V4.20004h-5.8467L15.7261,15.8h5.3574l8.4685-8.49901V15.8h5.8485L46.9632,4.20004h-5.4004l-8.4479,8.47466z" fill="#fff"/></svg>