<svg width="24" height="24" xmlns="http://www.w3.org/2000/svg"><path fill-rule="evenodd" clip-rule="evenodd" d="m22.5,0h-21C.675,0,0,.675,0,1.5v21c0,.825.675,1.5,1.5,1.5h21c.825,0,1.5-.675,1.5-1.5v-21c0-.825-.675-1.5-1.5-1.5z" fill="#237f52"/><path fill-rule="evenodd" clip-rule="evenodd" d="m8.4225,3.02249-1.23.375L7.2,7.72499l1.4625-.45c.1875-.06.3075-.225.315-.42L9,3.44249c0-.045-.0075-.09-.015-.1275-.0825-.2325-.33-.3675-.5625-.2925z" fill="#fff"/><path fill-rule="evenodd" clip-rule="evenodd" d="m11.9326,16.35c-.1125-.1575-.3075-.225-.495-.1725l-1.4625.45,2.415,3.585,1.23-.375c.2325-.0675.3675-.3225.2925-.555-.015-.045-.03-.0825-.06-.12l-1.92-2.8125z" fill="#fff"/><path fill-rule="evenodd" clip-rule="evenodd" d="m8.57254,17.1976c-.87-1.3425-1.5525-2.7975-2.025-4.3275s-.72-3.12004-.75-4.71755l.885-.27-.0075-4.3275-1.26.3825c-.6225.195-1.125.645-1.3875,1.245-1.1775,2.7225-1.3425,5.77505-.4725,8.60255.87,2.835,2.715,5.265,5.22,6.8625.5475.3525,1.2225.4425,1.84496.2475l1.26-.39-2.41496-3.585-.8925.2775z" fill="#fff"/><path fill-rule="evenodd" clip-rule="evenodd" d="m16.8675,6.105c-.8625,0-1.3725-.675-1.3725-1.5375,0-.975.6-1.5675,1.3725-1.5675.84,0,1.365.69,1.365,1.575,0,.945-.6,1.53-1.365,1.53zM16.86,3.5025c-.5775,0-.8025.48-.8025,1.0725,0,.495.21,1.05.8025,1.05.54,0,.8025-.48.8025-1.05,0-.7575-.4125-1.0725-.8025-1.0725z" fill="#fff"/><path fill-rule="evenodd" clip-rule="evenodd" d="m12.7275,5.09245c0,.2925.21,1.0125,1.2675,1.0125.9975,0,1.2-.5925,1.2-.96,0-.495-.345-.765-.7575-.8325-.09-.015-.3375-.0525-.4275-.0675-.3225-.045-.615-.0525-.615-.345,0-.27.2475-.4125.57-.4125.3075,0,.615.12.6375.48h.5775c-.015-.3-.2325-.96-1.2075-.96-.615,0-1.125.3225-1.125.945,0,.6525.6075.78,1.02.84.09.0075.2925.0375.345.045.2475.0375.4125.1575.4125.3675,0,.285-.3225.42-.6.42-.3525,0-.6975-.1425-.6975-.525l-.6-.0075z" fill="#fff"/><path fill-rule="evenodd" clip-rule="evenodd" d="m18.54,5.09245c0,.2925.21,1.0125,1.26,1.0125.9975,0,1.2-.5925,1.2-.96,0-.495-.345-.765-.7575-.8325-.09-.015-.3375-.0525-.4275-.0675-.3225-.045-.615-.0525-.615-.345,0-.27.2475-.4125.57-.4125.3075,0,.615.12.6375.48h.5775c-.015-.3-.2325-.96-1.2075-.96-.615,0-1.125.3225-1.125.945,0,.6525.6075.78,1.02.84.09.0075.2925.0375.345.045.2475.0375.4125.1575.4125.3675,0,.285-.3225.42-.6.42-.3525,0-.6975-.1425-.6975-.525l-.5925-.0075z" fill="#fff"/></svg>