<svg width="24" height="24" viewBox="0,0,24,24" xmlns="http://www.w3.org/2000/svg"><path fill-rule="evenodd" clip-rule="evenodd" d="m22.5,0h-21C.675,0,0,.675,0,1.5v21c0,.825.675,1.5,1.5,1.5h21c.825,0,1.5-.675,1.5-1.5v-21c0-.825-.675-1.5-1.5-1.5z" fill="#237f52"/><path fill-rule="evenodd" clip-rule="evenodd" d="m21,5.0625h-2.0625V3H16.785v2.0625h-2.0625V7.215h2.0625v2.0625h2.1525V7.215H21V5.0625z" fill="#fff"/><path fill-rule="evenodd" clip-rule="evenodd" d="m9.73498,10.53S10.56,8.40755,12.9825,8.63255,16.89,10.965,16.3575,13.56c-.1725.8325-.915,2.3025-2.1075,3.6825-1.4775,1.71-3.54,3.315-4.50752,3.7575-.975-.435-3.03-2.0475-4.5075-3.7575-1.1925-1.3875-1.935-2.85-2.1075-3.6825-.5475-2.595.9375-4.70245,3.36-4.92745S9.73498,10.53,9.73498,10.53zm-.135,4.7175L8.33248,18.36,11.73,14.4H9.82498l1.47752-3.1425-3.57752,3.99h1.875z" fill="#fff"/></svg>