<svg width="36" height="36" viewBox="0,0,36,36" xmlns="http://www.w3.org/2000/svg"><path fill-rule="evenodd" clip-rule="evenodd" d="m18.0001,9.25024c-3.3543,0-6.3337,1.68956-8.60517,3.55826-2.27773,1.8739-3.90101,3.9748-4.55398,4.9043l-.19813.2821.1931.2855c.57855.8553,2.20318,2.9563,4.49894,4.8494,2.28894,1.8874,5.30874,3.6204,8.66524,3.6204,3.3542,0,6.3337-1.6895,8.6051-3.5582,2.2778-1.8739,3.901-3.9748,4.554-4.9043l.1981-.2821-.1931-.2855c-.5785-.8554-2.2031-2.9563-4.4989-4.8494-2.2889-1.8874-5.3087-3.62046-8.6652-3.62046zM9.97106,22.3582c-1.97875-1.6316-3.43988-3.4278-4.10804-4.3543.72277-.9864,2.19118-2.7975,4.16718-4.4232,2.1911-1.8025,4.9491-3.3305,7.9699-3.3305,3.0185,0,5.8157,1.567,8.029,3.3921,1.9788,1.6316,3.4399,3.4278,4.108,4.3543-.7227.9864-2.1911,2.7975-4.1672,4.4231-2.191,1.8026-4.9491,3.3305-7.9698,3.3305-3.0185,0-5.8157-1.5669-8.02904-3.392zm8.02904-10.108c-3.1757,0-5.75,2.5744-5.75,5.75,0,3.1757,2.5743,5.75,5.75,5.75,3.1756,0,5.75-2.5743,5.75-5.75,0-3.1756-2.5744-5.75-5.75-5.75zm-4.75,5.75c0-2.6233,2.1266-4.75,4.75-4.75,2.6233,0,4.75,2.1267,4.75,4.75,0,2.6234-2.1267,4.75-4.75,4.75-2.6234,0-4.75-2.1266-4.75-4.75z"/></svg>