<svg width="36" height="36" viewBox="0,0,36,36" xmlns="http://www.w3.org/2000/svg"><path fill-rule="evenodd" clip-rule="evenodd" d="m9.25003,2.86691.75727.45434,3.4152,2.04915,1.974-1.97395.3535-.35356.3536.35356L18,5.29289l1.8965-1.89644.3535-.35356.3536.35356,1.9739,1.97395,3.4153-2.04915.7572-.45434V12.55c1.0343,1.1054,1.8348,2.4091,2.3527,3.8331.539,1.4825.7596,3.0618.6473,4.6351-.0048,3.1097-1.2422,6.091-3.4415,8.2903C24.105,31.5121,21.1163,32.75,18,32.75s-6.1049-1.2379-8.30849-3.4415c-2.19926-2.1993-3.43666-5.1806-3.44148-8.2903-.11227-1.5733.10828-3.1526.64735-4.6351.51782-1.424,1.31835-2.7278,2.35265-3.8332V2.86691zM9.96452,13.25c-.93456,1.0033-1.65828,2.1849-2.12735,3.4749-.49294,1.3556-.69349,2.8001-.58848,4.2387l.00133.0182V21c0,2.8511,1.13258,5.5854,3.14858,7.6014S15.1489,31.75,18,31.75s5.5854-1.1326,7.6014-3.1486S28.75,23.8511,28.75,21v-.0182l.0013-.0182c.1051-1.4386-.0955-2.8831-.5884-4.2387-.4691-1.29-1.1928-2.4716-2.1274-3.4749H9.96452zM10.25,4.6331V12.25h15.5V4.6331l-2.9927,1.79565-.3348.20085-.276-.27605L20.25,4.45711,18.3536,6.35355,18,6.70711l-.3535-.35356L15.75,4.45711,13.8536,6.35355l-.2761.27605-.3347-.20085L10.25,4.6331zM22.095,18.845c-.2872,0-.52.2328-.52.52s.2328.52.52.52.52-.2328.52-.52-.2328-.52-.52-.52zm-1.52.52c0-.8395.6805-1.52,1.52-1.52s1.52.6805,1.52,1.52-.6805,1.52-1.52,1.52-1.52-.6805-1.52-1.52zm-7.1899,0c0-.2872.2328-.52.52-.52s.52.2328.52.52-.2328.52-.52.52-.52-.2328-.52-.52zm.52-1.52c-.8395,0-1.52.6805-1.52,1.52s.6805,1.52,1.52,1.52c.8394,0,1.52-.6805,1.52-1.52s-.6806-1.52-1.52-1.52zm.6794,9.5463c-1.051-.5613-1.9474-1.373-2.61-2.3632l.8311-.5562c.5712.8537,1.344,1.5534,2.25,2.0373s1.9173.7371,2.9444.7371c1.0272,0,2.0385-.2532,2.9445-.7371s1.6788-1.1836,2.25-2.0373l.8311.5562c-.6626.9902-1.559,1.8019-2.61,2.3632s-2.2241.855-3.4156.855c-1.1914,0-2.3645-.2937-3.4155-.855z"/></svg>