<svg width="36" height="36" viewBox="0,0,36,36" xmlns="http://www.w3.org/2000/svg"><path fill-rule="evenodd" clip-rule="evenodd" d="m10.254,13.25c-.0027.083-.004.1664-.004.25,0,.665-.2356,1.2746-.62801,1.75H26.3785c-.3926-.4753-.6285-1.0849-.6285-1.75,0-.0836-.0013-.167-.004-.25H19.5v-1h6.1497C25.052,8.56373,21.854,5.75,18,5.75c-3.8553,0-7.0522,2.81369-7.6498,6.5H16.5v1h-6.246zm18.246,2c-.9661,0-1.75-.7829-1.75-1.75,0-4.8332-3.9184-8.75-8.75-8.75-4.8331,0-8.75,3.91686-8.75,8.75,0,.9674-.78264,1.75-1.75,1.75v1h3.1502c-.88622,1.368-1.39983,2.9991-1.39983,4.75,0,4.8316,3.91683,8.75,8.75003,8.75,4.8316,0,8.75-3.9184,8.75-8.75,0-1.7511-.5148-3.3821-1.4012-4.75H28.5v-1zm-4.3766,1H11.8758c-1.0199,1.3119-1.6254,2.9588-1.6254,4.75,0,4.2794,3.4692,7.75,7.75,7.75,4.2793,0,7.75-3.4706,7.75-7.75,0-1.7909-.6068-3.4379-1.627-4.75zM15,19.25c-.1379,0-.25.1121-.25.25s.1121.25.25.25.25-.1121.25-.25-.1121-.25-.25-.25zm-1.25.25c0-.6901.5599-1.25,1.25-1.25s1.25.5599,1.25,1.25-.5599,1.25-1.25,1.25-1.25-.5599-1.25-1.25zm7.25-.25c-.1379,0-.25.1121-.25.25s.1121.25.25.25.25-.1121.25-.25-.1121-.25-.25-.25zm-1.25.25c0-.6901.5599-1.25,1.25-1.25s1.25.5599,1.25,1.25-.5599,1.25-1.25,1.25-1.25-.5599-1.25-1.25zm-6.4598,4.7866c1.0381,1.4842,2.7566,2.4634,4.7103,2.4634,1.952,0,3.6721-.9791,4.7089-2.4637l-.8199-.5726c-.8592,1.2304-2.2801,2.0363-3.889,2.0363-1.6104,0-3.0299-.8058-3.8908-2.0366l-.8195.5732z"/></svg>