<svg width="48" height="48" viewBox="0,0,48,48" xmlns="http://www.w3.org/2000/svg"><path fill-rule="evenodd" clip-rule="evenodd" d="m7,23.5C7,13.835,14.835,6,24.5,6S42,13.835,42,23.5,34.165,41,24.5,41,7,33.165,7,23.5zM24.5,5C14.2827,5,6,13.2827,6,23.5S14.2827,42,24.5,42,43,33.7173,43,23.5,34.7173,5,24.5,5zm-7.883,24.3214c.9658,1.1512,2.1721,2.0769,3.5339,2.712,1.3619.6351,2.8464.9642,4.3491.9642s2.9872-.3291,4.3491-.9642c1.3618-.6351,2.5681-1.5608,3.5339-2.712l-.766-.6428c-.872,1.0394-1.9611,1.8751-3.1906,2.4485s-2.5697.8705-3.9264.8705-2.6969-.2971-3.9264-.8705-2.3186-1.4091-3.1906-2.4485l-.766.6428zm1.0496-12.0686c.2467-.1648.5367-.2528.8334-.2528.3978,0,.7794.158,1.0607.4393S20,18.1022,20,18.5c0,.2967-.088.5867-.2528.8334-.1648.2466-.3991.4389-.6732.5524-.2741.1136-.5757.1433-.8666.0854-.291-.0579-.5583-.2008-.7681-.4105-.2097-.2098-.3526-.4771-.4105-.7681-.0579-.2909-.0282-.5925.0854-.8666.1135-.2741.3058-.5084.5524-.6732zM18.5,18c-.0989,0-.1956.0293-.2778.0843-.0822.0549-.1463.133-.1841.2244-.0379.0913-.0478.1919-.0285.2888.0193.097.0669.1861.1368.2561.07.0699.1591.1175.2561.1368.0969.0193.1975.0094.2888-.0285.0914-.0378.1695-.1019.2244-.1841.055-.0822.0843-.1789.0843-.2778,0-.1326-.0527-.2598-.1464-.3536C18.7598,18.0527,18.6326,18,18.5,18zm12-1c-.2967,0-.5867.088-.8334.2528-.2466.1648-.4389.3991-.5524.6732s-.1433.5757-.0854.8666c.0579.291.2008.5583.4105.7681.2098.2097.4771.3526.7681.4105.2909.0579.5925.0282.8666-.0854.2741-.1135.5084-.3058.6732-.5524.1648-.2467.2528-.5367.2528-.8334,0-.3978-.158-.7794-.4393-1.0607S30.8978,17,30.5,17zm-.2778,1.0843c.0822-.055.1789-.0843.2778-.0843.1326,0,.2598.0527.3536.1464.0937.0938.1464.221.1464.3536,0,.0989-.0293.1956-.0843.2778-.0549.0822-.133.1463-.2244.1841-.0913.0379-.1919.0478-.2888.0285-.097-.0193-.1861-.0669-.2561-.1368-.0699-.07-.1175-.1591-.1368-.2561-.0193-.0969-.0094-.1975.0285-.2888.0378-.0914.1019-.1695.1841-.2244z"/></svg>