<svg width="24" height="24" viewBox="0,0,24,24" xmlns="http://www.w3.org/2000/svg"><path fill-rule="evenodd" clip-rule="evenodd" d="m5.99994,1.61691.75725.45434L8.92243,3.3704,10.1464,2.14645l.3535-.35356.3536.35356,1.1464,1.14644,1.1465-1.14644.3535-.35356.3536.35356,1.2239,1.22395,2.1653-1.29915.7572-.45434v6.68434c.6832.74288,1.2131,1.61413,1.5584,2.56385.3667,1.0085.5172,2.0828.4416,3.1531-.0048,2.1152-.8471,4.1427-2.3431,5.6387C16.1565,21.1571,14.1217,22,11.9999,22c-2.1217,0-4.15653-.8429-5.65682-2.3431-1.496-1.496-2.33832-3.5235-2.34313-5.6387-.07556-1.0703.07486-2.1446.44159-3.1531.34536-.94972.87525-1.82099,1.5584-2.56387V1.61691zM6.71599,9c-.58419.64098-1.03782,1.3906-1.33466,2.2069-.32059.8816-.45102,1.8211-.38273,2.7567l.00133.0182V14c0,1.8565.7375,3.637,2.05025,4.9497C8.36294,20.2625,10.1434,21,11.9999,21s3.637-.7375,4.9498-2.0503c1.3127-1.3127,2.0502-3.0932,2.0502-4.9497v-.0182l.0014-.0182c.0683-.9356-.0622-1.8751-.3828-2.7567-.2968-.8163-.7504-1.56592-1.3346-2.2069H6.71599zm.28395-5.6169V8h9.99996V3.3831l-1.7427,1.04565-.3348.20085-.276-.27605-1.1465-1.14644-1.1464,1.14644-.3536.35356-.3535-.35356-1.1465-1.14644L9.35349,4.35355l-.27604.27605-.33476-.20085L6.99994,3.3831zM14.7299,12.73c-.0994,0-.18.0806-.18.18s.0806.18.18.18.18-.0806.18-.18-.0806-.18-.18-.18zm-1.18.18c0-.6517.5283-1.18,1.18-1.18s1.18.5283,1.18,1.18-.5283,1.18-1.18,1.18-1.18-.5283-1.18-1.18zm-4.45993,0c0-.0994.08059-.18.18-.18s.18.0806.18.18-.08059.18-.18.18-.18-.0806-.18-.18zm.18-1.18c-.6517,0-1.18.5283-1.18,1.18s.5283,1.18,1.18,1.18c.65169,0,1.18003-.5283,1.18003-1.18s-.52834-1.18-1.18003-1.18zm.37442,6.6779c-.72481-.3871-1.34304-.9469-1.8-1.6298l.83111-.5562c.36557.5464.86015.9942,1.44,1.3039.5798.3097,1.2271.4717,1.8844.4717.6574,0,1.3047-.162,1.8845-.4717s1.0744-.7575,1.44-1.3039l.8311.5562c-.457.6829-1.0752,1.2427-1.8,1.6298s-1.5338.5896-2.3556.5896c-.8217,0-1.6307-.2025-2.35551-.5896z"/></svg>