<svg width="24" height="24" viewBox="0,0,24,24" xmlns="http://www.w3.org/2000/svg"><path fill-rule="evenodd" clip-rule="evenodd" d="m4,12.0002c0-4.47078,3.5301-7.99996,8-7.99996s8,3.52918,8,7.99996c0,4.4699-3.5301,8-8,8-4.46986,0-8-3.5301-8-8zm8-8.99996c-5.0221,0-9,3.97682-9,8.99996,0,5.0222,3.97786,9,9,9,5.0221,0,9-3.9778,9-9,0-5.02314-3.9779-8.99996-9-8.99996zm-.0002,8.99956c-2.27969,0-4.17485,1.3582-5.01223,3.3022l.91842.3956c.68662-1.594,2.23141-2.6978,4.09381-2.6978,1.8633,0,3.4071,1.1037,4.0938,2.6978l.9184-.3956c-.8374-1.944-2.7315-3.3022-5.0122-3.3022zM8,9c0-.55214.44786-1,1-1s1,.44786,1,1-.44786,1-1,1-1-.44786-1-1zm7-1c-.5521,0-1,.44786-1,1s.4479,1,1,1,1-.44786,1-1-.4479-1-1-1z"/></svg>