<svg width="24" height="24" xmlns="http://www.w3.org/2000/svg"><path fill-rule="evenodd" clip-rule="evenodd" d="m12,5.5c0-.27614.2239-.5.5-.5s.5.22386.5.5-.2239.5-.5.5-.5-.22386-.5-.5zm.5-1.5c-.8284,0-1.5.67157-1.5,1.5,0,.23154.0525.45083.1461.64663L6.14663,11.1461C5.95083,11.0525,5.73154,11,5.5,11c-.82843,0-1.5.6716-1.5,1.5S4.67157,14,5.5,14c.23157,0,.45089-.0525.64671-.1462l4.99949,4.9995c-.0937.1958-.1462.4151-.1462.6467,0,.8284.6716,1.5,1.5,1.5s1.5-.6716,1.5-1.5c0-.2316-.0525-.451-.1462-.6468l4.9994-4.9994c.1958.0937.4152.1462.6468.1462.8284,0,1.5-.6716,1.5-1.5s-.6716-1.5-1.5-1.5c-.2316,0-.4509.0525-.6467.1462l-4.9995-4.99949C13.9475,5.95089,14,5.73157,14,5.5c0-.82843-.6716-1.5-1.5-1.5zm5.5854,9H14.95c-.1989.9797-.9707,1.7514-1.9505,1.9501v3.1351c.0503.0177.0994.0381.1471.0609l4.9995-4.9995c-.0227-.0475-.043-.0964-.0607-.1466zm0-1H14.95c-.1988-.9796-.9704-1.7511-1.95-1.95V6.91465c.0502-.01774.0991-.03807.1467-.06084l4.9995,4.99949c-.0228.0476-.0431.0965-.0608.1467zm-8.0355.9995c.1987.9796.9701,1.7514,1.9496,1.9504v3.1356c-.05.0177-.0988.038-.1462.0607l-4.99949-4.9995c.02284-.0477.04323-.0968.06101-.1472h3.13508zm-3.19612-1.1463c.0227.0475.04299.0963.06069.1463h3.13563c.199-.9793.9705-1.7507,1.9499-1.9495V6.91465c-.0502-.01775-.0992-.03809-.1468-.06087L6.85378,11.8532zM12.5,11c-.8284,0-1.5.6716-1.5,1.5s.6716,1.5,1.5,1.5,1.5-.6716,1.5-1.5-.6716-1.5-1.5-1.5zm7,1c-.2761,0-.5.2239-.5.5s.2239.5.5.5.5-.2239.5-.5-.2239-.5-.5-.5zM12,19.5c0-.2761.2239-.5.5-.5s.5.2239.5.5-.2239.5-.5.5-.5-.2239-.5-.5zM5.5,12c-.27614,0-.5.2239-.5.5s.22386.5.5.5.5-.2239.5-.5-.22386-.5-.5-.5z"/></svg>