<svg width="36" height="36" viewBox="0,0,36,36" xmlns="http://www.w3.org/2000/svg"><path fill-rule="evenodd" clip-rule="evenodd" d="m20.75,10.7929,3.6465-3.64645.7071.7071-4.5,4.50005-.3536.3535-.3535-.3535-4.5-4.50005.7071-.7071L19.75,10.7929V3h1v7.7929zM4.73608,12.25H14.75v3h12v3h4.3923l-.2177.6572-3.975,12-.1135.3428H4.75033l-.00037-.4996-.0135-18-.00038-.5004zm21.01392,6v-2h-12v-3H5.73683l.01096,14.6127,3.30617-9.2805.11834-.3322H25.75zm-19.79113,12H26.1139l3.6437-11H9.87761l-3.91874,11z"/></svg>