<svg width="24" height="24" viewBox="0,0,24,24" xmlns="http://www.w3.org/2000/svg"><path fill-rule="evenodd" clip-rule="evenodd" d="m22.5,0h-21C.675,0,0,.675,0,1.5v21c0,.825.675,1.5,1.5,1.5h21c.825,0,1.5-.675,1.5-1.5v-21c0-.825-.675-1.5-1.5-1.5z" fill="#2d327d"/><path fill-rule="evenodd" clip-rule="evenodd" d="m16.23,16.6874H8.07001V2.87988H16.23V16.6874z" fill="#fff"/><path fill-rule="evenodd" clip-rule="evenodd" d="m3.15002,16.5374V3.03735h4.5V16.5374h-4.5zm3-3.15c.33,0,.6-.27.6-.6V4.98735c0-.33-.27-.6-.6-.6h-1.5c-.33,0-.6.27-.6.6v7.80005c0,.33.27.6.6.6h1.5z" fill="#fff"/><path fill-rule="evenodd" clip-rule="evenodd" d="m9.77253,17.25c0,.9975-.8025,1.8-1.8,1.8h-3.8175l1.35-1.2375h-.9l-1.575,1.575,1.575,1.575h.9l-1.35-1.2375h3.8175c1.365,0,2.47497-1.11,2.47497-2.475h-.67497z" fill="#fff"/><path fill-rule="evenodd" clip-rule="evenodd" d="m16.65,16.5374V3.03735h4.5V16.5374h-4.5zm1.5-12.15005c-.33,0-.6.27-.6.6v7.80005c0,.33.27.6.6.6h1.5c.33,0,.6-.27.6-.6V4.98735c0-.33-.27-.6-.6-.6h-1.5z" fill="#fff"/><path fill-rule="evenodd" clip-rule="evenodd" d="m14.5275,17.25c0,.9975.8025,1.8,1.8,1.8h3.8175l-1.35-1.2375h.9l1.575,1.575-1.575,1.575h-.9l1.35-1.2375h-3.8175c-1.365,0-2.475-1.11-2.475-2.475h.675z" fill="#fff"/></svg>