<svg width="36" height="36" viewBox="0,0,36,36" xmlns="http://www.w3.org/2000/svg"><path fill-rule="evenodd" clip-rule="evenodd" d="m7.24927,7.75012V6.00049h-1v1.74963H3.25V29.7501h29.5V7.75012h-2.9985V6.00049h-1v1.74963H7.24927zM25.75,14.9998v-3.2016c-1.151.2269-2,1.2256-2,2.4516,0,1.3976,1.1035,2.5,2.5,2.5,1.3979,0,2.5-1.1022,2.5-2.5,0-1.2263-.8481-2.225-2-2.4517v3.2017h-1zm-3-.75c0-1.9504,1.5515-3.5,3.5-3.5,1.9501,0,3.5,1.5498,3.5,3.5,0,1.9501-1.5499,3.5-3.5,3.5-1.9485,0-3.5-1.5497-3.5-3.5zM4.25,28.7501V8.75012h27.5V28.7501H4.25zM21,11.7505H6v-1h15v1zm-15,3h15v-1H6v1zm15,3H6v-1h15v1zM6,20.7512h15v-1H6v1zm15,3H6v-1h15v1zm-15,3h15v-1H6v1z"/></svg>