<svg width="24" height="24" viewBox="0,0,24,24" xmlns="http://www.w3.org/2000/svg"><path fill-rule="evenodd" clip-rule="evenodd" d="m12.0018,2.8511c-.2209-.29138-.4914-.51076-.7964-.65607-.5837-.27799-1.23421-.25584-1.78382-.03398-.54887.22156-1.03016.65535-1.26376,1.24566-.23877.60336-.19739,1.31584.20566,2.03733l.01551.02777.01891.02558L9.50867,7.0002H3v4h1v11h16v-11h1v-4h-6.5086l1.1108-1.50281.0166-.02241.0139-.02413c.4124-.71174.4574-1.42061.2178-2.02288-.2338-.58767-.717-1.0201-1.2653-1.24287-.5492-.22311-1.2007-.25088-1.7864.02128-.3052.14185-.5759.35739-.797.64472zM11.5,4.06853c-.1614-.55363-.4464-.83814-.7246-.97067-.2987-.14225-.6546-.14065-.97951-.00951-.32563.13144-.58697.3799-.70824.68633-.114.28808-.12427.67775.13426,1.15516L10.7522,7.0002h.7445L11.5,4.06853zm1-.00011-.0033,2.93178h.7512l1.5327-2.07364c.2622-.4653.2533-.84605.1407-1.12897-.1202-.30218-.3825-.55194-.7125-.68604-.3293-.13377-.6889-.13756-.9885.00168-.2778.12913-.5613.40797-.7203.95519zM15,11.0002v10h4v-10h-4zm-1,10h-4v-10h4v10zm1-11v-2h5v2h-5zm-1,0v-2h-4v2h4zm-5,0v-2H4v2h5zm0,11v-10H5v10h4z"/></svg>