<svg width="48" height="48" viewBox="0,0,48,48" xmlns="http://www.w3.org/2000/svg"><path fill-rule="evenodd" clip-rule="evenodd" d="m17.3957,3.51451C18.7079,3.1786,20.0831,3,21.5,3c2.5193,0,4.9067.56462,7.0426,1.57422l-.2124,2.56827-.0141.17058.0933.14343.4439.68177-1.7291.39901-4.6301-2.82349-.2448-.14931-.2525.13597L18.935,7.34911l-.0942.05072-.0652.08482L17.1531,9.5956l-.1338.17411.0376.21634.0388.22235.0896.515.5105-.1124,1.0373-.2285-.5979,1.8636-.1217.3792.3424.2034,1.1327.673.2755.1636.2638-.1819,2.9272-2.0188.1393-.0961.0523-.1609.2178-.67.5678.4397.0793.0614.0968.0261,1.2162.3275-1.1003,1.2323-2.2901,1.5395-.0399.0267-.034.0339-1.2282,1.2231-2.1175-.507-.2369-.0567-.1907.1515-1.241.9865-3.1437,1.0132-.2613.0841-.0692.2656-.3463,1.3287-.8331-.2056-.344-.0849-.1941.2964-1.0877,1.6614-.1824.2785.1866.2757.9681,1.4303.1647.2432.2925-.0253,1.1781-.1021.2065-.0179.1332-.1586.8407-1.0008,1.4897-.6111,1.2009.0667,1.0506,1.7303-.2577.4437-.0714.1228.0039.1421.0049.1775.0182.6576.6287-.1935.7878-.2424.6135-.1887-.3331-.5487-1.3654-2.2488.7186-.1601,1.0089,1.3535.4938,2.1886.0911.4034.4132-.0137.1309-.0044.2954-.0097.1338-.2636.502-.9885.7067,1.3874.1391.2731h1.2803l.6171.5853.6882-.7256-.7618-.7225-.1447-.1372h-1.0662l-.9553-1.8755-.1511-.2965-.3318.0248-.1215.0091-.2809.0211-.1275.2512-.3473.6837-.2514-1.1143-.0234-.1036-.0634-.0851-1.266-1.6983-.1935-.2596-.3161.0704-1.6477.367-1.5079-.0838-.1129-.0062-.1046.0429-1.7082.7008-.1139.0467-.0792.0943-.7865.9363-.679.0588-.617-.9114.7114-1.0864.9682.2389.4791.1182.1245-.4776.4015-1.5406,2.9691-.9568.0866-.0279.0712-.0566,1.1215-.8915,2.1522.5153.2714.065.1978-.197,1.3919-1.3861,2.3024-1.5477.0522-.0351.0419-.0469,1.6823-1.8842.5401-.6049-.7831-.2109-1.9025-.5123-1.0505-.81337-.5619-.43511-.2197.67592-.3851,1.18486-2.5241,1.7408-.5149-.3059.7419-2.31248.2657-.82808-.8493.18704-.7986.17586.9345-1.21588,2.7151-1.46197,4.5594,2.78032.174.10615.1987-.04585,2.6244-.60563.6967-.16077-.3901-.59921-.7405-1.13754.1642-1.98579c4.6808,2.60196,7.9633,7.41503,8.436,13.02753l.9965-.0839C38.1822,9.04333,30.6639,2,21.5,2,11.835,2,4,9.83502,4,19.5,4,29.165,11.835,37,21.5,37c.9268,0,1.8371-.0721,2.7256-.2111l-.1546-.988c-.8375.131-1.6961.1991-2.571.1991-6.0661,0-11.3676-3.2735-14.23443-8.1503l1.12411-1.413,2.36852-.7426.2387-.0748.0832-.2359.3283-.93,1.3656.7622.0945.0527.1078.009,2.8786.2391-.4606.9765-.2135.4527.4529.2131,3.066,1.442.1505.0708.1628-.0334,1.0512-.2157.2381-.0488.3151-.6302,2.0943.6246.0464.0138.0482.0047,1.1454.1112.0966-.9954-1.0972-.1064-2.4503-.7308-.4023-.12-.1878.3755-.2855.5711-.6503.1334-2.4627-1.1583.5546-1.1757.3075-.6519-.7183-.0597-3.4891-.2898-1.789-.9985-.5178-.289-.1973.5592-.4424,1.2533-2.27615.7136-.14628.0459-.09544.1199-.95609,1.2019C5.62904,24.6714,5,22.1592,5,19.5c0-3.4427,1.05438-6.6392,2.85784-9.2841l4.00536-.2113.1346-.00709.1128-.07381,2.7254-1.78325.1062-.06953.0602-.11181,2.3933-4.4446zm-1.3569.41071c-2.9385,1.0303-5.4969,2.86867-7.40887,5.24856l3.04597-.16068,2.5063-1.63991,1.8566-3.44797zM41.3395,44l-.5454-1H29.2059l-.5454,1h12.679zm1.1391,0-.5454-1H43v-1h-1.6123l-.5454-1H44V27.7692C44,25.6875,42.3125,24,40.2308,24h-4.3287l1.875-3H40v-1H30v1h2.2229l1.875,3h-4.3287C27.6875,24,26,25.6875,26,27.7692V41h3.1577l-.5454,1H27v1h1.0668l-.5454,1H26v1h.9759l-.4148.7606.8778.4788L28.115,45h13.77l.6761,1.2394.8778-.4788L43.0241,45H44v-1h-1.5214zm-9.0765-23L35,23.5566,36.5979,21h-3.1958zm-3.1053,20-.5454,1h10.4972l-.5454-1h-9.4064zM32,27l6,.0002v1L32,28v-1zm-5,7.1408V40h16v-5.8592H27zm16-1v-5.3716C43,26.2398,41.7602,25,40.2308,25H29.7692C28.2398,25,27,26.2398,27,27.7692v5.3716h16zM38,37c0-.5523.4477-1,1-1s1,.4477,1,1-.4477,1-1,1-1-.4477-1-1zm-7-1c-.5523,0-1,.4477-1,1s.4477,1,1,1,1-.4477,1-1-.4477-1-1-1zM15.7471,12.141l-.2334-.1843-.2734.1172-1.9924.8539-.6316.2707.4518.5176.4755.5449-.4662,1.1226-.2943.7086.7671-.017.6196-.0137.1674-.0037.1314-.1037,2.5571-2.0188.4971-.3925-.4971-.3924-1.2786-1.0094zm-1.246,1.6963-.2278-.261,1.0876-.4661.548.4326-1.4644,1.1562.1417-.3411.119-.2867-.2041-.2339zM11.8791,13.0151l.3416.4091.5059.6056.324.388-.3915.3198-.7413.6056-.3999.3267-.3136-.4102-.4374-.572-.2729-.3568.3257-.3094.6729-.6393.3865-.3671z"/></svg>