<svg width="24" height="24" viewBox="0,0,24,24" xmlns="http://www.w3.org/2000/svg"><path fill-rule="evenodd" clip-rule="evenodd" d="m2.99854,10.5c0-2.48593,1.20946-4.68938,3.07206-6.05401l.7523.46983.12155.07591h1.86258l.09685-.37495.39289-1.52101C9.68806,3.03275,10.0895,3,10.4985,3c1.1985,0,2.3313.28113,3.3363.78107l-.6714.48779-.0783.05694-.0515.08209-.6208.99083-1.9972-.35493-.2649-.04707-.18521.19509L8.35614,6.88683l-2.23232.94129-.14107.05948-.08357.12827-.75581,1.15991.62932.19744,2.31573.72648.11965.0376.12321-.0234,3.35392-.6363.2922.14765.5519,1.54315.9416-.3368-.6191-1.73099-.0672-.1879-.1781-.09-.622-.3143-.1517-.07665-.167.03168-3.3977.64459-1.49419-.46876,2.0671-.87163.09634-.04062.07199-.07582,1.49616-1.57577,2.0645.36688.3321.05902.179-.28583.7485-1.19459.9427-.68493c1.5192,1.05524,2.6298,2.65765,3.046,4.52201l.976-.21791C17.9459,4.84037,14.5545,2,10.4985,2,5.80411,2,1.99854,5.80558,1.99854,10.5c0,4.6944,3.80557,8.5,8.49996,8.5.1818,0,.3624-.0057.5414-.017l-.0628-.998c-.1581.0099-.3177.015-.4786.015-3.01872,0-5.62093-1.7835-6.81036-4.3543l1.11637-1.493,1.36289-.3315,2.32301.801.63363,1.0544.20704.3445.38095-.1282,1.54587-.52.587.1918.3106-.9505-.7446-.2433-.1576-.0515-.1571.0528-1.32207.4448-.52026-.8657-.09367-.1559-.1719-.0592-2.63357-.9082-.13865-.0478-.14252.0347-1.68003.4086-.17464.0425-.10762.144-.83551,1.1173c-.18063-.6448-.27722-1.3248-.27722-2.0273zm4.23252-6.50827-.21643-.13516c.37597-.19758.77078-.36417,1.18102-.49639l-.16314.63155h-.80145zM20,10h-5v1h2v1h-1.9615C13.9127,12,13,12.9127,13,14.0385V20h1.2615l-.7257,1.8143.9284.3714L15.3385,20h4.323l.8743,2.1857.9284-.3714L20.7385,20H22v-5.9615C22,12.9126,21.0873,12,19.9615,12H18v-1h2v-1zm-6,9v-3h7v3h-7zm7-4.9615V15h-7v-.9615C14,13.4649,14.4649,13,15.0385,13h4.923C20.5351,13,21,13.4649,21,14.0385zM16,16.5c-.5523,0-1,.4477-1,1s.4477,1,1,1,1-.4477,1-1-.4477-1-1-1zm2,1c0-.5523.4477-1,1-1s1,.4477,1,1-.4477,1-1,1-1-.4477-1-1z"/></svg>