<svg width="24" height="24" viewBox="0,0,24,24" xmlns="http://www.w3.org/2000/svg"><path fill-rule="evenodd" clip-rule="evenodd" d="m5.00003,7.49976c0-2.48486,2.01514-4.5,4.5-4.5C11.9849,2.99976,14,5.0149,14,7.49976c0,2.48579-2.015,4.50004-4.49997,4.50004-2.48492,0-4.5-2.01425-4.5-4.50004zm4.5-5.5c-3.03714,0-5.5,2.46285-5.5,5.5,0,3.03824,2.46292,5.50004,5.5,5.50004C12.5371,12.9998,15,10.538,15,7.49976c0-3.03715-2.4628-5.5-5.49997-5.5zM10,10.9998V7.99976h3v-1h-3v-3h-.99997v3h-3v1h3v3.00004H10zm-1.99728,4.8183-3.57793-2.4996c-.64512-.5042-1.57856-.3998-2.09413.2422-.51684.6426-.41625,1.581.22094,2.1012l5.91726,5.2132.14169.1248h3.92585l.8618.855.1462.145h8.857l-.8462-.8523-5.028-5.064h.0001l-.0082-.008c-1.1883-1.1433-2.7494-2.0443-4.4003-2.0756l.0001-.0001h-2.1185c-.63296,0-1.14545.2441-1.49571.6353-.30025.3354-.4638.7586-.50197,1.1829zm-4.16269-1.6883,4.68929,3.2761c.35017.3696.8531.594,1.47108.594h2v-1h-2c-.37483,0-.61362-.1334-.76292-.3011-.15743-.1769-.24558-.4271-.24349-.6949.0021-.268.09441-.5215.25574-.7017.15334-.1713.3911-.3023.75067-.3023h2.1041c1.3041.0264,2.6334.7511,3.7172,1.7924l4.1776,4.2076h-6.043l-.8618-.8549-.1462-.1451H8.98822l-5.78331-5.0951-.00859-.0076-.00893-.0072c-.216-.1734-.24979-.4884-.07746-.7026l.00036-.0005c.17271-.2151.48726-.2498.70364-.0766l.01273.0102.01337.0093z"/></svg>