<svg width="36" height="36" viewBox="0,0,36,36" xmlns="http://www.w3.org/2000/svg"><path fill-rule="evenodd" clip-rule="evenodd" d="m7.25003,11.2495c0-3.86535,3.13467-6.99999,6.99997-6.99999,3.8654,0,7,3.13464,7,6.99999,0,3.8668-3.1345,7-7,7-3.8654,0-6.99997-3.1332-6.99997-7zM14.25,3.24951c-4.41761,0-7.99997,3.58236-7.99997,7.99999,0,4.4192,3.58242,8,7.99997,8,4.4176,0,8-3.5808,8-8,0-4.41763-3.5823-7.99999-8-7.99999zm.5,13.24999v-4.75h4.75v-1h-4.75V5.99951h-1v4.74999H9.00003v1H13.75v4.75h1zm-2.5036,7.7018-5.75805-4.0227c-.86065-.677-2.10884-.5387-2.79751.319-.68991.8576-.55472,2.1112.29819,2.8044l8.87947,7.823.1417.1248h5.8974l1.3658,1.3549.1462.1451h12.582l-.8462-.8523-7.542-7.596.0001-.0001-.0083-.0079c-1.7567-1.6903-4.0414-2.9984-6.4317-3.0436v-.0001h-3.1729c-.8811,0-1.5812.3377-2.0573.8696-.4682.5229-.697,1.2069-.7023,1.8765-.0005.0683.0013.1369.0054.2054zM5.90321,20.9897l7.05529,4.929c.4758.5122,1.1692.8311,2.0421.8311h3v-1h-3c-.6289,0-1.0567-.2272-1.3311-.5356-.2826-.3175-.4321-.7551-.4285-1.2105.0036-.4555.1601-.8965.4473-1.2173.2793-.3119.7046-.5366,1.3123-.5366h3.1586c2.0435.0403,4.0963,1.1719,5.7486,2.7603l6.6917,6.7397h-9.768l-1.3658-1.355-.1462-.145h-5.9316l-8.74581-7.7052-.00859-.0076-.00893-.0071c-.4315-.3464-.49979-.9765-.15446-1.4057l.00036-.0004c.34571-.4306.97476-.4994,1.40663-.1537l.01274.0102.01337.0094z"/></svg>