<svg width="24" height="24" viewBox="0,0,24,24" xmlns="http://www.w3.org/2000/svg"><path fill-rule="evenodd" clip-rule="evenodd" d="m6.99568,3.0007c-1.65894,0-3.002,1.32268-3.002,2.982,0,.51861.13193,1.00558.36388,1.43011.12784.2356.28403.45693.47715.65497l-.00004.00004.00544.00541,3.803,3.78197.35257.3507.35257-.3507,3.79805-3.77697.0165-.01648.015-.01796c.0889-.10668.3283-.41096.4226-.57526l.0004-.00076c.2501-.43762.3929-.94386.3929-1.48507,0-.35908-.0621-.70431-.1805-1.02689-.4191-1.14733-1.5208-1.95511-2.8185-1.95511-.7736,0-1.47128.29027-1.99835.7642-.52787-.47395-1.2263-.7642-2.00067-.7642zM4.35756,7.41281c.00014.00025.00027.0005.00041.00075l.43871-.23986-.43953.23835c.00014.00025.00027.00051.00041.00076zm.63612-1.43011c0-1.09868.88695-1.982,2.002-1.982.66111,0,1.23656.31474,1.60061.80147l.40083.53592.40027-.53634c.3631-.48654.93741-.80105,1.59731-.80105.8721,0,1.6024.54004,1.8793,1.2985l.0003.00078c.0776.2113.1194.43995.1194.68272,0,.36256-.0951.69813-.2608.98839-.0437.07596-.2141.29949-.3091.41526L8.99568,10.7955,5.54816,7.36705c-.11961-.12317-.22248-.26673-.31195-.4317h.00001l-.00083-.00151c-.1538-.2813-.24171-.60405-.24171-.95114zm3.00904,9.8355-3.57793-2.4997c-.64512-.5041-1.57856-.3997-2.09413.2423-.51684.6425-.41625,1.581.22094,2.1012l5.91726,5.2132L8.61055,21h3.92585l.8618.855.1462.145h8.857l-.8462-.8523-5.028-5.064.0001-.0001-.0082-.0079c-1.1883-1.1433-2.7494-2.0444-4.4003-2.0756L12.1189,14h-2.1185c-.63296,0-1.14545.244-1.49571.6352-.30025.3354-.4638.7587-.50197,1.183zm-4.16269-1.6883,4.68929,3.276c.35017.3697.8531.5941,1.47108.5941h2v-1h-2c-.37483,0-.61362-.1334-.76292-.3012-.15743-.1769-.24558-.427-.24349-.6949.0021-.2679.09441-.5214.25574-.7016.15334-.1713.3911-.3023.75067-.3023h2.1041c1.3041.0263,2.6334.751,3.7172,1.7924L19.9993,21h-6.043l-.8618-.855L12.9483,20H8.98822l-5.78331-5.0952-.00859-.0075-.00893-.0072c-.216-.1734-.24979-.4885-.07746-.7026l.00036-.0005c.17271-.2151.48726-.2499.70364-.0767l.01273.0102.01337.0094z"/></svg>