<svg width="36" height="36" viewBox="0,0,36,36" xmlns="http://www.w3.org/2000/svg"><path fill-rule="evenodd" clip-rule="evenodd" d="m19.8287,10.0555-4.1175-4.05599h3.06l5.229,5.24999-5.229,5.25h-3.06l4.1175-4.029h-5.118v4.029h-2.421v-4.029H7.20024l4.11596,4.029H8.25624l-5.256-5.25,5.256-5.24999h3.05996L7.20024,10.0555h5.08946V5.99951h2.421v4.05599h5.118zm-7.5823,14.1458-5.75808-4.0227c-.86064-.677-2.10884-.5387-2.79751.319-.68991.8576-.55472,2.1112.29819,2.8044l8.8795,7.823.1417.1248h5.8974l1.3658,1.3549.1462.1451h12.582l-.8463-.8523-7.542-7.596.0001-.0001-.0082-.0079c-1.7567-1.6903-4.0414-2.9984-6.4317-3.0436v-.0001h-3.173c-.881,0-1.5811.3377-2.0572.8696-.4682.5229-.6971,1.2069-.7023,1.8765-.0005.0683.0012.1369.0054.2054zm-6.34322-3.2116,7.05532,4.929c.4757.5122,1.1691.8311,2.042.8311h3v-1h-3c-.6288,0-1.0566-.2272-1.3311-.5356-.2826-.3175-.432-.7551-.4284-1.2105.0035-.4555.1601-.8965.4473-1.2173.2792-.3119.7046-.5366,1.3122-.5366h3.1587c2.0435.0403,4.0963,1.1719,5.7486,2.7603l6.6917,6.7397h-9.768l-1.3658-1.355-.1462-.145h-5.9316l-8.74584-7.7052-.00859-.0076-.00893-.0071c-.4315-.3464-.49979-.9765-.15446-1.4057l.00036-.0004c.34571-.4306.97476-.4994,1.40664-.1537l.01273.0102.01337.0094z"/></svg>