<svg width="24" height="24" xmlns="http://www.w3.org/2000/svg"><path fill-rule="evenodd" clip-rule="evenodd" d="m9.35359,3.64603-.35355-.35355-.35356.35355-7,6.99997.70711.7071.64645-.6464v8.2929h4.99v-4h2v4H15v-3h1c.4225,0,.6409.1039.7609.2247.1222.123.2284.3503.2391.7812v.995l.0001.0279c.0002.2481.0006.7035.1615,1.103.0885.2196.2335.4456.4706.6143.2396.1705.5331.2539.8678.2539.3329,0,.6258-.0805.866-.2477.2386-.1661.3853-.3902.4748-.6104.1638-.4026.1609-.8645.1594-1.1224L20,17.9982v-3.0487c1.1408-.2318,2-1.241,2-2.4499v-1.5h-1V8.99959h-1v2.00001h-1V8.99959h-1v2.00001h-1v1.5c0,1.2089.8593,2.2181,2,2.4499v3.0528c.0016.2902-.0043.5629-.0855.7626-.0354.087-.0765.1361-.1199.1663-.042.0292-.1254.0684-.2946.0684-.1652,0-.2466-.0391-.2881-.0687-.044-.0313-.0863-.0828-.1227-.1731-.0826-.205-.0886-.4795-.0892-.7587v-.9995h.0002l-.0003-.0114c-.0131-.5725-.1574-1.0939-.5294-1.4685-.3748-.3775-.8949-.5201-1.4705-.5201h-1v-4.2929l.6465.6464.7071-.7071L9.35359,3.64603zM14,9.70669l-4.99996-5-5,5v8.29291h2.99v-4H10.99v4H14V9.70669zm4,2.79291v-.5h3v.5c0,.8278-.6721,1.5-1.5,1.5-.8278,0-1.5-.6722-1.5-1.5z"/></svg>