<svg width="24" height="24" viewBox="0,0,24,24" xmlns="http://www.w3.org/2000/svg"><path fill-rule="evenodd" clip-rule="evenodd" d="m22.5,0h-21C.675,0,0,.675,0,1.5v21c0,.825.675,1.5,1.5,1.5h21c.825,0,1.5-.675,1.5-1.5v-21c0-.825-.675-1.5-1.5-1.5z" fill="#2d327d"/><path fill-rule="evenodd" clip-rule="evenodd" d="m14.505,16.605c0-.51-.4125-.9225-.9225-.9225-.165,0-.3225.045-.4575.12-.1425-.3675-.5025-.63-.9225-.63-.21,0-.405.0675-.57.18,0-.0075,0-.0075,0-.015,0-.615-.495-1.11-1.11-1.11s-1.11.495-1.11,1.11c0,.105.015.21.045.315-.075-.0225-.1575-.03-.24-.03-.5475,0-.99.4425-.99.99,0,.15.0375.2925.0975.42-.1875.09-.3225.285-.3225.51,0,.3075.2475.5625.5625.5625.1575,0,.2925-.06.3975-.165.1125.4575.5325.8025,1.0275.8025.3,0,.57-.1275.765-.3225.0975.375.435.6525.84.6525.39,0,.72-.255.8325-.615.12.0525.2475.0825.3825.0825.51,0,.9225-.4125.9225-.9225,0-.03,0-.0525-.0075-.0825.435-.0825.78-.465.78-.93z" fill="#fff"/><path fill-rule="evenodd" clip-rule="evenodd" d="m10.1025,13.83L7.23745,8.84998l-.36.21c-.21.12-.3675.3225-.435.5625s-.03.48752.09.70502l2.5425,4.41c.1875-.4425.5625-.78,1.02755-.9075z" fill="#fff"/><path fill-rule="evenodd" clip-rule="evenodd" d="m8.84246,15.2176-2.25-3.9075-.36.2025c-.2175.12-.3675.3225-.435.5625-.06.24-.03.495.09.705l1.95,3.39c.1575-.465.5325-.825,1.005-.9525z" fill="#fff"/><path fill-rule="evenodd" clip-rule="evenodd" d="m18.3075,10.2525c-.0825-.0225-.1725-.03-.2625-.0225-.6525.0525-1.2.51-1.3725,1.14l-.7575,2.8275c-.105.3825-.5025.615-.885.51l-1.575-.4275c-.2625-.075-.4875-.2475-.6225-.48L8.79748,6.79503c-.1275-.225-.3375-.3825-.585-.45-.51-.135-1.0425.165-1.1775.6825-.0675.2475-.03.51.09.735L10.5975,13.785c.6225.03,1.1475.42,1.3725.96.0825-.015.1575-.0225.24-.0225.435,0,.8475.2025,1.1175.54.0825-.015.1725-.0225.255-.0225.7575,0,1.3725.615,1.3725,1.3725,0,.5475-.33,1.0275-.81,1.245-.12.6375-.675,1.1175-1.35,1.1175-.0525,0-.105,0-.15-.0075-.24.33-.63.54-1.065.54-.39,0-.75-.1725-.9975-.4575-.1875.0825-.3975.1275-.60752.1275-.51,0-.9675-.255-1.245-.6525-.06.0075-.12.015-.18.015-.555,0-1.005-.45-1.005-1.005,0-.225.075-.4425.2175-.615l-1.815-3.15-.3525.2025c-.2175.12-.3675.3225-.435.5625s-.03.4875.09.705l1.17,2.0925,2.055,3.675H16.2l2.6475-9.81c.1125-.405-.1275-.8325-.54-.945z" fill="#fff"/></svg>