<svg width="24" height="24" viewBox="0,0,24,24" xmlns="http://www.w3.org/2000/svg"><path fill-rule="evenodd" clip-rule="evenodd" d="m22.5,0h-21C.675,0,0,.675,0,1.5v21c0,.825.675,1.5,1.5,1.5h21c.825,0,1.5-.675,1.5-1.5v-21c0-.825-.675-1.5-1.5-1.5z" fill="#2d327d"/><path fill-rule="evenodd" clip-rule="evenodd" d="m10.215,12.705c.075.21.2775.3525.5025.3525.2925,0,.5325-.24.5325-.5325,0-.06-.0075-.1275-.03-.1875l-1.8375-4.98c-.2175-.5925-.78-.9825-1.41-.9825h-1.695c-.63,0-1.1925.39-1.41.9825l-1.8375,4.98c-.0225.06-.03.12-.03.1875,0,.2925.24.5325.5325.5325.225,0,.4275-.1425.5025-.3525l1.5-4.08h.5025l-2.625,7.125H5.34v4.485c0,.4275.345.765.7725.765s.765-.345.765-.765V15.75h.4875v4.485c0,.4275.345.765.765.765.4275,0,.7725-.345.7725-.765V15.75H10.83L8.205,8.625h.5025l1.5075,4.08z" fill="#fff"/><path fill-rule="evenodd" clip-rule="evenodd" d="m8.59497,4.48499c0-.825-.675-1.5-1.5-1.5s-1.5.675-1.5,1.5.675,1.5,1.5,1.5,1.5-.6675,1.5-1.5z" fill="#fff"/></svg>