<svg width="24" height="24" viewBox="0,0,24,24" xmlns="http://www.w3.org/2000/svg"><path fill-rule="evenodd" clip-rule="evenodd" d="m22.5,0h-21C.675,0,0,.675,0,1.5v21c0,.825.675,1.5,1.5,1.5h21c.825,0,1.5-.675,1.5-1.5v-21c0-.825-.675-1.5-1.5-1.5z" fill="#2d327d"/><path fill-rule="evenodd" clip-rule="evenodd" d="m13.2225,12.7574-2.235,8.2425H9.17997l-1.425-5.8875-1.38,5.8875h-1.83l-2.1975-8.2425h1.8075l1.3275,6.06,1.4475-6.06h1.7025l1.44753,6.015,1.3425-6.015h1.8z" fill="#fff"/><path fill-rule="evenodd" clip-rule="evenodd" d="m21.2175,17.82c-.06.855-.345,1.5825-.855,2.19-.6675.795-1.62,1.1925-2.8425,1.1925-1.305,0-2.3175-.4575-3.045-1.38-.6225-.7875-.93-1.77-.93-2.9475,0-1.23.3675-2.265,1.1025-3.0825s1.7175-1.23,2.94-1.23c1.14,0,2.055.375,2.7525,1.125.495.5325.7725,1.14.825,1.83h-1.7775c-.0975-.465-.3075-.825-.6225-1.08-.3225-.255-.72-.3825-1.215-.3825-.78,0-1.365.33-1.755.99-.2925.5025-.435,1.11-.435,1.8375,0,.7425.15,1.365.4575,1.86.39.6375.96.9525,1.7175.9525.54,0,.975-.1575,1.2975-.48s.5175-.7875.5925-1.395h1.7925z" fill="#fff"/></svg>