<svg width="59" height="20" viewBox="0,0,59,20" xmlns="http://www.w3.org/2000/svg"><path fill-rule="evenodd" clip-rule="evenodd" d="m2,0C.89543,0,0,.895431,0,2v16c0,1.1046.895431,2,2,2h55c1.1046,0,2-.8954,2-2V2c0-1.104569-.8954-2-2-2H2z" fill="#eb0000"/><path fill-rule="evenodd" clip-rule="evenodd" d="m38.3331,9.59037c-.5002-.15794-.934-.47781-1.2337-.90957-.2962-.45543-.4461-.99101-.4296-1.53457-.0231-.95685.4402-1.85985,1.2298-2.39687.7545-.53643,1.6614-.81389,2.5858-.79102,1.1352,0,2.0629.3138,2.7829.9414.6572.53499,1.0346,1.34199,1.0247,2.19102.0156.55147-.1355,1.09476-.4335,1.5584-.2975.43909-.7291.76938-1.2298.94121.3628.09703.7066.25485,1.0171.46683.7303.5326,1.0955,1.3104,1.0957,2.3334.0359,1.101-.4676,2.15-1.348,2.8082-.7568.5853-1.7292.878-2.9171.8779-1.2876,0-2.3124-.3217-3.0743-.965-.7827-.6451-1.2226-1.6182-1.1905-2.634,0-1.0178.3521-1.8062,1.0564-2.3653.3153-.24526.6775-.42295,1.0641-.52203zm2.105.87013c-.5155-.02-1.0172.1697-1.3914.5262-.3612.3532-.5572.8428-.5399,1.3486-.0195.5158.1795,1.0159.5477,1.3764.3844.3607.897.5516,1.4229.5298.6622,0,1.1589-.1951,1.4901-.5853.3145-.358.4858-.8201.481-1.2973.0171-.5163-.1833-1.0159-.5521-1.3763-.3958-.3647-.9218-.553-1.4583-.5221zM39.232,6.17728c.3385-.29254.7757-.44398,1.2219-.42324.4618-.02786.9178.1157,1.281.40332.3147.28546.4842.69818.4613,1.12324.0219.4357-.1449.85965-.4574,1.16289-.3443.29904-.7908.4522-1.2454.42715-.4588.02355-.909-.13078-1.2575-.43105-.3166-.29634-.488-.71694-.4691-1.15098-.0159-.42117.1543-.82791.4652-1.11133z" fill="#fff"/><path d="m9.22072,4.19995h4.05608L8.25878,15.8H4.18579L9.22072,4.19995zm6.72758,0h14.3949l-1.4906,3.44547H18.5724l-2.0413,4.70908h10.2847L25.3259,15.8h-14.395l5.0174-11.60005z" fill="#fff"/></svg>