<svg width="59" height="20" viewBox="0,0,59,20" xmlns="http://www.w3.org/2000/svg"><path fill-rule="evenodd" clip-rule="evenodd" d="m2,0C.89543,0,0,.895431,0,2v16c0,1.1046.895431,2,2,2h55c1.1046,0,2-.8954,2-2V2c0-1.104569-.8954-2-2-2H2z" fill="#eb0000"/><path d="m9.22072,4.19995h4.05608L8.25878,15.8H4.18579L9.22072,4.19995zm6.72758,0h14.3949l-1.4906,3.44547H18.5724l-2.0413,4.70908h10.2847L25.3259,15.8h-14.395l5.0174-11.60005z" fill="#fff"/><path fill-rule="evenodd" clip-rule="evenodd" d="m40.5856,5.7541c-.5062,0-.915.1412-1.226.4232-.3114.282-.4668.6526-.4668,1.1114,0,.4798.1568.8634.4708,1.151.3136.2874.7342.431,1.2616.431.5272,0,.9438-.1424,1.2496-.4272.306-.2848.459-.6724.459-1.1626,0-.48-.1542-.8544-.4628-1.1234-.3084-.2688-.737-.4034-1.2854-.4034zm-.0158,4.7064c-.5696,0-1.035.1754-1.3962.5262s-.5418.8002-.5418,1.3486c0,.5644.183,1.023.5496,1.3764.3668.3534.8426.53,1.4278.53.6644,0,1.163-.195,1.4952-.5854.3216-.3742.4826-.8066.4826-1.2974,0-.5588-.1848-1.0174-.554-1.376-.3532-.3482-.841-.5224-1.4632-.5224zm-2.1122-.8698c-.5378-.1846-.9504-.488-1.2378-.9098-.2876-.422-.431-.9334-.431-1.5346,0-1.002.4112-1.8008,1.234-2.3966.7276-.5274,1.5924-.7912,2.5944-.7912,1.1392,0,2.0698.3138,2.7924.9414.6854.5906,1.0282,1.3208,1.0282,2.1912,0,.6064-.145,1.1256-.435,1.5582-.29.4324-.7014.7462-1.234.9414.4166.1212.7566.2766,1.0206.4666.7328.5326,1.0994,1.3104,1.0994,2.3334,0,1.176-.451,2.112-1.3526,2.8082-.7594.5852-1.7352.878-2.927.878-1.292,0-2.3202-.3216-3.0848-.9652-.7964-.6696-1.1944-1.5476-1.1944-2.634,0-1.0178.3532-1.806,1.0598-2.3652.3218-.2476.6776-.4216,1.0678-.5218z" fill="#fff"/><path fill-rule="evenodd" clip-rule="evenodd" d="m51.4067,4.23535V15.8h-2.3098V8.23015h-2.721v-1.677c.564-.016,1.0242-.0738,1.3802-.1742.3558-.1.6814-.2636.9768-.4902.4274-.327.7146-.8782.8622-1.6534h1.8116z" fill="#fff"/></svg>