<svg width="59" height="20" xmlns="http://www.w3.org/2000/svg"><path fill-rule="evenodd" clip-rule="evenodd" d="m2,0C.89543,0,0,.895431,0,2v16c0,1.1046.895431,2,2,2h55c1.1046,0,2-.8954,2-2V2c0-1.104569-.8954-2-2-2H2z" fill="#eb0000"/><path fill-rule="evenodd" clip-rule="evenodd" d="m38.7036,12.8971h-2.1758c.0682.8978.4894,1.7315,1.1706,2.3176.6754.5747,1.5308.8621,2.5663.8621,1.5556.0002,2.717-.7407,3.4843-2.2227.5887-1.1391.883-2.5154.883-4.1291,0-1.7455-.3337-3.10078-1.0011-4.06582-.36-.52652-.8414-.95802-1.4033-1.25781-.5612-.29636-1.1869-.44855-1.8211-.44297-1.0145-.01999-1.9974.35411-2.7435,1.04414-.8881.80703-1.3322,1.86172-1.3322,3.16407-.0058.62038.1192,1.235.3667,1.80351.5436,1.29878,1.8247,2.13068,3.2282,2.09628.47.0145.9357-.0931,1.352-.3125.4337-.2685.8037-.6289,1.0838-1.056-.0386.5086-.115,1.0136-.2285,1.5109-.163.6962-.3955,1.209-.6976,1.5385-.302.3296-.7327.5102-1.1786.4943-.8568.0001-1.3745-.448-1.5532-1.3445zm.4022-6.37581c.3015-.38654.7643-.61137,1.2535-.60898.5245-.01348,1.0223.23187,1.3322.65664.3281.44549.4975.9887.4808,1.54238.0131.53364-.1504,1.05659-.465,1.48711-.3306.44376-.8605.69216-1.4118.66196s-1.0511-.33497-1.3316-.81216c-.2506-.40865-.3792-.88082-.3704-1.36055-.0222-.56691.1597-1.1229.5123-1.5664z" fill="#fff"/><path d="m9.22072,4.19995h4.05608L8.25878,15.8H4.18579L9.22072,4.19995zm6.72758,0h14.3949l-1.4906,3.44547H18.5724l-2.0413,4.70908h10.2847L25.3259,15.8h-14.395l5.0174-11.60005z" fill="#fff"/></svg>