<svg width="36" height="36" viewBox="0,0,36,36" xmlns="http://www.w3.org/2000/svg"><path fill-rule="evenodd" clip-rule="evenodd" d="m25.5,5.74881h4.0429l-5.8965,5.89649.7072.7071L30.25,6.45592v4.04288h1V4.74881H25.5v1zM3,14.7503h.52083v-1H3v1zm1.5625,0h1.04167v-1H4.5625v1zm2.08333,0H7.6875v-1H6.64583v1zm2.08334,0h1.04166v-1H8.72917v1zm2.08333,0h1.0417v-1h-1.0417v1zm2.0833,0h1.0417v-1h-1.0417v1zm2.0834,0h1.0416v-1h-1.0416v1zM17.0625,14.7503h1.0417v-1h-1.0417v1zm2.0833,0h1.0417v-1h-1.0417v1zm2.0834,0h.0208v.0209h1v-1.0209h-1.0208v1zM21.25,15.8128v1.0417h1v-1.0417h-1zm0,2.0834v1.0416h1v-1.0416h-1zm0,2.0833v1.0417h1v-1.0417h-1zm0,2.0833v1.0417h1v-1.0417h-1zM21.25,24.1462v1.0416h1v-1.0416h-1zm0,2.0833v1.0417h1v-1.0417h-1zm0,2.0833v1.0417h1v-1.0417h-1zM21.25,30.3962v1.0416h1v-1.0416h-1zm0,2.0833v.5208h1v-.5208h-1z"/></svg>