<svg width="59" height="20" viewBox="0,0,59,20" xmlns="http://www.w3.org/2000/svg"><path fill-rule="evenodd" clip-rule="evenodd" d="m2,0C.89543,0,0,.895431,0,2v16c0,1.1046.895431,2,2,2h55c1.1046,0,2-.8954,2-2V2c0-1.104569-.8954-2-2-2H2z" fill="#eb0000"/><path d="m9.21994,4.19995h4.05626L8.2582,15.8H4.18521L9.21994,4.19995zM25.9805,12.3662c.3665,0,.6985-.2172.8463-.5537l3.2923-7.61255h-14.135L10.9661,15.8h4.0383l3.7988-8.69045h5.9937l-1.2014,2.77546-5.2259-.01902L22.5865,15.8h4.5973l-3.1239-3.4338h1.9206z" fill="#fff"/><path fill-rule="evenodd" clip-rule="evenodd" d="m41.2183,11.228V6.92475L38.2441,11.228h2.9742zm3.6624-.0236v1.9536h-1.4556V15.8h-2.2542v-2.642h-4.8252v-2.1674l4.9438-6.75525h2.1356v6.96905h1.4556z" fill="#fff"/><path fill-rule="evenodd" clip-rule="evenodd" d="m49.587,5.9123c-.7594,0-1.2762.4376-1.5504,1.313-.2162.6962-.3242,1.6718-.3242,2.9268,0,1.1074.1108,1.9962.3322,2.6658.2848.87.8122,1.3052,1.582,1.3052.6382,0,1.1128-.3376,1.4238-1.0126.3112-.675.4666-1.7058.4666-3.093,0-1.181-.1104-2.1118-.332-2.7922-.2848-.8754-.8176-1.313-1.598-1.313zm.0872-1.9538c.8806,0,1.6558.2688,2.3254.8068.6646.5378,1.1472,1.366,1.4476,2.484.2268.8542.3402,1.7824.3402,2.7842,0,1.661-.2954,3.027-.886,4.0974-.348.6224-.8028,1.1022-1.3644,1.4398-.5618.3374-1.1878.5062-1.8788.5062-.9438,0-1.7506-.2848-2.4204-.8542-1.1918-1.0126-1.7878-2.7422-1.7878-5.1892,0-1.7402.3112-3.1376.9334-4.1924.3534-.6012.816-1.0652,1.3884-1.3922.572-.3268,1.2062-.4904,1.9024-.4904z" fill="#fff"/></svg>