<svg width="59" height="20" viewBox="0,0,59,20" xmlns="http://www.w3.org/2000/svg"><path fill-rule="evenodd" clip-rule="evenodd" d="m2,0C.89543,0,0,.895431,0,2v16c0,1.1046.895431,2,2,2h55c1.1046,0,2-.8954,2-2V2c0-1.104569-.8954-2-2-2H2z" fill="#eb0000"/><path fill-rule="evenodd" clip-rule="evenodd" d="m9.21999,4.19995h4.05621L8.25805,15.8H4.18506L9.21999,4.19995z" fill="#fff"/><path fill-rule="evenodd" clip-rule="evenodd" d="m25.9806,12.3663c.3663,0,.6984-.2172.8463-.5538l3.2922-7.61243h-14.135l-5.018,11.60003h4.0383l3.7989-8.69043h5.9937l-1.2015,2.7754-5.2259-.019,4.2169,5.93403h4.5974l-3.124-3.4338h1.9207z" fill="#fff"/><path fill-rule="evenodd" clip-rule="evenodd" d="m44.0995,4.2356v2.059h-4.6486L38.9535,8.9c.5578-.5912,1.2707-.8868,2.139-.8868.8523,0,1.5942.2296,2.2257.6888.9364.6918,1.4048,1.7424,1.4048,3.152,0,1.3832-.4999,2.4786-1.4995,3.2864-.7788.6334-1.7102.9502-2.794.9502-1.2208,0-2.2019-.3286-2.944-.9858-.7419-.6572-1.1339-1.5456-1.176-2.665h2.2653c.0367.4068.1683.7524.3947,1.0376.3524.4488.8417.673,1.4678.673.6052,0,1.0839-.219,1.4365-.6572.3419-.4278.5131-.9476.5131-1.5602,0-.6652-.179-1.197-.5368-1.5956-.358-.3984-.8339-.5978-1.4285-.5978-.7262,0-1.2919.3272-1.6969.982l-2.0598-.0318,1.0969-6.4542h6.3377z" fill="#fff"/><path fill-rule="evenodd" clip-rule="evenodd" d="m49.5611,9.77917c-.5523,0-.9918.23223-1.3179.69683-.2948.4118-.4421.9028-.4421,1.473,0,.565.1501,1.0586.4498,1.481.3261.47.7736.7046,1.3419.7046.5523,0,.997-.2242,1.3339-.673.3155-.4224.4734-.9212.4734-1.4968,0-.5648-.1422-1.048-.4262-1.4492-.3472-.4908-.8182-.73643-1.4128-.73643zm3.9068-2.653h-2.194c-.2053-.8922-.7104-1.3384-1.5155-1.3384-.8523,0-1.4574.5254-1.8152,1.576-.1473.4276-.2657,1.0744-.3552,1.9402.3472-.47.717-.8078,1.109-1.0136.3919-.206.8641-.3088,1.4166-.3088,1.0837,0,1.9546.3852,2.6124,1.156.6262.7288.9392,1.64203.9392,2.74003,0,1.3042-.421,2.3522-1.2627,3.144-.7577.7128-1.6682,1.0692-2.7308,1.0692-1.363,0-2.4232-.516-3.1808-1.5484-.7576-1.032-1.1363-2.472-1.1363-4.3198,0-1.97443.405-3.52143,1.2152-4.64063.784-1.0822,1.8547-1.6236,3.2123-1.6236,1.2785,0,2.2574.4304,2.9361,1.291.3893.4962.6392,1.1218.7497,1.8768z" fill="#fff"/></svg>