<svg width="59" height="20" xmlns="http://www.w3.org/2000/svg"><path fill-rule="evenodd" clip-rule="evenodd" d="m2,0C.89543,0,0,.895431,0,2v16c0,1.1046.895431,2,2,2h55c1.1046,0,2-.8954,2-2V2c0-1.104569-.8954-2-2-2H2z" fill="#eb0000"/><path fill-rule="evenodd" clip-rule="evenodd" d="m9.21999,4.19995h4.05621L8.25805,15.8H4.18506L9.21999,4.19995z" fill="#fff"/><path fill-rule="evenodd" clip-rule="evenodd" d="m25.9806,12.3663c.3663,0,.6984-.2172.8463-.5538l3.2922-7.61243h-14.135l-5.018,11.60003h4.0383l3.7989-8.69043h5.9937l-1.2015,2.7754-5.2259-.019,4.2169,5.93403h4.5974l-3.124-3.4338h1.9207z" fill="#fff"/><path fill-rule="evenodd" clip-rule="evenodd" d="m40.6645,9.77254c-.5538,0-.9942.23196-1.321.69596-.2954.4114-.443.9018-.443,1.4714,0,.5642.1504,1.0574.451,1.4792.3268.4694.7752.704,1.3446.704.5538,0,.9992-.224,1.3368-.6722.3164-.422.4746-.9204.4746-1.4952,0-.5642-.1422-1.0466-.427-1.4474-.348-.4906-.8202-.73576-1.416-.73576zm3.9156-2.6498h-2.1992c-.2054-.8912-.7118-1.337-1.5188-1.337-.8542,0-1.4606.5248-1.819,1.5742-.148.4272-.2664,1.0732-.3562,1.938.3482-.4694.7186-.8068,1.1114-1.0126.3928-.2056.8662-.3084,1.42-.3084,1.0862,0,1.9588.385,2.618,1.1548.6276.7278.9414,1.64016.9414,2.73696,0,1.3026-.4218,2.3494-1.2656,3.1404-.7594.7118-1.6716,1.0678-2.7368,1.0678-1.3658,0-2.4284-.5154-3.1878-1.5464s-1.139-2.4694-1.139-4.315c0-1.97216.4058-3.51736,1.218-4.63536.7856-1.081,1.859-1.6214,3.2194-1.6214,1.2816,0,2.2624.4296,2.9426,1.2892.3902.4956.6406,1.1206.7516,1.8748z" fill="#fff"/><path fill-rule="evenodd" clip-rule="evenodd" d="m53.5027,4.23535v1.9618c-.0632.0684-.2506.2822-.5618.6408-.4324.4956-.862,1.119-1.2892,1.8706-.4272.7514-.7594,1.47265-.9966,2.16345-.501,1.4398-.8044,3.0824-.9098,4.928h-2.3886c.0156-.87.167-1.8352.4546-2.895.2874-1.06.6844-2.12,1.1906-3.18005.7222-1.4976,1.4554-2.6128,2.1988-3.346h-5.4578v-2.1436h7.7598z" fill="#fff"/></svg>