<svg width="59" height="20" viewBox="0,0,59,20" xmlns="http://www.w3.org/2000/svg"><path fill-rule="evenodd" clip-rule="evenodd" d="m2,0C.89543,0,0,.895431,0,2v16c0,1.1046.895431,2,2,2h55c1.1046,0,2-.8954,2-2V2c0-1.104569-.8954-2-2-2H2z" fill="#eb0000"/><path d="m44.3814,4.23535v1.96172c-.0631.06855-.2496.28216-.5597.64082-.4889.5794-.9194,1.20604-1.285,1.87071-.3971.68873-.7296,1.4129-.9933,2.1633-.5281,1.5927-.8332,3.2512-.9066,4.9281H38.256c.0325-.98.1847-1.9523.4532-2.8951.299-1.0937.6962-2.1581,1.1865-3.1799.7201-1.49766,1.4506-2.61302,2.1916-3.34609h-5.4395V4.23535h7.7336z" fill="#fff"/><path fill-rule="evenodd" clip-rule="evenodd" d="m51.8627,4.76519c-.6543-.53329-1.4747-.81881-2.3177-.80664-1.3537-.02034-2.6108.70125-3.2795,1.88242-.6202,1.05482-.9302,2.45235-.9302,4.19263,0,2.4468.5939,4.1765,1.7816,5.189,1.2185.9954,2.9225,1.1338,4.2847.3481.5723-.3508,1.0415-.8477,1.3599-1.4399.5886-1.0706.8829-2.4363.8829-4.0973.0078-.9389-.1062-1.87487-.339-2.78433-.2996-1.1181-.7804-1.94609-1.4427-2.48398zm-3.9496,2.46015c.2733-.87539.7884-1.31308,1.5452-1.31308v-.00001c.7778,0,1.3086.4377,1.5924,1.31309.2208.68021.3312,1.61094.3312,2.79216,0,1.387-.1551,2.418-.4652,3.093-.3102.675-.7832,1.0125-1.419,1.0125-.7673-.0001-1.2929-.4352-1.5767-1.3051-.2469-.8661-.3586-1.7654-.3311-2.6658-.0001-1.25508.1077-2.23066.3232-2.92676z" fill="#fff"/><path d="m9.21997,4.19995h4.05623L8.25823,15.8H4.18524L9.21997,4.19995zM25.9805,12.3662c.3665,0,.6985-.2172.8463-.5537l3.2923-7.61255h-14.135L10.9661,15.8h4.0383l3.7988-8.69045h5.9937l-1.2014,2.77546-5.2259-.01902L22.5865,15.8h4.5973l-3.1239-3.4338h1.9206z" fill="#fff"/></svg>