<svg width="59" height="20" viewBox="0,0,59,20" xmlns="http://www.w3.org/2000/svg"><path fill-rule="evenodd" clip-rule="evenodd" d="m2,0C.89543,0,0,.895431,0,2v16c0,1.1046.895431,2,2,2h55c1.1046,0,2-.8954,2-2V2c0-1.104569-.8954-2-2-2H2z" fill="#eb0000"/><path fill-rule="evenodd" clip-rule="evenodd" d="m38.7371,12.8967h-2.1758c.0681.8979.4893,1.7317,1.1706,2.3178.6752.5748,1.5305.8623,2.5661.8623,1.5555-.0001,2.717-.741,3.4845-2.2229.5886-1.139.8829-2.5154.8829-4.12909,0-1.7455-.3338-3.10078-1.0013-4.06582-.3599-.52656-.8413-.95802-1.4032-1.25761-.5612-.29634-1.1868-.44853-1.821-.44297-1.0145-.02007-1.9974.35404-2.7434,1.04414-.8883.80684-1.3324,1.86153-1.3324,3.16406-.0058.62038.1192,1.23498.3667,1.80352.2248.52787.5753.99227,1.0208,1.35257.6279.4966,1.408.7594,2.2073.7435.47.0146.9358-.0931,1.3521-.3125.4337-.2684.8037-.6288,1.084-1.0558-.0388.5085-.1152,1.0135-.2287,1.5107-.163.6962-.3955,1.209-.6976,1.5385-.3021.3297-.7327.5103-1.1787.4945-.8568.0001-1.3744-.4482-1.5529-1.3449zm.402-6.3754c.3014-.38674.7642-.61167,1.2535-.60918.5245-.01342,1.0222.23183,1.3322.65645.3282.44553.4976.98882.481,1.54258.013.53367-.1506,1.05663-.4652,1.48711-.3306.44374-.8605.69224-1.4119.66194-.5513-.0302-1.0511-.33508-1.3315-.81234-.2507-.4086-.3793-.88081-.3705-1.36055-.022-.56678.1598-1.12261.5124-1.56601z" fill="#fff"/><path fill-rule="evenodd" clip-rule="evenodd" d="m51.8629,4.76506c-.6544-.53329-1.4747-.81881-2.3177-.80664v.00001c-1.3537-.02034-2.6108.70125-3.2795,1.88242-.6202,1.05482-.9303,2.45234-.9303,4.19255,0,2.4469.5939,4.1766,1.7817,5.1891,1.2185.9953,2.9225,1.1338,4.2847.348.5723-.3507,1.0415-.8476,1.3598-1.4398.5887-1.0706.883-2.4363.883-4.0973.0077-.93891-.1062-1.87488-.3389-2.78435-.2996-1.1181-.7806-1.94609-1.4428-2.48399zm-3.9495,2.46016c.2733-.87539.7884-1.31309,1.5452-1.31309.7778.00001,1.3086.4377,1.5924,1.31309.2208.68021.3311,1.61094.3311,2.79218,0,1.387-.1551,2.418-.4652,3.093s-.7831,1.0125-1.419,1.0125c-.7673-.0002-1.2929-.4352-1.5767-1.3051-.2469-.8661-.3586-1.7654-.3311-2.6658-.0001-1.2551.1077-2.23069.3233-2.92678z" fill="#fff"/><path d="m9.21997,4.19995h4.05623L8.25823,15.8H4.18524L9.21997,4.19995zM25.9805,12.3662c.3665,0,.6985-.2172.8463-.5537l3.2923-7.61255h-14.135L10.9661,15.8h4.0383l3.7988-8.69045h5.9937l-1.2014,2.77546-5.2259-.01902L22.5865,15.8h4.5973l-3.1239-3.4338h1.9206z" fill="#fff"/></svg>