<svg width="24" height="24" viewBox="0,0,24,24" xmlns="http://www.w3.org/2000/svg"><path fill-rule="evenodd" clip-rule="evenodd" d="m21.0025,6H3.00146V5H21.0025v1zm0,13.0005H3.00146v-1H21.0025v1zM6.95773,11.1616l3.13597-3.16404H7.88273l-3.136,3.31104V7.99756h-1.746v8.00104h1.746v-2.583l1.007-1.007,2.43,3.59h2.20497l-3.43097-4.837zm2.38944.9429h1.54203v-1.542h.884v1.542h1.547v.883h-1.547v1.542h-.884v-1.542H9.34717v-.883zm6.34513-.5329V9.37156h1.74c.511,0,.885.087,1.122.263.238.174.356.45204.356.83104,0,.391-.139.683-.416.876-.219.153-.597.23-1.133.23h-1.669zm2.129-3.57404h-3.875v8.00104h1.746v-3.147h1.57c.559,0,.953.109,1.185.326.232.216.37.608.414,1.173.043.635.079,1.041.106,1.215.028.176.073.32.134.433h1.822l-.076-.093c-.105-.135-.184-.48-.235-1.034-.069-.756-.126-1.239-.17-1.45-.044-.212-.129-.414-.257-.608-.201-.306-.478-.504-.832-.591.401-.149.714-.397.939-.744.224-.347.337-.753.337-1.221,0-.41204-.09-.78204-.269-1.11104-.179-.328-.438-.591-.777-.788-.409-.24-.996-.361-1.762-.361z"/></svg>