<svg width="36" height="36" viewBox="0,0,36,36" xmlns="http://www.w3.org/2000/svg"><path fill-rule="evenodd" clip-rule="evenodd" d="m18,5.75c-3.4844,0-6.25,2.76564-6.25,6.25,0,3.4844,2.7656,6.25,6.25,6.25s6.25-2.7656,6.25-6.25c0-3.48436-2.7656-6.25-6.25-6.25zM10.75,12c0-4.03664,3.2134-7.25,7.25-7.25s7.25,3.21336,7.25,7.25c0,2.4425-1.1765,4.5836-3,5.8938V28.407L18,32.657l-4.25-4.25V17.8938c-1.8235-1.3102-3-3.4513-3-5.8938zm4,6.4955v9.4973l3.25,3.25,3.25-3.25V25.25h-3.2603v-1H21.25v-2H18v-1h3.25v-2.7545c-.9749.4835-2.0777.7545-3.25.7545s-2.2751-.271-3.25-.7545zm3.2575-8.2453c-1.017,0-1.7575.7391-1.7575,1.7155,0,.9964.7606,1.7845,1.7575,1.7845.9926,0,1.7425-.7836,1.7425-1.7845,0-.9807-.73-1.7155-1.7425-1.7155zM15.25,11.9657c0-1.5467,1.2065-2.71552,2.7575-2.71552,1.5555,0,2.7425,1.17322,2.7425,2.71552,0,1.5221-1.1671,2.7845-2.7425,2.7845-1.5711,0-2.7575-1.258-2.7575-2.7845z"/></svg>