<svg width="36" height="36" xmlns="http://www.w3.org/2000/svg"><path fill-rule="evenodd" clip-rule="evenodd" d="m15.75,9.24902h-.5v6.00078H4.75v13h26.5v-13h-15V10.249h6.25v-.99998h-6.75zm-10,7.00078v11h24.5v-11H5.75zM7.5,19.249H9v-1H7.5v1zm0,2v1h3v-1h-3zm4.5-2h-1.5v-1H12v1zm0,3h1.5v-1H12v1zm0,3h-1.5v-1H12v1zm-4.5,0H9v-1H7.5v1zm18,0H24v-1h1.5v1zm1.5-1v1h1.5v-1H27zm-10.5-3v1H15v-1h1.5zm1.5,1h1.5v-1H18v1zm4.5,0H21v-1h1.5v1zm1.5,0h1.5v-1H24v1zm-9-3h-1.5v-1H15v1zm1.5,0H18v-1h-1.5v1zm4.5,0h-1.5v-1H21v1zm1.5,0H24v-1h-1.5v1zm-9,6v-1h9v1h-9zm12-6h1.75v3.25h1v-4.25H25.5v1z"/></svg>