<svg width="48" height="48" viewBox="0,0,48,48" xmlns="http://www.w3.org/2000/svg"><path fill-rule="evenodd" clip-rule="evenodd" d="m7.93799,10.5023v.0007L7.99851,31H9V10h30v7h-1v-6H10v20h19v1H5v.508C5,33.3309,5.66814,34,6.493,34H29v1H6.493C5.11586,35,4,33.8831,4,32.508V31h2.99851l-.06052-20.4955v-.0015c0-1.38198,1.11969-2.503,2.503-2.503H38.496C39.8801,8,41,9.12086,41,10.503V17h-1v-6.497C40,9.67314,39.3278,9,38.496,9H9.44099c-.83047,0-1.50263.67261-1.503,1.5023zM32.357,19c-.732,0-1.357.6221-1.357,1.409V35h12V20.409c0-.7869-.625-1.409-1.357-1.409h-9.286zM43,36H31v1.591c0,.7861.6252,1.409,1.357,1.409h9.286c.7318,0,1.357-.6229,1.357-1.409V36zM30,20.409C30,19.0959,31.047,18,32.357,18h9.286C42.953,18,44,19.0959,44,20.409v17.182C44,38.9029,42.9532,40,41.643,40h-9.286C31.0468,40,30,38.9029,30,37.591V20.409zM38,38h-2v-1h2v1zm1-17h-4v-1h4v1z"/></svg>