<svg width="36" height="36" viewBox="0,0,36,36" xmlns="http://www.w3.org/2000/svg"><path fill-rule="evenodd" clip-rule="evenodd" d="m18,3.24955c-2.3476,0-4.25,1.90236-4.25,4.25v.25H12v1h1.75v4.99995H12v1h1.6598l-2.8334,17H7.5v1h21v-1h-3.3264l-2.8334-17H24v-1h-1.75V8.74955H24v-1h-1.75v-.25c0-2.34764-1.9024-4.25-4.25-4.25zm3.25,4.5v-.25c0-1.79536-1.4546-3.25-3.25-3.25s-3.25,1.45464-3.25,3.25v.25h6.5zm-6.5,1v4.99995h6.5V8.74955h-6.5zM11.8402,31.7495l2.8334-17h6.6528l2.8334,17H11.8402zm15.1598-20h3v-1h-3v1zm6,0h-1.5v-1H33v1zm-5.7519-3.06583,5.25-3-.4962-.86824-5.25,3,.4962.86824zm4.7538,9.00003-5.25-3,.4962-.8683,5.25,3-.4962.8683zM9,10.7495H6v1h3v-1zm-6,0h1.5v1H3v-1zm6.24807-2.93407-5.25-3-.49614.86824,5.25,3,.49614-.86824zM3.50193,16.8154l5.25-3,.49614.8683-5.25,3-.49614-.8683z"/></svg>