<svg width="24" height="24" viewBox="0,0,24,24" xmlns="http://www.w3.org/2000/svg"><path fill-rule="evenodd" clip-rule="evenodd" d="m7.30764,6.41063c.80703-.23616,1.5948-.41075,2.19248-.41075,1.12818,0,1.81378.27235,2.25528.59728.0958.0705.1767.14105.2447.20668.068-.06563.1489-.13618.2447-.20668.4416-.32493,1.1272-.59728,2.2553-.59728.5977,0,1.3855.17459,2.1925.41075.8197.23988,1.7065.55784,2.5204.87298.8151.31559,1.5634.63081,2.1077.86697.2723.11815.4939.21669.6477.28582.0769.03457.1369.0618.1778.08046l.0469.02142.0122.00561.0032.00148.0009.0004.0002.00012c.0001.00003.0001.00005-.2093.45362l.2094-.45357.7994.36912-.7265.49739-.2821-.412c.2821.412.282.41204.2819.41211l-.0003.0002-.001.00069-.0036.00248-.0137.0093-.0523.03534c-.0456.03076-.1126.07562-.1989.13266-.1725.11408-.4222.27698-.7327.47337-.6205.3927-1.4855.9205-2.4631,1.4608-1.7801.9838-4.0075,2.0516-5.8167,2.3688v.1894c.1564-.0553.3247-.0854.5-.0854.6918,0,1.2743.4684,1.4475,1.1053.1712-.0679.3577-.1052.553-.1052.6918,0,1.2742.4683,1.4475,1.1051.171-.0678.3574-.105.5525-.105.8284,0,1.5.6716,1.5,1.5L19.0002,21l-1-.0001.0004-3.4995v-.0001c0-.2761-.2239-.4999-.5-.4999s-.5.2238-.5.5h-.0001L17.0004,20l-1-.0001.0002-3.4996c0-.2761-.2239-.5-.5-.5s-.5.2239-.5.5h-.0005L15,19l-1-.0001.0001-3.4997c0-.2761-.2238-.5-.5-.5-.2761,0-.5.2239-.5.5v2.4997h-1v-7.5c0-.2761-.2238-.49996-.5-.49996-.2761,0-.5.22386-.5.49996v8.5h-1v-1.4995c0-.2762-.22384-.5-.49998-.5s-.49999.2238-.5.5l.00013,3.4995-1,.0001-.00013-3.4996c0-.8284.67157-1.5,1.5-1.5.17532,0,.34361.0301.49998.0853v-2.4206c-1.75987-.5098-3.75722-1.5272-5.33008-2.4246-.84931-.4846-1.58601-.9407-2.11054-1.27571-.26239-.1676-.472-.30511-.61641-.40098-.07221-.04795-.12814-.0855-.16625-.11122l-.04359-.02952-.01141-.00777-.00304-.00208-.00085-.00058-.00026-.00018c-.00008-.00005-.00014-.0001.28245-.41258-.20962-.45394-.20957-.45396-.2095-.45399l.00025-.00012.00087-.0004.00321-.00148.01221-.00561.04684-.02142c.04093-.01866.10093-.04589.17785-.08046.15382-.06913.37543-.16767.64772-.28582.54423-.23616,1.29256-.55138,2.10763-.86697.81392-.31514,1.7007-.6331,2.52044-.87298zM2.00012,8.99988l-.28259.41248-.726075-.49742.799045-.369.20962.45394zM18.852,8.21615c.5499.21291,1.0696.42599,1.515.61398-.4327.08334-.942.1763-1.5074.27018-1.7107.28405-3.9222.5744-6.0689.63477-.2614-.44015-.7415-.73514-1.2906-.73514-.5315,0-.9984.27643-1.2649.69337-1.99322-.1154-3.96741-.39706-5.47409-.65728-.41521-.07171-.7943-.14169-1.12777-.20593.44535-.18798.96507-.40105,1.51493-.61395.80029-.30986,1.65811-.6169,2.44022-.84577.79481-.23259,1.46613-.3705,1.91163-.3705.95818,0,1.42468.22765,1.66268.40272.1237.09102.2051.18174.2783.26688l.0121.01417c.0308.03609.0786.09216.1244.13566l.0008.00077c.0392.03726.1891.1798.4217.1798s.3826-.14254.4217-.1798l.0008-.00077c.0458-.0435.0937-.09957.1244-.13566l.0122-.01417c.0731-.08514.1546-.17586.2783-.26688.2379-.17507.7044-.40272,1.6626-.40272.4455,0,1.1168.13791,1.9117.3705.7821.22887,1.6399.53591,2.4402.84577zM4.54992,10.0143c.19694.1164.40271.2361.61566.3576,1.47625.8423,3.26324,1.7508,4.83452,2.2484v-1.9394c-1.98365-.1243-3.92614-.4033-5.40918-.6595-.01371-.0023-.02737-.0047-.041-.0071zm8.45018,2.8647v-2.1499c2.1529-.0729,4.3381-.3625,6.0233-.6423.1452-.0241.2868-.0482.4244-.072-.3472.205-.7218.4202-1.1147.6373-1.7293.9558-3.7436,1.908-5.333,2.2269z"/></svg>