<svg width="24" height="24" viewBox="0,0,24,24" xmlns="http://www.w3.org/2000/svg"><path fill-rule="evenodd" clip-rule="evenodd" d="m12,2.01465c-3.31414,0-6,2.68586-6,6v.0098l.00038.0098c.04078,1.03916.35045,1.91402.83703,2.72385l-.00012.0001.00633.01,4.74998,7.498.4224.6668.4224-.6668,4.75-7.498.0062-.0098.0058-.0101c.4721-.82816.7906-1.71983.7996-2.72921v-.00444c0-3.3142-2.6869-6-6-6zM7.6916,10.2382c-.41004-.68397-.65692-1.39285-.69159-2.23337C7.0053,5.24749,9.24142,3.01465,12,3.01465c2.7602,0,4.9988,2.23701,5,4.9978-.0074.78812-.2527,1.50877-.6627,2.23065l-4.3213,6.8212-4.3244-6.8261zm1.0539,4.9398c-1.87085.2118-3.50046.6034-4.67787,1.1234-.58733.2594-1.08762.5618-1.44856.9106-.36175.3496-.61931.7831-.61931,1.2878,0,.6419.41211,1.1648.94409,1.5627.54135.4049,1.2934.7494,2.17922,1.0304,1.77746.5638,4.20579.9069,6.87673.9069,2.6713,0,5.0997-.3431,6.877-.9069.8858-.281,1.6378-.6255,2.179-1.0304.532-.3979.944-.9208.944-1.5627,0-.5008-.2538-.9317-.6112-1.2797-.3563-.347-.8503-.6481-1.43-.9066-1.1621-.5181-2.7707-.9099-4.619-1.1253l-.1157.9932c1.7897.2086,3.2901.5829,4.3275,1.0454.52.2319.8985.4749,1.1395.7097.2401.2339.3089.4226.3089.5633,0,.1801-.1169.4432-.543.7619-.4167.3118-1.0518.6145-1.8824.878-1.6554.5252-3.977.8601-6.5746.8601-2.59715,0-4.91882-.3349-6.57436-.8601-.83068-.2635-1.46588-.5663-1.88265-.878-.42615-.3187-.54303-.5818-.54303-.7619,0-.1418.06981-.3325.31421-.5687.24522-.237.62987-.4818,1.15766-.7149,1.05284-.465,2.57423-.8394,4.38638-1.0446l-.11251-.9936zM14,6V4.9995L13.4995,5l-1.0015.001v.5l-.0005-.5h.0003c-1.2091.00011-2.2164.85873-2.4478,1.999H8v1h2.0501c.2318,1.14076,1.241,2,2.4499,2H14V9h1.5V8H14V7h1.5V6H14zm-1.5015.001L13,6.0005V9h-.5c-.8279,0-1.5-.67214-1.5-1.5,0-.82818.6705-1.499,1.498-1.499h.0005z"/></svg>