<svg width="36" height="36" viewBox="0,0,36,36" xmlns="http://www.w3.org/2000/svg"><path fill-rule="evenodd" clip-rule="evenodd" d="m3,5.74805h15v-1H3v1zm0,2.00146h7.25V26.4995h3.5V7.75016h3.4976c2.502-.02424,4.3727.38661,5.8391,1.21948,1.4713.83564,2.4837,2.06666,3.3193,3.58436l.0052.0094.0048.0097,5.3445,10.7805.0091.0183.0075.0191c.6,1.5093.8492,2.7832.7267,3.8485-.1254,1.0907-.6373,1.9284-1.4723,2.538-.8146.5948-1.9146.9574-3.2099,1.1756-1.3007.2191-2.8417.2993-4.5717.2986h-.0001l-8.9999-.0015-.4999-.0001v-3.7506h-3.5v3.75H3v-1h6.25V8.74951H3v-1zm13.75,5.99999h6.059l5,10H16.75v-10zM17.75,14.7495v8h8.441l-4-8H17.75zm-.4951-5.99937c2.3942-.02346,4.074.37119,5.3379,1.08905,1.2567.71382,2.1534,1.77612,2.932,3.18782l5.3306,10.7523c.5649,1.4266.7503,2.5167.6549,3.346-.0928.8075-.4542,1.3962-1.0684,1.8446-.6346.4633-1.5597.7904-2.7864.9971-1.2211.2057-2.6988.2854-4.4053.2847h-.0001l-8.5001-.0015V8.75016h2.5v.00002l.0049-.00005z"/></svg>