<svg width="36" height="36" viewBox="0,0,36,36" xmlns="http://www.w3.org/2000/svg"><path fill-rule="evenodd" clip-rule="evenodd" d="m6.90978,7.73633H6v1h.90978c1.7421,0,3.44942.38909,4.97642,1.19835l2.3947,1.26912c-1.2351,1.7954-.7254,4.4456,1.343,5.3825l.0444.0198,3.7758,1.6568c1.495.656,3.1099.9947,4.7425.9947h5.291l.6266.332c1.0123.5365,1.6458,1.5896,1.6458,2.7371,0,.1386-.0083.2753-.0243.4096H10.5v1h20.9463c-.5356,1.1799-1.723,2-3.1011,2H3v1h1.78544c.1114.7788.47917,1.4749,1.01507,2H3v1h30v-1H19.7197c.5359-.5251.9037-1.2212,1.0151-2h7.6104c2.4333,0,4.4048-1.9748,4.4048-4.4096,0-1.5173-.8377-2.9106-2.1776-3.6206l-18.218-9.65501c-1.6837-.89231-3.55399-1.31476-5.44462-1.31476zm8.21502,4.00547.0467-.066,12.4192,6.5818h-3.4041c-1.4943,0-2.9724-.31-4.3407-.9105l-3.7758-1.6567-.0336-.015c-1.4327-.649-1.8706-2.5777-.9117-3.9336zm-.3046,14.9945c.2316,1.1411,1.2405,2,2.45,2s2.2184-.8589,2.45-2h-4.9zm-1.0146,0h-2.091c-.1114.7788-.4792,1.4749-1.0151,2h4.1212c-.5359-.5251-.9037-1.2212-1.0151-2zm-8.00559,0c.23163,1.1411,1.24051,2,2.44999,2s2.2184-.8589,2.45-2H5.80001zM4.5,8.73633H3v-1h1.5v1zm0,13.99997H3v1h1.5v-1zm1.5,0h3v1H6v-1zm1.4994-4.4985H4.5v1h2.9994v-1zm1.75062-1.7509c0-.9668-.78377-1.7506-1.7506-1.7506v-1c1.51911,0,2.75058,1.2315,2.75058,2.7506s-1.23147,2.7506-2.75058,2.7506v-1c.96683,0,1.7506-.7837,1.7506-1.7506zM3,14.7363h3v-1H3v1z"/></svg>