<svg width="36" height="36" viewBox="0,0,36,36" xmlns="http://www.w3.org/2000/svg"><path fill-rule="evenodd" clip-rule="evenodd" d="m23.3482,24.4153,4.9633,4.9633.7071-.7072L6.51858,6.17145l-.70711.7071,4.42313,4.42315c-2.00047,1.5422-3.76222,3.3731-5.22708,5.4336l-.20039.2818.19303.287c.57614.8564,2.20105,2.9575,4.49746,4.8505C11.7873,24.042,14.8086,25.775,18.165,25.775h.0074l.0074-.0002c1.8058-.0534,3.5734-.5192,5.1684-1.3595zm-.7436-.7436L10.9479,12.0149c-.8637.6586-1.68156,1.3729-2.44875,2.1378L19.0439,24.7118c1.2373-.1395,2.442-.4912,3.5607-1.0401zM18.1647,8.2749v.0001c3.3564,0,6.3777,1.733,8.6674,3.6204,2.2964,1.893,3.9214,3.9941,4.4975,4.8505l.1935.2877-.2016.2821c-1.2486,1.747-2.7071,3.334-4.3428,4.7252l-.6479-.7618c1.4838-1.262,2.8161-2.6916,3.9704-4.2598-.666-.9261-2.1265-2.7212-4.1051-4.3522-2.2129-1.8241-5.0097-3.39035-8.0263-3.3921-1.2032.02497-2.392.2669-3.5092.71418l-.3717-.92836c1.2307-.4927,2.5403-.75889,3.8657-.78572l.0101-.0002zM6.02806,17.03c.55173-.7531,1.14523-1.4731,1.77732-2.1568l9.87502,9.8884c-2.833-.1557-5.4516-1.6517-7.5467-3.3787-1.97912-1.6314-3.43991-3.427-4.10564-4.3529zM19.693,11.47c-.9658-.2583-1.9826-.2575-2.948.0022l.2597.9656c.7958-.214,1.6339-.2146,2.43-.0017.796.2129,1.522.6317,2.1047,1.2144.5826.5827,1.0015,1.3086,1.2144,2.1047s.2123,1.6342-.0018,2.4299l.9657.2598c.2597-.9654.2604-1.9823.0022-2.9481-.2583-.9658-.7665-1.8465-1.4734-2.5534-.707-.7069-1.5877-1.2151-2.5535-1.4734z"/></svg>