<svg width="24" height="24" xmlns="http://www.w3.org/2000/svg"><path fill-rule="evenodd" clip-rule="evenodd" d="m15.5339,16.4809,3.2226,3.2227.7071-.7072L4.46365,3.99645l-.70711.7071,2.81544,2.81544c-1.28513,1.01349-2.41991,2.20576-3.3694,3.54131l-.20038.2818.19303.287c.39113.5814,1.4848,1.995,3.03058,3.2692C7.76488,16.167,9.81616,17.35,12.1101,17.35h.0074l.0074-.0002c1.1881-.0351,2.352-.3326,3.409-.8689zm-.7496-.7496L7.28431,8.23132c-.48345.37558-.94472.77784-1.38173,1.20469l6.85422,6.86349c.7004-.087,1.3839-.2786,2.0275-.5682zM12.1099,5.3499V5.35c2.2939,0,4.3452,1.18301,5.8843,2.45168,1.5458,1.27421,2.6394,2.68782,3.0305,3.26922l.1936.2877-.2016.2821c-.8404,1.1758-1.822,2.2439-2.9229,3.1802l-.6479-.7618c.9485-.8067,1.8032-1.717,2.5481-2.7138-.4652-.6308-1.3966-1.75045-2.6359-2.77198-1.4622-1.20529-3.289-2.22157-5.2432-2.22332-.7814.01643-1.5535.17367-2.27918.46418l-.37166-.92836c.83914-.33594,1.73204-.51743,2.63574-.53572l.0101-.0002zM4.22547,11.354c.30888-.415.63713-.8146.98349-1.1974l6.13384,6.1422c-1.66515-.2206-3.21064-1.125-4.48092-2.1721-1.2397-1.0219-2.17132-2.142-2.63641-2.7727zm8.94633-3.86834c-.6721-.17975-1.3798-.17923-2.0517.0015l.2598.96568c.5022-.1351,1.0311-.13549,1.5336-.00113.5024.13437.9605.39873,1.3283.76648.3677.36775.6321.82591.7665,1.32831.1343.5024.1339,1.0314-.0012,1.5336l.9657.2598c.1808-.6719.1813-1.3796.0015-2.0517-.1797-.67219-.5334-1.28512-1.0254-1.77711s-1.1049-.84567-1.7771-1.02543z"/></svg>