<svg width="36" height="36" xmlns="http://www.w3.org/2000/svg"><path fill-rule="evenodd" clip-rule="evenodd" d="m23.3485,24.4153,4.9632,4.9633.7071-.7072L6.51882,6.17145l-.7071.7071,4.42318,4.42315c-2.00052,1.5422-3.76228,3.3731-5.22714,5.4336l-.20039.2818.19304.287c.57613.8564,2.20104,2.9575,4.49745,4.8505,2.28974,1.8874,5.31094,3.6204,8.66744,3.6204h.0074l.0073-.0002c1.8058-.0534,3.5735-.5192,5.1685-1.3595zm-.7436-.7436L10.9481,12.0149c-.8636.6586-1.68152,1.3729-2.44871,2.1378L19.0441,24.7118c1.2374-.1395,2.4421-.4912,3.5608-1.0401zM18.165,8.2749v.0001c3.3564,0,6.3777,1.733,8.6674,3.6204,2.2964,1.893,3.9213,3.9941,4.4974,4.8505l.1936.2877-.2016.2821c-1.2486,1.747-2.7072,3.334-4.3429,4.7252l-.6479-.7618c1.4839-1.262,2.8162-2.6916,3.9704-4.2598-.6659-.9261-2.1265-2.7212-4.1051-4.3522C23.9835,10.843,21.1867,9.27675,18.17,9.275c-1.2032.02497-2.392.2669-3.5092.71418l-.3717-.92836c1.2307-.4927,2.5404-.75889,3.8657-.78572l.0102-.0002zM6.02831,17.03c.55172-.7531,1.14522-1.4731,1.77732-2.1568l9.87507,9.8884c-2.8331-.1557-5.4517-1.6517-7.5468-3.3787-1.97907-1.6314-3.43986-3.427-4.10559-4.3529zm13.66499-5.56c-.9658-.2583-1.9826-.2575-2.9481.0022l.2598.9656c.7957-.214,1.6339-.2146,2.4299-.0017.7961.2129,1.522.6317,2.1047,1.2144s1.0016,1.3086,1.2144,2.1047c.2129.7961.2123,1.6342-.0017,2.4299l.9656.2598c.2597-.9654.2605-1.9823.0022-2.9481s-.7665-1.8465-1.4734-2.5534-1.5876-1.2151-2.5534-1.4734z"/></svg>