<svg width="24" height="24" viewBox="0,0,24,24" xmlns="http://www.w3.org/2000/svg"><path fill-rule="evenodd" clip-rule="evenodd" d="m15.5341,16.4809,3.2227,3.2227.7071-.7072L4.46389,3.99645l-.70711.7071,2.81544,2.81544C5.2871,8.53248,4.15232,9.72475,3.20283,11.0603l-.20039.2818.19304.287c.39113.5814,1.48479,1.995,3.03057,3.2692C7.76512,16.167,9.81641,17.35,12.1103,17.35h.0074l.0074-.0002c1.1882-.0351,2.3521-.3326,3.409-.8689zm-.7496-.7496L7.28455,8.23132c-.48345.37558-.94471.77784-1.38173,1.20469L12.757,16.2995c.7005-.087,1.3839-.2786,2.0275-.5682zM12.1101,5.3499V5.35c2.294,0,4.3453,1.18301,5.8843,2.45168,1.5458,1.27421,2.6395,2.68782,3.0306,3.26922l.1935.2877-.2016.2821c-.8403,1.1758-1.822,2.2439-2.9228,3.1802l-.6479-.7618c.9485-.8067,1.8031-1.717,2.5481-2.7138-.4653-.6308-1.3967-1.75045-2.636-2.77198-1.4621-1.20529-3.289-2.22157-5.2431-2.22332-.7815.01643-1.5536.17367-2.27923.46418l-.37167-.92836c.8391-.33594,1.732-.51743,2.6357-.53572l.0101-.0002zM4.22571,11.354c.30889-.415.63713-.8146.98349-1.1974l6.1338,6.1422c-1.6651-.2206-3.2106-1.125-4.48088-2.1721-1.2397-1.0219-2.17132-2.142-2.63641-2.7727zm8.94639-3.86834c-.6722-.17975-1.3799-.17923-2.0517.0015l.2597.96568c.5022-.1351,1.0312-.13549,1.5336-.00113.5024.13437.9606.39873,1.3283.76648.3678.36775.6322.82591.7665,1.32831.1344.5024.134,1.0314-.0011,1.5336l.9657.2598c.1807-.6719.1812-1.3796.0015-2.0517-.1798-.67219-.5335-1.28512-1.0255-1.77711-.4919-.49199-1.1049-.84567-1.777-1.02543z"/></svg>