<svg width="36" height="36" xmlns="http://www.w3.org/2000/svg"><path fill-rule="evenodd" clip-rule="evenodd" d="m8.02,6.52C7.53,7.01,7.25,7.79,7.25,9v7.75h21.5V9c0-1.21-.28-1.99-.77-2.48S26.71,5.75,25.5,5.75h-15c-1.21,0-1.99.28-2.48.77zM7.25,27.25v-9.5h21.5V27.25H7.25zm.06-21.44C8.06,5.06,9.15,4.75,10.5,4.75h15c1.35,0,2.44.31,3.19,1.06C29.44,6.56,29.75,7.65,29.75,9v4.75h1.5v2.5h-1.5v15h-5.5V28.25H11.75v3h-5.5V16.25h-1.5v-2.5h1.5V9c0-1.35.31-2.44,1.06-3.19zM29.75,15.25v-.5h.5v.5h-.5zm-23.5-.5h-.5v.5h.5v-.5zm19,13.5H28.75v2h-3.5V28.25zm-18,0h3.5v2h-3.5V28.25zm3.25-20.5h15v1h-15v-1zM9.25,24c0-.69.56-1.25,1.25-1.25.69,0,1.25.56,1.25,1.25,0,.69-.56,1.25-1.25,1.25-.69,0-1.25-.56-1.25-1.25zm1.25-.25c-.14,0-.25.11-.25.25,0,.14.11.25.25.25s.25-.11.25-.25c0-.14-.11-.25-.25-.25zm15-1c-.69,0-1.25.56-1.25,1.25,0,.69.56,1.25,1.25,1.25s1.25-.56,1.25-1.25c0-.69-.56-1.25-1.25-1.25zm-.25,1.25c0-.14.11-.25.25-.25s.25.11.25.25c0,.14-.11.25-.25.25s-.25-.11-.25-.25zM21.6,21.75l-2.4-2.25h1.8l3,3-3,3h-1.8l2.4-2.25h-2.85v2.25h-1.5v-2.25h-2.85l2.4,2.25h-1.8l-3-3,3-3h1.8l-2.4,2.25h2.85V19.5h1.5v2.25h2.85z"/></svg>