<svg width="36" height="36" xmlns="http://www.w3.org/2000/svg"><path fill-rule="evenodd" clip-rule="evenodd" d="m8.23,4.75h-.5v.5c0,4.45,3.03,8.27,6.21,10.18.78.48,1.34,1.44,1.34,2.57,0,1.13-.56,2.09-1.34,2.57-3.18,1.92-6.21,5.73-6.21,10.18v.5H28.27v-.5c0-4.45-3.03-8.26-6.21-10.18-.78-.48-1.34-1.44-1.34-2.57,0-1.13.56-2.09,1.34-2.57,3.18-1.92,6.21-5.73,6.21-10.18v-.5H8.23zm6.23,9.83c-2.85-1.72-5.49-5.03-5.71-8.83H27.26c-.22,3.8-2.86,7.11-5.71,8.83l0,0c-1.09.67-1.82,1.97-1.82,3.42,0,1.45.72,2.75,1.82,3.42l0,0c2.85,1.72,5.5,5.03,5.71,8.83H8.74c.22-3.8,2.86-7.11,5.71-8.83l0,0c1.09-.67,1.82-1.97,1.82-3.42,0-1.45-.73-2.75-1.82-3.42l0,0zm-.26-3.83h-1.27l.93.87c.51.48,1.07.9,1.63,1.25l0,0,.01,0c.87.54,1.56,1.47,2.04,2.53l.46,1.01.46-1.01c.48-1.06,1.17-1.99,2.03-2.52.57-.35,1.14-.78,1.66-1.26l.93-.87h-8.88zm1.82,1.26c-.14-.08-.27-.17-.4-.26h4.78c-.14.1-.28.19-.42.27l0,0c-.82.5-1.47,1.25-1.97,2.09-.5-.84-1.15-1.59-1.97-2.09l-.01,0-.01-.01z"/></svg>