<svg width="36" height="36" xmlns="http://www.w3.org/2000/svg"><path fill-rule="evenodd" clip-rule="evenodd" d="m5.97,8.29C4.82,8.92,4.25,9.73,4.25,10.5s.57,1.58,1.72,2.21c1.13.63,2.73,1.04,4.53,1.04,1.8,0,3.4-.41,4.53-1.04,1.15-.64,1.72-1.44,1.72-2.21s-.57-1.58-1.72-2.21C13.9,7.66,12.3,7.25,10.5,7.25c-1.8,0-3.4.41-4.53,1.04zM17.75,10.5c0-1.3-.94-2.37-2.23-3.09C14.21,6.68,12.43,6.25,10.5,6.25c-1.93,0-3.71.43-5.02,1.16C4.19,8.13,3.25,9.2,3.25,10.5v18c0,1.3.94,2.37,2.23,3.09C6.79,32.32,8.57,32.75,10.5,32.75c1.75,0,3.42-.15,4.72-.8l-.45-.89c-1.08.54-2.55.7-4.28.7-1.8,0-3.4-.41-4.53-1.04C4.82,30.08,4.25,29.27,4.25,28.5v-2.32c.35.35.77.65,1.23.91C6.79,27.82,8.57,28.25,10.5,28.25c1.75,0,3.42-.15,4.72-.8l-.45-.89c-1.08.54-2.55.7-4.28.7-1.8,0-3.4-.41-4.53-1.04C4.82,25.58,4.25,24.77,4.25,24v-2.32c.35.35.77.65,1.23.91C6.79,23.32,8.57,23.75,10.5,23.75c1.75,0,3.42-.15,4.72-.8l-.45-.89c-1.08.54-2.55.7-4.28.7-1.8,0-3.4-.41-4.53-1.04C4.82,21.08,4.25,20.27,4.25,19.5v-2.32c.35.35.77.65,1.23.91C6.79,18.82,8.57,19.25,10.5,19.25c1.75,0,3.42-.15,4.72-.8l-.45-.89c-1.08.54-2.55.7-4.28.7-1.8,0-3.4-.41-4.53-1.04C4.82,16.58,4.25,15.77,4.25,15v-2.32c.35.35.77.65,1.23.91C6.79,14.32,8.57,14.75,10.5,14.75c1.93,0,3.71-.43,5.02-1.16.47-.26.89-.56,1.23-.91V15h1v-4.5zm1.72,6.79c-1.15.64-1.72,1.44-1.72,2.21s.57,1.58,1.72,2.21c1.13.63,2.73,1.04,4.53,1.04s3.4-.41,4.53-1.04c1.15-.64,1.72-1.44,1.72-2.21s-.57-1.58-1.72-2.21C27.4,16.66,25.8,16.25,24,16.25s-3.4.41-4.53,1.04zm9.55,5.3c.47-.26.89-.56,1.23-.91V24c0,.77-.57,1.58-1.72,2.21C27.4,26.84,25.8,27.25,24,27.25s-3.4-.41-4.53-1.04C18.32,25.58,17.75,24.77,17.75,24v-2.32c.35.35.77.65,1.23.91C20.29,23.32,22.07,23.75,24,23.75s3.71-.43,5.02-1.16zM31.25,19.5v9c0,1.3-.94,2.37-2.23,3.09C27.71,32.32,25.93,32.75,24,32.75s-3.71-.43-5.02-1.16C17.69,30.87,16.75,29.8,16.75,28.5v-9c0-1.3.94-2.37,2.23-3.09C20.29,15.68,22.07,15.25,24,15.25s3.71.43,5.02,1.16c1.29.72,2.23,1.79,2.23,3.09zm-2.23,7.59c.47-.26.89-.56,1.23-.91V28.5c0,.77-.57,1.58-1.72,2.21C27.4,31.34,25.8,31.75,24,31.75s-3.4-.41-4.53-1.04C18.32,30.08,17.75,29.27,17.75,28.5v-2.32c.35.35.77.65,1.23.91C20.29,27.82,22.07,28.25,24,28.25s3.71-.43,5.02-1.16z"/></svg>