<svg width="36" height="36" xmlns="http://www.w3.org/2000/svg"><path fill-rule="evenodd" clip-rule="evenodd" d="m15.75,6.25h-.5v1.5H12c-2.35,0-4.25,1.9-4.25,4.25v16.25h3.32l-2.48,3.72.83.55,2.85-4.28h11.46l2.85,4.28.83-.55-2.48-3.72H28.25v-16.25c0-2.35-1.9-4.25-4.25-4.25h-3.25V6.25h-5zm4,1.5V7.25h-3.5v.5h3.5zM21,10.75h-6v1h6v-1zm6.25,9v-7.75c0-1.79-1.45-3.25-3.25-3.25H12c-1.8,0-3.25,1.46-3.25,3.25v7.75h18.5zm-18.5,1h18.5v6.5H8.75v-6.5zm12.5,3.25c0-.69.56-1.25,1.25-1.25s1.25.56,1.25,1.25c0,.69-.56,1.25-1.25,1.25s-1.25-.56-1.25-1.25zm1.25-.25c-.14,0-.25.11-.25.25,0,.14.11.25.25.25s.25-.11.25-.25c0-.14-.11-.25-.25-.25zm-9-1c-.69,0-1.25.56-1.25,1.25,0,.69.56,1.25,1.25,1.25s1.25-.56,1.25-1.25c0-.69-.56-1.25-1.25-1.25zm-.25,1.25c0-.14.11-.25.25-.25s.25.11.25.25c0,.14-.11.25-.25.25s-.25-.11-.25-.25z"/></svg>