<svg width="24" height="24" xmlns="http://www.w3.org/2000/svg"><path fill-rule="evenodd" clip-rule="evenodd" d="m16.31,9.86c.49.11.89.38,1.18.75.39.5.56,1.16.51,1.8-.05.64-.31,1.29-.82,1.79-.52.5-1.25.81-2.18.81H8c-.95,0-1.69-.31-2.2-.82-.5-.51-.74-1.17-.76-1.81-.03-.64.15-1.29.51-1.79.27-.38.66-.69,1.14-.81.09-1.85,2.01-2.9,3.52-2.18.95-1.54,2.62-1.92,3.99-1.42.75.27,1.4.8,1.79,1.55.32.61.45,1.34.32,2.14zm-2.46-2.75c-1.05-.38-2.36-.05-3,1.39l-.27.6-.51-.42c-.97-.79-2.57-.05-2.39,1.45l.07.56h-.56c-.35,0-.63.17-.85.46-.22.3-.34.73-.32,1.17.02.43.18.85.47,1.15.29.29.76.52,1.49.52h7c.7,0,1.17-.23,1.48-.53.32-.31.49-.72.52-1.15.03-.43-.08-.83-.3-1.1-.21-.26-.52-.44-.99-.42l-.7.03.2-.67c.24-.81.15-1.48-.12-1.98-.27-.51-.72-.88-1.25-1.07zM7.05,17.78l1-2,.89.45-1,2-.89-.45zm7-2-1,2,.89.45,1-2-.89-.45zm-6,4,2-4,.89.45-2,4-.89-.45zm4.05-4-2,4,.89.45,2-4-.89-.45z"/></svg>