<svg width="36" height="36" xmlns="http://www.w3.org/2000/svg"><path fill-rule="evenodd" clip-rule="evenodd" d="m10.5,9.25098c-3.17562,0-5.74998,2.57432-5.74998,5.75002,0,2.8944,2.13858,5.2893,4.92182,5.6908L4.0659,30.5022l-.42747.748H32.3531l-.4168-.7443-10.5-18.75-.4077-.7279-.4497.7027-3.9426,6.1603-.7541-.8798c.2342-.6239.3678-1.2999.3678-2.0102,0-3.1758-2.5759-5.75002-5.75-5.75002zm4.6146,6.86462c.0879-.3578.1354-.7306.1354-1.1146,0-2.6233-2.128-4.75-4.75-4.75-2.62334,0-4.74998,2.1266-4.74998,4.75,0,2.5274,1.97394,4.5938,4.46428,4.7415l3.2036-5.6063.4617.5386,1.235,1.4408zM8.72638,30.2502l7.34692-11.4795-2.4912-2.9064L5.36161,30.2502h3.36477zm21.92062,0H9.91365l6.48955-10.1399,1.498,1.498.3223-.1611,2.6777-1.3389,1.2452,1.2452.2885.2886.3406-.2249,2.1352-1.4103,5.7363,10.2433zm-9.6756-17.2777-4.0163,6.2755,1.1435,1.1436,2.6777-1.3388.3223-.1612.2549.2548,1.2114,1.2114,1.8559-1.2257-3.4494-6.1596z"/></svg>