<svg width="36" height="36" xmlns="http://www.w3.org/2000/svg"><path fill-rule="evenodd" clip-rule="evenodd" d="m17.2496,3.26185c-4.4176,0-7.99997,3.58236-7.99997,8.00005,0,.3844.02891.7603.08259,1.1278-3.44252.5595-6.08259,3.5156-6.08259,7.1222,0,4.0036,3.24636,7.25,7.24997,7.25H16.75V31.75H3v1h30v-1H17.75v-4.9881h9.2496c3.1757,0,5.75-2.5744,5.75-5.75,0-1.7804-.8144-3.3653-2.0819-4.4173.3701-.696.5819-1.4889.5819-2.3327,0-2.7617-2.2383-5.00005-5-5.00005-.4311,0-.8453.05917-1.2389.16356-.8298-3.52776-3.9754-6.16356-7.7611-6.16356zM17.75,25.7619h9.2496c2.6234,0,4.75-2.1267,4.75-4.75,0-1.6047-.8016-3.0202-2.0256-3.8811l-.3962-.2786.2659-.4048c.414-.6303.6559-1.3785.6559-2.1855,0-2.2094-1.7906-4-4-4-.5038,0-.9854.1027-1.4383.2793l-.5775.2252-.0979-.6121c-.5338-3.3385-3.4035-5.89245-6.8863-5.89245-3.8653,0-7,3.13464-7,7.00005,0,.4978.0558.9816.1569,1.4537l.1187.5538-.56427.0491c-3.19945.2781-5.7113,2.931-5.7113,6.1934,0,3.4513,2.79865,6.25,6.24997,6.25H16.75v-6.0216l-3.5623-2.8499.6246-.7808,2.9377,2.3501V13.5h1v9.1693l4.3737-4.9986.7526.6586L17.75,24.1879v1.574z"/></svg>