<svg width="48" height="48" xmlns="http://www.w3.org/2000/svg"><path fill-rule="evenodd" clip-rule="evenodd" d="m30.4127,8.28246L11,36.6548v3.3453h-1v-4H8v-1h2v-5H8v-1h2v-5H8v-1h2v-5H8v-1h2v-5H8v-1h2V8.00012h1V34.8839l3.3415-4.8838H13v-1h2.0257l3.4211-5H13v-1h6.131L20,21.73v-3.7299h-7v-1h7v-5h-7v-1h7V8.00012h1v2.99998h2v1h-2v5h2.2363l3.421-5H25v-1h2.3415l2.2458-3.28233.8254.56469zm-7.8606,9.71764L21,20.2685v-2.2684h1.5521zM20,36.0001v3.9995h1v-3.3448l.4479-.6547H25v-1h-2.8678l3.421-5H29v-1h-2.7626l3.4211-5H33v-1h-2.6573l3.421-5H37v-1h-2.5521l3.4211-5H41v-1h-2.4468l1.8595-2.71764-.8254-.56469-2.2458,3.28233H30v1h6.6573l-3.421,5H26v1h6.5521l-3.4211,5H22v1h6.4468l-3.4211,5H18v1h6.3415l-3.421,5H14v1h6z"/></svg>