<svg width="48" height="48" fill="none" xmlns="http://www.w3.org/2000/svg"><path d="m23.5,24.4995v21.5" stroke="#000"/><path fill-rule="evenodd" clip-rule="evenodd" d="m14.5,22.4995c0,1.104.896,2,2,2h14c1.104,0,2-.896,2-2V4.49951c0-1.104-.896-2-2-2h-14c-1.104,0-2,.896-2,2V22.4995z" stroke="#000"/><path fill-rule="evenodd" clip-rule="evenodd" d="m19.4258,7.27736v6.14204h4.348c.649,0,1.167-.039,1.553-.117.386-.079.733-.214,1.04-.406.889-.554,1.333-1.405,1.333-2.553,0-1.16904-.43-2.02004-1.292-2.55304-.314-.199-.661-.333-1.04-.406-.38-.071-.935-.107-1.667-.107h-4.275zm-1.426-1.23h5.999c.855,0,1.534.054,2.04.164.506.109.964.304,1.374.584,1.142.759,1.713,1.918,1.713,3.47604,0,1.586-.554,2.769-1.661,3.548-.779.554-1.877.831-3.292.831h-4.747v6.388h-1.426V6.04736z" fill="#000"/></svg>