<svg width="24" height="24" xmlns="http://www.w3.org/2000/svg"><path fill-rule="evenodd" clip-rule="evenodd" d="m17.9527,2.98779-.5245,1.03801c-.6148,1.21693-.3355,2.73878.5837,3.76977.8939,1.00256,2.4038,1.54301,4.2934.74421l1.1711-.49509-.5202,1.16019c-.5628,1.25512-1.6492,2.05572-2.7316,2.48822-.749.2993-1.5424.4404-2.2171.4137.0025.0984-.0001.1969-.0078.295-.0499.6395-.3161,1.2917-.8246,1.7865-.5147.5009-1.2483.812-2.1749.812H8.00023c-.95398,0-1.6936-.308-2.20141-.8196-.50159-.5054-.73575-1.1679-.76361-1.8086-.02771-.6372.14656-1.2875.50666-1.7908.27429-.3834.66276-.68666,1.14398-.81476.09199-1.85089,2.00672-2.89518,3.52265-2.17629.9357-1.52223,2.5897-1.90868,3.9445-1.43763.2835-.78229.6168-1.36963,1.0164-1.81153.4946-.54703,1.0603-.83749,1.6692-1.01977l1.1141-.33353zm1.9009,7.77671c-.7875.3147-1.5591.394-2.0725.3193-.076-.1695-.1714-.3302-.2867-.4775-.2885-.3688-.6899-.63774-1.1818-.7499.1248-.80445-.0043-1.53187-.3226-2.13959-.2322-.4435-.5591-.81159-.9426-1.09399.2655-.77107.5568-1.27168.8637-1.61103.0767-.08483.1558-.16115.2377-.23012-.2045,1.318.2351,2.69054,1.1167,3.67939.9292,1.04217,2.3432,1.65844,4.0117,1.40759-.4099.39135-.9053.68875-1.4236.89585zm-5.9989-3.65663c-1.0482-.38022-2.3618-.04562-2.997,1.39429l-.2655.60174-.5088-.41675c-.96736-.79235-2.56611-.04792-2.3867,1.45385l.06682.5593h-.56329c-.34817,0-.63449.1685-.84507.4628-.21672.303-.33994.7277-.3209,1.1655.01889.4343.17573.8468.47433,1.1476.29237.2946.76212.5241,1.49164.5241h6.99997c.6914,0,1.1669-.2263,1.4774-.5286.3168-.3082.4921-.7248.5252-1.1478.0333-.4265-.0802-.8256-.296-1.1014-.2049-.2619-.5216-.4412-.9866-.4226l-.6984.028.1992-.67c.2413-.81193.1455-1.47628-.1168-1.97716-.2656-.50707-.7195-.88063-1.2495-1.07287zM9.99999,16c-.55214,0-1,.4479-1,1,0,.5522.44786,1,1,1C10.5521,18,11,17.5522,11,17c0-.5521-.4479-1-1.00001-1zM13,17c0-.5521.4479-1,1-1s1,.4479,1,1c0,.5522-.4479,1-1,1s-1-.4478-1-1zm-1,2c-.5521,0-1,.4479-1,1,0,.5522.4479,1,1,1s1-.4478,1-1c0-.5521-.4479-1-1-1z"/></svg>