<svg width="36" height="36" xmlns="http://www.w3.org/2000/svg"><path fill-rule="evenodd" clip-rule="evenodd" d="m20.6488,8.21689-.3996-.35263-.3265.42122-1.4171,1.82832-5.2915,1.4424-.9339-.5048-.2803-.1515-.2557.19-3.65998,2.7195-.76159.5659.89731.3083.93897.3227-3.8478,4.2666-.07967.0884-.03135.1147-1.62,5.931-.22609.8278,4.04161-1.0274.06783-.0173.06049-.0352,1.0922-.6357,3.08357,2.9513.169.1617.2324-.026,4.7355-.531.1852-.0208.1264-.1368,2.3139-2.5048,2.8716,3.9719.4962.6864.3613-.7661,2.1839-4.6316,5.0945,1.3306.7071.1847-.0841-.726-.2818-2.4325,1.739.0439.538.0136-.026-.5376-.237-4.9035-.0112-.2321-.1846-.141-2.0145-1.539-.47-.3591-.2759.5232-.4618.8759-1.7759-.5359.8306-2.4753.1518-.4524-.4449-.1727-5.4925-2.1323-2.0271-1.78901zm-1.4552,2.64171,1.193-1.5393,1.6945,1.4954.0668.0589.0831.0323,5.1306,1.9918-.8427,2.5115-.164.4888.4936.149,2.664.804.3945.119.1922-.3645.3782-.7173,1.3598,1.0388.1998,4.1338-1.7764-.0449-.5756-.0145.0662.5719.264,2.2785-4.7889-1.2508-.4016-.1049-.177.3754-1.9998,4.241-2.7333-3.7807-.3579-.495-.4145.4487-2.6021,2.8167-4.3179.4841-3.18656-3.0497-.27192-.2603-.32531.1893-1.35701.7898-2.31056.5874,1.36257-4.9885,4.27479-4.7402.5067-.5618-.7155-.2459-.75719-.2602,2.64269-1.9636.8298.4485.1761.0952.1931-.0526,5.646-1.539.1613-.044.1024-.1321zm-5.3786,9.7665c.2317,0,.4511.0525.6469.1463l5.5043-5.5042c-.0969-.1985-.1512-.4214-.1512-.6571,0-.8284.6716-1.5,1.5-1.5s1.5.6716,1.5,1.5-.6716,1.5-1.5,1.5c-.2275,0-.4431-.0506-.6363-.1413l-5.5098,5.5098c.0937.1958.1461.415.1461.6465,0,.8284-.6716,1.5-1.5,1.5s-1.5-.6716-1.5-1.5.6716-1.5,1.5-1.5z"/></svg>