<svg width="24" height="24" xmlns="http://www.w3.org/2000/svg"><path fill-rule="evenodd" clip-rule="evenodd" d="m2,3.99976h20v5h-.5c-1.4239,0-2.5,1.07614-2.5,2.50004,0,1.4238,1.0761,2.5,2.5,2.5h.5v5H2V3.99976zm1,1V17.9998h13v-.4643h1v.4643h4v-3.0333c-1.7274-.2327-3-1.6609-3-3.4667,0-1.80593,1.2726-3.23411,3-3.4668V4.99976h-4v.46428h-1v-.46428H3zm7.1799,5.82524c.2502.1126.5278.1752.8201.1752,1.1041,0,2-.8958,2-1.99996,0-1.10536-.8961-2-2-2-1.10514,0-2,.89486-2,2,0,.44988.14857.86523.39944,1.19946L7.81953,12.175c-.25014-.1126-.52755-.1752-.81953-.1752-1.10536,0-2,.896-2,2,0,1.1039.89464,2,2,2,1.10414,0,2-.8959,2-2,0-.4501-.14882-.8655-.3999-1.1998l1.5798-1.975zM10,9.00024c0-.55285.4471-1,1-1,.5521,0,1,.44736,1,1,0,.55186-.4481.99996-1,.99996-.5526,0-1-.44788-1-.99996zM7,12.9998c-.55264,0-1,.4479-1,1,0,.552.44736,1,1,1,.55186,0,1-.4482,1-1,0-.5519-.44814-1-1-1zm9-6.60719v.92857h1v-.92857h-1zm0,1.85715v.92857h1v-.92857h-1zm0,1.85714v.9286h1v-.9286h-1zm0,1.8571v.9286h1v-.9286h-1zm0,1.8572v.9286h1v-.9286h-1zM16,15.6783v.9286h1v-.9286h-1z"/></svg>