<svg width="36" height="36" xmlns="http://www.w3.org/2000/svg"><path fill-rule="evenodd" clip-rule="evenodd" d="m19.94,8.24,2.43,2.14,5.94,2.31-.98,2.93,1.78.54.74-1.4,2.67,2.04.27,5.67-2.28-.06.37,3.16-5.8-1.52-2.55,5.4-3.37-4.66-2.44,2.64-5.15.58-3.25-3.11-1.15.67L3.04,26.61,4.89,19.85l.03-.11,3.93-4.36-1.84-.63,4.68-3.48,1.21.66,5.29-1.44,1.74-2.25zm.14,1.46-1.3,1.67-6,1.64-1.01-.54-2.64,1.96,1.47.51-4.78,5.3-1.36,4.99,2.31-.59,1.68-.98,3.46,3.31,4.32-.48,3.02-3.27,3.09,4.28,2.18-4.62,5.19,1.36-.33-2.85,2.35.06-.2-4.13-1.36-1.04-.57,1.08-3.55-1.07,1.01-3-5.21-2.02-1.76-1.55z"/></svg>