<svg width="24" height="24" xmlns="http://www.w3.org/2000/svg"><path fill-rule="evenodd" clip-rule="evenodd" d="m12,4h1v-1h-3v1h1v2h.5c4.14,0,7.5,3.36,7.5,7.5,0,4.14-3.36,7.5-7.5,7.5-4.14,0-7.5-3.36-7.5-7.5v-.49H3v.49c0,4.69,3.81,8.5,8.5,8.5,4.69,0,8.5-3.81,8.5-8.5,0-4.53-3.54-8.23-8-8.49V4zm-.59,13.29,5-7-.81-.58-4.66,6.52-2.58-2.58-.71.71,3.42,3.42.34-.48zM10.04,6.13l-.97.26-.26-.97.97-.26.26.97zM7.32,7.26l.87-.5-.5-.87-.87.5.5.87zm-.77.59-.71.71-.71-.71.71-.71.71.71zM4.75,10.18l.5-.87-.87-.5-.5.87.87.5zm-.37.89-.26.97-.97-.26.26-.97.97.26z"/></svg>