<svg width="48" height="48" xmlns="http://www.w3.org/2000/svg"><path fill-rule="evenodd" clip-rule="evenodd" d="m9,7.5C9,5.02,11.02,3,13.5,3S18,5.02,18,7.5,15.98,12,13.5,12,9,9.98,9,7.5zM13.5,2C10.46,2,8,4.46,8,7.5c0,3.04,2.46,5.5,5.5,5.5S19,10.54,19,7.5C19,4.46,16.54,2,13.5,2zM20,14c0-2.76,2.24-5,5-5,2.76,0,5,2.24,5,5s-2.24,5-5,5c-2.76,0-5-2.24-5-5zm5-6c-3.31,0-6,2.69-6,6,0,2.31,1.31,4.32,3.23,5.32-1.37.24-2.68.61-3.91,1.08l.36.93C20.87,20.49,23.35,20,25.99,20c1.89,0,3.69.26,5.38.71l.26-.97c-1.11-.3-2.28-.52-3.48-.64C29.86,18.05,31,16.16,31,14c0-3.31-2.69-6-6-6zM6.11,25.87C6.39,25.95,6.69,26,7,26c.55,0,1-.45,1-1,0-.55-.45-1-1-1s-1,.45-1,1c0,.3.04.59.11.87zm.51,1.12C6.74,26.99,6.87,27,7,27c1.11,0,2-.9,2-2,0-1.11-.89-2-2-2s-2,.89-2,2c0,.08,0,.16.01.24C4.39,24.69,4,23.89,4,23H3c0,1.6.94,2.98,2.3,3.62.59,1.54,2.01,2.66,3.7,2.85.18,3.82,2.5,7.18,6,9.45V46h6v-4.58c1.58.37,3.25.58,4.99.58,1.38,0,2.72-.13,4.01-.37V46h6v-6.5c2.48-1.38,4.46-3.28,5.68-5.5h3.32v-9h-2.84c-.69-1.62-1.77-3.1-3.16-4.36V15h-.5c-1.85,0-3.42,1.12-4.11,2.71-.88-.38-1.8-.7-2.76-.96l-.26.97c1.09.29,2.13.67,3.09,1.13l.53.25.16-.56c.38-1.3,1.48-2.29,2.84-2.49v5.05l.17.15c1.46,1.29,2.56,2.8,3.19,4.44l.12.32h2.52v7h-2.93l-.14.27c-1.13,2.21-3.1,4.12-5.66,5.49l-.26.14V45h-4v-4.6l-.61.13c-1.4.3-2.87.47-4.4.47-1.88,0-3.68-.26-5.36-.71l-.63-.17V45h-4v-6.63l-.24-.15c-3.56-2.23-5.77-5.55-5.77-9.22,0-4.58,3.46-8.64,8.69-10.66l-.36-.93c-5.27,2.04-9.05,6.16-9.31,11.06-.99-.14-1.85-.69-2.39-1.48zM14,4v3h3v1h-4V4h1zm21,21c0-.55.45-1,1-1s1,.45,1,1-.45,1-1,1-1-.45-1-1zm-8.93-9.81c0,.44-.27.7-.82.77v-1.54c.28.09.44.15.5.18.21.13.32.32.32.59zm-2.04-2.61c0-.41.25-.64.75-.68v1.36c-.28-.07-.47-.15-.58-.25-.11-.1-.16-.24-.16-.43zm1.22.79v-1.46c.45.06.67.32.68.8h1.06c-.01-.5-.17-.89-.46-1.17s-.72-.43-1.28-.46v-.7h-.47v.7c-.36.02-.65.08-.86.18-.3.14-.54.33-.7.57s-.25.53-.25.84c0,.28.06.53.18.72.12.2.3.37.55.52.2.12.56.25,1.08.39v1.65c-.56-.06-.84-.4-.84-1.02h-1.11c.01.63.22,1.12.66,1.47.31.25.74.39,1.29.42v.8h.47v-.79c.35-.02.63-.07.86-.17.23-.09.44-.24.62-.44.29-.31.44-.7.44-1.16,0-.45-.14-.81-.43-1.08-.23-.21-.63-.39-1.19-.54-.17-.04-.27-.07-.31-.08z"/></svg>