<svg width="36" height="36" xmlns="http://www.w3.org/2000/svg"><path fill-rule="evenodd" clip-rule="evenodd" d="m18,4.72c-.34-.56-.79-.96-1.3-1.2-.8-.38-1.71-.35-2.47-.04-.77.31-1.43.91-1.76,1.73-.33.83-.28,1.82.29,2.84l.02.03,1.98,2.68H4.75v5.5h1.5v16.5h23.5v-16.5h1.5v-5.5H21.24l1.96-2.65.02-.02.01-.02c.58-1.01.64-1.99.31-2.82-.32-.81-.99-1.41-1.76-1.73-.77-.31-1.67-.35-2.48.03-.51.24-.96.63-1.3,1.18zm-.5,1.35c-.26-.91-.73-1.41-1.23-1.65-.52-.25-1.13-.24-1.67-.02-.54.22-.99.64-1.2,1.17-.2.51-.21,1.18.22,1.96l2.38,3.22h1.49l.01-4.68zm1,0-.01,4.68h1.5l2.38-3.22c.43-.76.43-1.42.23-1.92-.21-.52-.66-.94-1.21-1.17-.55-.22-1.16-.23-1.68.01-.5.23-.97.72-1.23,1.62zM22.25,16.25v15.5h6.5v-15.5h-6.5zm-1,15.5h-6.5v-15.5h6.5v15.5zm1-16.5v-3.5h8v3.5h-8zm-1,0v-3.5h-6.5v3.5h6.5zm-7.5,0v-3.5h-8v3.5h8zm0,16.5v-15.5h-6.5v15.5h6.5z"/></svg>