<svg width="24" height="24" xmlns="http://www.w3.org/2000/svg"><path fill-rule="evenodd" clip-rule="evenodd" d="m12.5,3c-.98,0-1.85.41-2.48,1.05C8.32,4.28,7,5.73,7,7.5c0,.71.22,1.37.58,1.92l.84-.55C8.15,8.47,8,8.01,8,7.5c0-1.31,1.01-2.37,2.3-2.48l.2-.02.13-.15c.46-.52,1.12-.85,1.87-.85,1.38,0,2.5,1.12,2.5,2.5,0,.51-.15.98-.42,1.37l.83.56C15.79,7.88,16,7.21,16,6.5c0-1.93-1.57-3.5-3.5-3.5zM12,6.5v0c0-.28.22-.5.5-.5.28,0,.5.22.5.5V6.5l0,4.91c0,.03,0,.06,0,.09h0l0,1.5,1,0,0-1.56c.03-.25.24-.45.5-.45.28,0,.5.22.5.5v.99L15,12.5h0v.5h1v-.51c0-.27.23-.49.5-.49.28,0,.5.22.5.5v0l0,.13c0,.1,0,.26,0,.51,0,.51,0,1.38,0,2.85,0,1.42-.22,2.49-.43,3.21-.1.35-.21.62-.28.79H9.79l-1.59-2.7c-.89-1.51-1.81-3.08-1.97-3.34-.14-.23-.19-.41-.2-.53,0-.1.02-.18.12-.28.2-.2.51-.2.71,0h0l2.44,2.44H10v-3.08l0-5v0c0-.28.22-.5.5-.5.26,0,.47.2.5.45l0,5.05h0L11,13.01l1,0,0-5.51v0c0-.03,0-.06,0-.08l0-.92zm2,0L14,10.08c.16-.05.32-.08.5-.08.69,0,1.28.47,1.45,1.11.17-.07.36-.11.55-.11.83,0,1.5.67,1.5,1.5v.01l0,.13c0,.1,0,.26,0,.51,0,.51,0,1.38,0,2.85,0,1.52-.23,2.69-.47,3.49-.12.4-.24.71-.33.92-.05.11-.09.19-.11.24-.01.03-.03.05-.03.07l-.01.02,0,.01,0,0,0,0,0,0c0,0,0,0-.43-.25l.43.25-.14.25H9.21l-.15-.25.43-.25c-.43.25-.43.25-.43.25l0,0,0,0,0,0-1.73-2.94c-.89-1.51-1.81-3.08-1.97-3.35-.18-.3-.32-.64-.33-.99-.02-.38.12-.73.41-1.03l0,0c.59-.59,1.54-.59,2.12,0l0,0,1.44,1.44v-1.38l0-5v0c0-.83.67-1.5,1.5-1.5.19,0,.38.04.55.1C11.23,5.47,11.81,5,12.5,5c.83,0,1.5.67,1.5,1.5v0z"/></svg>