<svg width="24" height="24" xmlns="http://www.w3.org/2000/svg"><path fill-rule="evenodd" clip-rule="evenodd" d="m3,11.5c0-4.69,3.81-8.5,8.5-8.5,4.69,0,8.5,3.81,8.5,8.5,0,4.69-3.81,8.5-8.5,8.5-4.69,0-8.5-3.81-8.5-8.5zm15.99-.47c-.07-1.08-.36-2.09-.84-3h-1.46c.24.95.39,1.95.42,3h1.88zm-2.88,0c-.04-1.06-.2-2.07-.45-3H12v3h4.11zm-5.11,0H6.89c.04-1.06.2-2.07.46-3H11v3zm1-4h3.33c-.28-.75-.63-1.43-1.04-2.03-.15-.22-.3-.43-.46-.63-.58-.19-1.19-.31-1.83-.35V7.03zm-1-3.01V7.03H7.67c.28-.74.63-1.42,1.03-2.02l.03-.04c.14-.21.29-.41.45-.61C9.76,4.18,10.37,4.06,11,4.02zm0,8.01v3H7.36c-.26-.93-.43-1.94-.47-3H11zm1,3v-3h4.11c-.04,1.06-.2,2.07-.47,3H12zm-1,1H7.7c.28.72.62,1.39,1.02,1.98.15.22.3.43.46.63.58.19,1.19.31,1.83.35V16.03zm1,2.95V16.03h3.3c-.27.71-.61,1.36-.99,1.93-.02.03-.04.06-.06.09-.14.2-.28.4-.43.58-.58.19-1.19.31-1.83.35zm5.11-6.95c-.04,1.05-.19,2.05-.43,3h1.45c.48-.91.79-1.92.86-3h-1.87zm-.74,4c-.22.62-.48,1.21-.78,1.76.73-.47,1.37-1.07,1.89-1.76h-1.11zM16.39,7.03h1.13c-.53-.71-1.19-1.33-1.93-1.82.31.56.58,1.17.8,1.82zm-10.5,4c.03-1.05.18-2.05.42-3H4.85c-.47.91-.77,1.92-.84,3h1.88zm.72-4c.22-.64.49-1.25.8-1.82C6.66,5.7,6.01,6.32,5.48,7.03h1.13zm-.72,5c.04,1.05.19,2.05.43,3H4.88c-.48-.91-.79-1.92-.86-3H5.89zm.74,4H5.52c.52.69,1.16,1.29,1.89,1.76-.3-.55-.56-1.14-.78-1.76z"/></svg>