<svg width="48" height="48" xmlns="http://www.w3.org/2000/svg"><path fill-rule="evenodd" clip-rule="evenodd" d="m23.1842,3.93271c-4.7519,0-8.6579,3.62756-8.6579,8.16669,0,.3948.0319.7813.0903,1.1584C10.8973,13.8115,8,16.8157,8,20.5327c0,4.1157,3.5407,7.4,7.8421,7.4H23v7.1847l-1.5123-1.4397c.7888-1.1669.6667-2.7659-.3664-3.799-.3425-.3425-.851-.5374-1.3376-.6581-.5021-.1245-1.0588-.1882-1.5673-.2196-.5111-.0317-.9883-.0316-1.3369-.0238-.1746.004-.318.0099-.4182.0148-.0502.0025-.0897.0048-.117.0064l-.0316.002-.0087.0006-.0025.0002h-.001c-.0001,0-.0002,0,.0351.4988l-.0353-.4988-.4536.0321-.011.4546.4999.0121c-.4999-.0121-.4999-.012-.4999-.0119v.001l-.0001.0024-.0002.0083-.0005.0303c-.0003.0261-.0007.0638-.0009.1118-.0002.0958.0005.2327.0045.3997.008.3331.0292.7896.0822,1.2799.0527.4879.1383,1.0227.2795,1.5073.1373.4718.3445.9586.6784,1.2925,1.0691,1.0691,2.7443,1.1626,3.9195.2806L23,36.498V43h-9v1h19v-1h-9V27.9327h9.7895c3.4002,0,6.2105-2.5978,6.2105-5.8667,0-1.8299-.8906-3.448-2.2617-4.5172.399-.7088.6301-1.5186.6301-2.3828,0-2.8454-2.445-5.1-5.3947-5.1-.4826,0-.9455.0654-1.3846.1792-.8942-3.63016-4.32-6.31249-8.4049-6.31249zM20.7477,32.9734l-1.403-1.3356-.6894.7244,1.4029,1.3354c-.772.4822-1.8013.3877-2.4724-.2834-.1543-.1542-.3032-.445-.4255-.8649-.1185-.4071-.196-.8783-.2454-1.3353-.0492-.4546-.0691-.882-.0767-1.1965l-.0009-.0389.0647-.0016c.33-.0074.7777-.0073,1.2526.022.4776.0296.9679.088,1.3884.1922.4359.1082.7255.2489.8712.3946.6468.6468.758,1.6264.3335,2.3876zM24,26.9327h9.7895C36.6969,26.9327,39,24.725,39,22.066c0-1.6306-.8663-3.0798-2.2102-3.9683l-.4275-.2826.2931-.4205c.4503-.6457.713-1.4089.713-2.2286,0-2.2355-1.9379-4.1-4.3947-4.1-.558,0-1.0907.1076-1.5908.2896l-.5632.2049-.1006-.5908c-.5789-3.39808-3.6997-6.03699-7.5349-6.03699-4.259,0-7.6579,3.23744-7.6579,7.16669,0,.5067.0609,1.0015.1694,1.4835l.1265.5614-.5735.0468C11.7224,14.4793,9,17.2179,9,20.5327c0,3.5058,3.0336,6.4,6.8421,6.4H23v-5.7064l-5.2927-3.8209.5854-.8108L23,19.993V11h1v12.7743l6.6344-7.1153.7314.682L24,25.2407v1.692z"/></svg>