<svg width="36" height="36" xmlns="http://www.w3.org/2000/svg"><path fill-rule="evenodd" clip-rule="evenodd" d="m18,4.25c-.92,0-1.75.83-1.75,1.75,0,.92.83,1.75,1.75,1.75.92,0,1.75-.83,1.75-1.75,0-.92-.83-1.75-1.75-1.75zm-2.75,1.75c0-1.48,1.27-2.75,2.75-2.75,1.48,0,2.75,1.27,2.75,2.75,0,1.48-1.27,2.75-2.75,2.75-1.48,0-2.75-1.27-2.75-2.75zm0,6.9-2,3v5.1h-1v-5.4l3.23-4.85h5.04l3.05,4.57,5.07,1.45-.27.96-5.43-1.55-2.19-3.28v7.2l3,4.5v8.4h-1v-8.1l-2.77-4.15h-3.73v5.66l-3.84,5.38-.81-.58,3.66-5.12V12.9zm1-1.15v8h3.5v-8h-3.5z"/></svg>