<svg width="24" height="24" xmlns="http://www.w3.org/2000/svg"><path fill-rule="evenodd" clip-rule="evenodd" d="m5,2h3v5c1.10536,0,2,.89607,2,2v3H4v4h4v1H4v4h4v1H3V9c0-1.10393.89464-2,2-2V2zm4,7v2H4V9c0-.55207.44736-1,1-1h1V3h1v5h1c.55264,0,1,.44793,1,1zm3,8c0-.5521.4474-1,1-1s1,.4479,1,1-.4474,1-1,1-1-.4479-1-1zm1-2c-1.1054,0-2,.8961-2,2s.8946,2,2,2,2-.8961,2-2-.8946-2-2-2zm4.5,3c-.2762,0-.5.2235-.5.5s.2238.5.5.5.5-.2235.5-.5-.2238-.5-.5-.5zm-1.5.5c0-.8295.6722-1.5,1.5-1.5s1.5.6705,1.5,1.5-.6722,1.5-1.5,1.5-1.5-.6705-1.5-1.5zM9.5,13H9v9h13v-3.0642l-.2481-.1447C21.3002,18.5276,21,18.0485,21,17.5s.3002-1.0276.7519-1.2911L22,16.0642V13h-4v1c0,.5521-.4474,1-1,1s-1-.4479-1-1v-1H9.5zm.5,8v-7h5c0,1.1039.8946,2,2,2s2-.8961,2-2h2v1.51c-.602.4529-1,1.1705-1,1.99s.398,1.5371,1,1.99V21H10z"/></svg>