<svg width="24" height="24" xmlns="http://www.w3.org/2000/svg"><path fill-rule="evenodd" clip-rule="evenodd" d="m3,6.3594c0-1.85486,1.50414-3.359,3.359-3.359h11.282c1.8549,0,3.359,1.50414,3.359,3.359v11.281c0,1.8559-1.5051,3.36-3.359,3.36H6.359c-1.85469,0-3.359-1.505-3.359-3.36V6.3594zm3.359-4.359C3.95186,2.0004,2,3.95226,2,6.3594v11.281c0,2.407,1.95169,4.36,4.359,4.36h11.282c2.4061,0,4.359-1.9519,4.359-4.36V6.3594c0-2.40714-1.9519-4.359-4.359-4.359H6.359zm9.2573,9.3173L13.2643,9h1.7477L18,12l-2.988,3h-1.7477l2.352-2.3023h-2.9246V15h-1.3826v-2.3023H8.40086L10.7529,15H9.00429L6,12,9.00429,9h1.74861l-2.35204,2.3177h2.90824V9h1.3826v2.3177h2.9246z"/></svg>