<svg width="48" height="48" xmlns="http://www.w3.org/2000/svg"><path fill-rule="evenodd" clip-rule="evenodd" d="m22,8.5c0-.83.67-1.5,1.5-1.5s1.5.67,1.5,1.5-.67,1.5-1.5,1.5S22,9.33,22,8.5zm-.9.71c-2.15.36-4.2,1.2-5.98,2.47.24.38.38.83.38,1.32,0,.56-.18,1.08-.49,1.49l6.39,6.21C21.98,20.26,22.71,20,23.5,20c.79,0,1.52.26,2.1.7l6.39-6.21C31.68,14.08,31.5,13.56,31.5,13c0-.48.14-.94.38-1.32-1.78-1.27-3.82-2.11-5.98-2.47C25.59,10.25,24.63,11,23.5,11c-1.13,0-2.09-.75-2.4-1.79zm4.88-1C25.84,6.97,24.78,6,23.5,6c-1.28,0-2.34.97-2.48,2.21-2.38.38-4.63,1.32-6.59,2.74C14.03,10.67,13.53,10.5,13,10.5c-1.38,0-2.5,1.12-2.5,2.5,0,.53.17,1.02.45,1.43-1.41,1.95-2.35,4.21-2.74,6.59C6.97,21.16,6,22.22,6,23.5c0,1.28.97,2.34,2.21,2.48.38,2.38,1.32,4.63,2.74,6.59-.28.41-.45.9-.45,1.43,0,1.38,1.12,2.5,2.5,2.5.53,0,1.02-.17,1.43-.45.81.59,1.67,1.1,2.57,1.52l-.86,2.43H14v1h18v-1h-2.13l-.62-2.12c1.18-.47,2.29-1.09,3.32-1.83.41.28.9.45,1.43.45,1.38,0,2.5-1.12,2.5-2.5,0-.53-.17-1.02-.45-1.43,1.41-1.95,2.35-4.21,2.73-6.59C40.03,25.84,41,24.78,41,23.5c0-1.28-.97-2.34-2.21-2.48-.38-2.38-1.32-4.64-2.73-6.59.28-.41.45-.9.45-1.43,0-1.38-1.12-2.5-2.5-2.5-.53,0-1.02.17-1.43.45-1.95-1.41-4.21-2.35-6.59-2.74zM34,15.5c.48,0,.94-.14,1.32-.38,1.27,1.78,2.11,3.82,2.47,5.98C36.75,21.41,36,22.37,36,23.5c0,1.13.75,2.09,1.79,2.4-.36,2.15-1.2,4.2-2.47,5.98C34.94,31.64,34.48,31.5,34,31.5c-.45,0-.88.12-1.24.33l-6.45-6.24C26.74,25.01,27,24.28,27,23.5c0-.78-.26-1.51-.69-2.09l6.43-6.25c.37.22.8.34,1.26.34zm-22.32-.38c-1.27,1.78-2.11,3.82-2.47,5.98C10.25,21.41,11,22.37,11,23.5c0,1.13-.75,2.09-1.79,2.4.36,2.15,1.2,4.2,2.47,5.98.38-.24.83-.38,1.32-.38.45,0,.88.12,1.24.33l6.45-6.24C20.26,25.01,20,24.28,20,23.5c0-.78.26-1.51.69-2.09l-6.43-6.25c-.37.22-.8.34-1.26.34-.48,0-.94-.14-1.32-.38zm14.26,11.5,6.07,5.87c-.32.42-.51.94-.51,1.51,0,.48.14.94.38,1.32-.91.64-1.88,1.18-2.91,1.6l-3.03-10.29zM15.12,35.32c.7.5,1.44.94,2.21,1.3l3.43-9.72-5.77,5.58c.32.42.51.94.51,1.51,0,.48-.14.94-.38,1.32zM26,23.5c0,.58-.2,1.11-.53,1.54L24.87,23h-2.73l-.69,1.95C21.17,24.54,21,24.04,21,23.5c0-1.38,1.12-2.5,2.5-2.5s2.5,1.12,2.5,2.5zm2.83,16.5L24.13,24h-1.27l-5.65,16h11.63zM11.5,34c0-.83.67-1.5,1.5-1.5s1.5.67,1.5,1.5-.67,1.5-1.5,1.5-1.5-.67-1.5-1.5zM34,32.5c-.83,0-1.5.67-1.5,1.5s.67,1.5,1.5,1.5,1.5-.67,1.5-1.5-.67-1.5-1.5-1.5zm-27-9c0-.83.67-1.5,1.5-1.5s1.5.67,1.5,1.5S9.33,25,8.5,25,7,24.33,7,23.5zM38.5,22c-.83,0-1.5.67-1.5,1.5s.67,1.5,1.5,1.5,1.5-.67,1.5-1.5-.67-1.5-1.5-1.5zm-27-9c0-.83.67-1.5,1.5-1.5s1.5.67,1.5,1.5-.67,1.5-1.5,1.5-1.5-.67-1.5-1.5zM34,11.5c-.83,0-1.5.67-1.5,1.5s.67,1.5,1.5,1.5,1.5-.67,1.5-1.5-.67-1.5-1.5-1.5z"/></svg>