<svg width="36" height="36" xmlns="http://www.w3.org/2000/svg"><path fill-rule="evenodd" clip-rule="evenodd" d="m9.51893,11.0189C9.03254,11.5053,8.75,12.2885,8.75,13.5v3.2507h9.5353c.2424-1.6971,1.7021-3.0007,3.4647-3.0007s3.2223,1.3036,3.4647,3.0007H27.25V13.5c0-1.2115-.2825-1.9947-.7689-2.4811S25.2115,10.25,24,10.25H12c-1.2115,0-1.9947.2825-2.48107.7689zm14.68117,5.7318c-.2314-1.1418-1.2409-2.0007-2.4501-2.0007s-2.2187.8589-2.4501,2.0007h4.9002zM8.75,24.25v-6.4993h18.5V24.25H8.75zm.06182-13.9382C9.56068,9.56296,10.6525,9.25,12,9.25h12c1.3475,0,2.4393.31296,3.1882,1.0618.7488.7489,1.0618,1.8407,1.0618,3.1882v1.7507H30v1h-1.75v11.9986h-5.4985V25.25H13.25v2.9993h-5.5V16.2507H6v-1h1.75V13.5c0-1.3475.31296-2.4393,1.06182-3.1882zM23.7515,25.25H27.25v1.9993h-3.4985V25.25zm-15.0015,0h3.5v1.9993h-3.5V25.25zm2-4.2507c0-.688.5592-1.25,1.25-1.25s1.25.562,1.25,1.25c0,.6901-.5599,1.25-1.25,1.25s-1.25-.5599-1.25-1.25zM12,20.7493c-.1372,0-.25.113-.25.25,0,.1378.1121.25.25.25s.25-.1122.25-.25c0-.137-.1128-.25-.25-.25zm10.75.25c0-.688.5592-1.25,1.25-1.25s1.25.562,1.25,1.25c0,.6901-.5599,1.25-1.25,1.25s-1.25-.5599-1.25-1.25zm1.25-.25c-.1372,0-.25.113-.25.25,0,.1378.1121.25.25.25s.25-.1122.25-.25c0-.137-.1128-.25-.25-.25z"/></svg>