<svg width="24" height="24" xmlns="http://www.w3.org/2000/svg"><path fill-rule="evenodd" clip-rule="evenodd" d="m19,3.17,2.47,2.48-.71.71-1.77-1.77-1.77,1.77-.71-.71,2.47-2.48zM2.25,3.25h12.5v17.5H2.25V3.25zm1,1v15.5h10.5V4.25H3.25zm13.98,13.4,1.77,1.77,1.77-1.77.71.71-2.47,2.47-2.47-2.47.71-.71zM8.5,6c-.28,0-.5.22-.5.5,0,.28.22.5.5.5s.5-.22.5-.5c0-.28-.22-.5-.5-.5zm-1.5.5c0-.83.67-1.5,1.5-1.5.83,0,1.5.67,1.5,1.5,0,.83-.67,1.5-1.5,1.5s-1.5-.67-1.5-1.5zm-.5,2.5h-.5V15h1v4h3v-4h1V9H6.5zM7.5,14h-.5V10h3v4h-1v4h-1v-4h-.5z"/></svg>