<svg width="36" height="36" xmlns="http://www.w3.org/2000/svg"><path fill-rule="evenodd" clip-rule="evenodd" d="m24.75,4.25c-1.28,0-2.5,1.34-2.5,3.25,0,1.91,1.22,3.25,2.5,3.25,1.28,0,2.5-1.34,2.5-3.25s-1.22-3.25-2.5-3.25zm-3.5,3.25c0-2.24,1.47-4.25,3.5-4.25,2.03,0,3.5,2.01,3.5,4.25,0,.97-.28,1.9-.76,2.64,2.27,1.53,3.76,4.86,3.76,8.61v.5H18.25v-.5c0-3.75,1.49-7.08,3.76-8.61-.48-.74-.75-1.67-.75-2.64zm3.5,4.25c.81,0,1.52-.32,2.1-.84,1.85,1.2,3.27,3.96,3.39,7.34H19.26c.13-3.38,1.54-6.14,3.39-7.34.57.52,1.29.84,2.1.84zM5.25,3.25h-.5v10H17.75V9.01l1.74-1.47-1.74-1.74v-2.54H5.25zm.5,9V4.25H16.75v1.96l1.26,1.26-1.26,1.07v3.71H5.75zm9.25-6.03H7.47v1h7.53v-1zM7.47,9.22h4.53v1H7.47V9.22zM17.75,30.75c0-3.75-1.49-7.08-3.76-8.61.48-.74.76-1.67.76-2.64,0-2.24-1.47-4.25-3.5-4.25-2.03,0-3.5,2.01-3.5,4.25,0,.97.28,1.9.76,2.64C6.24,23.67,4.75,27,4.75,30.75v.5h13v-.5zm-1.01-.5c-.13-3.38-1.54-6.14-3.39-7.34-.57.52-1.29.84-2.1.84-.81,0-1.52-.32-2.1-.84-1.85,1.2-3.27,3.96-3.39,7.34H16.74zM11.25,16.25c-1.28,0-2.5,1.34-2.5,3.25,0,1.9,1.22,3.25,2.5,3.25,1.28,0,2.5-1.35,2.5-3.25,0-1.91-1.22-3.25-2.5-3.25zM27,14.53l-1.5-1.41h1.13l1.88,1.88-1.88,1.88H25.5l1.5-1.41h-1.78v1.41h-.94v-1.41H22.5l1.5,1.41h-1.13L21,15l1.88-1.88H24l-1.5,1.41h1.78v-1.41h.94v1.41H27z"/></svg>