<svg width="36" height="36" xmlns="http://www.w3.org/2000/svg"><path fill-rule="evenodd" clip-rule="evenodd" d="m17.9766,4.77148c-4.8332,0-8.75004,3.91686-8.75004,8.75002v.0098l.00039.0098c.05928,1.5108.50852,2.7811,1.21985,3.9666l-.0001.0001.0065.0103,7.125,11.247.4224.6667.4223-.6667,7.125-11.247.0063-.0099.0057-.0101c.6937-1.2166,1.1537-2.5123,1.1666-3.9722h.0001v-.0044c0-4.83322-3.9185-8.75002-8.75-8.75002zM11.3012,16.9881c-.6352-1.0602-1.0215-2.1646-1.0746-3.4764.0053-4.27637,3.4724-7.74022,7.75-7.74022,4.2786,0,7.7487,3.46797,7.75,7.74772-.0115,1.2385-.3981,2.3632-1.0297,3.4736l-6.6963,10.5704-6.6994-10.5751zm1.9371-3.4783c0-2.6234,2.1266-4.75003,4.75-4.75003,2.6233,0,4.75,2.12663,4.75,4.75003,0,2.6233-2.1267,4.75-4.75,4.75-2.6234,0-4.75-2.1267-4.75-4.75zm4.75-5.75003c-3.1757,0-5.75,2.57433-5.75,5.75003,0,3.1756,2.5743,5.75,5.75,5.75,3.1756,0,5.75-2.5744,5.75-5.75,0-3.1757-2.5744-5.75003-5.75-5.75003z"/></svg>