<svg width="36" height="36" xmlns="http://www.w3.org/2000/svg"><path fill-rule="evenodd" clip-rule="evenodd" d="m15.6,3.33c.93-.3,1.88.29,2.11,1.19l-.48.13.48-.13,0,.01c.18-.13.39-.23.64-.27,2.17-.36,4.4-.24,6.51.34.66.18,1.07.76,1.12,1.39,2.17.46,3.97,1.53,5.16,2.73.64.64,1.11,1.33,1.38,2,.26.67.33,1.37.04,1.97-.29.61-.85,1.03-1.5,1.3-.65.27-1.44.42-2.26.48-1.47.09-3.14-.12-4.58-.58-.18.44-.56.77-1,.91-.58.19-1.13.42-1.65.71-.3.16-.62.22-.92.19l.03.1c.17.66-.07,1.33-.58,1.74-.92.76-1.76,1.62-2.52,2.55-.41.5-1.07.75-1.72.58l-.83-.21c.04.31-.02.63-.17.93-.28.53-.51,1.08-.69,1.67-.14.47-.5.88-.98,1.05.48,1.44.71,3.13.64,4.61-.04.84-.18,1.64-.44,2.3-.26.66-.67,1.23-1.27,1.53-.6.3-1.31.23-1.98-.03-.67-.26-1.37-.74-2.01-1.38-1.21-1.21-2.3-3.03-2.78-5.23-.6-.07-1.14-.48-1.32-1.11-.6-2.12-.74-4.36-.4-6.55.04-.29.16-.54.33-.74-.58-.4-.89-1.15-.65-1.88C5.2,9.81,9.79,5.2,15.6,3.33zm8.87,9.6c1.32.44,2.9.64,4.27.55.76-.05,1.42-.18,1.94-.4.52-.22.84-.5.98-.8.13-.27.13-.66-.07-1.18-.2-.51-.59-1.09-1.15-1.66-1.05-1.05-2.65-2.02-4.6-2.45L24.47,12.93zm-10.6,6.21c.01,0,.03.01.04.01l2.2.56c.25.06.52-.02.7-.24.8-.98,1.68-1.88,2.66-2.69.22-.18.31-.46.24-.71L16.75,4.78c-.1-.39-.5-.61-.84-.5C10.41,6.06,6.06,10.42,4.28,15.95c-.11.35.11.75.5.85l9.1,2.33,0,0zm.11,1.79c.17-.33.01-.71-.33-.81l-8.32-2.13,0,0c-.33-.09-.66.13-.7.43-.31,2.05-.18,4.14.38,6.12.08.27.38.45.68.37l.1.42-.1-.42,7.12-1.73c.18-.04.34-.19.41-.41.2-.65.45-1.27.76-1.85zm-7.63,4.85,5.87-1.42c.46,1.33.68,2.93.62,4.32-.04.77-.16,1.45-.37,1.98-.21.53-.48.86-.79,1-.26.13-.65.14-1.17-.06-.51-.2-1.09-.59-1.67-1.16-1.06-1.06-2.05-2.68-2.49-4.66zM18.09,5.96l2.19,8.32,0,0c.1.36.49.52.81.35.58-.32,1.19-.58,1.83-.79.21-.07.36-.23.4-.41l1.65-7.19c.07-.32-.11-.62-.38-.69-1.98-.54-4.06-.66-6.08-.32-.29.05-.51.37-.42.72z"/></svg>