<svg width="36" height="36" xmlns="http://www.w3.org/2000/svg"><path fill-rule="evenodd" clip-rule="evenodd" d="m7.75,3.25h20.5v29.5H7.75V3.25zm1,1v27.5h18.5V4.25H8.75zM24,23.75H12v-1h12v1zm-12,3h12v-1H12v1zm6.05-9.21c-.03-.04-.15-.22-.22-.99v0c-.07-.71-.11-1.09-.14-1.24-.04-.19-.12-.38-.24-.54-.1-.16-.24-.3-.4-.4.21-.13.38-.3.52-.5.24-.36.36-.78.35-1.22,0-.36-.08-.72-.25-1.05-.17-.31-.41-.57-.72-.76-.46-.25-.99-.37-1.51-.34H12v7.52h1.38v-3.06h1.64c.35-.03.7.03,1.01.18.25.16.4.6.43,1.28.03.57.05.89.07,1.04.02.17.08.33.18.47l.07.1h1.68l-.41-.48zm-1.93-3.98c-.13.07-.27.12-.42.14-.26.04-.53.05-.79.05h-1.53v-1.99h1.79c.25-.01.49.02.73.07.14.03.27.1.38.2.18.19.28.44.26.7.03.33-.13.66-.41.83zm5.29,2.57,1.89-5.63,1.47,0-2.69,7.52h-1.38l-.05-.15-2.63-7.37h1.52l1.88,5.63z"/></svg>