<svg width="36" height="36" xmlns="http://www.w3.org/2000/svg"><path fill-rule="evenodd" clip-rule="evenodd" d="m18.7501,4.75037c-1.4254,0-2.6963.60784-3.6013,1.55775-2.4729.29891-4.3987,2.38159-4.3987,4.94228,0,1.0147.3075,1.9539.8231,2.7389l.8358-.5489c-.4144-.631-.6589-1.3808-.6589-2.19,0-2.09594,1.6179-3.7987,3.6789-3.96567l.2012-.0163.1335-.15149c.7357-.83487,1.7964-1.36657,2.9864-1.36657,2.2095,0,4,1.78925,4,4,0,.81623-.245,1.57183-.6655,2.19983l.831.5563c.5276-.788.8345-1.7364.8345-2.75613,0-2.76325-2.2384-5-5-5zM17.7479,9.7515v-.00007C17.748,9.1981,18.1961,8.75,18.7494,8.75c.5534,0,1.0015.4481,1.0015,1.00142v.00008l-.0011,7.3677c-.0027.0425-.0041.0854-.0041.1286h.0041l-.0004,2.2536,1,.0002.0004-2.3446c.0458-.5107.4747-.9107.9974-.9107.5552,0,1.003.4485,1.003,1.0015v1.4863l-.0001.0181h.0001v.7486h1v-.7614c.0069-.5474.4524-.9887,1.0014-.9887.5552,0,1.003.4485,1.003,1.0015v.0083l-.0001.0346-.0006.156c-.0004.1481-.0009.3912-.0015.772-.0011.7616-.0023,2.074-.0023,4.2776,0,2.1511-.3294,3.7906-.6543,4.8848-.1625.5473-.3239.9585-.4426,1.2293-.022.0501-.0425.0955-.0613.1359H14.5358l-.0747-.1266-.5832-.9895-1.8018-3.0567c-1.3318-2.2598-2.72152-4.6182-2.95516-5.0166-.21398-.3649-.31714-.6668-.32716-.9091-.00904-.2183.05509-.414.24924-.6082.39311-.3919,1.02618-.3911,1.41708-.0002l3.4349,3.4364.1465.1465h.7086v-4.3762l-.003-7.4983v-.0001c.0001-.5527.4491-1.0014,1.003-1.0014.525,0,.9553.4034.9981.9173l.0012,7.5821h.0009l-.0002.761,1,.0002.0015-8.259v-.0001c0-.04-.0011-.0798-.0034-.1192l-.0003-1.3815zm3.003.00008L20.75,15.5119c.2936-.1689.6341-.2656.9972-.2656,1.0318,0,1.8805.7782,1.9909,1.7796.2972-.1749.6436-.2752,1.0135-.2752,1.1069,0,2.003.8956,2.003,2.0015v.0128l-.0002.0339-.0005.1551c-.0004.1475-.0009.3901-.0015.7706-.0011.7609-.0023,2.0728-.0023,4.2761,0,2.2545-.3455,3.9899-.6956,5.1694-.1751.5895-.3511,1.0398-.4855,1.3463-.0672.1532-.124.2705-.165.3513-.0205.0404-.0371.0717-.0491.0938l-.0144.0263-.0045.0079-.0015.0027-.0006.001-.0002.0005c-.0002.0002-.0003.0003-.4336-.2492l.4333.2495-.1442.2505H13.9645l-.1451-.246.4307-.254c-.4307.254-.4307.2539-.4307.2539l-.0002-.0003-.0007-.0012-.0028-.0047-.0109-.0186-.0427-.0724-.1624-.2755-.5833-.9895-1.8018-3.0568c-1.33133-2.2589-2.7219-4.6188-2.95626-5.0184-.25401-.4332-.44411-.9-.46371-1.3736-.02058-.4974.14925-.9647.54146-1.3569l.00045-.0005c.78291-.7809,2.04866-.7815,2.83066.0005l.0001.0001,2.5828,2.584v-2.6701l-.003-7.4983v-.0002c0-1.1063.8981-2.00147,2.003-2.00147.3687,0,.714.0996,1.0106.27336.1128-.99851.96-1.77409,1.9887-1.77409,1.1057,0,2.0015.89586,2.0015,2.0015v.00008z"/></svg>