<svg width="24" height="24" xmlns="http://www.w3.org/2000/svg"><path fill-rule="evenodd" clip-rule="evenodd" d="m15.6707,2,.2513.16752,6,4,.3672.24484-.1974.3948-2,4.00004-.2057.4115-.4272-.1709-1.8143-.7257v.7614h-1V8.84503l.6857.27428,2.0728.82914L21,6.75473,15.6096,3.16117c-.0203.0098-.0417.02001-.064.03059-.208.09839-.5024.22915-.8515.35998-.689.25825-1.6296.53181-2.5495.53181-.9194,0-1.86-.27357-2.54907-.5318-.34912-.13082-.64368-.26157-.8517-.35996-.0224-.0106-.04382-.02083-.06421-.03065l-5.3904,3.5936,1.59686,3.19371,2.07283-.82914.65011-.26004.03497.69931.47624,9.52492h1.02438v1H7.16899l-.02376-.475-.46503-9.3007-1.84989.74-.42717.1709-.20574-.4115-2-4.00004L2,6.41236,8.61848,2.00004l.26487.14419.00007.00004.0001.00005.00015.00008.00002.00001.00263.00142.01293.00688c.01196.00632.03051.01602.05516.02863.04934.02522.12296.06199.21701.10647.18839.08911.45701.20836.77502.32754.64516.24177,1.45456.4682,2.19816.4682.7441,0,1.5535-.22644,2.1985-.46819.318-.11917.5865-.23841.7748-.32752.094-.04447.1676-.08124.2169-.10646.0246-.0126.0431-.02231.0551-.02863l.0129-.00687.0026-.00142h.0001l.0001-.00008.0001-.00006.0001-.00004L15.6707,2zm-4.9141,10.0835h5.2793l.094.3796v.0001l.0001.0002v.0003l.001.0038.0045.0175c.0042.0161.0107.0408.0197.0736.0179.0655.0456.1629.0834.2873.0758.2489.1923.6045.3538,1.0265.3241.8465.8247,1.9473,1.5332,2.9853.5375.7869,1.1748,1.1701,1.8447,1.5729.1571.0945.316.19.4758.2921.4093.2614.8242.5716,1.1409,1.0296.3218.4654.5161,1.0441.5569,1.8045l.0282.5267h-4.5275c-.0078,0-.0157.0001-.0237.0001-.3159.0002-.8232.0006-1.4322-.3761-.6011-.3718-1.2538-1.0788-1.9806-2.3801l-.0024-.0043c-.3189-.5844-.6867-1.0156-1.0611-1.3344v4.0948h-2.388l-.0963-.3758.4843-.1242c-.4843.1242-.4844.124-.4844.1239l-.0001-.0004-.0003-.0011-.0008-.0034-.003-.0116-.0103-.0424c-.0088-.0367-.0212-.09-.0365-.1587-.0305-.1375-.0723-.337-.1186-.5897-.0924-.5051-.2029-1.2243-.2766-2.0865-.1469-1.7202-.149-4.031.4463-6.3542l.0963-.3759zM11.5449,21.0835h.5997V17.37c-.0756-.032-.1498-.0604-.2221-.0858-.3029-.1063-.5762-.1592-.7895-.1849.0052.5817.0348,1.1298.0774,1.6292.0705.8253.1762,1.5124.2639,1.9916.0255.1394.0495.2612.0706.3634zm-.3958-4.9882c.2884.0278.6736.0941,1.1046.2453.9163.3216,2.0205,1.0219,2.8285,2.5011.6857,1.2273,1.2356,1.7698,1.6326,2.0154.3664.2266.6387.2265.9132.2265l.0166-.0001h3.4347c-.0684-.3256-.1803-.568-.3148-.7624-.2037-.2946-.4858-.5188-.8566-.7557-.1239-.079-.2583-.1592-.4002-.2438-.6818-.4065-1.5355-.9155-2.208-1.9l-.0001-.0002c-.7665-1.123-1.2999-2.3002-1.6411-3.1915-.1711-.4469-.295-.825-.3765-1.0927-.0056-.0184-.011-.0363-.0162-.0537h-3.7277c-.2337,1.0274-.3489,2.0504-.389,3.0118z"/></svg>