<svg width="36" height="36" xmlns="http://www.w3.org/2000/svg"><path fill-rule="evenodd" clip-rule="evenodd" d="m16.98,4.75h12.69l3.12,18.74-4.89,3.26H19.5v-1h7.78l1.33-18.65,26.52,10.25H16.15l-1.42,5.62-.97-.24,1.35-5.38h-1.8l3.67-5.5zM31.7,23.01l-3.38,2.25,1.13-15.78,2.25,13.53zm-3.39-17.26H17.52l-2.33,3.5h10.8l2.33-3.5zM8.63,18.39c-.29-.09-.65-.14-1.12-.14-.67-.01-1.77-.03-2.69.67C3.87,19.64,3.25,21,3.25,23.39c0,2.22.37,4.15,1.07,5.54.7,1.39,1.78,2.32,3.18,2.32v0l.01,0c.92-.02,1.51-.22,1.97-.41.08-.04.16-.07.23-.1.32-.14.52-.22.79-.24.27.01.47.1.79.24.07.03.15.06.23.1.47.2,1.05.39,1.97.41H13.5c1.41,0,2.48-.93,3.18-2.32.7-1.39,1.07-3.31,1.07-5.54,0-2.4-.62-3.75-1.56-4.47-.92-.7-2.02-.69-2.69-.67-.47,0-.83.05-1.12.14-.3.09-.51.21-.68.3l-.01.01c-.16.09-.28.16-.44.21-.07.02-.16.05-.27.06-.16-1.39-.92-2.31-1.67-2.87-.42-.31-.83-.52-1.14-.65-.16-.06-.29-.11-.38-.14-.05-.02-.08-.03-.11-.03-.01,0-.02-.01-.03-.01l-.01,0,0,0,0,0,0,0c0,0,0,0-.12.49s-.12.49-.12.49l0,0,.02,0c.02,0,.04.01.08.02.07.02.17.06.3.11.25.11.59.27.92.52.56.42,1.11,1.07,1.26,2.06-.08-.01-.14-.03-.2-.05-.16-.05-.27-.12-.44-.21l-.01-.01c-.17-.1-.38-.22-.68-.3zM4.25,23.39c0-2.25.58-3.23,1.17-3.68.61-.47,1.38-.48,2.07-.47v0H7.5c.41,0,.66.04.85.1.18.05.31.12.47.21l.03.02c.15.09.35.2.61.28.28.09.61.14,1.05.14s.77-.05,1.05-.14c.26-.08.45-.19.61-.28l.03-.02c.16-.09.29-.16.47-.21.18-.05.44-.1.85-.1v0l.01,0c.69-.02,1.46,0,2.07.47.59.45,1.17,1.43,1.17,3.68,0,2.13-.36,3.89-.96,5.09-.6,1.2-1.4,1.77-2.28,1.77-.76-.01-1.22-.17-1.6-.33-.06-.02-.12-.05-.18-.08-.33-.15-.72-.32-1.21-.34l-.02,0-.02,0c-.48.02-.87.19-1.21.34-.06.03-.12.05-.18.08-.38.16-.84.32-1.6.33-.89,0-1.68-.57-2.28-1.77-.6-1.2-.96-2.96-.96-5.09z"/></svg>