<svg width="24" height="24" xmlns="http://www.w3.org/2000/svg"><path fill-rule="evenodd" clip-rule="evenodd" d="m5.5,3h6v1h-1.2298L8.96016,6h2.68234c.6998,0,1.3179.14743,1.7558.56655.4426.42375.6012,1.0285.6012,1.71145V18H13v1h2.001v-3H17.5v-2.5H17V10h1.4666c-.5361-.01665-.9686-.45729-.9686-.99951,0-.55279.4496-1,1-1,.5522,0,1,.44786,1,1,0,.54159-.4309.98284-.9684.99951H20v3.5h-.5V16H21v1h-4.999v3H3v-1h1v-1H2.99951V8.278c0-.68317.15893-1.28792.60191-1.71159C4.03949,6.14743,4.6577,6,5.35751,6h2.68233L6.7298,4H5.5V3zm3,1.87749L7.92523,4h1.14954L8.5,4.87749zm-4.2074,2.4116c-.16501.15783-.29309.44208-.29309.98891V12h8.99999V8.278c0-.54705-.1279-.8313-.2927-.98905C12.5371,7.12657,12.2267,7,11.6425,7H5.35751c-.58418,0-.89498.12657-1.06491.28909zM12.9995,13H3.99951v4h8.99999v-4zM12,19v-1H5v1h7zM10,8.00049H7v1h3v-1zM11,14c-.5521,0-1,.4479-1,1s.4479,1,1,1c.5505,0,1-.4472,1-1s-.4495-1-1-1zm-6,1c0-.5521.44786-1,1-1,.55049,0,1,.4472,1,1s-.44951,1-1,1c-.55214,0-1-.4479-1-1zm13.5-2.5H18V11h1v1.5h-.5z"/></svg>