<svg width="48" height="48" xmlns="http://www.w3.org/2000/svg"><path fill-rule="evenodd" clip-rule="evenodd" d="m32.1743,7.21016c-1.5287-.56893-3.2128.05558-4.021,1.41064-1.0217-.45802-2.261-.18097-2.9827.73817l-.0007.00095c-.3223.41252-.5049.91288-.5277,1.42838-.4761.1289-.8609.4291-1.1335.8085-.3602.5016-.5346,1.1497-.5067,1.7848.028.6388.2625,1.299.7642,1.8024.5077.5094,1.2468.8158,2.1997.8158h.883l-4.7945,8.3949-1.1783-.982c.7574-4.2125-1.9479-8.3027-6.1644-9.2259-4.3168-.945-8.58134,1.7878-9.52639,6.1045l-.00001.0001c-.84508,3.8607,1.25502,7.7274,4.8793,9.1535l-4.99938,8.8084-.42386.7468H43.3956l-.4699-.7623-13.7073-22.238h3.7445c.9427,0,1.6864-.3071,2.2067-.8066.5148-.4942.7792-1.1468.823-1.7868.0435-.6364-.1293-1.2906-.5292-1.7887-.2886-.3596-.6853-.6236-1.1682-.7376.2598-1.54292-.6006-3.10188-2.1203-3.66972l-.0006-.00022zm-4.1738,8.78964h.0432l4.6712,7.5783-1.2785,1.2786-2.659-1.7726-.2773-.1849-.2774.1849-2.6958,1.7972-1.7838-1.427,4.2574-7.4545zm.832-6.49418c.4535-1.19902,1.791-1.80541,2.9927-1.35837,1.2053.45053,1.8177,1.79164,1.3681,2.99785l-.2624.7043.751-.03c.4661-.0187.7901.1607,1.0017.4243.2218.2763.3401.6733.3113,1.0944-.0286.4175-.2001.8287-.5179,1.1338-.3124.2999-.7979.5279-1.5141.5279h-6.997c-.7297,0-1.1994-.2287-1.4914-.5218-.2982-.2991-.4546-.7089-.4735-1.1401-.019-.4348.1038-.8567.3199-1.1577.21-.2923.4961-.4604.845-.4604h.5884l-.095-.5808c-.0673-.4115.041-.8335.2982-1.16291.51-.64903,1.4497-.76301,2.0988-.2539l.5355.42001.2407-.63658zM14.4978,15.1637c3.4964.7655,5.8051,4.0195,5.4734,7.4949l-3.651-3.0426-.4597-.383-.2953.5203-5.0013,8.8118c-3.25215-1.2047-5.15143-4.6349-4.40173-8.0599.82695-3.7773,4.55843-6.1684,8.33563-5.3415zm7.0529,10.113-1.9848,3.4754.8683.496,2.8069-4.9148,1.9466,1.5572.2855.2284.3042-.2028,2.7227-1.8151,2.7226,1.8151.3411.2274,1.6904-1.6904,8.3503,13.547h-7.5861l-3.6562-3.8445-.1478-.1555h-6.0569l-4.8708-3.4096-.449-.3143-.2719.4758-4.142,7.2481H6.35877l9.78083-17.2329,5.4111,4.5095zM29.7854,35.0001l2.853,3H15.5755l3.5866-6.2761,4.5511,3.1857.1291.0904h5.9431z"/></svg>