<svg width="36" height="36" xmlns="http://www.w3.org/2000/svg"><path fill-rule="evenodd" clip-rule="evenodd" d="m4.25,14.25c0-5.52286,4.47714-10,10-10,5.5229,0,10,4.47714,10,10,0,5.5229-4.4771,10-10,10-5.52286,0-10-4.4771-10-10zm10-11c-6.07514,0-11,4.92486-11,11,0,6.0751,4.92486,11,11,11,2.8577,0,5.4609-1.0897,7.4166-2.8763l10.9802,10.9802.7071-.7072L22.3738,21.6666c1.7865-1.9558,2.8762-4.5589,2.8762-7.4166,0-6.07514-4.9249-11-11-11zM7.5,14.75h6.25V21h1v-6.25H21v-1h-6.25V7.5h-1v6.25H7.5v1z"/></svg>