<svg width="36" height="36" xmlns="http://www.w3.org/2000/svg"><path fill-rule="evenodd" clip-rule="evenodd" d="m7.75,3.25h4v7.5H12c1.52,0,2.75,1.23,2.75,2.75V18h-1v-.25h-8v6.5H12v1H5.75v6.5H12v1H4.75V13.5c0-1.52,1.23-2.75,2.75-2.75h.25v-7.5zm6,10.25v3.25h-8V13.5c0-.97.78-1.75,1.75-1.75h1.25v-7.5h2v7.5H12c.97,0,1.75.78,1.75,1.75zm4,12c0-.97.78-1.75,1.75-1.75s1.75.78,1.75,1.75-.78,1.75-1.75,1.75-1.75-.78-1.75-1.75zm1.75-2.75c-1.52,0-2.75,1.23-2.75,2.75s1.23,2.75,2.75,2.75,2.75-1.23,2.75-2.75-1.23-2.75-2.75-2.75zm6.75,4c-.55,0-1,.45-1,1s.45,1,1,1,1-.45,1-1-.45-1-1-1zm-2,1c0-1.11.9-2,2-2s2,.89,2,2-.9,2-2,2-2-.89-2-2zm-10-8h-.5v13h19v-4.2l-.25-.14c-.75-.44-1.25-1.24-1.25-2.15s.5-1.72,1.25-2.15l.25-.14V19.75h-5.5V21c0,.97-.78,1.75-1.75,1.75s-1.75-.78-1.75-1.75v-1.25h-9.5zm.5,12v-11h8V21c0,1.52,1.23,2.75,2.75,2.75s2.75-1.23,2.75-2.75v-.25h3.5v2.64c-.9.63-1.5,1.67-1.5,2.86s.6,2.23,1.5,2.86V31.75h-17z"/></svg>