<svg width="48" height="48" xmlns="http://www.w3.org/2000/svg"><path fill-rule="evenodd" clip-rule="evenodd" d="m8,10c-1.11,0-2,.9-2,2V12l0,7.5V19.5c0,1.77.73,3.46,2,4.68V26H7v12l18,37.92V26H17v-1.82c1.27-1.22,2-2.91,2-4.68V12c0-1.1-.89-2-2-2-1.11,0-2,.9-2,2v3.27c-.29-.17-.64-.27-1-.27-.6,0-1.13.26-1.5.68C12.13,15.26,11.6,15,11,15c-.36,0-.71.1-1,.27V12c0-1.1-.9-2-2-2zM16,26v-2.26l.17-.15c1.17-1.04,1.83-2.53,1.83-4.09V12c0-.55-.45-1-1-1-.55,0-1,.45-1,1v7h-1v-2c0-.55-.45-1-1-1-.55,0-1,.45-1,1v2h-1v-2c0-.55-.45-1-1-1-.55,0-1,.45-1,1v2h-1v-7c0-.55-.45-1-1-1-.55,0-1,.45-1,1v0l0,7.5v0c0,1.56.67,3.05,1.83,4.09l.17.15V26H16zM8,37V29H17v7.93l-7,.05V31h-1v5.99l-1,.01zM17,28H8v-1H17v1zm8,2c-1.66,0-3,1.34-3,3s1.34,3,3,3c1.66,0,3-1.34,3-3s-1.34-3-3-3zm0-1c1.19,0,2.27.52,3,1.35V15.04l14-3.17V29.31h-.01C41.83,31.37,40.11,33,38,33c-2.21,0-4-1.79-4-4,0-2.21,1.79-4,4-4,1.19,0,2.27.52,3,1.35V16.13L29,18.84V33c0,2.21-1.79,4-4,4-2.21,0-4-1.79-4-4s1.79-4,4-4zm4-11.18,12-2.72v-1.98l-12,2.72v1.98zM35,29c0-1.66,1.34-3,3-3,1.66,0,3,1.34,3,3,0,1.66-1.34,3-3,3-1.66,0-3-1.34-3-3z"/></svg>