<svg width="48" height="48" xmlns="http://www.w3.org/2000/svg"><path fill-rule="evenodd" clip-rule="evenodd" d="m24,4v8h1V4h-1zm-8.35,11.35-5-5,.71-.71,5,5-.71.71zM16,23.5C16,18.81,19.77,15,24.47,15,29.18,15,33,18.82,33,23.51,33,28.2,29.22,32,24.52,32,19.81,32,16,28.19,16,23.5zM24.47,14C19.21,14,15,18.26,15,23.5,15,28.75,19.26,33,24.52,33,29.78,33,34,28.75,34,23.51,34,18.26,29.73,14,24.47,14zM5,24h8v-1H5v1zm27.65-9.35,5-5,.71.71-5,5-.71-.71zM44,23h-8v1h8v-1zM24,43v-8h1v8h-1zm-12.65-5.64,5-4.89-.7-.71-5,4.89.7.71zm22-5.71,5,5-.71.71-5-5,.71-.71zm-3.35-7.69c-.22,2.67-2.37,4.82-5.04,5.04l.08,1c3.16-.26,5.7-2.8,5.96-5.96l-1-.08z"/></svg>