<svg width="36" height="36" viewBox="0 0 36 36" fill="none" xmlns="http://www.w3.org/2000/svg">
<path fill-rule="evenodd" clip-rule="evenodd" d="M16.25 6.7503C16.25 6.19694 16.6966 5.7503 17.25 5.7503C17.8034 5.7503 18.25 6.19694 18.25 6.7503C18.25 7.30248 17.803 7.7503 17.25 7.7503C16.697 7.7503 16.25 7.30248 16.25 6.7503ZM18.9404 7.81988C19.1365 7.51047 19.25 7.14356 19.25 6.7503C19.25 5.64466 18.3556 4.7503 17.25 4.7503C16.1444 4.7503 15.25 5.64466 15.25 6.7503C15.25 7.14356 15.3635 7.51047 15.5596 7.81988C12.9835 8.0348 10.5453 8.75162 8.63372 10.0264C6.40972 11.5095 4.91161 13.7434 4.76229 16.7503H3V17.7503H31.5V16.7503H29.7377C29.5884 13.7434 28.0903 11.5095 25.8663 10.0264C23.9547 8.75162 21.5165 8.0348 18.9404 7.81988ZM17.25 8.7503C14.1979 8.7503 11.3034 9.44801 9.18853 10.8583C7.21597 12.1738 5.90982 14.1127 5.76369 16.7503H28.7363C28.5902 14.1127 27.284 12.1738 25.3115 10.8583C23.1966 9.44801 20.3021 8.7503 17.25 8.7503ZM12.2463 24.2016L6.48823 20.1788C5.62757 19.5019 4.37774 19.6401 3.68904 20.498L3.68896 20.4981C3.00095 21.3556 3.13598 22.609 3.98891 23.3022L12.8684 31.1252L13.0101 31.25H13.1989H18.9075L20.2733 32.605L20.4195 32.75H20.6254H31.8004H33.0015L32.1553 31.8977L24.6133 24.3017L24.6133 24.3016L24.6051 24.2937C22.8484 22.6034 20.5637 21.2953 18.1734 21.2501V21.25H18.1639H15.0004C14.1194 21.25 13.4193 21.5878 12.9432 22.1196C12.475 22.6425 12.2461 23.3265 12.2409 23.9961C12.2404 24.0645 12.2422 24.133 12.2463 24.2016ZM5.90309 20.9899L12.9584 25.9189L4.46894 21.1239C4.8146 20.6934 5.44507 20.6246 5.87699 20.9703L5.88972 20.9805L5.90309 20.9899ZM12.9584 25.9189L4.46885 21.124C4.12451 21.5533 4.19294 22.1837 4.62446 22.5301L4.63338 22.5373L4.64198 22.5448L13.3878 30.25H19.1134H19.3194L19.4656 30.395L20.8314 31.75H30.5994L23.9077 25.0104C22.2554 23.4219 20.2026 22.2903 18.1591 22.25H15.0004C14.3928 22.25 13.9674 22.4747 13.6882 22.7866C13.401 23.1075 13.2444 23.5485 13.2409 24.0039C13.2373 24.4593 13.3868 24.8969 13.6693 25.2144C13.9438 25.5228 14.3716 25.75 15.0004 25.75H18.0004V26.75H15.0004C14.1275 26.75 13.4342 26.4312 12.9584 25.9189Z" fill="black"/>
</svg>
