<svg width="24" height="24" viewBox="0 0 24 24" fill="none" xmlns="http://www.w3.org/2000/svg">
<path fill-rule="evenodd" clip-rule="evenodd" d="M19 3.5C19 3.22382 19.2235 3 19.5 3C19.7765 3 20 3.22382 20 3.5C20 3.77618 19.7765 4 19.5 4C19.2235 4 19 3.77618 19 3.5ZM19.5 2C18.6705 2 18 2.67218 18 3.5C18 3.82002 18.1002 4.11678 18.2711 4.36044L14.9154 9.0582C14.7835 9.0203 14.6442 9 14.5 9C14.0503 9 13.6473 9.19759 13.3725 9.51044L10.9988 8.56109C10.9996 8.54082 11 8.52046 11 8.5C11 7.67186 10.3281 7 9.5 7C8.67186 7 8 7.67186 8 8.5C8 8.67265 8.0292 8.83851 8.08293 8.99291L5.29207 11.2261C5.06218 11.0828 4.79072 11 4.5 11C3.67186 11 3 11.6719 3 12.5C3 13.3295 3.67218 14 4.5 14C5.32782 14 6 13.3295 6 12.5C6 12.3272 5.97076 12.1613 5.91696 12.0068L8.70766 9.77375C8.93761 9.91714 9.20917 10 9.5 10C9.94909 10 10.3522 9.80242 10.6272 9.48948L13.0012 10.4389C13.0004 10.4592 13 10.4796 13 10.5C13 11.3278 13.6705 12 14.5 12C15.3295 12 16 11.3278 16 10.5C16 10.18 15.8998 9.88328 15.729 9.63964L19.0847 4.94182C19.2165 4.97971 19.3559 5 19.5 5C20.3295 5 21 4.32782 21 3.5C21 2.67218 20.3295 2 19.5 2ZM4 12.5C4 12.2241 4.22414 12 4.5 12C4.77586 12 5 12.2241 5 12.5C5 12.7765 4.77618 13 4.5 13C4.22382 13 4 12.7765 4 12.5ZM8 13.004H8.5H10.5H11V13.504V21H13V15.504V15.004H13.5H15.5H16V15.504V21H18V9.504V9.004H18.5H20.5H21V9.504V21.5V22H20.5H3.5H3V21.5V17.504V17.004H3.5H5.5H6V17.504V21H8V13.504V13.004ZM10 21V14.004H9V21H10ZM15 21V16.004H14V21H15ZM20 10.004V21H19V10.004H20ZM5 18.004V21H4V18.004H5ZM9.5 8C9.22414 8 9 8.22414 9 8.5C9 8.77586 9.22414 9 9.5 9C9.77586 9 10 8.77586 10 8.5C10 8.22414 9.77586 8 9.5 8ZM14 10.5C14 10.2238 14.2235 10 14.5 10C14.7765 10 15 10.2238 15 10.5C15 10.7762 14.7765 11 14.5 11C14.2235 11 14 10.7762 14 10.5Z" fill="black"/>
</svg>
