<svg width="48" height="48" fill="none" xmlns="http://www.w3.org/2000/svg"><path fill-rule="evenodd" clip-rule="evenodd" d="m17.5,23.5c0,5.21,2.4,10.14,6.5,13.35,7.37-5.78,8.67-16.44,2.89-23.82-.84-1.08-1.81-2.05-2.89-2.89-4.1,3.22-6.5,8.14-6.5,13.35z" stroke="#000"/><path d="m27.73,35.29c9.05-2.03,14.78-10.96,12.85-20.02-3.16-.1-6.28.68-9.02,2.25m-15.13,0c-2.74-1.57-5.86-2.35-9.02-2.25-1.93,9.07,3.8,18,12.85,20.02" stroke="#000"/><path fill-rule="evenodd" clip-rule="evenodd" d="m24.53,34.2h0,0zm-1.06,0h0,0z" stroke="#000"/><path d="m7,25.95c-1.13.62-2.19,1.37-3.15,2.23,3.36,6.3,10.3,9.82,17.36,8.8m5.58,0c7.06,1.01,14-2.51,17.36-8.8-.96-.86-2.02-1.61-3.15-2.23" stroke="#000"/></svg>