<svg width="24" height="24" xmlns="http://www.w3.org/2000/svg"><path fill-rule="evenodd" clip-rule="evenodd" d="m12.9801,4.9997h-2v-1h2v1zM6.76328,8.73182C7.94083,7.11302,9.70771,5.9997,12.0001,5.9997c2.2926,0,4.057,1.11351,5.2333,2.73234,1.1676,1.60696,1.7615,3.71376,1.7667,5.76636l.0013.5013H5.00012v-.5c0-2.0536.59412-4.1608,1.76316-5.76788zm-.75029,5.26788H17.986c-.0917-1.7092-.628-3.3949-1.5616-4.67984-1.0163-1.39867-2.4969-2.32016-4.4243-2.32016-1.9276,0-3.4107.92168-4.42815,2.32038-.93484,1.28512-1.47108,2.97082-1.55896,4.67962zm-.65292,2h-.36153l-.99,3H19.9949l-.8907-2.6588-.1143-.3412H5.36007zm.03152,2,.33-1H18.2703l.335,1H5.39159z"/></svg>