<svg width="24" height="24" xmlns="http://www.w3.org/2000/svg"><path fill-rule="evenodd" clip-rule="evenodd" d="m16.3124,9.85631c.492.11216.8934.38119,1.1819.74989.3929.5023.555,1.1595.5053,1.7955-.05.6395-.3161,1.2917-.8246,1.7866-.5147.5008-1.2483.8119-2.1749.8119H8.00011c-.95398,0-1.6936-.3079-2.20142-.8196-.50158-.5054-.73574-1.1679-.76361-1.8086-.02771-.6372.14657-1.2875.50666-1.7908.2743-.3834.66277-.68665,1.14398-.81475.09199-1.85089,2.00673-2.89518,3.52268-2.17629.9455-1.53829,2.6246-1.91671,3.9872-1.42244.745.27025,1.4036.80294,1.7943,1.549.3183.60772.4474,1.33514.3225,2.13959zm-2.4578-2.74853c-1.0482-.38023-2.3618-.04562-2.997,1.39429l-.2655.60174-.5088-.41675c-.96738-.79235-2.56613-.04792-2.38672,1.45384l.06682.5593h-.56329c-.34817,0-.63449.1685-.84507.4628-.21672.303-.33994.7277-.3209,1.1655.01889.4343.17573.8468.47432,1.1477.29238.2945.76213.524,1.49165.524h6.99999c.6914,0,1.1668-.2263,1.4774-.5286.3167-.3082.4921-.7248.5251-1.1478.0333-.4265-.0801-.8255-.2959-1.1014-.2049-.2619-.5216-.4412-.9866-.4226l-.6985.028.1992-.67c.2414-.81192.1456-1.47627-.1168-1.97715-.2655-.50707-.7194-.88063-1.2494-1.07287zM16,16.9999c0-.5521.4479-1,1-1s1,.4479,1,1c0,.5522-.4479,1-1,1s-1-.4478-1-1zm-3-1c-.5521,0-1,.4479-1,1,0,.5522.4479,1,1,1s1-.4478,1-1c0-.5521-.4479-1-1-1zm1,4c0-.5521.4479-1,1-1s1,.4479,1,1c0,.5522-.4479,1-1,1s-1-.4478-1-1zm-7.94722-4.2236-1,2,.89443.4472,1-2-.89443-.4472zm3,2,1.00002-2,.8944.4472-.99999,2-.89443-.4472zm-1-2-2,4,.89443.4472,2-4-.89443-.4472z"/></svg>