<svg width="36" height="36" xmlns="http://www.w3.org/2000/svg"><path fill-rule="evenodd" clip-rule="evenodd" d="m21.97,9.84c.74.43,1.38,1.05,1.8,1.85.48.92.66,2.04.42,3.3.67.11,1.23.42,1.66.88.17.18.32.39.44.6,1.47-.58,2.48-1.99,2.48-3.72,0-2.26-1.74-4-4-4-1.1,0-2.07.41-2.78,1.09zm4.66,7.56c.05.21.08.42.1.63.12,1.59-.67,3.41-2.55,4.02l-.31-.95c1.34-.44,1.96-1.75,1.86-2.99-.05-.62-.27-1.18-.63-1.56-.35-.38-.85-.62-1.53-.59l-.7.03.2-.67c.38-1.27.23-2.34-.19-3.15-.43-.82-1.16-1.42-2.01-1.73-1.69-.61-3.8-.06-4.81,2.23l-.27.6-.51-.42c-1.63-1.33-4.28-.07-3.99,2.4l.07.56h-.56c-1.06,0-1.86.96-1.99,2.23-.12,1.24.43,2.54,1.85,3.02l-.32.95c-1.96-.67-2.68-2.48-2.52-4.06.14-1.39.99-2.81,2.45-3.08.01-2.8,2.94-4.36,5.13-3.13,1.28-2.28,3.63-2.91,5.58-2.3C21.9,8.38,23.24,7.75,24.75,7.75c2.81,0,5,2.19,5,5,0,2.14-1.27,3.92-3.12,4.65zm-13.45.99L16.04,21.25h-4.02v1h4.04l-2.86,2.86.71.71,2.84-2.84V27h1v-4.04l2.86,2.86.71-.71L18.46,22.25h4.06v-1h-4.04l2.86-2.86-.71-.71-2.88,2.88V16.5h-1v4.04l-2.86-2.86-.71.71z"/></svg>