<svg width="48" height="48" fill="none" xmlns="http://www.w3.org/2000/svg"><path fill-rule="evenodd" clip-rule="evenodd" d="m17.5,23.5004c-.001,5.213,2.396,10.137,6.5,13.352,7.373-5.78,8.666-16.443,2.886-23.817-.842-1.076-1.812-2.045-2.886-2.887-4.104,3.215-6.501,8.139-6.5,13.352z" stroke="#000"/><path d="m27.7324,35.294c9.046-2.026,14.775-10.955,12.85-20.022-3.156-.1-6.278.678-9.018,2.246m-15.1303,0c-2.74-1.568-5.862-2.346-9.01797-2.246-1.925,9.067,3.80497,17.996,12.84997,20.022" stroke="#000"/><path fill-rule="evenodd" clip-rule="evenodd" d="m24.5332,34.2021h-.003.003z" stroke="#000"/><path fill-rule="evenodd" clip-rule="evenodd" d="m23.4693,34.2021h-.003.003z" stroke="#000"/><path d="m7.00237,25.9512c-1.131.623-2.189,1.371-3.153,2.231,3.356,6.296,10.29603,9.816,17.35903,8.804m5.5826.0002c7.062,1.012,14.002-2.508,17.358-8.804-.963-.86-2.021-1.608-3.152-2.231" stroke="#000"/></svg>