<svg width="36" height="36" xmlns="http://www.w3.org/2000/svg"><path fill-rule="evenodd" clip-rule="evenodd" d="m11.25,4.25c-1.37986,0-2.5,1.12014-2.5,2.5v25h15.5v-25c0-1.37986-1.1201-2.5-2.5-2.5h-10.5zm-3.5,2.5v25H6v1h21v-1h-1.75v-9.5h.25c.6722,0,1.0752.1653,1.3187.4104.2456.2472.4148.6616.4313,1.3455v1.4951l.0001.0334c.0005.3761.0013,1.0167.2242,1.5699.1197.2971.3115.5925.6189.8112.3098.2205.6971.3345,1.1568.3345.4584,0,.8455-.1105,1.1562-.327.3091-.2154.5028-.5079.6234-.8049.2265-.5572.2228-1.2073.2205-1.598l-.0001-.0215v-4.7841c1.6955-.2428,3-1.7021,3-3.4645v-2h-1.5V12h-1v3.25h-2V12h-1v3.25h-1.5v2c0,1.7624,1.3045,3.2217,3,3.4645v4.7883c.0024.4251-.0031.8853-.1468,1.2388-.0666.1639-.1547.2815-.2687.3609-.1125.0784-.2899.1475-.5845.1475-.2903,0-.4653-.0697-.5771-.1493-.1143-.0813-.2034-.2021-.2711-.37-.1449-.3599-.151-.8219-.1518-1.2312V24h.0001l-.0002-.0114c-.0189-.8249-.2259-1.5339-.7218-2.033-.4986-.5019-1.2033-.7056-2.0281-.7056h-.25V6.75c0-1.93214-1.5679-3.5-3.5-3.5h-10.5c-1.93214,0-3.5,1.56786-3.5,3.5zm3.5,1h-.5v7h11.5v-7h-11zm.5,6v-5h9.5v5h-9.5zm16.5,3.5v-1h5v1c0,1.3799-1.1201,2.5-2.5,2.5s-2.5-1.1201-2.5-2.5z"/></svg>