<svg width="48" height="48" fill="none" xmlns="http://www.w3.org/2000/svg"><path d="m19.5,25.5c1.66,0,3,1.34,3,3s-1.34,3-3,3-3-1.34-3-3,1.34-3,3-3zm0-5c4.42,0,8,3.58,8,8s-3.58,8-8,8-8-3.58-8-8,3.58-8,8-8zm0-5c7.18,0,13,5.82,13,13s-5.82,13-13,13-13-5.82-13-13,5.82-13,13-13zm0-3c8.84,0,16,7.16,16,16,0,8.84-7.16,16-16,16-8.84,0-16-7.16-16-16,0-8.84,7.16-16,16-16z" style="fill-rule:evenodd;clip-rule:evenodd;stroke:#000;stroke-linecap:round;stroke-linejoin:round"/><path d="m19.5,28.5,13-14" stroke="#000" stroke-linejoin="round"/><path fill-rule="evenodd" clip-rule="evenodd" d="m38.5,14.5,5-5h-6v-5l-5,4v6h6z" stroke="#000"/></svg>