<svg width="36" height="36" xmlns="http://www.w3.org/2000/svg"><path fill-rule="evenodd" clip-rule="evenodd" d="m9.61,8.17c-.58.49-.86,1.02-.86,1.58,0,.56.27,1.09.86,1.58.59.5,1.46.94,2.55,1.3,2.18.72,5.12,1.08,8.09,1.07,2.97-.01,5.91-.38,8.09-1.11,1.09-.36,1.96-.8,2.55-1.3.58-.49.85-1.01.85-1.55,0-.54-.27-1.06-.85-1.55-.59-.5-1.46-.93-2.55-1.3-2.18-.72-5.13-1.1-8.09-1.11-2.97-.01-5.91.35-8.09,1.07-1.09.36-1.96.8-2.55,1.3zm-.65-.76c-.73.62-1.21,1.41-1.21,2.34v2.04c-1.21.36-2.26.83-3.05,1.42-.87.65-1.45,1.5-1.45,2.54l0,.04v4.46c0,.94.47,1.72,1.21,2.35.72.62,1.73,1.12,2.89,1.5.13.04.27.09.41.13v2.02c0,.94.47,1.72,1.21,2.35.72.62,1.73,1.12,2.89,1.5,2.32.77,5.38,1.15,8.41,1.15,3.03,0,6.09-.38,8.41-1.15,1.16-.39,2.16-.88,2.89-1.5.73-.63,1.21-1.41,1.21-2.35v-4.5c0-1.03-.59-1.86-1.45-2.51-.65-.48-1.48-.89-2.43-1.22,1.07-.37,2-.85,2.68-1.43.73-.63,1.21-1.41,1.21-2.35v-4.5c0-.93-.48-1.7-1.21-2.31-.72-.61-1.73-1.1-2.88-1.48-2.32-.77-5.37-1.15-8.41-1.16-3.03-.01-6.09.36-8.41,1.12-1.16.38-2.16.87-2.89,1.49zM29.78,25.12c.77-.34,1.45-.75,1.98-1.24v2.37c0,.56-.28,1.09-.86,1.59-.59.5-1.46.95-2.55,1.31-.03.01-.06.02-.09.03v-3.51c.55-.16,1.06-.35,1.53-.55zm-2.53.82c-1.21.29-2.55.5-3.94.62-.84.07-1.7.12-2.56.13v3.55c2.33-.03,4.61-.29,6.5-.78v-3.53zm-11.41.5c1.25.16,2.58.25,3.91.26V30.25c-2.33-.03-4.61-.29-6.5-.78v-3.49c.82.19,1.69.35,2.59.46zm-3.59-.73c-.89-.26-1.68-.59-2.35-.96-.39-.07-.78-.16-1.15-.25v1.75c0,.56.28,1.09.86,1.59.59.5,1.46.95,2.55,1.31.03.01.06.02.09.03v-3.47zM15.97,25.45c-.48-.06-.95-.13-1.4-.22.39.01.79.02,1.18.02,3.03,0,6.09-.38,8.41-1.15,1.16-.39,2.16-.88,2.89-1.5.73-.63,1.21-1.41,1.21-2.35v-1.37c1.01.33,1.85.72,2.45,1.17.72.54,1.05,1.11,1.05,1.71,0,.9-.77,1.75-2.38,2.45-1.57.69-3.76,1.15-6.15,1.36-2.39.21-4.95.17-7.25-.12zM4.25,15.78v-.03h0c0-.62.34-1.2,1.05-1.74.6-.45,1.43-.85,2.45-1.17v1.41c0,.94.47,1.72,1.21,2.35.72.62,1.73,1.12,2.89,1.5,2.32.77,5.38,1.15,8.41,1.15.33,0,.65,0,.98-.01-.43.08-.87.14-1.32.2-2.3.29-4.85.34-7.22.14-2.38-.2-4.54-.66-6.09-1.35C5.03,17.53,4.27,16.69,4.25,15.78zm0,2.13v2.34c0,.56.28,1.09.86,1.59.59.5,1.46.95,2.55,1.31.03.01.06.02.09.03V19.71c-.56-.17-1.08-.35-1.55-.57-.75-.33-1.43-.74-1.95-1.24zM15.25,24.25c-2.33-.03-4.61-.29-6.5-.78v-3.49c1.19.28,2.5.48,3.86.6.86.07,1.75.12,2.64.13v3.55zm1-3.55v3.55c2.33-.03,4.61-.29,6.5-.78v-3.53c-.85.21-1.77.37-2.71.49-1.22.16-2.5.24-3.79.27zm7.54,2.47-.04.01v-3.51c.84-.25,1.6-.56,2.25-.91.43-.08.85-.17,1.25-.26v1.75c0,.56-.28,1.09-.86,1.59-.59.5-1.46.95-2.55,1.31l-.05.02zm7.96-8.92v-2.37c-.07.06-.14.13-.21.19-.72.61-1.73,1.1-2.88,1.48-.13.04-.27.09-.41.13v3.51c.03-.01.06-.02.09-.03,1.09-.36,1.96-.81,2.55-1.31.58-.5.86-1.03.86-1.59zm-4.5,3.22c-1.89.48-4.17.74-6.5.78v-3.55c2.29-.04,4.56-.29,6.5-.75V17.47zm-14,0c1.89.48,4.17.74,6.5.78v-3.55c-2.29-.02-4.56-.26-6.5-.72V17.47zm-1-.29c-.03-.01-.06-.02-.09-.03-1.09-.36-1.96-.81-2.55-1.31-.58-.5-.86-1.03-.86-1.59v-2.34c.07.06.14.13.21.19.72.62,1.73,1.11,2.89,1.49.13.04.27.09.41.13v3.47z"/></svg>