<svg width="36" height="36" xmlns="http://www.w3.org/2000/svg"><path fill-rule="evenodd" clip-rule="evenodd" d="m8.25186,4.25C7.69855,4.25,7.25,4.69855,7.25,5.25186v4.49985c0,.55139.44695.99829.99829.99829H12.25v-6.5H8.25186zm4.99814,0v6.5h9.5v-6.5h-9.5zm10.5,0v6.5h4c.5523,0,1-.4477,1-1v-4.5c0-.55228-.4477-1-1-1h-4zM6.25,5.25186C6.25,4.14627,7.14627,3.25,8.25186,3.25H27.75c1.1046,0,2,.89543,2,2v4.5c0,1.1046-.8954,2-2,2h-1v11h.376l-.0001.0001c.6831.0109,1.6966.223,2.5537.8386.8819.6333,1.5704,1.6768,1.5704,3.2613v4.5c0,.3727-.1494.7293-.414.9915-.2644.2621-.6221.4085-.994.4085H6.15802c-.37197,0-.72964-.1464-.99405-.4085-.26455-.2622-.41397-.6188-.41397-.9915v-4.5c0-1.0888.43642-2.1321,1.21182-2.9007.77526-.7684,1.8258-1.1993,2.92026-1.1993H9.25v-11H8.24829C7.14467,11.75,6.25,10.8553,6.25,9.75171V5.25186zm4,6.49814v3.0595c.9626,1.0606,2.1299,1.9129,3.4311,2.5044,1.2053.5479,2.5011.8608,3.8189.9241V16.5h1v1.738c1.3178-.0633,2.6136-.3762,3.8189-.9241,1.3012-.5915,2.4685-1.4438,3.4311-2.5044V11.75h-15.5zm15.5,4.4764c-.893.8199-1.9108,1.4949-3.0173,1.9979-1.3352.6069-2.7719.9508-4.2327,1.0148V21h-1v-1.7609c-1.4608-.064-2.8975-.4079-4.2327-1.0148-1.1065-.503-2.1243-1.178-3.0173-1.9979V31.75h15.5V16.2264zM26.75,31.75h3.092c.1096,0,.2139-.0432.2901-.1187.076-.0753.1179-.1767.1179-.2813v-4.5c0-1.2489-.5222-1.9956-1.1537-2.4491-.6546-.4701-1.4549-.6417-1.9826-.6509H26.75v8zm-17.5,0v-8h-.36792c-.83211,0-1.62924.3277-2.21627.9095l-.00002.0001C6.0789,25.2413,5.75,26.0293,5.75,26.85v4.5c0,.1047.04191.206.11794.2813.07615.0755.18041.1187.29008.1187H9.25z"/></svg>