<svg width="48" height="48" xmlns="http://www.w3.org/2000/svg"><path fill-rule="evenodd" clip-rule="evenodd" d="m11,3c0,1.66-1.34,3-3,3v1c1.66,0,3,1.34,3,3h1c0-1.66,1.34-3,3-3V6c-1.66,0-3-1.34-3-3h-1zm1.88,3.61c-.58.36-1.05.86-1.38,1.46-.36-.66-.91-1.2-1.56-1.56.6-.33,1.1-.81,1.46-1.38.33.64.85,1.16,1.49,1.49zM16.37,10h-.27L8.39,21.52,26.5,45.84,44.61,21.52,36.9,10H16.37zm-.18,1.67L9.94,21h8.99l-2.74-9.33zM10,22,25.24,42.47,19.23,22H10zM27.77,42.46,43,22h-9.23l-6.01,20.46zM43.06,21l-6.25-9.33L34.07,21h8.99zm-7.1-10h-8.56l5.83,9.29L35.96,11zm-16.2,9.29L25.6,11h-8.56l2.73,9.29zM26.5,11.44,20.5,21h11.99l-6-9.56zM32.73,22,26.5,43.22,20.27,22h12.47zM6,11c0,1.1-.9,2-2,2v1c1.1,0,2,.9,2,2h1c0-1.1.9-2,2-2v-1c-1.1,0-2-.9-2-2H6zm.5,3.34c-.22-.33-.51-.62-.84-.84.33-.22.62-.51.84-.84.22.33.51.62.84.84-.33.22-.62.51-.84.84z"/></svg>