<svg width="24" height="24" xmlns="http://www.w3.org/2000/svg"><path fill-rule="evenodd" clip-rule="evenodd" d="m17.4282,4.02557.651-1.28827-1.3084.60956c-.49.22828-1.0366.50903-1.5381,1.02513-.415.42698-.7791.99331-1.0763,1.78161-1.3554-.47292-3.0115-.08711-3.9479,1.43642-1.51599-.71889-3.43073.3254-3.52272,2.17629-.48121.1281-.86968.43139-1.14397.81479-.3601.5033-.53438,1.1535-.50667,1.7907.02787.6407.26203,1.3033.76362,1.8087.50781.5116,1.24743.8196,2.20141.8196h7.00003c.9319,0,1.6688-.3103,2.1853-.8115.5104-.4953.776-1.1483.824-1.7886.0073-.0974.0097-.1953.0069-.2931.6727.0252,1.4625-.1161,2.2082-.414,1.0824-.4325,2.1688-1.2331,2.7316-2.48825l.5202-1.16019-1.1711.49509c-1.8896.7988-3.3995.25835-4.2934-.74421-.9192-1.03099-1.1985-2.55284-.5837-3.76977zm.3587,7.05883c.5134.0733,1.2821-.0067,2.0667-.3201.5183-.2071,1.0137-.5045,1.4236-.89588-1.6685.25088-3.0825-.36542-4.0117-1.40759-.8561-.9602-1.2954-2.2822-1.1329-3.56473-.062.05381-.1229.1112-.1828.17283-.3206.32984-.6339.80542-.9008,1.5549.3828.28223.7091.6499.941,1.09275.3182.6077.4473,1.33509.3225,2.13951.4923.11202.8947.38071,1.1845.74871.1165.1479.213.3093.2899.4796zm-6.9293-2.58247c.6353-1.43991,1.9489-1.77451,2.9971-1.39429.5299.19224.9839.5658,1.2494,1.07287.2623.50088.3582,1.16523.1168,1.97709l-.1992.67.6985-.0279c.4651-.0186.7841.1609.9912.4238.2178.2766.3329.6759.3009,1.1017-.0317.4223-.206.838-.5232,1.1458-.3113.302-.7899.5291-1.4889.5291H8.00017c-.72952,0-1.19927-.2295-1.49164-.5241-.2986-.3008-.45544-.7133-.47433-1.1476-.01904-.4378.10418-.8626.3209-1.1655.21058-.2943.4969-.4628.84507-.4628h.56329l-.06682-.5593C7.51723,8.639,9.11598,7.89457,10.0833,8.68692l.5089.41675.2654-.60174z"/></svg>