<svg width="48" height="48" xmlns="http://www.w3.org/2000/svg"><path fill-rule="evenodd" clip-rule="evenodd" d="m24,6.45028.2069.09405,16.5,7.49997.2931.1333v7.372c1.1408.2318,2,1.241,2,2.4499,0,.9889-.575,1.8442-1.4087,2.2496l.8899,3.1176-.9616.2745-.8976-3.1446c-.0404.0019-.0811.0029-.122.0029-.0406,0-.0811-.001-.1213-.0029l-.8984,3.1447-.9616-.2747.8906-3.1171c-.834-.4053-1.4093-1.2608-1.4093-2.25,0-1.2089.8592-2.2181,2-2.4499v-6.3157l-5,1.9697v5.9569l-.0937.1307-.4063-.2915c.4063.2915.406.2918.4058.2921l-.0005.0007-.0012.0017-.0032.0043-.0092.0124c-.0074.0098-.0174.0229-.0302.0389-.0255.0322-.0618.0763-.1097.1307-.0959.1089-.238.2588-.4323.4357-.3888.3542-.9856.8159-1.8367,1.2738-1.7051.9174-4.4125,1.8097-8.4828,1.8097-4.0466,0-6.9933-.8923-8.9386-1.7966-.9718-.4517-1.6916-.9054-2.1725-1.2501-.2405-.1724-.4212-.3175-.5439-.4216-.0613-.052-.1082-.0938-.1407-.1235-.0163-.0149-.0289-.0268-.0381-.0355l-.011-.0106-.0036-.0034-.0012-.0013-.0006-.0005c-.0002-.0002-.0004-.0004.3502-.3569l-.3506.3565L12,23.2093v-6.3997l-4.68326-1.8449-1.09741-.4323,1.07377-.4881,16.5-7.49997L24,6.45028zM13,17.2036v5.5721c.1032.0871.2598.2128.4715.3645.4345.3115,1.1007.7328,2.0114,1.1561,1.8194.8458,4.6227,1.7034,8.5171,1.7034,3.9187,0,6.4613-.8576,8.009-1.6903.7752-.4171,1.3055-.8303,1.6371-1.1324.165-.1503.2811-.2733.3539-.3559v-5.2236l-9.8167,3.8672L24,21.5369l-.1833-.0722L13,17.2036zm26.2193-2.737L24,20.4621,8.78067,14.4666,24,7.54874,39.2193,14.4666zM40.5,22.4995c-.8279,0-1.5.6722-1.5,1.5,0,.8279.6721,1.5,1.5,1.5s1.5-.6721,1.5-1.5c0-.8278-.6721-1.5-1.5-1.5zM8.54798,27.5368l8.65742,5.8472c.0277-.5885.2674-1.1719.7218-1.617.4881-.4781,1.1937-.7678,2.0728-.7678h4.2274v.0001c3.6856.062,6.1189,2.0739,8.1091,3.7194.1091.0903.2169.1794.3235.267.0005.0005.001.0009.0015.0013l10.0527,8.1233,1.1001.8889H27.294l-.1462-.145-1.8698-1.855h-7.8678l-.1417-.1248L5.42561,31.4426c-1.06806-.8655-1.23673-2.4331-.37576-3.5071.85939-1.0721,2.42133-1.2482,3.49813-.3987zm9.08032,7.3395-9.65617-6.5217-.01709-.0116-.01607-.0129c-.6467-.5191-1.59079-.4154-2.10887.2309-.51851.6468-.4147,1.5912.23083,2.1093l.00894.0071.0086.0076L17.7878,40.9992h7.9021l.1462.1451,1.8698,1.8549h13.2798l-8.956-7.2371-.0033-.0027c-.0956-.0786-.1914-.1577-.2877-.2371-2.0164-1.664-4.1997-3.4657-7.524-3.5231H20c-.6524,0-1.0955.2103-1.3731.4822-.2817.2759-.4242.6448-.4242,1.0178,0,.3731.1425.7419.4242,1.0178.2776.2719.7207.4822,1.3731.4822h4v1h-4c-.8791,0-1.5847-.2897-2.0728-.7678-.1129-.1105-.2125-.2296-.2989-.3551z"/></svg>