<svg width="48" height="48" xmlns="http://www.w3.org/2000/svg"><path fill-rule="evenodd" clip-rule="evenodd" d="m8,6v10.52C8,17.34,8.66,18,9.48,18h2.03C12.34,18,13,17.34,13,16.52V6h1v10.52c0,1.21-.86,2.21-2,2.44L12,41.5c0,.83-.67,1.5-1.5,1.5-.83,0-1.5-.67-1.5-1.5V18.95C7.86,18.73,7,17.72,7,16.52V6h1zm3,13H10v22.5c0,.28.22.5.5.5.28,0,.5-.22.5-.5l0-22.5zM10,6v9H9V6h1zm25.09,2.53C34.43,9.53,34,10.93,34,12.5s.43,2.97,1.09,3.97C35.75,17.46,36.61,18,37.5,18s1.75-.54,2.41-1.53C40.57,15.47,41,14.07,41,12.5s-.43-2.97-1.09-3.97C39.25,7.54,38.39,7,37.5,7s-1.75.54-2.41,1.53zm-.83-.55C35.04,6.8,36.18,6,37.5,6s2.46.8,3.24,1.98C41.53,9.16,42,10.76,42,12.5s-.47,3.34-1.26,4.52c-.47.7-1.06,1.27-1.74,1.62L39,41.5c0,.83-.67,1.5-1.5,1.5s-1.5-.67-1.5-1.5V18.64c-.68-.35-1.28-.91-1.74-1.62C33.47,15.84,33,14.24,33,12.5s.47-3.34,1.26-4.52zM37.5,19c.17,0,.34-.01.5-.04L38,41.5c0,.28-.22.5-.5.5s-.5-.22-.5-.5V18.96c.16.03.33.04.5.04zm-15-13H22v35.5c0,.83.67,1.5,1.5,1.5s1.5-.67,1.5-1.5v-18h3V13c0-2.26-.58-4.01-1.58-5.2C25.41,6.6,24.02,6,22.5,6zm.5,35.5V7.03c1.04.11,1.96.58,2.65,1.41C26.46,9.41,27,10.91,27,13v9.5h-3v19c0,.28-.22.5-.5.5s-.5-.22-.5-.5zM12,15V6h-1v9h1z"/></svg>