<svg width="24" height="24" xmlns="http://www.w3.org/2000/svg"><path fill-rule="evenodd" clip-rule="evenodd" d="m17.55,3.84,3.6,3.6L12.56,19.27l-.73-.73-.1.02c-.22.04-.52.09-.85.14-.55.09-1.17.2-1.59.26-.15.23-.34.51-.5.75-.1.16-.2.3-.26.4l-.11.16,0,0,0,0,0,0,0,0-.42-.27.42.27-.34.51-.65-.65-1.29.86H2.56l2.29-3.44-.67-.67.52-.34.27.42c-.27-.42-.27-.42-.27-.42h0l0,0,0,0,.18-.12c.11-.07.26-.17.43-.28.24-.16.52-.33.72-.46.06-.39.16-.99.25-1.53.06-.33.11-.65.15-.87l.02-.12-.73-.73.47-.34,17.55,3.84zM7.33,14.04c-.02.09-.03.19-.05.29-.11.67-.24,1.41-.29,1.74l-.03.23-.2.12c-.2.12-.57.36-.91.58l-.09.06,2.16,2.16.03-.05c.21-.31.46-.69.63-.94l.12-.18.22-.03c.39-.06,1.14-.18,1.79-.29.09-.01.17-.03.25-.04l-3.63-3.63zm-1.75,4.25L4.44,20h1.41l.87-.58-1.13-1.13zm1.69-5.73,5.17,5.17,7.4-10.18-2.4-2.4L7.27,12.56zm4.09,1.79,6-6-.71-.71-6,6,.71.71z"/></svg>