<svg width="36" height="36" xmlns="http://www.w3.org/2000/svg"><path fill-rule="evenodd" clip-rule="evenodd" d="m10.25,9c0-2.68,1.76-4.75,4-4.75s4,2.07,4,4.75c0,2.68-1.76,4.75-4,4.75s-4-2.07-4-4.75zm4-5.75c-2.95,0-5,2.69-5,5.75,0,1.52.51,2.96,1.38,4.01-3.89,3.08-5.74,7.4-5.88,13.23l-.01.51H15v-1H5.77c.23-5.38,2.02-9.25,5.58-12.03.8.65,1.78,1.03,2.9,1.03,1.1,0,2.07-.37,2.86-1,1.63,1.19,2.77,2.57,3.56,4.08l.89-.46c-.84-1.61-2.04-3.07-3.72-4.33.89-1.06,1.41-2.5,1.41-4.04,0-3.06-2.05-5.75-5-5.75zm6.5,20c0-2.23,1.77-4,4-4s4,1.77,4,4-1.77,4-4,4-4-1.77-4-4zm4-5c-2.78,0-5,2.22-5,5,0,.27.02.53.06.78l-4.56,4.64v4.08h4.08l4.62-4.56c.26.04.52.06.8.06,2.78,0,5-2.22,5-5s-2.22-5-5-5zm-1.91,9.63c-1.24-.5-2.23-1.49-2.73-2.73l-3.87,3.93v2.67h2.67l3.92-3.87zm1.91-5.63c-.57,0-1,.43-1,1,0,.57.43,1,1,1,.57,0,1-.43,1-1,0-.57-.43-1-1-1zm-2,1c0-1.12.88-2,2-2,1.12,0,2,.88,2,2,0,1.12-.87,2-2,2-1.12,0-2-.88-2-2z"/></svg>