<svg width="24" height="24" xmlns="http://www.w3.org/2000/svg"><path fill-rule="evenodd" clip-rule="evenodd" d="m3,11.5002c0-4.69414,3.80586-8.5,8.5-8.5,4.6941,0,8.5,3.80586,8.5,8.5,0,4.6941-3.8059,8.5-8.5,8.5-4.69414,0-8.5-3.8059-8.5-8.5zm15.9854-.4712c-.0668-1.07738-.3611-2.09321-.8354-3h-1.4611c.2417.94645.3868,1.9543.4204,3h1.8761zm-2.8767,0c-.0365-1.05838-.1952-2.06716-.4547-3H12v3h4.1087zm-5.1087,0H6.89069c.03657-1.05836.19545-2.06715.45513-3H11v3zm1-4h3.3267c-.2825-.7456-.6328-1.42874-1.0374-2.03302-.1475-.22011-.3021-.42973-.4633-.62806-.5808-.18929-1.1927-.30962-1.826-.35131V7.029zm-1-3.01239V7.029H7.67327c.28023-.73904.62697-1.41672,1.02719-2.01707l.02602-.03881c.14287-.21184.29244-.41388.44813-.60539C9.75518,4.17855,10.3669,4.05829,11,4.01661zm0,8.01239v3H7.36208c-.26453-.932-.42818-1.9408-.46928-3H11zm1,3v-3h4.1066c-.041,1.0592-.2045,2.068-.4689,3H12zm-1,1H7.69541c.27908.7238.6222,1.3878,1.01694,1.9771.14711.2195.30139.4286.4622.6266.58059.1891,1.19225.3094,1.82545.3511V16.029zm1,2.9548V16.029h3.3046c-.2721.7062-.6052,1.3555-.9878,1.9339-.0199.03-.0399.0598-.06.0894-.1376.2027-.2814.3962-.4308.5802-.5807.1893-1.1926.3096-1.826.3513zm5.1073-6.9548c-.0378,1.0464-.1872,2.0543-.4333,3h1.4455c.4836-.9052.787-1.9212.8621-3h-1.8743zm-.7374,4c-.2179.623-.4797,1.212-.7805,1.7591.7267-.4736,1.3662-1.0697,1.8892-1.7591h-1.1087zM16.39,7.029h1.1319c-.5308-.71371-1.1855-1.32984-1.9322-1.81655.3099.56383.5785,1.17224.8003,1.81655zm-10.49987,4c.03366-1.04571.17892-2.05356.42077-3H4.85002c-.47434.90679-.76865,1.92262-.83546,3h1.87557zm.71978-4c.22195-.64442.49074-1.25292.80085-1.81683C6.66385,5.69892,6.00901,6.31515,5.4781,7.029h1.13181zm-.71781,5c.03783,1.0464.18743,2.0543.4337,3H4.88047c-.4836-.9052-.78695-1.9212-.86211-3H5.8921zm.73791,4H5.52136c.52314.6895,1.16281,1.2858,1.88967,1.7594-.30092-.5472-.56294-1.1363-.78102-1.7594z"/></svg>