<svg width="24" height="24" xmlns="http://www.w3.org/2000/svg"><path fill-rule="evenodd" clip-rule="evenodd" d="m7.0001,7.0097H3.9998v3.9751c-.04224.7617.36902,1.4458,1.0003,1.787v7.2081l.49927.0007,13.00003.019.5007.0007v-7.1005c.5178-.3097.891-.8484.9662-1.4941.0175-.1442.0185-.2893.0035-.4339V7.0097h-2.9697V4h-1v3.0097h-2V4h-1v3.0097h-2V4h-1v3.0097h-2V4h-1v3.0097zm11,6.174c-.086.0012-.1731-.0031-.2608-.0133-1.0929-.1266-1.8793-1.1063-1.7695-2.1975v-.2085c-.0766-.5404-.5707-.92419-1.1154-.86103l-.0007.00008c-.5856.06711-.9474.51525-.8873,1.03765.0185.1547.0186.3102-.0001.4646-.1284,1.1021-1.1248,1.8925-2.2271,1.7647-1.09-.1264-1.87693-1.1032-1.76986-2.1929-.01684-.5358-.46153-.9716-.96582-.9678l-.02035.0001-.0203-.0015c-.02933-.0021-.06517-.0025-.10805-.001-.52822.0239-.93847.4721-.91549,1.0007l.00128.0295-.00221.0296c-.07205.9615-.87253,1.9269-1.9383,1.9332V14.99h12v-1.8063zm0,2.8063h-12v1h12v-1zm0,2h-12v.9913l12,.0176V17.99zM5.78374,12.9966c-.00032,0-.00063,0-.00095-.0001l.03401-.4988-.03211.499c-.00031-.0001-.00063-.0001-.00095-.0001zM4.9998,8.0097v3.0061l-.00103.016c-.03226.5014.34865.9347.85014.9669l.0019.0002c.02224.0015.05017.0018.08763.0009l.01342-.0003.01342.0004c.44497.0138.91946-.4277.97379-.9829-.0279-1.06578.80456-1.96233,1.87401-2.00883l.00355-.00015v.00001c.06043-.0022.12855-.00268.19939.00164,1.09038.00312,1.94718.92876,1.95378,1.98693l.0002.0304-.0035.0302c-.0642.5542.3336,1.0556.8879,1.1198.5532.0642,1.0544-.3327,1.1187-.8878l.0004-.0029c.0091-.0747.0091-.1503-.0001-.2267l-.0003-.0023c-.1313-1.13306.6946-2.02432,1.7664-2.14731m.0004-.00004c1.1023-.12745,2.0988.66338,2.2266,1.76515l.0033.0287v.3248l-.0033.0286c-.0642.5545.3329,1.0556.8878,1.1198h.0001c.5532.0642,1.0544-.3327,1.1187-.8878l.0004-.0029c.0091-.0747.0091-.1503-.0001-.2267l-.0036-.0298V8.0097h-13.97"/></svg>