<svg width="36" height="36" xmlns="http://www.w3.org/2000/svg"><path fill-rule="evenodd" clip-rule="evenodd" d="m14,13.4996c0-2.6984,1.8602-4.74997,4-4.74997s4,2.05157,4,4.74997c0,2.6985-1.8602,4.75-4,4.75s-4-2.0515-4-4.75zm4-5.74997c-2.8312,0-5,2.64947-5,5.74997,0,1.4598.4808,2.8196,1.2851,3.85C10.0311,19.3002,7.75,24.5032,7.75,29.25v.5h20.5v-.5c0-4.7726-2.2842-9.9614-6.5354-11.9C22.5191,16.3196,23,14.9596,23,13.4996c0-3.1005-2.1688-5.74997-5-5.74997zm2.9787,10.37267c-.8233.7049-1.8482,1.1273-2.9787,1.1273-1.131,0-2.1563-.4228-2.9798-1.1282-3.8247,1.5511-6.10325,6.1319-6.26138,10.6286H27.2413c-.1576-4.5216-2.4401-9.0885-6.2626-10.6277z"/></svg>