<svg width="24" height="24" viewBox="0 0 24 24" fill="none" xmlns="http://www.w3.org/2000/svg">
<path fill-rule="evenodd" clip-rule="evenodd" d="M12 3C7.02944 3 3 7.02944 3 12C3 16.9706 7.02944 21 12 21C16.9706 21 21 16.9706 21 12C21 7.02944 16.9706 3 12 3ZM2 12C2 6.47715 6.47715 2 12 2C17.5228 2 22 6.47715 22 12C22 17.5228 17.5228 22 12 22C6.47715 22 2 17.5228 2 12ZM10.6009 6.44797L11.2209 6.65464L10.7981 7.28887L11.6301 7.84357L12 7.28872L12.3699 7.84357L13.202 7.28887L12.7792 6.65466L13.3992 6.44797L13.083 5.49929L12.5 5.69362V5.1228H11.5V5.69358L10.9171 5.49929L10.6009 6.44797ZM15.2209 8.29856L14.6009 8.0919L14.9171 7.14321L15.5 7.3375V6.76672H16.5V7.33754L17.083 7.14321L17.3992 8.0919L16.7792 8.29858L17.202 8.93279L16.3699 9.48749L16 8.93264L15.6301 9.48749L14.7981 8.93279L15.2209 8.29856ZM16.1009 12.0606L16.7209 12.2673L16.2981 12.9015L17.1301 13.4562L17.5 12.9014L17.8699 13.4562L18.702 12.9015L18.2792 12.2673L18.8992 12.0606L18.583 11.112L18 11.3063V10.7354H17V11.3062L16.4171 11.112L16.1009 12.0606ZM15.2209 16.2361L14.6009 16.0294L14.9171 15.0807L15.5 15.275V14.7041H16.5V15.275L17.083 15.0807L17.3992 16.0294L16.7792 16.2361L17.202 16.8703L16.3699 17.425L16 16.8701L15.6301 17.425L14.7981 16.8703L15.2209 16.2361ZM10.6009 17.6733L11.2209 17.88L10.7981 18.5142L11.6301 19.0689L12 18.5141L12.3699 19.0689L13.202 18.5142L12.7792 17.88L13.3992 17.6733L13.083 16.7246L12.5 16.919V16.348H11.5V16.9189L10.9171 16.7246L10.6009 17.6733ZM7.22091 16.2361L6.60092 16.0294L6.91715 15.0807L7.5 15.275V14.7041H8.5V15.275L9.08299 15.0807L9.39922 16.0294L8.77918 16.2361L9.20198 16.8703L8.36993 17.425L8.00004 16.8701L7.63014 17.425L6.79809 16.8703L7.22091 16.2361ZM5.10092 12.0606L5.72091 12.2673L5.29809 12.9015L6.13014 13.4562L6.50004 12.9014L6.86993 13.4562L7.70198 12.9015L7.27918 12.2673L7.89922 12.0606L7.58299 11.112L7 11.3063V10.7354H6V11.3062L5.41715 11.112L5.10092 12.0606ZM7.22091 8.29856L6.60092 8.0919L6.91715 7.14321L7.5 7.3375V6.76672H8.5V7.33754L9.08299 7.14321L9.39922 8.0919L8.77918 8.29858L9.20198 8.93279L8.36993 9.48749L8.00004 8.93264L7.63014 9.48749L6.79809 8.93279L7.22091 8.29856Z" fill="black"/>
</svg>
