<svg width="24" height="24" xmlns="http://www.w3.org/2000/svg"><path fill-rule="evenodd" clip-rule="evenodd" d="m12,6c-2.29,0-4.31,1.15-5.84,2.41C4.62,9.67,3.53,11.09,3.09,11.71l-.2.28.19.29c.39.58,1.49,1.99,3.03,3.27,1.54,1.27,3.59,2.45,5.88,2.45,2.29,0,4.32-1.15,5.84-2.41,1.53-1.26,2.63-2.68,3.07-3.3l.2-.28-.19-.29c-.39-.58-1.49-1.99-3.03-3.27-1.54-1.27-3.59-2.45-5.88-2.45zM6.75,14.78c-1.24-1.02-2.17-2.14-2.64-2.77.5-.67,1.44-1.8,2.68-2.82,1.45-1.19,3.25-2.18,5.21-2.18,1.96,0,3.78,1.02,5.25,2.22,1.24,1.02,2.17,2.14,2.64,2.77-.5.67-1.44,1.8-2.68,2.82-1.45,1.19-3.25,2.18-5.21,2.18-1.96,0-3.78-1.02-5.25-2.22zm5.25-6.78c-2.21,0-4,1.79-4,4,0,2.21,1.79,4,4,4,2.21,0,4-1.79,4-4,0-2.21-1.79-4-4-4zM9,12c0-1.66,1.34-3,3-3,1.66,0,3,1.34,3,3,0,1.66-1.34,3-3,3-1.66,0-3-1.34-3-3z"/></svg>