<svg width="24" height="24" xmlns="http://www.w3.org/2000/svg"><path fill-rule="evenodd" clip-rule="evenodd" d="m8,3.5c0-.28.22-.5.5-.5h6c.28,0,.5.22.5.5v7c0,.28-.22.5-.5.5h-6c-.28,0-.5-.22-.5-.5v-7zM8.5,2C7.67,2,7,2.67,7,3.5v7c0,.83.67,1.5,1.5,1.5H11v10h1V12h2.5c.83,0,1.5-.67,1.5-1.5v-7c0-.83-.67-1.5-1.5-1.5h-6zM10,4h2c.57,0,1.09.14,1.47.52C13.85,4.89,14,5.42,14,6c0,.58-.15,1.1-.52,1.48-.38.38-.9.52-1.48.52H11v2h-1V4zm1,3h1c.42,0,.65-.11.77-.23C12.89,6.65,13,6.42,13,6c0-.42-.11-.65-.23-.77C12.64,5.1,12.41,5,12,5h-1v2z"/></svg>