<svg width="48" height="48" fill="none" xmlns="http://www.w3.org/2000/svg"><path fill-rule="evenodd" clip-rule="evenodd" d="m34.5,15.4998c0-6.07504-4.925-11.00004-11-11.00004s-11,4.925-11,11.00004c.074,1.887.633,3.474,1.531,4.972l9.469,15.528,9.531-15.528c.887-1.554,1.453-3.17,1.469-4.972z" stroke="#000"/><path d="m17.1035,30.4998c-7.36499.859-12.60399,3.156-12.60399,5.82,0,3.387,8.46399,6.18,18.99999,6.18,10.537,0,19-2.793,19-6.18,0-2.643-5.159-4.926-12.436-5.799" stroke="#000"/><path fill-rule="evenodd" clip-rule="evenodd" d="m28.5,11.5002v8H25c-2.027,0-3.5-1.659-3.5-3.5v-1c0-2.078,1.748-3.5,3.5-3.5h3.5z" stroke="#000"/><path d="m32,13.4998h-3.5m3.5,4h-3.5m-6.6552-4h-2.345v4h2.355m-6.8548-2h4.5" stroke="#000"/></svg>