<svg width="48" height="48" xmlns="http://www.w3.org/2000/svg"><path fill-rule="evenodd" clip-rule="evenodd" d="m38,7.5c0-.83.67-1.5,1.5-1.5s1.5.67,1.5,1.5S40.33,9,39.5,9,38,8.33,38,7.5zM39.5,5C38.12,5,37,6.12,37,7.5c0,.66.25,1.26.67,1.7L30.52,19.22C30.21,19.08,29.86,19,29.5,19c-.86,0-1.61.43-2.06,1.09l-5.49-2.09c.03-.16.05-.32.05-.49,0-1.38-1.12-2.5-2.5-2.5S17,16.12,17,17.5c0,.41.1.8.27,1.14l-6.17,4.94C10.67,23.22,10.11,23,9.5,23,8.12,23,7,24.12,7,25.5S8.12,28,9.5,28c1.38,0,2.5-1.12,2.5-2.5,0-.41-.1-.8-.27-1.14l6.17-4.94c.43.36.99.58,1.6.58.86,0,1.61-.43,2.06-1.09l5.49,2.09c-.03.16-.05.32-.05.49,0,1.38,1.12,2.5,2.5,2.5s2.5-1.12,2.5-2.5c0-.66-.25-1.26-.67-1.7l7.15-10.01c.31.14.65.22,1.02.22,1.38,0,2.5-1.12,2.5-2.5S40.88,5,39.5,5zM8,25.5c0-.83.67-1.5,1.5-1.5.83,0,1.5.67,1.5,1.5S10.33,27,9.5,27c-.83,0-1.5-.67-1.5-1.5zm9,1.5h5v16h5V31h5v12h5V19h5v25H7v-9h5v8h5V27zm14,16V32h-3v11h3zm-13,0h3V28h-3v15zm-7-7v7H8v-7h3zm8.5-20c-.83,0-1.5.67-1.5,1.5s.67,1.5,1.5,1.5,1.5-.67,1.5-1.5-.67-1.5-1.5-1.5zm8.5,5.5c0-.83.67-1.5,1.5-1.5s1.5.67,1.5,1.5-.67,1.5-1.5,1.5-1.5-.67-1.5-1.5zM41,43h-3V20h3v23z"/></svg>