<svg width="24" height="24" xmlns="http://www.w3.org/2000/svg"><path fill-rule="evenodd" clip-rule="evenodd" d="m12.2834,2.98126-.2833-.19488-.2834.19488-9.60596,6.607-.599.41204.59903.4119,2.309,1.5879-2.30926,1.5882-.59904.412.59906.412,9.60597,6.606.2833.1948.2833-.1948,9.607-6.606.5992-.412-.5992-.412-2.3098-1.5881,2.3091-1.588.599-.4119-.599-.41204-9.606-6.607zm6.4144,9.62574-6.4144,4.4112-.2833.1948-.2833-.1948-6.41465-4.4113-2.02593,1.3934,8.72368,5.9992,8.7244-5.9992-2.0265-1.3933zm-6.6977,3.3924-8.72366-5.9992,8.72366-6.00012,8.7236,6.00012-8.7236,5.9992z"/></svg>