<svg width="36" height="36" xmlns="http://www.w3.org/2000/svg"><path fill-rule="evenodd" clip-rule="evenodd" d="m21.97,9.84c.74.43,1.38,1.05,1.8,1.85.48.92.66,2.04.42,3.29.79.12,1.42.52,1.86,1.08.1.12.18.25.26.39,1.46-.59,2.46-1.99,2.46-3.71,0-2.26-1.74-4-4-4-1.1,0-2.07.41-2.78,1.09zm4.68,7.55c.09.39.11.79.08,1.19-.08.9-.45,1.82-1.16,2.52-.72.7-1.75,1.15-3.06,1.15h-10.5c-1.37,0-2.42-.44-3.12-1.16-.7-.71-1.03-1.64-1.07-2.55-.04-.91.21-1.83.71-2.53.42-.58,1.01-1.02,1.76-1.17.01-2.8,2.94-4.36,5.13-3.13,1.28-2.28,3.63-2.91,5.58-2.3C21.9,8.38,23.24,7.75,24.75,7.75c2.81,0,5,2.19,5,5,0,2.13-1.26,3.91-3.1,4.64zm-10.59-4.74c1.01-2.29,3.12-2.84,4.81-2.23.85.31,1.58.91,2.01,1.73.43.81.57,1.88.19,3.15l-.2.67.7-.03c.78-.03,1.32.27,1.68.73.36.47.54,1.13.48,1.83-.06.69-.35,1.38-.87,1.88-.51.5-1.28.86-2.36.86h-10.5c-1.15,0-1.92-.36-2.41-.86-.5-.5-.75-1.18-.78-1.89-.03-.71.17-1.4.53-1.9.35-.5.86-.8,1.47-.8h.56l-.07-.56c-.3-2.47,2.36-3.74,3.99-2.4l.51.42.27-.6z"/></svg>