<svg width="24" height="24" xmlns="http://www.w3.org/2000/svg"><path fill-rule="evenodd" clip-rule="evenodd" d="m2,4h20v5h-.5c-1.42,0-2.5,1.08-2.5,2.5,0,1.42,1.08,2.5,2.5,2.5h.5v5H2V4zm1,1V18h13v-.46h1v.46h4v-3.03c-1.73-.23-3-1.66-3-3.47,0-1.81,1.27-3.23,3-3.47V5h-4v.46h-1v-.46H3zm13,2.32v-.93h1v.93h-1zm0,1.86v-.93h1v.93h-1zm0,1.86v-.93h1v.93h-1zm0,1.86v-.93h1v.93h-1zM16,14.75v-.93h1v.93h-1zm0,1.86v-.93h1v.93h-1zM9.47,6.83,9,5.55l7.55,9.5H3.6l3.01,2.46-1.62,4.32L9,19.15l3.99,2.66-1.6-4.39,3.07-2.37h-4.02l-.98-2.67zm-1.1,3.34L9,8.45l.75,2.05h1.78l-1.33,1.03.8,2.21L9,12.4,7.01,13.72l.78-2.08L6.4,10.5h1.85l.12-.33z"/></svg>