<svg width="36" height="36" xmlns="http://www.w3.org/2000/svg"><path fill-rule="evenodd" clip-rule="evenodd" d="m18,3.25c-2.35,0-4.25,1.9-4.25,4.25v.25H12v1h1.75v5H12v1h1.66l-2.83,17H7.5v1h21v-1h-3.33l-2.83-17H24v-1h-1.75V8.75H24v-1h-1.75v-.25c0-2.35-1.9-4.25-4.25-4.25zm3.25,4.5v-.25c0-1.8-1.45-3.25-3.25-3.25s-3.25,1.45-3.25,3.25v.25h6.5zm-6.5,1v5h6.5V8.75h-6.5zM11.84,31.75l2.83-17h6.65l2.83,17H11.84zm15.16-20h3v-1h-3v1zm6,0h-1.5v-1H33v1zm-5.75-3.07,5.25-3-.5-.87-5.25,3,.5.87zm4.75,9-5.25-3,.5-.87,5.25,3-.5.87zM9,10.75H6v1h3v-1zm-6,0h1.5v1H3v-1zm6.25-2.93-5.25-3-.5.87,5.25,3,.5-.87zM3.5,16.82l5.25-3,.5.87-5.25,3-.5-.87z"/></svg>