<svg width="24" height="24" xmlns="http://www.w3.org/2000/svg"><path fill-rule="evenodd" clip-rule="evenodd" d="m17.43,4.03.65-1.29-1.31.61c-.49.23-1.04.51-1.54,1.03-.42.43-.78.99-1.08,1.78-1.36-.47-3.01-.09-3.95,1.44-1.52-.72-3.43.33-3.52,2.18-.48.13-.87.43-1.14.81-.36.5-.53,1.15-.51,1.79.03.64.26,1.3.76,1.81.51.51,1.25.82,2.2.82h7c.93,0,1.67-.31,2.19-.81.51-.5.78-1.15.82-1.79.01-.1.01-.2.01-.29.67.03,1.46-.12,2.21-.41,1.08-.43,2.17-1.23,2.73-2.49l.52-1.16-1.17.5c-1.89.8-3.4.26-4.29-.74-.92-1.03-1.2-2.55-.58-3.77zm.36,7.06c.51.07,1.28-.01,2.07-.32.52-.21,1.01-.5,1.42-.9-1.67.25-3.08-.37-4.01-1.41-.86-.96-1.3-2.28-1.13-3.56-.06.05-.12.11-.18.17-.32.33-.63.81-.9,1.55.38.28.71.65.94,1.09.32.61.45,1.34.32,2.14.49.11.89.38,1.18.75.12.15.21.31.29.48zm-6.93-2.58c.64-1.44,1.95-1.77,3-1.39.53.19.98.57,1.25,1.07.26.5.36,1.17.12,1.98l-.2.67.7-.03c.47-.02.78.16.99.42.22.28.33.68.3,1.1-.03.42-.21.84-.52,1.15-.31.3-.79.53-1.49.53H8c-.73,0-1.2-.23-1.49-.52-.3-.3-.46-.71-.47-1.15-.02-.44.1-.86.32-1.17.21-.29.5-.46.85-.46h.56l-.07-.56C7.52,8.64,9.12,7.89,10.08,8.69l.51.42.27-.6z"/></svg>