<svg width="36" height="36" xmlns="http://www.w3.org/2000/svg"><path fill-rule="evenodd" clip-rule="evenodd" d="m16.51,3.25c-1.52,0-2.75,1.23-2.75,2.75l0,.36C10.34,6.95,7.75,9.92,7.75,13.5v19.25h20.5V13.5c0-3.58-2.59-6.55-6-7.14l0-.36C22.25,4.48,21.02,3.25,19.5,3.25h-2.99zm4.75,3L21.25,6.01V6c0-.97-.78-1.75-1.75-1.75h-2.99c-.97,0-1.75.78-1.75,1.75v0l0,.25c.08,0,.16,0,.25,0h6c.08,0,.17,0,.25,0zM8.75,13.5c0-3.45,2.8-6.25,6.25-6.25h6c3.45,0,6.25,2.8,6.25,6.25v18.25H8.75V13.5zm4.76,7.25c-.97,0-1.75.78-1.75,1.75H11.75v6.25h12.5V22.5h0c0-.97-.78-1.75-1.75-1.75h-8.99zm11.74,1.75h0v7.25h-14.5V22.5h.01c0-1.52,1.23-2.75,2.75-2.75h8.99c1.52,0,2.75,1.23,2.75,2.75zM19.75,23.75H13.5v-1h9v1h-1.75v1.75h-1v-1.75z"/></svg>