<svg width="48" height="48" xmlns="http://www.w3.org/2000/svg"><path fill-rule="evenodd" clip-rule="evenodd" d="m32,4.99951H16v1h3.7324l3.3333,4.99999H15.692c-3.1252,0-5.692,2.4453-5.692,5.5v19.5h5.1385l-1.1427,2H12v1h1.4244l-1.7146,3.001H10v1h28v-1h-1.7098l-1.7146-3.001H36v-1h-1.9958l-1.1427-2H38v-19.5c0-3.0547-2.5657-5.5-5.692-5.5h-7.3737l3.3333-4.99999H32v-1zm-4.9343,1L24,10.5981,20.9343,5.99951h6.1314zM20,14.0005v1h8v-1h-8zm-4,13.999c-1.1041,0-2,.8959-2,2,0,1.1054.8961,2,2,2s2-.8946,2-2c0-1.1041-.8959-2-2-2zm-1,2c0-.5518.4481-1,1-1s1,.4482,1,1c0,.5527-.4479,1-1,1s-1-.4473-1-1zm-.4239,9-1.7146,3.001h22.277l-1.7146-3.001H14.5761zm17.1337-3,1.1427,2h-17.705l1.1427-2h15.4196zm-1.7098-6c0-1.1041.8959-2,2-2s2,.8959,2,2c0,1.1054-.8961,2-2,2s-2-.8946-2-2zm2-1c-.5519,0-1,.4482-1,1,0,.5527.4479,1,1,1s1-.4473,1-1c0-.5518-.4481-1-1-1zm-21,6v-10h26v10H11zm26-11H11v-7.5c0-2.4673,2.0832-4.5,4.692-4.5h16.616c2.6097,0,4.692,2.0327,4.692,4.5v7.5zm-10.8343,5.501-1.444-1.5h1.083l1.806,2-1.806,2h-1.083l1.444-1.5h-1.715v1.5h-.902v-1.5h-1.715l1.445,1.5h-1.083l-1.806-2,1.806-2h1.083l-1.445,1.5h1.715v-1.5h.902v1.5h1.715z"/></svg>