<svg width="24" height="24" xmlns="http://www.w3.org/2000/svg"><path fill-rule="evenodd" clip-rule="evenodd" d="m6,8.01465c0-3.31414,2.68586-6,6-6,3.3131,0,6,2.6858,6,6v.00444c-.009,1.00938-.3275,1.90105-.7996,2.72921l-.0058.0101-.0062.0098-4.75,7.498-.4224.6668-.4224-.6668-4.74998-7.498-.00633-.01.00012-.0001c-.48658-.80983-.79625-1.68469-.83703-2.72385L6,8.02445v-.0098zm1.00001-.00982c.03467.84052.28155,1.5494.69159,2.23337l4.3244,6.8261,4.3213-6.8212c.41-.72188.6553-1.44253.6627-2.23065-.0012-2.76079-2.2398-4.9978-5-4.9978-2.75858,0-4.9947,2.23284-4.99999,4.99018zm5.00779-2.99799c-1.6568,0-2.99999,1.34314-2.99999,3,0,1.65685,1.34319,2.99996,2.99999,2.99996,1.6569,0,3-1.34311,3-2.99996,0-1.65686-1.3431-3-3-3zm-3.99999,3c0-2.20915,1.79086-4,3.99999-4,2.2092,0,4,1.79085,4,4,0,2.20916-1.7908,3.99996-4,3.99996-2.20913,0-3.99999-1.7908-3.99999-3.99996zM8.7455,15.178c-1.87085.2118-3.50046.6034-4.67787,1.1234-.58733.2594-1.08762.5618-1.44856.9106-.36175.3496-.61931.7831-.61931,1.2878,0,.6419.41211,1.1648.94409,1.5627.54135.4049,1.2934.7494,2.17922,1.0304,1.77746.5638,4.20579.9069,6.87673.9069,2.6713,0,5.0997-.3431,6.877-.9069.8858-.281,1.6378-.6255,2.179-1.0304.532-.3979.944-.9208.944-1.5627,0-.5008-.2538-.9317-.6112-1.2797-.3563-.347-.8503-.6481-1.43-.9066-1.1621-.5181-2.7707-.9099-4.619-1.1253l-.1157.9932c1.7897.2086,3.2901.5829,4.3275,1.0454.52.2319.8985.4749,1.1395.7097.2401.2339.3089.4226.3089.5633,0,.1801-.1169.4432-.543.7619-.4167.3118-1.0518.6145-1.8824.878-1.6554.5252-3.977.8601-6.5746.8601-2.59715,0-4.91882-.3349-6.57436-.8601-.83068-.2635-1.46588-.5663-1.88265-.878-.42615-.3187-.54303-.5818-.54303-.7619,0-.1418.06981-.3325.31421-.5687.24522-.237.62987-.4818,1.15766-.7149,1.05284-.465,2.57423-.8394,4.38638-1.0446l-.11251-.9936z"/></svg>