<svg width="36" height="36" xmlns="http://www.w3.org/2000/svg"><path fill-rule="evenodd" clip-rule="evenodd" d="m8.75,6.75c0-1.38,1.12-2.5,2.5-2.5h10.5c1.38,0,2.5,1.12,2.5,2.5V31.75H8.75V6.75zm-1,25V6.75c0-1.93,1.57-3.5,3.5-3.5h10.5c1.93,0,3.5,1.57,3.5,3.5V21.25h.25c.83,0,1.53.2,2.03.71.5.5.7,1.21.72,2.03l0,.01H28.25v1.5c0,.41.01.87.15,1.23.07.17.16.29.27.37.11.08.29.15.58.15.29,0,.47-.07.58-.15.11-.08.2-.2.27-.36.14-.35.15-.81.15-1.24V12.18l-3.63-4.36.77-.64,3.75,4.5.12.14v13.68l0,.02c0,.39.01,1.04-.22,1.6-.12.3-.31.59-.62.8-.31.22-.7.33-1.16.33-.46,0-.85-.11-1.16-.33-.31-.22-.5-.51-.62-.81-.22-.55-.22-1.19-.22-1.57l0-.03v-1.5c-.02-.68-.19-1.1-.43-1.35-.24-.25-.65-.41-1.32-.41h-.25v9.5H27v1H6v-1h1.75zm3-24h11.5V14.75h-11.5V7.75zm1,1v5h9.5V8.75h-9.5z"/></svg>