<svg width="48" height="48" xmlns="http://www.w3.org/2000/svg"><path fill-rule="evenodd" clip-rule="evenodd" d="m13.5,3c-1.18,0-2.25.23-3.06.63-.77.39-1.43,1.01-1.44,1.84l-.19,2.17c-.36.12-.71.26-1.03.41-1.38.66-2.44,1.63-2.71,2.85l-.01.03L3.05,36.05c-.03.31-.05.62-.05.94,0,5.02,3.98,9.01,9,9.01,5.02,0,9-3.98,9-9h6c0,5.02,3.98,9,9,9,5.02,0,9-3.98,9-9.01,0-.32-.02-.63-.05-.94l-2.02-25.13-.01-.03c-.27-1.22-1.33-2.19-2.71-2.85-.32-.15-.67-.29-1.03-.41l-.19-2.17c-.01-.83-.67-1.46-1.44-1.84-.81-.4-1.89-.63-3.06-.63-1.18,0-2.26.23-3.06.63C30.66,4.02,30,4.65,30,5.5v2.45c-.19.08-.38.17-.55.27-1.42.76-2.45,1.89-2.45,3.28H27V13h-6v-1.5h0c0-1.39-1.02-2.52-2.45-3.28-.18-.09-.36-.18-.55-.27V5.5c0-.85-.66-1.48-1.44-1.87-.81-.4-1.89-.63-3.06-.63zM27,14h-6v19h6V14zm0,20v2h-6v-2h6zm1,2.99c0,4.47,3.53,8.01,8,8.01,4.47,0,8-3.53,8-8.01,0-.21-.01-.43-.02-.63l0,0-.02-.21c-.41-4.06-3.77-7.15-7.96-7.15-4.47,0-8,3.52-8,8zm0-4.17V11.5h0c0-.85.63-1.71,1.92-2.4,1.26-.67,3.06-1.1,5.09-1.1,1.88,0,3.55.37,4.79.96,1.24.59,1.97,1.36,2.15,2.13l1.69,21.11c-1.58-2.53-4.39-4.19-7.64-4.19-3.51,0-6.51,1.94-8,4.83zM38,5.54l.16,1.81c-.97-.23-2.04-.35-3.16-.35-1.46,0-2.82.21-4,.58V5.5c0-.27.22-.64.89-.97.64-.32,1.56-.53,2.61-.53,1.06,0,1.98.21,2.61.53.66.33.89.7.89.97v.02l0,.02zM20,11.5c0-.85-.63-1.71-1.92-2.4-1.26-.67-3.06-1.1-5.09-1.1-1.88,0-3.55.37-4.79.96-1.24.59-1.97,1.36-2.15,2.13L4.36,32.19c1.58-2.53,4.39-4.19,7.64-4.19,3.51,0,6.51,1.94,8,4.83v-21.33h0zM20,36.99c0-4.47-3.53-8-8-8-4.18,0-7.54,3.09-7.96,7.15l-.02.21,0,0C4.01,36.57,4,36.78,4,36.99c0,4.47,3.53,8.01,8,8.01,4.47,0,8-3.53,8-8.01zM13,7c-1.12,0-2.19.12-3.16.35l.16-1.83V5.5c0-.27.22-.64.89-.97.64-.32,1.56-.53,2.61-.53,1.06,0,1.98.21,2.61.53.66.33.89.7.89.97v2.08c-1.18-.37-2.54-.58-4-.58zM36,31c-3.35,0-6,2.64-6,6,0,3.36,2.65,6,6,6,3.35,0,6-2.65,6-6,0-3.35-2.65-6-6-6zM29,37c0-3.91,3.1-7,7-7,3.9,0,7,3.09,7,7,0,3.91-3.1,7-7,7-3.9,0-7-3.1-7-7zm7-4c-2.24,0-4,1.76-4,4h-1c0-2.79,2.21-5,5-5v1zm-24-2c-3.35,0-6,2.64-6,6,0,3.36,2.65,6,6,6,3.35,0,6-2.65,6-6,0-3.35-2.65-6-6-6zM5,37c0-3.91,3.1-7,7-7,3.9,0,7,3.09,7,7,0,3.91-3.1,7-7,7-3.9,0-7-3.1-7-7zm3,0c0-2.24,1.76-4,4-4v-1c-2.79,0-5,2.21-5,5h1z"/></svg>