<svg width="24" height="24" xmlns="http://www.w3.org/2000/svg"><path fill-rule="evenodd" clip-rule="evenodd" d="m4.99951,5.50024c0-.27653.22382-.5.5-.5.27619,0,.5.22347.5.5,0,.27586-.22414.5-.5.5s-.5-.22414-.5-.5zm.5-1.5c-.82781,0-1.5.67054-1.5,1.5,0,.82815.67186,1.5,1.5,1.5s1.5-.67185,1.5-1.5c0-.82946-.67218-1.5-1.5-1.5zm-2,3.99952h-.5v6.00004h1v6h3v-6h1V7.99976h-4.5zm1,5.00004h-.5V8.99976h3v4.00004h-1v6h-1v-6h-.5zm12.50049,6v-3h1v3h-1zm-1,.5v-3.5h-2.1629l.1821-.6374,2-7,.1036-.36264h2.7544l.1036.36264,2,7,.1821.6374H19v4h-3v-.5zm1-13.99956c0-.27653.2238-.5.5-.5.2769,0,.5.22315.5.5,0,.27619-.2235.5-.5.5-.2759,0-.5-.22414-.5-.5zm.5-1.5c-.8278,0-1.5.67054-1.5,1.5,0,.82815.6719,1.5,1.5,1.5.8295,0,1.5-.67218,1.5-1.5,0-.82914-.6709-1.5-1.5-1.5zm-.6228,4.99952-1.7143,6.00004h4.6742l-1.7143-6.00004h-1.2456zM11,4.00024V20.0002h1V4.00024h-1z"/></svg>