<svg width="36" height="36" xmlns="http://www.w3.org/2000/svg"><path fill-rule="evenodd" clip-rule="evenodd" d="m14.62,16.09,6.43-7.05c.18-.18.43-.29.7-.29.55,0,1,.45,1,1,0,.12-.02.24-.06.34l-2.16,5.48-.27.68H26.25c.55,0,1,.45,1,1,0,.55-.45,1-1,1H24v1h2.25c.55,0,1,.45,1,1,0,.55-.45,1-1,1v0H24v1h2.25v0c.55,0,1,.45,1,1,0,.55-.45,1-1,1h-1.5v0H24v1h.75v0c.55,0,1,.45,1,1,0,.55-.45,1-1,1v.5l0-.5H17.25c-1.09,0-2.08-.18-2.79-.74-.68-.53-1.2-1.48-1.21-3.24v-7.03h1.22l.15-.16zm-2.37-.84v0h1.78l6.29-6.9.01-.01c.36-.36.86-.59,1.42-.59,1.11,0,2,.9,2,2,0,.24-.04.48-.13.7l0,.01h0l-1.89,4.8H26.25c1.11,0,2,.9,2,2,0,.6-.26,1.13-.68,1.5.42.37.68.9.68,1.5,0,.6-.26,1.13-.68,1.5.42.37.68.9.68,1.5,0,1.03-.78,1.88-1.78,1.99.17.3.28.64.28,1.01,0,1.1-.9,2-2,2v-.5l0,.5H17.25c-1.17,0-2.43-.19-3.41-.95-.22-.17-.42-.36-.59-.59v1.55H7.75v-13.01H12.25zm0,1H8.75v11.01H12.25v-3.99-.03-7z"/></svg>