<svg width="24" height="24" xmlns="http://www.w3.org/2000/svg"><path fill-rule="evenodd" clip-rule="evenodd" d="m10,8c0-1.21.77-2,1.5-2s1.5.79,1.5,2-.77,2-1.5,2S10,9.21,10,8zm1.5-3C10.02,5,9,6.45,9,8c0,.69.2,1.36.56,1.89-.34.34-.64.77-.87,1.26-.08-.09-.16-.18-.24-.26C8.8,10.36,9,9.69,9,9,9,7.45,7.98,6,6.5,6S4,7.45,4,9c0,.69.2,1.36.56,1.89-.89.89-1.46,2.35-1.54,3.96-.04.03-.08.06-.12.09C2.39,15.34,2,15.87,2,16.5s.39,1.16.9,1.56c.52.41,1.24.75,2.08,1.04C6.67,19.66,8.98,20,11.5,20c2.52,0,4.83-.34,6.52-.9.84-.28,1.56-.63,2.08-1.04.51-.4.9-.93.9-1.56s-.39-1.16-.9-1.56c-.04-.03-.08-.06-.12-.09-.08-1.62-.65-3.08-1.54-3.97C18.8,10.35,19,9.69,19,9c0-1.55-1.02-3-2.5-3S14,7.45,14,9c0,.69.2,1.35.55,1.88-.08.08-.16.17-.24.26-.24-.49-.53-.91-.87-1.26C13.8,9.36,14,8.69,14,8c0-1.55-1.02-3-2.5-3zm3.24,7.29c.08.3.14.61.18.93,1.16.16,2.22.39,3.1.68.32.11.62.22.9.35-.17-1.15-.61-2.08-1.17-2.65-.36.25-.78.4-1.25.4-.47,0-.89-.15-1.25-.4-.18.19-.36.42-.51.68zM4.08,14.25c.28-.12.58-.24.9-.35.89-.3,1.94-.53,3.1-.68.04-.32.1-.63.18-.93-.16-.27-.33-.5-.51-.68C7.39,11.85,6.97,12,6.5,12c-.47,0-.89-.15-1.25-.39-.56.56-1,1.5-1.17,2.65zm5.03-1.15C9.87,13.04,10.68,13,11.5,13s1.63.04,2.39.1c-.18-1.08-.61-1.96-1.15-2.5C12.39,10.86,11.97,11,11.5,11s-.89-.14-1.24-.39c-.53.54-.96,1.41-1.15,2.5zM3,16.5c0-.2.12-.46.52-.78.39-.31.99-.61,1.78-.87C6.86,14.33,9.05,14,11.5,14c2.45,0,4.64.33,6.21.85.79.26,1.38.56,1.78.87.4.31.52.58.52.78s-.12.46-.52.78c-.39.31-.99.61-1.78.87-1.57.52-3.76.85-6.21.85-2.45,0-4.64-.33-6.21-.85-.79-.26-1.38-.56-1.78-.87C3.12,16.96,3,16.7,3,16.5zM15,9c0-1.21.77-2,1.5-2s1.5.79,1.5,2-.77,2-1.5,2S15,10.21,15,9zM6.5,7C5.77,7,5,7.79,5,9s.77,2,1.5,2S8,10.21,8,9,7.23,7,6.5,7z"/></svg>