<svg width="24" height="24" xmlns="http://www.w3.org/2000/svg"><path fill-rule="evenodd" clip-rule="evenodd" d="m2,4h20v5h-.5c-1.42,0-2.5,1.08-2.5,2.5,0,1.42,1.08,2.5,2.5,2.5h.5v5H2V4zm1,1v2h5.28l1.99,3.01H12c1.1,0,2,.89,2,1.99v3h-2.27c-.35.6-.99,1-1.73,1-.74,0-1.39-.4-1.73-1H4.73C4.39,15.6,3.74,16,3,16v2h13v-.46h1v.46h4v-3.03c-1.73-.23-3-1.66-3-3.47,0-1.81,1.27-3.23,3-3.47V5h-4v.46h-1v-.46H3zM3,12V8h4.74l1.99,3.01H12c.55,0,1,.45,1,1v1.99h-1v0c0-1.1-.89-2-2-2-1.11,0-2,.9-2,2H5C5,12.9,4.11,12,3,12zm1,2c0,.55-.45,1-1,1v-2c.55,0,1,.45,1,1zm5,0c0-.55.45-1,1-1,.55,0,1,.45,1,1,0,.55-.45,1-1,1-.55,0-1-.45-1-1zM6.74,10H6v-1h1.27l1.14,1.73-.83.55-.85-1.28zM16,6.39v.93h1v-.93h-1zm0,1.86v.93h1v-.93h-1zm0,1.86v.93h1v-.93h-1zm0,1.86v.93h1v-.93h-1zm0,1.86v.93h1v-.93h-1zM16,15.68v.93h1v-.93h-1z"/></svg>