<svg width="48" height="48" xmlns="http://www.w3.org/2000/svg"><path fill-rule="evenodd" clip-rule="evenodd" d="m33,12h-7v1h6l-3.75,5H18.1587l-.1243.3178-1.5898,4.0626C15.6741,22.1334,14.8526,22,14,22c-4.41814,0-8,3.5819-8,8,0,4.4192,3.5819,8,8,8s8-3.5808,8-8c0-3.2119-1.893-5.9819-4.6242-7.2549L18.8413,19h9.3436l1.919,4.0118C27.6561,24.3798,26.001,26.9967,26.001,30c0,4.4192,3.5819,8,8,8,4.4191,0,8-3.5809,8-8,0-4.4181-3.5808-8-8-8-1.0591,0-2.0701.2058-2.9953.5796l-1.9239-4.022,34,12h-1zm-5.999,18c0-2.6055,1.4237-4.8787,3.5355-6.0839l3.0134,6.2997.9022-.4316-3.0138-6.3002c.7937-.3124,1.6581-.484,2.5627-.484,3.8668,0,7,3.1341,7,7,0,3.8669-3.1332,7-7,7-3.8659,0-7-3.1332-7-7zm-10.9217-6.686-2.5449,6.5038.9312.3644,2.5449-6.5035C19.3697,24.8043,21,27.2119,21,30c0,3.8668-3.1341,7-7,7s-7-3.1332-7-7c0-3.8659,3.1341-7,7-7,.724,0,1.4224.1099,2.0793.314zM15,15h5v-1h-5v1z"/></svg>