<svg width="36" height="36" xmlns="http://www.w3.org/2000/svg"><path fill-rule="evenodd" clip-rule="evenodd" d="m23.76,11.69c-.42-.8-1.05-1.43-1.8-1.85C22.68,9.16,23.65,8.75,24.75,8.75c2.26,0,4,1.74,4,4,0,1.7-.98,3.09-2.41,3.69-.08-.13-.17-.26-.27-.38-.46-.56-1.1-.95-1.89-1.07.25-1.25.07-2.37-.42-3.29zm3.08,6.88c.02-.41-.01-.82-.12-1.21,1.8-.75,3.03-2.51,3.03-4.61,0-2.81-2.19-5-5-5-1.51,0-2.85.63-3.76,1.66-1.96-.61-4.3.02-5.58,2.3-2.19-1.23-5.13.33-5.13,3.13-.74.14-1.34.59-1.76,1.17-.5.7-.75,1.62-.71,2.53.04.91.37,1.84,1.07,2.55.71.71,1.75,1.16,3.12,1.16h10.5c1.38,0,2.45-.44,3.19-1.14.73-.7,1.1-1.62,1.15-2.53zm-5.97-8.15c-1.69-.61-3.8-.06-4.81,2.23l-.27.6-.51-.42c-1.63-1.33-4.28-.07-3.99,2.4l.07.56h-.56c-.62,0-1.12.3-1.47.8-.36.5-.56,1.2-.53,1.9.03.7.29,1.38.78,1.89.49.5,1.26.86,2.41.86h10.5c1.16,0,1.97-.37,2.49-.87.53-.51.81-1.19.85-1.87.04-.69-.16-1.35-.55-1.83-.38-.46-.95-.77-1.73-.74l-.7.03.2-.67c.38-1.27.23-2.34-.19-3.15-.43-.82-1.16-1.42-2.01-1.73zM23,24.75c0-.14.11-.25.25-.25.14,0,.25.11.25.25s-.11.25-.25.25c-.14,0-.25-.11-.25-.25zm.25-1.25c-.69,0-1.25.56-1.25,1.25S22.56,26,23.25,26s1.25-.56,1.25-1.25-.56-1.25-1.25-1.25zm-6,1c-.14,0-.25.11-.25.25s.11.25.25.25.25-.11.25-.25-.11-.25-.25-.25zm-1.25.25c0-.69.56-1.25,1.25-1.25s1.25.56,1.25,1.25S17.94,26,17.25,26,16,25.44,16,24.75zm-5,0c0-.14.11-.25.25-.25s.25.11.25.25-.11.25-.25.25-.25-.11-.25-.25zm.25-1.25c-.69,0-1.25.56-1.25,1.25S10.56,26,11.25,26s1.25-.56,1.25-1.25-.56-1.25-1.25-1.25zm9,4c-.14,0-.25.11-.25.25s.11.25.25.25.25-.11.25-.25-.11-.25-.25-.25zm-1.25.25c0-.69.56-1.25,1.25-1.25s1.25.56,1.25,1.25S20.94,29,20.25,29,19,28.44,19,27.75zm-5,0c0-.14.11-.25.25-.25s.25.11.25.25-.11.25-.25.25-.25-.11-.25-.25zm.25-1.25c-.69,0-1.25.56-1.25,1.25S13.56,29,14.25,29s1.25-.56,1.25-1.25-.56-1.25-1.25-1.25z"/></svg>