<svg width="36" height="36" xmlns="http://www.w3.org/2000/svg"><path fill-rule="evenodd" clip-rule="evenodd" d="m18.4926,4.25051C10.589,4.236,4.26445,10.3981,4.25,18.0015l-1-.0019c.01555-8.18268,6.816-14.76457,15.2444-14.74908,5.5138.01008,10.5614,2.80605,13.2556,7.40338V6.00049h1v7.25001H25.5v-1h5.9601c-.018-.0399-.0365-.0796-.0553-.1191-2.3327-4.84691-7.3511-7.87071-12.9122-7.88089zM31.75,17.9985c-.0304,7.6167-6.3065,13.781-14.1862,13.752-5.4999-.0203-10.62722-3.183-12.97002-7.9904l-.0049-.0103H10.5v-1H3.25v7.25h1v-4.7711c2.70968,4.575,7.8423,7.5016,13.3102,7.5218,8.4133.031,15.1572-6.5608,15.1898-14.748l-1-.004zm-18.0413.5784v.0705h-1.0965l-.5445,1.2525h1.7535c.588,3.7665,2.403,5.649,5.4451,5.649,1.2915,0,2.4405-.249,3.444-.747.0705-.0345.258-.1395.5655-.3135v-2.0115c-1.0951.5925-1.8661.969-2.3175,1.1325-.45.1605-.966.2415-1.5481.2415-.7034,0-1.3095-.162-1.8149-.4845-.486-.3105-.903-.8175-1.2511-1.5255-.288-.6-.492-1.2465-.615-1.941h4.7986l.5625-1.2525h-5.5051l-.0001-.0044c-.0059-.1928-.0104-.3368-.0104-.4306,0-.1875.0075-.468.021-.8385h6.0496l.564-1.2525h-6.4396c.0615-.384.168-.801.318-1.2525.6015-1.8255,1.6846-2.7375,3.2506-2.7375.8534,0,1.6904.2325,2.511.6975.3375.195.8115.495,1.4265.8985l.7275-1.6365c-1.386-1.071-2.9325-1.6065-4.6351-1.6065-2.4119,0-4.074,1.242-4.983,3.7275-.219.5925-.3855,1.23-.5025,1.9095h-1.2705l-.5445,1.2525h1.6725l-.0105.072c-.015.3765-.021.615-.021.717v.414z"/></svg>