<svg width="24" height="24" xmlns="http://www.w3.org/2000/svg"><path fill-rule="evenodd" clip-rule="evenodd" d="m16.5,3c-.73,0-1.5.79-1.5,2,0,1.21.77,2,1.5,2,.73,0,1.5-.79,1.5-2s-.77-2-1.5-2zm-2.5,2c0-1.55,1.02-3,2.5-3,1.48,0,2.5,1.45,2.5,3,0,.61-.16,1.21-.45,1.71,1.5,1.1,2.45,3.33,2.45,5.79v.5H12v-.5c0-2.46.95-4.69,2.45-5.79-.29-.5-.45-1.1-.45-1.71zm2.5,3c.54,0,1.02-.19,1.41-.52,1.1.77,1.95,2.44,2.07,4.52h-6.97c.12-2.07.98-3.74,2.07-4.52.39.32.87.52,1.41.52zM3.5,2h-.5v7h9v-2.92l1.24-1.05-1.24-1.24v-1.79H3.5zm.5,6v-5h7v1.21l.76.76-.76.65v2.38H4zm6-4.02h-5.02v1h5.02v-1zm-5.02,2h3.02v1h-3.02v-1zM12,20.5c0-2.46-.95-4.69-2.45-5.79C9.84,14.21,10,13.61,10,13c0-1.55-1.02-3-2.5-3s-2.5,1.45-2.5,3c0,.61.16,1.21.45,1.71C3.95,15.81,3,18.04,3,20.5v.5h9v-.5zm-1.01-.5c-.12-2.07-.98-3.74-2.07-4.52-.39.32-.87.52-1.41.52-.54,0-1.02-.19-1.41-.52-1.1.77-1.95,2.44-2.07,4.52h6.97zM7.5,11c-.73,0-1.5.79-1.5,2,0,1.21.77,2,1.5,2s1.5-.79,1.5-2c0-1.21-.77-2-1.5-2zM18,9.69l-1-.94h.75L19,10l-1.25,1.25H17l1-.94h-1.19v.94h-.63v-.94H15l1,.94h-.75l-1.25-1.25,1.25-1.25H16l-1,.94h1.19v-.94h.63v.94H18z"/></svg>