<svg width="24" height="24" xmlns="http://www.w3.org/2000/svg"><path fill-rule="evenodd" clip-rule="evenodd" d="m14.92,6.54c.44.29.81.69,1.07,1.18.32.61.45,1.34.32,2.14.49.11.89.38,1.18.75.04.05.07.1.11.15C18.44,10.37,19,9.52,19,8.5,19,7.09,17.91,6,16.5,6c-.61,0-1.15.2-1.58.54zm3.03,5.16c.04.23.05.47.03.71-.05.64-.32,1.29-.83,1.78-.51.5-1.24.81-2.16.81H8c-.95,0-1.69-.31-2.2-.82-.5-.51-.74-1.17-.76-1.81-.03-.64.15-1.29.51-1.79.27-.38.66-.69,1.14-.81.09-1.85,2.01-2.9,3.52-2.18.89-1.44,2.42-1.87,3.73-1.5C14.58,5.41,15.48,5,16.5,5,18.47,5,20,6.53,20,8.5c0,1.44-.82,2.65-2.05,3.2zm-7.1-3.19c.64-1.44,1.95-1.77,3-1.39.53.19.98.57,1.25,1.07.26.5.36,1.17.12,1.98l-.2.67.7-.03c.46-.02.78.16.98.42.21.27.32.67.29,1.1-.04.42-.21.84-.53,1.15-.31.3-.78.53-1.46.53H8c-.73,0-1.2-.23-1.49-.52-.3-.3-.46-.71-.47-1.15-.02-.44.1-.86.32-1.17.21-.29.5-.46.85-.46h.56l-.07-.56c-.18-1.5,1.42-2.25,2.39-1.45l.51.42.27-.6z"/></svg>