<svg width="24" height="24" xmlns="http://www.w3.org/2000/svg"><path fill-rule="evenodd" clip-rule="evenodd" d="m17.4909,10.6079c-.2868-.3698-.6871-.63915-1.1785-.75148.1249-.80449-.0042-1.53195-.3225-2.1397-.3907-.74606-1.0493-1.27875-1.7943-1.549-1.3626-.49427-3.0417-.11585-3.9872,1.42244-1.51595-.71889-3.43069.3254-3.52268,2.17629-.48121.1281-.86968.43135-1.14398.81475-.36009.5033-.53437,1.1536-.50666,1.7908.02787.6407.26203,1.3032.76361,1.8086.40722.4103.96351.6896,1.65985.7842l-.40576.8115.44721.2236c-.44721-.2236-.44723-.2235-.44726-.2235l-.00006.0001-.00016.0004-.00045.0009-.00143.0028-.00493.01-.01747.0359c-.01477.0306-.03555.0743-.06034.128-.0494.107-.11558.2558-.18214.4222-.06613.1654-.1352.3544-.18839.5406-.05102.1785-.09737.3878-.09737.5826,0,.5522.44786,1,1,1,.55215,0,1-.4478,1-1,0-.1948-.04634-.4041-.09736-.5826-.05319-.1862-.12226-.3752-.1884-.5406-.06656-.1664-.13273-.3152-.18213-.4222-.02479-.0537-.04557-.0974-.06035-.128l-.01747-.0359-.00492-.01-.00144-.0028-.00045-.0009-.00015-.0004-.00006-.0001c-.00003,0-.00005-.0001-.44727.2235l.44722-.2236-.40031-.8006c.14522.0162.29632.0245.45321.0245h3.44069l-.388.7761.4472.2236c-.4472-.2236-.4472-.2235-.4473-.2235v.0001l-.0002.0004-.0004.0009-.0015.0028-.0049.01-.0175.0359c-.0147.0306-.0355.0743-.0603.128-.0494.107-.1156.2558-.1821.4222-.0662.1654-.1352.3544-.1884.5406-.0511.1785-.0974.3878-.0974.5826,0,.5522.4479,1,1,1s1-.4478,1-1c0-.1948-.0464-.4041-.0974-.5826-.0532-.1862-.1222-.3752-.1884-.5406-.0665-.1664-.1327-.3152-.1821-.4222-.0248-.0537-.0456-.0974-.0603-.128l-.0175-.0359-.0049-.01-.0015-.0028-.0004-.0009-.0002-.0004v-.0001c-.0001,0-.0001-.0001-.4473.2235l.4472-.2236-.388-.7761h3.4409c.1569,0,.3083-.009.454-.0266l-.4013.8027.4472.2236c-.4472-.2236-.4472-.2235-.4473-.2235v.0001l-.0002.0004-.0004.0009-.0015.0028-.0049.01-.0175.0359c-.0147.0306-.0355.0743-.0603.128-.0494.107-.1156.2558-.1821.4222-.0662.1654-.1352.3544-.1884.5406-.0511.1785-.0974.3878-.0974.5826,0,.5522.4479,1,1,1s1-.4478,1-1c0-.1948-.0464-.4041-.0974-.5826-.0532-.1862-.1222-.3752-.1884-.5406-.0665-.1664-.1327-.3152-.1821-.4222-.0248-.0537-.0456-.0974-.0603-.128l-.0175-.0359-.0049-.01-.0015-.0028-.0004-.0009-.0002-.0004v-.0001c-.0001,0-.0001-.0001-.4473.2235l.4472-.2236-.4071-.8141c.669-.0974,1.214-.3764,1.6216-.7746.5061-.4943.773-1.1455.8254-1.784.052-.6351-.1059-1.2926-.4962-1.7957zm-6.6333-2.10583c.6352-1.43991,1.9488-1.77452,2.997-1.39429.53.19224.9839.5658,1.2494,1.07287.2624.50088.3582,1.16523.1168,1.97715l-.1992.67.6985-.028c.4648-.0185.7786.1605.9807.421.2132.2749.3247.6737.2896,1.1011-.0348.4239-.2114.8416-.5275,1.1504-.3097.3026-.7811.5279-1.4628.5279H8.00011c-.72952,0-1.19927-.2295-1.49165-.524-.29859-.3009-.45543-.7134-.47432-1.1477-.01904-.4378.10418-.8625.3209-1.1655.21058-.2943.4969-.4628.84507-.4628h.56329l-.06682-.5593c-.17941-1.50176,1.41934-2.24619,2.38672-1.45384l.5088.41675.2655-.60174zm2.1951,9.27433c.0001,0,.0001-.0001.4473.2235.4472-.2236.4472-.2235.4473-.2235v.0001l.0002.0004.0004.0009.0015.0028.0049.01.0175.0359c.0147.0306.0355.0743.0603.128.0494.107.1156.2558.1821.4222.0662.1654.1352.3544.1884.5406.051.1785.0974.3878.0974.5826,0,.5522-.4479,1-1,1s-1-.4478-1-1c0-.1948.0463-.4041.0974-.5826.0532-.1862.1222-.3752.1884-.5406.0665-.1664.1327-.3152.1821-.4222.0248-.0537.0456-.0974.0603-.128l.0175-.0359.0049-.01.0015-.0028.0004-.0009.0002-.0004v-.0001zM13.5,17.9999l-.4472-.2236.4472-.8944.4472.8944-.4472.2236zm-4.44722-.2236.44721.2236c-.44721-.2236-.44723-.2235-.44726-.2235l-.00006.0001-.00016.0004-.00045.0009-.00143.0028-.00493.01-.01747.0359c-.01477.0306-.03555.0743-.06034.128-.0494.107-.11558.2558-.18214.4222-.06613.1654-.1352.3544-.18839.5406-.05102.1785-.09737.3878-.09737.5826,0,.5522.44786,1,1,1,.55211,0,1.00001-.4478,1.00001-1,0-.1948-.0464-.4041-.0974-.5826-.0532-.1862-.1222-.3752-.1884-.5406-.0665-.1664-.1327-.3152-.1821-.4222-.0248-.0537-.04557-.0974-.06035-.128l-.01747-.0359-.00492-.01-.00144-.0028-.00045-.0009-.00015-.0004-.00006-.0001c-.00003,0-.00005-.0001-.44727.2235l.44722-.2236-.44722-.8944-.44721.8944z"/></svg>