<svg width="48" height="48" fill="none" xmlns="http://www.w3.org/2000/svg"><path d="m21.876,31.248,5.498,2.97c.898.485,2.027.147,2.512-.749.484-.898.149-2.04-.747-2.525m-4.4779-2.4196,7.314,3.952c.897.485,2.027.148,2.512-.749s.13-2.014-.766-2.498m-6.1528-3.3241,7.749,4.187c.897.485,2.027.148,2.512-.749s.147-2.027-.749-2.512l-10.318-5.574-6.862,3.393c-2.441,1.222-4.75-1.39-2.9-3.6,4.466-4.872,8.131-9.484,12.099-8.2l8,2.499,5.401-2.999v13.7l-4.455,2.474M25.004,32.9375c.897.484,1.225,1.622.739,2.52-.484.896-1.614,1.233-2.511.749L4.5,26.6355v-14.748l5.4,3,7.803-2.453c2.252-.562,4.448.214,6.165,1.72" stroke="#000"/></svg>