<svg width="36" height="36" xmlns="http://www.w3.org/2000/svg"><path fill-rule="evenodd" clip-rule="evenodd" d="m18,4.25C10.4061,4.25,4.25,10.4061,4.25,18S10.4061,31.75,18,31.75,31.75,25.5939,31.75,18,25.5939,4.25,18,4.25zM3.25,18C3.25,9.8538,9.8538,3.25,18,3.25S32.75,9.8538,32.75,18,26.1462,32.75,18,32.75,3.25,26.1462,3.25,18zm12.7301-8.56513,1.2405.41349-.8158,1.22364.832.5547.7629-1.1443.7628,1.1443.8321-.5547-.8158-1.22361,1.2406-.41352-.3162-.94869L18.5,8.88725V7.68416h-1v1.20326l-1.2037-.40124-.3162.94869zm7.2405,2.87933-1.2405-.4135.3162-.9487,1.2037.4013V10.15h1v1.2031l1.2032-.4011.3162.9487-1.2406.4135.8158,1.2237-.8321.5547-.7628-1.1443-.7629,1.1443-.832-.5547.8158-1.2237zm1.0095,5.5396,1.2405.4135-.8158,1.2237.832.5547.7629-1.1443.7629,1.1443.832-.5547-.8158-1.2237,1.2406-.4135-.3162-.9487-1.2032.4011v-1.2031h-1v1.2033l-1.2037-.4013-.3162.9487zm-1.0095,6.3666-1.2405-.4135.3162-.9487,1.2037.4013v-1.2033h1v1.2031l1.2032-.4011.3162.9487-1.2406.4135.8158,1.2237-.8321.5547-.7628-1.1443-.7629,1.1443-.832-.5547.8158-1.2237zM15.9801,26.2728l1.2405.4135-.8158,1.2236.832.5547.7629-1.1443.7628,1.1443.8321-.5547-.8158-1.2236,1.2406-.4135-.3162-.9487-1.2032.4011v-1.2031h-1v1.2032l-1.2037-.4012-.3162.9487zm-4.7595-2.0524-1.24053-.4135.31623-.9487,1.2037.4013v-1.2033h1v1.2031l1.2032-.4011.3162.9487-1.2406.4135.8158,1.2237-.8321.5547-.7628-1.1443-.7629,1.1443-.832-.5547.8158-1.2237zm-3.49053-6.3666,1.24048.4135-.81577,1.2237.83205.5547.76286-1.1443.76281,1.1443.8321-.5547-.8158-1.2237,1.2406-.4135-.3162-.9487-1.2032.4011v-1.2031h-1v1.2033l-1.2037-.4013-.31623.9487zm3.49053-5.5396-1.24053-.4135.31623-.9487,1.2037.4013V10.15h1v1.2031l1.2032-.4011.3162.9487-1.2406.4135.8158,1.2237-.8321.5547-.7628-1.1443-.7629,1.1443-.832-.5547.8158-1.2237z"/></svg>