<svg width="24" height="24" xmlns="http://www.w3.org/2000/svg"><path fill-rule="evenodd" clip-rule="evenodd" d="m7.77929,2.69652c.8141-.47072,1.8068-.05394,2.25571.72293l.0001.0001,1.7569,3.0419c.0001.00003.0001.00007.0001.0001.4497.77837.3112,1.84611-.5033,2.31526,0,.00004-.0001.00008-.0002.00012L9.3373,9.90482c.00002.00656.00114.01596.00539.02778l.00009.00025c.35868,1.00025.83292,2.03195,1.42522,3.05855M7.77929,2.69652c-.00022.00012-.00043.00025-.00065.00037l.00065-.00037zm-.00065.00037-1.70792.98231h-.00001l-.00123.00071c-.13383.07749-.22862.17396-.29351.24735-1.09835.98864-1.42571,2.75356-1.21636,4.70361.21437,1.99683,1.00186,4.33103,2.31647,6.60873h.00005c1.31465,2.2768,2.94229,4.1256,4.56447,5.3095,1.5847,1.1566,3.2777,1.7556,4.6831,1.2977.1069-.0227.2358-.0611.3653-.1372l1.7-.9809.0033-.0019c.7959-.4674.9514-1.5297.4989-2.314v-.0001l-1.756-3.0419c-.4498-.7797-1.443-1.1923-2.2559-.7233h-.0001l-1.9528,1.1268c-.0057-.0033-.0134-.0091-.0218-.019-.6862-.8096-1.3431-1.737-1.9365-2.7638M9.16916,3.9197c-.24095-.41683-.66379-.48802-.88955-.35734l-.0012.00069-1.70789.98229-.00008.00004c-.00009.00005-.0002.00012-.00035.0002-.00273.00163-.0165.01076-.05875.05993l-.02279.02652-.02626.02308c-.74482.65492-1.10866,2.00361-.9084,3.86902.19688,1.83387.9299,4.03527,2.18828,6.21557,1.25834,2.1792,2.79823,3.9144,4.28793,5.0017,1.5155,1.106,2.8655,1.4652,3.8049,1.1476l.0327-.0111.0339-.0064c.0542-.0104.0738-.02.0808-.0241l.0048-.0029h.0001l1.6986-.98c.0005-.0003.0009-.0006.0014-.0008.2251-.1335.3747-.5404.1377-.9512l-1.7559-3.0419-.0001-.0001c-.2402-.4163-.6629-.4878-.89-.3568l-1.9728,1.1383c-.0002.0001-.0004.0003-.0006.0004-.4415.2559-.9652.1012-1.2636-.2501l-.0003-.0004c-.7258-.8563-1.4169-1.8329-2.03947-2.9101l-.00018-.0003c-.62156-1.0772-1.12121-2.1632-1.50049-3.2209m.7676-6.3509c.00002.00003.00004.00007.00006.0001l-.00006-.0001zm.00006.0001,1.75698,3.0419v.0001c.2402.41556.0907.81764-.1366.94852l-.0007.00042L8.81635,9.05091c-.00028.00016-.00056.00032-.00083.00048-.44047.25323-.56975.78517-.41405,1.21901"/></svg>