<svg width="24" height="24" xmlns="http://www.w3.org/2000/svg"><path fill-rule="evenodd" clip-rule="evenodd" d="m18.69,4.84c-2.97-1.21-4.81-1.85-6.67-1.85-1.86.01-3.71.66-6.7,1.85L5,4.96V19h5v-2.99h4v2.99h5V4.96l-.31-.13zM6,18V5.64c2.83-1.12,4.44-1.65,6.02-1.65,1.58,0,3.17.51,5.98,1.65V18h-3v-2.99H9v2.99H6zm6-12c-1.68,0-3,1.32-3,3,0,1.68,1.32,3,3,3s3-1.32,3-3c0-1.68-1.32-3-3-3zm-4,3c0-2.23,1.77-4,4-4,2.23,0,4,1.77,4,4,0,2.23-1.77,4-4,4-2.23,0-4-1.77-4-4zm4.35.35,1.5-1.5-.71-.71L12,8.29l-.65-.65-.71.71L12,9.71l.35-.35zm-8.58,7.09c-.5.25-.93.54-1.25.86C2.22,17.63,2,18.04,2,18.5c0,.64.41,1.17.94,1.56.54.4,1.29.75,2.18,1.03,1.78.56,4.21.91,6.88.91,2.67,0,5.1-.34,6.88-.91.89-.28,1.64-.63,2.18-1.03.53-.4.94-.92.94-1.56,0-.46-.22-.87-.53-1.2-.31-.33-.74-.61-1.25-.86l-.44.9c.44.22.76.44.96.65.2.21.26.38.26.51,0,.18-.12.44-.54.76-.42.31-1.05.61-1.88.88-1.66.53-3.98.86-6.57.86-2.6,0-4.92-.33-6.57-.86-.83-.26-1.47-.57-1.88-.88C3.12,18.94,3,18.68,3,18.5c0-.13.06-.3.26-.51.2-.21.52-.44.96-.66l-.44-.9z"/></svg>