<svg width="24" height="24" xmlns="http://www.w3.org/2000/svg"><path fill-rule="evenodd" clip-rule="evenodd" d="m6.23222,2H17.7674l.1484.22265,4,6,.1976.29634L12.3979,21.3025l-.3981.5238-.3981-.5238,1.88623,8.51899,4.19756-6.29634L6.23222,2zM3.43407,8l2.89032-4.33548L7.61332,8H3.43407zm7.30543,10.5154L3.50783,9h4.40279l2.82888,9.5154zM20.4918,9l-7.2317,9.5154L16.089,9h4.4028zm-2.8166-5.33548L20.5656,8h-4.1793l1.2889-4.33548zM12.898,3h3.9315l-1.2748,4.28812L12.898,3zm-1.7959,0L8.44515,7.28885,7.17009,3h3.93201zM9.18094,8,12,3.4494,14.8194,8H9.18094zm2.81886,11.2454L15.0458,9H8.95387l3.04593,10.2454z"/></svg>