<svg width="24" height="24" xmlns="http://www.w3.org/2000/svg"><path fill-rule="evenodd" clip-rule="evenodd" d="m5.5,2H5v20h15V2H5.5zM6,21V3h13v18H6zm2-5h9v-1H8v1zm9,2H8v-1h9v1zm-8.88-5.99V7.01H7v5h1.12zm.99-5h2.07c.35,0,.62.02.82.06.2.04.38.12.54.22.45.29.67.73.67,1.32,0,.52-.18.93-.55,1.23-.16.13-.34.22-.54.28-.2.06-.45.08-.74.08h-1.15v1.8H9.11V7.01zm1.12.92v1.42h1c.3,0,.51-.05.64-.15.16-.13.24-.32.24-.56,0-.25-.09-.44-.28-.56-.14-.09-.36-.14-.66-.14h-.94zm6.07,4.07L18,7.01h-1.16l-1.17,3.74-1.15-3.74h-1.17l1.68,5h1.27z"/></svg>