<svg width="36" height="36" viewBox="0 0 36 36" fill="none" xmlns="http://www.w3.org/2000/svg">
<path fill-rule="evenodd" clip-rule="evenodd" d="M11.25 6.25H10.8596L10.7649 6.62873L9.3207 12.4056L6.52639 13.8028L6.28496 13.9235L6.25342 14.1916L4.90541 25.6497C4.80373 26.0817 4.75 26.5338 4.75 27C4.75 30.2071 7.29286 32.75 10.5 32.75C13.707 32.75 16.2515 30.2073 16.2515 27C16.2515 26.9678 16.2512 26.9356 16.2507 26.9035V15.0785C16.7902 14.87 17.3798 14.756 18 14.756C18.6204 14.756 19.2103 14.8701 19.75 15.0787L19.7515 26.8668C19.7505 26.9111 19.75 26.9555 19.75 27C19.75 30.2071 22.2929 32.75 25.5 32.75C28.707 32.75 31.2515 30.2073 31.2515 27C31.2515 26.534 31.1978 26.0822 31.0962 25.6504L29.7481 14.1916L29.7165 13.9235L29.4751 13.8028L26.6808 12.4056L25.2366 6.62873L25.1419 6.25H24.7515H20.2515H19.7516L19.7515 6.74986L19.75 11.9999L20.75 12.0001L20.7514 7.25H24.3611L25.7664 12.8713L25.8222 13.0944L26.0279 13.1972L28.7865 14.5765L29.7957 23.1553C28.7471 21.9856 27.2184 21.2575 25.5 21.2575C23.5137 21.2575 21.7816 22.2303 20.7511 23.7333L20.7501 15.6118C21.9672 16.4639 22.7515 17.8764 22.7515 19.5H23.7515C23.7515 16.2919 21.2062 13.756 18 13.756C14.7936 13.756 12.25 16.2921 12.25 19.5H13.25C13.25 17.8762 14.0339 16.4636 15.2507 15.6116V23.7345C14.2199 22.2307 12.4868 21.2575 10.5 21.2575C8.78191 21.2575 7.25404 21.9853 6.20587 23.1544L7.21504 14.5765L9.97361 13.1972L10.1793 13.0944L10.2351 12.8713L11.6404 7.25H15.25V12.0555H16.25V6.75V6.25H15.75H11.25ZM20.75 26.9999H20.7515L20.7515 26.8785C20.8143 24.2826 22.8849 22.2575 25.5 22.2575C27.7502 22.2575 29.5982 23.7568 30.1103 25.8288L30.2514 27.0286C30.2364 29.6697 28.1455 31.75 25.5 31.75C22.8451 31.75 20.75 29.6549 20.75 27C20.75 27 20.75 27 20.75 26.9999ZM15.2507 27V26.9121C15.205 24.3003 13.1266 22.2575 10.5 22.2575C8.25017 22.2575 6.40336 23.7564 5.89133 25.828L5.75008 27.0286C5.76508 29.6699 7.85469 31.75 10.5 31.75C13.155 31.75 15.2515 29.6547 15.2515 27H15.2507ZM23.75 27.0015C23.75 26.0213 24.52 25.253 25.5 25.253V24.253C23.969 24.253 22.75 25.4677 22.75 27.0015H23.75ZM7.75 27.003C7.75 25.4703 8.96492 24.253 10.4985 24.253V25.253C9.51808 25.253 8.75 26.0217 8.75 27.003H7.75Z" fill="black"/>
</svg>
