<svg width="36" height="36" xmlns="http://www.w3.org/2000/svg"><path fill-rule="evenodd" clip-rule="evenodd" d="m19.25,11.2495c0-3.07176,2.4296-5.49999,5.5-5.49999,3.0719,0,5.5,2.42814,5.5,5.49999,0,3.0719-2.4281,5.5-5.5,5.5-3.0704,0-5.5-2.4282-5.5-5.5zm5.5-6.49999c-3.6226,0-6.5,2.87578-6.5,6.49999,0,3.6242,2.8774,6.5,6.5,6.5,3.6241,0,6.5-2.8758,6.5-6.5,0-3.62413-2.8759-6.49999-6.5-6.49999zm.3913,7.56019,2.8515-3.59996-.7839-.6209-2.5217,3.18366-2.4528-2.19574-.667.74507,2.8485,2.54997.3957.3543.3297-.4164zM18.25,22.7649h13v8.485h-13v-8.485zm1,1v6.485h11v-6.485h-11zm3.2515-1.5007h4.5v-1h-4.5v1zM8.24927,8.75024c-.55219,0-1,.44697-1,1,0,.55186.44814.99996,1,.99996s1-.4481,1-.99996c0-.55303-.44782-1-1-1zm-2,1c0-1.10596.89618-2,2-2,1.10381,0,2.00003.89404,2.00003,2,0,1.10416-.89589,1.99996-2.00003,1.99996s-2-.8958-2-1.99996zm-1,3.99926h-.5v8.5h1.5v9h4.00003v-9h1.5v-8.5H5.24927zm.5,7.5v-6.5h5.00003v6.5H9.24927v9h-2v-9h-1.5z"/></svg>