<svg width="36" height="36" xmlns="http://www.w3.org/2000/svg"><path fill-rule="evenodd" clip-rule="evenodd" d="m17.7501,10.5V3h-1v7.5h1zm10.2853-1.6662c-.7806-.78064-2.048-.78216-2.8289-.00219l-8.9548,8.73159.0022-3.31v-.0004c0-1.1068-.8955-2.003-2.0015-2.003-.5549,0-1.0055.2107-1.3427.5773-.3197.3476-.5149.81-.6412,1.294l9.19043,24.886.19528.207,7.43249,7.878.2051.2174.2887-.0778-.1301-.4828c.1301.4828.1303.4828.1305.4827l.0016-.0004.0029-.0008.0088-.0025.0288-.0083c.0241-.0072.0579-.0176.101-.0317.0861-.0281.2092-.071.365-.1318.3117-.1217.7544-.3157,1.295-.6088,1.0814-.5865,2.5526-1.5695,4.1469-3.1638,1.5577-1.5576,2.486-2.4845,3.0249-3.0218.2694-.2687.4414-.44.546-.544l.11-.1094.0241-.0239.0056-.0055.0013-.0012.0017-.0017c.7826-.7807.782-2.0501.0004-2.8316-.2616-.2616-.5778-.4357-.9122-.5222.6283-.7859.579-1.9362-.1478-2.6649l-.0009-.0009c-.2604-.2597-.5743-.4331-.9062-.5201.6208-.7856.5692-1.93-.1549-2.656l-.0009-.0009c-.2576-.2569-.5677-.4294-.8957-.5173l4.0776-4.076v-.0001c.7818-.7818.7818-2.04934,0-2.8311zM17.4567,32.0035c-.0471.0184-.0905.0348-.1299.0493l-7.0184-7.4391,2.9232-10.2234.0002.0001.003-.0119c.1063-.4093.2468-.6959.411-.8745.1481-.161.332-.2542.6066-.2542.553,0,1.0015.4479,1.0015,1.003l-.0038,5.6837L25.907,9.54534v.00003l.0049-.00492c.3894-.39038,1.025-.39103,1.4164.00045.3913.39122.3913,1.0256.0001,1.4168l-.0001.0001-5.2287,5.2268c-.0266.0239-.0527.0486-.0783.0742l-.0002.0002-2.6562,2.6592-.0003.0003.7073.707.0002-.0003,2.7121-2.711c.3933-.3384.9877-.3218,1.3626.0517.3897.3912.3898,1.0255.0002,1.4167l-.0006.0006-.9616.9578c-.0346.0302-.0685.0618-.1015.0948l.0032.0031-1.5955,1.5892.7057.7085,1.6657-1.6591c.3933-.3242.9766-.303,1.3464.0654.3899.3913.3898,1.026-.0003,1.4172l-.0001.0001-1.5936,1.5921-.0003.0003.7064.7078.0004-.0003.5306-.5292.001-.0009c.3894-.3904,1.025-.3911,1.4164.0004.3915.3915.3909,1.0271.0005,1.4164l-.0006.0007-.0058.0057-.0246.0243-.1107.1101c-.105.1044-.2773.276-.547.5449-.5392.5378-1.4679,1.4649-3.0258,3.0228-1.5212,1.5212-2.9134,2.4477-3.9166,2.9918-.5018.2722-.9066.4489-1.182.5564zm6.9595-27.22615-3,4.5-.8321-.5547,3-4.5.8321.5547zM13.9162,8.72265l-3-4.5-.8321.5547,3,4.5.8321-.5547z"/></svg>