<svg width="24" height="24" xmlns="http://www.w3.org/2000/svg"><path fill-rule="evenodd" clip-rule="evenodd" d="m7,3c-1.66,0-3,1.32-3,2.98,0,.52.13,1.01.36,1.43.13.24.28.46.48.65l0,0,4.16,4.14,4.15-4.13.02-.02.02-.02c.09-.11.33-.41.42-.58l0,0c.25-.44.39-.94.39-1.49,0-.36-.06-.7-.18-1.03-.42-1.15-1.52-1.96-2.82-1.96-.77,0-1.47.29-2,.76-.53-.47-1.23-.76-2-.76zM4.36,7.41c0,0,0,0,0,0l.44-.24-.44.24c0,0,0,0,0,0zm.64-1.43c0-1.1.89-1.98,2-1.98.66,0,1.24.31,1.6.8l.4.54.4-.54c.36-.49.94-.8,1.6-.8.87,0,1.6.54,1.88,1.3l0,0c.08.21.12.44.12.68,0,.36-.1.7-.26.99-.04.08-.21.3-.31.42L9,10.8,5.55,7.37c-.12-.12-.22-.27-.31-.43h0l0,0c-.15-.28-.24-.6-.24-.95zm3.01,9.84-3.58-2.5c-.65-.5-1.58-.4-2.09.24-.52.64-.42,1.58.22,2.1L8.61,21h3.93l1.01,1h8.86l-5.87-5.92,0,0-.01-.01c-1.19-1.14-2.75-2.04-4.4-2.08L12.12,14h-2.12c-.63,0-1.15.24-1.5.64-.3.34-.46.76-.5,1.18zm-4.16-1.69,4.69,3.28c.35.37.85.59,1.47.59h2v-1h-2c-.37,0-.61-.13-.76-.3-.16-.18-.25-.43-.24-.69,0-.27.09-.52.26-.7.15-.17.39-.3.75-.3h2.1c1.3.03,2.63.75,3.72,1.79L20,21h-6.04l-1.01-1H8.99l-5.79-5.1-.01-.01c-.22-.17-.25-.49-.08-.7l0,0c.17-.22.49-.25.7-.08l.01.01.01.01z"/></svg>