<svg width="36" height="36" viewBox="0 0 36 36" fill="none" xmlns="http://www.w3.org/2000/svg">
<path fill-rule="evenodd" clip-rule="evenodd" d="M16.9824 4.74955H17.25H29.25H29.6736L29.7432 5.16735L32.7432 23.1674L32.7963 23.4862L32.5273 23.6656L28.0274 26.6656L27.9014 26.7496H27.75H19.5V25.7496H27.2845L28.6165 7.10116L26.666 10.0269L26.5176 10.2496H26.25H16.15L14.7349 15.8723L13.7651 15.6283L15.1188 10.2496H14.25H13.3157L13.834 9.4722L16.834 4.9722L16.9824 4.74955ZM31.7037 23.0129L28.3215 25.2677L29.4489 9.48409L31.7037 23.0129ZM28.3157 5.74955H17.5176L15.1843 9.24955H25.9824L28.3157 5.74955ZM8.62918 18.387C8.33486 18.3006 7.97904 18.25 7.50563 18.2496C6.8372 18.2348 5.73421 18.2212 4.81438 18.9208C3.86797 19.6406 3.25 20.9985 3.25 23.3936C3.25 25.6178 3.6197 27.5417 4.31704 28.9295C5.01532 30.3193 6.09237 31.2496 7.5 31.2496V31.2496L7.50937 31.2495C8.4298 31.2322 9.01525 31.0339 9.48221 30.8378C9.56632 30.8024 9.64241 30.7695 9.71257 30.7391L9.71343 30.7388L9.71381 30.7386L9.71439 30.7383C10.034 30.5999 10.2303 30.5149 10.5 30.5001C10.7697 30.5149 10.966 30.5999 11.2856 30.7383L11.2862 30.7386C11.3567 30.7691 11.4332 30.8022 11.5178 30.8378C11.9848 31.0339 12.5702 31.2322 13.4906 31.2495L13.4906 31.2496H13.5C14.9076 31.2496 15.9847 30.3193 16.683 28.9295C17.3803 27.5417 17.75 25.6178 17.75 23.3936C17.75 20.9985 17.132 19.6406 16.1856 18.9208C15.2658 18.2212 14.1628 18.2348 13.4944 18.2496C13.021 18.25 12.6651 18.3006 12.3708 18.387C12.0734 18.4744 11.8613 18.5923 11.6898 18.6896L11.6758 18.6975C11.5118 18.7906 11.397 18.8557 11.2396 18.9065C11.1661 18.9301 11.0788 18.9519 10.9706 18.9684C10.8133 17.5755 10.0495 16.6623 9.29999 16.1002C8.88358 15.7879 8.46982 15.5814 8.16103 15.4528C8.00596 15.3882 7.87551 15.3424 7.78187 15.3123C7.735 15.2973 7.69719 15.2861 7.66995 15.2784C7.66323 15.2765 7.65715 15.2748 7.65173 15.2733C7.64616 15.2718 7.64129 15.2705 7.63715 15.2693L7.62701 15.2667L7.62356 15.2658L7.62225 15.2655L7.6217 15.2653C7.62146 15.2653 7.62122 15.2652 7.5 15.7503C7.37878 16.2354 7.37857 16.2353 7.37837 16.2353L7.38006 16.2357L7.39743 16.2405C7.41414 16.2453 7.44078 16.2531 7.47594 16.2644C7.54636 16.287 7.65029 16.3233 7.77647 16.3759C8.03018 16.4816 8.36642 16.65 8.70001 16.9002C9.26201 17.3217 9.81092 17.9671 9.96033 18.9566C9.88312 18.9421 9.81757 18.9249 9.76039 18.9065C9.60299 18.8557 9.48821 18.7906 9.32417 18.6975L9.31025 18.6896C9.13866 18.5923 8.92662 18.4744 8.62918 18.387ZM4.25 23.3936C4.25 21.1446 4.82978 20.1655 5.41974 19.7168C6.03379 19.2498 6.8023 19.2342 7.48893 19.2494L7.48893 19.2496H7.5C7.90503 19.2496 8.16405 19.2926 8.3474 19.3465C8.52879 19.3997 8.6579 19.4693 8.81688 19.5595L8.84705 19.5766C9.00142 19.6645 9.19615 19.7753 9.45372 19.8583C9.73151 19.9478 10.0614 19.9996 10.5 19.9996C10.9386 19.9996 11.2685 19.9478 11.5463 19.8583C11.8038 19.7753 11.9986 19.6645 12.153 19.5766L12.1831 19.5595C12.3421 19.4693 12.4712 19.3997 12.6526 19.3465C12.8359 19.2926 13.095 19.2496 13.5 19.2496V19.2497L13.5111 19.2494C14.1977 19.2342 14.9662 19.2498 15.5803 19.7168C16.1702 20.1655 16.75 21.1446 16.75 23.3936C16.75 25.5253 16.3929 27.2794 15.7894 28.4806C15.1878 29.6778 14.3916 30.2476 13.5045 30.2495C12.7464 30.2347 12.2889 30.0771 11.9051 29.9158C11.8474 29.8916 11.7881 29.8655 11.727 29.8386C11.3926 29.6913 11.0034 29.5198 10.5205 29.5L10.5 29.4991L10.4795 29.5C9.9966 29.5198 9.60739 29.6913 9.27298 29.8386C9.21188 29.8655 9.1526 29.8916 9.09492 29.9158C8.71107 30.0771 8.25364 30.2347 7.49547 30.2495C6.60842 30.2476 5.81216 29.6778 5.21059 28.4806C4.60705 27.2794 4.25 25.5253 4.25 23.3936Z" fill="black"/>
</svg>
