<svg width="24" height="24" xmlns="http://www.w3.org/2000/svg"><path fill-rule="evenodd" clip-rule="evenodd" d="m6.46,4.46C6.18,4.74,6,5.22,6,6v4h12V6c0-.78-.18-1.26-.46-1.54C17.26,4.18,16.79,4,16,4H8c-.78,0-1.26.18-1.54.46zM6,16v-5h12V16H6zM5.76,3.76C6.3,3.21,7.08,3,8,3h8c.92,0,1.7.21,2.24.76C18.79,4.3,19,5.08,19,6v2h1v2h-1v9h-4V17H9v2H5V10H4V8h1V6c0-.92.21-1.7.76-2.24zM16,17H18v1h-2V17zM6,18V17h2v1H6zM16,5H8v1h8V5zM3.78,16.44c-.5.25-.93.54-1.25.86C2.22,17.63,2,18.04,2,18.5c0,.64.41,1.17.94,1.56.54.41,1.29.75,2.18,1.03,1.78.56,4.21.91,6.88.91,2.67,0,5.1-.34,6.88-.91.89-.28,1.64-.63,2.18-1.03.53-.4.94-.92.94-1.56,0-.46-.22-.87-.53-1.2-.31-.33-.74-.62-1.25-.86l-.44.9c.44.22.76.44.96.65.2.21.26.38.26.51,0,.18-.12.44-.54.76-.42.31-1.05.61-1.88.88-1.66.53-3.98.86-6.57.86-2.6,0-4.92-.33-6.57-.86-.83-.26-1.47-.57-1.88-.88C3.12,18.94,3,18.68,3,18.5c0-.13.06-.3.26-.51.2-.21.52-.44.96-.66l-.44-.9zM8,13c-.55,0-1,.45-1,1,0,.55.45,1,1,1s1-.45,1-1c0-.55-.45-1-1-1zm7,1c0-.55.45-1,1-1s1,.45,1,1c0,.55-.45,1-1,1s-1-.45-1-1z"/></svg>