<svg width="36" height="36" xmlns="http://www.w3.org/2000/svg"><path fill-rule="evenodd" clip-rule="evenodd" d="m18,4.25c-2.14,0-4,2.05-4,4.75,0,2.7,1.86,4.75,4,4.75s4-2.05,4-4.75c0-2.7-1.86-4.75-4-4.75zm-5,4.75c0-3.1,2.17-5.75,5-5.75,2.83,0,5,2.65,5,5.75,0,1.46-.48,2.82-1.28,3.85,4.23,1.86,6.53,6.35,6.53,11.15h-1c0-4.64-2.28-8.8-6.27-10.38-.82.71-1.85,1.13-2.98,1.13-1.13,0-2.16-.42-2.98-1.13-2.68,1.07-4.58,3.29-5.55,6.04l-.94-.33c1-2.85,2.96-5.24,5.75-6.48-.8-1.03-1.28-2.39-1.28-3.85zM6.49,20.18l5.76,4.02c0-.07-.01-.14-.01-.21.01-.67.23-1.35.7-1.88.48-.53,1.18-.87,2.06-.87h3.36v.01c2.32.11,4.54,1.39,6.25,3.04l0,0,8.9,8.46H20.42l-1.51-1.5h-5.9l-9.02-7.95c-.85-.69-.99-1.95-.3-2.8.69-.86,1.94-1,2.8-.32zM18.16,22.25h-3.16c-.61,0-1.03.22-1.31.54-.29.32-.44.76-.45,1.22,0,.46.15.89.43,1.21.27.31.7.54,1.33.54h3v1h-3c-.87,0-1.57-.32-2.04-.83l-7.07-4.94-.01-.01c-.43-.35-1.06-.28-1.41.15-.35.43-.28,1.06.15,1.41l.01.01L13.39,30.25h5.93l1.51,1.5h10.17l-7.09-6.74c-1.65-1.59-3.71-2.72-5.75-2.76z"/></svg>