<svg width="36" height="36" xmlns="http://www.w3.org/2000/svg"><path fill-rule="evenodd" clip-rule="evenodd" d="m11.75,5.25c0-.55.45-1,1-1h9c.55,0,1,.45,1,1v10.5c0,.55-.45,1-1,1h-9c-.55,0-1-.45-1-1V5.25zm1-2c-1.1,0-2,.89-2,2v10.5c0,1.1.9,2,2,2h4V33h1V17.75h4c1.11,0,2-.9,2-2V5.25c0-1.11-.89-2-2-2h-9zm2.5,3H18c.82,0,1.53.21,2.03.71.5.5.72,1.21.72,2.04,0,.83-.21,1.54-.71,2.04-.5.5-1.21.71-2.04.71H16.25V15h-1V6.25zm1,4.5h1.75c.67,0,1.08-.17,1.33-.42.25-.25.42-.66.42-1.33,0-.67-.17-1.09-.42-1.33C19.08,7.42,18.66,7.25,18,7.25h-1.75v3.5z"/></svg>