<svg width="24" height="24" xmlns="http://www.w3.org/2000/svg"><path fill-rule="evenodd" clip-rule="evenodd" d="m2.00012,4.50024c0-1.3813,1.12002-2.5,2.5-2.5.81759,0,1.54393.39268,2.00016,1h5.20692l.1464.14645.984.984.3534.35338-.3532.35355-1.015,1.016-.1465.14662H6.49995c-.45622.60713-1.18237,1-1.99983,1-1.38014,0-2.5-1.11985-2.5-2.5zm5,0c0-.17124-.01721-.33845-.05-.5h4.34278l.4842.48418-.5153.51582H6.95006c.03283-.16156.05006-.32878.05006-.5zm-2.5-1.5c-.82802,0-1.5.67131-1.5,1.5,0,.82786.67214,1.5,1.5,1.5s1.5-.67214,1.5-1.5c0-.82869-.67198-1.5-1.5-1.5zM2.5,8.00049H2V22.0005h20V8.00049H2.5zM3,21.0005V9.00049h18V21.0005H3zm2.00012-7.4998c0-.8294.67219-1.5,1.5-1.5h3.49998v-1h4v1h3.5c.8278,0,1.5.6706,1.5,1.5v4c0,.8282-.6718,1.5-1.5,1.5H6.50012c-.82814,0-1.5-.6718-1.5-1.5v-4zM6.50012,13.0007c-.27618,0-.5.2235-.5.5v4c0,.2759.22414.5.5.5H17.5001c.2759,0,.5-.2241.5-.5v-4c0-.2765-.2238-.5-.5-.5H6.50012z"/></svg>