<svg width="36" height="36" fill="none" xmlns="http://www.w3.org/2000/svg"><path d="m12.54,23.76c1.16,2.94,1.19,7.45-.63,8.34-1.73.85-5.33-2.13-6.13-6.7m11.43-5.62c.78-.96,1.64-1.84,2.59-2.62.36-.3.53-.77.41-1.23L17.23,4.65c-.17-.65-.84-1.05-1.48-.84C10.1,5.63,5.63,10.11,3.8,15.79c-.21.64.2,1.32.85,1.49l11.34,2.91c.45.12.91-.05,1.21-.41zm2.6-5.36c.18.67.93,1,1.54.66.55-.3,1.13-.55,1.74-.75.36-.12.65-.4.74-.78l1.65-7.19c.13-.55-.19-1.13-.73-1.28-2.05-.56-4.2-.68-6.3-.33-.61.1-.98.74-.82,1.34M13.75,19.62c.67.17,1,.93.67,1.54-.29.55-.54,1.14-.73,1.76-.11.37-.39.66-.77.75l-7.12,1.73c-.55.13-1.13-.18-1.28-.73-.58-2.06-.71-4.22-.39-6.34.09-.61.72-.99,1.32-.84M25.46,6.4c4.53.77,7.48,4.35,6.66,6.09-.87,1.84-5.29,1.89-8.23.76" stroke="#000" stroke-miterlimit="10"/></svg>