<svg width="24" height="24" xmlns="http://www.w3.org/2000/svg"><path fill-rule="evenodd" clip-rule="evenodd" d="m7.78001,3.10039c.56676-.06431,1.13924-.101,1.71902-.101,2.87567,0,5.56127.79173,7.86877,2.15881l.5097-.86034c-2.4555-1.45482-5.3163-2.29847-8.37847-2.29847-.62201,0-1.23239.03936-1.83177.10737l.11275.99363zM4.07038,5.06008c1.67701-.67812,3.50705-1.06051,5.42889-1.06051,4.25783,0,8.07413,1.84658,10.72513,4.76553l-.7403.67231c-2.4713-2.72118-6.0234-4.43784-9.98483-4.43784-1.78787,0-3.49092.35553-5.05402.98759l-.37487-.92708zM9.4997,6.99976c-2.17268,0-4.19751.61372-5.93292,1.66281l-.51734-.85578C4.9328,6.66826,7.13539,5.99976,9.4997,5.99976c4.639,0,8.6773,2.53303,10.8337,6.28154l-.8668.4986c-1.9862-3.45259-5.7019-5.78014-9.9669-5.78014zM3.64476,13.8204c1.37563-1.7187,3.48543-2.8202,5.85506-2.8202,4.12278,0,7.46638,3.3275,7.49698,7.4436l1-.0074c-.0347-4.6645-3.8238-8.4362-8.49698-8.4362-2.68749,0-5.0794,1.2508-6.63578,3.1953l.78072.6249zm-.96605-3.2941C4.51316,8.95552,6.89322,8,9.4997,8c4.7777,0,8.8014,3.1932,10.0744,7.5574l-.96.28C17.4618,11.8871,13.8198,9,9.4997,9c-2.35714,0-4.50894.86308-6.17059,2.2859l-.6504-.7596zm3.3271,7.9233C6.03349,16.5395,7.58545,15,9.50007,15c1.93293,0,3.50003,1.567,3.50003,3.5v2.6957h1V18.5c0-2.4853-2.0148-4.5-4.50003-4.5-2.46429,0-4.4586,1.9814-4.49415,4.4351l.99989.0145zm-2.42407-2.6283c1.02033-2.2501,3.28248-3.8209,5.91784-3.8209,3.58982,0,6.50002,2.9102,6.50002,6.5v1.7633h-1v-1.7633c0-3.0376-2.4624-5.5-5.50002-5.5-2.22695,0-4.14216,1.3265-5.00709,3.2339l-.91075-.413zM9.5,16C8.11925,16,7,17.1192,7,18.5v1.7632h1V18.5c0-.8285.67153-1.5,1.5-1.5.8284,0,1.5.6715,1.5,1.5v3h1v-3c0-1.3808-1.1193-2.5-2.5-2.5zM9,20.9999l.00002-3H10v3H9z"/></svg>