<svg width="36" height="36" xmlns="http://www.w3.org/2000/svg"><path fill-rule="evenodd" clip-rule="evenodd" d="m5.75,18C5.75,11.16,11.16,5.75,18,5.75S30.25,11.16,30.25,18c0,6.84-5.41,12.25-12.25,12.25s-12.25-5.41-12.25-12.25zM18,4.75c-7.4,0-13.25,5.85-13.25,13.25,0,7.4,5.85,13.25,13.25,13.25s13.25-5.85,13.25-13.25c0-7.4-5.85-13.25-13.25-13.25zm7.5,17.5v-1h-15v1h15zM12.25,13.5c0-.69.56-1.25,1.25-1.25s1.25.56,1.25,1.25-.56,1.25-1.25,1.25-1.25-.56-1.25-1.25zm1.25-.25c-.14,0-.25.11-.25.25s.11.25.25.25.25-.11.25-.25-.11-.25-.25-.25zm9-1c-.69,0-1.25.56-1.25,1.25s.56,1.25,1.25,1.25,1.25-.56,1.25-1.25-.56-1.25-1.25-1.25zm-.25,1.25c0-.14.11-.25.25-.25s.25.11.25.25-.11.25-.25.25-.25-.11-.25-.25z"/></svg>