<svg width="36" height="36" xmlns="http://www.w3.org/2000/svg"><path fill-rule="evenodd" clip-rule="evenodd" d="m19.25,8.25c0-.52.48-1,1-1,.52,0,1,.48,1,1s-.48,1-1,1c-.52,0-1-.48-1-1zm1-2c-1.08,0-2,.92-2,2s.92,2,2,2c1.08,0,2-.92,2-2s-.92-2-2-2zm-1.71,6h3.52l1.62,3.24,2.22,2.96-.8.6-2.28-3.04-.57-1.15v5.4l1.5,2.86V30h-1v-6.63l-1.3-2.48h-2.2v3.9l-.76,5.29-.99-.14.75-5.21V13.96l-2,2V19.5h-1v-3.96l3.29-3.29zm.71,7.64V13.25h2v6.64h-2zm-3.91.23-1.22,3.01-2.78-1.13-2.06,5.1,3.7,1.51,3.28-8.12-.93-.37zm-3.44,3.18,1.85.76-1.31,3.25-1.85-.76,1.31-3.25zm-2.54,4.16c-.3,0-.58.18-.7.47-.15.38.03.82.42.98.09.04.19.06.28.06.3,0,.58-.18.69-.47.16-.38-.03-.82-.41-.98-.09-.04-.19-.05-.28-.05zm2.09,1.59c.12-.29.4-.47.7-.47.09,0,.19.02.28.05.38.16.57.59.41.98-.12.29-.4.47-.69.47-.09,0-.19-.02-.28-.05-.38-.16-.57-.59-.42-.98z"/></svg>