<svg width="36" height="36" xmlns="http://www.w3.org/2000/svg"><path fill-rule="evenodd" clip-rule="evenodd" d="m15.75,6.25h-.5v1.49927H12c-2.34777,0-4.25,1.90399-4.25,4.25003v16.25h3.3157l-2.48173,3.7226.83206.5547,2.85157-4.2773h11.4648l2.8516,4.2773.832-.5547-2.4817-3.7226H28.25v-16.25c0-2.34604-1.9022-4.25003-4.25-4.25003h-3.25V6.25h-5zm4,1.49927V7.25h-3.5v.49927h3.5zM21,10.75h-6v1h6v-1zm6.25,8.9993v-7.75c0-1.794-1.4548-3.25003-3.25-3.25003H12c-1.7952,0-3.25,1.45603-3.25,3.25003v7.75h18.5zM8.75,20.7493h18.5v6.5H8.75v-6.5zm12.5,3.25c0-.688.5592-1.25,1.25-1.25s1.25.562,1.25,1.25c0,.6901-.5599,1.25-1.25,1.25s-1.25-.5599-1.25-1.25zm1.25-.25c-.1372,0-.25.113-.25.25,0,.1378.1121.25.25.25s.25-.1122.25-.25c0-.137-.1128-.25-.25-.25zm-9-1c-.6908,0-1.25.562-1.25,1.25,0,.6901.5599,1.25,1.25,1.25s1.25-.5599,1.25-1.25c0-.688-.5592-1.25-1.25-1.25zm-.25,1.25c0-.137.1128-.25.25-.25s.25.113.25.25c0,.1378-.1121.25-.25.25s-.25-.1122-.25-.25z"/></svg>