<svg width="48" height="48" xmlns="http://www.w3.org/2000/svg"><path fill-rule="evenodd" clip-rule="evenodd" d="m45.2495,5.53008-.2636,1.08742-8,33-.1281.5285-.5159-.172-10.7931-3.5976-3.6139,6.37-.4628.8156-.4193-.8387-4.9044-9.8086L3.35293,28.9776l-1.14468-.3522,1.05531-.5663L44.2636,6.05912l.9859-.52904zM17.1147,32.6112,21,40.3817v-6.061l.1136-.1384,18.2965-22.274L17.1147,32.6112zM22,40.6051l2.5819-4.551L22,35.1934v5.4117zm14.1422-1.7517-13.7944-4.5981L43.4992,8.5058l-7.357,30.3476zm5.1695-30.07549L16.3712,31.9369,4.79169,28.374,41.3117,8.77791z"/></svg>