<svg width="36" height="36" xmlns="http://www.w3.org/2000/svg"><path fill-rule="evenodd" clip-rule="evenodd" d="m23.21,25.42,4.93,4.93.71-.71L6.35,7.15l-.71.71,4.42,4.42c-2.63,1.99-4.51,4.42-5.23,5.44l-.2.28.19.29c.58.86,2.2,2.96,4.5,4.85,2.29,1.89,5.31,3.62,8.67,3.62,1.88,0,3.64-.54,5.21-1.33zm-.75-.75-1.66-1.66c-.83.48-1.76.74-2.8.74-3.18,0-5.75-2.57-5.75-5.75,0-1.05.24-1.97.74-2.81l-2.21-2.21c-2.35,1.76-4.11,3.9-4.92,5.01.67.93,2.13,2.72,4.11,4.35,2.21,1.83,5.01,3.39,8.03,3.39,1.57,0,3.08-.42,4.47-1.08zm-2.4-2.4-6.34-6.34c-.32.61-.47,1.29-.47,2.07,0,2.62,2.13,4.75,4.75,4.75.76,0,1.45-.17,2.06-.48zm-3.47-9.83c.44-.11.91-.19,1.41-.19,3.18,0,5.75,2.57,5.75,5.75,0,.5-.08.97-.19,1.41l-.97-.24c.1-.39.16-.77.16-1.16,0-2.62-2.13-4.75-4.75-4.75-.39,0-.77.06-1.16.16l-.24-.97zm-2.46-2.45c1.21-.45,2.5-.74,3.87-.74,3.36,0,6.38,1.73,8.67,3.62,2.3,1.89,3.92,3.99,4.5,4.85l.19.29-.2.28c-.63.9-2.18,2.9-4.35,4.73l-.64-.76c1.88-1.58,3.27-3.3,3.97-4.26-.67-.93-2.13-2.72-4.11-4.35-2.21-1.83-5.01-3.39-8.03-3.39-1.22,0-2.4.26-3.52.68l-.35-.94z"/></svg>