<svg width="24" height="24" xmlns="http://www.w3.org/2000/svg"><path fill-rule="evenodd" clip-rule="evenodd" d="m16.3125,9.85603c.4932.11173.8976.37977,1.1905.74607.3996.4999.5723,1.1563.5288,1.7946-.0437.6419-.3078,1.2969-.8227,1.7932-.5205.5017-1.2649.8103-2.209.8103H8.00012c-.95398,0-1.6936-.3079-2.20142-.8196-.50159-.5054-.73575-1.1679-.76361-1.8086-.02771-.6372.14657-1.2875.50666-1.7908.27429-.3834.66277-.68665,1.14398-.81475.09199-1.85089,2.00673-2.89518,3.52267-2.17629.9455-1.53829,2.6247-1.91671,3.9872-1.42244.745.27025,1.4036.80294,1.7943,1.549.3182.60765.4474,1.33497.3226,2.13931zm-2.4579-2.74825c-1.0482-.38023-2.3618-.04562-2.997,1.39429l-.2655.60174-.5088-.41675c-.96737-.79235-2.56612-.04792-2.38671,1.45384l.06682.5593h-.56329c-.34817,0-.6345.1685-.84507.4628-.21672.303-.33994.7277-.3209,1.1655.01888.4343.17572.8468.47432,1.1477.29237.2945.76213.524,1.49165.524h6.99998c.7164,0,1.2022-.2288,1.515-.5303.3183-.3068.4904-.7206.519-1.1411.0289-.4242-.0898-.8241-.3122-1.1023-.2121-.2654-.5363-.4453-1.0018-.4267l-.6984.028.1991-.67c.2414-.81192.1456-1.47627-.1167-1.97715-.2656-.50707-.7195-.88063-1.2495-1.07287zm4.1384,9.89212H5v-1h12.993v1zm-11.993,2h10.993v-1H6v1z"/></svg>