<svg width="36" height="36" xmlns="http://www.w3.org/2000/svg"><path fill-rule="evenodd" clip-rule="evenodd" d="m8.25,3.25h-.5v29.5h22V3.25H8.25zm.5,28.5V4.25h20v27.5h-20zm3.25-8h13.5v-1H12v1zm13.5,3H12v-1h13.5v1zm-13.32-8.73V10.52H10.5v7.5h1.68zm1.48-7.5h3.11c.52,0,.93.03,1.23.1.3.06.57.18.81.34.67.44,1,1.1,1,1.98,0,.78-.28,1.4-.83,1.85-.23.19-.5.33-.8.41-.3.08-.67.13-1.12.13h-1.73v2.7h-1.68V10.52zm1.68,1.38v2.12h1.5c.45,0,.77-.08.96-.23.24-.19.36-.47.36-.85,0-.38-.14-.66-.42-.84-.2-.14-.54-.21-.99-.21h-1.41zm9.11,6.11L27,10.52h-1.74l-1.76,5.61-1.73-5.61h-1.76l2.52,7.5h1.91z"/></svg>