<svg width="36" height="36" xmlns="http://www.w3.org/2000/svg"><path fill-rule="evenodd" clip-rule="evenodd" d="m25.92,5.93.52-1.04-1.11.33c-.88.26-1.69.68-2.39,1.46-.61.68-1.12,1.6-1.56,2.87-.06-.02-.11-.05-.17-.07-2-.72-4.47-.14-5.8,2.23-2.19-1.23-5.13.33-5.13,3.13-.74.14-1.34.59-1.76,1.17-.5.7-.75,1.62-.71,2.53.04.91.37,1.84,1.07,2.55.71.71,1.75,1.16,3.12,1.16h10.5c1.41,0,2.49-.44,3.24-1.14.74-.7,1.11-1.63,1.15-2.54.01-.22,0-.45-.02-.67,1,.07,2.22-.13,3.38-.59,1.58-.63,3.15-1.8,3.96-3.6l.52-1.16-1.17.5c-2.93,1.24-5.31.4-6.72-1.18-1.44-1.61-1.89-4.01-.91-5.93zm.66,10.94c.83.13,2.06.01,3.29-.49,1.03-.41,2.02-1.06,2.74-1.97-2.74.68-5.06-.23-6.53-1.88-1.41-1.59-2.04-3.85-1.49-5.92-.33.19-.63.43-.92.74-.51.57-.99,1.4-1.41,2.68.61.41,1.13.97,1.49,1.66.48.92.66,2.04.42,3.29.8.12,1.44.51,1.91,1.07.2.25.37.52.5.81zm-10.53-4.21c1.01-2.29,3.12-2.84,4.81-2.23.85.31,1.58.91,2.01,1.73.43.81.57,1.88.19,3.15l-.2.67.7-.03c.78-.03,1.36.27,1.75.74.4.48.61,1.14.57,1.83-.03.68-.31,1.36-.84,1.86-.53.5-1.35.87-2.55.87h-10.5c-1.15,0-1.92-.36-2.41-.86-.5-.5-.75-1.18-.78-1.89-.03-.71.17-1.4.53-1.9.35-.5.86-.8,1.47-.8h.56l-.07-.56c-.3-2.47,2.36-3.74,3.99-2.4l.51.42.27-.6zM9.3,23.78l-1.5,3,.89.45,1.5-3-.89-.45zm4.5,3,1.5-3,.89.45-1.5,3-.89-.45zm-4.5,3,3-6,.89.45-3,6-.89-.45zM19.25,25.5c0-.14.11-.25.25-.25s.25.11.25.25c0,.14-.11.25-.25.25s-.25-.11-.25-.25zm.25-1.25c-.69,0-1.25.56-1.25,1.25,0,.69.56,1.25,1.25,1.25s1.25-.56,1.25-1.25c0-.69-.56-1.25-1.25-1.25zm6,1c-.14,0-.25.11-.25.25,0,.14.11.25.25.25.14,0,.25-.11.25-.25,0-.14-.11-.25-.25-.25zm-1.25.25c0-.69.56-1.25,1.25-1.25s1.25.56,1.25,1.25c0,.69-.56,1.25-1.25,1.25s-1.25-.56-1.25-1.25zm-2,4.5c0-.14.11-.25.25-.25.14,0,.25.11.25.25,0,.14-.11.25-.25.25-.14,0-.25-.11-.25-.25zm.25-1.25c-.69,0-1.25.56-1.25,1.25,0,.69.56,1.25,1.25,1.25s1.25-.56,1.25-1.25c0-.69-.56-1.25-1.25-1.25z"/></svg>