<svg width="36" height="36" xmlns="http://www.w3.org/2000/svg"><path fill-rule="evenodd" clip-rule="evenodd" d="m18,6.26221c-4.8331,0-8.75,3.91689-8.75,8.74999v.0098l.00038.0098c.05928,1.5108.50852,2.7811,1.22002,3.9654l-.0001.0001.0063.01,7.125,11.2485.4224.6668.4224-.6668,7.125-11.2485.0062-.0099.0058-.01c.6936-1.2166,1.1536-2.5123,1.1666-3.9707v-.0045c0-4.8332-3.9184-8.74999-8.75-8.74999zM11.3246,18.4772c-.6351-1.0586-1.0214-2.1629-1.0746-3.4748.0053-4.2764,3.4724-7.74019,7.75-7.74019,4.2786,0,7.7488,3.46799,7.75,7.74769-.0114,1.237-.398,2.3617-1.0297,3.4722L18.024,29.0538,11.3246,18.4772zm4.9234,1.3275v-3.699h2.2905c.855,0,1.416.057,1.683.1725.6855.2865,1.029.8565,1.029,1.7085,0,.7575-.255,1.2795-.7635,1.566-.2985.168-.879.252-1.7415.252H16.248zm0-4.8195v-3.2685h2.3745c.669,0,1.1175.045,1.3455.1365.273.1095.4845.294.6345.5535.1515.258.228.57.228.933,0,.3645-.0885.6825-.2625.9555s-.4095.4575-.702.5535c-.294.0915-.7485.1365-1.3665.1365H16.248zm2.556-4.4745h-3.8055v10.5015h4.395c.711,0,1.2855-.1275,1.7205-.381.927-.5475,1.392-1.4445,1.392-2.694,0-.9525-.333-1.6785-.996-2.1765-.195-.1485-.4695-.276-.822-.381.435-.186.777-.4785,1.026-.876.2475-.3975.372-.852.372-1.365,0-.483-.114-.93-.3405-1.3395s-.534-.7215-.9225-.9375c-.4215-.234-1.0965-.351-2.019-.351z"/></svg>