<svg width="24" height="24" xmlns="http://www.w3.org/2000/svg"><path fill-rule="evenodd" clip-rule="evenodd" d="m5,7v2H4v1h1v2H4v1h1v2H4v1h1v2H4v1h1V21h1v-1.89l9.42-14.33-.84-.55L13.42,6h-.42v.63L11.45,9H11V7h1V6h-1V4h-1v2H7v1h3v2H7v1h3v1.2l-.52.8H7v1h1.82l-1.31,2h-.51v.77L6,17.29V4H5v2H4v1h1zm6,12.6v1.4h-1v-2H8v-1h2.9l1.41-2H10v-1h3.01L14.42,13H12v-1h3.12l1.41-2H14V9h3.23l1.41-2H16V6h3.34l1.26-1.79.82.57L20.56,6H21v1h-1.15l-1.41,2H19v1h-1.25l-1.41,2H17v1h-1.36l-1.41,2H15v1h-1.47l-1.41,2H13v1h-1.58L11,19.6z"/></svg>