<svg width="48" height="48" xmlns="http://www.w3.org/2000/svg"><path fill-rule="evenodd" clip-rule="evenodd" d="m9.5,11H9v17.0164C8.83474,28.0055,8.66801,28,8.5,28H8v7H7v5h9v-1.9912c1.3013.0453,2.4552.2602,3.5917.4819l.1804.0353c1.0539.2062,2.1103.4129,3.2279.4627V40h18.001v-3.5H41c0-3.5891-2.9109-6.5-6.5-6.5h-5c-2.1628,0-3.8859-1.5976-5.1521-4H25v-1h-1.1332c-.2814-.64-.5301-1.3125-.7468-2H24v-1h-1.1702c-.1773-.6656-.3256-1.3373-.4456-2H23v-1h-.7764C22.0738,17.9329,22,16.9107,22,16v-5H9.5zm13.2801,14c-.266-.6459-.5012-1.3175-.7063-2H20v-1h1.7964c-.1703-.6676-.3127-1.3388-.4278-2H19v-1h2.2142C21.0705,17.9348,21,16.9149,21,16H10v12.15c3.2673.6633,5.7633,3.4505,5.9841,6.8577,1.4109.0447,2.6466.2767,3.7992.5016l.1519.0296C21.168,35.7799,22.2943,36,23.5,36h16.4776c-.2528-2.8027-2.6093-5-5.4776-5h-5c-2.8834,0-4.9328-2.2456-6.2724-5H21v-1h1.7801zM40.001,37H23.5c-1.3051,0-2.5181-.2373-3.7279-.474l-.1804-.0353C18.3118,36.241,17.0097,36,15.5,36H8v3h7v-2h.5c1.6153,0,3.0007.259,4.2833.5093l.1519.0296C21.168,37.7799,22.2943,38,23.5,38h.5v1h16.001v-2zM9,35v-5.9811c3.1912.2428,5.7383,2.7899,5.9811,5.9811H9zm1-20h11v-3H10v3z"/></svg>