<svg width="36" height="36" xmlns="http://www.w3.org/2000/svg"><path fill-rule="evenodd" clip-rule="evenodd" d="m10.25,13.25c0,.08,0,.17,0,.25,0,.67-.24,1.27-.63,1.75H26.38c-.39-.48-.63-1.08-.63-1.75,0-.08,0-.17,0-.25H19.5v-1h6.15C25.05,8.56,21.85,5.75,18,5.75c-3.86,0-7.05,2.81-7.65,6.5H16.5v1h-6.25zm18.25,2c-.97,0-1.75-.78-1.75-1.75,0-4.83-3.92-8.75-8.75-8.75-4.83,0-8.75,3.92-8.75,8.75,0,.97-.78,1.75-1.75,1.75v1h3.15c-.89,1.37-1.4,3-1.4,4.75,0,4.83,3.92,8.75,8.75,8.75,4.83,0,8.75-3.92,8.75-8.75,0-1.75-.51-3.38-1.4-4.75H28.5v-1zm-4.38,1H11.88c-1.02,1.31-1.63,2.96-1.63,4.75,0,4.28,3.47,7.75,7.75,7.75,4.28,0,7.75-3.47,7.75-7.75,0-1.79-.61-3.44-1.63-4.75zM15,19.25c-.14,0-.25.11-.25.25s.11.25.25.25.25-.11.25-.25-.11-.25-.25-.25zm-1.25.25c0-.69.56-1.25,1.25-1.25s1.25.56,1.25,1.25-.56,1.25-1.25,1.25-1.25-.56-1.25-1.25zm7.25-.25c-.14,0-.25.11-.25.25s.11.25.25.25.25-.11.25-.25-.11-.25-.25-.25zm-1.25.25c0-.69.56-1.25,1.25-1.25s1.25.56,1.25,1.25-.56,1.25-1.25,1.25-1.25-.56-1.25-1.25zm-6.46,4.79c1.04,1.48,2.76,2.46,4.71,2.46,1.95,0,3.67-.98,4.71-2.46l-.82-.57c-.86,1.23-2.28,2.04-3.89,2.04-1.61,0-3.03-.81-3.89-2.04l-.82.57z"/></svg>