<svg width="24" height="24" xmlns="http://www.w3.org/2000/svg"><path fill-rule="evenodd" clip-rule="evenodd" d="m11.9999,2.99951c-.5239,0-1,.47614-1,1s.4761,1,1,1c.5238,0,1-.47614,1-1s-.4762-1-1-1zm-2.00002,1c0-1.07614.92382-2,2.00002-2,1.0761,0,2,.92386,2,2s-.9239,2-2,2c-1.0762,0-2.00002-.92386-2.00002-2zm0,5.15139-1,1.5v3.3486h-1v-3.6514l.08398-.1259,2.00004-3.00004.1484-.22265h3.5352l.1484.22265,1.8981,2.84704,3.3232.9495-.2747.9616-3.5-1-.1767-.0505-.1019-.1529-1.084-1.626v4.1972l1.916,2.8741.084.1259v5.6514h-1v-5.3486l-1.7676-2.6514h-2.2324v3.6602l-.0931.1304-2.50005,3.5-.81373-.5812,2.40686-3.3696V9.1509zm1.00002-1.15139v4.99999h2V7.99951h-2z"/></svg>