<svg width="48" height="48" xmlns="http://www.w3.org/2000/svg"><path fill-rule="evenodd" clip-rule="evenodd" d="m24.5,11.5v-6h-1v6h1zm-12.88-1.08,4.24,4.24-.71.71-4.24-4.24.71-.71zM6,23h6v1H6v-1zm4.08,14H14v-13c0-5.52,4.48-10,10-10s10,4.48,10,10v13h3.92l1.17,7H8.91l1.17-7zm22.92,0v-13c0-4.97-4.03-9-9-9s-9,4.03-9,9v13h6L21,30v0c0-1.66,1.34-3,3-3,1.66,0,3,1.34,3,3v0l0,6.99H33zm-11-7,0,7h4L26,30v0c0-1.1-.9-2-2-2-1.1,0-2,.9-2,2zm-11.08,8-.83,5h27.82l-.83-5H10.92zm13.08-21c-3.87,0-7,3.13-7,7h1c0-3.31,2.69-6,6-6v-1zm18,7h-6v-1h6v1zm-9.16-8.63,4.24-4.24-.71-.71-4.24,4.24.71.71z"/></svg>