<svg width="36" height="36" xmlns="http://www.w3.org/2000/svg"><path fill-rule="evenodd" clip-rule="evenodd" d="m18.0004,8.74872c.73,0,1.3881.28729,1.9309.77905l.0251.02307c.0624.05745.1231.11764.1819.18045.675.72091,1.1112,1.78691,1.1112,3.02091,0,.0762-.0047.149-.012.2272-.0037.0385-.008.0786-.0127.1216v.0003l-.0085.0791-.0091.0855.0005.0001-.0001.0011-.0011-.0001c-.2077,2.0563-1.5699,3.4847-3.2061,3.4847-.6604,0-1.2609-.2342-1.7707-.6414.0113-.1128.0207-.2363.0207-.3601,0-1.1999-.3485-2.3009-.9484-3.1661-.0124-.0179-.0249-.0356-.0374-.0533-.1355-.1899-.2834-.3682-.4425-.5331.2851-1.9285,1.6037-3.24898,3.1783-3.24898zm4.2293,4.36048c.5101.4079,1.1109.6423,1.7704.6423,1.7757,0,3.25-1.6813,3.25-3.99997,0-2.32046-1.4746-4.00299-3.25-4.00299-1.573,0-2.893,1.3217-3.1783,3.25027.0147.01527.0294.03066.0439.04615.8653.92134,1.3844,2.24044,1.3844,3.70654,0,.1052-.0071.2119-.0161.3116l-.0043.0461zM18.0004,17.7517c1.0015,0,1.8805-.3755,2.5742-.9971,3.2236,1.987,4.7456,5.0716,5.1314,8.9953h-5.5352c-.78-2.7877-2.3293-5.1023-4.9254-6.752.3692-.5213.6457-1.1315.8108-1.7923.5711.344,1.2272.5461,1.9442.5461zm4.0555-3.5471c-.1647.6603-.4405,1.2701-.8087,1.7912,2.5968,1.6499,4.1448,3.9656,4.9241,6.754h5.5346c-.3854-3.9234-1.9024-7.0016-5.1259-8.9895-.6967.6189-1.5782.9912-2.5799.9912-.7167,0-1.3729-.2024-1.9442-.5469zm5.2003-1.2008c.6311-.8857.9939-2.0312.9939-3.25227,0-2.68353-1.7504-5.00299-4.25-5.00299-2.0283,0-3.5545,1.54151-4.0563,3.54663-.5711-.34418-1.2271-.54645-1.9434-.54645-2.0293,0-3.5545,1.54-4.0561,3.54468-.5713-.3441-1.2274-.5463-1.9446-.5463-2.49801,0-4.25004,2.3193-4.25004,5.003,0,1.2106.35692,2.3469.9782,3.2294-3.47627,2.2113-5.40354,5.7699-5.47776,10.262l-.0084.5083h17.5452l-.0381-.5355c-.0607-.8524-.1704-1.6751-.3349-2.4644h6.373l-.0381-.5355c-.0607-.8523-.1703-1.6752-.3346-2.4646h6.3726l-.0381-.5355c-.3092-4.3453-1.8861-7.9166-5.4925-10.2105zM13.9073,12.5039c-.5379-.4781-1.1871-.7568-1.9076-.7568-1.7741,0-3.25004,1.6826-3.25004,4.003,0,2.3184,1.47564,4,3.25004,4,1.6106,0,2.9544-1.3816,3.1962-3.3813l.0107-.1033c.0054-.0516.0107-.0989.0157-.1432v-.0004c.0036-.0316.007-.0617.0101-.0908.0101-.099.0171-.1875.0171-.2804,0-1.0296-.3037-1.9423-.7964-2.6351-.1493-.2099-.3159-.3996-.4967-.5664l-.0491-.0453zM4.26697,28.7498c.20222-3.9899,2.00396-7.0782,5.13157-9.0105.70016.6306,1.58956,1.0108,2.60116,1.0108,1.0004,0,1.8787-.3743,2.5721-.9941,3.2238,1.9871,4.7482,5.0705,5.1342,8.9938H4.26697z"/></svg>