<svg width="48" height="48" xmlns="http://www.w3.org/2000/svg"><path fill-rule="evenodd" clip-rule="evenodd" d="m5.32,10.54c12.17-4.84,24.31-4.92,36.37,0l.31.13v31.34H31v-6H16v6H5V10.66l.32-.13zM6,11.34v29.66h9v-6h17v6h9V11.34c-11.61-4.65-23.27-4.58-35,0zm17,2.68c-1,.07-1.95.33-2.81.75l.99,1.72-.87.5-.99-1.72c-.81.54-1.51,1.24-2.06,2.06l1.72.99-.5.87-1.72-.99c-.42.86-.69,1.81-.75,2.81H18v1h-1.98c.07,1,.33,1.95.75,2.81l1.72-.99.5.87-1.72.99c.55.81,1.24,1.51,2.06,2.06l.99-1.72.87.5-.99,1.72c.86.42,1.81.69,2.81.75v-1.98h1v1.98c1-.07,1.95-.33,2.81-.75l-.99-1.72.87-.5.99,1.72c.81-.55,1.51-1.24,2.06-2.06l-1.72-.99.5-.87,1.72.99c.42-.86.69-1.81.75-2.81H29v-1h1.98c-.07-1-.33-1.95-.75-2.81l-1.72.99-.5-.87,1.72-.99c-.55-.81-1.24-1.51-2.06-2.06l-.99,1.72-.87-.5.99-1.72c-.86-.42-1.81-.69-2.81-.75v1.98h-1v-1.98zM15,21.5c0-4.69,3.81-8.5,8.5-8.5s8.5,3.81,8.5,8.5c0,4.7-3.81,8.5-8.5,8.5s-8.5-3.8-8.5-8.5zm8.85.35,3.52-3.52-.71-.71-3.25,3.25-2.13-1.3-.52.85,2.8,1.7.28-.28z"/></svg>