<svg width="24" height="24" xmlns="http://www.w3.org/2000/svg"><path fill-rule="evenodd" clip-rule="evenodd" d="m13.9995,4.52197v4.33318l.7072-.51064.0001-.00004,4.4999-3.24996.7928-.57254V19.4777l-.7928-.5725-4.5-3.25-.0001-.0001-.7071-.511v4.3336l-.7928-.5725-4.49995-3.25-4.5-3.25-.56124-.4053.56124-.4054,4.5-3.24999,4.49995-3.25.7928-.57254zm-1,1.95576L9.29224,9.15519,5.35348,11.9999l3.93876,2.8446,3.70726,2.6775v-4.3344l.7929.573,1.4998,1.0839.0002.0001,3.7071,2.6774V6.47773l-3.7073,2.67746v.00004l-1.5,1.08297-.7927.5724V6.47773z"/></svg>