<svg width="36" height="36" xmlns="http://www.w3.org/2000/svg"><path fill-rule="evenodd" clip-rule="evenodd" d="m19.2559,7.76182V4.50049h-1V7.7613c-5.6951.24968-10.2422,4.795-10.49483,10.4892H4.5v1h3.26107c.25269,5.6929,4.79973,10.2394,10.49483,10.4892v3.2601h1v-3.2606c5.6917-.2556,10.234-4.8033,10.4833-10.4953h3.2592v-1h-3.2598c-.2556-5.6872-4.7954-10.22678-10.4827-10.48208zM8.75,18.7505c0-5.5394,4.4606-10.00001,10-10.00001s10,4.46061,10,10.00001c0,5.5379-4.4607,10-10,10s-10-4.4621-10-10zm4.5,0c0-3.0374,2.4626-5.5,5.5-5.5s5.5,2.4626,5.5,5.5c0,3.0359-2.4627,5.5-5.5,5.5s-5.5-2.4641-5.5-5.5zm5.5-6.5c-3.5896,0-6.5,2.9103-6.5,6.5,0,3.5881,2.9103,6.5,6.5,6.5s6.5-2.9119,6.5-6.5c0-3.5897-2.9104-6.5-6.5-6.5z"/></svg>