<svg width="24" height="24" xmlns="http://www.w3.org/2000/svg"><path fill-rule="evenodd" clip-rule="evenodd" d="m6.51177,5.5719C6.1498,5.88031,6,6.18813,6,6.5002s.1498.61989.51177.9283c.36887.31429.92629.59826,1.64438.83433,1.43241.47091,3.37495.70978,5.34245.70437,1.9674-.00541,3.9108-.25491,5.3445-.72886.7188-.23764,1.2774-.52134,1.647-.83312.3638-.30683.5099-.60768.5099-.90502s-.1461-.59819-.5099-.90502c-.3696-.31178-.9282-.59548-1.647-.83312-1.4337-.47395-3.3771-.72345-5.3445-.72886-1.9675-.00541-3.91004.23346-5.34245.70437-.71809.23607-1.27551.52004-1.64438.83433zm-.64854-.76118C5.3502,5.24784,5,5.81227,5,6.5002v1.2367c-.76737.23893-1.44841.5469-1.96625.93694-.60394.45489-1.03393,1.06248-1.03393,1.82676L2,10.5282v2.9714c0,.6876.34983,1.253.8621,1.6921.50568.4335,1.19787.7716,1.97979,1.0322.05216.0174.10488.0345.15811.0513v1.2245c0,.6876.34983,1.253.8621,1.6921.50568.4335,1.19787.7716,1.97979,1.0322,1.56754.5226,3.62521.7757,5.65811.7757s4.0906-.2531,5.6581-.7757c.7819-.2606,1.4741-.5987,1.9798-1.0322.5123-.4391.8621-1.0045.8621-1.6921v-3c-.0001-.7557-.4348-1.3558-1.0361-1.8044-.3491-.2605-.7724-.4851-1.2465-.6774.5519-.2261,1.0392-.4988,1.4205-.8256.5123-.4391.8621-1.0045.8621-1.6921v-3c0-.68066-.3539-1.23831-.8651-1.66945-.5054-.42619-1.1968-.75992-1.978-1.01816-1.5663-.5178-3.6229-.7738-5.6555-.77939-2.0325-.00559-4.08996.23904-5.65755.75438-.78191.25706-1.47449.59189-1.98062,1.02314zM19.917,16.8981c.3922-.1722.7645-.378,1.083-.6214v1.223c0,.3124-.1502.622-.5129.9329-.3418.2929-.8449.5604-1.4871.7884v-1.9829c.3261-.1022.6333-.2154.917-.34zM18,17.5045c-.7633.1719-1.5927.2946-2.4449.3702-.5099.0452-1.031.0739-1.5551.0859v2.0338c1.4316-.0306,2.828-.1921,4-.4784v-2.0115zm-7.458.2861c.7897.1005,1.6206.1579,2.458.1726v2.0312c-1.4316-.0306-2.828-.1921-4-.4784v-1.99c.49242.1092,1.0105.197,1.542.2646zM8,17.2623c-.54329-.1692-1.03633-.3708-1.45727-.6071-.18431-.0347-.36539-.0721-.54273-.1121v.9566c0,.3124.15017.622.5129.9329.34175.2929.84491.5604,1.4871.7884v-1.9587zm7.4667-.3837c-1.0523.0933-2.1555.1129-3.2251.0583,1.4303-.1045,2.7981-.3402,3.9165-.713.7819-.2606,1.4741-.5987,1.9798-1.0322.5123-.4391.8621-1.0045.8621-1.6921v-.684c.5645.1985,1.0267.4281,1.3659.6811.4554.3398.6341.6762.6341,1.0033,0,.4887-.4203,1.015-1.485,1.4825-1.0245.4498-2.4619.7554-4.0483.8961zM3,10.5189v-.0183h-.00018c0-.3437.18301-.68713.63556-1.02799.33845-.25492.80015-.48498,1.36462-.68272v.71031c0,.6876.34983,1.253.8621,1.6921.50568.4335,1.19787.7716,1.97979,1.0322,1.10296.3677,2.44861.602,3.85751.7086-1.0705.0577-2.17276.0419-3.22247-.0484-1.57454-.1355-2.99695-.4358-4.00922-.8841C3.43303,11.5424,3.01003,11.0207,3,10.5189zm0,1.7809v1.1998c0,.3124.15017.622.5129.9329.34175.2929.84491.5604,1.4871.7884v-1.9581c-.33379-.1038-.64779-.2196-.9372-.3478-.38548-.1707-.75024-.3745-1.0628-.6152zm7,3.6945c-1.43158-.0306-2.828-.1921-4-.4784v-1.9895c.74761.1657,1.55827.2829,2.3912.3546.52696.0454,1.06637.0727,1.6088.0822v2.0311zm1-2.0338v2.0338c1.4316-.0306,2.828-.1921,4-.4784v-2.0115c-.5166.1164-1.0618.2098-1.6216.2813-.7657.0979-1.569.1562-2.3784.1748zM17.4871,14.4325c-.3418.2929-.8449.5604-1.4871.7884V13.238c.5146-.1612.9838-.3505,1.389-.5695.2079-.0382.4118-.0799.611-.1248v.9559c0,.3124-.1502.622-.5129.9329zM21,9.5002V8.27788c-.4904.37497-1.1293.67397-1.8431.90993-.0517.01712-.1041.03395-.1569.05049v1.9832c.6422-.228,1.1453-.4955,1.4871-.7884.3627-.3109.5129-.62045.5129-.9329zm-3,2.0163c-1.172.2863-2.5684.4478-4,.4784V9.9608c1.3976-.03203,2.7866-.18282,4-.45608v2.01178zm-9,0c1.172.2863,2.5684.4478,4,.4784V9.96349c-1.3972-.02452-2.7863-.16801-4-.43713v1.99014zm-1-.295c-.64219-.228-1.14535-.4955-1.4871-.7884C6.15017,10.1222,6,9.81265,6,9.5002V8.30044c.49098.37836,1.13021.67777,1.84385.91238.05152.01693.10358.03358.15615.04994v1.95874z"/></svg>