<svg width="24" height="24" fill="none" xmlns="http://www.w3.org/2000/svg"><path d="m5.5,12.5H3m16.5,0h2.5m-9.49,7v2.5m0-16.5v-2.5M9.67,9.67c-.72.72-1.17,1.72-1.17,2.83,0,2.21,1.79,4,4,4,1.1,0,2.1-.45,2.83-1.17m0,0c-.72.72-1.72,1.17-2.83,1.17-2.21,0-4-1.79-4-4,0-1.11.45-2.11,1.17-2.83M7.55,7.55c-1.27,1.27-2.05,3.02-2.05,4.95,0,3.88,3.12,7,7,7,1.94,0,3.69-.78,4.95-2.05m-1.31-3.31c.23-.5.36-1.05.36-1.64,0-2.21-1.79-4-4-4-.59,0-1.14.13-1.64.36m7.49,7.49c.73-1.1,1.15-2.42,1.15-3.85,0-3.88-3.12-7-7-7-1.42,0-2.74.42-3.85,1.15m2.21,2.21c.5-.23,1.06-.36,1.64-.36,2.21,0,4,1.79,4,4,0,.59-.13,1.14-.36,1.64M5.08,5.08l14.85,14.85" stroke="#000"/></svg>