<svg width="36" height="36" xmlns="http://www.w3.org/2000/svg"><path fill-rule="evenodd" clip-rule="evenodd" d="m24.96,11.75H30v-1h-4.25l-.5-.5V6h-1v5.04l-2,2V9h-1v5.04l-.43.43C19.28,13.09,17.24,12.25,15,12.25c-4.83,0-8.75,3.92-8.75,8.75,0,4.83,3.92,8.75,8.75,8.75,4.83,0,8.75-3.92,8.75-8.75,0-2.24-.84-4.28-2.22-5.82l.43-.43H27v-1h-4.04l2-2zM15,13.25c1.96,0,3.75.73,5.12,1.93l-2.48,2.48c-.72-.57-1.64-.91-2.63-.91-2.35,0-4.25,1.9-4.25,4.25s1.9,4.25,4.25,4.25,4.25-1.9,4.25-4.25c0-.99-.34-1.91-.91-2.63l2.48-2.48C22.02,17.25,22.75,19.04,22.75,21c0,4.28-3.47,7.75-7.75,7.75-4.28,0-7.75-3.47-7.75-7.75,0-4.28,3.47-7.75,7.75-7.75zm0,4.5c.72,0,1.38.23,1.92.63l-1.46,1.46c-.14-.06-.3-.09-.46-.09-.69,0-1.25.56-1.25,1.25s.56,1.25,1.25,1.25,1.25-.56,1.25-1.25c0-.16-.03-.32-.09-.46l1.46-1.46c.39.54.63,1.2.63,1.92,0,1.8-1.45,3.25-3.25,3.25s-3.25-1.45-3.25-3.25,1.45-3.25,3.25-3.25zM14.75,21c0-.07.03-.13.07-.18l.35.35c-.05.05-.11.07-.18.07-.14,0-.25-.11-.25-.25z"/></svg>