<svg width="24" height="24" xmlns="http://www.w3.org/2000/svg"><path fill-rule="evenodd" clip-rule="evenodd" d="m9,6C9.02,5.45,9.47,5,10.04,5h2.93c.57,0,1.02.45,1.04,1H9zm-1,0C8.02,4.89,8.92,4,10.04,4h2.93c1.11,0,2.02.89,2.04,2h3.97c1.12,0,2.03.91,2.03,2.03V18.72c0,1.12-.91,2.03-2.03,2.03H4.03c-1.12,0-2.03-.91-2.03-2.03V8.03c0-1.12.91-2.03,2.03-2.03h3.97zm-5,2.03c0-.57.46-1.03,1.03-1.03H18.97c.57,0,1.03.46,1.03,1.03V11H14v-.73c0-.7-.57-1.27-1.27-1.27h-2.47c-.7,0-1.27.57-1.27,1.27V11H3V8.03zM9,12H3v6.72c0,.57.46,1.03,1.03,1.03H18.97c.57,0,1.03-.46,1.03-1.03V12H14v.73c0,.7-.57,1.27-1.27,1.27h-2.47c-.7,0-1.27-.57-1.27-1.27V12zm4,0v.73c0,.15-.12.27-.27.27h-2.47c-.15,0-.27-.12-.27-.27V12h3zm0-1h-3v-.73c0-.15.12-.27.27-.27h2.47c.15,0,.27.12.27.27V11z"/></svg>