<svg width="48" height="48" fill="none" xmlns="http://www.w3.org/2000/svg"><path fill-rule="evenodd" clip-rule="evenodd" d="m34.5,15.5c0-6.08-4.93-11-11-11s-11,4.93-11,11c.07,1.89.63,3.47,1.53,4.97l9.47,15.53,9.53-15.53c.89-1.55,1.45-3.17,1.47-4.97z" stroke="#000"/><path d="m17.1,30.5c-7.36.86-12.6,3.16-12.6,5.82,0,3.39,8.46,6.18,19,6.18,10.54,0,19-2.79,19-6.18,0-2.64-5.16-4.93-12.44-5.8" stroke="#000"/><path fill-rule="evenodd" clip-rule="evenodd" d="m28.5,11.5v8H25c-2.03,0-3.5-1.66-3.5-3.5v-1c0-2.08,1.75-3.5,3.5-3.5h3.5z" stroke="#000"/><path d="m32,13.5h-3.5m3.5,4h-3.5m-6.66-4h-2.35v4h2.36m-6.85-2h4.5" stroke="#000"/></svg>