<svg width="36" height="36" xmlns="http://www.w3.org/2000/svg"><path fill-rule="evenodd" clip-rule="evenodd" d="m21.75,10.2505c-4.6934,0-8.5,3.8066-8.5,8.5,0,4.6948,3.8066,8.5,8.5,8.5s8.5-3.8052,8.5-8.5c0-4.6934-3.8066-8.5-8.5-8.5zM4.5,19.2505h7.7629c.2601,5.0147,4.4092,9,9.4871,9,5.2456,0,9.5-4.2528,9.5-9.5,0-5.2457-4.2544-9.50001-9.5-9.50001-5.0779,0-9.2269,3.98671-9.4871,9.00001H4.5v1zM21.75,24.0001c2.8997,0,5.25-2.3502,5.25-5.25,0-2.8997-2.3503-5.25-5.25-5.25s-5.25,2.3503-5.25,5.25c0,2.8998,2.3503,5.25,5.25,5.25z"/></svg>