<svg width="36" height="36" xmlns="http://www.w3.org/2000/svg"><path fill-rule="evenodd" clip-rule="evenodd" d="m15.5994,3.32783c.9297-.30022,1.8762.29246,2.1133,1.19313l-.4835.12731.4835-.12731.0017.00651c.1805-.13182.3944-.22553.6357-.26554,2.1727-.36023,4.3957-.23894,6.5126.34085.6574.18004,1.0732.76089,1.1237,1.3896,2.1713.46064,3.9697,1.5339,5.1612,2.73352.6354.63977,1.1131,1.3305,1.3752,2.0023.2598.666.327,1.3696.0411,1.9742-.2888.6107-.8502,1.0265-1.4971,1.2988-.6502.2737-1.4356.4244-2.2616.4773-1.4681.0939-3.1427-.1166-4.5762-.5799-.1799.4436-.555.767-.9974.9086-.5807.1859-1.1341.4237-1.6528.7092-.2968.1633-.6171.2198-.922.1862l.0268.102c.1728.656-.0718,1.325-.5751,1.7401-.922.7602-1.7623,1.6188-2.5227,2.5507-.4096.502-1.0704.7455-1.7188.5792l-.8255-.2116c.0367.3063-.0161.6286-.1748.9274-.2788.525-.5099,1.0846-.6891,1.6713-.1446.4732-.4951.8752-.9823,1.0456.4793,1.4369.7135,3.1271.6433,4.6135-.0396.8377-.1769,1.6356-.4387,2.2975-.2601.6576-.6651,1.2335-1.2725,1.5333-.6034.2978-1.3095.2325-1.9766-.0276-.67303-.2625-1.36658-.7437-2.01029-1.384-1.21193-1.2055-2.30256-3.0295-2.77729-5.2292-.59842-.0724-1.1395-.4804-1.31602-1.1093-.59608-2.1236-.73785-4.3582-.40103-6.5468.04419-.2871.16407-.5372.33409-.7393-.57843-.403-.8866-1.147-.6524-1.8755C5.20347,9.80578,9.79102,5.20369,15.5994,3.32783zm8.8728,9.59817c1.3229.4379,2.9005.6421,4.2691.5545.7553-.0483,1.4222-.184,1.9375-.401.5186-.2183.8358-.4973.9811-.8046.1261-.2667.1339-.664-.0687-1.1832-.2004-.5135-.5882-1.09235-1.1531-1.6611-1.0468-1.05393-2.6507-2.02174-4.6025-2.44778L24.4722,12.926zm-10.5958,6.2053c.0133.0034.0265.007.0397.0107l2.1992.564c.2489.0638.5177-.0246.6957-.2428.7983-.9783,1.6844-1.8845,2.6613-2.6901.2214-.1825.3115-.4585.2443-.7139l-.3978-1.5107-.0014-.0053-2.1918-8.32482-.3799-1.4428c-.1037-.39379-.5016-.6051-.8389-.49615C10.406,6.05595,6.05743,10.4168,4.27987,15.946c-.11242.3497.10788.7527.4975.8526l9.09883,2.3332.0002-.0005zm.1072,1.79c.1728-.3254.0056-.7128-.332-.8147l-8.31598-2.1325-.00003.0001c-.33379-.0855-.65508.1339-.70105.4326-.31487,2.0459-.18254,4.1366.37545,6.1245.07564.2694.37564.449.68121.3749l.10118.4171-.10118-.4171,7.1243-1.7282c.1824-.0442.3391-.1906.4057-.4085.1975-.6464.4528-1.2653.7624-1.8482zm-7.62665,4.8524,5.86515-1.4228c.4551,1.3298.6834,2.9295.6176,4.3227-.0363.7687-.1611,1.4495-.3697,1.9769-.2103.5317-.4839.8557-.7852,1.0044-.2597.1281-.6514.1399-1.1707-.0626-.5134-.2002-1.09481-.5908-1.66837-1.1613-1.06402-1.0583-2.04724-2.6828-2.48878-4.6573zM18.0926,5.96377l2.1919,8.32483.0008.0031c.0965.3587.4911.5248.8113.3486.5764-.3173,1.1894-.5804,1.8301-.7855.2129-.0681.3583-.2262.4013-.4137l1.6486-7.18624c.0724-.31555-.1145-.61541-.3781-.6876-1.9793-.54212-4.0565-.65511-6.0848-.3188-.2895.04801-.5116.37167-.4211.71531z"/></svg>