<svg width="36" height="36" xmlns="http://www.w3.org/2000/svg"><path fill-rule="evenodd" clip-rule="evenodd" d="m13.97,9.77.59-1.61-1.36,1.05c-2.7,2.07-3.9,4.7-3.97,7.29-.07,2.58.98,5.1,2.71,6.99,1.73,1.9,4.16,3.19,6.87,3.29,2.72.1,5.66-1,8.41-3.78l1.48-1.5-2,.68c-1.79.61-3.49.68-5.04.36,1.29-1.1,2.1-2.79,2.1-4.53,0-3.13-2.62-5.75-5.75-5.75-1.73,0-3.26.78-4.3,1.94-.3-1.51-.23-3.04.28-4.42zm.04,5.64c.47,1.44,1.26,2.81,2.31,3.98,1.12,1.24,2.51,2.23,4.1,2.8,1.38-.85,2.32-2.49,2.32-4.19,0-2.57-2.17-4.75-4.75-4.75-1.68,0-3.15.9-3.99,2.16zM15.58,20.06c2.26,2.51,5.61,4.12,9.44,3.55-2.11,1.63-4.24,2.25-6.19,2.18-2.41-.09-4.59-1.24-6.16-2.97-1.57-1.72-2.51-4-2.45-6.29.05-1.88.77-3.8,2.4-5.48-.47,3.12.73,6.53,2.96,9.01z"/></svg>