<svg width="36" height="36" xmlns="http://www.w3.org/2000/svg"><path fill-rule="evenodd" clip-rule="evenodd" d="m26.3,6.09,5.1,5.1L18.81,28.52l-.98-.98-.28.05c-.33.06-.78.13-1.27.22-.87.15-1.86.31-2.49.41-.24.36-.55.82-.81,1.22-.15.23-.29.45-.39.6l-.16.25,0,0,0,0v0l-.42-.27.42.27-.34.51-.9-.9-2.04,1.36H4.31l3.29-4.94-.93-.93.52-.34.27.42-.27-.42h0l0,0,0,0,.01-.01.25-.16c.17-.11.4-.26.64-.42.4-.26.86-.55,1.18-.76.09-.57.25-1.54.4-2.41.08-.5.16-.97.22-1.31l.05-.31-.98-.98.47-.34,26.3,6.09zM10.83,20.54c-.05.27-.1.59-.16.92-.17,1-.36,2.12-.43,2.62l-.03.23-.2.12c-.3.18-.87.55-1.36.87-.14.09-.28.18-.4.26l3.67,3.67.22-.33c.31-.47.69-1.04.94-1.41l.12-.18.22-.03c.59-.09,1.71-.27,2.69-.44.3-.05.6-.1.85-.14l-6.13-6.13zm-2.5,6.5L6.19,30.25h2.66l1.62-1.08-2.13-2.13zM10.52,18.81l8.17,8.17,11.4-15.68-3.9-3.9L10.52,18.81zm6.34,2.54,9-9-.71-.71-9,9,.71.71z"/></svg>