<svg width="24" height="24" xmlns="http://www.w3.org/2000/svg"><path fill-rule="evenodd" clip-rule="evenodd" d="m5.12,5.83L3.15,3.85l.71-.71L18.85,18.15l-.71.71-4.46-4.46c-.52-.25-1.09-.39-1.69-.39-1.14,0-2.16.48-2.89,1.25l-.73-.69c.91-.96,2.19-1.56,3.62-1.56.1,0,.2,0,.3.01l-1.83-1.83c-1.38.31-2.6,1.02-3.54,2.01l-.73-.69c.93-.98,2.12-1.73,3.45-2.14L8.1,8.81c-1.27.54-2.41,1.33-3.35,2.31l-.73-.69c.94-.99,2.06-1.8,3.31-2.38L5.86,6.57c-1.22.66-2.33,1.5-3.28,2.49l-.73-.69c.95-1,2.06-1.85,3.27-2.54zM12,17c-.55,0-1,.45-1,1,0,.55.45,1,1,1,.55,0,1-.45,1-1,0-.55-.45-1-1-1zm-2,1c0-1.11.9-2,2-2,1.1,0,2,.89,2,2,0,1.1-.9,2-2,2-1.1,0-2-.9-2-2zM7.17,4.88C8.68,4.32,10.3,4,12,4c4,0,7.59,1.68,10.14,4.37l-.72.69C19.05,6.56,15.71,5,12,5c-1.58,0-3.08.3-4.48.82l-.35-.94zM12,7c-.81,0-1.6.09-2.36.26l.21.98c.69-.15,1.41-.24,2.15-.24,2.85,0,5.42,1.2,7.24,3.12l.73-.69c-2-2.11-4.83-3.43-7.97-3.43zm.5,4.03c1.8.13,3.41.92,4.58,2.15l.72-.69c-1.34-1.4-3.18-2.32-5.23-2.46l-.07,1z"/></svg>