<svg width="24" height="24" xmlns="http://www.w3.org/2000/svg"><path fill-rule="evenodd" clip-rule="evenodd" d="m17.9528,2.98779-.5244,1.03801c-.6149,1.21693-.3356,2.73878.5836,3.76977.8939,1.00256,2.4038,1.54301,4.2934.74421l1.1711-.49509-.5202,1.16019c-.5627,1.25512-1.6491,2.05572-2.7316,2.48822-.7392.2954-1.5218.4367-2.1907.4147.0032.0963.0014.1929-.0052.289-.0443.6417-.3086,1.2964-.8229,1.7926-.5199.5016-1.2634.8104-2.2058.8104v-1c.7141,0,1.1989-.2286,1.5115-.5301.3181-.3069.4905-.721.5196-1.1418.0293-.4244-.089-.8242-.3107-1.1022-.2115-.265-.5349-.4449-1.0004-.4262l-.6985.0279.1992-.67c.2414-.81192.1456-1.47626-.1168-1.97715-.2655-.50706-.7194-.88062-1.2494-1.07287-1.0482-.38022-2.3618-.04561-2.997,1.39429l-.2656.60198-.5089-.41711c-.96621-.79203-2.56594-.0479-2.38652,1.45396l.06682.5593h-.56329c-.34817,0-.63449.1685-.84507.4629-.21672.3029-.33994.7276-.3209,1.1654.01889.4343.17573.8468.47432,1.1477.29238.2945.76213.524,1.49165.524v1c-.95398,0-1.6936-.3079-2.20142-.8196-.50158-.5054-.73574-1.1679-.76361-1.8086-.02771-.6372.14657-1.2875.50666-1.7908.2743-.3834.66278-.68665,1.144-.81475.09212-1.85072,2.00727-2.89517,3.52276-2.17638.9357-1.5223,2.5899-1.90865,3.9447-1.43741.2835-.78211.6168-1.36933,1.0163-1.81117.4946-.54703,1.0603-.83749,1.6692-1.01977l1.1141-.33353zm1.9009,7.77671c-.7786.3111-1.5417.3922-2.055.3218-.0789-.1722-.1776-.3351-.2965-.4842-.2925-.3666-.6966-.63467-1.1897-.74644.1248-.80435-.0044-1.53168-.3226-2.13933-.2322-.44338-.559-.81139-.9423-1.09375.2654-.77094.5568-1.27147.8636-1.61079.0767-.08483.1558-.16115.2377-.23012-.2045,1.318.2351,2.69054,1.1167,3.67939.9292,1.04217,2.3433,1.65844,4.0118,1.40759-.41.39135-.9054.68875-1.4237.89585zM11.5,13h-.2071l-.1465.1465-2.99996,3L7.29289,17h2.70721l-1.06113,1.4151-2.45309,3.2712,6.49902-5.2988,1.0886-.8875h-2.3664l2.5-2.5H11.5zm-1.7929,3h.08579l.35351-.3535L11.7929,14h-.0858l-2,2z"/></svg>