<svg width="24" height="24" xmlns="http://www.w3.org/2000/svg"><path fill-rule="evenodd" clip-rule="evenodd" d="m12,4c-.5529,0-1,.44714-1,1v2h2V5c0-.55286-.4471-1-1-1zm-2,1c0-1.10514.8949-2,2-2s2,.89486,2,2v1h5.5C20.8801,6,22,7.11986,22,8.5v9c0,1.3801-1.1199,2.5-2.5,2.5h-15C3.11986,20,2,18.8801,2,17.5v-9C2,7.11986,3.11986,6,4.5,6H10V5zm4,2.5V7h5.5c.8279,0,1.5.67214,1.5,1.5v9c0,.8279-.6721,1.5-1.5,1.5h-6.5747c-.2316-1.8465-1.094-3.4571-2.3517-4.3246C10.8469,14.1837,11,13.5989,11,13c0-1.5474-1.02162-3-2.5-3S6,11.4526,6,13c0,.5989.15303,1.1836.42635,1.6754-1.24432.8582-2.10167,2.4438-2.34399,4.2656C3.45743,18.7599,3,18.183,3,17.5v-9C3,7.67214,3.67214,7,4.5,7H10v1h4v-.5zM5.08341,19h6.83319c-.2314-1.6182-1.0016-2.9042-1.97363-3.5432C9.54643,15.7949,9.05546,16,8.5,16c-.55549,0-1.0465-.2051-1.44305-.5432-.97197.6389-1.74222,1.9249-1.97354,3.5432zM13,13h4v-1h-4v1zm6,2h-6v-1h6v1zM7,13c0-1.2146.77038-2,1.5-2s1.5.7854,1.5,2-.77038,2-1.5,2S7,14.2146,7,13z"/></svg>