<svg width="24" height="24" xmlns="http://www.w3.org/2000/svg"><path fill-rule="evenodd" clip-rule="evenodd" d="m2,12C2,6.47715,6.47715,2,12,2c5.5228,0,10,4.47715,10,10,0,5.5228-4.4772,10-10,10-3.82287,0-7.29204-2.1503-9-5.319V19H2v-4h4v1H3.77258C5.26326,18.9555,8.46,21,12,21c4.9706,0,9-4.0294,9-9,0-4.97056-4.0294-9-9-9-4.97056,0-9,4.02944-9,9H2zm7.5-7h-.37715l-.10361.36264-2,6.99996L6.83713,13h4.05297l-.8804,4.4019-.43229,2.1616L10.9,17.8,17.5,9h-4.191l1.6382-3.27639L15.309,5H9.5zm-1.33713,7,1.71428-6H13.691l-1.6382,3.27639L11.691,10H15.5l-4.0774,5.4365.5677-2.8384L12.1099,12H8.16287z"/></svg>