<svg width="24" height="24" xmlns="http://www.w3.org/2000/svg"><path fill-rule="evenodd" clip-rule="evenodd" d="m11.8,3.1L11,2.51v5.29l-3-1V10.5c0,1.93,1.57,3.5,3.5,3.5,1.96,0,3.32-1.6,3.5-3.44,0-.01,0-.02.01-.04.01-.04.01-.09.02-.16.01-.13.03-.32.03-.56.01-.47-.02-1.13-.17-1.88-.3-1.5-1.11-3.37-3.09-4.83zm2.21,7.32,0,.01v0l0,0,0,.02,0,.02C13.87,11.91,12.84,13,11.5,13,10.12,13,9,11.88,9,10.5V8.19l3,1V4.58c1.16,1.14,1.68,2.45,1.9,3.54.13.66.16,1.24.15,1.66,0,.21-.02.37-.03.48-.01.06-.01.1-.01.12l0,.03zM9.5,15h-.61l1.2,6h2.82l1.2-6H9.5zm1.41,5-.8-4h2.78l-.8,4h-1.18z"/></svg>