<svg width="24" height="24" xmlns="http://www.w3.org/2000/svg"><path fill-rule="evenodd" clip-rule="evenodd" d="m16,2v2h1V2h-1zm-.01,5.71679c-.2567-.49024-.6291-.88835-1.0657-1.18041C15.3472,6.20005,15.891,6,16.4999,6c1.4148,0,2.5,1.08514,2.5,2.5,0,1.01914-.5621,1.8619-1.3973,2.2573-.0339-.0517-.0699-.1021-.1082-.151-.2885-.3688-.6899-.63776-1.1818-.74992.1248-.80445-.0043-1.53187-.3226-2.13959zm2.0097,4.68501c.0185-.2371.0076-.4771-.0337-.7109,1.2158-.5451,2.0339-1.75516,2.0339-3.1909,0-1.96714-1.5329-3.5-3.5-3.5-1.0161,0-1.9234.40968-2.5595,1.08641-1.3114-.36184-2.8446.06034-3.7319,1.50382-1.51593-.71889-3.43066.3254-3.52265,2.17629-.48122.1281-.86969.43138-1.14398.81478-.3601.5033-.53437,1.1536-.50666,1.7907.02786.6407.26202,1.3033.76361,1.8087.50781.5116,1.24743.8196,2.20141.8196h6.99997c.9266,0,1.6602-.3111,2.1749-.812.5085-.4949.7747-1.1471.8246-1.7865zm-4.145-5.29395c-1.0482-.38023-2.3618-.04562-2.997,1.39429l-.2655.60174-.5088-.41676c-.96736-.79234-2.56611-.04791-2.3867,1.45388l.06682.5593h-.56329c-.34817,0-.63449.1685-.84507.4628-.21672.3029-.33994.7277-.3209,1.1655.01889.4343.17573.8468.47433,1.1476.29237.2946.76212.5241,1.49164.5241h6.99997c.6914,0,1.1669-.2264,1.4774-.5286.3168-.3082.4921-.7248.5252-1.1478.0333-.4265-.0802-.8256-.296-1.1014-.2049-.2619-.5216-.4412-.9866-.4226l-.6984.028.1992-.6701c.2413-.81185.1455-1.4762-.1168-1.97708-.2656-.50707-.7195-.88063-1.2495-1.07287zm-.9312-1.48356-1.441-1.386.6932-.72072,1.441,1.386-.6932.72072zm6.5159,6.59301,1.414,1.414.7071-.7071-1.414-1.414-.7071.7071zM21,8h2v1h-2V8zm-.2579-4.46488-1.414,1.414.7071.70711,1.414-1.414-.7071-.70711zM5.05278,17.7764l1-2,.89443.4472-1,2-.89443-.4472zm5.00002-2-1.00002,2,.89443.4472.99999-2-.8944-.4472zm-4.00002,4,2-4,.89443.4472-2,4-.89443-.4472zM13,16c-.5521,0-1,.4479-1,1s.4479,1,1,1,1-.4479,1-1-.4479-1-1-1zm3,1c0-.5521.4479-1,1-1s1,.4479,1,1-.4479,1-1,1-1-.4479-1-1zm-1,2c-.5521,0-1,.4479-1,1s.4479,1,1,1,1-.4479,1-1-.4479-1-1-1z"/></svg>