<svg width="24" height="24" xmlns="http://www.w3.org/2000/svg"><path fill-rule="evenodd" clip-rule="evenodd" d="m8.43254,1.99951h3.43506l.1096.35086,2.3904,7.64914H20c.6184,0,1.1346.21169,1.4928.60079.3521.3823.5072.8874.5072,1.3992,0,.5122-.1551,1.0174-.5072,1.3998C21.1345,13.7885,20.6182,14,20,14l-5.6324-.0005-2.3904,7.6491-.1096.3509H8.43359l.07027-.562.92973-7.436H6.30902l-.86181,1.7236-.13819.2764H2.2419l.29849-.6969,1.41565-3.305L2.54043,8.69647l-.2987-.69696h3.06729l.13819.2764.86181,1.7236h3.12452l-1.001-8zm1.13292,1,.93064,7.43789.0704.5621H5.69098l-.13819-.2764-.86181-1.72359h-.93271l1.2013,2.80309.08439.1969-.08435.1969L3.7581,15.0015h.93288l.86181-1.7236.13819-.2764h4.87542l-.0703.562-.92969,7.436h1.56599l2.3904-7.6491.1096-.3509H14L20,13c.3818,0,.6155-.1242.7572-.2781.1479-.1606.2428-.4056.2428-.7224,0-.3162-.0949-.5611-.2428-.7218-.1418-.1539-.3756-.2782-.7572-.2782h-6.3676l-.1096-.3509-2.3904-7.64909H9.56546z"/></svg>