<svg width="24" height="24" xmlns="http://www.w3.org/2000/svg"><path fill-rule="evenodd" clip-rule="evenodd" d="m11.4998,3.98022.1374.03925,7,2,.5021.14346-.1651.49542-1,3-.114.34185h-1.3694c-1.2446,1.5138-3.0006,2.5-4.991,2.5-1.9903,0-3.74637-.9862-4.99092-2.5H5.13945l-.11396-.34185L3.86035,6.16293,11.3625,4.01947l.1373-.03925zM5.86021,9.00023H17.1395l.7209-2.1627-6.3606-1.81729L5.13931,6.83753l.7209,2.1627zm2.01576.99997c1.00955.9437,2.26503,1.5,3.62383,1.5s2.6143-.5563,3.6239-1.5H7.87597zm2.62383-2.99997c0-.55214.4479-1,1-1,.5522,0,1,.44786,1,1s-.4478,1-1,1c-.5521,0-1-.44786-1-1zm6.9425,8.69937c-.1255.6085-.2893,1.2072-.5206,1.5696l-.0015.0023c-1.9545,3.0259-4.1925,3.7287-5.43,3.7287-1.2364,0-3.47451-.7028-5.42897-3.7287l-.00059-.0009c-.2321-.361-.39607-.9597-.5215-1.5675-.13075-.6335-.23577-1.3652-.31766-2.0533-.08207-.6897-.14183-1.3438-.18106-1.825-.01964-.2408-.03416-.4387-.0438-.5767-.00482-.069-.00842-.1231-.01082-.16l-.00271-.0424-.00069-.0111-.00018-.0029-.00005-.0008-.00001-.0002c-.00001-.0001-.00001-.0002.49907-.0305l.49908-.0303.00001.0001.00003.0006.00015.0024.00062.01.00258.0402c.0023.0355.00579.0879.01049.1552.00941.1347.02364.3287.04292.5651.03858.4733.09719,1.1144.17737,1.7882.08036.6753.18146,1.3754.30402,1.9693.12781.6193.26426,1.0434.38311,1.2285,1.79143,2.7732,3.72919,3.2707,4.58859,3.2707.8605,0,2.7979-.4975,4.5891-3.2699.1197-.1882.2561-.6142.3836-1.2327.1226-.5943.2237-1.2942.3041-1.9691.0802-.6732.1388-1.3136.1774-1.7862.0192-.2361.0335-.4298.0429-.5643.0047-.0672.0082-.1196.0105-.155l.0025-.0401.0007-.01.0001-.0024V10.97l.0001-.0001.499.0303c.4991.0304.4991.0304.4991.0305v.0002l-.0001.0008-.0001.003-.0007.011-.0027.0423c-.0024.0369-.006.0909-.0109.1598-.0096.1378-.0241.3354-.0438.5759-.0392.4805-.099,1.1338-.181,1.8231-.0819.6876-.1869,1.4189-.3177,2.0528zm-7.94267-1.4999c.11123,0,.2-.0899.2-.2s-.08986-.2-.2-.2-.2.0899-.2.2.08878.2.2.2zm-.8-.2c0-.44.35678-.8.8-.8s.79997.36.79997.8c0,.4422-.35783.8-.79997.8s-.8-.3578-.8-.8zm4.79997.2c.1113,0,.2-.0899.2-.2s-.0898-.2-.2-.2c-.1101,0-.2.0899-.2.2s.0888.2.2.2zm-.8-.2c0-.44.3568-.8.8-.8.4433,0,.8.36.8.8,0,.4422-.3578.8-.8.8-.4421,0-.8-.3578-.8-.8zm-1.2,2.9998c.9764,0,1.7749-.3456,2.1855-.7881l.733.6802c-.6453.6955-1.7388,1.1079-2.9185,1.1079-1.1114,0-2.14003-.3656-2.79499-.9832l.68604-.7276c.43104.4065,1.19445.7108,2.10895.7108z"/></svg>