<svg width="24" height="24" xmlns="http://www.w3.org/2000/svg"><path fill-rule="evenodd" clip-rule="evenodd" d="m2,7.5C2,6.11986,3.11986,5,4.5,5h15C20.8801,5,22,6.11986,22,7.5v10c0,1.3801-1.1199,2.5-2.5,2.5h-15C3.11986,20,2,18.8801,2,17.5v-10zM4.5,6C3.67214,6,3,6.67214,3,7.5v10c0,.8279.67214,1.5,1.5,1.5h15c.8279,0,1.5-.6721,1.5-1.5v-10c0-.82786-.6721-1.5-1.5-1.5h-15zM8,12V7h-.9c-.073.334-.215.573-.427.715-.148.097-.309.168-.485.212-.178.044-.406.068-.688.074v.726h1.354V12H8zm6.1945,1.388c-.324-.258-.729-.388-1.214-.388-.546,0-.992.158-1.335.476-.354.323-.53.782-.53,1.375v.106h.999c.018-.724.293-1.085.83-1.085.219,0,.394.066.528.198.135.133.202.306.202.52,0,.184-.049.347-.15.487-.099.141-.273.291-.523.455-.512.338-.855.571-1.026.698-.173.126-.323.257-.451.39-.166.174-.295.382-.386.621-.093.24-.138.493-.138.759h3.75v-.869h-2.443c.122-.148.252-.277.393-.391.142-.113.376-.277.704-.491.344-.224.556-.367.637-.426.081-.058.168-.136.259-.235.284-.299.424-.655.424-1.067,0-.476-.177-.853-.53-1.133zm-7.8208,3.9442,8-9.00002-.7474-.66436-8,8.99998.7474.6644z"/></svg>