<svg width="36" height="36" xmlns="http://www.w3.org/2000/svg"><path fill-rule="evenodd" clip-rule="evenodd" d="m17.2501,6.23035.1373.03924,10.5,3,.5022.14347-.1652.49541-1.5,4.50003-.1139.3419h-1.9929c-1.8321,2.2751-4.4301,3.75-7.3675,3.75-2.9375,0-5.5354-1.4749-7.36758-3.75H7.8897l-.11397-.3419-1.5-4.50003-.16513-.49541.50211-.14347,10.49999-3,.1374-.03924zm-6.0415,8.52005c1.6197,1.7121,3.729,2.75,6.0415,2.75s4.4217-1.0379,6.0414-2.75H11.2086zm-3.81905-4.6627,1.2209,3.6627H25.8897l1.2209-3.6627-9.8605-2.81734L7.38955,10.0877zm9.86055.1627c-.1379,0-.25.1121-.25.25,0,.1378.1121.25.25.25.1378,0,.25-.1122.25-.25,0-.1379-.1122-.25-.25-.25zM16.0001,10.5004c0-.69019.5598-1.25005,1.25-1.25005.6901,0,1.25.55986,1.25,1.25005,0,.6901-.5599,1.25-1.25,1.25-.6902,0-1.25-.5599-1.25-1.25zm9.9189,12.9985c-.1889.9155-.4279,1.7705-.7468,2.2704l-.0015.0023c-2.891,4.4758-6.1731,5.4788-7.935,5.4788-1.7605,0-5.0426-1.003-7.93353-5.4788l-.00058-.0009c-.31986-.4975-.55895-1.352-.7477-2.2666-.19408-.9403-.35064-2.0299-.47309-3.0589-.12264-1.0306-.21199-2.0086-.27067-2.7283-.02936-.3601-.05108-.656-.06548-.8622-.0072-.1031-.01257-.1838-.01614-.2388l-.00404-.063-.00102-.0164-.00026-.0042-.00007-.0012-.00002-.0003c0-.0001-.00001-.0001.49908-.0304l.49908-.0303.00001.0002.00005.0008.00023.0038.00096.0153.00389.0608c.00348.0536.00874.1327.01582.2341.01417.2028.0356.4948.0646.8505.05803.7118.14624,1.6768.26698,2.6914.12093,1.0163.27356,2.0743.45945,2.975.19108.9258.40258,1.6056.60905,1.9273,2.728,4.2233,5.7099,5.0211,7.0934,5.0211,1.3849,0,4.3664-.7977,7.0942-5.0201.2073-.3257.4188-1.0079.6097-1.9334.1859-.9014.3385-1.9591.4595-2.9746.1207-1.0138.2089-1.9776.2669-2.6885.029-.3552.0505-.6468.0646-.8493.0071-.1012.0124-.1802.0159-.2337l.0038-.0607.001-.0153.0002-.0037.0001-.0009V16.47l.4991.0304c.4991.0303.4991.0304.499.0305v.0014l-.0003.0043-.001.0163-.0041.0629c-.0035.055-.0089.1355-.0161.2385-.0144.2058-.0361.5013-.0655.8609-.0587.7188-.148,1.6956-.2707,2.7254-.1224,1.0282-.279,2.1174-.473,3.0583zm-11.6692-2.4493c.0282,0,.05-.0224.05-.05,0-.0271-.0229-.05-.05-.05-.0272,0-.05.0229-.05.05,0,.0276.0217.05.05.05zM13.2998,20.9996c0-.5226.4237-.95.95-.95.5262,0,.95.4274.95.95,0,.5251-.4249.95-.95.95-.5252,0-.95-.4249-.95-.95zM20.2498,21.0496c.0282,0,.05-.0224.05-.05,0-.0271-.0229-.05-.05-.05-.0272,0-.05.0229-.05.05,0,.0276.0217.05.05.05zm-.95-.05c0-.5226.4238-.95.95-.95s.95.4274.95.95c0,.5251-.4249.95-.95.95-.5252,0-.95-.4249-.95-.95zm-2.05,4.7497c1.5153,0,2.7869-.5351,3.4615-1.2621l.733.6802c-.9094.98-2.4759,1.5819-4.1945,1.5819-1.618,0-3.0946-.5331-4.021-1.4067l.686-.7276c.7025.6625,1.914,1.1343,3.335,1.1343z"/></svg>