<svg width="24" height="24" xmlns="http://www.w3.org/2000/svg"><path fill-rule="evenodd" clip-rule="evenodd" d="m2,4h20v5h-.5c-1.42,0-2.5,1.08-2.5,2.5,0,1.42,1.08,2.5,2.5,2.5h.5v5H2V4zm1,1V18h18v-3.03c-1.73-.23-3-1.66-3-3.47,0-1.81,1.27-3.23,3-3.47V5H3zm10,2v-1h-1v1h-1v1h1v1h1v-1h1v-1h-1zm4,0v-1h-1v1h1zm0,1v1h-1v-1h1zm0,3v-1h-1v1h1zm0,1v1h-1v-1h1zm0,3v-1h-1v1h1zm0,1v1h-1v-1h1zm-3-2v-1h1v-1h-1v-1h-1v1h-1v1h1v1h1zM8.5,8c-2.49,0-4.5,2.01-4.5,4.5,0,2.49,2.01,4.5,4.5,4.5,1.16,0,2.2-.45,3-1.16l.86-.77-1.15-.1C9.41,14.82,8,13.33,8,11.5c0-1.03.45-1.95,1.17-2.59l.86-.77L8.88,8.04c-.03,0-.05-.01-.09-.01h0l-.06-.01c-.06-.01-.14-.02-.23-.02zM5,12.5c0-1.66,1.16-3.05,2.71-3.41C7.26,9.78,7,10.61,7,11.5c0,1.93,1.22,3.56,2.92,4.19-.43.2-.91.31-1.42.31-1.93,0-3.5-1.57-3.5-3.5z"/></svg>