<svg width="36" height="36" xmlns="http://www.w3.org/2000/svg"><path fill-rule="evenodd" clip-rule="evenodd" d="m11.794,4.26103c1.0741-.6212,2.4208-.08241,3.0422.99294l.0001.00011,2.6354,4.5629c0,.00003.0001.00006.0001.0001.6222,1.07682.4117,2.51192-.663,3.13112-.0002.0001-.0003.0002-.0005.0003l-2.9603,1.711-.0014.0009c-.0513.0294-.1318.1444-.0677.3227l.0001.0003c.5431,1.5147,1.2609,3.076,2.1567,4.6286M11.794,4.26103c-.0002.00013-.0004.00026-.0007.00039l.0007-.00039zm-.0007.00039-2.56246,1.4738-.00124.00072c-.1735.10044-.29706.22758-.38754.33085C7.27739,7.46568,6.77603,10.0124,7.08811,12.9193c.31718,2.9546,1.48479,6.4226,3.44269,9.8148v.0001c1.9579,3.3907,4.3774,6.1355,6.7776,7.8873,2.362,1.7238,4.8189,2.563,6.8127,1.9064.1474-.0303.318-.0805.4866-.1798l2.551-1.4719.0033-.0019c1.0513-.6174,1.2834-2.0471.6584-3.1305l-.0001-.0001-2.6339-4.5629s0-.0001-.0001-.0001c-.6223-1.0786-1.9695-1.6121-3.0423-.9931h-.0001l-2.961,1.7085-.0012.0007c-.0534.031-.1915.0432-.3155-.1024-1.0392-1.2262-2.033-2.6296-2.9305-4.1824M13.9704,5.75432c-.4134-.71542-1.1903-.90863-1.6761-.62744l-.0012.0007L9.73064,6.60136c-.00016.00009-.00031.00018-.00047.00027-.03921.0228-.08018.05907-.15265.1434l-.02279.02652-.02625.02309C8.31765,7.8593,7.77932,9.9895,8.08239,12.8126c.29969,2.7916,1.41283,6.1268,3.31451,9.4216,1.9015,3.2932,4.2333,5.9244,6.5011,7.5795,2.2934,1.6738,4.4076,2.2727,5.9346,1.7563l.0327-.0111.034-.0064c.0962-.0184.1568-.0399.2018-.0666l.0048-.0029v.0001l2.5497-1.4711.0015-.0009c.4803-.2833.7067-1.0577.2971-1.7676l-2.6339-4.5629-.0001-.0001c-.4127-.7153-1.1894-.9078-1.6765-.6268l-2.9598,1.7078c-.0003.0002-.0006.0004-.001.0006-.5404.3132-1.1964.1299-1.5792-.3208l-.0003-.0004c-1.0788-1.2728-2.1069-2.7254-3.0335-4.3286l-.0002-.0003c-.925-1.6032-1.6682-3.2187-2.232-4.7908m1.1327-9.56688,2.6354,4.56288.0001.0001c.4126.7141.1912,1.4837-.2966,1.7645l-.0007.0005-2.9596,1.7106c-.0002.0002-.0004.0003-.0007.0004-.5391.3097-.7104.9713-.5106,1.5276"/></svg>