<svg width="48" height="48" xmlns="http://www.w3.org/2000/svg"><path fill-rule="evenodd" clip-rule="evenodd" d="m14.95,4.54341c.4579-1.2718,1.8768-1.86953,3.1091-1.36398C30.2878,8.19616,40.0085,18.0932,44.8345,30.4578c.4839,1.2398-.1272,2.6552-1.4028,3.0978L40.1341,34.7c-.8281.2874-1.7224.0823-2.3357-.4768L5.70603,44.8925l-.15739-.4734.15736.4734c-1.6293.5416-3.1554-1.0356-2.58422-2.6485L14.4033,10.3862c-.6975-.61961-.9701-1.62988-.6398-2.54717L14.95,4.54341zm.3364,6.34489-5.1495,14.5414,2.2168,2.2168-.7071.7071-1.87949-1.8795-2.31898,6.5485C9.45617,33.236,11.0205,34.9353,11.0205,37c0,2.2091-1.79091,4-4.00005,4-.79995,0-1.54556-.2352-2.17073-.6398l-.7853,2.2176-.47132-.1669.47132.1669c-.29678.8381.49634,1.6416,1.32613,1.3658l8.60965-2.8623V38h1v2.7488l9.85-3.2747c-.5306-.6779-.85-1.5313-.85-2.4633,0-2.2153,1.7889-4.0147,4-4.0147,2.2112,0,4,1.7994,4,4.0147,0,.029-.0004.0579-.0011.0866l5.2101-1.7321c-3.9822-10.1412-11.9277-18.2775-21.9228-22.477zm15.6759,24.5538c.0244-.1431.0379-.2864.0379-.4313,0-1.667-1.3451-3.0147-3-3.0147s-3,1.3478-3,3.0147c0,.8288.3363,1.576.8796,2.121l5.0825-1.6897zM5.19618,39.3818c.50566.388,1.13769.6182,1.82427.6182,1.65686,0,3.00005-1.3431,3.00005-3,0-1.6297-1.29954-2.9559-2.91887-2.9989l-1.90545,5.3807zM17.6796,4.1046c-.7208-.29569-1.5292.05694-1.7887.77757l-1.1866,3.29561c-.2434.67627.082,1.42153.7272,1.68776C25.7904,14.1398,34.0279,22.5269,38.1405,33.0009c.2567.6539.9933.9877,1.6658.7543l3.2976-1.1443c.7184-.2493,1.085-1.0568.7991-1.7895C39.176,18.7108,29.6544,9.01716,17.6796,4.1046zM16.0002,19.5c0-1.3807,1.1193-2.5,2.5-2.5s2.5,1.1193,2.5,2.5-1.1193,2.5-2.5,2.5-2.5-1.1193-2.5-2.5zm2.5-3.5c-1.933,0-3.5,1.567-3.5,3.5s1.567,3.5,3.5,3.5,3.5-1.567,3.5-3.5-1.567-3.5-3.5-3.5zm-3.5,14.5c0-1.3807,1.1193-2.5,2.5-2.5s2.5,1.1193,2.5,2.5-1.1193,2.5-2.5,2.5-2.5-1.1193-2.5-2.5zm2.5-3.5c-1.933,0-3.5,1.567-3.5,3.5s1.567,3.5,3.5,3.5,3.5-1.567,3.5-3.5-1.567-3.5-3.5-3.5zm12.5,2h-4v-1h4v1zm-6.416-5.7226,2,3,.832-.5547-2-3-.832.5547z"/></svg>