<svg width="48" height="48" xmlns="http://www.w3.org/2000/svg"><path fill-rule="evenodd" clip-rule="evenodd" d="m5.31537,10.5355c12.17383-4.83699,24.30573-4.92279,36.37353.0017l.3111.127v31.336H31v-6H16v6H5V10.6608l.31537-.1253zM6,11.3406v29.6596h9v-6h17v6h9V11.3373c-11.6132-4.65419-23.269-4.57758-35,.0033zm17,2.6756c-1.0032.066-1.9526.3293-2.8096.7515l.9926,1.7193-.866.5-.9922-1.7184c-.8117.5449-1.511,1.2443-2.056,2.056l1.7185.9921-.5.8661-1.7193-.9927c-.4222.8571-.6855,1.8064-.7516,2.8097H18v1h-1.9836c.066,1.0033.3293,1.9527.7514,2.8097l1.7195-.9928.5.8661-1.7187.9923c.5451.8118,1.2446,1.5113,2.0565,2.0563l.9919-1.718.866.5-.9923,1.7187c.857.422,1.8062.6852,2.8093.7513v-1.9836h1v1.9836c1.0031-.0661,1.9523-.3293,2.8093-.7513l-.9923-1.7187.866-.5.9919,1.718c.8119-.545,1.5114-1.2444,2.0565-2.0563l-1.7187-.9923.5-.8661,1.7195.9928c.4221-.857.6854-1.8064.7514-2.8097H29v-1h1.9836c-.0661-1.0033-.3294-1.9526-.7516-2.8097l-1.7193.9927-.5-.8661,1.7185-.9921c-.545-.8117-1.2443-1.5111-2.056-2.056l-.9922,1.7184-.866-.5.9926-1.7193c-.857-.4222-1.8064-.6855-2.8096-.7515v1.9836h-1v-1.9836zM15,21.4998c0-4.6942,3.8059-8.5,8.5-8.5s8.5,3.8058,8.5,8.5c0,4.6951-3.8059,8.5-8.5,8.5s-8.5-3.8049-8.5-8.5zm8.8538.3536,3.524-3.523-.7071-.7072-3.2463,3.2454-2.1334-1.297-.5195.8545,2.469,1.5009.3355.204.2778-.2776z"/></svg>