<svg width="36" height="36" xmlns="http://www.w3.org/2000/svg"><path fill-rule="evenodd" clip-rule="evenodd" d="m19.25,11.25c0-3.07,2.43-5.5,5.5-5.5,3.07,0,5.5,2.43,5.5,5.5,0,3.07-2.43,5.5-5.5,5.5-3.07,0-5.5-2.43-5.5-5.5zm5.5-6.5c-3.62,0-6.5,2.88-6.5,6.5,0,3.62,2.88,6.5,6.5,6.5,3.62,0,6.5-2.88,6.5-6.5,0-3.62-2.88-6.5-6.5-6.5zm.39,7.56,2.85-3.6-.78-.62-2.52,3.18-2.45-2.2-.67.75,3.24,2.9.33-.42zM18.25,22.76h13v8.49h-13v-8.49zm1,1v6.49h11v-6.49h-11zm3.25-1.5h4.5v-1h-4.5v1zM8.25,8.75c-.55,0-1,.45-1,1,0,.55.45,1,1,1s1-.45,1-1c0-.55-.45-1-1-1zm-2,1c0-1.11.9-2,2-2,1.1,0,2,.89,2,2,0,1.1-.9,2-2,2s-2-.9-2-2zm-1,4h-.5v8.5h1.5v9h4v-9h1.5v-8.5H5.25zm.5,7.5v-6.5h5v6.5H9.25V30.25h-2v-9h-1.5z"/></svg>