<svg width="24" height="24" xmlns="http://www.w3.org/2000/svg"><path fill-rule="evenodd" clip-rule="evenodd" d="m15,5.5c0-.83.67-1.5,1.5-1.5s1.5.67,1.5,1.5S17.33,7,16.5,7,15,6.33,15,5.5zM16.5,3C15.12,3,14,4.12,14,5.5c0,.27.04.53.12.78L8.25,9.72C7.8,9.27,7.18,9,6.5,9,5.12,9,4,10.12,4,11.5S5.12,14,6.5,14c.73,0,1.39-.31,1.85-.82l5.8,3.47c-.09.26-.15.55-.15.84,0,1.38,1.12,2.5,2.5,2.5s2.5-1.12,2.5-2.5S17.88,15,16.5,15c-.73,0-1.38.31-1.84.8l-5.8-3.48C8.95,12.07,9,11.79,9,11.5c0-.34-.07-.66-.19-.95l5.81-3.4C15.08,7.67,15.75,8,16.5,8,17.88,8,19,6.88,19,5.5S17.88,3,16.5,3zm0,13c-.83,0-1.5.67-1.5,1.5s.67,1.5,1.5,1.5,1.5-.67,1.5-1.5-.67-1.5-1.5-1.5zM5,11.5c0-.83.67-1.5,1.5-1.5s1.5.67,1.5,1.5S7.33,13,6.5,13,5,12.33,5,11.5z"/></svg>