<svg width="36" height="36" xmlns="http://www.w3.org/2000/svg"><path fill-rule="evenodd" clip-rule="evenodd" d="m6.43046,6.40748C6.00487,6.82427,5.75,7.3407,5.75,7.8v1.45h24.5V7.8c0-.13171-.0511-.33028-.1799-.57528-.1254-.23856-.3078-.48951-.5265-.71786C29.0846,6.0275,28.57,5.75,28.2,5.75H7.8c-.42381,0-.9425.23928-1.36954.65748zM8.55902,15.25l-2.5-5H29.941l-2.5,5H8.55902zm.05136,1-2.66667,8H30.0563l-2.6667-8H8.61038zM5.75,28.2v-2.95h24.5v2.8c0,.4312-.238.9924-.6555,1.4576-.417.4647-.9296.7424-1.3945.7424H7.8c-.49714,0-1.01292-.2416-1.41223-.6428C5.98812,29.2056,5.75,28.6893,5.75,28.2zM5.73079,5.69302C6.28251,5.15272,7.03881,4.75,7.8,4.75h20.4c.776,0,1.5364.51225,2.0659,1.06527.2756.28783.5157.61373.6894.94428.1703.3241.2947.68691.2947,1.04045v2.06803l-.0528.10558-2.9074,5.81479,2.9345,8.8035.0257.077V28.05c0,.7463-.3815,1.5351-.9112,2.1255-.5303.591-1.2927,1.0745-2.1388,1.0745H7.8c-.81386,0-1.57308-.3869-2.12102-.9374C5.13138,29.7624,4.75,29.0037,4.75,28.2v-3.5311l.02566-.077,2.93451-8.8035,4.75,9.86803V7.8c0-.8067.42763-1.56527.98079-2.10698zM24,28.25h3v-1h-3v1z"/></svg>