<svg width="36" height="36" xmlns="http://www.w3.org/2000/svg"><path fill-rule="evenodd" clip-rule="evenodd" d="m8.01893,6.51893C7.53254,7.00532,7.25,7.78854,7.25,9v7.7507h21.5V9c0-1.21146-.2825-1.99468-.7689-2.48107S26.7115,5.75,25.5,5.75h-15c-1.21146,0-1.99468.28254-2.48107.76893zM7.25,27.25v-9.4993h21.5V27.25H7.25zm.06182-21.43818C8.06068,5.06296,9.15246,4.75,10.5,4.75h15c1.3475,0,2.4393.31296,3.1882,1.06182C29.437,6.56068,29.75,7.65246,29.75,9v4.75h1.5v2.5h-1.5v14.9993h-5.4985V28.25H11.75v2.9993h-5.5V16.25h-1.5v-2.5h1.5V9c0-1.34754.31296-2.43932,1.06182-3.18818zM29.75,15.25h.5v-.5h-.5v.5zm-4.4985,13H28.75v1.9993h-3.4985V28.25zm-18.0015,0h3.5v1.9993h-3.5V28.25zm-1-13.5v.5h-.5v-.5h.5zm19.25-7h-15v1h15v-1zm-15,14.9993c-.69079,0-1.25.562-1.25,1.25,0,.6901.55986,1.25,1.25,1.25.6901,0,1.25-.5599,1.25-1.25,0-.688-.5592-1.25-1.25-1.25zM10.25,23.9993c0-.137.1128-.25.25-.25s.25.113.25.25c0,.1378-.1121.25-.25.25s-.25-.1122-.25-.25zm14,0c0-.688.5592-1.25,1.25-1.25s1.25.562,1.25,1.25c0,.6901-.5599,1.25-1.25,1.25s-1.25-.5599-1.25-1.25zm1.25-.25c-.1372,0-.25.113-.25.25,0,.1378.1121.25.25.25s.25-.1122.25-.25c0-.137-.1128-.25-.25-.25z"/></svg>