<svg width="36" height="36" xmlns="http://www.w3.org/2000/svg"><path fill-rule="evenodd" clip-rule="evenodd" d="m5.6,10.1,4.5-4.5-.71-.71-4.5,4.5.71.71zm1.65,7.9C7.25,12.06,12.06,7.25,18,7.25c5.94,0,10.75,4.81,10.75,10.75,0,5.94-4.81,10.75-10.75,10.75-5.94,0-10.75-4.81-10.75-10.75zM18,6.25c-6.49,0-11.75,5.26-11.75,11.75,0,6.49,5.26,11.75,11.75,11.75,6.49,0,11.75-5.26,11.75-11.75,0-6.49-5.26-11.75-11.75-11.75zm12.4,3.85-4.5-4.5.71-.71,4.5,4.5-.71.71zM16.75,10.5v8.75h8.75v-1h-7.75V10.5h-1z"/></svg>