<svg width="36" height="36" xmlns="http://www.w3.org/2000/svg"><path fill-rule="evenodd" clip-rule="evenodd" d="m26.0388,16.0653c-.4382-.565-1.069-.9624-1.859-1.0806.2458-1.2539.065-2.3741-.4164-3.2934-.5547-1.0593-1.4915-1.81855-2.5552-2.20443-1.9973-.72451-4.4714-.13816-5.8,2.22963-2.1923-1.2255-5.1274.3314-5.1347,3.1337-.7433.1434-1.34132.5855-1.75756,1.1673-.50429.7049-.75295,1.6239-.71355,2.5299.03955.9094.37146,1.8407,1.0731,2.5477.70786.7132,1.74981,1.1555,3.12471,1.1555h10.5c1.3202,0,2.3497-.4464,3.0677-1.1478.7116-.6951,1.0894-1.6134,1.1635-2.5175.0739-.9007-.1513-1.8223-.6926-2.52zm-9.9812-3.4128c1.0103-2.2899,3.1239-2.83705,4.8096-2.2256.8487.3079,1.5807.908,2.0103,1.7284.4264.8141.5723,1.8785.1934,3.1529l-.1992.67.6985-.028c.7772-.031,1.3256.273,1.6785.728.3642.4695.5429,1.1323.4861,1.8253-.0566.6896-.3441,1.3744-.8657,1.884-.5153.5034-1.2869.8631-2.3689.8631h-10.5c-1.1504,0-1.9225-.3638-2.41494-.86-.49865-.5024-.75324-1.1836-.78381-1.8867-.03073-.7065.16687-1.4.52779-1.9045.35478-.4959.85516-.7988,1.47096-.7988h.5633l-.0669-.5593c-.2954-2.4728,2.3589-3.7372,3.9867-2.4038l.5089.4167.2654-.6017zM11.25,24.0002c-.4472-.2236-.4472-.2236-.4473-.2235v.0001l-.0008.0016-.002.0039-.007.0142-.0254.0522c-.0216.0448-.0522.1089-.0887.188-.0728.1579-.1702.377-.268.6215-.0974.2435-.1977.5184-.2744.7866-.0744.2606-.13641.548-.13641.8054,0,.6901.55991,1.25,1.25001,1.25s1.25-.5599,1.25-1.25c0-.2574-.062-.5448-.1364-.8054-.0767-.2682-.177-.5431-.2744-.7866-.0978-.2445-.1952-.4636-.268-.6215-.0365-.0791-.0671-.1432-.0887-.188l-.0254-.0522-.007-.0142-.002-.0039-.0008-.0016v-.0001c-.0001-.0001-.0001-.0001-.4473.2235zm-.4472-.2236.4472.2236.4472-.2236-.4472-.8945-.4472.8945zm.2951,1.943c.0425-.1486.0951-.3045.1521-.4584.0569.1539.1096.3098.152.4584.0662.2316.098.4129.098.5306,0,.1378-.1121.25-.25.25s-.25-.1122-.25-.25c0-.1177.0318-.299.0979-.5306zm5.7048-1.9429c.0001-.0001.0001-.0001.4473.2235.4472-.2236.4472-.2236.4473-.2235v.0001l.0008.0016.002.0039.007.0142.0254.0522c.0216.0448.0522.1089.0887.188.0728.1579.1702.377.268.6215.0974.2435.1977.5184.2744.7866.0744.2606.1364.548.1364.8054,0,.6901-.5599,1.25-1.25,1.25s-1.25-.5599-1.25-1.25c0-.2574.062-.5448.1364-.8054.0767-.2682.177-.5431.2744-.7866.0978-.2445.1952-.4636.268-.6215.0365-.0791.0671-.1432.0887-.188l.0254-.0522.007-.0142.002-.0039.0008-.0016v-.0001zM17.25,24.0002l-.4472-.2236.4472-.8945.4472.8945-.4472.2236zM17.25,25.2612c-.057.1539-.1096.3098-.1521.4584-.0661.2316-.0979.4129-.0979.5306,0,.1378.1121.25.25.25s.25-.1122.25-.25c0-.1177-.0318-.299-.098-.5306-.0424-.1486-.0951-.3045-.152-.4584zm6-1.261c-.4472-.2236-.4472-.2236-.4473-.2235v.0001l-.0008.0016-.002.0039-.007.0142-.0254.0522c-.0216.0448-.0522.1089-.0887.188-.0728.1579-.1702.377-.268.6215-.0974.2435-.1978.5184-.2744.7866-.0744.2606-.1364.548-.1364.8054,0,.6901.5599,1.25,1.25,1.25s1.25-.5599,1.25-1.25c0-.2574-.062-.5448-.1364-.8054-.0767-.2682-.177-.5431-.2744-.7866-.0978-.2445-.1952-.4636-.268-.6215-.0365-.0791-.0671-.1432-.0887-.188l-.0254-.0522-.007-.0142-.002-.0039-.0008-.0016v-.0001c-.0001-.0001-.0001-.0001-.4473.2235zm-.4472-.2236.4472.2236.4472-.2236-.4472-.8945-.4472.8945zm.2951,1.943c.0425-.1486.0951-.3045.1521-.4584.0569.1539.1096.3098.152.4584.0662.2316.098.4129.098.5306,0,.1378-.1122.25-.25.25-.1379,0-.25-.1122-.25-.25,0-.1177.0318-.299.0979-.5306zm-3.2952,1.0571c.0001-.0001.0001-.0001.4473.2235.4472-.2236.4472-.2236.4473-.2235v.0001l.0008.0016.002.0039.007.0142.0254.0522c.0216.0448.0522.1089.0887.188.0728.1579.1702.377.268.6215.0974.2435.1977.5184.2744.7866.0744.2606.1364.548.1364.8054,0,.6901-.5599,1.25-1.25,1.25s-1.25-.5599-1.25-1.25c0-.2574.062-.5448.1364-.8054.0767-.2682.177-.5431.2744-.7866.0978-.2445.1952-.4636.268-.6215.0365-.0791.0671-.1432.0887-.188l.0254-.0522.007-.0142.002-.0039.0008-.0016v-.0001zM20.25,27.0002l-.4472-.2236.4472-.8945.4472.8945-.4472.2236zM20.25,28.2612c-.057.1539-.1096.3098-.1521.4584-.0661.2316-.0979.4129-.0979.5306,0,.1378.1121.25.25.25s.25-.1122.25-.25c0-.1177-.0318-.299-.098-.5306-.0424-.1486-.0951-.3045-.152-.4584zm-6.4472-1.4846.4472.2236c-.4472-.2236-.4472-.2236-.4473-.2235v.0001l-.0008.0016-.002.0039-.007.0142-.0254.0522c-.0216.0448-.0522.1089-.0887.188-.0728.1579-.1702.377-.268.6215-.0974.2435-.1977.5184-.2744.7866-.0744.2606-.1364.548-.1364.8054,0,.6901.5599,1.25,1.25,1.25s1.25-.5599,1.25-1.25c0-.2574-.062-.5448-.1364-.8054-.0767-.2682-.177-.5431-.2744-.7866-.0978-.2445-.1952-.4636-.268-.6215-.0365-.0791-.0671-.1432-.0887-.188l-.0254-.0522-.007-.0142-.002-.0039-.0008-.0016v-.0001c-.0001-.0001-.0001-.0001-.4473.2235l.4472-.2236-.4472-.8945-.4472.8945zM14.0979,28.7196c.0425-.1486.0951-.3045.1521-.4584.0569.1539.1096.3098.152.4584.0662.2316.098.4129.098.5306,0,.1378-.1121.25-.25.25s-.25-.1122-.25-.25c0-.1177.0318-.299.0979-.5306z"/></svg>