<svg width="48" height="48" xmlns="http://www.w3.org/2000/svg"><path fill-rule="evenodd" clip-rule="evenodd" d="m33.01,5h6.98c.01,0,.01,0,.02,0h1.06c.78,0,1.52.31,2.07.86.55.55.86,1.3.86,2.08v7.06h-8.99c0,0-.01,0-.01,0,0,0,0,0-.01,0h-6.98l-.01,0-.01,0h-6.98l-.01,0-.01,0h-6.98c0,0-.01,0-.01,0,0,0-.01,0-.01,0H7.01c-.01,0-.01,0-.02,0H4V7.94c0-.78.31-1.53.86-2.08.55-.55,1.29-.86,2.07-.86h5.06c.01,0,.01,0,.02,0h6.98c.01,0,.01,0,.02,0h6.98c.01,0,.01,0,.02,0h6.98c.01,0,.01,0,.02,0zm.28,1h5.86l-4.44,8h-5.86l4.44-8zM43,14h-7.15l4.44-8h.78c.51,0,1,.2,1.36.57.36.36.57.86.57,1.38v6.06zM32.15,6l-4.44,8h-5.86l4.44-8h5.86zM20.71,14l4.44-8h-5.86l-4.44,8h5.86zM18.15,6l-4.44,8H7.85l4.44-8h5.86zM6.71,14l4.44-8H6.93c-.51,0-1,.2-1.36.57l-.35-.35.35.35C5.2,6.93,5,7.43,5,7.94v6.06h1.71zm-2.21,2H4v28h40v-28H4.5zm.5,27v-26h38v26H5zm13.74-20.44L18,22.15v15.71l14.02-7.85-13.28-7.44zM19,30v-6.15l10.98,6.15L19,36.15v-6.15z"/></svg>