<svg width="36" height="36" xmlns="http://www.w3.org/2000/svg"><path fill-rule="evenodd" clip-rule="evenodd" d="m24.7515,4.24951c-1.283,0-2.5,1.34473-2.5,3.25,0,1.90528,1.217,3.24999,2.5,3.24999,1.2816,0,2.5-1.34489,2.5-3.24999s-1.2184-3.25-2.5-3.25zm-3.5,3.25c0-2.23772,1.4679-4.25,3.5-4.25,2.0303,0,3.5,2.0121,3.5,4.25,0,.97062-.2765,1.89876-.7552,2.63869,2.2673,1.5327,3.7552,4.862,3.7552,8.6107v.5H18.25v-.5c0-3.7487,1.4891-7.0777,3.7564-8.6104-.4787-.74004-.7549-1.6683-.7549-2.63899zm3.5,4.24999c.8065,0,1.5245-.3175,2.097-.8404,1.8531,1.197,3.266,3.9589,3.3936,7.3398H19.2594c.1277-3.3805,1.5415-6.1423,3.3946-7.3396.5725.5229,1.2905.8402,2.0975.8402zM5.24927,3.25024h-.5v9.99996H17.7493V9.00514l1.3236-1.12374.4135-.35111-.3836-.3836-1.3535-1.35355v-2.5429H5.24927zm.5,8.99996V4.25024H16.7493v1.95711l.1464.14645,1.1164,1.11639-1.0864.9224-.1764.14976v3.70785H5.74927zm9.25003-6.03145H7.46777v1h7.53153v-1zM7.46777,9.21875h4.53153v1.00005H7.46777V9.21875zM17.75,30.7489c0-3.7487-1.4879-7.078-3.7552-8.6107.4788-.74.7552-1.668.7552-2.638,0-2.2379-1.4696-4.25-3.5-4.25-2.03038,0-3.5,2.0121-3.5,4.25,0,.97.27648,1.8982.75529,2.6382C6.23807,23.672,4.75,26.9999,4.75,30.7489v.5h13v-.5zm-1.0094-.5c-.1276-3.3807-1.5404-6.1426-3.3933-7.3397-.5726.5233-1.2907.841-2.0973.841-.8065,0-1.52455-.3177-2.09713-.8409-1.8532,1.1983-3.26584,3.9592-3.39346,7.3396H16.7406zM11.25,16.2502c-1.28162,0-2.5,1.3449-2.5,3.25,0,1.9038,1.21849,3.25,2.5,3.25,1.2815,0,2.5-1.3462,2.5-3.25,0-1.9051-1.2184-3.25-2.5-3.25zM27,14.5307l-1.5-1.4055h1.125l1.875,1.875-1.875,1.875H25.5l1.5-1.407h-1.7805v1.407h-.9375v-1.407H22.5l1.5,1.407h-1.125L21,15.0002l1.875-1.875H24l-1.5,1.4055h1.782v-1.4055h.9375v1.4055H27z"/></svg>