<svg width="36" height="36" viewBox="0 0 36 36" fill="none" xmlns="http://www.w3.org/2000/svg">
<path fill-rule="evenodd" clip-rule="evenodd" d="M7.75 9.25H8.25H32.25H32.75V9.75V21.75V22.25H32.25H29.75V26.25V26.75H29.25H3.75H3.25V26.25V12.75V12.25H3.75H7.75V9.75V9.25ZM31.75 21.25H29.75V12.75V12.25H29.25H8.75V10.25H31.75V21.25ZM4.25 13.25V25.75H28.75V13.25H4.25ZM17.8308 20.9858C17.8308 21.5348 17.4888 21.8528 16.8063 21.9368V20.0288C17.1498 20.1353 17.3583 20.2118 17.4318 20.2568C17.6973 20.4128 17.8308 20.6558 17.8308 20.9858ZM15.2913 17.7428C15.2913 17.2343 15.6003 16.9523 16.2183 16.8983V18.5873C15.8718 18.5033 15.6318 18.3983 15.4953 18.2738C15.3588 18.1493 15.2913 17.9723 15.2913 17.7428ZM16.8063 18.7223V16.9118C17.3598 16.9838 17.6433 17.3138 17.6553 17.9033H18.9708C18.9588 17.2808 18.7668 16.7963 18.3978 16.4483C18.0243 16.1003 17.4948 15.9098 16.8063 15.8738V14.9993H16.2183V15.8738C15.7728 15.9038 15.4143 15.9773 15.1458 16.0973C14.7708 16.2653 14.4798 16.5023 14.2758 16.8083C14.0733 17.1143 13.9713 17.4623 13.9713 17.8538C13.9713 18.2078 14.0433 18.5078 14.1903 18.7553C14.3358 19.0028 14.5653 19.2173 14.8788 19.3988C15.1248 19.5398 15.5718 19.7018 16.2183 19.8833V21.9368C15.5208 21.8618 15.1728 21.4403 15.1803 20.6693H13.8018C13.8078 21.4523 14.0808 22.0598 14.6163 22.4903C15.0018 22.7978 15.5358 22.9703 16.2183 23.0093V23.9993H16.8063V23.0138C17.2368 22.9928 17.5923 22.9238 17.8758 22.8083C18.1578 22.6928 18.4173 22.5113 18.6498 22.2623C19.0173 21.8738 19.2003 21.3938 19.2003 20.8208C19.2003 20.2568 19.0218 19.8113 18.6648 19.4858C18.3768 19.2233 17.8863 19.0013 17.1903 18.8198C16.9788 18.7688 16.8513 18.7358 16.8063 18.7223Z" fill="black"/>
</svg>
