<svg width="24" height="24" xmlns="http://www.w3.org/2000/svg"><path fill-rule="evenodd" clip-rule="evenodd" d="m12.9995,6.5004c0-2.48514,2.0149-4.5,4.5-4.5.6628,0,1.2855.15062,1.8463.40307l.6604.29734-.5121.51214-2.4946,2.49456V7.0004h1.2929l2.4946-2.49455.5112-.51125.2979.65879c.254.56178.4034,1.18472.4034,1.84701,0,2.48514-2.0148,4.5-4.5,4.5-.538,0-1.0484-.0999-1.5208-.2721l-5.2501,5.2501c.1727.4737.2709.9849.2709,1.522,0,2.4851-2.01485,4.5-4.49999,4.5-.66298,0-1.28491-.1507-1.84601-.4044l-.65879-.2979.51125-.5113,2.49355-2.4935v-1.2929H5.70662L3.21307,19.494l-.51125.5112-.29789-.6588c-.25373-.5611-.40442-1.183-.40442-1.846,0-2.4851,2.01486-4.5,4.5-4.5.5371,0,1.04831.0982,1.52202.2709l5.24977-5.24979c-.1727-.47302-.2718-.98357-.2718-1.52111zm4.5-3.5c-1.9328,0-3.5,1.56714-3.5,3.5,0,.50902.1153.99109.3156,1.43399l.1425.31506-.2445.2445,8.24956,14.4575-.31506-.1425c-.44222-.2-.92528-.3146-1.43499-.3146-1.93286,0-3.5,1.5671-3.5,3.5,0,.2454.02679.4845.07698.7159l2.06947-2.0695.14644-.1464H7.99951V18.7075l-.14644.1465-2.06948,2.0694c.23147.0502.47057.077.71592.077,1.93286,0,3.5-1.5671,3.5-3.5,0-.5097-.11462-.9928-.31458-1.435l-.14247-.3151L15.506,9.78685l.244-.24407.3148.14169c.4439.19986.9262.31593,1.4347.31593,1.9329,0,3.5-1.56714,3.5-3.5,0-.24551-.0266-.48483-.0765-.71639l-2.0699,2.06994-.1465.14645h-2.7071V5.29329l.1465-.14644,2.0696-2.06965c-.2316-.05004-.4709-.0768-.7161-.0768z"/></svg>