<svg width="24" height="24" viewBox="0 0 24 24" fill="none" xmlns="http://www.w3.org/2000/svg">
<path fill-rule="evenodd" clip-rule="evenodd" d="M7.5 4H7.10961L7.01493 4.37873L6.0707 8.15563L4.27639 9.05279L4.03496 9.1735L4.00342 9.44158L3.10589 17.0706C3.0366 17.3682 3 17.6793 3 18C3 20.2301 4.76986 22 7 22C9.22996 22 11.001 20.2303 11.001 18C11.001 17.9781 11.0008 17.9562 11.0005 17.9344V10.169C11.312 10.0619 11.6482 10.004 12 10.004C12.352 10.004 12.6883 10.062 13 10.1691L13.001 17.9093C13.0003 17.9395 13 17.9697 13 18C13 20.2301 14.7699 22 17 22C19.23 22 21.001 20.2303 21.001 18C21.001 17.6794 20.9644 17.3685 20.8952 17.071L19.9976 9.44158L19.966 9.1735L19.7246 9.05279L17.9303 8.15563L16.9861 4.37873L16.8914 4H16.501H13.501H13.0011L13.001 4.49986L13 7.99986L14 8.00014L14.0009 5H16.1106L17.0159 8.62127L17.0717 8.84437L17.2774 8.94721L19.036 9.8265L19.6429 14.9853C18.9408 14.3729 18.0181 14.005 17 14.005C15.7986 14.005 14.7303 14.5173 14.0007 15.339L14.0001 10.7511C14.617 11.2965 15.001 12.0963 15.001 13H16.001C16.001 10.7689 14.2292 9.004 12 9.004C9.77061 9.004 8 10.7691 8 13H9C9 12.0961 9.38381 11.2963 10.0005 10.7509V15.3397C9.2705 14.5176 8.20167 14.005 7 14.005C5.9822 14.005 5.05996 14.3727 4.35819 14.9847L4.96504 9.8265L6.72361 8.94721L6.9293 8.84437L6.98507 8.62127L7.89039 5H10V8.037H11V4.5V4H10.5H7.5ZM14 17.9999H14.001L14.001 17.9211C14.0417 16.2819 15.3476 15.005 17 15.005C18.4187 15.005 19.5825 15.9462 19.9093 17.2495L20.0009 18.0282C19.9861 19.6925 18.6686 21 17 21C15.3221 21 14 19.6779 14 18C14 18 14 18 14 17.9999ZM10.0005 18V17.9429C9.97088 16.2934 8.65988 15.005 7 15.005C5.58165 15.005 4.41855 15.9458 4.0918 17.249L4.00013 18.0282C4.01487 19.6927 5.33157 21 7 21C8.67804 21 10.001 19.6777 10.001 18L10.0005 18ZM16 18.001C16 17.4398 16.4385 17.002 17 17.002V16.002C15.8875 16.002 15 16.8862 15 18.001H16ZM5 18.002C5 16.8883 5.88442 16.002 6.999 16.002V17.002C6.43758 17.002 6 17.4397 6 18.002H5Z" fill="black"/>
</svg>
