<svg width="36" height="36" xmlns="http://www.w3.org/2000/svg"><path fill-rule="evenodd" clip-rule="evenodd" d="m19.76,4.5-.01,3.48.38.1C21.2,8.36,22,9.34,22,10.5c0,.61-.22,1.17-.58,1.61L18.75,10.68l-1.54.82C17.08,11.2,17,10.86,17,10.5h-1c0,.53.12,1.03.33,1.48L7.38,16.75H4.75v14.5h28v-14.5h-2.63l-7.81-4.17C22.74,12,23,11.28,23,10.5c0-1.49-.93-2.77-2.25-3.27l.01-2.73-1,0zm.78,8.27-1.79-.96-.96.51c.45.42,1.05.67,1.71.67.37,0,.73-.08,1.04-.23zm-3.67.04C17.52,13.54,18.46,14,19.5,14c.78,0,1.49-.25,2.07-.68L28,16.75H9.5l7.38-3.93zM5.75,30.25v-12.5h3.5v12.5h-3.5zm4.5,0h3.5v-12.5h-3.5v12.5zm8,0h-3.5v-12.5h3.5v12.5zm1,0h3.5v-12.5h-3.5v12.5zm8,0h-3.5v-12.5h3.5v12.5zm1,0h3.5v-12.5h-3.5v12.5z"/></svg>