<svg width="24" height="24" xmlns="http://www.w3.org/2000/svg"><path fill-rule="evenodd" clip-rule="evenodd" d="m16.504,2c-1.325,0-2.4084,1.03056-2.4945,2.33258l-3.6017.676L10,5.08511v1.82778l.4054.07809,3.7284.71807c-.0837.24789-.1298.51368-.1298.79095,0,1.38114,1.1189,2.5,2.5,2.5,1.2236,0,2.2429-.8796,2.4581-2.04184C20.1243,8.74309,21.004,7.72465,21.004,6.5c0-1.22366-.8796-2.24291-2.0419-2.45813C18.7467,2.88032,17.7277,2,16.504,2zm-1.5,2.5c0-.82802.6713-1.5,1.5-1.5.8279,0,1.5.67214,1.5,1.5V5h.5c.8287,0,1.5.67198,1.5,1.5,0,.82886-.6711,1.5-1.5,1.5h-.5v.5c0,.82869-.672,1.5-1.5,1.5-.8289,0-1.5-.67114-1.5-1.5,0-.3217.1038-.61929.2802-.86685l.4517-.63392-.7643-.14721L11,6.08711v-.17222l3.6202-.67947.456-.08557-.0513-.46107c-.0061-.05562-.0109-.08967-.0142-.11405v-.00005c-.0046-.03269-.0067-.048-.0067-.07468zM6,4h3v3H8v.9985h.24907c1.5191,0,2.74993,1.23078,2.75003,2.7499v.0001l.003,10.7519.0001.5001H4.0023l-.00023-.4998-.005-10.752v-.0002c0-1.51914,1.23086-2.75,2.75-2.75H7V7H6V4zm1,1v1h1V5H7zm-2.00293,5.7484v-.0001c.00013-.96678.78322-1.7498,1.75-1.7498h1.502c.96686,0,1.75.78314,1.75,1.75v.0001L9.99914,11H4.99719l-.00012-.2515v-.0001zM4.99765,12l.00326,7.001h5.00049L9.99942,12H4.99765zm.00419,9.0005-.00047-.9995h5.00033l.0002.9995H5.00184z"/></svg>