<svg width="24" height="24" xmlns="http://www.w3.org/2000/svg"><path fill-rule="evenodd" clip-rule="evenodd" d="m6.51,5.57C6.15,5.88,6,6.19,6,6.5s.15.62.51.93c.37.31.93.6,1.64.83,1.43.47,3.37.71,5.34.7,1.97-.01,3.91-.25,5.34-.73.72-.24,1.28-.52,1.65-.83.36-.31.51-.61.51-.91s-.15-.6-.51-.91c-.37-.31-.93-.6-1.65-.83-1.43-.47-3.38-.72-5.34-.73-1.97-.01-3.91.23-5.34.7-.72.24-1.28.52-1.64.83zm-.65-.76C5.35,5.25,5,5.81,5,6.5v1.24c-.77.24-1.45.55-1.97.94-.6.45-1.03,1.06-1.03,1.83L2,10.53v2.97c0,.69.35,1.25.86,1.69.51.43,1.2.77,1.98,1.03.05.02.1.03.16.05v1.22c0,.69.35,1.25.86,1.69.51.43,1.2.77,1.98,1.03,1.57.52,3.63.78,5.66.78s4.09-.25,5.66-.78c.78-.26,1.47-.6,1.98-1.03.51-.44.86-1,.86-1.69v-3c0-.76-.43-1.36-1.04-1.8-.35-.26-.77-.49-1.25-.68.55-.23,1.04-.5,1.42-.83.51-.44.86-1,.86-1.69v-3c0-.68-.35-1.24-.87-1.67-.51-.43-1.2-.76-1.98-1.02-1.57-.52-3.62-.77-5.66-.78-2.03-.01-4.09.24-5.66.75-.78.26-1.47.59-1.98,1.02zM19.92,16.9c.39-.17.76-.38,1.08-.62v1.22c0,.31-.15.62-.51.93-.34.29-.84.56-1.49.79v-1.98c.33-.1.63-.22.92-.34zM18,17.5c-.76.17-1.59.29-2.44.37-.51.05-1.03.07-1.56.09v2.03c1.43-.03,2.83-.19,4-.48v-2.01zm-7.46.29c.79.1,1.62.16,2.46.17v2.03c-1.43-.03-2.83-.19-4-.48v-1.99c.49.11,1.01.2,1.54.26zM8,17.26c-.54-.17-1.04-.37-1.46-.61-.18-.03-.37-.07-.54-.11v.96c0,.31.15.62.51.93.34.29.84.56,1.49.79v-1.96zm7.47-.38c-1.05.09-2.16.11-3.23.06,1.43-.1,2.8-.34,3.92-.71.78-.26,1.47-.6,1.98-1.03.51-.44.86-1,.86-1.69v-.68c.56.2,1.03.43,1.37.68.46.34.63.68.63,1,0,.49-.42,1.01-1.49,1.48-1.02.45-2.46.76-4.05.9zM3,10.52v-.02h0c0-.34.18-.69.64-1.03.34-.25.8-.48,1.36-.68v.71c0,.69.35,1.25.86,1.69.51.43,1.2.77,1.98,1.03,1.1.37,2.45.6,3.86.71-1.07.06-2.17.04-3.22-.05-1.57-.14-3-.44-4.01-.88C3.43,11.54,3.01,11.02,3,10.52zm0,1.78v1.2c0,.31.15.62.51.93.34.29.84.56,1.49.79v-1.96c-.33-.1-.65-.22-.94-.35-.39-.17-.75-.37-1.06-.62zm7,3.69c-1.43-.03-2.83-.19-4-.48V13.53c.75.17,1.56.28,2.39.35.53.05,1.07.07,1.61.08v2.03zm1-2.03v2.03c1.43-.03,2.83-.19,4-.48v-2.01c-.52.12-1.06.21-1.62.28-.77.1-1.57.16-2.38.17zm6.49.47c-.34.29-.84.56-1.49.79V13.24c.51-.16.98-.35,1.39-.57.21-.04.41-.08.61-.12v.96c0,.31-.15.62-.51.93zM21,9.5V8.28c-.49.37-1.13.67-1.84.91-.05.02-.1.03-.16.05v1.98c.64-.23,1.15-.5,1.49-.79.36-.31.51-.62.51-.93zm-3,2.02c-1.17.29-2.57.45-4,.48V9.96c1.4-.03,2.79-.18,4-.46v2.01zm-9,0c1.17.29,2.57.45,4,.48V9.96c-1.4-.02-2.79-.17-4-.44v1.99zm-1-.3c-.64-.23-1.15-.5-1.49-.79C6.15,10.12,6,9.81,6,9.5V8.3c.49.38,1.13.68,1.84.91.05.02.1.03.16.05v1.96z"/></svg>