<svg width="36" height="36" xmlns="http://www.w3.org/2000/svg"><path fill-rule="evenodd" clip-rule="evenodd" d="m17.6046,3.77332-.356-.35981-.3555.36041-5.763,5.844.7121.70218L16.75,5.34331V16.7515l-11.41877-.0007,4.39728-4.3972-.70711-.7072-5.25,5.25-.35355.3536.35355.3536,5.25,5.25.70711-.7072-4.39562-4.3956,11.41711.0007v11.4029l-4.9205-4.9728-.7108.7033,5.7795,5.841.356.3599.3554-.3605,5.763-5.8455-.7121-.7021L17.75,29.1586V17.7515l11.4157.0007-4.3943,4.3942.7071.7072,5.6036-5.6036-5.6036-5.6036-.7071.7072,4.3986,4.3986-11.42-.0007V5.342l4.9232,4.9757.7109-.70338-5.7795-5.841z"/></svg>