<svg width="36" height="36" xmlns="http://www.w3.org/2000/svg"><path fill-rule="evenodd" clip-rule="evenodd" d="m24,4.25H3v-1h21v1zm4.45,3.81c-.62-.98-1.12-1.53-1.97-1.73-.39-.09-.83-.11-1.33-.11-.22,0-.46.01-.72.01l-.13,0c-.31.01-.66.01-1.05.01H19.75V15.25h-2v-9H3v1h13.75v11H9v1h8.75v-1.5h2v1.5h8.75c1.93,0,3.28-.62,3.88-1.75.59-1.12.34-2.52-.46-3.83h0l-3.47-5.6,0,0zM19.75,16.75v-.5h-2v.5h2zm3.5-9.5c.4,0,.75-.01,1.06-.01l.13,0c.26,0,.49-.01.7-.01.5,0,.83.02,1.09.08.45.11.77.36,1.36,1.29l0,0,3.47,5.6c.7,1.16.79,2.17.43,2.84-.35.66-1.25,1.22-3,1.22H20.75V7.25h2.5zM22.75,9.25h2.95l2.88,5.5H22.75v-5.5zm1,1v3.5h3.17l-1.83-3.5H23.75zM6.49,20.18l5.77,4.03c0-.07-.01-.14-.01-.21,0-.67.22-1.35.69-1.88.47-.53,1.18-.87,2.06-.87h3.17l.01,0c2.38.08,4.66,1.36,6.42,3.04l0,0,8.9,8.46H20.42l-1.51-1.5h-5.9l-9.02-7.95c-.85-.69-.99-1.95-.3-2.8.69-.86,1.94-1,2.8-.32zm11.67,2.07H15c-.61,0-1.04.23-1.31.54-.28.32-.44.76-.44,1.21,0,.46.15.9.44,1.21.28.31.7.54,1.31.54h3V26.75h-3c-.84,0-1.52-.31-1.99-.8l0,0-7.12-4.97-.01-.01c-.43-.35-1.06-.28-1.41.15-.35.43-.28,1.06.15,1.41l.01.01,8.76,7.71h5.93L20.83,31.75h10.17l-7.08-6.73,0,0c-1.65-1.58-3.71-2.69-5.76-2.77z"/></svg>