<svg width="48" height="48" xmlns="http://www.w3.org/2000/svg"><path fill-rule="evenodd" clip-rule="evenodd" d="m23.9998,10c-7.5629,0-14.36861,3.1841-19.19836,8.2684l-.72502-.6887C9.08553,12.3066,16.1494,9,23.9998,9c7.8505,0,14.9143,3.3066,19.9235,8.5797l-.7251.6887C38.3685,13.1841,31.5627,10,23.9998,10zM9.14861,22.3965C12.8851,18.4631,18.1498,16,24.0001,16c5.8504,0,11.115,2.4631,14.8515,6.3965l.725-.6887C35.6607,17.5855,30.138,15,24.0001,15c-6.1378,0-11.6607,2.5855-15.57652,6.7078l.72503.6887zm4.35649,4.1371c2.6435-2.7838,6.3678-4.5265,10.5065-4.5265,4.1331,0,7.8532,1.7377,10.4959,4.5149l.7244-.6893c-2.8221-2.9657-6.8-4.8256-11.2203-4.8256-4.4263,0-8.4088,1.8652-11.2316,4.8379l.7251.6886zM17.8503,30.66C19.4016,29.0269,21.5761,28,24,28c2.4238,0,4.5984,1.0269,6.1496,2.66l.7251-.6887C29.1462,28.1516,26.7143,27,24,27c-2.7144,0-5.1463,1.1516-6.8748,2.9713l.7251.6887zM21.5,36.5c0-1.3807,1.1192-2.5,2.5-2.5,1.3807,0,2.5,1.1193,2.5,2.5S25.3807,39,24,39c-1.3808,0-2.5-1.1193-2.5-2.5zM24,33c-1.933,0-3.5,1.567-3.5,3.5S22.067,40,24,40s3.5-1.567,3.5-3.5S25.933,33,24,33z"/></svg>