<svg width="36" height="36" xmlns="http://www.w3.org/2000/svg"><path fill-rule="evenodd" clip-rule="evenodd" d="m19.54,5.22-.73-.7c-1.36-1.36-3.56-1.36-4.92,0v0l.35.35-.35-.35,0,0,0,0,0,0,0,0-.01.01-2.46,2.46.71.71,2.47-2.47,0,0,0,0v0c.97-.97,2.54-.97,3.51,0l0,0,.74.71c.97.97.97,2.54,0,3.51l0,0-4.25,4.27,0,0c-.97.97-2.56.97-3.53,0l-.71-.71-.71.71.71.71c1.36,1.36,3.59,1.36,4.95,0l0,0,4.25-4.27c1.36-1.36,1.35-3.56-.01-4.92v0l-.01-.01zM12.91,9.88c-1.36-1.36-3.59-1.36-4.95,0l0,0L3.72,14.12c-1.36,1.36-1.36,3.59,0,4.95l.71.71,0,0c1.36,1.36,3.59,1.36,4.95,0l2.48-2.48-.71-.71-2.48,2.48c-.97.97-2.56.97-3.54,0l-.71-.71c-.97-.97-.97-2.56,0-3.54l0,0,4.24-4.24c.97-.97,2.56-.97,3.54,0l0,0,.71.71.71-.71-.71-.71z"/></svg>