<svg width="24" height="24" xmlns="http://www.w3.org/2000/svg"><path fill-rule="evenodd" clip-rule="evenodd" d="m7,2c0,.45.21.93.54,1.3C7.87,3.69,8.37,4,9,4c.56,0,.93.46.96,1.02.01.27-.06.52-.21.68C9.63,5.86,9.4,6,9,6,7.95,6,7,6.8,7,8h1c0-.6.45-1,1-1,.65,0,1.17-.24,1.52-.64.34-.4.47-.9.44-1.38C10.92,4.04,10.24,3,9,3c-.27,0-.52-.14-.71-.35C8.09,2.42,8,2.15,8,2H7zm11.5,10H16V9H5v12h11v-2h3v-7h-.5zM16,18h2v-5h-2v5zM11.54,3.3C11.21,2.93,11,2.45,11,2h1c0,.15.09.42.29.65C12.48,2.86,12.73,3,13,3c1.24,0,1.92,1.04,1.96,1.98.02.48-.11.98-.44,1.38C14.17,6.76,13.65,7,13,7c-.55,0-1,.4-1,1h-1c0-1.2.95-2,2-2,.4,0,.63-.14.76-.29.14-.17.22-.41.21-.68C13.93,4.46,13.56,4,13,4c-.63,0-1.13-.31-1.46-.7zM6,20V10h9v10H6z"/></svg>