<svg width="48" height="48" xmlns="http://www.w3.org/2000/svg"><path fill-rule="evenodd" clip-rule="evenodd" d="m38,7.5c0-.82786.6721-1.5,1.5-1.5s1.5.67214,1.5,1.5S40.3279,9,39.5,9,38,8.32786,38,7.5zM39.5,5C38.1199,5,37,6.11986,37,7.5c0,.65759.2542,1.25609.6697,1.70252L30.5171,19.2158C30.2063,19.0771,29.8621,19,29.5,19c-.8558,0-1.6115.4306-2.0622,1.0868l-5.4863-2.0944c.0318-.1592.0485-.3239.0485-.4924,0-1.3801-1.1199-2.5-2.5-2.5S17,16.1199,17,17.5c0,.4104.099.7978.2745,1.1396l-6.174,4.9402C10.6668,23.2179,10.1087,23,9.5,23,8.11986,23,7,24.1199,7,25.5S8.11986,28,9.5,28c1.3801,0,2.5-1.1199,2.5-2.5,0-.4104-.099-.7978-.2745-1.1396l6.174-4.9402c.4337.362.9918.5798,1.6005.5798.8554,0,1.6109-.4302,2.0617-1.086l5.4866,2.0946c-.0317.1589-.0483.3232-.0483.4914,0,1.3801,1.1199,2.5,2.5,2.5s2.5-1.1199,2.5-2.5c0-.6575-.2542-1.256-.6696-1.7024l7.1527-10.0133c.3107.13863.6548.2157,1.0169.2157,1.3801,0,2.5-1.11986,2.5-2.5S40.8801,5,39.5,5zM8,25.5c0-.8279.67214-1.5,1.5-1.5.8279,0,1.5.6721,1.5,1.5S10.3279,27,9.5,27c-.82786,0-1.5-.6721-1.5-1.5zm9,1.5h5v16h5V31h5v12h5V19h5v25H7v-9h5v8h5V27zm14,16V32h-3v11h3zm-13,0h3V28h-3v15zm-7-7v7H8v-7h3zm8.5-20c-.8279,0-1.5.6721-1.5,1.5s.6721,1.5,1.5,1.5,1.5-.6721,1.5-1.5-.6721-1.5-1.5-1.5zm8.5,5.5c0-.8279.6721-1.5,1.5-1.5s1.5.6721,1.5,1.5-.6721,1.5-1.5,1.5-1.5-.6721-1.5-1.5zM41,43h-3V20h3v23z"/></svg>