<svg width="24" height="24" xmlns="http://www.w3.org/2000/svg"><path fill-rule="evenodd" clip-rule="evenodd" d="m16,3.06c-.52,0-1,.48-1,1s.48,1,1,1c.52,0,1-.48,1-1s-.48-1-1-1zm-2,1c0-1.08.92-2,2-2,1.08,0,2,.92,2,2s-.92,2-2,2c-1.08,0-2-.92-2-2zm1,3.94v5h2V8h-2zm-1,.71v8.69l-2.4,3.31.81.59,2.6-3.57V14h2.23l1.77,2.71V22h1v-5.59l-2-3.06V9.15l1.15,1.72,2.6,1.56.51-.86-2.4-1.44L17.77,7H14.29l-3.29,3.29V10.5L11,13H9.12l-2-1H3.79L2,13.79V17h1v-2.79l1-1v5.63L2.6,20.7l.8.6L5,19.17V17h1.65l1.88,5.17.94-.34-1.97-5.42V13.31L8.88,14H12l0-3.29,2-2zM5.5,9c-.26,0-.5.24-.5.5s.24.5.5.5.5-.24.5-.5S5.76,9,5.5,9zM4,9.5C4,8.69,4.69,8,5.5,8S7,8.69,7,9.5c0,.81-.69,1.5-1.5,1.5S4,10.31,4,9.5zM5,16v-3h1.5v3H5z"/></svg>