<svg width="24" height="24" xmlns="http://www.w3.org/2000/svg"><path fill-rule="evenodd" clip-rule="evenodd" d="m1.9942,9.4971c0-3.05325,2.45397-5.497,5.506-5.497,1.59019,0,3.0049.6726,4.0024,1.73871.9948-1.06612,2.4066-1.73871,3.9976-1.73871,2.3847,0,4.4025,1.49273,5.1689,3.60506.2147.59035.3311,1.22718.3311,1.89194,0,.9964-.2614,1.9306-.7207,2.7357-.1651.2907-.6173.8707-.7947,1.0856l-.0152.0184-.0168.0168-7.599,7.6-.3536.3537-.3536-.3537-7.60898-7.61-.00719-.0072h.00008c-.34642-.3609-.63289-.7661-.87059-1.2035M7.5002,5.0001c-2.50197,0-4.506,1.99825-4.506,4.497,0,.7852.19747,1.5203.54428,2.1582l.00004.0001c.19948.367.43388.6966.70996.9849l7.25172,7.2526,7.2282-7.2291c.1883-.2299.5694-.7268.6818-.9253l.0007-.0012c.3747-.6568.5893-1.4207.5893-2.2402,0-.54724-.0956-1.06841-.2709-1.55006l-.0001-.00046c-.6258-1.72543-2.2739-2.94648-4.229-2.94648-1.4852,0-2.7786.71502-3.5955,1.81594l-.4008.54025-.4018-.53961C10.2822,5.71536,8.98461,5.0001,7.5002,5.0001zm-5.506,4.497c0,.9548.24052,1.8537.66568,2.6357L1.9942,9.4971z"/></svg>