<svg width="36" height="36" xmlns="http://www.w3.org/2000/svg"><path fill-rule="evenodd" clip-rule="evenodd" d="m14.9964,13.2461c-.9674,0-1.75.7826-1.75,1.75s.7826,1.75,1.75,1.75c.9661,0,1.75-.7829,1.75-1.75s-.7839-1.75-1.75-1.75zm-2.75,1.75c0-1.5196,1.2303-2.75,2.75-2.75,1.5179,0,2.75,1.2301,2.75,2.75s-1.2321,2.75-2.75,2.75c-1.5197,0-2.75-1.2304-2.75-2.75zM21,22.2498c-.9658,0-1.75.7841-1.75,1.75,0,.9671.784,1.75,1.75,1.75.9661,0,1.75-.7829,1.75-1.75,0-.9659-.7841-1.75-1.75-1.75zm-2.75,1.75c0-1.5182,1.2319-2.75,2.75-2.75,1.5182,0,2.75,1.2318,2.75,2.75,0,1.5198-1.232,2.75-2.75,2.75-1.5179,0-2.75-1.2302-2.75-2.75zm-6.6464,2.6035,13.5-13.5-.7071-.7071-13.5,13.5.7071.7071z"/></svg>