<svg width="48" height="48" xmlns="http://www.w3.org/2000/svg"><path fill-rule="evenodd" clip-rule="evenodd" d="m24,6.45,17,7.73v7.37c1.14.23,2,1.24,2,2.45,0,.99-.57,1.84-1.41,2.25l.89,3.12-.96.27-.9-3.14c-.04,0-.08,0-.12,0-.04,0-.08,0-.12,0l-.9,3.14-.96-.27.89-3.12c-.83-.41-1.41-1.26-1.41-2.25,0-1.21.86-2.22,2-2.45v-6.32l-5,1.97v5.96l-.09.13-.41-.29c.41.29.41.29.41.29l0,0,0,0-.01.02c-.01.01-.02.02-.03.04-.03.03-.06.08-.11.13-.1.11-.24.26-.43.44-.39.35-.99.82-1.84,1.27-1.71.92-4.41,1.81-8.48,1.81-4.05,0-6.99-.89-8.94-1.8-.97-.45-1.69-.91-2.17-1.25-.24-.17-.42-.32-.54-.42-.06-.05-.11-.09-.14-.12-.02-.01-.03-.03-.04-.04l-.01-.01,0,0,0,0,0,0c0,0,0,0,.35-.36l-.35.36L12,23.21v-6.4l-5.78-2.28L24,6.45zM13,17.2v5.57c.1.09.26.21.47.36.43.31,1.1.73,2.01,1.16,1.82.85,4.62,1.7,8.52,1.7,3.92,0,6.46-.86,8.01-1.69.78-.42,1.31-.83,1.64-1.13.17-.15.28-.27.35-.36v-5.22l-10,3.94-11-4.33zm26.22-2.74L24,20.46,8.78,14.47,24,7.55,39.22,14.47zM40.5,22.5c-.83,0-1.5.67-1.5,1.5,0,.83.67,1.5,1.5,1.5s1.5-.67,1.5-1.5c0-.83-.67-1.5-1.5-1.5zM8.55,27.54l8.66,5.85c.03-.59.27-1.17.72-1.62.49-.48,1.19-.77,2.07-.77h4.23v0c3.69.06,6.12,2.07,8.11,3.72.11.09.22.18.32.27,0,0,0,0,0,0l11.15,9.01H27.29l-2.02-2h-7.87L5.43,31.44c-1.07-.87-1.24-2.43-.38-3.51.86-1.07,2.42-1.25,3.5-.4zm9.08,7.34-9.66-6.52-.02-.01-.02-.01c-.65-.52-1.59-.42-2.11.23-.52.65-.41,1.59.23,2.11l.01.01,11.72,10.32H25.69l2.02,2h13.28l-8.96-7.24,0,0c-.1-.08-.19-.16-.29-.24-2.02-1.66-4.2-3.47-7.52-3.52H20c-.65,0-1.1.21-1.37.48-.28.28-.42.64-.42,1.02,0,.37.14.74.42,1.02.28.27.72.48,1.37.48h4v1h-4c-.88,0-1.58-.29-2.07-.77-.11-.11-.21-.23-.3-.36z"/></svg>