<svg width="36" height="36" xmlns="http://www.w3.org/2000/svg"><path fill-rule="evenodd" clip-rule="evenodd" d="m26.0592,16.0595c-.4486-.5612-1.0869-.9573-1.8794-1.0751.2458-1.2537.065-2.3739-.4164-3.2931-.5547-1.0593-1.4914-1.81855-2.5552-2.20443-1.9973-.72451-4.4714-.13816-5.8,2.22963-2.1923-1.2255-5.1274.3314-5.1347,3.1337-.74329.1434-1.34132.5855-1.75755,1.1673-.5043.7049-.75295,1.6239-.71355,2.5299.03955.9094.37146,1.8407,1.07309,2.5477.70787.7132,1.74981,1.1555,3.12471,1.1555h10.5c1.3592,0,2.4112-.443,3.1399-1.1454.7233-.6971,1.0964-1.6193,1.1582-2.5268.0616-.904-.1839-1.8244-.7391-2.5189zm-10.0016-3.407c1.0103-2.2899,3.1239-2.83705,4.8096-2.2256.8487.3079,1.5807.908,2.0104,1.7284.4263.8141.5722,1.8785.1933,3.1529l-.1992.67.6985-.028c.778-.0311,1.3403.2738,1.7079.7337.3779.4728.5695,1.1367.5225,1.8265-.0467.6862-.3278,1.3672-.8544,1.8748-.5211.5022-1.3145.8654-2.446.8654h-10.5c-1.1504,0-1.9225-.3638-2.41494-.86-.49864-.5024-.75323-1.1836-.78381-1.8867-.03072-.7065.16687-1.4.5278-1.9045.35477-.4959.85515-.7988,1.47095-.7988h.5633l-.0669-.5593c-.2954-2.4728,2.3589-3.7372,3.9867-2.4038l.5089.4167.2654-.6017zM7.5,25.2502h19.4895v-1H7.5v1zm19.4895,6H7.5v-1h19.4895v1zM9,28.2502h16.4895v-1H9v1z"/></svg>