<svg width="36" height="36" xmlns="http://www.w3.org/2000/svg"><path fill-rule="evenodd" clip-rule="evenodd" d="m15.25,4.7503h5.5v1.85273c1.9427.53999,3.3183,1.64659,4.2558,2.94857C26.3176,11.3736,26.75,13.545,26.75,15v9c0,.545.1676,1.3736.6558,2.0516C27.8756,26.7041,28.663,27.25,30,27.25v1h-7.7806c-.1191.9458-.5796,1.6786-1.2745,2.1814-.7915.5728-1.8441.8181-2.9449.8181s-2.1534-.2453-2.9449-.8181c-.6949-.5028-1.1554-1.2356-1.2745-2.1814H6v-1c.54499,0,1.3736-.1676,2.0516-.6558C8.7041,26.1244,9.25,25.337,9.25,24v-9c0-1.455.43239-3.6264,1.7442-5.4484.9375-1.30198,2.3131-2.40858,4.2558-2.94857V4.7503zm1,1.63475C16.7943,6.29708,17.3769,6.25,18,6.25s1.2057.04708,1.75.13505V5.7503h-3.5v.63475zM14.7914,28.25c.1071.6137.4158,1.0572.8499,1.3713.5656.4093,1.388.6282,2.3587.6282s1.7931-.2189,2.3587-.6282c.4341-.3141.7428-.7576.8499-1.3713h-6.4172zM10.25,15c0-1.295.3926-3.2486,1.5558-4.8641C12.9506,8.5459,14.863,7.25,18,7.25s5.0494,1.2959,6.1942,2.8859C25.3574,11.7514,25.75,13.705,25.75,15v9c0,.705.2074,1.7514.8442,2.6359.1577.2189.3403.4259.55.6141H8.83817C9.64815,26.5832,10.25,25.5375,10.25,24v-9z"/></svg>