<svg width="24" height="24" xmlns="http://www.w3.org/2000/svg"><path fill-rule="evenodd" clip-rule="evenodd" d="m6,3.5c0-.27616.22383-.5.5-.5s.5.22384.5.5V5H6V3.5zM5,5V3.5C5,2.67155,5.67155,2,6.5,2S8,2.67155,8,3.5V5h8V3.5c0-.82845.6716-1.5,1.5-1.5s1.5.67155,1.5,1.5V5h3v5h-3v3.001h3v5h-3V22h-3v-3.999H8V22H5v-3.999H2v-5h3V10H2V5h3zm13-1.5V5h-1V3.5c0-.27616.2238-.5.5-.5s.5.22384.5.5zm0,9.501V10h-1v3.001h1zM8,10h8v3.001H8V10zm-2,3.001V10h1v3.001H6zM3,6v3h2.29289l3-3H3zm6.70711,0-3,3h7.58579l3-3H9.70711zM21,9h-5.2929l3-3H21v3zm-3,9.001V21h-1v-2.999h1zM6,18.001V21h1v-2.999H6zm-3-4v2.2916l2.29167-2.2916H3zm6.29192,3H3.70589l3-3h5.58601l-2.99998,3zM13.7061,14.001l-3,3h5.5858l3-3h-5.5858zm7,0-3,3H21v-3h-.2939z"/></svg>