<svg width="24" height="24" xmlns="http://www.w3.org/2000/svg"><path fill-rule="evenodd" clip-rule="evenodd" d="m13,5.02V3h-1v2.02c-3.76.24-6.74,3.23-6.99,6.98H3v1h2.02c.25,3.75,3.23,6.74,6.99,6.98v2.02h1v-2.02c3.75-.25,6.74-3.23,6.98-6.99h2.01v-1h-2.02c-.25-3.75-3.23-6.73-6.98-6.98zM6,12.5c0-3.6,2.9-6.5,6.5-6.5,3.6,0,6.5,2.9,6.5,6.5,0,3.6-2.9,6.5-6.5,6.5-3.6,0-6.5-2.9-6.5-6.5zm3,0c0-1.93,1.57-3.5,3.5-3.5S16,10.57,16,12.5c0,1.93-1.57,3.5-3.5,3.5s-3.5-1.57-3.5-3.5zm3.5-4.5c-2.49,0-4.5,2.01-4.5,4.5,0,2.48,2.01,4.5,4.5,4.5s4.5-2.02,4.5-4.5c0-2.49-2.01-4.5-4.5-4.5z"/></svg>