<svg width="24" height="24" xmlns="http://www.w3.org/2000/svg"><path fill-rule="evenodd" clip-rule="evenodd" d="m12,2.9729,4.6581,1.5527,1.4254.47514-1.4259.47371L15,6.02515v1.92046c.3186.60503.5005,1.30974.5005,2.05388,0,.94591-.3002,1.84841-.8134,2.55581,2.6816,1.3717,4.3131,4.5294,4.3131,7.9442v.5002l-.5001-.0002-13.00005-.005-.49981-.0001v-.4999c0-3.7078,1.71095-6.6591,4.30763-7.9375-.32616-.4526-.56516-.985-.69521-1.5571H5.40024l.41268-.7428L7,8.12038V5.36071l-1.08351-.35997,1.4254-.47514,4.50001-1.5L12,2.9729zm-1.9597,10.3484c-2.23168.9473-3.87765,3.3698-4.02872,6.6734l11.97592.0046c-.1558-3.051-1.7296-5.6605-4.0305-6.6846-.5518.4287-1.2229.6848-1.9655.6848-.7391,0-1.4045-.2536-1.9512-.6782zm-.2499-4.72237c1.2603.79335,2.9405.94835,4.4174.00346.1859.41767.2927.89334.2927,1.3971,0,1.70991-1.1853,3.00001-2.509,3.00001-1.3192,0-2.49101-1.2861-2.49101-3.00001,0-.50541.10542-.98247.28991-1.40056zM9,7.74982v.18734c-.19673.37454-.34065.78723-.42216,1.22334L8,8.12038V5.69293l1,.33222v1.72467zm1-1.39245v1.16424c1.0769.87423,2.6735,1.0728,4-.00143V6.35737l-1.8424.61208L12,7.02182l-.1576-.05237L10,6.35737zM9.08352,4.99915,12,5.96808l2.9165-.96893L12,4.02699l-2.91648.97216zM7.5,9.27951l.40024.72044h-.80048L7.5,9.27951z"/></svg>