<svg width="36" height="36" xmlns="http://www.w3.org/2000/svg"><path fill-rule="evenodd" clip-rule="evenodd" d="m6.25,3.25h23.5v2.99963H33v1h-1.75V30.2496H33v1H3v-1h1.75V7.24963H3v-1h3.25V3.25zm0,4v-.00037h-.5V30.2496h8v-4.5h8.501l-.009,4.5h8.008V7.24963h-.5V7.25H6.25zm14.992,22.9996H14.75v-3.5h6.499l-.007,3.5zM28.75,4.25v1.99963H7.25V4.25h21.5zm-9,8.9996v3.25h1V8.99963h-1v3.24997h-3.5V8.99963h-1v7.49997h1v-3.25h3.5zm-10,7.1515.75-2.4015.75,2.4015h2.25l-1.8,1.1985.75,2.4-1.95-1.3485-1.95,1.3485.75-2.25-1.8-1.3485h2.25zM18,17.9996l-.75,2.4015H15l1.8,1.3485-.75,2.25L18,22.6511l1.95,1.3485-.75-2.4,1.8-1.35h-2.25l-.75-2.25zm6.75,2.4015.75-2.4015.75,2.25h2.25l-1.8,1.35.75,2.4-1.95-1.3485-1.95,1.3485.75-2.25-1.8-1.3485h2.25z"/></svg>