<svg width="24" height="24" xmlns="http://www.w3.org/2000/svg"><path fill-rule="evenodd" clip-rule="evenodd" d="m9,5.49951c0-1.37296,1.1263-2.5,2.5-2.5s2.5,1.12704,2.5,2.5v7.99999c0,1.3739-1.1261,2.5-2.5,2.5s-2.5-1.1261-2.5-2.5V5.49951zm2.5-3.5c-1.92625,0-3.5,1.57497-3.5,3.5v7.99999c0,1.9262,1.57386,3.5,3.5,3.5,1.9261,0,3.5-1.5738,3.5-3.5V5.49951c0-1.92503-1.5737-3.5-3.5-3.5zM11,18.9813v2.0182H9v1h5v-1h-2v-2.0181c2.7451-.2007,5-2.0527,5-4.9819h-1c0,2.4187-1.9418,4-4.5,4-2.55728,0-4.5-1.5814-4.5-4H6c0,2.9292,2.25581,4.7812,5,4.9818z"/></svg>