<svg width="24" height="24" xmlns="http://www.w3.org/2000/svg"><path fill-rule="evenodd" clip-rule="evenodd" d="m10,14.0001h4v-4h-4v4zm-.99998,1H15V9.00012H9.00002v5.99998zm1.99998-2h2v-2h-2v2zM6.99902,3.99612H10v-1.001H6.99902v1.001zm0,2.0037v-1h-2v1l1,.003v2h1v-1h2v-1.002H10.999v-1H8.99902v.002h-1v1h-1v-.003zm0,3h-1.999v-2h-1v-1h-1v2h1v1h.999v1h2v-1zm5.00048-3.9966h1v-2h-1v.998h-1v1h1v.002zM20,7.00312h1v-1.001h-1v1.001zm-2,5.00058h1v-1h-1v.998h-2v1h2v-.998zM3.99902,4.00322l2-.008v-1h-3v2.008h1v-1zM18,13.0037v2h1v-1h1v1h1v-2h-3zm-5.0005-8.00048v2h1v-1l3-.002v-1h1v-1h-1v-.998h-1v1.998h-1v-.998h-1v1h-1zM16,7.00372v2h1v-.002h1v-1h-1v-.998h-1zm1,14.00138h1v-2h-1v2zm3-1.0033h-1v1h1v.003h1v-2h-1v.997zm0-14.99858h1v-2h-1v-.002h-2v1h2v1.002zm0,10.00048h-1v2.998h-1v1h2v-1h1v-1h-1v-1.998zm0-2.9996h1v-2.001h-1v2.001zm-3-5.00298h2v-1h-2v1zm2,1.0002v2.00198h1v-.99998l1-.002v-1h-2zM11,21.0021h2v-1.001h-2v1.001zM9.99952,8.00132h.99998v.002h1v-2h-1v.998h-.99998v1zm0,11.00048h-1v1h1v.003h.99998v-2h-.99998v.997zM15,19.0047h-1v2h1v-.003h1v-1h-1v-.997zm-7.00098-4.0029-2,.002v1h1v.998h2v-1h-1v-1zM10,17.0021h2v-1h-2v1zm6-6.001h2v-1h-2v1zM2.99902,18.0011h1v-1h-1v1zm2-5h1.001v-1h-1.001v1zm2-3.99998h1v-1h-1v1zM14,8.00212h1v-1.001h-1v1.001zM3.99902,12.0011h1v-1h-1v1zm-1-1h1V9.00112h-1v1.99998zm0,3.001h1v-2.001h-1v2.001zM4.99902,18.0031h2.001v-1h-2.001v1zm0-4.0013h-1v1l-1,.002v1h2v-2.002zm2,5v.003h-1v1h1v.997h1v-1.998h1v-1h-2v.998zm-3,0h-1v2h1v.003h2v-1h-2v-1.003zm2-4.9977h2v-1h-2v1zm0-2h2v-1h-2v1zM17,17.0021h1v-1h-1v1zm-3-.0003h1v2h2v-1h-1v-1.998h1v-2h-1v1.998l-3,.002v1h-1v2h1v-1h1v-1.002z"/></svg>