<svg width="36" height="36" xmlns="http://www.w3.org/2000/svg"><path fill-rule="evenodd" clip-rule="evenodd" d="m26.7498,18.2747c2.5268.2508,4.5,2.3824,4.5,4.9753v6.5h-10v-6.5c0-2.5929,1.9731-4.7245,4.5-4.9753V4.5h1v13.7747zM4.60938,16.75h1.67587c.24282-1.6955,1.70212-3,3.46451-3,1.76244,0,3.22174,1.3045,3.46454,3h7.6759l-.1554.6213-3,12-.0946.3787H7.85938l-.09469-.3787-3-12-.15531-.6213zm5.14038-2c1.20864,0,2.21804.8594,2.44994,2H7.29986c.23188-1.1406,1.24126-2,2.4499-2zm-3.85961,3,2.75,11h8.21925l1.625-6.5h-4.9846v-1h5.2346l.875-3.5H5.89015zm18.35965,11V25.5h1v3.25h2V24h1v4.75h2v-5.5c0-2.2094-1.7907-4-4-4-2.2094,0-4,1.7906-4,4v5.5h2zm-9.5-16c0-.5519.4481-1,1-1,.5518,0,1,.4481,1,1s-.4482,1-1,1c-.5519,0-1-.4481-1-1zm1-2c-1.1042,0-2,.8959-2,2s.8958,2,2,2c1.1041,0,2-.8959,2-2s-.8959-2-2-2zm-6.75004-.5c-.13785,0-.25.1121-.25.25s.11215.25.25.25c.13786,0,.25-.1121.25-.25s-.11214-.25-.25-.25zm-1.25.25c0-.69014.55986-1.25,1.25-1.25.69015,0,1.25004.55986,1.25004,1.25,0,.6901-.55989,1.25-1.25004,1.25-.69014,0-1.25-.5599-1.25-1.25z"/></svg>