<svg width="36" height="36" xmlns="http://www.w3.org/2000/svg"><path fill-rule="evenodd" clip-rule="evenodd" d="m7.26,18C7.28,12.06,12.1,7.26,18.03,7.27c2.06,0,4.3.84,6.27,2.17,1.72,1.16,3.18,2.69,4.11,4.31H22.5v1h7.23l.02-7.23-1,0-.01,4.88c-1-1.44-2.36-2.75-3.88-3.78-2.08-1.41-4.52-2.34-6.83-2.34h0C11.55,6.26,6.28,11.51,6.26,18l1,0zm.23,4.26,6.01-.01,0-1-7.23.02L6.25,28.5l1,0,.01-4.56C9.45,27.43,13.7,29.75,18,29.75c6.49,0,11.75-5.26,11.75-11.75h-1c0,5.94-4.81,10.75-10.75,10.75-4.45,0-8.8-2.69-10.51-6.49z"/></svg>