<svg width="36" height="36" xmlns="http://www.w3.org/2000/svg"><path fill-rule="evenodd" clip-rule="evenodd" d="m27.25,10.2529V13.5h1v-3.2471h3.2567v-.99997H28.25V6h-1v3.25293h-3.3408v.99997H27.25zm-9.5642-2.99805-.4379-.77839-.4347.78019L7.49764,23.9773,3.69313,30.498l-.43874.752H31.2455l-.4386-.7519-1.2686-2.1747L17.6858,7.25485zm.0756,10.38645-8.468,5.1674,7.9587-14.28516,9.7916,17.40496-8.6779-8.2233-.2777-.2632-.3267.1993zm.1943,1.0529,10.7507,10.1876.7981,1.3682H4.9956l3.30441-5.6636,9.65569-5.8922z"/></svg>