<svg width="24" height="24" xmlns="http://www.w3.org/2000/svg"><path fill-rule="evenodd" clip-rule="evenodd" d="m16,4V2h1v2h-1zm-1.08,2.54c.44.29.81.69,1.07,1.18.32.61.45,1.34.32,2.14.49.11.89.38,1.18.75.04.05.07.1.11.15.84-.4,1.4-1.24,1.4-2.26,0-1.41-1.09-2.5-2.5-2.5-.61,0-1.15.2-1.58.54zm3.04,5.15c.04.23.05.47.03.71-.05.64-.32,1.29-.82,1.79-.51.5-1.25.81-2.17.81H8c-.95,0-1.69-.31-2.2-.82-.5-.51-.74-1.17-.76-1.81-.03-.64.15-1.29.51-1.79.27-.38.66-.69,1.14-.81.09-1.85,2.01-2.9,3.52-2.18.89-1.44,2.42-1.87,3.73-1.5C14.58,5.41,15.48,5,16.5,5c1.97,0,3.5,1.53,3.5,3.5,0,1.44-.82,2.65-2.03,3.19zm-7.11-3.19c.64-1.44,1.95-1.77,3-1.39.53.19.98.57,1.25,1.07.26.5.36,1.17.12,1.98l-.2.67.7-.03c.47-.02.78.16.99.42.22.28.33.67.3,1.1-.03.42-.21.84-.53,1.15-.31.3-.79.53-1.48.53H8c-.73,0-1.2-.23-1.49-.52-.3-.3-.46-.71-.47-1.15-.02-.44.1-.86.32-1.17.21-.29.5-.46.85-.46h.56l-.07-.56c-.18-1.5,1.42-2.25,2.39-1.45l.51.42.27-.6zm.62-4.26,1.44,1.39.69-.72-1.44-1.39-.69.72zM20.85,13.63l-1.41-1.41.71-.71,1.41,1.41-.71.71zM23,8h-2v1h2V8zm-3.67-3.05,1.41-1.41.71.71-1.41,1.41-.71-.71zM10,16c-.55,0-1,.45-1,1s.45,1,1,1C10.55,18,11,17.55,11,17s-.45-1-1-1zM13,17c0-.55.45-1,1-1s1,.45,1,1-.45,1-1,1-1-.45-1-1zm-1,2c-.55,0-1,.45-1,1s.45,1,1,1,1-.45,1-1-.45-1-1-1z"/></svg>