<svg width="48" height="48" xmlns="http://www.w3.org/2000/svg"><path fill-rule="evenodd" clip-rule="evenodd" d="m19.8141,7.13444C21.3055,6.72096,22.877,6.5,24.5,6.5c1.6231,0,3.1947.22098,4.6861.63451l-4.6859,3.40429-4.6861-3.40436zm-1.1856.3749c-3.1974,1.13855-5.9663,3.18066-7.9992,5.81906l2.0545,6.324,4.7441,1.868L24,16.7452v-5.3336l-5.3715-3.90226zM9.90619,14.339c-1.70527,2.5707-2.74943,5.6181-2.88992,8.8995l4.67693-3.3987L9.90619,14.339zM6.0192,24.8505l.00455.3454.01366-.0099C6.6489,34.8505,14.6813,42.5,24.5,42.5c9.8163,0,17.8472-7.6458,18.4621-17.3069l.0135.0097.0042-.3305C42.9932,24.5832,43,24.2924,43,24,43,13.7829,34.7171,5.5,24.5,5.5S6.00011,13.7827,6,23.9998c0,.0001,0,.0001,0,.0002,0,.285.00645.5686.0192.8505zm35.9648-1.6049c-.1394-3.2879-1.1861-6.341-2.8961-8.9155l-1.7909,5.51,4.687,3.4055zm-3.6197-9.9255c-2.0323-2.6343-4.7986-4.6733-7.9926-5.81068L25,11.4119v5.3333l6.5721,4.7751,4.7343-1.8677,2.0579-6.3325zm3.629,11.169-5.3564-3.8919-4.7343,1.8677-2.5181,7.7492,2.9186,3.6902h6.6264c1.8506-2.691,2.968-5.9255,3.0638-9.4152zm-3.8051,10.4152h-5.7639l-1.7823,5.4875c2.9892-1.1206,5.5902-3.0354,7.5462-5.4875zM29.4619,40.7866l2.0405-6.2827-2.9176-3.6889h-8.1693l-2.9122,3.6842,2.0436,6.29c1.5705.4626,3.2328.7108,4.9531.7108,1.7235,0,3.3888-.2492,4.9619-.7134zm-11.0947-.3914-1.7855-5.4958h-5.7738c1.9584,2.457,4.5643,4.375,7.5593,5.4958zm-8.3-6.4958c-1.84999-2.6919-2.96635-5.9273-3.0607-9.4176l5.3462-3.8851,4.7447,1.8683,2.5182,7.7494-2.9129,3.685h-6.6355zm8.0206-11.6224,2.4495,7.538h7.9254l2.4495-7.538L24.5,17.618l-6.4122,4.659z"/></svg>