<svg width="24" height="24" xmlns="http://www.w3.org/2000/svg"><path fill-rule="evenodd" clip-rule="evenodd" d="m11.5001,2h-.5v3.03544C9.30388,5.27803,8,6.73674,8,8.5v2.8616l-1.6857.6743L6,12.1616V15H2.99976v6H2v1h19v-1h-1.0002v-6h-2.9996v-2.8384l-.3143-.1257L15,11.3615V8.5c0-1.76322-1.3038-3.22191-2.9999-3.46455V3.9999H14V2h-2.4999zm4.5001,13v-1H7v1h9.0002zM6,16H3.99976v5H6v-5zm1,0h1v5H7v-5zm2,0v5h.99978l-.001-2.4999v-.0002c0-.8284.67152-1.4999,1.49982-1.4999s1.4998.6714,1.4999,1.4996v.0003L12.9997,21h1.0007L14,16H9zm6,0h1.0002v5h-.9998L15,16zm2.0002,0h1.9996v5h-1.9996v-5zm-5.0005,5h-.9999l-.001-2.5001v-.0002c.0001-.276.2238-.4997.4998-.4997.2761,0,.4999.2238.4999.4999v.0002L11.9997,21zm4.0005-8.1614V13H7v-.1614l4.5001-1.8001,4.5001,1.8001zM14,10.9615V9H9v1.9616l2.3144-.9258.1857-.07432.1857.07432L14,10.9615zM11.5,6c1.2095,0,2.2184.85888,2.45,2H9.05001C9.28164,6.85888,10.2905,6,11.5,6z"/></svg>