<svg width="24" height="24" xmlns="http://www.w3.org/2000/svg"><path fill-rule="evenodd" clip-rule="evenodd" d="m5,5h4v.78c.04-.04.08-.07.13-.11.69-.54,1.58-.67,2.37-.67h5c.83,0,1.5.67,1.5,1.5,0,.2-.04.38-.11.55C18.53,7.23,19,7.82,19,8.51c0,.38-.14.73-.38,1,.24.27.38.62.38,1,0,.38-.14.73-.38,1,.24.27.38.62.38,1,0,.83-.67,1.5-1.5,1.5h-2.77l1.17,2.98c.06.17.09.34.09.52,0,.83-.67,1.5-1.5,1.5-.42,0-.79-.17-1.06-.44l-.01-.01-4.15-4.55H8v0H5V5zm3,3.49C8,8.5,8,8.5,8,8.51V13.01H6V6h2v2.49zm1,4.52h.72l4.43,4.86c.09.09.21.14.35.14.28,0,.5-.22.5-.5,0-.06-.01-.12-.03-.17l-1.71-4.33H17.5c.28,0,.5-.22.5-.5,0-.28-.22-.5-.5-.5v0H16v-1h1.5v0c.28,0,.5-.22.5-.5,0-.28-.22-.5-.5-.5v0H16V9.01h1.5v0c.28,0,.5-.22.5-.5,0-.28-.22-.5-.5-.5h-1v0H16v-1h.5v0c.28,0,.5-.22.5-.5,0-.28-.22-.5-.5-.5h-5c-.72,0-1.33.12-1.76.46-.4.31-.74.89-.74,2.03v4.52z"/></svg>