<svg width="36" height="36" xmlns="http://www.w3.org/2000/svg"><path fill-rule="evenodd" clip-rule="evenodd" d="m24.18,14.98c.79.12,1.43.51,1.88,1.08.56.69.8,1.61.74,2.52-.06.91-.43,1.83-1.16,2.53-.73.7-1.78,1.15-3.14,1.15h-10.5c-1.37,0-2.42-.44-3.12-1.16-.7-.71-1.03-1.64-1.07-2.55-.04-.91.21-1.83.71-2.53.42-.58,1.01-1.02,1.76-1.17.01-2.8,2.94-4.36,5.13-3.13,1.33-2.37,3.8-2.95,5.8-2.23,1.06.39,2,1.15,2.56,2.2.48.92.66,2.04.42,3.29zm-3.31-4.56c-1.69-.61-3.8-.06-4.81,2.23l-.27.6-.51-.42c-1.63-1.33-4.28-.07-3.99,2.4l.07.56h-.56c-.62,0-1.12.3-1.47.8-.36.5-.56,1.2-.53,1.9.03.7.29,1.38.78,1.89.49.5,1.26.86,2.41.86h10.5c1.13,0,1.92-.36,2.45-.87.53-.51.81-1.19.85-1.87.05-.69-.14-1.35-.52-1.83-.37-.46-.93-.76-1.71-.73l-.7.03.2-.67c.38-1.27.23-2.34-.19-3.15-.43-.82-1.16-1.42-2.01-1.73zm6.12,14.82H7.5v-1h19.49v1zM9,28.25h16.49v-1H9v1z"/></svg>