<svg width="36" height="36" xmlns="http://www.w3.org/2000/svg"><path fill-rule="evenodd" clip-rule="evenodd" d="m9.75,6.25049h-.5V29.7505h17.5V14.0434l-.1464-.1465-7.5-7.49997-.1465-.14644H9.75zm.5,22.50001V7.25049h8v7.50001h7.5v14h-15.5zm14.7929-15L19.25,7.9576v5.7929h5.7929zM12.25,7.98799v-.4875h1v.4875h-1zm0,1.95v-.975h1v.975h-1zm0,1.95001v-.975h1v.975h-1zm0,1.95v-.975h1v.975h-1zm0,1.95v-.975h1v.975h-1zM12.25,17.738v-.975h1v.975h-1zm0,1.95v-.975h1v.975h-1zm0,1.95v-.975h1v.975h-1zM12.25,23.588v-.975h1v.975h-1zm0,1.95v-.975h1v.975h-1zm0,1.4625v-.4875h1v.4875h-1zm1.5-18.00001v.4875h1v-.4875h-1zm0,1.46251v.975h1v-.975h-1zm0,1.95v.975h1v-.975h-1zM13.75,14.363v.975h1v-.975h-1zm0,1.95v.975h1v-.975h-1zm0,1.95v.975h1v-.975h-1zM13.75,20.213v.975h1v-.975h-1zm0,1.95v.975h1v-.975h-1zm0,1.95v.975h1v-.975h-1zm0,1.95v.975h1v-.975h-1zm0,1.95v.4875h1v-.4875h-1z"/></svg>