<svg width="36" height="36" xmlns="http://www.w3.org/2000/svg"><path fill-rule="evenodd" clip-rule="evenodd" d="m11.9964,8c-.5522,0-1,.44697-1,1,0,.55186.4481,1,1,1s1-.44814,1-1c0-.55303-.4478-1-1-1zm-2,1c0-1.10597.8962-2,2-2s2,.89403,2,2c0,1.1041-.8959,2-2,2s-2-.8959-2-2zm10.0543.95347C20.8621,9.00839,22.0297,8.5,23.25,8.5h4.5c2.3448,0,4.25,1.907,4.25,4.25S30.0948,17,27.75,17h-2.5721l-9.2284,10.5463C15.1393,28.4919,13.9699,29,12.75,29h-6c-2.34314,0-4.25-1.9069-4.25-4.25,0-2.3448,1.90699-4.25,4.25-4.25h3.24715v-7.5008h3.99995v3.8712l6.0518-6.91485c.0006-.00069.0012-.00139.0018-.00208zm-7.0536,8.05963v-4.0139h-2v6.2991l2-2.2852zM23.25,9.5c-.9418,0-1.8284.39087-2.4419,1.1065l-.0033.0038-9.381,10.719-.1494.1707H6.75c-1.79099,0-3.25,1.4578-3.25,3.25C3.5,26.5409,4.95914,28,6.75,28h6c.9421,0,1.8299-.3911,2.4416-1.1061l.0036-.0042,9.3795-10.719L24.7241,16H27.75c1.7922,0,3.25-1.459,3.25-3.25S29.5422,9.5,27.75,9.5h-4.5z"/></svg>