<svg width="36" height="36" xmlns="http://www.w3.org/2000/svg"><path fill-rule="evenodd" clip-rule="evenodd" d="m26.0442,16.0638c-.441-.564-1.0737-.9611-1.8644-1.0792.2458-1.2538.065-2.374-.4164-3.2933-.5547-1.0593-1.4915-1.81855-2.5552-2.20443-1.9973-.72451-4.4714-.13816-5.8,2.22963-2.1923-1.2255-5.1274.3314-5.1347,3.1337-.7433.1434-1.34132.5855-1.75756,1.1673-.50429.7049-.75295,1.6239-.71355,2.5299.03955.9094.37146,1.8407,1.0731,2.5477.70786.7132,1.74981,1.1555,3.12471,1.1555h10.5c1.3304,0,2.3659-.4455,3.0866-1.1471.7147-.6957,1.0913-1.615,1.1622-2.52.0707-.9016-.1599-1.8229-.7048-2.5197zm-9.9866-3.4113c1.0103-2.2899,3.1239-2.83705,4.8096-2.2256.8487.3079,1.5807.908,2.0103,1.7284.4264.8141.5723,1.8785.1934,3.1529l-.1992.67.6985-.028c.7774-.0311,1.3294.2732,1.6862.7295.3678.4704.5499,1.1335.4957,1.8256-.054.6887-.3398,1.3726-.8628,1.8816-.5168.5031-1.2941.8637-2.3891.8637h-10.5c-1.1504,0-1.9225-.3638-2.41494-.86-.49865-.5024-.75324-1.1836-.78381-1.8867-.03073-.7065.16687-1.4.52779-1.9045.35478-.4959.85516-.7988,1.47096-.7988h.5633l-.0669-.5593c-.2954-2.4728,2.3589-3.7372,3.9867-2.4038l.5089.4167.2654-.6017zM20,27.7502c0-.1379.1121-.25.25-.25s.25.1121.25.25c0,.1378-.1121.25-.25.25s-.25-.1122-.25-.25zm.25-1.25c-.6901,0-1.25.5598-1.25,1.25,0,.6901.5599,1.25,1.25,1.25s1.25-.5599,1.25-1.25c0-.6902-.5599-1.25-1.25-1.25zm3-2c-.1379,0-.25.1121-.25.25,0,.1378.1121.25.25.25.1378,0,.25-.1122.25-.25,0-.1379-.1122-.25-.25-.25zm-1.25.25c0-.6902.5599-1.25,1.25-1.25s1.25.5598,1.25,1.25c0,.6901-.5599,1.25-1.25,1.25s-1.25-.5599-1.25-1.25zm-5,0c0-.1379.1121-.25.25-.25s.25.1121.25.25c0,.1378-.1121.25-.25.25s-.25-.1122-.25-.25zm.25-1.25c-.6901,0-1.25.5598-1.25,1.25,0,.6901.5599,1.25,1.25,1.25s1.25-.5599,1.25-1.25c0-.6902-.5599-1.25-1.25-1.25zm-6,1c-.1379,0-.25.1121-.25.25,0,.1378.1121.25.25.25s.25-.1122.25-.25c0-.1379-.1121-.25-.25-.25zm-1.25001.25c0-.6902.55991-1.25,1.25001-1.25s1.25.5598,1.25,1.25c0,.6901-.5599,1.25-1.25,1.25s-1.25001-.5599-1.25001-1.25zm4.00001,3c0-.1379.1121-.25.25-.25s.25.1121.25.25c0,.1378-.1121.25-.25.25s-.25-.1122-.25-.25zm.25-1.25c-.6901,0-1.25.5598-1.25,1.25,0,.6901.5599,1.25,1.25,1.25s1.25-.5599,1.25-1.25c0-.6902-.5599-1.25-1.25-1.25z"/></svg>