<svg width="36" height="36" xmlns="http://www.w3.org/2000/svg"><path fill-rule="evenodd" clip-rule="evenodd" d="m13.25,5.25c0-.52336.4766-1,1-1s1,.47664,1,1-.4766,1-1,1-1-.47664-1-1zm1-2c-1.0756,0-2,.92436-2,2s.9244,2,2,2,2-.92436,2-2-.9244-2-2-2zm-1.7071,6h3.5161l.1382.27639,1.4799,2.95971L19.9,15.45l-.8.6-2.25-3-.0271-.0361-.0201-.0403L16.25,11.868v5.2306l1.416,2.1241.084.1259V22.75h3.5v-4.5h6v-4.5H33v1h-4.75v4.5h-6v4.5h-6v4.5h-6v4.5H3v-1h6.25v-4.5h1.6096l1.3904-5.5616V10.9571l-2,2V16.5h-1v-3.9571l.14645-.1465,2.99995-2.99995.1465-.14645zm.7071,7.5v-6.5h2v6.5h-2zm0,1v4.0616l-.0149.0597L11.8904,27.25H15.25v-4.5h1.5v-3.0986L15.4824,17.75H13.25z"/></svg>