<svg width="48" height="48" xmlns="http://www.w3.org/2000/svg"><path fill-rule="evenodd" clip-rule="evenodd" d="m29.5012,5.99968v-.00017l-.0128.00033c-3.084.07918-5.9456,1.59-7.7518,4.06956-1.3014-.69308-2.7544-1.06062-4.2332-1.06923v-.00001h-.0029c-5.8807,0-10.50001,5.68614-10.50001,12.50004,0,6.6203,4.35941,12.1744,9.99951,12.4862v8.0358h1v-8.0465c2.8961-.2163,5.5539-1.696,7.2638-4.045,1.1555.6151,2.4302.9744,3.7372,1.0528v11.0387h1V30.9859c5.6395-.3114,10.0002-5.8666,10.0002-12.4862,0-6.814-4.6204-12.50002-10.5-12.50002zM25.4043,28.8628l-.0347-.0208-.0002.0002-.0034-.002c-3.1476-1.8516-5.3655-5.7572-5.3655-10.34v-.0045c-.0241-2.6709.7789-5.285,2.2982-7.4822l.2381-.3442c1.6221-2.23409,4.1961-3.59638,6.9708-3.66962,5.1616.00418,9.4936,5.06262,9.4936,11.50002,0,6.4396-4.335,11.4992-9.4989,11.5-1.4218-.0076-2.8159-.3892-4.043-1.1046l-.055-.0323zM17.499,10.0002c-5.1647.0009-9.49851,5.0605-9.49851,11.5,0,6.4384,4.33111,11.4958,9.49361,11.5,2.7386-.0714,5.2825-1.4003,6.907-3.5843-3.2392-2.1468-5.3999-6.2421-5.4006-10.9135-.0239-2.6929.7328-5.3322,2.1722-7.5996-1.1337-.5848-2.3926-.8949-3.6737-.9026zm-.5445,2.002c-3.2327.2952-6.1074,3.1745-6.9423,6.8883l.9756.2193c.7631-3.3942,3.3544-5.8649,6.0577-6.1117l-.091-.9959zM28.9555,9.00224c-3.2326.29515-6.1084,3.17326-6.9424,6.88846l.9757.219c.7621-3.3949,3.3542-5.8648,6.0576-6.11161l-.0909-.99585z"/></svg>