<svg width="24" height="24" xmlns="http://www.w3.org/2000/svg"><path fill-rule="evenodd" clip-rule="evenodd" d="m15.9927,3.00708c-2.7622,0-5,2.23893-5,5v.00936l.0003.00936c.0146.38808.0751.75032.1743,1.09389l.9608-.27722c-.0761-.26372-.1233-.54245-.1354-.84477.005-2.20462,1.7933-3.99062,4-3.99062,2.208,0,3.9987,1.78987,4,3.99764-.0064.62411-.2006,1.19787-.5298,1.77895l-3.4582,5.45813-.6026-.9513-.8448.5352,1.025,1.618.4223.6667.4224-.6667,3.887-6.135.0064-.01.0058-.0103c.3909-.68672.6584-1.43121.6665-2.27657v-.00475c0-2.76114-2.2389-5-5-5zm.0063,3.99365c-.5528,0-1,.44715-1,1,0,.55286.4472,1,1,1,.5521,0,1-.44736,1-1s-.4479-1-1-1zm-2,1c0-1.10514.8949-2,2-2,1.1039,0,2,.89464,2,2s-.8961,1.99997-2,1.99997c-1.1051,0-2-.89482-2-1.99997zM4.99994,10.9999h-1v.993h-1.008V9.99292h1v-.00098h1.008v1.00796zm-1.008,9.994h-1v-2h1.008v.999h1v1.008h-1.008v-.007zm3-2.001v-1h-1.992v-1h-.008v-.992h1v1.991h4.99996v-1.991h1v.992h-.999v1H8.99292v1h1.99898v1.008h1v1h1.008v-.007h1.001v-2h-1.008v.999h-.993v-1h-1.007v-1h2.001v-1h.999v-1h-1.993v-.999h1.993v-1h-.993v-1.001h-1.007v-.993h.007v-1h.993v.993h1.008V9.99292h-1.001v-.00098h-1.008v.99996h-1v1.001h-.99898v.999h-.99298v-1h-1.008v-.999h-2v.999h-1v1.001h-1v1h-1v1.008h1.008v-1.008h1.992v1h-1v1h-2v1h1v1.008h1v.992h2zm0,0h1.008v1h1.99298v1h-2v-.992h-.99298v1h-1.008v-1.008h1v-1zm-.992-6.001h1.992v-.999h-1.992v.999zm4.99196,2.001h1v-2h-1v2zM7.99292,10.9929h2v-.99998h-2v.99998zm-.00098,5.008h1.008v-1.008h-1.008v1.008zm2,.991h-3v-3h3v3z"/></svg>