<svg width="48" height="48" fill="none" xmlns="http://www.w3.org/2000/svg"><path d="m24,23.5c4.1421,0,7.5-3.3579,7.5-7.5S28.1421,8.5,24,8.5s-7.5,3.3579-7.5,7.5,3.3579,7.5,7.5,7.5zm11.5-7.4973C35.5,9.64994,30.3513,4.5,24,4.5S12.5,9.64994,12.5,16.0027c.0771,1.9728.6619,3.6317,1.6009,5.1985L24.0327,37l9.9318-15.7988c.9274-1.6246,1.5187-3.3148,1.5355-5.1985zM17.0169,30.5918C9.67872,31.4834,4.5,33.7366,4.5,36.3421,4.5,39.7164,13.1862,42.5,24,42.5s19.5-2.7836,19.5-6.1579c0-2.6015-5.1628-4.8518-12.4831-5.7462" stroke="#000" stroke-miterlimit="10"/></svg>