<svg width="48" height="48" fill="none" xmlns="http://www.w3.org/2000/svg"><path fill-rule="evenodd" clip-rule="evenodd" d="m31,24c0,3.91-3.09,7-7,7s-7-3.09-7-7,3.09-6.99,7-6.99,7,3.08,7,6.99zm10.02-10c0,1.69-1.33,3-3.02,3-1.69,0-3-1.31-3-3s1.31-3.01,3-3.01c1.69,0,3.02,1.32,3.02,3.01zM43,31c0,2.27-1.73,4-4,4s-4-1.73-4-4,1.73-4,4-4,4,1.73,4,4zm-27.99,6c0,2.26-1.75,4-4.01,4-2.26,0-4-1.75-4-4,0-2.26,1.74-4,4-4,2.26,0,4.01,1.74,4.01,4zM15,8c0,1.7-1.3,3-3,3S9,9.7,9,8s1.3-3,3-3,3,1.3,3,3z" stroke="#000"/><path d="m13.95,10.3,5.87,8.06m15.71-2.64-5.89,4.1m5.72,9.46-5.01-2.32M13.83,34.13l5.25-5.12" stroke="#000"/></svg>