<svg width="48" height="48" xmlns="http://www.w3.org/2000/svg"><path fill-rule="evenodd" clip-rule="evenodd" d="m24.8851,8.51233-.3744-.42306-.3744.42306C17.6212,15.8737,16.0925,23.596,16.1984,29.4757c.0136.7523.0538,1.4744.1138,2.1616-2.1121,1.1614-2.9303,2.996-3.209,4.5408-.1452.8046-.146,1.5354-.1111,2.0641.0175.2651.0441.4814.0667.6334.0114.0761.0217.1362.0295.1784.0038.0211.0071.0378.0095.0497l.0029.0144.0009.0045.0004.0016.0001.0006c.0001.0002.0001.0005.4889-.1048l-.4888.1053.1841.8548.6433-.5922c1.1722-1.0791,2.3305-1.7059,3.4261-2.0303.1533.5366.2976.9779.4145,1.312.083.2372.1523.4205.2013.5457.0245.0626.044.1106.0576.1437l.0159.0382.0044.0105.0013.0031.0005.001c.0001.0003.0003.0006.4595-.1971l-.4592.1977.2788.6477.5185-.477.0001-.0001v-.0001l.0003-.0002.0015-.0013.01-.009c.0094-.0085.0245-.0217.045-.0394.041-.0352.1035-.0878.1862-.1538.1655-.1319.411-.3168.7246-.5229.629-.4133,1.5233-.9062,2.5908-1.2336.4955-.1519,1.0292-.2688,1.5927-.325V40h1v-2.734c1.5987.0599,3.3774.6655,5.1722,2.3167l.5189.4774.2788-.6477-.4592-.1977c.4592.1977.4594.1974.4595.1971l.0004-.001.0014-.0031.0044-.0105.0159-.0382c.0136-.0331.0331-.0811.0576-.1437.049-.1252.1183-.3085.2013-.5457.1156-.3305.258-.7657.4094-1.2944,1.0792.3292,2.217.9522,3.3683,2.0123l.6435.5925.184-.8551-.4889-.1052c.4889.1052.4889.1049.489.1047l.0001-.0006.0003-.0016.001-.0044.0029-.0143c.0023-.0119.0055-.0284.0094-.0493.0077-.0419.0179-.1015.0292-.1769.0224-.1507.0489-.3652.0664-.6282.035-.5244.0351-1.2495-.1068-2.049-.2723-1.5341-1.0747-3.3611-3.1527-4.5304.0616-.6969.1029-1.4299.1167-2.194.1059-5.8797-1.4228-13.602-7.9379-20.96337zM14.0873,36.3557c.2236-1.2392.8302-2.6439,2.3398-3.6227.173,1.4122.4211,2.6473.6712,3.6579-1.0218.2988-2.0704.8218-3.1165,1.6407-.0214-.4543-.009-1.0414.1055-1.6759zm20.8893,1.6754c-1.0257-.8029-2.054-1.3211-3.0579-1.6226.2494-1.0049.4972-2.2333.671-3.6381,1.4738.9819,2.0666,2.3758,2.2847,3.6044.1112.6271.1233,1.2067.1022,1.6563zM25,36.266c1.654.0537,3.4741.6165,5.2972,2.1021l.0101-.0288c.1576-.4503.3701-1.1132.5862-1.9553.4325-1.6849.8784-4.0826.9297-6.9263.078-4.3308-.7586-9.6976-3.96-15.1667-2.7804,1.3024-5.4455.5037-6.6899-.0258-3.2139,5.478-4.0532,10.8549-3.9751,15.1925.0513,2.8437.4972,5.2414.9297,6.9263.2161.8421.4286,1.505.5862,1.9553l.0191.0544c.1506-.1118.3294-.2386.5342-.3731.6835-.4492,1.6642-.9913,2.8467-1.3539.5845-.1793,1.2173-.314,1.8859-.3726V32h1v4.266zm-3.3004-22.8648c1.1461.4639,3.353,1.0533,5.6406.0292-.8045-1.2761-1.7416-2.5552-2.8295-3.8253-1.0796,1.2604-2.0106,2.5296-2.8111,3.7961zM22,22.5c0-1.3809,1.1191-2.5,2.5-2.5s2.5,1.1191,2.5,2.5S25.8809,25,24.5,25,22,23.8809,22,22.5zm2.5-3.5c-1.9331,0-3.5,1.5669-3.5,3.5s1.5669,3.5,3.5,3.5,3.5-1.5669,3.5-3.5S26.4331,19,24.5,19z"/></svg>