<svg width="24" height="24" xmlns="http://www.w3.org/2000/svg"><path fill-rule="evenodd" clip-rule="evenodd" d="m11.855,2.39832-.3561-.35981-.3554.36041-3.84197,3.896.71203.70216,2.98654-3.0285V11.001l-7.04349-.0004,2.64702-2.64705-.70711-.70711-3.5,3.49996-.35355.3536.35355.3536,3.5,3.5.70711-.7072-2.64587-2.6458,7.04234.0004v7.0299l-2.99519-3.0271-.71084.7034,3.85303,3.894.356.3598.3554-.3605,3.842-3.897-.7121-.702-2.9883,3.0311V12.001l7.0414.0004-2.645,2.645.7071.7072L20.9572,11.5,17.1036,7.64644l-.7071.70711,2.6479,2.64785-7.0443-.0004V3.96673l2.997,3.02895.7109-.70336-3.853-3.894z"/></svg>