<svg width="36" height="36" xmlns="http://www.w3.org/2000/svg"><path fill-rule="evenodd" clip-rule="evenodd" d="m4.25,9.5391c0-2.92036,2.36814-5.2885,5.2885-5.2885h16.923c2.9204,0,5.2885,2.36814,5.2885,5.2885v16.9215c0,2.9219-2.3696,5.29-5.2885,5.29H9.5385c-2.92019,0-5.2885-2.3695-5.2885-5.29V9.5391zm5.2885-6.2885c-3.47264,0-6.2885,2.81586-6.2885,6.2885v16.9215c0,3.4725,2.81569,6.29,6.2885,6.29h16.923c3.4711,0,6.2885-2.8159,6.2885-6.29V9.5391c0-3.47264-2.8159-6.2885-6.2885-6.2885H9.5385zm13.8859,13.726L19.8964,13.5h2.6216L27,18l-4.482,4.5h-2.6216l3.528-3.4534h-4.3868V22.5h-2.0739v-3.4534h-4.3624l3.528,3.4534h-2.6229L9,18l4.5064-4.5h2.6229l-3.528,3.4766h4.3624V13.5h2.0739v3.4766h4.3868z"/></svg>