<svg width="36" height="36" xmlns="http://www.w3.org/2000/svg"><path fill-rule="evenodd" clip-rule="evenodd" d="m15,21h6v-6h-6v6zm-1.5,1.5h9v-9h-9v9zm3-3h3v-3h-3v3zM10.5,5.99H15v-1.5h-4.5v1.5zm0,3.01v-1.5H7.5v1.5l1.5,0v3h1.5v-1.5h3V9h3v-1.5h-3v0h-1.5V9h-1.5v0zm0,4.5H7.5v-3h-1.5V9h-1.5v3h1.5v1.5h1.5v1.5h3v-1.5zM18,7.5h1.5v-3h-1.5v1.5h-1.5v1.5h1.5v0zM30,10.5h1.5V9H30v1.5zm-3,7.5h1.5v-1.5H27v1.5h-3v1.5h3v-1.5zM6,6l3-.01v-1.5h-4.5v3.01h1.5v-1.5zM27,19.51v3h1.5v-1.5H30v1.5h1.5v-3H27zM19.5,7.5v3h1.5v-1.5l4.5,0v-1.5h1.5v-1.5h-1.5v-1.5h-1.5v3h-1.5v-1.5h-1.5v1.5h-1.5zM24,10.51v3h1.5v0H27v-1.5h-1.5v-1.5H24zm1.5,21H27v-3h-1.5v3zm4.5-1.5h-1.5v1.5H30v0h1.5v-3H30v1.5zm0-22.5h1.5v-3H30v0h-3v1.5h3v1.5zm0,15h-1.5v4.5H27v1.5h3v-1.5h1.5v-1.5H30v-3zm0-4.5h1.5v-3H30v3zm-4.5-7.5h3V9h-3v1.5zm3,1.5v3H30v-1.5l1.5,0v-1.5h-3zm-12,19.5h3v-1.5h-3v1.5zM15,12h1.5v0h1.5V9.01h-1.5V10.5h-1.5v1.5zm0,16.5h-1.5v1.5h1.5v0h1.5v-3h-1.5v1.5zm7.5,0H21v3h1.5v0H24v-1.5h-1.5V28.51zm-10.5-6-3,0v1.5h1.5v1.5h3v-1.5h-1.5v-1.5zM15,25.5h3v-1.5h-3v1.5zm9-9h3v-1.5h-3v1.5zm-19.5,10.5h1.5v-1.5h-1.5v1.5zm3-7.5h1.5v-1.5H7.5v1.5zm3-6h1.5v-1.5h-1.5v1.5zM21,12h1.5v-1.5H21v1.5zM6,18h1.5v-1.5h-1.5v1.5zm-1.5-1.5h1.5v-3h-1.5v3zm0,4.5h1.5v-3h-1.5v3zm3,6H10.5v-1.5H7.5v1.5zm0-6h-1.5v1.5l-1.5,0v1.5h3v-3zm3,7.5v0H9v1.5h1.5v1.5h1.5v-3h1.5v-1.5h-3v1.5zm-4.5,0h-1.5v3h1.5v0h3v-1.5h-3v-1.5zm3-7.5h3v-1.5H9v1.5zm0-3h3v-1.5H9v1.5zM25.5,25.5H27v-1.5h-1.5v1.5zm-4.5,0h1.5v3h3v-1.5H24v-3h1.5v-3H24v3l-4.5,0v1.5H18v3h1.5v-1.5H21v-1.5z"/></svg>