<svg width="36" height="36" xmlns="http://www.w3.org/2000/svg"><path fill-rule="evenodd" clip-rule="evenodd" d="m5.75,9c0-.27331.18872-.63613.78119-1.05088.57878-.40516,1.44998-.7903,2.5746-1.12191C11.3485,6.1659,14.486,5.75,18,5.75s6.6515.4159,8.8942,1.07721c1.1246.33161,1.9958.71675,2.5746,1.12191.5925.41475.7812.77757.7812,1.05088s-.1887.63613-.7812,1.0509c-.5788.4051-1.45.7903-2.5746,1.1219C24.6515,11.8341,21.514,12.25,18,12.25s-6.6515-.4159-8.89421-1.0772c-1.12462-.3316-1.99582-.7168-2.5746-1.1219C5.93872,9.63613,5.75,9.27331,5.75,9zm-1,0c0-.76319.51815-1.38737,1.20771-1.87009.70326-.49231,1.68925-.91511,2.86525-1.26187C11.1815,5.1726,14.419,4.75,18,4.75s6.8185.4226,9.177,1.11804c1.176.34676,2.162.76956,2.8653,1.26187C30.7318,7.61263,31.25,8.23681,31.25,9v18c0,.8659-.5569,1.5453-1.3167,2.0563-.7642.5141-1.8219.9224-3.0411,1.2413-2.446.6398-5.6794.9543-8.8922.9543s-6.4462-.3145-8.89215-.9543c-1.2193-.3189-2.27694-.7272-3.0412-1.2413C5.30693,28.5453,4.75,27.8659,4.75,27V9zm1,13.845V27c0,.3847.23994.7996.87476,1.2266.63026.4239,1.56481.7972,2.73614,1.1036,2.3353.6108,5.4769.9217,8.6391.9217s6.3038-.3109,8.6391-.9217c1.1713-.3064,2.1059-.6797,2.7361-1.1036.6349-.427.8748-.8419.8748-1.2266v-4.155c-.1003.0813-.206.159-.3159.2333-.7643.5161-1.8221.926-3.0415,1.2462-2.4461.6423-5.6797.958-8.8926.958s-6.4465-.3157-8.89261-.958c-1.21941-.3202-2.27717-.7301-3.04149-1.2462-.10993-.0743-.21558-.152-.3159-.2333zm24.5-1.8289c0,.388-.2411.805-.8755,1.2334-.6302.4255-1.5646.8003-2.7359,1.1078-2.3351.6132-5.4765.9252-8.6386.9252s-6.3035-.312-8.63864-.9252c-1.17121-.3075-2.10565-.6823-2.73586-1.1078-.63445-.4284-.8755-.8454-.8755-1.2334v-4.1872c.10032.0814.20597.1591.3159.2333.76432.5161,1.82208.9261,3.04149,1.2463,2.44611.6423,5.67971.958,8.89261.958s6.4465-.3157,8.8926-.958c1.2194-.3202,2.2772-.7302,3.0415-1.2463.1099-.0742.2156-.1519.3159-.2333v4.1872zM30.25,10.7161V15c0,.3881-.2411.8051-.8755,1.2335-.6302.4255-1.5646.8002-2.7359,1.1078-2.3351.6132-5.4765.9252-8.6386.9252s-6.3035-.312-8.63864-.9252c-1.17121-.3076-2.10565-.6823-2.73586-1.1078C5.99105,15.8051,5.75,15.3881,5.75,15v-4.2839c.06716.0528.13652.1042.20771.154.70326.4923,1.68925.9151,2.86525,1.2619C11.1815,12.8274,14.419,13.25,18,13.25s6.8185-.4226,9.177-1.118c1.176-.3468,2.162-.7696,2.8653-1.2619.0712-.0498.1405-.1012.2077-.154z"/></svg>