<svg width="36" height="36" xmlns="http://www.w3.org/2000/svg"><path fill-rule="evenodd" clip-rule="evenodd" d="m16.25,6.7503c0-.55336.4466-1,1-1s1,.44664,1,1c0,.55218-.447,1-1,1s-1-.44782-1-1zm2.6904,1.06959c.1961-.30942.3096-.67633.3096-1.06959,0-1.10564-.8944-2-2-2s-2,.89436-2,2c0,.39326.1135.76017.3096,1.06959-2.5761.21492-5.0143.93173-6.92588,2.20651-2.224,1.4831-3.72212,3.717-3.87143,6.7239H3v1h28.5v-1h-1.7623c-.1493-3.0069-1.6474-5.2408-3.8714-6.7239-1.9116-1.27478-4.3498-1.99159-6.9259-2.20651zM17.25,8.7503c-3.0521,0-5.9466.69771-8.06147,2.1081-1.97256,1.3154-3.27871,3.2543-3.42484,5.8919H28.7363c-.1461-2.6376-1.4523-4.5765-3.4248-5.8919-2.1149-1.41039-5.0094-2.1081-8.0615-2.1081zm-5.0035,15.455-5.75818-4.0264c-.86066-.677-2.11056-.5388-2.79928.3191l-.00008.0001c-.68801.8575-.55298,2.1109.29995,2.8041l8.87949,7.823.1417.1248h5.8974l1.3658,1.355.1462.145h12.582l-.8462-.8523-7.542-7.596v-.0001l-.0082-.0079c-1.7567-1.6903-4.0414-2.9984-6.4317-3.0436V21.25h-3.173c-.881,0-1.5811.3378-2.0572.8696-.4682.5229-.6971,1.2069-.7023,1.8765-.0005.0696.0013.1394.0056.2092zM5.90293,20.9898l7.06717,4.9416-8.50116-4.8075c.34566-.4305.97613-.4993,1.40805-.1536l.01265.0102.01329.0093zM12.9701,25.9314,4.46885,21.124c-.34434.4293-.27591,1.0597.15561,1.4061l.00892.0072.0086.0075L13.3878,30.25h5.9316l.1462.145,1.3658,1.355h9.768l-6.6917-6.7396c-1.6523-1.5885-3.7051-2.7201-5.7486-2.7604h-3.1587c-.6076,0-1.033.2247-1.3122.5366-.2872.3209-.4438.7619-.4473,1.2173-.0036.4554.1459.893.4284,1.2106.2745.3083.7023.5355,1.3311.5355h3v1h-3c-.8657,0-1.5549-.3136-2.0303-.8186z"/></svg>