<svg width="36" height="36" xmlns="http://www.w3.org/2000/svg"><path fill-rule="evenodd" clip-rule="evenodd" d="m18,3.25C9.85,3.25,3.25,9.85,3.25,18h1c0-7.59,6.16-13.75,13.75-13.75S31.75,10.41,31.75,18,25.59,31.75,18,31.75c-5.55,0-10.54-3.29-12.74-8H9v-1H3.25v5.75h1v-4.55C6.56,29.14,11.98,32.75,18,32.75c8.15,0,14.75-6.6,14.75-14.75S26.15,3.25,18,3.25zM8.07,17.73C10.15,14.44,13.82,12.25,18,12.25s7.85,2.19,9.93,5.48l.17.27-.17.27C25.85,21.56,22.18,23.75,18,23.75s-7.85-2.19-9.93-5.48L7.9,18l.17-.27zM18,22.75c3.71,0,6.98-1.89,8.91-4.75-1.93-2.86-5.2-4.75-8.91-4.75S11.02,15.14,9.09,18c1.93,2.86,5.2,4.75,8.91,4.75zm0-6.5c-.97,0-1.75.78-1.75,1.75s.78,1.75,1.75,1.75,1.75-.78,1.75-1.75-.78-1.75-1.75-1.75zM15.25,18c0-1.52,1.23-2.75,2.75-2.75s2.75,1.23,2.75,2.75-1.23,2.75-2.75,2.75-2.75-1.23-2.75-2.75z"/></svg>