<svg width="24" height="24" xmlns="http://www.w3.org/2000/svg"><path fill-rule="evenodd" clip-rule="evenodd" d="m7,8c0-2.76,2.24-5,5-5,2.76,0,5,2.24,5,5,0,2.76-2.24,5-5,5-2.76,0-5-2.24-5-5zM12,2C8.69,2,6,4.69,6,8c0,1.87.85,3.54,2.19,4.64L3.34,20.4l3.91-1.3,1.25,2.51,3.5-6.99L15.5,21.62l1.25-2.51,3.91,1.3-4.86-7.77C17.14,11.54,18,9.87,18,8c0-3.31-2.69-6-6-6zm-.79,11.95c-.79-.1-1.53-.36-2.19-.74l-3.35,5.36,2.09-.7L8.5,19.37l2.71-5.42zm3.77-.74c-.66.38-1.4.64-2.2.74L15.5,19.38l.75-1.49,2.09.7-3.36-5.38zm.37-6.86L11,10.71,8.65,8.35l.71-.71L11,9.29l3.65-3.65.71.71z"/></svg>