<svg width="36" height="36" xmlns="http://www.w3.org/2000/svg"><path fill-rule="evenodd" clip-rule="evenodd" d="m8.76,13.75c.07-1.26.42-2.45.98-3.5h2.99c-.28,1.1-.44,2.28-.48,3.5H8.76zm3.49,1H8.76c.07,1.26.42,2.45.98,3.5h2.99c-.28-1.1-.44-2.28-.48-3.5zm1.51,3.5c-.3-1.09-.47-2.27-.51-3.5H16.75v3.5h-2.98zM17.75,18.25v-3.5h3.49c-.04,1.23-.22,2.41-.51,3.5h-2.98zm-3.67,1H16.75v3.49c-.28-.02-.56-.05-.84-.09-.75-.95-1.38-2.1-1.83-3.4zm3.67,0v3.49c.28-.02.56-.05.84-.09.75-.95,1.38-2.1,1.83-3.4H17.75zm0-9v3.5h3.49c-.04-1.23-.22-2.41-.51-3.5H17.75zm-1,3.5v-3.5h-2.98c-.3,1.09-.47,2.27-.51,3.5H16.75zm3.67-4.5H17.75V5.76c.28.02.56.05.84.09.75.95,1.38,2.1,1.83,3.4zm-3.67,0V5.76c-.28.02-.56.05-.84.09-.75.95-1.38,2.1-1.83,3.4H16.75zm-3.73,10h-2.65c1,1.38,2.41,2.44,4.05,3.02-.57-.9-1.04-1.92-1.4-3.02zm1.4-13.02c-1.64.58-3.05,1.64-4.05,3.02h2.65c.36-1.1.83-2.12,1.4-3.02zM22.24,13.75c-.04-1.22-.2-2.4-.48-3.5h2.99c.56,1.05.91,2.24.98,3.5h-3.49zm0,1c-.04,1.22-.2,2.4-.48,3.5h2.99c.56-1.05.91-2.24.98-3.5h-3.49zm-.77,4.5c-.36,1.1-.83,2.12-1.4,3.02,1.64-.58,3.05-1.64,4.05-3.02h-2.65zM20.07,6.23c.57.9,1.04,1.92,1.4,3.02h2.65c-1-1.38-2.41-2.44-4.05-3.02zM17.25,4.75c-5.25,0-9.5,4.25-9.5,9.5,0,5.25,4.25,9.5,9.5,9.5s9.5-4.25,9.5-9.5c0-5.25-4.25-9.5-9.5-9.5zM23.75,30v-.25h3.5V30c0,.97-.78,1.75-1.75,1.75s-1.75-.78-1.75-1.75zm-1,0v-.25h-9.5V30c0,1.52-1.23,2.75-2.75,2.75-1.52,0-2.75-1.23-2.75-2.75v-.25h-1.5v-1.5h-2V30h-1v-4.5h1v1.75h2v-1.5h23.5v1.5h2V25.5h1V30h-1v-1.75h-2v1.5h-1.5V30c0,1.52-1.23,2.75-2.75,2.75s-2.75-1.23-2.75-2.75zm-14-.25V30c0,.97.78,1.75,1.75,1.75s1.75-.78,1.75-1.75v-.25h-3.5zm-1.5-1h21.5v-2H7.25v2z"/></svg>