<svg width="36" height="36" xmlns="http://www.w3.org/2000/svg"><path fill-rule="evenodd" clip-rule="evenodd" d="m29.75,7.81255c.7041.18047,1.2576.73434,1.4385,1.43745H32.75v2.5h-1.4995l-.0005,1.0002-.0001.118L29.559,16.25h-8.9443c-.2454,1.6826-.7648,2.929-1.4403,3.8435-.7356.9958-1.636,1.5703-2.5042,1.8892-.8628.3169-1.6885.3798-2.2889.3655-.167-.004-.3178-.0141-.4488-.0266l-.6828,5.4632c-.0177,1.0906-.907,1.9667-1.9997,1.9667h-3c-1.10382,0-2-.894-2-2v-.0311l.00386-.0309,1.42969-11.4389-.93305.0009H6.75c-1.10414,0-2-.8959-2-2V10.25H3v-1h1.81307c.22216-.86238,1.00542-1.5,1.93693-1.5h22V6h1v1.81255zm2,2.93745h-.499l.0002-.5h.4988v.5zm-12.1468,5.5h-4.9118l-.0312.25h.0913c0,.9671.7839,1.75,1.75,1.75v1c-.824,0-1.5638-.3625-2.0679-.937l-.377,3.0158c.102.0092.2192.0165.3486.0196.5146.0124,1.2077-.0427,1.9202-.3044.7072-.2597,1.4388-.7245,2.0447-1.5447.542-.7337.9993-1.7737,1.2331-3.2493zM6.75,8.75c-.55186,0-1,.44814-1,1v2.5h24.5002l.0013-2.5v-.00025c-.0001-.55207-.4471-.99975-1-.99975H6.75zm-1,5.5015V13.25h24.191l-1,2H13.8086l-.0547.438-1.5,12.0015-.0039.0309v.0311c0,.553-.4478,1-1,1h-3c-.54282,0-.98478-.4319-.99962-.972L8.74614,15.812l.07031-.5626-.56695.0006-1.4995.0015c-.55186,0-1-.4481-1-1z"/></svg>