<svg width="24" height="24" xmlns="http://www.w3.org/2000/svg"><path fill-rule="evenodd" clip-rule="evenodd" d="m6.99977,6.00049c-2.20914,0-4,1.79086-4,4.00001,0,1.93,1.36696,3.5408,3.18555,3.917l-3.61967,6.3344L2.13818,21H21.8528l-.4168-.7443-7-12.5-.4076-.72795-.4498.70272-2.5074,3.91793-.2935-.3425c.1417-.4074.2221-.8459.2221-1.3054,0-2.20925-1.79198-4.00001-4.00003-4.00001zm2.9765,4.37051c.01547-.1215.0235-.2451.0235-.3705,0-1.65678-1.34405-3.00001-3-3.00001-1.65685,0-3,1.34314-3,3.00001,0,1.5614,1.19291,2.8443,2.71709,2.9868l1.84879-3.23537.35201-.61602.46174.53869.59687.6964zM5.72614,20l4.78206-7.4719-1.42632-1.664L3.86136,20h1.86478zm14.42056,0H6.91341l4.05049-6.3289.6822.6823.2549.2548.3223-.1612,1.6777-.8388.7451.7452.2886.2885.3406-.2249,1.2738-.8413L20.1467,20zM13.9712,8.97225l-2.4554,3.83655.5826.5826,1.6777-.8388.3223-.1612.9663.9663.9945-.6569-2.088-3.72855z"/></svg>