<svg width="48" height="48" xmlns="http://www.w3.org/2000/svg"><path fill-rule="evenodd" clip-rule="evenodd" d="m9,12.0002h4v20h22v-1H14v-3.0005h21.8756l.1046-.3607,3.48-12,.1854-.6393H14v-3.9995H9v1zm5,3.9995v11h21.1244l3.19-11H14zm4.5,19c-.8279,0-1.5.6721-1.5,1.5s.6721,1.5,1.5,1.5,1.5-.6721,1.5-1.5-.6721-1.5-1.5-1.5zM16,36.4997c0-1.3801,1.1199-2.5,2.5-2.5s2.5,1.1199,2.5,2.5-1.1199,2.5-2.5,2.5-2.5-1.1199-2.5-2.5zm12,0c0-.8279.6721-1.5,1.5-1.5s1.5.6721,1.5,1.5-.6721,1.5-1.5,1.5-1.5-.6721-1.5-1.5zm1.5-2.5c-1.3801,0-2.5,1.1199-2.5,2.5s1.1199,2.5,2.5,2.5,2.5-1.1199,2.5-2.5-1.1199-2.5-2.5-2.5zm3.5-14H19v-1h14v1zm-14,4h12v-1H19v1z"/></svg>