<svg width="24" height="24" xmlns="http://www.w3.org/2000/svg"><path fill-rule="evenodd" clip-rule="evenodd" d="m17.9528,2.98779-.5244,1.03801c-.6149,1.21693-.3356,2.73878.5836,3.76977.8939,1.00256,2.4038,1.54301,4.2934.74421l1.1711-.49509-.5202,1.16019c-.5627,1.25512-1.6491,2.05572-2.7316,2.48822-.7184.2871-1.4778.4287-2.134.4161.0047.0928.0048.1858.0002.2785-.0322.6464-.2925,1.3065-.8191,1.8053-.5309.5028-1.2952.8073-2.2717.8073H8.00011c-.95398,0-1.6936-.308-2.20142-.8196-.50158-.5054-.73574-1.1679-.76361-1.8086-.02771-.6372.14657-1.2875.50666-1.7908.2743-.3834.66277-.68666,1.14398-.81476.09199-1.85089,2.00673-2.89518,3.52268-2.17629.9357-1.52231,2.5899-1.90872,3.9447-1.43756.2835-.78233.6168-1.36968,1.0164-1.8116.4946-.54703,1.0603-.83749,1.6692-1.01977l1.1141-.33353zm1.9009,7.77671c-.7601.3037-1.5053.3882-2.0179.3266-.0848-.1771-.1905-.3441-.3168-.4962-.3008-.3621-.7108-.62833-1.2064-.73929.1246-.80413-.0045-1.53128-.3227-2.1388-.2322-.44342-.559-.81147-.9424-1.09384.2654-.77116.5568-1.27181.8637-1.61118.0767-.08483.1558-.16115.2377-.23012-.2045,1.318.2351,2.69054,1.1167,3.67939.9292,1.04217,2.3433,1.65844,4.0118,1.40759-.41.39135-.9054.68875-1.4237.89585zm-5.9991-3.65663c-1.0482-.38022-2.3618-.04562-2.997,1.39429l-.2655.60174-.5088-.41675c-.96738-.79235-2.56613-.04792-2.38672,1.45385l.06682.5593h-.56329c-.34817,0-.63449.1685-.84507.4628-.21672.303-.33994.7277-.3209,1.1655.01889.4343.17573.8468.47432,1.1476.29238.2946.76213.5241,1.49165.5241h6.99999c.762,0,1.2669-.233,1.584-.5333.3212-.3042.4873-.7129.508-1.129.0209-.42-.1076-.8216-.3423-1.1041-.2257-.2716-.5632-.4526-1.0297-.434l-.6985.028.1992-.67c.2414-.81193.1456-1.47628-.1168-1.97716-.2655-.50707-.7194-.88063-1.2494-1.07287zM15.5,15.5c-.5521,0-1,.4479-1,1,0,.5522.4479,1,1,1s1-.4478,1-1c0-.5521-.4479-1-1-1zm-5,1c0-.5521.4479-1,1-1s1,.4479,1,1c0,.5522-.4479,1-1,1s-1-.4478-1-1zm-3.00001-1c-.55214,0-1,.4479-1,1,0,.5522.44786,1,1,1,.55215,0,1-.4478,1-1,0-.5521-.44785-1-1-1zm5.00001,3c0-.5521.4479-1,1-1s1,.4479,1,1c0,.5522-.4479,1-1,1s-1-.4478-1-1zm-3.00001-1c-.55214,0-1,.4479-1,1,0,.5522.44786,1,1,1,.55211,0,1.00001-.4478,1.00001-1,0-.5521-.4479-1-1.00001-1z"/></svg>