<svg width="36" height="36" xmlns="http://www.w3.org/2000/svg"><path fill-rule="evenodd" clip-rule="evenodd" d="m15.75,7h-.5v2.25H12c-1.3475,0-2.43932.31296-3.18818,1.0618C8.06296,11.0607,7.75,12.1525,7.75,13.5v1.7507H6v1h1.75v11.9986h5.5V25.25h9.5002l.0013,2.4995.0002.4998H28.25V16.2507H30v-1h-1.75V13.5c0-1.3475-.313-2.4393-1.0618-3.1882C26.4393,9.56296,25.3475,9.25,24,9.25h-3.25V7h-5zm4,2.25V8h-3.5v1.25h3.5zM9.51893,11.0189C9.03254,11.5053,8.75,12.2885,8.75,13.5v3.2507h9.5353c.2424-1.6971,1.7021-3.0007,3.4647-3.0007s3.2223,1.3036,3.4647,3.0007H27.25V13.5c0-1.2115-.2825-1.9947-.7689-2.4811S25.2115,10.25,24,10.25H12c-1.2115,0-1.9947.2825-2.48107.7689zM8.75,24.25v-6.4993h18.5V24.25H8.75zm15.0002,1H27.25v1.9993h-3.4988l-.001-1.9993zm-15.0002,0h3.5v1.9993h-3.5V25.25zm15.4501-8.4993c-.2314-1.1418-1.2409-2.0007-2.4501-2.0007s-2.2187.8589-2.4501,2.0007h4.9002zM10.75,20.9993c0-.688.5592-1.25,1.25-1.25s1.25.562,1.25,1.25c0,.6901-.5599,1.25-1.25,1.25s-1.25-.5599-1.25-1.25zm1.25-.25c-.1372,0-.25.113-.25.25,0,.1378.1121.25.25.25s.25-.1122.25-.25c0-.137-.1128-.25-.25-.25zm12-1c-.6908,0-1.25.562-1.25,1.25,0,.6901.5599,1.25,1.25,1.25s1.25-.5599,1.25-1.25c0-.688-.5592-1.25-1.25-1.25zm-.25,1.25c0-.137.1128-.25.25-.25s.25.113.25.25c0,.1378-.1121.25-.25.25s-.25-.1122-.25-.25z"/></svg>