<svg width="36" height="36" xmlns="http://www.w3.org/2000/svg"><path fill-rule="evenodd" clip-rule="evenodd" d="m3.25,6.25h29.5v7h-.5c-2.27,0-4,1.73-4,4,0,2.27,1.73,4,4,4h.5v7H3.25V6.25zm1,1V27.25h27.5v-5.02c-2.58-.24-4.5-2.32-4.5-4.98s1.92-4.74,4.5-4.98V7.25H4.25zm15,3.5V9h-1v1.75H16.5v1h1.75v1.75h1v-1.75H21v-1h-1.75zm6-.25V9h-1v1.5h1zm0,1.5v1.5h-1v-1.5h1zm0,4.5v-1.5h-1v1.5h1zm0,1.5v1.5h-1v-1.5h1zm0,4.5v-1.5h-1v1.5h1zM25.25,24v1.5h-1v-1.5h1zm-4.5-3v-1.75h1.75v-1h-1.75v-1.75h-1v1.75H18v1h1.75v1.75h1zm-8-8.75c-3.59,0-6.5,2.91-6.5,6.5,0,3.59,2.91,6.5,6.5,6.5,1.67,0,3.18-.65,4.33-1.68l.86-.77-1.15-.1c-2.82-.24-5.04-2.58-5.04-5.45,0-1.62.71-3.07,1.84-4.08l.86-.77-1.15-.1c-.05,0-.1-.01-.15-.02h0l0,0c-.02,0-.05-.01-.08-.01-.09-.01-.2-.02-.32-.02zm-5.5,6.5c0-2.83,2.13-5.15,4.87-5.46-.86,1.09-1.37,2.46-1.37,3.96,0,2.99,2.02,5.48,4.77,6.24-.81.48-1.75.76-2.77.76-3.04,0-5.5-2.46-5.5-5.5z"/></svg>