<svg width="36" height="36" xmlns="http://www.w3.org/2000/svg"><path fill-rule="evenodd" clip-rule="evenodd" d="m25.9193,5.92596.6509-1.28826-1.3084.60955c-.7282.33928-1.5139.74491-2.2335,1.48532-.6341.65244-1.194,1.54013-1.6454,2.82131-.0578-.02351-.116-.0459-.1746-.06715-1.9973-.72451-4.4714-.13816-5.8,2.22967-2.1923-1.2255-5.1274.3314-5.1346,3.1337-.74338.1434-1.3414.5855-1.75763,1.1673-.5043.7049-.75295,1.6239-.71356,2.5298.03955.9095.37146,1.8408,1.0731,2.5477.70786.7132,1.74979,1.1556,3.12469,1.1556h10.5c1.3397,0,2.3805-.4447,3.1038-1.1466.7174-.6961,1.0929-1.6164,1.1609-2.5222.0172-.2295.0149-.4602-.0073-.6881,1.0169.0902,2.2833-.1053,3.4865-.5861,1.5824-.6322,3.1518-1.7953,3.962-3.6025l.5202-1.1601-1.1711.495c-2.9316,1.2393-5.311.4046-6.724-1.1802-1.4383-1.6132-1.8864-4.00531-.912-5.93374zm.5853,10.92544c.8288.1555,2.0965.0358,3.3686-.4725,1.0344-.4133,2.0216-1.064,2.7418-1.9704-2.7435.6842-5.0604-.2349-6.5301-1.8833-1.3786-1.5463-2.0052-3.73447-1.5266-5.76482-.2822.18614-.5534.40219-.8129.66913-.5362.5518-1.0469,1.34775-1.4695,2.60209.6098.4143,1.1287.9741,1.4876,1.6596.4814.9192.6622,2.0394.4164,3.2932.7913.118,1.4258.5148,1.8692,1.0778.1888.2397.3405.5061.4555.7892zm-10.4468-4.1991c1.0102-2.2899,3.1238-2.83698,4.8095-2.2255.8487.3079,1.5808.908,2.0104,1.7283.4263.8142.5722,1.8785.1933,3.1529l-.1992.67.6985-.0279c.7776-.0311,1.3329.2734,1.6932.7309.371.4711.5562,1.1344.5043,1.8258-.0516.6879-.3359,1.3708-.8601,1.8794-.5181.5028-1.3006.8643-2.4074.8643h-10.5c-1.1504,0-1.9225-.3639-2.41492-.86-.49865-.5024-.75324-1.1837-.78381-1.8867-.03073-.7066.16687-1.4001.52779-1.9046.35478-.4959.85514-.7987,1.47094-.7987h.5633l-.0668-.5593c-.2954-2.4728,2.3588-3.7372,3.9867-2.4039l.5088.4168.2655-.6018z"/></svg>