<svg width="36" height="36" xmlns="http://www.w3.org/2000/svg"><path fill-rule="evenodd" clip-rule="evenodd" d="m31.15,31.85-2.1-2.1H3.25V7.75h3.79L4.15,4.85l.71-.71L31.85,31.15l-.71.71zm-5.98-5.98,2.87,2.87H4.25V8.75h3.79L24.79,25.5H24.25v.38h.92zM32.25,7.75H13.5v1h18.25v5.02c-2.56.24-4.5,2.35-4.5,4.98,0,2.63,1.94,4.73,4.5,4.98v3.27h1v-4.25h-.5c-2.25,0-4-1.75-4-4,0-2.25,1.75-4,4-4h.5V7.75h-.5zm-8,1.8v-.52h1v.52h-1zm0,2.09V10.6h1v1.05h-1zm0,2.09v-1.05h1v1.05h-1zm0,2.09v-1.05h1v1.05h-1zm0,2.09v-1.05h1v1.05h-1zm0,1.57v-.52h1V19.5h-1zm0,7.12v.75h1v-.75h-1zm0,1.5v.38h1v-.38h-1z"/></svg>