<svg width="36" height="36" xmlns="http://www.w3.org/2000/svg"><path fill-rule="evenodd" clip-rule="evenodd" d="m8.25,9.2503h-.5007l.0097,6.9507.00028.2066.14607.1462L22.1464,30.8023l.3535.3537.3536-.3536,6.45-6.4485.3539-.3538-.3541-.3536L15.0353,9.39652l-.1464-.14622H8.25zm.50871,6.7427-.00802-5.7427h5.72441l13.7675,13.7502-5.7425,5.7411L8.75871,15.993zM11.75,13.4995c0-.1378.1121-.25.25-.25s.25.1122.25.25c0,.1379-.1121.25-.25.25s-.25-.1121-.25-.25zm.25-1.25c-.6901,0-1.25.5599-1.25,1.25,0,.6902.5599,1.25,1.25,1.25s1.25-.5598,1.25-1.25c0-.6901-.5599-1.25-1.25-1.25z"/></svg>