<svg width="36" height="36" xmlns="http://www.w3.org/2000/svg"><path fill-rule="evenodd" clip-rule="evenodd" d="m22.25,8.25c0-1.38071,1.1193-2.5,2.5-2.5s2.5,1.11929,2.5,2.5-1.1193,2.5-2.5,2.5-2.5-1.11929-2.5-2.5zm2.5-3.5c-1.933,0-3.5,1.567-3.5,3.5,0,.45041.0851.88095.24,1.27642L12.3365,14.892c-.6401-.7017-1.5619-1.142-2.5865-1.142-1.933,0-3.5,1.567-3.5,3.5s1.567,3.5,3.5,3.5c1.098,0,2.0779-.5056,2.7196-1.2967l9.0589,5.4262c-.1793.4209-.2785.8841-.2785,1.3705,0,1.933,1.567,3.5,3.5,3.5s3.5-1.567,3.5-3.5-1.567-3.5-3.5-3.5c-1.0879,0-2.06.4964-2.7019,1.275l-9.0658-5.4303c.1725-.414.2677-.8682.2677-1.3447,0-.5482-.126-1.0669-.3507-1.5288l9.0853-5.3255c.6404.824,1.641,1.3543,2.7654,1.3543,1.933,0,3.5-1.567,3.5-3.5s-1.567-3.5-3.5-3.5zm0,19c-1.3807,0-2.5,1.1193-2.5,2.5s1.1193,2.5,2.5,2.5,2.5-1.1193,2.5-2.5-1.1193-2.5-2.5-2.5zm-17.5-6.5c0-1.3807,1.11929-2.5,2.5-2.5,1.3807,0,2.5,1.1193,2.5,2.5s-1.1193,2.5-2.5,2.5c-1.38071,0-2.5-1.1193-2.5-2.5z"/></svg>