<svg width="24" height="24" xmlns="http://www.w3.org/2000/svg"><path fill-rule="evenodd" clip-rule="evenodd" d="m13.01,3,13,5.45.38.1c.65.17,1.12.75,1.12,1.45,0,.32-.1.61-.27.86l-1.73-.92-.94.5c-.04-.14-.06-.28-.06-.43h-1c0,.32.06.63.17.91L4.88,11H3v10h19V11h-1.88l-5.01-2.67c.24-.39.38-.84.38-1.33,0-1.03-.62-1.91-1.5-2.29l.01-1.71-1,0zm.26,5.48L12.5,8.07l-.34.18c.24.16.53.25.84.25.09,0,.18-.01.27-.02zm-2.05.28c.45.46,1.09.75,1.78.75.52,0,1-.16,1.39-.42L18,11H7l4.22-2.25zM4,20v-8h2v8H4zm3,0h2v-8H7v8zm5,0h-2v-8h2v8zm1,0h2v-8h-2v8zm5,0h-2v-8h2v8zm1,0h2v-8h-2v8z"/></svg>