<svg width="24" height="24" xmlns="http://www.w3.org/2000/svg"><path fill-rule="evenodd" clip-rule="evenodd" d="m16,4V2h1v2h-1zm-1.0757,2.53638c.4366.29206.809.69017,1.0657,1.18041.3183.60772.4474,1.33514.3226,2.13959.4919.11216.8933.38112,1.1818.74992.0383.0489.0743.0993.1082.151.8352-.3954,1.3973-1.23816,1.3973-2.2573,0-1.41486-1.0852-2.5-2.5-2.5-.6089,0-1.1527.20005-1.5756.53638zm3.0417,5.15452c.0413.2338.0522.4738.0337.7109-.0499.6394-.3161,1.2916-.8246,1.7865-.5147.5009-1.2483.812-2.1749.812H8.00023c-.95398,0-1.6936-.308-2.20141-.8196-.50159-.5054-.73575-1.168-.76361-1.8087-.02771-.6371.14656-1.2874.50666-1.7907.27429-.3834.66276-.68668,1.14398-.81478.09199-1.85089,2.00672-2.89518,3.52265-2.17629.8873-1.44348,2.4205-1.86566,3.7319-1.50382C14.5765,5.40968,15.4838,5,16.4999,5c1.9671,0,3.5,1.53286,3.5,3.5,0,1.43574-.8181,2.6458-2.0339,3.1909zm-7.1083-3.18876c.6352-1.43991,1.9488-1.77452,2.997-1.39429.53.19224.9839.5658,1.2495,1.07287.2623.50088.3581,1.16523.1168,1.97708l-.1992.6701.6984-.028c.465-.0186.7817.1607.9866.4226.2158.2758.3293.6749.296,1.1014-.0331.423-.2084.8396-.5252,1.1478-.3105.3022-.786.5286-1.4774.5286H8.00023c-.72952,0-1.19927-.2295-1.49164-.5241-.2986-.3008-.45544-.7133-.47433-1.1476-.01904-.4378.10418-.8626.3209-1.1655.21058-.2943.4969-.4628.84507-.4628h.56329l-.06682-.5593c-.17941-1.50179,1.41934-2.24622,2.3867-1.45388l.5088.41676.2655-.60174zm.6248-4.26385,1.441,1.386.6932-.72072-1.441-1.386-.6932.72072zm9.3709,9.39301-1.414-1.414.7071-.7071,1.414,1.414-.7071.7071zM23,8h-2v1h2V8zm-3.6719-3.05088,1.414-1.414.7071.70711-1.414,1.414-.7071-.70711zM9.99999,16c-.55214,0-1,.4479-1,1s.44786,1,1,1C10.5521,18,11,17.5521,11,17s-.4479-1-1.00001-1zM13,17c0-.5521.4479-1,1-1s1,.4479,1,1-.4479,1-1,1-1-.4479-1-1zm-1,2c-.5521,0-1,.4479-1,1s.4479,1,1,1,1-.4479,1-1-.4479-1-1-1z"/></svg>