<svg width="36" height="36" xmlns="http://www.w3.org/2000/svg"><path fill-rule="evenodd" clip-rule="evenodd" d="m26.44,4.89-.52,1.04c-.97,1.93-.53,4.32.91,5.93,1.41,1.58,3.79,2.42,6.72,1.18l1.17-.5-.52,1.16c-.81,1.81-2.38,2.97-3.96,3.6-1.23.49-2.53.68-3.55.58.02.23.02.47,0,.7-.08.9-.46,1.82-1.17,2.51-.71.7-1.73,1.15-3.02,1.15h-10.5c-1.37,0-2.42-.44-3.12-1.16-.7-.71-1.03-1.64-1.07-2.55-.04-.91.21-1.83.71-2.53.42-.58,1.01-1.02,1.76-1.17.01-2.8,2.94-4.36,5.13-3.13,1.33-2.37,3.8-2.95,5.8-2.23.06.02.12.04.17.07.44-1.27.95-2.2,1.56-2.87.7-.78,1.51-1.19,2.39-1.46l1.11-.33zm3.43,11.49c-1.3.52-2.59.63-3.42.46-.11-.28-.25-.54-.43-.77-.43-.57-1.06-.97-1.85-1.08.25-1.25.07-2.37-.42-3.29-.36-.69-.88-1.25-1.49-1.66.42-1.28.89-2.11,1.41-2.68.28-.31.59-.55.92-.74-.55,2.07.07,4.33,1.49,5.92,1.47,1.65,3.79,2.57,6.53,1.88-.72.91-1.71,1.56-2.74,1.97zm-9.01-5.95c-1.69-.61-3.8-.06-4.81,2.23l-.27.6-.51-.42c-1.63-1.33-4.28-.07-3.99,2.4l.07.56h-.56c-.62,0-1.12.3-1.47.8-.36.5-.56,1.2-.53,1.9.03.7.29,1.38.78,1.89.49.5,1.26.86,2.41.86h10.5c1.05,0,1.81-.36,2.32-.86.52-.51.81-1.2.87-1.89.06-.7-.11-1.36-.46-1.82-.34-.45-.88-.76-1.66-.72l-.7.03.2-.67c.38-1.27.23-2.34-.19-3.15-.43-.82-1.16-1.42-2.01-1.73zM9.75,24c-.45-.22-.45-.22-.45-.22l0,0,0,0,0,0,0,0-.01.01-.03.05c-.02.04-.05.11-.09.19-.07.16-.17.38-.27.62-.1.24-.2.52-.27.79-.07.26-.14.55-.14.81,0,.69.56,1.25,1.25,1.25.69,0,1.25-.56,1.25-1.25,0-.26-.06-.54-.14-.81-.08-.27-.18-.54-.27-.79-.1-.24-.2-.46-.27-.62-.04-.08-.07-.14-.09-.19l-.03-.05-.01-.01,0,0,0,0v0c0,0,0,0-.45.22zm-.45-.22.45.22.45-.22-.45-.89-.45.89zm.3,1.94c.04-.15.1-.3.15-.46.06.15.11.31.15.46.07.23.1.41.1.53,0,.14-.11.25-.25.25-.14,0-.25-.11-.25-.25,0-.12.03-.3.1-.53zm5.7-1.94c0,0,0,0,.45.22.45-.22.45-.22.45-.22v0l0,0,0,0,.01.01.03.05c.02.04.05.11.09.19.07.16.17.38.27.62.1.24.2.52.27.79.07.26.14.55.14.81,0,.69-.56,1.25-1.25,1.25s-1.25-.56-1.25-1.25c0-.26.06-.54.14-.81.08-.27.18-.54.27-.79.1-.24.2-.46.27-.62.04-.08.07-.14.09-.19l.03-.05.01-.01,0,0,0,0v0zm.45.22-.45-.22.45-.89.45.89-.45.22zm0,1.26c-.06.15-.11.31-.15.46-.07.23-.1.41-.1.53,0,.14.11.25.25.25s.25-.11.25-.25c0-.12-.03-.3-.1-.53-.04-.15-.1-.3-.15-.46zm6-1.26c-.45-.22-.45-.22-.45-.22v0l0,0,0,0-.01.01-.03.05c-.02.04-.05.11-.09.19-.07.16-.17.38-.27.62-.1.24-.2.52-.27.79-.07.26-.14.55-.14.81,0,.69.56,1.25,1.25,1.25s1.25-.56,1.25-1.25c0-.26-.06-.54-.14-.81-.08-.27-.18-.54-.27-.79-.1-.24-.2-.46-.27-.62-.04-.08-.07-.14-.09-.19l-.03-.05-.01-.01,0,0,0,0v0c0,0,0,0-.45.22zm-.45-.22.45.22.45-.22-.45-.89-.45.89zm.3,1.94c.04-.15.1-.3.15-.46.06.15.11.31.15.46.07.23.1.41.1.53,0,.14-.11.25-.25.25s-.25-.11-.25-.25c0-.12.03-.3.1-.53zm-3.3,1.06c0,0,0,0,.45.22.45-.22.45-.22.45-.22v0l0,0,0,0,.01.01.03.05c.02.04.05.11.09.19.07.16.17.38.27.62.1.24.2.52.27.79.07.26.14.55.14.81,0,.69-.56,1.25-1.25,1.25s-1.25-.56-1.25-1.25c0-.26.06-.54.14-.81.08-.27.18-.54.27-.79.1-.24.2-.46.27-.62.04-.08.07-.14.09-.19l.03-.05.01-.01,0,0,0,0v0zM18.75,27l-.45-.22.45-.89.45.89-.45.22zm0,1.26c-.06.15-.11.31-.15.46-.07.23-.1.41-.1.53,0,.14.11.25.25.25s.25-.11.25-.25c0-.12-.03-.3-.1-.53-.04-.15-.1-.3-.15-.46zm-6.45-1.48.45.22c-.45-.22-.45-.22-.45-.22v0l0,0,0,0-.01.01-.03.05c-.02.04-.05.11-.09.19-.07.16-.17.38-.27.62-.1.24-.2.52-.27.79-.07.26-.14.55-.14.81,0,.69.56,1.25,1.25,1.25s1.25-.56,1.25-1.25c0-.26-.06-.54-.14-.81-.08-.27-.18-.54-.27-.79-.1-.24-.2-.46-.27-.62-.04-.08-.07-.14-.09-.19l-.03-.05-.01-.01,0,0,0,0v0c0,0,0,0-.45.22l.45-.22-.45-.89-.45.89zM12.6,28.72c.04-.15.1-.3.15-.46.06.15.11.31.15.46.07.23.1.41.1.53,0,.14-.11.25-.25.25s-.25-.11-.25-.25c0-.12.03-.3.1-.53z"/></svg>