<svg width="36" height="36" xmlns="http://www.w3.org/2000/svg"><path fill-rule="evenodd" clip-rule="evenodd" d="m12.5,13.5004c0-2.6985,1.8602-4.75003,4-4.75003s4,2.05153,4,4.75003c0,2.6984-1.8602,4.75-4,4.75s-4-2.0516-4-4.75zm4-5.75003c-2.8312,0-5,2.64943-5,5.75003,0,1.4595.4806,2.8191,1.2846,3.8494C8.53097,19.3005,6.25,24.5034,6.25,29.25v.5H21v-1H7.25882c.15812-4.4964,2.43644-9.077,6.26078-10.6284.8236.7058,1.8491,1.1288,2.9804,1.1288,1.1311,0,2.1564-.4229,2.98-1.1285,2.5203,1.0097,4.5343,3.311,5.5514,6.0516l.9375-.348c-1.0477-2.8231-3.0986-5.2769-5.7528-6.4767.8036-1.0302,1.2839-2.3894,1.2839-3.8484,0-3.1006-2.1688-5.75003-5-5.75003zM27.25,25.4996v3.25H24v1h3.25v3.25h1v-3.25h3.25v-1h-3.25v-3.25h-1z"/></svg>