<svg width="36" height="36" xmlns="http://www.w3.org/2000/svg"><path fill-rule="evenodd" clip-rule="evenodd" d="m18,5.75c-.97,0-1.75.78-1.75,1.75v3.25h3.5V7.5c0-.97-.78-1.75-1.75-1.75zM15.25,7.5c0-1.52,1.23-2.75,2.75-2.75s2.75,1.23,2.75,2.75v1.75h8.5c1.93,0,3.5,1.57,3.5,3.5v13.5c0,1.93-1.57,3.5-3.5,3.5H6.75c-1.93,0-3.5-1.57-3.5-3.5v-13.5c0-1.93,1.57-3.5,3.5-3.5h8.5V7.5zm5.5,4.25v-1.5h8.5c1.38,0,2.5,1.12,2.5,2.5v13.5c0,1.38-1.12,2.5-2.5,2.5H19.17c-.31-2.91-1.67-5.41-3.64-6.66.46-.73.72-1.64.72-2.59,0-2.24-1.47-4.25-3.5-4.25s-3.5,2.01-3.5,4.25c0,.95.26,1.86.72,2.59-1.96,1.24-3.32,3.73-3.64,6.63C5.15,28.52,4.25,27.49,4.25,26.25v-13.5c0-1.38,1.12-2.5,2.5-2.5h8.5v1.5h5.5zm-13.41,17H18.16c-.31-2.7-1.6-4.87-3.27-5.88-.58.54-1.31.88-2.14.88-.83,0-1.56-.33-2.14-.88-1.67,1-2.96,3.18-3.27,5.88zM19.5,19.25h6v-1h-6v1zm9,3h-9v-1h9v1zM10.25,19.5c0-1.91,1.22-3.25,2.5-3.25s2.5,1.34,2.5,3.25-1.22,3.25-2.5,3.25-2.5-1.34-2.5-3.25z"/></svg>