<svg width="24" height="24" xmlns="http://www.w3.org/2000/svg"><path fill-rule="evenodd" clip-rule="evenodd" d="m15.99,7.72c-.26-.49-.63-.89-1.07-1.18C15.35,6.2,15.89,6,16.5,6,17.91,6,19,7.09,19,8.5c0,1.01-.55,1.85-1.38,2.25-.04-.05-.07-.1-.11-.15-.3-.36-.7-.63-1.2-.74.12-.8,0-1.53-.32-2.14zm2.07,4.68c.01-.24,0-.48-.05-.72C19.2,11.12,20,9.92,20,8.5,20,6.53,18.47,5,16.5,5c-1.02,0-1.92.41-2.56,1.09-1.31-.36-2.84.06-3.73,1.5-1.52-.72-3.43.33-3.52,2.18-.48.13-.87.43-1.14.81-.36.5-.53,1.15-.51,1.79.03.64.26,1.3.76,1.81.51.51,1.25.82,2.2.82h7c.96,0,1.71-.31,2.24-.81.52-.5.78-1.15.82-1.8zM13.85,7.11c-1.05-.38-2.36-.05-3,1.39l-.27.6-.51-.42c-.97-.79-2.57-.05-2.39,1.45l.07.56h-.56c-.35,0-.63.17-.85.46-.22.3-.34.73-.32,1.17.02.43.18.85.47,1.15.29.29.76.52,1.49.52h7c.74,0,1.23-.23,1.55-.53.32-.31.49-.72.51-1.14.03-.42-.1-.82-.33-1.1-.22-.27-.55-.45-1.01-.43l-.7.03.2-.67c.24-.81.15-1.48-.12-1.98-.27-.51-.72-.88-1.25-1.07zM15.5,15.5c-.55,0-1,.45-1,1s.45,1,1,1,1-.45,1-1-.45-1-1-1zm-5,1c0-.55.45-1,1-1s1,.45,1,1-.45,1-1,1-1-.45-1-1zm-3-1c-.55,0-1,.45-1,1s.45,1,1,1c.55,0,1-.45,1-1s-.45-1-1-1zm5,3c0-.55.45-1,1-1s1,.45,1,1-.45,1-1,1-1-.45-1-1zm-3-1c-.55,0-1,.45-1,1s.45,1,1,1c.55,0,1-.45,1-1s-.45-1-1-1z"/></svg>