<svg width="24" height="24" xmlns="http://www.w3.org/2000/svg"><path fill-rule="evenodd" clip-rule="evenodd" d="m21.69,4.84C15.59,2.35,9.46,2.39,3.32,4.84L3,4.96V21h6v-2.99h7v2.99h6V4.96l-.31-.13zM4,20V5.64c5.7-2.19,11.36-2.22,17,0V20h-4v-2.99H8v2.99H4zm8.5-13c-1.96,0-3.5,1.54-3.5,3.5,0,1.96,1.54,3.5,3.5,3.5s3.5-1.54,3.5-3.5c0-1.96-1.54-3.5-3.5-3.5zM8,10.5c0-2.51,1.99-4.5,4.5-4.5,2.51,0,4.5,1.99,4.5,4.5,0,2.51-1.99,4.5-4.5,4.5-2.51,0-4.5-1.99-4.5-4.5zm6.79-1.59-2.23,2.82-2.3-2.05.67-.75,1.5,1.35,1.57-1.98.78.62z"/></svg>