<svg width="36" height="36" xmlns="http://www.w3.org/2000/svg"><path fill-rule="evenodd" clip-rule="evenodd" d="m3.25,6.24951h29.5v6.99999h-.5c-2.2739,0-4,1.7262-4,4,0,2.2739,1.7261,4,4,4h.5v7H3.25V6.24951zm1,1V27.2495h27.5v-5.023c-2.5785-.2395-4.5-2.32-4.5-4.977s1.9215-4.7375,4.5-4.977V7.24951H4.25zm10.9501,8.67479c.3869.2079.8295.3259,1.2999.3259,1.5181,0,2.75-1.2318,2.75-2.75,0-1.5198-1.2321-2.75-2.75-2.75-1.5196,0-2.75,1.2304-2.75,2.75,0,.6876.2524,1.3164.6697,1.7988l-2.6206,3.2764c-.387-.2079-.8293-.3259-1.2991-.3259-1.51986,0-2.75,1.2321-2.75,2.75s1.23014,2.75,2.75,2.75c1.5181,0,2.75-1.2318,2.75-2.75,0-.6877-.2528-1.3167-.6704-1.799l2.6205-3.2762zM14.75,13.5002c0-.9673.7826-1.75,1.75-1.75.9661,0,1.75.7829,1.75,1.75,0,.9659-.7841,1.75-1.75,1.75-.9671,0-1.75-.7839-1.75-1.75zm-4.25,5.7493c-.96714,0-1.75.7839-1.75,1.75s.78286,1.75,1.75,1.75c.9659,0,1.75-.7841,1.75-1.75,0-.9658-.7841-1.75-1.75-1.75zM24.25,7.49951v.4875h1v-.4875h-1zm0,1.4625v.975h1v-.975h-1zm0,1.94999v.975h1v-.975h-1zm0,1.95v.975h1v-.975h-1zm0,1.95v.975h1v-.975h-1zm0,1.95v.975h1v-.975h-1zm0,1.95v.975h1v-.975h-1zm0,1.95v.975h1v-.975h-1zm0,1.95v.975h1v-.975h-1zm0,1.95v.975h1v-.975h-1zM24.25,26.512v.4875h1v-.4875h-1z"/></svg>