<svg width="24" height="24" xmlns="http://www.w3.org/2000/svg"><path fill-rule="evenodd" clip-rule="evenodd" d="m5.46,3.46C5.18,3.74,5,4.22,5,5v4h14V5c0-.78-.18-1.26-.46-1.54C18.26,3.18,17.79,3,17,3H7c-.78,0-1.26.18-1.54.46zM5,14v-4h14V14H5zM4.76,2.76C5.3,2.21,6.08,2,7,2h10c.92,0,1.7.21,2.24.76C19.79,3.3,20,4.08,20,5v2h1v2h-1v8h-4V15H8v2H4V9H3V7h1V5c0-.92.21-1.7.76-2.24zM17,15H19v1h-2V15zM5,16V15h2v1H5zM17,4H7v1h10V4zM7,11c-.55,0-1,.45-1,1s.45,1,1,1,1-.45,1-1-.45-1-1-1zm9,1c0-.55.45-1,1-1s1,.45,1,1-.45,1-1,1-1-.45-1-1zM5.98,20l1.02-.99-.7-.72-2.26,2.21,2.26,2.2.7-.72-1.01-.98H10v-1H5.98zm12.05.99-1.02.99.7.72,2.26-2.21-2.27-2.2-.7.72,1.01.98H14v1h4.02z"/></svg>