<svg width="36" height="36" xmlns="http://www.w3.org/2000/svg"><path fill-rule="evenodd" clip-rule="evenodd" d="m24.75,9.25H19.5v1h4.32l-2.33,3.5h-8.33l-1.16,3.2c-.47-.13-.97-.2-1.49-.2-3.17,0-5.75,2.58-5.75,5.75,0,3.17,2.58,5.75,5.75,5.75,3.17,0,5.75-2.58,5.75-5.75,0-2.3-1.36-4.3-3.32-5.21l.92-2.54h7.58l1.25,2.74c-1.75.99-2.92,2.86-2.92,5.01,0,3.17,2.58,5.75,5.75,5.75,3.17,0,5.75-2.58,5.75-5.75,0-3.17-2.58-5.75-5.75-5.75-.67,0-1.32.12-1.92.33l-1.27-2.78,3.36-5.05H24.75zM20.75,22.5c0-1.74.94-3.27,2.34-4.09l1.95,4.3.91-.41-1.96-4.3c.47-.16.98-.24,1.5-.24,2.62,0,4.75,2.13,4.75,4.75,0,2.62-2.13,4.75-4.75,4.75-2.62,0-4.75-2.13-4.75-4.75zm-9.11-4.61-1.61,4.44.94.34,1.61-4.44c1.58.77,2.67,2.4,2.67,4.27,0,2.62-2.13,4.75-4.75,4.75-2.62,0-4.75-2.13-4.75-4.75,0-2.62,2.13-4.75,4.75-4.75.39,0,.78.05,1.14.14zm-.83-6.14h4.19v-1h-4.19v1z"/></svg>