<svg width="24" height="24" xmlns="http://www.w3.org/2000/svg"><path fill-rule="evenodd" clip-rule="evenodd" d="m6.29,8L2.9,4.6l.71-.71,3.4,3.4v-3.29h1v5h-5v-1h3.29zM11.5,10c-1.4,0-2.5,1.1-2.5,2.5,0,1.4,1.1,2.5,2.5,2.5,1.4,0,2.5-1.1,2.5-2.5,0-1.4-1.1-2.5-2.5-2.5zm-3.5,2.5c0-1.95,1.55-3.5,3.5-3.5,1.95,0,3.5,1.55,3.5,3.5,0,1.95-1.55,3.5-3.5,3.5-1.95,0-3.5-1.55-3.5-3.5zM15,8.5v-4.5h1v3.29l3.4-3.4.71.71-3.4,3.4H20v1h-5v-.5zm0,7.5h5v1h-3.29l3.4,3.4-.71.71L16,17.71v3.29h-1v-5zm-12,0h5v5h-1v-3.29l-3.4,3.4-.71-.71,3.4-3.4H3v-1z"/></svg>