<svg width="48" height="48" xmlns="http://www.w3.org/2000/svg"><path fill-rule="evenodd" clip-rule="evenodd" d="m31.92,5.14c-1.05-.28-2.17-.13-3.12.42V5.55l0,0c-.52.31-1.07.92-1.56,1.58-.51.68-1.02,1.48-1.47,2.24-.45.76-.84,1.49-1.12,2.02-.13.25-.24.45-.31.61h-.64c-.08-.15-.18-.36-.31-.61-.28-.54-.68-1.26-1.12-2.02-.45-.76-.96-1.56-1.47-2.24-.5-.66-1.04-1.27-1.56-1.58v0l0,0c-.94-.54-2.07-.69-3.12-.42-1.05.28-1.96.96-2.51,1.9s-.72,2.06-.45,3.11c.14.57.51,1.14.92,1.61.07.08.15.17.23.24H7v7h1v24h32V19h1v-7h-7.28c.08-.08.15-.16.23-.24.41-.47.78-1.03.92-1.61.27-1.06.11-2.18-.45-3.11s-1.46-1.62-2.51-1.9zM32.18,12c.33-.22.7-.54,1.02-.9.36-.41.62-.84.71-1.19l.48.12-.48-.12c.2-.8.08-1.65-.34-2.36-.42-.71-1.1-1.23-1.9-1.44-.8-.21-1.65-.1-2.36.32-.34.2-.78.67-1.27,1.32-.48.64-.97,1.4-1.41,2.15-.44.74-.82,1.45-1.1,1.98l-.07.14h6.73zM18.7,6.42c-.72-.41-1.56-.53-2.36-.32-.8.21-1.48.73-1.9,1.44-.42.71-.54,1.56-.34,2.36.09.36.35.78.71,1.19.32.36.69.68,1.02.9h6.73l-.07-.14c-.28-.53-.66-1.24-1.1-1.98-.44-.74-.93-1.51-1.41-2.15-.49-.65-.93-1.12-1.27-1.32zM39,19h-6.04l2.96,4.22-3.73.36-1.67,3.41L28,23.39V42h11V19zm-.32-1h-6.42l-3.51-5H40v5h-1.32zm-16.74-5h5.6l6.58,9.39-2.58.25-1.17,2.39L21.94,13zm-2.2,0H8v5h8.24l3.51-5zm-4.21,6H9v23h11l0-17.9-2.03,2.89-1.64-3.43-3.75-.35L15.54,19zm5.46,3.67L21,42H27V21.96l-2.75-3.92-3.25,4.64zm2.64-5.51-2.8-3.99-6.45,9.21,2.6.24,1.15,2.4,5.51-7.85z"/></svg>