<svg width="36" height="36" xmlns="http://www.w3.org/2000/svg"><path fill-rule="evenodd" clip-rule="evenodd" d="m3.75,4.75h-.5v20.5h12v3.5H10.5v1H24v-1h-4.75v-3.5h12V4.75H3.75zm14.5,20.5h-2v3.5h2v-3.5zm-14-1V5.75h26v18.5h-26zm9.3554-6.0636c-.2096.3142-.3554.7772-.3554,1.3136s.1458.9994.3554,1.3136c.2118.3178.4496.4364.6446.4364s.4328-.1186.6446-.4364c.2096-.3142.3554-.7772.3554-1.3136s-.1458-.9994-.3554-1.3136c-.2118-.3178-.4496-.4364-.6446-.4364s-.4328.1186-.6446.4364zm-.8321-.5547c.3311-.4966.8433-.8817,1.4767-.8817s1.1456.3851,1.4767.8817c.3334.5.5233,1.162.5233,1.8683s-.1899,1.3683-.5233,1.8683c-.3311.4966-.8433.8817-1.4767.8817s-1.1456-.3851-1.4767-.8817c-.3334-.5-.5233-1.162-.5233-1.8683s.1899-1.3683.5233-1.8683zM19.25,10.5c0-.53638.1458-.99936.3554-1.31364.2118-.31778.4496-.43636.6446-.43636s.4328.11858.6446.43636c.2096.31428.3554.77726.3554,1.31364,0,.5364-.1458.9994-.3554,1.3136-.2118.3178-.4496.4364-.6446.4364s-.4328-.1186-.6446-.4364c-.2096-.3142-.3554-.7772-.3554-1.3136zm1-2.75c-.6334,0-1.1456.3851-1.4767.88166-.3334.50006-.5233,1.16208-.5233,1.86834,0,.7063.1899,1.3683.5233,1.8683.3311.4966.8433.8817,1.4767.8817s1.1456-.3851,1.4767-.8817c.3334-.5.5233-1.162.5233-1.8683,0-.70626-.1899-1.36828-.5233-1.86834C21.3956,8.1351,20.8834,7.75,20.25,7.75zM8.75,7.5v6h-1v-6h1zm6,6v-6h-1v6h1zm11,9h1v-6h-1v6zm-17-6v6h-1v-6h1zm18-3v-6h-1v6h1zm-6,3v6h-1v-6h1z"/></svg>