<svg width="24" height="24" xmlns="http://www.w3.org/2000/svg"><path fill-rule="evenodd" clip-rule="evenodd" d="m12,3c-1.31,0-2.5,1.27-2.5,3s1.19,3,2.5,3c1.31,0,2.5-1.27,2.5-3s-1.19-3-2.5-3zM8.5,6c0-2.13,1.5-4,3.5-4,2,0,3.5,1.87,3.5,4,0,.93-.28,1.8-.77,2.5C17.51,9.82,19,12.82,19,16h-1c0-3.01-1.46-5.68-3.98-6.73-.56.45-1.25.73-2.02.73-.76,0-1.46-.27-2.02-.73-1.69.7-2.89,2.13-3.51,3.89l-.94-.33c.66-1.87,1.93-3.46,3.74-4.33C8.78,7.8,8.5,6.93,8.5,6zM4.42,13.32l3.58,2.5c.04-.42.2-.85.5-1.18C8.85,14.24,9.37,14,10,14h2.24v0c1.61.07,3.12.96,4.28,2.07l0,0L22.75,22h-9.21l-1.01-1H8.61l-6.06-5.34c-.64-.52-.74-1.46-.22-2.1.51-.64,1.45-.75,2.09-.24zM12.1,15h-2.1c-.36,0-.6.13-.75.3-.16.18-.25.43-.26.7,0,.27.09.52.24.7.15.17.39.3.76.3H12v1h-2c-.62,0-1.12-.22-1.47-.59l3.83,14.12-.01-.01c-.22-.17-.53-.14-.7.08-.17.22-.14.53.08.7l.01.01,5.79,5.1H12.95l1.01,1h6.29l-4.42-4.2c-1.08-1.04-2.42-1.77-3.72-1.8z"/></svg>