<svg width="36" height="36" xmlns="http://www.w3.org/2000/svg"><path fill-rule="evenodd" clip-rule="evenodd" d="m6.25,3.25h23.5v3H33v1h-1.75V30.25H33v1H3v-1h1.75V7.25H3v-1h3.25V3.25zm0,4v0h-.5V30.25h8v-4.5h8.5l-.01,4.5h8.01V7.25h-.5V7.25H6.25zm14.99,23H14.75v-3.5h6.5l-.01,3.5zM28.75,4.25v2H7.25V4.25h21.5zm-9,9v3.25h1V9h-1v3.25h-3.5V9h-1v7.5h1v-3.25h3.5zm-10,7.15.75-2.4.75,2.4h2.25l-1.8,1.2.75,2.4-1.95-1.35-1.95,1.35.75-2.25-1.8-1.35h2.25zM18,18l-.75,2.4H15l1.8,1.35-.75,2.25L18,22.65l1.95,1.35-.75-2.4,1.8-1.35h-2.25l-.75-2.25zm6.75,2.4.75-2.4.75,2.25h2.25l-1.8,1.35.75,2.4-1.95-1.35-1.95,1.35.75-2.25-1.8-1.35h2.25z"/></svg>