<svg width="48" height="48" fill="none" xmlns="http://www.w3.org/2000/svg"><path d="m19.06,19.76c.3,2.88,2.31,5.24,4.94,5.24,2.63,0,4.63-2.38,4.94-5.24m-1.88-5.51c-.84-.77-1.88-1.25-3.06-1.25-1.18,0-2.22.48-3.06,1.25" stroke="#000"/><path fill-rule="evenodd" clip-rule="evenodd" d="m32,9c-2.63,0-4.64,2.28-4.94,5.25C28.25,15.34,29,17.05,29,19c0,.26-.04.51-.06.76.84.77,1.88,1.25,3.06,1.25,2.85,0,5-2.67,5-6,0-3.34-2.15-6-5-6zM20.94,14.24c-.17-1.67-.53-3.72-1.65-4.6-.86-.67-2.14-1.15-3.29-1.15-1.12,0-2.44.45-3.31,1.17-1.34,1.1-1.69,3.31-1.69,5.34,0,3.34,2.15,6,5,6,1.18,0,2.22-.48,3.06-1.25-.03-.25-.06-.5-.06-.76,0-1.96.75-3.66,1.94-4.76z" stroke="#000"/><path d="m27.06,14.24s1.8-.17,3.28-1.52c.54-.49,1.36-.46,1.85.08,1.13,1.24,2.97,2.94,4.77,2.94m-16.05-1.7c-.84,0-2.48-2.36-2.48-2.36-.25-.25-.61-.34-.94-.24-1.23.4-2.4.18-3.04-.02-.33-.1-.69-.01-.94.24,0,0-1.36,2.36-2.49,2.36M38.93,22.64l2.19-.48c.47-.1.6-.7.23-.99-1.45-1.15-3.99-3.59-4.38-6.84m-17.76,2.94,2.45-1.29c.23-.12.5-.1.7.05.9.65,3.6,2.17,6.17.39M13.33,35.5H4.5c.1-6.05,3.15-13.4,7.99-16.18m22.85.2c5.04,2.89,8.17,10.1,8.17,15.98h-8.82M9,28.5h4m-2.5,0V27" stroke="#000"/><path fill-rule="evenodd" clip-rule="evenodd" d="m27.6,23.2-2.6,3.84,1,2-2,4-2-4,1-2-2.6-3.84c-4.84,2.89-7.4,10.05-7.4,16.3h22c0-6.13-2.36-13.3-7.4-16.3z" stroke="#000"/></svg>