<svg width="36" height="36" xmlns="http://www.w3.org/2000/svg"><path fill-rule="evenodd" clip-rule="evenodd" d="m9.75,4.25c-3.03736,0-5.5,2.46264-5.5,5.5,0,3.0374,2.46264,5.5,5.5,5.5,3.0374,0,5.5-2.4626,5.5-5.5,0-3.03736-2.4626-5.5-5.5-5.5zm-6.5,5.5c0-3.58964,2.91036-6.5,6.5-6.5,3.5896,0,6.5,2.91036,6.5,6.5,0,3.5896-2.9104,6.5-6.5,6.5-3.58964,0-6.5-2.9104-6.5-6.5zm16.5-2h13v13h-13v-13zm1,1v11h11v-11h-11zm-6.0713,11.9928-.4287-.7146-.4287.7146-6.75005,11.25-.45435.7572h15.2662l-.4544-.7572-6.75-11.25zm-.4287,1.229,5.8669,9.7782H8.3831l5.8669-9.7782z"/></svg>