<svg width="24" height="24" xmlns="http://www.w3.org/2000/svg"><path fill-rule="evenodd" clip-rule="evenodd" d="m12,2.46.29.21c.61.44,1.16.96,1.64,1.53,3.31,3.92,2.56,9.58-1.64,12.64l-.29.21-.29-.21c-2.33-1.7-3.71-4.31-3.71-7.08,0-2.77,1.37-5.38,3.71-7.08l.29-.21zM12,3.7c-1.91,1.52-3,3.73-3,6.05,0,2.32,1.09,4.53,3,6.05,3.48-2.77,4.01-7.59,1.17-10.96l0,0c-.35-.41-.74-.79-1.17-1.14zM.99,13.72c.51-.46,1.07-.85,1.67-1.18l.48.88c-.42.23-.81.49-1.18.79,1.64,2.74,4.78,4.25,7.97,3.79l.14.99c-3.74.53-7.41-1.33-9.19-4.66l-.18-.35.29-.26zM23.01,13.72c-.51-.45-1.07-.85-1.67-1.18l-.48.88c.42.23.81.49,1.18.79-1.64,2.74-4.78,4.25-7.97,3.79l-.14.99c3.74.54,7.41-1.33,9.19-4.66l.18-.35-.29-.26zM3.67,6.14c1.21-.04,2.39.17,3.51.6l-.36.93c-.87-.33-1.79-.52-2.72-.54-.66,4.13,1.99,8.1,6.12,9.03l-.22.98c-4.79-1.07-7.82-5.8-6.8-10.6l.08-.38.39-.01zM17.18,7.67c.87-.33,1.79-.52,2.72-.54.66,4.13-1.99,8.1-6.12,9.03l.22.98c4.79-1.07,7.82-5.8,6.8-10.6l-.08-.38-.39-.01c-1.21-.04-2.39.17-3.51.6l.36.93z"/></svg>