<svg width="36" height="36" xmlns="http://www.w3.org/2000/svg"><path fill-rule="evenodd" clip-rule="evenodd" d="m7.75,3.25h20.5v29.5H7.75V3.25zm1,1v27.5h18.5V4.25H8.75zM24,23.75H12v-1h12v1zm-12,3h12v-1H12v1zm6.0526-9.2059c-.0336-.0367-.1464-.2162-.2181-.9918v.0001c-.0659-.7105-.1084-1.0935-.1377-1.2437-.0434-.1941-.124-.3779-.2373-.5412-.1047-.161-.2426-.2976-.4043-.4007.2057-.1295.3835-.2988.5229-.498.2399-.3592.3622-.7841.3501-1.2158.0047-.3644-.0798-.7245-.2461-1.0489-.1664-.3122-.4138-.5738-.7163-.7573-.4632-.2499-.9859-.3687-1.5117-.3435H12v7.5176h1.3843v-3.0645h1.6361c.3481-.0325.6984.0301,1.0137.1809.249.1619.3999.6036.4336,1.2781.0278.5684.0513.8899.0747,1.0393.0229.1674.083.3276.1758.4688l.0674.0974h1.6816l-.4146-.4768zM16.125,13.5669c-.129.0727-.2707.1202-.4175.1399-.2616.0351-.5256.0503-.7895.0454h-1.5337v-1.9863h1.7856c.2455-.0069.4909.0158.731.0674.1408.0341.2711.1023.3794.1985.1823.1869.2766.4425.2593.7031.0334.334-.1279.6575-.4146.832zm5.291,2.5669,1.8868-5.6308,1.4737-.0001-2.6895,7.5176h-1.38l-.0542-.1494-2.6308-7.3682h1.516l1.878,5.6309z"/></svg>