<svg width="48" height="48" xmlns="http://www.w3.org/2000/svg"><path fill-rule="evenodd" clip-rule="evenodd" d="m32.174,7.21016c-1.5286-.56893-3.2128.05558-4.021,1.41064-1.0216-.45802-2.2609-.18097-2.9826.73817l-.0008.00095c-.3223.41252-.5049.91288-.5277,1.42838-.476.1289-.8609.4291-1.1334.8085-.3602.5016-.5346,1.1497-.5068,1.7848.028.6388.2625,1.299.7642,1.8024.5078.5094,1.2469.8158,2.1997.8158h.8831l-4.7945,8.3949-1.1784-.982c.7575-4.2125-1.9478-8.3027-6.1644-9.2259-4.3167-.945-8.58128,1.7878-9.52634,6.1045v.0001c-.84509,3.8607,1.25501,7.7274,4.87934,9.1535l-4.99943,8.8084-.42386.7468H43.3954l-.4699-.7623-13.7074-22.238h3.7445c.9428,0,1.6865-.3071,2.2067-.8066.5148-.4942.7792-1.1468.823-1.7868.0436-.6364-.1293-1.2906-.5291-1.7887-.2887-.3596-.6854-.6236-1.1682-.7376.2597-1.54292-.6006-3.10188-2.1204-3.66972l-.0006-.00022zm-4.1737,8.78964h.0431l4.6713,7.5783-1.2786,1.2786-2.6589-1.7726-.2774-.1849-.2773.1849-2.6958,1.7972-1.7838-1.427,4.2574-7.4545zm.832-6.49418c.4534-1.19902,1.791-1.80541,2.9926-1.35837,1.2053.45053,1.8178,1.79164,1.3682,2.99785l-.2625.7043.751-.03c.4661-.0187.7902.1607,1.0018.4243.2218.2763.3401.6733.3113,1.0944-.0286.4175-.2002.8287-.5179,1.1338-.3124.2999-.798.5279-1.5142.5279h-6.997c-.7296,0-1.1993-.2287-1.4914-.5218-.2981-.2991-.4545-.7089-.4734-1.1401-.0191-.4348.1037-.8567.3199-1.1577.21-.2923.4961-.4604.8449-.4604h.5885l-.095-.5808c-.0674-.4115.041-.8335.2981-1.16291.5101-.64903,1.4497-.76301,2.0989-.2539l.5355.42001.2407-.63658zM14.4976,15.1637c3.4963.7655,5.8051,4.0195,5.4733,7.4949l-3.651-3.0426-.4596-.383-.2953.5203-5.0013,8.8118c-3.25219-1.2047-5.15147-4.6349-4.40177-8.0599.82694-3.7773,4.55837-6.1684,8.33567-5.3415zm7.0529,10.113-1.9849,3.4754.8684.496,2.8069-4.9148,1.9466,1.5572.2855.2284.3042-.2028,2.7226-1.8151,2.7227,1.8151.341.2274.2899-.2898,1.4006-1.4006,8.3503,13.547h-7.5861l-3.6562-3.8445-.1478-.1555h-6.0569l-4.8709-3.4096-.4489-.3143-.2719.4758-4.1421,7.2481H6.35852l9.78078-17.2329,5.4112,4.5095zM29.7852,35.0001l2.853,3H15.5753l3.5866-6.2761,4.5511,3.1857.1291.0904h5.9431z"/></svg>