<svg width="36" height="36" xmlns="http://www.w3.org/2000/svg"><path fill-rule="evenodd" clip-rule="evenodd" d="m5.25,6.25h-.5v20.003c0,1.9308,1.56652,3.497,3.4985,3.497H27.753c1.9306,0,3.497-1.5664,3.497-3.497V10.75h-3v-4.5h-23zm23,19.25V11.75h2v14.503c0,1.3784-1.1186,2.497-2.497,2.497H8.2485c-1.38002,0-2.4985-1.1188-2.4985-2.497V7.25h21.5V25.5h1zm-20-13.25h-.5v5.5h7v-5.5h-6.5zm.5,4.5v-3.5h5v3.5h-5zm16.75-.5h-9v-1h9v1zm-9-3.0007h9v-1h-9v1zm9-3h-18V9.24925h18v1.00005zm-9,10.5007h9v-1h-9v1zm9,3h-9v-1h9v1zm-18-3H15v-1H7.5v1zm7.5,3H7.5v-1H15v1zm-7.5,2v1h18v-1h-18z"/></svg>