<svg width="24" height="24" xmlns="http://www.w3.org/2000/svg"><path fill-rule="evenodd" clip-rule="evenodd" d="m5.5,3C5.22,3,5,3.22,5,3.5v3C5,6.78,5.22,7,5.5,7H8V3H5.5zM9,3v4h6V3H9zm7,0v4h2.5c.28,0,.5-.22.5-.5v-3c0-.28-.22-.5-.5-.5H16zM4,3.5C4,2.67,4.67,2,5.5,2H18.5c.83,0,1.5.67,1.5,1.5v3c0,.83-.67,1.5-1.5,1.5H18v7h.09v0c.48.01,1.19.16,1.8.59C20.51,16.04,21,16.79,21,17.9v3c0,.29-.12.57-.33.78l-.35-.36.35.36c-.21.21-.49.32-.78.32H4.11c-.29,0-.57-.11-.78-.32C3.12,21.47,3,21.19,3,20.9v-3c0-.77.31-1.51.86-2.05C4.41,15.3,5.15,15,5.92,15H6V8h-.5C4.67,8,4,7.33,4,6.5v-3zM7,8v1.81c.62.67,1.36,1.21,2.19,1.58.73.33,1.51.53,2.31.59V11h1v.98c.8-.06,1.58-.26,2.31-.59.83-.38,1.57-.91,2.19-1.58V8H7zm10,3.19c-.54.45-1.14.83-1.78,1.12-.86.39-1.78.62-2.72.68V14h-1v-1.02c-.94-.06-1.86-.29-2.72-.68C8.14,12.01,7.54,11.63,7,11.19V21h10v-9.82zM18,21h1.89c.03,0,.06-.01.08-.03C19.99,20.95,20,20.93,20,20.9v-3c0-.78-.32-1.23-.7-1.5-.4-.29-.9-.4-1.23-.4H18v5zM6,21v-5h-.08c-.51,0-1,.2-1.36.56h0C4.2,16.91,4,17.4,4,17.9v3c0,.03.01.05.03.07.02.02.05.03.08.03H6z"/></svg>