<svg width="36" height="36" xmlns="http://www.w3.org/2000/svg"><path fill-rule="evenodd" clip-rule="evenodd" d="m12.5,13.5c0-2.7,1.86-4.75,4-4.75s4,2.05,4,4.75c0,2.7-1.86,4.75-4,4.75s-4-2.05-4-4.75zm4-5.75c-2.83,0-5,2.65-5,5.75,0,1.46.48,2.82,1.28,3.85C8.53,19.3,6.25,24.5,6.25,29.25v.5H21v-1H7.26c.16-4.5,2.44-9.08,6.26-10.63.82.71,1.85,1.13,2.98,1.13,1.13,0,2.16-.42,2.98-1.13,2.52,1.01,4.53,3.31,5.55,6.05l.94-.35c-1.05-2.82-3.1-5.28-5.75-6.48.8-1.03,1.28-2.39,1.28-3.85,0-3.1-2.17-5.75-5-5.75zM27.25,25.5v3.25H24v1h3.25v3.25h1v-3.25h3.25v-1h-3.25v-3.25h-1z"/></svg>