<svg width="24" height="24" xmlns="http://www.w3.org/2000/svg"><path fill-rule="evenodd" clip-rule="evenodd" d="m17.95,2.99-.52,1.04c-.61,1.22-.34,2.74.58,3.77.89,1,2.4,1.54,4.29.74l1.17-.5-.52,1.16c-.56,1.26-1.65,2.06-2.73,2.49-.75.3-1.54.44-2.22.41,0,.1,0,.2-.01.3-.05.64-.32,1.29-.82,1.79-.51.5-1.25.81-2.17.81H8c-.95,0-1.69-.31-2.2-.82-.5-.51-.74-1.17-.76-1.81-.03-.64.15-1.29.51-1.79.27-.38.66-.69,1.14-.81.09-1.85,2.01-2.9,3.52-2.18.94-1.52,2.59-1.91,3.94-1.44.28-.78.62-1.37,1.02-1.81.49-.55,1.06-.84,1.67-1.02l1.11-.33zm1.9,7.78c-.79.31-1.56.39-2.07.32-.08-.17-.17-.33-.29-.48-.29-.37-.69-.64-1.18-.75.12-.8,0-1.53-.32-2.14-.23-.44-.56-.81-.94-1.09.27-.77.56-1.27.86-1.61.08-.08.16-.16.24-.23-.2,1.32.24,2.69,1.12,3.68.93,1.04,2.34,1.66,4.01,1.41-.41.39-.91.69-1.42.9zm-6-3.66c-1.05-.38-2.36-.05-3,1.39l-.27.6-.51-.42c-.97-.79-2.57-.05-2.39,1.45l.07.56h-.56c-.35,0-.63.17-.85.46-.22.3-.34.73-.32,1.17.02.43.18.85.47,1.15.29.29.76.52,1.49.52h7c.69,0,1.17-.23,1.48-.53.32-.31.49-.72.53-1.15.03-.43-.08-.83-.3-1.1-.2-.26-.52-.44-.99-.42l-.7.03.2-.67c.24-.81.15-1.48-.12-1.98-.27-.51-.72-.88-1.25-1.07zM10,16c-.55,0-1,.45-1,1,0,.55.45,1,1,1C10.55,18,11,17.55,11,17c0-.55-.45-1-1-1zM13,17c0-.55.45-1,1-1s1,.45,1,1c0,.55-.45,1-1,1s-1-.45-1-1zm-1,2c-.55,0-1,.45-1,1,0,.55.45,1,1,1s1-.45,1-1c0-.55-.45-1-1-1z"/></svg>