<svg width="48" height="48" xmlns="http://www.w3.org/2000/svg"><path fill-rule="evenodd" clip-rule="evenodd" d="m11.0793,12.9582C10.3011,13.5195,10,14.047,10,14.5s.3011.9805,1.0793,1.5418c.7669.5532,1.9104,1.0721,3.3724,1.5163C17.3695,18.4446,21.4431,19,26,19s8.6305-.5554,11.5483-1.4419c1.462-.4442,2.6055-.9631,3.3724-1.5163C41.6989,15.4805,42,14.953,42,14.5s-.3011-.9805-1.0793-1.5418c-.7669-.5532-1.9104-1.0721-3.3724-1.5163C34.6305,10.5554,30.5569,10,26,10s-8.6305.5554-11.5483,1.4419c-1.462.4442-2.6055.9631-3.3724,1.5163zm-.585-.811C9.6135,12.7825,9,13.571,9,14.5v.7618c-.84075.3873-1.54155.8228-2.05324,1.3062C6.3742,17.109,6,17.7489,6,18.4715l.00019.0285H6v4c0,1.0696.66472,1.9341,1.63246,2.6073.39589.2753.8554.5285,1.36754.7607v6.6323c.00012,1.083.65892,1.9634,1.6282,2.6526.9701.6896,2.3223,1.2434,3.8948,1.6782,3.1517.8714,7.3251,1.3011,11.477,1.3011s8.3253-.4297,11.477-1.3011c1.5725-.4348,2.9247-.9886,3.8947-1.6782C42.3412,34.4636,43,33.5831,43,32.5v-7.7728c.0079-.0737.012-.1483.012-.2239,0-.7239-.3755-1.3649-.9498-1.9065-.3892-.367-.8874-.7063-1.4731-1.0178.2808-.1494.541-.3066.7784-.4717C42.3353,20.4341,43,19.5696,43,18.5v-4c0-.929-.6135-1.7175-1.4943-2.3528-.8919-.6434-2.1516-1.2018-3.6667-1.6621C34.8025,9.56257,30.6261,9,26,9s-8.8025.56257-11.839,1.4851c-1.5151.4603-2.7748,1.0187-3.6667,1.6621zM10,32.5v.0003c.0001.6275.3726,1.2438,1.2077,1.8376.6849.4869,1.6334.9214,2.7923,1.294v-2.9523c-1.3494-.4098-2.511-.9148-3.3718-1.5267-.2281-.1622-.439-.335-.6282-.5185V32.5zm5,.4577v2.9667c2.5092.6677,5.6924,1.0611,9,1.1739v-2.9994c-3.2623-.1094-6.4335-.4878-9-1.1412zm11,4.1745c-.3337,0-.6672-.0028-1-.0084v-2.9999c.3331.0056.6666.0083,1,.0083,3.1378,0,6.2879-.2454,9-.7415v2.983c-2.6726.5039-5.8298.7585-9,.7585zM36,33.192v2.9763c.419-.0936.8232-.194,1.2105-.301,1.5212-.4206,2.7472-.9361,3.5818-1.5294C41.6276,33.744,42,33.1276,42,32.5v-1.8656c-.1892.1835-.4001.3563-.6283.5185-.97.6896-2.3222,1.2434-3.8947,1.6782-.4707.1301-.9642.2504-1.477.3609zm-26-4.6918c.0001.6276.3725,1.2439,1.2077,1.8377.8346.5933,2.0606,1.1088,3.5818,1.5294.0696.0192.1398.0383.2105.0571v-3.1717c-1.1471-.3045-2.1646-.6582-3.0183-1.0541-.7989-.3705-1.4764-.7879-1.9817-1.2535v2.0551zm32-2.0337V28.5c0,.6276-.3724,1.244-1.2077,1.8379-.8346.5933-2.0606,1.1088-3.5818,1.5294-.0696.0192-.1398.0383-.2105.0571V28.759c.2925-.0774.5762-.1578.8506-.2412,1.5152-.4603,2.7749-1.0187,3.667-1.6621.1718-.1239.3335-.2537.4824-.3892zm-17,6.6573c-3.2336-.0548-6.4017-.3752-9-.9555v-3.17c2.5395.576,5.632.9356,9,.996v3.1295zm1-3.1205v3.1289c3.5753,0,7.1343-.3239,10-.9639v-3.1647c-2.7901.6305-6.2417.9997-9.988.9997H26zM42,24.5h.012c-.0011-.3523-.1814-.7471-.6359-1.1757-.3334-.3144-.7937-.6258-1.3761-.9248v.1006c0,1.0696-.6648,1.934-1.6325,2.6072-.9698.6745-2.3213,1.2161-3.8932,1.6413-3.1506.8523-7.323,1.2726-11.4743,1.2726-3.4207,0-6.8558-.2854-9.7217-.8627.7644.2906,1.6445.5564,2.6242.7904,2.7572.6583,6.2628,1.0544,10.1095,1.0544,4.5563,0,8.6299-.5557,11.5479-1.4423,1.4621-.4442,2.6057-.9631,3.3727-1.5163.6896-.4974,1.0046-.9681,1.0674-1.3838V24.5zM7,20.4242V22.5c0,.6041.36653,1.2042,1.20348,1.7863.68574.477,1.6357.9026,2.79652,1.2676v-3.1172c-1.44331-.4506-2.64542-.992-3.50558-1.6124-.17646-.1272-.3422-.2607-.49442-.4001zm14,6.5638c-3.3072-.1103-6.4902-.4951-9-1.1482v-3.1154c2.4726.6549,5.5755,1.089,9,1.2116v3.052zm1-3.0253v3.0503c.3328.0055.6663.0082,1,.0082,3.1699,0,6.3271-.249,9-.7419v-2.5628c-1.9231.2036-3.9641.3047-6,.3047-.1642,0-.3284-.0006-.4927-.0019l.0001.0021c-.148.0022-.7194-.0107-1.2679-.0235l-.1941-.0046h-.0003c-.4898-.0115-.9308-.0218-1.0451-.0218-.3358,0-.6692-.003-1-.0088zM34.2132,25.7833c-.3881.105-.7932.2033-1.2132.2951V23.6c1.6219-.2069,3.1398-.4904,4.4743-.8514.5364-.1451,1.0471-.3037,1.5257-.4766v.2281c0,.6041-.3666,1.2041-1.2035,1.7862-.8349.5808-2.0614,1.0853-3.5833,1.497zM7.63349,17.295c.33128-.313.78828-.6232,1.36651-.9212V18.5c0,1.0696.66472,1.9341,1.6325,2.6073.163.1134.3369.2231.5208.3291-1.31966-.4229-2.35992-.9081-3.0739-1.4231C7.30116,19.452,7,18.9244,7,18.4715c0-.3524.1793-.7475.63349-1.1765zm2.86081-.4422c-.1764-.1272-.3421-.2606-.4943-.4V18.5c0,.6041.3665,1.2042,1.2035,1.7863.8349.5808,2.0614,1.0853,3.5833,1.497.0705.0191.1416.0379.2132.0565V18.753c-.2884-.0764-.5682-.1558-.839-.2381-1.5151-.4603-2.7748-1.0187-3.6667-1.6621zM16,18.998v3.0804c2.5987.5676,5.7668.881,9,.9346v-3.0218c-3.3652-.0595-6.4578-.4178-9-.9932zm20,3.0804c-2.8662.626-6.4251.9428-10,.9428V20c3.7519,0,7.2079-.37,10-1.002v3.0804zM37,18.753v3.0868c.0716-.0186.1427-.0374.2132-.0565,1.5219-.4117,2.7484-.9162,3.5833-1.497C41.6335,19.7042,42,19.1041,42,18.5v-2.0472c-.1522.1394-.3179.2728-.4943.4-.8919.6434-2.1516,1.2018-3.6667,1.6621-.2708.0823-.5506.1617-.839.2381zM26,12c3.8372,0,6.8903.3801,9.1708.8854,2.2917.5078,3.7742,1.1356,4.4911,1.6104l.5522-.8336c-.8621-.5712-2.4791-1.2329-4.8269-1.7531C33.0282,11.3864,29.9019,11,26,11c-2.0683,0-3.9176.1079-5.5508.288-4.5191.4977-7.4183,1.5453-8.672,2.3786l.5536.8328c1.0603-.7047,3.7752-1.7271,8.2279-2.2174h.0001C22.1537,12.1061,23.9663,12,26,12z"/></svg>