<svg width="24" height="24" xmlns="http://www.w3.org/2000/svg"><path fill-rule="evenodd" clip-rule="evenodd" d="m7.5,3C6.67214,3,6,3.67214,6,4.5V21h10V4.5c0-.82786-.6721-1.5-1.5-1.5h-7zM5,4.5V21H4v1h14v-1h-1v-6c.4227,0,.6411.1038.7609.2244.1221.1229.2284.35.2391.7815v1.0229c.0003.2481.0007.7035.1616,1.103.0885.2196.2334.4456.4705.6144.2396.1704.5332.2538.8679.2538.3329,0,.6259-.0806.8661-.2479.2386-.1663.3853-.3904.4747-.6106.1637-.4028.1609-.8646.1593-1.1221L21,16.9986v-3.0487c1.1408-.2318,2-1.241,2-2.4499V10h-1V8h-1v2h-1V8h-1v2h-1v1.5c0,1.2089.8592,2.2181,2,2.4499v3.0529c.0016.2896-.0043.5623-.0856.7622-.0354.0871-.0765.1363-.12.1666-.042.0292-.1253.0684-.2944.0684-.1653,0-.2466-.0391-.2881-.0687-.044-.0312-.0863-.0827-.1227-.1731-.0826-.205-.0887-.4795-.0892-.7587V16h.0001l-.0002-.0114c-.0131-.5729-.1574-1.0944-.5296-1.469C18.0954,14.1422,17.5753,14,17,14V4.5C17,3.11986,15.8801,2,14.5,2h-7C6.11986,2,5,3.11986,5,4.5zm2.5.5H7v5h8V5H7.5zM8,9V6h6v3H8zm11,2.5V11h3v.5c0,.8279-.6721,1.5-1.5,1.5s-1.5-.6721-1.5-1.5z"/></svg>