<svg width="36" height="36" xmlns="http://www.w3.org/2000/svg"><path fill-rule="evenodd" clip-rule="evenodd" d="m26.75,18.27c2.53.25,4.5,2.38,4.5,4.98v6.5h-10v-6.5c0-2.59,1.97-4.72,4.5-4.98V4.5h1v13.77zM4.61,16.75h1.68c.24-1.7,1.7-3,3.46-3,1.76,0,3.22,1.3,3.46,3h7.68l-.16.62L17.64,29.75H7.86l-3.25-13zm5.14-2c1.21,0,2.22.86,2.45,2H7.3c.23-1.14,1.24-2,2.45-2zm-3.86,3,2.75,11h8.22l1.63-6.5h-4.98v-1h5.23l.88-3.5H5.89zm18.36,11V25.5h1v3.25h2V24h1v4.75h2v-5.5c0-2.21-1.79-4-4-4-2.21,0-4,1.79-4,4v5.5h2zm-9.5-16c0-.55.45-1,1-1,.55,0,1,.45,1,1s-.45,1-1,1c-.55,0-1-.45-1-1zm1-2c-1.1,0-2,.9-2,2s.9,2,2,2c1.1,0,2-.9,2-2s-.9-2-2-2zm-6.75-.5c-.14,0-.25.11-.25.25s.11.25.25.25c.14,0,.25-.11.25-.25s-.11-.25-.25-.25zm-1.25.25c0-.69.56-1.25,1.25-1.25.69,0,1.25.56,1.25,1.25,0,.69-.56,1.25-1.25,1.25-.69,0-1.25-.56-1.25-1.25z"/></svg>