<svg width="24" height="24" xmlns="http://www.w3.org/2000/svg"><path fill-rule="evenodd" clip-rule="evenodd" d="m12,4C9.77,4,8,5.77,8,8c0,2.23,1.77,4,4,4,2.23,0,4-1.77,4-4,0-2.23-1.77-4-4-4zM7,8c0-2.78,2.22-5,5-5,2.78,0,5,2.22,5,5,0,1.65-.78,3.11-2,4.01v6.99l-3,3-3-3v-6.99C7.78,11.11,7,9.65,7,8zm3,4.59v6l2,2,2-2V17h-2.01v-1H14v-1h-2v-1h2v-1.41c-.61.26-1.29.41-2,.41s-1.39-.15-2-.41zm2-5.59c-.59,0-1,.42-1,.98,0,.58.44,1.02,1,1.02.56,0,1-.44,1-1.02,0-.56-.41-.98-1-.98zm-2.01.98c0-1.13.88-1.98,2.01-1.98,1.13,0,2,.86,2,1.98,0,1.1-.85,2.02-2,2.02-1.14,0-2.01-.92-2.01-2.02z"/></svg>