<svg width="24" height="24" xmlns="http://www.w3.org/2000/svg"><path fill-rule="evenodd" clip-rule="evenodd" d="m5.4638,4.4638C5.18329,4.74432,5,5.21504,5,6v5.0005h14V6c0-.78496-.1833-1.25568-.4638-1.5362C18.2557,4.18329,17.785,4,17,4H7c-.78496,0-1.25568.18329-1.5362.4638zM5,18v-5.9995h14V18H5zM4.7567,3.7567C5.29968,3.21371,6.07896,3,7,3h10c.921,0,1.7003.21371,2.2433.7567C19.7863,4.29968,20,5.07896,20,6v3h1v2h-1v9.9995h-3.999V19H8v1.9995H4V11H3V9h1V6c0-.92104.21371-1.70032.7567-2.2433zM17.001,19H19v.9995h-1.999V19zM5,19.9995V19h2v.9995H5zM7,5h10v1H7V5zM6,15.9995c0-.5505.44721-1,1-1s1,.4495,1,1c0,.5522-.44786,1-1,1s-1-.4478-1-1zm11-1c-.5528,0-1,.4495-1,1,0,.5522.4479,1,1,1s1-.4478,1-1c0-.5505-.4472-1-1-1zM14.4008,14.5l-1.601-1.5h1.2l2,2-2,2h-1.2l1.601-1.5h-1.901V17h-1v-1.5H9.59976L11.1998,17H9.99976l-2-2,2-2h1.20004l-1.60004,1.5h1.90004V13h1v1.5h1.901z"/></svg>