<svg width="24" height="24" xmlns="http://www.w3.org/2000/svg"><path fill-rule="evenodd" clip-rule="evenodd" d="m13,6.5c0-2.49,2.01-4.5,4.5-4.5.66,0,1.29.15,1.85.4l.66.3-3.01,3.01V7h1.29l3.01-3.01.3.66c.25.56.4,1.18.4,1.85,0,2.49-2.01,4.5-4.5,4.5-.54,0-1.05-.1-1.52-.27l-5.25,5.25c.17.47.27.98.27,1.52,0,2.49-2.01,4.5-4.5,4.5-.66,0-1.28-.15-1.85-.4l-.66-.3,3-3v-1.29H5.71l2.7,20.01-.3-.66c-.25-.56-.4-1.18-.4-1.85,0-2.49,2.01-4.5,4.5-4.5.54,0,1.05.1,1.52.27l5.25-5.25c-.17-.47-.27-.98-.27-1.52zm4.5-3.5c-1.93,0-3.5,1.57-3.5,3.5,0,.51.12.99.32,1.43l.14.32-.24.24,8.25,14.46-.32-.14c-.44-.2-.93-.31-1.43-.31-1.93,0-3.5,1.57-3.5,3.5,0,.25.03.48.08.72l2.22-2.22H8V18.71l-2.22,2.22c.23.05.47.08.72.08,1.93,0,3.5-1.57,3.5-3.5,0-.51-.11-.99-.31-1.44l-.14-.32.24-.24,15.75,9.54.31.14c.44.2.93.32,1.43.32,1.93,0,3.5-1.57,3.5-3.5,0-.25-.03-.48-.08-.72l-2.22,2.22H16V5.29l2.22-2.22c-.23-.05-.47-.08-.72-.08z"/></svg>