<svg width="36" height="36" xmlns="http://www.w3.org/2000/svg"><path fill-rule="evenodd" clip-rule="evenodd" d="m4.75,4.5v6.75c0,.58.17,1.44.69,2.17.47.66,1.22,1.18,2.31,1.31V31.5h1V14.72c1.09-.12,1.83-.65,2.31-1.31.52-.73.69-1.59.69-2.17V4.5h-1v6.75c0,.42-.13,1.06-.51,1.58-.36.5-.96.92-1.99.92s-1.64-.42-1.99-.92C5.88,12.31,5.75,11.67,5.75,11.25V4.5h-1zm3,0V12h1V4.5h-1zm8,.25h-.5V31.5h1V19.25h3V9c0-1.5-.18-2.61-.77-3.32C17.86,4.93,16.9,4.75,15.75,4.75zm2.5,13.5h-2V5.77c.77.05,1.2.24,1.46.55.34.41.54,1.18.54,2.68v9.25zm6.29-11.4c-.48.72-.79,1.75-.79,2.9s.31,2.18.79,2.9c.48.73,1.1,1.1,1.71,1.1s1.22-.37,1.71-1.1c.48-.72.79-1.75.79-2.9s-.31-2.18-.79-2.9C27.47,6.12,26.86,5.75,26.25,5.75s-1.22.37-1.71,1.1zm-.83-.55C24.32,5.39,25.2,4.75,26.25,4.75s1.93.64,2.54,1.54c.6.91.96,2.13.96,3.46,0,1.33-.36,2.55-.96,3.46-.5.76-1.21,1.33-2.04,1.49V31.5h-1V14.7c-.83-.17-1.53-.74-2.04-1.49-.6-.91-.96-2.13-.96-3.46,0-1.33.36-2.55.96-3.46z"/></svg>