<svg width="24" height="24" xmlns="http://www.w3.org/2000/svg"><path fill-rule="evenodd" clip-rule="evenodd" d="m2,4h10v-1H2v1zm0,1h5V17.5h2V5h2.5c1.69-.02,2.96.26,3.98.83,1.02.58,1.71,1.43,2.28,2.45l.01.01,3.58,7.22.01.02c.4,1.02.58,1.9.5,2.65-.09.77-.46,1.37-1.05,1.81-.57.42-1.34.67-2.21.81-.88.15-1.92.2-3.08.2h0L9,21v-2.5H7v2.5H2v-1h4V6H2v-1zm9,4h4.31l3.5,7H11V9zm1,1v5h5.19l-2.5-5H12zm-.5-4c1.58-.02,2.67.24,3.47.7.8.46,1.38,1.13,1.89,2.06l3.55,7.16c.37.94.48,1.63.42,2.14-.06.49-.27.84-.65,1.11-.39.29-.98.5-1.79.64-.8.13-1.78.19-2.91.19h0L10,20V6h1.5v0l0,0z"/></svg>