<svg width="48" height="48" xmlns="http://www.w3.org/2000/svg"><path fill-rule="evenodd" clip-rule="evenodd" d="m23.7811,8.08392-.2772.41619-.2771-.41619.2771-.18451.2772.18451zM36.6678,26.0359c-.6144.8066-1.2968,1.5437-1.98,2.204,1.5723.683,2.9943,1.6738,4.1814,2.9145l.305.3188-.2782.3423c-1.875,2.307-7.2904,5.0495-14.8734,1.4965l.0122,6.6872-1,.0018-.0122-6.7065c-7.6025,3.5795-13.03152.8317-14.91049-1.4789l-.27837-.3424.30502-.3188c1.18717-1.2407,2.60914-2.2315,4.18144-2.9145-.6832-.6603-1.3656-1.3974-1.98-2.204-1.18965-1.5617-2.14503-3.411-2.33444-5.4908l-.03196-.351.31974-.1481c1.94636-.9015,4.32156-.9054,6.15756-.707.9272.1001,1.7366.2541,2.3147.3832.127.0283.243.0555.3468.0807.3763-3.7322,1.6731-6.4961,2.979-8.4.7738-1.1281,1.5491-1.95197,2.1344-2.49622.2927-.2722.5383-.47478.7129-.61079.0873-.06802.1569-.11943.2059-.15462.0245-.0176.0438-.03115.0576-.04069l.0165-.01131.005-.00342.0018-.00115.0006-.00043c.0003-.00018.0005-.00035.2776.41584.2772-.41619.2774-.41602.2777-.41584l.0006.00043.0017.00115.0051.00342.0165.01131c.0138.00954.0331.02309.0576.04069.049.03519.1186.0866.2059.15462.1746.13601.4202.33859.7129.61079.5853.54425,1.3606,1.36812,2.1344,2.49622,1.3059,1.9039,2.6027,4.6678,2.979,8.4.1038-.0252.2199-.0524.3469-.0807.5781-.1291,1.3875-.2831,2.3146-.3832,1.8361-.1984,4.2113-.1945,6.1576.707l.3198.1481-.032.351c-.1894,2.0798-1.1448,3.9291-2.3344,5.4908zm-3.8476,3.8523c.3385-.2759.6952-.5763,1.0594-.9,1.4698.5742,2.8094,1.4352,3.9417,2.5304-1.8678,1.9123-6.7837,4.1616-13.8007.6823l-.0026-1.4426,5.7633-3.8422-.5547-.832-5.2108,3.4739-.012-6.5588-1,.0018.012,6.5728-5.2345-3.4897-.5547.832,5.7914,3.861.0026,1.4073c-7.0346,3.5029-11.9623,1.2496-13.8338-.6659,1.1322-1.0951,2.4718-1.9561,3.9416-2.5303.3642.3237.7209.6241,1.0594.9l.6318-.775c-1.1859-.9669-2.5626-2.2112-3.6839-3.6832-1.0482-1.3761-1.8553-2.9277-2.09261-4.6176,1.63911-.647,3.63271-.6594,5.30071-.4792.8816.0952,1.6533.242,2.2041.3649.1908.0426.3547.0823.4871.1158-.0204.3858-.0311.7812-.0311,1.1862h1c0-4.64,1.4626-7.9179,2.9124-10.0315.7262-1.0588,1.4509-1.8278,1.9906-2.3296.2421-.22509.4467-.39619.597-.51536.1504.11917.355.29027.5971.51536.5397.5018,1.2644,1.2708,1.9906,2.3296,1.4498,2.1136,2.9123,5.3915,2.9123,10.0315h1c0-.405-.0106-.8004-.031-1.1862.1324-.0335.2963-.0732.4871-.1158.5509-.1229,1.3226-.2697,2.2042-.3649,1.668-.1802,3.6616-.1678,5.3007.4792-.2373,1.6899-1.0444,3.2415-2.0926,4.6176-1.1213,1.472-2.498,2.7163-3.684,3.6832l.6319.775z"/></svg>