<svg width="24" height="24" xmlns="http://www.w3.org/2000/svg"><path fill-rule="evenodd" clip-rule="evenodd" d="m14.92,6.54c.44.29.81.69,1.07,1.18.32.61.45,1.34.32,2.14.41.1.76.31,1.03.6.09.1.17.2.24.3C18.43,10.38,19,9.53,19,8.5,19,7.09,17.91,6,16.5,6c-.61,0-1.15.2-1.58.54zm3.02,5.16c.02.1.03.2.04.31.09,1.11-.47,2.41-1.81,2.85l-.31-.95c.8-.26,1.19-1.05,1.13-1.82-.03-.38-.17-.72-.38-.94-.2-.22-.49-.36-.89-.34l-.7.03.2-.67c.24-.81.15-1.48-.12-1.98-.27-.51-.72-.88-1.25-1.07-1.05-.38-2.36-.05-3,1.39l-.27.6-.51-.42c-.97-.79-2.57-.05-2.39,1.45l.07.56h-.56c-.59,0-1.08.53-1.16,1.34-.08.77.27,1.55,1.12,1.84l-.32.95c-1.4-.47-1.91-1.77-1.79-2.88.09-.93.65-1.92,1.64-2.17.09-1.85,2.01-2.89,3.52-2.17.89-1.44,2.42-1.87,3.73-1.5C14.58,5.41,15.48,5,16.5,5,18.47,5,20,6.53,20,8.5c0,1.44-.83,2.66-2.05,3.2zm-9.28.68L10.29,14H8.01v1h2.29l-1.62,1.62.71.71L11,15.72V18h1v-2.29l1.62,1.62.71-.71L12.71,15h2.31v-1h-2.29l1.62-1.62-.71-.71L12,13.31V11h-1v2.29l-1.62-1.62-.71.71z"/></svg>