<svg width="24" height="24" xmlns="http://www.w3.org/2000/svg"><path fill-rule="evenodd" clip-rule="evenodd" d="m11,4.02V2h1v2.02c1.7.11,3.24.79,4.44,1.84l1.43-1.43.71.71-1.43,1.43C18.2,7.76,18.87,9.31,18.98,11H21v1h-2.02c-.11,1.69-.79,3.24-1.84,4.44l1.43,1.43-.71.71-1.43-1.43c-1.2,1.05-2.74,1.73-4.44,1.84V21h-1v-2.02c-1.69-.11-3.24-.79-4.44-1.84l-1.43,1.43-.71-.71,1.43-1.43C4.8,15.24,4.13,13.69,4.02,12H2v-1h2.02c.11-1.69.79-3.24,1.84-4.44L4.43,5.14l.71-.71L6.56,5.86C7.76,4.8,9.3,4.13,11,4.02zM11.5,5C7.91,5,5,7.91,5,11.5,5,15.09,7.91,18,11.5,18c3.59,0,6.5-2.91,6.5-6.5C18,7.91,15.09,5,11.5,5zM6,11.5C6,8.46,8.46,6,11.5,6,14.54,6,17,8.46,17,11.5c0,3.04-2.46,5.5-5.5,5.5C8.46,17,6,14.54,6,11.5zm1.03-.5h2.02c.06-.32.19-.62.36-.88L7.98,8.69C7.47,9.34,7.12,10.13,7.03,11zM8.69,7.98l1.43,1.43c.26-.17.56-.3.88-.36V7.03c-.87.1-1.66.44-2.31.96zM12,7.03v2.02c.32.06.62.19.88.36l1.43-1.43c-.65-.52-1.44-.86-2.31-.96zm3.02,1.66-1.43,1.43c.17.26.3.56.36.88h2.02c-.1-.87-.44-1.66-.96-2.31zM15.97,12h-2.02c-.06.32-.19.62-.36.88l1.43,1.43c.52-.65.86-1.44.96-2.31zm-1.66,3.02-1.43-1.43c-.26.17-.56.3-.88.36v2.02c.87-.1,1.66-.44,2.31-.96zM11,15.97v-2.02c-.32-.06-.62-.19-.88-.36l-1.43,1.43c.65.52,1.44.86,2.31.96zM7.98,14.31l1.43-1.43c-.17-.26-.3-.56-.36-.88H7.03c.1.87.44,1.66.96,2.31zM11.5,10c-.83,0-1.5.67-1.5,1.5s.67,1.5,1.5,1.5,1.5-.67,1.5-1.5-.67-1.5-1.5-1.5z"/></svg>