<svg width="24" height="24" xmlns="http://www.w3.org/2000/svg"><path fill-rule="evenodd" clip-rule="evenodd" d="m2,2h10.31L10,6.62v1.39c4.85.25,8.74,4.14,8.99,8.99H22v5H2V2zm1,5h6v2h.5c4.53,0,8.23,3.54,8.49,8H16v1h5v3H3v-3h6v-1H3V7zm6.19-1H3V3h7.69L9.19,6zM12.5,17c-.28,0-.5.22-.5.5s.22.5.5.5c.28,0,.5-.22.5-.5s-.22-.5-.5-.5zm-.65-.85c.2-.09.42-.15.65-.15.83,0,1.5.67,1.5,1.5s-.67,1.5-1.5,1.5c-.83,0-1.5-.67-1.5-1.5,0-.23.05-.45.15-.65l-2.27-2.27C8.48,14.85,8.01,15,7.5,15,6.12,15,5,13.88,5,12.5S6.12,10,7.5,10,10,11.12,10,12.5c0,.51-.15.98-.41,1.38l2.27,2.27zM6,12.5c0-.83.67-1.5,1.5-1.5s1.5.67,1.5,1.5S8.33,14,7.5,14,6,13.33,6,12.5zm13.54,1.88-.34-.94.94-.34.34.94-.94.34zm-1.19-2.56.5.87.87-.5-.5-.87-.87.5zm-.48-.68-.64-.77.77-.64.64.77-.77.64zM15.87,9.14l.77.64.64-.77-.77-.64-.64.77z"/></svg>