<svg width="36" height="36" viewBox="0 0 36 36" fill="none" xmlns="http://www.w3.org/2000/svg">
<path fill-rule="evenodd" clip-rule="evenodd" d="M4.25 9.5391C4.25 6.61874 6.61814 4.2506 9.5385 4.2506H26.4615C29.3819 4.2506 31.75 6.61874 31.75 9.5391V26.4606C31.75 29.3825 29.3804 31.7506 26.4615 31.7506H9.5385C6.61831 31.7506 4.25 29.3811 4.25 26.4606V9.5391ZM9.5385 3.2506C6.06586 3.2506 3.25 6.06646 3.25 9.5391V26.4606C3.25 29.9331 6.06569 32.7506 9.5385 32.7506H26.4615C29.9326 32.7506 32.75 29.9347 32.75 26.4606V9.5391C32.75 6.06646 29.9341 3.2506 26.4615 3.2506H9.5385ZM23.4244 16.9766L19.8964 13.5H22.518L27 18L22.518 22.5H19.8964L23.4244 19.0466H19.0376V22.5H16.9637V19.0466H12.6013L16.1293 22.5H13.5064L9 18L13.5064 13.5H16.1293L12.6013 16.9766H16.9637V13.5H19.0376V16.9766H23.4244Z" fill="black"/>
</svg>
