<svg width="36" height="36" xmlns="http://www.w3.org/2000/svg"><path fill-rule="evenodd" clip-rule="evenodd" d="m3.75,3.25h-.5v29.5h29.5V3.25h-29zm.5,22.5V4.25h27.5v21.5H30.3l-6.19-11.61-7.65,8.41-6.1-5.34L5.7,25.75H4.25zm0,1v5h27.5v-5H4.25zm6.25-18c-.97,0-1.75.78-1.75,1.75,0,.97.78,1.75,1.75,1.75.97,0,1.75-.78,1.75-1.75,0-.97-.78-1.75-1.75-1.75zM7.75,10.5c0-1.52,1.23-2.75,2.75-2.75,1.52,0,2.75,1.23,2.75,2.75,0,1.52-1.23,2.75-2.75,2.75-1.52,0-2.75-1.23-2.75-2.75zm21.42,15.25-5.27-9.89-7.35,8.09-5.9-5.16L6.84,25.75H29.17z"/></svg>