<svg width="24" height="24" xmlns="http://www.w3.org/2000/svg"><path fill-rule="evenodd" clip-rule="evenodd" d="m4,8.5c0-.83.67-1.5,1.5-1.5h13c.83,0,1.5.67,1.5,1.5v7c0,.83-.67,1.5-1.5,1.5h-13c-.83,0-1.5-.67-1.5-1.5V8.5zm1.5-2.5c-1.38,0-2.5,1.12-2.5,2.5v7c0,1.38,1.12,2.5,2.5,2.5h13c1.38,0,2.5-1.12,2.5-2.5V8.5c0-1.38-1.12-2.5-2.5-2.5h-13zM17,9v1h1v1h-1v1h-1v-1h-1v-1h1v-1h1zM8.5,12c-.83,0-1.5-.67-1.5-1.5,0-.83.67-1.5,1.5-1.5s1.5.67,1.5,1.5c0,.83-.67,1.5-1.5,1.5zm1.74.29c.47-.45.76-1.09.76-1.79,0-1.38-1.12-2.5-2.5-2.5S6,9.12,6,10.5c0,.7.29,1.34.76,1.79-.49.27-.89.62-1.18,1.06C5.18,13.96,5,14.68,5,15.5v.5h7v-.5c0-.82-.18-1.54-.57-2.14-.29-.44-.69-.79-1.18-1.06zM8.5,13h-.9c-.56.23-.94.54-1.19.91-.19.29-.32.65-.38,1.09h4.94c-.05-.44-.18-.8-.38-1.09-.25-.37-.63-.68-1.19-.91H8.5z"/></svg>