<svg width="36" height="36" xmlns="http://www.w3.org/2000/svg"><path fill-rule="evenodd" clip-rule="evenodd" d="m19.25,4.5v3.26c1.64.07,3.17.5,4.54,1.2l1.71-2.89.86.51-1.7,2.88c1.08.68,2.03,1.55,2.81,2.56l2.77-1.57.49.87-2.69,1.52c1,1.57,1.61,3.42,1.69,5.41H33v1h-3.26c-.07,1.55-.45,3.02-1.09,4.33l2.61,1.66-.54.84-2.55-1.63c-.91,1.5-2.16,2.76-3.66,3.68l1.43,2.67-.88.47-1.43-2.66c-1.33.65-2.81,1.05-4.38,1.12v3.26h-1v-3.26c-1.61-.07-3.13-.48-4.49-1.17l-1.59,2.8-.87-.49,1.59-2.8c-1.61-1.01-2.94-2.43-3.84-4.11l-2.76,1.56-.49-.87,2.82-1.59c-.5-1.18-.8-2.46-.86-3.81H4.5v-1h3.26c.07-1.58.47-3.07,1.13-4.41l-2.9-1.71.51-.86,2.87,1.7c.85-1.38,2-2.56,3.36-3.45l-1.54-2.72.87-.49,1.53,2.71c1.4-.74,2.97-1.18,4.65-1.25V4.5h1zm-4.99,23.2c1.35.67,2.87,1.05,4.49,1.05,5.39,0,9.73-4.18,9.99-9.5h-5.01c-.24,2.56-2.34,4.5-4.98,4.5-.72,0-1.41-.15-2.02-.41l-2.47,4.36zm1.6-4.85-2.47,4.36c-2.79-1.77-4.63-4.88-4.63-8.46,0-3.51,1.77-6.58,4.48-8.36l2.47,4.37c-1.19.91-1.95,2.34-1.95,3.99,0,1.71.82,3.2,2.1,4.1zM16.56,14.24l-2.47-4.35c1.39-.73,2.97-1.13,4.66-1.13,5.39,0,9.73,4.18,9.99,9.5h-5.01c-.24-2.56-2.34-4.5-4.98-4.5-.79,0-1.53.18-2.19.49zM14.75,18.75c0-2.25,1.75-4,4-4s4,1.75,4,4-1.75,4-4,4-4-1.75-4-4z"/></svg>