<svg width="36" height="36" xmlns="http://www.w3.org/2000/svg"><path fill-rule="evenodd" clip-rule="evenodd" d="m15.75,4.75049h-.5v3h-9V31.2505h14.5v-3h9V4.75049h-14zm4.5,3h-4v-2h12.5V27.2505h-8v-6.5007H27v-1h-6.25v-2H27v-1h-6.25V7.75049h-.5zm-.5,20.00001v2.5H7.25V8.75049h12.5V27.7505zm7.2119-20.35328v6.10348h-1.218V9.50472h-1.4385v-.885c.3-.0075.5415-.0375.7305-.0915.1875-.0525.3585-.1395.516-.258.225-.174.3765-.465.453-.873h.957zm-8.9775,8.01688v1.086h-4.3965c0-.3315.054-.648.162-.948.1065-.3.258-.5595.453-.777.15-.1665.3255-.33.528-.4875.201-.159.603-.45,1.203-.873.2925-.204.498-.393.6135-.5685.1185-.1755.177-.378.177-.609,0-.267-.0795-.483-.237-.6495-.1575-.165-.363-.2475-.6195-.2475-.63,0-.9525.4515-.9735,1.356h-1.1715v-.1335c0-.741.207-1.314.621-1.719.4035-.396.9255-.594,1.566-.594.5685,0,1.0425.162,1.4235.4845.414.351.621.822.621,1.416,0,.516-.165.9615-.4965,1.335-.108.123-.21.2205-.3045.294s-.3435.252-.747.5325c-.384.267-.6585.4725-.825.6135-.165.1425-.318.3045-.4605.489h2.8635zM18,20.7498H9v-1h9v1zm-9,3h9v-1H9v1z"/></svg>