<svg width="24" height="24" xmlns="http://www.w3.org/2000/svg"><path fill-rule="evenodd" clip-rule="evenodd" d="m21.35,20.65L3.35,2.65l-.71.71.35.35v2.29h1v-1.29l3,3v2.29h1V8.71l1.29,1.29h-.29v1h-2v1h2v-1h1v-.29l1,1V17h5.29l1,1-2.29,0v1h-1v2h1v-1h1v-1h1v2h2v-1h-1v-1.29l2,2v.29h.29l.36.36.71-.71zM15.29,16,14.29,15H13v-1.29l-1-1V16h3.29zM3,8h2v-1h-2v1zm7-3H9v-1h1v1zm1,0h1v-2h-1v2zm4,0h-2v-1h2v-1h2v2h-1v-1h-1v1zM3,17h1v-2h-1v2zm1-6h-1V10h1v-1h1V10h-1v1zm-1,2h1V12h1v-1h-1v1h-1v1zM4,14h1v-1h-1v1zM21,13h-1v1h-2v1h2V14h1v-1zm-1-2h1v1h-1v1h-2v-1h2V11zM15,9h1v1h1v-1h-1V7h-1v2zM21,17h-1v-2h1v2zm-8,4h-1v-1h1v1zm-6,0h1v-2h-1v2zM9,17h1l0,1h1v1H9v-1h-1v-1h1v0zm3,2h2v-1h-2v1zm-5-4h1V14h2v-1H8v1h-1v1zm1,2h-1v-1h1V15h2v1H8v1zM20,9h1v-2h-2v1h1v1zM11,21H9v-1h2v1zm7-10V9l-1,0v-1h2v2h1v1l-2,0zm-3,1h1v1l1,1v-3h-3l1,1zM13,10h0l-1-1v0h1v-1h1V10h-1v0zm-2-2v0h2v-1h-3v0h0l1,1zM7,4v0l-1-1v0h3v1h-2z"/></svg>