<svg width="36" height="36" xmlns="http://www.w3.org/2000/svg"><path fill-rule="evenodd" clip-rule="evenodd" d="m3,5.75h15v-1H3v1zm0,2h7.25V26.5h3.5V7.75h3.5c2.5-.02,4.37.39,5.84,1.22,1.47.84,2.48,2.07,3.32,3.58l.01.01,5.36,10.81.01.02c.6,1.51.85,2.78.73,3.85-.13,1.09-.64,1.93-1.47,2.54-.81.59-1.91.96-3.21,1.18-1.3.22-2.84.3-4.57.3h0l-9.5,0v-3.75h-3.5v3.75H3v-1h6.25V8.75H3v-1zm13.75,6h6.06l5,10H16.75v-10zM17.75,14.75v8h8.44l-4-8H17.75zm-.5-6c2.39-.02,4.07.37,5.34,1.09,1.26.71,2.15,1.78,2.93,3.19l5.33,10.75c.56,1.43.75,2.52.65,3.35-.09.81-.45,1.4-1.07,1.84-.63.46-1.56.79-2.79,1-1.22.21-2.7.29-4.41.28h0l-8.5,0V8.75h2.5v0l0,0z"/></svg>