<svg width="24" height="24" xmlns="http://www.w3.org/2000/svg"><path fill-rule="evenodd" clip-rule="evenodd" d="m6,4.5C6,3.67214,6.67214,3,7.5,3S9,3.67214,9,4.5,8.32786,6,7.5,6,6,5.32786,6,4.5zM7.5,2C6.11986,2,5,3.11986,5,4.5S6.11986,7,7.5,7,10,5.88014,10,4.5,8.88014,2,7.5,2zM4.02822,13.4242C3.43119,13.2262,3,12.6631,3,12H2c0,1.2151.86803,2.2284,2.01749,2.4534C4.17059,16.431,5.3173,18.1579,7,19.3346V22h3v-1.311c.7904.201,1.6293.311,2.5.311.517,0,1.0167-.0457,1.5-.1216V22h3v-2.0793c1.3549-.6982,2.4765-1.7,3.1817-2.9207H22v-5h-1.3602c-.3382-.9366-.9078-1.7809-1.6398-2.49822V6h-.5c-1.3346,0-2.4136,1.04748-2.4872,2.35795l.9984.0561c.0346-.6154.4365-1.13055.9888-1.32785v2.84829l.1603.14841c.7911.7323,1.3603,1.6045,1.6365,2.5565l.1047.3606H21v3h-1.4203l-.1395.2715c-.6168,1.2009-1.7304,2.2135-3.1539,2.8865L16,19.2933V21h-1v-1.3381l-.6029.1268C13.7808,19.9183,13.151,20,12.5,20c-1.0079,0-1.9662-.1632-2.84373-.452L9,19.3321V21H8v-2.2019l-.22695-.148C6.056,17.5308,5,15.8484,5,14c0-2.163,1.45183-4.10678,3.71286-5.17057l-.42572-.90486c-2.33219,1.09728-4.0232,3.10633-4.25892,5.49963zM12.5,7c-.8279,0-1.5.67214-1.5,1.5s.6721,1.5,1.5,1.5S14,9.32786,14,8.5,13.3279,7,12.5,7zM10,8.5C10,7.11986,11.1199,6,12.5,6S15,7.11986,15,8.5c0,.64196-.2423,1.22761-.6404,1.6704.4464.0829.8795.1945,1.2967.3317l-.3126.95c-.8775-.2888-1.8358-.452-2.8437-.452s-1.9662.1632-2.84373.452l-.31254-.95c.41719-.1372.85027-.2488,1.29667-.3317C10.2423,9.72761,10,9.14196,10,8.5zm8,4.5h-1v-1h1v1z"/></svg>