<svg width="24" height="24" xmlns="http://www.w3.org/2000/svg"><path fill-rule="evenodd" clip-rule="evenodd" d="m9.35,3.65-.35-.35L1.65,10.65l.71.71.65-.65v8.29h4.99v-4h2v4H15v-3h1c.42,0,.64.1.76.22.12.12.23.35.24.78v1l0,.03c0,.25,0,.7.16,1.1.09.22.23.45.47.61.24.17.53.25.87.25.33,0,.63-.08.87-.25.24-.17.39-.39.47-.61.16-.4.16-.86.16-1.12L20,18v-3.05c1.14-.23,2-1.24,2-2.45v-1.5h-1V9h-1v2h-1V9h-1v2h-1v1.5c0,1.21.86,2.22,2,2.45v3.05c0,.29,0,.56-.09.76-.04.09-.08.14-.12.17-.04.03-.13.07-.29.07-.17,0-.25-.04-.29-.07-.04-.03-.09-.08-.12-.17-.08-.21-.09-.48-.09-.76v-1h0l0-.01c-.01-.57-.16-1.09-.53-1.47-.37-.38-.89-.52-1.47-.52h-1v-4.29l.65.65.71-.71L9.35,3.65zM14,9.71l-5-5-5,5v8.29h2.99v-4H10.99v4H14V9.71zm4,2.79v-.5h3v.5c0,.83-.67,1.5-1.5,1.5-.83,0-1.5-.67-1.5-1.5z"/></svg>