<svg width="36" height="36" xmlns="http://www.w3.org/2000/svg"><path fill-rule="evenodd" clip-rule="evenodd" d="m31.5,8.75H4.5v-1H31.5v1zm0,19.5H4.5v-1H31.5v1zM10.44,16.74l4.7-4.75H11.82l-4.7,4.97v-4.97h-2.62v12h2.62v-3.87l1.51-1.51,3.65,5.39h3.31l-5.15-7.26zm3.58,1.41h2.31v-2.31h1.33v2.31h2.32v1.32h-2.32v2.31h-1.33v-2.31h-2.31v-1.32zm9.52-.8v-3.3h2.61c.77,0,1.33.13,1.68.39.36.26.53.68.53,1.25,0,.59-.21,1.02-.62,1.31-.33.23-.9.35-1.7.35h-2.5zm3.19-5.36h-5.81v12h2.62v-4.72h2.36c.84,0,1.43.16,1.78.49.35.32.56.91.62,1.76.06.95.12,1.56.16,1.82.04.26.11.48.2.65h2.73l-.11-.14c-.16-.2-.28-.72-.35-1.55-.1-1.13-.19-1.86-.26-2.17-.07-.32-.19-.62-.39-.91-.3-.46-.72-.76-1.25-.89.6-.22,1.07-.6,1.41-1.12.34-.52.51-1.13.51-1.83,0-.62-.14-1.17-.4-1.67-.27-.49-.66-.89-1.17-1.18-.61-.36-1.49-.54-2.64-.54z"/></svg>