<svg width="36" height="36" xmlns="http://www.w3.org/2000/svg"><path fill-rule="evenodd" clip-rule="evenodd" d="m3.25,18C3.25,9.8538,9.8538,3.25,18,3.25S32.75,9.8538,32.75,18,26.1462,32.75,18,32.75c-6.0205,0-11.44458-3.6146-13.75-8.8048V28.5h-1v-5.75H9v1H5.25979c2.19584,4.7129,7.19311,8,12.74021,8,7.5939,0,13.75-6.1561,13.75-13.75S25.5939,4.25,18,4.25,4.25,10.4061,4.25,18h-1zM20.2502,7.75c-1.6479,0-2.9313,1.33782-3.3504,3.0203C15.052,10.986,13.75,12.8934,13.75,15c0,1.1921.417,2.3205,1.1139,3.1146-2.4622,1.2986-4.1139,4.5068-4.1139,8.1352v.5h13v-.5c0-.8638-.0936-1.7039-.2695-2.5h3.2696v-.5c0-3.6283-1.6517-6.8366-4.1138-8.1352.6969-.7941,1.1139-1.9225,1.1139-3.1146,0-2.23737-1.4687-4.25-3.5-4.25zm2.959,14.9998h2.5296c-.1521-3.3682-1.8299-6.0475-3.9454-6.9274-.362.2152-.7632.3573-1.194.4075-.1796.7191-.513,1.3716-.9633,1.8847,1.6242.8566,2.8957,2.5442,3.5731,4.6352zm-4.416-3.9274c-.458.2723-.9789.4276-1.5432.4276s-1.0852-.1553-1.5432-.4276c-2.1156.8799-3.7934,3.5592-3.9456,6.9274h10.9776c-.1522-3.3682-1.83-6.0475-3.9456-6.9274zM20.75,15c0-1.9828-1.1536-3.7892-2.83-4.1745.3785-1.27025,1.3308-2.0755,2.3302-2.0755,1.2823,0,2.5,1.3452,2.5,3.25,0,1.656-.9204,2.8891-2.0035,3.1829.0022-.0608.0033-.1217.0033-.1829zm-3.5-3.25c-1.2824,0-2.5,1.3452-2.5,3.25s1.2176,3.25,2.5,3.25,2.5-1.3452,2.5-3.25-1.2176-3.25-2.5-3.25z"/></svg>