<svg width="48" height="48" fill="none" xmlns="http://www.w3.org/2000/svg"><path fill-rule="evenodd" clip-rule="evenodd" d="m31.002,24c0,3.908-3.094,7-7.002,7s-7-3.092-7-7,3.092-6.991,7-6.991,7.002,3.083,7.002,6.991z" stroke="#000"/><path fill-rule="evenodd" clip-rule="evenodd" d="m41.0185,14c0,1.687-1.331,3-3.019,3-1.687,0-3-1.313-3-3s1.313-3.01,3-3.01c1.688,0,3.019,1.323,3.019,3.01z" stroke="#000"/><path fill-rule="evenodd" clip-rule="evenodd" d="m43,31c0,2.271-1.729,4-4,4s-4-1.729-4-4,1.729-4,4-4,4,1.729,4,4z" stroke="#000"/><path fill-rule="evenodd" clip-rule="evenodd" d="m15.0118,36.9961c0,2.259-1.753,4.004-4.012,4.004-2.25804,0-4.00004-1.745-4.00004-4.004,0-2.258,1.742-3.996,4.00004-3.996,2.259,0,4.012,1.738,4.012,3.996z" stroke="#000"/><path fill-rule="evenodd" clip-rule="evenodd" d="m15,8c0,1.7-1.3,3-3,3S9,9.7,9,8s1.3-3,3-3,3,1.3,3,3z" stroke="#000"/><path d="m13.9473,10.3032,5.87,8.063m15.712-2.6387-5.885,4.099m5.7191,9.4577-5.005-2.317M13.8262,34.126l5.249-5.12" stroke="#000"/></svg>