<svg width="36" height="36" xmlns="http://www.w3.org/2000/svg"><path fill-rule="evenodd" clip-rule="evenodd" d="m15.19,7.08c.93-.46,1.97-.75,3.06-.82V3h1v3.27c1.09.07,2.13.35,3.06.82l1.63-2.83.87.5-1.63,2.83c.89.59,1.65,1.35,2.24,2.24l2.83-1.63.5.87-2.83,1.63c.46.93.75,1.97.82,3.06h3.27v1h-3.27c-.07,1.09-.35,2.13-.82,3.06l2.83,1.63-.5.87-2.83-1.63c-.59.89-1.35,1.65-2.24,2.24l1.63,2.83-.87.5L22.31,21.42c-.93.46-1.97.75-3.06.82V25.5h-1v-3.27c-1.09-.07-2.13-.35-3.06-.82l-1.63,2.83-.87-.5,1.63-2.83c-.89-.59-1.65-1.35-2.24-2.24L9.26,20.31l-.5-.87,2.83-1.63c-.46-.93-.75-1.97-.82-3.06H7.5v-1h3.27c.07-1.09.35-2.13.82-3.06L8.76,9.06l.5-.87,2.83,1.63c.59-.89,1.35-1.65,2.24-2.24l-1.63-2.83.87-.5,1.63,2.83zm3.56.17c3.7,0,6.73,2.87,6.98,6.5h-3.52c-.24-1.7-1.7-3-3.46-3-.46,0-.9.09-1.3.25L15.69,7.95c.92-.45,1.96-.7,3.06-.7zm-2.17,4.25-1.76-3.05c-1.86,1.26-3.08,3.39-3.08,5.8s1.22,4.54,3.08,5.8l1.76-3.05c-.81-.64-1.33-1.63-1.33-2.75s.52-2.11,1.33-2.75zm.87,6L15.69,20.55c.92.45,1.96.7,3.06.7,3.7,0,6.73-2.87,6.98-6.5h-3.52c-.24,1.7-1.7,3-3.46,3-.46,0-.9-.09-1.3-.25zM3.14,24.3c.04,0,.07-.01.11-.02V21h1v3.27c1.1.07,2.13.35,3.06.81l1.63-2.82.87.5-1.63,2.82c.89.59,1.65,1.35,2.24,2.24l2.82-1.63.5.87-2.82,1.63c.46.93.75,1.97.81,3.06h3.27v1h-3.29c-.01.04-.01.08-.02.11v0c-.01.07-.02.13-.02.18l-1-.1c.01-.08.02-.14.02-.2H7.21c-.02.13-.05.25-.08.37l-.97-.24c.05-.22.09-.42.09-.63,0-1.41-1.09-2.5-2.5-2.5-.21,0-.41.03-.63.09l-.24-.97c.27-.07.56-.12.87-.12,1.79,0,3.23,1.28,3.47,3h3.52c-.25-3.65-3.26-6.5-6.98-6.5-.14,0-.25.02-.39.03-.09.01-.19.03-.31.04l-.1-1c.05-.01.11-.01.18-.02h0zm23.92-2.05,1.63,2.82c.93-.46,1.97-.75,3.06-.81V21h1v3.27c.1.01.19.01.29.02.02,0,.04.01.05.01l.01,0,0,0-.01,0c-.01,0-.03-.01-.05-.01l-.09,1-.02,0-.01,0c-.22-.02-.45-.03-.67-.03-1.1,0-2.14.25-3.06.7l1.76,3.05c.4-.16.84-.24,1.3-.24.32,0,.61.05.87.12l-.24.97c-.22-.05-.42-.09-.63-.09-1.41,0-2.5,1.09-2.5,2.5,0,.21.03.41.09.63l-.97.24c-.07-.27-.12-.56-.12-.87,0-1.13.52-2.13,1.33-2.76l-1.76-3.04c-1.86,1.25-3.07,3.38-3.07,5.81,0,.14.02.25.03.39.01.09.03.19.04.31l-1,.1c-.01-.05-.01-.11-.02-.18v0c0-.04-.01-.07-.02-.11h-3.29v-1h3.27c.07-1.1.35-2.13.81-3.06l-2.82-1.63.5-.87,2.82,1.63c.59-.89,1.35-1.65,2.24-2.24l-1.63-2.82.87-.5zM16.25,14.25c0-1.38,1.12-2.5,2.5-2.5s2.5,1.12,2.5,2.5-1.12,2.5-2.5,2.5-2.5-1.12-2.5-2.5z"/></svg>