<svg width="48" height="48" xmlns="http://www.w3.org/2000/svg"><path fill-rule="evenodd" clip-rule="evenodd" d="m18,8.49994v-.60883l-.5972.11837-10.00001,1.982L7,10.0713v23.9286H5v7h1v-2h15v2h1v-7h-2v-16h3v23h1v-3h12v3h1v-2h5v2h1v-21h-2v-3h-4v-5h-1.6396l-.8861-2.65807-.1139-.34189h-8.7208l-.1139.34189-.8861,2.65807H23v5h-4v17h-1V8.49994zM17,33.9999V9.10877L8,10.8926v23.1073h1v-.999h1v.999h2v-.999h1v.999h2.0005v-.999h1v.999H17zm4,4v-3H6v3h15zm-12-25v2h1v-2H9zm28,5v2h3v-2h-3zm5,3v17h-5v-17h5zm-16.3063-9h8.6126l-.6667-1.99996h-7.2792l-.6667,1.99996zm-1.6937,25h12v-24H24v24zm-12-22v-2h1v2h-1zm3.0005-2v2h1v-2h-1zM9,19.0004v-2h1v2H9zm3-2v2h1v-2h-1zm3.0005,2v-2h1v2h-1zm-6.0005,2v2h1v-2H9zm3,2v-2h1v2h-1zm3.0005-2v2h1v-2h-1zM9,27.0009v-2h1v2H9zm3-2v2h1v-2h-1zm3.0005,2v-2h1v2h-1zm-6.0005,2v2h1v-2H9zm3,2v-2h1v2h-1zm3.0005-2v2h1v-2h-1zm10.0005-13.001v-2h1v2h-1zm3-2v2h1v-2h-1zm3,2v-2h1v2h-1zm-5,2.0005h-1v2h1v-2zm2,0h1v2h-1v-2zm4,0h-1v2h1v-2zm-7,4h1v2h-1v-2zM29.001,22.0004h-1v2h1v-2zm2,0h1v2h-1v-2zm-5,4.0005h-1v2h1v-2zm2,0h1v2h-1v-2zm4,0h-1v2h1v-2zm-7,4h1v2h-1v-2zM29.001,30.0009h-1v2h1v-2zm2,0h1v2h-1v-2zm3.001-16.001v2h1v-2h-1zm0,4.0005h1v2h-1v-2zm1,4h-1v2h1v-2zm-1,4.0005h1v2h-1v-2zM35.002,30.0009h-1v2h1v-2zm-10.001,6v-2h1v2h-1zM28.001,34.0009v2h1v-2h-1zm3,2v-2h1v2h-1zm3.001-2v2h1v-2h-1zm5-12.0005h-1v2h1v-2zm-1,4.0005h1v2h-1v-2zM39.002,30.0009h-1v2h1v-2zm1-8.0005h1v2h-1v-2zm1,4.0005h-1v2h1v-2zM40.002,30.0009h1v2h-1v-2zm-2,4v2h1v-2h-1zm2,2v-2h1v2h-1z"/></svg>