<svg width="24" height="24" xmlns="http://www.w3.org/2000/svg"><path fill-rule="evenodd" clip-rule="evenodd" d="m12,2.99969c-4.97086,0-9,4.02915-9,9.00001,0,4.9709,4.02914,9,9,9,4.9709,0,9-4.0291,9-9,0-4.97086-4.0291-9.00001-9-9.00001zM2,11.9997C2,6.47655,6.47686,1.99969,12,1.99969c5.5231,0,10,4.47686,10,10.00001,0,5.5231-4.4769,10-10,10-5.52314,0-10-4.4769-10-10zm10,.7071-4.64645,4.6464-.7071-.7071,4.64645-4.6464L6.64645,7.35325l.7071-.70711L12,11.2926l4.6464-4.64646.7072.70711-4.6465,4.64645,4.6465,4.6464-.7072.7071L12,12.7068z"/></svg>