<svg width="36" height="36" xmlns="http://www.w3.org/2000/svg"><path fill-rule="evenodd" clip-rule="evenodd" d="m4.15137,11.6508,5.25-5.25003.35355-.35356.35358.35356,5.25,5.25003-.7071.7071-4.3965-4.39647V24.7543c0,2.2094,1.7907,4,4,4,2.208,0,4-1.7907,4-4V11.2528c0-2.76002,2.2383-4.99998,5-4.99998,2.7618,0,5,2.23996,5,4.99998v16.7937l4.3957-4.3957.7071.7071-5.6035,5.6035-.3536-.3535-5.25-5.25.7071-.7071,4.3972,4.3971V11.2528c0-2.20795-1.7907-3.99998-4-3.99998-2.2092,0-4,1.79203-4,3.99998v13.5015c0,2.7618-2.2399,5-5,5-2.7616,0-4.99998-2.2383-4.99998-5V7.96143L4.85847,12.3579l-.7071-.7071z"/></svg>