<svg width="24" height="24" xmlns="http://www.w3.org/2000/svg"><path fill-rule="evenodd" clip-rule="evenodd" d="m5,6h17v9h-2v3H2V8h3V6zm16,8h-1V8H6V7h15v7zM3,9v8h16V9H3zm8.89,4.99c0,.37-.23.58-.68.63v-1.27c.23.07.37.12.42.15.18.1.27.27.27.49zm-1.69-2.16c0-.34.21-.53.62-.56v1.13c-.23-.06-.39-.13-.48-.21s-.14-.2-.14-.35zM11.2,12.48v-1.21c.37.05.56.27.57.66h.88c-.01-.42-.14-.74-.38-.97-.25-.23-.6-.36-1.06-.38v-.58h-.39v.58c-.3.02-.54.07-.72.15-.25.11-.44.27-.58.47-.14.2-.2.44-.2.7,0,.24.05.44.15.6.1.17.25.31.46.43.16.09.46.2.89.32v1.37c-.47-.05-.7-.33-.69-.85h-.92c0,.52.19.93.54,1.21.26.21.61.32,1.07.35v.66h.39v-.66c.29-.01.52-.06.71-.14.19-.08.36-.2.52-.36.25-.26.37-.58.37-.96,0-.38-.12-.67-.36-.89-.19-.18-.52-.32-.98-.44-.14-.03-.23-.06-.26-.07z"/></svg>