<svg width="48" height="48" xmlns="http://www.w3.org/2000/svg"><path fill-rule="evenodd" clip-rule="evenodd" d="m23.4288,5.6019c-.2999-1.13912-1.4941-1.87991-2.6571-1.50431C12.88,6.64626,6.64635,12.8994,4.09779,20.8268c-.31728.9869.15957,2.0022,1.00545,2.4733-.28946.2747-.49616.6422-.56299,1.0765-.45688,2.9686-.26461,6,.54406,8.881.23237.8278.97472,1.3522,1.77526,1.3964.62633,3.0341,2.1205,5.5475,3.77833,7.1965.8679.8633,1.7963,1.5051,2.6879,1.8528.8857.3454,1.794.4205,2.5563.0443.7748-.3824,1.3053-1.124,1.6527-2.0008.3492-.8811.5359-1.9515.5904-3.0854.0999-2.0752-.2391-4.446-.9285-6.4278.6931-.1728,1.1979-.7103,1.3967-1.3609.2487-.8138.5694-1.5905.9566-2.3196.2464-.4641.2889-.9732.1667-1.4331l1.4102.3616c.8138.2087,1.6458-.096,2.1637-.7307,1.0475-1.2837,2.2058-2.4674,3.4776-3.5161.6368-.5251.943-1.3682.7261-2.1921l-.1104-.4194c.4582.1179.9639.0702,1.4245-.1833.7204-.3966,1.4887-.7266,2.2944-.9845.6104-.1954,1.1144-.6636,1.3077-1.2994,1.9753.6657,4.3189.972,6.3638.8411,1.1174-.0715,2.1703-.2749,3.0352-.639.8616-.3627,1.5849-.9065,1.9536-1.6863.3618-.7651.2837-1.6715-.0613-2.5559-.3473-.8901-.9844-1.8147-1.841-2.6771-1.631-1.64204-4.1113-3.11306-7.1093-3.71899-.0103-.8406-.5446-1.63849-1.4092-1.87528-2.8714-.78646-5.8866-.9509-8.8331-.46236-.4002.06635-.741.25224-1.0035.51178l-.0769-.29215zm15.2817,12.3974c-1.9507.1248-4.2052-.1777-6.0707-.8216l1.9435-8.47154c2.7868.56969,5.0791,1.93844,6.568,3.43754.786.7913,1.3333,1.604,1.6189,2.3358.2878.7376.2909,1.3378.0889,1.7649-.2252.4764-.7043.8834-1.4376,1.1921-.7299.3073-1.6644.4958-2.711.5628zM6.71576,23.7863l.00002-.0001,11.38462,2.9193c.5757.1718.8573.8307.5664,1.3785-.4179.7869-.7629,1.623-1.0298,2.4965-.108.3536-.3684.6067-.6879.6842l-9.74903,2.3649c-.50771.1232-1.0208-.1714-1.15297-.6423-.77059-2.7453-.9534-5.6327-.51849-8.4586.08074-.5246.63321-.8844,1.18715-.7424zm11.59584,1.9403-.0001.0007L5.8602,22.5344c-.62898-.1612-.99887-.8153-.8104-1.4015C7.50031,13.5105,13.495,7.49851,21.079,5.04919c.5708-.18432,1.2163.1751,1.3828.80733l.5144,1.95383.0053.02053.0001-.00003L25.981,19.2227h-.0002l.0068.0252.0001.0001.5395,2.0493c.1115.4233-.0403.8733-.3952,1.166-1.3267,1.094-2.5308,2.3253-3.6162,3.6554-.2863.3509-.7263.5005-1.1405.3942l-3.0102-.7719c-.0177-.005-.0355-.0098-.0535-.0144zM11.3431,41.1415c-1.51228-1.5042-2.90199-3.8239-3.49391-6.6404L16.22,32.4706c.667,1.873,1.0019,4.1579.9064,6.1427-.0513,1.0648-.2253,2.0184-.5212,2.7651-.2977.7511-.6968,1.241-1.1656,1.4724-.4187.2066-1.0126.2086-1.7505-.0791-.7319-.2855-1.5482-.8367-2.346-1.6302zm16.9831-21.5776c-.5397.2971-1.2049.0188-1.3735-.5781L23.9448,7.56165v-.00012c-.1387-.55957.2187-1.1083.7279-1.19273,2.8023-.46462,5.6715-.30848,8.4055.44031.4642.12714.7674.64034.6482,1.15979l-2.256,9.8338c-.0747.3258-.3252.5892-.6725.7004-.8657.2772-1.6935.6325-2.4717,1.0608zM30.194,9.41093c-.7727-.1094-1.5522-.16488-2.3314-.16488v-1c1.0129,0,2.0255.08837,3.0241.26183l.5197.09028-.1179.51413-.2477,1.07971-.9747-.22352.1279-.55755zM8.60567,30.0592c-.15857-1.0655-.21673-2.1455-.17269-3.2171l-.99915-.0411c-.05432,1.3214.03812,2.6539.27408,3.96l.09433.5222.51562-.1252,1.21973-.296-.23582-.9717-.6961.1689zM20.3141,7.53576c-.8587.34349-2.259,1.00601-3.7002,1.88773-1.4363.87861-2.9475,1.99561-3.9982,3.25641l.7682.6402c.9493-1.1392,2.3547-2.1889,3.7518-3.0436,1.3921-.85159,2.7418-1.48908,3.5498-1.81226l-.3714-.92848z"/></svg>