<svg width="36" height="36" xmlns="http://www.w3.org/2000/svg"><path fill-rule="evenodd" clip-rule="evenodd" d="m8.25021,9.2503h-.5007l.00999,7.1573.14606.1462L22.1466,30.8023l.3535.3537.3536-.3536,6.45-6.4485.3539-.3538-.3541-.3536L15.0355,9.39652l-.1464-.14622H8.25021zm.50871,6.7427-.00801-5.7427h5.72439l13.7675,13.7502-5.7425,5.7411L8.75892,15.993zm2.99128-2.4935c0-.1378.1122-.25.25-.25.1379,0,.25.1122.25.25,0,.1379-.1121.25-.25.25-.1378,0-.25-.1121-.25-.25zM12.0002,12.2495c-.6901,0-1.25.5599-1.25,1.25,0,.6902.5599,1.25,1.25,1.25.6902,0,1.25-.5598,1.25-1.25,0-.6901-.5598-1.25-1.25-1.25z"/></svg>