<svg width="24" height="24" xmlns="http://www.w3.org/2000/svg"><path fill-rule="evenodd" clip-rule="evenodd" d="m9.46994,6.57076.58646-1.61275L8.69546,6.00336c-1.83878,1.4124-2.666,3.20672-2.71399,4.99094-.0476,1.7698.67196,3.4891,1.84912,4.78C9.009,17.0665,10.6681,17.9532,12.525,18.023c1.8668.0701,3.8728-.6876,5.7311-2.572l1.4808-1.5017-1.9974.6771c-1.0365.3513-2.0287.4274-2.9472.2907.7491-.7599,1.2072-1.8253,1.2072-2.9171,0-2.17607-1.8227-4.00002-4-4.00002-1.0794,0-2.04851.43667-2.76008,1.11044-.12483-.87456-.0578-1.74679.23052-2.53966zm.05641,3.72804c.30844.9049.81415,1.7736,1.48285,2.5166.7088.7876,1.5888,1.4201,2.5908,1.7937.8353-.5451,1.3995-1.5625,1.3995-2.6091,0-1.624-1.3752-3.00002-3-3.00002-1.0282,0-1.9343.53397-2.47315,1.29882zm.73955,3.1856c1.4122,1.569,3.4584,2.6245,5.8067,2.4853-1.2102.7947-2.4103,1.0953-3.51,1.054-1.5556-.0584-2.97152-.803-3.99311-1.9232-1.02284-1.1217-1.62827-2.5961-1.58838-4.0794.02876-1.06933.39313-2.16478,1.21083-3.15909-.12987,1.98961.68259,4.07639,2.07396,5.62239z"/></svg>