<svg width="24" height="24" xmlns="http://www.w3.org/2000/svg"><path fill-rule="evenodd" clip-rule="evenodd" d="m13.84,6H14c.28,0,.55.09.75.31.19.21.25.46.25.69v2c0,.27-.09.54-.29.73-.2.19-.46.27-.71.27h-1.96c-.1.2-.21.39-.34.56.55.31,1.03.67,1.47,1.07l-.68.74c-.45-.41-.94-.77-1.51-1.06-.55.43-1.23.69-1.98.69-.75,0-1.43-.26-1.98-.69-2.34,1.17-3.85,3.71-4.01,6.69H11v1H2v-.5c0-3.38,1.6-6.45,4.3-7.94-.13-.18-.24-.36-.34-.56H4c-.27,0-.51-.12-.69-.29C3.14,9.55,3,9.3,3,9V7.01c0-.29.13-.54.31-.71.17-.17.42-.29.69-.29h.07c1.39-5.38,8.61-5.22,9.77,0zm-1.03,0c-1.06-3.86-6.43-4.07-7.7,0h.85c.59-1.18,1.69-2,3.04-2,1.34,0,2.45.82,3.04,2h.78zm-6.31,2c0-1.74,1.17-3,2.5-3,1.33,0,2.5,1.26,2.5,3,0,.36-.05.69-.14,1H9v1h1.87c-.47.62-1.15,1-1.87,1C7.67,11,6.5,9.74,6.5,8zM4,8.99V7.02c0,0,0-.01.01-.01,0,0,.01-.01.01-.01l0,0H5v2h-.98l0,0c0,0-.01,0-.01-.01,0,0,0,0,0-.01zm9,.01h1v-2h-1v2zm-1,4h10v7h-4v1h2v1h-6v-1h2v-1h-4v-7zm1,1v5h8v-5h-8z"/></svg>