<svg width="24" height="24" xmlns="http://www.w3.org/2000/svg"><path fill-rule="evenodd" clip-rule="evenodd" d="m14.4994,2,.3904.48807,1.4498,1.81233H21v12.6667l-.1.1333-3.15,4.2H3V8.63374l.1-.13334,3.15-4.2h4.2094l.6499-.81234.3905-.48805.3904.48805.7094.88671,1.5093-1.88671L14.4994,2zm3.8583,4.82315L17.1396,5.3004h2.3602l-1.1421,1.52275zm-.6197.82621-3.2386-4.04855-1.2595,1.57435,2.5002,3.12524h1.5097l.4882-.65104zm-.7382,1.65104H4v11h12.9998v-11zm1,10.0003L20,16.6337V6.30008l-2.0002,2.66699V19.3007zM14.4594,8.3004l-2.9596-3.69961L8.54007,8.3004h5.91933zm-7.19996,0,2.4-3H6.75l-2.25,3h2.75944zm.74032,4h5.00004v-1H7.99976v1z"/></svg>