<svg width="36" height="36" xmlns="http://www.w3.org/2000/svg"><path fill-rule="evenodd" clip-rule="evenodd" d="m18.0004,3.25c-2.3477,0-4.25,1.90236-4.25,4.25v3.1848H7.78444l-.03317.4644L6.21301,32.6848H29.787l-.0383-.5356-1.5-21-.0331-.4644h-5.9689l.0037-3.18422V7.5c0-2.34764-1.9024-4.25-4.25-4.25zm3.2451,8.4348-.0056,4.8146,1,.0012.0056-4.8158h5.0389l1.4286,20H7.28699l1.42857-20h5.03484V16.5h1v-4.8152h6.4951zm.0012-1L21.2504,7.5v-.00017C21.2503,5.70455,19.7957,4.25,18.0004,4.25c-1.7954,0-3.25,1.45464-3.25,3.25v3.1848h6.4963z"/></svg>