<svg width="36" height="36" xmlns="http://www.w3.org/2000/svg"><path fill-rule="evenodd" clip-rule="evenodd" d="m19.26,7.76V4.5h-1V7.76c-5.7.25-10.24,4.8-10.49,10.49H4.5v1h3.26c.25,5.69,4.8,10.24,10.49,10.49v3.26h1v-3.26c5.69-.26,10.23-4.8,10.48-10.5h3.26v-1h-3.26c-.26-5.69-4.8-10.23-10.48-10.48zM8.75,18.75c0-5.54,4.46-10,10-10s10,4.46,10,10c0,5.54-4.46,10-10,10s-10-4.46-10-10zm4.5,0c0-3.04,2.46-5.5,5.5-5.5s5.5,2.46,5.5,5.5c0,3.04-2.46,5.5-5.5,5.5s-5.5-2.46-5.5-5.5zm5.5-6.5c-3.59,0-6.5,2.91-6.5,6.5,0,3.59,2.91,6.5,6.5,6.5s6.5-2.91,6.5-6.5c0-3.59-2.91-6.5-6.5-6.5z"/></svg>