<svg width="48" height="48" fill="none" xmlns="http://www.w3.org/2000/svg"><path fill-rule="evenodd" clip-rule="evenodd" d="m20,29.4998c0-.828-.672-1.5-1.5-1.5s-1.5.672-1.5,1.5c0,.829.672,1.5,1.5,1.5s1.5-.671,1.5-1.5z" stroke="#000"/><path fill-rule="evenodd" clip-rule="evenodd" d="m30,19.0095c0-.828-.672-1.5-1.5-1.5s-1.5.672-1.5,1.5.672,1.5,1.5,1.5,1.5-.672,1.5-1.5z" stroke="#000"/><path d="m19.5586,28.4421,7.884-8.374" stroke="#000"/><path fill-rule="evenodd" clip-rule="evenodd" d="m26.7383,11.175-2.044,2.638-7.595,2.07-1.492-.807-4.925,3.657,2.228.764-5.85899,6.497-2.179,7.978,4.317-1.097,1.90599-1.113,4.515,4.323,6.369-.717,3.671-3.971,4.346,6.008,3.173-6.736,7.392,1.932-.466-4.042,3.113.079-.319-6.596-2.709-2.069-.88,1.668-3.583-1.081,1.338-3.987-7.499-2.911-2.818-2.487z" stroke="#000"/></svg>