<svg width="24" height="24" xmlns="http://www.w3.org/2000/svg"><path fill-rule="evenodd" clip-rule="evenodd" d="m7,7.01H4v3.98c-.04.76.37,1.45,1,1.79v7.21l14,.02v-7.1c.52-.31.89-.85.97-1.49.02-.14.02-.29,0-.43V7.01h-2.97V4h-1v3.01h-2V4h-1v3.01h-2V4h-1v3.01h-2V4h-1v3.01zm11,6.17c-.09,0-.17,0-.26-.01-1.09-.13-1.88-1.11-1.77-2.2v-.21c-.08-.54-.57-.92-1.12-.86l0,0c-.59.07-.95.52-.89,1.04.02.15.02.31,0,.46-.13,1.1-1.12,1.89-2.23,1.76-1.09-.13-1.88-1.1-1.77-2.19-.02-.54-.46-.97-.97-.97l-.02,0-.02,0c-.03,0-.07,0-.11,0-.53.02-.94.47-.92,1l0,.03,0,.03c-.07.96-.87,1.93-1.94,1.93V14.99h12v-1.81zm0,2.81h-12v1h12v-1zm0,2h-12v.99l12,.02V17.99zM5.78,13c0,0,0,0,0,0l.03-.5-.03.5c0,0,0,0,0,0zM5,8.01v3.01l0,.02c-.03.5.35.93.85.97l0,0c.02,0,.05,0,.09,0l.01,0,.01,0c.44.01.92-.43.97-.98-.03-1.07.8-1.96,1.87-2.01l0,0v0c.06,0,.13,0,.2,0,1.09,0,1.95.93,1.95,1.99l0,.03,0,.03c-.06.55.33,1.06.89,1.12.55.06,1.05-.33,1.12-.89l0,0c.01-.07.01-.15,0-.23l0,0c-.13-1.13.69-2.02,1.77-2.15m0,0c1.1-.13,2.1.66,2.23,1.77l0,.03v.32l0,.03c-.06.55.33,1.06.89,1.12h0c.55.06,1.05-.33,1.12-.89l0,0c.01-.07.01-.15,0-.23l0-.03V8.01h-13.97"/></svg>