<svg width="36" height="36" xmlns="http://www.w3.org/2000/svg"><path fill-rule="evenodd" clip-rule="evenodd" d="m31.8536,31.1465L4.85359,4.14648l-.35355.35356-.35356.35355.35356.35355v3.7929h1.5v-2.2929l4.49926,4.49926v3.7938h1.5v-2.2938l2.2907,2.2907h-.7914v1.4985h-3v1.5h3v-1.4985h1.5015v-.7899L16.5,17.2071V25.5h8.2929l1.5003,1.5003-3.7917.0012v1.5h-1.5v3h1.5v-1.5h1.5V28.497h1.5v3h3v-1.5h-1.5v-2.2884l2.9996,2.9996v.7882h.7882l.3572.3572.7071-.7071zM23.2929,24l-1.5044-1.5044H19.5v-2.2885l-1.5-1.5V24h5.2929zM4.50004,11.9942h3.0015v-1.5h-3.0015v1.5zM15.0001,7.49857h-1.5015v-1.5h1.5015v1.5zm1.5014,0h1.5v-3h-1.5v3zm6-.00289h-3v-1.5015h3V4.49564h3v3h-1.5v-1.5h-1.5v1.50004zM4.50004,25.5h1.5v-3h-1.5v3zm1.5-9.0029h-1.5v-1.5h1.5V13.5h1.5015V15h-1.5015v1.4971zm-1.5,2.9986h1.5V18h1.5015v-1.5h-1.5015v1.4942h-1.5v1.5015zm1.5,1.5043h1.5015v-1.5h-1.5015V21zm25.50146-1.5h-1.5v1.497h-3v1.5h3V21h1.5v-1.5zm-1.5-3h1.5V18h-1.5v1.497h-3v-1.5h3V16.5zm-7.5015-3H24v1.4971h1.5v-1.5H24V10.5h-1.5v3zm9.0015,12h-1.5v-3h1.5v3zM19.503,31.5015h-1.5015v-1.5h1.5015v1.5zm-9.0044.0001h1.5v-3.003h-1.5v3.003zm3.0007-6.0045h1.5l.0015,1.5h1.5v1.5h-3.0015v-1.497h-1.5v-1.5h1.5v-.003zm4.5022,3h3.0015v-1.5h-3.0015v1.5zm-7.5029-6h1.5V21h3.0015v-1.5h-3.0015v1.4971h-1.5v1.5zm1.5,3h-1.5v-1.5h1.5V22.5h3.0015V24h-3.0015v1.4971zm18.0029-12.0007h1.5v-3h-3v1.5h1.5v1.5zM16.5001,31.5015h-3.0015v-1.5h3.0015v1.5zm10.5014-15.0014v-3l-1.5-.003v-1.5h3v3h1.5v1.5l-3,.003zm-4.5074,1.494h1.506v1.506l1.5,1.5v-4.5045h-4.5045l1.4985,1.4985zM19.5,14.997h-.003L18,13.5v-.003h1.5V12H21v3h-1.5v-.003zm-3.0007-2.9977v-.0015h3v-1.5h-4.4985v.0015h-.0015l1.5,1.5zm-6-6.00292v.003l-1.49999-1.5v-.003h4.49999v1.5h-3z"/></svg>