<svg width="36" height="36" xmlns="http://www.w3.org/2000/svg"><path fill-rule="evenodd" clip-rule="evenodd" d="m24.3536,4.14673,5.25,5.25.3536.35355-.3536.35352-5.25,5.25-.7071-.7071,4.3965-4.3964H11.2501c-2.20938,0-4.00002,1.7906-4.00002,4,0,2.2079,1.79075,4,4.00002,4h13.5015c2.76,0,5,2.2382,5,5,0,2.7617-2.24,5-5,5H7.95791l4.39569,4.3957-.7071.7071-5.24998-5.25-.35355-.3536.35355-.3535,5.24998-5.25.7071.7071-4.39715,4.3972H24.7516c2.2079,0,4-1.7908,4-4,0-2.2093-1.7921-4-4-4H11.2501c-2.76178,0-5.00002-2.24-5.00002-5,0-2.7617,2.23835-5.00002,5.00002-5.00002H28.043l-4.3965-4.39644.7071-.70711z"/></svg>