<svg width="36" height="36" xmlns="http://www.w3.org/2000/svg"><path fill-rule="evenodd" clip-rule="evenodd" d="m10.2501,9c0-2.68011,1.7623-4.75,4-4.75s4,2.06989,4,4.75c0,2.6801-1.7623,4.75-4,4.75s-4-2.0699-4-4.75zm4-5.75c-2.9463,0-5,2.68811-5,5.75,0,1.5246.50919,2.9566,1.3842,4.0101-3.8881,3.0825-5.74172,7.4027-5.88332,13.2275l-.01245.5122H15.0008v-1H5.76786c.23096-5.3752,2.02143-9.2517,5.58224-12.0304.7967.6452,1.7843,1.0306,2.9,1.0306,1.0973,0,2.0709-.3729,2.8606-.9991,1.629,1.1931,2.7744,2.5698,3.5618,4.0842l.8873-.4614c-.8382-1.6117-2.0443-3.0705-3.7228-4.3292.8927-1.0566,1.4131-2.5032,1.4131-4.0445,0-3.06189-2.0537-5.75-5-5.75zm6.5,20c0-2.2319,1.7681-4,4-4s4,1.7681,4,4-1.7681,4-4,4-4-1.7681-4-4zm4-5c-2.7841,0-5,2.2159-5,5,0,.266.0202.5269.0593.7811l-4.4163,4.4928-.1434.1459v4.0796h4.0801l.146-.144,4.4788-4.4169c.2587.0405.5244.0615.7955.0615,2.7841,0,5-2.2159,5-5s-2.2159-5-5-5zm-1.9072,9.6303c-1.2412-.5049-2.2254-1.4913-2.7276-2.734l-3.8656,3.9327v2.6704h2.67l3.9232-3.8691zm1.9102-5.6303c-.5712,0-1.003.433-1.003.9985,0,.5669.4331,1.0015,1.003,1.0015.5672,0,.997-.432.997-1.0015,0-.5682-.4285-.9985-.997-.9985zm-2.003.9985c0-1.1205.8822-1.9985,2.003-1.9985,1.1235,0,1.997.8807,1.997,1.9985,0,1.1165-.8722,2.0015-1.997,2.0015-1.1221,0-2.003-.8824-2.003-2.0015z"/></svg>