<svg width="48" height="48" xmlns="http://www.w3.org/2000/svg"><path fill-rule="evenodd" clip-rule="evenodd" d="m6.5,8.99h-.25L2.5,13.99h1.5v1.5c0,1.38,1.12,2.49,2.49,2.5h0c.17,0,.34-.02.51-.05v13.07H5v8h19v-8h-2V17.94c.16.03.33.05.5.05,1.38,0,2.5-1.12,2.5-2.5v-1.5h2l-3.75-5H6.5zM5,13.99H24v1.5c0,.83-.67,1.5-1.5,1.5-.83,0-1.5-.67-1.5-1.5l-1,0c0,.83-.67,1.5-1.5,1.5-.83,0-1.49-.67-1.5-1.5l-1,0c0,.83-.67,1.5-1.5,1.5-.83,0-1.5-.67-1.5-1.5l-1,0c0,.83-.67,1.5-1.5,1.5-.83,0-1.5-.67-1.5-1.5l-1,0c0,.83-.68,1.5-1.5,1.5-.83,0-1.49-.67-1.5-1.5v-1.5zm20-1h0l-2.25-3H6.75L4.5,12.99H25v0zm-4.5,4c.14.19.31.36.5.5v13.5H8V17.49c.19-.14.36-.31.5-.5.46.61,1.18,1,2,1,.82,0,1.55-.39,2-1,.46.6,1.18,1,1.99,1h0c.82,0,1.55-.39,2.01-1,.46.61,1.18,1,1.99,1h0c.82,0,1.55-.39,2-1zM35.5,14.99c-1.38,0-2.5,1.12-2.5,2.5v3.5h-4.97l-1.06,18h17.06l-1.06-18h-4.97L38,17.49v0c0-1.38-1.12-2.5-2.5-2.5zm1.5,7,0,3,1,0,0-3h4.03l.94,16H28.03l.94-16H33v3h1v-3h3zm0-1,0-3.5v0c0-.83-.67-1.5-1.5-1.5-.83,0-1.5.67-1.5,1.5v3.5h3zM6,32.01v6h17v-6H6z"/></svg>