<svg width="24" height="24" xmlns="http://www.w3.org/2000/svg"><path fill-rule="evenodd" clip-rule="evenodd" d="m11.5001,3.98022.1373.03925,7,2,.5022.14346-.1652.49542-1,3-.1139.34185H16.491c-1.2445,1.5138-3.0006,2.5-4.9909,2.5-1.99036,0-3.74642-.9862-4.99097-2.5H5.1397l-.11397-.34185-1-3-.16513-.49542,7.5021-2.14346.1374-.03925zM5.86045,9.00023H17.1397l.7209-2.1627-6.3605-1.81729L5.13955,6.83753l.7209,2.1627zm2.01577.99997c1.00954.9437,2.26508,1.5,3.62388,1.5s2.6143-.5563,3.6238-1.5H7.87622zm2.62388-2.99997c0-.55214.4478-1,1-1,.5521,0,1,.44786,1,1s-.4479,1-1,1c-.5522,0-1-.44786-1-1zm6.9425,8.69937c-.1255.6085-.2894,1.2072-.5206,1.5696l-.0015.0023c-1.9545,3.0259-4.1926,3.7287-5.43,3.7287-1.2365,0-3.47457-.7028-5.42903-3.7287l-.00058-.0009c-.23211-.361-.39607-.9597-.5215-1.5675-.13075-.6335-.23578-1.3652-.31766-2.0533-.08208-.6897-.14184-1.3438-.18107-1.825-.01963-.2408-.03416-.4387-.04379-.5767-.00482-.069-.00842-.1231-.01082-.16l-.00272-.0424-.00069-.0111-.00018-.0029-.00004-.0008-.00002-.0002c0-.0001-.00001-.0002.49908-.0305l.49908-.0303v.0001l.00004.0006.00014.0024.00063.01.00257.0402c.00231.0355.0058.0879.0105.1552.0094.1347.02364.3287.04291.5651.03859.4733.0972,1.1144.17737,1.7882.08037.6753.18147,1.3754.30403,1.9693.12781.6193.26426,1.0434.38311,1.2285,1.79143,2.7732,3.72914,3.2707,4.58864,3.2707.8604,0,2.7978-.4975,4.5891-3.2699.1196-.1882.256-.6142.3836-1.2327.1226-.5943.2237-1.2942.304-1.9691.0802-.6732.1388-1.3136.1774-1.7862.0193-.2361.0335-.4298.0429-.5643.0047-.0672.0082-.1196.0105-.155l.0026-.0401.0006-.01.0002-.0024v-.0006l.4991.0303c.4991.0304.4991.0304.499.0305v.001l-.0002.003-.0007.011-.0027.0423c-.0024.0369-.006.0909-.0108.1598-.0097.1378-.0242.3354-.0438.5759-.0392.4805-.099,1.1338-.1811,1.8231-.0819.6876-.1869,1.4189-.3176,2.0528zm-7.94272-1.4999c.11122,0,.19999-.0899.19999-.2s-.08985-.2-.19999-.2c-.11015,0-.2.0899-.2.2s.08877.2.2.2zm-.80001-.2c0-.44.35678-.8.80001-.8.44322,0,.80002.36.80002.8,0,.4422-.35788.8-.80002.8-.44215,0-.80001-.3578-.80001-.8zm4.80003.2c.1112,0,.2-.0899.2-.2s-.0899-.2-.2-.2c-.1102,0-.2.0899-.2.2s.0888.2.2.2zm-.8-.2c0-.44.3568-.8.8-.8s.8.36.8.8c0,.4422-.3579.8-.8.8-.4422,0-.8-.3578-.8-.8zm-1.2,2.9998c.9763,0,1.7749-.3456,2.1855-.7881l.733.6802c-.6454.6955-1.7389,1.1079-2.9185,1.1079-1.1115,0-2.14008-.3656-2.79504-.9832l.68603-.7276c.43104.4065,1.19451.7108,2.10901.7108z"/></svg>