<svg width="36" height="36" xmlns="http://www.w3.org/2000/svg"><path fill-rule="evenodd" clip-rule="evenodd" d="m26.44,4.89-.52,1.04c-.97,1.93-.53,4.32.91,5.93,1.41,1.58,3.79,2.42,6.72,1.18l1.17-.5-.52,1.16c-.81,1.81-2.38,2.97-3.96,3.6-1.19.48-2.45.67-3.46.59.02.23.03.45.01.68-.06.91-.44,1.83-1.16,2.53-.73.7-1.78,1.15-3.14,1.15v-1c1.13,0,1.92-.36,2.44-.87.53-.51.81-1.19.86-1.88.05-.69-.14-1.35-.52-1.83-.37-.46-.93-.76-1.71-.73l-.7.03.2-.67c.38-1.27.23-2.34-.19-3.15-.43-.82-1.16-1.42-2.01-1.73-1.69-.61-3.8-.06-4.81,2.23l-.27.6-.51-.42c-1.63-1.33-4.28-.07-3.99,2.4l.07.56h-.56c-.62,0-1.12.3-1.47.8-.36.5-.56,1.2-.53,1.9.03.7.29,1.38.78,1.89.49.5,1.26.86,2.41.86v1c-1.37,0-2.42-.44-3.12-1.16-.7-.71-1.03-1.64-1.07-2.55-.04-.91.21-1.82.71-2.53.42-.58,1.01-1.02,1.76-1.17.01-2.8,2.94-4.36,5.13-3.13,1.33-2.37,3.8-2.95,5.8-2.23.06.02.12.04.17.07.44-1.27.95-2.2,1.56-2.87.7-.78,1.51-1.19,2.39-1.46l1.11-.33zm3.43,11.49c-1.26.5-2.52.63-3.35.48-.12-.29-.27-.55-.47-.8-.45-.56-1.09-.96-1.88-1.08.25-1.25.07-2.37-.42-3.29-.36-.69-.88-1.25-1.49-1.66.42-1.28.89-2.11,1.41-2.68.28-.31.59-.55.92-.74-.55,2.07.07,4.33,1.49,5.92,1.47,1.65,3.79,2.57,6.53,1.88-.72.91-1.71,1.56-2.74,1.97zM17.25,19.75h-.21l-5.5,5.5h3.96l-4.34,5.79,9.25-7.54h-3.45l3.75-3.75H17.25zm-.35,5.3.41-.55h.29l-.74.6.04-.05zm-2.94-.8h.84l3.5-3.5h-.84l-3.5,3.5z"/></svg>