<svg width="24" height="24" xmlns="http://www.w3.org/2000/svg"><path fill-rule="evenodd" clip-rule="evenodd" d="m5,9.01C5,5.14,8.13,2,12,2c3.87,0,7,3.14,7,7.01v0c-.01,1.17-.38,2.21-.93,3.18l0,.01-6.04,9.75-6.04-9.75h0c-.57-.95-.93-1.97-.98-3.18L5,9.02v-.01zm1-.01c.04,1.01.34,1.87.83,2.69l5.19,8.36,5.18-8.36c.49-.86.79-1.73.8-2.69C18,5.69,15.31,3,12,3,8.69,3,6.01,5.68,6,9zM12,9.41c.02,0,.03-.01.03-.03,0-.02-.01-.03-.03-.03s-.03.01-.03.03c0,.02.01.03.03.03zm-.97-.03c0-.53.43-.97.97-.97.53,0,.97.43.97.97,0,.53-.43.97-.97.97-.53,0-.97-.43-.97-.97zM11,6h-.31l-.5,1H8v5h8V7h-2.19l-.5-1H11zm-.05,1.72L11.31,7h1.38l.5,1H15v3H9V8h1.81l.14-.28z"/></svg>