<svg width="24" height="24" xmlns="http://www.w3.org/2000/svg"><path fill-rule="evenodd" clip-rule="evenodd" d="m1.99,9.5c0-3.05,2.45-5.5,5.51-5.5,1.59,0,3,.67,4,1.74.99-1.07,2.41-1.74,4-1.74,2.38,0,4.4,1.49,5.17,3.61.21.59.33,1.23.33,1.89,0,1-.26,1.93-.72,2.74-.17.29-.62.87-.79,1.09l-.02.02-7.97,7.97-7.97-7.97h0c-.35-.36-.63-.77-.87-1.2M7.5,5c-2.5,0-4.51,2-4.51,4.5,0,.79.2,1.52.54,2.16l0,0c.2.37.43.7.71.98l7.25,7.25,7.23-7.23c.19-.23.57-.73.68-.93l0,0c.37-.66.59-1.42.59-2.24,0-.55-.1-1.07-.27-1.55l0,0c-.63-1.73-2.27-2.95-4.23-2.95-1.49,0-2.78.72-3.6,1.82l-.4.54-.4-.54C10.28,5.72,8.98,5,7.5,5zm-5.51,4.5c0,.95.24,1.85.67,2.64L1.99,9.5z"/></svg>