<svg width="24" height="24" xmlns="http://www.w3.org/2000/svg"><path fill-rule="evenodd" clip-rule="evenodd" d="m14.2071,5.00049v-3h1v3h-1zm-3.5-2.2076.3536.35356,9,8.99995.3528.3528-.3521.3536-.3543-.3528.3543.3528v.0001l-.0002.0001-.0115.0115-.037.0372-.1643.1645c-.1542.1544-.4044.4045-.788.7876l-.1711.1708-.2401-.028c-2.8706-.3347-4.3004-.2984-5.1748-.0472-.735.2112-1.0894.5702-1.6734,1.1619h-.0001c-.0758.0768-.1555.1575-.2404.2424l-.3535.3533-.5391-.5391-.0057-.0056-.0056-.0057-.6514-.6514-.00591-.0059-.00593-.0059-.00592-.006-.01186-.0118-.00593-.006-.00593-.0059-.00594-.0059-.00593-.006-.00594-.0059-.00593-.0059-.00594-.006-.01188-.0118-.00595-.006-.00594-.0059-.00594-.006-.00595-.0059-.00595-.006-.00594-.0059-.00595-.006-.00596-.0059-.00595-.006-.00595-.0059-.00595-.006-.00596-.0059-.00596-.006-.00595-.0059-.01192-.012-.00596-.0059-.00596-.006-.00597-.0059-.01192-.012-.00597-.0059-.00597-.006-.00596-.006-.00597-.0059-.01791-.018-.00597-.0059-.00598-.006-.00597-.006-.00597-.0059-.01196-.012-.00597-.006-.00598-.0059-.0299-.03-.00598-.0059-.00599-.006-.01196-.012-.00599-.006-.00598-.006-.00599-.0059-.00599-.006-.00598-.006-.03594-.036-.00599-.0059-.006-.006-.01797-.018-.006-.006-.00599-.006-.006-.006-.00599-.006-.006-.006-.00599-.006-.012-.012-.00599-.006-.018-.018-.00599-.006-.09-.09-.00601-.006-.042-.042-.00601-.006-.042-.042-.00601-.006-.06-.06-.00599-.006-.024-.024-.00599-.006-.012-.012-.00599-.006-.006-.006-.00599-.006-.006-.0059-.00599-.006-.006-.006-.01198-.012-.006-.006-.04193-.042-.00599-.0059-.01198-.012-.00598-.006-.00599-.006-.00598-.006-.00599-.006-.00598-.0059-.00599-.006-.02392-.024-.00598-.0059-.01794-.018-.00597-.0059-.01196-.012-.00597-.006-.00597-.0059-.00598-.006-.01194-.012-.00597-.0059-.01194-.012-.00596-.0059-.00597-.006-.00596-.006-.00597-.0059-.01192-.012-.00597-.0059-.00596-.006-.00595-.0059-.00596-.006-.00596-.0059-.00596-.006-.00595-.006-.00595-.0059-.00596-.006-.00595-.0059-.00595-.006-.00595-.0059-.00595-.006-.00594-.0059-.00595-.006-.00594-.0059-.00595-.0059-.00594-.006-.00594-.0059-.00594-.006-.00594-.0059-.00593-.0059-.00594-.006-.00593-.0059-.00594-.0059-.00593-.006-.01186-.0118-.00593-.006-.00592-.0059-.00593-.0059-.00592-.0059-.00592-.006-.01776-.0177-.00591-.0059-.00592-.0059-.00591-.006-.02364-.0236-.0059-.0059-.00591-.0059-.0236-.0236-.00589-.0059-.0059-.0059-.01767-.0177-.00588-.0059-.00589-.0058-.01176-.0118-.00589-.0059-.00587-.0059-.00588-.0058-.00587-.0059-.00588-.0059-.00587-.0059-.00587-.0058-.00586-.0059-.00587-.0059-.00586-.0058-.00587-.0059-.00586-.0058-.00585-.0059-.00586-.0059-.00585-.0058-.00585-.0059-.00585-.0058-.00585-.0059-.00585-.0058-.00584-.0059-.01168-.0116-.00584-.0059-.00584-.0058-.00583-.0058-.00583-.0059-.01166-.0116-.00583-.0059-.01746-.0174-.00581-.0058-.00582-.0058-.00581-.0059-.01162-.0116-.0058-.0058-.00581-.0058-.0116-.0116-.00579-.0058-.0058-.0058-.01158-.0116-.00578-.0057-.00579-.0058-.01734-.0174-.00577-.0057-.00578-.0058-.00577-.0058-.00576-.0058-.00577-.0057-.00576-.0058-.00576-.0057-.00576-.0058-.00575-.0058-.00576-.0057-.00575-.0058-.00574-.0057-.00575-.0057-.00574-.0058-.00574-.0057-.00574-.0058-.01146-.0114-.00573-.0058-.00573-.0057-.01144-.0114-.00572-.0058-.00572-.0057-.01713-.0171-.0057-.0057-.00571-.0057-.00569-.0057-.0057-.0057-.02276-.0228-.00568-.0056-.00568-.0057-.00567-.0057-.00568-.0057-.00567-.0056-.00567-.0057-.00566-.0057-.00566-.0056-.00566-.0057-.00566-.0056-.00565-.0057-.00565-.0056-.00564-.0057-.00565-.0056-.00564-.0057-.00564-.0056-.00563-.0056-.00563-.0057-.00563-.0056-.00562-.0056-.00563-.0057-.00561-.0056-.00562-.0056-.01683-.0168-.0168-.0168-.01118-.0112-.00558-.0056-.00559-.0056-.00558-.0055-.35367-.3537.3538-.3536c.08421-.0841.16437-.1632.24067-.2384.59294-.5846.95238-.939,1.16368-1.67478.25112-.87447.28719-2.30459-.04756-5.17521l-.02803-.24035.17111-.17111,1.00005-1,.3535-.35356zm8.2931,9.70731-8.2931-8.29309-.4758.47575c.3061,2.71664.2914,4.26933-.0121,5.32624-.26735.931-.75948,1.4594-1.30212,1.9938l.00105.001.00576.0058.00576.0057.01731.0174.00578.0057.01734.0174.00578.0057.02316.0232.0232.0232.02324.0232.00581.0059.02328.0232.00583.0059.00582.0058.00583.0058.00584.0059.01166.0116.00584.0059.01168.0116.00585.0059.00584.0058.00585.0059.00585.0058.00585.0059.00586.0058.00585.0059.00586.0058.01172.0118.00587.0058.00586.0059.00587.0059.00587.0058.01174.0118.00588.0059.00587.0058.01764.0177.00589.0059.00588.0058.02356.0236.0059.0059.00589.0059.0295.0295.00591.0059.0059.0059.01773.0177.00592.0059.00591.006.01184.0118.00591.0059.00593.0059.00592.006.00592.0059.00593.0059.00592.0059.00593.006.01779.0177.00593.006.00594.0059.00593.0059.00594.006.00594.0059.00594.006.01188.0118.00594.006.00595.0059.00594.006.00595.0059.00595.006.00595.0059.00595.006.00595.0059.00595.006.00596.0059.00595.006.00596.0059.00595.006.00596.006.00596.0059.00596.006.00596.0059.00596.006.00597.006.00596.0059.00597.006.00596.006.00597.0059.01194.012.00597.0059.01194.012.00597.0059.00598.006.00597.006.00598.006.00597.0059.01794.018.00597.006.00598.0059.00598.006.00599.006.01794.018.00599.0059.00598.006.00599.006.00598.006.01797.018.00598.0059.02396.024.006.006.01797.018.006.006.01198.012.006.0059.00599.006.006.006.00599.006.012.012.00599.006.018.018.00599.006.072.072.00598.006.288.288.006.0059.0059.006.042.042.006.0059.0059.006.024.024.006.0059.0059.006.018.018.006.0059.0059.006.012.012.006.0059.0059.006.012.012.006.0059.0059.006.0418.0418.006.0059.0059.006.1309.1309.006.0059.0059.006.0059.0059.006.0059.0059.006.0355.0355.006.0059.0059.006.0236.0236.006.0059.0059.006.0708.0708.0059.0058.0058.0059.0236.0236.0059.0058.0058.0059.0118.0118.0059.0058.0058.0059.0059.0059.0059.0058.0058.0059.0176.0176.0059.0058.0058.0059.0059.0058.0058.0059.0059.0058.0058.0059.0059.0058.0058.0059.0408.0408.0059.0058.0058.0059.0174.0174.0059.0058.0058.0059.058.058.0058.0057.0057.0058.0174.0174.0058.0057.0057.0058.0231.0231.0058.0057.0057.0058.001.0009c.5345-.5423,1.063-1.0344,1.9938-1.3019,1.0568-.3037,2.6093-.3186,5.3261-.0125l.4758-.4756zm-12.29309.2927.35355.3535,6.00004,6,.3535.3536-.3535.3536-2,2-.3536.3535-.3535-.3535-2.64649-2.6465-.64645.6465-.35355.3535-.35356-.3535-3-3L3,16.5l.35355-.3536,3-3,.35356-.3535zM4.41421,16.5l2.2929,2.2929.64644-.6465.35356-.3535.35355.3535,2.64644,2.6465L12,19.5,6.70711,14.2071,4.41421,16.5zM18.8536,3.64693l-3,3,.7071.70711,3-3-.7071-.70711zm2.3535,4.35356h-3v1h3v-1z"/></svg>