<svg width="48" height="48" xmlns="http://www.w3.org/2000/svg"><path fill-rule="evenodd" clip-rule="evenodd" d="m11,12.5c0-.8279.6721-1.5,1.5-1.5s1.5.6721,1.5,1.5-.6721,1.5-1.5,1.5-1.5-.6721-1.5-1.5zm1.5-2.5c-1.3801,0-2.5,1.1199-2.5,2.5s1.1199,2.5,2.5,2.5,2.5-1.1199,2.5-2.5S13.8801,10,12.5,10zm11,1c-.8279,0-1.5.6721-1.5,1.5s.6721,1.5,1.5,1.5,1.5-.6721,1.5-1.5-.6721-1.5-1.5-1.5zM21,12.5c0-1.3801,1.1199-2.5,2.5-2.5s2.5,1.1199,2.5,2.5S24.8801,15,23.5,15,21,13.8801,21,12.5zM35.5,11c-.8279,0-1.5.6721-1.5,1.5s.6721,1.5,1.5,1.5,1.5-.6721,1.5-1.5-.6721-1.5-1.5-1.5zM33,12.5c0-1.3801,1.1199-2.5,2.5-2.5s2.5,1.1199,2.5,2.5S36.8801,15,35.5,15,33,13.8801,33,12.5zM33,38v1.999h1V38h3v1.999h1V38h2.0525l-.055-.5498-1-9.999-.045-.4502h-6.905l-.045.4502-1,9.999-.055.5498H33zm-.9236-21h6.8472l.0696.4178,2,12-.9864.1644L38.0764,18h-5.1528l-1.9304,11.5822-.9864-.1644,2-12L32.0764,17zm-.0239,20,.9-8.999h5.095l.9,8.999h-6.895zm-10.052,2.999V28.001h3.0005v11.998h1V28.001H27V29.5h1V17h-9v12.5h1v-1.499h1.0005v11.998h1zM27,18v9.001h-7V18h7zM11.0005,28.001v11.998h-1V28.001H9V29.5H8V17h9v12.5h-1v-1.499h-.9995v11.998h-1V28.001h-3zm4.9995-1V18H9v9.001h7z"/></svg>