<svg width="48" height="48" viewBox="0,0,48,48" xmlns="http://www.w3.org/2000/svg"><path fill-rule="evenodd" clip-rule="evenodd" d="m3,17.5C3,9.49214,9.49214,3,17.5,3,25.5079,3,32,9.49214,32,17.5,32,25.5079,25.5079,32,17.5,32,9.49214,32,3,25.5079,3,17.5zM17.5,2C8.93986,2,2,8.93986,2,17.5,2,26.0601,8.93986,33,17.5,33c4.1002,0,7.8287-1.5922,10.6009-4.1921l3.8681,3.8682-1.0604,1.0604,11.6776,11.6776c.7812.7812,2.0468.7812,2.8281,0,.7812-.7813.7812-2.0469,0-2.8282l-11.324-11.324-.3536-.3535-1.0606,1.0606-3.8681-3.8682C31.4078,25.3287,33,21.6002,33,17.5,33,8.93986,26.0601,2,17.5,2zm0,3C10.5961,5,5,10.5961,5,17.5S10.5961,30,17.5,30,30,24.4039,30,17.5,24.4039,5,17.5,5zM4,17.5C4,10.0439,10.0439,4,17.5,4S31,10.0439,31,17.5,24.9561,31,17.5,31,4,24.9561,4,17.5zm28.3228,16.2365,10.9705,10.9704c.3907.3908,1.0231.3908,1.4139,0,.3907-.3907.3907-1.0231,0-1.4138L33.7367,32.3226l-1.4139,1.4139zM26,18H9v-1h17v1z"/></svg>