<svg width="48" height="48" viewBox="0,0,48,48" xmlns="http://www.w3.org/2000/svg"><path fill-rule="evenodd" clip-rule="evenodd" d="m6.5,8.99219h-.25l-.15.2-3,4.00001-.6.8h1.50049v1.5004c.0025,1.3765,1.11765,2.4913,2.49364,2.4951h.00045c.17313.0003.34216-.017.50542-.0502v13.0703H5v8h19v-8h-2V17.9415c.1617.0329.3291.0502.5005.0502,1.3813,0,2.5-1.12,2.5-2.5v-1.4995h2.0005l-.6-.8-3-4.00001-.15-.2H6.5zM5.00049,13.9922H24.0005v1.4995c0,.828-.6713,1.5-1.5,1.5-.8279,0-1.5-.6721-1.5-1.5l-1-.0009c-.0015.8277-.6741,1.4983-1.503,1.4969-.8258-.0024-1.4948-.6716-1.497-1.4974l-1,.0005c-.0015.8276-.6749,1.4983-1.503,1.4969-.8262-.0024-1.4955-.6719-1.497-1.4969l-1,.0009c0,.8279-.6722,1.5-1.5,1.5-.82871,0-1.50001-.672-1.50001-1.5l-1-.0014c-.00225.8282-.67519,1.4988-1.504,1.4974-.8257-.0024-1.49427-.6713-1.496-1.4965v-1.499zm20.00001-1h.0005l-2.25-3.00001H6.75L4.50037,12.9917H25.0005v.0005zm-4.5013,3.9975c.1423.1899.3111.3588.5008.5015v13.5006H8V17.4875c.18868-.1418.35667-.3096.49862-.4981.45589.6084,1.1827,1.0023,2.00188,1.0023.8184,0,1.5454-.3938,2.0015-1.0022.4554.6046,1.1788.996,1.9931.9982h.0005c.8193.0015,1.5479-.3918,2.0051-1.0005.4551.6058,1.1789.9983,1.9944,1.0005h.0005c.8188.0015,1.5464-.3907,2.0036-.998zM35.5,14.9922c-1.3811,0-2.5,1.1188-2.5,2.5v3.5h-4.9715l-.0276.4706-1,17-.0312.5294h17.0606l-.0312-.5294-1-17-.0276-.4706h-4.9743L38,17.4926v-.0004c0-1.3813-1.12-2.5-2.5-2.5zm1.4964,7-.0024,2.9996,1,.0008.0024-3.0004h4.0321l.9412,16H28.0303l.9412-16H33v3h1v-3h2.9964zm.0008-1,.0028-3.5v-.0001c-.0001-.8287-.672-1.4999-1.5-1.4999-.8289,0-1.5.6711-1.5,1.5v3.5h2.9972zM6,32.0078v6h17v-6H6z"/></svg>