<svg width="36" height="36" viewBox="0,0,36,36" xmlns="http://www.w3.org/2000/svg"><path fill-rule="evenodd" clip-rule="evenodd" d="m21.5606,7.50098v-4.5h1v4.5h-1zm-5.5-2.95784.3536.35355L30.267,18.7495l-.3521.3535-.3543-.3528.3543.3528v.0001l-.0003.0002-.0008.0008-.0032.0033-.0131.0132-.0555.0556-.2462.2466c-.2314.2315-.6065.6066-1.1819,1.1812l-.171.1709-.2402-.028c-4.3048-.502-6.4953-.4549-7.8601-.0628-1.1684.3357-1.7453.9209-2.619,1.8071l-.0004.0004h-.0001l-.0004.0004c-.1139.1155-.2328.2361-.3586.3619l-.3536.3533-.3618-.3618-.0084-.0083-.0083-.0084-.0168-.0168-.0084-.0083-.042-.042-.0084-.0085-.0168-.0168-.0085-.0084-.0084-.0085-.0084-.0084-.0085-.0084-.0084-.0085-.0085-.0084-.0084-.0085-.0085-.0085-.0085-.0084-.0084-.0085-.017-.017-.0085-.0084-.051-.051-.0085-.0086-.017-.017-.0086-.0085-.0085-.0086-.0085-.0085-.0086-.0085-.0085-.0086-.0086-.0085-.0085-.0086-.0086-.0085-.0085-.0086-.0086-.0086-.0086-.0085-.0085-.0086-.0946-.0946-.0087-.0086-.0086-.0087-.0345-.0345-.0087-.0086-.0086-.0087-.0087-.0086-.0086-.0087-.0347-.0347-.0087-.0086-.0086-.0087-.0348-.0348-.0087-.0086-.0174-.0174-.0087-.0088-.0348-.0348-.0088-.0087-.0087-.0088-.0349-.0349-.0088-.0087-.0087-.0088-.0088-.0087-.0087-.0088-.0088-.0087-.0087-.0088-.0351-.0351-.0088-.0087-.0087-.0088-.0176-.0176-.0088-.0087-.0176-.0176-.0087-.0088-.0352-.0352-.0089-.0088-.0176-.0176-.0088-.0089-.0176-.0176-.0089-.0088-.0088-.0089-.0176-.0176-.0089-.0088-.0088-.0089-.0885-.0885-.0089-.0088-.0088-.0089-.0089-.0089-.0089-.0088-.0088-.0089-.0178-.0178-.0089-.0088-.0089-.0089-.0088-.0089-.1335-.1335-.009-.0089-.0089-.0089-.0089-.009-.0178-.0178-.009-.0089-.0089-.009-.0178-.0178-.009-.0089-.0089-.009-.0089-.0089-.009-.0089-.0089-.009-.009-.0089-.0089-.009-.0089-.0089-.009-.0089-.0089-.009-.009-.0089-.0089-.009-.009-.0089-.0089-.009-.009-.0089-.0089-.009-.0269-.0269-.009-.0089-.0089-.009-.009-.0089-.0089-.009-.009-.009-.009-.0089-.0089-.009-.009-.009-.009-.0089-.0089-.009-.018-.018-.009-.0089-.0089-.009-.018-.018-.009-.0089-.0089-.009-.027-.027-.009-.0089-.0089-.009-.036-.036-.009-.0089-.018-.018-.0089-.009-.072-.072-.009-.0089-.072-.072-.0089-.009-.054-.054-.0091-.009-.126-.126-.009-.0091-.171-.171-.009-.0089-.045-.045-.0089-.009-.063-.063-.009-.0089-.009-.009-.0089-.009-.036-.036-.009-.0089-.009-.009-.0089-.009-.018-.018-.009-.0089-.0089-.009-.018-.018-.009-.0089-.0089-.009-.018-.018-.009-.0089-.0089-.009-.009-.009-.009-.0089-.0089-.009-.009-.009-.009-.0089-.0089-.009-.009-.0089-.0089-.009-.0269-.0269-.009-.0089-.0089-.009-.009-.0089-.0089-.009-.009-.0089-.0089-.009-.0268-.0268-.009-.0089-.0089-.009-.009-.0089-.0089-.009-.0089-.0089-.009-.0089-.0089-.009-.0178-.0178-.009-.0089-.0089-.009-.0178-.0178-.009-.0089-.0089-.0089-.0089-.009-.1246-.1246-.0089-.0088-.0089-.0089-.0088-.0089-.0178-.0178-.0089-.0088-.0088-.0089-.0089-.0089-.0089-.0088-.0088-.0089-.0089-.0089-.0089-.0088-.0088-.0089-.0089-.0088-.0088-.0089-.0089-.0088-.0088-.0089-.0089-.0088-.0088-.0089-.0089-.0088-.0088-.0089-.0088-.0088-.0089-.0088-.0088-.0089-.0176-.0176-.0089-.0088-.0088-.0089-.044-.044-.0089-.0088-.0176-.0176-.0087-.0088-.044-.044-.0088-.0087-.0087-.0088-.0088-.0088-.0088-.0087-.0087-.0088-.0088-.0088-.0088-.0087-.0087-.0088-.0088-.0087-.0087-.0088-.0088-.0087-.0087-.0088-.0088-.0087-.0087-.0088-.0087-.0087-.0088-.0087-.0087-.0088-.0174-.0174-.0088-.0087-.0174-.0174-.0087-.0088-.0348-.0348-.0087-.0086-.0087-.0087-.0086-.0087-.0174-.0174-.0087-.0086-.0086-.0087-.0087-.0087-.0087-.0086-.0086-.0087-.0346-.0346-.0087-.0086-.0086-.0087-.0086-.0086-.0087-.0086-.0086-.0087-.0258-.0258-.0087-.0086-.0344-.0344-.0085-.0086-.0258-.0258-.0086-.0085-.0085-.0086-.0086-.0086-.0086-.0085-.0085-.0086-.0086-.0085-.0085-.0086-.0086-.0085-.0085-.0086-.0085-.0085-.0086-.0085-.0085-.0086-.017-.017-.0086-.0085-.0425-.0425-.0084-.0085-.0255-.0255-.0085-.0084-.0084-.0085-.0338-.0338-.0085-.0084-.0084-.0085-.0084-.0084-.0085-.0084-.0084-.0085-.0756-.0756-.0084-.0083-.0083-.0084-.3537-.3537.3538-.3535c.1252-.1252.2453-.2434.3603-.3567.888-.8745,1.4739-1.4514,1.8098-2.621.392-1.365.4387-3.5559-.0633-7.86074l-.028-.24036.1711-.17111,1.5-1.5.3535-.35355zM28.8538,18.7505,16.0606,5.95735l-.9756.97562c.473,4.14903.4482,6.46333.0034,8.01193-.4114,1.433-1.1837,2.191-2.0683,3.0578l.0082.0081.0086.0086.0085.0086.0086.0085.0344.0344.0085.0086.0258.0258.0087.0086.0258.0258.0086.0087.0087.0086.1212.1212.0086.0087.0087.0086.0522.0522.0087.0088.0088.0087.0261.0261.0087.0088.0088.0087.0262.0262.0087.0088.0088.0087.0087.0088.0088.0087.0087.0088.0088.0087.0351.0351.0087.0088.0088.0087.1232.1232.0088.0089.0089.0088.0176.0176.0088.0089.0089.0088.0265.0265.0088.0089.0089.0088.0354.0354.0088.0089.0089.0088.0089.0089.0088.0089.0089.0088.0089.0089.0088.0089.0089.0088.0267.0267.0088.0089.0089.0088.1246.1246.0089.009.009.0089.0267.0267.0089.009.009.0089.1072.1072.0089.009.009.0089.0089.009.009.0089.0089.009.009.0089.0717.0717.0089.009.009.0089.009.009.0089.009.009.0089.0988.0988.0089.009.009.0089.036.036.0089.009.009.0089.081.081.0089.009.018.018.009.0089.216.216.009.0091.054.054.0091.009.135.135.0089.009.027.027.009.0089.09.09.0089.009.009.0089.045.045.0089.009.009.0089.027.027.0089.009.009.0089.018.018.0089.009.009.0089.0449.0449.0089.009.009.0089.0896.0896.0089.009.009.0089.0894.0894.0089.009.009.0089.0178.0178.0089.009.009.0089.0178.0178.0089.009.009.0089.1424.1424.0088.0089.0089.0088.0533.0533.0088.0089.0089.0088.1679.1679.0088.0089.0089.0088.0528.0528.0087.0088.0088.0087.079.079.0087.0088.0088.0087.0087.0088.0088.0087.0087.0088.0088.0087.0349.0349.0087.0088.0088.0087.1044.1044.0086.0087.0087.0086.0347.0347.0086.0087.0087.0086.0086.0087.0087.0086.1972.1972c.8672-.8839,1.6253-1.6562,3.058-2.0679,1.5485-.4449,3.8625-.4701,8.0117.0029.4539-.4534.7676-.7671.9757-.9754zm-18.7932.7926,9.7071,9.7071-.3535.3536-3.3536,3.3536-.3535-.3536-4.1465-4.1464-1.5,1.5-.35353-.3536-4.5-4.5-.35355-.3536.35355-.3535,4.5-4.5.35353-.3536zm-3.79287,5.2071,3.79287,3.7929,1.1465-1.1464.3535-.3536,4.5,4.5,2.2929-2.2929-8.2929-8.2928-3.79287,3.7928zM28.4571,5.64742l-4.5,4.49998.7071.7071,4.5-4.49997-.7071-.70711zm3.3535,6.60358h-4.5v1h4.5v-1z"/></svg>