<svg width="36" height="36" viewBox="0,0,36,36" xmlns="http://www.w3.org/2000/svg"><path fill-rule="evenodd" clip-rule="evenodd" d="m5.75,8.25c0-1.38071,1.11929-2.5,2.5-2.5s2.5,1.11929,2.5,2.5-1.11929,2.5-2.5,2.5-2.5-1.11929-2.5-2.5zm2.5-3.5c-1.933,0-3.5,1.567-3.5,3.5s1.567,3.5,3.5,3.5,3.5-1.567,3.5-3.5-1.567-3.5-3.5-3.5zm16.9412,4.76471-.3176-.59543-.4772.47716L15.703,18.0898,10.05,13.85l-.42284-.3171-.29319.4398-4.5,6.7499.83206.5548,4.20681-6.3103L15.4499,19.15l.3469.2602.3067-.3066,8.5229-8.5229,5.6824,10.6546.8824-.4706-6-11.24999zM8.06012,29.2679c.65585-.3146,1.43354-.5179,2.44408-.5179,1.0105,0,1.7882.2033,2.4441.5179.6378.306,1.1446.7112,1.6044,1.0789l.0158.0127c.4741.379.901.718,1.4284.9709.5166.2479,1.146.4196,2.0115.4196.8648,0,1.4936-.1717,2.0099-.4195.5269-.253.9536-.5919,1.4273-.9709l.0158-.0127c.4595-.3677.9659-.7729,1.6034-1.0789.6555-.3147,1.4327-.518,2.4427-.518,1.0092,0,1.7859.2034,2.4408.5181.637.306,1.1431.7113,1.6021,1.0789l.0159.0127c.4733.379.8995.718,1.4259.9709.5157.2478,1.1439.4194,2.0078.4194v1c-1.0092,0-1.7859-.2034-2.4409-.5181-.637-.306-1.143-.7113-1.602-1.0789l-.0159-.0127c-.4733-.379-.8995-.718-1.4259-.9709-.5158-.2478-1.1439-.4194-2.0078-.4194-.8649,0-1.4937.1717-2.0099.4195-.5269.253-.9536.5919-1.4273.9709l-.0158.0127c-.4595.3677-.966.7729-1.6034,1.0789-.6555.3147-1.4327.518-2.4427.518-1.0105,0-1.7882-.2033-2.4441-.5179-.6378-.306-1.1446-.7112-1.6044-1.0789l-.0158-.0127c-.4741-.379-.901-.718-1.4284-.9709-.5166-.2479-1.146-.4196-2.0115-.4196-.86551,0-1.49486.1717-2.01154.4196-.52733.2529-.9543.5919-1.42832.9709l-.01584.0127c-.4598.3677-.96655.7729-1.60442,1.0789C4.78823,32.5467,4.01054,32.75,3,32.75v-1c.86551,0,1.49486-.1717,2.01154-.4196.52733-.2529.9543-.5919,1.42832-.9709l.01584-.0127c.4598-.3677.96655-.7729,1.60442-1.0789zM10.5042,22.75c-1.01054,0-1.78823.2033-2.44408.5179-.63787.306-1.14462.7112-1.60442,1.0789l-.01584.0127c-.47402.379-.90099.718-1.42832.9709C4.49486,25.5783,3.86551,25.75,3,25.75v1c1.01054,0,1.78823-.2033,2.44408-.5179.63787-.306,1.14462-.7112,1.60442-1.0789l.01584-.0127c.47402-.379.90099-.718,1.42832-.9709.51668-.2479,1.14603-.4196,2.01154-.4196.8655,0,1.4949.1717,2.0115.4196.5274.2529.9543.5919,1.4284.9709l.0158.0127c.4598.3677.9666.7729,1.6044,1.0789.6559.3146,1.4336.5179,2.4441.5179,1.01,0,1.7872-.2033,2.4427-.518.6374-.306,1.1439-.7112,1.6034-1.0789l.0158-.0127c.4737-.379.9004-.7179,1.4273-.9709.5162-.2478,1.145-.4195,2.0099-.4195.8639,0,1.492.1716,2.0078.4194.5264.2529.9526.5919,1.4259.9709l.0159.0127c.459.3676.965.7729,1.602,1.0789.655.3147,1.4317.5181,2.4409.5181v-1c-.8639,0-1.4921-.1716-2.0078-.4194-.5264-.2529-.9526-.5919-1.4259-.9709l-.0159-.0127c-.459-.3676-.9651-.7729-1.6021-1.0789-.6549-.3147-1.4316-.5181-2.4408-.5181-1.01,0-1.7872.2033-2.4427.518-.6375.306-1.1439.7112-1.6034,1.0789l-.0158.0127c-.4737.379-.9004.7179-1.4273.9709-.5163.2478-1.1451.4195-2.0099.4195-.8655,0-1.4949-.1717-2.0115-.4196-.5274-.2529-.9543-.5919-1.4284-.9709l-.0158-.0127c-.4598-.3677-.9666-.7729-1.6044-1.0789-.6559-.3146-1.4336-.5179-2.4441-.5179z"/></svg>