<svg width="36" height="36" viewBox="0,0,36,36" xmlns="http://www.w3.org/2000/svg"><path fill-rule="evenodd" clip-rule="evenodd" d="m10.25,10.499c0-1.79533,1.4546-3.24998,3.25-3.24998h9c1.7954,0,3.25,1.45465,3.25,3.24998v6.2515l-15.5-.0014V10.499zm0,7.2501v6.4999h15.5v-6.4985l-15.5-.0014zM13.5,6.24902c-2.3476,0-4.25,1.90236-4.25,4.24998v3.25h-1.5v2.5h1.5v12h5.5v-3h6.5015v3H26.75v-12h1.5v-2.5h-1.5v-3.25c0-2.34762-1.9024-4.24998-4.25-4.24998h-9zM22.2515,27.249v-2H25.75v2h-3.4985zm4.4985-12.5v.5h.5v-.5h-.5zm-13,10.5h-3.5v2h3.5v-2zm-4.5-10v-.5h-.5v.5h.5zm4.25,4.5c-.6908,0-1.25.562-1.25,1.25,0,.6902.5599,1.25,1.25,1.25s1.25-.5598,1.25-1.25c0-.688-.5592-1.25-1.25-1.25zM13.25,20.999c0-.137.1128-.25.25-.25s.25.113.25.25c0,.1379-.1121.25-.25.25s-.25-.1121-.25-.25zm8,0c0-.688.5592-1.25,1.25-1.25s1.25.562,1.25,1.25c0,.6902-.5599,1.25-1.25,1.25s-1.25-.5598-1.25-1.25zm1.25-.25c-.1372,0-.25.113-.25.25,0,.1379.1121.25.25.25s.25-.1121.25-.25c0-.137-.1128-.25-.25-.25zm6.25,1.75h1v-3h-1v3zm4,1.5h-1v-6h1v6zm-26.5-4.5v3h1v-3h-1zm-3,4.5v-6h1v6h-1zM22.5001,9.25051l-9-.0015-.0002.99999,9,.0015.0002-.99999z"/></svg>