<svg width="36" height="36" viewBox="0,0,36,36" xmlns="http://www.w3.org/2000/svg"><path fill-rule="evenodd" clip-rule="evenodd" d="m10.75,3c0,.59511.2863,1.27046.7425,1.79175.4644.53076,1.1551.95825,2.0075.95825,1.0074,0,1.6473.83272,1.6944,1.77497.023.45983-.1052.89032-.3668,1.19808C14.5752,9.02,14.159,9.25,13.5,9.25c-1.454,0-2.75,1.1022-2.75,2.75h1c0-1.0522.804-1.75,1.75-1.75.916,0,1.6248-.3325,2.0896-.8793.4556-.53599.6368-1.2305.6035-1.89567C16.1277,6.16728,15.1926,4.75,13.5,4.75c-.4976,0-.9319-.24751-1.255-.61675C11.9137,3.75454,11.75,3.30489,11.75,3h-1zm17,15.25h-4v-4.5h-16v17.5h16v-3h4.5v-10h-.5zm-4,9h3.5v-8h-3.5v8zM17.4925,4.79175C17.0363,4.27046,16.75,3.59511,16.75,3h1c0,.30489.1637.75454.495,1.13325.3231.36924.7574.61675,1.255.61675,1.6926,0,2.6277,1.41728,2.6931,2.72503.0333.66517-.1479,1.35968-.6035,1.89567-.4648.5468-1.1736.8793-2.0896.8793-.946,0-1.75.6978-1.75,1.75h-1c0-1.6478,1.296-2.75,2.75-2.75.659,0,1.0752-.23,1.3276-.52695.2616-.30776.3898-.73825.3668-1.19808C21.1473,6.58272,20.5074,5.75,19.5,5.75c-.8524,0-1.5431-.42749-2.0075-.95825zM8.75,30.25v-15.5h14v15.5h-14z"/></svg>