<svg width="36" height="36" viewBox="0,0,36,36" xmlns="http://www.w3.org/2000/svg"><path fill-rule="evenodd" clip-rule="evenodd" d="m29.7501,7.74775.0014-4.74836-1-.00028-.0014,4.74864H27.25V10.75h-1.5v16h3.0014l-.0013,5H25.5v1H33v-1h-3.2499l.0013-5H32.75v-16h-1.5V7.74775h-1.4999zm-13.9108-2.3119c1.5806-1.58195,4.1454-1.58217,5.7277.00015,1.5808,1.58074,1.5808,4.14566,0,5.7264l-4.8469,4.8469-5.7275-5.7275,4.8465-4.84577.0002-.00018zm-5.5538,5.55305-4.84736,4.8466h-.00002c-1.58221,1.5823-1.58221,4.1457.00002,5.7279.93509.9351,2.21287,1.3175,3.42829,1.1474l.16865-.0312c.68815-.1273,1.34962-.4293,1.90952-.9105.0757-.0653.1496-.1339.2214-.2057l.7342-.7342.8111-.8118.1065-.1066.0011-.0003,3.1941-3.1941-5.7275-5.7275zM22.2741,11.8695l-7.8827,7.8828c3.5244.0752,6.3586,2.9561,6.3586,6.4985,0,3.5896-2.9104,6.5-6.5,6.5s-6.5-2.9104-6.5-6.5c0-.8925.18986-1.7348.51794-2.5008-1.28093-.0087-2.55921-.5018-3.5369-1.4795-1.97277-1.9728-1.97277-5.1693,0-7.1421h.00002L15.1319,4.72905l.0002-.00018c1.9714-1.97287,5.1694-1.9726,7.142.00003,1.9713,1.97126,1.9713,5.16934,0,7.1406zM13.3106,20.8331l-.7038.7037-.7331.7338-.0005.0006c-.0857.0855-.1738.1673-.264.2453-.6395.5553-1.3851.9231-2.16533,1.1034-.35906.6477-.59745,1.3668-.67029,2.1331H19.7278c-.2516-2.8042-2.6082-5.0022-5.4778-5.0022-.3206,0-.6333.0285-.9394.0823zm6.4168,5.9199H8.77263c.2537,2.802,2.60937,4.9978,5.47737,4.9978s5.2237-2.1958,5.4774-4.9978zM30.25,8.74775V10.75h-2V8.74775h2zM26.75,23.75v2h5v-14h-5v1.9993H30v1h-3.25V16.75H30v1h-3.25v2H30v1h-3.25v2H30v1h-3.25z"/></svg>