<svg width="24" height="24" xmlns="http://www.w3.org/2000/svg"><path fill-rule="evenodd" clip-rule="evenodd" d="m22.5,0h-21C.675,0,0,.675,0,1.5v21c0,.825.675,1.5,1.5,1.5h21c.825,0,1.5-.675,1.5-1.5v-21c0-.825-.675-1.5-1.5-1.5z" fill="#2d327d"/><path fill-rule="evenodd" clip-rule="evenodd" d="m21,12.4875V11.25l-9-4.125L3,11.25v1.2375l9-4.125,9,4.125z" fill="#fff"/><path fill-rule="evenodd" clip-rule="evenodd" d="m12.945,11.325H9.0525V21H11.16v-3.48h2.1675c.555,0,1.02-.06,1.4025-.165s.72-.2851,1.0125-.5326c.6975-.5774,1.0425-1.3724,1.0425-2.3849,0-1.14-.4275-1.995-1.2675-2.5575-.3-.21-.645-.3525-1.02-.435s-.8925-.12-1.5525-.12zm-1.8,4.5225V13.11l1.7625-.0075c.5775,0,.9975.0825,1.2525.2625.3525.24.5325.6.5325,1.0875s-.15.8475-.4575,1.095c-.24.2025-.645.3-1.2075.3H11.145z" fill="#fff"/></svg>