<svg width="24" height="24" xmlns="http://www.w3.org/2000/svg"><path fill-rule="evenodd" clip-rule="evenodd" d="m22.5,0h-21C.675,0,0,.675,0,1.5v21c0,.825.675,1.5,1.5,1.5h21c.825,0,1.5-.675,1.5-1.5v-21c0-.825-.675-1.5-1.5-1.5z" fill="#2d327d"/><path fill-rule="evenodd" clip-rule="evenodd" d="m19.6125,7.5H4.3875C3.6225,7.5,3,8.1225,3,8.8875h18c0-.765-.6225-1.3875-1.3875-1.3875z" fill="#fff"/><path fill-rule="evenodd" clip-rule="evenodd" d="m14.6475,17.9999H16.17v-3.3675h1.2c.96,0,1.4925.18,1.6575,1.4175.0825.6525.1875,1.44.3675,1.95H21c-.255-.4575-.3225-1.2375-.4125-1.8975-.1425-1.05-.3075-1.8825-1.62-2.085l.1125-.0075c.4575,0,1.7325-.4125,1.7325-1.8675,0-1.605-1.0575-2.38495-2.31-2.38495H14.655l-.0075,8.24245zm1.5375-6.9975h1.8825c.9075,0,1.2.6,1.2,1.2075,0,.6825-.4275,1.17-1.4475,1.17h-1.635v-2.3775z" fill="#fff"/><path fill-rule="evenodd" clip-rule="evenodd" d="m12.4725,16.7625v-1.725h1.665v-1.35h-1.665v-1.5h-1.5v1.5H9.3V15h1.6725v1.7625h1.5z" fill="#fff"/><path fill-rule="evenodd" clip-rule="evenodd" d="m3,17.9999h1.5375v-2.97H6.705c1.68,0,2.445-1.2525,2.445-2.58,0-1.245-.72-2.69245-2.61-2.69245H3v8.24245zm1.53-6.96h1.8825c.465,0,1.2225.315,1.2225,1.41,0,.9225-.5925,1.32-1.2375,1.32H4.53v-2.73z" fill="#fff"/><path fill-rule="evenodd" clip-rule="evenodd" d="m4.3875,21h15.225C20.3775,21,21,20.3776,21,19.6125H3C3,20.3776,3.6225,21,4.3875,21z" fill="#fff"/></svg>