<svg width="36" height="36" viewBox="0,0,36,36" xmlns="http://www.w3.org/2000/svg"><path fill-rule="evenodd" clip-rule="evenodd" d="m31.5037,8.75H4.5022v-1h27.0015v1zm0,19.5007H4.5022v-1h27.0015v1zM7.10324,17.6116v-3.399h2.2005c.71696,0,1.23446.1095,1.55096.3285.438.2955.657.744.657,1.347,0,.597-.189,1.047-.5655,1.3545-.3075.246-.8085.369-1.50296.369h-2.34zm2.22451-5.616h-4.8435v12.0015h2.619v-4.3245h2.6925c.69005,0,1.27055-.0675,1.74155-.201s.888-.354,1.2555-.6615c.8655-.717,1.2975-1.7025,1.2975-2.955,0-1.413-.5235-2.469-1.569-3.1695-.378-.2565-.7995-.4365-1.2675-.537-.468-.102-1.11-.153-1.92605-.153zm4.79115,6.1612h2.313v-2.313h1.326v2.313h2.322v1.3244h-2.322v2.3131h-1.326v-2.3131h-2.313v-1.3244zm9.5308-.7995v-3.3h2.61c.7665,0,1.3275.1305,1.683.3945.357.261.534.678.534,1.2465,0,.5865-.2085,1.0245-.624,1.314-.3285.2295-.8955.345-1.6995.345h-2.5035zm3.1936-5.361h-5.8125v12.0015h2.619v-4.7205h2.355c.8385,0,1.4295.1635,1.7775.489.348.324.555.912.621,1.7595.0645.9525.1185,1.5615.159,1.8225.042.264.1095.48.201.6495h2.733l-.114-.1395c-.1575-.2025-.276-.72-.3525-1.551-.1035-1.134-.189-1.8585-.255-2.175-.066-.318-.1935-.621-.3855-.912-.3015-.459-.717-.756-1.248-.8865.6015-.2235,1.071-.5955,1.4085-1.116.336-.5205.5055-1.1295.5055-1.8315,0-.618-.135-1.173-.4035-1.6665-.2685-.492-.657-.8865-1.1655-1.182-.6135-.36-1.494-.5415-2.643-.5415z"/></svg>