<svg width="36" height="36" viewBox="0,0,36,36" xmlns="http://www.w3.org/2000/svg"><path fill-rule="evenodd" clip-rule="evenodd" d="m17.2501,3.25h-.5v4.52468C14.2234,8.0255,12.25,10.1573,12.25,12.75v4.4616l-2.6857,1.0743-.3143.1257V22.75H4.74963v9H3v1h28.5v-1h-1.7504v-9h-4.4993v-4.3384l-.3143-.1257-2.686-1.0744V12.75c0-2.5927-1.9733-4.7244-4.4999-4.9753V5.74985h2.9998V3.25h-3.4998zm7.0002,19.5v-2H10.25v2h14.0003zm-15.0003,1H5.74963v8H9.25v-8zm1,0h2v8h-2v-8zm3,0v8h1.9998l-.0016-4v-.0002c0-1.1045.8953-1.9998,1.9998-1.9998,1.1043,0,1.9996.8952,1.9998,1.9996v.0002l.0019,4.0002h2.0009l-.0006-8h-8zm9,0h2.0003v8h-1.9997l-.0006-8zm3.0003,0h3.4993v8h-3.4993v-8zM19.7499,4.74985h-1.9998V4.25h1.9998v.49985zM18.2497,31.75h-1.9999l-.0016-4.0002v-.0002c.0001-.5521.4477-.9996.9998-.9996s.9998.4476.9998.9998v.0002l.0019,4zm6.0006-12.6613v.6613H10.25v-.6613l7.0001-2.8002,7.0002,2.8002zM21.25,16.8115V13.25h-8v3.5616l3.8144-1.5258.1857-.0743.1858.0743,3.8141,1.5257zm-4-8.0615c2.0398,0,3.723,1.5268,3.9691,3.5h-7.9382c.2461-1.9732,1.9293-3.5,3.9691-3.5z"/></svg>