<svg width="24" height="24" viewBox="0,0,24,24" xmlns="http://www.w3.org/2000/svg"><path fill-rule="evenodd" clip-rule="evenodd" d="m17.3528,4.35565-.3535-.35216-.3529.35286-2.29,2.29-.3535.35355.3535.35355,2.29,2.29.3543.35425.3535-.35494,2.29-2.299.3529-.35425-.3543-.35286-2.29-2.281zM15.4171,6.9999l1.5836-1.58359,1.5822,1.57598L16.9993,8.5821,15.4171,6.9999zm-2.0636,1.35667-.3536-.3534-.3535.35348L5.14645,15.8566,5,16.0031v2.9971h2.99713l.14645-.1465,7.50002-7.501.3536-.3536-.3537-.3535-2.29-2.28903zM6,16.4173l7.0001-7.00007,1.5827,1.58207-6.99993,7.0009H6v-1.5829z"/></svg>