<svg width="24" height="24" viewBox="0,0,24,24" xmlns="http://www.w3.org/2000/svg"><path fill-rule="evenodd" clip-rule="evenodd" d="m3.5,5.00024H3V19.0002h14.2986l.1416-.2629,3.5-6.5.1277-.2371-.1277-.237-3.5-6.50001-.1416-.26295H3.5zM4,18.0002V6.00024h12.7014l3.2307,5.99996-3.2307,6H4zm4-9.00044c0-.56386.43614-1,1-1s1,.43614,1,1c0,.56385-.43614,1-1,1s-1-.43615-1-1zm1-2c-1.11614,0-2,.88385-2,2,0,1.11614.88386,2.00004,2,2.00004,1.1161,0,2-.8839,2-2.00004,0-1.11615-.8839-2-2-2zm3,8.00094c0-.5646.4359-1,1-1s1,.4354,1,1c0,.5639-.4361,1-1,1s-1-.4361-1-1zm1-2c-1.1159,0-2,.8827-2,2,0,1.1162.8839,2,2,2s2-.8838,2-2c0-1.1173-.8841-2-2-2zm-6.35355,2.646,7.99995-8.00001.7072.70711-8.00005,8-.7071-.7071z"/></svg>