<svg width="36" height="36" viewBox="0,0,36,36" xmlns="http://www.w3.org/2000/svg"><path fill-rule="evenodd" clip-rule="evenodd" d="m8.75,6.74902c0-1.37985,1.12014-2.5,2.5-2.5h10.5c1.3799,0,2.5,1.12015,2.5,2.5V31.749H8.75V6.74902zm-1,24.99998V6.74902c0-1.93214,1.56786-3.5,3.5-3.5h10.5c1.9321,0,3.5,1.56786,3.5,3.5V21.2498h.25c.825,0,1.5297.2042,2.0282.7062.4957.4992.7028,1.2081.7217,2.0323l.0002.0115H28.25v1.4995c.0008.4084.0069.8705.1519,1.2306.0676.1681.1568.2891.2711.3705.1118.0796.2868.1494.577.1494.2946,0,.472-.0691.5845-.1475.114-.0795.2021-.197.2687-.3609.1437-.3535.1492-.8138.1468-1.2389V12.1808l-3.6341-4.36095.7682-.64019,3.75,4.50004.1159.139v13.6811l.0001.02c.0023.3908.006,1.0408-.2205,1.5981-.1206.2969-.3143.5895-.6234.8049-.3107.2164-.6978.327-1.1562.327-.4598,0-.8471-.1142-1.157-.3348-.3073-.2189-.4991-.5144-.6187-.8115-.2229-.5534-.2237-1.194-.2242-1.5695l-.0001-.0333v-1.4951c-.0165-.6829-.1856-1.0975-.4314-1.345-.2436-.2453-.6466-.4108-1.3186-.4108h-.25v9.4992H27v1H6v-1h1.75zm3-23.99924h11.5v7.00004h-11.5V7.74976zm1,1v5.00004h9.5V8.74976h-9.5z"/></svg>