<svg width="24" height="24" viewBox="0,0,24,24" xmlns="http://www.w3.org/2000/svg"><path fill-rule="evenodd" clip-rule="evenodd" d="m2.5,2H2v20h20V2H2.5zM3,17V3h18v14h-.7l-3.8588-7.23529-.3339-.62604-.4773.52499-4.67,5.13704-3.63075-3.177-.46948-.4108-.29872.5477L3.70318,17H3zm0,1v3h18v-3H3zM7,6c-.55286,0-1,.44714-1,1s.44714,1,1,1,1-.44714,1-1-.44714-1-1-1zM5,7c0-1.10514.89486-2,2-2s2,.89486,2,2-.89486,2-2,2-2-.89486-2-2zm14.1667,10-3.274-6.1387-4.5227,4.975-.33.363-.3693-.323-3.53047-3.0892L4.84227,17H19.1667z"/></svg>