<svg width="36" height="36" viewBox="0,0,36,36" xmlns="http://www.w3.org/2000/svg"><path fill-rule="evenodd" clip-rule="evenodd" d="m8.75,6.75c0-1.37986,1.12014-2.5,2.5-2.5,1.3799,0,2.5,1.12014,2.5,2.5s-1.1201,2.5-2.5,2.5c-1.37986,0-2.5-1.12014-2.5-2.5zm2.5-3.5c-1.93214,0-3.5,1.56786-3.5,3.5s1.56786,3.5,3.5,3.5c1.9321,0,3.5-1.56786,3.5-3.5s-1.5679-3.5-3.5-3.5zM6.26743,20.4534C5.11818,20.2283,4.25,19.2148,4.25,18h-1c0,1.7668,1.31098,3.229,3.01268,3.4663.16362,3.0008,1.89793,5.6343,4.48732,7.4045V32.75h4v-2.0416c1.256.3488,2.5999.5416,4,.5416.8637,0,1.6962-.0866,2.5-.2274V32.75h4v-3.0224c2.1047-1.055,3.8295-2.5976,4.8769-4.4776H32.75v-7h-1.9676c-.4953-1.4631-1.3782-2.7812-2.5324-3.8916V9.25h-.5c-1.8671,0-3.3781,1.4655-3.4812,3.3009l.9984.0562c.0643-1.145.8927-2.0836,1.9828-2.3067v4.4921l.1603.1484c1.2151,1.1248,2.0963,2.471,2.525,3.9485l.1047.3606h1.71v5h-2.2278l-.1395.2715c-.9548,1.8589-2.6709,3.413-4.8464,4.4415l-.2863.1353V31.75h-2v-1.9491l-.6029.1268c-.9373.1971-1.8996.3223-2.8971.3223-1.5389,0-3.0027-.2492-4.3437-.6905l-.6563-.2159V31.75h-2v-3.4174l-.2269-.148C8.8925,26.4698,7.25,23.8744,7.25,21c0-3.365,2.25733-6.3563,5.7129-7.9821l-.4258-.9048c-3.5344,1.6629-6.0388,4.7292-6.26967,8.3403zM18.75,10.25c-1.3799,0-2.5,1.1201-2.5,2.5s1.1201,2.5,2.5,2.5,2.5-1.1201,2.5-2.5-1.1201-2.5-2.5-2.5zm-3.5,2.5c0-1.9321,1.5679-3.5,3.5-3.5s3.5,1.5679,3.5,3.5c0,1.0699-.4807,2.0281-1.2379,2.6702.8294.1259,1.63.3191,2.3942.5705l-.3126.9499c-1.341-.4412-2.8048-.6905-4.3437-.6905s-3.0027.2493-4.3437.6905l-.3126-.9499c.7642-.2514,1.5648-.4446,2.3942-.5705-.7572-.6421-1.2379-1.6003-1.2379-2.6702zM27,19.25h-1.5v-1H27v1z"/></svg>