<svg width="36" height="36" viewBox="0,0,36,36" xmlns="http://www.w3.org/2000/svg"><path fill-rule="evenodd" clip-rule="evenodd" d="m11.6638,4.66935c.3969-1.11326,1.6505-1.73411,2.7704-1.25916C22.7612,6.94176,29.3627,13.7834,32.615,22.3261c.4312,1.1328-.2074,2.3806-1.3274,2.7519l-3.9673,1.315c-.7629.2529-1.5371.0536-2.0924-.4299L5.18178,32.6728c-1.17206.3925-2.24859-.7501-1.84556-1.8965l.00222-.0063h.00004l7.31872-19.9603c-.4955-.5794-.68664-1.3913-.4083-2.17183l1.4149-3.96852zm-.1678,6.75745-1.2013,3.2763c.8939.5844,1.4841,1.6002,1.4841,2.7534,0,1.8048-1.4479,3.2778-3.24601,3.2778-.14858,0-.29501-.0101-.43861-.0297L4.2787,31.1106c-.13382.3869.23015.733.58557.614l.00005-.0001,2.9049-.9723c-.03716-.19-.05606-.3863-.05489-.5869.00947-1.6111,1.30983-2.9195,2.91647-2.91,1.152.0067,2.1386.6896,2.6011,1.6685l11.3832-3.8101c-.0038-.0091-.0076-.0182-.0113-.0273-.0023-.0058-.0046-.0115-.0069-.0173-2.4225-6.1092-7.1537-11.0162-13.1009-13.6423zm.7776,17.8178c-.3236-.5887-.9419-.9852-1.6487-.9893-1.04352-.0062-1.9043.8461-1.91058,1.9159-.00052.0881.00477.1747.01548.2595l3.5438-1.1861zm-3.82311-9.5118,1.48656-4.0542c.51265.417.84175,1.0578.84175,1.7779,0,1.2635-1.01097,2.2778-2.24601,2.2778-.02756,0-.055-.0005-.0823-.0015zM14.0438,4.33081c-.5518-.23399-1.22.06283-1.4381.67438l-1.4149,3.96852c-.214.60021.0831,1.26249.69,1.52989,6.197,2.7303,11.1241,7.8379,13.6457,14.1969.2491.6282.8924.9379,1.4792.7433l3.9672-1.3151c.6024-.1996.9277-.8685.7075-1.4468-3.1557-8.2891-9.5611-14.9262-17.6366-18.35109zM16.5002,20.75c-.9665,0-1.75.7835-1.75,1.75s.7835,1.75,1.75,1.75,1.75-.7835,1.75-1.75-.7835-1.75-1.75-1.75zm-2.75,1.75c0-1.5188,1.2312-2.75,2.75-2.75s2.75,1.2312,2.75,2.75-1.2312,2.75-2.75,2.75-2.75-1.2312-2.75-2.75z"/></svg>