<svg width="24" height="24" viewBox="0,0,24,24" xmlns="http://www.w3.org/2000/svg"><path fill-rule="evenodd" clip-rule="evenodd" d="m7.61893,3.05693c.29443-.82579,1.22774-1.2937,2.06901-.93691C15.2812,4.49218,19.7149,9.08733,21.8991,14.8248c.3227.8475-.1553,1.7759-.9882,2.052l-2.6448.8768c-.5362.1777-1.077.0556-1.4817-.2576L3.50749,21.9399h-.00005c-.91732.3071-1.75359-.587-1.44047-1.4777l.00222-.0063.00004.0001L6.91598,7.2374c-.3201-.42226-.43533-.9879-.24034-1.53479l.94329-2.64568zM7.759,7.84307l-.69508,1.8957c.57986.42833.95535,1.12013.95535,1.89893,0,1.2934-1.03807,2.3519-2.33068,2.3519-.06075,0-.12102-.0024-.18071-.007l-2.49827,6.8135c-.04435.1311.07942.2294.18037.1956l.00006-.0001,1.8027-.6033c-.01141-.0915-.01701-.1847-.01646-.2791.00684-1.1643.94701-2.1125,2.11194-2.1057.78223.0046,1.45807.439,1.81554,1.0757l7.28564-2.4386c-1.5919-3.9147-4.6252-7.06724-8.4304-8.79753zm.16338,11.56463c-.2012-.2463-.50392-.4022-.84003-.4042-.58349-.0034-1.07181.4591-1.10438,1.055l1.94441-.6508zm-2.04545-6.4316.81597-2.2254c.20303.237.32637.5469.32637.887,0,.6862-.50052,1.2457-1.14234,1.3384zM9.2975,3.04065c-.27313-.11584-.6211.02803-.73665.35211l-.94329,2.64568c-.11147.31263.0404.66613.37023.81145,4.17151,1.83792,7.48771,5.27581,9.18491,9.55571.1366.3444.4791.4981.7787.3988l2.6448-.8768c.3154-.1045.48-.4539.3684-.747C18.8769,9.6968,14.6392,5.30613,9.2975,3.04065zM11.0002,14c-.5523,0-1,.4477-1,1s.4477,1,1,1,1-.4477,1-1-.4477-1-1-1zm-2.00003,1c0-1.1046.89543-2,2.00003-2,1.1045,0,2,.8954,2,2s-.8955,2-2,2c-1.1046,0-2.00003-.8954-2.00003-2z"/></svg>