<svg width="24" height="24" xmlns="http://www.w3.org/2000/svg"><path fill-rule="evenodd" clip-rule="evenodd" d="m22.5,0h-21C.675,0,0,.675,0,1.5v21c0,.825.675,1.5,1.5,1.5h21c.825,0,1.5-.675,1.5-1.5v-21c0-.825-.675-1.5-1.5-1.5z" fill="#2d327d"/><path fill-rule="evenodd" clip-rule="evenodd" d="m16.1851,7.50745v2.4h-5.4375l-.585,3.03745c.6525-.69,1.485-1.035,2.4975-1.035.9975,0,1.8675.27,2.6025.8026,1.095.8024,1.6425,2.0324,1.6425,3.675,0,1.6124-.585,2.8874-1.755,3.8324-.9075.735-2.0025,1.11-3.27,1.11-1.425,0-2.57254-.3825-3.44254-1.1475s-1.3275-1.8-1.3725-3.105h2.6475c.045.4725.195.8775.46504,1.2075.4125.525.9825.7875,1.7175.7875.705,0,1.2675-.255,1.68-.765.3975-.4949.6-1.1025.6-1.815,0-.7725-.21-1.395-.63-1.86s-.975-.6975-1.6725-.6975c-.8475,0-1.5075.3825-1.98754,1.1475l-2.4075-.0375,1.2975-7.53745h7.41004z" fill="#fff"/><path fill-rule="evenodd" clip-rule="evenodd" d="m5.03255,3-.75,2.25h-.555L2.99255,3h.51l.5025,1.68751L4.51505,3h.5175z" fill="#fff"/><path fill-rule="evenodd" clip-rule="evenodd" d="m6.47251,3.76502c-.1575-.1575-.3525-.24-.6-.24-.27,0-.4875.09-.645.2625-.1425.165-.2175.3675-.2175.6225s.075.465.225.63c.15.17251.36.255.6225.255.2475,0,.45-.08249.6-.23249.165-.16501.2475-.38251.2475-.66001,0-.2625-.0825-.48-.2325-.6375zm-.9075.24751c.075-.09751.165-.14251.285-.14251.1275,0,.2325.0525.2925.15001.0675.08999.105.225.105.39,0,.18-.0375.31499-.1125.4125-.0675.0825-.165.1275-.2775.1275-.12,0-.2175-.05251-.2925-.14251-.0675-.09-.105-.225-.105-.3975,0-.17249.0375-.3.105-.39749z" fill="#fff"/><path fill-rule="evenodd" clip-rule="evenodd" d="m7.4475,3.405V3H7.005v.405h.4425zm0,1.845V3.57H7.005v1.68h.4425z" fill="#fff"/><path fill-rule="evenodd" clip-rule="evenodd" d="m9.1951,4.98747c.06-.08251.105-.16501.1275-.26251h-.435c-.03.075-.075.135-.1275.1725s-.12.0525-.2025.0525c-.1725,0-.285-.0675-.345-.2175-.0225-.0525-.03-.12-.0375-.2025h1.1775c0-.2025-.015-.3675-.0675-.495s-.12-.24-.225-.33c-.1425-.1275-.315-.1875-.5175-.1875-.2475,0-.45.09-.6075.2775-.1425.165-.21.36751-.21.615,0,.12.015.2475.06.36.045.105.0975.2025.1725.2775.15.1575.3525.24001.6.24001.2775,0,.4875-.09752.6375-.3zm-.30073-.76501c.00026.00248.0005.00498.00073.0075v-.0075h-.00073zm0,0c-.00814-.0791-.02996-.1441-.05177-.195-.03-.0525-.0675-.0975-.12-.1275s-.1125-.045-.1725-.045c-.0975,0-.18.03-.2475.0975s-.105.1575-.1125.27h.70427z" fill="#fff"/></svg>