<svg width="24" height="24" xmlns="http://www.w3.org/2000/svg"><path fill-rule="evenodd" clip-rule="evenodd" d="m22.5,0h-21C.675,0,0,.675,0,1.5v21c0,.825.675,1.5,1.5,1.5h21c.825,0,1.5-.675,1.5-1.5v-21c0-.825-.675-1.5-1.5-1.5z" fill="#2d327d"/><path fill-rule="evenodd" clip-rule="evenodd" d="m10.995,9.75751v1.90499c-.06.0675-.24.2775-.5475.6225-.42.48-.83998,1.0875-1.25248,1.8225-.4125.7275-.735,1.4325-.9675,2.1-.4875,1.4025-.78,3-.885,4.7925h-2.325c.015-.8475.165-1.785.4425-2.8125s.6675-2.0625,1.155-3.09c.705-1.455,1.4175-2.5425,2.1375-3.255h-5.295V9.75751H10.995z" fill="#fff"/><path fill-rule="evenodd" clip-rule="evenodd" d="m19.0801,10.275c-.645-.52502-1.4025-.78751-2.2575-.78751-.675,0-1.29.15749-1.86.48749-.555.31502-1.005.76502-1.35,1.35002-.6075,1.02-.9075,2.3775-.9075,4.0725,0,2.385.585,4.065,1.74,5.0475.6525.555,1.44.8325,2.355.8325.675,0,1.2825-.165,1.83-.495s.99-.795,1.3275-1.4025c.5775-1.0425.8625-2.37.8625-3.9825,0-.975-.1125-1.875-.33-2.7075-.2925-1.0875-.765-1.89-1.41-2.415zm-3.8475,2.385c.27-.8475.7725-1.275,1.5075-1.275.7575,0,1.275.4275,1.5525,1.275.2175.66.3225,1.5675.3225,2.715,0,1.35-.15,2.355-.45,3.0075-.3075.6525-.765.9825-1.3875.9825-.75,0-1.26-.42-1.5375-1.2675-.2175-.6525-.3225-1.515-.3225-2.595,0-1.215.105-2.1675.315-2.8425z" fill="#fff"/><path fill-rule="evenodd" clip-rule="evenodd" d="m5.03255,3-.75,2.25h-.555L2.99255,3h.51l.5025,1.68751L4.51505,3h.5175z" fill="#fff"/><path fill-rule="evenodd" clip-rule="evenodd" d="m6.47251,3.76502c-.1575-.1575-.3525-.24-.6-.24-.27,0-.4875.09-.645.2625-.1425.165-.2175.3675-.2175.6225s.075.465.225.63c.15.17251.36.255.6225.255.2475,0,.45-.08249.6-.23249.165-.16501.2475-.38251.2475-.66001,0-.2625-.0825-.48-.2325-.6375zm-.9075.24751c.075-.09751.165-.14251.285-.14251.1275,0,.2325.0525.2925.15001.0675.08999.105.225.105.39,0,.18-.0375.31499-.1125.4125-.0675.0825-.165.1275-.2775.1275-.12,0-.2175-.05251-.2925-.14251-.0675-.09-.105-.225-.105-.3975,0-.17249.0375-.3.105-.39749z" fill="#fff"/><path fill-rule="evenodd" clip-rule="evenodd" d="m7.4475,3.405V3H7.005v.405h.4425zm0,1.845V3.57H7.005v1.68h.4425z" fill="#fff"/><path fill-rule="evenodd" clip-rule="evenodd" d="m9.1951,4.98753c.06-.08251.105-.16501.1275-.26251h-.435c-.03.075-.075.135-.1275.1725s-.12.0525-.2025.0525c-.1725,0-.285-.0675-.345-.2175-.0225-.0525-.03-.12-.0375-.2025h1.1775c0-.2025-.015-.3675-.0675-.495s-.12-.24-.225-.33c-.1425-.1275-.315-.1875-.5175-.1875-.2475,0-.45.09-.6075.2775-.1425.165-.21.36751-.21.615,0,.12.015.2475.06.36.045.105.0975.2025.1725.2775.15.1575.3525.24001.6.24001.2775,0,.4875-.09751.6375-.3zm-.30073-.76501c.00026.00248.0005.00498.00073.0075v-.0075h-.00073zm0,0c-.00814-.0791-.02996-.1441-.05177-.195-.03-.0525-.0675-.0975-.12-.1275s-.1125-.045-.1725-.045c-.0975,0-.18.03-.2475.0975s-.105.1575-.1125.27h.70427z" fill="#fff"/></svg>