<svg width="24" height="24" viewBox="0,0,24,24" xmlns="http://www.w3.org/2000/svg"><path fill-rule="evenodd" clip-rule="evenodd" d="m22.5,0h-21C.675,0,0,.675,0,1.5v21c0,.825.675,1.5,1.5,1.5h21c.825,0,1.5-.675,1.5-1.5v-21c0-.825-.675-1.5-1.5-1.5z" fill="#2d327d"/><path fill-rule="evenodd" clip-rule="evenodd" d="m8.82746,7.50745V20.9999h-2.6925v-8.835h-3.18v-1.9575c.66-.015,1.1925-.0825,1.6125-.2025.4125-.11995.795-.30745,1.14-.56995.495-.3825.8325-1.0275,1.005-1.9275h2.115z" fill="#fff"/><path fill-rule="evenodd" clip-rule="evenodd" d="m18.2475,10.8751h2.565c-.1275-.87754-.42-1.60504-.8776-2.18254-.7949-1.005-1.9425-1.5075-3.4349-1.5075-1.59,0-2.8425.63-3.7575,1.89-.945,1.30504-1.4175,3.10504-1.4175,5.40754,0,2.1525.4425,3.8325,1.3275,5.0325.885,1.2075,2.13,1.8075,3.72,1.8075,1.245,0,2.31-.4125,3.195-1.245.9825-.93,1.4775-2.145,1.4775-3.6675,0-1.2825-.36-2.3475-1.095-3.195-.765-.9-1.785-1.35-3.0525-1.35-.645,0-1.2.12-1.6575.36s-.8925.6375-1.2975,1.185c.105-1.005.24-1.7625.4125-2.2575.42-1.22254,1.125-1.83754,2.1225-1.83754.9375,0,1.53.5175,1.77,1.56004zm-3.54,3.9c.375-.54.8925-.81,1.5375-.81.6975,0,1.245.2925,1.6575.855.33.465.495,1.0275.495,1.6875,0,.675-.1875,1.2525-.555,1.7475-.3975.525-.915.7875-1.56.7875-.66,0-1.185-.2775-1.5675-.825-.3525-.495-.525-1.065-.525-1.725,0-.6675.1725-1.2375.5175-1.7175z" fill="#fff"/><path fill-rule="evenodd" clip-rule="evenodd" d="m5.03243,3-.75,2.25h-.555L2.99243,3h.51l.5025,1.68751L4.51493,3h.5175z" fill="#fff"/><path fill-rule="evenodd" clip-rule="evenodd" d="m6.47251,3.76502c-.1575-.1575-.3525-.24-.6-.24-.27,0-.4875.09-.645.2625-.1425.165-.2175.3675-.2175.6225s.075.465.225.63c.15.17251.36.255.6225.255.2475,0,.45-.08249.6-.23249.165-.16501.2475-.38251.2475-.66001,0-.2625-.0825-.48-.2325-.6375zm-.9075.24751c.075-.09751.165-.14251.285-.14251.1275,0,.2325.0525.2925.15001.0675.08999.105.225.105.39,0,.18-.0375.31499-.1125.4125-.0675.0825-.165.1275-.2775.1275-.12,0-.2175-.05251-.2925-.14251-.0675-.09-.105-.225-.105-.3975,0-.17249.0375-.3.105-.39749z" fill="#fff"/><path fill-rule="evenodd" clip-rule="evenodd" d="m7.4475,3.405V3H7.005v.405h.4425zm0,1.845V3.57H7.005v1.68h.4425z" fill="#fff"/><path fill-rule="evenodd" clip-rule="evenodd" d="m9.19498,4.98747c.06-.08251.105-.16501.1275-.26251h-.435c-.03.075-.075.135-.1275.1725s-.12.0525-.2025.0525c-.1725,0-.285-.0675-.345-.2175-.0225-.0525-.03-.12-.0375-.2025h1.1775c0-.2025-.015-.3675-.0675-.495s-.12-.24-.225-.33c-.1425-.1275-.315-.1875-.5175-.1875-.2475,0-.45.09-.6075.2775-.1425.165-.21.36751-.21.615,0,.12.015.2475.06.36.045.105.0975.2025.1725.2775.15.1575.3525.24001.6.24001.2775,0,.4875-.09752.6375-.3zm-.30073-.76501c.00026.00248.0005.00498.00073.0075v-.0075h-.00073zm0,0c-.00815-.0791-.02996-.1441-.05177-.195-.03-.0525-.0675-.0975-.12-.1275-.05251-.03-.1125-.045-.1725-.045-.0975,0-.18.03-.2475.0975-.06751.0675-.105.1575-.1125.27h.70427z" fill="#fff"/></svg>