<svg width="24" height="24" xmlns="http://www.w3.org/2000/svg"><path fill-rule="evenodd" clip-rule="evenodd" d="m22.5,0h-21C.675,0,0,.675,0,1.5v21c0,.825.675,1.5,1.5,1.5h21c.825,0,1.5-.675,1.5-1.5v-21c0-.825-.675-1.5-1.5-1.5z" fill="#2d327d"/><path fill-rule="evenodd" clip-rule="evenodd" d="m11.2725,19.0049v1.995H3.17249c0-.6075.0975-1.1925.2925-1.7475s.4725-1.0275.8325-1.4325c.2775-.3075.6-.6075.975-.9s1.11-.825,2.22-1.605c.54-.375.915-.72,1.1325-1.0425s.3225-.6975.3225-1.125c0-.495-.1425-.8925-.435-1.1925-.2925-.3075-.6675-.4575-1.14-.4575-1.155,0-1.755.8325-1.7925,2.4975h-2.16v-.2475c0-1.365.38249-2.4225,1.1475-3.165.7425-.72747,1.7025-1.09497,2.88749-1.09497,1.0425,0,1.92001.3,2.62502.89247.765.645,1.1475,1.515,1.1475,2.61,0,.9525-.3075,1.7775-.915,2.46-.2025.225-.39001.405-.56251.54-.17251.135-.63.465-1.38.9825-.705.495-1.215.87-1.5225,1.1325s-.585.5625-.8475.9h5.27251z" fill="#fff"/><path fill-rule="evenodd" clip-rule="evenodd" d="m18.5025,9.75745V20.9999H16.26v-7.3575h-2.655v-1.6275c.5475-.015.9975-.075,1.3425-.1725s.66-.2549.9525-.4799c.4125-.3151.6975-.8551.84-1.60505h1.7625z" fill="#fff"/><path fill-rule="evenodd" clip-rule="evenodd" d="m5.09249,4.03494v1.215h-.315l-.0525-.255c-.165.21-.39.3075-.675.3075-.345,0-.615-.1275-.81-.3825-.165-.21-.2475-.4725-.2475-.7875,0-.3525.105-.64499.3225-.86999.2025-.21001.465-.32251.78-.32251.2925,0,.5325.09751.72.285.135.1425.2175.315.24.51h-.4725c-.0225-.12-.0825-.2175-.165-.285s-.195-.105-.3225-.105c-.2025,0-.3525.075-.465.2325-.0975.13501-.1425.315-.1425.5475,0,.225.045.3975.135.5325.1125.1575.27.24.4875.24.1575,0,.285-.045.3825-.1425s.15-.2175.1575-.3675h-.5025v-.36l.945.0075z" fill="#fff"/><path fill-rule="evenodd" clip-rule="evenodd" d="m5.90246,3v2.25h-.4425V3h.4425z" fill="#fff"/><path fill-rule="evenodd" clip-rule="evenodd" d="m7.64999,4.98747c.06-.08251.105-.16501.1275-.26251h-.4275c-.03.075-.075.135-.1275.1725s-.12.0525-.2025.0525c-.1725,0-.285-.0675-.345-.2175-.0225-.0525-.03-.12-.0375-.2025h1.17c0-.2025-.015-.3675-.0675-.495s-.12-.24-.225-.33c-.1425-.1275-.315-.1875-.5175-.1875-.2475,0-.45.09-.6075.2775-.1425.165-.21.36751-.21.615,0,.12.015.2475.06.36.045.105.0975.2025.1725.2775.15.1575.3525.24001.6.24001.2775,0,.4875-.09752.6375-.3zm-.30822-.76501c.00025.00248.00049.00498.00072.0075v-.0075h-.00072zm0,0c-.00815-.0791-.02996-.1441-.05178-.195-.03-.0525-.0675-.0975-.12-.1275s-.1125-.045-.1725-.045c-.0975,0-.18.03-.2475.0975s-.105.1575-.1125.27h.70428z" fill="#fff"/><path fill-rule="evenodd" clip-rule="evenodd" d="m8.52752,3.405V3h-.4425v.405h.4425zm0,1.845V3.57h-.4425v1.68h.4425z" fill="#fff"/><path fill-rule="evenodd" clip-rule="evenodd" d="m10.245,4.0574h-.42002c-.0075-.06-.0225-.0975-.045-.1275-.045-.06-.135-.09-.255-.09-.0825,0-.14249.015-.18.045-.03749.03-.06749.0675-.06749.12s.0225.0975.075.12.1575.0525.33.09c.21749.045.37501.09751.46501.165.1125.075.1725.195.1725.3525,0,.18-.0675.315-.21.42-.13501.0975-.32251.1425-.54752.1425-.2775,0-.4875-.0675-.615-.21-.09-.0975-.135-.225-.14999-.3825h.4275c.00749.075.02999.135.05999.1725.06001.0675.15001.105.28501.105.08999,0,.165-.015.2175-.0525.05249-.0375.0825-.08999.0825-.15,0-.06-.02251-.0975-.0675-.1275-.045-.03-.1425-.06-.2925-.0975-.1425-.0375-.2475-.06-.3075-.0825s-.1125-.045-.165-.0675c-.06-.0375-.1125-.0825-.1425-.15s-.0525-.135-.0525-.2175c0-.1725.075-.3075.2175-.3975.12-.075.285-.1125.495-.1125.2775,0,.48001.0675.60001.21.045.075.0825.1875.09.3225z" fill="#fff"/></svg>