<svg width="24" height="24" xmlns="http://www.w3.org/2000/svg"><path fill-rule="evenodd" clip-rule="evenodd" d="m22.5,0h-21C.675,0,0,.675,0,1.5v21c0,.825.675,1.5,1.5,1.5h21c.825,0,1.5-.675,1.5-1.5v-21c0-.825-.675-1.5-1.5-1.5z" fill="#2d327d"/><path fill-rule="evenodd" clip-rule="evenodd" d="m3.41251,13.32c.0225-.9225.255-1.695.6825-2.325.6975-1.00502,1.7475-1.50751,3.1425-1.50751,1.08,0,1.9425.27749,2.61.82501.71249.5925,1.07249,1.365,1.07249,2.31,0,.5625-.1425,1.05-.42,1.455s-.65999.6825-1.13249.825c.6075.135,1.07999.4425,1.43249.9225s.525,1.05.525,1.7325c0,1.11-.4125,2.025-1.23,2.73-.75749.66-1.71749.9825-2.87249.9825-1.2525,0-2.25-.36-2.985-1.0875-.735-.72-1.1025-1.7025-1.1025-2.9325,0-.0225,0-.075,0-.1425h2.16c0,.69.165,1.23.495,1.605s.795.5625,1.395.5625,1.0575-.18,1.3875-.5325c.3-.33.4425-.7275.4425-1.1925,0-.555-.1875-.99-.57-1.3125-.315-.27-.795-.3975-1.4475-.3975-.1875,0-.3675.0075-.5475.03v-1.65c.135.0075.2625.015.3825.015,1.29,0,1.935-.48,1.935-1.44,0-.42-.1425-.7575-.42-1.02-.285-.2625-.6525-.39-1.1175-.39-.525,0-.9375.165-1.2225.495s-.4425.81-.465,1.44h-2.13z" fill="#fff"/><path fill-rule="evenodd" clip-rule="evenodd" d="m19.08,10.275c-.645-.52502-1.4025-.78751-2.2575-.78751-.675,0-1.2975.15749-1.86.48749-.555.31502-1.005.76502-1.35,1.35002-.6075,1.02-.9075,2.3775-.9075,4.0725,0,2.385.585,4.065,1.74,5.0475.6525.555,1.44.8325,2.355.8325.675,0,1.2825-.165,1.83-.495s.99-.795,1.3275-1.4025c.5775-1.0425.8625-2.37.8625-3.9825,0-.975-.1125-1.875-.33-2.7075-.2925-1.0875-.765-1.89-1.41-2.415zm-3.8475,2.3925c.27-.8475.7725-1.275,1.5075-1.275.7575,0,1.275.42,1.5525,1.275.2175.66.3225,1.5675.3225,2.715,0,1.35-.15,2.355-.45,3.0075-.3075.6525-.765.9825-1.3875.9825-.75,0-1.26-.42-1.5375-1.2675-.2175-.6525-.3225-1.515-.3225-2.595,0-1.215.105-2.1675.315-2.8425z" fill="#fff"/><path fill-rule="evenodd" clip-rule="evenodd" d="m3,3h1.0125c.2175,0,.3825.03.4875.0825.0975.0525.18.1275.225.225.045.0825.0675.1725.0675.2625,0,.105-.0225.195-.075.2775s-.1275.1425-.225.1875c.0825.03.15.06.195.09.1425.105.2175.2625.2175.465,0,.12-.03.2325-.0825.3225s-.1275.1725-.2325.2325c-.12.0675-.2775.105-.48.105H3V3zm.495.3825v.525h.45c.105,0,.18-.015.2325-.0375.09-.045.135-.12.135-.225,0-.09-.03-.15749-.0825-.195-.0525-.03749-.15-.06-.285-.06-.0075-.0075-.45-.0075-.45-.0075zm0,1.4775v-.615h.465c.135,0,.225.015.285.0375.105.045.1575.135.1575.27,0,.1125-.0375.195-.1125.2475-.06.0375-.1575.06-.3.06h-.495z" fill="#fff"/><path fill-rule="evenodd" clip-rule="evenodd" d="m5.64001,3.405V3h-.4425v.405h.4425zm0,1.845V3.57h-.4425v1.68h.4425z" fill="#fff"/><path fill-rule="evenodd" clip-rule="evenodd" d="m6.41999,3.57002v.2325c.0525-.075.0975-.1275.1425-.1575.1125-.08249.2475-.1275.3975-.1275.135,0,.255.0375.3525.105.075.0525.1275.1275.1575.21s.045.2025.045.36v1.0575h-.4425v-.96c0-.105-.0075-.1875-.03-.24-.015-.045-.045-.0825-.09-.105-.045-.03-.105-.045-.165-.045-.0675,0-.1275.015-.1875.0525s-.0975.075-.12.13501c-.03.05999-.045.16499-.045.3v.86249h-.4425v-1.68h.4275z" fill="#fff"/><path fill-rule="evenodd" clip-rule="evenodd" d="m8.92497,5.24998h.4575c-.03-.0675-.045-.1125-.0525-.1725s-.0075-.15-.0075-.27v-.345c.0075-.2025.0075-.315.0075-.3375,0-.1275-.015-.2175-.03-.27s-.0525-.105-.1125-.1575c-.1275-.105-.315-.1575-.5775-.1575-.2325,0-.4125.045-.54.1425-.1275.09-.195.2325-.21.42h.42c.015-.0975.0525-.1575.0975-.195s.12-.0525.225-.0525c.195,0,.2925.0675.2925.2175,0,.0675-.0225.1125-.0675.135s-.15.045-.33.0675c-.21.03-.3525.06-.4275.09-.1875.0825-.285.225-.285.435,0,.165.0525.2925.165.3825.0975.0825.2325.12.405.12.2175,0,.3975-.075.54-.2175,0,.045.0075.0975.03.165zm-.3525-.7275c.15-.015.255-.045.315-.0825v.18c0,.0525,0,.105-.015.135-.00243.00487-.00487.00993-.00737.01513-.01289.02684-.0275.05724-.05263.08237-.075.09-.18.13501-.315.13501-.0825,0-.1425-.02251-.1875-.06001s-.0675-.0975-.0675-.16499c0-.08251.03-.14251.0975-.18001.0525-.0225.1275-.045.2325-.06z" fill="#fff"/><path fill-rule="evenodd" clip-rule="evenodd" d="m10.7175,3.53997v.435c-.075-.015-.1275-.0225-.1725-.0225-.165,0-.285.0675-.3675.21001-.045.075-.0675.20999-.0675.38999v.6975h-.44252v-1.68h.42752v.3075c.12-.225.3-.345.525-.345.0225,0,.06.0075.0975.0075z" fill="#fff"/><path fill-rule="evenodd" clip-rule="evenodd" d="m11.37,3.405V3h-.4425v.405h.4425zm0,1.845V3.57h-.4425v1.68h.4425z" fill="#fff"/><path fill-rule="evenodd" clip-rule="evenodd" d="m13.1325,3.76502c-.1575-.1575-.3525-.24-.6-.24-.27,0-.4875.09-.645.2625-.1425.165-.2175.3675-.2175.6225s.075.465.225.63c.15.17251.36.255.6225.255.2475,0,.45-.08249.6-.23249.165-.16501.2475-.38251.2475-.66001,0-.2625-.0825-.48-.2325-.6375zm-.9075.24751c.075-.09751.165-.14251.285-.14251.1275,0,.2325.0525.2925.15001.0675.08999.105.225.105.39,0,.18-.0375.31499-.1125.4125-.0675.0825-.165.1275-.2775.1275-.12,0-.2175-.05251-.2925-.14251-.0675-.09-.105-.225-.105-.3975,0-.17249.0375-.3.105-.39749z" fill="#fff"/></svg>