<svg width="24" height="24" xmlns="http://www.w3.org/2000/svg"><path fill-rule="evenodd" clip-rule="evenodd" d="m22.5,0h-21C.675,0,0,.675,0,1.5v21c0,.825.675,1.5,1.5,1.5h21c.825,0,1.5-.675,1.5-1.5v-21c0-.825-.675-1.5-1.5-1.5z" fill="#2d327d"/><path fill-rule="evenodd" clip-rule="evenodd" d="m3.41251,13.32c.0225-.9225.255-1.695.6825-2.325.6975-1.00502,1.7475-1.50751,3.1425-1.50751,1.08,0,1.9425.27749,2.61.82501.71249.5925,1.07249,1.365,1.07249,2.31,0,.5625-.1425,1.05-.42,1.455s-.65999.6825-1.13249.825c.6075.135,1.07999.4425,1.43249.9225s.525,1.05.525,1.7325c0,1.11-.4125,2.025-1.23,2.73-.75749.66-1.71749.9825-2.87249.9825-1.2525,0-2.25-.36-2.985-1.0875-.735-.72-1.1025-1.7025-1.1025-2.9325,0-.0225,0-.075,0-.1425h2.16c0,.69.165,1.23.495,1.605s.795.5625,1.395.5625,1.0575-.18,1.3875-.5325c.3-.33.4425-.7275.4425-1.1925,0-.555-.1875-.99-.57-1.3125-.315-.27-.795-.3975-1.4475-.3975-.1875,0-.3675.0075-.5475.03v-1.65c.135.0075.2625.015.3825.015,1.29,0,1.935-.48,1.935-1.44,0-.42-.1425-.7575-.42-1.02-.285-.2625-.6525-.39-1.1175-.39-.525,0-.9375.165-1.2225.495s-.4425.81-.465,1.44h-2.13z" fill="#fff"/><path fill-rule="evenodd" clip-rule="evenodd" d="m12.96,13.32c.0225-.9225.255-1.695.6825-2.325C14.34,9.98998,15.39,9.48749,16.785,9.48749c1.08,0,1.9425.27749,2.61.82501.7125.5925,1.0725,1.365,1.0725,2.31,0,.5625-.1425,1.05-.42,1.455s-.66.6825-1.1325.825c.6075.135,1.08.4425,1.4325.9225s.525,1.05.525,1.7325c0,1.11-.4125,2.025-1.23,2.73-.7575.66-1.7175.9825-2.88.9825-1.2525,0-2.25-.36-2.985-1.0875-.735-.72-1.1025-1.7025-1.1025-2.9325,0-.0225,0-.075,0-.1425h2.16c0,.69.165,1.23.495,1.605s.795.5625,1.395.5625,1.0575-.18,1.3875-.5325c.3-.33.4425-.7275.4425-1.1925,0-.555-.1875-.99-.57-1.3125-.315-.27-.795-.3975-1.4475-.3975-.1875,0-.3675.0075-.5475.03v-1.65c.135.0075.2625.015.3825.015,1.29,0,1.935-.48,1.935-1.44,0-.42-.1425-.7575-.42-1.02-.285-.2625-.6525-.39-1.1175-.39-.525,0-.9375.165-1.2225.495s-.4425.81-.465,1.44H12.96z" fill="#fff"/><path fill-rule="evenodd" clip-rule="evenodd" d="m5.03249,3-.75,2.25h-.555L2.99249,3h.51l.5025,1.68751L4.51499,3h.5175z" fill="#fff"/><path fill-rule="evenodd" clip-rule="evenodd" d="m6.47251,3.76502c-.1575-.1575-.3525-.24-.6-.24-.27,0-.4875.09-.645.2625-.1425.165-.2175.3675-.2175.6225s.075.465.225.63c.15.17251.36.255.6225.255.2475,0,.45-.08249.6-.23249.165-.16501.2475-.38251.2475-.66001,0-.2625-.0825-.48-.2325-.6375zm-.9075.24751c.075-.09751.165-.14251.285-.14251.1275,0,.2325.0525.2925.15001.0675.08999.105.225.105.39,0,.18-.0375.31499-.1125.4125-.0675.0825-.165.1275-.2775.1275-.12,0-.2175-.05251-.2925-.14251-.0675-.09-.105-.225-.105-.3975,0-.17249.0375-.3.105-.39749z" fill="#fff"/><path fill-rule="evenodd" clip-rule="evenodd" d="m7.4475,3.405V3H7.005v.405h.4425zm0,1.845V3.57H7.005v1.68h.4425z" fill="#fff"/><path fill-rule="evenodd" clip-rule="evenodd" d="m9.19498,4.98753c.06-.08251.105-.16501.1275-.26251h-.435c-.03.075-.075.135-.1275.1725s-.12.0525-.2025.0525c-.1725,0-.285-.0675-.345-.2175-.0225-.0525-.03-.12-.0375-.2025h1.1775c0-.2025-.015-.3675-.0675-.495s-.12-.24-.225-.33c-.1425-.1275-.315-.1875-.5175-.1875-.2475,0-.45.09-.6075.2775-.1425.165-.21.36751-.21.615,0,.12.015.2475.06.36.045.105.0975.2025.1725.2775.15.1575.3525.24001.6.24001.2775,0,.4875-.09751.6375-.3zm-.30073-.76501c.00026.00248.0005.00498.00073.0075v-.0075h-.00073zm0,0c-.00815-.0791-.02996-.1441-.05177-.195-.03-.0525-.0675-.0975-.12-.1275-.05251-.03-.1125-.045-.1725-.045-.0975,0-.18.03-.2475.0975-.06751.0675-.105.1575-.1125.27h.70427z" fill="#fff"/></svg>