<svg width="24" height="24" xmlns="http://www.w3.org/2000/svg"><path fill-rule="evenodd" clip-rule="evenodd" d="m22.5,0h-21C.675,0,0,.675,0,1.5v21c0,.825.675,1.5,1.5,1.5h21c.825,0,1.5-.675,1.5-1.5v-21c0-.825-.675-1.5-1.5-1.5z" fill="#2d327d"/><path fill-rule="evenodd" clip-rule="evenodd" d="m9.92258,17.6099h-2.55c.12,1.1325.5775,2.04,1.365,2.7075.795.6675,1.79252,1.005,3.00752,1.005,1.8225,0,3.18-.8625,4.08-2.595.69-1.3275,1.035-2.9325,1.035-4.815,0-2.0325-.39-3.615-1.17-4.73996-.4425-.6375-.99-1.125-1.6425-1.47s-1.3575-.5175-2.13-.5175c-1.245,0-2.31752.405-3.21002,1.215-1.0425.9375-1.56,2.16746-1.56,3.68996,0,.7575.1425,1.4625.4275,2.1075s.6825,1.17,1.1925,1.575c.735.5775,1.59752.87,2.58752.87.6225,0,1.1475-.1275,1.5825-.3675s.855-.6525,1.2675-1.23c-.06.66-.15,1.245-.27,1.7625-.195.81-.465,1.41-.8175,1.7925s-.8175.5775-1.38.5775c-.9975,0-1.605-.525-1.81502-1.5675zm.46502-7.4325c.405-.47246.8925-.71246,1.47-.71246.645,0,1.1625.255,1.56.77996.375.495.5625,1.095.5625,1.8,0,.6675-.1875,1.245-.5475,1.7325-.39.5175-.9075.7725-1.5525.7725-.7125,0-1.2675-.3225-1.6575-.9525-.29252-.465-.43502-.99-.43502-1.59,0-.7425.2025-1.35.60002-1.83z" fill="#fff"/><path fill-rule="evenodd" clip-rule="evenodd" d="m5.03255,3-.75,2.25h-.555L2.99255,3h.51l.5025,1.68751L4.51505,3h.5175z" fill="#fff"/><path fill-rule="evenodd" clip-rule="evenodd" d="m6.47251,3.76502c-.1575-.1575-.3525-.24-.6-.24-.27,0-.4875.09-.645.2625-.1425.165-.2175.3675-.2175.6225s.075.465.225.63c.15.17251.36.255.6225.255.2475,0,.45-.08249.6-.23249.165-.16501.2475-.38251.2475-.66001,0-.2625-.0825-.48-.2325-.6375zm-.9075.24751c.075-.09751.165-.14251.285-.14251.1275,0,.2325.0525.2925.15001.0675.08999.105.225.105.39,0,.18-.0375.31499-.1125.4125-.0675.0825-.165.1275-.2775.1275-.12,0-.2175-.05251-.2925-.14251-.0675-.09-.105-.225-.105-.3975,0-.17249.0375-.3.105-.39749z" fill="#fff"/><path fill-rule="evenodd" clip-rule="evenodd" d="m7.4475,3.405V3H7.005v.405h.4425zm0,1.845V3.57H7.005v1.68h.4425z" fill="#fff"/><path fill-rule="evenodd" clip-rule="evenodd" d="m9.1951,4.98747c.06-.08251.105-.16501.1275-.26251h-.435c-.03.075-.075.135-.1275.1725s-.12.0525-.2025.0525c-.1725,0-.285-.0675-.345-.2175-.0225-.0525-.03-.12-.0375-.2025h1.1775c0-.2025-.015-.3675-.0675-.495s-.12-.24-.225-.33c-.1425-.1275-.315-.1875-.5175-.1875-.2475,0-.45.09-.6075.2775-.1425.165-.21.36751-.21.615,0,.12.015.2475.06.36.045.105.0975.2025.1725.2775.15.1575.3525.24001.6.24001.2775,0,.4875-.09752.6375-.3zm-.30073-.76501c.00026.00248.0005.00498.00073.0075v-.0075h-.00073zm0,0c-.00814-.0791-.02996-.1441-.05177-.195-.03-.0525-.0675-.0975-.12-.1275s-.1125-.045-.1725-.045c-.0975,0-.18.03-.2475.0975s-.105.1575-.1125.27h.70427z" fill="#fff"/></svg>