<svg width="24" height="24" xmlns="http://www.w3.org/2000/svg"><path fill-rule="evenodd" clip-rule="evenodd" d="m22.5,0h-21C.675,0,0,.675,0,1.5v21c0,.825.675,1.5,1.5,1.5h21c.825,0,1.5-.675,1.5-1.5v-21c0-.825-.675-1.5-1.5-1.5z" fill="#2d327d"/><path fill-rule="evenodd" clip-rule="evenodd" d="m11.2726,19.005V21H3.17261c0-.6075.0975-1.1925.2925-1.7475s.4725-1.0275.8325-1.4325c.2775-.3075.6-.6075.975-.9s1.11-.825,2.22-1.605c.54-.375.915-.72,1.1325-1.0425s.3225-.6975.3225-1.125c0-.495-.1425-.8925-.435-1.1925-.2925-.3075-.6675-.4575-1.14-.4575-1.155,0-1.755.8325-1.7925,2.4975h-2.16v-.2475c0-1.365.3825-2.4225,1.1475-3.165.7425-.72751,1.7025-1.09501,2.8875-1.09501,1.0425,0,1.92.3,2.62499.89251.765.645,1.1475,1.515,1.1475,2.61,0,.9525-.3075,1.7775-.915,2.46-.2025.225-.38999.405-.56249.54s-.63.465-1.38.9825c-.705.495-1.215.87-1.5225,1.1325s-.585.5625-.8475.9h5.27249z" fill="#fff"/><path fill-rule="evenodd" clip-rule="evenodd" d="m15.0376,18.18h-2.1225c.105.945.48,1.695,1.14,2.2575s1.4925.84,2.505.84c1.515,0,2.6475-.72,3.3975-2.16.5775-1.1025.8625-2.445.8625-4.0125,0-1.695-.3225-3.015-.975-3.9525-.375-.525-.8325-.9375-1.3725-1.2225-.5475-.285-1.14-.4275-1.7775-.4275-1.0425,0-1.935.3375-2.6775,1.0125-.8625.78-1.2975,1.8075-1.2975,3.075,0,.63.12,1.215.36,1.755.24.5325.57.975.9975,1.3125.6075.48,1.3275.72,2.1525.72.5175,0,.96-.105,1.32-.3075s.7125-.5475,1.0575-1.0275c-.045.5475-.12,1.0425-.225,1.47-.1575.675-.39,1.17-.6825,1.4925s-.675.48-1.1475.48c-.8325,0-1.3425-.435-1.515-1.305zm.39-6.195c.33-.3975.7425-.5925,1.2225-.5925.54,0,.975.21,1.29.6375.315.4125.4725.9075.4725,1.5,0,.5625-.15,1.0425-.45,1.4475-.3225.4275-.75.645-1.29.645-.6,0-1.0575-.27-1.3875-.795-.24-.3825-.36-.825-.36-1.32,0-.615.1725-1.125.5025-1.5225z" fill="#fff"/><path fill-rule="evenodd" clip-rule="evenodd" d="m5.09255,4.035V5.25h-.315l-.0525-.255c-.165.21-.39.3075-.675.3075-.345,0-.615-.1275-.81-.3825-.165-.21-.2475-.4725-.2475-.7875,0-.3525.105-.64499.3225-.86999.2025-.21001.465-.32251.78-.32251.2925,0,.5325.09751.72.285.135.1425.2175.315.24.51h-.4725c-.0225-.12-.0825-.2175-.165-.285s-.195-.105-.3225-.105c-.2025,0-.3525.075-.465.2325-.0975.13501-.1425.315-.1425.5475,0,.225.045.3975.135.5325.1125.1575.27.24.4875.24.1575,0,.285-.045.3825-.1425s.15-.2175.1575-.3675h-.5025v-.36l.945.0075z" fill="#fff"/><path fill-rule="evenodd" clip-rule="evenodd" d="m5.90252,3v2.25h-.4425V3h.4425z" fill="#fff"/><path fill-rule="evenodd" clip-rule="evenodd" d="m7.65005,4.98753c.06-.08251.105-.16501.1275-.26251h-.4275c-.03.075-.075.135-.1275.1725s-.12.0525-.2025.0525c-.1725,0-.285-.0675-.345-.2175-.0225-.0525-.03-.12-.0375-.2025h1.17c0-.2025-.015-.3675-.0675-.495s-.12-.24-.225-.33c-.1425-.1275-.315-.1875-.5175-.1875-.2475,0-.45.09-.6075.2775-.1425.165-.21.36751-.21.615,0,.12.015.2475.06.36.045.105.0975.2025.1725.2775.15.1575.3525.24001.6.24001.2775,0,.4875-.09751.6375-.3zm-.30822-.76501c.00025.00248.0005.00498.00072.0075v-.0075h-.00072zm0,0c-.00815-.0791-.02996-.1441-.05178-.195-.03-.0525-.0675-.0975-.12-.1275s-.1125-.045-.1725-.045c-.0975,0-.18.03-.2475.0975s-.105.1575-.1125.27h.70428z" fill="#fff"/><path fill-rule="evenodd" clip-rule="evenodd" d="m8.52758,3.405V3h-.4425v.405h.4425zm0,1.845V3.57h-.4425v1.68h.4425z" fill="#fff"/><path fill-rule="evenodd" clip-rule="evenodd" d="m10.2451,4.05753h-.41999c-.0075-.06001-.0225-.09751-.045-.1275-.045-.06-.135-.09-.255-.09-.0825,0-.1425.015-.18.045s-.0675.0675-.0675.12.0225.0975.075.12c.0525.02249.1575.05249.33.08999.2175.045.37499.09752.46499.165.1125.075.1725.195.1725.3525,0,.18-.0675.315-.21.42-.13499.0975-.32249.1425-.54749.1425-.2775,0-.4875-.0675-.615-.21-.09-.0975-.135-.225-.15-.3825h.4275c.0075.075.03.135.06.1725.06.0675.15.105.285.105.09,0,.165-.015.2175-.0525s.0825-.08998.0825-.15c0-.06-.0225-.0975-.0675-.12749-.045-.03-.1425-.06001-.2925-.09751-.1425-.0375-.2475-.06-.3075-.0825-.06-.02249-.1125-.04499-.165-.0675-.06-.0375-.1125-.0825-.1425-.15s-.0525-.135-.0525-.2175c0-.1725.075-.3075.2175-.3975.12-.075.285-.1125.495-.1125.2775,0,.47999.0675.59999.21.045.07501.0825.18751.09.32251z" fill="#fff"/></svg>