<svg width="36" height="36" viewBox="0,0,36,36" xmlns="http://www.w3.org/2000/svg"><path fill-rule="evenodd" clip-rule="evenodd" d="m17.75,5.74951h1.75v-1H15v1h1.75v3.0011h.5c6.3509,0,11.5,5.14919,11.5,11.49999,0,6.3509-5.1491,11.5-11.5,11.5s-11.5-5.1491-11.5-11.5v-.741h-1v.741c0,6.9032,5.5969,12.5,12.5,12.5s12.5-5.5968,12.5-12.5c0-6.7357-5.3286-12.22769-12-12.49017V5.74951zm-.8431,20.04139,7.5-10.5-.8138-.5813-7.1569,10.0197-4.0826-4.0826-.7072.7071,4.9174,4.9174.3431-.4803zM14.9978,8.94763l-1.449.3885-.259-.96589,1.449-.3885.259.96589zm-4.1473,1.71827,1.299-.74998-.5-.86602-1.299.75.5.866zm-1.2018.9218-1.0605,1.0605-.70711-.7071,1.0605-1.0605.70711.7071zM6.91568,15.149l.75-1.299-.86602-.5-.75,1.299.86602.5zm-.57943,1.3997-.3885,1.449-.96589-.259.3885-1.449.96589.259z"/></svg>