<svg width="48" height="48" viewBox="0,0,48,48" xmlns="http://www.w3.org/2000/svg"><path fill-rule="evenodd" clip-rule="evenodd" d="m28,3.00024h-3v4.00629c3.7348.094,7.2089,1.23813,10.1379,3.14827l1.5083-1.50835.3536-.35356.3535.35356,4,3.99995.3536.3536-1.6893,1.6893C42.5162,17.9671,44,22.0603,44,26.5002c0,10.7692-8.7309,19.5-19.5,19.5-10.7702,0-19.5-8.7308-19.5-19.5C5,15.8973,13.461,7.27173,24,7.00653V3.00024h-3v-1h7v1zM39.3874,13.9053c-1.0063-1.1883-2.1523-2.2545-3.4126-3.1732l1.025-1.02499L40.2926,13l-.9052.9053zM6,26.5002C6,16.2824,14.2821,8.00024,24.5,8.00024c10.2169,0,18.5,8.28216,18.5,18.49996,0,10.2169-8.2831,18.5-18.5,18.5-10.2178,0-18.5-8.2831-18.5-18.5zm18.5-15.5H23v-1h1.5c9.1131,0,16.5,7.3869,16.5,16.5,0,9.1122-7.3868,16.5-16.5,16.5-9.1121,0-16.5-7.3878-16.5-16.5v-.5h1v.5c0,8.5599,6.9401,15.5,15.5,15.5,8.5608,0,15.5-6.9401,15.5-15.5,0-8.5608-6.9391-15.5-15.5-15.5zm-4.1345,24.3412,14-15-.731-.6823L20.0159,34.2505l-5.6363-6.5757-.7592.6508,6,7,.3637.4244.3814-.4086zm-1.3259-23.4251,1.932-.518-.2589-.9659-1.932.518.2589.9659zm-1.8564.9105-1.732,1-.5-.866,1.732-1,.5.866zm-4.7043,3.7736,1.415-1.414-.7068-.7073-1.415,1.414.7068.7073zm-1.1523,1.7165-1,1.732-.86605-.5.99995-1.732.8661.5zm-2.18689,5.6203.518-1.932-.96588-.259-.518,1.932.96588.259z"/></svg>