<svg width="36" height="36" viewBox="0,0,36,36" xmlns="http://www.w3.org/2000/svg"><path fill-rule="evenodd" clip-rule="evenodd" d="m12.7725,10.2855c-.6165.951-.957,2.2935-1.0215,4.029h2.406c.1965-3.06,1.539-4.58854,4.029-4.58854,1.203,0,2.112.38704,2.7285,1.16104.513.633.7695,1.4175.7695,2.349,0,.504-.09.999-.267,1.4835-.213.57-.666,1.2075-1.356,1.917-1.0725,1.0995-1.7655,1.851-2.0775,2.2515-.3135.402-.552.8535-.7215,1.3575-.2325.69-.3585,1.749-.3765,3.1755h2.3775c0-.8025.0465-1.4565.141-1.959.0825-.504.231-.9255.4395-1.266.21-.339.5805-.7665,1.113-1.2795,1.2015-1.176,1.962-1.9815,2.28-2.421.7095-.96,1.0635-2.1075,1.0635-3.441,0-1.6125-.522-2.9145-1.5675-3.90304-1.119-1.0725-2.625-1.608-4.518-1.608-1.176,0-2.235.237-3.1755.7125-.9435.477-1.698,1.152-2.2665,2.02954zM19.5434,28.47h-3.0225v-2.9085h3.0225V28.47z"/></svg>