<svg width="24" height="24" viewBox="0,0,24,24" xmlns="http://www.w3.org/2000/svg"><path fill-rule="evenodd" clip-rule="evenodd" d="m8.51498,6.85699c-.411.634-.638,1.529-.681,2.686h1.604c.131-2.04,1.02602-3.059,2.68602-3.059.802,0,1.408.258,1.819.774.342.422.513.945.513,1.566,0,.336-.06.666-.178.989-.142.38001-.444.80501-.904,1.27801-.715.733-1.177,1.234-1.385,1.501-.209.268-.368.569-.481.905-.155.46-.239,1.166-.251,2.117h1.585c0-.535.031-.971.094-1.306.055-.336.154-.617.293-.844.14-.226.387-.511.742-.853.801-.784,1.308-1.321,1.52-1.614.473-.64.709-1.40501.709-2.29401,0-1.075-.348-1.943-1.045-2.602-.746-.715-1.75-1.072-3.012-1.072-.784,0-1.49.158-2.117.475-.62902.318-1.13202.768-1.51102,1.353zM13.0289,18.98h-2.015v-1.939h2.015v1.939z"/></svg>