<svg width="36" height="36" viewBox="0,0,36,36" xmlns="http://www.w3.org/2000/svg"><path fill-rule="evenodd" clip-rule="evenodd" d="m7.25,11.25c0-.5234.47664-1,1-1s1,.4766,1,1-.47664,1-1,1-1-.4766-1-1zm1-2c-1.07564,0-2,.9244-2,2s.92436,2,2,2,2-.9244,2-2-.92436-2-2-2zm-1.70711,6H10.059l.1382.2764,1.4799,2.9597L13.9,21.45l-.8.6-2.25-3-.0271-.0361-.0201-.0403L10.25,17.868v5.264l1.5,3v4.5004l20.3509-6.3596.6491-.2029V32.75H8.25l-.14914-.9772,2.64914-.8279V26.368L9.44098,23.75H7.25V33h-1V16.9571l-2,2V22.5h-1v-3.9571l.14645-.1465,3-3,.14644-.1464zm.70711,7.5v-6.5h2v6.5h-2zm24.5,9H11.5263L31.75,25.4301V31.75z"/></svg>