<svg width="24" height="24" viewBox="0,0,24,24" xmlns="http://www.w3.org/2000/svg"><path fill-rule="evenodd" clip-rule="evenodd" d="m15,2.52105v-.52084h-1v.52084h1zm0,2.08333V3.56271h-1v1.04167h1zm0,2.08333V5.64605h-1v1.04166h1zm0,2.08334V7.72938h-1v1.04167h1zm0,2.08335V9.81271h-1v1.04169h1zm0,2.0833V11.896h-1v1.0417h1zm0,1.5625v-.5208h-1v.0208h-.0208v1H15v-.5zm-13,.5h.52083v-1H2v1zm1.5625,0h1.04167v-1H3.5625v1zm2.08333,0H6.6875v-1H5.64583v1zm2.08334,0h1.04166v-1H7.72917v1zm2.08333,0h1.0417v-1H9.8125v1zm2.0833,0h1.0417v-1h-1.0417v1zM16,15.9997h4v1h-2.2929l3.6465,3.6464-.7072.7071L17,17.7068v2.2929h-1v-4z"/></svg>