<svg width="36" height="36" viewBox="0,0,36,36" xmlns="http://www.w3.org/2000/svg"><path fill-rule="evenodd" clip-rule="evenodd" d="m22.25,3.52114v-.52083h-1v.52083h1zm0,2.08333V4.5628h-1v1.04167h1zm0,2.08333V6.64614h-1V7.6878h1zm0,2.08334V8.72947h-1v1.04167h1zm0,2.08336v-1.0417h-1v1.0417h1zM22.25,13.9378v-1.0417h-1v1.0417h1zm0,2.0833v-1.0416h-1v1.0416h1zm0,2.0834v-1.0417h-1v1.0417h1zm0,2.0833v-1.0417h-1v1.0417h1zM22.25,21.7503v-.5208h-1v.0208h-.0208v1H22.25v-.5zm-19.25.5h.52083v-1H3v1zm1.5625,0h1.04167v-1H4.5625v1zm2.08333,0H7.6875v-1H6.64583v1zm2.08334,0h1.04166v-1H8.72917v1zm2.08333,0h1.0417v-1h-1.0417v1zm2.0833,0h1.0417v-1h-1.0417v1zm2.0834,0h1.0416v-1h-1.0416v1zM17.0625,22.2503h1.0417v-1h-1.0417v1zm2.0833,0h1.0417v-1h-1.0417v1zm5.1042,1.9992H30v1h-4.0429l5.8965,5.8965-.7072.7071L25.25,25.9566v4.0429h-1v-5.75z"/></svg>