<svg width="24" height="24" viewBox="0,0,24,24" xmlns="http://www.w3.org/2000/svg"><path fill-rule="evenodd" clip-rule="evenodd" d="m12,3.5c0-.27614.2239-.5.5-.5s.5.22386.5.5-.2239.5-.5.5-.5-.22386-.5-.5zm.5-1.5c-.8284,0-1.5.67157-1.5,1.5,0,.65311.4174,1.20873,1,1.41465V6H6v2H4v5h2v3h13v-3h2V8h-2V6h-6V4.91465c.5826-.20592,1-.76154,1-1.41465,0-.82843-.6716-1.5-1.5-1.5zM19,9v3h1V9h-1zM6,9v3H5V9h1zm1-2v8h11V7H7zM3,19.1751C3,17.9453,4.05073,17,5.28125,17H19.7188C20.9493,17,22,17.9453,22,19.1751V22h-1v-2.8249C21,18.5546,20.4558,18,19.7188,18H5.28125C4.54425,18,4,18.5546,4,19.1751V22H3v-2.8249zm6.06517-6.9283C9.67579,13.3225,10.9989,14,12.5,14s2.8242-.6775,3.4348-1.7532l-.8696-.4936C14.6715,12.4466,13.7287,13,12.5,13s-2.1715-.5534-2.56517-1.2468l-.86966.4936zM10.5002,10.2c.1105,0,.2-.0895.2-.2,0-.11046-.0895-.2-.2-.2s-.2.08954-.2.2c0,.1105.0895.2.2.2zm-.8-.2c0-.44183.3582-.8.8-.8s.8.35817.8.8c0,.4418-.3582.8-.8.8s-.8-.3582-.8-.8zM14.7002,10c0,.1105-.0895.2-.2.2s-.2-.0895-.2-.2c0-.11046.0895-.2.2-.2s.2.08954.2.2zm-.2-.8c-.4418,0-.8.35817-.8.8,0,.4418.3582.8.8.8s.8-.3582.8-.8c0-.44183-.3582-.8-.8-.8z"/></svg>