<svg width="36" height="36" viewBox="0,0,36,36" xmlns="http://www.w3.org/2000/svg"><path fill-rule="evenodd" clip-rule="evenodd" d="m17.75,5.25c0-.55228.4477-1,1-1s1,.44772,1,1-.4477,1-1,1-1-.44772-1-1zm1-2c-1.1046,0-2,.89543-2,2,0,.93192.6374,1.71497,1.5,1.93699V9.25h-9v3h-3v7h3v4.5h19v-4.5h3v-7h-3v-3h-9V7.18699c.8626-.22202,1.5-1.00507,1.5-1.93699,0-1.10457-.8954-2-2-2zm9.5,10v5h2v-5h-2zm-19,0v5h-2v-5h2zm1-3v12.5h17v-12.5h-17zm-5.5,18.5126c0-1.6923,1.44948-3.0126,3.17188-3.0126H29.5781c1.7224,0,3.1719,1.3203,3.1719,3.0126V33h-1v-4.2374c0-1.083-.943-2.0126-2.1719-2.0126H7.92188c-1.22889,0-2.17188.9296-2.17188,2.0126V33h-1v-4.2374zm9.0652-10.5158c.8617,1.518,2.7513,2.5032,4.9348,2.5032s4.0731-.9852,4.9348-2.5032l-.8696-.4936c-.6447,1.1357-2.1541,1.9968-4.0652,1.9968s-3.4205-.8611-4.0652-1.9968l-.8696.4936zm1.9351-3.1968c.0276,0,.05-.0224.05-.05s-.0224-.05-.05-.05-.05.0224-.05.05.0224.05.05.05zm-.95-.05c0-.5247.4253-.95.95-.95s.95.4253.95.95-.4253.95-.95.95-.95-.4253-.95-.95zm7,0c0,.0276-.0224.05-.05.05s-.05-.0224-.05-.05.0224-.05.05-.05.05.0224.05.05zm-.05-.95c-.5247,0-.95.4253-.95.95s.4253.95.95.95.95-.4253.95-.95-.4253-.95-.95-.95z"/></svg>