<svg width="16" height="16" xmlns="http://www.w3.org/2000/svg"><path fill-rule="evenodd" clip-rule="evenodd" d="m5.98081,5.55283c.31599,0,.44599-.218.28799-.48499L3.85788.999969C2.22393,1.92094,1.09997,3.60589.999969,5.55283H5.98081zm-3.1419,5.35527C1.83594,9.7471,1.17496,8.29714.999969,6.70619H12.4666c-.175,1.59095-.837,3.04091-1.8399,4.20191H2.83891zM2.45502,13.0351C2.45502,14.1191,3.36,15,4.47196,15c1.11297,0,2.01794-.8809,2.01794-1.9649,0-1.083-.90497-1.9649-2.01794-1.9649-1.11196,0-2.01694.8819-2.01694,1.9649zm.58299,0c0-.771.64298-1.397,1.43395-1.397.79198,0,1.43596.626,1.43596,1.397s-.64398,1.397-1.43596,1.397c-.79097,0-1.43395-.626-1.43395-1.397zM6.81909,13.0351c0,1.084.90597,1.9649,2.01793,1.9649,1.11197,0,2.01798-.8809,2.01798-1.9649,0-1.083-.90601-1.9649-2.01798-1.9649-1.11196,0-2.01793.8819-2.01793,1.9649zm.58298,0c0-.771.64398-1.397,1.43495-1.397.79098,0,1.43498.626,1.43498,1.397s-.644,1.397-1.43498,1.397c-.79097,0-1.43495-.626-1.43495-1.397zm3.78183-7.78396h3.4518c.127,0,.23.10099.23.22499,0,.122-.103.22399-.23.22399h-3.4518v-.44898z"/></svg>