<svg width="25" height="16" xmlns="http://www.w3.org/2000/svg"><path fill-rule="evenodd" clip-rule="evenodd" d="m20.722,2.9983c1.02,0,2.081.3,2.9.72l.66-2.301c-1.139-.459998-2.4-.619998-3.62-.619998-2.681,0-5.201,1.279998-5.201,4.220998,0,2.04121,1.4327,2.84231,2.7263,3.56561,1.0645.59523,2.0347,1.13777,2.0347,2.27539,0,1.5-1.321,2.181-2.661,2.181-1.2,0-2.34-.46-3.421-.96l-.72,2.38c1.26.46,2.64.78,3.981.78,3.061,0,5.742-1.24,5.742-4.661,0-2.20525-1.5375-3.11192-2.8652-3.89488-1.0089-.59496-1.8968-1.11849-1.8968-2.08612,0-1.2,1.341-1.6,2.341-1.6zM6.9418,6.67872h-1.101l.74-3.441h.981c1.06,0,2.34.06,2.34,1.4,0,1.641-1.54,2.041-2.96,2.041zm-1.421,6.12098h-.96l.84-4.03998h.9c1.5,0,2.861.219,2.861,1.67998,0,2.16-1.921,2.36-3.641,2.36zM8.4818,1.03772h-4.141L1.4198,14.9997h3.981c2.081,0,6.562-.32,6.562-4.32,0-1.50098-.681-2.70098-2.241-2.94098v-.04c1.62-.26,2.981-1.62,2.981-3.32,0-2.541-2.041-3.341-4.221-3.341z"/></svg>