<svg width="25" height="16" xmlns="http://www.w3.org/2000/svg"><path fill-rule="evenodd" clip-rule="evenodd" d="m20.3022,3.13349c1.02,0,2.081.2908,2.9.69792l.66-2.23043C22.7232,1.15509,21.4622,1,20.2422,1c-2.681,0-5.201,1.24074-5.201,4.09153,0,1.9786,1.4327,2.75513,2.7263,3.45624,1.0645.57698,2.0347,1.10288,2.0347,2.20563,0,1.454-1.321,2.1141-2.661,2.1141-1.2,0-2.34-.4459-3.421-.9306l-.72,2.307c1.26.4459,2.64.7561,3.981.7561,3.061,0,5.742-1.202,5.742-4.518,0-2.13765-1.5375-3.01651-2.8652-3.77545-1.0089-.57672-1.8968-1.08419-1.8968-2.02214,0-1.16319,1.341-1.55092,2.341-1.55092zM6.52202,6.70104h-1.101l.74-3.33545h.981c1.06,0,2.34.05816,2.34,1.35706,0,1.59066-1.54,1.97839-2.96,1.97839zM5.10099,12.6343h-.96l.84-3.91611h.9c1.5,0,2.861.21228,2.861,1.62851,0,2.0937-1.921,2.2876-3.641,2.2876zM8.062,1.23304H3.921L1,14.7668h3.981c2.081,0,6.562-.3102,6.562-4.1875,0-1.45496-.681-2.61815-2.241-2.85079v-.03878c1.62-.25202,2.981-1.57031,2.981-3.21816,0-2.46306-2.041-3.23853-4.221-3.23853z"/></svg>