<svg width="21" height="16" xmlns="http://www.w3.org/2000/svg"><path fill-rule="evenodd" clip-rule="evenodd" d="m19.0023,1h-2.921l-2.941,13.9999h2.92L19.0023,1zM6.52202,6.65644h-1.101l.74-3.45034h.981c1.06,0,2.34.06017,2.34,1.4038,0,1.64545-1.54,2.04654-2.96,2.04654zM5.10099,12.794h-.96l.84-4.05094h.9c1.5,0,2.861.21959,2.861,1.68454,0,2.1659-1.921,2.3664-3.641,2.3664zM8.062,1.00012H3.921L1,15h3.981c2.081,0,6.562-.3209,6.562-4.3317,0-1.50509-.681-2.70835-2.241-2.949v-.04011c1.62-.2607,2.981-1.62439,2.981-3.329,0-2.5479-2.041-3.35007-4.221-3.35007z"/></svg>