<svg width="33" height="16" xmlns="http://www.w3.org/2000/svg"><path fill-rule="evenodd" clip-rule="evenodd" d="m25.0811,7.47808h-1l.9-4.27226h.88c1.2,0,2.341.30079,2.341,1.72555,0,1.74459-1.581,2.54671-3.121,2.54671zm-5.401,7.52182h2.8l1.121-5.31502h1.62c3.121,0,5.901-1.66539,5.901-5.05432C31.1221,1.14037,27.5811,1,25.0011,1h-2.36l-2.961,13.9999zM8.582,1.00012H3.961L1,15h2.66L6.221,3.40646h.04L7.382,15h2.68l6.322-11.59354h.039L13.783,15h2.96l2.981-13.99988h-4.66L9.562,11.0897h-.04l-.94-10.08958z"/></svg>