<svg width="25" height="16" xmlns="http://www.w3.org/2000/svg"><path fill-rule="evenodd" clip-rule="evenodd" d="m6.401,7.47812h-1l.9-4.27228h.88c1.2,0,2.341.30079,2.341,1.72556,0,1.7446-1.581,2.54672-3.121,2.54672zM1,15h2.8l1.121-5.31506h1.62c3.121,0,5.901-1.6654,5.901-5.05435C12.442,1.14037,8.902,1,6.321,1h-2.36L1,15zm16.6612-8.0232h-1.02l.78-3.77096h1.16c1.14,0,2.401,0,2.401,1.46487,0,1.84487-1.82,2.30609-3.321,2.30609zm.68-5.97678h-3.301L12.1202,15h2.8l1.221-5.81636h1.06c1.2901,0,1.4276.75121,1.6353,1.88636.0371.2023.0763.4167.1247.6413l.68,3.2887h2.94l-1.339-5.63589c-.18-.76301-.661-1.24328-1.42-1.28339v-.0401c2.28-.04011,4.08-1.3245,4.08-3.73086,0-3.31074-2.9118-3.310212-5.4705-3.30975-.0302.00001-.0604.00001-.0905.00001z"/></svg>