<svg width="27" height="16" xmlns="http://www.w3.org/2000/svg"><path fill-rule="evenodd" clip-rule="evenodd" d="m6.541,6.97676h-1.02l.78-3.77094h1.16c1.14,0,2.401,0,2.401,1.46486,0,1.84486-1.82,2.30608-3.321,2.30608zm.68-5.97674H3.92L1,14.9999h2.8l1.221-5.81632h1.06c1.29013,0,1.4276.7512,1.63535,1.88642.03701.2022.07626.4167.12465.6412l.68,3.2887h2.941l-1.34-5.63585c-.18-.76301-.661-1.24327-1.42-1.28338v-.0401c2.28-.04011,4.08-1.32449,4.08-3.73083,0-3.31072-2.91181-3.310192-5.47049-3.30973-.03022.00001-.06039.00001-.09051.00001zm18.1213.0001h-9.582l-.48,2.20581h6.101l-8.402,9.58827L12.5393,15h9.802l.46-2.2058h-6.361l8.422-9.58827.48-2.20581z"/></svg>