<svg width="12" height="16" viewBox="0,0,12,16" xmlns="http://www.w3.org/2000/svg"><path fill-rule="evenodd" clip-rule="evenodd" d="m8.266,9.6632c-.189-.546-.3878-.9408-.595-1.1816-.2044-.2408-.5152-.4088-.9282-.5054,1.7948-.371,2.6936-1.4882,2.6936-3.3544,0-1.1592-.3584-2.051-1.0724-2.681C7.6472,1.3122,6.6322,1,5.3134,1H1v14h2.5256V8.9646h.6076c.9702,0,1.6016.4914,1.9012,1.4686L7.4218,15H10.1L8.266,9.6632zM4.5742,6.9374H3.5256V2.8088h1.0808c.7994,0,1.3664.1498,1.7024.448.3374.2982.5068.8078.5068,1.533,0,.6734-.196,1.2012-.5838,1.5806-.3906.378-.945.567-1.6576.567z"/></svg>