<svg width="27" height="16" xmlns="http://www.w3.org/2000/svg"><path fill-rule="evenodd" clip-rule="evenodd" d="m6.96139,6.99801h-1.02l.78-3.761h1.16c1.14,0,2.40101,0,2.40101,1.461,0,1.84-1.82001,2.3-3.32101,2.3zm.68001-5.961H4.34039L1.42039,15h2.8l1.221-5.80099h1.06c1.29013,0,1.42761.74923,1.63535,1.88139.03702.2018.07626.4156.12465.6396l.68,3.28h2.94101l-1.34-5.62099c-.18-.761-.661-1.24-1.42-1.28v-.04c2.28-.04,4.08-1.321,4.08-3.721,0-3.302-2.9118-3.30147-5.47049-3.30101-.03023,0-.0604.00001-.09051.00001zm18.1611.0001h-10.782l-.479,2.2h3.94l-2.54,11.76299h2.92l2.541-11.76299h3.94l.46-2.2z"/></svg>