<svg width="25" height="16" viewBox="0,0,25,16" xmlns="http://www.w3.org/2000/svg"><path fill-rule="evenodd" clip-rule="evenodd" d="m8.302,3.13252c1.019,0,2.08.29177,2.9.69889l.66-2.23043C10.722,1.15509,9.462,1,8.241,1,5.56,1,3.04,2.24074,3.04,5.09153c0,1.97842,1.43273,2.75499,2.72645,3.45621C6.83132,9.12493,7.802,9.65106,7.802,10.7543c0,1.454-1.321,2.1132-2.662,2.1132-1.2,0-2.34-.4469-3.42-.9315L1,14.2439C2.26,14.6898,3.64,15,4.98,15c3.061,0,5.742-1.202,5.742-4.518,0-2.13786-1.53749-3.01699-2.86504-3.77608C6.84839,6.12923,5.961,5.62182,5.961,4.68441c0-1.16319,1.34-1.55189,2.341-1.55189zm9.5596,3.56799h-1.101l.74-3.33449h.981c1.06,0,2.341.05816,2.341,1.35706,0,1.59066-1.541,1.97743-2.961,1.97743zM16.4406,12.6347h-.96l.841-3.91703h.899c1.501,0,2.861.21325,2.861,1.62943,0,2.0938-1.921,2.2876-3.641,2.2876zm2.961-11.40219h-4.141l-2.921,13.53469h3.982c2.08,0,6.56-.3102,6.56-4.1884,0-1.45402-.68-2.61722-2.24-2.84985v-.03878c1.62-.25202,2.98-1.57128,2.98-3.21913,0-2.46307-2.04-3.23853-4.22-3.23853z"/></svg>