<svg width="28" height="16" xmlns="http://www.w3.org/2000/svg"><path fill-rule="evenodd" clip-rule="evenodd" d="m22.0624,2.997c1.46,0,2.801.301,3.881,1.001l.7-2.421c-1.461-.56-3.1-.780003-4.661-.780003-5.041,0-8.382,3.140003-8.382,8.242003,0,4.32,2.74,6.201,6.841,6.201,1.36,0,2.921-.28,3.741-.62l1.601-7.622h-5.661l-.46,2.201h2.96l-.781,3.7c-.319.141-.74.141-1.379.141-2.381,0-3.941-1.821-3.941-4.081,0-3.301,2.14-5.962,5.541-5.962zm-8.1202-1.95989H3.16021l-.479,2.2h3.94l-2.54,11.76299h2.92l2.541-11.76299h3.93999l.46-2.2z"/></svg>