<svg width="24" height="16" viewBox="0,0,24,16" xmlns="http://www.w3.org/2000/svg"><path fill-rule="evenodd" clip-rule="evenodd" d="m18.7034,3.13252c1.066,0,2.175.29177,3.031.69889l.69-2.23043C21.2334,1.15509,19.9164,1,18.6404,1c-2.801,0-5.434,1.24074-5.434,4.09153,0,1.97842,1.4965,2.75499,2.8478,3.45621,1.1123.57719,2.1262,1.10332,2.1262,2.20656,0,1.454-1.38,2.1132-2.78,2.1132-1.254,0-2.445-.4469-3.574-.9315l-.753,2.3079c1.317.4459,2.76.7561,4.16.7561,3.198,0,6-1.202,6-4.518,0-2.13786-1.607-3.01699-2.9945-3.77608-1.0541-.57669-1.9815-1.0841-1.9815-2.02151,0-1.16319,1.401-1.55189,2.446-1.55189zM12.77,1.23292H1.502L1,3.36545h4.118L2.464,14.7676h3.052L8.17,3.36545h4.118l.482-2.13253z"/></svg>