<svg width="36" height="16" xmlns="http://www.w3.org/2000/svg"><path fill-rule="evenodd" clip-rule="evenodd" d="m10.6119,14.8601c2.2898,0,4.1772-1.7308,4.4289-3.9508h3.2406l3.8697-4.80091.3271.6235c-1.1099.83887-1.8313,2.16693-1.8313,3.66851,0,2.5388,2.0607,4.5995,4.5994,4.5995,2.5418,0,4.6023-2.0607,4.6023-4.5995,0-2.54174-2.0605-4.59962-4.6023-4.59962-.534,0-1.0429.09514-1.5211.26281L21.0635.99999h-3.2352v1.41476h2.3797l.7437,1.41766H14.75l-.3748-.71302,1.331.00564V1.70737l-4.9322.01399v1.38959l1.9991.00563.727,1.38131-1.2219,1.76708c-.5144-.20693-1.0764-.32434-1.6663-.32434-2.4635,0-4.45986,1.99636-4.45986,4.45977,0,2.4604,1.99636,4.4597,4.45986,4.4597zm14.6344-7.59977c1.7336,0,3.1401,1.4064,3.1401,3.14007,0,1.7307-1.4065,3.1399-3.1401,3.1399-1.7306,0-3.137-1.4092-3.137-3.1399,0-.9367.4165-1.76721,1.0679-2.34309l1.5855,3.01409,1.2526-.6599-1.5938-3.02812c.2657-.0727.5369-.12305.8248-.12305zm-12.5403.93948c.3691.35232.6403.79697.797,1.29188h-1.6694l.8724-1.29188zm8.3268-2.95265-3.3554,4.14657L15.491,5.24162l5.5418.00554zm-6.7834.67393,1.879,3.5706h-1.1492c-.2041-.98427-.7354-1.84823-1.4708-2.47736l.741-1.09324zm-3.6375,1.43438c.2879,0,.559.05308.822.12859L9.69473,9.99778l.62337.91152h3.2856c-.2434,1.4343-1.4877,2.5331-2.9918,2.5331-1.67779,0-3.0451-1.3644-3.0451-3.042,0-1.68043,1.36731-3.04493,3.0451-3.04493zM3.3048,14.3492c-.34956-.5331-.64002-1.0034-.87012-1.4146-.23136-.4111-.52811-1.0247-.89024-1.8408-.36213-.8173-.54445-1.82949-.54445-3.0391,0-1.12286.19867-2.15895.59097-3.10074.39231-.94305.96317-2.00178,1.71258-3.17492h1.27248c-.41117.72426-.72677,1.31146-.9443,1.75909-.21753.44638-.47781,1.05999-.78084,1.84083-.30052.77958-.45267,1.67862-.45267,2.6946,0,1.0386.16598,1.98164.49919,2.82034.33195.8424.58972,1.4498.77078,1.8245.18107.3747.4841.9191.90784,1.6321H3.30479l.00001-.0013zm31.0577-9.52352c-.4225-.95562-.9795-1.9716-1.6686-3.04793v.00377h-1.2687c.4125.70289.7092,1.24357.8991,1.6233.1848.38099.3885.8412.606,1.37936.2163.53817.3798,1.08011.4904,1.6233.1094.5432.1635,1.08765.1635,1.6321,0,1.01598-.1559,1.92885-.4627,2.73862-.3094.811-.5533,1.397-.7356,1.7603-.1811.3609-.503.9682-.9607,1.8132h1.2687c.459-.7129.7872-1.2461.9808-1.5969.1924-.3521.4627-.9342.8073-1.7515.3445-.8161.518-1.79937.518-2.94863,0-1.19704-.2137-2.27337-.6375-3.22899z"/></svg>