<svg width="26" height="16" xmlns="http://www.w3.org/2000/svg"><path fill-rule="evenodd" clip-rule="evenodd" d="m5.61125,7.35549c.288,0,.559.053.822.129l-1.739,2.514.62399.91101h3.28501c-.243,1.434-1.48801,2.533-2.992,2.533-1.678,0-3.045-1.364-3.045-3.042,0-1.68001,1.367-3.04501,3.045-3.04501zm3.63799-1.434,1.87896,3.571H9.97824c-.20399-.985-.73499-1.849-1.47099-2.478l.74199-1.093zM16.0322,5.24749l-3.356,4.146-2.186-4.152,5.542.006zm-8.32695,2.952c.37.353.64.798.798,1.293h-1.67l.872-1.293zm12.54095-.939c1.733,0,3.139,1.407,3.139,3.14001,0,1.73-1.406,3.14-3.139,3.14-1.731,0-3.137-1.41-3.137-3.14,0-.93701.416-1.76701,1.067-2.34301l1.586,3.01401,1.252-.659-1.593-3.02901c.265-.073.537-.123.825-.123zM5.61125,14.8605c2.29,0,4.17799-1.731,4.42895-3.951h3.241l3.869-4.80101.327.623c-1.109.839-1.831,2.167-1.831,3.66901,0,2.539,2.061,4.6,4.6,4.6,2.542,0,4.602-2.061,4.602-4.6,0-2.54201-2.06-4.60001-4.602-4.60001-.534,0-1.043.096-1.522.263l-2.661-5.063h-3.235v1.414h2.38l.743,1.418H9.75025l-.375-.713,1.33095.006v-1.418l-4.93295.014v1.389l1.99899.006.72801,1.382-1.22201,1.767c-.51499-.207-1.07699-.325-1.66699-.325-2.463,0-4.46,1.997-4.46,4.46001,0,2.461,1.997,4.46,4.46,4.46z"/></svg>