<svg width="17" height="16" xmlns="http://www.w3.org/2000/svg"><path fill-rule="evenodd" clip-rule="evenodd" d="m4.89149,9.78871L2.98306,7.64105,2.12777,6.61331c-.46113-.63629-.69246-1.35721-.69246-2.16278,0-1.09424.4033-2.12651,1.20989-3.09983l.19937-.21613.09892-.13451,4.84108,5.46211-.00609-2.06756,3.74232-3.39304.8872.95368-3.32376,3.0152.00153,1.58996,4.10143-3.75879.9147.97937L9.97454,7.53374l1.61626.10429,3.3116-2.99102.9085.93705L12.0854,8.9771,9.88627,8.83352,14.0303,13.5082l-1.7075,1.4917L8.03872,10.165l-.09284-.34304-.10653.32494-5.31285,4.853L1.00006,13.348,4.89149,9.78871zM3.01654,3.47418c-.06088.14509-.10349.28565-.12784.4247-.02283.13753-.035.27356-.035.40656,0,.66349.24654,1.27711.74115,1.84388l.50983.57583,1.83385,2.09477,1.08662-.97181L3.16873,3.46814,3.0348,3.11296l-.01826.36122z"/></svg>