<svg width="25" height="16" viewBox="0,0,25,16" xmlns="http://www.w3.org/2000/svg"><path fill-rule="evenodd" clip-rule="evenodd" d="m18.1409,6.641h-1.101l.74-3.44h.981c1.06,0,2.341.06,2.341,1.4,0,1.641-1.541,2.04-2.961,2.04zm-1.421,6.122h-.96l.841-4.041h.899c1.501,0,2.861.22,2.861,1.681,0,2.16-1.921,2.36-3.641,2.36zM19.6809,1h-4.141l-2.921,13.963h3.982c2.08,0,6.56-.32,6.56-4.321,0-1.5-.68-2.7-2.24-2.94v-.04c1.62-.26,2.98-1.621,2.98-3.321,0-2.541-2.04-3.341-4.22-3.341zM1,1.00012l3.28,8.182L3.06,14.9631h2.801l1.22-5.78098,6.762-8.182h-3.261l-4.541,5.862-2.08-5.862H1z"/></svg>