<svg width="24" height="24" xmlns="http://www.w3.org/2000/svg"><path fill-rule="evenodd" clip-rule="evenodd" d="m22.5,0h-21C.675,0,0,.675,0,1.5v21c0,.825.675,1.5,1.5,1.5h21c.825,0,1.5-.675,1.5-1.5v-21c0-.825-.675-1.5-1.5-1.5z" fill="#2d327d"/><path fill-rule="evenodd" clip-rule="evenodd" d="m11.73,7.50732H6.27002V20.9998H11.79c1.0875,0,1.9725-.1125,2.6775-.3525.6975-.2325,1.3275-.63,1.89-1.1925,1.275-1.26,1.9125-3.0525,1.9125-5.3625,0-2.1825-.6675-3.8925-2.0175-5.12248-.555-.51-1.1925-.8775-1.9125-1.11-.7275-.2325-1.5975-.3525-2.61-.3525zM9.21752,18.5098v-8.505h2.15998c1.2975,0,2.2725.3525,2.9325,1.0575s.99,1.7475.99,3.1275c0,1.4925-.36,2.6325-1.0725,3.405-.3075.33-.6675.57-1.08.705-.405.1425-.96.21-1.6575.21H9.21752z" fill="#fff"/><path fill-rule="evenodd" clip-rule="evenodd" d="m4.815,3.66744H4.35c-.0075-.1125-.0525-.195-.12-.255s-.1725-.09-.3075-.09c-.1125,0-.2025.0225-.27.0675s-.0975.1125-.0975.195c0,.075.03.1275.09.1575s.21.0825.45.135c.255.06.435.1275.5325.195.18.12.27.285.27.495,0,.2325-.09.42-.2775.5475-.1575.12-.3825.18-.6525.18-.3075,0-.54-.0675-.7125-.21s-.255-.33-.255-.585h.4875c.0075.1275.0375.2175.0975.2775.09.0975.225.1425.405.1425.12,0,.2175-.0225.2925-.075.0825-.0525.12-.1275.12-.225s-.06-.165-.1725-.21c-.06-.0225-.21-.0675-.4425-.135-.1425-.0375-.2625-.075-.345-.1125s-.15-.075-.195-.12c-.1125-.105-.1725-.2475-.1725-.4275,0-.2175.09-.39.27-.51.15-.105.3525-.165.5925-.165.2175,0,.39.045.54.1275.21.1275.3225.3225.3375.6z" fill="#fff"/><path fill-rule="evenodd" clip-rule="evenodd" d="m6.56998,4.98733c.06-.0825.105-.165.1275-.2625h-.435c-.03.075-.075.135-.1275.1725s-.12.0525-.2025.0525c-.1725,0-.285-.0675-.345-.2175-.0225-.0525-.03-.12-.0375-.2025h1.17c0-.2025-.015-.3675-.0675-.495s-.12-.24-.225-.33c-.135-.1275-.3075-.1875-.51-.1875-.2475,0-.45.09-.6075.2775-.1425.165-.21.3675-.21.615,0,.12.015.2475.06.36.045.105.0975.2025.1725.2775.15.1575.3525.24.6.24.2775,0,.4875-.0975.6375-.3zm-.30073-.765c.00025.00249.0005.00499.00073.0075v-.0075h-.00073zm0,0c-.00815-.0791-.02996-.1441-.05177-.195-.03-.0525-.0675-.0975-.12-.1275s-.1125-.045-.1725-.045c-.0975,0-.18.03-.2475.0975s-.105.1575-.1125.27h.70427z" fill="#fff"/><path fill-rule="evenodd" clip-rule="evenodd" d="m8.55,4.6049c-.0225.165-.075.3075-.165.42-.1425.18-.3525.27-.615.27-.27,0-.4875-.09-.6375-.2775-.1275-.1575-.195-.3525-.195-.5925,0-.2925.0825-.5175.255-.6825.15-.1425.345-.2175.5775-.2175.2175,0,.3975.06.5325.1725s.2175.27.2325.465H8.1c-.015-.09-.0525-.1575-.1125-.21s-.1275-.075-.2175-.075c-.1275,0-.2175.045-.285.1425s-.105.225-.105.3975c0,.15.03.27.0825.36.0675.1125.165.165.3.165.195,0,.315-.1125.345-.3375H8.55z" fill="#fff"/><path fill-rule="evenodd" clip-rule="evenodd" d="m9.70503,3.56243v.315h-.33v.7875c0,.0975.0075.1575.0225.18.0225.0375.0825.0525.1725.0525.0375,0,.0825,0,.135-.0075v.36c-.0975.015-.195.015-.2775.015-.1275,0-.225-.015-.2925-.045-.105-.045-.165-.1275-.195-.255-.0075-.0525-.015-.1575-.015-.3225v-.7575h-.27v-.315h.27v-.39h.4425v.39h.3375v-.0075z" fill="#fff"/><path fill-rule="evenodd" clip-rule="evenodd" d="m11.31,4.98733c.06-.0825.105-.165.1275-.2625H11.01c-.03.075-.075.135-.1275.1725s-.12.0525-.2025.0525c-.1725,0-.285-.0675-.345-.2175-.0225-.0525-.03-.12-.0375-.2025h1.17c0-.2025-.015-.3675-.0675-.495s-.12-.24-.225-.33c-.1425-.1275-.315-.1875-.5175-.1875-.2475,0-.45.09-.6075.2775-.14247.165-.20997.3675-.20997.615,0,.12.015.2475.06.36.045.105.0975.2025.17247.2775.15.1575.3525.24.6.24.2775,0,.4875-.0975.6375-.3zm-.3007-.765c.0003.00249.0005.00499.0007.0075v-.0075h-.0007zm0,0c-.0081-.0791-.03-.1441-.0518-.195-.03-.0525-.0675-.0975-.12-.1275s-.1125-.045-.1725-.045c-.0975,0-.18.03-.2475.0975s-.105.1575-.1125.27h.7043z" fill="#fff"/><path fill-rule="evenodd" clip-rule="evenodd" d="m13.26,3.56982v1.68h-.4275v-.2475c-.1275.195-.3075.2925-.54.2925-.2025,0-.3525-.0675-.4575-.2025-.0375-.0525-.0675-.1125-.0825-.1875s-.0225-.165-.0225-.2775v-1.0575h.4425v.9225c0,.0975,0,.165.0075.2025s.015.075.0375.105c.045.075.1275.1125.24.1125.1425,0,.24-.06.3075-.1875.03-.06.045-.1725.045-.33v-.825h.45z" fill="#fff"/><path fill-rule="evenodd" clip-rule="evenodd" d="m14.6475,3.53997v.435c-.075-.015-.1275-.0225-.1725-.0225-.165,0-.285.0675-.3675.21-.045.075-.0675.21-.0675.39v.6975h-.4425v-1.68h.4275v.3075c.12-.225.3-.345.525-.345.0225,0,.06.0075.0975.0075z" fill="#fff"/></svg>