<svg width="24" height="24" viewBox="0,0,24,24" xmlns="http://www.w3.org/2000/svg"><path fill-rule="evenodd" clip-rule="evenodd" d="m22.5,0h-21C.675,0,0,.675,0,1.5v21c0,.825.675,1.5,1.5,1.5h21c.825,0,1.5-.675,1.5-1.5v-21c0-.825-.675-1.5-1.5-1.5z" fill="#2d327d"/><path fill-rule="evenodd" clip-rule="evenodd" d="m3.2625,16.185c-.18.42-.255.885-.2625,1.2825C3,17.865,3,21,3,21h7.8225c.0825-.1875.315-.6075.5625-1.1475-.2025.09-.4275.1425-.675.15-.015,0-.0375,0-.0525,0-.3,0-.6075-.0675-.8925-.195L6.255,18.21c-.5025-.2325-.8925-.63-1.065-1.095-.135-.36-.1275-.735.0225-1.0575l1.59-3.4125.87-1.875c.165-.5025.0225-1.06496-.375-1.42496-.06-.0525-.12-.0975-.195-.1275-.345-.1425-.7425.015-.8925.36001L3.2625,16.185z" fill="#fff"/><path fill-rule="evenodd" clip-rule="evenodd" d="m12.5175,20.97c-.4425-.0075-.8025-.3675-.795-.81s.3675-.8025.8175-.795h1.4775c.4425-.0075.81.3525.8175.795s-.3525.81-.795.8175h-1.5225V20.97z" fill="#fff"/><path fill-rule="evenodd" clip-rule="evenodd" d="m13.4325,19.005c-.4425-.0075-.8025-.3675-.795-.81s.3675-.8025.8175-.795h1.4775c.4425-.0075.81.3525.8175.795s-.3525.81-.795.8175h-1.5225v-.0075z" fill="#fff"/><path fill-rule="evenodd" clip-rule="evenodd" d="m14.34,17.0475c-.4425-.0075-.8025-.3675-.795-.81s.3675-.8025.8175-.795H15.84c.4425-.0075.81.3525.8175.795s-.3525.81-.795.8175H14.34v-.0075z" fill="#fff"/><path fill-rule="evenodd" clip-rule="evenodd" d="m15.2475,15.15c-.4425-.0075-.8025-.3675-.795-.8175.0075-.4425.3675-.8025.8175-.795h1.4775c.4425-.0075.81.3525.8175.795s-.3525.81-.795.8175h-1.5225z" fill="#fff"/><path fill-rule="evenodd" clip-rule="evenodd" d="m16.5075,7.82249c-.165-.3225-.4575-.5925-.825-.7575l-3.51-1.5975c-.24-.1125-.5025-.165-.75-.165h-.045c-.495.015-.8925.24-1.065.615L5.5275,16.2075c-.1125.24-.1125.51-.015.7875.1425.3825.465.705.885.9l3.51,1.5975c.24.1125.5025.165.75.165h.045c.495-.015.8925-.24,1.065-.615l4.785-10.29001c.135-.285.12-.615-.045-.93zM9.195,17.7525c-.12.2475-.42.3525-.675.225-.255-.12-.36-.42-.24-.6675s.42-.3525.675-.2325c.255.1275.36.4275.24.675zm-2.2425-2.49,4.62,2.0775,4.02-8.72251-4.62-2.0775-4.02,8.72251z" fill="#fff"/></svg>