<svg width="36" height="36" viewBox="0,0,36,36" xmlns="http://www.w3.org/2000/svg"><path fill-rule="evenodd" clip-rule="evenodd" d="m19.4701,7.24955h-3v-1h3v1zM10.347,13.2448c1.7263-2.3732,4.3057-3.99525,7.6531-3.99525,3.3476,0,5.9233,1.62225,7.6476,3.99545,1.7158,2.3614,2.5947,5.4681,2.6024,8.5033l.0013.5012H7.75012v-.5c0-3.036.87912-6.1432,2.59688-8.5047zm-1.58844,8.0047H27.2404c-.0972-2.694-.9205-5.3782-2.4017-7.4167-1.5643-2.153-3.8562-3.5833-6.8386-3.5833-2.9826,0-5.2782,1.4305-6.8444,3.5836-1.48295,2.0386-2.30622,4.7228-2.39714,7.4164zM8.03992,24.2495H7.6784l-.11329.3434-.99,3-.21671.6566h23.2863l-.2207-.6588-1.005-3-.1143-.3412H8.03992zm-.29848,3,.66-2H27.5851l.67,2H7.74144z"/></svg>