<svg width="24" height="24" viewBox="0,0,24,24" xmlns="http://www.w3.org/2000/svg"><path fill-rule="evenodd" clip-rule="evenodd" d="m22.5,0h-21C.675,0,0,.675,0,1.5v21c0,.825.675,1.5,1.5,1.5h21c.825,0,1.5-.675,1.5-1.5v-21c0-.825-.675-1.5-1.5-1.5z" fill="#2d327d"/><path fill-rule="evenodd" clip-rule="evenodd" d="m20.8125,21.1875H3.1875C3.0825,21.1875,3,21.105,3,21s.0825-.1875.1875-.1875h17.625c.105,0,.1875.0825.1875.1875s-.0825.1875-.1875.1875z" fill="#fff"/><path fill-rule="evenodd" clip-rule="evenodd" d="m21.12,8.80491c-.3-.18-.6225-.315-.9525-.3975-.6825-.1725-1.395-.1425-2.0625.09l-5.4975,2.00249L5.61,4.78491l-1.455.405,3.5925,7.07999-2.55.93-1.755-2.1825-1.0725.45,1.55999,3.7275h5.355L19.89,11.3324c.5175-.1875.99-.4725,1.395-.84.1575-.1425.2625-.3225.315-.52499.1125-.45-.0825-.9225-.48-1.1625z" fill="#fff"/></svg>