<svg width="24" height="24" viewBox="0,0,24,24" xmlns="http://www.w3.org/2000/svg"><path fill-rule="evenodd" clip-rule="evenodd" d="m22.5,0h-21C.675,0,0,.675,0,1.5v21c0,.825.675,1.5,1.5,1.5h21c.825,0,1.5-.675,1.5-1.5v-21c0-.825-.675-1.5-1.5-1.5z" fill="#2d327d"/><path fill-rule="evenodd" clip-rule="evenodd" d="m7.125,16.5h-3.75c-.21,0-.375.165-.375.375V21h.75v-3.75h3V21h.75v-4.125c0-.21-.165-.375-.375-.375z" fill="#fff"/><path fill-rule="evenodd" clip-rule="evenodd" d="m9.8475,14.9025c-.0525-.375-.3675-.6525-.7425-.6525h-2.73v-2.6475l1.335,1.98c.12.1725.315.2775.525.2775.3525,0,.6375-.285.6375-.6375,0-.1275-.0375-.255-.105-.36L6.015,8.79c-.3075-.4575-.8175-.7275-1.365-.7275-.9075,0-1.65.7425-1.65,1.65V15c0,.4125.3375.75.75.75h4.665l.615,4.59c.0525.3825.375.6675.765.6675.42,0,.7725-.345.7725-.765,0-.03,0-.0675-.0075-.105l-.7125-5.235z" fill="#fff"/><path fill-rule="evenodd" clip-rule="evenodd" d="m17.9475,15.3375H20.25c.4125,0,.75.3375.75.75V20.25c0,.4125-.3375.75-.75.75H12.9c-.4125,0-.75-.3375-.75-.75v-4.1625c0-.4125.3375-.75.75-.75h2.31v-.45c0-.3525.285-.6375.6375-.6375H17.31c.3525,0,.6375.285.6375.6375v.45zm-2.2125,0h1.6875v-.5625H15.735v.5625z" fill="#fff"/><path fill-rule="evenodd" clip-rule="evenodd" d="m21.15,5.96248c0,1.7175-1.395,3.1125-3.1125,3.1125s-3.1125-1.395-3.1125-3.1125,1.395-3.1125,3.1125-3.1125,3.1125,1.395,3.1125,3.1125zm-.7125,0c0-1.3275-1.0725-2.4-2.4-2.4s-2.4,1.0725-2.4,2.4,1.0725,2.4,2.4,2.4,2.4-1.0725,2.4-2.4z" fill="#fff"/><path fill-rule="evenodd" clip-rule="evenodd" d="m19.395,4.81499c.0375-.0375.0525-.0825.0525-.135,0-.105-.0825-.1875-.1875-.1875-.0525,0-.0975.0225-.135.0525l-.915.915.2625.2625.9225-.9075z" fill="#fff"/><path fill-rule="evenodd" clip-rule="evenodd" d="m17.9475,6.25499.2625-.2625-1.4475-1.4475c-.0375-.0375-.0825-.0525-.135-.0525-.105,0-.1875.0825-.1875.1875,0,.0525.0225.0975.0525.135l1.455,1.44z" fill="#fff"/><path fill-rule="evenodd" clip-rule="evenodd" d="m4.5,7.57495c.825,0,1.5-.675,1.5-1.5s-.675-1.5-1.5-1.5-1.5.675-1.5,1.5.675,1.5,1.5,1.5z" fill="#fff"/></svg>