<svg width="24" height="24" viewBox="0,0,24,24" xmlns="http://www.w3.org/2000/svg"><path fill-rule="evenodd" clip-rule="evenodd" d="m22.5,0h-21C.675,0,0,.675,0,1.5v21c0,.825.675,1.5,1.5,1.5h21c.825,0,1.5-.675,1.5-1.5v-21c0-.825-.675-1.5-1.5-1.5z" fill="#2d327d"/><path fill-rule="evenodd" clip-rule="evenodd" d="m5.24999,17.9325c-.0825.0075-.15.0825-.15.165V20.91c0,.0825.0675.15.15.15h3.405c.0825,0,.15-.0675.15-.15v-3.18c0-.0825-.0675-.1425-.15-.135l-3.405.3375z" fill="#fff"/><path fill-rule="evenodd" clip-rule="evenodd" d="m9.97499,15.7725h-1.1475V13.89c0-.165-.135-.3-.3-.3h-3.645l-.39-1.305c-.0225-.0825-.045-.21-.045-.2925V10.02c0-.08254.0675-.15004.15-.15004h.2625c.165,0,.3-.135.3-.3v-2.3775c0-.165-.135-.3-.3-.3h-1.6125c-.165,0-.3.135-.3.3V12.21c0,.0825.0225.2175.045.2925l1.38,4.62c.0975.315.4425.5475.7725.5175l3.6675-.36h1.1625c.16501,0,.30001-.135.30001-.3v-.9075c0-.165-.135-.3-.30001-.3zm-1.95.075-2.1.2025c-.165.015-.3375-.0975-.3825-.255l-.195-.66-.225-.75h2.7525c.0825,0,.15.0675.15.15v1.3125z" fill="#fff"/><path fill-rule="evenodd" clip-rule="evenodd" d="m15.9225,17.9325c-.0825.0075-.15.0825-.15.165V20.91c0,.0825.0675.15.15.15h3.405c.0825,0,.15-.0675.15-.15v-3.18c0-.0825-.0675-.1425-.15-.135l-3.405.3375z" fill="#fff"/><path fill-rule="evenodd" clip-rule="evenodd" d="m20.6475,15.7725H19.5V13.89c0-.165-.135-.3-.3-.3h-3.645l-.39-1.305c-.0225-.0825-.045-.21-.045-.2925V10.02c0-.08254.0675-.15004.15-.15004h.2625c.165,0,.3-.135.3-.3v-2.3775c0-.165-.135-.3-.3-.3h-1.62c-.165,0-.3.135-.3.3V12.21c0,.0825.0225.2175.045.2925l1.38,4.62c.0975.315.4425.5475.7725.5175l3.6675-.36h1.17c.165,0,.3-.135.3-.3v-.9075c0-.165-.135-.3-.3-.3zm-1.95.075-2.1.2025c-.165.015-.3375-.0975-.3825-.255l-.195-.66-.225-.75h2.7525c.0825,0,.15.0675.15.15v1.3125z" fill="#fff"/></svg>