<svg width="24" height="24" viewBox="0,0,24,24" xmlns="http://www.w3.org/2000/svg"><path fill-rule="evenodd" clip-rule="evenodd" d="m22.5,0h-21C.675,0,0,.675,0,1.5v21c0,.825.675,1.5,1.5,1.5h21c.825,0,1.5-.675,1.5-1.5v-21c0-.825-.675-1.5-1.5-1.5z" fill="#2d327d"/><path fill-rule="evenodd" clip-rule="evenodd" d="m3.2325,21.1875h17.625c.105,0,.1875-.0825.1875-.1875s-.0825-.1875-.1875-.1875H3.2325c-.105,0-.1875.0825-.1875.1875s.0825.1875.1875.1875z" fill="#fff"/><path fill-rule="evenodd" clip-rule="evenodd" d="m3.0225,13.8749c.165-.3.3825-.5775.63-.825.5025-.4875,1.14-.8175,1.83-.9525l5.76-1.0125L14.58,3.37493l1.4625-.3825.3,7.18497,2.67-.47247.5625-2.025,1.155-.15.39,3.29247-4.6425,2.655-11.13,1.9725c-.54.0975-1.095.0825-1.6275-.03-.2025-.045-.39-.15-.5325-.2925-.3225-.3375-.39-.8475-.165-1.2525z" fill="#fff"/><circle cx="6.1425" cy="16.1775" r=".5025" fill="#fff"/><circle cx="12.5175" cy="15.0075" r=".54" fill="#fff"/><circle cx="14.085" cy="14.7375" r=".54" fill="#fff"/></svg>