<svg width="24" height="24" viewBox="0,0,24,24" xmlns="http://www.w3.org/2000/svg"><path fill-rule="evenodd" clip-rule="evenodd" d="m22.5,0h-21C.675,0,0,.675,0,1.5v21c0,.825.675,1.5,1.5,1.5h21c.825,0,1.5-.675,1.5-1.5v-21c0-.825-.675-1.5-1.5-1.5z" fill="#2d327d"/><path fill-rule="evenodd" clip-rule="evenodd" d="m10.5,20.25c0,.4125.3375.75.75.75h9c.4125,0,.75-.3375.75-.75v-.375H10.5v.375z" fill="#fff"/><path fill-rule="evenodd" clip-rule="evenodd" d="m13.125,12h5.625c1.245,0,2.25,1.005,2.25,2.25s-1.005,2.25-2.25,2.25v1.875c0,.4125-.3375.75-.75.75h-4.5c-.4125,0-.75-.3375-.75-.75v-6c0-.21.165-.375.375-.375zm5.6325.75H18.75l.0075,3c.825,0,1.5-.675,1.5-1.5s-.675-1.5-1.5-1.5z" fill="#fff"/><path fill-rule="evenodd" clip-rule="evenodd" d="m9.375,7.5h-6c-.21,0-.375.165-.375.375V12c0,1.5825,1.23,2.895,2.8125,3v4.875H3.375c-.21,0-.375.165-.375.375v.375c0,.21.165.375.375.375h6c.21,0,.375-.165.375-.375v-.375c0-.21-.165-.375-.375-.375H6.9375V15C8.52,14.9025,9.75,13.59,9.75,12V7.875c0-.21-.165-.375-.375-.375z" fill="#fff"/></svg>