<svg width="24" height="24" viewBox="0,0,24,24" xmlns="http://www.w3.org/2000/svg"><path fill-rule="evenodd" clip-rule="evenodd" d="m22.5,0h-21C.675,0,0,.675,0,1.5v21c0,.825.675,1.5,1.5,1.5h21c.825,0,1.5-.675,1.5-1.5v-21c0-.825-.675-1.5-1.5-1.5z" fill="#2d327d"/><path fill-rule="evenodd" clip-rule="evenodd" d="m3,21V7.875h18V21H3zm1.125-1.125h15.75V9H4.125v10.875z" fill="#fff"/><path fill-rule="evenodd" clip-rule="evenodd" d="m16.875,19.125h-9.75C6.5025,19.125,6,18.6225,6,18v-5.7c0-.6225.5025-1.125,1.125-1.125H10.2v-.4875c0-.5175.42-.9375.9375-.9375h1.725c.5175,0,.9375.42.9375.9375v.4875h3.075c.6225,0,1.125.5025,1.125,1.125V18c0,.6225-.5025,1.125-1.125,1.125zm-3.75-8.7h-2.25v.75h2.25v-.75z" fill="#fff"/><path fill-rule="evenodd" clip-rule="evenodd" d="m10.125,6.18752-.75001-.75-.75.75h-1.29c-.36.795-1.155,1.35-2.085,1.35-1.26,0-2.2875-1.0275-2.2875-2.2875s1.0275-2.2875,2.2875-2.2875c.93,0,1.725.555,2.085,1.35H11.625l.9375.9375-.9375.9375-.75-.75-.75.75zm-6.75001-.9375c0,.4125.3375.75.75.75s.75-.3375.75-.75-.3375-.75-.75-.75-.75.3375-.75.75z" fill="#fff"/></svg>