<svg width="24" height="24" viewBox="0,0,24,24" xmlns="http://www.w3.org/2000/svg"><path fill-rule="evenodd" clip-rule="evenodd" d="m22.5,0h-21C.675,0,0,.675,0,1.5v21c0,.825.675,1.5,1.5,1.5h21c.825,0,1.5-.675,1.5-1.5v-21c0-.825-.675-1.5-1.5-1.5z" fill="#2d327d"/><path fill-rule="evenodd" clip-rule="evenodd" d="m13.38,11.0325.4125,9.06c.015.24-.075.4725-.2325.6375-.165.1725-.39.27-.63.27H3.87c-.24,0-.465-.0975-.63-.27s-.2475-.3975-.24-.6375l.4125-9.06c.0225-.465.405-.8325.87-.8325h1.94999v-.54c0-1.1925.96751-2.16,2.16-2.16,1.19251,0,2.16001.9675,2.16001,2.16v.54H12.51c.465,0,.8475.3675.87.8325zM7.45497,9.66c0-.525.42-.945.945-.945s.945.42.945.945v.54h-1.89v-.54zM4.7925,19.245l.3375-7.29h1.11v1.1475c0,.3375.27.6075.6075.6075s.6075-.27.6075-.6075V11.955h1.89v1.1475c0,.3375.27.6075.6075.6075s.6075-.27.6075-.6075V11.955h1.11l.3375,7.29h-7.215z" fill="#fff"/><path fill-rule="evenodd" clip-rule="evenodd" d="m4.95749,3.6675h-.465c-.0075-.1125-.0525-.195-.12-.255-.075-.06001-.1725-.09-.3075-.09-.1125,0-.2025.0225-.27.0675s-.0975.1125-.0975.195c0,.075.03.1275.09.1575s.21.0825.45.135c.255.06.435.1275.5325.195.18.12.27.285.27.495,0,.2325-.09.42-.2775.5475-.1575.12-.3825.18-.6525.18-.3075,0-.54-.0675-.7125-.21s-.255-.3375-.2625-.5925h.4875c.0075.1275.0375.2175.0975.2775.09.0975.225.1425.405.1425.12,0,.2175-.0225.2925-.075.0825-.0525.12-.1275.12-.225s-.06-.165-.1725-.21001c-.06-.0225-.21-.0675-.4425-.135-.1425-.0375-.2625-.075-.345-.1125s-.15-.075-.195-.11999c-.1125-.10501-.1725-.24751-.1725-.4275,0-.2175.09-.39.27-.51001.15-.105.3525-.16499.5925-.16499.2175,0,.39.04499.54.12749.225.13501.3375.33001.345.60751z" fill="#fff"/><path fill-rule="evenodd" clip-rule="evenodd" d="m5.79,3v.8025c.0525-.09.12-.1575.21-.21s.1875-.075.3-.075c.225,0,.3825.0825.48.24.06.09.0825.2325.0825.4275V5.25H6.42v-.99c0-.12-.015-.21-.0525-.255C6.315,3.9375,6.24,3.9,6.135,3.9c-.1425,0-.24.06-.3.1875-.015.0375-.03.0825-.0375.1275s-.0075.12-.0075.2175v.825h-.4425V3H5.79z" fill="#fff"/><path fill-rule="evenodd" clip-rule="evenodd" d="m8.6175,3.76502c-.1575-.1575-.3525-.24-.6-.24-.27,0-.4875.09-.645.2625-.1425.165-.2175.3675-.2175.6225s.075.465.225.63c.15.1725.36.255.6225.255.2475,0,.45-.0825.6-.2325.165-.165.2475-.3825.2475-.66,0-.2625-.0825-.48-.2325-.6375zm-.9075.2475c.075-.0975.165-.1425.285-.1425.1275,0,.225.0525.2925.15001.0675.08999.105.225.105.39,0,.18-.0375.31499-.1125.4125-.0675.0825-.165.1275-.2775.1275-.12,0-.2175-.05251-.2925-.14251-.0675-.09-.105-.225-.105-.3975s.0375-.3.105-.3975z" fill="#fff"/><path fill-rule="evenodd" clip-rule="evenodd" d="m9.55499,3.78002v-.21h-.42v2.28h.4425v-.8175c.12.1725.285.2625.50251.2625.225,0,.3975-.0825.5325-.2625.12-.1575.18-.3675.18-.615,0-.27-.0675-.4875-.2025-.6525s-.3075-.2475-.525-.2475c-.21751,0-.39001.09-.51001.2625zm.1125.2625c.0675-.09.1575-.135.2775-.135.12751,0,.21751.0375.29251.1275.0675.09.105.225.105.39,0,.1575-.0375.285-.105.375-.0675.0825-.1575.1275-.2775.1275s-.21751-.0375-.285-.1275c-.075-.09-.1125-.2175-.1125-.3825,0-.1575.0375-.285.10499-.375z" fill="#fff"/><path fill-rule="evenodd" clip-rule="evenodd" d="m11.4825,3.78002v-.21h-.42v2.28h.4425v-.8175c.12.1725.285.2625.5025.2625.225,0,.3975-.0825.5325-.2625.12-.1575.18-.3675.18-.615,0-.27-.0675-.4875-.2025-.6525s-.3075-.2475-.525-.2475-.39.09-.51.2625zm.105.2625c.0675-.09.1575-.135.2775-.135.1275,0,.225.0375.2925.1275s.105.225.105.39c0,.1575-.0375.285-.105.375-.0675.0825-.1575.1275-.2775.1275s-.2175-.0375-.285-.1275c-.075-.09-.1125-.2175-.1125-.3825,0-.1575.0375-.285.105-.375z" fill="#fff"/><path fill-rule="evenodd" clip-rule="evenodd" d="m13.44,3.405V3h-.4425v.405h.4425zm0,1.845V3.57h-.4425v1.68h.4425z" fill="#fff"/><path fill-rule="evenodd" clip-rule="evenodd" d="m14.22,3.57002v.2325c.0525-.075.0975-.1275.1425-.1575.1125-.0825.2475-.1275.3975-.1275.135,0,.255.0375.3525.105.075.0525.1275.1275.1575.21s.045.2025.045.36v1.0575h-.4425v-.96c0-.105-.0075-.1875-.03-.24-.015-.045-.045-.0825-.09-.105-.045-.03-.105-.045-.165-.045-.0675,0-.1275.015-.1875.0525s-.0975.075-.12.135c-.03.06-.045.165-.045.3v.8625h-.4425v-1.68h.4275z" fill="#fff"/><path fill-rule="evenodd" clip-rule="evenodd" d="m17.235,5.04751v-1.4925h-.42v.225c-.06-.0975-.1275-.1725-.2025-.21s-.165-.06-.2775-.06c-.2175,0-.39.0825-.525.24-.1275.1575-.1875.36-.1875.615s.06.4575.1875.6075.2925.225.5025.225c.2175,0,.3825-.0825.495-.2625v.21c0,.1425-.0225.2475-.0675.3075-.06.0825-.1575.12-.3.12-.18,0-.2925-.0675-.3225-.21h-.45c.045.3525.3.525.765.525.3375,0,.57-.105.6975-.3075.0375-.0675.0675-.1425.0825-.2175.015-.0825.0225-.18.0225-.315zm-1.095-1.005c.0675-.105.1575-.1575.285-.1575.1125,0,.2025.0375.2625.1125.0825.09.12.21.12.3675,0,.1275-.0225.24-.075.3225-.0675.1125-.165.165-.3.165-.105,0-.1875-.0375-.255-.1125-.075-.09-.1125-.21-.1125-.375,0-.135.0225-.24.075-.3225z" fill="#fff"/></svg>