<svg width="24" height="24" viewBox="0,0,24,24" xmlns="http://www.w3.org/2000/svg"><path fill-rule="evenodd" clip-rule="evenodd" d="m22.5,0h-21C.675,0,0,.675,0,1.5v21c0,.825.675,1.5,1.5,1.5h21c.825,0,1.5-.675,1.5-1.5v-21c0-.825-.675-1.5-1.5-1.5z" fill="#2d327d"/><path fill-rule="evenodd" clip-rule="evenodd" d="m11.25,20.415-1.035-3.3c-.06-.1875-.2325-.315-.4275-.315H8.235L9.51,21h1.305c.2475,0,.45-.2025.45-.45.0075-.045,0-.09-.015-.135z" fill="#fff"/><path fill-rule="evenodd" clip-rule="evenodd" d="m10.8225,3H9.51749l-1.275,4.2h1.5525c.195,0,.36751-.1275.42751-.315l1.035-3.3c.015-.045.0225-.09.0225-.135-.0075-.2475-.21-.45-.4575-.45z" fill="#fff"/><path fill-rule="evenodd" clip-rule="evenodd" d="m6.75,16.8c-.45-1.56-.675-3.18-.675-4.8s.225-3.24.675-4.8h.9375L8.9625,3H7.62c-.66,0-1.2825.2925-1.71.795C3.96,6.0825,2.8875,8.9925,2.8875,12S3.96,17.9175,5.91,20.2125C6.3375,20.715,6.9675,21,7.62,21h1.3425l-1.275-4.2H6.75z" fill="#fff"/></svg>