<svg width="36" height="36" viewBox="0,0,36,36" xmlns="http://www.w3.org/2000/svg"><path fill-rule="evenodd" clip-rule="evenodd" d="m16.75,6.26116V3h1v3.26116c2.6609.11904,5.0758,1.18343,6.917,2.8654l2.306-2.30604.7071.70711L25.374,9.8337c1.6817,1.8411,2.7458,4.2557,2.8648,6.9163H31.5v1h-3.2612c-.119,2.6607-1.1833,5.0755-2.8651,6.9166l2.3064,2.3064-.7071.7071-2.3064-2.3064c-1.8411,1.6818-4.2559,2.7461-6.9166,2.8651V31.5h-1v-3.2612c-2.6608-.119-5.0756-1.1833-6.91669-2.8651l-2.30642,2.3064-.7071-.7071,2.30642-2.3064c-1.68176-1.8411-2.74602-4.2559-2.86505-6.9166H3v-1h3.26116c.11902-2.6606,1.18316-5.0752,2.86475-6.91625L6.81979,7.52763l.7071-.70711,2.30609,2.30609C11.6741,7.44461,14.0891,6.3802,16.75,6.26116zm.5.98884c-5.5229,0-10,4.4771-10,10s4.4771,10,10,10,10-4.4771,10-10-4.4771-10-10-10zm-8,10c0-4.4176,3.5808-8,8-8s8,3.5824,8,8c0,4.4191-3.5809,8-8,8s-8-3.5809-8-8zm1.0176-.5h3.5179c.0849-.5926.3183-1.1374.6613-1.5954l-2.4873-2.4886c-.9629,1.1104-1.582,2.527-1.6919,4.084zm2.399-4.791,2.4873,2.4884c.4582-.3434,1.0032-.577,1.5961-.6619v-3.5179c-1.557.1098-2.9732.7288-4.0834,1.6914zM17.75,10.2676v3.5179c.5929.0849,1.138.3186,1.5963.662l2.4872-2.4884c-1.1102-.9626-2.5264-1.5817-4.0835-1.6915zm4.7906,2.3986-2.4874,2.4885c.343.458.5765,1.0028.6613,1.5953h3.5179c-.1099-1.5569-.7289-2.9735-1.6918-4.0838zm1.6918,5.0838h-3.5179c-.0849.5926-.3183,1.1375-.6615,1.5956l2.4882,2.4882c.9626-1.1103,1.5814-2.5266,1.6912-4.0838zM21.8341,22.5409l-2.4881-2.4882c-.4582.3433-1.0032.5769-1.596.6618v3.5179c1.5574-.1098,2.9739-.7288,4.0841-1.6915zM16.75,24.2324v-3.5179c-.5928-.0849-1.1377-.3184-1.5959-.6617L12.666,22.541c1.1102.9627,2.5267,1.5816,4.084,1.6914zm-4.7911-2.3985,2.4881-2.4882c-.3431-.4581-.5766-1.003-.6615-1.5957h-3.5179c.1098,1.5572.7287,2.9736,1.6913,4.0839zM17.25,14.75c-1.3799,0-2.5,1.1201-2.5,2.5s1.1201,2.5,2.5,2.5,2.5-1.1201,2.5-2.5-1.1201-2.5-2.5-2.5z"/></svg>