<svg width="48" height="48" viewBox="0,0,48,48" xmlns="http://www.w3.org/2000/svg"><path fill-rule="evenodd" clip-rule="evenodd" d="m14,4.49951c0-1.38014,1.1199-2.5,2.5-2.5h14c1.3801,0,2.5,1.11986,2.5,2.5V22.4995c0,1.3802-1.1199,2.5-2.5,2.5H24v21h-1v-21h-6.5c-1.3801,0-2.5-1.1198-2.5-2.5V4.49951zm2.5-1.5c-.8279,0-1.5.67214-1.5,1.5V22.4995c0,.8279.6721,1.5,1.5,1.5h14c.8279,0,1.5-.6721,1.5-1.5V4.49951c0-.82786-.6721-1.5-1.5-1.5h-14zm2.9258,10.41989V7.27736h4.275c.732,0,1.287.036,1.667.107.379.073.726.207,1.04.406.862.533,1.292,1.384,1.292,2.55304,0,1.148-.444,1.999-1.333,2.553-.307.192-.654.327-1.04.406-.386.078-.904.117-1.553.117h-4.348zm4.573-7.37204h-5.999V21.0384h1.426v-6.388h4.747c1.415,0,2.513-.277,3.292-.831,1.107-.779,1.661-1.962,1.661-3.548,0-1.55804-.571-2.71704-1.713-3.47604-.41-.28-.868-.475-1.374-.584-.506-.11-1.185-.164-2.04-.164z"/></svg>