<svg width="36" height="36" viewBox="0,0,36,36" xmlns="http://www.w3.org/2000/svg"><path fill-rule="evenodd" clip-rule="evenodd" d="m6,3.25C4.48036,3.25,3.25,4.48036,3.25,6v26.75h5.5V6c0-1.51964-1.23036-2.75-2.75-2.75zm-1.75,19.5V16.5c0-.9674.78264-1.75,1.75-1.75s1.75.7826,1.75,1.75v6.25h-3.5zm1.75-9c.66502,0,1.27465.2356,1.75.628V6c0-.96736-.78264-1.75-1.75-1.75S4.25,5.03264,4.25,6v8.378c.47535-.3924,1.08498-.628,1.75-.628zm-1.75,10v8h3.5v-8h-3.5zm9.25-20.5c-1.5196,0-2.75,1.23036-2.75,2.75v26.75h5.5V6c0-1.51964-1.2304-2.75-2.75-2.75zm1.75,11.128V6c0-.96736-.7826-1.75-1.75-1.75s-1.75.78264-1.75,1.75v8.378c.4754-.3924,1.085-.628,1.75-.628s1.2746.2356,1.75.628zm-3.5,2.122c0-.9674.7826-1.75,1.75-1.75s1.75.7826,1.75,1.75v6.25h-3.5V16.5zm0,15.25v-8h3.5v8h-3.5zm9.7192-27.42285L26.25,17.3037,31.0308,4.32715l.9384.3457-.8061,2.18803.4949.16523.474.15825-.158.47413-1.5,4.50001-.1581.4743-.4744-.1581-.665-.2217-2.3936,6.497,4.1984,11.3958,1.8606-.6201.3162.9486-1.8309.6103.642,1.7425-.9384.3458-.6527-1.7719-1.72.5733-.3162-.9486,1.6903-.5635L26.25,20.1963,22.4678,30.4622l1.6903.5635-.3162.9486-1.72-.5733-.6527,1.7719-.9384-.3458.642-1.7425-1.8309-.6103.3162-.9486,1.8606.6201L25.7171,18.75l-2.3936-6.497-.665.2217-.4744.1581-.1581-.4743-1.5-4.50001-.158-.47413.474-.15825.4949-.16523-.8061-2.18803.9384-.3457zm8.0531,6.98705.1611.0537,1.1839-3.55151-.0501-.01672-1.2949,3.51453zm-6.7057.0537.1611-.0537-1.2949-3.51453-.0501.01672,1.1839,3.55151z"/></svg>