<svg width="36" height="36" viewBox="0,0,36,36" xmlns="http://www.w3.org/2000/svg"><path fill-rule="evenodd" clip-rule="evenodd" d="m19.749,9.7506c0-3.58964,2.9104-6.5,6.5-6.5.9559,0,1.855.21712,2.6668.58257l.6604.29734-.5121.51214L25.249,8.45771v2.29289h2.2929l3.8151-3.81505.5112-.51125.2979.65879c.3675.81278.5829,1.71222.5829,2.66751,0,3.5896-2.9103,6.5-6.5,6.5-.8319,0-1.6193-.1656-2.3439-.449l-8.1033,8.1033c.2843.7262.4472,1.5148.4472,2.3457,0,3.5896-2.9103,6.5-6.49998,6.5-.95598,0-1.85391-.2172-2.66601-.5844l-.65878-.2979.51124-.5113,3.81353-3.8135v-2.2929H8.45613l-3.81355,3.8136-.51125.5112-.29789-.6588c-.36723-.8121-.58442-1.71-.58442-2.666,0-3.5896,2.91036-6.5,6.5-6.5.83088,0,1.61958.1629,2.34568.4472l8.103-8.103c-.2844-.7253-.4487-1.5128-.4487-2.3442zm6.5-5.5c-3.0373,0-5.5,2.46264-5.5,5.5,0,.802.1818,1.5601.4956,2.254l.1425.3151-9.0675,9.0675-.3151-.1425c-.6932-.3135-1.4528-.4941-2.25548-.4941-3.03735,0-5.5,2.4626-5.5,5.5,0,.5419.083,1.0637.23363,1.5593l3.41282-3.4129.14645-.1464H11.749v3.7071l-.1464.1465L8.18976,31.517c.49553.1506,1.01737.2336,1.55926.2336,3.03738,0,5.49998-2.4626,5.49998-5.5,0-.8027-.1806-1.5623-.4941-2.2555l-.1424-.3151,9.067-9.067.3148.1417c.6949.3128,1.4532.4959,2.2547.4959,3.0374,0,5.5-2.4626,5.5-5.5,0-.5422-.0824-1.06472-.2325-1.56039l-3.4139,3.41399-.1465.1464H24.249V8.04349l.1465-.14644,3.4134-3.41344c-.4959-.15008-1.0182-.23301-1.5599-.23301z"/></svg>