<svg width="36" height="36" viewBox="0,0,36,36" xmlns="http://www.w3.org/2000/svg"><path fill-rule="evenodd" clip-rule="evenodd" d="m20.75,9.09954V8.03271l-.8199.68256-7.8395,6.52623H6.25V20.74h5.8403l7.8394,6.541.8203.6844V9.09954zm-8.1586,7.02626,7.1586-5.9594v15.6623l-7.1582-5.9726-.1391-.1161H7.25v-3.4985h5.2024l.139-.1157zM27.6718,26.4261l-3.399-2.1015-.5258.8506,3.399,2.1015.5258-.8506zM23.747,10.8248l3.399-2.10147.5258.85056-3.399,2.10151-.5258-.8506zm5.538,2.3529-5.3955,1.338.2407.9706,5.3955-1.338-.2407-.9706zm-.0013,9.6467-5.394-1.3395.2411-.9705,5.394,1.3395-.2411.9705zM30.0001,17.4999h-5.9895v1h5.9895v-1z"/></svg>