<svg width="24" height="24" viewBox="0,0,24,24" xmlns="http://www.w3.org/2000/svg"><path fill-rule="evenodd" clip-rule="evenodd" d="m21.6889,4.83713C15.5931,2.3496,9.46015,2.39442,3.31541,4.83539L3,4.96069V21.0001h6v-2.991h7v2.991h6V4.96408l-.3111-.12695zM4,20.0001V5.64163c5.70162-2.18634,11.3589-2.22206,17-.00327V20.0001h-4v-2.991H8v2.991H4zm8.5-12.99986c-1.9559,0-3.5,1.54415-3.5,3.49996,0,1.9559,1.5441,3.5,3.5,3.5s3.5-1.5441,3.5-3.5c0-1.95581-1.5441-3.49996-3.5-3.49996zM8,10.5002c0-2.5081,1.99186-4.49996,4.5-4.49996,2.5081,0,4.5,1.99186,4.5,4.49996,0,2.5082-1.9919,4.5-4.5,4.5-2.50814,0-4.5-1.9918-4.5-4.5zm6.7921-1.58975-1.9,2.39995-.3296.4164-.3958-.3541-1.9-1.69998.6668-.74524,1.5042,1.34592,1.5704-1.98365.784.6207z"/></svg>