<svg width="36" height="36" viewBox="0,0,36,36" xmlns="http://www.w3.org/2000/svg"><path fill-rule="evenodd" clip-rule="evenodd" d="m32.4389,7.48705c-9.0818-3.70604-18.2143-3.64022-27.37349-.00174L4.75,7.6106V31.25h8.5v-4.4865h11V31.25h8.5V7.61399l-.3111-.12694zM5.75,30.25V8.29081c8.7164-3.38292,17.3729-3.43952,26-.00331V30.25h-6.5v-4.4865h-13V30.25h-6.5zm13-19.9998c-3.0719,0-5.5,2.4282-5.5,5.5,0,3.0719,2.4281,5.5,5.5,5.5s5.5-2.4281,5.5-5.5c0-3.0718-2.4281-5.5-5.5-5.5zm-6.5,5.5c0-3.6241,2.8759-6.49996,6.5-6.49996s6.5,2.87586,6.5,6.49996c0,3.6242-2.8759,6.5-6.5,6.5s-6.5-2.8758-6.5-6.5zm9.7422-2.5398-2.85,3.6-.3297.4164-.3958-.3542-2.85-2.55.6668-.7452,2.4543,2.1959,2.5203-3.1836.7841.6207z"/></svg>