<svg width="36" height="36" viewBox="0,0,36,36" xmlns="http://www.w3.org/2000/svg"><path fill-rule="evenodd" clip-rule="evenodd" d="m13.97,9.77095.5864-1.61275-1.3609,1.04535c-2.7013,2.07495-3.90352,4.69735-3.97338,7.29485-.06948,2.5831.98128,5.1008,2.70848,6.9948,1.7284,1.8954,4.1562,3.1899,6.8663,3.2917,2.7199.1021,5.6634-.9993,8.4092-3.7837l1.4808-1.5017-1.9974.677c-1.7854.6053-3.4862.6792-5.0376.358,1.2873-1.1002,2.0974-2.7942,2.0974-4.5343,0-3.126-2.6223-5.75-5.75-5.75-1.7277,0-3.261.7793-4.3046,1.9425-.296-1.5107-.2272-3.04.2753-4.42175zm.0431,5.63885c.4705,1.4353,1.2627,2.8118,2.3149,3.9808,1.1154,1.2394,2.5103,2.2309,4.1018,2.8003,1.3838-.8466,2.3195-2.4938,2.3195-4.1907,0-2.5739-2.1747-4.75-4.75-4.75-1.6771,0-3.145.8952-3.9862,2.1596zM15.5847,20.0596c2.2588,2.5098,5.6119,4.1184,9.4394,3.5486-2.1122,1.6319-4.244,2.2504-6.1897,2.1774-2.4086-.0904-4.5933-1.2428-6.1649-2.9662-1.5728-1.7247-2.5095-3.9976-2.4477-6.2942.0504-1.8771.7683-3.7977,2.398-5.4776-.4734,3.1243.7337,6.5328,2.9649,9.012z"/></svg>