<svg width="24" height="24" viewBox="0,0,24,24" xmlns="http://www.w3.org/2000/svg"><path fill-rule="evenodd" clip-rule="evenodd" d="m12,7V4h1v3h-1zm-5.91478-.29606,2.268,2.258.70554-.70866-2.268-2.258-.70554.70866zM12.4998,9c-1.9409,0-3.50004,1.5591-3.50004,3.5,0,.8277.25213,1.6186.69609,2.1949l-.79219.6102c-.59604-.7737-.9039-1.7868-.9039-2.8051,0-2.4931,2.00684-4.5,4.50004-4.5,2.4942,0,4.5,2.0069,4.5,4.5,0,1.0734-.4028,2.0478-1.009,2.8086l-.7821-.6232c.4838-.6072.7911-1.3668.7911-2.1854,0-1.9409-1.5583-3.5-3.5-3.5zM7,13H4v-1h3v1zm11.3008-6.91234-2.266,2.251.7048.70945,2.266-2.251-.7048-.70945zM18,12h3v1h-3v-1zM5,17h13.993v-1H5v1z"/></svg>