<svg width="36" height="36" xmlns="http://www.w3.org/2000/svg"><path fill-rule="evenodd" clip-rule="evenodd" d="m27.75,5.75c-2.2094,0-4,1.79064-4,4,0,2.2094,1.7906,4,4,4s4-1.7906,4-4c0-2.20936-1.7906-4-4-4zm-5,4c0-2.76164,2.2384-5,5-5s5,2.23836,5,5c0,2.7616-2.2384,5-5,5s-5-2.2384-5-5zM8.00196,12.0245c4.54264-2.62361,10.35344-1.0671,12.97704,3.477l.25.433-.4331.25-7.3867,4.2645L19.059,31.75H33v1H3v-1h14.941l-5.3994-10.8001-7.33515,4.2346-.43312.2501-.24995-.4332c-2.62193-4.544-1.0656-10.3532,3.47847-12.9768m.50023.8659h-.00012c-.80814.4666-1.51068,1.0458-2.09924,1.7063-.0987.5506-.12468,1.1474-.08767,1.7641.1071,1.7844.74146,3.8872,1.86222,5.9539l-3.02515,1.7464c-1.59217-3.1704-1.01601-6.9206,1.2506-9.4644m2.64091,7.2178,6.91597-3.9927c-1.1653-1.8932-2.5675-3.3696-3.9096-4.2558-1.4693-.9702-2.72323-1.1515-3.54709-.6761m8.32309,4.4318c-1.2294-2.0041-2.7332-3.6051-4.225-4.5901-.5155-.3405-1.0453-.6164-1.5715-.8062,3.3357-.6907,6.8719.6855,8.8209,3.6502l-3.0244,1.7461zm-7.78237,4.4928c-1.05682-1.9557-1.63403-3.9082-1.73038-5.5136-.10553-1.7584.36484-2.9351,1.1886-3.4104l-.24949-.4324-.00015-.0003-.00025-.0004.25012.433"/></svg>