<svg width="24" height="24" viewBox="0,0,24,24" xmlns="http://www.w3.org/2000/svg"><path fill-rule="evenodd" clip-rule="evenodd" d="m17,4v3h3v1h-3.2929l-1,1H18v1h-3.2929l-.1256.1256C15.4664,11.1709,16,12.523,16,14c0,3.3131-2.6869,6-6,6-3.3142,0-6-2.6869-6-6,0-3.3141,2.68586-6,6-6,1.4767,0,2.829.53356,3.8744,1.4185L14,9.29289V6h1v2.29289l1-1V4h1zm-7,5c1.2005,0,2.3023.42317,3.1643,1.1286l-1.4259,1.4259C11.248,11.2053,10.648,11,10,11c-1.65714,0-3,1.3429-3,3s1.34286,3,3,3c1.6571,0,3-1.3429,3-3,0-.648-.2053-1.248-.5545-1.7384l1.426-1.4259C14.5768,11.6975,15,12.7993,15,14c0,2.7609-2.2391,5-5,5-2.7618,0-5-2.2391-5-5,0-2.7619,2.23814-5,5-5zm0,3c.371,0,.7183.1009,1.0161.2768l-.7571.7571C10.1764,13.0118,10.0896,13,10,13c-.55214,0-1,.4479-1,1s.44786,1,1,1c.5521,0,1-.4479,1-1,0-.0896-.0118-.1764-.0339-.259l.7571-.7571C11.8991,13.2817,12,13.629,12,14c0,1.1049-.8951,2-2,2-1.10486,0-2-.8951-2-2s.89514-2,2-2z"/></svg>