<svg width="48" height="48" viewBox="0,0,48,48" xmlns="http://www.w3.org/2000/svg"><path fill-rule="evenodd" clip-rule="evenodd" d="m38,4.5V3.45969l-.8123.64987-5,4L32,8.25969v6.04401l-1.644,1.7704C27.4547,13.5372,23.657,12,19.5,12,10.3879,12,3,19.3879,3,28.5,3,37.6132,10.3879,45,19.5,45,28.6131,45,36,37.6131,36,28.5c0-4.596-1.8792-8.7533-4.9113-11.7453L32.718,15h5.9891l.1465-.1464,5-5.00005L44.7071,9H38V4.5zM33,14V8.74031l4-3.2V10h5.2929l-4,4H33zM4,28.5C4,19.9401,10.9401,13,19.5,13c3.8941,0,7.4527,1.436,10.1752,3.8072l-1.3615,1.4664C25.9487,16.2335,22.8685,15,19.5,15,12.0439,15,6,21.0439,6,28.5S12.0439,42,19.5,42,33,35.9561,33,28.5c0-3.728-1.5109-7.1029-3.9537-9.5458l1.3616-1.4663C33.2436,20.2969,35,24.1935,35,28.5,35,37.0609,28.0609,44,19.5,44,10.9401,44,4,37.0608,4,28.5zM19.5,16c3.1056,0,5.9467,1.1324,8.1327,3.0069l-2.7252,2.9348C23.438,20.7287,21.5541,20,19.5,20c-4.6941,0-8.5,3.8059-8.5,8.5s3.8059,8.5,8.5,8.5,8.5-3.8059,8.5-8.5c0-2.2803-.8981-4.351-2.3599-5.8776l2.7252-2.9349C30.6118,21.9474,32,25.0615,32,28.5,32,35.4039,26.4039,41,19.5,41S7,35.4039,7,28.5,12.5961,16,19.5,16zm0,5c1.7912,0,3.4359.6281,4.7257,1.676l-2.7347,2.945C20.9258,25.2294,20.2397,25,19.5,25c-1.9331,0-3.5,1.5669-3.5,3.5s1.5669,3.5,3.5,3.5,3.5-1.5669,3.5-3.5c0-.8328-.2908-1.5975-.7763-2.1984l2.7346-2.945C26.2241,24.6994,27,26.5092,27,28.5c0,4.1419-3.3581,7.5-7.5,7.5S12,32.6419,12,28.5,15.3581,21,19.5,21zm0,5c.4764,0,.9217.1332,1.3007.3645l-1.6671,1.7953.7328.6804,1.6669-1.7951c.2938.4098.4667.9121.4667,1.4549,0,1.3809-1.1191,2.5-2.5,2.5S17,29.8809,17,28.5,18.1191,26,19.5,26z"/></svg>