<svg width="36" height="36" xmlns="http://www.w3.org/2000/svg"><path fill-rule="evenodd" clip-rule="evenodd" d="m15.1898,7.08383c.9314-.46362,1.966-.75099,3.0601-.81846V3h1v3.26537c1.0941.06747,2.1287.35484,3.0601.81846l1.6319-2.82651.866.5-1.6323,2.82731c.887.59015,1.6495,1.35267,2.2397,2.23972l2.8273-1.63236.5.86602-2.8265,1.63189c.4636.9314.7509,1.966.8184,3.0601h3.2654v1h-3.2654c-.0675,1.0941-.3548,2.1287-.8184,3.0601l2.8265,1.6319-.5.866-2.8273-1.6323c-.5902.887-1.3527,1.6495-2.2398,2.2397l1.6324,2.8273-.866.5L22.31,21.4162c-.9315.4636-1.966.751-3.0601.8184V25.5h-1v-3.2654c-1.0941-.0674-2.1287-.3548-3.0601-.8184l-1.6319,2.8264-.866-.5,1.6323-2.8272c-.887-.5902-1.6495-1.3527-2.2397-2.2397L9.25721,20.308l-.5-.866,2.82649-1.6319c-.4636-.9314-.751-1.966-.8184-3.0601H7.49989v-1h3.26541c.0674-1.0941.3548-2.1287.8184-3.0601L8.75721,9.05801l.5-.86602,2.82729,1.63234c.5902-.88704,1.3527-1.64955,2.2397-2.2397l-1.6323-2.82731.866-.5,1.6319,2.82651zm3.5601.16617c3.6979,0,6.726,2.8674,6.9824,6.5h-3.5179c-.2426-1.6961-1.7013-3-3.4645-3-.4592,0-.8978.0884-1.2996.2492L15.691,7.95195c.9241-.44968,1.962-.70195,3.0589-.70195zm-2.1652,4.2499-1.7593-3.04717c-1.856,1.25888-3.0755,3.38567-3.0755,5.79727s1.2195,4.5384,3.0755,5.7972l1.7593-3.0471c-.8129-.6409-1.3348-1.6346-1.3348-2.7501s.5219-2.1092,1.3348-2.7501zm.8656,6.0009L15.691,20.548c.9241.4497,1.962.702,3.0589.702,3.6979,0,6.726-2.8674,6.9824-6.5h-3.5179c-.2426,1.6961-1.7013,3-3.4645,3-.4592,0-.8978-.0884-1.2996-.2492zM3.13541,24.3044c.03631-.0048.07468-.0099.11448-.015V21h1v3.2651c1.09745.0667,2.13295.3514,3.06406.8119l1.62792-2.8197.86603.5-1.62721,2.8184c.89022.5897,1.65376,1.3533,2.24351,2.2435l2.8184-1.6272.5.866-2.8197,1.6279c.4604.9312.7452,1.9666.8119,3.0641h3.2651v1h-3.2894c-.0051.0398-.0102.0782-.015.1145v.0001c-.0094.0711-.0178.1343-.0229.1849l-.9951-.099c.0075-.0751.0154-.1409.0232-.2005H7.20952c-.02021.1287-.04668.2525-.07636.3712l-.97016-.2424c.05375-.2151.08689-.4207.08689-.6288,0-1.407-1.09304-2.5-2.5-2.5-.20814,0-.4137.0331-.62878.0869l-.24245-.9702c.26558-.0663.55623-.1167.87123-.1167,1.78918,0,3.22937,1.2849,3.4659,3h3.51681c-.2533-3.6517-3.26258-6.5-6.98271-6.5-.14067,0-.25158.0153-.39111.0345-.08721.012-.18558.0255-.30939.0378l-.099-.995c.05064-.0051.11383-.0135.1849-.0229h.00012zm23.92249-2.0471,1.6279,2.8197c.9311-.4605,1.9666-.7452,3.0641-.8119V21h1v3.2651c.097.0059.1935.0135.2896.0228.0233.0023.0421.0057.0539.0081l.0143.0032.0021.0005-.0121-.0027c-.0107-.0022-.0286-.0054-.0511-.0076l-.0934.9957-.0154-.0017-.0144-.002c-.2213-.0208-.4459-.0314-.6735-.0314-1.1008,0-2.1394.2494-3.0628.6952l1.7596,3.0478c.4012-.1571.8405-.243,1.3032-.243.315,0,.6056.0504.8712.1167l-.2424.9702c-.2151-.0538-.4207-.0869-.6288-.0869-1.407,0-2.5,1.093-2.5,2.5,0,.2081.0331.4137.0869.6288l-.9702.2424c-.0664-.2656-.1167-.5562-.1167-.8712,0-1.1327.515-2.1256,1.3281-2.7617l-1.7578-3.0446c-1.8575,1.2539-3.0703,3.3788-3.0703,5.8063,0,.1407.0153.2516.0345.3911.012.0872.0255.1856.0378.3094l-.9951.099c-.005-.0506-.0134-.1138-.0228-.1848v-.0002c-.0049-.0363-.0099-.0747-.015-.1145h-3.2894v-1h3.2651c.0667-1.0975.3514-2.133.8119-3.0641l-2.8197-1.6279.5-.866,2.8184,1.6272c.5897-.8902,1.3533-1.6538,2.2435-2.2435l-1.6272-2.8184.866-.5zM16.2499,14.25c0-1.3807,1.1193-2.5,2.5-2.5s2.5,1.1193,2.5,2.5-1.1193,2.5-2.5,2.5-2.5-1.1193-2.5-2.5z"/></svg>