<svg width="24" height="24" viewBox="0,0,24,24" xmlns="http://www.w3.org/2000/svg"><path fill-rule="evenodd" clip-rule="evenodd" d="m10.1936,4.50545c.5579-.25804,1.1663-.42535,1.8063-.48303V2h1v2.02242c.64.05768,1.2484.22499,1.8063.48303l1.0107-1.75057.866.5-1.0111,1.75133c.5122.36218.9597.80973,1.3219,1.32192l1.7513-1.01114.5.86602-1.7506,1.0107c.2581.55787.4254,1.16627.4831,1.80629h2.0224v1h-2.0224c-.0577.64-.225,1.2484-.4831,1.8063l1.7506,1.0107-.5.866-1.7513-1.0111c-.3622.5122-.8097.9597-1.3219,1.3219l1.0111,1.7513-.866.5-1.0107-1.7505c-.5579.258-1.1663.4253-1.8063.483V17h-1v-2.0224c-.64-.0577-1.2485-.225-1.8063-.4831l-1.0107,1.7506-.86603-.5,1.01112-1.7513c-.51218-.3622-.95972-.8097-1.32189-1.3219L6.25477,13.683l-.5-.866,1.75056-1.0107C7.2473,11.2484,7.07998,10.64,7.02231,10H4.99989V9h2.02242c.05767-.64002.22499-1.24843.48302-1.8063L5.75477,6.18301l.5-.86602L8.0061,6.32812c.36218-.51219.80972-.95973,1.3219-1.32191L8.31687,3.25488l.86603-.5,1.0107,1.75057zM12.4999,5c2.3163,0,4.2238,1.75002,4.4725,4h-2.0225c-.2317-1.14112-1.2405-2-2.45-2-.2769,0-.5432.045-.7921.12809l-1.0116-1.75205C11.2484,5.1342,11.8585,5,12.4999,5zm-1.6578,2.62868-1.01147-1.7519C8.72016,6.69624,7.99989,8.01401,7.99989,9.5c0,1.486.72026,2.8037,1.83072,3.6232l1.01149-1.7519c-.5166-.458-.84221-1.1266-.84221-1.8713,0-.74469.32561-1.41332.84221-1.87132zm.8657,4.24322-1.0116,1.7521c.5522.2418,1.1623.376,1.8037.376,2.3163,0,4.2238-1.75,4.4725-4h-2.0225c-.2317,1.1411-1.2405,2-2.45,2-.2769,0-.5432-.045-.7921-.1281zm-9.75741,4.1804c.0135-.0013.03021-.0033.0495-.0058V14h1v2.0221c.64183.057,1.25088.2229,1.80874.4791l1.00824-1.7463.86603.5L5.67534,17c.51404.3622.96237.8105,1.32452,1.3246l1.74517-1.0076.5.866-1.74636,1.0083c.25625.5578.42209,1.1669.47912,1.8087h2.0221v1h-2.0465c-.00247.0193-.00448.036-.00583.0495L7.45002,22H4.94504c-.0087.0414-.0181.0818-.02794.1212l-.97017-.2424c.03373-.135.05296-.2579.05296-.3788,0-.8459-.65408-1.5-1.5-1.5-.12095,0-.24381.0192-.37878.053l-.24245-.9702c.18547-.0464.39342-.0828.62123-.0828,1.22658,0,2.22504.8479,2.45168,2H6.9729c-.24584-2.2616-2.14196-4-4.47301-4-.08418,0-.14277.0082-.22548.0198h-.00004c-.05766.0081-.12704.0179-.22498.0276l-.099-.9951zm16.23251-1.2974,1.0082,1.7463c.5579-.2562,1.167-.4221,1.8088-.4791V14h1v2.0221l.0425.004c.023.0022.0415.0056.0531.008l.014.003-.0111-.0024c-.0109-.0022-.0291-.0055-.0518-.0077l-.0934.9957c-.0087-.0009-.0168-.0018-.0242-.0029-.1409-.0131-.284-.0198-.4291-.0198-.6437,0-1.2542.1326-1.806.3721l1.012,1.7527c.2486-.0811.5154-.1248.794-.1248.2278,0,.4357.0364.6212.0828l-.2424.9702c-.135-.0338-.2579-.053-.3788-.053-.8459,0-1.5.6541-1.5,1.5,0,.1209.0192.2438.0529.3788l-.9701.2424c-.0464-.1854-.0828-.3934-.0828-.6212,0-.7553.3215-1.4241.8375-1.8794l-1.0104-1.7502c-1.111.8165-1.8271,2.1335-1.8271,3.6296,0,.0842.0082.1428.0198.2255.0081.0577.0179.1271.0276.225l-.9951.099c-.0013-.0135-.0033-.0302-.0058-.0495h-2.0465v-1h2.0221c.057-.6418.2229-1.2509.4791-1.8087l-1.7463-1.0083.5-.866,1.7451,1.0075c.3622-.514.8105-.9623,1.3245-1.3245l-1.0075-1.7451.866-.5zM10.9999,9.5c0-.82843.6716-1.5,1.5-1.5s1.5.67157,1.5,1.5c0,.8284-.6716,1.5-1.5,1.5s-1.5-.6716-1.5-1.5z"/></svg>