<svg width="24" height="24" viewBox="0,0,24,24" xmlns="http://www.w3.org/2000/svg"><path fill-rule="evenodd" clip-rule="evenodd" d="m4.99902,5h4.001v.78237c.04124-.03658.08364-.07182.12717-.10574.69334-.54022,1.58041-.66809,2.37281-.66809h5c.8278,0,1.5.67054,1.5,1.5,0,.19506-.0373.38145-.1051.55243C18.5321,7.23407,19,7.81611,19,8.50854c0,.38392-.1442.73436-.3816.9998.2374.2653.3816.61576.3816,1.00016,0,.384-.1442.7344-.3816.9998.2374.2653.3816.6158.3816,1.0002,0,.8279-.6705,1.5-1.5,1.5h-2.7658l1.169,2.9689.0028.0071c.0629.1673.094.3441.094.524,0,.8279-.6705,1.5-1.5,1.5-.416,0-.7929-.1703-1.0645-.4434l-.0076-.0076-.0073-.008-4.14131-4.541H8v-.0005H4.99902V5zm3.001,3.49085C8.00001,8.49674,8,8.50264,8,8.50854V13.008H5.99902V6h2.001v2.49085zm1,4.51765h.72069l.14873.1631,4.28146,4.6947c.0918.0891.2143.1422.3491.1422.2765,0,.5-.2238.5-.5,0-.0628-.0105-.119-.0289-.169l-1.4363-3.6478-.269-.6832H17.5c.2765,0,.5-.2238.5-.5,0-.2768-.2231-.5-.5-.5v-.0004H16v-1h1.5v.0004c.2765,0,.5-.2238.5-.5,0-.2768-.2231-.5-.5-.5v-.0004H16V9.00806h1.5v.00048c.2765,0,.5-.22381.5-.5,0-.27685-.2231-.5-.5-.5h-1v-.00048H16v-1h.5v.00048c.2759,0,.5-.22414.5-.5,0-.27653-.2238-.5-.5-.5h-5c-.7156,0-1.3285.12214-1.75819.45692-.40239.31352-.73856.8901-.74179,2.02658v4.51646z"/></svg>