<svg width="24" height="24" viewBox="0,0,24,24" xmlns="http://www.w3.org/2000/svg"><path fill-rule="evenodd" clip-rule="evenodd" d="m2,3.99976h20v5h-.5c-1.4239,0-2.5,1.07614-2.5,2.50004,0,1.4238,1.0761,2.5,2.5,2.5h.5v5H2V3.99976zm1,1v2.00048h5.27766l.14828.22403,1.84276,2.78393H12c1.1025,0,1.9957.8906,2,1.992v3h-2.2676c-.3457.5977-.9918.9996-1.7324.9996-.74077,0-1.38706-.4021-1.73271-1H4.73285C4.38724,15.5978,3.74087,16,3,16v1.9998h13v-.4643h1v.4643h4v-3.0333c-1.7274-.2327-3-1.6609-3-3.4667,0-1.80593,1.2726-3.23411,3-3.4668V4.99976h-4v.46428h-1v-.46428H3zM3,12V8.00024h4.74034l1.84272,2.78396.14828.224H12c.5529,0,1,.4472,1,1v1.992h-1v-.0004c0-1.104-.8946-2-2-2-1.10536,0-2,.896-2,2H5C4.99987,12.8959,4.10528,12,3,12zm1,2c0,.5529-.44714,1-1,1v-2c.55264,0,1,.4479,1,1zm5-.0002c0-.5521.44736-1,1-1,.5526,0,1,.4479,1,1,0,.5528-.4471,1-1,1-.55286,0-1-.4472-1-1zM6.73532,9.99536H6v-1h1.27268l.14828.22406.996,1.50498-.83392.5519-.84772-1.28094zM16,6.39261v.92857h1v-.92857h-1zm0,1.85715v.92857h1v-.92857h-1zm0,1.85714v.9286h1v-.9286h-1zm0,1.8571v.9286h1v-.9286h-1zm0,1.8572v.9286h1v-.9286h-1zM16,15.6783v.9286h1v-.9286h-1z"/></svg>