<svg width="48" height="48" viewBox="0,0,48,48" xmlns="http://www.w3.org/2000/svg"><path fill-rule="evenodd" clip-rule="evenodd" d="m23,6h-.2071l-.1465.14645-2.5,2.5L20,8.79289V10.002L11.0001,10l-.2072-.00005-.1465.14645-2.49995,2.5L8,12.7929V42h20v-4h12V6H23zm4.5001,4.0037L21,10.0023v-.79519L23.2071,7H39v30H28v-3h3v-1h-3v-5h8v-1h-8v-3h8v-1h-8V10.0038l-.4999-.0001zM24,28H12v-1h12v1zm0,4H12v-1h12v1zm-12,6h7v-1h-7v1zm-.7929-27L9,13.2071V41h18V11.0036L11.2071,11zm24.8209-1v8.5664h-1.1133v-6.2109h-2.1621v-.7735c.8086,0,1.418-.1523,1.8281-.457.2774-.207.4942-.582.6504-1.125h.7969zM24.0061,21.3164v.9492h-5.5723c.0391-.8437.2579-1.5468.6563-2.1094.1797-.2578.4004-.496.6621-.7148.2617-.2187.668-.5039,1.2187-.8555.8047-.5117,1.3184-.9023,1.5411-1.1718.3281-.3868.4922-.8243.4922-1.3125,0-.375-.0918-.7032-.2754-.9844-.3008-.4688-.7559-.7031-1.3653-.7031-.5273,0-.9306.1855-1.2099.5566s-.4327.9238-.46,1.6582h-1.0254c-.0039-.1055-.0058-.1797-.0058-.2227,0-.4218.0703-.8222.2109-1.2011s.3379-.6992.5918-.961c.4844-.4961,1.1348-.7441,1.9512-.7441.7539,0,1.3691.2051,1.8457.6152.2578.2227.458.5059.6005.8496.1426.3438.2139.711.2139,1.1016,0,.75-.2539,1.4004-.7617,1.9512-.3359.3633-.9336.8086-1.793,1.3359-.6718.4141-1.1338.751-1.3857,1.0108-.252.2597-.4248.5771-.5186.9521h4.3887z"/></svg>