<svg width="24" height="24" viewBox="0,0,24,24" xmlns="http://www.w3.org/2000/svg"><path fill-rule="evenodd" clip-rule="evenodd" d="m8,2h8v1h-1.7324l-1.333,1.99951H16c1.6573,0,3,1.34399,3,3v9.99999h-2.191l.5,1H18v1h-.191l.5,1H19v1H5v-1h.69098l.5-1H6v-1h.69098l.5-1H5V7.99951c0-1.65601,1.34273-3,3-3h3.0654L9.73241,3H8V2zm4,2.59861L13.0657,3h-2.1314L12,4.59861zM10,8V7h4v1h-4zM6.80902,20.9995l.5-1H16.691l.5,1H6.80902zm9.38198-2-.5-1H8.30902l-.5,1H16.191zM6,13v3.9995h12V13H6zm12-1V7.99951c0-1.10399-.8953-2-2-2H8c-1.10473,0-2,.89601-2,2V12h12zm-4,2.9995c0-.5505.4472-1,1-1s1,.4495,1,1c0,.5522-.4479,1-1,1s-1-.4478-1-1zm-5-1c-.55279,0-1,.4495-1,1,0,.5522.44786,1,1,1s1-.4478,1-1c0-.5505-.44721-1-1-1z"/></svg>