<svg width="36" height="36" viewBox="0,0,36,36" xmlns="http://www.w3.org/2000/svg"><path fill-rule="evenodd" clip-rule="evenodd" d="m3.75,4.74963h-.5V19.2496h4.5v4.1886l.85355-.8535L12.25,18.9382V29.75h11.8564l3.29,3.2901.8536.8535V29.75h4.5v-14.5h-9V4.74963h-20zm19,10.50037V5.74963H4.25V18.2496h4.5v2.7744l3.5-3.5V15.25h10.5zm-9.5,1h18.5v12.5h-4.5v2.7294l-2.5829-2.583-.1465-.1464H13.25v-12.5zM6,9.25h15v1H6v-1zm12,3H6v1h12v-1zm-3,7.5h15v1H15v-1zm15,3H15v1h15v-1zm-26.75,6.5V22.5h1v6.25h3.98161L6.4338,26.9522l.70711-.7071,2.652,2.652.35369.3536-.35379.3536-2.652,2.6505-.70691-.7073L8.2324,29.75H3.25v-.5zm24.5167-21.5H32.75v5.75h-1V8.75h-3.9824l1.7978,1.7978-.7071.7071-2.652-2.65203-.3537-.35365.3538-.35356,2.652-2.6505.7069.70731L27.7667,7.75z"/></svg>