<svg width="24" height="24" viewBox="0,0,24,24" xmlns="http://www.w3.org/2000/svg"><path fill-rule="evenodd" clip-rule="evenodd" d="m22.5,0h-21C.675,0,0,.675,0,1.5v21c0,.825.675,1.5,1.5,1.5h21c.825,0,1.5-.675,1.5-1.5v-21c0-.825-.675-1.5-1.5-1.5z" fill="#2d327d"/><path fill-rule="evenodd" clip-rule="evenodd" d="m21,3v.375L3,4.95v-.375L21,3z" fill="#fff"/><path fill-rule="evenodd" clip-rule="evenodd" d="m12.69,17.82,3.7725-.33c-.24.8775-1.0425,1.4775-1.95,1.4775-.7725,0-1.485-.4425-1.8225-1.1475z" fill="#fff"/><path fill-rule="evenodd" clip-rule="evenodd" d="m12.3675,4.44751L8.43,7.20001l2.34,1.2975L3,9.18001v.675l3.795-.33h.03c.195,0,.36.15.375.345l.2625,2.99249v.03c0,.195-.15.36-.345.375L3,13.6275v4.29l17.715-1.56c.195-.015.345-.18.345-.375v-.03l-.6375-7.31999c-.045-.5025-.4725-.8925-.975-.8925-.015,0-.0281.00187-.0413.00375-.0131.00187-.0262.00375-.0412.00375l-4.71.4125,2.07-1.6875-4.3575-2.025zm5.325,7.51499L17.43,8.97001v-.03c0-.195.15-.36.345-.375l1.605-.1425h.03c.195,0,.36.15.375.345l.2625,2.99249v.03c0,.195-.15.36-.345.375l-1.605.1425h-.03c-.195,0-.36-.15-.375-.345zM15.615,9.24001,15.99,13.5c.0225.2925.27.51.5625.51.3075,0,.5625-.255.5625-.5625v-.0525l-.375-4.25999c-.0225-.2925-.27-.51-.5625-.51-.3075,0-.5625.255-.5625.5625-.0075.0225-.0075.0375,0,.0525zM14.19,13.6575l-.375-4.25999v-.0525c0-.3075.255-.5625.5625-.5625.2925,0,.54.2175.5625.51l.375,4.25999v.0525c0,.3075-.255.5625-.5625.5625-.2925,0-.54-.2175-.5625-.51zm1.275-7.02749-3.03-1.41-2.7375,1.9125,2.265,1.26,1.485-.1275,2.0175-1.635zm-7.5975,3.15c0-.195.15-.36.345-.375l4.5225-.405h.03c.195,0,.36.15.375.345l.2625,2.99249v.03c0,.195-.15.36-.345.375L8.535,13.14h-.03c-.195,0-.36-.15-.375-.345l-.2625-2.98499v-.03z" fill="#fff"/><path fill-rule="evenodd" clip-rule="evenodd" d="m8.21249,18.21,3.77251-.33c-.24.8775-1.0425,1.4775-1.95,1.4775-.78001,0-1.49251-.4425-1.82251-1.1475z" fill="#fff"/><path fill-rule="evenodd" clip-rule="evenodd" d="m21,19.425L3,21v-.6375l18-1.575v.6375z" fill="#fff"/></svg>