<svg width="24" height="24" xmlns="http://www.w3.org/2000/svg"><mask id="a" style="mask-type:alpha" maskUnits="userSpaceOnUse" x="0" y="0" width="24" height="24"><path fill-rule="evenodd" clip-rule="evenodd" d="m0,0h24v23.9999H0V0z" fill="#fff"/></mask><g mask="url(#a)"><path fill-rule="evenodd" clip-rule="evenodd" d="m22.5-.000122h-21c-.825,0-1.5.675-1.5,1.500002V22.4999c0,.825.675,1.5,1.5,1.5h21c.825,0,1.5-.675,1.5-1.5V1.49988c0-.825002-.675-1.500002-1.5-1.500002z" fill="#2d327d"/></g><path fill-rule="evenodd" clip-rule="evenodd" d="m5.64259,2.99988v2.249h-.466l.017-1.709-.568,1.709h-.386l-.576-1.661.016,1.661h-.466v-2.249h.699l.529,1.617.509-1.617h.692z" fill="#fff"/><path fill-rule="evenodd" clip-rule="evenodd" d="m7.1177,4.23183c-.008-.081-.027-.148-.056-.201-.028-.052-.069-.094-.122-.125-.052-.03-.111-.046-.173-.046-.099,0-.181.033-.246.1-.065.066-.103.157-.115.272h.712zm.429.494c-.024.094-.066.183-.128.266-.147.202-.36.303-.636.303-.251,0-.451-.079-.602-.237-.074-.077-.13-.17-.169-.278-.042-.116-.063-.237-.063-.363,0-.244.07-.449.211-.616.156-.185.359-.278.609-.278.201,0,.372.062.514.186.101.089.175.199.221.33s.069.295.069.493h-1.17c.004.082.016.15.038.205.06.146.176.22.344.22.083,0,.151-.018.204-.055.052-.036.095-.095.129-.176h.429z" fill="#fff"/><path fill-rule="evenodd" clip-rule="evenodd" d="m8.71389,3.56575v.315h-.333v.789c0,.095.008.155.025.181.026.036.083.055.173.055.034,0,.08-.003.135-.008v.357c-.101.011-.193.017-.277.017-.127,0-.224-.015-.29-.043-.104-.046-.168-.13-.194-.252-.011-.053-.017-.161-.017-.325v-.771h-.272v-.315h.272v-.394h.445v.394h.333z" fill="#fff"/><path fill-rule="evenodd" clip-rule="evenodd" d="m10.0151,3.54145v.432c-.072-.013-.129-.02-.174-.02-.166,0-.288.07-.366.21-.044.077-.066.208-.066.39v.696h-.446v-1.68h.425v.306c.121-.228.296-.342.527-.342.029,0,.062.003.1.008z" fill="#fff"/><path fill-rule="evenodd" clip-rule="evenodd" d="m10.981,3.87046c-.118,0-.211.048-.281.143-.071.097-.106.228-.106.396,0,.173.034.306.104.398.072.093.17.14.294.14.116,0,.208-.043.275-.128.077-.094.116-.231.116-.41,0-.169-.034-.299-.102-.393-.071-.097-.171-.146-.3-.146zm.023-.348c.244,0,.444.081.599.244.152.16.229.373.229.639,0,.276-.082.496-.245.66-.152.153-.352.229-.597.229-.261,0-.469-.085-.624-.255-.148-.162-.221-.372-.221-.63,0-.255.071-.461.215-.621.159-.177.373-.266.644-.266z" fill="#fff"/><mask id="b" style="mask-type:alpha" maskUnits="userSpaceOnUse" x="0" y="0" width="24" height="24"><path fill-rule="evenodd" clip-rule="evenodd" d="m0,24h24V0H0v24z" fill="#fff"/></mask><g mask="url(#b)"><path fill-rule="evenodd" clip-rule="evenodd" d="m3,21h18v-.75H3V21z" fill="#fff"/><path fill-rule="evenodd" clip-rule="evenodd" d="m3.70511,14.1561.44-5.53005c.027-.242.168-.375.375-.375h3.464c.207,0,.375.168.375.375v5.55905c0,.2059-.168.374-.375.374l-3.934-.032c-.207,0-.366-.1551-.345-.371zm5.314-5.53005c0-.207.168-.375.374-.375h3.79799c.208,0,.376.168.376.375v5.55905c0,.2059-.168.374-.376.374H9.39311c-.206,0-.374-.1681-.374-.374V8.62605zm5.32999.128c0-.319.258-.577.577-.577s.577.258.577.577V18.172c0,.319-.258.578-.577.578s-.577-.259-.577-.578V8.75405zm1.937,0c0-.319.258-.577.577-.577s.577.258.577.577V18.172c0,.319-.258.578-.577.578s-.577-.259-.577-.578V8.75405zM3.00011,14.844v4.281c0,.207.168.375.375.375H20.9981v-4.941h-2.4c-.208,0-.376-.168-.376-.3739V8.62605c0-.207.168-.375.376-.375h2.4v-.675H4.77811c-.838,0-1.135.46-1.201,1.179,0,0-.577,6.02895-.577,6.08895z" fill="#fff"/></g></svg>