<svg width="24" height="24" viewBox="0,0,24,24" xmlns="http://www.w3.org/2000/svg"><path fill-rule="evenodd" clip-rule="evenodd" d="m22.5,0h-21C.675,0,0,.675,0,1.5v21c0,.825.675,1.5,1.5,1.5h21c.825,0,1.5-.675,1.5-1.5v-21c0-.825-.675-1.5-1.5-1.5z" fill="#2d327d"/><path fill-rule="evenodd" clip-rule="evenodd" d="m4.59,4.83v.4125H3V3h.4875v1.83H4.59z" fill="#fff"/><path fill-rule="evenodd" clip-rule="evenodd" d="m6.22501,3.76502c-.1575-.1575-.3525-.24-.6-.24-.27,0-.4875.09-.645.2625-.1425.165-.2175.3675-.2175.6225s.075.465.225.63c.15.1725.36.255.6225.255.2475,0,.45-.0825.6-.2325.165-.165.2475-.3825.2475-.66,0-.2625-.0825-.48-.2325-.6375zm-.9075.2475c.075-.0975.165-.1425.285-.1425.1275,0,.225.0525.2925.15001.0675.08999.105.22499.105.39,0,.18-.0375.31499-.1125.41249-.0675.0825-.165.1275-.2775.1275-.12,0-.2175-.0525-.2925-.1425-.0675-.09-.105-.225-.105-.3975s.0375-.3.105-.3975z" fill="#fff"/><path fill-rule="evenodd" clip-rule="evenodd" d="m8.29499,4.60502c-.0225.165-.07499.3075-.16499.42-.1425.18-.3525.27-.615.27-.27,0-.4875-.09-.6375-.2775-.1275-.1575-.195-.3525-.195-.5925,0-.2925.0825-.5175.25499-.6825.15-.1425.34501-.2175.5775-.2175.2175,0,.3975.06.53251.1725.135.1125.21749.27.2325.465h-.435c-.015-.09-.0525-.1575-.1125-.21-.06001-.0525-.1275-.075-.2175-.075-.1275,0-.2175.045-.285.1425-.06751.0975-.105.225-.105.3975,0,.15.03.27.0825.36.0675.1125.165.165.3.165.195,0,.315-.1125.345-.3375h.44249z" fill="#fff"/><path fill-rule="evenodd" clip-rule="evenodd" d="m9.62999,5.25004h.45751c-.0106-.03178-.0195-.06355-.0276-.0922-.009-.0322-.017-.06045-.0249-.0803-.0075-.06-.0075-.15-.0075-.27v-.345c.0075-.2025.0075-.315.0075-.3375,0-.1275-.015-.2175-.03-.27-.01501-.0525-.05251-.105-.11251-.1575-.1275-.105-.315-.1575-.5775-.1575-.2325,0-.4125.045-.54.1425-.1275.09-.195.2325-.21.42h.42c.015-.0975.0525-.1575.0975-.195s.12-.0525.225-.0525c.195,0,.2925.0675.2925.2175,0,.0675-.0225.1125-.0675.135s-.15.045-.33.0675c-.21.03-.3525.06-.4275.09-.1875.0825-.285.225-.285.435,0,.165.0525.2925.165.3825.0975.0825.2325.12.405.12.2175,0,.3975-.075.54-.2175,0,.045.0075.0975.03.165zm-.345-.7275c.15-.015.255-.045.315-.0825v.18c0,.0525-.0075.0975-.015.135-.00243.00487-.00487.00993-.00736.01513-.0129.02684-.02751.05724-.05264.08237-.075.09-.18.135-.315.135-.0825,0-.1425-.0225-.1875-.06s-.0675-.0975-.0675-.165c0-.0825.03-.1425.0975-.18.0525-.0225.1275-.045.2325-.06z" fill="#fff"/><path fill-rule="evenodd" clip-rule="evenodd" d="m11.2875,3.56255v.315H10.95v.7875c0,.0975.0075.1575.0225.18.0225.0375.0825.0525.1725.0525.0375,0,.0825,0,.135-.0075v.36c-.0975.015-.195.015-.2775.015-.1275,0-.225-.015-.2925-.045-.105-.045-.165-.1275-.195-.255-.0075-.0525-.015-.1575-.015-.3225v-.7575h-.27v-.315h.27v-.39h.4425v.39h.345v-.0075z" fill="#fff"/><path fill-rule="evenodd" clip-rule="evenodd" d="m11.985,3.405V3h-.4425v.405h.4425zm0,1.845V3.57h-.4425v1.68h.4425z" fill="#fff"/><path fill-rule="evenodd" clip-rule="evenodd" d="m13.7475,3.76502c-.1575-.1575-.3525-.24-.6-.24-.27,0-.48.09-.645.2625-.1425.165-.2175.3675-.2175.6225s.075.465.225.63c.15.1725.36.255.6225.255.2475,0,.45-.0825.6-.2325.165-.165.2475-.3825.2475-.66,0-.2625-.0825-.48-.2325-.6375zm-.9075.2475c.075-.0975.165-.1425.285-.1425.1275,0,.2325.0525.2925.15001.0675.08999.105.225.105.39,0,.18-.0375.31499-.1125.4125-.0675.0825-.165.1275-.2775.1275-.12,0-.2175-.05251-.2925-.14251-.0675-.09-.105-.225-.105-.3975s.0375-.3.105-.3975z" fill="#fff"/><path fill-rule="evenodd" clip-rule="evenodd" d="m14.6925,3.56996v.2325c.0525-.075.0975-.1275.1425-.1575.1125-.0825.2475-.1275.3975-.1275.135,0,.255.0375.3525.105.075.0525.1275.1275.1575.21s.045.2025.045.36v1.0575h-.4425v-.96c0-.105-.0075-.1875-.03-.24-.015-.045-.045-.0825-.09-.105-.045-.03-.105-.045-.165-.045-.0675,0-.1275.015-.1875.0525-.0525.03-.0975.075-.12.135-.03.06-.045.165-.045.3v.8625h-.4425v-1.68h.4275z" fill="#fff"/><path fill-rule="evenodd" clip-rule="evenodd" d="m10.0125,11.7975-1.80749.63c-.0375.015-.0825.0225-.12.0225-.1275,0-.24-.06-.3075-.165l-.405-.6c-.03-.0525-.0525-.105-.0525-.165,0-.165.135-.3.3-.3h2.3025c.16499,0,.29999.135.29999.3-.0075.12-.09.2325-.21.2775z" fill="#fff"/><path fill-rule="evenodd" clip-rule="evenodd" d="m16.35,11.8125h-2.625v-.6h2.625c.165,0,.3.135.3.3s-.135.3-.3.3z" fill="#fff"/><path fill-rule="evenodd" clip-rule="evenodd" d="m16.35,12.7874h-.375c-.165,0-.3-.135-.3-.3s.135-.3.3-.3h.375c.165,0,.3.135.3.3s-.135.3-.3.3z" fill="#fff"/><path fill-rule="evenodd" clip-rule="evenodd" d="m3,17.3249c0-2.0325,1.6425-3.675,3.675-3.675.585,0,1.1625.135,1.68.405l.72-1.155h5.85l.72,1.155c.5175-.2625,1.095-.405,1.68-.405,2.0325,0,3.675,1.6425,3.675,3.675,0,2.025-1.6425,3.675-3.675,3.675s-3.675-1.65-3.675-3.675c0-1.17.5475-2.2575,1.485-2.955l-.405-.645-1.965,2.925c.135.1725.21.3825.21.6,0,.54-.435.975-.975.975-.3825,0-.7275-.2175-.885-.5625h-.78c-.1725,1.89-1.7625,3.3375-3.66,3.3375-2.025,0-3.675-1.65-3.675-3.675zm12.45-2.4375c-.7575.5775-1.2,1.4775-1.2,2.4375,0,1.695,1.38,3.075,3.075,3.075s3.075-1.38,3.075-3.075-1.38-3.075-3.075-3.075c-.4725,0-.9375.105-1.365.315l1.62,2.6025c.03.045.045.0975.045.1575,0,.165-.135.3-.3.3-.105,0-.2025-.0525-.255-.1425l-1.62-2.595zm-3.72,1.425-1.89-2.8125h4.32l-1.89,2.8125c-.09-.0225-.18-.0375-.27-.0375s-.18.015-.27.0375zM8.865,14.3699c.8625.645,1.4025,1.6275,1.4775,2.6925h.705c.03-.15.09-.2925.1875-.4125l-1.965-2.925-.405.645zM8.55,14.8874c.6825.525,1.1175,1.3125,1.1925,2.175h-2.55l1.3575-2.175zM3.6,17.3249c0,1.695,1.38,3.075,3.075,3.075,1.5675,0,2.8875-1.1775,3.06-2.7375H7.17c-.1125.165-.3.2625-.495.2625-.33,0-.6-.27-.6-.6s.27-.6.6-.6h.0225l1.3425-2.16c-.4275-.21-.8925-.315-1.365-.315-1.695,0-3.075,1.38-3.075,3.075z" fill="#fff"/></svg>