<svg width="24" height="24" viewBox="0,0,24,24" xmlns="http://www.w3.org/2000/svg"><path fill-rule="evenodd" clip-rule="evenodd" d="m22.5,0h-21C.675,0,0,.675,0,1.5v21c0,.825.675,1.5,1.5,1.5h21c.825,0,1.5-.675,1.5-1.5v-21c0-.825-.675-1.5-1.5-1.5z" fill="#2d327d"/><path fill-rule="evenodd" clip-rule="evenodd" d="m13.5825,4.18491c.0675-.0675.105-.15.105-.2475,0-.195-.1575-.345-.345-.345-.09,0-.18.0375-.2475.105l-3.88499,3.8775h-3.09c-.555,0-1.0425.36-1.2.8925l-1.89,6.20249c-.015.06-.0225.1125-.0225.1725v2.7075c0,.21.165.375.375.375H21.0075v-4.425H17.37c-.21,0-.375-.165-.375-.375V8.62491c0-.21.165-.375.375-.375H21v-.675H10.1925l3.39-3.39zM6.75001,14.6249c0,.21-.165.375-.375.375h-2.2125c-.21,0-.375-.165-.375-.375,0-.0375.0075-.075.015-.1125l1.815-5.93999c.075-.24.2925-.3975.54-.3975h.0375c.3075,0,.5625.255.5625.5625l-.0075,5.88749zm1.26.45c.3075,0,.5625-.255.5625-.5625V8.73741c0-.3075-.255-.5625-.5625-.5625s-.5625.255-.5625.5625v5.77499c0,.3075.255.5625.5625.5625zm3.05249-6.44999c0-.21.165-.375.375-.375h4.5c.21,0,.375.165.375.375v4.49999c0,.21-.165.375-.375.375h-4.5c-.21,0-.375-.165-.375-.375V8.62491zm-.675,5.88749V8.73741c0-.3075-.2475-.5625-.56249-.5625-.3075,0-.5625.255-.5625.5625v5.77499c0,.3075.255.5625.5625.5625.30749,0,.56249-.255.56249-.5625z" fill="#fff"/><path fill-rule="evenodd" clip-rule="evenodd" d="m11.655,18.6749h-3.78c.3075.7725,1.0575,1.275,1.89,1.275s1.575-.5025,1.89-1.275z" fill="#fff"/><path fill-rule="evenodd" clip-rule="evenodd" d="m16.155,18.6749h-3.78c.3075.7725,1.0575,1.275,1.89,1.275s1.575-.5025,1.89-1.275z" fill="#fff"/><path fill-rule="evenodd" clip-rule="evenodd" d="m3,20.325h18V21H3v-.675z" fill="#fff"/><path fill-rule="evenodd" clip-rule="evenodd" d="m3,2.99995h18v.3375H3v-.3375z" fill="#fff"/></svg>