<svg width="24" height="24" viewBox="0,0,24,24" xmlns="http://www.w3.org/2000/svg"><path fill-rule="evenodd" clip-rule="evenodd" d="m5.50124,3C5.22441,3,5,3.22441,5,3.50124v2.9999C5,6.77665,5.22335,7,5.49886,7H8V3H5.50124zM9,3v4h6V3H9zm7,0v4h2.5c.2761,0,.5-.22386.5-.5v-3c0-.27614-.2239-.5-.5-.5H16zM4,3.50124C4,2.67213,4.67213,2,5.50124,2H18.5c.8284,0,1.5.67157,1.5,1.5v3c0,.82843-.6716,1.5-1.5,1.5H18v7h.0866v.0001c.4813.0077,1.1921.1559,1.797.5903C20.5133,16.0426,21,16.7878,21,17.9v3c0,.2932-.1175.5734-.3253.7794l-.352-.3551.352.3551c-.2077.2058-.4884.3206-.78.3206H4.10535c-.2917,0-.57238-.1148-.78003-.3206C3.11753,21.4734,3,21.1932,3,20.9v-3c0-.7706.30887-1.5086.85721-2.0521C4.40543,15.3044,5.14802,15,5.92139,15H6V8h-.50114C4.67106,8,4,7.32894,4,6.50114v-2.9999zM7,8v1.8082c.61809.6684,1.36235,1.2066,2.18968,1.5827.73104.3323,1.51312.5317,2.31032.5906V11h1v.9815c.7972-.0589,1.5793-.2583,2.3103-.5906.8274-.3761,1.5716-.9143,2.1897-1.5827V8H7zm10,3.185c-.5382.4491-1.1352.825-1.7759,1.1162-.861.3914-1.7839.6222-2.7241.6827V14h-1v-1.0161c-.9402-.0605-1.86315-.2913-2.72412-.6827C8.1352,12.01,7.5382,11.6341,7,11.185V21h10v-9.815zM18,21h1.8947c.0293,0,.0566-.0116.076-.0308C19.99,20.9501,20,20.9251,20,20.9v-3c0-.7766-.3204-1.225-.6997-1.4973-.4024-.2891-.9-.3967-1.226-.4027H18v5zM6,21v-5h-.07861c-.51102,0-1.0002.2012-1.36019.5581h-.00001C4.20134,16.9147,4,17.3975,4,17.9v3c0,.0251.01003.0501.02928.0692.0194.0192.04667.0308.07607.0308H6z"/></svg>