<svg width="48" height="48" viewBox="0,0,48,48" xmlns="http://www.w3.org/2000/svg"><path fill-rule="evenodd" clip-rule="evenodd" d="m31,1.99756h4V3h6.5c.8284,0,1.5.67157,1.5,1.5v9c0,.8284-.6716,1.5-1.5,1.5H37v16h.7978c1.6449,0,3.2224.6534,4.3856,1.8166S44,35.5573,44,37.2022v6.8723c0,.5106-.2028,1.0004-.5639,1.3616-.3612.3611-.851.5639-1.3616.5639H5.92555c-.51062,0-1.00047-.2028-1.36161-.5639C4.2028,45.0749,4,44.5851,4,44.0745v-6.8723c0-1.6449.65339-3.2224,1.8166-4.3856h.00003C6.97976,31.6534,8.55729,31,10.2022,31H11V15H6.5c-.82843,0-1.5-.6716-1.5-1.5v-9C5,3.67157,5.67157,3,6.5,3H13V1.99756h4V3h14V1.99756zM36,15h-1v.9976h-4V15H17v.9976h-4V15h-1v3.6628c1.4952,1.6572,3.318,2.9874,5.3541,3.9061,1.4779.6668,3.0443,1.1061,4.6459,1.3062V23h.5v-2h3v2h.5v.8766c1.6056-.1995,3.1759-.6393,4.6574-1.3077,2.0308-.9164,3.8495-2.2421,5.3426-3.8934V15zm-11.5,8h-1v-1h1v1zM36,20.1168c-1.4323,1.3982-3.1006,2.5376-4.9313,3.3636-1.6111.7269-3.321,1.1991-5.0687,1.4034V27h-.5v.5c0,.8284-.6716,1.5-1.5,1.5s-1.5-.6716-1.5-1.5V27H22v-2.1175c-1.7437-.2051-3.4497-.6768-5.0572-1.4021-1.8356-.8282-3.508-1.9715-4.9428-3.3748V45h6v-5.5c0-.8284.6716-1.5,1.5-1.5h9c.8284,0,1.5.6716,1.5,1.5V45h6V20.1168zM23.5,27v.5c0,.2761.2239.5.5.5s.5-.2239.5-.5V27h-1zM35,14h6.5c.2761,0,.5-.2239.5-.5v-9c0-.27614-.2239-.5-.5-.5H35v10zM31,4v10H17V4h14zM13,4H6.5c-.27614,0-.5.22386-.5.5v9c0,.2761.22386.5.5.5H13V4zm19-1.00244V14.9976h2V2.99756h-2zM29,45H19v-4h10v4zm0-5H19v-.5c0-.2761.2239-.5.5-.5h9c.2761,0,.5.2239.5.5v.5zm8,5h5.0745c.2455,0,.4809-.0975.6545-.271.1735-.1736.271-.409.271-.6545v-6.8723c0-.7726-.1718-1.5274-.4944-2.2134H37V45zm0-11.0112h4.8888c-.1274-.1623-.2651-.3176-.4125-.4651-.5184-.5184-1.135-.9161-1.806-1.175C39.0785,32.1204,38.4444,32,37.7978,32H37v1.9888zM11,32h-.7978c-1.37973,0-2.70289.548-3.67846,1.5237h-.00003c-.14742.1475-.28508.3028-.41256.4651H11V32zm-6,5.2022c0-.7726.17184-1.5274.49437-2.2134H11V45H5.92555c-.2455,0-.48097-.0975-.6545-.271C5.09752,44.5554,5,44.32,5,44.0745v-6.8723zM23,26v-2h2v2h-2zm-9-11.0024V2.99756h2V14.9976h-2z"/></svg>