<svg width="36" height="36" viewBox="0,0,36,36" xmlns="http://www.w3.org/2000/svg"><path fill-rule="evenodd" clip-rule="evenodd" d="m14.75,12c0-1.9051,1.2184-3.25,2.5-3.25s2.5,1.3449,2.5,3.25-1.2184,3.25-2.5,3.25-2.5-1.3449-2.5-3.25zm2.5-4.25c-2.0304,0-3.5,2.0121-3.5,4.25,0,1.0742.3386,2.0964.9153,2.869-.6425.594-1.1802,1.3944-1.5822,2.3333-.2277-.3116-.4761-.5936-.743-.8406.5734-.7717.9099-1.7909.9099-2.8617,0-2.2379-1.4696-4.25-3.5-4.25-2.03038,0-3.5,2.0121-3.5,4.25,0,1.0711.33667,2.0905.91037,2.8623-1.38672,1.2775-2.29043,3.5204-2.39158,6.0449-.09302.0651-.18223.1312-.26749.1984C3.76121,23.1889,3.25,23.9098,3.25,24.75s.51121,1.5611,1.2513,2.1444c.74571.5877,1.79381,1.0951,3.0444,1.512,2.5064.8355,5.9373,1.3436,9.7043,1.3436s7.1979-.5081,9.7043-1.3436c1.2506-.4169,2.2987-.9243,3.0444-1.512.7401-.5833,1.2513-1.3042,1.2513-2.1444s-.5112-1.5611-1.2513-2.1444c-.0846-.0667-.1731-.1323-.2653-.1969-.1-2.5249-1.0011-4.7715-2.3913-6.0496.5722-.7715.9079-1.7895.9079-2.8591,0-2.2379-1.4696-4.25-3.5-4.25s-3.5,2.0121-3.5,4.25c0,1.0697.3358,2.0878.908,2.8592-.2673.2465-.5152.5283-.7422.8394-.4019-.9374-.9393-1.7366-1.581-2.3298.5766-.7726.9152-1.7947.9152-2.8688,0-2.2379-1.4696-4.25-3.5-4.25zm4.5843,10.6468c.1457.5261.2534,1.0807.319,1.655,1.8097.2317,3.4414.5886,4.801,1.0418.6347.2115,1.2172.4464,1.7345.7033-.2089-2.0736-1.0046-3.7741-2.0416-4.7179-.5363.4213-1.182.671-1.8972.671-.7153,0-1.3609-.2497-1.8973-.671-.3749.3417-.7196.7855-1.0184,1.3178zM5.81379,21.7956c.51666-.2564,1.09829-.4908,1.73191-.702,1.35962-.4532,2.9913-.8101,4.8011-1.0418.0657-.573.1732-1.1264.3185-1.6515-.2986-.5315-.645-.9755-1.0205-1.3194-.5358.4202-1.1806.6691-1.8948.6691-.71381,0-1.35831-.2487-1.89401-.6685-1.03505.9438-1.83217,2.6422-2.0422,4.7141zm7.55521-1.8594c1.2329-.1214,2.5355-.1862,3.881-.1862s2.6482.0648,3.8811.1862c-.2611-1.9119-1.0228-3.4619-1.9934-4.3497-.5345.4168-1.1767.6635-1.8877.6635-.7109,0-1.3531-.2467-1.8875-.6633-.9704.8875-1.7314,2.4374-1.9935,4.3495zM4.25,24.75c0-.4025.24423-.8656.87031-1.359.62046-.489,1.54927-.9513,2.74162-1.3487C10.2414,21.2491,13.5605,20.75,17.25,20.75s7.0086.4991,9.3881,1.2923c1.1923.3974,2.1211.8597,2.7416,1.3487.6261.4934.8703.9565.8703,1.359s-.2442.8656-.8703,1.359c-.6205.489-1.5493.9513-2.7416,1.3487-2.3795.7932-5.6986,1.2923-9.3881,1.2923s-7.0086-.4991-9.38807-1.2923c-1.19235-.3974-2.12116-.8597-2.74162-1.3487-.62608-.4934-.87031-.9565-.87031-1.359zm18-11.25c0-1.9051,1.2184-3.25,2.5-3.25s2.5,1.3449,2.5,3.25-1.2184,3.25-2.5,3.25-2.5-1.3449-2.5-3.25zm-12.5-3.25c-1.28162,0-2.5,1.3449-2.5,3.25s1.21838,3.25,2.5,3.25c1.2816,0,2.5-1.3449,2.5-3.25s-1.2184-3.25-2.5-3.25z"/></svg>