<svg width="24" height="24" viewBox="0,0,24,24" xmlns="http://www.w3.org/2000/svg"><path fill-rule="evenodd" clip-rule="evenodd" d="m12.0003,5.99915c.4397,0,.8396.17218,1.1749.47581l.0162.01487c.0385.03552.0761.07279.1126.11173.4186.4472.6957,1.11585.6957,1.89988,0,.04503-.0027.08743-.0072.13521-.0022.02218-.0047.04573-.0075.07177l-.0068.06334-.0059.05496.0004.00003-.0001.00122-.0008-.00007c-.1327,1.3138-.9918,2.1732-1.9715,2.1732-.3688,0-.7089-.1205-1.0065-.3377.0039-.0529.0065-.1082.0065-.1633,0-.82922-.2402-1.59519-.6585-2.20071-.0121-.01748-.0243-.03482-.0367-.05203-.0765-.10654-.1587-.20787-.2462-.30344.2043-1.18386,1.0186-1.94477,1.9414-1.94477zm0,6.00195c.6701,0,1.2585-.2347,1.7319-.6247,1.9745,1.2613,2.9428,3.176,3.22,5.6236h-3.3796c-.5251-1.7867-1.5285-3.2885-3.1769-4.3827.1737-.274.3126-.5774.412-.8996.3584.1798.7595.2834,1.1926.2834zm2.8073-2.28397c-.0992.32177-.2376.62487-.4108.89867,1.6489,1.0944,2.6516,2.5969,3.1763,4.3841h3.379c-.2768-2.4473-1.242-4.3581-3.2164-5.61978-.4752.38832-1.065.62088-1.7356.62088-.433,0-.8341-.10382-1.1925-.28387zm3.5957-1.09556c.382-.59965.5968-1.34259.5968-2.12055,0-1.84953-1.213-3.502-3-3.502-1.3769,0-2.4084.99143-2.8078,2.28381-.3583-.17991-.7592-.28368-1.192-.28368-1.3775,0-2.40842.99048-2.80767,2.28252-.35842-.17989-.75958-.28362-1.19285-.28362-1.78597,0-3,1.65232-3,3.50195,0,.7712.21124,1.508.58706,2.1048-2.27792,1.512-3.53741,3.9013-3.58674,6.8868l-.0084.5082h12.0452l-.0381-.5354c-.0358-.5034-.0972-.9921-.1866-1.4644h4.2247l-.0381-.5355c-.0358-.5034-.0971-.9922-.1864-1.4646h4.2244l-.0381-.5355c-.2047-2.8767-1.2367-5.2754-3.5954-6.84283zm-4.3446-2.67693c.5921.64602.9414,1.55534.9414,2.55638,0,.05388-.0027.10884-.0065.16162.2979.21761.6382.33838,1.0065.33838,1.0632,0,2-1.01488,2-2.5,0-1.48646-.9371-2.502-2-2.502-.9217,0-1.737.76164-1.9414,1.94562zM9.15966,8.45949c-.33194-.2946-.72605-.46144-1.15988-.46144-1.06202,0-2,1.01567-2,2.50195,0,1.485.93769,2.5,2,2.5.96421,0,1.81058-.8306,1.96513-2.1056l.00707-.068c.00402-.0386.00783-.0725.01128-.1032l.00606-.0547c.00632-.0618.01035-.1132.01035-.168,0-.65423-.19291-1.2281-.49997-1.66001-.09308-.13085-.19661-.2487-.30841-.35182l-.03163-.02918zM3.0216,18.9998c.17186-2.4792,1.30133-4.4008,3.22781-5.6332.47784.3959,1.073.6334,1.75037.6334.66941,0,1.25721-.2339,1.73041-.6227,1.97481,1.2613,2.94451,3.1754,3.22191,5.6225H3.0216z"/></svg>