<svg width="24" height="24" viewBox="0,0,24,24" xmlns="http://www.w3.org/2000/svg"><path fill-rule="evenodd" clip-rule="evenodd" d="m6.49994,3.00024c-.76186,0-1.5.81478-1.5,2,0,.40581.09086.78507.24768,1.10032l.0003.00062c.28553.576.75348.89906,1.25202.89906.49887,0,.96602-.32331,1.25187-.90075M3.99994,5.00024c0-1.49077.96786-3,2.5-3s2.5,1.50923,2.5,3c0,.4631-.08761.91144-.24995,1.31501,1.75121,1.06932,2.25341,3.15673,2.25341,5.18865v.5H2.00244v-.5c0-2.0221.49294-4.11089,2.24923-5.18149-.16442-.40602-.25173-.85719-.25173-1.32217zm.77188,2.17721c-1.1833.72749-1.6801,2.12339-1.75822,3.82645h6.97859C9.91327,9.29603,9.411,7.89947,8.23216,7.17172c-.42927.49516-1.02517.82852-1.73222.82852-.70389,0-1.29873-.3306-1.72812-.82279zm2.98001-1.07802c.15668-.31664.24811-.69541.24811-1.09919,0-1.18522-.73814-2-1.5-2M16.5597,4.2717c.9027,1.20653,1.4303,2.83899,1.4715,4.80263l1.6177-1.59512.7021.71207-2.506,2.47102-.3515.3465-.351-.3469-2.494-2.46504.7029-.71123,1.6811,1.6615c-.0292-1.82149-.5129-3.25981-1.2735-4.27639-.9038-1.20808-2.2261-1.8608-3.7653-1.8558l-.0033-.99999c1.8487-.00601,3.4719.78993,4.5693,2.25675zm.9402,8.7285c-.7618,0-1.5.8148-1.5,2,0,.4757.1282.917.3382,1.262.2909.4761.7118.738,1.1618.738.4502,0,.8713-.262,1.1621-.738.21-.3449.3379-.7861.3379-1.262,0-1.1852-.7381-2-1.5-2zm1.7032,4.2042c-.427.4762-1.0136.7958-1.7032.7958-.6892,0-1.2755-.3193-1.7024-.7952-1.0517.825-1.6675,2.2638-1.7776,3.7982h6.9663c-.1105-1.5404-.7306-2.9766-1.7831-3.7988zm-3.9374-.852c-.1721-.4133-.2658-.8753-.2658-1.3522,0-1.4907.9679-3,2.5-3,1.5322,0,2.5,1.5093,2.5,3,0,.4766-.0933.9384-.2653,1.3515,1.542,1.1448,2.2694,3.2018,2.2694,5.1515v.5h-9.002v-.5c0-1.9398.7212-4.0019,2.2637-5.1508zM6.49951,12.966l.35141.3463,2.5,2.464-.70196.7123-1.68738-1.6631c.02898,1.8257.51297,3.2748,1.27487,4.3014.90497,1.2193,2.22715,1.8803,3.76375,1.8748l.0035,1c-1.8515.0066-3.47423-.8021-4.57026-2.2789-.90146-1.2146-1.42899-2.855-1.4705-4.8209l-1.61159,1.5922-.70282-.7113,2.5-2.47.35098-.3468z"/></svg>