<svg width="24" height="24" viewBox="0,0,24,24" xmlns="http://www.w3.org/2000/svg"><path fill-rule="evenodd" clip-rule="evenodd" d="m12,6c-1.3113,0-2.5,1.26804-2.5,3,0,1.732,1.1887,3,2.5,3s2.5-1.268,2.5-3c0-1.73196-1.1887-3-2.5-3zM8.5,9c0-2.13404,1.49731-4,3.5-4,2.0027,0,3.5,1.86596,3.5,4,0,.92919-.2839,1.8075-.7697,2.5032C17.5254,12.8942,19,16.3496,19,19.5003v.5H5v-.5c0-3.1332,1.47282-6.5981,4.26978-7.997C8.78389,10.8076,8.5,9.92923,8.5,9zm3.685,3.9947c-.0612.0035-.1228.0053-.185.0053-.0626,0-.1247-.0018-.1863-.0054l.1859.2234.1854-.2233zm-2.25274-.698c-2.33416,1.0356-3.7673,3.86-3.91889,6.7036h5.27953l-.6465-.6465-.2001-.2002.0686-.2746.9385-3.7539-1.52114-1.8284zm2.77484,6.7036h5.2797c-.1511-2.8607-1.5877-5.6773-3.922-6.7044l-1.5183,1.8289.9386,3.7542.0686.2746-.2002.2002-.6464.6465zm-.2608-1.1534L12,16.0618l-.4463,1.7851.4463.4463.4463-.4463z"/></svg>