<svg width="24" height="24" xmlns="http://www.w3.org/2000/svg"><path fill-rule="evenodd" clip-rule="evenodd" d="m22.5,0h-21C.675,0,0,.675,0,1.5v21c0,.825.675,1.5,1.5,1.5h21c.825,0,1.5-.675,1.5-1.5v-21c0-.825-.675-1.5-1.5-1.5z" fill="#2d327d"/><path fill-rule="evenodd" clip-rule="evenodd" d="m10.0124,11.7976-1.80745.63c-.0375.015-.0825.0225-.12.0225-.1275,0-.24-.06-.3075-.165l-.405-.6c-.03-.0525-.0525-.105-.0525-.165,0-.165.135-.3.3-.3h2.3025c.16495,0,.29995.135.29995.3-.0075.12-.09.2325-.21.2775z" fill="#fff"/><path fill-rule="evenodd" clip-rule="evenodd" d="m16.35,11.8126h-2.625v-.6h2.625c.165,0,.3.135.3.3s-.135.3-.3.3z" fill="#fff"/><path fill-rule="evenodd" clip-rule="evenodd" d="m16.35,12.7875h-.375c-.165,0-.3-.135-.3-.3s.135-.3.3-.3h.375c.165,0,.3.135.3.3s-.135.3-.3.3z" fill="#fff"/><path fill-rule="evenodd" clip-rule="evenodd" d="m21.0525,19.9726-.645-.645c.375-.5775.5925-1.2675.5925-2.0025,0-2.0325-1.6425-3.675-3.675-3.675-.585,0-1.1625.1425-1.68.405l-.72-1.155h-.945L3.70496,2.63257l-1.0575,1.0575,9.21004,9.21003H9.07496l-.72,1.155c-.5175-.27-1.095-.405-1.68-.405-2.0325,0-3.675,1.6425-3.675,3.675,0,2.025,1.65,3.675,3.675,3.675,1.8975,0,3.48754-1.4475,3.66004-3.3375h.78c.1575.345.5025.5625.885.5625.54,0,.975-.435.975-.975,0-.2175-.075-.4275-.21-.6l1.14-1.695.3525.3525c-.39.5925-.6075,1.2975-.6075,2.025,0,2.025,1.6425,3.675,3.675,3.675.75,0,1.44-.225,2.025-.6075l.645.645,1.0575-1.0725zM15.96,14.5651c.4275-.21.8925-.315,1.365-.315,1.695,0,3.075,1.38,3.075,3.075,0,.57-.1575,1.11-.4275,1.5675l-3.48-3.48-.5325-.8475zm-12.36004,2.76c0,1.695,1.38,3.075,3.075,3.075,1.5675,0,2.8875-1.1775,3.06-2.7375h-2.565c-.1125.165-.3.2625-.495.2625-.33,0-.6-.27-.6-.6s.27-.6.6-.6h.0225l1.3425-2.16c-.4275-.21-.8925-.315-1.365-.315-1.695,0-3.075,1.38-3.075,3.075zm3.5925-.2625,1.3575-2.175c.6825.525,1.1175,1.3125,1.1925,2.175h-2.55zm3.14254,0h.705c.03-.15.0975-.2925.1875-.4125l-1.96504-2.925-.405.645c.8625.645,1.40254,1.6275,1.47754,2.6925zm1.935-.75c-.09-.0225-.18-.0375-.27-.0375s-.18.015-.27.0375l-1.89004-2.8125h2.61754l1.02,1.02L12.27,16.3126zM14.25,17.3251c0,1.695,1.38,3.075,3.075,3.075.5775,0,1.125-.165,1.59-.4425l-4.2225-4.2225c-.285.4725-.4425,1.02-.4425,1.59z" fill="#fff"/><path fill-rule="evenodd" clip-rule="evenodd" d="m3.70496,2.63257-1.0575,1.0575L19.9875,21.0376l1.065-1.065L3.70496,2.63257z" fill="#eb0000"/></svg>