<svg width="24" height="24" viewBox="0,0,24,24" xmlns="http://www.w3.org/2000/svg"><path fill-rule="evenodd" clip-rule="evenodd" d="m22.5,0h-21C.675,0,0,.675,0,1.5v21c0,.825.675,1.5,1.5,1.5h21c.825,0,1.5-.675,1.5-1.5v-21c0-.825-.675-1.5-1.5-1.5z" fill="#2d327d"/><path fill-rule="evenodd" clip-rule="evenodd" d="m14.0024,11.7301,1.8075.63c.0375.015.0825.0225.12.0225.1275,0,.24-.06.3075-.165l.405-.6c.03-.0525.0525-.105.0525-.165,0-.165-.135-.3-.3-.3h-2.295c-.165,0-.3.135-.3.3,0,.1275.0825.24.2025.2775z" fill="#fff"/><path fill-rule="evenodd" clip-rule="evenodd" d="m7.66492,12.7276h.375c.165,0,.3-.135.3-.3s-.135-.3-.3-.3h-.375c-.165,0-.3.135-.3.3s.135.3.3.3z" fill="#fff"/><path fill-rule="evenodd" clip-rule="evenodd" d="m20.3925,19.3126c.3975-.585.6225-1.29.6225-2.0475,0-2.0325-1.65-3.675-3.675-3.675-.585,0-1.1625.1425-1.68.405l-.72-1.155h-1.0275L3.70496,2.63257l-1.0575,1.0575,7.45504,7.45503H7.65746c-.165,0-.3.135-.3.3s.135.3.3.3h2.62504v-.42l1.5,1.5H9.07496l-.72,1.155c-.5175-.27-1.095-.405-1.68-.405-2.0325,0-3.675,1.6425-3.675,3.675,0,2.025,1.6425,3.675,3.675,3.675,2.025,0,3.67504-1.65,3.67504-3.675,0-1.1625-.54754-2.2575-1.48504-2.955l.405-.645,1.96504,2.925c-.135.1725-.21.3825-.21.6,0,.54.435.975.975.975.3825,0,.72-.2175.885-.5625h.78c.1725,1.89,1.7625,3.3375,3.66,3.3375.7275,0,1.4025-.21,1.9725-.5775l.675.675,1.0575-1.0575-.6375-.6525zM9.76496,17.2651c0,1.695-1.38,3.075-3.075,3.075s-3.075-1.38-3.075-3.075,1.38-3.075,3.075-3.075c.4725,0,.9375.105,1.365.315l-1.62,2.6025c-.03.045-.045.105-.045.1575,0,.165.135.3.3.3.105,0,.2025-.0525.255-.1425l1.62-2.595c.7575.5775,1.2,1.4775,1.2,2.4375zm2.25004-1.05c.09,0,.18.015.27.0375l1.17-1.7475-1.065-1.065H9.85496l1.89004,2.8125c.09-.0225.18-.0375.27-.0375zm1.6575.7875h-.6975c-.03-.15-.0975-.2925-.1875-.4125l1.11-1.65.3525.3525c-.33.5025-.5325,1.095-.5775,1.71zm2.28-.0075-1.275-1.275c-.225.39-.36.825-.405,1.275h1.68zM17.34,20.3401c-1.5675,0-2.8875-1.1775-3.06-2.7375h2.2725l2.325,2.325c-.45.2625-.975.4125-1.5375.4125zm-.7125-4.7925,3.33,3.33c.2925-.465.4575-1.02.4575-1.62,0-1.695-1.38-3.075-3.075-3.075-.4725,0-.945.105-1.365.315l.6525,1.05z" fill="#fff"/><path fill-rule="evenodd" clip-rule="evenodd" d="m3.70496,2.63257-1.0575,1.0575L19.9875,21.0376l1.065-1.065L3.70496,2.63257z" fill="#eb0000"/></svg>