<svg width="24" height="24" xmlns="http://www.w3.org/2000/svg"><path fill-rule="evenodd" clip-rule="evenodd" d="m22.5,0h-21C.675,0,0,.675,0,1.5v21c0,.825.675,1.5,1.5,1.5h21c.825,0,1.5-.675,1.5-1.5v-21c0-.825-.675-1.5-1.5-1.5z" fill="#2d327d"/><path fill-rule="evenodd" clip-rule="evenodd" d="m10.425,4.18503c-.0675-.0675-.105-.15-.105-.2475,0-.195.1575-.345.345-.345.09,0,.18.0375.2475.105l3.885,3.8775h3.09c.555,0,1.0425.36,1.2.8925l1.89,6.20247c.015.06.0225.1125.0225.1725V17.55c0,.21-.165.375-.375.375H3V13.5h3.6375c.21,0,.375-.165.375-.375V8.62503c0-.21-.165-.375-.375-.375h-3.63v-.675H13.815l-3.39-3.39zM17.2575,14.625c0,.21.165.375.375.375h2.2125c.21,0,.375-.165.375-.375,0-.0375-.0075-.075-.015-.1125L18.39,8.57253c-.075-.24-.2925-.3975-.54-.3975h-.0375c-.3075,0-.5625.255-.5625.5625l.0075,5.88747zm-1.26.45c-.3075,0-.5625-.255-.5625-.5625V8.73753c0-.3075.255-.5625.5625-.5625s.5625.255.5625.5625v5.77497c0,.3075-.255.5625-.5625.5625zM12.945,8.62503c0-.21-.165-.375-.375-.375h-4.5c-.21,0-.375.165-.375.375V13.125c0,.21.165.375.375.375h4.5c.21,0,.375-.165.375-.375V8.62503zm.675,5.88747V8.73753c0-.3075.2475-.5625.5625-.5625.3075,0,.5625.255.5625.5625v5.77497c0,.3075-.255.5625-.5625.5625s-.5625-.255-.5625-.5625z" fill="#fff"/><path fill-rule="evenodd" clip-rule="evenodd" d="m12.3525,18.675h3.78c-.3075.7725-1.0575,1.2751-1.89,1.2751s-1.575-.5026-1.89-1.2751z" fill="#fff"/><path fill-rule="evenodd" clip-rule="evenodd" d="m7.85251,18.675h3.77999c-.3075.7725-1.0575,1.2751-1.88999,1.2751-.8325,0-1.575-.5026-1.89-1.2751z" fill="#fff"/><path fill-rule="evenodd" clip-rule="evenodd" d="m21.0075,20.325H3.00751V21H21.0075v-.675z" fill="#fff"/><path fill-rule="evenodd" clip-rule="evenodd" d="m21.0075,3.00001H3.00751v.3375H21.0075v-.3375z" fill="#fff"/></svg>