<svg width="24" height="24" xmlns="http://www.w3.org/2000/svg"><path fill-rule="evenodd" clip-rule="evenodd" d="m22.5,0h-21C.675,0,0,.675,0,1.5v21c0,.825.675,1.5,1.5,1.5h21c.825,0,1.5-.675,1.5-1.5v-21c0-.825-.675-1.5-1.5-1.5z" fill="#2d327d"/><path fill-rule="evenodd" clip-rule="evenodd" d="m8.2125,5.13L21,3v.6825l-12.7875,2.13V5.13z" fill="#fff"/><path fill-rule="evenodd" clip-rule="evenodd" d="m6.4125,5.42999v.6825L3,6.68249v-.6825l3.4125-.57z" fill="#fff"/><path fill-rule="evenodd" clip-rule="evenodd" d="m4.725,17.025v-3.7125c0-.6225.5025-1.125,1.125-1.125.3675,0,.705.18.915.4725l1.86,2.625c.06.09.09.1875.09.2925,0,.2775-.225.51-.5025.51-.165,0-.3225-.0825-.4125-.2175l-.75-1.0575v1.575h2.0625c.4125,0,.75.3375.75.75V20.31c0,.3825-.3075.69-.6975.69-.3825,0-.69-.3075-.69-.69v-2.535h-3c-.4125,0-.75-.3375-.75-.75z" fill="#fff"/><path fill-rule="evenodd" clip-rule="evenodd" d="m6.825,4.5H7.8v3.93l-3.825.6375v9.4575H7.8v.975H3V8.2425l3.825-.6375V4.5z" fill="#fff"/><path fill-rule="evenodd" clip-rule="evenodd" d="m5.985,11.775c-.5775,0-1.05-.4725-1.05-1.05s.4725-1.05001,1.05-1.05001,1.05.47251,1.05,1.05001c0,.585-.4725,1.05-1.05,1.05z" fill="#fff"/></svg>