<svg width="24" height="24" xmlns="http://www.w3.org/2000/svg"><path fill-rule="evenodd" clip-rule="evenodd" d="m22.5,0h-21C.675,0,0,.675,0,1.5v21c0,.825.675,1.5,1.5,1.5h21c.825,0,1.5-.675,1.5-1.5v-21c0-.825-.675-1.5-1.5-1.5z" fill="#2d327d"/><path fill-rule="evenodd" clip-rule="evenodd" d="m5.9925,11.7975c-.9375,0-1.7025.765-1.7025,1.71s.765,1.71,1.7025,1.7025c.945,0,1.71-.7575,1.71-1.7025s-.765-1.71-1.71-1.71zM6,12.57c.5175,0,.9375.42.9375.9375s-.42.9375-.9375.9375-.9375-.42-.9375-.9375.42-.9375.9375-.9375z" fill="#fff"/><path fill-rule="evenodd" clip-rule="evenodd" d="m18.75,18.5325c0-.7725.63-1.41,1.41-1.41.3075,0,.6.0975.8475.285v2.25c-.24.18-.54.285-.8475.285-.78,0-1.41-.63-1.41-1.41z" fill="#fff"/><path fill-rule="evenodd" clip-rule="evenodd" d="m3.33,10.1325,2.25-2.24999c.21-.21001.495-.33.795-.33h6.4875c.3,0,.585.12.795.33L16.275,10.5l4.3875.3675c.195.015.345.18.345.375v2.3325c0,.21-.165.375-.375.375H20.22v-.4275c0-1.245-1.005-2.25-2.25-2.25s-2.25,1.005-2.25,2.25v.4275H8.25v-.4275c0-1.245-1.005-2.25-2.25-2.25s-2.25,1.005-2.25,2.25v.4275h-.375c-.21,0-.375-.165-.375-.375v-2.64c0-.3.12-.585.33-.8025zm6.7575.0525c0,.21.165.375.375.375h4.26c.1275,0,.225-.0975.225-.225,0-.06-.0225-.12-.0675-.1575L13.0875,8.385c-.0675-.06749-.165-.1125-.2625-.1125h-2.3625c-.21,0-.375.165-.375.375v1.5375zM9,10.56H4.515c-.1275,0-.225-.105-.225-.225,0-.06.0225-.1125.0675-.1575L6.15,8.385c.0675-.07499.165-.1125.2625-.1125H9c.21,0,.375.165.375.375v1.5375c0,.21-.165.375-.375.375z" fill="#fff"/><path fill-rule="evenodd" clip-rule="evenodd" d="m3,15.6h18v1.1625H3V15.6z" fill="#fff"/><path fill-rule="evenodd" clip-rule="evenodd" d="m3,20.25h18v.7125H3V20.25z" fill="#fff"/><path fill-rule="evenodd" clip-rule="evenodd" d="m15.1875,18.525c0-.78.63-1.41,1.4025-1.41.78,0,1.41.63,1.41,1.41s-.63,1.41-1.41,1.41c-.7725,0-1.4025-.63-1.4025-1.41z" fill="#fff"/><path fill-rule="evenodd" clip-rule="evenodd" d="m7.92,18.525c0-.78.63-1.41,1.4025-1.41s1.41.63,1.41,1.41-.63,1.41-1.41,1.41c-.7725,0-1.4025-.63-1.4025-1.41z" fill="#fff"/><path fill-rule="evenodd" clip-rule="evenodd" d="m4.3125,18.525c0-.78.63-1.41,1.4025-1.41s1.4025.63,1.4025,1.41-.63,1.41-1.4025,1.41-1.4025-.63-1.4025-1.41z" fill="#fff"/><path fill-rule="evenodd" clip-rule="evenodd" d="m17.9475,11.7975c-.945,0-1.71.765-1.71,1.71s.765,1.71,1.71,1.7025c.9375,0,1.7025-.7575,1.7025-1.7025s-.7575-1.71-1.7025-1.71zm0,.7725c.5175,0,.9375.42.9375.9375s-.42.9375-.9375.9375-.9375-.42-.9375-.9375.42-.9375.9375-.9375z" fill="#fff"/></svg>