<svg width="24" height="24" xmlns="http://www.w3.org/2000/svg"><path fill-rule="evenodd" clip-rule="evenodd" d="m22.5,0h-21C.675,0,0,.675,0,1.5v21c0,.825.675,1.5,1.5,1.5h21c.825,0,1.5-.675,1.5-1.5v-21c0-.825-.675-1.5-1.5-1.5z" fill="#2d327d"/><path fill-rule="evenodd" clip-rule="evenodd" d="m8.3625,14.0175c-.1275,0-.2325-.105-.2325-.2325v-1.65c0-.1875.075-.3675.2025-.495l1.41-1.41c.135-.135.3075-.2025.495-.2025h4.05c.1875,0,.3675.075.495.2025l1.635,1.635,2.745.225c.12.0075.2175.1125.2175.2325v1.4625c0,.1275-.105.2325-.2325.2325h-.255v-.27c0-.78-.63-1.41-1.4025-1.41-.78,0-1.41.63-1.41,1.41v.27h-4.665v-.27c0-.78-.63-1.41-1.4025-1.41-.78,0-1.41.63-1.41,1.41v.27h-.24zm4.1925-3.315v.96c0,.1275.105.2325.2325.2325h2.73c.06,0,.1125-.0525.1125-.1125,0-.03-.015-.06-.03-.0825l-1.17-1.17c-.045-.045-.105-.0675-.165-.0675h-1.4775c-.1275,0-.2325.105-.2325.24zm-.6825,1.1925H9c-.06,0-.1125-.0525-.105-.1125,0-.03.0075-.06.03-.0825l1.17-1.1625c.045-.045.105-.0675.165-.0675h1.6125c.1275,0,.2325.105.2325.2325v.96c0,.1275-.105.2325-.2325.2325z" fill="#fff"/><path fill-rule="evenodd" clip-rule="evenodd" d="m18.7275,19.29c-.435-.0975-.87-.165-1.305-.2175-.3675-.045-.735-.075-1.1025-.075-.8325,0-1.665.1275-2.4675.375-.5325.165-1.0875.2475-1.65.2475-.0525,0-.105,0-.1575,0-.615-.0225-1.215-.1425-1.7925-.3525-.945-.3525-1.9425-.5325-2.9475-.5325-.2025,0-.3975.0075-.6.0225-1.2675.0675-2.52.33-3.7125.765V13.515H5.385c.21,0,.375-.165.375-.375,0-.0075,0-.015,0-.0225l-.0825-1.425c-.015-.195-.1725-.3525-.375-.3525H3V9.765h2.175c.21,0,.375-.165.375-.375,0-.0075,0-.015,0-.0225L5.4675,7.98c-.015-.195-.1725-.3525-.375-.3525H3V6.75h3.7875c.165,0,.3.135.3.3v.0375c0,.21-.165.39-.375.4125l-.4575.045,1.2075,6.84c.06.36.375.6225.735.6225h11.43l1.245-3.075.5625.21L18.7275,19.29z" fill="#fff"/><path fill-rule="evenodd" clip-rule="evenodd" d="m3,20.07c1.2-.465,2.46-.735,3.7425-.8025.1875-.015.375-.0225.5625-.0225.945,0,1.875.1725,2.76.5025.63.2325,1.29.3675,1.9575.39.06,0,.12,0,.18,0,.6075,0,1.2225-.09,1.8-.27.75-.2325,1.53-.345,2.31-.345.345,0,.69.0225,1.035.0675,1.26.1425,2.49.4875,3.645,1.005v.9525c-1.1775-.585-2.445-.9525-3.75-1.1025-.3075-.045-.615-.06-.93-.06-.6975,0-1.3875.105-2.055.3075S12.9,21,12.2025,21c-.0675,0-.135,0-.2025,0-.765-.0225-1.5225-.1725-2.235-.4425-.7875-.2925-1.62-.4425-2.46-.4425-.1725,0-.3375.0075-.51.015C5.49,20.1975,4.2,20.4975,3,21v-.93z" fill="#fff"/><path fill-rule="evenodd" clip-rule="evenodd" d="m9.9975,14.19c.27,0,.4875-.2175.4875-.4875s-.2175-.4875-.4875-.4875-.4875.2175-.4875.4875.2175.4875.4875.4875zm0-1.5525c.5925,0,1.065.48,1.065,1.065s-.48,1.065-1.065,1.065-1.065-.48-1.065-1.065.48-1.065,1.065-1.065z" fill="#fff"/><path fill-rule="evenodd" clip-rule="evenodd" d="m17.475,14.19c.27,0,.4875-.2175.4875-.4875s-.2175-.4875-.4875-.4875-.4875.2175-.4875.4875.2175.4875.4875.4875zm0-1.5525c.585,0,1.065.48,1.065,1.065s-.48,1.065-1.065,1.065-1.065-.48-1.065-1.065.48-1.065,1.065-1.065z" fill="#fff"/></svg>