<svg width="24" height="24" xmlns="http://www.w3.org/2000/svg"><path fill-rule="evenodd" clip-rule="evenodd" d="m22.5,0h-21C.675,0,0,.675,0,1.5v21c0,.825.675,1.5,1.5,1.5h21c.825,0,1.5-.675,1.5-1.5v-21c0-.825-.675-1.5-1.5-1.5z" fill="#2d327d"/><path fill-rule="evenodd" clip-rule="evenodd" d="m5.2875,5.61749L3,5.99999v.6825l2.2875-.3825v-.6825z" fill="#fff"/><path fill-rule="evenodd" clip-rule="evenodd" d="m6.7125,5.3775v.69L21,3.6825V3L6.7125,5.3775z" fill="#fff"/><path fill-rule="evenodd" clip-rule="evenodd" d="m6.3375,11.25H8.25c.4125,0,.75.3375.75.75v4.35c0,.0975-.0075.195-.03.2925l-.75,3.75c-.0675.345-.375.6-.735.6h-2.97c-.36,0-.6675-.2475-.735-.6l-.75-3.75c-.0225-.0975-.03-.195-.03-.2925V12c0-.4125.3375-.75.75-.75h1.9125V4.72501h.675V11.25zM7.875,16.5c.21,0,.375-.165.375-.375v-3.75c0-.21-.165-.375-.375-.375h-3.75c-.21,0-.375.165-.375.375v3.75c0,.21.1725.375.375.375h3.75z" fill="#fff"/></svg>