<svg width="24" height="24" xmlns="http://www.w3.org/2000/svg"><path fill-rule="evenodd" clip-rule="evenodd" d="m22.5,0h-21C.675,0,0,.675,0,1.5v21c0,.825.675,1.5,1.5,1.5h21c.825,0,1.5-.675,1.5-1.5v-21c0-.825-.675-1.5-1.5-1.5z" fill="#2d327d"/><path fill-rule="evenodd" clip-rule="evenodd" d="m4.125,8.625c0-.21-.165-.375-.375-.375H3V7.5h5.6625c.21,0,.375.165.375.375s-.165.375-.375.375h-.525l.375,2.25h4.6125v2.25h-1.3125l.375,2.25h9.0375l-2.25,4.2675L17.37,18.93c-.2925-.0375-.5775-.06-.87-.0675-.2925.0075-.585.03-.87.0675l-2.52.5325c-.3675.075-.735.1125-1.11.1125s-.7425-.0375-1.11-.1125L8.37,18.93c-.2925-.0375-.5775-.06-.87-.0675-.2925.0075-.5775.03-.87.0675l-2.52.5325c-.3675.075-.735.1125-1.11.1125V15h.75c.21,0,.375-.165.375-.375v-1.5c0-.21-.165-.375-.375-.375H3V10.5h.75c.21,0,.375-.165.375-.375v-1.5zm4.35,4.5v1.5c0,.2025.165.375.375.375h2.205c.21,0,.375-.1725.375-.375,0-.0113-.0019-.0206-.0037-.03-.0019-.0094-.0038-.0188-.0038-.03l-.2475-1.5c-.03-.18-.1875-.315-.3675-.315H8.85c-.21,0-.375.1725-.375.375zm-3.675,1.5v-1.5c0-.2025.165-.375.375-.375h2.25c.21,0,.375.165.375.375v1.5c0,.2025-.165.375-.375.375h-2.25c-.21,0-.375-.1725-.375-.375zm0-6v1.5c0,.21.165.375.375.375H7.38c.21,0,.375-.165.375-.375,0-.015,0-.0375-.0075-.06L7.5,8.565c-.03-.18-.18-.315-.3675-.315H5.175c-.21,0-.375.165-.375.375z" fill="#fff"/><path fill-rule="evenodd" clip-rule="evenodd" d="m6.75,19.635c.2475-.03.5025-.0525.75-.0525.2475.0075.5025.0225.75.0525l2.49.525c.4125.09.8325.1275,1.26.1275.42,0,.84-.045,1.26-.1275l2.49-.525c.2475-.03.5025-.0525.75-.0525.2475.0075.5025.0225.75.0525l2.49.525c.4125.09.8325.1275,1.26.1275V21c-.4725,0-.9375-.045-1.4025-.1425l-2.46-.5175c-.21-.0225-.42-.0375-.63-.045-.21.0075-.42.0225-.63.045l-2.46.5175c-.465.0975-.93.1425-1.4025.1425s-.945-.045-1.4025-.1425l-2.46-.5175c-.21-.0225-.42-.0375-.63-.045-.21.0075-.42.0225-.63.045l-2.46.5175c-.465.0975-.93.1425-1.4025.1425v-.7125c.42,0,.8475-.045,1.26-.1275l2.46-.525z" fill="#fff"/></svg>