<svg width="36" height="36" viewBox="0,0,36,36" xmlns="http://www.w3.org/2000/svg"><path fill-rule="evenodd" clip-rule="evenodd" d="m6.74549,15.2515L29.25,15.25c1.106,0,2,.8962,2,2h.0015v7H33v1h-1.7485v1.5h-1.5144c.0082.0814.0126.1645.0126.2493,0,1.5198-1.2321,2.75-2.75,2.75s-2.75-1.2302-2.75-2.75c0-.0848.0044-.1679.0126-.2493H11.7371c.0082.0814.0126.1645.0126.2493,0,1.5196-1.2304,2.75-2.75,2.75-1.51792,0-2.75-1.2302-2.75-2.75,0-.0848.00442-.1679.01264-.2493h-1.5121l-.00025-.4998-.0005-1.0002H3v-1h1.74899l-.0035-6.9983v-.0002c0-1.1041.89584-2,1.99997-2h.00003zM25.2707,26.75c-.0137.0829-.021.1659-.021.2493,0,.9671.7839,1.75,1.75,1.75s1.75-.7829,1.75-1.75c0-.0834-.0073-.1664-.021-.2493h-3.458zm-18,0h3.458c.0137.0829.021.1659.021.2493,0,.9673-.78264,1.75-1.75,1.75-.96607,0-1.75-.7829-1.75-1.75,0-.0834.00727-.1664.021-.2493zM29.25,16.25l-22.50448.0015h-.00003c-.55177,0-.99986.448-1,.9998v.0002l.00425,8.4985H7.75v-5.9993h5.5V25.75h17.0015v-8.5H30.25c0-.5522-.447-1-1-1zm-17,9.5h-3.5v-4.9993h3.5V25.75zm3.5-6h-.5v4h13.0015v-4H15.75zm.5,3v-2h11.0015v2H16.25z"/></svg>