<svg width="36" height="36" viewBox="0,0,36,36" xmlns="http://www.w3.org/2000/svg"><path fill-rule="evenodd" clip-rule="evenodd" d="m19.2499,8.25c0-.52336.4766-1,1-1,.5233,0,1,.47664,1,1s-.4767,1-1,1c-.5234,0-1-.47664-1-1zm1-2c-1.0757,0-2,.92436-2,2s.9243,2,2,2c1.0756,0,2-.92436,2-2s-.9244-2-2-2zm-1.7064,6h3.5161l.1382.2764,1.4799,2.9597,2.2229,2.9639-.8.6-2.25-3-.027-.0361-.0202-.0403-.5535-1.107v5.3998l1.4428,2.7514.0572.1091V30h-1v-6.6268l-1.3024-2.4837h-2.1976v3.8961l-.005.0351-.75,5.25-.99-.1414.745-5.2148V13.9578l-1.9993,1.9993V19.5h-1v-3.9571l3.2929-3.2929zm.7064,7.6395V13.25h2v6.6395h-2zM15.3396,20.1155l-1.216,3.0103-2.3137-.9431-.4644-.1893-.1879.465-1.68601,4.173-.18663.462.46125.1883,2.77799,1.134.4646.1896.188-.4653,3.09-7.65-.9272-.3745zm-3.4427,3.1825,1.8522.755-1.3116,3.2472-1.8521-.7561,1.3115-3.2461zm-2.53666,4.1649c-.297,0-.5775.177-.696.468-.1545.384.0315.822.4155.9765.0915.0375.1875.0555.2805.0555.297,0,.5775-.177.69446-.4695.156-.384-.03-.8205-.41396-.9765-.0915-.036-.1875-.054-.2805-.054zM11.446,29.0544c.1185-.291.399-.468.696-.468.093,0,.189.018.2805.054.384.156.57.594.414.9765-.117.2925-.399.4695-.6945.4695-.093,0-.189-.018-.2805-.054-.384-.156-.57-.594-.4155-.978z"/></svg>