<svg width="36" height="36" viewBox="0,0,36,36" xmlns="http://www.w3.org/2000/svg"><path fill-rule="evenodd" clip-rule="evenodd" d="m22.2368,8.25c0-.52336.4767-1,1-1,.5234,0,1,.47664,1,1s-.4766,1-1,1c-.5233,0-1-.47664-1-1zm1-2c-1.0756,0-2,.92436-2,2s.9244,2,2,2c1.0757,0,2-.92436,2-2s-.9243-2-2-2zM10.5,9.25H18v1h-7.5v-1zm11.2507,3h-.1514l-.1259.084-4.5,3-.1529.1019-.0505.1767-1.5,5.25.9615.2748,1.4495-5.0733,3.3436-2.2291-1.2634,6.3169-.0097.0486-.1099.5495h.1099v3.7926l-4.3536,4.3535.7071.7071,4.5-4.5.1465-.1464V20.75h2.2915l2.6608,2.6595-1.4419,6.4819.9762.2172,1.5015-6.75.0596-.2681-.1942-.1941-2.8122-2.8108,1.2655-6.3209,2.4114,2.4114.0953.0381,3.75,1.5.3714-.9284-3.6547-1.4619-2.9274-2.9275-.1465-.1464h-3.2071zM20.8614,19.75l1.3-6.5h1.98l-1.3013,6.5h-1.9787zM7.5,13.75v1h6v-1h-6zm-3,6H12v1H4.5v-1zm10.5,4.5H7.5v1H15v-1z"/></svg>