<svg width="24" height="24" viewBox="0,0,24,24" xmlns="http://www.w3.org/2000/svg"><path fill-rule="evenodd" clip-rule="evenodd" d="m14.9912,5.5c0-.25686.2432-.5.5-.5.2569,0,.5.24314.5.5s-.2431.5-.5.5c-.2568,0-.5-.24314-.5-.5zm.5-1.5c-.8091,0-1.5.69086-1.5,1.5s.6909,1.5,1.5,1.5c.8092,0,1.5-.69086,1.5-1.5s-.6908-1.5-1.5-1.5zM7,6h5v1H7V6zm7.5005,2h-.1514l-.126.08397-3,2.00003-.1529.1019-.0505.1767-1,3.5.9616.2748.9495-3.3233,1.8432-1.22887-.7633,3.81667-.0097.0486L12.8911,14h.1099v2.2927l-2.8536,2.8535.7071.7071,3-3,.1465-.1464V14h1.292l1.6603,1.6595-.9414,4.2319.9762.2172,1.001-4.5.0596-.2681-.1942-.1941-1.8117-1.8108.765-3.82115,1.3391,1.33915.0726.0725.0953.0381,2.5,1,.3714-.9284-2.4047-.9619L16.854,8.14645,16.7076,8h-2.2071zM14.1109,13l.8-4h.9801l-.8008,4h-.9793zM5,9v1h4V9H5zm-2,4h5v1H3v-1zm7,3H5v1h5v-1z"/></svg>