<svg width="36" height="36" viewBox="0,0,36,36" xmlns="http://www.w3.org/2000/svg"><path fill-rule="evenodd" clip-rule="evenodd" d="m17.25,7.24951c-.5234,0-1,.47664-1,1,0,.52454.4763,1,1,1s1-.47546,1-1c0-.52336-.4766-1-1-1zm-2,1c0-1.07564.9244-2,2-2s2,.92436,2,2c0,1.07747-.9247,1.99999-2,1.99999s-2-.92252-2-1.99999zm1,4.99999v6.5h2v-6.5h-2zm-1,.4343v10.9143l-2.916,4.3741.832.5547,3.084-4.626v-4.1514h2.2929l2.7071,2.7071v6.5429h1v-6.9571l-3-3v-6.0858l2.1464,2.1465.1465.1464H25.5v-1h-3.5429l-3-3h-3.3585l-.1259.084-4.5001,3-.2226.1484v5.5176h1v-4.9824l3.5-2.3333z"/></svg>