<svg width="36" height="36" xmlns="http://www.w3.org/2000/svg"><path fill-rule="evenodd" clip-rule="evenodd" d="m15.5,8.25c0-1.38119,1.12-2.5,2.5-2.5,1.3801,0,2.5,1.11881,2.5,2.5,0,1.37986-1.1201,2.5-2.5,2.5-1.3798,0-2.5-1.12014-2.5-2.5zm4.9489,2.5c.6486-.6354,1.0511-1.52093,1.0511-2.5,0-1.93381-1.568-3.5-3.5-3.5-1.9319,0-3.5,1.56619-3.5,3.5,0,.97907.4026,1.8646,1.0512,2.5H7.82108l-.06522.424-3,19.5-.08862.576H31.3328l-.0886-.576-3-19.5-.0652-.424h-7.7301zM18,11.75H8.679l-2.84615,18.5H30.1672l-2.8461-18.5H18zm-.249,6.2661-3.357,3.387,3.6735,5.1795h-2.361l-2.601-3.8445-1.0785,1.0785v2.766h-1.869v-8.5665h1.869v3.5445l3.357-3.5445h2.367zm8.1915,8.5662v-4.617h-3.597v1.371h1.9035c-.0195.5775-.2175,1.044-.594,1.401-.3765.354-.861.5325-1.4505.5325-.816,0-1.434-.3075-1.8525-.9195-.339-.501-.5085-1.176-.5085-2.028,0-.8715.1815-1.563.5445-2.0745.414-.585,1.0005-.8775,1.758-.8775.4995,0,.912.1275,1.239.3855s.5355.6165.63,1.0785h1.8105c-.078-.7425-.381-1.386-.909-1.9335-.7065-.726-1.623-1.0905-2.748-1.0905-1.218,0-2.2125.4065-2.982,1.2195-.8205.8595-1.23,1.9635-1.23,3.3105,0,1.1865.315,2.1855.9435,2.994.7575.9705,1.791,1.4535,3.099,1.4535,1.074,0,1.9275-.396,2.5605-1.1835l.1875.978h1.1955z"/></svg>