<svg width="48" height="48" viewBox="0,0,48,48" xmlns="http://www.w3.org/2000/svg"><path fill-rule="evenodd" clip-rule="evenodd" d="m24.0001,10c-7.5629,0-14.36867,3.1841-19.19842,8.2684l-.72502-.6887C9.08578,12.3066,16.1497,9,24.0001,9s14.9143,3.3066,19.9234,8.5797l-.725.6887C38.3687,13.1841,31.563,10,24.0001,10zM9.14885,22.3965C12.8853,18.4631,18.1501,16,24.0003,16c5.8504,0,11.115,2.4631,14.8515,6.3965l.725-.6887C35.661,17.5855,30.1382,15,24.0003,15c-6.1378,0-11.6606,2.5855-15.57647,6.7078l.72502.6887zm4.35655,4.1371c2.6434-2.7838,6.3677-4.5265,10.5064-4.5265,4.1332,0,7.8532,1.7377,10.4959,4.5149l.7245-.6893c-2.8221-2.9657-6.8001-4.8256-11.2204-4.8256-4.4263,0-8.4088,1.8652-11.2316,4.8379l.7252.6886zm4.3451,4.1264c1.5513-1.6331,3.7259-2.66,6.1497-2.66s4.5984,1.0269,6.1497,2.66l.725-.6887C29.1464,28.1516,26.7146,27,24.0002,27c-2.7143,0-5.1462,1.1516-6.8747,2.9713l.725.6887zm3.6497,5.84c0-1.3807,1.1193-2.5,2.5-2.5s2.5,1.1193,2.5,2.5-1.1193,2.5-2.5,2.5-2.5-1.1193-2.5-2.5zm2.5-3.5c-1.933,0-3.5,1.567-3.5,3.5s1.567,3.5,3.5,3.5,3.5-1.567,3.5-3.5-1.567-3.5-3.5-3.5z"/></svg>