<svg width="36" height="36" viewBox="0,0,36,36" xmlns="http://www.w3.org/2000/svg"><path fill-rule="evenodd" clip-rule="evenodd" d="m8.09592,8.80295-3.1994-3.1994.7071-.7071L28.1036,27.3964l-.7071.7072-6.7182-6.7183c-.819-.397-1.7187-.6347-2.6773-.6347-1.7825,0-3.3816.7538-4.5211,1.956l-.7258-.688c1.3175-1.3898,3.1744-2.268,5.2469-2.268.3894,0,.7693.0334,1.1385.0959l-3.349-3.349c-2.1691.458-4.0985,1.5635-5.5701,3.1138l-.72529-.6885c1.46639-1.5447,3.34879-2.6856,5.46619-3.2545l-2.7521-2.7521c-2.0009.8251-3.79248,2.0492-5.25758,3.593l-.72537-.6883c1.46988-1.5489,3.24526-2.7937,5.22105-3.6666L8.83452,9.54155C6.91444,10.5538,5.17155,11.855,3.69301,13.4124l-.72524-.6885c1.48666-1.566,3.22331-2.88204,5.12815-3.92095zM18.0001,25.25c-.9661,0-1.75.7829-1.75,1.75,0,.9659.7841,1.75,1.75,1.75.9658,0,1.75-.7841,1.75-1.75,0-.9671-.784-1.75-1.75-1.75zm-2.75,1.75c0-1.5199,1.232-2.75,2.75-2.75,1.5179,0,2.75,1.2301,2.75,2.75,0,1.5181-1.2319,2.75-2.75,2.75-1.5182,0-2.75-1.2319-2.75-2.75zM10.8446,7.54986c2.2306-.82441,4.6322-1.30001,7.1558-1.30001,5.9233,0,11.2528,2.49576,15.0325,6.47355l-.725.6889c-3.6003-3.78921-8.6718-6.16245-14.3075-6.16245-2.3964,0-4.6808.4514-6.8092,1.238l-.3466-.93799zm7.1563,3.20074c-1.2005,0-2.3659.1363-3.4866.3821l.2142.9768c1.0544-.2312,2.1479-.3589,3.2724-.3589,4.3519,0,8.2682,1.8304,11.0479,4.7583l.7252-.6886c-2.9593-3.1171-7.134-5.0697-11.7731-5.0697zm.7611,5.5451c2.7607.1935,5.2311,1.4201,7.0272,3.3079l.7245-.6893c-1.9629-2.0632-4.6645-3.4046-7.6818-3.6161l-.0699.9975z"/></svg>