<svg width="24" height="24" viewBox="0,0,24,24" xmlns="http://www.w3.org/2000/svg"><path fill-rule="evenodd" clip-rule="evenodd" d="m2.99436,5.5c0-1.38389,1.12186-2.50575,2.50575-2.50575S8.00586,4.11611,8.00586,5.5,6.884,8.00575,5.50011,8.00575,2.99436,6.88389,2.99436,5.5zm2.50575-3.49425c-1.92982,0-3.49425,1.56443-3.49425,3.49425s1.56443,3.49425,3.49425,3.49425c1.76205,0,3.21947-1.30424,3.45956-3H19.5001c.8316,0,1.5058.67415,1.5058,1.50575v1.99985c0,.83165-.6743,1.50585-1.5059,1.50575l-4.5403-.0003c-.2401-1.69574-1.6975-2.99999-3.4596-2.99999-1.76219,0-3.21971,1.30446-3.45962,3.00049H4.50011c-1.37754,0-2.49425,1.1167-2.49425,2.4942v3c0,1.3775,1.11671,2.4943,2.49425,2.4943H15.0405c.2401,1.6957,1.6976,3,3.4596,3,1.9298,0,3.4943-1.5645,3.4943-3.4943s-1.5645-3.4942-3.4943-3.4942c-1.762,0-3.2195,1.3042-3.4596,3H4.50011c-.8316,0-1.50575-.6742-1.50575-1.5058v-3c0-.8316.67415-1.5057,1.50575-1.5057h3.5405c.24028,1.6955,1.6976,2.9995,3.45949,2.9995,1.762,0,3.2195-1.3042,3.4596-3l4.5402.0003c1.3776.0001,2.4945-1.1166,2.4945-2.49425V7.5c0-1.37754-1.1168-2.49425-2.4943-2.49425H8.95967c-.24009-1.69576-1.69751-3-3.45956-3zM7.3496,4.84949l-.69898-.69898L5.00011,5.80103,4.3496,5.15051l-.69898.69898,1.34949,1.34949L7.3496,4.84949zM18.5001,15.9943c-1.3839,0-2.5057,1.1218-2.5057,2.5057s1.1218,2.5058,2.5057,2.5058,2.5058-1.1219,2.5058-2.5058-1.1219-2.5057-2.5058-2.5057zm1.8495,1.8552-.699-.699-1.6505,1.6505-.6505-.6505-.699.699,1.3495,1.3495,2.3495-2.3495zm-8.8495-8.85569c-1.3839,0-2.50574,1.12189-2.50574,2.50579,0,1.3838,1.12184,2.5057,2.50574,2.5057s2.5058-1.1219,2.5058-2.5057c0-1.3839-1.1219-2.50579-2.5058-2.50579zm1.8495,1.85519-.699-.6989-1.6505,1.6505-.6505-.6505-.69898.6989.99998,1,.3495.3495,2.3495-2.3495z"/></svg>