<svg width="24" height="24" viewBox="0,0,24,24" xmlns="http://www.w3.org/2000/svg"><path fill-rule="evenodd" clip-rule="evenodd" d="m17,4.46875c0-1.37816,1.1218-2.5,2.5-2.5s2.5,1.12184,2.5,2.5c0,.75355-.3509,1.46795-.9407,1.94098l-.2831.22701.128.33951c.063.16701.0958.34361.0958.52375,0,.8264-.6736,1.5-1.5,1.5S18,8.3264,18,7.5c0-.18014.0328-.35674.0958-.52375l.128-.33951-.2831-.22701C17.3509,5.93671,17,5.2223,17,4.46875zm2.5-3.5c-1.9304,0-3.5,1.56956-3.5,3.5,0,.94881.3929,1.84496,1.0588,2.49436C17.02,7.13814,17,7.31794,17,7.5c0,1.37868,1.1213,2.5,2.5,2.5S22,8.87868,22,7.5c0-.18206-.02-.36187-.0588-.5369C22.6071,6.3137,23,5.41756,23,4.46875c0-1.93044-1.5696-3.5-3.5-3.5zM2,11h20.25v4H2v-4zm1,1v2h4v-2H3zm6,2H8v-2h1v2zm1,0h8.75v-2H10v2zm11.25,0h-1.5v-2h1.5v2z"/></svg>