<svg width="36" height="36" viewBox="0,0,36,36" xmlns="http://www.w3.org/2000/svg"><path fill-rule="evenodd" clip-rule="evenodd" d="m9.60555,8.16755c-.58072.4948-.85552,1.02067-.85552,1.58275,0,.5621.2748,1.088.85552,1.5827.58765.5007,1.45755.9394,2.55065,1.2987,2.1824.7175,5.1249,1.0773,8.0925,1.0691,2.9673-.0082,5.9107-.384,8.0944-1.1059,1.0938-.3616,1.9649-.7997,2.5533-1.296.5826-.4913.8536-1.0068.8536-1.5486,0-.54184-.271-1.05732-.8536-1.54864-.5884-.49627-1.4595-.93433-2.5533-1.29594-2.1837-.72189-5.1271-1.09776-8.0944-1.10592-2.9676-.00816-5.9101.35159-8.0925,1.06905-1.0931.35936-1.963.79803-2.55065,1.2987zm-.64854-.76117c-.73178.6235-1.20698,1.40599-1.20698,2.34392v2.0402c-1.2076.3608-2.26432.829-3.04897,1.4199-.86807.6539-1.4513,1.4992-1.4513,2.5405l.00027.0394v4.4591c0,.9376.47483,1.7218,1.20585,2.3484.72443.6209,1.72912,1.1153,2.88604,1.5009.13362.0446.26971.0878.40811.1297v2.0211c0,.9376.47483,1.7218,1.20585,2.3484.72443.621,1.72912,1.1154,2.88602,1.501,2.3176.7725,5.3752,1.1506,8.4081,1.1506,3.033,0,6.0906-.3781,8.4081-1.1506,1.157-.3856,2.1616-.88,2.8861-1.501.731-.6266,1.2058-1.4108,1.2058-2.3484v-4.5c-.0001-1.0264-.5882-1.8605-1.4537-2.5062-.6469-.4828-1.479-.8855-2.4282-1.2154,1.0685-.3747,1.9958-.8462,2.6761-1.4292.731-.6266,1.2058-1.4108,1.2058-2.3484v-4.5c0-.92516-.4789-1.69743-1.2089-2.31307-.724-.61068-1.728-1.09877-2.8841-1.48098-2.3164-.76574-5.3729-1.14811-8.4056-1.15645-3.0324-.00834-6.0899.35716-8.4075,1.11907-1.1569.38033-2.16201.86988-2.88689,1.48751zM29.775,25.1183c.765-.3359,1.4535-.7473,1.975-1.2428v2.374c0,.5625-.2751,1.0908-.8566,1.5892-.5881.504-1.4584.9471-2.5515,1.3115-.0305.0102-.0611.0203-.0919.0303v-3.5082c.5466-.1644,1.058-.349,1.525-.554zm-2.525.8235c-1.2125.292-2.5531.4982-3.9395.6212-.8385.0744-1.6977.1187-2.5605.1327v3.5503c2.3261-.0328,4.6115-.2943,6.5-.7768v-3.5274zm-11.4055.4962c1.2525.1594,2.5753.2459,3.9055.2604v3.5476c-2.326-.0328-4.6114-.2943-6.5-.7768v-3.4941c.8177.1943,1.6913.3479,2.5945.4629zm-3.5945-.7297c-.8863-.2648-1.6829-.585-2.34903-.9636-.39451-.0736-.77893-.1553-1.15094-.2453v1.7501c0,.5625.27518,1.0908.85665,1.5892.58812.504,1.45842.9471,2.55142,1.3115.0305.0102.0612.0203.0919.0303v-3.4722zM15.9708,25.446c-.4807-.0612-.9481-.1332-1.3989-.2157.392.0128.7853.0191,1.1781.0191,3.033,0,6.0906-.3781,8.4081-1.1507,1.157-.3856,2.1617-.88,2.8861-1.5009.731-.6266,1.2058-1.4108,1.2058-2.3484v-1.374c1.0126.327,1.8468.7205,2.4483,1.1693.7196.537,1.0517,1.1074,1.0517,1.7053,0,.895-.7654,1.745-2.377,2.4526-1.5714.69-3.7575,1.152-6.1508,1.3643-2.3872.2118-4.9475.1723-7.2514-.1209zM4.25003,15.7811v-.0302h-.00027c0-.6207.33626-1.2019,1.05294-1.7417.60074-.4525,1.43439-.8466,2.44733-1.1719v1.413c0,.9376.47483,1.7218,1.20585,2.3484.72443.6209,1.72912,1.1153,2.88602,1.5009,2.3176.7726,5.3752,1.1507,8.4081,1.1507.3272,0,.6547-.0044.9815-.0132-.4276.0764-.8694.1437-1.3224.2016-2.3002.2941-4.846.3413-7.2151.1374-2.3757-.2044-4.53986-.6585-6.09363-1.3466C5.029,17.5337,4.26656,16.69,4.25003,15.7811zm0,2.126v2.3423c0,.5624.27518,1.0907.85665,1.5891.58807.5041,1.45838.9472,2.55146,1.3116.03049.0101.06111.0202.09189.0302V19.709c-.55807-.1665-1.07953-.3547-1.55457-.5651-.75431-.334-1.43125-.7434-1.94543-1.2368zM15.25,24.2459c-2.326-.0328-4.6114-.2944-6.49997-.7768v-3.4934c1.18923.2824,2.50117.48,3.85827.5967.8643.0744,1.7512.1164,2.6417.126v3.5475zm1-3.5503v3.5503c2.3261-.0328,4.6115-.2944,6.5-.7768v-3.5273c-.8532.2054-1.7677.3678-2.7141.4888-1.2168.1556-2.4978.244-3.7859.265zm7.5382,2.4722-.0382.0125v-3.508c.8431-.2536,1.6044-.5558,2.2492-.9082.4296-.0784.8475-.1663,1.2508-.2638v1.7491c0,.5624-.2751,1.0907-.8566,1.5891-.5881.5041-1.4584.9472-2.5515,1.3116l-.0537.0177zm7.9618-8.9175v-2.3741c-.067.0639-.1367.1263-.2089.1872-.724.6106-1.728,1.0987-2.8841,1.4809-.1333.0441-.269.0869-.407.1284v3.5085c.0308-.01.0614-.0201.0919-.0302,1.0931-.3644,1.9634-.8075,2.5515-1.3116.5815-.4984.8566-1.0267.8566-1.5891zm-4.5,3.2197c-1.8885.4824-4.1739.744-6.5.7768v-3.5507c2.2859-.0372,4.5617-.2872,6.5-.7539V17.47zm-14,0c1.8886.4824,4.174.744,6.5.7768v-3.548c-2.2855-.0248-4.5612-.2627-6.5-.7231V17.47zm-1-.2888c-.0307-.01-.0614-.0201-.0919-.0302-1.093-.3644-1.9633-.8075-2.55142-1.3116-.58147-.4984-.85665-1.0267-.85665-1.5891v-2.3434c.06641.0639.13547.1264.20698.1873.72488.6177,1.72999,1.1072,2.88689,1.4875.133.0437.2684.0862.4061.1273v3.4722z"/></svg>