<svg width="24" height="24" viewBox="0,0,24,24" xmlns="http://www.w3.org/2000/svg"><path fill-rule="evenodd" clip-rule="evenodd" d="m6.00911,4.00024h6.69779l.1465.14645,5,5,.1464.14645V20.0002H5.99951l.0093-15.50026.0003-.4997zm.9994,1-.0084,13.99996h9.99969v-9h-4.9997V5.00024H7.00851zm5.99159.70735,3.2926,3.29265h-3.2926V5.70759zM8.65137,16.4045v-.849h.549c.18,0,.309.027.388.082.109.074.164.186.164.336,0,.149-.047.263-.142.339-.076.061-.201.092-.375.092h-.584zm.556-1.403h-1.21v2.998h.654v-1.08h.672c.173,0,.318-.017.435-.051.118-.033.223-.088.31403-.165.216-.178.324-.424.324-.738,0-.352-.131-.616-.391-.792-.09503-.063-.20103-.108-.31703-.134-.118-.025-.278-.038-.481-.038zM11.4097,15.5555v1.891h.504c.155,0,.278-.016.37-.046.091-.032.171-.083.239-.158.159-.171.238-.423.238-.756,0-.306-.073-.537-.22-.695-.147-.157-.364-.236-.652-.236h-.479zm-.654-.554h1.212c.225,0,.418.027.579.078.161.052.302.134.425.247.3.273.449.652.449,1.137,0,.515-.141.911-.424,1.192-.124.124-.264.213-.42.265-.156.053-.355.079-.595.079h-1.226v-2.998zm5.2267.5542v-.554h-2.11v2.998h.654v-1.234h1.268v-.515h-1.268v-.695h1.456z"/></svg>