<svg width="24" height="24" viewBox="0,0,24,24" xmlns="http://www.w3.org/2000/svg"><path fill-rule="evenodd" clip-rule="evenodd" d="m12,4c-4.41386,0-8,3.58614-8,8,0,3.3322,2.0231,6.1838,4.91241,7.3885l-.38482.923C5.2769,18.9562,3,15.7478,3,12c0-4.96614,4.03386-9,9-9,4.9661,0,9,4.03386,9,9,0,.3501-.0212.6867-.0523,1.0082l-.9954-.0964C19.9812,12.6133,20,12.3099,20,12c0-4.41386-3.5861-8-8-8zm8.532,11.692c-.1521-.3021-.5189-.438-.8351-.3025l-.0001.0001-6,2.57-.2128.0911-.2071-.1033-3.53003-1.76-.0005-.0002c-.1588-.0794-.34253-.0797-.50146-.0007-.35793.1828-.41275.6709-.11972.9237.55677.4743,1.20341,1.0986,1.74421,1.8232.4541.6083.8492,1.3084,1.0407,2.0665H15.5c.8238,0,1.5-.6761,1.5-1.5v-1.3085l.2758-.1384,2.97-1.49.0006-.0003c.3096-.1548.4452-.5436.2856-.8707zm-1.2289-1.2217c.8032-.3442,1.7357-.0008,2.1241.776l.0016.0032c.399.8124.0747,1.8025-.7349,2.2075l-.0003.0002L18,18.8085v.6914c0,1.3762-1.1239,2.5-2.5,2.5h-4.4341l-.061-.4297c-.0988-.6962-.453-1.3904-.9369-2.0387-.48136-.645-1.06924-1.2154-1.59226-1.6609l-.00171-.0015c-.84579-.7271-.6609-2.0774.31968-2.575l.00265-.0014h.00001c.44066-.2203.95621-.2204,1.39693-.0001l.0003.0001,3.3223,1.6565,5.7871-2.4788.0001-.0001zM9,8c-.55228,0-1,.44772-1,1s.44772,1,1,1,1-.44772,1-1-.44772-1-1-1zm5,1c0-.55228.4477-1,1-1s1,.44772,1,1-.4477,1-1,1-1-.44772-1-1zm-6.90194,5.4903,10.00004-2-.1962-.9806-9.99996,2,.19612.9806z"/></svg>