<svg width="48" height="48" viewBox="0,0,48,48" xmlns="http://www.w3.org/2000/svg"><path fill-rule="evenodd" clip-rule="evenodd" d="m11.498,3,.0024-.00001c.86.00102,1.7018.24845,2.4255.71301.5868.37663,1.0761.88318,1.4316,1.47788.4618-.15916.9536-.22052,1.4438-.17787.6556.05702,1.2818.2977,1.8068.69442.525.39671.9275.93339,1.1614,1.54846s.2896,1.28362.1609,1.92893c-.1288.64531-.4369,1.24128-.889,1.71938-.452.4782-1.0297.8193-1.6668.9841-.637.1648-1.3077.1467-1.9349-.0523-.4686-.1486-.8988-.3937-1.2638-.7175-.7738.5774-1.717.8933-2.6911.8933-.9006,0-1.77478-.2701-2.51312-.7672.10227.7625-.09326,1.4062-.5122,1.8839-.499.5689-1.24964.8265-1.95963.8265s-1.46064-.2576-1.95964-.8265c-.46076-.5253-.65128-1.2516-.47259-2.1157-1.39958-1.2691-1.28013-3.11266-.44384-4.39255.80938-1.23871,2.37538-2.07961,4.03638-1.44269.35388-.58733.83857-1.08802,1.41888-1.46153C9.8006,3.2516,10.6399,3.00316,11.498,3zm1.8877,1.55455c-.5625-.3611-1.2168-.55353-1.8852-.55455-.667.00269-1.3194.1959-1.88023.5569-.56121.36123-1.00744.87538-1.28608,1.48184l-.22416.48788-.47071-.25827c-1.25326-.68767-2.50223-.13596-3.1784.89889-.67505,1.03312-.67779,2.39254.47118,3.26446l.27711.2103-.10083.3329c-.22452.7414-.06601,1.2096.1836,1.4941.2685.3061.71786.486,1.20787.486s.93936-.1799,1.20786-.486c.24961-.2845.40812-.7527.1836-1.4941l-.09858-.3255.26653-.2112c.11444-.0907.21804-.1943.30875-.3088l.33622-.42417.39624.36877c.64769.6027,1.49963.9378,2.38433.9378.8848,0,1.7367-.3351,2.3844-.9378l.3834-.35676.3386.39936c.304.3585.7029.6241,1.1509.7662s.927.1551,1.3821.0374c.455-.1178.8676-.3614,1.1905-.7029.3229-.34159.543-.76726.635-1.22819s.0522-.93847-.1149-1.3778c-.167-.43934-.4546-.82268-.8296-1.10605s-.8223-.45528-1.2905-.49601c-.4683-.04074-.9385.05136-1.3568.26572l-.4645.23803-.2179-.47425c-.2793-.60782-.7268-1.12288-1.2898-1.4842zM2.5,16H2v29h44V21.5657l-.7774.5183L34,29.5657v-8l-.7773.5183L22,29.5657v-8l-.7773.5183L10,29.5657V16H2.5zM18,44h27V23.4343L33.7773,30.916,33,31.4343v-8L21.7773,30.916,21,31.4343v-8L9.77735,30.916,9,31.4343V17H3v27h6v-8h9v8zm-8,0h3v-7h-3v7zm4,0h3v-7h-3v7zm8.5-8H22v6h5v-6h-4.5zm.5,5v-4h3v4h-3zm9-5h5v6h-5v-6zm1,1v4h3v-4h-3zm-5.6235-26.9277c.5379-.13855,1.1067-.09401,1.6164.1266.5098.2206.9316.6047,1.1988,1.0916l.3103.5655.4702-.4414c.2623-.2462.6042-.3899.9635-.405.3593-.0152.7121.0993.9941.3225l.4976.3939.2665-.5761c.1594-.3448.4142-.6367.7343-.8413.3201-.2047.692-.31338,1.0719-.31338.3798,0,.7518.10868,1.0718.31338.3201.2046.5749.4965.7343.8413l.2718.5876.4999-.4115c.2586-.2129.5837-.3283.9187-.326h.0029c.2632.0003.5217.0698.7495.2015.2278.1318.417.3212.5484.5492.1315.2279.2007.4865.2006.7497,0,.1708-.0293.3398-.0858.4996H25.5518c-.0354-.1629-.0528-.3295-.0518-.4968l.0001-.0043c-.0013-.5555.1825-1.0955.5223-1.5349s.8162-.7532,1.3541-.8917zm2.0136-.79116c-.7137-.30884-1.5099-.37121-2.263-.17725-.7531.19395-1.4201.63317-1.8958,1.24831-.4753.6146-.7325,1.3699-.7312,2.1468-.0023.4025.0697.802.2125,1.1783l.1223.3227h16.1838l.1444-.25c.2193-.3799.3348-.8107.3349-1.2494.0001-.4386-.1152-.8695-.3343-1.2495s-.5343-.6956-.914-.9152c-.3793-.2194-.8096-.3352-1.2477-.3359-.3739-.00234-.7405.0816-1.0726.2421-.2203-.30694-.4977-.57078-.8189-.77609-.4808-.30742-1.0397-.47079-1.6104-.47079-.5708,0-1.1296.16337-1.6105.47079-.3232.20658-.602.4724-.8229.78179-.3636-.1718-.7658-.25452-1.1731-.2373-.4022.0169-.7913.1305-1.1358.3275-.3586-.45872-.8279-.82326-1.3677-1.05686z"/></svg>