<svg width="59" height="20" viewBox="0,0,59,20" xmlns="http://www.w3.org/2000/svg"><path fill-rule="evenodd" clip-rule="evenodd" d="m2,0C.89543,0,0,.895431,0,2v16c0,1.1046.895431,2,2,2h55c1.1046,0,2-.8954,2-2V2c0-1.104569-.8954-2-2-2H2z" fill="#eb0000"/><path d="m9.25126,4.19995h4.06994L8.28619,15.8H4.19934L9.25126,4.19995zM26.0686,12.3662c.3678,0,.7009-.2172.8492-.5537l3.3034-7.61255H16.0383l-5.035,11.59995h4.052l3.8117-8.69035h6.014L23.6755,9.885l-5.2436-.01902,4.2312,5.93392h4.6129l-3.1346-3.4337h1.9272zm16.3767-8.1317v11.5643h-2.3096V8.22903h-2.721V6.55208c.5641-.01582,1.0243-.07383,1.3802-.17403.3559-.1.6815-.26367.9769-.49043.4271-.32676.7145-.87793.8621-1.65312,0,0,1.8114,0,1.8114,0zm5.0702,5.3551c-.5378-.18457-.9504-.48769-1.2378-.90976-.2875-.42168-.4311-.9334-.4311-1.53438,0-1.00195.4113-1.80078,1.2339-2.39688.7277-.52714,1.5925-.79082,2.5944-.79082,1.1391,0,2.0697.31368,2.7922.94121.6855.59063,1.0283,1.3209,1.0283,2.19102,0,.60645-.1451,1.12598-.435,1.5582-.2901.43243-.7014.74629-1.2339.94141.4165.12129.7566.27676,1.0203.4666.7329.5326,1.0995,1.3105,1.0995,2.3334,0,1.176-.4509,2.1119-1.3526,2.808-.7593.5854-1.735.8779-2.9267.8779-1.292,0-2.3203-.3214-3.0848-.9648-.7963-.6697-1.1944-1.5477-1.1944-2.634,0-1.0178.3532-1.806,1.06-2.365.3216-.24788.6774-.4219,1.0677-.5221zm2.112.8699c-.5695,0-1.035.1754-1.3961.5262-.3613.3506-.5418.8002-.5418,1.3486,0,.5643.1832,1.0231.5497,1.3762.3665.3535.8425.5301,1.4277.5301.6645,0,1.1628-.1951,1.495-.5854.3216-.3744.4826-.8068.4826-1.2972,0-.5588-.1847-1.0176-.5538-1.3764-.3533-.3481-.8412-.5221-1.4633-.5221zm.0158-4.70623c-.5062,0-.915.14102-1.226.42305-.3112.28223-.4667.65273-.4667,1.11152,0,.47989.1568.86348.4706,1.15079.3137.2875.7343.43105,1.2616.43105s.944-.14238,1.2498-.42715c.3058-.28476.4588-.67226.4588-1.16269,0-.47969-.1543-.8543-.4628-1.12325-.3084-.26894-.7369-.40332-1.2853-.40332z" fill="#fff"/></svg>