<svg width="36" height="36" viewBox="0,0,36,36" xmlns="http://www.w3.org/2000/svg"><path fill-rule="evenodd" clip-rule="evenodd" d="m3.75,4.75h-.5v26.5h29.5V4.75h-29zm.5,25.5V5.75h27.5v24.5H4.25zm4.39645-17.1036,2.99995-3,.7072.7072L9.70711,13.5l2.64649,2.6464-.7072.7072-2.99995-3L8.29289,13.5l.35356-.3536zm15.70715,6,3,3,.3535.3536-.3535.3536-3,3-.7072-.7072L26.2929,22.5l-2.6465-2.6464.7072-.7072zM27,11.75H15v-1h12v1zM9,24.25v1h12v-1H9zm13.5-8H15v-1h7.5v1zm1.5,0h3v-1h-3v1zm-12,4.5H9v-1h3v1zm1.5,0H21v-1h-7.5v1z"/></svg>