<svg width="48" height="48" viewBox="0,0,48,48" xmlns="http://www.w3.org/2000/svg"><path fill-rule="evenodd" clip-rule="evenodd" d="m20.0063,4c-1.0981,0-2,.90186-2,2v2h6.9991v1.00049h-1.9993v5.00001h11V9.00049h-1.9998V8h6.9998v27.0005h-21v3h2.0002V43h1v-4.9995h22.9998v-3h-2V8h2.0002V4h-24zm20.9998,31.0005h-1V8.00049h1V35.0005zm-22,1h24v1h-24v-1zM31.0063,8v1.00049h-5.0009V8h5.0009zm-12-2c0-.54586.4542-1,1-1h23v2h-24V6zM4.00024,8h6.00596v1H7.36673l-1.66667,5h5.29624c1.5789,0,2.8534.3876,3.7316,1.2412.8807.8561,1.2784,2.0987,1.2784,3.6258V38h-4.1577l1.0909,2h2.0667v1H13.485l.9603,1.7606-.8779.4788L12.3459,41H4.00024v-1h7.80016l-1.0909-2H4.00635v-1H15.0063V27H4.00635v-1H15.0063v-7.133c0-1.3629-.3532-2.3038-.9755-2.9087C13.406,15.3509,12.4255,15,10.9963,15H4.31263l.21938-.6581L6.31263,9H4.00024V8zm7.00606,22c-1.10409,0-1.99995.8959-1.99995,2s.89586,2,1.99995,2c1.1042,0,2-.8959,2-2s-.8958-2-2-2zm-1,2c0-.5519.4482-1,1-1,.5519,0,1,.4481,1,1s-.4481,1-1,1c-.5518,0-1-.4481-1-1zM8.0062,17h-4.004v1h4.004v-1zm15.9999-6.9995v3h9v-3h-9z"/></svg>