<svg width="36" height="36" xmlns="http://www.w3.org/2000/svg"><path fill-rule="evenodd" clip-rule="evenodd" d="m11.25,6.25h-.3904l-.0947.37873L9.3207,12.4056,6.52639,13.8028l-.24143.1207-.03154.2681L4.90541,25.6497C4.80373,26.0817,4.75,26.5338,4.75,27c0,3.2071,2.54286,5.75,5.75,5.75,3.207,0,5.7515-2.5427,5.7515-5.75,0-.0322-.0003-.0644-.0008-.0965v-11.825c.5395-.2085,1.1291-.3225,1.7493-.3225.6204,0,1.2103.1141,1.75.3227l.0015,11.7881c-.001.0443-.0015.0887-.0015.1332,0,3.2071,2.5429,5.75,5.75,5.75,3.207,0,5.7515-2.5427,5.7515-5.75,0-.466-.0537-.9178-.1553-1.3496l-1.3481-11.4588-.0316-.2681-.2414-.1207-2.7943-1.3972-1.4442-5.77687L25.1419,6.25h-5.3903l-.0001.49986L19.75,11.9999l1,.0002.0014-4.7501h3.6097l1.4053,5.6213.0558.2231.2057.1028,2.7586,1.3793,1.0092,8.5788c-1.0486-1.1697-2.5773-1.8978-4.2957-1.8978-1.9863,0-3.7184.9728-4.7489,2.4758l-.001-8.1215c1.2171.8521,2.0014,2.2646,2.0014,3.8882h1c0-3.2081-2.5453-5.744-5.7515-5.744-3.2064,0-5.75,2.5361-5.75,5.744h1c0-1.6238.7839-3.0364,2.0007-3.8884v8.1229c-1.0308-1.5038-2.7639-2.477-4.7507-2.477-1.71809,0-3.24596.7278-4.29413,1.8969l1.00917-8.5779,2.75857-1.3793.20569-.1028.0558-.2231L11.6404,7.25H15.25v4.8055h1V6.25h-5zm9.5,20.7499h.0015v-.1214c.0628-2.5959,2.1334-4.621,4.7485-4.621,2.2502,0,4.0982,1.4993,4.6103,3.5713l.1411,1.1998c-.015,2.6411-2.1059,4.7214-4.7514,4.7214-2.6549,0-4.75-2.0951-4.75-4.75,0,0,0,0,0-.0001zM15.2507,27v-.0879c-.0457-2.6118-2.1241-4.6546-4.7507-4.6546-2.24983,0-4.09664,1.4989-4.60867,3.5705l-.14125,1.2006C5.76508,29.6699,7.85469,31.75,10.5,31.75c2.655,0,4.7515-2.0953,4.7515-4.75h-.0008zm8.4993.0015c0-.9802.77-1.7485,1.75-1.7485v-1c-1.531,0-2.75,1.2147-2.75,2.7485h1zm-16,.0015c0-1.5327,1.21492-2.75,2.7485-2.75v1c-.98042,0-1.7485.7687-1.7485,1.75h-1z"/></svg>