<svg width="48" height="48" viewBox="0,0,48,48" xmlns="http://www.w3.org/2000/svg"><path fill-rule="evenodd" clip-rule="evenodd" d="m14.5,4c-1.1935,0-2.3381.47411-3.182,1.31802S10,7.30653,10,8.5v7.7249c-.30421-.0928-.6175-.1603-.93684-.2009l.00001-.0001-.00626-.0007c-1.41441-.1617-2.83642.2313-3.96703,1.0964-1.13061.8652-1.88173,2.135-2.09542,3.5425s.1267,2.843.9496,4.0047c.74218,1.0477,1.82469,1.7991,3.05606,2.1311V33.5c0,.9282.36874,1.8185,1.02512,2.4749C8.68162,36.6312,9.57186,37,10.5001,37H11v4c0,.5304.2107,1.0391.5858,1.4142S12.4696,43,13,43h1c.5304,0,1.0391-.2107,1.4142-.5858S16,41.5304,16,41v-4h17v4c0,.5304.2107,1.0391.5858,1.4142S34.4696,43,35,43h1c.5304,0,1.0391-.2107,1.4142-.5858S38,41.5304,38,41v-4.0359c.7434-.1073,1.4376-.4518,1.975-.9892.6564-.6564,1.0251-1.5467,1.0251-2.4749v-6.7021c1.2314-.332,2.3139-1.0834,3.0561-2.1311.8229-1.1617,1.1633-2.5972.9496-4.0047s-.9648-2.6773-2.0954-3.5425c-1.1307-.8651-2.5527-1.2581-3.9671-1.0964l-.0053.0007c-.3197.04-.6334.107-.938.1993V8.5c0-1.19347-.4741-2.33807-1.318-3.18198S34.6935,4,33.5,4h-19zM37,16.6346V8.5c0-.92826-.3687-1.8185-1.0251-2.47487C35.3185,5.36875,34.4283,5,33.5,5h-19c-.9283,0-1.8185.36875-2.4749,1.02513C11.3688,6.6815,11,7.57174,11,8.5v8.1385c.6096.3236,1.1599.7589,1.6196,1.2891.9108,1.0505,1.4023,2.4,1.3805,3.7903H14V26h20v-4.2824l-.0098.0001c-.0216-1.3919.4714-2.7428,1.3845-3.7935.4614-.531,1.0136-.9664,1.6253-1.2896zM34.4899,21.71H35v5.79c0,.9283-.3687,1.8185-1.0251,2.4749C33.3185,30.6312,32.4283,31,31.5,31h-15c-.9283,0-1.8185-.3688-2.4749-1.0251C13.3688,29.3185,13,28.4282,13,27.5v-5.79h.5004l-.5002-.0079c.018-1.1442-.3865-2.2548-1.1362-3.1194-.7489-.8638-1.7898-1.4214-2.92381-1.5663-1.15621-.1314-2.31841.1902-3.24263.8974-.92504.7078-1.53959,1.7468-1.71443,2.8984-.17483,1.1516.10367,2.3261.77694,3.2766.67328.9504,1.68888,1.6028,2.83325,1.82l.4068.0771V33.5c0,.663.26339,1.2989.73223,1.7678.46884.4688,1.10472.7322,1.76775.7322h27c.6631,0,1.2989-.2634,1.7678-.7322.4688-.4689.7322-1.1048.7322-1.7678v-7.5141l.4068-.0771c1.1444-.2172,2.16-.8696,2.8333-1.82.6732-.9505.9517-2.125.7769-3.2766s-.7894-2.1906-1.7144-2.8984c-.9244-.7073-2.0868-1.0289-3.2431-.8973-1.1359.1427-2.1791.6995-2.93,1.5636-.7515.8648-1.1573,1.9766-1.1395,3.1221l-.5002.0078zM37,37h-3v4c0,.2652.1054.5196.2929.7071S34.7348,42,35,42h1c.2652,0,.5196-.1054.7071-.2929S37,41.2652,37,41v-4zm-22,0h-3v4c0,.2652.1054.5196.2929.7071S12.7348,42,13,42h1c.2652,0,.5196-.1054.7071-.2929S15,41.2652,15,41v-4zm3-28v1h-1v1h1v1h1v-1h1v-1h-1V9h-1zM8.5,20c-.82843,0-1.5.6716-1.5,1.5S7.67157,23,8.5,23s1.5-.6716,1.5-1.5S9.32843,20,8.5,20zM6,21.5C6,20.1193,7.11929,19,8.5,19s2.5,1.1193,2.5,2.5S9.88071,24,8.5,24,6,22.8807,6,21.5zm32,0c0-.8284.6716-1.5,1.5-1.5s1.5.6716,1.5,1.5-.6716,1.5-1.5,1.5-1.5-.6716-1.5-1.5zm1.5-2.5c-1.3807,0-2.5,1.1193-2.5,2.5s1.1193,2.5,2.5,2.5,2.5-1.1193,2.5-2.5S40.8807,19,39.5,19zM34,27H14v.5c0,.663.2634,1.2989.7322,1.7678C15.2011,29.7366,15.837,30,16.5,30h15c.663,0,1.2989-.2634,1.7678-.7322C33.7366,28.7989,34,28.163,34,27.5V27zm-16-8v1h-1v1h1v1h1v-1h1v-1h-1v-1h-1zM29,9v1h-1v1h1v1h1v-1h1v-1h-1V9h-1zm0,10v1h-1v1h1v1h1v-1h1v-1h-1v-1h-1z"/></svg>