<svg width="48" height="48" viewBox="0,0,48,48" xmlns="http://www.w3.org/2000/svg"><path fill-rule="evenodd" clip-rule="evenodd" d="m2.64648,2.35359L11,10.7071v.7129c0,.0479.0024.0951.0071.1416l.0024.0433c.0058.1029.0146.2539.0262.4468.0233.3856.0582.9386.1048,1.609.0931,1.3402.2332,3.1511.4208,5.0315.1873,1.8785.4228,3.8344.7076,5.4618.1424.8133.2985,1.553.4694,2.1639.1667.5956.3608,1.1198.5997,1.4653.8716,1.2682,1.7678,2.3237,2.662,3.1995v3.2031l-8.31684,4.0037-.01215.0059-.01183.0065c-1.10666.6083-2.0299,1.5023-2.67349,2.5888-.64359,1.0866-.98397,2.3258-.98565,3.5887V46h1v-1.6196c.0015-1.0839.29366-2.1475.84604-3.08.55018-.9289,1.33845-1.6938,2.28323-2.2158l8.07309-3.8864c.584,1.6048,1.6226,3.0102,2.9948,4.0408,1.3957,1.0483,3.0675,1.6571,4.8028,1.7555V46h1v-5.0055c1.7353-.0984,3.4072-.7072,4.8029-1.7555,1.3721-1.0306,2.4107-2.4359,2.9947-4.0406l5.1989,2.5052,5.9686,5.9686c.0266.2326.0384.4667.0352.701h-.0001V46h1v-1.2927l.6463.6463.7071-.7071L3.35359,1.64648l-.70711.70711zM32,34.4278v-2.5447c-2.0648,1.8576-4.7066,2.9608-7.4921,3.1162L24.494,35h-.014c-1.7125,0-4.5303-.6336-7.48-3.1093v2.5371c.4802,1.601,1.4603,3.0071,2.7977,4.0116,1.3561,1.0186,3.0063,1.5692,4.7023,1.5692,1.6961,0,3.3462-.5506,4.7023-1.5692,1.3375-1.0045,2.3176-2.4106,2.7977-4.0116zm1-.2418v-1.4789l2.8541,2.8541L33,34.186zM14.4749,14.1821c-.9478-.3165-1.7702-.6846-2.3716-1.1012.0107.1611.0223.3315.0348.5104.0927,1.3341.232,3.1344.4182,5.0016.1864,1.8689.419,3.7968.6977,5.3888.1393.7964.2888,1.5003.4473,2.0668.1626.581.3216.9674.4598,1.1668l.001.0015c3.902,5.6775,8.2203,6.7784,10.3041,6.7832,2.5764-.1469,5.0181-1.177,6.9182-2.9085l-2.9012-2.9012c-1.2513.5506-2.6073.8274-3.977.8099-2.0101.0752-3.982-.5649-5.5648-1.8068l.6173-.7867c1.3997,1.0982,3.1441,1.663,4.9219,1.5937l.0132-.0005.0133.0002c1.0994.0156,2.1892-.1806,3.2106-.5753l-6.0207-6.0207c-.1607.2128-.3756.3793-.6229.4818-.2741.1135-.5757.1432-.8667.0853s-.5582-.2007-.768-.4105-.3527-.4771-.4105-.768c-.0579-.291-.0282-.5926.0853-.8667.1025-.2473.269-.4622.4818-.6229l-5.1211-5.121zm5.7474,5.9022c.0321-.0215.0665-.0391.1024-.0525l.6436.6436c-.0134.0359-.031.0702-.0525.1024-.055.0822-.1331.1463-.2244.1842-.0914.0378-.1919.0477-.2889.0284s-.1861-.0669-.256-.1368-.1176-.159-.1369-.256c-.0192-.097-.0093-.1975.0285-.2889s.1019-.1695.1842-.2244zm15.4097,7.6989c.2373-.345.431-.8691.598-1.4652.171-.6106.3278-1.3501.4713-2.1633.2872-1.6272.5268-3.5829.7185-5.4614.1919-1.8802.3367-3.6911.4335-5.0313.0484-.6703.0848-1.2233.1091-1.6089.0122-.1929.0214-.3439.0275-.4468l.0019-.0335c.0055-.0501.0084-.1011.0084-.1528V4.35004H38c0-.38135-.2674-.63647-.4786-.78334-.2298-.15979-.5365-.2939-.8835-.41066-.7007-.23574-1.6876-.44019-2.875-.60916-2.3824-.33903-5.657-.54684-9.2629-.54684-3.6058,0-6.8805.20781-9.2628.54684-1.1874.16897-2.1743.37342-2.875.60916-.347.11676-.6537.25087-.8835.41066-.2112.14687-.4787.40199-.4787.78334v3.15h1V5.40882c.1142.04766.2355.09259.3622.13522.7007.23574,1.6876.44018,2.875.60916,2.3823.33902,5.657.54684,9.2628.54684,3.6059,0,6.8805-.20782,9.2629-.54684,1.1874-.16898,2.1743-.37342,2.875-.60916.1267-.04264.2481-.0876.3623-.13528v5.99194l-.0001.001-.0017.0295-.0028.0486c-.0144.0947-.065.2138-.1879.36-.1523.1814-.3956.379-.74.583-.6887.408-1.6954.7916-2.9209,1.1206-2.4443.6561-5.65,1.0666-8.646,1.0666-1.9365-.0041-3.8696-.1592-5.782-.4637l-.1573.9875c1.9638.3128,3.9491.472,5.9376.4762h.0011c2.4083,0,4.9519-.2575,7.161-.6967-.382.5942-1.0198,1.12-1.907,1.5382-1.2707.599-3.0006.9485-5.0343.9485h-.0011c-1.0124.0022-2.0228-.0887-3.0185-.2717l-.1808.9835c1.0559.1941,2.1274.2905,3.2009.2882,2.1362,0,4.021-.3655,5.4602-1.0439,1.3255-.6249,2.318-1.5401,2.7173-2.7165.1725-.0423.3419-.0858.5082-.1304,1.2657-.3398,2.3709-.7518,3.1713-1.226.1091-.0647.2142-.1314.3144-.2004-.0111.1601-.0231.3295-.0359.5072-.0964,1.3341-.2403,3.1345-.4309,5.0018-.1908,1.8689-.4275,3.797-.7084,5.3892-.1406.7965-.2908,1.5006-.4496,2.0674-.1627.5812-.3214.9682-.459,1.1682l-.0002.0003c-.4894.7122-1.0214,1.3943-1.5929,2.0425l.75.6613c.5981-.6783,1.1548-1.3921,1.6671-2.1375zM28.5,19c-.2966,0-.5866.088-.8333.2528-.2467.1649-.4389.3991-.5525.6732-.1135.2741-.1432.5757-.0853.8667.0578.2909.2007.5582.4105.768s.477.3526.768.4105.5926.0282.8667-.0853c.2741-.1136.5083-.3058.6731-.5525.1649-.2467.2528-.5367.2528-.8334,0-.3978-.158-.7793-.4393-1.0606S28.8979,19,28.5,19zm-.2777,1.0843c.0822-.0549.1788-.0843.2777-.0843.1326,0,.2598.0527.3536.1465S29,20.3674,29,20.5c0,.0989-.0293.1956-.0842.2778-.055.0822-.1331.1463-.2244.1842-.0914.0378-.1919.0477-.2889.0284s-.1861-.0669-.256-.1368-.1176-.159-.1369-.256c-.0192-.097-.0093-.1975.0285-.2889s.1019-.1695.1842-.2244zM12.6811,4.10383c-.2641.08886-.4512.17314-.573.24621.1218.07306.3089.15734.573.2462.615.20693,1.5319.40112,2.697.56693,2.3227.33055,5.5481.53687,9.1219.53687,3.5739,0,6.7992-.20632,9.122-.53687,1.1651-.16581,2.082-.36,2.697-.56693.2641-.08886.4512-.17314.5729-.24621-.1217-.07306-.3088-.15734-.5729-.2462-.615-.20692-1.5319-.40112-2.697-.56693-2.3228-.33054-5.5481-.53686-9.122-.53686-3.5738,0-6.7992.20632-9.1219.53686-1.1651.16581-2.082.36001-2.697.56693zm24.3421.14882c.002-.00316.0034-.00472.0035-.00471.0002.00001-.0008.00159-.0035.00471zm-25.0463,0c-.0027-.00312-.0037-.0047-.0036-.00471.0002-.00001.0016.00155.0036.00471zm11.5232,3.74739-1.99,1.88h2.37v-1.88h1.24v1.88h2.37l-1.99-1.88h1.49l2.49,2.49996-2.49,2.5h-1.49l1.99-1.87h-2.37V13h-1.24v-1.87h-2.37l1.99,1.87h-1.49l-2.49-2.5,2.49-2.49996h1.49zM31.5,42H31v4h8v-4h-7.5zm.5,3v-2h6v2h-6z"/></svg>