<svg width="36" height="36" viewBox="0,0,36,36" xmlns="http://www.w3.org/2000/svg"><path fill-rule="evenodd" clip-rule="evenodd" d="m11.9999,7.25c-.9665,0-1.75.7835-1.75,1.75s.7835,1.75,1.75,1.75,1.75-.7835,1.75-1.75-.7835-1.75-1.75-1.75zM9.24993,9c0-1.51878,1.23117-2.75,2.74997-2.75s2.75,1.23122,2.75,2.75c0,1.5188-1.2312,2.75-2.75,2.75S9.24993,10.5188,9.24993,9zM12.28,27.9209l-5.99997-16.5.93979-.3418L13.1001,27.25h10.8998v1H12.3997l-.1197-.3291zM11.5649,13.75h-.7095l.2386.6682L14.9625,25.25h9.7966l3.7307,7.2878.8901-.4556-3.87-7.56-.1393-.2722h-9.7034l-3.3928-9.5h1.9437l2.1285,5.6902.1215.3248h6.0018v-1h-5.3082l-2.1285-5.6902-.1215-.3248h-3.3468z"/></svg>