<svg width="48" height="48" viewBox="0,0,48,48" xmlns="http://www.w3.org/2000/svg"><path fill-rule="evenodd" clip-rule="evenodd" d="m37.1983,7.54103c-.8524-.3684-1.773-.55275-2.7016-.54102-1.7227.00087-3.3747.68559-4.5929,1.9038C28.6861,10.1215,28.0015,11.7725,28,13.4943c-.0178.8167.1224,1.628.4118,2.3897L15.007,29.4529c-1.1276-.4638-2.3655-.6021-3.572-.3951-1.3248.2273-2.54654.8598-3.49701,1.8102-.95047.9505-1.58289,2.1723-1.8102,3.4971-.2273,1.3248-.03829,2.6875.541,3.9004l.3128.655.5005-.5257L10.7143,35H13v2.2873l-3.34683,3.2225-.51973.5005.65105.3109c1.21291.5793,2.57561.7683,3.90041.541s2.5466-.8597,3.4971-1.8102c.9504-.9505,1.5828-2.1722,1.8101-3.497.2072-1.2073.0686-2.4459-.3959-3.5741l13.5134-13.5134c.7852.3272,1.6289.4951,2.4819.4925h.0037c1.0795-.0112,2.1393-.2912,3.0835-.8146.9443-.5234,1.7433-1.2737,2.325-2.1832.5816-.9096.9275-1.9497,1.0065-3.0264s-.1115-2.1561-.5542-3.1408l-.277-.6161-.5083.4448L35.8121,14H34v-1.8121l3.3763-3.85864.4516-.51615-.6296-.27208zm-2.6918.45893c.5543-.00728,1.1053.06779,1.6352.22166l-3.018,3.44918L33,11.8121V15h3.1878l.1414-.1237,3.4576-3.0254c.1986.6489.276,1.331.2261,2.0118-.0669.911-.3596,1.7911-.8517,2.5607-.4922.7696-1.1683,1.4045-1.9672,1.8474-.7985.4426-1.6945.6794-2.6074.6892-.8203.0023-1.6304-.1824-2.3687-.54l-.32-.155L17.3964,32.7665l.1524.319c.4902,1.0263.6501,2.1794.4578,3.3004-.1924,1.1209-.7275,2.1547-1.5318,2.959-.8042.8042-1.838,1.3394-2.959,1.5317-.8759.1503-1.7715.0855-2.6108-.1839l2.9418-2.8325L14,37.7127V34h-3.7144l-.1477.1552-2.84213,2.9851c-.26811-.838-.33238-1.7318-.18238-2.6061.19233-1.121.72747-2.1548,1.53171-2.9591.80424-.8042,1.838-1.3393,2.959-1.5317,1.121-.1923,2.2741-.0324,3.3004.4578l.3211.1533.2501-.2531,13.88-14.05.2395-.2425-.1382-.3116c-.3189-.719-.475-1.4996-.4572-2.286H29V13.5c0-1.4587.5794-2.8576,1.6109-3.88908,1.0314-1.03145,2.4304-1.61091,3.8891-1.61091v.00004l.0065-.00009zM21.0235,27.6836l5.66-5.66-.7071-.7072-5.66,5.66.7071.7072z"/></svg>