<svg width="48" height="48" viewBox="0,0,48,48" xmlns="http://www.w3.org/2000/svg"><path fill-rule="evenodd" clip-rule="evenodd" d="m3.07007,13.5c0-1.3807,1.11929-2.5,2.5-2.5H42.5701c1.3807,0,2.5,1.1193,2.5,2.5v22c0,1.3807-1.1193,2.5-2.5,2.5H5.57007c-1.38071,0-2.5-1.1193-2.5-2.5v-22zm2.5-3.5c-1.933,0-3.5,1.567-3.5,3.5v22c0,1.933,1.567,3.5,3.5,3.5H42.5701c1.933,0,3.5-1.567,3.5-3.5v-22c0-1.933-1.567-3.5-3.5-3.5H5.57007zm.5,5.5c0-.8284.67157-1.5,1.5-1.5H24.5701c.8284,0,1.5.6716,1.5,1.5v18c0,.6579-.4236,1.217-1.013,1.4192-.1774-3.9774-2.1677-7.9364-5.6246-9.5957.7117-.8918,1.1376-2.0632,1.1376-3.3235,0-2.7044-1.961-5-4.5-5-2.5391,0-4.5,2.2956-4.5,5,0,1.2601.4257,2.4314,1.1372,3.3231-3.46473,1.6608-5.44689,5.6351-5.6242,9.5961-.5894-.2022-1.01303-.7612-1.01303-1.4192v-18zM18.676,26.0795c3.2349,1.3612,5.2251,5.0531,5.3838,8.9205H8.08038c.15869-3.8522,2.14152-7.5593,5.38352-8.9207.729.5775,1.6244.9207,2.6062.9207.9817,0,1.877-.3432,2.6059-.9205zM7.57007,13c-1.38071,0-2.5,1.1193-2.5,2.5v18c0,1.3807,1.11929,2.5,2.5,2.5H24.5701c1.3807,0,2.5-1.1193,2.5-2.5v-18c0-1.3807-1.1193-2.5-2.5-2.5H7.57007zm29.50003,0h3v2h2v3h-2v2h-3v-2h-2v-3h2v-2zm1,1v2h-2v1h2v2h1v-2h2v-1h-2v-2h-1zm-9,10h11v1h-11v-1zm0,3h10v1h-10v-1zm8,3h-8v1h8v-1zm-21-12c-1.8793,0-3.5,1.7339-3.5,4s1.6207,4,3.5,4c1.8792,0,3.5-1.7339,3.5-4s-1.6208-4-3.5-4z"/></svg>