<svg width="48" height="48" viewBox="0,0,48,48" xmlns="http://www.w3.org/2000/svg"><path fill-rule="evenodd" clip-rule="evenodd" d="m17.3885,17.0956-1.2975-1.2975-2.0761,2.2042-.0003.0003c-.1117.119-.1815.2713-.1988.4336-.0173.1625.0189.3261.1031.4661l.012.0201.0102.0211,1.5015,3.1253c.3862-.1708.7804-.3218,1.1811-.4525l-.5761-2.0676c-.0902-.2145-.1173-.4508-.0776-.6808.0422-.2443.1579-.47.3316-.6469l1.0869-1.1254zM2.64648,2.35359,15.3835,15.0906l-2.0971,2.2266-.0005.0005c-.2609.2779-.424.6334-.4645,1.0124-.0395.3707.0404.744.2276,1.0658l1.496,3.1138c-.3379.1831-.6682.3822-.9896.597-2.0556,1.3735-3.65776,3.3257-4.60385,5.6098-.9461,2.2841-1.19364,4.7974-.71132,7.2222.48231,2.4247,1.67282,4.652,3.42097,6.4002,1.7482,1.7481,3.9755,2.9386,6.4002,3.421,2.4248.4823,4.9381.2347,7.2222-.7114s4.2363-2.5482,5.6098-4.6038S33,35.9723,33,33.5v-.0001c-.0001-.2735-.009-.5468-.0266-.8194l2.066,2.066L36,39.5495V43h7.2929l2.3536,2.3536.7071-.7071L3.35359,1.64648l-.70711.70711zM17.586,21.3444c.1375-.0329.2755-.0635.414-.0918v-3.3507l-.9807,1.0155-.0037.0038c-.0316.0319-.0526.0728-.0602.117-.0076.0443-.0016.0898.0174.1305l.0174.0374.0111.0397.5847,2.0986zm1.414-.254v-2.3833l2.3196,2.3196c-.2726-.0177-.5459-.0266-.8194-.0267H20.5c-.5031,0-1.004.0304-1.5.0904zM42.2929,42l-2-2h-1.0637l-.0873-.391-.2183-.9783-2.6094-2.6094.6761,3.3807.0097.0485V42h5.2929zM20.5,22c.6562.0003,1.3112.0555,1.958.1651l1.3794,1.3794c-.7397-.2479-1.5059-.4131-2.2845-.4916L20.5,22zm1.0527,1.0529L20.4999,22c-2.2745.0001-4.4978.6745-6.3889,1.9381-1.8912,1.2637-3.3652,3.0597-4.23557,5.1611-.87041,2.1013-1.09815,4.4136-.65442,6.6444s1.53899,4.2799,3.14729,5.8882,3.6574,2.7035,5.8882,3.1473c2.2308.4437,4.5431.216,6.6444-.6544,2.1014-.8705,3.8974-2.3444,5.161-4.2356C31.3255,37.998,32,35.7746,32,33.5002l-1.0528-1.0528c.0721.7159.071,1.4423-.0066,2.168-.2821,2.6409-1.5545,5.0767-3.5609,6.8169-2.0065,1.7402-4.5978,2.6553-7.2521,2.5611-2.6542-.0942-5.1742-1.1907-7.0522-3.0687-1.878-1.8781-2.9746-4.398-3.0688-7.0523-.09415-2.6542.821-5.2456,2.5612-7.252,1.7401-2.0064,4.176-3.2788,6.8169-3.561.7257-.0775,1.4521-.0786,2.168-.0065zm8.1705,8.1705c.2628,1.0647.3416,2.1761.2231,3.2857-.0222.2078-.0512.4141-.0867.6187l-8.2363-1.8838,5.6314-4.4891,2.4685,2.4685zm0-.0002-2.4684-2.4684.9751-.7774c.704.9853,1.2074,2.0879,1.4933,3.2458zm-3.18-3.18.9976-.7953-1.3689-1.3689c-1.0226-.7611-2.1783-1.3017-3.395-1.6021l3.7663,3.7663zM21,32.462l5.5431-4.4187-3.7664-3.7664c-.581-.1434-1.1758-.2321-1.7767-.2637v8.4488zm.4014,1.7571,3.6661,7.6109c.5875-.3221,1.1434-.7078,1.657-1.1532,1.4032-1.2169,2.4096-2.81,2.9121-4.5742l-8.2352-1.8835zM20.5001,34.6524l3.6664,7.6116c-1.2553.5252-2.6199.7792-4.0034.7301-1.1549-.041-2.2818-.2918-3.3294-.7301l3.6664-7.6116zm-.9012-.4333-8.2354,1.8835c.4396,1.5433,1.2667,2.9627,2.419,4.1149.6421.6421,1.3671,1.1832,2.1502,1.6126l3.6662-7.611zm-8.5929-.3821c.0155.4352.0607.8663.1345,1.2908l8.2357-1.8836-6.6078-5.2643c-1.2123,1.6978-1.837,3.7556-1.7624,5.8571zm2.3855-6.6392L20,32.4627v-8.4495c-.1696.0089-.3393.0225-.5091.0406-2.355.2516-4.5299,1.3736-6.0994,3.144zm17.5557,5.2493L32,33.5c-.0002-.6562-.0554-1.3111-.165-1.9579l-1.3795-1.3794c.248.7396.4132,1.5059.4917,2.2844zM20,6.00004c0-1.65686,1.3432-3,3-3,1.6569,0,3,1.34314,3,3,0,1.65685-1.3431,3-3,3-1.6568,0-3-1.34315-3-3zm3-4c-2.2091,0-4,1.79086-4,4S20.7909,10,23,10c2.2092,0,4-1.79082,4-3.99996s-1.7908-4-4-4zM35.8715,26.3167c-.2735-.2133-.6125-.3253-.9592-.3168l-.0123.0003V26h-5.4v-1h5.3943c.5756-.0126,1.1381.174,1.5922.5282.4558.3555.7743.858.9013,1.422l.0002.0006,1.67,7.46-.9759.2185-1.6698-7.4594-.0001-.0004c-.0763-.3382-.2673-.6396-.5407-.8528zM25.3403,12h-6.4492c-.1906-.0005-.3793.0376-.5548.112-.1758.0746-.3346.1841-.4668.3219l-.0047.005-.7.75.731.6823.6972-.747c.0381-.0391.0836-.0703.1338-.0916.0512-.0217.1062-.0328.1617-.0326h6.4518c.4403,0,.8625.1749,1.1738.4862.3113.3114.4862.7336.4862,1.1738v8.84h1v-8.84c0-.7054-.2802-1.382-.7791-1.8809C26.7224,12.2803,26.0458,12,25.3403,12z"/></svg>