<svg width="48" height="48" viewBox="0,0,48,48" xmlns="http://www.w3.org/2000/svg"><path fill-rule="evenodd" clip-rule="evenodd" d="m23,3c-1.6569,0-3,1.34315-3,3s1.3431,3,3,3,3-1.34315,3-3-1.3431-3-3-3zm-4,3c0-2.20914,1.7909-4,4-4s4,1.79086,4,4-1.7909,4-4,4-4-1.79086-4-4zm1.5,16C14.1487,22,9,27.1487,9,33.5S14.1487,45,20.5,45,32,39.8513,32,33.5,26.8513,22,20.5,22zm-4.763-.0605c.3958-.1633.8018-.3068,1.2168-.4293l-.9069-1.9589-.0003-.0007c-.105-.2254-.1385-.4776-.0962-.7227.0423-.2445.1581-.4702.3319-.6472l2.6778-2.766v5.6792C19.4647,21.0319,19.9786,21,20.5,21c2.3807,0,4.606.6655,6.4999,1.8207V14.66c0-.4403-.1749-.8625-.4862-1.1738S25.7801,13,25.3399,13H18.888c-.0555-.0002-.1105.0109-.1616.0326-.0504.0214-.0961.0526-.1342.092l.0022-.0024-.3645-.3422.3608.3461.0015-.0015-4.5778,4.8776-.0001.0001c-.1118.1191-.1817.2714-.199.4339-.0174.1624.0188.3261.103.4661l.0005.0008,1.8182,3.0364zm2.2231-.6813-.0191.004-.9872-2.1323-.0006-.0012c-.0189-.0407-.025-.0862-.0174-.1305.0077-.0442.0287-.0851.0602-.117l.0033-.0034.9608-.9925v3.3729zm-3.1367,1.1021C10.7732,24.4283,8,28.6403,8,33.5,8,40.4036,13.5964,46,20.5,46S33,40.4036,33,33.5c0-1.2149-.1733-2.3894-.4966-3.5h1.5865l1.9099,9.5495V43h7v-.5H43v-1c0-.0776.0006-.1577.0012-.2386v-.0003c.0013-.1877.0027-.3797-.003-.554-.0083-.2522-.0317-.5215-.1082-.7678-.0792-.2552-.2228-.5093-.4833-.6913-.2554-.1786-.5666-.248-.9065-.248h-1.4679l-2.6437-12.0472-.0006-.0026c-.127-.564-.4456-1.0665-.9014-1.4221-.4541-.3542-1.0165-.5407-1.5922-.5281h-5.2292c-.5088-.5484-1.0662-1.051-1.6653-1.501V14.66c0-.7055-.2803-1.3821-.7791-1.8809C26.7219,12.2802,26.0453,12,25.3399,12h-6.45v.5l.0018-.5h-.001c-.1906-.0006-.3794.0375-.5548.112-.1758.0745-.3346.1841-.4668.3218h-.0001l-.0037.004-4.5799,4.8799.3645.3423-.3646-.3422c-.2609.2779-.424.6333-.4644,1.0123-.0404.3789.0439.7605.2402,1.0871l-.0002-.0003.429-.2569-.4285.2577,1.762,2.9426zM42,42v-.5c0-.0953.0007-.185.0013-.2705v-.0007c.0013-.1765.0024-.3352-.0026-.489-.0074-.226-.0277-.3879-.0637-.5041-.0333-.1073-.0709-.147-.1011-.1681-.0351-.0245-.1238-.0676-.3337-.0676H39.228l-.0862-.3928-2.7294-12.4373-.0003-.0013c-.0764-.3379-.2674-.6389-.5405-.8519-.2735-.2134-.6125-.3253-.9592-.3168l-.0122.0003V26h-4.3993c.6846.9114,1.2475,1.9195,1.6646,3h2.7442l.0804.4019,2,10,.0097.0486V42H42zM13.3916,27.1975c1.6371-1.8451,3.9816-3.0484,6.6084-3.1846v8.4494l-6.6084-5.2648zm-.6237.7817C11.655,29.5352,11,31.4411,11,33.5c0,.5551.0476,1.0991.139,1.6281l8.2375-1.884-6.6086-5.2649zm3.164,13.8524c-2.2006-1.2091-3.8704-3.2648-4.5708-5.7285l8.2377-1.8841-3.6669,7.6126zm.9007.4346C17.961,42.7389,19.2,43,20.5,43s2.5391-.2611,3.6676-.7338l-3.6675-7.6139-3.6675,7.6139zM29.6389,36.1031c-.7004,2.4637-2.3701,4.5193-4.5707,5.7285l-3.6669-7.6125,8.2376,1.884zm.2221-.975c.0914-.529.139-1.073.139-1.6281,0-2.0589-.655-3.9648-1.7679-5.5207l-6.6084,5.2648,8.2373,1.884zM21,24.0129c2.6268.1362,4.9714,1.3395,6.6085,3.1846L21,32.4624v-8.4495zM20.5,23C14.701,23,10,27.701,10,33.5S14.701,44,20.5,44,31,39.299,31,33.5,26.299,23,20.5,23z"/></svg>