<svg width="48" height="48" xmlns="http://www.w3.org/2000/svg"><path fill-rule="evenodd" clip-rule="evenodd" d="m9.5,5H9v3h2v9.619h1V8h30v33H12v-3.428c1.1928-.4866,2.1872-1.3584,2.8294-2.4603.5053.3705,1.1292.5901,1.8041.5901,1.6869,0,3.055-1.3666,3.055-3.054,0-.1942-.0182-.384-.053-.5681,1.3093-.8444,2.179-2.3161,2.179-3.9929,0-2.6222-2.1259-4.748-4.748-4.748-.3846,0-.758.0461-1.1156.1325-.1886-2.7367-2.4678-4.8985-5.2534-4.8985-2.90815,0-5.26601,2.3578-5.26601,5.266,0,1.3147.48248,2.5172,1.27924,3.4396-1.62831,1.0277-2.71024,2.8433-2.71024,4.9124,0,3.208,2.59973,5.809,5.808,5.809.40841,0,.80701-.0422,1.19151-.1224V41H4v1h40v-1h-1V8h2V5H9.5zM12,36.4723v-4.2362l3.7736-2.8236-.5991-.8006L12,30.9872v-3.558h-1v5.7944l-1.00729-1.0073-.7071.7071L11,34.6378v2.2131c-.381.0972-.7803.1489-1.19151.1489-2.65574,0-4.808-2.1531-4.808-4.809,0-1.9151,1.11954-3.5693,2.74279-4.3415l.6804-.3237-.56261-.5012c-.87805-.7822-1.42958-1.9193-1.42958-3.1856,0-2.3559,1.91014-4.266,4.26601-4.266,2.3568,0,4.266,1.91,4.266,4.266,0,.0945-.0035.1893-.0099.2847l-.0533.7998.7417-.3039c.4399-.1801.9196-.2806,1.4245-.2806,2.0698,0,3.748,1.6781,3.748,3.748,0,1.4345-.8062,2.6807-1.9919,3.3115l-.3736.1988.1343.4013c.0682.2036.1052.4211.1052.6494,0,1.1346-.9199,2.054-2.055,2.054-.6285,0-1.1911-.2823-1.5694-.7291l-.5207-.6151-.3199.7397c-.4438,1.0266-1.2343,1.8673-2.2235,2.375zM10,7V6h34v1H10zm22,24h7.0015L39,31.5015l-.018,6L38.9805,38H32v-7zm1,1v5h4.9835l.015-5H33zm-.5-11H32v7h6.9805l.0015-.4985.018-6L39.0015,21H32.5zm.5,6v-5h4.9985l-.015,5H33zm-5.003-5H17v-1h12.003l-.003.503-.036,6-.003.497h-5.97v-1h4.976l.03-5zM21.95,32h6.047l-.03,5H15v1h13.961l.003-.497.036-6,.003-.503H21.95v1zM32.5,11H32v7h6.9805l.0015-.4985.018-6L39.0015,11H32.5zm.5,6v-5h4.9985l-.015,5H33zm-18-6h14.003l-.003.503-.036,6-.003.497H15v-7zm1,1v5h11.967l.03-5H16z"/></svg>