<svg width="36" height="36" xmlns="http://www.w3.org/2000/svg"><path fill-rule="evenodd" clip-rule="evenodd" d="m3.25018,6.75049c0-1.93381,1.56802-3.5,3.5-3.5,1.1889,0,2.23998.5931,2.87263,1.5h7.83439l.1464.14644,1.476,1.47601.3534.35337-.3532.35356-1.5225,1.524-.1465.14662H9.62234c-.63267.90658-1.68347,1.50001-2.87216,1.50001-1.93214,0-3.5-1.56787-3.5-3.50001zm7.00002,0c0-.34753-.0507-.68318-.1449-1h6.9377l.9761.97617-1.0228,1.02383h-6.8912c.0944-.31689.1451-.65256.1451-1zm-3.50002-2.5c-1.38002,0-2.5,1.1188-2.5,2.5,0,1.37986,1.12015,2.5,2.5,2.5,1.37986,0,2.5-1.12014,2.5-2.5,0-1.3812-1.11998-2.5-2.5-2.5zM3.75,12.2509h-.5v20.5h29.5v-20.5h-29zm.5,19.5v-18.5h27.5v18.5H4.25zm3.50018-11.4997c0-1.1059.89619-2,2-2H26.2502c1.1038,0,2,.8941,2,2v6c0,1.1042-.8959,2-2,2H9.75018c-1.10414,0-2-.8958-2-2v-6zm2-1c-.55218,0-1,.447-1,1v6c0,.5519.44815,1,1,1H26.2502c.5518,0,1-.4481,1-1v-6c0-.553-.4478-1-1-1H9.75018zm5.25002-1.5h6v-1h-6v1z"/></svg>