<svg width="20" height="16" xmlns="http://www.w3.org/2000/svg"><path fill-rule="evenodd" clip-rule="evenodd" d="m19.4221,1.0376h-2.921l-2.941,13.962h2.92l2.942-13.962zM6.9418,6.67872h-1.101l.74-3.441h.981c1.06,0,2.34.06,2.34,1.4,0,1.641-1.54,2.041-2.96,2.041zm-1.421,6.12098h-.96l.84-4.03998h.9c1.5,0,2.861.219,2.861,1.67998,0,2.16-1.921,2.36-3.641,2.36zM8.4818,1.03772h-4.141L1.4198,14.9997h3.981c2.081,0,6.562-.32,6.562-4.32,0-1.50098-.681-2.70098-2.241-2.94098v-.04c1.62-.26,2.981-1.62,2.981-3.32,0-2.541-2.041-3.341-4.221-3.341z"/></svg>