<svg width="27" height="16" xmlns="http://www.w3.org/2000/svg"><path fill-rule="evenodd" clip-rule="evenodd" d="m22.9427,2.9983c1.019,0,2.08.3,2.9.72l.66-2.301c-1.14-.459998-2.4-.619998-3.621-.619998-2.681,0-5.201,1.279998-5.201,4.220998,0,2.04121,1.433,2.84231,2.7268,3.56561,1.0648.59523,2.0352,1.13777,2.0352,2.27539,0,1.5-1.321,2.181-2.662,2.181-1.2,0-2.34-.46-3.42-.96l-.72,2.38c1.26.46,2.64.78,3.98.78,3.061,0,5.742-1.24,5.742-4.661,0-2.20525-1.5371-3.11192-2.8646-3.89488-1.0087-.59496-1.8964-1.11849-1.8964-2.08612,0-1.2,1.34-1.6,2.341-1.6zM6.20087,12.7998h-1.3l2-9.56202h.96c2.52103,0,4.22203,1.181,4.22203,3.361,0,3.84102-1.841,6.20102-5.88203,6.20102zm2.561-11.76202h-4.201l-2.941,13.96202h4.701c7.04203,0,8.68303-4.761,8.68303-8.00102,0-4.841-3.322-5.961-6.24203-5.961z"/></svg>