<svg width="26" height="16" xmlns="http://www.w3.org/2000/svg"><path fill-rule="evenodd" clip-rule="evenodd" d="m6.8213,7.49799h-1l.9-4.261h.88c1.2,0,2.341.3,2.341,1.721,0,1.74-1.581,2.54-3.121,2.54zM1.4203,15h2.8l1.121-5.30101h1.62c3.121,0,5.901-1.661,5.901-5.041,0-3.481-3.54-3.621-6.121-3.621h-2.36L1.4203,15zm16.6612-8.00199h-1.02l.78-3.761h1.16c1.14,0,2.401,0,2.401,1.461,0,1.84-1.82,2.3-3.321,2.3zm.68-5.961h-3.301L12.5405,15h2.8l1.221-5.80099h1.06c1.2901,0,1.4276.74923,1.6353,1.88139.0371.2018.0763.4156.1247.6396l.68,3.28h2.94l-1.339-5.62099c-.18-.761-.661-1.24-1.42-1.28v-.04c2.28-.04,4.08-1.321,4.08-3.721,0-3.302-2.9118-3.30147-5.4705-3.30101-.0302,0-.0604.00001-.0905.00001z"/></svg>