<svg width="28" height="16" xmlns="http://www.w3.org/2000/svg"><path fill-rule="evenodd" clip-rule="evenodd" d="m22.8019,2.99739c1.5,0,2.56.381,3.201.82l.699-2.34c-1.22-.501003-2.7-.681003-4.1-.681003-4.941,0-8.002,3.321003-8.002,7.822003,0,3.78101,2.02,6.62201,6.242,6.62201,1.059,0,2.14-.101,3.16-.38l.44-2.681c-.8.48-1.76.861-2.94.861-2.461,0-3.981-2.081-3.981-4.42201,0-3.28,2.18-5.621,5.281-5.621zM6.9614,6.99801h-1.02l.78-3.761h1.16c1.14,0,2.401,0,2.401,1.461,0,1.84-1.82,2.3-3.321,2.3zm.68-5.961h-3.301L1.4204,15h2.8l1.221-5.80099h1.06c1.29013,0,1.42761.74923,1.63535,1.88139.03701.2018.07626.4156.12465.6396l.68,3.28h2.941l-1.34-5.62099c-.18-.761-.661-1.24-1.42-1.28v-.04c2.28-.04,4.08-1.321,4.08-3.721,0-3.302-2.9118-3.30147-5.47049-3.30101-.03022,0-.06039.00001-.09051.00001z"/></svg>