<svg width="27" height="16" xmlns="http://www.w3.org/2000/svg"><path fill-rule="evenodd" clip-rule="evenodd" d="m21.7023,2.99739c1.5,0,2.56.381,3.201.82l.699-2.34c-1.22-.501003-2.7-.681003-4.1-.681003-4.941,0-8.002,3.321003-8.002,7.822003,0,3.78101,2.02,6.62201,6.242,6.62201,1.059,0,2.14-.101,3.16-.38l.44-2.681c-.8.48-1.76.861-2.94.861-2.461,0-3.981-2.081-3.981-4.42201,0-3.28,2.18-5.621,5.281-5.621zm-7.7601-1.96028H3.16021l-.479,2.2h3.94l-2.54,11.76299h2.92l2.541-11.76299h3.93999l.46-2.2z"/></svg>