<svg width="48" height="48" viewBox="0,0,48,48" xmlns="http://www.w3.org/2000/svg"><path fill-rule="evenodd" clip-rule="evenodd" d="m29.8906,5.18775-.3904-.48804-.3904.48804L26.8599,8.0001h-2.3196l-.6499-.81235L23.5,6.69971l-.3904.48804-.6499.81235h-8.2042l-.1502.19303L7.10532,17.1931,7,17.3285v24.6716h28.75l6.15-8.2.1-.1333V8.0001h-9.8595l-2.2499-2.81235zM14.7445,9.0001h6.9152l-6.4,8H8.52232l6.22218-8zM8,41.0001v-23h27v23H8zm33-7.6667-5,6.6667V17.6515l5-7.5v23.1819zM32.9405,9.0001h7.6252l-3.466,5.199-4.1592-5.199zm-7.6002,0,.3598.44973.3598-.44973h-.7196zm11.1773,6.0722-1.2852,1.9278h-3.4921l-5.3999-6.7499,3.1598-3.94971,7.0174,8.77181zM23.5,8.30049l6.9597,8.69961H16.5403L23.5,8.30049zM17,24.3201c0-.1767.1433-.32.32-.32h8.36c.1767,0,.32.1433.32.32v1.36c0,.1767-.1433.32-.32.32h-8.36c-.1767,0-.32-.1433-.32-.32v-1.36zm.32-1.32c-.729,0-1.32.591-1.32,1.32v1.36c0,.729.591,1.32,1.32,1.32h8.36c.729,0,1.32-.591,1.32-1.32v-1.36c0-.729-.591-1.32-1.32-1.32h-8.36z"/></svg>