<svg width="24" height="24" viewBox="0,0,24,24" xmlns="http://www.w3.org/2000/svg"><path fill-rule="evenodd" clip-rule="evenodd" d="m6.5,4C5.67157,4,5,4.67157,5,5.5v11.0006c.41789-.3136.9373-.4993,1.5-.4993h12.5002V4H6.5zM4,18.4999V5.5C4,4.11929,5.11929,3,6.5,3h13.5002v14.0013H6.5c-.82888,0-1.5.6706-1.5,1.4986,0,.8289.672,1.5014,1.49995,1.5014H6.5l13.4999-.0014.0002,1-13.50005.0014H6.5c-1.38117,0-2.5-1.1211-2.5-2.5014zM20,19H7v-1h13v1zm-9-9c0-.55228.4477-1,1-1s1,.44772,1,1c0,.5523-.4477,1-1,1s-1-.4477-1-1zm2.3229,1.5c.4152-.3665.6771-.9027.6771-1.5,0-1.10457-.8954-2-2-2-.5523,0-1-.44771-1-1,0-.55228.4477-1,1-1s1,.44772,1,1h1c0-1.10457-.8954-2-2-2s-2,.89543-2,2c0,.59735.2619,1.13353.6771,1.5C10.2619,8.86647,10,9.40265,10,10c0,1.1046.8954,2,2,2,.5523,0,1,.4477,1,1s-.4477,1-1,1-1-.4477-1-1h-1c0,1.1046.8954,2,2,2s2-.8954,2-2c0-.5973-.2619-1.1335-.6771-1.5z"/></svg>