<svg width="36" height="36" viewBox="0,0,36,36" xmlns="http://www.w3.org/2000/svg"><path fill-rule="evenodd" clip-rule="evenodd" d="m3.25,7.75h29.5v23.5H3.25V7.75zm1,1v6.5h27.5v-6.5H4.25zm0,21.5v-14h27.5v14H4.25zm12-18.25c0-.1379.1121-.25.25-.25s.25.1121.25.25-.1121.25-.25.25-.25-.1121-.25-.25zm.25-1.25c-.6901,0-1.25.5599-1.25,1.25s.5599,1.25,1.25,1.25,1.25-.5599,1.25-1.25-.5599-1.25-1.25-1.25zm-4.5,1c-.1379,0-.25.1121-.25.25s.1121.25.25.25.25-.1121.25-.25-.1121-.25-.25-.25zm-1.25.25c0-.6901.5599-1.25,1.25-1.25s1.25.5599,1.25,1.25-.5599,1.25-1.25,1.25-1.25-.5599-1.25-1.25zm-3.5,0c0-.1379.11214-.25.25-.25s.25.1121.25.25-.11214.25-.25.25-.25-.1121-.25-.25zm.25-1.25c-.69014,0-1.25.5599-1.25,1.25s.55986,1.25,1.25,1.25,1.25-.5599,1.25-1.25-.55986-1.25-1.25-1.25z"/></svg>