<svg width="36" height="36" viewBox="0,0,36,36" xmlns="http://www.w3.org/2000/svg"><path fill-rule="evenodd" clip-rule="evenodd" d="m33,6.25H9v1h1.75V15h1V7.25h18.5v24.5h-18.5V27h-1v4.75h-2v-6.6513c.22134.0692.44966.1164.68168.1406.50914.053,1.02372-.0063,1.50742-.1737.4838-.1675.9249-.439,1.2923-.7954s.6521-.7891.8342-1.2676c.182-.4784.2568-.991.2192-1.5015-.0375-.5105-.1867-1.0065-.4368-1.4532-.2501-.4466-.5952-.8329-1.0108-1.1317-.2702-.1943-.5661-.3485-.8782-.4586.0251-.1489.0388-.2997.0408-.4512V18c0-.7293-.2897-1.4288-.8055-1.9445-.51568-.5158-1.21515-.8055-1.9445-.8055-.72934,0-1.42882.2897-1.94454.8055-.51573.5157-.80546,1.2152-.80546,1.9445h-.00004l.00008.0064c.00194.1515.01562.3023.0408.4512-.31216.1101-.60798.2643-.87823.4586-.41565.2988-.7607.6851-1.01082,1.1317-.25012.4467-.39923.9427-.43682,1.4532s.03727,1.0231.21928,1.5015c.18202.4785.46677.9112.83417,1.2676.36741.3564.80852.6279,1.29226.7954.48373.1674.99831.2267,1.50745.1737.23216-.0242.46061-.0715.68207-.1407V31.75H3v1h28.25V7.25H33v-1zm-17.25,3h-.5v5.5h11.5v-5.5h-11zm.5,4.5v-3.5h9.5v3.5h-9.5zm-1,3h11.5v5.5h-11.5v-5.5zm1,1v3.5h9.5v-3.5h-9.5zm-.5,6.5h-.5v5.5h11.5v-5.5h-11zm10,4.5h-9.5v-3.5h9.5v3.5zM9.88071,18.6369l.46909.1731-.0926.4914c.3593.0677.6994.2134.9963.4268s.5434.4893.722.8084c.1787.319.2852.6733.312,1.038.0269.3646-.0266.7307-.1566,1.0724-.13.3418-.3334.6509-.5958.9055-.2625.2546-.5775.4485-.9231.5681-.3455.1196-.71305.1619-1.07672.1241-.36367-.0379-.7146-.1551-1.02806-.3433l-.25742-.1546-.25741.1546c-.31346.1882-.6644.3054-1.02807.3433-.36367.0378-.73122-.0045-1.07674-.1241-.34553-.1196-.66061-.3135-.92305-.5681-.26243-.2546-.46582-.5637-.59583-.9055-.13001-.3417-.18348-.7078-.15663-1.0724.02685-.3647.13336-.719.31202-1.038.17865-.3191.42512-.595.72201-.8084s.63698-.3591.99629-.4268l.58122-.1096-.20471-.5549c-.07567-.2051-.11594-.4215-.11909-.6401.00084-.463.18512-.9068.51256-1.2342.32819-.3282.77331-.5126,1.23743-.5126.46413,0,.90925.1844,1.23744.5126.32744.3274.51172.7712.51256,1.2342-.00316.2186-.04343.435-.11909.6401z"/></svg>