<svg width="36" height="36" viewBox="0,0,36,36" xmlns="http://www.w3.org/2000/svg"><path fill-rule="evenodd" clip-rule="evenodd" d="m18.2017,3.29265-.2018-.08904-.2019.08904-12.74996,5.625-1.1118.4905,1.13505.43399,4.17857,1.59766V15.75c0,.6134.34438,1.1335.82184,1.544.4794.412,1.1439.761,1.922,1.0445,1.5602.5684,3.6833.9115,6.0062.9115,2.3228,0,4.4459-.3431,6.0061-.9115.7781-.2835,1.4426-.6325,1.922-1.0445.4775-.4105.8219-.9306.8219-1.544v-4.3102l3.5-1.3382v6.2805l-1.4473,2.8944.8945.4472,1.0528-2.1056,1.0527,2.1056.8945-.4472-1.4472-2.8944V9.71924l.8136-.31109-13.8618-6.1155zm7.5482,8.52955-7.5715,2.8949-.1785.0683-.1786-.0683-7.5714-2.8949V15.75c0,.2115.1168.4789.4737.7856.355.3052.898.603,1.6124.8633,1.4248.5191,3.4267.8511,5.6639.8511,2.2371,0,4.239-.332,5.6638-.8511.7144-.2603,1.2574-.5581,1.6124-.8633.3569-.3067.4738-.5741.4738-.7856v-3.9278zM17.9999,13.7148,6.56347,9.34207,17.9999,4.29661,29.4362,9.34207,17.9999,13.7148zM12.2345,24.198l-5.75417-4.0182c-.8625-.6883-2.11099-.5408-2.80309.3095-.70022.8603-.55908,2.1143.28915,2.8119l8.88831,7.824.1416.1247h5.8931l1.3688,1.3553.1462.1447h12.5827l-.8475-.8525-7.545-7.59.0001-.0001-.0091-.0088c-1.7141-1.6389-3.917-2.9325-6.2426-3.0423v-.0063h-3.358c-.8796,0-1.5785.3381-2.0539.8699-.4674.5229-.6961,1.2067-.7017,1.876-.0005.0673.0011.1347.0051.2022zm5.91-1.9481h.0004c2.0437.0432,4.0862,1.1824,5.745,2.7671l6.6931,6.7329h-9.7673l-1.3689-1.3553-.1461-.1447h-5.927l-8.7533-7.7053-.00725-.0064-.00749-.0061c-.43466-.3537-.50043-.9845-.15285-1.4115.35379-.4347.98455-.5005,1.41158-.1529l.01428.0116.01509.0106,7.03904,4.9154c.4753.5202,1.1724.8446,2.0522.8446h3v-1h-3c-.6279,0-1.0547-.227-1.3284-.5352-.282-.3173-.431-.755-.4272-1.2106.0038-.4557.1604-.8969.4472-1.2178.2789-.312.703-.5364,1.3084-.5364h3.1595z" clip-path="url(#a)"/><defs><clipPath id="a"><path fill="#fff" d="m0,0h36v36H0z"/></clipPath></defs></svg>