<svg width="48" height="48" viewBox="0,0,48,48" xmlns="http://www.w3.org/2000/svg"><path fill-rule="evenodd" clip-rule="evenodd" d="m9.43994,12c-.39782,0-.77935.158-1.06066.4393-.28115.2812-.43916.6624-.43934,1.06V13.5L7.99851,34H9V13h30v21h.9999V13.5c0-.3978-.158-.7794-.4393-1.0607S38.8978,12,38.4999,12H9.43994zM38,34V14H10v20h28zM6.93994,13.5014,6.99851,34H4v1.5c0,.663.26339,1.2989.73223,1.7678C5.20107,37.7366,5.83696,38,6.5,38h35.01c.663,0,1.2989-.2634,1.7678-.7322.4688-.4689.7322-1.1048.7322-1.7678V34h-3.0101V13.5c0-.663-.2633-1.2989-.7322-1.7678C39.7989,11.2634,39.163,11,38.4999,11H9.43994c-.66304,0-1.29892.2634-1.76777.7322-.46884.4689-.73223,1.1048-.73223,1.7678v.0014zM5,35v.5c0,.3978.15804.7794.43934,1.0607S6.10217,37,6.5,37h35.01c.3978,0,.7794-.158,1.0607-.4393s.4393-.6629.4393-1.0607V35H5z"/></svg>