<svg width="48" height="48" viewBox="0,0,48,48" xmlns="http://www.w3.org/2000/svg"><path fill-rule="evenodd" clip-rule="evenodd" d="m24.6726,5.00002C13.7571,4.98387,5,13.4934,5,24H4C4,12.9087,13.2395,3.97957,24.6809,4.00004l.013.00002v.00017c4.02.11145,7.9343,1.3123,11.3252,3.4744C38.8601,9.28617,41.2445,11.7155,43,14.5718V8.00003h1V17h-9v-1h7.6738c-1.7119-3.1204-4.184-5.764-7.1924-7.68218-3.2364-2.06359-6.9721-3.21025-10.8088-3.3178zM43,23.9938c-.0317,2.5363-.5643,5.0414-1.5673,7.3712s-2.4566,4.4384-4.2771,6.2046c-1.8206,1.7662-3.9723,3.1552-6.3314,4.0872-2.3591.9319-4.8792,1.3885-7.4153,1.3433V43H23.4c-3.7598,0-7.5549-1.4953-10.8308-3.8486C9.53063,36.9687,6.96689,34.0674,5.31774,31H13v-1H4v9h1v-6.541c1.718,2.8378,4.15688,5.4725,6.9858,7.5046,3.3978,2.4409,7.391,4.0353,11.4098,4.0364,2.6664.0469,5.3157-.4333,7.796-1.4132,2.4817-.9803,4.7451-2.4415,6.6603-4.2994,1.9151-1.858,3.4442-4.0762,4.4993-6.527s1.6154-5.086,1.6488-7.7541l-1-.0125zM28.1899,21.84h-10.75c.1069-1.0747.3872-2.1249.83-3.11.4366-.9408,1.0358-1.7973,1.77-2.53.697-.6833,1.5248-1.2189,2.4338-1.5746s1.8805-.5242,2.8562-.4954c1.1072-.0137,2.2048.2078,3.22.65.9535.4013,1.7946,1.0296,2.45,1.83l.64-1.11c-.809-.8105-1.7758-1.4462-2.8406-1.8677-1.0648-.4214-2.2049-.6196-3.3494-.5823-1.4916-.0617-2.9731.2709-4.2952.9644-1.322.6935-2.4378,1.7233-3.2348,2.9856-.898,1.4264-1.4652,3.0358-1.66,4.71h-1.57l-.52.94h2v1.8h-1.52l-.52,1h2.17v.09c.259,2.3265,1.3197,4.4903,3,6.12,1.6557,1.4977,3.8286,2.2937,6.06,2.22,1.0767.0055,2.1462-.1772,3.16-.54.9445-.3327,1.8119-.8531,2.55-1.53v-1.63c-.6575.8568-1.5116,1.5428-2.49,2-.9962.4615-2.0821.6972-3.18.69-1.3153.0154-2.6128-.3047-3.77-.93-1.26-.6738-2.3009-1.6939-3-2.94-.5934-1.0475-.9836-2.1976-1.15-3.39h8.63l.51-1h-9.25v-1.83h10.3l.52-.94z"/><path d="m17.4399,21.84h10.75l-.52.94h-10.3c0,.29,0,.57,0,.83s0,.68,0,1h9.25l-.51,1h-8.63c.1664,1.1923.5566,2.3425,1.15,3.39.6991,1.2461,1.74,2.2662,3,2.94,1.1572.6253,2.4547.9454,3.77.93,1.0979.0071,2.1838-.2285,3.18-.69.9784-.4572,1.8325-1.1432,2.49-2v1.63c-.7381.6768-1.6055,1.1973-2.55,1.53-1.0138.3627-2.0833.5455-3.16.54-2.2314.0737-4.4043-.7223-6.06-2.22-1.6803-1.6298-2.741-3.7935-3-6.12v-.09h-2.17l.52-1h1.52c0-.43,0-.82,0-1.17s0-.42,0-.63h-2l.52-.94h1.57c.1948-1.6742.762-3.2836,1.66-4.71.797-1.2623,1.9128-2.2921,3.2348-2.9856,1.3221-.6935,2.8036-1.0262,4.2952-.9644,1.1445-.0374,2.2846.1608,3.3494.5823,1.0648.4214,2.0316,1.0571,2.8406,1.8677l-.64,1.11c-.6554-.8005-1.4965-1.4287-2.45-1.83-1.0152-.4422-2.1128-.6638-3.22-.65-.9757-.0289-1.9472.1396-2.8562.4953s-1.7368.8913-2.4338,1.5747c-.7342.7327-1.3334,1.5891-1.77,2.53-.4428.985-.7231,2.0353-.83,3.11z"/></svg>