<svg width="24" height="24" viewBox="0,0,24,24" xmlns="http://www.w3.org/2000/svg"><path fill-rule="evenodd" clip-rule="evenodd" d="m10.5,3.00024H10v2H4V21.0002h10v-2h6V3.00024h-9.5zm3,2H11v-1h8V18.0002h-5v-4.0004h4v-1h-4v-1h4v-1h-4V5.00024h-.5zM13,18.5002v1.5H5V6.00024h8V18.5002zm4.9746-13.5688v4.069h-.812v-2.664h-.959v-.59c.2-.005.361-.025.487-.061.125-.035.239-.093.344-.172.15-.116.251-.31.302-.582h.638zm-5.985,5.3446V11H9.05859c0-.221.036-.432.108-.632.071-.2.172-.37299.302-.51799.1-.111.217-.22.352-.325.134-.106.40201-.3.80201-.582.195-.136.332-.262.409-.379.079-.117.118-.252.118-.406,0-.178-.053-.322-.158-.433-.105-.11-.242-.165-.413-.165-.42,0-.63501.301-.64901.904h-.781v-.089c0-.494.138-.876.414-1.146.269-.264.61701-.396,1.04401-.396.379,0,.695.108.949.323.276.234.414.548.414.944,0,.344-.11.641-.331.89-.072.082-.14.147-.203.196s-.229.168-.498.355c-.256.178-.439.315-.55.409-.11.09499-.212.20299-.307.32599h1.909zM12,13.9998H6v-1h6v1zm-6,2h6v-1H6v1z"/></svg>