<svg width="48" height="48" viewBox="0,0,48,48" xmlns="http://www.w3.org/2000/svg"><path fill-rule="evenodd" clip-rule="evenodd" d="m23.9868,5.99986c-2.3203-.06105-4.57.80128-6.255,2.39762C16.1717,9.87548,15.2137,11.8708,15.0292,14h1.17c.8037-3.9724,3.9505-6.99997,7.8008-6.99997S30.9971,10.0276,31.8008,14h1.17c-.1845-2.1292-1.1425-4.12452-2.7026-5.60252-1.685-1.59634-3.9347-2.45867-6.255-2.39762L24,6.00021l-.0132-.00035zM30.6519,21H34.5c.3978,0,.7794-.158,1.0607-.4393S36,19.8979,36,19.5v-4c0-.3978-.158-.7793-.4393-1.0606S34.8978,14,34.5,14h-.5258c-.1869-2.4046-1.259-4.66178-3.0183-6.32847C29.0818,5.89597,26.5805,4.93545,24,4.99987c-2.5805-.06442-5.0818.8961-6.9559,2.67166C15.2848,9.33822,14.2127,11.5954,14.0258,14H13.5c-.3978,0-.7794.1581-1.0607.4394S12,15.1022,12,15.5v4c0,.3979.158.7794.4393,1.0607S13.1022,21,13.5,21H17v-.6423c.3578.7267.8025,1.3933,1.3194,1.9808C12.2646,25.2916,8,32.7945,8,41.5v.5h32v-.5c0-8.7051-4.2459-16.2091-10.3188-19.1621.3603-.4097.6855-.8578.9707-1.3379zM9.00486,41c.16252-8.3569,4.38694-15.3249,10.06444-17.9095C20.4205,24.2836,22.127,25,24,25c1.8731,0,3.5797-.7165,4.9311-1.9097,5.695,2.5839,9.9022,9.5516,10.0641,17.9097H9.00486zM30.0648,20H25v1h4.4648c-1.2925,1.8381-3.2767,3-5.4648,3-3.809,0-7-3.521-7-8,0-.6868.075-1.3512.2159-1.9838,1.6014-.5054,3.0921-1.3129,4.3912-2.3798l.0066-.0053.0064-.0056c.0676-.0596.152-.0969.2415-.1069.0896-.0101.1801.0076.2593.0507l.012.0065.0122.0058c.5795.2755,1.2131.4184,1.8547.4184s1.2752-.1429,1.8547-.4184l.0122-.0058.012-.0065c.0792-.0431.1697-.0608.2593-.0507.0895.01.1739.0473.2415.1069l.0064.0056.0066.0053c1.2992,1.067,2.7901,1.8746,4.3917,2.38C30.925,14.6489,31,15.3132,31,16c0,1.4659-.3418,2.8292-.9352,4zm.368-7.1637c-1.2305-.4666-2.3791-1.1307-3.3999-1.9679-.2202-.1912-.4935-.3111-.7835-.3436-.288-.0323-.5789.0231-.8348.1587-.4425.2084-.9256.3165-1.4148.3165s-.9723-.1081-1.4148-.3165c-.2558-.1356-.5468-.191-.8348-.1587-.29.0325-.5632.1524-.7835.3436-1.0207.8371-2.1691,1.5011-3.3995,1.9678C18.6483,9.96949,21.1513,8.00003,24,8.00003c2.8488,0,5.3518,1.96954,6.4328,4.83627zM16,15h-2.5c-.1326,0-.2598.0527-.3536.1465-.0937.0937-.1464.2209-.1464.3535v4c0,.1326.0527.2598.1464.3536.0938.0938.221.1464.3536.1464H16v-5zm10,.5c0-.2761.2239-.5.5-.5s.5.2239.5.5c0,.2762-.2239.5-.5.5s-.5-.2238-.5-.5zm.5-1.5c-.8284,0-1.5.6716-1.5,1.5,0,.8285.6716,1.5,1.5,1.5s1.5-.6715,1.5-1.5c0-.8284-.6716-1.5-1.5-1.5zM19,31h3v1h-5v-1h1v-1h1v1zm2.5-16c-.2761,0-.5.2239-.5.5,0,.2762.2239.5.5.5s.5-.2238.5-.5c0-.2761-.2239-.5-.5-.5zm-1.5.5c0-.8284.6716-1.5,1.5-1.5s1.5.6716,1.5,1.5c0,.8285-.6716,1.5-1.5,1.5s-1.5-.6715-1.5-1.5zm12-.5h2.5c.1326,0,.2598.0527.3536.1465.0937.0937.1464.2209.1464.3535v4c0,.1326-.0527.2598-.1464.3536-.0938.0938-.221.1464-.3536.1464H32v-5z"/></svg>