<svg width="36" height="36" viewBox="0,0,36,36" xmlns="http://www.w3.org/2000/svg"><path fill-rule="evenodd" clip-rule="evenodd" d="m4.75,7.7503h26.5v20.5H4.75v-20.5zm1,1v18.5h24.5v-5H19.4998c-1.3843,0-2.4592-.5248-3.1828-1.3399-.7154-.8059-1.0624-1.8662-1.0624-2.9101s.347-2.1042,1.0624-2.9101c.7236-.8151,1.7985-1.3399,3.1828-1.3399H30.25v-5H5.75zm13.7498,6H30.25v6.5H19.4998c-1.1125,0-1.9102-.4127-2.435-1.0038-.5329-.6004-.8102-1.4151-.8102-2.2462s.2773-1.6458.8102-2.2462c.5248-.5911,1.3225-1.0038,2.435-1.0038zm-.2498,3.2492c0-.1378.1121-.25.25-.25s.25.1122.25.25c0,.1379-.1121.25-.25.25s-.25-.1121-.25-.25zM19.5,16.7495c-.6901,0-1.25.5599-1.25,1.25,0,.6902.5599,1.25,1.25,1.25s1.25-.5598,1.25-1.25c0-.6901-.5599-1.25-1.25-1.25z"/></svg>