<svg width="24" height="24" xmlns="http://www.w3.org/2000/svg"><path fill-rule="evenodd" clip-rule="evenodd" d="m6.5,4.00024H6V20.0002h12V9.29314l-.1464-.14645-5-5-.1465-.14645H6.5zM7,19.0002V5.00024h1v.46429h1v-.46429h3v4.99996h5v9h-7v-.4642H9v.4642H7zm9.2929-9.99996L13,5.70735v3.29289h3.2929zM8,7.32167V6.3931h1v-.39286h1v.46429H9v.85714H8zm0,1.85715v-.92858h1V7.3931h1v.92857H9v.85715H8zM8,11.036v-.9286h1v-.85716h1v.92856H9v.8572H8zm0,1.8571v-.9286h1v-.8571h1v.9286H9v.8571H8zm0,1.8571v-.9285h1v-.8572h1v.9286H9v.8571H8zm0,1.8572v-.9286h1v-.8571h1v.9285H9v.8572H8zm0,1.3928v-.4642h1v-.8572h1v.9286H9v.3928H8z"/></svg>