<svg width="16" height="16" xmlns="http://www.w3.org/2000/svg"><rect width="16" height="16" rx="2" fill="#eb0000"/><path fill-rule="evenodd" clip-rule="evenodd" d="m6.82248,10.3616c-1.296,0-2.34667,1.0245-2.34667,2.2883,0,1.2637,1.05067,2.2878,2.34667,2.2878s2.34666-1.0241,2.34666-2.2878c0-1.2638-1.05066-2.2883-2.34666-2.2883zm0,3.3638c-.60496,0-1.09562-.4782-1.09562-1.068,0-.5899.49066-1.0684,1.09562-1.0684.60533,0,1.09562.4785,1.09562,1.0684,0,.5898-.49029,1.068-1.09562,1.068zm5.37862-9.58615C12.0888,3.51,11.5253,3,10.9585,3H.003429L.003048,4.22738H1.61829v4.27124H.001143L.000381,10.1651v.0004L0,12.6574h3.7101c0-1.6759,1.39352-3.03452,3.11238-3.03452,1.71885,0,3.11238,1.35862,3.11238,3.03452h2.21634c.5718,0,1.0355-.513,1.0355-1.158V8.65238l-.9856-4.51313zm-9.85024.08813h3.22971v4.27124H2.35086V4.22738zm4.03809.00374h.86743v4.28213h-.86743V4.23112zm1.70629-.00374h.86743V8.5095h-.86743V4.22738zM9.81181,8.5095V4.22738h1.46549l.957,4.28212H9.81181z" fill="#fff"/></svg>