<svg width="24" height="16" xmlns="http://www.w3.org/2000/svg"><path fill-rule="evenodd" clip-rule="evenodd" d="m6.9418,6.67768h-1.101l.74-3.44h.981c1.06,0,2.341.06,2.341,1.4,0,1.641-1.541,2.04-2.961,2.04zM5.5208,12.7997h-.96l.841-4.04102h.899c1.501,0,2.861.22,2.861,1.68102,0,2.16-1.921,2.36-3.641,2.36zM8.4818,1.03668h-4.141L1.4198,14.9997h3.982c2.08,0,6.56-.32,6.56-4.321,0-1.50002-.68-2.70002-2.24-2.94002v-.04c1.62-.26,2.98-1.621,2.98-3.321,0-2.541-2.04-3.341-4.22-3.341zM19.4416,1.03711h-2.801l-2.961,13.96299h8.262l.48-2.2h-5.481l2.501-11.76299z"/></svg>