<svg width="29" height="16" xmlns="http://www.w3.org/2000/svg"><path fill-rule="evenodd" clip-rule="evenodd" d="m10.9422,2.997c1.46,0,2.801.301,3.881,1.001l.7-2.421c-1.461-.56-3.1-.780003-4.661-.780003C5.82122.796997,2.48022,3.937,2.48022,9.039c0,4.32,2.74,6.201,6.842,6.201,1.35898,0,2.91998-.28,3.73998-.62l1.601-7.622H9.00222l-.46,2.201h2.95998l-.781,3.7c-.319.141-.73998.141-1.37898.141-2.381,0-3.941-1.821-3.941-4.081,0-3.301,2.14-5.962,5.54098-5.962zm17.0402-1.95989h-9.582l-.48,2.2h6.101l-8.402,9.56299-.44,2.2h9.802l.46-2.2h-6.361l8.422-9.56299.48-2.2z"/></svg>