<svg width="30" height="16" xmlns="http://www.w3.org/2000/svg"><path fill-rule="evenodd" clip-rule="evenodd" d="m17.5205,9.59857c0,1.82003.92,3.44103,2.94,3.44103,3.202,0,4.982-3.84003,4.982-6.62203,0-1.86-.96-3.421-2.981-3.421-3.26,0-4.941,3.782-4.941,6.602zm8.5959,3.19403c1.4412-1.6676,2.2471-3.84208,2.2471-6.07503,0-3.721-2.041-5.921-5.822-5.921-2.28,0-4.22.861-5.741,2.601-1.421,1.66-2.201,3.821-2.201,6.041,0,3.32103,2.061,5.80203,5.502,5.80203,1.5525,0,3.0086-.3174,4.2392-1.0041l.6331.7626h3.37l-2.2274-2.2065zM5.94139,6.99801h1.02c1.501,0,3.32101-.46,3.32101-2.3,0-1.461-1.26101-1.461-2.40101-1.461h-1.16l-.78,3.761zm-1.601-5.961H7.6414l.09051-.00001c2.55869-.00046,5.47049-.00099,5.47049,3.30101,0,2.4-1.8,3.681-4.08,3.721v.04c.759.04,1.24.519,1.42,1.28L11.8824,15H8.94139l-.68-3.28c-.04839-.224-.08763-.4378-.12465-.6396C7.929,9.94824,7.79152,9.19901,6.50139,9.19901h-1.06L4.22039,15h-2.8l2.92-13.96299z"/></svg>