<svg width="27" height="16" xmlns="http://www.w3.org/2000/svg"><path fill-rule="evenodd" clip-rule="evenodd" d="m8.50229,2.99681c1.019,0,2.08001.301,2.90001.721l.66-2.301C10.9223.956814,9.66229.796814,8.44129.796814c-2.681,0-5.201,1.279996-5.201,4.220996,0,2.04103,1.43273,2.84217,2.72644,3.56558,1.06487.59545,2.03556,1.13823,2.03556,2.27641,0,1.5-1.321,2.18-2.662,2.18-1.2,0-2.34-.461-3.42-.961l-.72,2.381c1.26.46,2.64.78,3.98.78,3.061,0,5.74201-1.24,5.74201-4.661,0-2.20545-1.5375-3.1124-2.86505-3.89551-1.00857-.59494-1.89596-1.11841-1.89596-2.08548,0-1.2,1.34-1.601,2.341-1.601zm8.81921,9.80299h-1.301l2.001-9.563h.96c2.52,0,4.221,1.181,4.221,3.362,0,3.841-1.84,6.201-5.881,6.201zm2.56-11.763h-4.201l-2.94,13.963h4.701c7.041,0,8.682-4.761,8.682-8.002,0-4.841-3.321-5.961-6.242-5.961z"/></svg>