<svg width="24" height="24" xmlns="http://www.w3.org/2000/svg"><path fill-rule="evenodd" clip-rule="evenodd" d="m10.0774,4.90869-.58646,1.61275c-.72266,1.98729-.05515,4.47306,1.53926,6.24466,1.5766,1.7517,3.9998,2.7365,6.7303,1.8109l1.9974-.677-1.4808,1.5016c-1.8583,1.8845-3.8643,2.6421-5.7311,2.5721-1.8569-.0698-3.516-.9565-4.69441-2.2487-1.17716-1.2909-1.89673-3.0102-1.84912-4.7801.04799-1.78413.87521-3.57846,2.71399-4.99086l1.36094-1.04535zm6.0162,11.01171c-2.3483.1392-4.3946-.9163-5.8067-2.4853-1.39137-1.546-2.20384-3.6328-2.07396-5.6224-.8177.9943-1.18207,2.08975-1.21083,3.1591-.0399,1.4833.56554,2.9577,1.58838,4.0794,1.02159,1.1202,2.43751,1.8648,3.99301,1.9232,1.0997.0412,2.2999-.2593,3.5101-1.054z"/></svg>