<svg width="36" height="36" viewBox="0,0,36,36" xmlns="http://www.w3.org/2000/svg"><path fill-rule="evenodd" clip-rule="evenodd" d="m24.1798,14.9846c.791.118,1.4248.5149,1.8672,1.0784.5467.6964.7801,1.6175.7111,2.5195-.0693.9055-.4452,1.8254-1.1615,2.5213-.7222.7018-1.7607,1.1468-3.0964,1.1468h-10.5c-1.3749,0-2.41685-.4423-3.12471-1.1555-.70164-.707-1.03355-1.6383-1.0731-2.5477-.0394-.906.20926-1.825.71355-2.5299.41624-.5818,1.01426-1.0239,1.75756-1.1673.0073-2.8023,2.9424-4.3592,5.1347-3.1337,1.3286-2.36779,3.8027-2.95414,5.8-2.22963,1.0637.38588,2.0005,1.14513,2.5552,2.20443.4814.9193.6622,2.0395.4164,3.2933zm-3.3126-4.5577c-1.6857-.61145-3.7993-.0643-4.8096,2.2256l-.2654.6017-.5089-.4167c-1.6278-1.3334-4.2821-.069-3.9867,2.4038l.0669.5593h-.5633c-.6158,0-1.11618.3029-1.47096.7988-.36092.5045-.55852,1.198-.52779,1.9045.03057.7031.28516,1.3843.78381,1.8867.49244.4962,1.26454.86,2.41494.86h10.5c1.1018,0,1.882-.3611,2.3996-.864.5236-.5088.8086-1.1921.8612-1.8803.0529-.6918-.131-1.355-.5006-1.8258-.3588-.457-.9127-.7614-1.6902-.7303l-.6985.028.1992-.67c.3789-1.2744.233-2.3388-.1934-3.1529-.4296-.8204-1.1616-1.4205-2.0103-1.7284zM10.8028,26.7766l1.5-3,.8944.4472-1.5,3-.8944-.4472zm10.5-3-1.5,3,.8944.4472,1.5-3-.8944-.4472zm-9,6,3-6,.8944.4472-3,6-.8944-.4472zm6.0747-6-3,6,.8944.4472,3-6-.8944-.4472z"/></svg>