<svg width="24" height="24" viewBox="0,0,24,24" xmlns="http://www.w3.org/2000/svg"><path fill-rule="evenodd" clip-rule="evenodd" d="m16.3124,9.85626c.4922.11209.8941.38094,1.1833.74924.3941.5019.5579,1.159.5092,1.7954-.0489.6399-.3147,1.2925-.8243,1.7876-.5157.501-1.251.8117-2.1805.8117H8.00011c-.95398,0-1.6936-.3079-2.20142-.8196-.50158-.5054-.73574-1.1679-.76361-1.8086-.02771-.6372.14657-1.2875.50666-1.7908.2743-.3834.66277-.68665,1.14398-.81475.09199-1.85089,2.00673-2.89518,3.52268-2.17629.9455-1.53829,2.6246-1.91671,3.9872-1.42244.745.27025,1.4036.80294,1.7943,1.549.3183.60771.4474,1.33511.3225,2.13954zm-2.4578-2.74848c-1.0482-.38023-2.3618-.04562-2.997,1.39429l-.2655.60174-.5088-.41675c-.96738-.79235-2.56613-.04792-2.38672,1.45384l.06682.5593h-.56329c-.34817,0-.63449.1685-.84507.4628-.21672.303-.33994.7277-.3209,1.1655.01889.4343.17573.8468.47432,1.1477.29238.2945.76213.524,1.49165.524h6.99999c.6955,0,1.1727-.2267,1.4836-.5289.317-.308.4918-.7241.5241-1.1467.0326-.4261-.0817-.8253-.2986-1.1015-.2061-.2625-.524-.4419-.9891-.4233l-.6985.028.1992-.67c.2414-.81192.1456-1.47627-.1168-1.97715-.2655-.50707-.7194-.88063-1.2494-1.07287zM7.05278,17.7763l1-2,.89443.4472-1,2-.89443-.4472zm7.00002-2-1,2,.8944.4472,1-2-.8944-.4472zm-6.00002,4,2.00002-4,.8944.4472-1.99999,4-.89443-.4472zm4.04982-4-2,4,.8944.4472,2-4-.8944-.4472z"/></svg>