<svg width="48" height="48" viewBox="0,0,48,48" xmlns="http://www.w3.org/2000/svg"><path fill-rule="evenodd" clip-rule="evenodd" d="m4,3.99951h40.0002V7.1749l-.1096.13696L42.0002,9.6749v34.3229L41.5024,44l-35.00023.1522L6,44.1544V9.6749L4.10956,7.31178,4,7.17483V3.99951zm1,1v1.82454l1.89044,2.36312L7,9.32412V43.15l3.984-.0173.0411-23.6336L11.0259,19h25.9746l-.0004.5003-.0162,23.5194,4.0163-.0175V9.32412l.1096-.13696,1.8904-2.36304V4.99951H5zM35.9839,43.024,35.9998,20H12.0242l-.0402,23.1284,4.6682-.0203c-.1178-.2229-.2374-.4916-.3274-.7924-.2695-.9009-.2714-2.1142.8284-3.1751.7651-.738.8971-1.7952.7963-2.76-.0495-.474-.1532-.8996-.2452-1.2077-.0459-.1534-.0883-.2759-.1187-.3588-.0152-.0413-.0273-.0727-.0353-.0929l-.0088-.0218-.0018-.0043-.0001-.0003-.0001-.0002-.4283-1.0123,1.0451.3431-.156.4751c.156-.4751.1562-.475.1564-.4749l.0006.0002.0013.0004.0038.0013.0119.004.0176.0062.0221.0079c.0335.0121.0805.0296.1391.053.117.0467.2807.1168.4745.2128.3861.1912.8996.4889,1.4022.9149,1.0115.8573,1.9997,2.2586,1.7674,4.3299l-.9938-.1115c.1843-1.6426-.5775-2.7413-1.4201-3.4555-.2628-.2227-.5314-.4056-.7775-.5521.0563.2524.1066.5364.1383.8396.1135,1.0872-.0045,2.5301-1.0967,3.5836-.7575.7308-.7594,1.5175-.5646,2.1688.0999.3339.2519.6254.3817.8357.0635.1028.1202.1838.1603.2382l12.3965-.0539c1.0399-1.3711.6664-3.287-.1447-5.0593-.4065-.8882-.8981-1.6832-1.2904-2.2583-.0369-.054-.0728-.1061-.1076-.1559-.1381.3733-.3238.8158-.554,1.2302-.2713.4882-.6437,1.011-1.1334,1.2923-.2567.1475-.556.2343-.8851.2017-.327-.0323-.6359-.1777-.9227-.4123-1.0441-.8543-1.5588-2.0934-1.83-3.4516-.2006-1.0046-.2752-2.1144-.3172-3.2421-.3377.4388-.5702.8889-.7289,1.2816-.1295.3204-.2082.5985-.2541.7942-.023.0976-.0376.1742-.0463.2245-.0044.0252-.0072.0437-.0089.055l-.0016.0115-.0001.0003c.0001-.0001.0001-.0003-.4963-.0604-.4964-.06-.4964-.0602-.4963-.0604v-.0004l.0001-.001.0004-.0026.0009-.0075.0034-.0238c.0028-.0196.0071-.0469.013-.081.0118-.0683.0303-.1644.0582-.2829.0556-.2367.1487-.5648.3005-.9402.3027-.7491.8453-1.7027,1.803-2.487l.7889-.6462.0277,1.0194c.042,1.5443.0838,2.9989.3343,4.2532.2496,1.2501.6933,2.2277,1.4825,2.8734.1715.1403.3001.1825.3879.1912.0855.0084.1782-.0102.2886-.0737.2448-.1406.5077-.4616.7573-.9108.2408-.4334.4329-.919.5662-1.3037.0661-.1907.1165-.3532.1502-.4672.0168-.057.0294-.1017.0377-.1316l.0091-.0335.002-.0077.0004-.0015v-.0002h.0001l.2457-.9478.6237.755-.3855.3185c.3855-.3185.3856-.3183.3857-.3182l.0003.0004.001.0013.0033.0039.0116.0142.0175.0217.0246.0309c.0362.0455.0881.1116.1526.1964.129.1694.309.4138.5157.7169.4123.6045.9363,1.4501,1.3736,2.4057.7374,1.6114,1.3082,3.7184.4157,5.4702l4.5823-.0199zM37,11H11v-1h26v1zm-24,2.9708h21.9999v-.9406H13v.9406z"/></svg>