<svg width="24" height="24" viewBox="0,0,24,24" xmlns="http://www.w3.org/2000/svg"><path fill-rule="evenodd" clip-rule="evenodd" d="m22.5,0h-21C.675,0,0,.675,0,1.5v21c0,.825.675,1.5,1.5,1.5h21c.825,0,1.5-.675,1.5-1.5v-21c0-.825-.675-1.5-1.5-1.5z" fill="#2d327d"/><path fill-rule="evenodd" clip-rule="evenodd" d="m3.06744,16.4324,2.13-2.1c.1275-.12.3225-.12.45,0l.2325.2325-1.545,1.53.2325.2325,1.9875-1.965c.1275-.12.3225-.12.45,0l.2325.2325-2.2125,2.1825.2325.2325,2.64-2.61c.1275-.12.3225-.12.45,0l.2325.2325-2.88,2.8575.2325.2325,3.315-3.27c.1875-.1875.495-.1875.675.0075.18746.1875.18746.495-.0075.675l-3.555,3.51c-.3075.3-.3075.795-.0075,1.1025.15.15.3375.225.5325.2325h1.74l.1875.0075c.1275.0075.2625.06.36.165.1125.12.1725.2775.1575.4275v.09c0,.09-.03.18-.0975.2475s-.1575.0975-.2475.0975h-5.925" fill="#fff"/><path fill-rule="evenodd" clip-rule="evenodd" d="m16.77,15.66,4.395,4.395-1.05,1.065-5.4525-5.4525H9.68246l.38254-.3825c.075-.075.1275-.1575.165-.255h3.795l-2.5275-2.5275-.9525.9525c-.1875.1875-.495.1875-.68254,0l-1.545-1.545c-.195-.1875-.195-.495-.0075-.6825l.9525-.9525-5.565-5.56503V10.695h4.89l-.375.375h-4.515v3.825c0,.075.0525.135.12.135h.3675l-.6.5925c-.3-.105-.5175-.39-.5175-.7275V4.07247l-.3-.3,1.0575-1.0575.315.315H20.3025c.4125,0,.75.345.75.765V14.895c0,.42-.3375.765-.75.765H16.77zm-3.54-4.905-.6825.6825,3.6075,3.6075h4.17c.0675,0,.12-.06.12-.135v-3.825h-7.2675l.375-.375h6.8925V3.80997c0-.075-.0525-.135-.12-.135H4.79246l5.54254,5.5425.675-.6825c.4475-.45183,1.0356-.60327,1.5425-.7338.385-.09914.7232-.18622.9175-.3837.45-.4575,1.5375-1.365,1.5375-1.365L15,6.04497c-.0375-.045-.0375-.12.0075-.165l.1725-.1725c.0525-.045.1275-.045.1725,0l.6825.6825c.045.0525.045.1275,0,.1725l-.1725.1725c-.045.045-.12.045-.165.0075l-.0075-.0075s-.8925,1.095-1.35,1.5525c-.1979.19788-.285.53888-.3837.92589-.1296.50776-.2795,1.09474-.7263,1.54164z" fill="#fff"/><path fill-rule="evenodd" clip-rule="evenodd" d="m3.82496,2.71497-1.0575,1.0575L20.1075,21.12l1.0575-1.065L3.82496,2.71497z" fill="#eb0000"/></svg>