<svg width="48" height="48" viewBox="0,0,48,48" xmlns="http://www.w3.org/2000/svg"><path fill-rule="evenodd" clip-rule="evenodd" d="m31.9152,5.13604c-1.0541-.2772-2.175-.12722-3.1191.41738V5.5534l-.0046.00269c-.5239.30968-1.0659.91551-1.5645,1.57892-.5104.67919-1.0187,1.47884-1.4671,2.23696-.4493.75963-.8432,1.48583-1.1246,2.02153-.13.2475-.2362.4548-.313.6065h-.6446c-.0769-.1517-.1831-.359-.313-.6065-.2814-.5357-.6753-1.2619-1.1246-2.02153-.4484-.75812-.9567-1.55777-1.4671-2.23696-.4986-.66341-1.0406-1.26924-1.5645-1.57892v-.00002l-.0046-.00265c-.9441-.5446-2.065-.69458-3.1191-.41738-1.0541.27721-1.9562.95919-2.5103,1.89777s-.7154,2.0579-.4489,3.11479c.1445.5729.5129,1.1375.9234,1.6065.073.0834.1486.1652.2261.2449H7v7h1v24h32V19h1v-7h-7.2751c.0775-.0797.1531-.1615.2261-.2449.4105-.469.7789-1.0337.9234-1.6065.2665-1.05689.1052-2.17621-.4489-3.11479s-1.4562-1.62056-2.5103-1.89777zM32.1761,12c.3335-.2196.7039-.5396,1.0224-.9035.3604-.4117.6164-.8363.7062-1.19248l.4849.12228-.4849-.12228c.2021-.80138.0798-1.65013-.3403-2.36183-.4202-.71171-1.1042-1.22883-1.9035-1.43904-.7984-.20995-1.6474-.09671-2.3628.31511-.3402.202-.7815.66525-1.2717,1.31753-.4794.6379-.9667,1.40275-1.4058,2.14524-.4382.74097-.8238,1.45157-1.1,1.97747l-.074.1415h6.7295zM18.7018,6.41826c-.7153-.41182-1.5643-.52506-2.3627-.31511-.7993.21021-1.4833.72733-1.9035,1.43904-.4201.7117-.5425,1.56045-.3404,2.36183.0899.35618.3459.78078.7063,1.19248.3185.3639.6888.6839,1.0224.9035h6.7295l-.074-.1415c-.2763-.5259-.6618-1.2365-1.1-1.97747-.4392-.74249-.9264-1.50734-1.4058-2.14524-.4902-.65228-.9315-1.11554-1.2718-1.31753zM39,19h-6.0377l2.4636,3.5139.4922.702-.8533.0827-2.8736.2785-1.2957,2.6478-.3722.7607-.4863-.6935L28,23.3868V42h11V19zm-.3198-1h-6.4191l-3.5056-5H40v5h-1.3198zm-16.7413-5h5.5953l6.5807,9.386-2.2982.2227-.2781.027-.1228.2509-1.0462,2.138L21.9389,13zm-2.1955,0H8v5h8.2377l3.5057-5zm-4.2068,6H9v23h11.0007l-.0013-17.9008-1.5376,2.1929-.4903.6994-.3698-.7699-1.2751-2.6551-2.8904-.2677-.8578-.0795.4946-.7054L15.5366,19zm5.4627,3.6731L21.0007,42H27V21.9605l-2.7506-3.9231-3.2501,4.6357zm2.6395-5.5066-2.7977-3.9903-6.4547,9.2063,2.3144.2144.282.0261.1226.2553,1.028,2.1404,5.5054-7.8522z"/></svg>