<svg width="24" height="24" viewBox="0,0,24,24" xmlns="http://www.w3.org/2000/svg"><path fill-rule="evenodd" clip-rule="evenodd" d="m22.5,0h-21C.675,0,0,.675,0,1.5v21c0,.825.675,1.5,1.5,1.5h21c.825,0,1.5-.675,1.5-1.5v-21c0-.825-.675-1.5-1.5-1.5z" fill="#2d327d"/><path fill-rule="evenodd" clip-rule="evenodd" d="m17.9699,3.6675c0,.3675-.3.6675-.6675.6675s-.6675-.3-.6675-.6675.3-.6675.6675-.6675c.375,0,.6675.3.6675.6675z" fill="#fff"/><path fill-rule="evenodd" clip-rule="evenodd" d="m20.9699,9.29247-.9-2.1225c-.06-.15-.2025-.24-.3675-.24h-1.545l-.0825-.6675h1.275c.135,0,.24-.105.24-.2475,0-.135-.1125-.24-.24-.24h-1.335l-.105-.8175c-.0375-.3-.315-.5175-.6225-.48-.3.0375-.5175.315-.48.615l.2625,2.13c0,.0225.015.09.015.0975,0,.2175.18.3975.3975.3975h1.9425l.8025,1.88251c.06.14999.21.23999.3675.23999.0525,0,.105-.0075.1575-.02999.21-.0825.3-.315.2175-.51751z" fill="#fff"/><path fill-rule="evenodd" clip-rule="evenodd" d="m19.7549,9.0225c-.33.555-.9375.93-1.6275.93-1.0425,0-1.89-.8475-1.89-1.89,0-.525.2175-.9975.5625-1.3425l-.075-.6525c-.6225.4425-1.0275,1.17001-1.0275,1.9875,0,1.3425,1.0876,2.4375,2.4375,2.4375.7576,0,1.4401-.3525,1.8826-.89249l-.2626-.57751z" fill="#fff"/><path fill-rule="evenodd" clip-rule="evenodd" d="m13.2225,12.7574-2.235,8.2425H9.17997l-1.425-5.8875-1.38,5.8875h-1.83l-2.1975-8.2425h1.8075l1.3275,6.06,1.4475-6.06h1.7025l1.44753,6.015,1.3425-6.015h1.8z" fill="#fff"/><path fill-rule="evenodd" clip-rule="evenodd" d="m21.2175,17.82c-.06.855-.345,1.5825-.855,2.19-.6675.795-1.62,1.1925-2.8425,1.1925-1.305,0-2.3175-.4575-3.045-1.38-.6225-.7875-.93-1.77-.93-2.9475,0-1.23.3675-2.265,1.1025-3.0825s1.7175-1.23,2.94-1.23c1.14,0,2.055.375,2.7525,1.125.495.5325.7725,1.14.825,1.83h-1.7775c-.0975-.465-.3075-.825-.6225-1.08-.3225-.255-.72-.3825-1.215-.3825-.78,0-1.365.33-1.755.99-.2925.5025-.435,1.11-.435,1.8375,0,.7425.15,1.365.4575,1.86.39.6375.96.9525,1.7175.9525.54,0,.975-.1575,1.2975-.48s.5175-.7875.5925-1.395h1.7925z" fill="#fff"/></svg>