<svg width="59" height="20" viewBox="0,0,59,20" xmlns="http://www.w3.org/2000/svg"><path fill-rule="evenodd" clip-rule="evenodd" d="m2,0C.89543,0,0,.895431,0,2v16c0,1.1046.895431,2,2,2h55c1.1046,0,2-.8954,2-2V2c0-1.104569-.8954-2-2-2H2z" fill="#eb0000"/><path fill-rule="evenodd" clip-rule="evenodd" d="m9.21999,4.19995h4.05621L8.25805,15.8H4.18506L9.21999,4.19995z" fill="#fff"/><path fill-rule="evenodd" clip-rule="evenodd" d="m25.9806,12.3663c.3663,0,.6984-.2172.8463-.5538l3.2922-7.61243h-14.135l-5.018,11.60003h4.0383l3.7989-8.69043h5.9937l-1.2015,2.7754-5.2259-.019,4.2169,5.93403h4.5974l-3.124-3.4338h1.9207z" fill="#fff"/><path fill-rule="evenodd" clip-rule="evenodd" d="m40.5715,9.77917c-.5523,0-.9918.23223-1.3179.69683-.2948.4118-.4421.9028-.4421,1.473,0,.565.1501,1.0586.4499,1.481.3261.47.7735.7046,1.3418.7046.5524,0,.997-.2242,1.3339-.673.3155-.4224.4734-.9212.4734-1.4968,0-.5648-.1421-1.048-.4262-1.4492-.3472-.4908-.8182-.73643-1.4128-.73643zm3.9068-2.653h-2.194c-.2053-.8922-.7104-1.3384-1.5154-1.3384-.8523,0-1.4575.5254-1.8153,1.576-.1473.4276-.2657,1.0744-.3552,1.9402.3472-.47.717-.8078,1.1091-1.0136.3918-.206.864-.3088,1.4166-.3088,1.0837,0,1.9545.3852,2.6123,1.156.6263.7288.9392,1.64203.9392,2.74003,0,1.3042-.421,2.3522-1.2627,3.144-.7576.7128-1.6681,1.0692-2.7307,1.0692-1.363,0-2.4232-.516-3.1809-1.5484-.7576-1.032-1.1363-2.472-1.1363-4.3198,0-1.97443.405-3.52143,1.2153-4.64063.7839-1.0822,1.8547-1.6236,3.2123-1.6236,1.2784,0,2.2573.4304,2.936,1.291.3893.4962.6393,1.1218.7497,1.8768z" fill="#fff"/><path fill-rule="evenodd" clip-rule="evenodd" d="m49.5611,9.77917c-.5523,0-.9918.23223-1.3179.69683-.2948.4118-.4421.9028-.4421,1.473,0,.565.1501,1.0586.4498,1.481.3261.47.7736.7046,1.3419.7046.5523,0,.997-.2242,1.3339-.673.3155-.4224.4734-.9212.4734-1.4968,0-.5648-.1422-1.048-.4262-1.4492-.3472-.4908-.8182-.73643-1.4128-.73643zm3.9068-2.653h-2.194c-.2053-.8922-.7104-1.3384-1.5155-1.3384-.8523,0-1.4574.5254-1.8152,1.576-.1473.4276-.2657,1.0744-.3552,1.9402.3472-.47.717-.8078,1.109-1.0136.3919-.206.8641-.3088,1.4166-.3088,1.0837,0,1.9546.3852,2.6124,1.156.6262.7288.9392,1.64203.9392,2.74003,0,1.3042-.421,2.3522-1.2627,3.144-.7577.7128-1.6682,1.0692-2.7308,1.0692-1.363,0-2.4232-.516-3.1808-1.5484-.7576-1.032-1.1363-2.472-1.1363-4.3198,0-1.97443.405-3.52143,1.2152-4.64063.784-1.0822,1.8547-1.6236,3.2123-1.6236,1.2785,0,2.2574.4304,2.9361,1.291.3893.4962.6392,1.1218.7497,1.8768z" fill="#fff"/></svg>