<svg width="24" height="24" viewBox="0,0,24,24" xmlns="http://www.w3.org/2000/svg"><path fill-rule="evenodd" clip-rule="evenodd" d="m22.5,0h-21C.675,0,0,.675,0,1.5v21c0,.825.675,1.5,1.5,1.5h21c.825,0,1.5-.675,1.5-1.5v-21c0-.825-.675-1.5-1.5-1.5z" fill="#2d327d"/><path fill-rule="evenodd" clip-rule="evenodd" d="m18.7125,14.175V14.1c0-.1275-.0975-.225-.225-.225H15.45l-2.025,3h-.75L9.375,12H7.53c-.1875,0-.3375.15-.3375.3375,0,.0675.0225.135.06.1875l.66.975h.675l-.5175.8025c-.48-.2325-1.0125-.36-1.545-.36C4.5825,13.9425,3,15.525,3,17.4675s1.5825,3.525,3.525,3.525,3.525-1.5825,3.525-3.525c0-1.0575-.4725-2.055-1.2825-2.7225l.4125-.6375,2.0025,2.955V18c0,.4125.3375.75.75.75h2.265c.525,1.3575,1.83,2.25,3.285,2.25,1.9425,0,3.525-1.5825,3.525-3.525-.0075-1.47-.9225-2.7825-2.295-3.3zm-9.6,3.3c0,1.4325-1.1625,2.5875-2.5875,2.5875S3.9375,18.9,3.9375,17.475,5.1,14.8875,6.525,14.8875c.3525,0,.705.075,1.035.2175L6.18,17.25c-.045.0675-.0675.1425-.0675.225,0,.225.1875.4125.4125.4125.1425,0,.27-.075.345-.1875l1.38-2.145c.5475.4875.8625,1.185.8625,1.92zm6.1125,1.275c.4575.81,1.32,1.3125,2.25,1.3125,1.425,0,2.5875-1.1625,2.5875-2.5875,0-.93-.5025-1.7925-1.3125-2.25V18c0,.4125-.3375.75-.75.75h-2.775z" fill="#fff"/><path fill-rule="evenodd" clip-rule="evenodd" d="m15.1875,13.5H18.75v-.75c0-.165-.135-.3-.3-.3h-3.4125c-.165,0-.3.135-.3.3,0,.06.0225.12.0525.165l.3975.585z" fill="#fff"/><path fill-rule="evenodd" clip-rule="evenodd" d="m7.275,11.5875h2.6625v-.675H7.275c-.1875,0-.3375.15-.3375.3375s.15.3375.3375.3375z" fill="#fff"/><path fill-rule="evenodd" clip-rule="evenodd" d="m4.815,3H3v4.5h.9825V5.88H4.98c.255,0,.4725-.0225.6525-.075s.3375-.135.4725-.2475c.3225-.27.4875-.6375.4875-1.11,0-.525-.195-.9225-.585-1.185-.135-.0975-.3-.165-.4725-.2025S5.1225,3,4.815,3zm-.8325,2.1075v-1.275L4.8,3.84c.27,0,.465.0375.585.12.165.105.2475.2775.2475.5025s-.0675.3975-.21.51c-.1125.09-.3.135-.5625.135h-.8775z" fill="#fff"/></svg>