<svg width="24" height="24" viewBox="0,0,24,24" xmlns="http://www.w3.org/2000/svg"><path fill-rule="evenodd" clip-rule="evenodd" d="m22.5,0h-21C.675,0,0,.675,0,1.5v21c0,.825.675,1.5,1.5,1.5h21c.825,0,1.5-.675,1.5-1.5v-21c0-.825-.675-1.5-1.5-1.5z" fill="#2d327d"/><path fill-rule="evenodd" clip-rule="evenodd" d="m5.49011,18.1801h-2.1225c.105.9375.4875,1.695,1.14,2.2575.66.5625,1.4925.84,2.505.84,1.515,0,2.6475-.72,3.39749-2.16.5775-1.1025.8625-2.445.8625-4.0125,0-1.695-.3225-3.015-.975-3.9525-.37499-.525-.83249-.9375-1.37249-1.22254-.5475-.285-1.14-.4275-1.7775-.4275-1.0425,0-1.935.3375-2.6775,1.01254-.8625.78-1.2975,1.8075-1.2975,3.075,0,.63.12,1.2225.36,1.755s.57.975.9975,1.3125c.6075.48,1.3275.72,2.1525.72.5175,0,.96-.105,1.32-.3075s.7125-.5475,1.0575-1.0275c-.045.5475-.12,1.0425-.225,1.47-.1575.675-.39,1.17-.6825,1.4925s-.675.48-1.1475.48c-.8325,0-1.3425-.435-1.515-1.305zm.3975-6.2025c.33-.3975.7425-.5925,1.2225-.5925.5325,0,.9675.2175,1.2975.6375.315.4125.4725.9075.4725,1.5,0,.5625-.1575,1.0425-.4575,1.4475-.3225.4275-.75.645-1.29.645-.6,0-1.0575-.27-1.3875-.795-.24-.3825-.36-.825-.36-1.32,0-.615.1725-1.125.5025-1.5225z" fill="#fff"/><path fill-rule="evenodd" clip-rule="evenodd" d="m19.0801,10.275c-.645-.52496-1.4025-.78745-2.2575-.78745-.675,0-1.29.15749-1.86.48749-.555.31496-1.005.76496-1.35,1.34996-.6075,1.02-.9075,2.3775-.9075,4.0725,0,2.385.585,4.065,1.74,5.0475.6525.555,1.44.8325,2.355.8325.675,0,1.2825-.165,1.83-.495s.99-.795,1.3275-1.4025c.5775-1.0425.8625-2.37.8625-3.9825,0-.975-.1125-1.875-.33-2.7075-.2925-1.0875-.765-1.89-1.41-2.415zm-3.8475,2.385c.27-.8475.7725-1.275,1.5075-1.275.7575,0,1.275.4275,1.5525,1.275.2175.66.3225,1.5675.3225,2.715,0,1.35-.15,2.355-.45,3.0075-.3075.6525-.765.9825-1.3875.9825-.75,0-1.26-.42-1.5375-1.2675-.2175-.6525-.3225-1.515-.3225-2.595,0-1.215.105-2.1675.315-2.8425z" fill="#fff"/><path fill-rule="evenodd" clip-rule="evenodd" d="m5.03255,3-.75,2.25h-.555L2.99255,3h.51l.5025,1.68751L4.51505,3h.5175z" fill="#fff"/><path fill-rule="evenodd" clip-rule="evenodd" d="m6.47251,3.76502c-.1575-.1575-.3525-.24-.6-.24-.27,0-.4875.09-.645.2625-.1425.165-.2175.3675-.2175.6225s.075.465.225.63c.15.17251.36.255.6225.255.2475,0,.45-.08249.6-.23249.165-.16501.2475-.38251.2475-.66001,0-.2625-.0825-.48-.2325-.6375zm-.9075.24751c.075-.09751.165-.14251.285-.14251.1275,0,.2325.0525.2925.15001.0675.08999.105.225.105.39,0,.18-.0375.31499-.1125.4125-.0675.0825-.165.1275-.2775.1275-.12,0-.2175-.05251-.2925-.14251-.0675-.09-.105-.225-.105-.3975,0-.17249.0375-.3.105-.39749z" fill="#fff"/><path fill-rule="evenodd" clip-rule="evenodd" d="m7.4475,3.405V3H7.005v.405h.4425zm0,1.845V3.57H7.005v1.68h.4425z" fill="#fff"/><path fill-rule="evenodd" clip-rule="evenodd" d="m9.1951,4.98747c.06-.08251.105-.16501.1275-.26251h-.435c-.03.075-.075.135-.1275.1725s-.12.0525-.2025.0525c-.1725,0-.285-.0675-.345-.2175-.0225-.0525-.03-.12-.0375-.2025h1.1775c0-.2025-.015-.3675-.0675-.495s-.12-.24-.225-.33c-.1425-.1275-.315-.1875-.5175-.1875-.2475,0-.45.09-.6075.2775-.1425.165-.21.36751-.21.615,0,.12.015.2475.06.36.045.105.0975.2025.1725.2775.15.1575.3525.24001.6.24001.2775,0,.4875-.09752.6375-.3zm-.3525-.96001c.0225.0525.045.12.0525.2025l-.705-.0075c.0075-.1125.045-.2025.1125-.27s.15-.0975.2475-.0975c.06,0,.12.015.1725.045s.09.075.12.1275z" fill="#fff"/></svg>