<svg width="24" height="24" viewBox="0,0,24,24" xmlns="http://www.w3.org/2000/svg"><path fill-rule="evenodd" clip-rule="evenodd" d="m22.5,0h-21C.675,0,0,.675,0,1.5v21c0,.825.675,1.5,1.5,1.5h21c.825,0,1.5-.675,1.5-1.5v-21c0-.825-.675-1.5-1.5-1.5z" fill="#2d327d"/><path fill-rule="evenodd" clip-rule="evenodd" d="m12,7.815C9.69,7.815,7.815,9.69,7.815,12S9.69,16.185,12,16.185,16.185,14.31,16.185,12,14.31,7.815,12,7.815z" fill="#fff"/><path fill-rule="evenodd" clip-rule="evenodd" d="m7.56001,17.25-.135,3.09,1.0725-1.0725V15.495h-3.765l-1.0725,1.08,3.09-.135-3.885,3.885.81.81,3.885-3.885z" fill="#fff"/><path fill-rule="evenodd" clip-rule="evenodd" d="m3.66001,7.42499,1.0725,1.0725h3.765v-3.765l-1.0725-1.08.135,3.0975-3.885-3.885-.81.81,3.885,3.885-3.09-.135z" fill="#fff"/><path fill-rule="evenodd" clip-rule="evenodd" d="m20.34,16.575-1.0725-1.08h-3.765v3.7725L16.575,20.34l-.135-3.09,3.885,3.885.81-.81L17.25,16.44l3.09.135z" fill="#fff"/><path fill-rule="evenodd" clip-rule="evenodd" d="m16.44,6.74999.135-3.0975-1.0725,1.08v3.765h3.765l1.0725-1.0725-3.09.135,3.885-3.885-.81-.81-3.885,3.885z" fill="#fff"/></svg>