<svg width="48" height="48" xmlns="http://www.w3.org/2000/svg"><path fill-rule="evenodd" clip-rule="evenodd" d="m10.9999,15.5002c0-5.79781,4.7022-10.49996,10.5-10.49996,5.7979,0,10.5,4.70215,10.5,10.49996,0,5.7998-4.7021,10.5-10.5,10.5s-10.5-4.7002-10.5-10.5zm10.5-11.49996c-6.3501,0-11.49998,5.14986-11.49998,11.49996,0,6.3522,5.14988,11.5,11.49998,11.5s11.5-5.1478,11.5-11.5c0-6.3501-5.1498-11.49996-11.5-11.49996zm.5,18.99996v-7h7v-1h-7V8.00024h-1v6.99996h-7v1h7v7h1zM6.31215,31.1095c-1.04004-.832-1.003-1.9073-.53043-2.5689.24144-.338.59397-.5669.99197-.6238.39074-.0558.88016.0467,1.41373.4736,1.26807,1.0145,3.70098,2.7025,5.80098,4.1271,1.0534.7146,2.0283,1.3665,2.7399,1.8396.3558.2366.6459.4286.847.5615l.2322.1532.0176.0116c.0422.0498.0867.0982.1336.1451.4796.4796,1.1746.7714,2.0411.7715h4v-1h-4c-.6335-.0001-1.0636-.2082-1.334-.4786-.2751-.2751-.416-.6452-.416-1.0215s.1409-.7463.416-1.0214c.2704-.2704.7004-.4786,1.334-.4785h3.5c1.3687,0,2.3122.1221,3.2081.413.8975.2914,1.7743.7603,3.0058,1.4984l11.3607,9.0885H29.0472L27.9121,43h-.2052l-1.8535-1.8536L25.7069,41h-8.0171l-.2498-.2217c-.2511-.2228-.6126-.5433-1.0542-.934-.8831-.7816-2.0867-1.8445-3.3686-2.9701-2.5589-2.2469-5.444-4.7559-6.70505-5.7647zm8.23765.5805c1.0343.7016,1.9931,1.3428,2.7,1.813v-.0031c0-.6237.234-1.2537.7089-1.7285.4797-.4796,1.1747-.7715,2.0411-.7714h3.5c1.4313,0,2.4878.1277,3.5169.4619,1.0205.3313,1.987.8573,3.2403,1.6092l.0289.0173.0262.0211,12.5,10,1.1131.8904h-14.878L27.9121,44h-.4122c-.0001,0-.0001,0-.0001-.5v.5h-.2071l-2-2h-7.983l-.1421-.1263.3322-.3737c-.3322.3737-.3322.3736-.3323.3736l-.0003-.0003-.0012-.0011-.0049-.0043-.0193-.0172-.0757-.0672-.2897-.2572c-.2509-.2225-.612-.5427-1.0533-.9332-.8825-.7809-2.0851-1.843-3.3657-2.9675-2.5661-2.2531-5.43103-4.7441-6.66994-5.7352-1.45993-1.1679-1.4969-2.8426-.71947-3.931.38357-.537.96853-.9331,1.66426-1.0325.70298-.1005,1.46351.1095,2.17988.6826,1.23177.9855,3.63077,2.6513,5.73767,4.0805z"/></svg>