<svg width="48" height="48" xmlns="http://www.w3.org/2000/svg"><path fill-rule="evenodd" clip-rule="evenodd" d="m12,15.4998c0-6.35119,5.1489-11.50004,11.5-11.50004S35,9.14861,35,15.4998v.0044c-.017,1.9104-.6185,3.6101-1.5348,5.2154l-.0039.0069-.0042.0068-9.531,15.528-.4275.6965-.4255-.6977-9.469-15.528-.002-.0033h.0001c-.9343-1.5584-1.524-3.2261-1.6018-5.2095L12,15.5096v-.0098zm1-.0098c.0717,1.7856.5992,3.2886,1.4589,4.7231l.0009.0016,9.0416,14.827,9.0993-14.8247c.855-1.4998,1.3839-3.0294,1.3993-4.7195-.0012-5.79784-4.7019-10.49774-10.5-10.49774-5.7956,0-10.4947,4.69584-10.5,10.49024zM7.8326,32.2778c2.2938-1.0435,5.5001-1.8416,9.213-2.2747l.1158.9933c-3.6521.4259-6.7477,1.2058-8.91472,2.1916-1.08466.4934-1.91187,1.0274-2.46078,1.5737-.54752.5449-.78639,1.068-.78639,1.5581,0,.6224.38914,1.3026,1.29227,1.9984.89573.6901,2.22397,1.3349,3.91202,1.8864,3.3706,1.1012,8.0658,1.7952,13.2957,1.7952,5.2304,0,9.9256-.694,13.2961-1.7952,1.688-.5515,3.0161-1.1963,3.9118-1.8864.903-.6958,1.2921-1.376,1.2921-1.9984,0-.4862-.2352-1.0049-.7739-1.5454-.5403-.5421-1.3548-1.0725-2.4239-1.5635-2.1359-.9811-5.1895-1.7608-8.7977-2.1937l.1191-.9929c3.6687.4401,6.8332,1.2385,9.096,2.2778,1.1303.5192,2.0603,1.1097,2.7148,1.7663.6559.6582,1.0656,1.416,1.0656,2.2514,0,1.071-.6688,2.01-1.6818,2.7905-1.0205.7863-2.4666,1.4747-4.2115,2.0449-3.4953,1.142-8.3001,1.8446-13.6067,1.8446-5.3061,0-10.1109-.7026-13.60627-1.8446-1.74495-.5702-3.19122-1.2586-4.21174-2.0448-1.01311-.7805-1.68198-1.7196-1.68198-2.7906,0-.842.41601-1.6051,1.08095-2.2669.66356-.6604,1.60642-1.2539,2.75214-1.7751zM22,15.0002c0-1.7721,1.4935-3,3-3h3v7h-3c-1.7337,0-3-1.4176-3-3v-1zm3-4c-1.3672,0-2.7369.7572-3.465,1.9996h-2.5352v2H15v1h3.9998v2h2.5383c.6737,1.1697,1.9278,2.0004,3.4619,2.0004h4v-2.0004h3v-1h-3v-3h3v-1h-3v-1.9996h-4zm-5.0002,2.9996h1.1241c-.0805.315-.1239.6494-.1239,1.0004v1c0,.3409.0443.6765.1283.9996h-1.1285v-3z"/></svg>