<svg width="36" height="36" xmlns="http://www.w3.org/2000/svg"><path fill-rule="evenodd" clip-rule="evenodd" d="m3.25,6.24951h29.5v6.99999h-.5c-2.2739,0-4,1.7262-4,4,0,2.2739,1.7261,4,4,4h.5v7H3.25V6.24951zm1,1V27.2495h27.5v-5.023c-2.5785-.2395-4.5-2.32-4.5-4.977s1.9215-4.7375,4.5-4.977V7.24951H4.25zm6.2456,2.99629c-.96607,0-1.74999.7829-1.74999,1.75,0,.9672.78392,1.75,1.74999,1.75.9674,0,1.75-.7826,1.75-1.75,0-.9673-.7826-1.75-1.75-1.75zm-2.74999,1.75c0-1.5198,1.23207-2.74995,2.74999-2.74995,1.5196,0,2.75,1.23035,2.75,2.74995,0,1.5197-1.2304,2.75-2.75,2.75-1.51792,0-2.74999-1.2301-2.74999-2.75zM14.75,22.4995c0-.9661.7829-1.75,1.75-1.75.9659,0,1.75.7842,1.75,1.75,0,.9672-.7839,1.75-1.75,1.75-.9674,0-1.75-.7826-1.75-1.75zm1.75-2.75c-1.5199,0-2.75,1.2321-2.75,2.75,0,1.5197,1.2304,2.75,2.75,2.75,1.5179,0,2.75-1.2301,2.75-2.75,0-1.5181-1.2319-2.75-2.75-2.75zm4.1036-8.8964-13.50005,13.5-.7071-.7071,13.49995-13.5.7072.7071zM24.25,7.49951v.4875h1v-.4875h-1zm0,1.4625v.975h1v-.975h-1zm0,1.94999v.975h1v-.975h-1zm0,1.95v.975h1v-.975h-1zm0,1.95v.975h1v-.975h-1zm0,1.95v.975h1v-.975h-1zm0,1.95v.975h1v-.975h-1zm0,1.95v.975h1v-.975h-1zm0,1.95v.975h1v-.975h-1zm0,1.95v.975h1v-.975h-1zM24.25,26.512v.4875h1v-.4875h-1z"/></svg>