<svg width="28" height="16" xmlns="http://www.w3.org/2000/svg"><path fill-rule="evenodd" clip-rule="evenodd" d="m9.462,3.13252c1.46,0,2.801.29177,3.881.9703l.7-2.34674C12.582,1.21325,10.943,1,9.382,1,4.341,1,1,4.04369,1,8.9892,1,13.1767,3.74,15,7.842,15c1.359,0,2.92-.2714,3.74-.601l1.601-7.3882H7.522l-.46,2.13349h2.96l-.781,3.58651c-.319.1367-.74.1367-1.379.1367-2.381,0-3.941-1.7652-3.941-3.95585,0-3.19975,2.14-5.77913,5.541-5.77913zm10.4587,3.87831h-1.02l.78-3.64564h1.16c1.14,0,2.401,0,2.401,1.41618,0,1.78357-1.82,2.22946-3.321,2.22946zm.68-5.77818h-3.301l-2.92,13.53475h2.8l1.221-5.6231h1.06c1.2901,0,1.4276.72625,1.6353,1.8237.0371.1956.0763.4029.1247.62l.68,3.1794h2.941l-1.34-5.44862c-.18-.73766-.661-1.20196-1.42-1.24074v-.03877c2.28-.03877,4.08-1.28048,4.08-3.60687,0-3.20072-2.9118-3.20021-5.4705-3.19976-.0302.00001-.0604.00001-.0905.00001z"/></svg>