<svg width="27" height="16" xmlns="http://www.w3.org/2000/svg"><path fill-rule="evenodd" clip-rule="evenodd" d="m21.7823,3.13349c1.5,0,2.56.36834,3.2.79485l.7-2.26823c-1.221-.48466-2.7-.66011-4.1-.66011-4.942,0-8.002,3.21914-8.002,7.58208,0,3.66502,2.02,6.41792,6.241,6.41792,1.06,0,2.14-.096,3.161-.3683l.439-2.5978c-.799.4652-1.759.8336-2.94.8336-2.461,0-3.98-2.0172-3.98-4.28542,0-3.17939,2.179-5.44859,5.281-5.44859zM3.8,1.23334H1L2.84,14.7671h3.341l7.802-13.53376h-3.041L5.141,11.7622h-.04L3.8,1.23334z"/></svg>