<svg width="24" height="24" xmlns="http://www.w3.org/2000/svg"><path fill-rule="evenodd" clip-rule="evenodd" d="m22.5,0h-21C.675,0,0,.675,0,1.5v21c0,.825.675,1.5,1.5,1.5h21c.825,0,1.5-.675,1.5-1.5v-21c0-.825-.675-1.5-1.5-1.5z" fill="#2d327d"/><path fill-rule="evenodd" clip-rule="evenodd" d="m20.5651,10.0875L7.41006,14.88c-.2475.09-.51.075-.7425-.03,0,0-.6375-.3-1.3575-.63l.6375,1.755c.1125.3075.4575.4725.7725.36l13.67254-4.98c.3075-.1125.4725-.4575.36-.765l-.1875-.5025z" fill="#fff"/><path fill-rule="evenodd" clip-rule="evenodd" d="m2.94751,12.1125.1725.48c.0525.1425.1575.27.3075.3375l3.3825,1.575c.1425.0675.3.075.4575.0225L20.565,9.68997c.3075-.1125.4725-.4575.36-.765l-1.08-2.955L2.94751,12.1125z" fill="#fff"/><path fill-rule="evenodd" clip-rule="evenodd" d="m14.925,16.125h.6525l-.855-2.34-2.1075.765.915,2.52c.225-.5475.765-.945,1.395-.945z" fill="#fff"/><path fill-rule="evenodd" clip-rule="evenodd" d="m13.8,17.625c0-.6225.5025-1.125,1.125-1.125H21v2.25h-6.075c-.6225,0-1.125-.5025-1.125-1.125zm.375,0c0,.4125.3375.75.75.75.42,0,.75-.3375.75-.75s-.3375-.75-.75-.75-.75.3375-.75.75z" fill="#fff"/><path fill-rule="evenodd" clip-rule="evenodd" d="m5.08504,3-.75,2.25h-.555L3.04504,3h.51l.5025,1.6875L4.56754,3h.5175z" fill="#fff"/><path fill-rule="evenodd" clip-rule="evenodd" d="m5.72253,3.405V3h-.4425v.405h.4425zm0,1.845V3.57h-.4425v1.68h.4425z" fill="#fff"/><path fill-rule="evenodd" clip-rule="evenodd" d="m7.66501,5.25V3h-.44249v.7725c-.105-.1725-.27-.255-.495-.255-.22501,0-.40501.09-.54001.27-.11249.15-.1725.36-.1725.6075,0,.27.06.48.195.645s.315.2475.54.2475.39-.0825.4875-.2625v.225h.4275zm-1.1025-1.2375c.0675-.0825.165-.1275.2775-.1275.12,0,.2175.045.2925.1275.0675.09.105.2175.105.39,0,.1575-.03749.285-.105.375-.0675.09-.165.135-.285.135s-.2175-.045-.285-.135c-.0675-.0975-.105-.225-.105-.3825,0-.165.0375-.2925.105-.3825z" fill="#fff"/><path fill-rule="evenodd" clip-rule="evenodd" d="m9.39004,4.98746c.06-.0825.105-.165.1275-.2625h-.4275c-.03.075-.075.135-.1275.1725s-.12.0525-.2025.0525c-.1725,0-.285-.0675-.345-.2175-.0225-.0525-.03-.12-.0375-.2025h1.17c0-.2025-.015-.3675-.0675-.495s-.12-.24-.225-.33c-.14249-.1275-.315-.1875-.5175-.1875-.2475,0-.44999.09-.6075.2775-.1425.165-.21.3675-.21.615,0,.12.015.2475.06.36.045.105.0975.2025.17251.2775.14999.1575.35249.24.59999.24.2775,0,.4875-.09751.6375-.3zm-.30072-.765c.00025.00248.0005.00498.00072.0075v-.0075h-.00072zm0,0c-.00815-.0791-.02996-.1441-.05177-.195-.03-.0525-.0675-.0975-.12001-.1275-.0525-.03-.1125-.045-.1725-.045-.0975,0-.18.03-.2475.0975s-.105.1575-.1125.27h.70428z" fill="#fff"/><path fill-rule="evenodd" clip-rule="evenodd" d="m11.2201,3.76502c-.1575-.1575-.3525-.24-.6-.24-.27,0-.4875.09-.64503.2625-.1425.165-.2175.3675-.2175.6225s.075.465.225.63c.15003.1725.36003.255.62253.255.2475,0,.45-.0825.6-.2325.165-.165.2475-.3825.2475-.66,0-.2625-.0825-.48-.2325-.6375zm-.9075.2475c.075-.0975.165-.1425.285-.1425.1275,0,.225.0525.2925.15001.0675.08999.105.22499.105.39,0,.18-.0375.31499-.1125.41249-.0675.0825-.165.1275-.2775.1275-.12,0-.2175-.0525-.2925-.1425-.0675-.09-.105-.225-.105-.3975s.0375-.3.105-.3975z" fill="#fff"/></svg>