<svg width="36" height="36" xmlns="http://www.w3.org/2000/svg"><path fill-rule="evenodd" clip-rule="evenodd" d="m26.4438,4.8877-.5245,1.038c-.9744,1.92843-.5263,4.3205.9121,5.9338,1.4129,1.5848,3.7924,2.4195,6.7239,1.1802l1.1712-.4951-.5202,1.1602c-.8103,1.8071-2.3797,2.9702-3.9621,3.6025-1.2082.4827-2.48.6779-3.499.5849.0215.2288.0232.4604.0052.6907-.0707.9051-.4472,1.8245-1.1621,2.5202-.721.7017-1.7568,1.1472-3.0879,1.1472h-10.5c-1.3748,0-2.41681-.4424-3.12467-1.1556-.70163-.707-1.03354-1.6383-1.07309-2.5477-.0394-.906.20925-1.825.71355-2.5299.41623-.5818,1.01425-1.0239,1.75761-1.1672.0072-2.8024,2.9424-4.3593,5.1346-3.1338,1.3286-2.36779,3.8027-2.95413,5.8-2.22963.0578.02095.1151.043.1721.06613.4362-1.27481.9484-2.19826,1.559-2.87354.7042-.77873,1.509-1.19405,2.3901-1.45784l1.1142-.33352zm3.4294,11.491c-1.2769.5101-2.5493.6288-3.378.4706-.1135-.2818-.2635-.5471-.4504-.786-.4412-.5639-1.0741-.961-1.8648-1.0791.2459-1.2538.0651-2.374-.4163-3.2933-.3592-.6859-.8786-1.246-1.4888-1.6604.4206-1.27723.8926-2.11253,1.4064-2.68075.2829-.31292.5861-.55316.9155-.74334-.5483,2.07298.0746,4.33319,1.4881,5.91859,1.4697,1.6484,3.7866,2.5674,6.5301,1.8832-.7202.9065-1.7074,1.5572-2.7418,1.9705zm-9.0058-5.9522c-1.6857-.61144-3.7993-.0643-4.8095,2.2256l-.2655.6017-.5088-.4167c-1.6279-1.3334-4.2821-.069-3.9867,2.4038l.0668.5594h-.5633c-.6158,0-1.11614.3028-1.47092.7987-.36092.5045-.55852,1.198-.52779,1.9045.03058.7031.28517,1.3843.78381,1.8867.4924.4962,1.2645.8601,2.4149.8601h10.5c1.0959,0,1.8736-.3608,2.3905-.8638.523-.5091.8087-1.1928.8625-1.8814.0541-.6922-.1282-1.3553-.4962-1.8257-.3571-.4564-.9093-.7606-1.6868-.7295l-.6984.0279.1991-.67c.3789-1.2744.2331-2.3388-.1933-3.1529-.4296-.8204-1.1617-1.4205-2.0104-1.7284zM14.75,25.4998c0-.1379.1121-.25.25-.25s.25.1121.25.25c0,.1378-.1121.25-.25.25s-.25-.1122-.25-.25zm.25-1.25c-.6901,0-1.25.5598-1.25,1.25,0,.6901.5599,1.25,1.25,1.25s1.25-.5599,1.25-1.25c0-.6902-.5599-1.25-1.25-1.25zm6,1c-.1379,0-.25.1121-.25.25,0,.1378.1121.25.25.25s.25-.1122.25-.25c0-.1379-.1121-.25-.25-.25zm-1.25.25c0-.6902.5599-1.25,1.25-1.25s1.25.5598,1.25,1.25c0,.6901-.5599,1.25-1.25,1.25s-1.25-.5599-1.25-1.25zm-2,4.5c0-.1379.1121-.25.25-.25s.25.1121.25.25c0,.1378-.1121.25-.25.25s-.25-.1122-.25-.25zm.25-1.25c-.6901,0-1.25.5598-1.25,1.25,0,.6901.5599,1.25,1.25,1.25s1.25-.5599,1.25-1.25c0-.6902-.5599-1.25-1.25-1.25z"/></svg>