<svg width="24" height="24" xmlns="http://www.w3.org/2000/svg"><path fill-rule="evenodd" clip-rule="evenodd" d="m22.5,0h-21C.675,0,0,.675,0,1.5v21c0,.825.675,1.5,1.5,1.5h21c.825,0,1.5-.675,1.5-1.5v-21c0-.825-.675-1.5-1.5-1.5z" fill="#2d327d"/><path fill-rule="evenodd" clip-rule="evenodd" d="m5.655,13.9199h9.135c1.005,0,1.815.8175,1.8225,1.83,0,1.005-.8175,1.8225-1.8225,1.8225H4.8825v-.7125H7.695v-2.22H5.67c-.12.1875-.33001.3225-.57.3225-.3675,0-.6675-.3-.6675-.6675s.3-.6675.6675-.6675c.2325,0,.435.1125.555.2925zm2.74499,2.925H14.79c.6075,0,1.11-.495,1.1025-1.11,0-.615-.495-1.11-1.11-1.11H8.39999v2.22z" fill="#fff"/><path fill="#fff" d="m3,3v18h.7125V3z"/><path fill-rule="evenodd" clip-rule="evenodd" d="m13.7775,12.8476L12.69,11.7601v-.8775l.7425.7425c-.18-3.50998-3-6.32998-6.50999-6.50998l.7425.7425h-.8775l-1.0875-1.0875,1.0875-1.0875h.8775l-.765.7575c3.89249.1725,7.02749,3.3075,7.19999,7.19998l.7575-.765v.8775l-1.08,1.095z" fill="#fff"/></svg>