<svg width="17" height="16" xmlns="http://www.w3.org/2000/svg"><path fill-rule="evenodd" clip-rule="evenodd" d="m4.89148,9.7887L2.98306,7.64104,2.12776,6.6133c-.46112-.63628-.69245-1.35721-.69245-2.16277,0-1.09424.4033-2.12651,1.20989-3.09983l.19936-.21613.09893-.13451,4.84107,5.46211-.00609-2.06756,3.74233-3.39304.8872.95368L9.08424,4.97044l.00152,1.58997,4.10144-3.75879.9146.97937L9.97453,7.53373l1.61627.10429,3.3115-2.99101.9086.93705L12.0854,8.9771,9.88626,8.83352,14.0303,13.5082l-1.7075,1.4917L8.03871,10.165l-.09283-.34304-.10653.32494-5.31286,4.853L1.00006,13.348,4.89148,9.7887zM3.01654,3.47418c-.06088.14509-.10349.28565-.12784.4247-.02283.13753-.035.27355-.035.40656,0,.66349.24654,1.27711.74115,1.84387l.50982.57584,1.83386,2.09476,1.08661-.97181L3.16872,3.46813,3.0348,3.11296l-.01826.36122z"/></svg>