<svg width="24" height="24" xmlns="http://www.w3.org/2000/svg"><path fill-rule="evenodd" clip-rule="evenodd" d="m22.5,0h-21C.675,0,0,.675,0,1.5v21c0,.825.675,1.5,1.5,1.5h21c.825,0,1.5-.675,1.5-1.5v-21c0-.825-.675-1.5-1.5-1.5z" fill="#2d327d"/><path fill-rule="evenodd" clip-rule="evenodd" d="m20.625,3.375v1.5h-3.75v.375H21V3H3v2.25h4.125v-.375h-3.75v-1.5h17.25z" fill="#fff"/><path fill-rule="evenodd" clip-rule="evenodd" d="m13.035,7.68747c-.2175,0-.735,0-.735.375,0,.3675.51.3675.735.3675.24,0,.75,0,.75-.3675,0-.375-.51-.375-.75-.375z" fill="#fff"/><path fill-rule="evenodd" clip-rule="evenodd" d="m13.035,9.64499c-.2175,0-.735,0-.735.37501,0,.3675.51.3675.735.3675.24,0,.75,0,.75-.3675,0-.37501-.51-.37501-.75-.37501z" fill="#fff"/><path fill-rule="evenodd" clip-rule="evenodd" d="m10.215,13.5375H8.25v.375h1.965v-.375z" fill="#fff"/><path fill-rule="evenodd" clip-rule="evenodd" d="m15.75,13.9125V4.125h-.375v9.4125H12.3v.375h3.45z" fill="#fff"/><path fill="#fff" d="m9,14.2875v.375h1.215v-.375z"/><path fill-rule="evenodd" clip-rule="evenodd" d="m16.5,4.125h-.375v10.1625H12.3v.375h4.2V4.125z" fill="#fff"/><path fill-rule="evenodd" clip-rule="evenodd" d="m11.325,12.2475c-.09.0075-.1725.0225-.255.0525-.3975.15-.69.4725-.8025.8625H7.5V4.125H15v9.03h-2.7c-.0075-.5025-.42-.9075-.9225-.9075h-.0525zm1.4025-.57h1.365l-.0075-.465h-2.1v.3675c.3225.0525.4275.345.42.6675h.3225v-.57zm.3075-4.455c.84,0,1.1025.3825,1.1025.84,0,.45-.2625.8325-1.1025.8325-.8175,0-1.08-.3825-1.08-.8325s.2625-.84,1.08-.84zM14.1375,10.0275c0-.4575-.2625-.84-1.1025-.84-.8175,0-1.08.3825-1.08.84,0,.45.2625.8325,1.08.8325.84,0,1.1025-.3825,1.1025-.8325z" fill="#fff"/><path fill-rule="evenodd" clip-rule="evenodd" d="m3.1725,18.3826L5.79,21.0001H12v-7.8225c0-.345-.2775-.6225-.6225-.6225-.015,0-.03,0-.045,0-.0525,0-.1125.0075-.1575.0299-.3975.1425-.66.525-.66.9451V15.72c0,.2701-.2175.4875-.48.4875h-1.26c-.195,0-.3825-.0825-.525-.2175l-4.0575-4.05c-.27-.27-.705-.27-.975,0s-.27.705,0,.975L7.53,17.2275l-.24.24-3.855-3.8549-.2625.2625c-.1125.1125-.1725.2625-.1725.42s.06.3075.1725.42l3.45,3.4425-.24.2325L3.435,15.4426l-.2625.2625c-.1125.1125-.1725.2625-.1725.42s.06.3075.1725.42L5.7,19.0726l-.2325.24-2.025-2.025-.2625.2625c-.1125.1125-.1725.2625-.1725.42-.0075.15.0525.3.165.4125z" fill="#fff"/></svg>