<svg width="24" height="24" xmlns="http://www.w3.org/2000/svg"><path fill-rule="evenodd" clip-rule="evenodd" d="m9.5,8.99976c0-1.73197,1.1887-3,2.5-3s2.5,1.26803,2.5,3c0,1.73194-1.1887,3.00004-2.5,3.00004s-2.5-1.2681-2.5-3.00004zm2.5-4c-2.00269,0-3.5,1.86596-3.5,4,0,.92922.28389,1.80764.76978,2.50324C6.47282,12.9019,5,16.3669,5,19.5v.5h14v-.5c0-3.1497-1.4746-6.6059-4.2697-7.997.4858-.6957.7697-1.57405.7697-2.50324,0-2.13404-1.4973-4-3.5-4zm2.0156,7.27454c-.5617.4541-1.2519.7255-2.0156.7255-.7639,0-1.4543-.2716-2.01615-.7259C7.61923,13.2905,6.16607,16.1356,6.01337,19H17.9868c-.1522-2.8799-1.6079-5.7167-3.9712-6.7257z"/></svg>