<svg width="36" height="36" xmlns="http://www.w3.org/2000/svg"><path fill-rule="evenodd" clip-rule="evenodd" d="m26.4439,4.8877-.5245,1.038c-.9744,1.92843-.5263,4.3205.9121,5.9338,1.413,1.5848,3.7924,2.4195,6.724,1.1802l1.1711-.4951-.5202,1.1602c-.8103,1.8071-2.3797,2.9702-3.9621,3.6025-1.1621.4643-2.3833.6626-3.3816.5943.027.2207.035.4443.0239.6673-.0454.912-.4123,1.8392-1.1509,2.5389-.7428.7036-1.8244,1.1425-3.2355,1.1425h-10.5c-1.3749,0-2.41685-.4424-3.12471-1.1556-.70164-.707-1.03355-1.6383-1.0731-2.5477-.0394-.906.20926-1.825.71355-2.5299.41624-.5818,1.01426-1.0239,1.75756-1.1672.0073-2.8024,2.9424-4.3593,5.1347-3.1338,1.3286-2.36779,3.8027-2.95413,5.8-2.22963.0578.02099.1153.04308.1724.06626.4362-1.27488.9484-2.19836,1.5591-2.87367.7041-.77873,1.5089-1.19405,2.3901-1.45784l1.1141-.33352zm3.4294,11.491c-1.2325.4924-2.461.6201-3.2901.4861-.1271-.2928-.293-.5673-.497-.813-.4623-.5564-1.1105-.9509-1.9063-1.068.2457-1.2536.0649-2.3737-.4165-3.2929-.3591-.6857-.8783-1.2458-1.4885-1.6602.4207-1.27734.8927-2.1127,1.4065-2.68095.2829-.31292.5861-.55316.9155-.74334-.5483,2.07298.0747,4.33319,1.4882,5.91859,1.4697,1.6484,3.7866,2.5674,6.53,1.8832-.7202.9065-1.7074,1.5572-2.7418,1.9705zm-9.0061-5.9522c-1.6857-.61144-3.7993-.0643-4.8096,2.2256l-.2654.6017-.5089-.4167c-1.6278-1.3334-4.2821-.069-3.9867,2.4038l.0669.5594h-.5633c-.6158,0-1.11618.3028-1.47096.7987-.36092.5045-.55852,1.198-.52779,1.9045.03057.7031.28516,1.3843.78381,1.8867.49244.4962,1.26454.8601,2.41494.8601h10.5c1.1966,0,2.0188-.3674,2.5478-.8685.5332-.5051.8059-1.1809.8399-1.8627.0341-.6856-.1746-1.3512-.5709-1.8283-.3873-.4661-.9679-.7721-1.7468-.7409l-.6985.0279.1992-.67c.3789-1.2744.233-2.3388-.1934-3.1529-.4296-.8204-1.1616-1.4205-2.0103-1.7284zM23,24.7498c0-.1379.1121-.25.25-.25.1378,0,.25.1121.25.25,0,.1378-.1122.25-.25.25-.1379,0-.25-.1122-.25-.25zm.25-1.25c-.6901,0-1.25.5598-1.25,1.25,0,.6901.5599,1.25,1.25,1.25s1.25-.5599,1.25-1.25c0-.6902-.5599-1.25-1.25-1.25zm-6,1c-.1379,0-.25.1121-.25.25,0,.1378.1121.25.25.25s.25-.1122.25-.25c0-.1379-.1121-.25-.25-.25zm-1.25.25c0-.6902.5599-1.25,1.25-1.25s1.25.5598,1.25,1.25c0,.6901-.5599,1.25-1.25,1.25s-1.25-.5599-1.25-1.25zm-5,0c0-.1379.1121-.25.25-.25s.25.1121.25.25c0,.1378-.1121.25-.25.25s-.25-.1122-.25-.25zm.25-1.25c-.6901,0-1.25001.5598-1.25001,1.25,0,.6901.55991,1.25,1.25001,1.25s1.25-.5599,1.25-1.25c0-.6902-.5599-1.25-1.25-1.25zm9,4c-.1379,0-.25.1121-.25.25,0,.1378.1121.25.25.25s.25-.1122.25-.25c0-.1379-.1121-.25-.25-.25zm-1.25.25c0-.6902.5599-1.25,1.25-1.25s1.25.5598,1.25,1.25c0,.6901-.5599,1.25-1.25,1.25s-1.25-.5599-1.25-1.25zm-5,0c0-.1379.1121-.25.25-.25s.25.1121.25.25c0,.1378-.1121.25-.25.25s-.25-.1122-.25-.25zm.25-1.25c-.6901,0-1.25.5598-1.25,1.25,0,.6901.5599,1.25,1.25,1.25s1.25-.5599,1.25-1.25c0-.6902-.5599-1.25-1.25-1.25z"/></svg>