<svg width="24" height="24" xmlns="http://www.w3.org/2000/svg"><path fill-rule="evenodd" clip-rule="evenodd" d="m2,3.99976h20v5h-.5c-1.4239,0-2.5,1.07614-2.5,2.50004,0,1.4238,1.0761,2.5,2.5,2.5h.5v5H2V3.99976zm1,1V17.9998h18v-3.0333c-1.7274-.2327-3-1.6609-3-3.4667,0-1.80593,1.2726-3.23411,3-3.4668V4.99976H3zm10,2.00048v-1h-1v1h-1v1h1v1h1v-1h1v-1h-1zm4,0v-1h-1v1h1zm0,1v1h-1v-1h1zm0,2.99996v-1h-1v1h1zm0,1v1h-1v-1h1zm0,2.9996v-1h-1v1h1zm0,1v1h-1v-1h1zm-3-2v-.9996h1v-1h-1v-1.0004h-1v1.0004h-1v1h1v.9996h1zM8.5,7.99976c-2.48514,0-4.5,2.01484-4.5,4.50004,0,2.4851,2.01486,4.5,4.5,4.5,1.15967,0,2.2037-.4491,2.9964-1.1623l.8583-.7722-1.1504-.0977C9.40886,14.815,8,13.3278,8,11.4998c0-1.03.45388-1.94889,1.17213-2.59408l.85567-.76863L8.88208,8.0357c-.02934-.00259-.05435-.00599-.08981-.01082h-.00001l-.0578-.00772c-.06163-.00799-.14351-.0174-.23446-.0174zM5,12.4998c0-1.662,1.15867-3.05361,2.71221-3.41101C7.26398,9.78275,7,10.6075,7,11.4998c0,1.929,1.2154,3.5565,2.91564,4.1934-.43271.1966-.91074.3066-1.41564.3066-1.93286,0-3.5-1.5672-3.5-3.5z"/></svg>