<svg width="24" height="24" xmlns="http://www.w3.org/2000/svg"><path fill-rule="evenodd" clip-rule="evenodd" d="m7,6.99951c0-1.10486.89514-2,2-2h6c1.1049,0,2,.89514,2,2v4.00099l-10-.001V6.99951zm0,4.99999v4h10v-3.999l-10-.001zm2-7.99999c-1.65714,0-3,1.34286-3,3v2H5v1.99999h1v8h4v-2h4.001v2H18v-8h1V8.99951h-1v-2c0-1.65714-1.3429-3-3-3H9zM15.001,17.9995v-1H17v1h-1.999zM7,16.9995v1h2v-1H7zm2-4c-.55279,0-1,.4495-1,1,0,.5522.44786,1,1,1s1-.4478,1-1c0-.5505-.44721-1-1-1zm5,1c0-.5505.4472-1,1-1s1,.4495,1,1c0,.5522-.4479,1-1,1s-1-.4478-1-1zm5,1h1v-2h-1v2zm3,1h-1v-4h1v4zm-18-3v2h1v-2H4zm-2,3v-4h1v4H2zm13.0001-9.999-6.00002-.001-.00016,1,5.99998.001.0002-1z"/></svg>