<svg width="24" height="24" xmlns="http://www.w3.org/2000/svg"><path fill-rule="evenodd" clip-rule="evenodd" d="m9.9976,8.99731c-.55286,0-1,.44715-1,1,0,.55289.44714.99999,1,.99999.5521,0,1-.4473,1-.99999,0-.55264-.4479-1-1-1zm-2,1c0-1.10514.89485-2,2-2,1.1039,0,2,.89465,2,2,0,1.10539-.8961,1.99999-2,1.99999-1.10515,0-2-.8948-2-1.99999zM14,14.9998c-.5518,0-1,.4481-1,1,0,.5526.448,1,1,1,.5521,0,1-.4474,1-1,0-.5519-.4481-1-1-1zm-2,1c0-1.1042.8959-2,2-2,1.1042,0,2,.8958,2,2,0,1.1053-.896,2-2,2-1.1039,0-2-.8947-2-2zm-4.14641,1.8535,9.00001-8.99999-.7071-.70711-9.00002,9,.70711.7071z"/></svg>