<svg width="24" height="24" xmlns="http://www.w3.org/2000/svg"><path fill-rule="evenodd" clip-rule="evenodd" d="m22.5,0h-21C.675,0,0,.675,0,1.5v21c0,.825.675,1.5,1.5,1.5h21c.825,0,1.5-.675,1.5-1.5v-21c0-.825-.675-1.5-1.5-1.5z" fill="#2d327d"/><path fill-rule="evenodd" clip-rule="evenodd" d="m14.6475,10.68,5.535,2.595c.48.2325.81.7275.81,1.29,0,.795-.645,1.4475-1.4475,1.4475H4.4475c-.795,0-1.4475-.645-1.4475-1.4475,0-.57.33-1.0575.81-1.2975l5.5425-2.595c.6075-.36,1.0275-1.01251,1.0575-1.77001v-.0525c0-.03.03-.06.06-.06h.765c.03,0,.06.03.06.06v3.53251c0,.3975.315.7125.7125.7125s.7125-.3225.7125-.7125V7.19999c0-.39751-.3225-.71251-.7125-.71251-.3975,0-.7125.32251-.7125.71251v.06749c0,.03001-.03.06-.06.06h-.765c-.03,0-.06-.03-.06-.06v-.06749c0-.87.72-1.59,1.59-1.59s1.59.7125,1.59,1.59v1.71c.0225.7575.4425,1.41001,1.0575,1.77001zm4.89,4.485c.33,0,.5925-.27.5925-.5925s-.2625-.5925-.585-.5925H4.4475c-.33,0-.5925.27-.5925.5925,0,.33.27.5925.5925.5925h15.09z" fill="#fff"/><path d="m20.1825,13.275.218-.45-.0058-.0027-.2122.4527zm-5.535-2.595-.2526.4315.0197.0115.0207.0097.2122-.4527zM3.81,13.2675l-.21208-.453-.01153.0058.22361.4472zm5.5425-2.595.21201.4528.022-.0103.02089-.0124-.2549-.4301zM10.41,8.90249l.4996.01978.0004-.00989v-.00989h-.5zm3.18.0075h-.5v.00742l.0002.00742.4998-.01484zM19.545,13.98v.5-.5zm.8497-1.1577-5.535-2.595-.4244.9054,5.535,2.595.4244-.9054zm1.0978,1.7427c0-.7608-.4456-1.4269-1.092-1.74l-.436.9c.3136.1519.528.4758.528.84h1zm-1.9475,1.9475c1.0803,0,1.9475-.8781,1.9475-1.9475h-1c0,.5205-.4228.9475-.9475.9475v1zm-15.0975,0H19.545v-1H4.4475v1zM2.5,14.565c0,1.0803.87804,1.9475,1.9475,1.9475v-1c-.52055,0-.9475-.4228-.9475-.9475h-1zm1.08639-1.7447C2.94749,13.1397,2.5,13.7942,2.5,14.565h1c0-.3692.21251-.6898.53361-.8503l-.44722-.8944zm5.5541-2.6006-5.5425,2.595.42402.9056,5.5425-2.595-.42402-.9056zm.7699-1.337c-.02299.58059-.3446,1.0822-.81279,1.3596l.5098.8603c.7468-.4425,1.2652-1.24591,1.3022-2.18033l-.99921-.03957zM9.91,8.84999v.0525h1v-.0525h-1zm.56-.56c-.1776,0-.3134.08377-.3948.16519-.08142.08142-.1652.21719-.1652.39481h1c0,.14761-.0688.25338-.1277.3123s-.1647.1277-.3123.1277v-1zm.765,0h-.765v1h.765v-1zM11.795,8.84999c0-.17761-.0838-.31338-.1652-.3948-.0814-.08143-.2172-.1652-.3948-.1652v1c-.1476,0-.2534-.06878-.3123-.12771-.0589-.05892-.1277-.16468-.1277-.31229h1zm0,3.51751V8.84999h-1v3.51751h1zm0,.015v-.015h-1v.015h1zm.2125.2125c-.1214,0-.2125-.0912-.2125-.2125h-1c0,.6736.5389,1.2125,1.2125,1.2125v-1zm.2125-.2125c0,.1173-.0946.2125-.2125.2125v1c.6771,0,1.2125-.5498,1.2125-1.2125h-1zm0-5.18251v5.18251h1V7.19999h-1zm-.2125-.21251c.1173,0,.2125.09457.2125.21251h1c0-.67707-.5498-1.21251-1.2125-1.21251v1zm-.2125.21251c0-.1173.0946-.21251.2125-.21251v-1c-.6771,0-1.2125.5498-1.2125,1.21251h1zm0,.06749v-.06749h-1v.06749h1zm-.56.56c.1776,0,.3134-.08377.3948-.16519s.1652-.21719.1652-.39481h-1c0-.14761.0688-.25338.1277-.3123s.1647-.1277.3123-.1277v1zm-.765,0h.765v-1h-.765v1zm-.56-.56c0,.17762.08377.31338.1652.39481.0814.08142.2172.16519.3948.16519v-1c.1476,0,.2534.06878.3123.1277s.1277.16469.1277.3123h-1zm0-.06749v.06749h1v-.06749h-1zm2.09-2.09c-1.1461,0-2.09.94385-2.09,2.09h1c0-.59386.4961-1.09,1.09-1.09v-1zm2.09,2.09c0-1.15518-.9454-2.09-2.09-2.09v1c.5954,0,1.09.49017,1.09,1.09h1zm0,1.71v-1.71h-1v1.71h1zm.8101,1.33851c-.4745-.27775-.7932-.77726-.8103-1.35336l-.9996.02969c.0279.9389.5492,1.74437,1.3047,2.18667l.5052-.863zm4.7299,4.324c0,.0505-.0427.0925-.0925.0925v1c.6103,0,1.0925-.498,1.0925-1.0925h-1zm-.085-.0925c.0184,0,.0386.0072.0568.0257.0186.019.0282.043.0282.0668h1c0-.5903-.4781-1.0925-1.085-1.0925v1zm-15.0975,0H19.545v-1H4.4475v1zm-.0925.0925c0-.0505.04275-.0925.0925-.0925v-1c-.61025,0-1.0925.498-1.0925,1.0925h1zm.0925.0925c-.05048,0-.0925-.0428-.0925-.0925h-1c0,.6102.49798,1.0925,1.0925,1.0925v-1zm15.09,0h-15.09v1h15.09v-1z" fill="#fff"/></svg>