<svg width="24" height="24" xmlns="http://www.w3.org/2000/svg"><path fill-rule="evenodd" clip-rule="evenodd" d="m9.55024,2h-.2071L8.14669,3.19645l-.14645.14644V18.6571l.14645.1465,1.05,1.05L9.34314,20H11v2h2v-2h1.6574l1.1964-1.1964.1464-.1465V3.34289l-.1464-.14644-1.05-1.05L14.6574,2H9.55024zm-.55,1.75711L9.75735,3h4.48575l.7571.75711V18.2429L14.2431,19H9.75735l-.75711-.7571V3.75711zM12,5c-.5521,0-1,.44736-1,1s.4479,1,1,1c.5529,0,1-.44714,1-1s-.4471-1-1-1zm-2,1c0-1.10536.8961-2,2-2,1.1051,0,2,.89486,2,2s-.8949,2-2,2c-1.1039,0-2-.89464-2-2zm2,3c-1.1039,0-2,.89464-2,2,0,1.1054.8961,2,2,2,1.1051,0,2-.8949,2-2,0-1.10514-.8949-2-2-2zm0,6c-.5519,0-1,.4481-1,1s.4481,1,1,1c.5526,0,1-.4479,1-1s-.4474-1-1-1zm-2,1c0-1.1041.8959-2,2-2,1.1054,0,2,.8961,2,2s-.8946,2-2,2c-1.1041,0-2-.8959-2-2zm7-4h2v-1h-2v1zM7,12H5v-1h2v1zm-4,0h1v-1H3v1zm3.35355,2.3536-2,2-.7071-.7072,2-2,.7071.7072zm14.00005,1.2928-2-2-.7072.7072,2,2,.7072-.7072zM4.35355,6.64645l2,2-.7071.7071-2-2,.7071-.7071zM21,12h-1v-1h1v1zm-2.6464-2.64645,2-2-.7072-.7071-2,2,.7072.7071z"/></svg>