<svg width="24" height="24" xmlns="http://www.w3.org/2000/svg"><path fill-rule="evenodd" clip-rule="evenodd" d="m11.9999,5.5c0-.25686.2432-.5.5-.5.2569,0,.5.24314.5.5s-.2431.5-.5.5c-.2568,0-.5-.24314-.5-.5zm.5-1.5c-.8091,0-1.5.69086-1.5,1.5s.6909,1.5,1.5,1.5c.8092,0,1.5-.69086,1.5-1.5s-.6908-1.5-1.5-1.5zM6.99995,6.5h-.36038l-.11396.34189-.74417,2.2325L4.3535,7.64645l-.70711.7071,1.8787,1.87865.45994,3.6796-2.4323,4.8646.89443.4472,2.5677-5.1354-.01877-.1502-.31925-2.554.88609.8861.89718,2.6915-1.90738,3.8148.89443.4472,2-4,.09262-.1852-.06549-.1965-.33022-.9907,3.03383,3.0338-.5868,1.7604-3.81476,1.9074.44721.8944,4.00005-2,.1852-.0926,1-3,1.913-.9565.0686-.0858L17.2403,13h1.4695l1.856,3.2481.8683-.4962-2-3.5L19.2901,12h-2.5305l-.1501.1877-1.9314,2.4142-2.087,1.0435-.0597.179-1.9887-1.9887.9475-4.73764.0525-.2624-.1892-.18921-2-2L9.20706,6.5H6.99995zM10.2928,9l-2.29285,2.2929L6.70705,10l2.2929-2.29289L10.2928,9zM7.79284,7.5l-.64877.64877L7.36033,7.5h.43251zm2.39296,3.0213L8.70706,12l.98582.9858.49292-2.4645zm8.2784,5.1644-1,2.5-.0577.1442-.1292.0861-3,2-.5547-.832,2.8708-1.9139.9423-2.3558.9285.3714z"/></svg>