<svg width="48" height="48" xmlns="http://www.w3.org/2000/svg"><path fill-rule="evenodd" clip-rule="evenodd" d="m3,8.5C3,7.67157,3.67157,7,4.5,7h39c.8284,0,1.5.67157,1.5,1.5V31H3V8.5zM3,32v1.5c0,.8284.67157,1.5,1.5,1.5h39c.8284,0,1.5-.6716,1.5-1.5V32H3zm17.8063,4H4.5C3.11929,36,2,34.8807,2,33.5v-25C2,7.11929,3.11929,6,4.5,6h39C44.8807,6,46,7.11929,46,8.5v25c0,1.3807-1.1193,2.5-2.5,2.5H27.1937l1.6667,5H34.5v1h-21v-1h5.6396l1.6667-5zm5.3333,0,1.6667,5h-7.6126l1.6667-5h4.2792zM40,34h3v-1h-3v1zm-1,0h-2v-1h2v1zM27,9h-5V8h5v1zm-7,0h1V8h-1v1z"/></svg>