<svg width="36" height="36" xmlns="http://www.w3.org/2000/svg"><path fill-rule="evenodd" clip-rule="evenodd" d="m9.26518,6.25H18.957l.1464.14645,7.5,7.49995.1464.1465V29.75H9.24951l.00034-.5003.015-22.50003L9.26518,6.25zm.99932,1-.0143,21.5h15.4996v-14h-7.5v-7.5h-7.9853zM19.2498,7.95711,25.0427,13.75h-5.7929V7.95711zm-5.645,14.54299h-1.605v3.885h1.62c.2687.0029.5364-.0325.795-.105.2095-.0772.3991-.2002.555-.36.3783-.4066.5828-.9448.57-1.5.015-.2786-.0309-.5571-.1345-.8162-.1036-.259-.2625-.4924-.4655-.6838-.161-.1504-.3569-.2586-.57-.315-.2472-.0779-.5059-.1134-.765-.105zm-.735,3.24v-2.505l.63.03c.1578-.0114.3162.0093.4658.0609.1495.0516.287.1329.4042.2391.2086.2632.3104.5952.285.93.02.3621-.0919.7191-.315,1.005-.0944.1061-.2126.1884-.345.24-.1643.0204-.3306.0204-.495,0h-.63zM17.9995,22.3501c.497-.0089.9772.1799,1.335.525.1914.1992.3416.4343.442.6917s.149.5321.143.8083c.0195.5081-.1397,1.007-.45,1.41-.18.2217-.4094.3983-.6698.5155-.2605.1172-.5448.1718-.8302.1595-.2862.0082-.5705-.0498-.8307-.1695s-.4892-.2978-.6693-.5205c-.2993-.4021-.4527-.8941-.435-1.395-.0122-.2757.0321-.551.1301-.8089s.2477-.4931.4399-.6911c.1853-.1768.4044-.3144.6441-.4046s.4951-.1312.7509-.1204zM17.9767,23.0701c-.1423.0016-.2826.0344-.411.0962-.1353.065-.2538.1604-.3462.2788-.2142.284-.3205.6348-.3.99-.0242.3602.0824.717.3,1.005.095.1092.2128.1962.345.255.1444.0718.3039.1078.465.105.1415.0027.2819-.0254.4114-.0824s.2451-.1415.3386-.2476c.224-.297.3355-.6637.315-1.035.0206-.3552-.0857-.706-.3-.99-.1004-.136-.2356-.2425-.3912-.3085-.1557-.0659-.3262-.0889-.4938-.0665h.0672zm5.6033,2.8797c.2542-.2986.4019-.6732.42-1.065l-.975-.015c-.0066.2529-.1084.4939-.285.675-.0793.0818-.1753.1455-.2814.1869s-.2198.0595-.3336.0531c-.1693.0079-.3375-.0313-.4858-.1134-.1484-.0822-.271-.2039-.3542-.3516-.1535-.2741-.2263-.5862-.21-.9-.0143-.3088.0585-.6155.21-.885.0683-.1299.165-.2428.2829-.3302.118-.0873.2542-.1469.3984-.1743s.2927-.0219.4345.0161c.1417.038.2731.1076.3842.2034.1586.128.2652.3093.3.51h.855c-.0184-.3281-.1573-.6379-.39-.87-.1684-.1844-.3753-.3296-.6059-.4255-.2307-.0959-.4795-.1401-.7291-.1295-.2649-.012-.5292.0357-.7733.1395-.244.1039-.4616.2613-.6367.4605-.3701.4096-.5641.9485-.54,1.5-.0167.5124.1421,1.0152.45,1.425.1792.2218.4089.3975.6698.5123.261.1149.5457.1655.8302.1477.2559.0144.5116-.0295.748-.1282s.4474-.2498.617-.4418z"/></svg>