<svg width="24" height="24" xmlns="http://www.w3.org/2000/svg"><path fill-rule="evenodd" clip-rule="evenodd" d="m5,9.00609C5,5.13718,8.13357,2,12,2c3.8664,0,7,3.13718,7,7.00609v.00447c-.0105,1.17364-.38,2.21334-.9336,3.18364l-.0045.0079-.0049.0078-5.6136,9.0536-.4249.6853-.425-.6853-5.61361-9.0536-.00407-.0066h.00005c-.56681-.9465-.92812-1.9655-.97549-3.17768L5,9.01586v-.00977zm1.00001-.00977c.0413,1.01378.33998,1.86768.83183,2.68998l5.18666,8.3649,5.1838-8.3604c.4918-.8642.7887-1.73346.7977-2.68695C17.9988,5.68737,15.3125,3,12,3,8.68999,3,6.00528,5.6833,6.00001,8.99632zM12,9.41162c.0175,0,.0317-.01421.0317-.03175,0-.01753-.0142-.03174-.0317-.03174s-.0318.01421-.0318.03174c0,.01754.0143.03175.0318.03175zm-.9683-.03175c0-.53475.4335-.96825.9683-.96825.5347,0,.9682.4335.9682.96825,0,.53476-.4335.96823-.9682.96823-.5348,0-.9683-.43347-.9683-.96823zM11,6h-.309l-.1382.27639L10.191,7H8v5h8V7h-2.191l-.3618-.72361L13.309,6H11zm-.0528,1.72361L11.309,7h1.382l.3618.72361L13.191,8H15v3H9V8h1.809l.1382-.27639z"/></svg>