<svg width="30" height="16" xmlns="http://www.w3.org/2000/svg"><path fill-rule="evenodd" clip-rule="evenodd" d="m23.0457,1.00002h-3.3008L16.8235,14.9624h2.8013l1.2207-5.80074h1.0595c1.2904,0,1.428.74908,1.6359,1.88074.0371.2018.0764.4157.1249.6398l.6797,3.2802h2.9414L25.946,9.34131c-.1021-.71353-.6996-1.2521-1.4199-1.27979v-.04c2.2803-.04004,4.0801-1.32031,4.0801-3.7207,0-3.301796-2.9113-3.301271-5.4701-3.30081-.0302.00001-.0603.00001-.0904.00001zm-.6807,5.96096h-1.0195l.7803-3.76075h1.1601c1.1396,0,2.4004,0,2.4004,1.46045,0,1.8403-1.8203,2.3003-3.3213,2.3003zm-9.6792-5.96092H9.58521L1.12329,14.9625h3.10059l1.78076-3.2002h5.94096l.4804,3.2002h2.8003L12.6858,1.00006zm-1.1201,8.561H7.24487L10.6057,3.4805h.0796l.8804,6.08056z"/></svg>