<svg width="27" height="16" xmlns="http://www.w3.org/2000/svg"><path fill-rule="evenodd" clip-rule="evenodd" d="m9.462,3.13252c1.46,0,2.801.29177,3.881.9703l.7-2.34674C12.582,1.21325,10.943,1,9.382,1,4.341,1,1,4.04369,1,8.9892,1,13.1767,3.74,15,7.842,15c1.359,0,2.92-.2714,3.74-.601l1.601-7.3882H7.522l-.46,2.13349h2.96l-.781,3.58651c-.319.1367-.74.1367-1.379.1367-2.381,0-3.941-1.7652-3.941-3.95585,0-3.19975,2.14-5.77913,5.541-5.77913zm10.3185,4.36297h-1l.9-4.1303h.88c1.2,0,2.341.29079,2.341,1.66821,0,1.68663-1.581,2.46209-3.121,2.46209zm-5.401,7.27191h2.8l1.121-5.13845h1.62c3.121,0,5.901-1.61006,5.901-4.88638,0-3.37423-3.54-3.50994-6.121-3.50994h-2.36l-2.961,13.53477z"/></svg>