<svg width="24" height="24" xmlns="http://www.w3.org/2000/svg"><path fill-rule="evenodd" clip-rule="evenodd" d="m5,2h14v20H5V2zm1,1v18h12V3H6zm10,13H8v-1h8v1zm-8,2h8v-1H8v1zm4.0351-6.3039c-.0224-.0245-.0976-.1441-.1455-.6612-.0439-.4736-.0722-.729-.0917-.8291-.029-.1294-.0827-.25193-.1583-.36082-.0697-.1073-.1616-.19836-.2695-.26709.1372-.08636.2557-.19922.3487-.33203.1599-.23944.2414-.5227.2333-.81055.0032-.24292-.0532-.48297-.164-.69922-.111-.20813-.2759-.38256-.4776-.50488-.3088-.16662-.6572-.24579-1.0078-.229H8v5.01169h.92285V9.97096h1.09075c.2321-.02167.4656.02002.6758.12064.166.1079.2666.4023.2891.852.0185.3789.0341.5933.0498.6929.0152.1116.0553.2184.1171.3125l.045.0649h1.1211l-.2764-.3178zM10.75,9.04463c-.086.04846-.1805.08008-.2783.09326-.1745.02338-.3504.03351-.52639.03027H8.92285V7.84394h1.19045c.1636-.00457.3273.0105.4873.04493.0939.02276.1807.06817.2529.13232.1215.12463.1844.29504.1729.46875.0222.22266-.0852.43835-.2764.55469zm3.5274,1.71127,1.2578-3.75391.9824-.00004-1.793,5.01175h-.9199l-.0362-.0996-1.7539-4.91215h1.0108l1.252,3.75395z"/></svg>